<?xml version="1.0" encoding="UTF-8"?>
<svg id="Layer_1" data-name="Layer 1" xmlns="http://www.w3.org/2000/svg" viewBox="0 0 800 800">
  <defs>
    <style>
      .cls-1 {
        fill: none;
      }
    </style>
  </defs>
  <rect class="cls-1" width="800" height="800"/>
  <path d="M769.38,650.87c-38.18-37.62-76.75-74.84-115.3-112.08-11.37-10.99-24.79-12.59-39.8-8.36-3.83,1.08-10.05-.2-12.92-2.84-18.09-16.69-35.14-34.51-53.38-51.02-7.92-7.17-8.79-12.34-3.29-21.79,33.76-57.99,45.59-120.65,35.01-186.8C557.77,130.77,439.43,30.41,300.75,29.85c-13.45,1.02-27.03,1.25-40.32,3.29-13.67,2.09-27.33,5.1-40.55,9.16C72.51,87.49-10.05,234.55,27.47,384.53c30.07,120.2,142.14,209.17,265.88,211.02,63.97,.96,122.22-16.65,173.86-54.67,7.05-5.19,10.88-4.54,16.75,1.43,16.97,17.27,34.51,34,52.1,50.65,4.81,4.55,6.91,8.4,4.11,15.29-5.9,14.51-1.51,27.56,9.18,38.05,38.26,37.54,76.68,74.91,115.38,112,15.79,15.13,36.67,14.87,52.21-.49,18.07-17.86,35.75-36.13,53.1-54.69,14.93-15.97,14.82-36.99-.67-52.25Zm-469.74-79.22c-142.19-.24-257.88-116.62-257.63-259.15,.26-143.18,116.19-258.44,259.67-258.17,142.45,.27,257.79,116.23,257.62,258.98-.17,143.04-116.3,258.58-259.66,258.33Zm198.86-56.42c5.94-6.53,15.4-16.93,26.86-29.54,21.26,23.16,41.58,45.31,62.62,68.23-8.22,7.59-18.38,16.97-29.94,27.64-19.06-21.23-38.85-43.27-59.55-66.33Zm252.63,173.23c-16.37,16.76-32.52,33.74-49.01,50.39-8.69,8.78-14.09,8.72-23.31-.18-36.86-35.57-73.63-71.24-110.3-107-9.17-8.94-9.28-14.08-.57-23.25,16.14-16.98,32.47-33.78,48.98-50.41,2.86-2.88,7-4.5,11.22-7.12,4.29,2.68,8.35,4.37,11.3,7.21,37.17,35.82,74.14,71.85,111.24,107.73,7.82,7.56,8.04,14.84,.43,22.62ZM299.95,83.28c-126.73,.24-229.26,103.2-229.09,230.05,.17,126.51,103.28,229.45,229.88,229.5,126.96,.05,230.05-103.57,229.72-230.87-.33-126.55-103.53-228.92-230.51-228.68Zm.3,435.47c-113.6-.38-205.87-93.44-205.26-207,.62-113.19,93.03-204.79,206.36-204.52,113.29,.27,205.32,92.46,205.23,205.6-.09,113.7-92.87,206.3-206.33,205.92ZM430.1,223.54c-39.38-22.23-78.54-44.86-117.52-67.8-8.68-5.11-15.77-4.7-24.24,.29-39.33,23.11-78.86,45.9-118.5,68.47-7.75,4.42-11.3,9.78-11.23,18.96,.35,46.45,.33,92.91,.02,139.37-.06,8.67,3.21,14.02,10.53,18.21,40.63,23.24,80.96,47.03,121.89,69.73,5.08,2.82,14.46,2.68,19.58-.17,40.92-22.72,81.25-46.51,121.89-69.73,7.01-4,10.07-9.11,9.94-17.26-.35-23.42-.12-46.85-.12-70.28,0-22.63-.48-45.28,.21-67.89,.32-10.5-3.33-16.76-12.44-21.91Zm-141.25,213.11c0,1.04-.75,2.08-1.65,4.41-8.18-4.58-16.01-8.85-23.75-13.31-24.05-13.85-48.21-27.52-71.93-41.91-3.95-2.4-8.37-8-8.44-12.2-.64-36.49-.35-73-.28-109.5,0-1.04,.55-2.09,1.24-4.53,13.49,7.73,26.43,15.13,39.36,22.57,19.24,11.07,38.6,21.95,57.58,33.45,3.48,2.11,7.64,6.78,7.69,10.32,.52,36.89,.28,73.79,.18,110.69Zm16.47-140.34c-2.27,1.29-6.48,1.51-8.67,.27-33.3-18.92-66.42-38.16-101.64-58.52,11.92-6.99,21.95-12.93,32.03-18.78,21.92-12.72,43.79-25.55,65.9-37.93,3.32-1.86,8.93-3.46,11.66-1.93,33.41,18.71,66.49,38.03,101.94,58.52-35.41,20.49-68.24,39.58-101.23,58.37Zm112.86,79.21c-.02,2.86-2.38,6.91-4.86,8.37-32.11,18.82-64.44,37.28-96.74,55.77-.54,.31-1.47-.07-3.59-.24,0-17.2,0-34.51,0-51.81,0-19.82-.24-39.64,.22-59.45,.08-3.73,1.86-9.17,4.64-10.82,32.59-19.4,65.53-38.23,100.55-58.46,0,40.61,.11,78.63-.21,116.65Z"/>
</svg>