<?xml version="1.0" encoding="UTF-8"?>
<svg id="Layer_1" data-name="Layer 1" xmlns="http://www.w3.org/2000/svg" viewBox="0 0 800 800">
  <defs>
    <style>
      .cls-1 {
        fill: none;
      }
    </style>
  </defs>
  <rect class="cls-1" width="800" height="800"/>
  <path d="M722.81,290.39c-1.51-9.58-6.46-12.8-15.43-12.58-10.38,.26-20.84,.68-31.13-.31-3.43-.33-8-4.14-9.41-7.48-4.8-11.36-7.9-23.43-12.63-34.82-4.87-11.74-16.65-24.06-14.81-34.21,1.96-10.83,16.14-19.59,25.3-28.95,6.08-6.22,6.41-12.05,1.3-19.09-20.84-28.69-45.62-53.33-74.09-74.44-7.94-5.89-14.31-5.65-20.87,1.6-8.55,9.44-17.3,18.7-25.27,27.3-15.97-7.53-29.47-14.37-43.35-20.3-11.62-4.96-28.27-5.62-34.28-14.13-6.1-8.64-2.17-24.56-2.11-37.29,.04-8.66-3.38-13.09-12.21-14.5-35.4-5.65-70.71-5.7-106.12-.06-8.62,1.38-12.81,5.22-12.6,14.11,.25,10.78,.44,21.6-.22,32.35-.19,3.14-2.67,7.82-5.28,8.88-24.23,9.84-48.71,19.04-75.22,29.24-7.28-7.63-16.12-16.83-24.88-26.11-5.79-6.14-11.68-7.31-18.96-2.01-29.32,21.34-54.69,46.54-75.88,75.98-4.79,6.66-4.35,12.39,1.45,18.07,7.41,7.28,14.41,15,22.09,21.97,5.05,4.58,5.54,8.35,2.14,14.4-6.04,10.76-11.43,21.96-16.19,33.35-4.88,11.68-5.4,28.43-13.87,34.44-8.61,6.1-24.59,2-37.35,2-8.48,0-13.14,3.15-14.58,12.13-5.77,35.81-5.8,71.51,.1,107.3,1.47,8.92,6.29,12.25,14.67,12.19,10.39-.07,20.79-.27,31.16,.16,3.14,.13,8.59,1.72,8.93,3.45,3.21,16.3,12.81,30.56,7.51,49.52-16.75,59.86-31.09,120.4-46.17,180.73-3.67,14.66-1.6,17.81,12.5,21.43,25.88,6.65,51.8,13.16,77.67,19.84,9.7,2.51,15.28-.91,17.49-10.73,1.9-8.45,4.38-16.77,6.96-26.5,4.19,4.01,7.37,6.94,10.43,10,37.31,37.26,74.55,74.6,111.94,111.78,13.83,13.76,32.21,18,46.78,9.22,8.47-5.11,15.05-13.34,23.17-20.81,11.32,10.95,22.25,25.67,42.69,24.15,20.25-1.5,31.15-13.73,37.28-31.17,32.06,2.62,43.09-5.63,53.19-39.44,19.14-1.76,34.69-11.14,37.48-30.62,2.18-15.24,11.42-17.45,22.59-21.85,1.24,4.42,2.26,7.8,3.13,11.23,4.02,15.89,6.75,17.39,22.54,13.36,23.57-6.02,47.19-11.85,70.82-17.66,17.28-4.25,19.13-6.83,14.79-24.07-12.73-50.64-25.48-101.27-38.6-151.81-6.3-24.27-14.61-48.4-.69-72.62,1.89-3.29,6.17-6.93,9.64-7.25,10.3-.96,20.75-.49,31.13-.32,9.01,.14,13.81-3.56,15.3-12.93,5.63-35.41,5.61-70.71,.03-106.14ZM186.74,650.14c-2.18,8.8-4.48,12.88-15.13,9.41-17.71-5.78-36.11-9.44-55.86-14.41,18.85-74.56,37.27-147.4,56.07-221.78,22.44,5.59,44.22,11.01,67.44,16.79-4.8,19.65-9.28,38.45-14,57.19-12.83,50.94-25.89,101.81-38.53,152.8Zm353.5-207.86c1.91,7.28,3.72,14.59,5.8,22.76-13.79,7.43-25.22,8.61-38.71,0-23.52-15.03-48.62-27.3-76.57-32.67-16.67-3.2-32.32-1.09-48.01,4.99-7.19,2.79-15.18,4.69-22.85,4.82-32.28,.52-64.58,.22-98.84,.22,5.8-16.62-4.2-20.77-16.51-22.52-8.12-1.15-11.86-5.6-14.71-13.25-39.39-105.58,25.57-220.87,137.74-241.52,68.32-12.57,126.85,8.46,171.68,61.33,43.88,51.76,53.52,111.48,33.64,176.32-3.34,10.9-9.51,16.22-20.32,18.54-14.29,3.06-16.07,6.85-12.35,20.99Zm7.35,241.57c-8.1,8.48-18.7,7.64-29.27-2.8-19.04-18.82-37.89-37.83-56.82-56.76-7.63-7.63-15.26-15.25-22.9-22.87-5.26-5.24-10.94-11.14-18.19-3.82-6.8,6.87-2.43,12.92,3.15,18.46,19.56,19.43,39,38.97,58.48,58.47,7.06,7.06,14.2,14.05,21.17,21.2,10.02,10.27,11.09,21.58,2.97,29.43-8.32,8.05-18.69,6.85-29.34-3.76-28.86-28.76-57.62-57.63-86.44-86.45-2.54-2.54-4.84-6.41-7.85-7.13-4.42-1.06-10.59-1.41-13.7,.97-2.27,1.73-1.63,8.54-.7,12.73,.59,2.68,4.03,4.77,6.28,7.02,24.83,24.88,49.69,49.75,74.53,74.62,1.98,1.98,4.04,3.88,5.86,6,7.3,8.54,7.46,18.61,.51,25.89-7.33,7.68-18.01,8-26.64-.41-21.74-21.19-43.06-42.81-64.56-64.26-6.79-6.77-12.96-14.41-20.66-19.91-3.71-2.64-11.71-3.42-15.29-1.15-6.04,3.84-4.11,10.58,.68,15.44,14.87,15.08,30.09,29.81,44.74,45.1,7.98,8.34,7.53,19.68-.04,26.74-7.44,6.94-17.2,6.61-25.84-.91-1.5-1.31-2.88-2.76-4.3-4.18-32.2-32.2-64.4-64.41-96.59-96.62-2.26-2.26-4.21-5-6.84-6.69-23.53-15.12-25.06-34.79-16.98-60.16,11.47-36.02,19.62-73.13,28.34-109.98,2.59-10.94,6.37-15.84,18.72-15.25,24.19,1.16,48.47,.34,75.26,.34-23.23,27.16-44.53,51.95-65.68,76.87-10.53,12.4-10.15,15.81,1.98,26.59,23.74,21.09,52.11,24.59,80.98,9.31,11.98-6.34,23.16-14.18,35.06-20.71,22.63-12.42,36.59-10.29,54.56,7.67,29.95,29.93,59.88,59.89,89.82,89.84,.85,.85,1.68,1.71,2.51,2.57,9.75,10.14,10.84,20.36,3.03,28.52Zm39.73-46.46q-19.49,11.46-35.35-4.42c-28.8-28.81-58.55-56.74-86.11-86.68-22.56-24.5-53.83-23.55-76.23-10.69-13.14,7.54-25.87,15.88-39.29,22.87-18.38,9.57-36,7.7-55.12-7.9,28.16-29.22,54.86-58.75,83.63-86.09,16.74-15.91,39.23-16.37,59.93-8.45,21.86,8.37,43.2,18.71,63.49,30.39,12.15,6.99,22.84,9.98,35.74,4.23,3.88-1.73,8.26-2.32,13.63-3.77,12.62,49.91,25.1,99.25,37.51,148.31-.82,1.01-1.19,1.83-1.82,2.2Zm97.94,7.7c-22.84,5.81-44.32,11.28-67.32,17.14-5.21-20.04-10.28-39.12-15.15-58.26-12.95-50.99-25.75-102.02-38.78-153-1.84-7.21-1.89-11.48,7.41-13.37,19.05-3.87,37.8-9.28,57.83-14.34,18.92,74.92,37.33,147.83,56.01,221.83Zm17.71-257.13c-11.69,0-22.41,.38-33.08-.1-11.65-.53-21.37,.86-21.16,16.51-19.73-9.55-35.8,4.81-54.95,4.86,22.81-85.15,5.73-159.8-61.05-219.33-43.03-38.36-94.83-53.91-151.96-48.22-64.71,6.45-115.51,37.82-150.86,92.34-35.12,54.15-40.39,112.97-22.01,175.01-18.9,.92-35.19-14.1-54.92-4.86-.26-17.78-12.98-16.64-25.46-16.27-9.14,.27-18.3,.05-27.11,.05-6.89-16.22-7.34-68.86-.66-88.98,11.47,0,23.38-.29,35.27,.09,9.24,.3,14.7-2.41,16.97-12.45,6.38-28.21,17.31-54.71,32.94-79.15,4.58-7.15,3.87-13.35-2.38-19.22-9.01-8.46-17.81-17.15-29.14-28.1,21.18-21.35,41.47-41.81,62.94-63.46,10.34,10.24,19.32,18.53,27.57,27.49,6.79,7.38,12.71,7.59,22.01,3.28,25.2-11.68,50.94-22.33,77.01-31.92,9.14-3.36,13.23-7.36,12.84-16.85-.4-9.57,.18-19.18-.16-28.75-.23-6.34,1.68-9.88,8.56-9.86,24.29,.08,48.58,.09,72.87,.02,6.98-.02,8.64,3.71,8.44,9.95-.32,9.98,.16,19.98-.13,29.95-.25,8.55,3.24,13.11,11.84,15.02,28.29,6.27,54.75,17.22,79.18,32.86,7.23,4.62,13.28,4.35,19.09-2.13,8.49-9.47,17.14-18.81,27.66-30.33,22.48,22.43,42.89,42.79,65.77,65.62-11.55,10.37-20.97,18.86-30.43,27.32-6.41,5.73-6.9,12.04-2.32,19.19,15.64,24.43,26.48,50.96,32.99,79.14,2.13,9.22,6.77,12.65,15.79,12.39,11.95-.35,23.91-.09,37.43-.09,5.52,29.54,4.47,58.58,.62,88.98Zm-195.6-148.63c-11.93,.11-23.86,.03-37.83,.03,0-6.34,.37-11.12-.07-15.83-1.24-13.2-8.56-21.19-21.38-21.38-31.96-.47-63.93-.49-95.89,0-13.35,.2-20.79,8.85-21.27,22.48-.16,4.6-.03,9.2-.03,14.72-13.37,0-24.91,.17-36.43-.05-10.44-.2-15.55,4.49-15.53,15.06,.06,52.35,.06,104.69,0,157.04-.01,10.25,4.13,15.18,15.13,15.14,71.12-.26,142.25-.24,213.38-.02,10.33,.03,14.67-4.62,14.67-14.35,.02-52.74,0-105.49,0-158.23,0-9.87-4.83-14.69-14.76-14.6Zm-154.53-15.85h94.86v15.13h-94.86v-15.13Zm147.56,181.4h-199.72v-77.79c21.47,1.4,43.3,2.81,65.8,4.27,.15,2.81,.41,5.52,.43,8.22,.06,8.81,4.43,13.34,13.24,13.38,13.58,.06,27.17,.07,40.76,0,15.27-.07,12.66-12.23,13.76-21.67,22.19-1.39,43.8-2.74,65.74-4.11v77.69Zm-111.28-73.12v-24.45h22.85v24.45h-22.85Zm111.42-44.31c-1.52,11.34-8.74,19.78-20.09,20.85-14.94,1.41-30.11,.35-45.57,.35-.3-3.78-.73-6.5-.69-9.21,.13-9.52-4.67-13.9-13.97-13.89-11.98,.02-23.97-.09-35.95,0-14.24,.11-16.55,2.4-17.38,16.48-.11,1.91-.46,3.8-.84,6.74-15.09,0-29.82,.65-44.45-.21-11.27-.66-19.84-10.54-21.39-22.49-.41-3.15-.21-6.38-.23-9.57-.03-4.7,0-9.4,0-14.84h200.8c0,8.6,.91,17.34-.22,25.8Z"/>
</svg>