<?xml version="1.0" encoding="UTF-8"?>
<svg id="Layer_1" data-name="Layer 1" xmlns="http://www.w3.org/2000/svg" viewBox="0 0 800 800">
  <defs>
    <style>
      .cls-1 {
        fill: none;
      }
    </style>
  </defs>
  <rect class="cls-1" width="800" height="800"/>
  <path d="M783.99,376.2c-8.84-25.99-19.47-51.38-29.82-76.83-2.15-5.28-7.39-7.57-13.08-5.42-5.48,2.07-7.94,6.62-6.93,12.49,.53,3.1,1.54,6.17,2.69,9.11,7.23,18.56,14.08,37.29,22.06,55.52,3.37,7.71,1.08,10.43-5.79,12.93-15.36,5.6-30.74,11.25-45.71,17.78-6.27,2.73-7.92,1.15-10.14-4.55-23.61-60.49-47.38-120.92-71.52-181.2-2.58-6.44-.7-8.31,4.74-10.34,15.69-5.87,31.5-11.54,46.74-18.43,6.95-3.14,8.79-.83,11.01,4.93,8.45,21.93,17.25,43.73,25.86,65.61,2.71,6.89,7.42,10.92,14.81,8.25,8.03-2.89,8.92-9.14,5.93-16.63-9.75-24.41-19.02-49.03-29.12-73.3-5.12-12.31-17.12-16.98-29.63-12.26-19.4,7.32-38.6,15.18-57.97,22.58-10.83,4.14-17.1,11.57-17.53,23.22-.13,3.57-.51,5.71-4.36,7.19-23.57,9.08-46.98,18.41-73.11,11.53-6.15-1.62-12.56-2.32-18.88-3.19-6.83-.94-12.05,1.41-13.48,8.61-1.58,7.97,3.26,12.52,10.23,13.47,17.77,2.41,35.29,7.21,53.52,5.62,16.63-1.44,31.42-8.66,46.72-14.27,4.72-1.73,8.19-2.98,10.85,3.85,19.31,49.76,39.08,99.35,58.83,148.93,1.97,4.95,1.14,7.86-3.61,10.73-11.61,7.01-23.11,14.27-34.17,22.11-5.82,4.13-9.76,3.86-15.5-.49-27.06-20.51-54.65-40.32-81.79-60.74-5.91-4.45-11.76-5.9-18.89-4.87-42.66,6.17-78.61-7.9-109.42-36.86-17.11-16.08-26.53-16.36-44.5-1.26-16.91,14.21-34.67,27.01-56.87,31.87-13.36,2.93-25.42,.06-36.08-8.32-6.12-4.81-6.27-10.07,.46-14.49,38.62-25.35,72.87-55.9,105.69-88.19,7.86-7.73,17.71-10.33,28.73-8.64,13.82,2.12,27.66,4.09,41.51,5.96,7.37,.99,13.08-1.58,13.74-9.58,.57-6.92-3.45-10.98-10.52-12.12-13.8-2.21-27.5-5.07-41.34-6.93-17.53-2.36-34.31,1.33-46.33,14.35-10.51,11.39-20.24,13.66-35.12,9.46-25.92-7.32-53.17-5.79-79.87-6.52-14.88-.41-28.25-3.74-41.54-9.62-4.08-1.8-4.9-3.92-5.07-8.03-.47-11.68-7.12-18.98-17.81-23.09-18.98-7.3-37.85-14.91-56.89-22.05-13.76-5.16-25.6-.21-31.06,13.49-25.5,64.03-50.84,128.12-75.94,192.31-5.8,14.84-.81,25.51,14.08,31.72,18.78,7.82,37.73,15.21,56.64,22.72,6.91,2.75,14.12,3.85,20.86,.2,4.15-2.25,7.08-1.9,10.86,.56,14.4,9.37,28.94,18.55,43.56,27.58,5.16,3.19,6.48,6.07,4.16,12.54-9.48,26.48,6.08,51.56,34.16,55.24,5.72,.75,8.45,2.33,9.79,7.69,4.65,18.47,17.34,28.34,35.58,30.69,6.25,.81,8.61,2.75,10.14,8.66,4.48,17.28,16.46,27.28,33.81,29.45,7.1,.89,9.61,3.05,11.72,9.72,9.39,29.68,43.59,39.14,66.42,18.73,5.02-4.49,9.55-13.49,14.21-13.42,5.89,.09,11.52,7.57,17.53,11.44,24.48,15.78,57.76,6.6,66.83-19.9,3.5-10.23,7.85-10.79,16.65-10.24,23.59,1.48,41.86-11.99,46.29-34.42,1.4-7.09,3.35-8.69,10.43-8.67,20.45,.04,36.91-11.74,42.21-30.78,2.24-8.06,4.6-12.35,12.43-9.65,26.42,.03,48.66-19.78,45.07-44.36-2.68-18.34,4.71-25.7,18.35-32.32,4.28-2.08,8.24-4.93,12.09-7.78,5.77-4.27,10.77-6.63,17.82-1.15,5.04,3.91,12.1,3.52,18.43,1.04,20.79-8.15,41.75-15.9,62.31-24.61,10.26-4.35,16.38-13.98,12.85-24.36Zm-679.09,18.98c-2.93,7.54-5.95,9.3-13.61,5.87-14.91-6.67-30.21-12.51-45.52-18.26-5.23-1.97-6.63-3.93-4.39-9.54,24.19-60.69,48.12-121.49,72.06-182.28,1.58-4.02,2.64-7.09,8.37-4.66,16.53,6.99,33.32,13.35,50,19.98,2.51,1,5.66,1.45,5.25,5.09-.93,2.51-1.72,4.75-2.59,6.97-23.24,58.93-46.6,117.81-69.57,176.83Zm104.74,102.26c-7.74,.86-14.44-1.04-18.38-8.25-3.72-6.82-3.88-14.16,1.03-20.28,9.47-11.81,19.42-23.24,29.46-34.57,5.36-6.06,12.59-6.89,19.8-4.26,7.45,2.72,10.63,9.15,11.87,16.64,.34,10.28-33.56,49.59-43.77,50.72Zm52.02,36.29c-2.18,1.94-5.78,2.28-7.34,2.85-8.48-.07-14.09-2.77-17.57-8.76-3.66-6.29-4.32-13.45,.17-19.14,10.12-12.81,20.47-25.56,31.93-37.15,6.5-6.58,15.56-5.86,22.96,.08,7.1,5.7,9.47,14.44,4.8,21.49-9.86,14.9-21.51,28.65-34.95,40.62Zm38.71,40.75c-7.31,1-13.46-1.17-17.72-7.35-4.2-6.09-5.42-13.25-.9-19.05,10.28-13.17,21.16-25.92,32.49-38.2,4.97-5.39,12.2-5.63,18.93-2.49,6.74,3.14,10.29,8.57,10.23,14.95,.27,12.44-31.95,50.61-43.03,52.13Zm85.82-2.47c-9.43,12.79-20.27,24.57-30.75,36.56-2.97,3.4-7.21,4.93-10.96,4.52-7.96,.44-13.51-2.42-16.99-8.38-3.94-6.75-4.07-14.08,.84-20.19,9.73-12.11,19.6-24.18,30.36-35.36,6.95-7.21,16.07-6.92,23.81-.63,7.88,6.41,9.55,15.54,3.69,23.48Zm233.82-102.62c-1.52,9.34-7.52,14.72-16.12,17.48-8.08,2.59-14.98-.61-21.21-5.31-14.04-10.58-27.86-21.46-41.9-32.04-6.58-4.96-13.81-12.42-21.49-2.65-7.49,9.54,.58,15.05,7.39,20.29,9.19,7.06,18.39,14.1,27.53,21.23,10.36,8.09,12.8,20.72,5.98,30.45-7.04,10.06-19.72,13.06-30.7,5.66-13.56-9.15-26.21-19.65-39.34-29.44-2.83-2.11-5.84-4.35-9.13-5.41-5.21-1.68-9.62,.67-12.17,5.27-2.85,5.14-1.9,10.26,2.74,13.98,9.35,7.5,18.95,14.68,28.41,22.05,11.63,9.05,14.11,20.55,6.81,31.17-7.29,10.6-20.9,12.79-32.83,4.43-11.77-8.25-23.01-17.27-34.4-26.05-5.99-4.62-12.42-7.1-17.92-.31-5.76,7.1-2.7,13.23,4.14,18.18,5.5,3.98,10.84,8.19,16.09,12.5,9.13,7.47,11.02,16.72,5.62,26.46-5.2,9.38-16.8,14.38-26.74,10.16-6.5-2.75-12.13-7.56-18.1-11.52-4.05-2.69-1.56-5.16,.14-7.97,19.17-31.75,6.1-60.16-30.96-66.48-4.95-.84-5.6-3.41-6.55-6.78-5.35-19.09-18.01-29.8-37.62-31.46-5.18-.44-6.73-2.55-7.85-6.72-5.27-19.71-18.23-30.45-38.52-31.69-4.87-.3-5.7-2.4-6.62-6.29-4.18-17.81-15.91-28.64-33.44-31.93-16.37-3.07-29.4,4.07-39.99,16.59-14.33,16.92-14.49,16.78-33.64,4.67-11.81-7.47-23.51-15.13-35.5-22.3-4.66-2.79-5.49-5.12-3.34-10.46,20.18-50.28,40.13-100.64,59.65-151.18,2.83-7.33,5.65-7.81,11.97-4.61,16,8.1,33.01,10.66,51.05,10.29,24.57-.5,49.15,1.29,75.71,5.98-15.34,15.25-30.65,27.16-46.23,38.74-8.65,6.43-17.87,12.11-26.39,18.7-15.37,11.89-16.4,31.44-2.23,44.69,20.17,18.86,43.83,21.28,69.21,13.23,21.34-6.77,39.42-19.24,55.91-33.93,5.71-5.08,9.07-5,14.66,.36,34.13,32.73,74.88,47.78,122.25,44.09,4.49-.35,8.37-.14,12.33,2.83,27.85,20.8,55.95,41.26,83.82,62.03,7.55,5.63,11.08,13.44,9.52,23.05Z"/>
</svg>