<?xml version="1.0" encoding="UTF-8"?>
<svg id="Layer_1" data-name="Layer 1" xmlns="http://www.w3.org/2000/svg" viewBox="0 0 800 800">
  <defs>
    <style>
      .cls-1 {
        fill: none;
      }
    </style>
  </defs>
  <rect class="cls-1" width="800" height="800"/>
  <path d="M208.06,593.79c149.12,0,298.23-.1,447.35,.07,32.61,.04,28.15-.76,34.7-26.66,26.21-103.62,52.57-207.21,78.79-310.83,3.46-13.68-1.07-19.27-15.32-19.31-27.83-.1-55.67-.15-83.5,.07-6,.05-9.48-.72-9.86-8.05-.57-11.2-6.85-15.82-18.47-14.27-11.59,1.55-23.05-.38-33.49-5.96-11.2-5.99-13.28-13.14-7.93-24.63,4.15-8.91,10.68-15.84,18.49-21.42,8.81-6.29,10.28-12.84,4.03-22.12-17.98-26.71-40.1-49.1-66.64-67.32-7.74-5.31-13.81-4.62-19.51,2.66-6.18,7.89-13.3,14.76-22.4,19.25-13.94,6.88-23.85,2.47-28.54-12.31-3.1-9.76-2.38-19.64-1.42-29.53,.77-7.91-2.14-13.03-10.11-14.97-32.1-7.8-64.32-9-96.87-2.68-10.51,2.04-14.06,7.77-12.34,17.71,1.66,9.6,.93,19.02-2.44,28.15-5.02,13.59-14.25,17.59-27.1,11.49-9.56-4.54-16.7-12.03-22.93-20.4-5.13-6.89-11.04-8.42-18.44-3.41-27.26,18.45-50.81,40.64-69.46,67.91-5.23,7.65-4.32,13.96,2.83,19.68,2.47,1.98,4.93,4.07,6.99,6.46,8.26,9.55,19.14,19.58,13.49,33.07-6.3,15.05-22.01,13.63-35.39,13-19.82-.93-21.16-.65-24.72,19.28-1.12,6.29-3.37,8.7-9.96,8.46-13.5-.49-27.04-.42-40.55-.02-6.16,.18-8.86-1.1-9.75-8.02-1.81-14.13-5.09-28.06-7.69-42.09-6.55-35.31-32.51-57.21-68.22-57.43-9.06-.05-19.45-1.82-21.13,11.28-1.12,8.7,5.24,12.1,21.25,12.24,25.05,.21,40.94,13.75,45.34,38.26,10.51,58.49,21.09,116.98,31.74,175.45,14.2,77.94,29.04,155.77,42.52,233.84,5.64,32.66,18.4,58.38,52.89,67.19,9.58,2.45,19.88,2.09,30.17,3.04-16.99,34.72-13.85,61.94,8.91,82.03,20.4,18.01,50.12,20.16,72.85,5.11,11.65-7.71,19.79-18.15,23.93-31.63,6.07-19.76,2.24-38.11-8.82-55.52h173.47c-17.02,37.66-12.9,65.08,12.09,84.4,22.51,17.41,52.84,17.03,74.86-.93,24.45-19.94,28.27-48.11,10.24-84.48,21.43,0,41.65,.04,61.88-.02,7.82-.02,13.45-3.29,13.24-11.81-.21-8.3-5.56-11.7-13.56-11.45-3.18,.1-6.36,.01-9.54,.01-143.15,0-286.3,.02-429.45-.02-27.22,0-42.12-12.06-47.76-38.34q-3.1-14.48,11.25-14.49Zm365.49,76.98c20.25-.18,36.79,16.35,36.93,36.91,.14,20.76-15.86,37.14-36.39,37.25-20.31,.11-37.17-16.51-37.25-36.72-.08-20.2,16.65-37.27,36.71-37.44Zm-270.1,0c20,.16,36.92,17.39,36.79,37.44-.13,20.19-17.06,36.83-37.33,36.72-20.53-.12-36.38-16.4-36.28-37.26,.1-20.63,16.5-37.06,36.83-36.9Zm-96.83-383.67c.57-14.25,.39-28.56,1.49-42.83,.63-8.14,3.22-13.15,13.01-11.81,6.19,.85,12.51-.59,18.73-2.51,29.92-9.2,40.83-33.65,26.76-61.48-2.84-5.61-6.13-11.54-10.74-15.57-8.32-7.28-5.73-12.58,.37-19.44,11.14-12.51,23.24-23.9,36.11-34.59,5.1-4.24,8.18-4.67,13.33,.69,11.59,12.05,25.68,20.39,43.18,19.2,21.83-1.49,38.32-19.69,38.98-46.42,.35-14.35,5.7-17.17,18.02-17.21,15.53-.05,30.91,.19,46.36,2.28,6.95,.94,8.3,3.49,8.11,9.69-.25,8.32,1.04,16.56,3.92,24.5,9.69,26.66,32.13,36.62,58.06,25.48,6.59-2.83,13.33-6.15,17.78-11.71,7.03-8.79,12.69-7.01,20.05-.39,12.43,11.2,24.37,22.77,34.54,36.09,1.44,1.89,2.76,3.87,4,5.6-.19,3.97-3.25,5.61-5.37,7.83-9.54,9.96-16.82,21.27-18.75,35.09-3.16,22.66,16.18,43.15,43.81,47.04,21.91,3.08,21.82,3.09,22.62,25.17,.46,12.76-.82,25.37-2.33,38.01-.86,7.17-2.98,11.35-11.69,10.66-6.57-.52-13.54,.77-20,2.5-27.69,7.42-39.63,31.86-28.82,58.34,2.87,7.03,6.45,13.93,11.97,19.05,7.02,6.51,6.78,11.46,.54,18.59-11.57,13.22-24.02,25.31-37.85,36.13-4.66,3.65-7.65,3.92-11.68-.75-3.33-3.85-7.55-7.07-11.76-10.01-31.53-22-65.95-6.93-71.55,31.23-3.11,21.15-3.1,21.44-24.24,21.85-13.09,.25-26.2-.53-39.31-.91-7.4-.21-11.4-2.87-10.5-11.5,.82-7.87-.71-15.84-3.53-23.38-9.62-25.73-32.27-35.5-57.63-24.54-5.41,2.34-11.5,4.81-15.21,9.03-9.56,10.9-16.91,8.3-26.06-.7-10.49-10.32-20.91-20.58-30.37-31.89-4.88-5.84-6.08-9.88,.48-15.49,4.71-4.03,8.39-9.58,11.56-15.02,15.8-27.05,4.99-54.85-24.88-64.36-4.51-1.44-9.36-3.08-13.94-2.79-14,.88-18.12-5.19-17.57-18.78Zm-18.81,270.27c-11.39-66.77-23.21-133.47-34.82-200.21-5.09-29.27-9.91-58.6-15.13-87.85-1.16-6.53-.03-9.37,7.38-8.94,9.9,.58,19.89,.58,29.8,0,7.23-.43,8.58,2.6,8.31,8.99-.67,15.91,.65,31.66,3.92,47.34,1.83,8.77,6.19,12.27,14.76,11.53,10.78-.92,21.43-.63,31.64,3.65,13.35,5.6,16.91,14.77,10.42,27.59-4.39,8.68-10.92,15.56-18.82,21.15-8.41,5.94-9.34,12.88-3.67,21.42,17.79,26.82,40.09,49.12,66.51,67.43,8.04,5.57,14.59,4.42,20.64-3.17,6-7.53,13.19-13.81,22.09-17.77,13.85-6.15,24.55-1.21,28.27,13.33,2.26,8.86,3.4,17.83,1.18,27.08-2.29,9.55,2.32,15.41,11.67,17.19,30.69,5.84,61.42,6.97,92.43,1.75,11.77-1.98,16.88-6.85,15.04-19.04-1.51-9.98,.4-19.86,4.38-29.08,5.59-12.95,14.34-15.88,26.97-9.61,9.13,4.53,16.13,11.52,22.01,19.64,5.49,7.58,11.99,8.37,19.55,3.54,27.84-17.77,51.03-40.25,69.22-67.88,4.79-7.28,4.06-13.11-2.64-18.68-7.06-5.86-13.4-12.43-17.69-20.69-8.3-15.95-3.4-27,13.86-31.28,8.18-2.03,16.35-2.96,24.75-.93,10.15,2.45,15.64-2,17.96-12.02,4.04-17.48,5.85-35.17,6.35-53.05,.11-3.77-1.17-8.34,5.32-8.31,24.54,.1,49.08,.04,74.64,.04-11.22,44.12-22.13,87.01-33.02,129.91-14.31,56.39-28.87,112.73-42.62,169.26-2.19,8.98-5.88,10.95-14.41,10.93-150.66-.24-301.33-.31-451.99,.11-10.86,.03-12.76-4.6-14.26-13.38Zm419.13-13.6c-6.35,0-12.69-.06-19.04,.02-8.03,.1-14.86-2.3-14.88-11.42-.02-8.85,6.23-11.95,14.56-11.8,9.51,.18,19.04-.19,28.55,.13,5.34,.18,7.61-1.73,8.78-7.08,2.44-11.18,5.94-22.12,8.66-33.25,1.82-7.44,5.96-12.95,13.76-11.49,8.35,1.57,11.1,8.03,8.86,16.41-4.28,16.02-8.35,32.1-12.66,48.11-1.88,6.99-6.6,10.48-13.98,10.37-7.53-.11-15.07-.02-22.6-.02ZM422.92,136.21c-75,.35-135.09,60.98-134.81,136.03,.27,74.29,61.87,134.76,136.8,134.28,74.29-.47,134.24-61.19,133.97-135.68-.28-75.21-60.64-134.99-135.96-134.64Zm1.09,247.24c-61.81,.17-112.27-49.87-112.5-111.55-.23-62.34,50.56-113.48,112.37-113.16,61.41,.32,112.35,51.29,112.34,112.42-.01,61.43-50.67,112.13-112.22,112.29Z"/>
</svg>