<?xml version="1.0" encoding="UTF-8"?>
<svg id="Layer_1" data-name="Layer 1" xmlns="http://www.w3.org/2000/svg" viewBox="0 0 800 800">
  <defs>
    <style>
      .cls-1 {
        fill: none;
      }
    </style>
  </defs>
  <rect class="cls-1" width="800" height="800"/>
  <path d="M415.49,771.58c-5.08,3.49-10.3,9.85-15.19,9.61-4.47-.21-11.22-7.01-12.28-11.92-1.67-7.79,4.56-13.91,12.61-12.72,5.22,.77,9.77,5.99,14.63,9.22,.08,1.93,.16,3.87,.23,5.8Zm313.84-307.56c-3.04,151.74-117.47,285.9-265.05,311.77-3.02,.53-6.67,2.19-8.99,1.11-5.37-2.5-10.11-6.36-15.1-9.66,3.55-5.25,5.97-12.97,10.88-15.2,8.98-4.07,19.99-3.54,29.18-7.3,27.51-11.23,54.56-23.59,81.77-35.54,7.07-3.1,8.49-8.2,7.74-15.92-8.67-89.33-96.83-158.54-187.93-147.14-76.4,9.56-133.76,62.29-149.47,137.17-2.76,13.14-1.14,22.59,12.6,30,30.75,16.59,62.43,29.92,96.86,36.37,2.16,.4,4.35,.68,6.46,1.24,8.05,2.13,13.9,6.43,12.28,15.71-1.62,9.35-8.59,11.92-16.84,10.2-15.01-3.13-30.34-5.65-44.71-10.73-121.81-43.06-196.48-127.73-222.57-254.56-6.96-33.84-6.57-68.03-2.74-102.23,.29-2.61,1.03-5.16,1.45-7.75,1.56-9.47,6.11-16.33,16.65-13.83,9.54,2.26,10.44,9.79,9.23,18.77-12.07,88.92,9.01,168.99,65.59,239,10.89,13.48,23.81,25.33,37.83,40.07,17.07-79.07,61.41-131.02,136.23-158.41-31.88-25.53-48.42-57-45.23-96.82,2.24-27.92,14.45-51.38,35.51-69.8,42.37-37.05,105.11-34.75,144.35,4.95,44.5,45,39.98,101.66-13.87,162.28,34.92,12.12,64.82,31.23,88.74,59.04,23.69,27.54,38.12,59.58,45.45,97.65,5.95-5.18,10.29-8.56,14.18-12.4,74.13-73.32,102.89-162.12,90.44-265.03-.55-4.54-.75-10.3,1.54-13.68,2.21-3.25,8.66-6.55,11.83-5.51,4.47,1.47,10.4,6.59,10.88,10.72,2.53,21.72,5.25,43.66,4.81,65.45Zm-250.06-23.92c.27-43.64-34.42-78.91-77.96-79.27-43.52-.35-79.15,34.28-79.84,77.62-.69,43.5,35.23,80.02,78.86,80.19,43.21,.16,78.67-35.12,78.94-78.54Zm58.77-300.79c-15.69,16.54-32.09,32.46-48.98,47.78-6.86,6.22-8.28,12.65-6.74,20.98,3.98,21.55,8.3,43.06,11.27,64.75,.84,6.12-.47,15.43-4.46,18.5-3.85,2.96-13.3,1.54-18.8-1.09-20.56-9.84-40.27-21.44-60.84-31.24-4.95-2.36-12.94-2.33-17.89,.04-20.95,10.02-41.06,21.79-61.99,31.87-5.08,2.45-13.91,3.34-17.71,.51-3.84-2.86-5.54-11.51-4.75-17.14,3.47-24.72,8.18-49.27,12.81-75.96-1.88-2.66-4.02-6.82-7.18-9.96-15.88-15.76-32.46-30.85-47.81-47.11-4.46-4.72-8.66-13.21-7.39-18.68,1-4.29,10.3-8.32,16.45-9.43,22.86-4.1,46.01-6.51,68.87-10.6,4.5-.81,9.73-5.41,11.98-9.65,10.87-20.53,20.41-41.76,31.45-62.19,2.7-5,9.22-10.9,14.05-10.96,4.78-.06,11.48,5.74,14.16,10.69,11.05,20.43,20.42,41.76,31.51,62.16,2.56,4.7,9.08,9.13,14.43,10.1,22.84,4.15,46,6.55,68.87,10.58,5.32,.94,12.99,4.96,14.11,9.06,1.34,4.91-1.58,12.94-5.42,16.99Zm-36.39-3.43c-18.23-2.54-34.98-5.05-51.78-7.14-11.66-1.45-20.12-5.83-25.07-17.7-6.67-16.02-15.2-31.26-24.28-49.56-8.63,17.23-17.15,31.51-23.04,46.81-5.6,14.56-15.54,19.64-29.86,20.99-15.55,1.47-30.97,4.24-48.7,6.76,14.53,14.79,26.76,27.89,39.74,40.19,7.5,7.1,9.88,14.44,7.77,24.64-3.68,17.73-6.13,35.71-9.57,56.47,18.9-9.86,35.29-17.97,51.22-26.89,8.57-4.8,16.12-4.92,24.7-.17,16.02,8.87,32.41,17.07,51.09,26.82-3.25-20.09-5.19-37.81-9.22-55.04-2.84-12.11,1.17-19.75,9.58-27.65,12.56-11.81,24.09-24.7,37.4-38.52Zm-225.76,88.3c-11.26,12.25-23.08,24.11-35.72,34.91-8.68,7.42-9.71,15.42-7.62,25.61,3.09,15,6.05,30.1,7.63,45.31,.59,5.71-1.06,14.42-4.91,17.06-3.92,2.69-12.52,1.16-17.82-1.27-15.51-7.12-30.15-16.16-45.68-23.24-4.68-2.13-11.99-2.13-16.66,.03-16.69,7.71-32.58,17.12-49.12,25.18-12.14,5.92-21.03-.45-20.3-16.22,2.26-13.14,4.33-28.82,7.8-44.17,2.72-12.07,2.01-21.49-8.7-30.09-11.91-9.57-22.64-20.76-32.91-32.12-3.59-3.97-6.94-11.4-5.56-15.69,1.36-4.23,8.49-8.25,13.71-9.3,17.58-3.52,35.54-5.19,53.13-8.7,4.65-.93,10.11-5.02,12.43-9.2,8.49-15.31,15.24-31.59,23.91-46.79,2.79-4.89,9.31-10.12,14.42-10.45,4.26-.27,10.56,5.51,13.17,10.17,8.54,15.28,15.27,31.57,23.88,46.81,2.5,4.42,8.58,8.44,13.67,9.47,17.58,3.57,35.53,5.25,53.12,8.74,4.8,.95,11.21,4.96,12.55,9.01,1.37,4.14-1.15,11.35-4.44,14.93Zm-36.37,1.98c-1.01-1.36-2.02-2.71-3.04-4.07-10.29-1.5-20.54-3.61-30.88-4.33-13.24-.92-21.84-6.67-26.77-19.29-3.89-9.97-9.45-19.3-15.5-31.36-6.69,13.31-12.55,23.95-17.46,35.02-3.96,8.92-9.83,13.73-19.75,14.73-12,1.21-23.88,3.54-38.79,5.85,10.83,10.73,20.61,18.81,28.21,28.59,4.27,5.49,6.97,13.87,6.73,20.82-.42,12.46-3.59,24.83-6.07,40.1,11.33-5.76,20.72-9.37,28.8-14.91,12.96-8.89,24.69-8.33,37.47,.23,7.98,5.35,17.04,9.07,28.13,14.83-2.36-14.72-3.21-26.15-6.2-36.99-3.33-12.07,.72-20.23,9.71-27.51,8.66-7.01,16.96-14.46,25.41-21.71Zm510.65-1.98c-11.26,12.25-23.09,24.11-35.72,34.91-8.68,7.42-9.71,15.42-7.62,25.61,3.09,15,6.05,30.1,7.63,45.31,.59,5.71-1.06,14.42-4.91,17.06-3.92,2.69-12.52,1.16-17.82-1.27-15.51-7.12-30.15-16.16-45.68-23.24-4.68-2.13-11.99-2.13-16.66,.03-16.69,7.71-32.58,17.12-49.12,25.18-12.14,5.92-21.03-.45-20.3-16.22,2.26-13.14,4.33-28.81,7.8-44.17,2.72-12.07,2.01-21.49-8.7-30.09-11.91-9.57-22.64-20.76-32.91-32.12-3.59-3.97-6.94-11.4-5.56-15.69,1.36-4.23,8.49-8.25,13.71-9.3,17.58-3.52,35.54-5.19,53.13-8.7,4.65-.93,10.11-5.02,12.43-9.2,8.49-15.31,15.24-31.59,23.91-46.79,2.79-4.89,9.31-10.12,14.42-10.45,4.26-.27,10.56,5.51,13.17,10.17,8.54,15.28,15.27,31.57,23.88,46.81,2.5,4.42,8.58,8.44,13.67,9.47,17.58,3.57,35.53,5.25,53.12,8.74,4.8,.95,11.21,4.96,12.55,9.01,1.37,4.14-1.15,11.35-4.44,14.93Zm-36.32,1.97c-1.04-1.35-2.09-2.7-3.13-4.05-11.17-1.66-22.3-3.86-33.53-4.83-11.28-.98-18.48-5.97-22.9-16.55-4.46-10.68-10.25-20.8-16.65-33.53-6.94,13.71-11.68,25.55-18.65,35.89-3.89,5.77-10.89,11.04-17.53,12.99-11.89,3.49-24.57,4.29-36.92,6.21-.65,1.16-1.3,2.32-1.95,3.48,9.22,8.45,19.42,16.1,27.29,25.65,4.37,5.3,6.9,13.85,6.66,20.82-.43,12.46-3.59,24.82-6.09,40.19,13-6.71,23.67-11.54,33.63-17.55,9.27-5.59,17.5-5.94,26.89-.26,10.01,6.05,20.74,10.93,33.59,17.58-2.21-14.46-3.2-26.57-6.1-38.21-2.6-10.45,.28-17.83,8.1-24.35,9.21-7.69,18.2-15.63,27.29-23.47Z"/>
</svg>