<?xml version="1.0" encoding="UTF-8"?>
<svg id="Layer_1" data-name="Layer 1" xmlns="http://www.w3.org/2000/svg" viewBox="0 0 800 800">
  <defs>
    <style>
      .cls-1 {
        fill: none;
      }
    </style>
  </defs>
  <rect class="cls-1" width="800" height="800"/>
  <path d="M736.76,344.78c-23.04-13.15-46.21-10.84-68.31,2.2-.84-.73-1.36-.97-1.36-1.22-.17-23.76-.15-47.53-.46-71.29-.32-24.22-15.57-39.64-39.84-40.19-15.28-.35-30.58-.24-45.87-.04-26.5,.34-41.54,15.6-41.63,42.28-.12,36.93,.03,73.87-.12,110.8-.01,3.45,1.67,7.45-1.62,10.52-4.42-2.08-8.41-4.9-12.79-5.82-9.99-2.1-11.66-8.03-11.21-17.26,.81-16.52,.42-33.11,.17-49.66-.35-23.6-15.41-39.17-38.87-39.84-16.13-.46-32.28-.37-48.41-.04-24.88,.52-39.83,16.03-40.05,41.27-.15,16.87-.03,33.74-.03,50.86q-25.48-7.4-25.48-30.97c0-7.22,.13-14.44-.04-21.65-.55-23.41-15.72-38.88-39.26-39.48-16.13-.41-32.28-.38-48.41-.01-24.24,.56-39.37,16.05-39.66,40.36-.21,18.25-.34,36.52,.1,54.76,.17,6.98-1.81,11.72-7.31,16.28-21.22,17.62-42.29,35.45-62.77,53.92-6.87,6.2-10.5,6.24-17.23-.43-16.72-16.58-38.58-16.2-55.5,.18-16.77,16.25-33.35,32.71-49.53,49.54-15.54,16.16-16.3,37.99-.77,53.64,67.87,68.43,136.05,136.55,204.46,204.45,15.28,15.17,37.24,15.26,52.79,.62,17.92-16.88,35.32-34.33,52.26-52.2,14.88-15.7,14.51-36.69,.12-52.81-3.39-3.79-6.93-7.51-10.79-10.81-4.93-4.21-5.05-7.37-.27-12.29,9.85-10.17,21.4-14.3,35.4-14.24,57.34,.26,114.67-.03,172.01,.19,18.12,.07,35.04-3.67,48.08-16.57,52.8-52.24,105.83-104.28,157.43-157.69,28.34-29.33,19.93-77.28-15.22-97.35Zm-156.08-85.09c14.84,.05,29.69,.08,44.53,0,11.17-.06,16.09,5.43,16.03,16.5-.17,30.1-.07,60.2-.04,90.3,0,3.86-.29,7.22-3.44,10.35-23.7,23.51-47.19,47.22-73.01,73.15,0-60.62,.01-117.83-.01-175.04,0-10.71,5.67-15.28,15.94-15.25Zm-131.2,50.94c8.06,.06,16.12-.07,24.18,.06,9.1,.15,14.46,4.63,14.55,13.98,.18,18.66-.07,37.32,.17,55.98,.07,5.01-1.62,6.61-6.56,6.47-10.6-.3-21.21-.09-31.82-.09,0-.15,0-.3,0-.44-12.29,0-28.96,4.84-35.72-1.27-7.85-7.1-2.19-23.98-2.34-36.6-.48-40.2-3.1-38.37,37.54-38.08Zm-190.39,13.11c.14-8.02,4.92-12.74,12.84-12.89,16.95-.33,33.92-.38,50.87,.04,7.96,.2,12.34,5.31,12.48,13.26,.21,11.44,3.72,24.83-1.01,33.8-5.26,10-19.62,2.39-29.91,3.54-15.22,1.69-29.9,4.86-45.35,11.38,0-17.22-.19-33.18,.08-49.12Zm70.61,367.24c-15.64,15.57-31.31,31.12-46.86,46.79-8,8.05-15.28,7.13-23.01-.61-65.98-66.09-132.02-132.12-198.16-198.04-8.34-8.31-8.5-15.67-.04-23.91,14.29-13.92,28.22-28.2,42.36-42.28,12.6-12.55,16.93-12.62,29.31-.25,64.27,64.19,128.52,128.41,192.75,192.64,4.15,4.15,9.1,7.89,9.23,14.63-.14,4.54-2.48,7.95-5.58,11.04Zm402.66-264.89c-51.17,51.45-102.54,102.7-153.9,153.96-8.32,8.31-18.82,10.85-30.31,10.8-29.71-.13-59.43-.04-89.14-.04-27.59,0-55.19,.39-82.77-.12-21.56-.4-40.29,5.58-54.87,21.78-5.19,5.77-8.09,4.33-12.88-.5-42.74-43.08-85.66-85.98-128.75-128.7-5.35-5.31-6.42-8.31,.14-13.75,24.82-20.58,48.38-42.73,73.81-62.51,33.33-25.93,71.47-27.17,108.27-10.64,24.79,11.13,48.87,17.88,75.85,16.35,17.77-1,35.65-.2,53.47-.19,30.32,.01,48.12,14.33,47.92,38.51-.2,23.84-17.69,37.85-47.3,37.86-45,.01-89.99,0-134.99,.03-3.81,0-7.7-.11-11.4,.6-6.15,1.18-9.67,5.43-9.88,11.59-.24,6.77,3.37,11.32,10.06,12.72,3.27,.68,6.75,.56,10.13,.56,55.61,.03,111.22-.17,166.82,.2,9.73,.06,16.67-3.05,23.46-9.91,43.28-43.73,86.94-87.09,130.45-130.6,11.19-11.19,24.42-15.17,39.6-10.6,14.2,4.27,22.86,14.27,26.02,28.62,2.85,12.93-.57,24.68-9.82,33.97Zm-65.77-355.5c-.19-24.17-15.59-39.5-39.89-40.11-11.46-.29-22.92-.08-34.39-.06-22.5,.03-45.03-.55-67.5,.3-20.77,.78-35.95,16.92-36.48,36.93-.52,19.52,13.46,35.84,33.26,38.73,3.69,.54,7.42,.78,12.53,1.3-34.14,40.19-74.76,66.87-126.38,73.3-43.07,5.37-86.52,1.37-129.79,2.23-8.12,.16-16.13,.38-23.55,4.23-15.35,7.95-23.71,25.18-20.16,41.57,3.87,17.88,18.05,30.19,37.28,30.48,35.23,.52,70.47,.28,105.71,.19,76.34-.19,141.54-27.26,195.44-81.35,5.24-5.25,10.1-10.88,16.88-18.22,.42,5.41,.58,7.07,.67,8.72,1.24,24.01,17.13,40.26,38.96,39.8,21.91-.46,37.33-17.26,37.45-41.28,.16-32.25,.23-64.51-.03-96.76Zm-25.42,97.38c0,8.3-3.28,14.56-12.13,14.87-9.56,.33-13.34-5.94-13.34-14.9,0-11.46-.14-22.93,.04-34.39,.1-6.45-1.53-11.99-7.64-14.86-6.91-3.24-12.09,.27-16.88,5.14-12.21,12.41-24.54,24.68-36.88,36.95-49.06,48.78-108.14,73.4-177.41,73.4-33.13,0-66.25-.07-99.38,.04-9.24,.03-18.14-1.28-18.23-12.64-.1-11.35,8.66-12.95,17.98-12.88,19.54,.14,39.07,.04,58.61,.03,36.46-.18,72.99,1.83,108.57-9.71,32.92-10.68,61.99-27.38,86.75-51.49,13.99-13.62,27.7-27.53,41.54-41.3,4.64-4.62,9.04-9.4,5.89-16.67-2.99-6.9-8.92-8.33-15.77-8.24-11.46,.15-22.93,.1-34.4-.01-8.33-.08-14.39-3.8-14.41-12.63-.03-8.82,5.97-12.68,14.32-12.7,32.7-.08,65.4-.1,98.1,0,9.89,.03,14.69,5.35,14.68,15.2-.02,32.26-.02,64.53,0,96.79ZM118.33,514.6c5.55,.12,9.05,3.03,12.43,6.42,48.85,48.89,97.72,97.78,146.67,146.58,6.4,6.38,10.46,13.41,3.21,20.9-7.16,7.4-14.4,4.15-20.93-2.4-49.13-49.23-98.33-98.37-147.54-147.52-4.81-4.81-7.96-9.93-4.6-16.94,2.28-4.75,6.25-6.65,10.75-7.03Z"/>
</svg>