<?xml version="1.0" encoding="UTF-8"?>
<svg id="Layer_1" data-name="Layer 1" xmlns="http://www.w3.org/2000/svg" viewBox="0 0 800 800">
  <defs>
    <style>
      .cls-1 {
        fill: none;
      }
    </style>
  </defs>
  <rect class="cls-1" width="800" height="800"/>
  <path d="M704.7,387.76c-2.68-38.46,1.62-30.73-32.31-42.37-2.3-.79-4.56-1.74-6.91-2.33-10.91-2.75-16.66-10.09-20.52-20.39-5.92-15.81-5.29-29.95,6.44-42.98,4.05-4.49,6.99-9.96,10.78-14.71,5.55-6.96,5.91-13.95,.93-21.23-8.92-13.05-17.03-26.76-27-38.95-23.78-29.06-18.57-24.47-49.07-14.01-1.53,.53-3.18,.79-4.64,1.46-10.84,5.04-19.92,1.99-29.5-4.41-13.24-8.85-19.09-20.28-17.64-35.98,.56-6.04,1.56-12.54-.05-18.14-1.59-5.52-5.17-13-9.71-14.69-22.34-8.3-45.14-15.49-68.14-21.71-4.3-1.16-10.9,3.04-15.28,6.31-3.7,2.76-5.75,7.74-8.48,11.76-19.11,28.12-46.33,28.32-65.2,.49-2.5-3.69-5.25-7.23-7.56-11.05-4.34-7.18-10.27-9.99-18.51-7.65-15.58,4.43-31.62,7.63-46.69,13.38-35.33,13.48-29.57,9.89-29.38,41.87,.19,32.27-23.07,48.78-53.43,37.67-4.95-1.81-9.93-3.52-14.85-5.41-7.66-2.94-14.19-2.01-19.52,4.81-9.24,11.81-19.49,22.91-27.82,35.32-23.59,35.12-19.4,27.59,.58,56.4,18.22,26.28,8.96,54.46-21.43,64.08-6.57,2.08-13.92,3.01-19.45,6.68-4.98,3.3-10.67,9.31-11.29,14.67-1.95,16.84-2.59,33.98-2.01,50.94,.97,28.37,1.53,28.35,28.11,36.91,4.63,1.49,10.03,2.01,13.68,4.8,6.12,4.67,12.81,9.93,16.25,16.51,8.36,15.98,7.81,31.88-5.2,46.11-4.08,4.46-7.01,9.94-10.76,14.72-5.2,6.61-5.56,13.29-.86,20.15,9.62,14.04,18.68,28.52,29.18,41.87,17.75,22.59,18.45,23.04,45.35,12.01,16.48-6.76,29.18-3.9,42.28,7.38,11.59,9.98,11.67,22.32,11.18,32.88-.41,27.63-.62,28.19,22.67,36.88,16.27,6.07,33.27,10.18,49.86,15.44,11.1,3.52,18.89,.15,24.17-10.08,1.47-2.86,3.66-5.35,5.49-8.03,18.65-27.46,46.02-27.62,64.5-.39,2.73,4.03,4.74,9.15,8.48,11.74,5.07,3.52,12.04,7.95,17.23,6.95,16.64-3.19,33.3-7.48,49.11-13.55,32.84-12.61,27.85-9.59,27.59-40.73-.26-32.52,22.71-49.3,52.9-38.42,5.34,1.92,10.63,5.34,16,5.44,6.13,.12,14.31-.74,18.11-4.6,10.46-10.63,19.96-22.47,28.29-34.88,24.08-35.87,19.83-27.81-.62-57.4-17.76-25.69-8.42-53.95,21.28-63.3,6.57-2.07,13.12-4.22,19.71-6.24,7.87-2.41,12.08-7.19,12.22-15.89,.25-15.39,2.53-30.86,1.47-46.13Zm-47.48,46.82c-36.02,8.86-51.08,67.46-31.76,92.94,16.23,21.41,15.07,22.29-.72,43.75-.24,.33-.48,.65-.72,.98q-14.33,19.18-36.74,12.38c-38.77-11.77-76.69,19.3-76.4,64.53,3.45,10.53-2.99,16.18-14.07,18.86-3.53,.85-6.92,2.31-10.38,3.49-24.81,8.46-25.85,9.2-40.77-11.76-17.27-24.25-73.57-25.46-91.39,2.25-11.79,18.34-12.94,17.62-33.68,11.42-3.11-.93-6.14-2.11-9.21-3.15-20.04-6.78-21.31-6.84-20.31-28.25,1.63-34.89-45.46-74.35-81.64-55.64-12.34,6.38-20.38,3.68-26.85-7.69-.99-1.75-2.47-3.21-3.7-4.83-17.75-23.31-18.82-24.08-1.86-47.68,17.38-24.18,4.04-81.61-31.82-91.37-24.65-6.71-24.31-7.98-24.32-34.14,0-1.62,.03-3.25,.06-4.87,.32-21.88-.14-24.2,20.56-28.22,38.55-7.5,56.78-70.26,31.53-98.52-13.52-15.12-12.1-16.39-.69-32.74,.93-1.33,1.84-2.67,2.78-3.99,15.89-22.38,16.41-23.82,41.99-14.57,27.63,9.99,74.51-21.42,73.9-57.23-.39-22.93,.72-22.95,22.48-30.35,1.54-.52,3.02-1.19,4.56-1.69,22.47-7.36,23.56-8.09,36.8,11.46,17.83,26.32,75.18,27.04,92.9-1.36,11.08-17.76,12.3-17.01,32.75-11.04,1.56,.45,3.08,1.02,4.62,1.54,24.17,8.17,25.37,8.17,25.5,33.1,.16,32.18,44.9,69.23,80.13,53.64,17.56-7.77,18.16-6.41,30.18,9.04,.75,.96,1.5,1.92,2.23,2.89,17.43,23.02,18.53,23.83,1.74,46.69-18.17,24.74-4,82.84,32.13,92.02,23.87,6.06,23.52,7.43,23.69,32.17,0,1.22,0,2.43,0,3.65-.15,25,.21,26.47-23.51,32.31Zm64.25,83.79c-59.16,156.87-222.8,248.09-387.02,216.7-106.71-20.4-238.96-129.83-247.68-208.73,6.64-1.13,13.4-2.03,20.05-3.45,14.69-3.14,18.06-11.79,8.89-23.5-14.25-18.19-28.57-36.35-43.5-53.98-3.25-3.84-9.89-8.23-13.69-7.28-4.61,1.15-9.57,7.07-11.43,12.03-7.65,20.46-14.28,41.31-21.09,62.07-5.62,17.13,.21,24.53,18.03,20.61,12.65-2.78,17,1.79,22.03,12.71,57.49,124.55,154.59,198.48,290.15,217.15,147.68,20.34,293.36-56.03,364.89-186.81,8.46-15.47,15.26-31.85,23.36-48.93-8.86-3.31-15.56-5.81-22.99-8.59Zm-667.38-12.02c3.56-10.89,6.54-20.02,10.32-31.56,7.58,9.36,13.71,16.93,21.82,26.95-11.99,1.72-20.95,3.01-32.13,4.62ZM761.98,255.36c-3.94,.79-7.83,2.17-11.54,3.74-7.94,3.37-12.03,2.35-16.38-6.81-58.11-122.49-154.46-195.64-288.64-213.9C293.97,17.78,145.98,97.8,75.92,233.77c-6.6,12.82-11.95,26.28-18.37,40.53,8.47,3.16,15.17,5.66,22.61,8.43C136.6,133.47,286.75,43.61,443.15,62.17c117.78,13.98,249.1,114.37,270.92,208.67-7.92,2.74-16.07,5.13-23.86,8.37-10.85,4.51-12.8,14.33-3.82,21.85,19.28,16.12,38.9,31.85,58.82,47.19,9.28,7.14,18.53,3.44,20.74-8.29,4.43-23.46,8.38-47.02,11.85-70.65,1.5-10.21-5.58-16-15.82-13.95Zm-16.48,61.79c-9.68-7.71-17.53-13.95-27.14-21.6,11.61-3.86,20.58-6.84,31.52-10.48-1.51,11.05-2.76,20.26-4.37,32.08Zm-345.08,290.37c-114.01-.25-206.62-93.09-206.57-207.07,.04-114.44,93.62-207.51,207.98-206.87,114.1,.64,206.27,93.58,205.95,207.67-.32,113.91-93.42,206.52-207.36,206.27Zm.23-24.53c100.7,.1,182.77-81.92,182.71-182.59-.07-100.19-81.52-181.88-181.76-182.29-100.75-.42-183.12,81.34-183.32,181.96-.2,100.72,81.65,182.82,182.38,182.92Zm134.15-263.99c.06-10.52-4.63-15.93-15.3-15.91-14.2,.03-28.4,.03-42.6,0-10.66-.02-15.33,5.36-15.31,15.9,.11,50.31,.13,100.61,0,150.92-.03,11.43,5.56,16.12,16.52,15.97,12.98-.17,25.97,.09,38.95-.07,14.22-.17,17.63-3.71,17.68-18.33,.09-24.34,.02-48.68,.02-73.03,0-25.15-.11-50.31,.05-75.46Zm-25.44,141.92h-22.33v-132.5h22.33v132.5Zm-72-47.65c0-19.47-.06-38.95,.02-58.42,.04-9.98-4.69-15.17-14.72-15.21-14.6-.06-29.21-.07-43.81,0-10.06,.06-14.64,5.36-14.62,15.3,.07,38.54,.08,77.08,0,115.62-.02,10.85,5.58,15.35,15.93,15.28,13.39-.09,26.78,.14,40.16-.05,13.39-.2,16.93-3.93,17.01-17.76,.12-18.26,.03-36.51,.02-54.77Zm-25.38,47.24h-22.34v-96h22.34v96Zm-85.96-72.12c-15.01-.18-30.02-.16-45.03-.01-9.39,.09-14.1,5.11-14.11,14.52,0,22.72,.01,45.43-.01,68.15-.01,9.36,4.51,14.57,13.94,14.69,15.01,.19,30.02,.17,45.03,.02,9.39-.1,14.1-5.13,14.11-14.53,.01-11.36,0-22.72,0-34.08,0-11.36-.01-22.72,0-34.08,.01-9.34-4.5-14.57-13.95-14.68Zm-11.33,72.24h-22.54v-47.12h22.54v47.12Z"/>
</svg>