<?xml version="1.0" encoding="UTF-8"?>
<svg id="Layer_1" data-name="Layer 1" xmlns="http://www.w3.org/2000/svg" viewBox="0 0 800 800">
  <defs>
    <style>
      .cls-1 {
        fill: #030303;
      }

      .cls-2 {
        fill: none;
      }
    </style>
  </defs>
  <rect class="cls-2" width="800" height="800"/>
  <path class="cls-1" d="M618.63,446.72c9.72,0,19.45-.01,29.17,0,7.63,0,13.51,3,13.09,11.32-.36,7.19-5.4,10.61-12.84,10.56-20.22-.14-40.45-.1-60.68-.02-7.84,.03-13.21-3.38-13.11-11.42,.09-7.66,5.81-10.39,12.86-10.41,10.5-.04,21-.01,31.5-.02Zm29.15,65.9c7.79,.08,13.26-3.15,13.13-11.3-.12-7.76-5.81-10.13-12.92-10.1-20.2,.08-40.39,.07-60.59,0-7-.02-12.88,2.05-13.15,9.88-.28,8.19,5.18,11.51,12.94,11.5,10.49-.01,20.97,0,31.46,0,9.71,0,19.42-.07,29.13,.02Zm118.3,95.88c-8.22,13.97-20.55,23.22-34.9,29.91-83.47,38.87-166.93,77.77-250.55,116.32-23.39,10.78-47.57,18.85-74.04,17.92-29.02-1.01-54.09-13.1-78.59-26.79-22.05-12.32-43.61-25.52-65.56-38.04-16.84-9.6-35.14-14.24-54.52-15.06-6.28-.27-9.48,.19-10.02,8.18-1.4,20.55-13.86,31.57-34.34,31.64-40.06,.14-80.13-.03-120.2,.1-8.11,.03-15.76-1.11-15.94-10.91-.18-9.99,7.52-11.13,15.62-11.1,38.9,.1,77.8,.09,116.7,.02,14.43-.02,16.76-2.46,16.79-17.16,.05-27.63,.12-55.26-.05-82.89-.05-7.87,1.54-14.66,10.73-14.79,9.24-.13,11.12,6.75,11.09,14.54-.06,17.12,.27,34.25-.15,51.36-.18,7.11,2.18,9.54,9.29,9.47,28.09-.27,53.19,9.6,77.03,23.56,22.81,13.35,45.61,26.72,68.64,39.67,35.72,20.08,72.36,21.38,109.56,4.18,72.64-33.59,145.25-67.24,217.86-100.89,14.8-6.86,29.64-13.66,44.31-20.8,11.92-5.8,21.41-14.17,25.6-27.3,5.46-17.06-3.99-32.47-21.62-35.6-9.92-1.76-19.36,.17-28.51,3.73-64.41,25.07-128.79,50.21-193.18,75.34-3.27,1.28-6.29,2.7-8.3,5.98-13.12,21.4-38.8,29.63-68.08,18-5.75-2.28-11.47-4.95-16.66-8.28-33.38-21.42-66.62-43.07-99.9-64.66-6.66-4.32-12.63-9.58-6.67-17.9,5.82-8.12,12.83-4.29,19.41,0,30.62,19.97,61.28,39.87,91.92,59.79,9.82,6.38,19.84,12.31,31.72,13.98,16.68,2.34,29.56-5.48,33.56-21.73,7.7-31.24-.78-59.58-24.87-79.14-37.45-30.42-78.21-56.38-126.27-67.96-33.12-7.98-65.45-6.57-97.04,6.89-12.13,5.17-28.62,6.76-35.5,15.79-7.34,9.64-1.67,26.25-2.14,39.81-.23,6.61,.08,13.23-.11,19.84-.21,7.48-2.97,13.26-11.62,12.79-7.93-.44-10.06-6.06-10.06-13.06,.02-28.02,.02-56.04,0-84.05-.01-16.07-2.1-18.26-18.01-18.29-37.34-.06-74.69,0-112.03-.06-3.87,0-7.82-.11-11.57-.91-5.31-1.12-7.76-5.2-7.66-10.32,.1-5.18,3.03-8.94,8.19-10.01,3.38-.7,6.96-.51,10.45-.52,35.4-.03,70.8-.02,106.19-.02,35.1,0,41.29,5.03,47.51,39.26,16.78-6.15,33.39-12.43,50.17-18.24,4.52-1.56,4.64-4.53,4.64-8.12,0-40.47-.05-80.94,.04-121.41,.02-7.31-2.86-9.12-9.33-5.91-7.27,3.6-15.4,4.47-16.09,16.58-.62,10.86-10.14,17.15-21.62,17.43-13.22,.33-26.46,.46-39.67-.05-12.94-.5-20.38-7.86-22.5-20.91-1.69-10.42-17.57-17.01-26.19-10.86-10.72,7.65-22.14,7.15-31.7-1.9-8.76-8.29-17.27-16.85-25.64-25.52-10.71-11.09-11.23-20.67-2.21-33.33,5.17-7.25-1.47-23.66-10.18-25.18-15.72-2.73-22.05-9.98-22.32-26.04-.19-11.28-.23-22.57,0-33.85,.33-15.29,6.99-22.72,21.98-25.11,8.65-1.38,15.73-17.82,10.76-24.97-9.45-13.6-8.87-22.52,2.5-34.16,7.88-8.07,15.83-16.08,23.96-23.9,10.55-10.16,21.51-10.82,33.51-2.37,7.94,5.59,23.9-1.39,25.48-11.15,2.23-13.74,9.41-20.54,23.45-21.05,12.43-.45,24.9-.41,37.34-.02,14.49,.46,21.69,7.14,24.41,21.62,1.86,9.91,17.36,15.98,25.74,10.09,10.85-7.62,22.19-7.18,31.76,1.84,9.06,8.53,17.88,17.34,26.44,26.37,9.21,9.71,9.67,20.62,1.97,31.69-6.24,8.98,.3,24.32,11.11,26.04,11.74,1.87,20.33,9.22,20.25,20.41-.07,10.22,4.47,10.94,12.63,10.92,104.25-.2,208.5-.14,312.74-.11,5.05,0,10.16-.1,15.13,.61,23.55,3.33,39.64,20.55,39.95,44.35,.54,40.46,.15,80.94,.21,121.41,.01,8.05-2.95,14.7-11.56,14.29-8.43-.41-10.77-7.23-10.73-15.23,.17-38.13,.1-76.27,.06-114.41-.02-21.24-7.34-28.45-28.88-28.47-40.45-.04-80.91,.17-121.36-.18-7.6-.07-9.95,1.99-9.84,9.75,.43,29.96,.25,59.93,.14,89.89-.07,18.04-7.42,25.39-25.5,25.53-19.45,.15-38.9,.14-58.35,0-18.9-.13-25.7-7.08-25.77-26.33-.1-29.19-.32-58.38,.16-87.55,.13-8.29-1.42-11.64-10.68-11.34-22.54,.71-45.12,.42-67.67,.12-6.79-.09-10.43,.59-10.54,9.14-.17,12.96-7.77,19.94-21.07,22.11-10.04,1.64-16.53,17.24-10.66,25.59,8.07,11.47,7.75,22.72-2.27,32.54-11.06,10.84-20.46,23.59-34.09,31.58-4.13,2.42-3.19,5.8-3.2,9.09-.06,35.41,.11,70.82-.17,106.23-.05,6.93,1.57,9.59,9.1,9.16,42.54-2.45,81.23,10.57,118.01,30.53,21.91,11.89,42.76,25.6,62.75,40.37,27.69,20.46,41.4,48.99,42.07,83.33,.17,8.81,2.24,9.22,9.71,6.28,60.72-23.85,121.52-47.49,182.48-70.71,6.43-2.45,5.56-6.39,5.56-10.84-.06-38.52-.2-77.05-.29-115.57,0-3.5-.28-7.08,.35-10.48,1.06-5.7,5.01-8.71,10.75-8.71,5.29,0,8.94,2.92,10.12,8.01,.77,3.35,.66,6.95,.68,10.44,.22,37.75,.64,75.49,.37,113.24-.05,7.67,2.48,10.68,9.59,12.78,33.12,9.81,46.2,44.67,28.48,74.8ZM458.13,295c-.05,6.25,2.26,7.94,8.18,7.82,16.29-.32,32.61-.5,48.89,.06,7.54,.26,9.16-2.58,8.95-9.42-.44-14.35-.13-28.73-.13-43.09,0-13.98-.25-27.96,.11-41.93,.16-6.09-.87-9.12-8.05-8.9-16.67,.51-33.38,.39-50.06,.04-6.19-.13-7.94,2.07-7.89,8.06,.24,29.12,.25,58.24,0,87.36Zm-182.05,.9c6.08-6.02,11.78-12.49,18.28-18,5.8-4.91,5.09-8.36-.28-12.81-5.68-4.7-9.75-10.16-5.11-18.14,5.3-9.11,9.15-18.87,12.04-29.01,1.42-5,5.02-9.26,9.79-8.5,17.6,2.81,16.17-8.37,15.47-19.54-.22-3.49-.39-7.04,.04-10.49,1.07-8.69-1.35-13.23-11.24-11.91-7.48,1-12.44-2.49-14.53-10.28-2.52-9.4-6.3-18.39-11.22-26.83-3.08-5.28-4-11.15,1.06-14.81,11.71-8.49,7.51-14.92-1.26-21.94-4.22-3.38-8.06-7.37-11.54-11.53-4.47-5.35-8.2-6.2-12.82-.12-6.22,8.19-13.62,8.88-22.37,3.3-7.21-4.6-15.41-7.28-23.67-9.56-5.73-1.57-11.08-5-10.05-11.08,2.76-16.29-7.15-15.39-17.8-14.65-5.03,.35-10.15,.49-15.15-.04-7.32-.78-9.74,2.19-9.01,9.24,.78,7.6-1.16,14.1-9.62,16.37-9.81,2.64-19.04,6.65-27.91,11.53-4.86,2.67-10.57,3.76-13.87-.83-9.5-13.25-16.33-7-23.73,1.93-3.7,4.47-8.11,8.37-12.34,12.39-2.96,2.82-4.47,5.59-.38,8.5,12.25,8.69,9.56,18.47,3.06,29.39-3.32,5.57-4.89,12.21-7.05,18.44-1.74,5.01-4.34,10.96-9.79,10.1-19.35-3.07-16.69,9.7-16.43,21.18,.09,3.89,.35,7.82-.06,11.66-.75,7.08,1.9,10.11,9.16,9.19,10.4-1.33,15.47,3.85,18.13,13.71,2.1,7.79,6,15.13,9.53,22.47,2.53,5.27,4.66,11.57-.07,15.13-13.89,10.43-6.05,17.23,2.73,24.6,2.97,2.49,5.88,5.19,8.24,8.24,5.01,6.47,9.55,8.2,15.24,.58,5.3-7.11,12.17-7.35,19.64-3.12,8.14,4.61,16.76,8.08,25.81,10.52,4.78,1.29,9.88,4.2,9.13,9.22-2.83,18.97,9.59,16.85,21.22,16.41,3.49-.13,7.04-.38,10.49,.05,7.99,1,11.57-1.82,10.52-10.24-1.08-8.69,2.94-13.87,11.59-16,8.31-2.05,16.26-5.3,23.62-9.71,7.88-4.72,14.63-3.88,20.74,3.12,1.98,2.27,3.8,5.03,7.67,5.51,1.25-1.11,2.75-2.31,4.1-3.65Zm-6.03-107.11c-.17,45.15-37.28,81.68-82.85,81.57-45.6-.12-82.08-36.85-81.83-82.39,.25-45.67,36.71-81.63,82.66-81.55,45.47,.09,82.19,36.97,82.02,82.37Zm-22.08-.76c-.16-33.01-27.13-59.97-60.16-60.13-33.24-.16-61.09,27.65-60.88,60.8,.21,32.7,27.6,59.96,60.4,60.11,33.42,.15,60.8-27.29,60.64-60.78Z"/>
</svg>