<?xml version="1.0" encoding="UTF-8"?>
<svg id="Layer_1" data-name="Layer 1" xmlns="http://www.w3.org/2000/svg" viewBox="0 0 800 800">
  <defs>
    <style>
      .cls-1 {
        fill: none;
      }
    </style>
  </defs>
  <rect class="cls-1" width="800" height="800"/>
  <path d="M731.38,396.73c-16.91-23.16-33.88-46.28-50.56-69.6-7.05-9.85-15.84-17.14-26.8-22.32-25.2-11.91-50.07-24.54-75.39-36.18-8.38-3.86-9.95-7.7-7.27-16.79,9.06-30.77,8.48-61.92,.41-92.95C546.62,62.21,440.11,4.59,345.67,36.6c-92.07,31.2-141.33,122.6-116.23,216.6,2.17,8.12,.96,11.54-6.6,15.04-25.66,11.86-50.95,24.52-76.44,36.75-8.61,4.13-16.72,8.88-22.45,16.7-19.73,26.93-39.86,53.6-58.85,81.05-16.51,23.86-8.16,53.48,17.75,66.9,7.32,3.79,14.61,7.75,22.26,10.76,5.85,2.3,7.17,5.9,7.09,11.72-.3,20.82-.12,41.65-.12,62.47,0,18.47,.3,36.94-.07,55.4-.52,26.01,11.03,43.84,34.43,55.13,75.67,36.5,151.2,73.31,226.7,110.17,17.82,8.7,35.41,9.19,53.25,.52,76.62-37.26,153.25-74.5,229.85-111.79,21.54-10.49,32.2-27.81,32.17-51.77-.04-33.4,1.64-66.91-.59-100.15-1.46-21.7,5.42-32.45,25.45-40.99,33.52-14.29,39.74-44.77,18.12-74.36ZM400.58,52.32c84.81,.22,153.2,69,152.98,153.86-.22,84.44-69.78,153.3-154.3,152.74-84.66-.56-152.78-69.7-152.37-154.64,.41-83.97,69.39-152.17,153.69-151.95ZM96.51,449.31c-16.68-8.14-19.8-21.43-8.92-36.51,13.77-19.08,27.85-37.95,41.48-57.14,3.9-5.49,6.77-7.52,13.98-3.98,76.7,37.69,153.61,74.99,230.6,112.08,6.82,3.28,7.53,5.55,2.98,11.59-16.04,21.31-31.63,42.96-47.22,64.6-4.66,6.46-10.63,10.24-18.19,11.11-5.19-.09-9.51-2.03-13.74-4.08-67.01-32.52-134.04-65.01-200.98-97.68Zm291.07,304c-3.21,1.17-5.77-1.02-8.48-2.34-73.77-35.85-147.42-71.95-221.37-107.44-15.02-7.21-21.8-17.89-21.7-34.19,.23-37.24,.07-74.48,.07-113.77,46.96,22.82,91.74,44.58,136.52,66.34,5.29,2.57,10.55,5.23,15.89,7.7,23.94,11.07,44.5,5.97,60.24-15.14,12.58-16.87,24.93-33.91,38.83-52.85v251.68Zm11.94-305.67c-15.51,.07-31.11-13.3-46.63-20.85-63.52-30.89-127.02-61.8-190.52-92.71-2.42-1.18-4.81-2.41-7.87-3.95,4.21-5.5,10.19-6.72,15.21-9.21,21.44-10.64,43.09-20.86,64.47-31.6,5.58-2.8,8.32-2.53,11.75,3.43,69.29,120.28,239.12,120.94,309.1-.4,1.55-2.69,2.08-7.38,7.39-4.79,27.77,13.54,55.57,27.01,85.78,41.67-68.92,33.52-134.84,65.64-200.83,97.64-15.84,7.68-31.86,20.7-47.84,20.77Zm245.1,195.02c-74.52,36.05-148.93,72.34-223.37,108.58-5.11,2.49-9.06,4.99-9.03-4.48,.25-79.71,.14-159.41,.18-239.12,0-1.01,.48-2.01,1.26-5.04,12.67,17.34,24.29,33.38,36.05,49.32,18.14,24.59,38.03,29.53,65.68,16.13,44.84-21.73,89.6-43.61,134.41-65.41,4.17-2.03,8.42-3.9,14.53-6.72,0,10.15,0,18.93,0,27.71,0,28.66-.12,57.33,.05,85.99,.09,15.16-5.63,26.21-19.77,33.06Zm58.16-192.77c-53.97,26.33-108.01,52.54-162.02,78.79-12.35,6-24.66,12.11-37.09,17.95-4.22,1.99-8.75,3.32-12.13,4.57-8.65-.71-14.82-3.6-19.3-9.74-16.42-22.53-32.75-45.13-49.36-67.52-3.58-4.83-2.76-6.7,2.55-9.26,78.11-37.72,156.15-75.6,234.08-113.72,5.22-2.55,7.41-1.31,10.38,2.83,14.65,20.42,29.77,40.5,44.28,61.02,9.82,13.89,5.48,26.84-11.41,35.08Zm-213.89-216.97c-6.18-7.57-13.29-14.48-20.61-20.98-5.66-5.03-5.06-8.47,.29-13.1,5.91-5.13,11.29-10.9,16.7-16.58,18.07-18.97,18.56-44.6,1.28-62.23-16.91-17.26-44.94-16.92-63.49,.86-5.95,5.7-12.01,11.35-17.4,17.56-4.28,4.93-7.08,4.22-11.11-.24-6.05-6.68-12.55-13-19.18-19.11-17.77-16.36-43.88-16.23-60.65,.11-17.43,16.98-18.02,42.97-1.21,61.34,5.56,6.08,11.19,12.19,17.5,17.45,6.31,5.26,6.82,9.21,.38,14.79-6.81,5.89-13.16,12.4-19.1,19.18-17.19,19.64-13.61,49.12,7.51,64.12,19.44,13.81,41.17,10.47,61.14-9.42,19.28-19.19,19.42-19.34,38.48,.03,10,10.16,21.03,17.61,38.08,17.73,15.67-1.07,29.42-8.85,37.2-25.31,7.77-16.44,5.6-32.22-5.8-46.19Zm-16.7,36.56c-3.52,7.54-10.45,10.14-17.63,10.4-6.9-1.03-11.72-4.13-15.98-8.48-8.79-8.97-17.65-17.89-26.64-26.67-9.49-9.28-14.1-9.21-23.76,.27-8.97,8.8-17.67,17.88-26.68,26.63-10.73,10.42-21.39,11.19-30.05,2.46-8.12-8.18-7.07-19.82,2.95-30.13,8.21-8.45,16.64-16.68,24.94-25.04,11.24-11.33,11.18-15.69-.39-27.26-8.6-8.61-17.4-17.04-25.82-25.82-9.13-9.53-9.45-21.38-1.19-29.26,7.95-7.59,19.11-7.09,28.35,1.76,9.92,9.51,19.53,19.35,29.22,29.09,7.22,7.25,14.31,7.13,21.48-.05,9.43-9.45,18.78-18.98,28.38-28.27,9.73-9.42,21.11-10.22,29.25-2.38,8.43,8.11,7.63,19.94-2.28,30.11-9.05,9.28-18.21,18.45-27.5,27.48-7.73,7.52-7.79,14.72-.14,22.3,10.32,10.22,20.65,20.44,30.66,30.97,6.09,6.4,6.39,14.28,2.83,21.9Z"/>
</svg>