<?xml version="1.0" encoding="UTF-8"?>
<svg id="Layer_1" data-name="Layer 1" xmlns="http://www.w3.org/2000/svg" viewBox="0 0 800 800">
  <defs>
    <style>
      .cls-1 {
        fill: none;
      }
    </style>
  </defs>
  <rect class="cls-1" width="800" height="800"/>
  <path d="M758.48,341.73c-16.65-83.65-82.65-138.52-167.94-142.37-6.52-.29-8.41-2.15-8.25-8.45,.37-14.31,.15-28.64,.1-42.96-.08-22.61-8.71-31.64-31.31-31.74-6.56-.03-9.12-1.17-9.18-8.54-.17-20.88-8.63-29.13-29.8-29.07-7.98,.02-10.14-2.42-10.12-10.24,.05-21.79-8.41-29.76-30.34-29.77-67.1-.03-134.2-.01-201.3-.01-67.1,0-134.2-.01-201.3,0-23.33,0-31.18,7.88-31.18,31.27-.01,194.08,0,388.16,0,582.24,0,24.13,6.92,31.45,31.48,32.31,6.19,.22,8.34,1.81,8.51,8.35,.63,24.15,7.13,30.72,31.05,31.19,6.97,.14,8.8,2.12,8.9,9.01,.31,20.8,9.28,29.27,29.94,29.27,106.31,.03,212.61-.05,318.92,.15,7.78,.01,13.48-2.35,18.94-7.85,29.47-29.69,59.11-59.2,88.98-88.48,5.9-5.79,8.06-11.99,7.96-20.07-.34-25.62-.13-51.25-.13-76.88q0-18.67,17.85-20.61c2.62-.29,5.25-.52,7.87-.86,22.24-2.92,43.32-9.42,62.92-20.47,6-3.38,7.73-8.34,4.68-14.23-3.07-5.94-8.29-7.26-14.39-4.39-2.72,1.28-5.32,2.83-8.08,4.04-56.51,24.79-109.87,19.36-160.19-16.49-5.73-4.08-7.17-6.77-1.28-12.54,30.93-30.35,61.5-61.08,91.99-91.88,4.25-4.29,8.28-5.39,14.06-3.84,42.12,11.31,84.29,22.48,126.51,33.41,6.29,1.63,7.69,4.05,5.12,10.03-6.43,14.99-14.44,28.98-25,41.43-5.04,5.94-7.15,11.93-.15,17.57,6.7,5.4,11.85,1.65,16.32-3.81,34.76-42.47,48.51-91.23,37.85-144.76ZM117.62,147.5c-.02,181.28,0,362.56-.11,543.84,0,5.18,3.23,12.51-7.59,12.39-8.27-.09-11.03-2.31-10.98-10.89,.34-60.3,.18-120.6,.18-180.9,0-36.93,0-73.87,0-110.8,0-96.48,.12-192.96-.2-289.44-.03-9.25,2.23-12.4,11.84-12.05,20.33,.73,40.71,.07,61.06,.3,7.71,.08,14.22-1.85,14.59-10.37,.41-9.61-6.73-11.23-14.72-11.18-21.11,.13-42.22-.01-63.33,.06-21.98,.07-30.66,8.76-30.66,30.88-.03,176-.02,352.01-.02,528.01,0,6.03-.31,12.08,.08,18.08,.4,6.13-2.29,8.06-8,7.51-4.96-.48-11.36,1.7-11.06-7,.08-2.26,0-4.52,0-6.78,0-191.83,.1-383.66-.26-575.49-.02-11.52,3.06-14.49,14.51-14.46,131.95,.41,263.9,.24,395.84,.34,5.09,0,11.67-2.47,12.43,6.96,.74,9.2-1.95,12.22-11.66,12.16-74.27-.4-148.53-.22-222.8-.22-3.39,0-6.79,0-10.18,.09-6.66,.2-10.93,3.5-10.95,10.29-.02,7.23,4.31,10.98,11.51,11.02,17.72,.08,35.44,.04,53.16,.04,73.14,0,146.27-.03,219.41,.08,4.38,0,10.29-2.32,11.53,5.35,1.34,8.28-1.45,11.02-10.24,10.97-68.61-.36-137.23-.2-205.84-.2-52.02,0-104.05-.02-156.07,0-22.67,.01-31.46,8.77-31.46,31.42ZM484.18,721.98c0-17.25-.11-35.33,.07-53.4,.05-4.54,3.77-4.97,7.34-4.97,16.82,0,33.64,0,52.15,0-20.61,20.2-39.8,39.01-59.57,58.38Zm52.25-180.16c7.86,2.36,19.26,.64,22.86,7.07,3.73,6.65,1.22,16.85,1.25,25.5,.07,18.84-.46,37.69,.23,56.5,.34,9.09-1.72,12.52-11.55,12.05-18.05-.85-36.17-.25-54.26-.24-23.95,.01-32.06,7.98-32.08,31.55-.02,19.21-.36,38.44,.17,57.64,.21,7.61-2.32,9.54-9.63,9.53-101.38-.2-202.75-.28-304.13,.08-10.29,.04-10.54-4.96-10.53-12.53,.12-96.83,.08-193.65,.08-290.48,0-96.07,.15-192.14-.22-288.21-.04-9.86,2.42-12.58,12.5-12.55,132.28,.36,264.56,.38,396.84-.02,10.73-.03,13.41,3.16,12.82,13.27-.84,14.27-.46,28.63-.09,42.93,.15,5.67-1.85,7.38-7.32,8.65-76.8,17.8-125,65.39-138.9,142.71-16.27,90.49,40.31,172.02,121.97,196.53Zm45.26-182.46c-2.5,5.57-5.66,10.41-10.03,14.76-31.26,31.03-62.58,61.99-93.31,93.54-6.93,7.11-9.93,5.37-14.9-1.46-19.92-27.35-30-57.81-30.42-91.55-.45-101.7,95.99-175.4,194.38-148.8,9.46,2.56,12.68,5.08,7.81,15.45-18.39,39.1-35.84,78.64-53.53,118.07Zm129.15,36.63c-33.32-9.03-66.65-18.05-100.14-26.4-7.49-1.87-9-3.66-5.69-10.87,17.07-37.2,33.89-74.52,50.31-112.01,3.34-7.63,6.45-7.08,12.41-3.21,46.75,30.39,70.19,73.76,72.51,122.2,.57,38.55,.61,38.41-29.4,30.28ZM313.95,213.19c32.76,0,65.51,.03,98.27-.02,7.58-.01,15.2,.3,15.36,10.38,.16,10.02-7.45,10.93-15.01,10.93-65.89,.04-131.78,0-197.67,.05-7.74,0-15.32-1.14-15.42-10.64-.11-9.46,7.08-10.82,15.08-10.78,33.13,.19,66.27,.08,99.4,.08Zm-23.5,98.96c-25.6,0-51.19-.16-76.78,.1-7.87,.08-14.02-2.09-14.23-10.58-.21-8.88,6.52-10.71,14.05-10.7,50.44,.03,100.87,0,151.31,.04,7.56,0,15.06,.75,14.62,11.07-.39,9.27-7.06,10.15-14.45,10.12-24.84-.11-49.68-.04-74.53-.04Zm-13.6,77.83c-21.08,0-42.17-.14-63.25,.07-7.81,.08-14.16-2.24-14.16-10.71,0-8.37,6.1-10.78,14.06-10.75,43.3,.21,86.59,.14,129.89,.06,7.16-.01,13.04,1.5,13.39,10,.37,9.1-5.57,11.35-13.3,11.34-22.21-.03-44.43-.01-66.64-.01Zm129.58,260.25c-9.55,.18-8.67-5.39-8.65-11.64,.12-29.75-.1-59.5,.14-89.24,.08-9.59-4.18-13.88-13.52-13.82-10.55,.06-21.1-.27-31.64,.11-5.91,.21-8.08-1.83-7.84-7.74,.36-8.65-.1-17.32,.13-25.98,.27-10.07-4.64-14.4-14.43-14.32-15.07,.12-30.14-.13-45.2,.07-12.41,.17-14.82,2.84-14.88,15.73-.08,16.57-.44,33.15,.16,49.7,.3,8.16-2.56,10.48-10.31,9.97-9-.59-18.07-.2-27.11-.12-13.31,.12-16,2.68-16.07,15.74-.11,19.96-.15,39.92,.04,59.87,.06,6.35,.7,11.86-8.68,11.68-5.61-.11-8.45,4.64-8.18,10.25,.45,9.32,7.13,10.26,14.43,10.25,30.89-.03,61.77-.01,92.66-.02,31.64,0,63.28-.02,94.92,0,6.78,0,12.18-2.42,13.05-9.65,.73-6.12-3.28-10.94-9.01-10.84Zm-135.85-7.87c.06,5.19-1.52,7.06-6.99,7.43-24.53,1.62-24.52,1.81-24.52-22.33v-11.28c0-3.38,0-6.77,0-10.15,0-23.96,0-23.81,24.17-22.52,5.04,.27,7.46,1.29,7.37,6.97-.29,17.29-.24,34.59-.03,51.89Zm44.02,7.47c-22.87,.15-22.87,.47-22.87-21.92,0-36.45,.23-72.91-.18-109.36-.09-7.88,2.1-10.15,10-10.05,21.69,.26,21.69-.11,21.69,21.8,0,16.54,0,33.07,0,49.61,0,20.29-.26,40.59,.14,60.88,.13,6.79-1.68,9-8.78,9.05Zm55.25-.05c-24.77,1.53-24.76,1.72-24.76-23.31,0-20.32,.24-40.64-.14-60.95-.13-6.69,1.5-9.01,8.69-9.04,23.22-.09,23.21-.43,23.21,22.77,0,7.9,0,15.8,0,23.7,0,13.17-.18,26.34,.09,39.5,.11,5.3-1.7,6.99-7.09,7.32Z"/>
</svg>