<?xml version="1.0" encoding="UTF-8"?>
<svg id="Layer_1" data-name="Layer 1" xmlns="http://www.w3.org/2000/svg" viewBox="0 0 800 800">
  <defs>
    <style>
      .cls-1 {
        fill: none;
      }
    </style>
  </defs>
  <rect class="cls-1" width="800" height="800"/>
  <path d="M776,356.83c.11-9.94-3.99-15.51-13.3-18.74-14-4.86-27.59-10.86-41.57-15.8-5.58-1.97-8.1-4.99-9.71-10.72-6.52-23.21-15.3-45.62-27.5-66.47-3.69-6.31-3.72-11.4-.63-17.79,6.46-13.35,12.01-27.13,18.3-40.56,3.31-7.07,2.84-12.89-2.86-18.54-21.96-21.77-43.8-43.66-65.59-65.59-5.48-5.52-11.2-6.79-18.47-3.38-14.15,6.63-28.67,12.51-42.78,19.23-5.25,2.5-9.26,2.52-14.44-.45-21.64-12.42-44.6-21.89-68.68-28.4-5.37-1.45-8-4.28-9.8-9.24-5.2-14.31-10.99-28.39-16.14-42.72-3.13-8.71-8.58-12.74-18.02-12.65-29.72,.27-59.44,.24-89.15,.01-8.93-.07-14.18,3.81-17.18,12.02-5.1,13.92-10.87,27.6-15.77,41.59-2.21,6.29-5.44,9.53-12.2,11.39-20.9,5.76-41.39,13.21-60.01,24.31-10.09,6.02-18.25,6.62-28.59,1.14-13.41-7.1-27.7-12.55-39.74-17.89-6.96-1.03-10.57,1.3-13.82,4.56-22.14,22.15-44.28,44.31-66.46,66.42-5.26,5.25-5.85,10.85-2.67,17.51,4.66,9.76,8.08,20.19,13.43,29.54,7.81,13.64,9.39,26.08-.7,39.46-4.49,5.95-6.52,13.71-9.91,20.52-7.24,14.55-6.08,34.47-18.72,44.28-12.42,9.64-29.98,12.78-45.46,18.3-8.69,3.1-12.94,8.25-12.85,17.79,.3,29.71,.29,59.43,0,89.14-.09,9.55,4.29,14.72,12.92,17.81,13.95,4.99,27.68,10.6,41.58,15.74,4.73,1.75,8.4,3.74,9.86,9.29,6.57,24.93,16.56,48.52,29.35,70.87,2.59,4.52,1.98,7.91-.03,12.25-6.74,14.55-12.9,29.36-19.62,43.92-3.12,6.76-2.23,12.3,2.97,17.48,22.18,22.11,44.35,44.24,66.44,66.45,5.24,5.27,10.79,6.08,17.48,2.91,9.05-4.29,18.8-7.34,27.37-12.4,15.08-8.91,29.12-10.95,43.87,.7,4.89,3.86,11.6,5.37,17.32,8.26,14.88,7.52,35.29,6.42,45.36,19.2,9.94,12.61,12.96,30.73,18.75,46.53,3.03,8.29,8.55,11.9,17.36,11.84,29.72-.19,59.44-.17,89.16-.02,8.77,.04,14.3-3.6,17.33-11.91,5.21-14.31,10.89-28.44,16.22-42.7,1.75-4.68,3.69-8.22,9.35-9.71,24.54-6.46,47.79-16.26,69.85-28.77,4.69-2.66,8.37-2.86,13.35-.48,14.1,6.73,28.67,12.47,42.81,19.13,7.71,3.63,13.61,2.36,19.46-3.57,21.45-21.71,43.02-43.3,64.73-64.75,6.03-5.96,6.79-11.93,3.18-19.51-6.37-13.39-11.83-27.2-18.25-40.57-2.87-5.97-3.15-10.68,.36-16.7,12.36-21.22,21.45-43.94,27.99-67.58,1.48-5.36,4.1-8.06,9.09-9.87,14.31-5.21,28.39-11.04,42.72-16.18,8.73-3.14,12.74-8.61,12.66-18.02-.25-29.31-.3-58.63,.03-87.94Zm-24.27,76.15c.1,6.29-2.13,9.29-7.99,11.34-13.24,4.62-26.16,10.17-39.37,14.86-7.95,2.82-12.3,7.74-14.31,16.06-6.64,27.47-17.57,53.31-32.17,77.47-4.52,7.49-4.32,13.98-.76,21.48,5.84,12.31,10.77,25.07,16.83,37.26,3.07,6.18,1.98,10.04-2.79,14.65-15.3,14.79-30.37,29.84-45.14,45.16-4.68,4.85-8.59,5.61-14.69,2.59-12.21-6.05-24.94-11.02-37.26-16.84-7.52-3.55-14-3.55-21.47,.97-24.15,14.62-50,25.53-77.5,32.09-8.35,1.99-13.16,6.49-15.97,14.42-4.69,13.22-10.26,26.12-14.87,39.36-2.06,5.91-5.17,8-11.4,7.9-21.69-.34-43.39-.37-65.07,.02-6.51,.12-9.03-2.56-11.03-8.29-4.62-13.23-10.26-26.11-14.99-39.31-2.68-7.47-7.1-11.94-15.01-13.84-27.88-6.7-54.11-17.68-78.64-32.46-7.46-4.49-13.92-4.37-21.46-.75-12.29,5.9-25.07,10.76-37.28,16.82-6.22,3.08-10.07,1.88-14.65-2.85-14.8-15.29-29.83-30.38-45.18-45.11-4.95-4.75-5.27-8.65-2.46-14.67,7.11-15.24,17.4-30.45,19.01-46.41,1.6-15.88-13.93-28.83-19.76-44.15-5.71-14.99-11.94-29.81-15.37-45.52-1.83-8.37-6.5-13.16-14.42-15.98-13.21-4.7-26.1-10.29-39.34-14.89-5.79-2.01-8.17-4.74-8.05-11.15,.4-22.08,.3-44.18,.05-66.27-.06-5.24,1.61-7.82,6.66-9.62,13.96-4.99,27.66-10.71,41.55-15.92,6.4-2.4,10.83-5.88,12.65-13.07,7.44-29.33,18.82-57.07,34.56-82.98,1.42-2.34,2.05-5.15,3.35-8.51-3.35-7.76-6.97-15.76-10.26-23.9-4.32-10.67-14.43-21.59-11.74-31.75,2.51-9.48,14.35-16.54,22.2-24.54,9-9.17,18.37-17.99,27.12-27.39,4.3-4.62,8.1-5.05,13.65-2.38,12.28,5.91,25.07,10.77,37.25,16.87,8,4.01,14.66,3.94,22.45-.81,23.42-14.27,48.55-24.9,75.24-31.32,9.63-2.32,15.35-7.13,18.51-16.5,4.35-12.9,10.13-25.32,14.47-38.22,2.07-6.16,5.31-7.75,11.38-7.66,21.29,.32,42.58,.36,63.87-.02,6.54-.12,10.09,1.48,12.3,8.17,4.4,13.3,10.12,26.16,14.83,39.36,2.82,7.91,7.64,12.45,15.99,14.41,27.53,6.48,53.35,17.46,77.5,32.07,7.47,4.52,13.87,4.47,21.39,.84,12.64-6.1,25.62-11.46,38.32-17.43,5.02-2.36,8.61-2.02,12.7,2.2,15.38,15.85,30.99,31.48,46.85,46.86,4.67,4.53,4.48,8.38,1.88,13.79-5.9,12.29-10.94,24.98-16.8,37.29-3.58,7.52-3.66,13.97,.86,21.45,14.6,24.15,25.55,49.99,32.1,77.48,2.11,8.87,6.98,13.7,15.32,16.61,12.86,4.48,25.34,10.04,38.22,14.48,5.84,2.01,8.25,4.76,8.14,11.15-.37,21.68-.36,43.38,0,65.06ZM400.85,124.14c-152.28-.37-275.74,122.36-276.75,275.1-1,152.46,122.01,276.48,275.41,277.67,152.03,1.18,276.59-122.64,277.41-275.78,.81-152.26-123.14-276.62-276.08-276.99Zm-1.79,528.49c-139.79-1.42-251.6-114.35-250.73-253.24,.88-139.53,114.09-251.88,252.97-251.03,139.63,.85,251.95,113.73,251.36,252.61-.6,139.94-114.59,253.06-253.6,251.65Zm160.26-288.75c-3.2-37.98-6.82-75.92-9.95-113.9-1.03-12.47-6.88-17.09-19.49-16.93-43.36,.54-86.73,.21-130.09,.21-41.76,0-83.52,0-125.27,0-19.71,0-21.55,1.83-23.3,21.68-2.89,32.77-5.82,65.54-8.94,98.29-1.44,15.09-.93,29.85,7.62,42.96,3.72,5.71,4.9,11.43,4.88,18.06-.18,44.96-.15,89.93-.06,134.89,.03,15.44,3.06,18.48,18.18,18.49,84.72,.04,169.44,.04,254.16,0,16.58,0,19.03-2.38,19.05-18.72,.07-44.16,.15-88.32-.09-132.48-.04-7.87,1.22-14.71,5.66-21.49,6.04-9.25,8.58-19.96,7.64-31.04Zm-188.77-106.49c20.05,.43,40.12,.31,60.18,.05,6.18-.08,8.34,1.91,8.29,8.28-.27,35.3-.12,70.6-.16,105.9,0,9.75-4.94,16.95-12.88,21.78-15.58,9.5-31.91,9.96-48.12,1.75-10.46-5.3-16.02-13.84-15.71-26.18,.42-16.84,.11-33.69,.1-50.54,0-17.25,.22-34.5-.12-51.75-.13-6.35,1.09-9.45,8.42-9.3Zm-104.37,101.88c2.58-31.16,5.93-62.25,8.41-93.42,.55-6.89,2.99-8.63,9.46-8.45,14.83,.41,29.7,.59,44.52-.05,8.45-.37,9.89,3.15,9.67,10.54-.48,16.03-.15,32.08-.15,48.13,0,15.24,.18,30.49-.05,45.72-.34,22.63-18.57,40.17-40.09,38.9-20.6-1.22-33.71-17.87-31.76-41.37Zm244.13,184.32c-36.9-.41-73.82-.18-110.72-.18s-73.02-.18-109.52,.15c-7.73,.07-11.47-1.08-11.33-10.22,.52-34.09,.31-68.19,.12-102.28-.03-6.37,.64-9.69,8.58-7.84,21.17,4.92,39.7-1.26,55.3-15.86,4.45-4.17,6.59-4.42,11.45-.18,27.17,23.7,65.23,23.88,92.09,.45,5.05-4.41,7.4-4.57,12.33,.06,15.23,14.32,33.52,20.37,54.21,15.66,8.46-1.93,9.26,1.24,9.21,8.24-.25,33.69-.5,67.4,.13,101.08,.18,9.69-3.44,11.03-11.84,10.93Zm-7.59-142.93c-20.15,1.1-38.22-15.14-39.58-35.59-.05-.8-.07-1.6-.07-2.4,0-16.04,0-32.08-.01-48.12,0-16.44,.17-32.89-.11-49.32-.09-5.58,1.55-7.88,7.44-7.78,16.04,.29,32.09,.26,48.12,0,5.61-.09,7.44,1.82,7.91,7.52,2.61,31.95,5.85,63.85,8.56,95.8,1.86,21.89-12.04,38.79-32.26,39.9Zm-17.83,57.81c-.15-12.88-3.72-16.52-16.45-16.6-22.47-.13-44.94-.04-67.41-.04-22.87,0-45.75,.23-68.61-.1-11.1-.16-16.38,4.4-16.19,15.67,.25,14.44,.22,28.89,.01,43.33-.17,11.3,5.3,15.67,16.31,15.61,45.34-.22,90.68-.02,136.02-.14,12.53-.03,16.16-3.9,16.31-16.81,.16-13.64,.16-27.28,0-40.92Zm-34.55,33.92c-16.74-1.13-33.62-.29-50.44-.29-16.82,0-33.65-.24-50.46,.12-6.41,.14-9.13-1.2-9.19-8.44-.16-17.8-.57-17.8,17.68-17.8,30.84,0,61.69,.61,92.51-.31,11.87-.35,10.39,6.05,10.41,13.4,.01,7.4,1.37,14.11-10.49,13.31Z"/>
</svg>