<?xml version="1.0" encoding="UTF-8"?>
<svg id="Layer_1" data-name="Layer 1" xmlns="http://www.w3.org/2000/svg" viewBox="0 0 14 14">
  <defs>
    <style>
      .cls-1 {
        fill: #393939;
      }

      .cls-2 {
        fill: none;
      }
    </style>
  </defs>
  <rect class="cls-2" width="14" height="14"/>
  <path class="cls-1" d="M10.45,7.39c0-1.75,0-3.51,0-5.26,0-.32-.07-.38-.39-.38-2.43,0-4.86,0-7.3,0-.32,0-.38,.06-.38,.39,0,2.58,0,5.16,0,7.74,0,.05,0,.09,0,.14,0,.15-.04,.27-.2,.27-.17,0-.2-.13-.2-.27,0-2.65,0-5.31,0-7.96,0-.42,.26-.68,.68-.67,.17,0,.2-.05,.2-.2,0-.42,.26-.68,.67-.68,2.5,0,5,0,7.5,0,.4,0,.66,.25,.67,.65,0,.48,0,.97,0,1.45,0,.14-.04,.25-.2,.24-.15,0-.18-.11-.18-.24,0-.44,0-.87,0-1.31,0-.34-.07-.41-.41-.41-2,0-3.99,0-5.99,0-.45,0-.9,0-1.35,0-.14,0-.26,.03-.31,.17-.09,.24-.02,.34,.24,.34,2.19,0,4.38,0,6.57,0,.54,0,.77,.23,.77,.77,0,3.25,0,6.51,0,9.76,0,.08-.1,.24,.12,.24,.22,0,.34-.08,.36-.26,0-.06,0-.12,0-.18,0-2.67,0-5.34,0-8,0-.07,0-.14,0-.2,.02-.1,.08-.15,.18-.15,.1,0,.17,.05,.19,.15,.01,.06,0,.12,0,.18,0,2.7,0,5.4,0,8.1,0,.5-.22,.73-.72,.73-.13,0-.15,.05-.15,.16,0,.47-.26,.72-.72,.72-2.47,0-4.95,0-7.42,0-.45,0-.71-.25-.71-.71,0-.54,0-1.08,0-1.61,0-.1,0-.21,.11-.26,.15-.07,.28,.03,.28,.23,0,.54,0,1.09,0,1.63,0,.26,.08,.35,.35,.35,2.46,0,4.92,0,7.38,0,.26,0,.34-.09,.34-.35,0-1.76,0-3.52,0-5.28Zm-3.26-3.35c-.13,0-.25,.01-.25,.18,0,.17,.12,.18,.25,.18,.76,0,1.51,0,2.27,0,.13,0,.26-.02,.26-.18,0-.16-.13-.18-.26-.18-.38,0-.76,0-1.15,0-.38,0-.75,0-1.13,0Zm-1.54,3.23c.12,0,.24,0,.25-.16,0-.16-.11-.2-.24-.2-.77,0-1.53,0-2.3,0-.13,0-.24,.04-.24,.18,0,.15,.11,.18,.24,.18,.38,0,.77,0,1.15,0s.77,0,1.15,0Zm-2.29,.48c-.13,0-.24,.02-.24,.17,0,.15,.12,.18,.24,.18,.77,0,1.54,0,2.32,0,.12,0,.24-.03,.23-.19,0-.14-.11-.16-.23-.16-.38,0-.77,0-1.15,0-.39,0-.78,0-1.17,0Zm6.12,2.07c.13,0,.24-.02,.24-.17,0-.15-.11-.18-.24-.18-.72,0-1.43,0-2.15,0-.13,0-.23,.04-.23,.19,0,.14,.11,.17,.23,.17,.36,0,.71,0,1.07,0,.36,0,.72,0,1.09,0Zm0,1.73c.13,0,.24-.04,.24-.18,0-.15-.11-.18-.24-.18-.71,0-1.42,0-2.13,0-.12,0-.24,.02-.25,.17,0,.16,.11,.19,.25,.19,.35,0,.7,0,1.05,0,.36,0,.72,0,1.09,0Zm-2.13-1.21c-.12,0-.24,0-.25,.16,0,.15,.11,.19,.23,.19,.72,0,1.44,0,2.16,0,.13,0,.24-.04,.23-.19,0-.14-.12-.16-.23-.16-.36,0-.71,0-1.07,0-.36,0-.71,0-1.07,0Zm2.12-6.76c.13,0,.26-.01,.25-.18,0-.15-.13-.16-.25-.16-.76,0-1.53,0-2.29,0-.12,0-.24,.01-.24,.17,0,.17,.12,.17,.24,.17,.38,0,.76,0,1.15,0,.38,0,.76,0,1.15,0Zm0,1.65c.12,0,.24-.02,.25-.17,0-.16-.11-.18-.24-.18-.77,0-1.54,0-2.31,0-.12,0-.24,.01-.23,.18,0,.16,.12,.17,.24,.17,.38,0,.76,0,1.15,0,.38,0,.76,0,1.15,0Zm-2.9-1.06c0,1.01-.84,1.82-1.85,1.82-.99,0-1.81-.85-1.8-1.84,0-1,.83-1.81,1.83-1.81,1.01,0,1.83,.82,1.82,1.83Zm-1.64-.32c0,.08,.02,.12,.11,.12,.34,0,.68,0,1.02,0,.08,0,.1-.02,.09-.11-.06-.49-.62-1.05-1.11-1.11-.09-.01-.12,0-.12,.1,0,.17,0,.33,0,.5s0,.33,0,.5Zm1.08,.49c-.4,0-.81,0-1.21,0-.18,0-.26-.08-.25-.26,0-.2,0-.4,0-.6,0-.18,0-.36,0-.54,0-.23,0-.24-.24-.16-.65,.21-1.05,.81-1,1.52,.04,.64,.62,1.24,1.24,1.29,.79,.06,1.44-.39,1.6-1.08,.03-.14,0-.16-.13-.16Zm3.9,3.94c0,.27-.11,.39-.37,.39-.94,0-1.88,0-2.82,0-.26,0-.36-.11-.36-.37,0-.52,0-1.03,0-1.55,0-.27,.1-.37,.38-.38,.47,0,.94,0,1.41,0,.46,0,.91,0,1.37,0,.3,0,.4,.1,.4,.4,0,.5,0,1.01,0,1.51Zm-.39-1.39c0-.12-.03-.15-.15-.15-.42,0-.83,0-1.25,0-.42,0-.83,0-1.25,0-.12,0-.15,.03-.14,.15,0,.42,0,.83,0,1.25,0,.11,.03,.15,.15,.14,.83,0,1.66,0,2.5,0,.12,0,.15-.03,.14-.15,0-.42,0-.83,0-1.25Zm-5.48,4.95c0,.19-.13,.31-.32,.31-.15,0-.3,0-.44,0-.23,0-.36-.13-.36-.36,0-.41,0-.82,0-1.23,0-.4,0-.79,0-1.19,0-.3,.11-.4,.4-.4,.13,0,.27,0,.4,0,.2,0,.32,.11,.33,.31,0,.85,0,1.71,0,2.56Zm-.37-.23c-.01-.7-.01-1.41,0-2.11,0-.17-.09-.15-.2-.16-.14-.01-.17,.04-.17,.17,0,.35,0,.7,0,1.04s0,.7,0,1.04c0,.13,.03,.18,.17,.17,.1-.01,.2,.02,.2-.16Zm1.77-.7c0,.28,0,.56,0,.84,0,.28-.12,.4-.41,.4-.13,0-.25,0-.38,0-.22,0-.34-.12-.34-.34,0-.62,0-1.23,0-1.85,0-.2,.11-.31,.31-.31,.16,0,.32,0,.48,0,.22,0,.33,.11,.33,.34,0,.31,0,.62,0,.92Zm-.37-.77c0-.16-.11-.12-.19-.12-.08,0-.2-.04-.19,.12,0,.25,0,.5,0,.74,0,.25,0,.51,0,.76,0,.15,.1,.11,.18,.11,.08,0,.2,.06,.2-.11,0-.5,0-1.01,0-1.51Zm1.76,1.71c0,.19-.13,.29-.31,.3-.16,.01-.32,0-.48,0-.2,0-.3-.12-.32-.32,0-.01,0-.03,0-.04,0-.16,0-.32,0-.48h0c0-.17,0-.35,0-.52,0-.19,.1-.29,.28-.3,.19-.01,.38-.01,.56,0,.16,.01,.26,.11,.27,.27,0,.36,.01,.73,0,1.09Zm-.53-.99c-.18-.01-.25,.04-.22,.22,.01,.07,0,.15,0,.22,0,.11,0,.23,0,.34-.01,.17,.1,.12,.18,.12,.08,0,.2,.04,.19-.12-.01-.21-.01-.42,0-.62,0-.13-.04-.15-.16-.16Z"/>
</svg>