<?xml version="1.0" encoding="UTF-8"?>
<svg id="Layer_1" data-name="Layer 1" xmlns="http://www.w3.org/2000/svg" viewBox="0 0 14 14">
  <defs>
    <style>
      .cls-1 {
        fill: #393939;
      }

      .cls-2 {
        fill: none;
      }
    </style>
  </defs>
  <rect class="cls-2" width="14" height="14"/>
  <path class="cls-1" d="M11.32,1.16c-.27,0-.52,0-.78,0-.22,0-.33-.09-.33-.26,0-.17,.1-.25,.33-.25,.44,0,.89,0,1.33,0,.26,0,.35,.08,.35,.34,0,.42,0,.85,0,1.27,0,.22-.11,.34-.26,.33-.15,0-.23-.13-.24-.33,0-.23,0-.47,0-.7-.02-.01-.04-.03-.06-.04-.04,.06-.07,.13-.12,.18-.78,.79-1.57,1.57-2.35,2.35-.21,.21-.31,.21-.53,0-.24-.24-.48-.47-.71-.72-.1-.1-.15-.1-.24,0-1.34,1.34-2.68,2.68-4.02,4.02-.06,.06-.11,.11-.18,.16-.11,.08-.21,.06-.3-.02-.09-.09-.11-.2-.04-.31,.03-.05,.08-.09,.12-.13,1.43-1.43,2.86-2.86,4.29-4.29,.21-.21,.3-.21,.51,0,.25,.25,.51,.5,.76,.76,.05,.05,.08,.09,.16,.02,.77-.78,1.54-1.55,2.32-2.33,0,0,0-.01,0-.04ZM2.29,8.18c.01,.14,.1,.23,.24,.24,.14,.01,.25-.11,.25-.25,0-.15-.09-.23-.25-.24-.12,0-.24,.12-.23,.25Zm10.71,4.92c0,.14-.08,.22-.22,.23-.06,0-.12,0-.18,0-1.87,0-3.74,0-5.61,0-1.88,0-3.77,0-5.65,0-.14,0-.27,0-.32-.16-.06-.16,.04-.31,.22-.32,.14-.01,.28-.01,.42,0,.13,0,.17-.03,.17-.17,0-.65,0-1.31,0-1.96,0-.51,.27-.78,.78-.78,.33,0,.66,0,.99,0,.52,0,.78,.26,.78,.78,0,.64,0,1.28,0,1.92,0,.16,.04,.22,.21,.21,.33-.01,.66-.01,.99,0,.16,0,.18-.05,.18-.19,0-1.32,0-2.64,0-3.96,0-.58,.25-.83,.83-.83,.32,0,.65,0,.97,0,.5,0,.75,.26,.76,.76,0,.61,0,1.23,0,1.84,0,.73,0,1.45,0,2.18,0,.17,.05,.21,.21,.2,.33-.01,.66-.01,.99,0,.14,0,.18-.03,.18-.17,0-.45,0-.9,0-1.35,0-2.08,0-4.16,0-6.24,0-.26,.05-.48,.26-.65,.13-.1,.28-.14,.44-.14,.38,0,.75,0,1.13,0,.42,0,.66,.22,.71,.64,0,.08,.01,.16,.01,.24,0,2.48,0,4.95,0,7.43q0,.25,.26,.25c.1,0,.2,0,.3,0,.15,.01,.22,.1,.22,.25Zm-9.12-.4c0-.67,0-1.34,0-2.02,0-.17-.06-.24-.23-.24-.36,0-.73,0-1.09,0-.17,0-.23,.08-.23,.24,0,.33,0,.66,0,.99,0,.34,0,.69,0,1.03,0,.11,.03,.15,.14,.15,.42,0,.84,0,1.27,0,.11,0,.14-.04,.14-.15Zm3.93-.02c0-.67,0-1.33,0-2,0-.69,0-1.37,0-2.06,0-.19-.08-.26-.26-.26-.34,0-.69,0-1.03,0-.18,0-.26,.06-.26,.25,0,1.36,0,2.72,0,4.08,0,.14,.05,.16,.17,.16,.4,0,.81,0,1.21,0,.14,0,.18-.03,.18-.17Zm3.92,0c0-2.54,0-5.08,0-7.62,0-.21-.05-.26-.27-.26-.32,0-.65,0-.97,0-.28,0-.31,.03-.31,.31,0,1.25,0,2.51,0,3.76,0,1.27,0,2.55,0,3.82,0,.14,.04,.18,.17,.18,.4,0,.81,0,1.21,0,.14,0,.17-.04,.17-.18Z"/>
</svg>