<?xml version="1.0" encoding="UTF-8"?>
<svg id="Layer_1" data-name="Layer 1" xmlns="http://www.w3.org/2000/svg" viewBox="0 0 14 14">
  <defs>
    <style>
      .cls-1 {
        fill: #393939;
      }

      .cls-2 {
        fill: none;
      }
    </style>
  </defs>
  <rect class="cls-2" width="14" height="14"/>
  <path class="cls-1" d="M9.34,4.4s-.05,.06-.07,.09c-.11,.15-.23,.29-.34,.45-.09,.12-.2,.21-.34,.1-.15-.11-.1-.24,0-.37,.14-.17,.26-.36,.4-.53,.08-.09,.08-.16,0-.26-.15-.18-.28-.37-.42-.55-.09-.12-.14-.25,0-.35,.14-.11,.25-.03,.34,.09,.11,.15,.23,.29,.33,.45,.07,.1,.12,.12,.19,0,.1-.15,.22-.3,.33-.45,.09-.12,.2-.21,.34-.1,.15,.11,.1,.24,0,.37-.14,.18-.26,.36-.4,.53-.08,.09-.08,.16,0,.26,.15,.18,.28,.37,.42,.55,.09,.12,.14,.25,0,.35-.14,.11-.25,.03-.34-.09-.11-.16-.23-.31-.35-.46-.02-.03-.04-.08-.1-.08Zm.99,3.91c.16,0,.32-.02,.32-.22,0-.19-.15-.21-.31-.21-1.15,0-2.31,0-3.46,0-.16,0-.3,.02-.31,.21,0,.21,.15,.22,.32,.22,.57,0,1.15,0,1.72,0s1.15,0,1.72,0Zm.02,1.29c.16,0,.3-.03,.3-.22,0-.18-.13-.21-.29-.21-1.17,0-2.34,0-3.51,0-.15,0-.28,.04-.29,.21,0,.19,.14,.22,.3,.22,.57,0,1.15,0,1.72,0s1.18,0,1.76,0ZM5.71,4.82c0,.15,.05,.26,.21,.27,.17,0,.22-.12,.22-.27,0-.35,0-.7,0-1.05q0-.38,.38-.39s.03,0,.04,0c.13-.01,.22-.08,.22-.22,0-.13-.08-.21-.22-.21-.43,0-.86,0-1.29,0-.13,0-.21,.09-.21,.22,0,.12,.08,.2,.2,.21,.1,0,.2,.01,.3,0,.12-.01,.15,.03,.14,.14,0,.21,0,.43,0,.64,0,.22,0,.44,0,.67Zm3.01,2.21c.16,0,.27-.05,.27-.22,0-.17-.12-.21-.26-.21-.69,0-1.39,0-2.08,0-.15,0-.28,.04-.28,.21,0,.17,.12,.22,.28,.22,.34,0,.69,0,1.03,0,.35,0,.7,0,1.05,0Zm4.73,5.31c-.1,.65-.64,1.14-1.28,1.14-2.66,0-5.32,0-7.98,0-.7,0-1.26-.57-1.27-1.27,0-.27,0-.54,0-.82,0-.16,.05-.28,.22-.27,.16,0,.21,.12,.21,.27,0,.27,0,.53,0,.8,0,.38,.19,.65,.54,.8,.31,.14,.69,.06,.93-.19,.25-.27,.34-.59,.18-.93-.25-.54,.17-.98,.66-.97,2.02,.02,4.04,0,6.07,.01,.18,0,.24-.02,.24-.22,0-2.9,0-5.79,0-8.69,0-.65-.34-.99-.99-.99-2.57,0-5.13,0-7.7,0h-.23c.28,.34,.33,.69,.33,1.08-.01,.87,0,1.75,0,2.62,0,.05,0,.1,0,.15,0,.14-.07,.24-.22,.23-.15,0-.21-.1-.21-.24,0-.51,0-1.02,0-1.53,0-.13-.03-.16-.17-.17-.32,0-.64,.04-.96-.03-.65-.14-1.09-.73-1.02-1.38,.06-.65,.61-1.16,1.26-1.17,1.23,0,2.47,0,3.7,0,1.76,0,3.51,0,5.27,0,.84,0,1.38,.54,1.38,1.38,0,2.92,0,5.84,0,8.75,0,.14,.01,.21,.18,.26,.6,.18,.98,.79,.89,1.37ZM2.91,2.23c0-.13,0-.26,0-.39-.02-.48-.41-.85-.88-.84-.45,.01-.83,.38-.84,.84-.01,.47,.36,.86,.84,.88,.13,0,.26,0,.39,0q.5,0,.5-.49ZM13.02,12.18c0-.48-.38-.85-.89-.85-2.16,0-4.31,0-6.47,0-.29,0-.36,.11-.26,.37,.02,.06,.04,.12,.06,.18,.11,.42,0,.8-.27,1.15,.04,0,.06,.02,.07,.02,2.29,0,4.59,0,6.88,0,.49,0,.89-.4,.88-.86Zm-6.88-4.07c0,1.53-1.27,2.79-2.81,2.78-1.54,0-2.79-1.26-2.79-2.8,0-1.55,1.26-2.8,2.82-2.79,1.53,0,2.78,1.26,2.78,2.81Zm-.43,0c0-1.29-1.05-2.37-2.34-2.38-1.31,0-2.39,1.05-2.39,2.35,0,1.3,1.05,2.37,2.34,2.38,1.31,0,2.38-1.05,2.39-2.35Zm2.44-3.04c-.14,.05-.26-.01-.28-.15-.05-.28-.23-.3-.46-.26-.22-.06-.37,.01-.42,.26-.03,.13-.15,.2-.28,.14-.13-.05-.16-.16-.11-.3,.21-.56,.41-1.12,.62-1.68,.03-.09,.1-.15,.2-.16,.12,0,.19,.06,.22,.16,.21,.56,.41,1.12,.62,1.68,.05,.14,.02,.25-.12,.3Zm-.55-.86c-.06-.14-.11-.27-.17-.44-.07,.17-.11,.3-.17,.44h.34Zm-3.88,2.47c-.11-.05-.19-.1-.17-.24,.02-.15-.04-.28-.22-.27-.18,0-.22,.13-.21,.29,.01,.11-.03,.17-.14,.22-.37,.17-.57,.55-.5,.92,.08,.41,.39,.69,.82,.72,.29,.02,.46,.19,.46,.43,0,.22-.18,.41-.4,.43-.23,.02-.41-.14-.46-.41-.02-.15-.09-.25-.25-.22-.16,.02-.2,.15-.18,.29,.04,.32,.2,.57,.5,.69,.12,.05,.15,.12,.14,.24-.01,.16,.04,.28,.22,.28,.16,0,.22-.12,.21-.26-.02-.13,.03-.2,.15-.25,.31-.14,.48-.4,.49-.74,.02-.48-.33-.85-.83-.89-.32-.02-.52-.27-.45-.54,.06-.2,.23-.33,.43-.32,.22,0,.37,.15,.41,.41,.02,.14,.08,.23,.23,.23,.15,0,.21-.11,.2-.31,0-.23-.19-.53-.48-.67Z"/>
</svg>