<?xml version="1.0" encoding="UTF-8"?>
<svg id="Layer_1" data-name="Layer 1" xmlns="http://www.w3.org/2000/svg" viewBox="0 0 800 800">
  <defs>
    <style>
      .cls-1 {
        fill: none;
      }

      .cls-2 {
        fill: #010101;
      }
    </style>
  </defs>
  <rect class="cls-1" width="800" height="800"/>
  <path class="cls-2" d="M449.27,208.28c-.01-7.98-4.02-12.09-12.07-12.11-9.81-.02-19.61-.03-29.42-.02-3.65,0-6.52,.09-8.76-4.37-13.22-26.31-13.4-26.22,7.09-46.8,2.02-2.03,4.1-3.98,6.04-6.08,2.47-2.69,5.26-5.25,5.16-9.38,.18-4.06-2.2-6.9-4.8-9.52-15.84-15.93-31.69-31.84-47.61-47.7-6.01-5.99-12.24-5.9-18.24,.04-6.68,6.6-13.46,13.11-19.76,20.06-3.94,4.34-7.27,3.51-12.65,2.34-22.08-4.81-29.07-18.2-25.02-39.18,.23-1.18,.05-2.45,.02-3.67-.31-13.09-3.61-16.5-16.97-16.62-18.8-.17-37.59-.07-56.39-.03-17.73,.03-21.48,2.23-19.27,19.58,2.81,22.06-3.7,35.52-26.18,39.75-.39,.07-.75,.33-1.09,.54-4.12,2.56-7.24,1.66-10.56-1.96-6.35-6.91-13.28-13.28-19.83-20.02-6.2-6.39-12.3-7.34-18.96-.62-15.82,15.94-31.72,31.79-47.64,47.63-6.65,6.62-5.79,12.79,.63,18.99,5.58,5.39,10.57,11.48,16.57,16.33,6.99,5.65,5.63,10.76,3.69,18.85-4.83,20.13-16.8,25.22-35.23,21.91-3.17-.57-6.53,.02-9.79-.07-8.84-.26-12.9,4.81-13,12.81-.29,22.46-.28,44.93-.01,67.39,.1,8.13,4.55,12.85,13.14,12.84,9.81-.01,19.61,.05,29.42,0,3.87-.02,6.52,.57,8.51,4.96,11.99,26.41,12.16,26.34-8.41,46.86-1.73,1.73-3.45,3.48-5.18,5.2-6.35,6.31-6.72,12.58-.16,19.09,15.66,15.52,31.36,31.02,46.79,46.77,7.02,7.16,13.26,6.55,19.89-.29,6.54-6.74,13.57-13.01,19.83-20,3.4-3.79,6.11-3.69,10.44-1.85,26.55,11.27,26.6,11.16,26.68,40.36,0,2.04,.06,4.09,0,6.13-.26,8.61,3.79,12.85,12.51,12.82,22.47-.08,44.95-.12,67.42,.02,9.51,.06,13.15-4.99,13.14-13.76,0-9.39,.03-18.79,0-28.18-.02-3.76,.29-6.51,4.7-8.61,26.15-12.46,26.06-12.63,46.66,7.9,1.74,1.73,3.53,3.41,5.2,5.2,6.56,7.04,12.98,7.26,19.89,.25,15.48-15.71,31.1-31.28,46.77-46.8,6.59-6.53,6.3-12.64-.2-18.95-6.15-5.98-11.82-12.5-18.33-18.05-5.64-4.81-4.51-8.89-2.99-15.61,4.86-21.48,17.87-27.25,37.73-23.51,2.76,.52,5.71,.14,8.57,.02,7.8-.33,12.08-4.16,12.07-12.25-.02-22.87,0-45.75-.02-68.62Zm-21.63,18.73c-.56,5.25-.11,10.61-.11,15.91,0,24.55-.02,25.16-24.75,24.32-12.94-.44-20.72,2.54-23.38,16.6-2.02,10.7-7.07,20.79-12.98,30.15-4.59,7.26-3.85,13.21,2.46,19.58,7.3,7.37,20.61,13.71,19.6,23.05-.86,8.01-12.83,14.83-19.9,22.16-1.98,2.05-4.31,3.84-6.01,6.1-4.56,6.03-8.88,6.47-13.29-.02-14.15-20.8-28.91-21.24-53.02-11.45-24.14,9.8-32.84,21.06-28.73,44.89,1.35,7.83-2.24,9.74-9.54,9.35-10.59-.57-21.24-.4-31.85-.05-5.91,.19-9.88-1.03-8.53-7.88,5.13-26.21-5.42-38.98-31.52-46.51-28.32-8.17-27.83-11.27-48.45,10.14-6.73,6.98-11.11,7.74-16.96-.09-2.66-3.56-6.23-6.46-9.4-9.63-17.73-17.74-18.17-18.21,.62-35.67,9.78-9.09,11.89-17.08,4.15-28.46-5.94-8.73-9.5-19.02-11.77-29.35-2.2-10.01-7.83-13.37-17.45-12.73-6.91,.46-13.91-.26-20.82,.19-6.51,.43-9.71-1.04-9.29-8.55,.62-10.99,.47-22.05,.04-33.06-.24-6.31,1.68-8.86,8.25-8.45,7.73,.47,15.52-.02,23.28,.14,8.44,.18,13.65-2.92,15.8-11.8,2.98-12.29,7.83-24.02,14.45-34.87,4.56-7.47,3.23-13.4-2.63-19.7-7.05-7.57-20.7-13.49-19.42-23.06,1.09-8.09,12.93-14.79,20.11-22q12.52-12.58,25.1-.02c1.44,1.44,2.84,2.93,4.29,4.37q13.75,13.74,31.1,4.71c9.07-4.75,18.51-8.68,28.44-10.95,8.77-2,11.96-7.11,12.15-15.62,.22-10.14-4.43-23.45,1.82-29.59,6.76-6.64,20.19-1.88,30.69-2.1,17.36-.36,17.36-.1,17.36,17.34,0,4.08,.35,8.2-.07,12.24-1.07,10.31,3.17,15.85,13.48,18.1,11.58,2.52,22.49,7.35,32.58,13.63,7.87,4.9,14.51,4.28,20.53-2.78,.53-.62,1.13-1.18,1.75-1.71,7.02-6.03,12.4-18.44,20.41-17.47,7.45,.9,13.82,11.54,20.45,18.11q14.9,14.76-.11,29.75-15.51,15.47-5.8,34.78c4.25,8.39,7.85,17.06,9.89,26.2,2.06,9.26,7.47,12.87,16.6,12.47,6.93-.31,13.93,.45,20.82-.2,7.61-.72,10.39,1.92,9.59,9.51Zm337.27,297.92c-.05-9.39-4.81-14.3-14.47-14.2-9.4,.1-18.79,0-28.19,.02-3.79,0-6.52-.43-8.55-4.86-12.02-26.25-12.19-26.17,8.55-46.86,1.73-1.73,3.45-3.47,5.19-5.2,6.44-6.38,6.45-12.68-.02-19.1-15.64-15.55-31.35-31.04-46.77-46.8-7.03-7.19-13.19-6.57-19.81,.34-6.49,6.78-13.38,13.18-19.87,19.96-2.79,2.91-4.89,4.07-9.37,2.38-27.62-10.45-27.69-10.27-27.73-39.68,0-1.23,.01-2.45,0-3.68-.18-14.4-2.14-16.48-16.22-16.54-18.79-.08-37.59-.03-56.39-.02-18.68,0-22.04,1.9-20.05,19.97,2.33,21.21-3.28,34.89-25.52,38.87-.39,.07-.8,.25-1.12,.48-4.11,2.91-7.23,1.81-10.55-1.75-6.69-7.16-13.81-13.91-20.7-20.88-5.97-6.04-11.81-6.4-17.98-.18-15.82,15.94-31.67,31.86-47.67,47.62-6.62,6.53-6.45,12.57,.05,18.92,5.85,5.71,11.19,11.99,17.44,17.2,6.37,5.31,5.25,9.77,3.54,17.55-4.69,21.33-17.74,25.17-36.19,22.33-2.79-.43-5.71-.08-8.57-.03-9.01,.13-13.33,4.54-13.26,13.73,.17,22.05,.18,44.11,0,66.16-.08,9.42,4.45,13.3,13.53,13.14,9.39-.17,18.8,.2,28.19-.12,4.73-.16,7.16,1.32,9.09,5.86,11.31,26.65,11.44,26.6-9.3,47.38-1.73,1.73-3.46,3.46-5.18,5.21-6.08,6.19-5.52,12.05,.53,18.03,15.96,15.8,31.78,31.75,47.66,47.63,6.07,6.07,12.18,5.88,18.17-.05,6.67-6.6,13.5-13.08,19.81-20.02,3.98-4.38,7.33-3.64,12.74-2.27,20.5,5.19,29.88,16.6,24.97,38.06-.62,2.71-.15,5.7-.04,8.56,.29,7.8,4.5,12.45,12.17,12.54,22.88,.29,45.76,.28,68.64,.02,8.31-.09,12.51-4.74,12.26-13.38-.25-8.57,.3-17.17-.14-25.72-.37-7.01,2.67-9.45,8.75-13.35,19.51-12.53,32.66-5.72,44.45,10.57,1.18,1.63,2.89,2.88,4.29,4.36,6.19,6.57,12.38,7.02,18.95,.39,15.81-15.94,31.73-31.78,47.61-47.65,6.08-6.08,5.91-12.13-.06-18.12-6.63-6.65-13.38-13.2-19.94-19.91-2.17-2.21-5.5-4.16-3.86-8.17,3.83-9.4,6.23-19.92,12.16-27.76,4.3-5.68,13.89-1.05,20.03-2.14,5.49,0,10-.21,14.48,.04,9.95,.55,14.28-4.53,14.3-13.94,.06-21.65,.1-43.29-.02-64.94Zm-23.41,55.03c-5.38,7.64-20.58,1.88-31.44,2.54-7.51,.46-11.9,3.38-13.83,11.06-3.09,12.27-7.68,24.09-14.34,34.92-4.82,7.83-4.4,14.52,2.76,20.54,.94,.79,1.8,1.67,2.66,2.53q19.33,19.38-.52,39.2-15.77,15.75-31.16,.3c-15.05-15.1-14.92-14.84-34.02-5.68-8.78,4.21-17.96,7.95-27.35,10.42-8.27,2.17-11.58,6.77-11.69,14.67-.04,3.27-.03,6.53-.03,9.8q0,22.61-23.21,22.61c-26.76,0-27.38-.02-26.53-26.28,.42-12.84-3.52-19.82-16.5-22.29-10.42-1.98-20.15-6.67-29.14-12.33-8.29-5.22-14.74-4.13-21.67,2.82-7.04,7.06-13.13,19.89-22.13,18.91-7.67-.84-14.21-12.38-21.16-19.27q-13.59-13.49,0-27.08c2.89-2.89,5.58-6,8.68-8.64,6.73-5.73,7.52-12.08,2.93-19.48-6.93-11.16-11.73-23.25-14.89-35.98-1.86-7.49-6.49-10.97-14.12-10.65-1.22,.05-2.46,.08-3.68-.01-9.25-.75-21.87,4.19-26.87-2.2-4.64-5.94-1.66-17.97-1.71-27.33-.12-20.65-.04-20.69,20.27-20.64,24.99,.06,22.28,1.27,29.42-21.31,2.83-8.97,6.8-17.45,11.72-25.48,4.2-6.85,3.8-12.91-2.42-18.56-5.13-4.66-9.33-10.44-14.8-14.6-8.32-6.33-7.03-11.43,.51-16.82,.65-.47,1.14-1.17,1.72-1.74,8.18-7.95,15.54-20.91,24.77-22.42,8.85-1.44,15.89,13.15,23.81,20.58,5.8,5.44,11.23,5.86,17.63,2.08,11.65-6.89,24.05-11.97,37.17-15.34,6.77-1.74,10.52-5.91,10.2-13.18-.02-.41-.03-.82,0-1.22,.9-10.41-4.38-27.44,2.26-29.92,12.92-4.84,28.82-1.83,43.48-1.85,4.95,0,4.67,4.27,4.1,7.2-5.23,26.76,6.14,39.53,32.16,47.31,27.75,8.29,27.34,11.28,47.57-10.03,7.11-7.48,11.28-7.76,17.76,.15,6.18,7.55,13.72,13.98,20.62,20.94,1.68,1.7,3.2,3.57,4.53,5.08-.61,4.25-3.64,5.95-5.84,8.21q-21.7,22.38-9.64,50.64c.64,1.5,1.48,2.91,2.06,4.43,9.81,25.82,9.82,26.43,37,25.55,11.51-.37,16.21,2.12,14.81,14.45-1.28,11.29,3.52,25.69-1.91,33.41Zm-84.69-343.94c-6.96,.89-9.84-1.07-13.44-6.18-38.63-54.87-90.07-92.51-153.92-113.12-7.05-2.27-15.27-4.67-18.21,5.5-2.75,9.51,4.01,12.5,11.77,14.99,56.53,18.11,102.54,51.05,138.37,98.37,5.57,7.36,8.75,12.53,1.29,21.87-12.31,15.4-10.64,38.05,1.09,53.62,12.33,16.37,34.43,23.08,53.73,16.32,18.44-6.46,31.25-24.4,31.39-43.97,.21-27.93-24.46-50.93-52.07-47.41Zm5.08,72.32c-13.85,.26-26.01-11.31-26.3-25.01-.29-13.65,11.4-25.56,25.34-25.82,14.15-.26,25.85,10.84,26.16,24.83,.31,13.77-11.3,25.74-25.2,26Zm-339.69,356.16c-2.26-.92-4.69-1.4-7.01-2.17-56.24-18.7-102-51.85-137.67-99.19-5.36-7.12-6.45-11.93-.42-19.86,12.34-16.21,11.09-38.59-1.1-54.64-12.15-16-33.59-22.63-52.64-16.28-18.86,6.29-32.11,24.67-32.17,44.63-.09,26.98,22.84,49.18,49.94,46.96,8.05-.66,11.95,1.18,16.52,7.66,30.74,43.56,70.55,76.49,119.08,98.66,12.93,5.91,25.99,11.8,40.14,14.32,5.74,1.02,10.78-.55,12.04-7.25,1.11-5.88-.91-10.48-6.71-12.84Zm-183.58-122.09c-13.98,.02-25.18-10.57-25.66-24.25-.49-13.97,10.97-25.98,25.07-26.26,14.18-.28,26.14,11.05,26.43,25.04,.28,13.88-11.46,25.45-25.84,25.47ZM244.28,149.58c-51.88-.52-94.37,40.78-94.7,92.04-.33,51.57,41.55,93.99,92.88,94.07,50.33,.08,92.9-42.29,93.28-92.84,.37-49.56-42.02-92.78-91.46-93.27Zm-1.85,164.29c-39.05,.15-70.67-31.18-71.07-70.41-.4-39.98,30.72-71.77,70.54-72.06,39.62-.29,71.93,31.51,72.03,70.89,.1,39.34-31.95,71.42-71.5,71.57Zm315.95,150.44c-50.65-.57-94.18,42.62-94.09,93.34,.09,50.62,42.32,92.65,93.11,92.68,51.17,.03,92.86-41.32,93.05-92.29,.19-50.78-41.45-93.16-92.07-93.73Zm-2.78,164.28c-39.22-1.06-70.22-33.19-69.52-72.06,.71-39.36,33.76-71.41,72.69-70.5,39.7,.94,70.65,33.31,69.8,73.02-.86,39.98-33.01,70.62-72.98,69.53Z"/>
</svg>