<svg id="Layer_1" data-name="Layer 1" xmlns="http://www.w3.org/2000/svg" viewBox="0 0 35 35"><defs><style>.cls-1{fill:none;}.cls-2,.cls-3{fill:#573285;}.cls-3{opacity:0.4;}</style></defs><title>Dozens of Features</title><rect class="cls-1" width="35" height="35"/><path class="cls-2" d="M17.55,17.48A3.93,3.93,0,0,1,16,17.1L3.14,11.18a1.55,1.55,0,0,1-1-1.42,1.46,1.46,0,0,1,1-1.4L16,2.43a3.52,3.52,0,0,1,3.1,0L31.89,8.36a1.46,1.46,0,0,1,1,1.34,1.55,1.55,0,0,1-1,1.48L19,17.12A4,4,0,0,1,17.55,17.48ZM19,32.58l12.92-6a1.51,1.51,0,0,0,1-1.45,1.39,1.39,0,0,0-1-1.31c-.84-.38-1.69-.75-2.52-1.15a1,1,0,0,0-1,0c-2.78,1.29-5.58,2.56-8.36,3.86a5.73,5.73,0,0,1-5.09,0C12.18,25.25,9.39,24,6.6,22.69a1,1,0,0,0-1,0c-.81.4-1.64.76-2.46,1.12a1.47,1.47,0,0,0-1.07,1.38,1.57,1.57,0,0,0,1.06,1.47L16,32.54a4.12,4.12,0,0,0,1.57.38A4,4,0,0,0,19,32.58Z"/><path class="cls-3" d="M17.49,25.16a3.45,3.45,0,0,1-1.81-.47C11.53,22.78,7.39,20.85,3.24,19a1.61,1.61,0,0,1-1.11-1.49c0-.79.48-1.14,1.1-1.42.85-.37,1.69-.74,2.52-1.14A.94.94,0,0,1,6.6,15c2.77,1.28,5.55,2.52,8.29,3.83a5.68,5.68,0,0,0,5.08.09c2.82-1.31,5.65-2.6,8.46-3.92a1.06,1.06,0,0,1,1,0c.78.39,1.6.72,2.4,1.09a1.48,1.48,0,0,1,1.07,1.38,1.59,1.59,0,0,1-1.05,1.48L19,24.87A3,3,0,0,1,17.49,25.16Z"/></svg>