<svg id="Layer_1" data-name="Layer 1" xmlns="http://www.w3.org/2000/svg" viewBox="0 0 35 35"><defs><style>.cls-1{fill:none;}.cls-2,.cls-3{fill:#573285;}.cls-3{opacity:0.4;}</style></defs><title>Elegent Design</title><rect class="cls-1" width="35" height="35"/><path class="cls-2" d="M2.62,30.9c0-.12.06-.34.12-.56l1.62-5.63a3.74,3.74,0,0,1,1-1.69q7.16-7.15,14.31-14.33c.32-.32.5-.35.83,0q2.88,2.93,5.82,5.82c.33.32.33.49,0,.82Q19.12,22.49,12,29.68a3.54,3.54,0,0,1-1.52.94l-6,1.73A1.39,1.39,0,0,1,2.62,30.9ZM31.32,5c-.45-.46-.9-.92-1.37-1.37a3.73,3.73,0,0,0-5.18,0c-1,1-2,2-3.05,3-.22.22-.27.35,0,.6,2,2,4,4,6,6,.22.22.35.28.6,0,1-1.05,2.06-2.06,3.07-3.1a3.48,3.48,0,0,0,1-2.49A3.59,3.59,0,0,0,31.32,5Z"/><path class="cls-3" d="M10.39,2.67a3,3,0,0,1,1.68.86c1.09,1.07,1.09,1.07,0,2.13-.87.86-1.74,1.72-2.6,2.6C9,8.82,9,9.33,9.44,9.76s.86.36,1.38-.12S12,8.5,12.54,7.93s1.1-1.08,1.63-1.64c.23-.24.4-.28.65,0,.63.66,1.28,1.3,1.94,1.93.26.25.23.41,0,.66q-3.93,3.9-7.84,7.84c-.24.24-.39.26-.64,0-1.59-1.62-3.21-3.2-4.79-4.82A2.73,2.73,0,0,1,3.51,8C5,6.49,6.51,5,8,3.49A3,3,0,0,1,10.39,2.67Zm21.9,21.82a3.18,3.18,0,0,0-1-1.7c-.92-.93-.92-.93-1.82,0s-1.75,1.77-2.64,2.64c-.61.59-1.15.65-1.57.21s-.4-.94.21-1.55c1.06-1.06,2.11-2.13,3.18-3.17.29-.28.32-.46,0-.75-.64-.59-1.25-1.22-1.85-1.85-.25-.26-.42-.31-.7,0q-3.91,3.93-7.84,7.84c-.26.26-.24.4,0,.64,1.61,1.59,3.19,3.21,4.81,4.79a2.63,2.63,0,0,0,3.75,0c1.6-1.57,3.17-3.17,4.76-4.75A2.78,2.78,0,0,0,32.36,25C32.34,24.82,32.31,24.65,32.29,24.49Z"/></svg>