<svg id="Layer_1" data-name="Layer 1" xmlns="http://www.w3.org/2000/svg" width="234" height="60" viewBox="0 0 1353.48 73.48" ><defs><style>.cls-1{fill:#326169;stroke:#020202;stroke-miterlimit:10;stroke-width:0.48px;}.cls-2{fill:#fff;}</style></defs><title>header</title><rect class="cls-1" x="0.24" y="0.24" width="1353" height="73"/><path class="cls-2" d="M125,34c-3.17,0-5.74,2.24-5.74,5s2.57,5,5.74,5,5.74-2.24,5.74-5-2.58-5-5.74-5m20.1-10h-7.19l-1.42-3.07A3,3,0,0,0,133.62,19H116.39a3,3,0,0,0-2.88,1.93L112.09,24H104.9A2.71,2.71,0,0,0,102,26.5v25A2.71,2.71,0,0,0,104.9,54h40.2A2.71,2.71,0,0,0,148,51.5v-25A2.71,2.71,0,0,0,145.1,24M125,49c-6.34,0-11.49-4.48-11.49-10S118.66,29,125,29s11.49,4.48,11.49,10S131.35,49,125,49" transform="translate(0.24 0.24)"/><rect class="cls-2" x="284.15" y="31.43" width="99.09" height="10.62"/><rect class="cls-2" x="427.15" y="31.43" width="99.09" height="10.62"/><rect class="cls-2" x="565.15" y="31.43" width="99.09" height="10.62"/><rect class="cls-2" x="705.15" y="31.43" width="99.09" height="10.62"/><rect class="cls-2" x="1198.15" y="31.43" width="99.09" height="10.62"/><rect class="cls-2" x="941.15" y="33.93" width="34.09" height="10.62"/><rect class="cls-2" x="1027.15" y="33.93" width="34.09" height="10.62"/><rect class="cls-2" x="1107.15" y="33.93" width="34.09" height="10.62"/></svg>