<?xml version="1.0" encoding="UTF-8"?>
<svg id="Layer_1" data-name="Layer 1" xmlns="http://www.w3.org/2000/svg" viewBox="0 0 14 14">
  <defs>
    <style>
      .cls-1 {
        fill: #393939;
      }

      .cls-2 {
        fill: none;
      }
    </style>
  </defs>
  <rect class="cls-2" width="14" height="14"/>
  <path class="cls-1" d="M8.72,8.51c0-.57-.25-1-.73-1.3-.13-.08-.13-.11-.03-.22,.33-.38,.43-.82,.25-1.29-.2-.53-.59-.81-1.15-.85-.51-.03-1,.26-1.21,.73-.23,.51-.16,.99,.2,1.41,.09,.1,.11,.14-.03,.22-.48,.29-.73,.73-.73,1.3,0,.46,0,.92,0,1.37,0,.28,.05,.33,.34,.33,.46,0,.92,0,1.37,0,.47,0,.94,0,1.42,0,.24,0,.3-.06,.3-.31,0-.46,0-.93,0-1.39Zm-1.07-2.92c-.44-.13-.85-.13-1.27,0,.31-.4,.89-.41,1.27,0Zm-1.37,.52c.2-.12,.49-.19,.74-.19,.26,0,.51,.07,.74,.2,.09,.05,.11,.1,.09,.2-.09,.38-.43,.67-.84,.66-.39,0-.73-.28-.82-.65-.03-.12,0-.17,.1-.22Zm.74,2.49c-.28-.24-.15-.5-.01-.78,.16,.27,.25,.53,.01,.78Zm1.28,1.05c0,.11-.04,.13-.14,.13-.77,0-1.54,0-2.32,0-.06,0-.13,.01-.13-.09,.02-.48-.05-.97,.04-1.45,.09-.43,.46-.74,.91-.78-.1,.24-.18,.45-.27,.67-.04,.1-.05,.2,0,.31,.13,.25,.26,.51,.38,.76,.04,.09,.1,.16,.21,.16,.12,0,.18-.07,.23-.17,.12-.25,.25-.5,.38-.74,.06-.11,.05-.22,0-.33-.09-.21-.17-.43-.26-.65,.5,.02,.93,.45,.95,.97,.02,.41,0,.81,0,1.22Zm-2.44,2.01c-.22-.72-.74-1.26-1.18-1.85-.16-.22-.53-.21-.75-.06-.23,.16-.33,.45-.24,.72,.02,.06,.05,.13,.09,.22-.15-.05-.3-.04-.37-.19-.23-.5-.53-.96-.63-1.51-.06-.34-.29-.51-.58-.49-.28,.01-.46,.2-.52,.53,0,.03,0,.05-.02,.11-.06-.05-.09-.07-.13-.1-.26-.17-.57-.15-.79,.06-.22,.21-.27,.53-.09,.78,.66,.92,1.21,1.93,2.16,2.61,.17,.12,.33,.27,.5,.41,.12,.1,.22,.21,.28,.35,.05,.12,.27,.22,.39,.15,.12-.07,.05-.19,.02-.28-.02-.07-.05-.13-.09-.19-.14-.23-.35-.39-.56-.56-.39-.33-.83-.63-1.14-1.03-.4-.51-.75-1.06-1.13-1.59-.08-.11-.16-.23-.02-.34,.14-.11,.23-.01,.32,.09,.29,.34,.58,.67,.87,1.01,.11,.13,.24,.22,.4,.27,.44,.14,.88,.3,1.32,.44,.18,.05,.25,.15,.23,.33-.01,.12,.01,.18,.16,.18,.29,0,.29,0,.27-.29,0-.12-.05-.24-.11-.34-.12-.21-.24-.42-.37-.63-.07-.12-.14-.24,0-.34,.14-.09,.24,.01,.31,.13,.23,.33,.47,.67,.7,1,.14,.2,.23,.42,.28,.66,.09,.43,.07,.85,.03,1.28-.02,.2,.05,.27,.24,.24,.07-.01,.18,.07,.19-.09,.03-.56,.09-1.13-.08-1.68Zm-3.62-1.99c-.03-.2-.07-.39-.1-.59-.01-.07,.01-.13,.09-.15,.07-.02,.11,.03,.13,.09,.03,.09,.05,.19,.07,.29,.07,.38,.28,.69,.41,1.06-.27-.17-.53-.35-.59-.7Zm10.99-.6c-.25-.21-.57-.2-.85,.05-.14-.03-.02-.16-.08-.22-.1-.27-.28-.41-.54-.41-.25,0-.44,.14-.5,.42-.11,.54-.38,1.01-.61,1.5-.09,.18-.21,.24-.42,.27,.04-.08,.07-.13,.09-.19,.1-.27,0-.58-.23-.74-.23-.16-.6-.15-.77,.07-.39,.52-.83,1.01-1.09,1.61-.27,.62-.19,1.28-.15,1.93,0,.05,.03,.07,.08,.07,.28,.05,.35,0,.34-.29,0-.11-.01-.21-.02-.32-.02-.39-.02-.78,.12-1.14,.22-.58,.66-1.03,1-1.54,.06-.09,.17-.08,.25-.02,.08,.07,.09,.16,.03,.25-.13,.23-.26,.46-.4,.69-.08,.14-.13,.28-.13,.45,0,.12-.02,.23,.17,.21,.13-.02,.3,.06,.27-.19-.02-.17,.06-.26,.23-.31,.4-.12,.8-.27,1.2-.39,.24-.07,.43-.2,.59-.4,.26-.32,.53-.62,.79-.93,.09-.11,.19-.2,.32-.1,.14,.11,.06,.23-.02,.34-.33,.47-.67,.95-.99,1.42-.13,.18-.27,.35-.44,.49-.39,.32-.78,.65-1.16,.99-.19,.16-.32,.36-.36,.62-.02,.1,0,.16,.13,.15,.15-.02,.28,.02,.35-.21,.08-.27,.37-.4,.58-.58,.37-.32,.78-.59,1.08-.98,.42-.55,.81-1.13,1.2-1.7,.21-.31,.18-.64-.08-.87Zm-1.37,.09c-.03,.2-.03,.42-.1,.61-.11,.27-.3,.48-.57,.63-.03-.1,.02-.15,.05-.21,.19-.34,.33-.69,.4-1.07,.02-.09,.03-.2,.16-.17,.12,.03,.07,.13,.06,.21ZM2.71,2.26c-1.19,0-2.16,.96-2.15,2.15,0,1.18,.96,2.14,2.14,2.15,1.19,0,2.16-.96,2.15-2.15,0-1.18-.96-2.14-2.14-2.14Zm0,3.86c-.94,0-1.72-.77-1.72-1.72,0-.94,.78-1.72,1.73-1.71,.94,0,1.71,.77,1.71,1.71,0,.95-.77,1.72-1.72,1.72ZM11.31,2.26c-1.19,0-2.16,.96-2.15,2.15,0,1.18,.96,2.14,2.14,2.15,1.19,0,2.16-.96,2.16-2.15,0-1.18-.96-2.14-2.14-2.14Zm0,3.86c-.94,0-1.72-.77-1.72-1.72,0-.94,.78-1.72,1.72-1.71,.94,0,1.71,.77,1.71,1.7,0,.95-.77,1.72-1.71,1.72ZM7.01,.55c-1.06,0-1.93,.86-1.94,1.91,0,1.08,.86,1.96,1.94,1.95,1.06,0,1.92-.87,1.93-1.92,0-1.07-.86-1.94-1.93-1.94Zm-.01,3.43c-.83,0-1.5-.68-1.49-1.51,0-.82,.69-1.49,1.51-1.49,.83,0,1.5,.68,1.49,1.51,0,.82-.69,1.5-1.51,1.49Zm.4-1.92c-.1,.02-.18,0-.23-.13-.04-.09-.15-.1-.25-.06-.08,.03-.12,.1-.12,.18,0,.1,.05,.18,.16,.2,.05,.01,.11,.02,.17,.03,.28,.06,.45,.23,.52,.51,.06,.24-.05,.51-.27,.65-.1,.06-.15,.12-.16,.24-.01,.18-.18,.07-.27,.09-.07,.02-.17,.03-.15-.1,.02-.11-.03-.17-.13-.21-.09-.04-.15-.11-.2-.19-.06-.11-.18-.27-.06-.33,.1-.05,.32-.12,.42,.09,.05,.1,.16,.12,.26,.08,.09-.04,.13-.11,.12-.2-.01-.11-.08-.18-.2-.19-.29-.02-.51-.15-.61-.42-.11-.29-.01-.59,.25-.77,.05-.03,.12-.04,.13-.12,.01-.07-.04-.17,.04-.19,.1-.03,.21,0,.32,0,.04,0,.07,.02,.06,.06-.04,.18,.09,.23,.2,.31,.08,.05,.13,.13,.17,.22,.11,.24,.09,.28-.19,.28Zm-3.56,1.91c-.31-.24-.62-.49-.92-.74-.14-.12-.27-.13-.42,0-.31,.26-.62,.5-.94,.75-.09,.07-.18,.15-.14,.29,.04,.13,.15,.17,.27,.15,.13-.01,.15,.05,.15,.16,0,.21,0,.41,0,.62,0,.23,.06,.29,.3,.29,.19,0,.37,0,.56,0,.19,0,.39,0,.58,0,.19,0,.29-.08,.29-.28,0-.21,0-.43,0-.64,0-.1,.02-.16,.14-.15,.12,.01,.23-.01,.28-.14,.05-.14-.04-.22-.14-.3Zm-.71,0h-.82c.33-.41,.39-.41,.82,0Zm-.42,1.08c-.43,0-.42,0-.43-.43,0-.18,.05-.24,.22-.21,.09,.01,.18,0,.28,0q.36,0,.36,.36t-.43,.28Zm9.88-.65c0-.09,0-.19,0-.28,0-.31-.04-.36-.36-.36q-.28,0-.28-.28s0-.06,0-.09c.01-.2-.09-.29-.29-.28-.23,0-.46,0-.69,0-.26,0-.31,.06-.32,.31q0,.32-.34,.33c-.24,0-.3,.06-.31,.3,0,.21,0,.41,0,.62,0,.33,.04,.38,.37,.36,.22-.01,.32,.04,.27,.27,0,.03,0,.06,0,.09,0,.23,.07,.29,.3,.29,.24,0,.47,0,.71,0,.19,0,.29-.08,.29-.28,0-.35,0-.35,.37-.36,.18,0,.28-.08,.28-.27,0-.13,0-.26,0-.39Zm-.44,.18s-.05,.04-.09,.04c-.05,0-.1,0-.15,0-.37,0-.41,.03-.4,.4,0,.18,0,.3-.23,.24-.17,.04-.23-.02-.21-.19,.01-.06,0-.13,0-.19,0-.17-.08-.25-.24-.26-.04,0-.09,0-.13,0-.27,0-.33-.08-.27-.35,.01-.05,.03-.07,.08-.07,.03,0,.06,0,.09,0,.47,0,.48,0,.47-.48,0-.18,.08-.18,.21-.17,.11,0,.26-.06,.23,.16,0,.05,0,.1,0,.15,0,.28,.05,.33,.34,.33,.02,0,.04,0,.06,0,.08,.02,.2-.05,.23,.04,.03,.1,.01,.23,0,.34Z"/>
</svg>