<?xml version="1.0" encoding="UTF-8"?>
<svg id="Layer_1" data-name="Layer 1" xmlns="http://www.w3.org/2000/svg" viewBox="0 0 14 14">
  <defs>
    <style>
      .cls-1 {
        fill: #393939;
      }

      .cls-2 {
        fill: none;
      }
    </style>
  </defs>
  <rect class="cls-2" width="14" height="14"/>
  <path class="cls-1" d="M13.18,10.41c-.07-.17-.18-.25-.37-.24-.63,0-1.26,0-1.89,0-.19,0-.22-.06-.22-.23,0-.63,0-1.26,0-1.89,0-.06-.03-.12,.03-.18,.13,.08,.26,.17,.39,.25,.12,.08,.24,.1,.36,.02,.12-.08,.12-.21,.09-.33-.05-.2-.09-.4-.16-.58-.05-.12,0-.17,.08-.23,.15-.12,.31-.25,.46-.37,.11-.09,.18-.18,.13-.33-.05-.15-.17-.18-.3-.19-.2-.01-.41-.02-.61-.03-.05,0-.12,.02-.14-.05-.14-.43-.41-.82-.3-1.33,.14,.09,.28,.18,.41,.26,.11,.07,.23,.09,.34,.01,.12-.08,.13-.2,.1-.33-.05-.2-.1-.41-.16-.6-.04-.1,0-.15,.06-.2,.17-.13,.34-.27,.5-.41,.09-.08,.15-.17,.1-.3-.04-.13-.14-.19-.28-.19-.22-.01-.43-.02-.65-.04-.06,0-.11,0-.14-.08-.13-.33-.27-.64-.46-.95-.32-.53-.72-.85-1.36-.84-1.01,0-2.02,0-3.02,0-1.35,0-2.71-.01-4.06,0-1,0-1.66,.95-1.32,1.86,.08,.21,.19,.31,.43,.3,.65-.02,1.31,0,1.96,0,0,.01,0,.02,0,.03-.07,.03-.14,.06-.21,.09-.53,.23-1.05,.46-1.58,.68-.15,.06-.22,.15-.22,.32,0,.55,0,1.11,0,1.66,0,.85,.34,1.54,.96,2.11,.17,.15,.45,.19,.51,.42,.05,.23,0,.47,.01,.71,0,.16-.03,.23-.2,.27-.36,.07-.56,.31-.64,.67-.04,.2,.01,.4,.02,.61,0,.49,.14,.92,.62,1.14,.36,.16,.52,.39,.46,.8-.03,.23,.05,.28,.29,.28,.77,0,1.54,0,2.31,0,.43,0,.52,.03,.49-.49,0-.14,.04-.17,.17-.17,1.2,0,2.41,.01,3.61,.01,.76,0,1.52,.05,2.27,0,.92-.08,1.47-1.06,1.11-1.91Zm-2.18-3.93c.13,0,.27,.01,.43,.04-.47,.23-.6,.57-.32,1.06-.26-.08-.39-.3-.61-.3-.22,0-.35,.22-.6,.3,.26-.48,.17-.83-.33-1.08,.56,.09,.84-.15,.94-.66,.05,.13,.11,.26,.15,.4,.05,.16,.16,.24,.33,.24Zm-.77-3.24c.16-.14,.16-.38,.3-.61,.06,.55,.33,.8,.9,.67-.16,.22-.4,.28-.47,.48-.08,.21,.1,.4,.08,.66-.37-.41-.73-.4-1.09,0-.01-.27,.16-.45,.09-.66-.07-.21-.31-.27-.44-.44,.2-.09,.45,.04,.62-.11Zm-7.08-.47c-.31,0-.62,0-.93,0-.3,0-.6,0-.89,0-.12,0-.16-.04-.19-.15-.08-.36,.01-.67,.27-.92,.3-.29,.67-.33,1.05-.21,.48,.15,.83,.66,.82,1.16,0,.1-.04,.12-.14,.12Zm-.5,5.15c-.28-.17-.49-.39-.66-.65-.25-.38-.39-.8-.39-1.25,0-.51,0-1.03,0-1.54,0-.1,.03-.15,.13-.19,.55-.23,1.1-.47,1.65-.71,.08-.03,.15-.04,.23,0,.54,.24,1.09,.47,1.63,.7,.1,.04,.14,.09,.14,.2,0,.54,0,1.08,0,1.62-.02,.85-.66,1.75-1.46,2.02,0-.18,0-.34,0-.5,0-.34-.26-.6-.59-.62-.31-.02-.59,.21-.64,.53-.02,.12-.02,.24-.03,.39Zm3.12,3.71c0,.08-.02,.18-.06,.25-.09,.16-.12,.33-.1,.51,.01,.11-.01,.17-.15,.17-.66,0-1.33,0-1.99,0-.11,0-.16-.03-.15-.15,.04-.36-.13-.6-.45-.75-.09-.04-.17-.11-.26-.15-.34-.17-.33-.5-.36-.8-.02-.12-.02-.24-.03-.36,0-.13,.03-.25,.12-.35,.08-.08,.18-.16,.28-.12,.08,.03,.03,.16,.04,.24,0,.13,0,.27,0,.41,0,.12,.06,.23,.21,.22,.15,0,.19-.11,.2-.24,0-.47,0-.95,0-1.42h0c0-.45,0-.91,0-1.36,0-.12,0-.23,.14-.29,.15-.06,.29,.04,.29,.23,0,.51,0,1.01,0,1.52,0,.07,0,.15,.05,.21,.1,.13,.28,.11,.35-.06,.05-.12,.12-.2,.25-.19,.13,.01,.18,.11,.21,.24,.04,.2,.23,.24,.36,.09,.07-.08,.13-.15,.24-.12,.11,.03,.12,.12,.13,.22,.03,.23,.18,.28,.37,.13,.07-.05,.13-.09,.22-.04,.08,.04,.09,.11,.09,.19,0,.59,0,1.19,0,1.78Zm3.2-2.45c-1.13,0-2.26,0-3.39,0-.11,0-.2,0-.29-.1-.12-.13-.29-.19-.46-.14-.14,.03-.23,.01-.34-.08-.12-.12-.29-.14-.46-.13-.04,0-.11,.06-.13-.03-.01-.06,0-.12,.07-.15,.24-.09,.46-.2,.66-.35,.03-.02,.06-.04,.08,0,.06,.15,.19,.13,.31,.13,1.31,0,2.61,0,3.92,0,.06,0,.12,0,.18,0,.08-.02,.13-.07,.14-.16,0-.09,0-.16-.09-.21-.08-.04-.16-.04-.24-.04-1.24,0-2.49,0-3.73,0h-.22c.23-.26,.41-.51,.55-.8,.04-.08,.12-.04,.18-.04,.82,0,1.64,0,2.46,0,.05,0,.11,0,.16,0,.13,0,.2-.08,.2-.21,0-.12-.08-.19-.19-.2-.12-.01-.24,0-.36,0-.7,0-1.39,0-2.09,0h-.19c.05-.23,.1-.45,.08-.67-.01-.15,.05-.18,.18-.18,.98,0,1.96,0,2.94,0,.07,0,.14,0,.2,0,.1-.01,.16-.07,.16-.17,0-.1-.03-.17-.13-.21-.07-.03-.15-.02-.22-.02-.98,0-1.96,0-2.94,0-.15,0-.22-.03-.2-.2,.02-.15,.01-.31,0-.47-.01-.15,.04-.18,.18-.18,.98,0,1.96,0,2.94,0,.07,0,.15,0,.22-.02,.1-.03,.15-.1,.15-.21,0-.11-.07-.17-.18-.18-.05,0-.11,0-.16,0-.99,0-1.97,0-2.96,0-.1,0-.18,0-.24-.1-.03-.07-.12-.08-.19-.11-.56-.24-1.11-.48-1.67-.71-.14-.06-.18-.13-.17-.27,.02-.39,0-.77-.2-1.12-.08-.15-.18-.28-.34-.43,.54,0,1.02,0,1.51,0,1.52,0,3.04,0,4.57,0,.25,0,.48,.06,.67,.24,.31,.29,.34,.48,.21,.87-.08,.26-.19,.4-.49,.36-.14-.02-.28,.01-.42,.02-.13,0-.22,.06-.26,.18-.04,.13,0,.23,.1,.31,.16,.13,.32,.27,.49,.39,.09,.06,.12,.12,.08,.24-.07,.19-.11,.39-.16,.58-.03,.12-.03,.25,.09,.33,.12,.09,.24,.06,.36-.02,.12-.08,.25-.16,.4-.26,.01,.27,.04,.51-.07,.75-.1,.2-.11,.48-.26,.59-.15,.11-.43,.05-.65,.06-.14,0-.28,.02-.35,.16-.06,.13-.03,.25,.09,.34,.17,.14,.33,.27,.51,.41,.07,.06,.1,.11,.07,.2-.07,.2-.11,.4-.16,.6-.03,.12-.03,.25,.09,.33,.12,.09,.24,.06,.36-.02,.12-.08,.25-.16,.37-.24,.06,.04,.04,.09,.04,.14,0,.66,0,1.31,0,1.97,0,.14-.04,.18-.18,.18-1.25,0-2.5,0-3.75,0-.14,0-.19-.04-.18-.18,.01-.12-.05-.32,0-.36,.1-.06,.26-.03,.39-.03,.8,0,1.6,0,2.39,0,.15,0,.3-.01,.29-.21,0-.19-.15-.2-.29-.2Zm3.06,2.72c-.42,.04-.84,0-1.26,0-1.48,0-2.96,0-4.44,0-.14,0-.18-.01-.17-.18,.03-.31,.02-.62,0-.93,0-.17,.03-.23,.22-.23,1.03,.01,2.07,0,3.1,0,1.04,0,2.08,0,3.12,0,.14,0,.2,.03,.23,.18,.12,.55-.25,1.1-.81,1.16ZM6.6,3.34c-.51,0-1.03,0-1.54,0-.07,0-.14,0-.2-.02-.1-.03-.13-.1-.13-.2,0-.09,.05-.15,.14-.17,.07-.01,.13-.02,.2-.02,1.01,0,2.03,0,3.04,0,0,0,.01,0,.02,0,.15,0,.33-.01,.33,.2,0,.21-.17,.21-.32,.21-.51,0-1.03,0-1.54,0Zm-3.28,3.31c-.14,0-.74-.59-.74-.71,0-.08,.04-.15,.11-.18,.08-.03,.17-.04,.25,.03,.1,.09,.2,.19,.28,.29,.07,.08,.12,.08,.19,0,.32-.29,.64-.58,.96-.87,.11-.1,.23-.18,.35-.05,.13,.14,.04,.26-.08,.36-.38,.34-.76,.69-1.14,1.03-.06,.05-.11,.1-.18,.1Z"/>
</svg>