<?xml version="1.0" encoding="UTF-8"?>
<svg id="Layer_1" data-name="Layer 1" xmlns="http://www.w3.org/2000/svg" viewBox="0 0 14 14">
  <defs>
    <style>
      .cls-1 {
        fill: #393939;
      }

      .cls-2 {
        fill: none;
      }
    </style>
  </defs>
  <rect class="cls-2" width="14" height="14"/>
  <path class="cls-1" d="M13.43,6.44c0-.49-.17-.93-.47-1.31-.22-.29-.52-.49-.84-.66,.69-.71,.46-1.57,.07-1.95-.48-.46-1.31-.48-1.81-.04-.55,.49-.55,1.21,.02,1.99-.36,.17-.66,.41-.91,.74-.34-.68-.85-1.15-1.54-1.43,.94-.77,.76-1.87,.24-2.46-.57-.64-1.6-.71-2.26-.14-.33,.29-.52,.66-.56,1.09-.07,.62,.17,1.11,.66,1.51-.71,.29-1.22,.76-1.56,1.45-.24-.33-.55-.57-.9-.74,.69-.72,.49-1.53,.06-1.95-.49-.47-1.26-.49-1.77-.05-.58,.51-.58,1.22,0,2-.53,.26-.93,.64-1.15,1.19-.25,.62-.15,1.26-.14,1.9,0,.24,.22,.37,.48,.37,.24,0,.48,0,.71,0,.12,0,.18,.02,.21,.15,.12,.41,.28,.81,.49,1.18,.08,.14,.05,.21-.05,.31-.16,.14-.31,.3-.46,.45-.23,.24-.24,.51,0,.75,.33,.33,.66,.67,.99,.99,.24,.23,.5,.23,.75,0,.17-.16,.33-.32,.49-.49,.07-.08,.13-.1,.23-.04,.38,.21,.79,.38,1.2,.5,.14,.04,.17,.11,.17,.24,0,.24-.01,.48,0,.71,.02,.3,.19,.46,.49,.46,.48,0,.95,0,1.43,0,.33,0,.52-.2,.53-.53,0-.23,.01-.46,0-.69,0-.12,.04-.18,.15-.21,.42-.12,.82-.28,1.2-.5,.1-.06,.16-.04,.23,.04,.15,.16,.31,.32,.47,.47,.26,.26,.52,.26,.78,0,.32-.32,.64-.64,.96-.96,.25-.26,.25-.52,0-.78-.15-.16-.31-.32-.47-.47-.09-.08-.11-.14-.05-.25,.22-.38,.4-.79,.51-1.22,.03-.11,.09-.14,.2-.13,.23,0,.46,0,.69,0,.34,0,.52-.18,.53-.52,0-.34,0-.67,0-1.01Zm-2.15-3.81c.47,0,.82,.36,.82,.83,0,.47-.37,.84-.84,.83-.46,0-.83-.38-.83-.83,0-.46,.38-.84,.85-.83Zm-5.46-.17c-.01-.66,.5-1.17,1.18-1.17,.67,0,1.17,.49,1.18,1.15,0,.66-.51,1.17-1.19,1.17-.67,0-1.17-.49-1.18-1.15Zm-1.12,3.85c.04-1.19,.98-2.13,2.21-2.21,1.14-.07,2.17,.77,2.35,1.92q.08,.5-.42,.5h-1.84c-.7,0-1.39,0-2.09,0-.18,0-.21-.05-.21-.22Zm-.2,.68c.83,.01,1.67,0,2.5,0,.83,0,1.67,0,2.5,0,.2,0,.23,.08,.2,.24-.18,1.13-1.05,2.02-2.18,2.22-1.56,.28-2.92-.65-3.24-2.21-.04-.19,0-.25,.21-.25ZM2.72,2.66c.47,0,.86,.39,.85,.84-.01,.44-.41,.83-.85,.83-.46,0-.84-.38-.84-.85,0-.46,.37-.82,.83-.82Zm-1.7,3.67c.08-.73,.61-1.32,1.35-1.49,.7-.16,1.4,.15,1.8,.76,.19,.29,.03,.58,.05,.87,0,.07-.1,.04-.16,.04-.48,0-.96,0-1.45,0,0,0,0,0,0,0-.48,0-.96,0-1.45,0-.14,0-.17-.05-.15-.18Zm11.96,.86c-.02,.32,0,.32-.33,.32-.18,0-.37,0-.55,0-.25,0-.43,.13-.5,.37-.13,.47-.31,.91-.55,1.33-.12,.21-.08,.43,.09,.61,.16,.17,.32,.33,.49,.49,.1,.1,.13,.16,0,.27-.29,.27-.57,.56-.85,.84-.09,.09-.14,.08-.22,0-.16-.17-.33-.34-.5-.51-.21-.2-.4-.23-.64-.09-.41,.23-.83,.42-1.29,.53-.25,.06-.37,.22-.38,.48,0,.24,0,.48,0,.71,0,.13-.04,.19-.19,.19-.39,0-.78,0-1.17,0-.13,0-.17-.04-.17-.17,0-.21,0-.43,0-.64,0-.35-.12-.49-.46-.58-.41-.11-.79-.27-1.16-.48-.31-.18-.47-.16-.73,.1-.15,.15-.31,.3-.45,.46-.09,.09-.14,.11-.23,0-.27-.29-.56-.57-.85-.84-.11-.1-.09-.16,0-.25,.17-.16,.33-.32,.49-.49,.19-.2,.22-.41,.08-.65-.23-.39-.4-.81-.52-1.24-.09-.31-.24-.42-.57-.42-.21,0-.42-.01-.62,0-.18,.02-.23-.06-.21-.22,0-.04,0-.09,0-.14-.02-.15,.05-.18,.18-.18,.41,0,.81,0,1.22,0,.41,0,.81,0,1.22,0,.1,0,.17,0,.18,.14,.12,1.37,1.19,2.49,2.55,2.77,1.79,.36,3.5-.8,3.79-2.6,.05-.29,.13-.32,.38-.31,.74,.01,1.49,0,2.23,0,.16,0,.23,.03,.22,.21Zm-.56-.67c-.35,0-.7,0-1.06,0-.48,0-.97,0-1.45,0-.13,0-.16-.04-.17-.17-.01-.32-.09-.64,.17-.93,.27-.3,.58-.53,.97-.61,.85-.18,1.66,.26,1.97,1.05,.23,.6,.2,.65-.43,.65Z"/>
</svg>