<?xml version="1.0" encoding="UTF-8"?>
<svg id="Layer_1" data-name="Layer 1" xmlns="http://www.w3.org/2000/svg" viewBox="0 0 14 14">
  <defs>
    <style>
      .cls-1 {
        fill: #393939;
      }

      .cls-2 {
        fill: none;
      }
    </style>
  </defs>
  <rect class="cls-2" width="14" height="14"/>
  <path class="cls-1" d="M12.91,1.43c0-.25-.04-.34-.32-.34-3.72,.01-7.44,.01-11.16,0-.27,0-.33,.07-.33,.33,0,3.71,0,7.42,0,11.13,0,.26,.05,.35,.34,.35,1.85-.02,3.7,0,5.55,0s3.72,0,5.58,0c.28,0,.34-.07,.34-.34,0-3.71,0-7.42,0-11.13ZM5.09,12.07c0,.16-.02,.23-.21,.23-.99,0-1.98,0-2.97,0-.15,0-.21-.03-.21-.19,0-1,0-2,0-3,0-.16,.06-.2,.21-.2,.5,0,1,0,1.5,0,.48,0,.96,0,1.44,0,.17,0,.25,.02,.25,.22-.01,.98,0,1.96,0,2.94Zm7.2-.06c0,.21-.04,.29-.27,.29-2.02-.01-4.04-.01-6.06,0-.24,0-.27-.08-.27-.29,0-1.12,0-2.24,.01-3.36,0-.3-.09-.36-.37-.35-1.12,.02-2.24,0-3.36,.01-.2,0-.28-.04-.28-.26,0-2.03,0-4.06,0-6.09,0-.22,.08-.25,.27-.25,1.68,0,3.36,0,5.04,0,1.66,0,3.32,0,4.98,0,.22,0,.31,.04,.3,.29,0,3.34,0,6.68,0,10.02Zm-1.99-7.81c-.14,.01-.19,.11-.26,.18-.89,.88-1.77,1.76-2.65,2.65-.17,.18-.26,.13-.39-.02-.13-.14-.26-.22-.05-.42,.96-.93,1.9-1.89,2.91-2.89-.51,0-.95,0-1.39,0-.09,0-.23,.07-.26-.06-.03-.16,0-.33,0-.5,0-.01,.09-.03,.13-.03,.79,0,1.58,0,2.37,0,.15,0,.18,.05,.18,.19,0,.77-.01,1.54,0,2.31,0,.29-.18,.2-.32,.2-.14,0-.3,.06-.29-.2,.02-.46,0-.93,0-1.4Z"/>
</svg>