<?xml version="1.0" encoding="UTF-8"?>
<svg id="Layer_1" data-name="Layer 1" xmlns="http://www.w3.org/2000/svg" viewBox="0 0 14 14">
  <defs>
    <style>
      .cls-1 {
        fill: #393939;
      }

      .cls-2 {
        fill: none;
      }
    </style>
  </defs>
  <rect class="cls-2" width="14" height="14"/>
  <path class="cls-1" d="M12.43,3.24c0-.28-.05-.34-.3-.41-1.72-.48-3.34-1.17-4.88-2.07-.18-.11-.33-.11-.51,0-1.54,.9-3.16,1.6-4.88,2.07-.26,.07-.31,.13-.31,.41,0,.86,0,1.73,0,2.59,0,.53,.03,1.06,.13,1.59,.53,2.64,2.05,4.52,4.42,5.75,.56,.29,1.1,.33,1.69,.05,1.18-.57,2.17-1.36,2.97-2.38,.86-1.1,1.39-2.34,1.58-3.72,.11-.73,.08-1.47,.09-2.07,0-.69,0-1.24,0-1.79Zm-.58,3.35c-.16,1.92-.97,3.53-2.39,4.84-.6,.56-1.28,1.01-2.03,1.34-.3,.13-.58,.13-.88,0-1.6-.72-2.81-1.86-3.63-3.4-.59-1.11-.83-2.3-.83-3.55,0-.25,0-.51,0-.76,0-.51,0-1.02,0-1.54,0-.14,.02-.2,.17-.25,1.59-.46,3.11-1.11,4.55-1.94,.13-.07,.22-.08,.36,0,1.45,.83,2.97,1.47,4.57,1.95,.09,.03,.16,.04,.15,.16-.02,1.05,.05,2.1-.04,3.15ZM2.61,4.42c0-.81-.05-.66,.64-.91,.31-.11,.62-.23,.93-.34,.22-.08,.37-.03,.44,.13,.06,.15-.04,.3-.25,.38,0,0-.01,0-.02,0-.34,.12-.68,.25-1.03,.36-.13,.04-.17,.1-.16,.24,.01,.2,0,.4,0,.6,0,.21-.1,.32-.27,.32-.17,0-.27-.11-.28-.32,0-.16,0-.32,0-.48Zm5.85,7.1c-.13,0-.21-.05-.26-.16-.05-.12-.02-.22,.07-.31,.14-.13,.3-.25,.44-.37,.4-.36,.76-.76,1.06-1.21,.06-.1,.13-.18,.26-.19,.1,0,.19,.04,.24,.12,.07,.11,.05,.23-.02,.34-.36,.55-.8,1.03-1.29,1.46-.1,.09-.22,.18-.32,.26-.05,.04-.11,.07-.17,.07Zm-.95,.19c0-.14,.13-.28,.27-.28,.14,0,.27,.11,.28,.25,.01,.14-.14,.3-.28,.3-.13,0-.27-.13-.27-.27ZM5.39,3.07c0,.15-.11,.26-.26,.27-.15,0-.27-.1-.28-.25,0-.15,.11-.28,.27-.28,.15,0,.26,.11,.27,.26Zm4.91,2.32c.01-.2-.05-.38-.17-.54-.3-.41-.95-.47-1.38-.03-.82,.84-1.66,1.66-2.49,2.5-.11,.12-.17,.1-.28,0-.27-.28-.54-.55-.82-.82-.37-.36-.91-.36-1.25-.01-.34,.34-.34,.87,.01,1.24,.52,.53,1.04,1.06,1.58,1.58,.37,.36,.87,.35,1.25-.01,.17-.16,.34-.34,.51-.51,.9-.9,1.8-1.81,2.71-2.71,.19-.19,.34-.41,.33-.69Zm-.65,.26c-1.09,1.09-2.17,2.17-3.26,3.26-.17,.17-.35,.17-.52,0-.51-.51-1.02-1.01-1.52-1.52-.17-.17-.17-.37-.03-.51,.15-.14,.34-.12,.51,.05,.34,.34,.69,.69,1.03,1.03,.22,.22,.33,.22,.55,0,.91-.91,1.82-1.82,2.74-2.74,.18-.18,.33-.21,.49-.1,.09,.07,.13,.16,.14,.27,0,.11-.05,.19-.13,.27Z"/>
</svg>