<?xml version="1.0" encoding="UTF-8"?>
<svg id="Layer_1" data-name="Layer 1" xmlns="http://www.w3.org/2000/svg" viewBox="0 0 14 14">
  <defs>
    <style>
      .cls-1 {
        fill: #393939;
      }

      .cls-2 {
        fill: none;
      }
    </style>
  </defs>
  <rect class="cls-2" width="14" height="14"/>
  <path class="cls-1" d="M9.39,3.14c-.11,.01-.18-.07-.25-.13-.67-.66-1.34-1.31-2.01-1.98-.11-.11-.17-.13-.3-.02-.62,.5-1.26,.99-1.89,1.48-.39,.3-.85,.47-1.28,.7-.41,.22-.83,.42-1.24,.64-.15,.08-.29,.09-.37-.08-.08-.16,.02-.25,.16-.33,.58-.29,1.14-.61,1.73-.88,.64-.3,1.15-.77,1.71-1.18,.38-.29,.76-.59,1.14-.88,.2-.16,.26-.15,.45,.02,.68,.66,1.36,1.32,2.03,1.99,.12,.11,.19,.14,.35,.05,.62-.36,1.24-.71,1.87-1.06,.05-.03,.1-.05,.15-.08,.14-.07,.26-.06,.34,.09,.07,.14,0,.24-.12,.31-.46,.26-.92,.52-1.38,.78-.29,.16-.58,.33-.87,.49-.06,.03-.12,.08-.19,.07Zm3.87,5.26c0,.17-.12,.24-.41,.24-1.96,0-3.91,0-5.87,0-1.96,0-3.91,0-5.87,0-.08,0-.16,.01-.24-.03-.09-.05-.12-.13-.12-.23,0-.09,.06-.15,.15-.18,.03,0,.05-.01,.08-.01,.12-.01,.29,.06,.35-.04,.06-.09,.02-.25,.02-.39,0-.72,0-1.43,0-2.15,0-.25,.06-.31,.31-.31,.39,0,.78,0,1.17,0,.25,0,.31,.07,.31,.33,0,.78,0,1.56,0,2.34,0,.17,.03,.23,.21,.22,.38-.01,.38,0,.38-.39,0-1.13,0-2.26,0-3.38,0-.28,.05-.33,.32-.33,.37,0,.74,0,1.11,0,.3,0,.35,.05,.35,.35,0,1.17,0,2.34,0,3.51,0,.19,.05,.25,.24,.24,.35-.02,.36,0,.36-.35,0-1.74,0-3.48,0-5.22,0-.35,.02-.37,.36-.37,.36,0,.72,0,1.09,0,.29,0,.32,.04,.32,.33,0,1.78,0,3.57,0,5.35,0,.2,.03,.28,.26,.27,.34-.02,.34,0,.34-.34,0-.97,0-1.94,0-2.9,0-.32,.05-.37,.38-.38,.36,0,.72,0,1.09,0,.26,0,.32,.06,.32,.32,0,1.03,0,2.06,0,3.09,0,.16,.04,.21,.2,.21,.39-.01,.39,0,.39-.4,0-1.39,0-2.79,0-4.18,0-.32,.06-.38,.37-.38,.36,0,.72,0,1.09,0,.27,0,.33,.07,.33,.33,0,1.47,0,2.94,0,4.41,0,.17,.04,.23,.22,.22,.28-.02,.4,.06,.4,.22ZM2.65,5.78c-.15-.12-.47-.03-.71-.04-.09,0-.13,.02-.13,.12,0,.72,0,1.44,0,2.17,0,.11,.03,.15,.14,.14,.19,0,.39-.01,.58,0,.13,0,.17-.03,.16-.16,0-.35,0-.69,0-1.04,0-.17,0-.35,0-.52,0-.23,.1-.56-.04-.68Zm2.43,2.26c0-1.13,0-2.25,0-3.38,0-.1-.03-.13-.13-.13-.2,0-.4,.01-.6,0-.13,0-.16,.04-.16,.16,0,.54,0,1.08,0,1.63,0,.56,0,1.13,0,1.69,0,.13,.03,.17,.16,.17,.19-.01,.39,0,.58,0,.1,0,.15-.02,.15-.13Zm2.38-.05c0-1.7,0-3.41,0-5.11,0-.14-.03-.2-.18-.19-.17,.01-.35,.02-.52,0-.18-.02-.2,.06-.2,.21,0,.84,0,1.68,0,2.52,0,.86,0,1.71,0,2.57,0,.14,.03,.2,.18,.19,.18-.01,.36-.01,.54,0,.15,.01,.18-.05,.18-.19Zm2.36,.02c0-.47,0-.94,0-1.42,0-.47,0-.94,0-1.42,0-.12-.03-.17-.16-.17-.19,.01-.39,0-.58,0-.1,0-.15,.02-.15,.13,0,.97,0,1.93,0,2.9,0,.12,.05,.14,.15,.13,.19,0,.39,0,.58,0,.13,0,.16-.04,.16-.17Zm2.19-4.34c-.17,.01-.35,.01-.52,0-.15-.01-.18,.05-.18,.19,0,.68,0,1.36,0,2.05,0,.7,0,1.39,0,2.09,0,.15,.04,.19,.19,.18,.17-.01,.35-.01,.52,0,.15,.01,.18-.04,.18-.19,0-.94,0-1.88,0-2.82,0-.44,0-.88,0-1.31,0-.15-.04-.19-.19-.18ZM5.19,12.18c-.12,.2-.24,.39-.34,.59-.1,.19-.23,.21-.41,.14-.2-.08-.42-.15-.64-.22-.05,.25-.09,.48-.13,.71-.03,.16-.11,.25-.28,.24-.25,0-.5,0-.75,0-.15,0-.25-.07-.27-.23-.03-.2-.09-.39-.11-.59-.01-.15-.07-.13-.17-.09-.18,.07-.35,.12-.53,.19-.17,.06-.29,.02-.38-.14-.11-.21-.24-.42-.36-.63-.08-.14-.06-.26,.06-.37,.16-.13,.31-.26,.46-.39,.07-.06,.08-.1,0-.16-.16-.13-.31-.26-.46-.39-.13-.1-.15-.22-.07-.37,.13-.22,.26-.44,.39-.67,.08-.14,.2-.16,.34-.11,.18,.06,.37,.12,.55,.2,.11,.05,.16,.04,.17-.1,.02-.2,.08-.39,.11-.59,.02-.15,.11-.22,.26-.22,.26,0,.53,0,.79,0,.15,0,.23,.08,.26,.22,.04,.24,.09,.48,.14,.73,.22-.08,.44-.14,.65-.23,.19-.08,.32-.02,.41,.15,.1,.2,.22,.39,.33,.58,.1,.16,.09,.3-.07,.42-.14,.11-.27,.24-.41,.35-.09,.07-.11,.12,0,.2,.14,.11,.27,.24,.41,.35,.16,.12,.18,.25,.08,.42Zm-.57-.24c-.15-.11-.29-.24-.43-.37-.18-.16-.18-.37,0-.53,.12-.11,.23-.22,.36-.31,.15-.1,.16-.19,.07-.35-.1-.17-.18-.23-.36-.13-.13,.07-.29,.1-.43,.15-.26,.09-.43,0-.48-.28-.02-.13-.05-.26-.08-.39-.06-.3-.06-.3-.38-.29-.11,0-.16,.03-.18,.15-.02,.19-.06,.37-.1,.55-.06,.27-.22,.35-.48,.26-.19-.07-.38-.13-.57-.2-.04-.01-.08-.05-.11,0-.07,.11-.16,.22-.19,.34-.03,.1,.11,.14,.18,.21,.11,.11,.23,.2,.35,.3,.18,.16,.18,.35,0,.51-.15,.13-.3,.27-.46,.39-.08,.06-.09,.11-.03,.19,.04,.06,.08,.12,.11,.18,.05,.1,.1,.12,.21,.07,.18-.08,.36-.13,.55-.19,.22-.07,.38,.01,.44,.24,.04,.19,.09,.38,.11,.57,.01,.14,.08,.18,.2,.16,.12-.02,.31,.09,.34-.15,.02-.18,.06-.35,.09-.53,.05-.28,.21-.37,.48-.28,.2,.07,.41,.14,.62,.22,.12-.04,.12-.18,.19-.26,.08-.09,.06-.16-.04-.24Zm8.57,.23c-.12,.2-.24,.41-.35,.61-.09,.17-.21,.2-.38,.14-.18-.07-.37-.13-.55-.2-.09-.04-.13-.03-.15,.08-.03,.21-.08,.41-.12,.61-.03,.16-.12,.23-.27,.23-.25,0-.5,0-.75,0-.17,0-.25-.08-.28-.24-.04-.23-.09-.46-.13-.71-.22,.08-.44,.14-.64,.22-.19,.08-.32,.05-.41-.14-.11-.2-.23-.4-.34-.59-.09-.15-.09-.28,.06-.4,.14-.11,.27-.24,.41-.35,.12-.09,.1-.15,0-.23-.14-.11-.26-.23-.4-.34-.15-.11-.17-.24-.08-.4,.12-.2,.24-.41,.35-.61,.09-.18,.22-.21,.4-.13,.21,.08,.42,.15,.65,.23,.05-.23,.1-.46,.13-.69,.03-.19,.12-.27,.31-.27,.24,0,.49,0,.73,0,.15,0,.25,.05,.28,.22,.03,.19,.09,.38,.11,.57,.01,.16,.08,.16,.2,.11,.17-.07,.34-.12,.51-.18,.16-.06,.28-.03,.37,.12,.12,.21,.24,.42,.36,.63,.1,.16,.06,.28-.08,.4-.15,.12-.28,.25-.43,.36-.1,.07-.08,.12,0,.19,.15,.12,.29,.24,.43,.36,.14,.12,.17,.24,.07,.4Zm-.55-.21c-.16-.12-.31-.26-.46-.39-.18-.16-.18-.34,0-.5,.15-.14,.31-.26,.46-.4,.03-.03,.09-.05,.09-.12-.04-.07-.09-.14-.12-.21-.06-.14-.14-.18-.28-.11-.16,.07-.32,.12-.49,.18-.24,.08-.41,0-.46-.26-.04-.18-.09-.37-.1-.55-.01-.17-.11-.17-.23-.16-.12,.01-.29-.07-.32,.15-.02,.17-.06,.34-.09,.51-.05,.29-.21,.39-.49,.29-.18-.06-.37-.12-.55-.19-.09-.04-.12-.01-.16,.06-.03,.07-.07,.14-.11,.2-.07,.09-.04,.14,.04,.21,.15,.12,.3,.25,.45,.38,.18,.15,.18,.36,0,.52-.15,.14-.3,.27-.46,.4-.05,.04-.09,.07-.06,.15,.12,.31,.19,.34,.49,.23,.12-.04,.25-.09,.37-.13,.25-.09,.42,0,.47,.27,.03,.17,.06,.34,.09,.51,.02,.12,.06,.21,.21,.18,.05,0,.11,0,.17,0,.11,.01,.16-.04,.17-.15,.03-.21,.07-.41,.12-.61,.05-.19,.22-.28,.4-.22,.14,.04,.27,.1,.41,.15,.32,.11,.31,.11,.48-.18,.05-.09,.05-.14-.03-.21Zm-8.82-.65c0,.45-.37,.82-.82,.83-.45,0-.82-.36-.82-.82,0-.46,.35-.81,.81-.82,.46,0,.83,.36,.83,.81Zm-.46,0c0-.2-.17-.37-.37-.37-.19,0-.35,.17-.35,.36,0,.21,.15,.38,.35,.38,.2,0,.37-.17,.37-.37Zm8.45,0c0,.46-.37,.82-.82,.82-.45,0-.82-.37-.82-.82,0-.45,.37-.81,.83-.81,.47,0,.82,.35,.82,.81Zm-.46,0c0-.21-.16-.38-.36-.38-.19,0-.36,.16-.36,.35,0,.2,.15,.38,.35,.39,.2,0,.37-.15,.37-.36Z"/>
</svg>