<?xml version="1.0" encoding="UTF-8"?>
<svg id="Layer_1" data-name="Layer 1" xmlns="http://www.w3.org/2000/svg" viewBox="0 0 14 14">
  <defs>
    <style>
      .cls-1 {
        fill: #393939;
      }

      .cls-2 {
        fill: none;
      }
    </style>
  </defs>
  <rect class="cls-2" width="14" height="14"/>
  <path class="cls-1" d="M9,6.25c0,.21,0,.41,0,.62,0,.15-.09,.25-.23,.25-.14,0-.23-.1-.23-.25,0-.41,0-.82,0-1.23,0-.15,.09-.25,.23-.25,.14,0,.23,.1,.23,.24,0,.21,0,.42,0,.63Zm3.9-4.2c-.08,.07-.16,.12-.25,.15-.05,.01-.06,.04-.06,.08,0,.02,0,.05,0,.07,0,2.09,0,4.17,0,6.26,0,.04,0,.08,0,.12-.02,.11-.13,.18-.24,.17-.11,0-.2-.1-.21-.21,0-.03,0-.06,0-.09,0-2.08,0-4.17,0-6.25,0-.08-.02-.1-.1-.1-3.35,0-6.7,0-10.05,0-.08,0-.1,.01-.1,.1,0,2.43,0,4.87,0,7.3,0,.36,.23,.59,.59,.59,.92,0,1.83,0,2.75,0,.1,0,.18,.04,.22,.13,.04,.08,.03,.17-.03,.24-.05,.07-.13,.09-.21,.09-.7,0-1.4,0-2.11,0-.22,0-.44,0-.66,0-.58,0-1.02-.44-1.02-1.02,0-2.45,0-4.91,0-7.36,0-.07-.02-.1-.09-.13-.34-.13-.56-.5-.52-.86,.04-.38,.32-.69,.69-.75,.06,0,.12-.01,.18-.01,1.77,0,3.55,0,5.32,0,1.78,0,3.56,0,5.34,0,.37,0,.68,.21,.81,.56,.12,.32,.02,.69-.25,.93Zm-.59-1.03c-3.51,0-7.02,0-10.54,0-.04,0-.08,0-.13,0-.16,0-.3,.11-.35,.25-.05,.16-.02,.29,.1,.41,.09,.09,.2,.1,.32,.1,1.76,0,3.52,0,5.28,0,1.76,0,3.52,0,5.28,0,.04,0,.07,0,.11,0,.15-.01,.28-.12,.32-.27,.07-.25-.11-.49-.41-.49Zm-1.47,3.61c-.07,.02-.08,.05-.07,.11,0,.76,0,1.52,0,2.28,0,.17-.1,.28-.24,.27-.11,0-.2-.09-.22-.2,0-.03,0-.07,0-.1,0-.75,0-1.5,0-2.25,0-.06-.01-.09-.07-.11-.14-.04-.26-.12-.36-.23-.03-.04-.06-.04-.1-.02-.6,.24-1.21,.49-1.82,.73-.04,.01-.06,.03-.07,.08-.08,.33-.29,.54-.6,.66-.05,.02-.06,.04-.06,.09,0,.41,0,.83,0,1.24,0,.18-.13,.29-.29,.25-.11-.03-.17-.11-.17-.23,0-.23,0-.47,0-.7,0-.19,0-.38,0-.57,0-.04,0-.06-.05-.08-.36-.13-.57-.38-.63-.76,0-.06-.03-.07-.08-.08-.37-.06-.73-.13-1.1-.19-.17-.03-.34-.06-.51-.09-.05,0-.06,0-.08,.05-.1,.27-.3,.46-.57,.55-.06,.02-.06,.06-.06,.1,0,.77,0,1.54,0,2.32,0,.31,0,.62,0,.93,0,.06,.01,.08,.07,.08,.39,0,.77,0,1.16,0,.07,0,.08-.02,.08-.08,0-.9,0-1.81,0-2.71,0-.05,0-.1,.02-.14,.04-.1,.14-.16,.24-.15,.1,.01,.19,.1,.2,.2,0,.03,0,.06,0,.09,0,.9,0,1.8,0,2.7,0,.07,.01,.1,.09,.09,.09,0,.19,0,.28,0,.14,0,.24,.09,.24,.22,0,.14-.08,.23-.23,.24-.02,0-.04,0-.06,0-.91,0-1.82,0-2.72,0-.09,0-.18-.01-.24-.09-.05-.07-.07-.15-.03-.23,.04-.09,.12-.13,.21-.14,.05,0,.11,0,.16,0,.05,0,.07-.01,.07-.07,0-.22,0-.43,0-.65,0-.33,0-.66,0-.99h0c0-.54,0-1.08,0-1.62,0-.06-.01-.09-.07-.11-.4-.13-.66-.54-.61-.97,.05-.43,.38-.76,.82-.82,.41-.05,.82,.2,.95,.6,.03,.1,.08,.13,.18,.15,.53,.09,1.06,.18,1.59,.28,.04,0,.08,.02,.11-.04,.19-.32,.47-.48,.84-.46,.36,.02,.62,.2,.78,.52,.04,.07,.06,.07,.13,.04,.53-.22,1.07-.43,1.6-.64,.06-.02,.07-.05,.06-.1-.04-.44,.2-.83,.61-.98,.41-.14,.84,0,1.08,.37,.32,.49,.09,1.16-.47,1.36Zm-6.92-.18c0-.25-.21-.46-.46-.46-.25,0-.45,.21-.45,.46,0,.25,.21,.46,.46,.46,.25,0,.45-.21,.45-.46Zm3.53,.52c0-.26-.2-.46-.46-.46-.25,0-.46,.21-.46,.46,0,.25,.2,.46,.46,.46,.25,0,.45-.2,.46-.45Zm3.53-1.21c0-.25-.2-.46-.45-.46-.25,0-.46,.21-.46,.46,0,.25,.21,.46,.46,.46,.25,0,.45-.21,.45-.46Zm1,7.31c0,.13-.09,.22-.23,.22-.07,0-.14,0-.2,0-.04,0-.06,.01-.07,.05-.03,.08-.06,.16-.1,.23-.01,.03,0,.05,.01,.07,.05,.05,.11,.1,.15,.16,.09,.09,.09,.22,0,.31-.29,.29-.58,.58-.87,.87-.09,.09-.22,.08-.32,0-.06-.06-.11-.16-.19-.17-.07,0-.15,.06-.23,.09-.06,.02-.08,.05-.08,.11,0,.06,0,.12,0,.18,0,.13-.1,.22-.23,.22-.2,0-.41,0-.61,0-.2,0-.39,0-.59,0-.15,0-.26-.09-.24-.24,.02-.19-.04-.28-.22-.34-.08-.02-.13-.02-.18,.04-.19,.23-.33,.21-.52,0-.24-.25-.49-.5-.74-.74-.12-.12-.13-.26,0-.37,.13-.11,.16-.2,.08-.36-.05-.09-.08-.14-.19-.12-.03,0-.07,0-.1,0-.16,0-.25-.09-.25-.25,0-.39,0-.78,0-1.17,0-.16,.09-.27,.25-.25,.18,.02,.28-.03,.32-.21,.02-.08,.03-.13-.04-.19-.23-.2-.22-.32,0-.53,.24-.23,.47-.47,.71-.7,.16-.16,.27-.17,.42,0,.1,.11,.18,.13,.31,.06,.14-.07,.15-.06,.15-.23,0-.03,0-.07,0-.1,0-.13,.1-.22,.23-.22,.41,0,.82,0,1.23,0,.12,0,.21,.09,.22,.2,0,0,0,.01,0,.02,0,.09-.04,.2,.01,.25,.06,.07,.18,.08,.27,.13,.03,.02,.05,0,.06-.02,.05-.05,.1-.1,.15-.15,.1-.09,.23-.09,.33,0,.28,.28,.57,.57,.85,.85,.1,.1,.1,.23,0,.33-.05,.05-.1,.1-.15,.15-.02,.02-.03,.04-.01,.07,.03,.07,.06,.14,.09,.22,.02,.04,.04,.06,.09,.06,.07,0,.14,0,.2,0,.13,0,.22,.1,.22,.22,0,.41,0,.82,0,1.23Zm-.46-.31c0-.17,0-.34,0-.52q0-.16-.16-.17c-.16,0-.23-.05-.27-.21-.04-.15-.1-.29-.17-.43-.1-.19-.09-.25,.06-.4,.01-.01,.03-.03,.04-.04,.04-.03,.03-.05,0-.09-.13-.13-.26-.26-.39-.39q-.1-.1-.2,0c-.13,.13-.21,.14-.37,.05-.11-.06-.23-.12-.36-.15-.29-.09-.29-.09-.3-.39,0-.06-.02-.07-.07-.07-.17,0-.34,0-.52,0q-.16,0-.16,.16c0,.15-.05,.22-.2,.26-.17,.05-.34,.12-.5,.21-.11,.06-.21,.05-.3-.04-.03-.03-.06-.05-.08-.08-.03-.04-.06-.04-.09,0-.12,.12-.24,.24-.36,.36q-.12,.12,0,.25c.09,.1,.11,.19,.04,.31-.07,.13-.14,.27-.18,.41-.08,.29-.16,.29-.39,.28-.06,0-.07,.02-.07,.07,0,.16,0,.33,0,.49q0,.19,.19,.19c.13,0,.2,.06,.24,.18,.04,.14,.09,.28,.16,.41,.16,.28,.09,.33-.07,.49-.04,.04-.03,.06,0,.09,.12,.12,.24,.24,.36,.36q.12,.12,.25,0c.1-.1,.2-.11,.32-.04,.12,.07,.24,.12,.37,.17q.3,.1,.31,.41s.01,.06,.06,.06c.1,0,.21,0,.31,0,.07,0,.14,0,.21,0q.17,0,.17-.17c0-.14,.05-.21,.19-.25,.16-.05,.31-.11,.46-.19,.17-.1,.24-.09,.38,.05,.01,.01,.03,.03,.04,.04,.04,.05,.06,.04,.11,0,.12-.13,.25-.25,.37-.37q.11-.11,0-.22c-.12-.12-.13-.2-.05-.35,.07-.13,.13-.27,.18-.42,.06-.22,.11-.25,.33-.25,.01,0,.03,0,.04,0,.06,0,.07-.02,.07-.07Zm-1.03-.3c0,.81-.66,1.47-1.48,1.46-.8,0-1.45-.66-1.45-1.46,0-.81,.66-1.46,1.47-1.46,.8,0,1.46,.66,1.46,1.47Zm-.46,0c0-.55-.46-1-1.01-1-.55,0-1,.46-.99,1.01,0,.55,.46,1,1.01,1,.55,0,1-.46,1-1.01Z"/>
</svg>