<?xml version="1.0" encoding="UTF-8"?>
<svg id="Layer_1" data-name="Layer 1" xmlns="http://www.w3.org/2000/svg" viewBox="0 0 14 14">
  <defs>
    <style>
      .cls-1 {
        fill: #393939;
      }

      .cls-2 {
        fill: none;
      }
    </style>
  </defs>
  <rect class="cls-2" width="14" height="14"/>
  <path class="cls-1" d="M3.34,2.24c-.09-.11-.15-.16-.2-.23-.08-.11-.08-.22,.02-.32,.09-.1,.22-.13,.32-.04,.24,.22,.47,.45,.69,.69,.11,.12,.06,.25-.05,.36-.18,.18-.35,.35-.53,.53-.12,.12-.26,.21-.41,.06-.16-.16-.08-.3,.06-.43,.02-.02,.05-.05,.07-.07-.04-.08-.12-.04-.17-.04-.66,0-1.32,0-1.98,0-.06,0-.12,0-.18,0-.17-.02-.27-.1-.26-.27,.01-.16,.12-.23,.27-.23,.68,0,1.35,0,2.03,0,.09,0,.18,0,.33,0Zm7.69,4.98c-.12,.01-.25,.03-.41,.05,.07,.08,.13,.14,.18,.21,.08,.11,.07,.22-.02,.32-.09,.1-.22,.12-.31,.03-.24-.22-.47-.45-.69-.68-.1-.1-.06-.24,.04-.34,.19-.2,.39-.39,.58-.59,.12-.11,.25-.14,.38-.02,.13,.12,.1,.25-.01,.38-.04,.05-.11,.08-.11,.16,1.08,.06,2-.79,2.07-1.9,.06-1.08-.79-2.04-1.87-2.08-.49-.02-.99,0-1.48,0-.12,0-.16,.03-.15,.16,0,.19,0,.38,0,.58-.02,.46-.32,.77-.78,.77-.99,0-1.97,0-2.96,0-.46,0-.77-.31-.78-.77-.01-.66-.01-1.32,0-1.98,0-.47,.32-.75,.79-.76,.98,0,1.95,0,2.93,0,.48,0,.78,.29,.8,.78,0,.18,.01,.35,0,.53-.02,.18,.06,.21,.22,.21,.44,0,.88,0,1.33,0,1.33,.01,2.4,1.06,2.47,2.4,.06,1.3-.9,2.42-2.2,2.57ZM8.72,1.57c0-.27-.07-.33-.35-.33-.46,0-.92,0-1.38,0s-.95,0-1.43,0c-.28,0-.35,.07-.35,.33,0,.61,0,1.22,0,1.83,0,.26,.08,.34,.35,.34,.93,0,1.87,0,2.8,0,.26,0,.35-.08,.35-.34,0-.61,0-1.22,0-1.83Zm.5,6.42c0,.45-.32,.75-.77,.76-.99,0-1.99,0-2.98,0-.43,0-.74-.31-.76-.74-.01-.21,0-.42,0-.63,0-.09-.01-.14-.12-.14-.58,.02-1.16-.06-1.73,.04-.98,.16-1.68,1.02-1.66,1.99,.03,1.01,.74,1.81,1.75,1.94,.11,.01,.21,.05,.36,.02-.08-.09-.13-.15-.18-.21-.08-.11-.07-.22,.02-.32,.09-.1,.22-.12,.32-.03,.24,.22,.47,.45,.69,.69,.1,.12,.05,.25-.06,.36-.18,.18-.35,.35-.53,.53-.12,.12-.27,.2-.41,.05-.15-.15-.08-.29,.05-.41,.03-.03,.06-.06,.1-.11-.27-.05-.52-.07-.76-.14-1.25-.33-1.99-1.48-1.82-2.79,.15-1.19,1.22-2.11,2.45-2.11,.44,0,.89,0,1.33,0,.15,0,.21-.04,.2-.19-.01-.18,0-.37,0-.55,.02-.47,.32-.76,.78-.76,.99,0,1.97,0,2.96,0,.45,0,.76,.29,.77,.75,.01,.67,.01,1.34,0,2Zm-.5-1.89c0-.29-.06-.36-.35-.36-.93,0-1.87,0-2.8,0-.29,0-.35,.07-.35,.36,0,.59,0,1.18,0,1.78,0,.29,.08,.37,.37,.37,.46,0,.92,0,1.38,0s.92,0,1.38,0c.3,0,.37-.08,.38-.37,0-.59,0-1.18,0-1.78Zm.5,6.39c0,.46-.33,.76-.79,.76-.98,0-1.95,0-2.93,0-.47,0-.78-.31-.79-.79,0-.64,0-1.29,0-1.93,0-.5,.31-.79,.8-.79,.49,0,.99,0,1.48,0,.48,0,.97,0,1.45,0,.45,0,.77,.29,.78,.74,.01,.67,.01,1.34,0,2Zm-.5-1.91c0-.27-.07-.33-.35-.34-.47,0-.93,0-1.4,0-.47,0-.93,0-1.4,0-.28,0-.35,.07-.35,.33,0,.61,0,1.22,0,1.83,0,.26,.08,.34,.35,.34,.93,0,1.87,0,2.8,0,.27,0,.35-.08,.35-.34,0-.61,0-1.22,0-1.83ZM6.02,2.74c-.16,0-.29,.06-.3,.23,0,.18,.11,.27,.28,.27,.64,0,1.28,0,1.92,0,.18,0,.29-.09,.28-.27,0-.18-.13-.23-.3-.23-.32,0-.63,0-.95,0s-.63,0-.95,0Zm.97-1c-.16,0-.26,.08-.27,.24,0,.16,.09,.26,.24,.26,.33,.01,.67,0,1,0,.15,0,.25-.09,.25-.25,0-.17-.11-.25-.28-.25-.16,0-.32,0-.47,0-.16,0-.32,0-.47,0Zm-.78,.23c-.01-.16-.11-.24-.27-.23-.15,.01-.23,.1-.22,.25,0,.16,.1,.23,.26,.25,.14-.03,.24-.11,.23-.27Zm-.19,5.28c-.16,0-.29,.05-.3,.23,0,.18,.11,.27,.28,.27,.64,0,1.28,0,1.92,0,.18,0,.29-.09,.28-.27,0-.17-.13-.23-.3-.23-.31,0-.62,0-.92,0-.32,0-.65,0-.97,0Zm.97-1c-.16,0-.26,.07-.27,.23,0,.16,.09,.26,.24,.27,.34,.01,.68,.01,1.02,0,.15,0,.24-.11,.23-.27-.01-.15-.1-.22-.25-.22-.16,0-.32,0-.47,0-.17,0-.33,0-.5,0Zm-.78,.23c-.01-.16-.11-.24-.27-.23-.15,.01-.23,.11-.22,.25,0,.16,.11,.23,.26,.25,.15-.03,.25-.12,.24-.27Zm-.34,4.84c-.06,.11-.04,.21,.04,.3,.18,.19,.36,.37,.55,.55,.22,.21,.29,.21,.5,0,.34-.33,.67-.67,1.01-1,.13-.13,.2-.27,.04-.41-.14-.13-.29-.07-.41,.06-.18,.19-.36,.37-.54,.55q-.34,.34-.67,0c-.07-.08-.14-.17-.26-.18-.11,0-.2,.02-.25,.12Z"/>
</svg>