<?xml version="1.0" encoding="UTF-8"?>
<svg id="Layer_1" data-name="Layer 1" xmlns="http://www.w3.org/2000/svg" viewBox="0 0 800 800">
  <defs>
    <style>
      .cls-1 {
        fill: none;
      }

      .cls-2 {
        fill: #010101;
      }
    </style>
  </defs>
  <rect class="cls-1" width="800" height="800"/>
  <path class="cls-2" d="M752.98,124.42c0-33.58-23.26-57.08-56.95-57.79-11.83-.25-23.66-.04-35.49-.04q-21.58,0-23.36-20.85c-.07-.79-.05-1.58-.16-2.36-.9-6.35-4.74-10.02-10.94-10.36-6.32-.35-10.72,3.25-11.87,9.34-.93,4.97-1.08,10.26-.52,15.29,.82,7.41-1.85,9.22-9.12,9.13-33.51-.4-67.04-.18-100.56-.18q-16.22,0-16.67-16.66c-.08-2.72-.27-5.52-1-8.12-1.71-6.08-5.94-9.41-12.27-8.74-6.23,.66-9.93,4.44-10.19,10.96-.16,3.94-.66,7.97-.06,11.81,1.43,9.18-2.43,11.12-11.1,10.96-29.96-.54-59.94-.18-89.91-.23-8.27-.01-18.15,2.44-24.32-1.23-5.59-3.32-1.33-13.87-2.03-21.19-.62-6.5-4.01-10.3-10.19-11.07-7.02-.87-11.38,3.32-12.87,9.62-1.06,4.5-.94,9.45-.48,14.11,.72,7.34-1.25,10.1-9.41,9.99-35.88-.49-71.77-.51-107.65,0-8.4,.12-9.93-3.02-9.32-10.17,.4-4.66,.23-9.51-.58-14.11-1.09-6.17-5.36-9.83-11.67-9.5-6.19,.32-10.23,4.03-10.8,10.42-.42,4.7-.7,9.52-.14,14.17,.92,7.57-2.24,9.35-9.32,9.11-14.57-.5-29.21,.49-43.76-.27-37.92-1.98-63.46,26.09-63.27,62.76,.97,191.65,.96,383.32,.07,574.97-.17,36.63,25.69,63.05,62.18,62.63,97-1.12,194.01-.38,291.02-.38,98.19,0,196.38,.07,294.58-.04,34.62-.04,58.08-23.3,58.09-57.54,.08-194.81,.09-389.63,.05-584.44Zm-126.89,11.75c8.23,.62,13.34,4.75,13.34,14.02,0,9.3-5.62,14.13-13.87,14.13-8.35,0-14.25-5.5-14.18-14.2,.07-8.55,5.31-13.54,14.71-13.95Zm-151.32,.08c8.72-.35,13.72,4.6,14.97,13.13-.57,8.9-5.42,14.63-13.82,14.91-8.22,.28-14.17-4.36-14.51-13.55-.34-9.11,4.61-14.14,13.35-14.49Zm-149.35-.12c8.38,.71,13.64,4.9,13.62,14.06-.02,9.2-5.8,14.08-14,14.12-8.37,.04-14.11-5.48-14.1-14.23,0-8.76,5.36-13.46,14.48-13.95Zm-150.75,.15c8.76-.14,14.31,4.8,14.5,13.56,.19,8.78-5.58,14.24-13.89,14.46-8.34,.22-13.77-4.79-14.25-12.69,.05-10.23,4.8-15.18,13.65-15.32ZM728.92,714.52c-.28,14.92-13.4,26.63-28.67,28.12-2.74,.27-5.52,.14-8.28,.14-194.39,0-388.77,.01-583.16,0-27.23,0-39.38-13.42-36.84-42.21,16.43,11.42,34.76,9.05,52.71,9.05,161.27,.04,322.53-.06,483.8,.22,9.45,.02,16.16-2.66,22.73-9.34,31.76-32.3,63.95-64.18,97.92-98.14,0,39.08,.46,75.63-.22,112.17Zm-98.86-105.33c1.82-11.91,12.29-21.94,24.17-22.49,18.34-.86,36.74-.23,54.55-.23-26.49,26.71-52.7,53.13-80.11,80.77,.56-19.95-1.51-39.07,1.39-58.05Zm99.51-59.2c.04,9.66-2.16,12.75-12.2,12.4-20.86-.71-41.8-.63-62.65,.4-25.29,1.25-46.55,21.18-48.48,46.47-1.68,21.96-1.22,44.11-.98,66.17,.09,7.87-1.49,10.75-10.19,10.74-163.61-.27-327.22-.18-490.83-.24-20.82,0-33.09-12.8-33.1-34.38-.05-134.05,.08-268.1-.27-402.14-.02-9.32,2.89-10.73,11.28-10.71,106.44,.28,212.89,.19,319.33,.19s210.52,.14,315.79-.24c9.69-.03,12.36,2.09,12.32,12.09-.41,99.75-.39,199.49-.03,299.24Zm-11.09-334.57c-106.05-.29-212.09-.19-318.14-.19-105.65,0-211.31-.2-316.96,.31-10.93,.05-12.76-3.18-12.49-13.05,.7-26,.16-52.03,.26-78.05,.09-20.82,12.78-33.7,33.84-34.11,15.37-.3,30.76-.33,46.12,.12,4.04,.12,11.58-3.24,11.6,3.55,.02,7.58,5.55,17.13-5.58,22.95-12.75,6.67-19.75,17.56-19.72,32.51,.05,19.24,11.77,33.84,30.67,37.71,17.37,3.56,35-6.08,42.01-22.97,6.9-16.63,1.82-36.86-14.42-45.25-12.73-6.57-7.76-16.24-8.54-25.13-.35-3.91,3.37-3.55,6.1-3.55,37.85,0,75.69,0,113.54-.03,3.47,0,6.37,.25,6.18,4.86-.39,9.27,2.38,18.31-9.57,24.73-14.79,7.94-19.65,26.92-14.25,42.49,5.33,15.36,21.61,26.62,37.33,25.82,16.27-.82,31.48-12.91,35.6-28.31,4.25-15.88-2.65-32.79-17.12-41.92-6.84-4.32-11.23-18.43-8.05-25.1,1.65-3.45,4.58-2.49,7.11-2.49,37.45-.07,74.9-.06,112.35-.02,3.38,0,8.29-.8,7.34,4.68-1.27,7.34,4.74,15.96-5.81,21.87-19.41,10.86-25.56,30.86-16.72,49.36,6.82,14.27,22.61,23.42,37.46,21.71,16.67-1.93,29.63-13.11,33.52-28.91,3.84-15.59-1.39-32.63-15.76-39.84-12.75-6.4-7.96-16.17-8.62-25.09-.36-4.84,4.07-3.77,7-3.78,37.06-.05,74.11-.05,111.17,0,3.31,0,8.41-1.06,7.52,4.44-1.2,7.4,4.88,16.13-5.32,22.11-18.73,10.98-25.02,29.04-17.68,47.14,6.09,15.02,21.87,25.23,37.23,24.09,16.07-1.2,30.81-13.02,34.67-27.83,4.29-16.48-2.16-32.93-16.55-42.16-6.88-4.42-11.25-18.24-8.19-25.08,1.57-3.5,4.45-2.69,7.01-2.7,17.74-.07,35.5-.53,53.22,.11,19.42,.7,31.49,14.05,31.57,33.87,.11,26.81-.45,53.63,.29,80.42,.26,9.29-2.75,10.74-11.18,10.71ZM213.24,439.56c.17,3.41-1.93,5.85-3.66,8.47-12.74,19.34-25.35,38.77-38.22,58.02-7.89,11.8-13.23,12.33-23.45,2.81-6.05-5.63-11.93-11.44-17.89-17.16-5.69-5.45-6.81-11.88-1.71-17.78,5.44-6.29,11.86-4.7,17.63,.36,1.48,1.3,2.99,2.6,4.21,4.13,4.6,5.79,7.7,5.69,11.86-1.11,9.21-15.07,19.23-29.65,29.11-44.3,3.2-4.74,7.38-8.54,13.77-6.1,5.63,2.15,9.12,6.1,8.36,12.66Zm-87.88-82.22c.4-10.83,9.65-15.59,17.97-10.37,2.95,1.85,5.56,4.45,7.83,7.14,4.43,5.26,7.07,3.75,10.34-1.42,9.04-14.29,18.65-28.2,27.78-42.44,4.79-7.48,10.59-12.64,19.17-6.64,8.04,5.62,5.24,12.68,.63,19.57-12.67,18.95-24.98,38.13-37.65,57.08-8.08,12.1-13.75,12.58-24.51,2.49-5.75-5.39-11.34-10.94-17.02-16.4-2.96-2.85-5.08-6.06-4.54-9.01Zm493.82,1.91c11.4-17.31,22.01-33.31,32.5-49.4,4.51-6.92,10.08-11.95,18.3-6.67,8.22,5.28,6.08,12.63,1.59,19.48-12.9,19.68-25.71,39.41-38.9,58.89-7,10.34-13.03,10.89-22.05,2.57-6.64-6.12-13.03-12.5-19.42-18.89-5.25-5.26-5.91-11.33-.79-16.71,5.11-5.37,11.32-4.84,16.9-.25,3.91,3.21,7.46,6.86,11.87,10.97Zm-252.03-45.92c.36,3.19-1.37,5.85-3.11,8.5-13.2,20.01-26.22,40.15-39.68,59.98-6.75,9.95-12.71,10.57-21.29,2.83-6.73-6.06-13.19-12.43-19.56-18.87-5.53-5.59-6.35-12.2-.64-17.74,5.28-5.13,11.53-4.01,16.96,.78,1.77,1.56,3.61,3.11,5.06,4.95,4.7,5.98,7.49,3.95,10.97-1.59,9.42-14.97,19.33-29.64,29.15-44.36,3.26-4.9,7.51-8.03,13.87-6.02,5.54,1.75,8.59,5.32,8.28,11.54Zm153.91,124.74c.55,4.13-1.78,7.3-3.96,10.61-12.53,19-24.88,38.11-37.52,57.03-8.17,12.24-13.58,12.7-24.37,2.55-6.01-5.66-11.87-11.47-17.75-17.26-5.28-5.19-6.15-11.26-1.33-16.79,5.42-6.22,11.73-4.93,17.73-.12q11.85,9.5,20.27-3.19c8.46-12.75,16.78-25.59,25.43-38.21,3.24-4.73,7.47-8.05,13.93-5.41,4.86,1.99,7.84,5.11,7.57,10.79Zm-55.91-78.9c11.08-16.81,21.77-32.83,32.24-49.01,4.83-7.47,10.85-12.62,19.26-6.52,7.77,5.64,4.91,12.95,.38,19.79-12.61,19.01-24.93,38.22-37.62,57.17-7.75,11.57-13.59,12.09-23.71,2.63-6.04-5.65-11.93-11.48-17.86-17.25-5.67-5.52-6.9-11.95-1.23-17.66,5.68-5.71,12.15-4.27,17.84,.96,3.43,3.15,6.84,6.32,10.7,9.88Zm-98.02,79.13c.58,4.14-2.01,7.21-4.17,10.48-12.51,18.99-24.89,38.06-37.52,56.97-8.15,12.2-13.52,12.65-24.35,2.47-5.73-5.38-11.28-10.95-16.95-16.38-5.64-5.4-7.15-11.78-1.92-17.7,5.94-6.72,12.57-4.67,18.48,.91,1.43,1.35,2.99,2.6,4.19,4.14,4.63,5.94,7.43,4.08,10.94-1.52,9.38-14.95,19.26-29.58,29.07-44.25,3.19-4.77,7.27-8.58,13.66-6.49,5.22,1.71,8.91,5.01,8.57,11.37Zm-150.97,124.67c.02-9.23-4.81-13.99-13.69-14.08-22.06-.23-44.13-.16-66.19-.04-8.86,.05-14.16,4.45-14.21,13.66-.12,22.46-.14,44.92,.01,67.38,.06,9.23,5.21,13.45,14.34,13.34,10.64-.12,21.28-.03,31.91-.03,11.03,0,22.07-.09,33.1,.03,9.61,.11,14.77-4.07,14.74-14.07-.07-22.06-.06-44.13,0-66.2Zm-46.84,56.58q-23.67,0-23.67-24.01,0-23.07,23.35-23.07t23.49,23.92q0,23.16-23.17,23.16Zm509.08-182.16c-.03-9.16-4.94-13.76-14-13.79-22.06-.06-44.12-.08-66.17,.01-8.95,.04-13.95,4.35-13.93,13.71,.03,22.06,.09,44.12-.03,66.18-.06,9.92,4.9,14.39,14.49,14.4,10.64,0,21.27,0,31.91,0,11.42,0,22.85,.1,34.27-.04,8.5-.1,13.35-4.56,13.42-13.11,.18-22.45,.13-44.91,.05-67.36Zm-46.35,56.86q-24.09,0-24.09-24.43,0-22.58,22.57-22.58,24.27,0,24.27,24.59,0,22.42-22.75,22.42Zm-275.69,54.63c-22.06-.19-44.12-.17-66.18-.02-8.89,.06-13.97,4.58-13.99,13.82-.04,22.46-.05,44.91,.04,67.37,.04,8.62,4.57,13.08,13.21,13.13,11.03,.06,22.06,.01,33.09,.02,11.42,0,22.85,.05,34.27-.01,8.55-.04,13.3-4.22,13.33-12.98,.07-22.46,.03-44.91,.05-67.37,0-9.25-4.94-13.88-13.83-13.95Zm-33.29,70.67q-23.24,0-23.24-23.14,0-23.93,23.5-23.93,23.2,0,23.2,23.02,0,24.05-23.46,24.05Zm201.27-55.27c.08-10.22-4.59-15.44-14.84-15.46-21.67-.03-43.34-.09-65,.03-8.8,.05-14.18,4.21-14.2,13.56-.05,22.46-.02,44.91-.01,67.37,0,9.4,5.06,13.48,14.12,13.43,10.64-.06,21.27-.01,31.91,0,10.64,0,21.28-.25,31.91,.08,10.72,.33,16.22-4,16.12-15.18-.2-21.27-.17-42.55,0-63.82Zm-46.64,55.27q-23.77,0-23.77-23.74,0-23.33,22.89-23.33,23.81,0,23.81,23.63,0,23.45-22.93,23.45Z"/>
</svg>