<?xml version="1.0" encoding="UTF-8"?>
<svg id="Layer_1" data-name="Layer 1" xmlns="http://www.w3.org/2000/svg" viewBox="0 0 800 800">
  <defs>
    <style>
      .cls-1 {
        fill: none;
      }

      .cls-2 {
        fill: #010101;
      }
    </style>
  </defs>
  <rect class="cls-1" width="800" height="800"/>
  <path class="cls-2" d="M749.24,312.48C696.12,111.84,492.68-7.51,293.82,50.03,154.63,90.3,72.27,187.75,46.51,329.65c-15.72,86.6,2.78,169.01,48.06,244.78,3.93,6.58,4.02,11.78,1.6,18.25-17.65,47.18-35.16,94.41-52.82,141.59-3.25,8.69-6.17,17.31,1.62,25.03,8.2,8.13,17.05,5.14,26.15,1.24,45.02-19.27,90.21-38.14,135.1-57.7,7.64-3.33,13.14-3.21,20.5,1.02,78.38,45.07,162.27,59.44,251.09,42.71,165.15-31.1,282.33-173.47,282.83-342.94,.19-30.88-3.53-61.43-11.4-91.15Zm-247.07,392.28c-91.22,28.26-179.41,15.29-261.5-33.58-14.98-8.92-26.89-10.72-42.96-3.04-30.98,14.8-63.1,27.25-94.8,40.52-4.17,1.75-8.13,5.06-13.43,3.41,15.55-41.98,30.8-83.02,45.92-124.12,3.07-8.34-.13-15.4-4.7-22.55-41.26-64.7-58.55-135.13-51.67-211.79,11.53-128.5,104.84-238.95,230.49-271.7,181.26-47.25,368.69,67.71,407.61,250,35.57,166.56-53.22,322.74-214.96,372.85Zm102.82-227.35c-26.1-16.9-52.75-33.02-79.85-48.26-17.25-9.7-33.83-6.32-47.4,8.49-7.02,7.65-14.55,15.07-20.2,23.68-7.52,11.48-15.37,11.21-26,4.78-40.39-24.41-72.96-56.69-97.68-96.73-10.7-17.33-10.08-17.7,6.09-30.73,4.41-3.55,8.84-7.1,13.11-10.82,24.59-21.45,27.35-35.48,11.17-64.12-10.89-19.27-23.19-37.72-34.4-56.82-18.06-30.76-40.75-37.75-70.46-18.19-62.22,40.94-75.15,84.18-55.42,151.93,25.19,86.5,79.47,152.2,151.65,203.85,45.95,32.88,96.31,55.34,143.47,57.57,54.26,.91,108.02-39.11,118.89-81.48,4.21-16.41,2.68-33.04-12.96-43.17Zm-21.38,35.42c-8.25,26.08-46.77,54.99-73.55,54.5-44.61-2.37-84.18-19.18-121.05-43.06-68.59-44.43-119.44-103.69-147.15-181.17-7.89-22.05-14.92-45.15-8.98-69.11,6.71-27.1,26.45-43.85,49.13-57.53,4.89-2.95,10.3-3.74,14.36,3.24,12.57,21.6,25.43,43.04,38.79,64.16,4.44,7.02,2.23,11.07-3.16,15.42-8.45,6.82-16.93,13.63-25.09,20.8-18.31,16.07-20.54,26.69-11.68,50.2,8.67,22.98,23.57,41.85,39.54,59.88,24.86,28.06,52.06,53.5,86.3,69.99,29.06,13.99,40.63,11.21,61.34-13.6,.3-.36,.6-.73,.91-1.09q23.38-28.27,53.84-8.64c13.5,8.64,27.26,16.88,40.99,25.15,4.24,2.56,7.54,4.37,5.49,10.88Z"/>
</svg>