<?xml version="1.0" encoding="UTF-8"?>
<svg id="Layer_1" data-name="Layer 1" xmlns="http://www.w3.org/2000/svg" viewBox="0 0 800 800">
  <defs>
    <style>
      .cls-1 {
        fill: #010201;
      }

      .cls-2 {
        fill: none;
      }
    </style>
  </defs>
  <rect class="cls-2" width="800" height="800"/>
  <path class="cls-1" d="M709.74,672.66c-33.99-58.58-67.71-117.32-101.74-175.87-3.98-6.85-5.95-13.62-5.89-21.62,.31-39.05,.14-78.11,.14-117.17,0-66.63,.02-133.25-.01-199.88-.02-33.75-14.64-48.49-48-48.51-22.59-.01-45.18,0-67.77,0-22.74,0-23.02,0-23.32-22.11-.15-10.68-5.02-15.5-15.33-15.51-13.02-.02-26.06-.47-39.04,.15-8.1,.39-12.75-1.9-17.37-9.25-21.57-34.37-71.78-38.58-95.76-6.35-10.22,13.73-20.4,16.9-35.07,15.5-4.55-.43-9.18-.07-13.78-.07-27.72,0-28.09,0-28.12,27.93,0,8.61-3.34,9.95-10.8,9.85-27.56-.36-55.13-.18-82.69-.13-30.15,.05-45.78,15.8-45.79,46.18-.03,86.16-.01,172.31-.01,258.47,0,85.77-.01,171.55,0,257.32,0,31.96,15.23,47.32,46.95,47.33,76.19,.03,152.38,.12,228.56-.16,7.92-.03,11.91,1.89,14.86,9.89,9.72,26.36,29.41,41.38,57.43,41.65,76.95,.73,153.91,.61,230.86,.06,26.1-.19,45.06-13.79,56.04-37.33,9.63-20.64,6.99-40.82-4.35-60.36ZM241.5,136.91c.87-11.02,.52-22.18,.09-33.26-.25-6.37,1.61-8.82,8.29-8.59,12.99,.45,26.01-.19,39,.24,8.95,.3,14.01-3.08,17.05-11.74,5.71-16.29,18.45-25.13,34.52-25.32,15.97-.19,29.51,8.58,35.07,24.55,3.38,9.72,9.04,13,18.82,12.54,12.21-.57,24.49,.25,36.7-.28,7.27-.32,9.21,2.4,8.89,9.26-.5,10.69-.68,21.45,.04,32.11,.57,8.46-1.86,11.19-10.68,11.02-29.44-.56-58.89-.21-88.34-.21-29.45,0-58.9-.27-88.34,.18-8.12,.12-11.83-1.32-11.11-10.5Zm135.02,534.22c-.96,1.66-2.42,3.24-2.73,5.02-3.47,19.9-17.27,20-33.57,19.83-71.23-.72-142.47-.29-213.71-.32-18.75,0-23.85-5.1-23.86-23.81-.02-171.61-.01-343.22,0-514.82,0-19.33,4.95-24.17,24.62-24.19,27.19-.03,54.39,.28,81.57-.19,7.67-.13,9.72,2.22,9.79,9.71,.26,28.12,.52,28.11,29.16,28.11,65.11,0,130.22,.02,195.33-.01,17.29,0,19.87-2.67,19.91-20.04,0-3.45,.22-6.91-.04-10.34-.42-5.48,1.9-7.36,7.34-7.33,30.26,.18,60.51-.07,90.77,.21,11.01,.1,16.69,6.04,17.74,17.01,.22,2.28,.16,4.59,.16,6.89,0,96.53,0,193.06-.01,289.59,0,2.98-.27,5.97-.5,10.77-22.27-12.24-43.48-14.19-65.13-3.24-12.04,6.09-20.63,15.62-27.27,27.14-36.51,63.34-73.05,126.67-109.57,190Zm276.27,76.17c-36.74,.33-73.48,.07-110.23,.07-35.98,0-71.96,.11-107.93-.03-38.95-.14-57.03-31.45-37.64-65.13,35.88-62.33,71.78-124.63,107.79-186.89,19.79-34.21,55.93-34.13,75.85,.25,36.25,62.55,72.37,125.18,108.4,187.86,18.36,31.94,.51,63.53-36.24,63.87ZM412.12,233.85c26.74,0,53.49,.02,80.23-.01,8.15,0,16.33,.85,16.55,11.25,.23,11.2-8.39,12.04-16.93,12.04-53.49,0-106.98-.03-160.47,.03-8.31,0-16.51-1.41-16.69-11.32-.19-10.71,8.32-12.07,17.07-12.04,26.74,.11,53.49,.04,80.23,.04Zm-.61,153.79c27.13,0,54.25,0,81.38-.02,5.03,0,10.04,.04,13.68,4.31,5.1,5.98,2.75,15.06-4.99,17.71-3.49,1.2-7.5,1.21-11.28,1.21-52.34,.07-104.69,.05-157.03,.05-1.53,0-3.06,.02-4.58-.03-7.79-.27-14.05-3.37-13.94-11.84,.11-8.47,6.39-11.41,14.25-11.4,27.51,.02,55.02,0,82.53,0Zm.05-63.11c-26.76,0-53.52-.12-80.28,.07-8.53,.06-16.4-1.73-16.48-11.49-.07-9.55,7.39-11.99,16.14-11.97,53.91,.14,107.81,.11,161.72,.04,8.37-.01,16.08,1.35,16.27,11.59,.19,10.43-7.57,11.8-15.94,11.78-27.14-.07-54.29-.03-81.43-.02Zm-45.27,153.62c-12.58,0-25.17-.08-37.75,.02-8.1,.06-13.94-3.44-13.76-11.72,.18-8.14,6.13-11.61,14.14-11.6,25.16,.05,50.33,.01,75.49,.03,7.99,0,13.66,3.33,13.59,11.9-.08,8.74-6.06,11.45-13.97,11.39-12.58-.1-25.16-.03-37.75-.03Zm-.35,86.52c-12.2,0-24.4,.01-36.59,0-8.34,0-14.87-3.35-14.59-12.31,.26-8.31,6.61-11.06,14.53-11.02,24.78,.14,49.55,.11,74.33,.02,7.76-.03,14.07,2.14,14.38,10.96,.34,9.42-6.07,12.3-14.32,12.33-12.58,.05-25.16,.01-37.74,.01Zm-14.16,67.18c-8.39-.02-16.79,.15-25.18-.07-7.19-.18-11.8-4.28-11.9-11.29-.1-7.06,4.6-11.48,11.63-11.62,17.54-.33,35.1-.39,52.64,.04,6.95,.17,11.43,4.46,11.17,11.87-.26,7.44-5.04,10.84-12.04,11.03-8.77,.23-17.55,.06-26.32,.04Zm-88.57-199.6c0-9.94-.07-19.89,.02-29.83,.09-9.96-4.71-14.82-14.68-14.8-20.65,.05-41.29,.03-61.94,.02-10.04,0-14.55,5.2-14.52,15.02,.07,20.27,.02,40.53,.02,60.8,0,9.82,4.64,14.79,14.75,14.72,20.65-.15,41.29-.14,61.94,0,10.24,.06,14.5-5.18,14.43-14.95-.08-10.32-.02-20.65-.02-30.97Zm-44.76,22.64q-23.11,0-23.11-23.43,0-20.57,22.63-20.57,22,0,22,22.37,0,21.63-21.52,21.63Zm44.76,131.04c0-9.94-.05-19.89,.01-29.83,.06-9.9-4.54-14.8-14.66-14.72-20.65,.15-41.3,.12-61.95,0-10.21-.06-14.52,5.22-14.5,14.96,.03,20.27,.03,40.54,0,60.82,0,9.87,4.72,14.83,14.74,14.79,20.65-.08,41.3-.06,61.95-.01,10.14,.03,14.53-5.21,14.43-15.02-.1-10.33-.02-20.65-.02-30.98Zm-45.2,22.75q-22.67,0-22.67-22.78,0-21.24,20.78-21.24,23.86,0,23.86,23.94,0,20.08-21.97,20.08Zm45.23-359.89c.05-9.93-4.67-14.93-14.61-14.93-20.65,0-41.29-.02-61.94,0-9.21,0-14.48,4.43-14.53,13.87-.12,21.03-.15,42.06,.02,63.09,.07,9.4,5.29,13.79,14.61,13.7,10.32-.1,20.65-.02,30.97-.02,9.94,0,19.89-.19,29.82,.05,10.44,.26,15.71-4.32,15.66-14.97-.1-20.27-.09-40.53,0-60.8Zm-45.88,52.44q-22.02,0-22.02-21.97,0-22.16,21.99-22.16,22.64,0,22.64,22.65,0,21.48-22.61,21.48Zm353.7,246.91c-.16-16.91-10.09-26.17-27.89-26.34-17.7-.16-29.23,9.13-28.98,25.28,.5,31.77,1.64,63.53,3.28,95.26,.78,15.07,11.45,24.61,25.19,24.61,13.82,0,23.76-9.52,24.87-24.71,1.17-16.03,1.67-32.11,2.46-48.17,.37,0,.73,0,1.1,0,0-15.31,.12-30.62-.03-45.92Zm-23.14,3.1c-.86,20.6-1.62,41.2-2.41,61.81-2.54,6.89-.44,14.05-1.24,21.03-.28,2.48,1.65,6.35-3.33,6.54-.12-1.28-.24-2.56-.36-3.83-1.75-17.56-.25-35.17-.83-52.74-.14-4.13,1.15-8.43-1.16-12.36-.46-6.85-.92-13.7-1.39-20.55-.25-3.54,.8-5.97,4.86-6.17,4.5-.22,6.05,2.01,5.88,6.29Zm-5.2,123.88c-16.05-.04-29.26,13.13-29.13,29.05,.13,15.34,12.97,28.42,28.37,28.88,15.76,.47,29.29-12.69,29.5-28.69,.21-16.24-12.53-29.2-28.74-29.24Zm5.43,30c-1.14,3.06-3.12,5.21-6.63,4.39-3.23-.76-5.23-3.09-4.49-6.54,.71-3.3,3.15-5.16,6.58-4.42,3.27,.7,4.99,2.98,4.54,6.57Z"/>
</svg>