<?xml version="1.0" encoding="UTF-8"?>
<svg id="Layer_1" data-name="Layer 1" xmlns="http://www.w3.org/2000/svg" viewBox="0 0 800 800">
  <defs>
    <style>
      .cls-1 {
        fill: none;
      }

      .cls-2 {
        fill: #010101;
      }
    </style>
  </defs>
  <rect class="cls-1" width="800" height="800"/>
  <path class="cls-2" d="M763,203.99c.04-10.17-3-17.72-10.23-24.87-42.95-42.48-85.72-85.16-128.15-128.16-7.77-7.88-15.91-11-26.86-10.98-111.86,.28-223.71,.17-335.57,.19-4.12,0-8.27,.03-12.37,.44-23,2.29-38.35,18.64-38.96,41.7-.29,10.87-.52,21.78,.07,32.63,.41,7.67-1.51,10.76-9.84,9.99-11.61-1.07-23.15,.63-34.66,2.8-77.3,14.61-132.83,89.3-124.05,167.18,9.13,81,77.1,141.6,156.81,139.14,9.47-.29,11.84,1.88,11.8,11.3-.36,88.92-.23,177.84-.2,266.76,0,32.87,16,48.86,49.16,48.88,150.89,.05,301.79,.05,452.68,0,34.06,0,50.19-16.31,50.19-50.49,.02-84.04,0-168.09,0-252.13s-.13-169.59,.17-254.38Zm-141.22-110.85c29.34,29.24,58.58,58.37,88.06,87.74-27.16,0-55.09-.02-83.02,.02-4.04,0-5.06-2.33-5.05-5.78,.02-27.63,0-55.26,0-81.98Zm-402.02,61.87c48.27,7.66,94.18,53.25,101.42,100.82,1.1,7.19-.64,9.79-8.45,9.69-31.09-.41-62.2-.39-93.3,0-6.92,.09-8.93-1.74-8.7-8.7,.54-15.71,.17-31.46,.17-47.19,0-15.73,.41-31.48-.18-47.19-.28-7.62,2.4-8.48,9.04-7.43Zm-41.37,249.8c-70.72-12.29-116.9-74.23-107.09-143.64,7.34-51.96,48.77-95.57,100.14-105.85,8.17-1.64,11.36-.22,11.01,9.02-.71,18.34-.21,36.72-.21,55.09,0,17.62-.05,35.23,.01,52.85,.06,17.21,4.21,21.45,21.09,21.48,36,.05,72,.4,107.98-.23,10.1-.18,11.22,3.72,9.47,11.82-14.14,65.17-78.97,110.51-142.4,99.48Zm555.75,307.73c0,15.93-4.11,20.03-19.95,20.04-75.81,.05-151.62,.02-227.43,.02-75.44,0-150.87,.01-226.31,0-17.7,0-21.64-3.98-21.64-21.97-.03-90.41,.1-180.82-.21-271.23-.03-8.17,2.58-11.69,10.19-14.37,60.87-21.47,101.63-78.75,102.57-143.37,.94-64.39-38.31-123.24-98.73-145.91-11.17-4.19-15.35-9.21-14.04-20.75,1.01-8.89,.09-17.99,.23-26.99,.22-14.91,4.69-19.39,19.68-19.41,62.68-.06,125.35-.02,188.03-.02,45.79,0,91.58,.18,137.36-.17,7.9-.06,10.13,2.16,10.05,10.06-.4,37.14-.22,74.28-.16,111.42,.03,15.06,4.26,19.36,19.52,19.41,36.78,.12,73.56,.28,110.34-.15,8.21-.1,10.76,1.75,10.74,10.46-.28,164.31-.2,328.63-.23,492.94Zm-177.06-418.78c-32.64,0-65.29,0-97.93,0-3,0-6.02,.11-9-.12-8.25-.65-13.47-5.06-13.83-13.4-.39-9.04,5-13.7,13.68-14.67,2.97-.33,5.99-.23,8.99-.23,65.29-.01,130.57,0,195.86,0,1.5,0,3-.04,4.5,0,12.51,.38,18.78,5.38,18.45,14.72-.31,8.81-6.51,13.64-18.29,13.67-34.14,.1-68.29,.03-102.43,.04Zm-.2,56.29c-34.52,0-69.04-.03-103.56,.02-9.51,.02-16.33-3.45-17.02-13.75-.48-7.23,3.41-12.32,10.59-13.83,4.34-.91,8.94-.84,13.42-.85,64.53-.05,129.07-.03,193.6-.03,2.25,0,4.5-.04,6.75,.03,9.18,.27,16.44,3.22,17.09,13.78,.55,8.93-6.01,14.53-17.33,14.57-34.52,.14-69.04,.05-103.56,.05Zm-80.41-197.03c-23.63,0-47.25,.1-70.88-.04-9.06-.05-16.51-2.7-16.91-13.65-.35-9.52,5.29-14.63,16.95-14.68,34.5-.15,69-.06,103.5-.06,13.13,0,26.25-.17,39.38,.07,10.62,.19,16.89,5.55,16.61,14.14-.35,10.58-7.41,14.08-16.65,14.15-24,.17-48,.06-72,.07Zm.63,27.87c23.25,0,46.5-.08,69.75,.03,11.79,.06,17.98,4.85,18.31,13.64,.34,9.36-5.9,14.67-18.41,14.7-46.88,.13-93.75,.15-140.63-.01-12.31-.04-17.5-4.65-17.46-14.22,.04-9.33,5.65-14.04,17.56-14.1,23.63-.13,47.25-.04,70.88-.04Zm-84.25,112.7c-7.09-.61-12.12-4.83-12.93-13.13-.78-7.98,5.47-14.85,13.45-14.67,8.22,.19,13.37,4.47,14.08,12.92,.66,7.88-5.64,14.62-14.6,14.88Zm0,56.3c-7.09-.61-12.12-4.83-12.93-13.13-.78-7.98,5.47-14.85,13.45-14.67,8.22,.19,13.37,4.47,14.08,12.92,.66,7.88-5.64,14.62-14.6,14.88Zm-200.22,28.02c-49.79-.9-93.22-43.83-94.38-93.31-.28-11.8,4.1-18.23,12.83-18.84,8.78-.61,13.98,5.12,15.24,16.76,4.24,39.3,28.78,63.37,68.53,67.22,10.12,.98,16.49,7.16,15.77,15.29-.75,8.35-7.33,13.06-17.98,12.87Zm492.96,45.71c-15.26-11.77-35.73-11.94-51.22-.42-14.89,11.07-20.87,31.44-13.35,49.27,2.86,6.78,1.36,10.6-3.31,15.53-25.79,27.24-51.25,54.8-76.78,82.27-7.5,8.07-13.94,17.89-27.73,13.35-2.5-.82-6.02,.41-8.74,1.51-5.19,2.1-8.25,.11-11.42-3.93-10.4-13.29-20.87-26.55-31.81-39.39-4.97-5.83-6.79-10.85-4.5-18.88,5.03-17.63-2.51-35.31-17.34-44.99-14.63-9.56-33.27-9.23-47.63,.84-14.25,9.99-21.15,28.44-15.93,45.72,1.68,5.55,1.08,8.85-2.74,12.87-13.67,14.43-27.18,29.03-40.41,43.87-4.04,4.53-7.67,5.36-13.65,3.88-27.02-6.68-51.97,13.24-51.87,43.81,.66,14.19,8.2,27.34,23.83,34.8,16.06,7.66,31.62,5.44,45.26-5.8,13.4-11.04,17.97-26.02,13.66-42.44-1.86-7.08-.5-10.95,4.03-15.7,12.42-13.03,24.78-26.15,36.48-39.82,5.32-6.22,10.26-8.68,18.24-5.51,5.66,2.25,11.98,1.55,17.68-.61,5.18-1.96,8.26-.31,11.45,3.79,9.2,11.85,18.36,23.77,28.3,34.99,7.36,8.31,12.47,16.26,7,27.71-1.32,2.77-.93,6.72-.36,9.96,3,17.13,11.74,29.76,28.92,35.39,16.68,5.46,31.46,1.52,43.29-10.78,12.49-12.98,15.98-28.71,8.51-45.58-2.55-5.76-1.92-9.19,2.32-13.68,29.12-30.8,58.02-61.81,86.81-92.92,3.44-3.72,6.55-4.71,11.68-4.06,19.51,2.48,38.07-8.8,44.99-26.53,6.68-17.08,1.01-37.18-13.68-48.51Zm-376.68,215.6c-8.51-.34-13.3-5.47-13.28-13.5,.01-8.06,4.91-12.94,12.94-13.48,8.9,.25,13.55,5.04,14.46,13.01,.86,7.54-6.19,14.28-14.11,13.97Zm107.97-112.52c-8.72-.27-13.84-4.59-14.17-12.89-.32-8.17,4.05-13.37,12.56-14.05,8.07-.65,14.72,5.42,14.52,13.32-.21,8.43-5.07,12.7-12.91,13.61Zm98.5,112.39c-8.25,.32-13.35-3.82-13.9-12.45-.54-8.48,4.97-14.53,13.22-14.31,8.37,.22,12.76,4.92,13.83,13.03-.66,8.24-4.77,13.41-13.15,13.73Zm143.97-168.8c-8.63-.32-13.27-5.69-13.22-13.53,.05-7.87,4.87-13.01,13.92-13.38,7.89,.4,12.67,4.87,13.36,13.06,.65,7.77-6.05,14.15-14.06,13.85Z"/>
</svg>