<?xml version="1.0" encoding="UTF-8"?>
<svg id="Layer_1" data-name="Layer 1" xmlns="http://www.w3.org/2000/svg" viewBox="0 0 800 800">
  <defs>
    <style>
      .cls-1 {
        fill: #070808;
      }

      .cls-2 {
        fill: none;
      }
    </style>
  </defs>
  <rect class="cls-2" width="800" height="800"/>
  <path class="cls-1" d="M420.27,95.16c0,17.9-.17,35.8,.07,53.7,.12,8.73-1.89,16.04-11.82,16.73-10.55,.73-12.84-7.02-12.87-15.51-.11-36.58-.1-73.15-.02-109.73,.02-8.55,2.29-16.13,12.84-15.49,10.05,.61,11.99,7.87,11.87,16.6-.24,17.9-.07,35.8-.07,53.7Zm-117.01,57.89c.29,7.65,4.55,12.46,12.4,12.66,7.56,.19,11.81-4.72,12-11.64,.52-18.66,.56-37.35,.15-56.01-.17-7.57-5.16-12.66-12.83-12.1-7.34,.54-11.78,5.49-11.81,13.38-.04,8.56,0,17.13,0,25.69,0,9.34-.26,18.69,.09,28.02Zm184.54-.95c.04,8.28,3.95,13.54,12.46,13.55,8.14,0,11.63-5.31,11.67-12.99,.08-17.87,.03-35.74,.05-53.6,0-7.9-4.17-13.07-11.73-13.07-8.04,0-12.49,5.28-12.47,13.68,.02,8.55,0,17.09,.01,25.64,0,8.93-.03,17.87,.02,26.8Zm232.51,467.23c-70.61,45.68-140.55,92.46-212.21,136.43-37.7,23.13-79.78,22.88-122,10.54-44.37-12.97-89.15-24.54-133.45-37.73-23.03-6.86-39.69,5.85-57.72,15.4-3.07,1.62-2.03,4.79-2.23,7.36-.84,11.28-6.15,16.64-18.11,16.13-30.01-1.29-60.05-1.8-90.07-2.84-11.03-.38-14.92-5.46-14.54-17.89,1.9-62,3.81-123.99,5.68-185.99,.21-7.02,.17-14.05,.32-21.07,.2-8.95,4.73-13.9,13.78-13.69,31.59,.73,63.18,1.53,94.76,2.57,8.69,.29,13.64,4.89,13.37,14.16-.16,5.76-.03,11.52-.03,18.63,28.44-14.13,57.41-19.32,87.98-16.91,22.16,1.75,42.74,8.14,62.06,18.63,17.91,9.72,36.8,13.93,57.12,14.14,28.08,.29,56.18,1.09,84.21,2.74,23.55,1.39,42.45,12.79,55.63,32.16,4.98,7.32,8.25,7.3,15.59,3.66,28.56-14.14,57.46-27.6,86.42-40.9,29.14-13.38,60.78-5.36,78.09,19.25,7.81,11.11,6.71,17.84-4.66,25.2Zm-556.09-66.63c-18.7-.2-37.41-.51-56.08-1.44-7.22-.36-8.35,2.72-8.39,8.83-.15,28.83-.57,57.67-2.65,82.5-.07,32,.11,60.08-2.13,88.07-.61,7.58,1.59,10.27,9.39,10.18,17.92-.21,35.87-.1,53.75,.91,8.2,.46,9.44-2.58,9.61-9.71,1.38-56.87,2.99-113.73,4.93-170.58,.24-6.98-2.12-8.68-8.42-8.75Zm535.62,50.21c-14.33-11.18-28.29-12.39-42.93-5.54-30.64,14.34-61.16,28.95-91.78,43.33-4.63,2.18-6.91,4.12-5.77,10.38,2.75,15.03-2.3,20.51-17.06,20.2-42.91-.92-85.82-1.96-128.73-3.04-5.06-.13-10.23-.22-15.12-1.34-9.01-2.08-12.25-12.26-6.57-19.27,3.63-4.47,8.56-4.76,13.79-4.61,39,1.18,78.01,2.24,117.01,3.43,11.61,.36,12.49-.64,7.39-11.28-9.68-20.2-26.23-30.34-48.28-31.31-24.55-1.07-49.14-2.36-73.7-2.1-27.6,.29-52.52-6.91-77.16-19.24-41.84-20.93-84.19-18.89-125.5,3.08-4.41,2.35-8.65,4.49-8.81,10.98-.94,39.31-2.25,78.62-3.43,117.8,3.78,1.03,6.04-.86,8.25-2.17,19.24-11.38,39.13-13.08,60.66-6.7,43.94,13.01,88.11,25.25,132.3,37.39,39.68,10.9,77.66,8.56,112.91-15.23,22.91-15.46,46.35-30.11,69.55-45.13,40.49-26.21,80.99-52.43,122.98-79.62Zm-113.56-235.58c-.52,98.66-81.25,178.07-180.52,177.54-97.17-.51-176.6-81.46-176.03-179.38,.58-98.78,80.41-177.75,179.08-177.16,98.74,.59,177.98,80.52,177.46,179Zm-24.88-1.61c-.26-76.98-62.54-152.39-153.39-152.84-84.37-.42-154.75,69.34-153.92,153.62,.86,88.13,71.8,153.96,154.15,153.26,88.41,.2,153.44-74.31,153.17-154.05Zm-102.97,25.79c-8.44-25.26-26.28-37.19-52.37-38.76-15.16-.91-25.33-12.06-25.72-26.58-.4-14.74,9.02-25.88,23.94-28.31,15.6-2.54,28.91,8.26,31.61,26.84,1.24,8.52,5.34,13.49,13.36,12.73,8.14-.77,11.07-6.9,10.89-15.21-.42-18.97-13.63-38.59-32.83-45.56-6.54-2.37-9.86-4.8-9.14-12.09,.83-8.37-3.65-14.2-11.85-14.09-8.7,.12-13.17,6.18-12.17,15.06,.72,6.37-1.67,9.24-7.66,11.96-23.58,10.73-35.03,33.92-29.74,58.21,5.5,25.27,24.02,40.5,51.52,42.35,14.1,.95,23.26,8.45,26.66,21.81,2.81,11.07-2.74,23.47-13.31,29.75-17.56,10.42-38.17-.54-41.2-22.13-1.25-8.92-5.14-15.53-14.81-13.79-9.29,1.67-11.75,9.06-10.14,17.96,3.48,19.24,12.94,34.16,31.43,41.85,6.2,2.58,7.8,6.26,7.25,12.36-.8,8.84,3.48,14.86,12.38,14.85,8.45,0,12.49-6.12,11.62-14.29-.78-7.36,2.76-9.47,8.98-12.09,20.87-8.79,31.96-25.02,33.1-45.51-.5-7.37-.12-12.33-1.8-17.35Z"/>
</svg>