<?xml version="1.0" encoding="UTF-8"?>
<svg id="Layer_1" data-name="Layer 1" xmlns="http://www.w3.org/2000/svg" viewBox="0 0 800 800">
  <defs>
    <style>
      .cls-1 {
        fill: none;
      }

      .cls-2 {
        fill: #010101;
      }
    </style>
  </defs>
  <rect class="cls-1" width="800" height="800"/>
  <path class="cls-2" d="M688.27,230.9c-3.34,9.62-5.74,17.33-8.7,24.81-2.96,7.48-8.56,11.31-16.77,9.11-8.85-2.38-12.17-9.25-9.73-17.27,5.71-18.76,12.02-37.37,19.09-55.65,2.61-6.75,9.19-9.48,16.82-6.89,17.18,5.85,34.41,11.57,51.54,17.57,8.52,2.98,12.87,8.99,10.39,18.19-2.19,8.13-9.8,10.79-19.95,8.3-3.85-.95-7.33-4.16-12.32-2.12,22.49,39.67,35.94,82.55,41.45,127.55,7.89,64.41-.03,127.29-26.79,186.6-48.42,107.32-129.79,177.8-244.24,205.86-103.12,25.29-199.92,6.51-288.28-53.12-11.57-7.81-14.01-14.7-8.63-22.67,5.18-7.69,13.66-7.92,24.42-.52,66.03,45.43,139.63,65.93,218.71,56.83,131.46-15.13,225.42-84.91,275.63-207.7,38.93-95.21,30.88-189.77-17.49-280.67-1.18-2.22-2.67-4.28-5.14-8.2ZM77.8,568.66c-10.21-2.47-17.48,.16-20.14,8.11-2.68,7.99,1.47,15.18,11.33,18.64,16.42,5.76,32.99,11.12,49.43,16.83,9.71,3.38,15.98-.2,19.27-9.33,6.02-16.72,12.02-33.46,17.44-50.38,2.62-8.19,1.16-16.04-8.11-19.24-8.95-3.09-15.08,.86-18.24,9.64-2.66,7.4-5.36,14.79-8.45,23.32-1.73-2.33-2.68-3.38-3.38-4.59-23.7-41.17-37.55-85.61-41.66-132.75-3.75-42.99,.38-85.42,13.24-126.9C127.98,174.73,239.31,82.22,374.1,69.88c79.33-7.26,152.68,12.04,218.6,57.64,9.96,6.89,18.45,6.57,23.57-.7,5.45-7.73,3.19-14.74-7.33-22.03-75.42-52.23-159.19-72.58-249.73-61.66-73.81,8.9-139.9,38.04-194.17,89.35C57.25,234.41,23,357.93,61.1,501.42c6.39,24.05,16.89,46.45,28.05,68.98-5.52,1.88-8.2-.99-11.35-1.75Zm579.47-123.54c-.05,12.33-4.47,16.69-16.93,16.86-14.55,.2-29.12,.4-43.65-.12-6.08-.22-9.55,2.37-10.34,7.5-1.05,6.8-10.35,12.83-1.08,20.89,10.39,9.04,19.78,19.25,29.42,29.12,10.21,10.45,10.25,16.42,.27,26.45-21.31,21.41-42.65,42.77-64.07,64.07-9.56,9.51-15.72,9.46-25.61-.18-9.35-9.11-18.61-18.33-27.69-27.71-4.31-4.44-7.86-8.51-15.07-4.36-7.28,4.18-17.03,4.38-15.42,17.48,1.53,12.5,.41,25.34,.31,38.02-.12,14.7-4.03,18.66-18.43,18.73-14.93,.07-29.85,.02-44.78,.02-15.3,0-30.6,.1-45.89-.03-12.53-.11-16.91-4.33-17.09-16.67-.21-14.55-.35-29.12,.09-43.66,.18-5.85-1.79-9.79-7.23-10.5-6.85-.9-12.78-10.52-20.93-1.34-9.39,10.59-19.78,20.3-29.95,30.18-9.9,9.61-15.92,9.53-25.62-.12-21.4-21.31-42.75-42.66-64.07-64.05-9.71-9.74-9.81-15.77-.25-25.6,9.89-10.16,19.83-20.29,30.13-30.02,4.26-4.03,5.52-7.82,2.07-12.55-4.07-5.58-1.52-16.33-13.72-15.68-14.88,.79-29.84,.39-44.76,.11-10.99-.21-15.57-4.82-15.63-15.87-.18-31.35-.17-62.7,0-94.04,.06-11.64,4.56-16.08,16.36-16.29,14.55-.25,29.12-.5,43.65,.12,6.59,.28,10.15-2.4,11.16-8.02,1.22-6.76,9.9-12.88,.45-20.82-10.53-8.84-19.78-19.23-29.42-29.11-9.88-10.12-9.72-16.15,.5-26.4,21.06-21.12,42.14-42.21,63.27-63.27,10.02-9.99,16.06-9.99,26.43,.12,9.08,8.86,17.96,17.91,26.92,26.89,4.11,4.12,7.28,9.35,14.89,5.11,7.71-4.29,17.71-4.64,15.97-18.29-1.64-12.85-.48-26.08-.31-39.14,.17-12.51,4.5-17.03,16.69-17.08,30.97-.14,61.94-.14,92.91,0,12.11,.06,16.43,4.63,16.58,17.19,.17,14.18,.47,28.38-.15,42.53-.28,6.45,2.03,10.34,7.75,11.29,6.78,1.12,12.82,10.19,20.86,.87,9.24-10.7,19.75-20.34,29.92-30.21,9.32-9.04,15.78-9.03,24.84-.04,21.69,21.55,43.29,43.18,64.84,64.88,9.04,9.1,9.19,15.66,.33,24.85-10.1,10.47-20.32,20.84-30.94,30.79-4.54,4.25-4.65,8.23-1.49,12.67,3.82,5.38,1.43,15.61,12.93,15.14,14.9-.61,29.85-.33,44.77-.07,11.68,.21,16.16,4.74,16.21,16.44,.15,30.97,.14,61.95,0,92.92Zm-27.95-74.06c.15-6.71-2.44-8.11-8.5-7.93-12.68,.4-25.4-.38-38.06,.28-10.37,.54-16.26-4.06-18.79-13.47-2.81-10.47-6.89-20.44-12.26-29.73-5.27-9.1-3.23-15.94,3.92-22.73,9.46-8.99,18.39-18.54,27.82-27.57,3.46-3.32,5.07-5.39,.7-9.58-14-13.43-27.72-27.16-41.16-41.14-3.99-4.15-6.05-3.39-9.6,.35-9.5,10-19.51,19.52-29.2,29.34-5.21,5.27-11.09,7.9-18.01,4.07-11.41-6.31-23.46-11-35.75-15.12-7.36-2.46-10.68-7.22-10.57-14.98,.2-13.44-.36-26.89,.21-40.31,.3-7.11-2.15-9.06-8.89-8.67-8.93,.52-17.91,.13-26.87,.13-9.33,0-18.67,.26-27.99-.1-5.72-.22-7.9,1.52-7.71,7.54,.41,13.05-.41,26.16,.29,39.18,.57,10.57-4.55,16.19-13.74,18.66-10.48,2.81-20.4,6.98-29.73,12.24-8.66,4.88-15.3,3.38-21.87-3.43-9.32-9.66-19.14-18.85-28.33-28.63-3.65-3.88-5.73-4.24-9.61-.22-13.2,13.7-26.66,27.16-40.35,40.38-4.12,3.98-4.45,6.29-.05,10.39,10.08,9.41,19.52,19.51,29.36,29.19,5.78,5.68,7.26,11.86,3.25,19.1-5.77,10.4-10.3,21.33-13.73,32.71-2.59,8.59-7.87,12.71-17.24,12.35-13.04-.5-26.13,.16-39.18-.25-6.21-.2-8.51,1.52-8.37,8.06,.39,18.28,.46,36.59-.02,54.87-.19,7.19,2.47,8.77,9.05,8.53,12.67-.46,25.39,.29,38.06-.27,9.88-.44,15.46,3.98,17.98,12.97,3.02,10.76,7.19,21.1,12.72,30.73,5.01,8.73,3.01,15.35-3.68,21.84-9.37,9.09-18.21,18.75-27.87,27.51-5,4.54-4.21,6.97,.21,11.21,13.46,12.91,26.67,26.1,39.54,39.59,4.3,4.51,6.59,3.62,10.39-.38,9.5-10,19.51-19.52,29.22-29.33,5.31-5.37,11.26-7.21,18.11-3.44,11.08,6.11,22.78,10.73,34.76,14.64,7.78,2.54,11.23,7.59,11.04,15.85-.31,13.43,.13,26.88-.18,40.31-.12,5.46,.95,8.12,7.24,8.01,19.03-.35,38.07-.27,57.1-.03,5.35,.07,7.16-1.66,7.03-7.07-.33-13.43,.24-26.89-.22-40.31-.32-9.3,3.59-14.6,12.32-17.22,11.01-3.3,21.74-7.49,31.7-13.24,8.2-4.73,14.66-3.08,20.92,3.35,9.62,9.89,19.64,19.4,29.16,29.39,3.36,3.52,5.35,3.66,8.8,.11,13.53-13.9,27.21-27.66,41.16-41.14,3.92-3.79,3.93-5.87-.07-9.62-10.05-9.45-19.51-19.52-29.37-29.17-6.1-5.97-7.69-12.26-3.32-20,5.84-10.35,10.19-21.39,13.71-32.72,2.55-8.21,7.63-12.05,16.45-11.81,13.43,.38,26.88-.15,40.3,.21,5.78,.16,7.85-1.56,7.75-7.52-.31-18.66-.38-37.33,.03-55.99Zm-90.33,28.32c-.21,74.72-60.35,134.42-135.19,134.19-74.71-.22-134.39-60.36-134.18-135.22,.2-74.71,60.37-134.43,135.21-134.2,74.72,.22,134.37,60.35,134.16,135.24Zm-27.75-.27c.19-58.77-48.5-107.44-107.24-107.21-58.46,.23-106.47,48.27-106.64,106.7-.17,58.75,48.53,107.44,107.25,107.22,58.46-.22,106.44-48.23,106.63-106.71Zm-120.48-.91c-.03,9.01,4.33,14.05,13.41,14.14,16.41,.18,32.83,.1,49.25,.03,9.18-.04,13.77-5.02,13.58-13.97-.18-8.43-4.82-12.98-13.38-13.07-9.33-.09-18.68-.44-27.97,.11-6.61,.39-8.1-2.15-7.92-8.26,.4-13.8,.17-27.61,.1-41.42-.04-9.19-5.01-13.78-13.95-13.61-8.42,.16-13.03,4.75-13.09,13.35-.07,10.45-.02,20.9-.02,31.35,0,10.45,.02,20.9-.01,31.35Z"/>
</svg>