<?xml version="1.0" encoding="UTF-8"?>
<svg id="Layer_1" data-name="Layer 1" xmlns="http://www.w3.org/2000/svg" viewBox="0 0 800 800">
  <defs>
    <style>
      .cls-1 {
        fill: none;
      }

      .cls-2 {
        fill: #010101;
      }
    </style>
  </defs>
  <rect class="cls-1" width="800" height="800"/>
  <path class="cls-2" d="M722.97,174.55c-.03-17.98-2.48-21.22-19.1-25.82-100.18-27.72-195.03-68.19-284.82-120.37-13.64-7.92-24.17-7.75-37.69,.15-89.69,52.45-184.59,92.84-284.89,120.3-16.26,4.45-18.84,7.79-18.86,24.79-.07,50.49,.12,100.97-.07,151.46-.15,41.48,2.96,82.71,13.51,122.83,37.7,143.4,124.58,247.06,256.3,313.81,28.87,14.63,57.78,21.31,90.08,7.22,63.91-27.89,118.37-68.25,164.81-119.59,67.97-75.15,107.13-163.47,117.93-264.32,4.08-38.15,2.23-76.41,2.82-107.72,0-38.85,.04-70.8-.02-102.75Zm-34.1,205.82c-9.32,83.37-38.69,158.91-91.08,224.79-45.52,57.25-101.08,101.98-168.05,132.31-20,9.06-38.67,9.62-58.65,.05-123.69-59.24-207.08-152.92-245.44-285.42-12.46-43.03-16.62-87.08-16.45-131.7,.17-43.37,.19-86.75-.11-130.12-.06-7.98,1.21-12,10.31-14.64,94.39-27.42,184.4-65.43,269.61-114.51,8.03-4.62,14.08-4.91,22.34-.18,86.01,49.2,176.78,87.37,271.81,115.32,7.02,2.07,8.32,5.06,8.27,11.39-.25,27.99-.11,55.99-.11,89.46-.22,30.78,1.57,67.14-2.47,103.25ZM140.07,244.89c-.15-50.55-3.11-39.92,39.96-55.99,17.92-6.69,36.01-12.95,54.03-19.38,12.81-4.58,21.68-1.45,25.33,8.89,3.03,8.57-1.99,16.79-13.62,21.08-21.61,7.97-43.23,15.94-65.1,23.12-6.51,2.14-8.21,5.1-7.95,11.48,.5,12.18,.34,24.39,.09,36.58-.27,13.07-6.17,20.08-16.33,20.13-10.45,.05-16.06-6.64-16.36-19.95-.2-8.65-.04-17.31-.04-25.96Zm456.67,302.98c.75,5.5-2.62,9.62-5.46,13.79-25.65,37.79-56.81,70.4-92.9,98.33-9.17,7.1-18.2,6.89-24.08-.16-6.11-7.33-4.78-17.55,4.35-24.77,34.26-27.07,64.05-58.21,88.38-94.53,4.5-6.71,10.76-10.84,19.03-7.94,6.73,2.36,11.23,7.2,10.68,15.29Zm-165.81,128.05c.12-8.53,8-16.14,16.76-16.17,8.15-.03,15.83,7.45,15.98,15.57,.15,8.36-9.36,17.64-17.62,17.19-8-.44-15.23-8.37-15.12-16.58ZM288.09,179.73c-8.44-.48-15.3-8.21-14.69-16.57,.62-8.45,8.12-15.11,16.71-14.81,8.39,.29,15.58,7.84,15.36,16.13-.24,8.84-8.13,15.76-17.38,15.24Zm308.75,121.65c.41-12.88-3.55-23.68-11.46-33.06-21.24-25.18-55.09-25.3-80.62,.11-49.44,49.21-98.83,98.47-147.83,148.12-6.74,6.83-10.11,6.06-16.18-.36-15.42-16.31-31.43-32.09-47.55-47.72-22.22-21.55-53.08-22.42-74-2.46-20.63,19.67-21.69,51.94-.55,74.03,30.5,31.87,61.75,63.07,93.58,93.62,22.76,21.84,51.99,20.8,74.85-.97,8.56-8.15,16.81-16.63,25.17-24.99,55.17-55.18,110.28-110.43,165.55-165.51,11.58-11.54,19.93-24.26,19.04-40.8Zm-37.91,14.07c-16.65,17.34-33.92,34.1-50.92,51.1-47.11,47.11-94.26,94.18-141.3,141.37-4.86,4.87-9.91,8.92-17.34,9.57-6.38-.18-11.68-3.28-16.27-7.87-30.12-30.11-60.33-60.12-90.28-90.4-9.98-10.09-10.16-21.9-1.36-30.2,8.4-7.93,19.66-7.32,29.31,2.2,20.77,20.49,41.27,41.24,61.95,61.82,13.02,12.97,19.66,12.99,32.61,.05,53.81-53.75,107.57-107.55,161.35-161.34,6.53-6.53,13.22-12.71,23.62-9.81,15.44,4.3,20.17,21.49,8.64,33.5Z"/>
</svg>