<?xml version="1.0" encoding="UTF-8"?>
<svg id="Layer_1" data-name="Layer 1" xmlns="http://www.w3.org/2000/svg" viewBox="0 0 800 800">
  <defs>
    <style>
      .cls-1 {
        fill: none;
      }

      .cls-2 {
        fill: #010101;
      }
    </style>
  </defs>
  <rect class="cls-1" width="800" height="800"/>
  <path class="cls-2" d="M83.94,351.58c-5.1-17.48,4.73-28.53,21.23-36.16,6.05-2.8,11.21-7.86,17.42-9.93,15.05-5,17.15-17.96,20.71-30.39,1.17-4.1-1.31-6.89-2.92-9.86-6.56-12.13-13.13-24.26-20.21-36.09-4.98-8.32-5.17-15.94-.13-24.32,20.91-34.83,12.84-31.81,53.65-32.19,4.36-.04,8.71-.07,13.07-.09,21.26-.13,32.82-11.7,32.9-32.91,.04-11.09,.09-22.18,.18-33.28,.02-2.77-.21-5.64,.42-8.28,3.61-15.28,41.16-32.31,54.9-24.92,9.73,5.23,19.3,10.74,28.97,16.07,20.84,11.48,35.21,7.54,47.51-13.01,5.26-8.79,10.49-17.59,15.77-26.37,1.42-2.36,2.76-4.83,4.51-6.94,9.14-10.97,51.67-8.27,59.22,3.85,7.5,12.04,14.63,24.31,22,36.43,6.39,10.51,26.11,15.64,37.04,9.63,12.1-6.65,24.2-13.3,36.2-20.13,7.11-4.05,13.95-4.29,21.12-.14,38.87,22.52,32.79,13.86,33.5,54.96,.08,4.36,.05,8.72,.06,13.07,.07,19.5,12.21,31.82,31.45,31.95,12.28,.08,24.56,.22,36.84,.3,8.63,.06,14.98,3.61,19.31,11.33,21.62,38.52,20.94,26.94,1.56,63.34-2.03,3.82-4.14,7.6-6.25,11.39-10.25,18.41-6.01,34.16,12.12,44.96,5.42,3.23,10.83,6.5,16.22,9.78,24.11,14.65,31.24,32.3,24.09,59.93-1.64,6.35-5.91,9.99-12.46,10.98-6.41,.97-11.81-.87-15.31-6.3-1.64-2.54-3.38-6.23-2.75-8.82,5.15-21.01-8.53-29.33-23.88-36.96-5.99-2.98-11.63-6.68-17.37-10.16-6.36-3.86-8.92-10.01-12.03-16.66-13.54-28.94-4.64-53.4,11.76-77.85,10.25-15.28,5.4-22.35-13.22-22.73-2.77-.06-5.54-.13-8.32-.2q-39.94-1.01-66.85-30.46c-4.21-4.6-6.28-9.69-6.26-16.04,.04-13.47-.25-26.94-.73-40.4-.42-11.73-8.77-16.54-18.89-11-11.74,6.42-23.45,12.92-35,19.68-5.5,3.22-11.32,4-17.16,2.6-11.09-2.65-22.03-5.94-33.02-9-6.55-1.82-10.61-6.49-13.94-12.08-6.66-11.2-13.33-22.39-20.15-33.5-5.7-9.27-15.19-9.33-20.87-.12-6.84,11.09-13.64,22.21-20.14,33.51-4.23,7.35-10.1,11.97-18.52,13.27-.78,.12-1.58,.31-2.27,.68-28.48,14.95-51.82,1.79-75.33-13.03-14.75-9.3-21.59-4.98-22.13,12.44-.09,2.77-.61,5.63-.13,8.3,5.22,28.98-7.34,50-29.18,67.36-5.2,4.13-10.18,7.03-16.91,7.11-12.67,.13-25.34,.62-38.02,.92-15.37,.37-19.6,7.37-12.34,20.55,5.51,10.01,11.05,20,16.52,30.03,1.51,2.77,3.14,5.54,4.2,8.49,4.19,11.61-9.95,51.92-20.55,58.53-8.71,5.43-17.2,11.43-26.47,15.67-10.73,4.91-16.01,11.7-13.68,23.69,.52,2.66,.25,5.56-.07,8.29-1.09,9.23-6.85,14.69-15.68,14.56-8.63-.12-14.98-4.91-15.29-14.7-.18-5.54-.03-11.08-.03-18.63ZM375.08,197.08c-67.41,12.28-116.74,59.87-130.27,127.12-3.22,15.99-5.85,32.72-1.78,49.39,1.95,7.98,7.49,11.15,14.66,11.16,7.17,.02,12.46-3.23,14.81-11.06,2.47-8.25,1.36-16.52,1.64-24.74,2-57.51,42.35-106.34,98.92-119.27,55.67-12.73,115.32,16.1,140.82,67.77,10.41,21.1,13.36,43.41,12.95,66.61-.23,13.41,5.9,20.68,15.85,20.88,10.08,.2,16.56-7.03,16.43-20.27-.13-13.03-.36-26.26-2.66-39.03-13.68-75.81-79.92-130.59-157.62-130.11-7.19,.43-15.63,.07-23.74,1.55Zm6.57,63.49c-23.3,3.85-42.59,16.31-56.72,35.57-5.24,7.14-5.14,15.14,1.7,21.45,7.36,6.8,15.01,5.51,21.95-1.19,2.28-2.19,4.22-4.73,6.48-6.94,18.7-18.25,41.1-23.45,65.38-15.37,24.37,8.11,38.78,25.64,42.19,51.87,1.08,8.29,1.06,16.54,1.71,24.79,.71,9.1,6.37,13.61,14.64,14.09,8.43,.49,14.38-4.16,15.96-12.64,.86-4.58,.15-9.45,.15-14.19,.26-64.5-49.9-107.95-113.44-97.44Zm35.21-110.91c-1.38-8.83,3.69-19.7-13.56-18.06-19.1,1.82-19.23,.41-19.24,14.5q0,17.2,19.17,17.2c7.84,1.8,15.95,1.16,13.63-13.64Zm-219.3,203.29c-18.71,1.51-18.8,.35-18.81,14.97q0,17.86,14.55,17.86,16.9,0,16.9-18.93c.6-6.7,2.25-15.1-12.64-13.9Zm406.62,32.83q17.79,0,17.79-14.62,0-17.84-14.42-17.84-17.03,0-17.03,16.25t13.66,16.21Zm176.71,285.33c-.88,13.81-.52,27.73-.05,41.58,.31,9.15-2.96,15.79-10.05,21.45-23.55,18.77-50.11,29.59-80.23,31.43-11.87,.72-19.81-4.97-20.57-14.69-.75-9.56,6.22-16.71,18.36-17.14,19.55-.7,36.9-7.34,53.24-17.5,5.41-3.36,7.02-7.77,8.09-14.33,4.54-27.98-4.68-46.76-31-59.31-17.28-8.24-32.34-21.11-48.4-31.9-1.31-.88-2.64-1.73-3.97-2.56-3.09-1.94-52.86-2.32-55.9-.29-21.04,13.98-41.97,28.12-63.13,41.92-4.26,2.78-5.15,5.58-4.64,10.56,.85,8.24,.6,16.63,.27,24.93-.4,10.02-7.66,18.03-16.02,17.06-9.26-1.07-16.65-6.57-14.86-16.37,3.63-19.96-8.02-28.8-22.66-37.6-18.59-11.17-36.28-23.83-54.36-35.85-2.63-1.75-5.26-4.97-7.9-4.98-18.61-.11-38.88-6.86-55.46,1.97-26.01,13.85-49.64,32.14-74.42,48.32-5.82,3.8-9.14,8.13-8.18,15.46,.56,4.27,.02,8.7-.05,13.05-.16,10.22-6.42,15.9-15.55,15.83-9.21-.07-15.18-6.32-15.61-16.14-.32-7.51-1.17-15.26,.21-22.52,1.66-8.76-2.35-12.32-8.92-16.48-18.33-11.63-36.14-24.09-54.16-36.21-1.64-1.1-3.26-2.92-5-3.05-18.63-1.43-39.15-6.8-55.44,1.5-26.55,13.53-50.33,32.45-75.42,48.89-5.44,3.56-8.44,7.52-7.81,14.47,.67,7.47,1.07,15.18-.05,22.54-2.02,13.33,4.51,19.94,15.49,25.55,15.4,7.87,31.13,12.93,48.56,12.93,165.59-.03,331.17,.05,496.76,.12,5.12,0,10.22-.37,15.25,1.52,7.25,2.73,10.93,8.04,10.54,15.38-.35,6.71-3.82,11.81-10.91,13.91-5.04,1.49-10.09,1.62-15.24,1.62-82-.02-164-.02-246-.02,0,.1,0,.2,0,.29-82.79,0-165.58,.5-248.37-.25-33.3-.3-63.36-11.7-89.08-33.55-5.93-5.04-8.41-10.98-8.28-18.65,.25-15.05,.57-30.13-.06-45.15-.67-15.91,5.99-27.02,19.11-35.48,21.23-13.69,41.93-28.22,63.22-41.8,6.02-3.84,6.28-6.03,1.55-11.09-14.12-15.12-20.46-33.35-20.08-54.02,.21-11.09-.17-22.19,.29-33.27,1.77-43.55,35.76-75.95,79.3-75.84,42.52,.1,76.32,32.85,78.06,75.9,.45,11.07,.08,22.18,.28,33.27,.38,20.67-5.98,38.9-20.12,54-4.83,5.16-4.29,7.35,1.64,11.08,17.37,10.94,34.37,22.47,51.25,34.14,4.91,3.4,8.53,3.95,13.75,.34,17.52-12.14,35.34-23.87,53.23-35.45,4.38-2.84,5.15-4.74,1.27-8.74-17.09-17.59-22.49-39.23-21.27-63.1,.86-16.87-1.49-33.83,4.97-50.38,13.72-35.17,50.13-56.67,87.04-50.42,36.7,6.22,64.08,37.21,65.64,74.61,.44,10.68,.05,21.39,.34,32.08,.59,21.49-5.64,40.52-20.49,56.25-4.43,4.69-4.11,6.79,1.44,10.3,17.66,11.21,34.99,22.95,52.24,34.79,4.49,3.08,7.88,3.77,12.73,.43,17.89-12.31,36.04-24.23,54.22-36.12,3.73-2.44,4.77-4.02,1.32-7.93-30.36-34.49-26.52-75.05-15.81-114.24,9.74-35.64,48.67-56.01,85.41-50.29,36.5,5.68,64.71,37.05,66.27,74.05,.5,11.86,.18,23.76,.33,35.64,.26,20.25-6.24,38.03-19.99,52.85-4.58,4.94-4.81,7.18,1.39,11.11,20.66,13.11,40.56,27.42,61.28,40.43,14.8,9.3,22.33,21.32,21.19,39.18ZM210.1,513.74c0-6.85,.28-12.8-.05-18.71-1.42-25.69-21.11-45.29-46.34-46.32-22.88-.94-44.32,16.65-47.79,40.68-2.14,14.84-2.12,30.11-.02,44.95,2.85,20.13,14.78,34.13,34.59,39.11,20.06,5.04,37.48-.83,50.36-17.69,9.78-12.81,9.88-27.83,9.25-42.01Zm237.69-1.34c.01-5.92,.32-11.86-.04-17.77-1.6-26.09-22.92-46.43-47.91-45.93-24.97,.5-45.4,20.19-46.8,45.79-.64,11.82-.63,23.74,.03,35.56,1.14,20.44,14.68,37.48,33.23,43,19.7,5.87,40.47-1.08,52.56-17.6,9.5-12.98,9.58-27.95,8.94-43.06Zm237.77,1.12c0-7.09,.24-12.64-.04-18.16-1.31-25.76-20.65-45.27-46.04-46.61-22.78-1.21-44.48,16.27-48.05,40.31-2.26,15.21-2.17,30.87,.02,46.12,2.78,19.36,17.72,35.23,35.26,38.65,20.37,3.97,37.55-1.73,50.1-18.75,9.52-12.91,9.33-28.04,8.75-41.57Z"/>
</svg>