<?xml version="1.0" encoding="UTF-8"?>
<svg id="Layer_1" data-name="Layer 1" xmlns="http://www.w3.org/2000/svg" viewBox="0 0 800 800">
  <defs>
    <style>
      .cls-1 {
        fill: #020303;
      }

      .cls-2 {
        fill: none;
      }
    </style>
  </defs>
  <rect class="cls-2" width="800" height="800"/>
  <path class="cls-1" d="M736.86,277.1c0-15.94-2.96-18.9-18.76-18.93-28.27-.06-56.54-.05-84.81,0-16.75,.03-19.46,2.7-19.46,19.42-.02,156.49-.02,312.98,0,469.48,0,17.21,3.09,20.38,19.95,20.42,27.47,.05,54.95,.04,82.42,0,17.81-.02,20.67-2.93,20.68-20.91,.01-78.05,0-156.09,0-234.14,0-78.45,.02-156.89-.02-235.34Zm-35.83,466.43c-17.07-.8-34.23-.78-51.31,0-9.5,.43-12-2.45-11.95-11.92,.4-73.22,.22-146.43,.22-219.65s.19-144.84-.22-217.26c-.06-9.85,2.39-13.1,12.49-12.6,17.07,.85,34.23,.73,51.31,.03,8.98-.37,11.37,2.34,11.33,11.31-.35,82.37-.2,164.74-.2,247.11,0,63.67-.19,127.34,.21,191,.06,9.35-2.27,12.44-11.87,11.99ZM370.48,375.33c0-14.64-3.01-17.75-17.39-17.82-29.06-.13-58.13-.1-87.19-.01-15.78,.05-18.55,2.94-18.56,19.14-.04,62.11-.01,124.23-.01,186.34,0,61.72-.02,123.43,.01,185.15,0,15.67,3.43,19.28,18.65,19.34,28.67,.11,57.33,.11,86,0,14.77-.05,18.49-3.74,18.5-18.26,.04-124.63,.04-249.25,0-373.88Zm-24.07,359.13c0,6.6-1.83,9.13-8.75,8.98-18.69-.4-37.41-.63-56.07,.08-9.14,.34-10.21-3.62-10.18-11.24,.24-56.88,.13-113.76,.13-170.65,0-56.09,.22-112.18-.21-168.26-.07-9.29,2.23-12.34,11.78-11.93,17.87,.78,35.79,.49,53.68,.09,7.03-.16,9.68,1.64,9.67,9.24-.22,114.56-.2,229.12-.04,343.68Zm207.33-261.49c0-14.62-3.77-18.33-18.4-18.37-28.66-.08-57.33-.07-85.99,0-15.33,.03-18.73,3.5-18.74,19.16-.05,45.78-.02,91.57-.02,137.35,0,46.18-.04,92.37,.03,138.55,.02,13.85,3.84,17.73,17.74,17.8,29.06,.14,58.12,.13,87.19,0,14.53-.06,18.2-3.85,18.2-18.58,.04-91.97,.04-183.94,0-275.9Zm-34.51,270.53c-18.27-.64-36.59-.46-54.88-.06-7.05,.16-9.73-1.7-9.7-9.26,.24-81.94,.22-163.89,.02-245.83-.02-7.01,1.61-9.93,9.24-9.74,18.68,.48,37.4,.6,56.07-.04,8.52-.29,9.76,3.26,9.71,10.54-.26,40.97-.13,81.94-.13,122.92,0,40.18-.19,80.35,.16,120.53,.07,8.01-1.79,11.25-10.49,10.94Zm-332-172.92c-.06-12.69-3.87-16.57-16.3-16.63-29.85-.15-59.69-.12-89.54-.01-13.41,.05-17.11,3.66-17.13,17-.09,59.7-.09,119.39,0,179.09,.02,13.61,3.97,17.38,18.09,17.43,29.05,.11,58.1,.12,87.15,0,13.91-.06,17.71-3.91,17.75-17.78,.1-29.45,.03-58.9,.03-88.35,0-30.25,.1-60.49-.05-90.74Zm-24.01,164.03c.03,6.78-2.12,8.96-8.86,8.83-19.07-.37-38.16-.37-57.23,0-6.76,.13-8.95-2.06-8.86-8.84,.33-24.64,.13-49.29,.13-73.94,0-24.25,.3-48.5-.17-72.74-.15-7.89,2.31-10.23,10.1-10.02,18.67,.51,37.37,.41,56.04,.04,6.72-.13,8.89,1.99,8.86,8.79-.24,49.29-.24,98.58,0,147.88Zm-36.97-405.03c-52.79-.27-95.9,42.33-96.17,95.04-.28,52.57,42.64,96.02,95.15,96.33,52.46,.31,95.71-42.55,96.18-95.31,.46-52.55-42.38-95.8-95.16-96.07Zm-.18,167.15c-39.23,.21-71.53-31.87-71.76-71.27-.23-39.5,31.52-71.51,71.09-71.68,39.6-.17,71.53,31.42,71.78,71.01,.25,39.26-31.84,71.72-71.11,71.93ZM491.83,230.51c-52.88,.12-95.65,43.05-95.41,95.76,.25,52.52,43.77,95.87,96.02,95.63,52.43-.24,95.5-43.73,95.32-96.24-.18-52.9-42.91-95.28-95.94-95.16Zm-.22,167.19c-39.17-.41-71.31-33.14-70.93-72.25,.38-39.7,32.14-70.9,71.98-70.71,39.61,.19,71.28,32.25,70.89,71.76-.39,39.34-32.98,71.6-71.94,71.19ZM675.18,33.48c-52.58,.12-95.58,43.28-95.52,95.89,.06,52.66,43.14,95.57,95.83,95.46,52.73-.11,95.61-43.11,95.51-95.77-.11-52.64-43.27-95.7-95.82-95.58Zm.11,167.14c-39.52-.03-71.43-31.96-71.39-71.45,.03-39.37,32.17-71.5,71.49-71.47,39.35,.03,71.42,32.19,71.39,71.57-.04,39.5-31.98,71.39-71.48,71.36Zm-366.7-68.17c-52.36,.26-95.54,43.89-95.29,96.3,.25,52.96,42.96,95.25,95.98,95.06,52.95-.19,95.63-43.05,95.36-95.75-.27-52.51-43.83-95.86-96.06-95.6Zm-.26,167.16c-39.66-.24-71.23-32.28-70.79-71.82,.44-39.4,33-71.56,72.01-71.12,39.18,.44,71.28,33.22,70.86,72.34-.43,39.69-32.24,70.84-72.08,70.6ZM107.85,432.63c-25.01-17.59-24.76-40.5,.83-56.71,2.9-1.84,4.88-3.61,5.79-6.95,1.55-5.71,5.81-8.65,11.48-8.61,5.15,.04,9.56,2.74,10.72,7.92,1.17,5.17,4.98,6.74,8.78,8.82,6.47,3.55,11.24,8.76,14.66,15.26,3.39,6.44,3.33,12.68-3.02,16.91-6.75,4.49-13.11,2.72-17.34-4.17-3.95-6.43-9.11-10-16.74-8.57-3.96,.74-8.04,2.31-8.62,7.02-.63,5.13,3.45,6.65,7.38,7.8,7.23,2.12,14.7,3.6,21.73,6.25,13.16,4.96,20.62,14.48,20.79,28.96,.16,13.62-6.88,22.39-18.97,27.56-3.71,1.58-7.14,2.91-8.46,7.49-1.6,5.53-5.76,8.56-11.64,8.34-5.33-.2-9.16-3.16-10.55-8.19-1.23-4.45-4.19-6.22-8.01-7.92-7.1-3.16-12.5-8.38-16.21-15.27-7.01-13.04-2.98-20.97,11.76-23.12,4.86,1.19,8.23,4.31,11.06,8.26,2.33,3.24,5.12,6.09,9.26,6.82,4.32,.76,10.11,1.53,11.59-2.91,1.99-6-4.73-5.73-8.31-7.19-6.04-2.47-13.46-1.73-17.96-7.78Zm363.4-100.76c-21.72-18.49-20.46-39.39,3.7-54.99,3.79-2.45,4.91-5.78,6.84-9.18,4.75-8.36,16.48-9.08,20.11-.59,2.68,6.26,7.03,9.06,12.06,12.15,5.91,3.62,10.09,8.8,13.08,15.11,3.03,6.38,2.08,12.1-3.65,15.74-6.06,3.85-12.63,3.15-16.64-3.41-4.8-7.85-10.86-11.3-19.92-8.47-3.29,1.02-5.89,2.94-6.19,6.48-.33,3.79,2.4,5.72,5.65,6.67,6.85,2.01,13.87,3.5,20.63,5.78,13.5,4.55,22.74,13.08,23.79,28.15,1.06,15.22-6.7,24.94-20.35,30.13-4.79,1.82-6.04,5.52-8.22,9.32-4.5,7.83-15.78,8.52-19.33,.52-3.15-7.1-8.74-9.57-14.25-13.19-14.96-9.8-18.44-23.13-9.31-34.55,8-3.83,14.41-1.54,19.74,5.08,1.74,2.16,3.43,4.44,5.88,5.86,4.4,2.55,9.06,2.74,13.78,1.05,1.58-.57,2.93-1.93,1.83-3.67-2.37-3.76-6.74-3.78-10.43-5.03-6.62-2.25-14.43-1.99-18.8-8.96Zm169.79-210.75c-4.46-18.46-.02-33.14,18.19-41.54,4.06-1.87,3.86-5.61,5.55-8.58,5.11-8.96,16.58-9.3,20.82,.05,2.38,5.23,5.53,8.03,10.17,10.58,6.39,3.51,11.1,8.89,14.31,15.55,3.24,6.72,2.36,12.71-4.04,16.63-6.44,3.95-12.59,2.17-16.4-4.22-4.76-7.98-11.02-11.21-19.94-8.2-3.1,1.05-5.74,3.15-5.84,6.81-.1,3.76,2.55,5.75,5.75,6.67,6.11,1.75,12.36,3.02,18.47,4.77,15.2,4.37,24.47,14.57,25.65,27.96,1.3,14.75-4.35,24.03-20.39,31.28-4.22,1.91-5.56,4.65-7.46,8.24-4.9,9.24-16.56,9.78-20.65,.48-2.58-5.86-6.53-8.26-11.38-10.89-5.69-3.08-10.17-7.58-13.4-13.25-6.11-10.71-4.86-16.6,5.19-24.23,8.22-4.13,12.09,2.29,16.32,7.07,3.75,4.24,7.34,8.39,13.58,8.23,3.1-.08,7.01,.16,7.67-3.79,.56-3.32-2.88-4.29-5.42-5.26-3.31-1.27-6.77-2.16-10.22-2.92-12.46-2.74-20.52-10.78-26.53-21.44Zm-353.83,112.85c-21.04-19.75-19.29-39.59,5.21-54.82,3.55-2.21,4.56-5.08,5.83-8.36,1.75-4.53,5.33-6.91,10.04-7.22,5.34-.34,9.63,2.23,11.19,7.16,1.61,5.12,4.9,7.51,9.35,9.79,6.47,3.33,11.11,8.78,14.57,15.28,3.82,7.17,2.73,13.28-4.13,17.46-6.67,4.06-12.48,1.53-16.19-4.73-4.16-7.03-9.69-10.33-17.76-8.61-4.14,.88-7.69,3.08-7.76,7.75-.06,4.23,3.42,6.03,7.01,7,6.51,1.76,13.21,2.91,19.6,5.02,14.34,4.74,22.53,15.15,23.32,28.45,.88,14.78-6.78,23.92-19.5,29.58-3.77,1.68-6.85,3.25-8.14,7.73-1.47,5.1-5.67,7.76-10.86,7.72-5.11-.03-9.71-2.27-10.78-7.65-1.28-6.37-6.76-7.21-10.97-9.77-14.04-8.51-19.08-20.23-14.28-33.57,7.83-7.1,14.94-5.67,21.44,1.89,3.87,4.49,7.18,9.83,13.99,10.04,3.6,.11,7.97-.19,8.69-4.44,.65-3.78-3.36-4.94-6.34-5.93-6.01-2-12.49-2.34-18.32-5.09-2.24-1.05-3.98-2.56-5.21-4.69Z"/>
</svg>