<?xml version="1.0" encoding="UTF-8"?>
<svg id="Layer_1" data-name="Layer 1" xmlns="http://www.w3.org/2000/svg" viewBox="0 0 800 800">
  <defs>
    <style>
      .cls-1 {
        fill: none;
      }

      .cls-2 {
        fill: #020302;
      }
    </style>
  </defs>
  <rect class="cls-1" width="800" height="800"/>
  <path class="cls-2" d="M191.14,123.35c-5.43-6.05-9.02-9.34-11.72-13.24-4.31-6.22-4.4-12.97,.85-18.65,5.74-6.21,13.35-7.29,19.49-1.57,13.46,12.53,26.52,25.55,38.92,39.13,6.25,6.84,3.71,14.54-2.43,20.75-10.56,10.68-21.29,21.21-31.91,31.83-7.34,7.35-15.6,11.17-23.85,2.4-7.38-7.85-4.71-15.95,2.54-22.92,1.99-1.91,3.82-3.99,8-8.4-14.05,0-25.37,0-36.7,0-31.52,0-63.04-.12-94.56,.06-11.11,.06-21.72-1.45-21.64-15.18,.08-14.25,11.37-14.3,22.09-14.26,42.54,.13,85.08,.05,130.92,.05Zm342.4,334.91c-.23,24.83-18.09,43.89-42.9,44.16-58.82,.64-117.65,.64-176.47,0-24.87-.27-42.43-19.26-43-44.09-.27-11.66-.14-23.33-.01-35,.05-4.72,.19-8.51-6.57-8.24-34.44,1.37-69.12-3.24-103.33,2.56-55.66,9.44-95.98,60.44-94.24,117.64,1.73,56.64,44.67,103.75,100.71,110.55,6.72,.82,13.42,1.8,20.36,2.73,.3-7.09-6.07-8.89-8.69-13.25-4.26-7.1-4.4-14.02,1.79-19.81,5.68-5.31,12.9-5.96,18.53-.67,13.42,12.64,26.57,25.63,38.99,39.25,6.26,6.87,3.58,14.57-2.58,20.78-10.6,10.7-21.34,21.26-31.99,31.91-6.89,6.9-14.77,10.75-22.86,3-8.48-8.12-5.69-16.54,2.03-23.97,2.01-1.93,3.85-4.04,7.03-7.38-23.03-2.33-43.94-5.06-63.72-13.21-64.31-26.52-99.91-94.93-85.87-165.4,12.62-63.3,73.16-113.09,138.83-113.87,27.22-.32,54.45-.32,81.67,.07,7.41,.11,10.48-1.6,10.01-9.59-.65-11.14-.32-22.35-.13-33.53,.44-25.95,18.1-44.3,43.8-44.43,58.34-.3,116.68-.31,175.01,0,25.09,.13,43.3,18.19,43.56,43.13,.41,38.88,.37,77.78,.01,116.66Zm-28.98-111.29c.1-13.4-5.59-19.56-19.2-19.39-27.7,.33-55.4,.1-83.1,.1-27.22,0-54.43-.09-81.65,.03-15.91,.07-20.22,4.14-20.28,19.48-.15,35.47-.17,70.95,0,106.42,.07,14.83,5.1,19.66,20.49,19.7,54.43,.12,108.86,.13,163.29,0,15.25-.04,20.23-4.95,20.3-19.91,.17-35.47-.13-70.95,.14-106.42Zm262.43-78.86c.15,64.55-41.07,120.85-101.53,139.09-15.91,4.8-32.21,6.8-50.9,8.46,4.73,5.23,8.47,8.4,10.97,12.35,4.36,6.89,4.18,14.02-2.34,19.65-5.92,5.12-12.62,5.28-18.37-.14-12.72-11.99-25.38-24.07-37.52-36.64-6.82-7.06-6.01-15.09,.74-22.05,11.16-11.51,22.49-22.85,33.93-34.09,6.77-6.65,14.61-8.54,21.85-1.29,7.08,7.09,5.5,14.82-.75,22-2.46,2.83-6.4,4.64-6.61,9.14,62.56,3.74,117.73-46.11,121.18-109.42,3.45-63.38-46.25-119.56-109.09-122.14-28.63-1.18-57.35-.1-86.03-.5-6.87-.1-9.42,1.67-9.05,8.85,.57,11.15,.31,22.35,.11,33.53-.45,25.74-18.02,44.8-43.57,45.05-58.33,.57-116.66,.54-174.99,.02-25.63-.23-43.65-19.13-43.85-44.73-.3-38.39-.3-76.8,0-115.19,.2-25.83,18.25-43.99,44.08-44.11,57.84-.28,115.69-.25,173.54-.02,26.67,.11,44.36,18.2,44.83,44.92,0,.49-.03,.97,0,1.46,1.05,13.38-6.01,31.71,2.89,38.83,8.39,6.71,25.96,1.84,39.48,2.24,29.48,.87,59.11-2.59,88.24,6.08,59.39,17.68,102.58,75.37,102.73,138.65ZM504.43,85.18c-.06-15.58-4.34-19.93-19.81-19.97-54.92-.11-109.83-.12-164.75,0-15.3,.03-19.5,4.46-19.55,20.21-.12,34.5-.1,69-.01,103.5,.04,17.54,4.56,21.85,22.72,21.9,26.24,.07,52.49,.02,78.73,.02,27.22,0,54.43,.1,81.65-.04,16.13-.08,20.96-4.81,21.02-20.67,.13-34.99,.13-69.98,0-104.96Zm29.18,632.74c-.11,28.92-18.15,47.07-47.31,47.18-55.83,.21-111.66,.2-167.48,0-29.89-.1-47.6-18.23-47.68-48.29-.09-36.41-.11-72.81,0-109.22,.1-29.21,17.74-46.61,47.31-46.73,28.16-.12,56.31-.02,84.47-.02,28.16,0,56.31-.13,84.47,.04,28.4,.17,46.1,17.92,46.21,46.36,.14,36.89,.14,73.78,0,110.67Zm-29.19-108.34c-.07-15.22-4.47-19.31-20.39-19.38-26.73-.12-53.46-.03-80.19-.03s-55.4-.09-83.1,.03c-15.95,.07-20.33,4.14-20.4,19.36-.16,35.47-.16,70.95,0,106.42,.07,14.9,5.06,19.78,20.38,19.81,54.43,.13,108.86,.13,163.29,0,15.3-.04,20.34-4.92,20.41-19.79,.17-35.47,.17-70.95,0-106.42Zm-157.26-194.62c-10.2-.09-17.55,3.63-17.44,14.67,.1,9.97,6.84,14.6,16.38,14.63,37.4,.12,74.8,.12,112.2,.01,10.26-.03,17.17-5.04,16.72-15.75-.43-10.1-7.55-13.64-17.11-13.56-18.46,.16-36.91,.05-55.37,.05-18.46,0-36.92,.11-55.37-.04Zm55.55-58.22c-8.5,.13-13.97,4.55-14.67,12.99-.76,9.18,4.52,15.5,13.36,15.85,19.87,.79,39.81,.71,59.69,.11,8.91-.27,14.45-6.23,13.99-15.36-.46-9.19-6.42-13.6-15.56-13.62-9.22-.02-18.45,0-27.68,0-9.71,0-19.42-.1-29.13,.04Zm-73.09,15.2c.52,8.44,5.93,13.68,14.16,13.72,8.97,.04,14.67-5.52,14.64-14.68-.02-9.24-5.72-13.87-16.11-14.44-7.55,1.48-13.28,5.98-12.69,15.4Zm17.38-219.47c-10.25-.08-17.49,3.81-17.27,14.83,.2,9.97,7.01,14.46,16.54,14.48,37.4,.1,74.8,.09,112.2,0,9.55-.02,16.34-4.55,16.55-14.48,.23-11-7.02-14.91-17.27-14.83-18.46,.14-36.91,.04-55.37,.04s-36.92,.1-55.37-.04Zm55.84-58.22c-9.2,.18-14.71,5.06-14.84,14.3-.12,8.49,5.14,14.27,13.27,14.54,20.36,.67,40.79,.73,61.14-.1,8.08-.33,13.1-6.57,12.7-15.03-.4-8.41-5.47-13.36-14.02-13.64-9.7-.32-19.42-.07-29.13-.09-9.71-.02-19.42-.17-29.13,.03Zm-73.19,14.24c-.03,9.18,5.67,14.7,14.63,14.67,8.25-.03,13.72-5.31,14.14-13.72,.47-9.2-4.77-14.25-13.8-15.34-9.26,.51-14.95,5.13-14.98,14.39Zm130.06,507.95c-6.41-2.33-12.43-1.72-17.44,3.32-10.62,10.65-21.15,21.39-31.76,32.05-7.18,7.22-13.94,19.49-21.77,20.23-9.43,.9-15.01-13.21-23.02-20.01-.74-.63-1.37-1.37-2.06-2.06-6.8-6.8-14.96-8.41-22-1.99-7.9,7.2-5.97,15.64,1.26,22.9,10.62,10.66,21.37,21.19,31.88,31.95,8.29,8.5,16.33,9.29,25.04,.56,20.57-20.61,41.29-41.08,61.98-61.57,3.58-3.54,6.08-7.52,6-13.34-.55-4.97-2.28-9.91-8.1-12.03Z"/>
</svg>