<?xml version="1.0" encoding="UTF-8"?>
<svg id="Layer_1" data-name="Layer 1" xmlns="http://www.w3.org/2000/svg" viewBox="0 0 800 800">
  <defs>
    <style>
      .cls-1 {
        fill: none;
      }

      .cls-2 {
        fill: #010101;
      }
    </style>
  </defs>
  <rect class="cls-1" width="800" height="800"/>
  <path class="cls-2" d="M672.75,244.71c-.21-28.2-11.24-51.01-35.01-66.71-6.01-3.97-4.95-6.41-1.58-11.42,13.15-19.55,17.04-41.2,12.1-64.15-7.25-33.66-33.8-60.18-67.34-65.33-35.11-5.39-64.51,6.33-84.51,36.05-20.22,30.06-20.02,61.71-1.12,92.58,3.89,6.35,4.39,8.99-2.32,13.24-6.74,4.27-12.41,15-18.19,14.75-6.62-.29-12.42-10.22-19.37-14.73-6.01-3.89-7.32-6.33-2.97-12.99,12.25-18.73,17.11-39.18,12.16-61.71-7.95-36.23-30.45-58.05-65.71-66.96-30.49-7.71-65.95,6.86-85.53,34.1-19.65,27.34-21.07,64.01-3.07,92.58,4.11,6.53,7.02,10.82-2.29,15.77-6.59,3.51-11.9,14.14-17.35,13.84-6.35-.35-11.67-10.11-18.45-14.05-7.73-4.49-7.29-7.6-2.75-14.78,33.89-53.61-2.7-125.46-65.26-128.63-34.34-1.74-61.2,12.2-78.52,41.64-17.62,29.96-15.92,60.48,2.97,89.61,3.38,5.21,3.13,7.24-2.03,10.51-16.31,10.34-26.94,25.06-32.15,43.74-4.77,17.1-2.09,34.57-2.95,49.03,0,13.65-.18,24.48,.04,35.29,.47,23.06,13.41,37.62,36.3,37.98,46.77,.74,93.61,1.42,140.32-.43,14.93-.59,29.4-.53,44.32,.03,46.33,1.76,92.81,1.67,139.15,.07,14.88-.51,29.35-.82,44.3-.18,46.7,2.01,93.54,1.23,140.32,.52,23.24-.35,36.34-15.34,36.5-39.01,.14-20.1,.15-40.2,0-60.29ZM198.96,65.06c29.82,.6,54.25,25.5,54.22,55.25-.04,30.28-25.51,55.34-55.69,54.79-30.06-.55-54.25-25.17-54.12-55.1,.13-30.34,25.64-55.55,55.59-54.95Zm65.61,249.79c-22.38-.36-44.77-.13-67.16-.13-21.23,0-42.46-.32-63.68,.15-9.23,.2-13.33-2.41-13.02-12.4,.61-20.04-.07-40.12,.27-60.18,.3-17.4,7.94-31.05,22.74-40.49,8.13-5.19,16.04-6.92,25.86-2.86,18.87,7.79,38.61,7.75,57.47,0,9.87-4.06,17.78-2.21,25.93,2.93,15.39,9.72,22.14,24.26,22.44,41.91,.34,20.06-.03,40.12,.17,60.18,.08,7.77-2.92,11.03-11.02,10.89Zm117.74-249.8c30.02,.11,54.14,24.43,54.26,54.71,.11,30.94-24.17,55.53-54.65,55.35-29.99-.18-54.36-24.61-54.44-54.59-.08-30.68,24.54-55.58,54.84-55.48Zm66.16,249.78c-22.39-.29-44.78-.1-67.18-.1-21.23,0-42.48-.32-63.7,.15-9.25,.2-13.37-2.46-13.08-12.42,.57-19.67,.05-39.36,.22-59.04,.15-17.43,7.5-31.25,21.97-41.04,8.31-5.62,16.62-7.65,26.93-3.39,18.88,7.81,38.64,7.65,57.5-.08,9.9-4.06,17.9-2.17,25.88,3.06,14.2,9.31,21.95,22.68,22.3,39.64,.43,20.83-.11,41.68,.24,62.52,.14,8.19-3.27,10.81-11.08,10.71Zm117.06-249.78c29.95-.48,55.5,24.97,55.45,55.24-.06,29.92-24.6,54.58-54.57,54.84-29.62,.25-55.12-24.49-55.58-53.94-.47-29.96,24.56-55.65,54.71-56.13Zm66.85,249.76c-22.04-.22-44.09-.08-66.14-.08-21.66,0-43.32-.28-64.98,.14-8.69,.17-12.89-2.31-12.69-11.7,.4-19.71,0-39.43,.18-59.15,.16-16.83,6.33-30.83,20.48-40.72,8.94-6.25,17.78-8.73,28.93-4.12,18.94,7.82,38.72,7.22,57.58-.47,8.61-3.51,15.5-2.22,22.8,1.92,14.93,8.48,23.59,21.39,24.22,38.38,.82,22.01,.08,44.07,.41,66.1,.12,7.99-3.81,9.76-10.79,9.69Zm117.47,59.53c-25.34-20.29-60.07-19.3-83.46,3.19-25.62,24.64-50.61,49.92-75.96,74.84-2.96,2.91-5.49,8.24-10.5,1.26-11.33-15.79-27.64-21.19-46.5-21.1-34.8,.18-69.59,.22-104.39-.01-23.59-.16-47-1.98-69.97-8.19-66.84-18.07-122.38,1.53-168.6,51.35-5.44,5.86-10.18,15.99-16.18,16.75-6.63,.84-11.79-9.68-17.79-15.02-9.56-8.51-16.44-8.93-25.04-.07-32.58,33.55-65.02,67.22-97.34,101.02-8.37,8.75-8.3,15.77,.36,24.05,55.6,53.13,111.36,106.1,167.05,159.14,7.83,7.45,15.9,7.75,23.44,.07,32.49-33.08,64.83-66.31,97.16-99.56,7.37-7.58,7.78-15.5,.4-23.51-1.73-1.87-4.57-3.08-4.34-7.09,19.13-4.01,38.64-4.62,58.16-4.67,58.38-.17,116.76,.11,175.14-.26,38.76-.24,70.83-13.92,95.61-45.39,26.04-33.07,54.25-64.43,81.51-96.54,10-11.78,20.45-23.22,29.9-35.43,19.54-25.26,15.83-55.24-8.65-74.85Zm-461.86,280.73c-23.63,23.88-46.96,48.05-70.41,72.09-1.3,1.33-2.83,2.44-4.6,3.95-2.38-2.01-4.48-3.61-6.38-5.41-45.61-43.38-91.12-86.86-136.89-130.08-4.82-4.56-4.86-7.21-.29-11.86,23.26-23.71,46.32-47.62,69.18-71.7,4.16-4.38,6.72-4.49,11.07-.25,45.62,44.49,91.4,88.81,137.19,133.11,3.35,3.24,5.64,5.61,1.13,10.16Zm445.75-222.09c-25.01,29.96-50.45,59.57-75.71,89.32-13.26,15.61-26.81,30.99-39.72,46.89-13.84,17.04-32.18,24.98-53.26,26.83-38.58,3.39-77.3,.43-115.94,1.48-41.71,.92-83.52-2.22-125.13,2.94-7.66,.95-15.52,1.01-22.95,2.86-9.91,2.47-16.46-1.02-23.36-7.92-24.32-24.32-48.97-48.34-74.14-71.78-6.87-6.4-6.19-10.37-.89-16.9,30.79-37.99,68.13-62.38,119.3-59.3,12.82,.77,25.07,4.27,37.42,7.19,20.4,4.83,40.98,7.15,61.96,7.01,37.51-.25,75.02-.14,112.52-.03,18.04,.05,28.45,10.93,28.38,29.19-.07,17.61-10.22,28.09-28.12,28.22-31.71,.22-63.42,.02-95.12,.09-11.63,.03-18.39,5.46-18.46,14.45-.06,8.89,5.87,14.21,17.34,14.27,33.25,.17,66.52,.54,99.75-.26,29.15-.7,48.46-17.92,53.33-46.57,1.11-6.52,3.54-11.24,8.17-15.77,28.72-28.13,57.14-56.56,85.8-84.76,11.89-11.7,25.16-14.12,39.13-7.74,18.67,8.52,22.82,24.57,9.7,40.29Zm-343.67,98.64c.24,10.07-5.68,16.02-14.41,16.06-9.61,.04-14.1-5.69-14.89-14.35-.73-7.96,6.35-14.67,14.59-14.62,9.5,.06,13.63,5.76,14.71,12.92Z"/>
</svg>