<?xml version="1.0" encoding="UTF-8"?>
<svg id="Layer_1" data-name="Layer 1" xmlns="http://www.w3.org/2000/svg" viewBox="0 0 800 800">
  <defs>
    <style>
      .cls-1 {
        fill: #121212;
      }

      .cls-2 {
        fill: none;
      }
    </style>
  </defs>
  <rect class="cls-2" width="800" height="800"/>
  <path class="cls-1" d="M386.7,748.14c.02-7.72,6.79-14.74,14.39-14.07,8.03,.71,13.11,4.92,13.24,13.73,.14,9.23-4.83,14-13.47,14.66-7.69,.59-14.19-6.43-14.17-14.32Zm375.48-379.82c-.09,9.82-7.75,13.24-16.43,13.5-12.05,.35-24.12,.1-36.18,.1-59.56,0-119.12,.02-178.68-.01-18.54-.01-22.68-4.14-22.7-22.36-.03-20.74-.24-41.49,.13-62.22,.11-6.45-1.86-8.56-8.32-8.38-14.31,.41-28.66,.5-42.96-.04-6.5-.25-9.78,2-11.04,8.08-.3,1.46-.77,3-1.6,4.21-7.17,10.49-5.22,18.41,4.75,26.62,9.43,7.76,8.68,16.19-.18,25.15-15.9,16.08-31.93,32.03-48.01,47.93-9.68,9.57-16.33,9.46-26.11,.4-3.8-3.51-6.84-10.51-11.77-9.61-8.3,1.51-16.3,5.48-23.97,9.34-4.51,2.27-2.03,7.54-2.09,11.38-.31,19.23-3.9,22.94-23.29,22.96-21.11,.02-42.22,.14-63.33-.05-13.39-.12-17.61-4.58-18.22-17.38-.26-5.51,2.84-12.92-1.7-16.13-6.89-4.86-15.46-7.57-23.61-10.32-4.25-1.44-6.33,3.32-8.9,5.83-15.09,14.71-19.03,14.71-34.17-.42-14.67-14.66-29.41-29.24-43.95-44.03-9.91-10.09-9.68-15.59,.04-25.94,3.55-3.79,10.62-6.98,9.74-11.67-1.56-8.29-5.73-16.26-9.78-23.85-2.31-4.32-7.6-1.98-11.51-2.04-18.71-.29-22.65-4.04-22.66-22.42-.01-21.12-.04-42.24,.01-63.36,.04-14.25,4.66-18.88,18.61-19.63,5.1-.27,11.92,2.73,14.96-1.82,4.72-7.07,7.97-15.36,10.47-23.56,1.31-4.29-4.22-6.61-6.98-9.45-13.73-14.12-13.85-17.84-.18-31.55,14.9-14.95,29.79-29.9,44.78-44.77,10.47-10.38,16.4-10.3,26.96-.55,3.75,3.46,6.55,10.41,11.85,9.3,8.31-1.73,16.34-5.55,23.96-9.52,4.31-2.25,1.98-7.6,2.04-11.5,.28-19.71,2.74-22.33,22.06-22.34,21.11-.01,42.22-.05,63.33,.01,14.57,.04,18.91,4.43,19.45,18.55,.2,5.11-2.7,12.06,1.68,14.97,7.07,4.69,15.47,7.79,23.72,10.12,4.13,1.17,6.65-4.23,9.51-7.04,13.45-13.2,18.37-13.24,31.82,.19,14.67,14.65,29.36,29.29,43.96,44.01,10.58,10.67,10.5,17.12,.6,27.89-3.42,3.72-10.37,6.32-9.01,12,1.99,8.29,6.12,16.09,9.74,23.91,.52,1.12,3.27,1.7,4.99,1.71,31.52,.1,63.04,.07,97.37,.07-17.27-21.73-18.29-45.11-17.5-69.08,1.36-41.18,35.64-74.93,76.8-75.06,41.57-.13,75.7,32.75,77.31,74.27,.95,24.4,.25,48.34-17.25,69.7,52.63,10.34,85.98,41.29,90.51,87.82,3.09,31.76,1.22,64.04,.93,96.08Zm-199.09-227.07c1.87,19.57,16.46,36.79,34.67,41.59,20.55,5.42,41.64-2.54,53.49-19.83,7.67-11.19,8.75-23.71,8.38-36.64,0-2.63,.1-5.27,0-7.89-1.16-28.99-20.62-48.79-48.09-48.95-28.22-.17-48.07,19.67-48.95,49.18-.22,7.51-.2,15.08,.51,22.54Zm-148.84,191.37c-9.86-7.52-10.46-16.63-3.56-26.68,1.69-2.46,2.49-5.51,4.1-8.03,5.04-7.9,1.38-9.14-6.06-8.94-10.9,.3-22.16,1.62-32.53-2.23-7.39-2.74-10.53-.21-14.56,5.45-24.34,34.25-67.28,48.11-107.14,35.07-39.03-12.77-65.71-49.78-65.55-94.61,1.5-36.04,19.48-66.05,55.63-82.45,36.85-16.72,71.92-10.84,103.34,15.14,7.91,6.54,11.78,19.25,20.23,21.8,8.51,2.57,19.54-2.71,29.8-2.6,21.96,.25,22.07-.01,11.58-19.35-3.68-6.79-5.31-13.14-.01-19.87q10.69-13.59-1.6-25.85c-4.27-4.26-9.02-8.15-12.71-12.86-5.27-6.73-9.51-6.86-14.76-.04-7.39,9.58-16.07,11.07-26.52,4.04-8.13-5.47-17.44-8.67-26.86-11.55-17.7-5.41-18.27-6.02-18.94-25.31-.21-6.17-2.41-7.7-8.05-7.49-9.41,.34-18.9,.71-28.26-.08-9.31-.79-13.06,2.17-11.8,11.71,1.47,11.18-3.56,17.28-14.82,20.07-9.39,2.33-18.44,6.5-27.19,10.78-17.42,8.52-17.5,9-31.8-4.48-4.63-4.36-7.14-3.36-10.86,.64-6.68,7.17-13.41,14.39-20.85,20.73-6.51,5.56-6.73,9.63,.01,14.98,7.02,5.57,11.17,12.62,6.09,21.69-7.02,12.54-12.56,25.61-16.28,39.53-1.55,5.79-5.74,9.4-11.8,10.94-5.88,1.49-14.18-3.77-17.36,3.13-2.45,5.32-.7,12.59-.77,19-.05,4.53,.46,9.11-.11,13.57-1.14,9.04,1.64,13.16,11.48,12.01,11.18-1.31,17.57,4.5,20.03,15.35,2.09,9.21,5.84,17.86,10.18,26.23,9.47,18.25,9.61,18.36-4,33.09-3.42,3.7-4.52,5.87-.1,9.78,7.33,6.48,14.46,13.32,20.74,20.8,5.96,7.08,10.53,7.96,16.47,.21,6.88-8.97,15.39-9.57,24.83-3.63,8.65,5.44,18.21,8.99,27.84,12.21,17.63,5.9,17.97,5.8,18.19,24.12,.08,6.37,1.82,8.7,8.33,8.38,9.78-.47,19.66-.77,29.39,.07,8.89,.76,11.31-2.64,10.39-10.84-1.02-9.09,1.65-16.94,11.34-19.57,13.91-3.77,26.96-9.33,39.46-16.39,5.84-3.3,11.45-2.37,16.84,1.58,4.44,3.25,7.34,11.18,12.49,9.88,5.1-1.28,8.99-7.54,13.3-11.73,4.32-4.2,8.11-9.08,12.85-12.71,6.95-5.33,6.72-9.49-.08-14.67Zm-72.08-117.33c2.81-5.73,1.81-9.76-1.11-14.47-16.44-26.49-50.6-37.95-80.08-26.77-29.92,11.35-48.15,42.29-42.88,72.76,5.63,32.56,32.83,56.24,74.17,56.77,15.31-.13,34.27-10.49,48.19-30.4,3.35-4.8,4.88-9.1,1.72-15.42-6.92-13.84-6.82-28.58,0-42.47Zm392.26,129.36c-.32-18.46,.02-36.94-.14-55.41-.41-45.77-31.06-76.09-77.04-76.19-42.95-.09-85.9-.02-128.86-.02-42.95,0-85.9,0-128.86,0-2.26,0-4.52-.03-6.78,0-16.62,.27-27.02,9.61-26.75,24,.27,13.99,10.38,22.99,26.47,23.04,41.82,.11,83.64-.02,125.46,.08,13.68,.03,18.28,4.67,18.35,18.3,.12,21.86,.27,43.73-.11,65.58-.11,6.72,1.51,9.18,8.73,9.11,37.67-.35,75.35-.3,113.03-.03,6.4,.05,8.56-1.87,8.42-8.29-.34-16.2-.16-32.41-.04-48.62,.07-9.5,5.14-15.2,14.52-15.07,8.91,.13,13.45,5.96,13.6,14.83,.15,9.04,.05,18.09,.05,27.14,0,31.16,0,30.95,31.67,30.06,6.55-.18,8.35-2.26,8.25-8.51Zm27.49,399.82c-.17,13.33-5.21,18.14-18.86,18.15-91.23,.06-182.46,.05-273.69,0-12.24,0-19.05-5.31-19.09-14.41-.05-8.95,6.87-14.21,19.11-14.35,8.67-.1,17.34-.1,26.01,0,3.9,.05,6.61-.73,6.41-5.52-.59-14.67,1.28-29.43-1.17-44.03-4.81-28.66-27.56-48.31-56.5-48.51-29.4-.21-58.81-.25-88.21,.01-31.33,.28-56.37,25.12-57.31,56.63-.33,10.93,.35,21.9-.23,32.8-.39,7.24,2.4,9.09,9.1,8.72,8.64-.48,17.34-.26,26-.08,12.04,.25,17.4,4.91,17.25,14.6-.16,9.52-5.65,14.11-17.76,14.13-55.79,.08-111.59,.04-167.38,.04-35.44,0-70.87,.03-106.31-.01-16.26-.02-21.19-4.63-20.87-20.71,.41-20.7-1.78-41.47,1.51-62.1,5.46-34.23,31.42-63.08,64.95-70.27,9.13-1.96,7.66-4.04,4.36-10.42-14.41-27.81-11.79-78.23,17.43-99.22,22.11-15.88,45.53-19.64,70.16-8.22,24.68,11.45,37.43,31.82,38.71,59.03,.84,17.77,.77,35.49-9.32,51.32-3.05,4.79-1.17,5.94,3.87,6.95,19.94,3.99,36.29,14.29,48.92,30.17,3.6,4.52,5.38,6.92,10.22,.69,12.66-16.3,29.37-27.01,49.77-30.86,7.8-1.47,4.49-4.64,2.61-8.32-11.84-23.14-12.26-47.46-4.2-71.3,10.27-30.38,40.94-47.82,72.4-43.34,31.13,4.44,54.24,28.92,56.99,60.89,1.63,18.92,1.56,37.7-8.57,54.86-1.44,2.44-4.21,5.77,1.17,6.69,23.93,4.13,41.79,17.72,56.84,37.04,15.22-20.93,34.83-33.7,60.69-38-14.94-23.96-15.71-49.33-8.96-74.6,8.42-31.54,39.77-51.12,72.03-47.07,32.97,4.14,57.63,30.89,59.08,64.06,.86,19.77,.1,39.21-12.69,57.3,9.14,2.09,17.1,3.72,24.34,7.31,32.69,16.21,49.75,42.72,51.12,79.05,.64,16.95,.32,33.94,.1,50.91ZM129.72,560.03c0,27.34,13.56,45,35.56,46.3,21,1.25,37.59-11.66,41.11-31.97,5.23-30.19-4.65-52.21-26.37-58.73-27.92-8.38-50.31,11.37-50.3,44.4Zm140.51,167.02c-.52-13.55,.39-27.22-.97-40.67-2.9-28.61-27.12-50.27-55.8-50.54-29.77-.28-59.54-.24-89.31-.02-25.29,.19-46.2,15.88-54.19,40.13-5.22,15.82-1.64,32.18-2.99,48.23-.71,8.36,2.79,9.92,10.32,9.83,30.14-.38,60.3-.16,90.44-.16,30.9,0,61.8,0,92.71,0,4.83,0,10.1,1.17,9.8-6.81Zm168.68-166.64c0-24.23-8.73-39.04-26.63-44.59-15.44-4.78-29.38-1.5-40.23,10.32-15.02,16.37-12.98,36.28-7.62,55.3,4.22,14.95,16.22,23.02,31.82,24.85,22.8,2.68,45.31-15.79,42.65-45.88Zm156.24,20.15c4.53,13.64,18.56,24.68,32.74,25.75,26.28,2,42.33-15.41,42.34-47.87,1.46-15.93-3.43-30.86-20.13-39.96-14.14-7.7-30.94-5.81-43.15,4.54-13.8,11.7-18.85,36.32-11.81,57.54Zm138.32,144.98c-.66-11.28,.08-22.63-.33-33.93-1.12-31.16-25.8-55.49-56.78-55.78-29.4-.27-58.8-.23-88.2-.02-31.03,.23-55.18,22.75-57.46,53.81-.85,11.63,.07,23.39-.63,35.04-.47,7.83,2.77,9.39,9.82,9.32,30.53-.31,61.06-.13,91.6-.13,30.91,0,61.82-.15,92.73,.13,6.42,.06,9.7-.88,9.25-8.44Z"/>
</svg>