<?xml version="1.0" encoding="UTF-8"?>
<svg id="Layer_1" data-name="Layer 1" xmlns="http://www.w3.org/2000/svg" viewBox="0 0 800 800">
  <defs>
    <style>
      .cls-1 {
        fill: none;
      }

      .cls-2 {
        fill: #010101;
      }
    </style>
  </defs>
  <rect class="cls-1" width="800" height="800"/>
  <path class="cls-2" d="M612.75,569.76c-1.92-4.2-2.23-7.55-.45-12.2,15.74-40.87-9.5-78.13-53.66-79.28-19.37-.5-38.77-.23-58.16-.21q-23.49,.02-18.31-22.14c.79-3.4,1.73-6.77,2.36-10.2,8.09-43.84,5.24-84.22-34.12-114.15-15.9-12.09-31.5-13.07-49.26-4.64-17.3,8.21-23.71,21.53-21.61,39.55,5.13,44.08-5.76,83.74-29.08,121.42-16.12,26.04-36.79,32.82-62.25,15.62-4.65-3.14-9.65-3.9-15.05-3.88-19.83,.06-39.66-.13-59.48,.07-19.38,.2-30.38,10.99-30.42,30.14-.13,65.62-.12,131.24-.02,196.87,.03,19.86,10.12,30.36,29.78,30.72,20.26,.37,40.54,.11,60.81,.05,6.29-.02,12.76-.73,16.86-5.99,4.12-5.27,9.19-5.62,15.11-5.59,37.01,.15,74.02,.08,111.04,.07,36.57,0,73.15,.25,109.71-.09,33.2-.31,54.24-21.93,53.94-55.04-.05-5.57,.73-9.78,5.05-13.99,10.28-10.03,14.66-22.7,13.65-37.1-.37-5.29-.2-9.64,4.18-14.26,15.37-16.22,18.83-35.12,9.38-55.74Zm-31.83,40.14c-9.16,6.96-12.99,14.32-9.11,26.01,3.31,9.99,.17,19.41-8.85,25.59-9.15,6.27-11.64,13.91-9.61,24.93,3.8,20.63-7.11,32.65-28.58,32.73-39.22,.14-78.44,.04-117.67,.04-38.78,0-77.56,.05-116.34-.04-7.28-.02-14.25,.07-18.11,7.8-1.94,3.9-5.56,3.65-9.15,3.59-14.98-.27-29.97-.85-44.94-.55-7.06,.14-8.92-2.23-8.88-9.06,.31-61.67,.42-123.33,.24-185-.02-7.48,2.08-10.01,9.66-9.69,13.2,.56,26.47,.72,39.64-.04,9.12-.53,12,2.01,11.87,11.51-.55,39.64-.23,79.28-.22,118.93,0,3.52-.46,7.16,.25,10.54,1.61,7.7,6.26,13.02,14.61,12.2,7.47-.73,11.68-5.58,11.67-13.46-.01-13.21,.01-26.43,.01-39.64,0-25.55,.29-51.1-.17-76.64-.15-8.19,1.48-12.14,10.69-11.17,33.51,3.52,55.44-11.65,67.99-42.35,8.92-21.81,24.88-40.6,28.65-64.61,3.37-21.42,1.32-43.06,1.26-64.6-.02-7.56,.62-13.68,8.87-17,7.96-3.21,14.06-1.53,20.63,3.63,29.99,23.57,28.92,55.08,22.88,87.81-1.42,7.71-4.63,15.07-6.41,22.73-1.86,8.02-3.66,14.59-14.34,15.17-6.78,.37-10.22,6.96-9.34,13.78,1.04,8.16,6.46,11.92,14.79,11.9,34.81-.09,69.63-.03,104.44-.03,4.41,0,8.82-.17,13.22,.05,23.81,1.16,37.39,23.09,25.89,43.66-6.21,11.1-6.34,19.65,.86,30.13,7.68,11.19,5.08,22.44-6.39,31.15ZM504.99,119.39c-4.02-12.03-13.14-16.76-25.54-16.65-13.64,.12-30.08,4.31-40.17-1.78-10.79-6.51-10.34-24.84-14.92-37.96-3.97-11.36-10.68-19.47-23.54-19.57-13.47-.1-20.57,8.11-24.28,20.23-2.95,9.63-7.05,18.99-9.08,28.79-1.88,9.05-6.67,10.92-14.86,10.5-10.99-.56-22.03-.16-33.05-.11-12,.06-20.23,5.78-23.78,17.17-3.44,11.03,.82,19.85,9.7,26.54,9.14,6.89,18.3,13.79,27.85,20.1,6.12,4.05,7.76,7.99,4.98,15.27-4.97,13.05-8.62,26.6-11.69,36.35-.7,13.68,3.57,20.85,11.94,25.64,10.91,6.24,20.21,2.12,29.3-4.47,10.65-7.72,21.14-20.37,32.42-21.21,11.45-.85,21.49,13.43,32.35,20.78,2.19,1.48,4.3,3.09,6.57,4.42,7.88,4.61,15.85,4.79,23.84,.19,11.68-6.71,14.27-18.06,8.21-36.2q-11.59-34.7,17.37-55.77c1.78-1.3,3.56-2.6,5.35-3.89,9.83-7.09,15.1-16.16,11.02-28.4Zm-60.85,31.16c-13.17,8.05-15.08,17.71-9.61,31.1,3.94,9.64,6.51,19.85,10.72,33.03-9.68-6.85-16.93-11.82-24-17.02q-20.66-15.16-41.81,.33c-7.05,5.16-14.21,10.17-23.56,16.85,4.1-13.16,6.79-24.16,10.96-34.57,5.05-12.6,3.04-21.67-9.08-28.94-9.18-5.51-17.4-12.59-25.2-21.77,11.63,0,23.3-.57,34.88,.16,11.78,.74,17.82-4.34,20.84-15.4,3.14-11.54,7.43-22.77,12.26-37.28,5.09,15.48,9.25,27.7,13.11,40.01,2.73,8.72,8.06,12.94,17.5,12.61,12.24-.42,24.51-.1,38.68-.1-7.19,10.45-16.91,15.62-25.68,20.99Zm-203.66-30.98c-3.78-11.35-12.14-16.77-24.09-16.75-11.89,.02-23.79-.27-35.67,.1-6.35,.19-9.36-1.97-10.99-8.35-2.82-11-6.6-21.78-10.3-32.54-3.73-10.84-10.67-18.36-22.9-18.61-12.84-.27-20.25,7.26-24.17,18.67-3.69,10.76-7.48,21.53-10.3,32.54-1.64,6.41-4.72,8.48-11.04,8.29-11.88-.36-23.78-.09-35.67-.09-11.94,0-20.29,5.42-24.04,16.8-3.62,11,.43,19.91,9.23,26.66,9.43,7.23,18.95,14.38,28.86,20.9,5.91,3.88,6.66,7.76,4.5,14.31-4.51,13.66-10.29,27.01-12.07,38.87-.04,21.36,18.93,32.62,35.38,22.88,10.56-6.25,20.43-13.8,30-21.53,6.1-4.92,10.58-5.97,16.99-.31,7.55,6.67,16.3,11.97,24.38,18.06,10.04,7.58,20.65,10.58,31.56,2.6,10.75-7.86,11.85-18.69,7.63-30.71-3.47-9.91-6.1-20.13-9.87-29.91-2.5-6.48-1.39-10.39,4.53-14.27,9.93-6.5,19.45-13.65,28.85-20.91,8.77-6.77,12.83-15.71,9.17-26.7Zm-63.79,33.26c-10.01,6.32-11.76,14.22-8.07,24.75,4.02,11.44,7.47,23.09,12.07,37.47-12.83-9.34-23.22-16.62-33.29-24.31-7.76-5.92-14.99-6.05-22.79-.08-10.1,7.72-20.49,15.05-33.52,24.56,4.73-14.76,8.37-26.63,12.34-38.39,3.38-10.02,1.55-17.67-7.87-23.73-9.83-6.33-19-13.68-27.74-23.54,12.46,0,24.92-.32,37.36,.1,9.42,.32,14.82-3.81,17.56-12.54,3.87-12.33,8.02-24.56,13.16-40.23,4.64,14.21,8.69,25.04,11.66,36.15,3.2,11.98,9.62,17.78,22.64,16.71,11.14-.92,22.41-.19,34.61,2.65-9.35,6.86-18.36,14.25-28.13,20.42Zm593-33.14c-3.72-11.36-12.04-16.87-24-16.87-11.89,0-23.79-.26-35.67,.09-6.26,.18-9.44-1.76-11.09-8.23-2.8-11.01-6.55-21.79-10.3-32.54-3.77-10.82-10.77-18.19-23.05-18.39-12.9-.21-20.22,7.3-24.15,18.68-3.43,9.92-7.25,19.82-9.38,30.04-1.89,9.06-6.7,10.88-14.86,10.47-10.98-.56-22.02-.16-33.03-.11-11.99,.06-20.22,5.76-23.78,17.14-3.45,11.02,.79,19.85,9.65,26.54,9.13,6.89,18.3,13.77,27.83,20.09,6.06,4.02,8.07,7.96,5.07,15.24-3.99,9.68-6.38,20-9.81,29.93-4.15,12.02-3.12,22.83,7.69,30.69,10.42,7.57,20.69,5.1,30.44-2.17,8.82-6.58,18.16-12.5,26.59-19.53,5.57-4.65,9.32-4.2,14.76,.15,9.95,7.96,20.18,15.76,31.09,22.29,16.4,9.81,35.43-1.38,35.48-22.74-1.73-11.89-7.57-25.22-12.04-38.9-2.12-6.49-1.59-10.4,4.41-14.31,9.94-6.48,19.44-13.66,28.86-20.9,8.78-6.75,12.91-15.66,9.31-26.66Zm-63.76,33.09c-9.98,6.3-11.87,14.17-8.17,24.72,4.02,11.45,7.49,23.09,12.12,37.54-12.48-9.06-22.59-15.92-32.16-23.48-8.56-6.76-16.3-7.04-24.96-.18-9.61,7.62-19.77,14.55-32.72,23.99,4.95-15.27,8.59-26.91,12.52-38.45,3.4-9.98,1.68-17.68-7.77-23.76-9.85-6.34-19.03-13.71-27.83-23.59,12.44,0,24.88-.33,37.3,.11,9.39,.33,14.87-3.71,17.62-12.46,3.88-12.34,8.02-24.6,13.22-40.46,4.46,13.91,8.27,24.33,11.1,35.01,3.4,12.84,10.14,19.5,24.42,18.03,10.68-1.1,21.56-.22,33.38,2.61-9.33,6.85-18.32,14.23-28.08,20.39Z"/>
</svg>