<?xml version="1.0" encoding="UTF-8"?>
<svg id="Layer_1" data-name="Layer 1" xmlns="http://www.w3.org/2000/svg" viewBox="0 0 800 800">
  <defs>
    <style>
      .cls-1 {
        fill: #020202;
      }

      .cls-2 {
        fill: none;
      }
    </style>
  </defs>
  <rect class="cls-2" width="800" height="800"/>
  <path class="cls-1" d="M223.34,422.51c-70,110.95-11.6,266.58,114.12,304.21,56.55,16.93,110.98,12.26,163.1-15.87,7.61-4.11,15.49-6.92,20.5,2.41,4.83,8.99-.98,14.2-8.83,18.67-128.7,73.29-299.17,.32-335.21-143.55-15.54-62.05-7.26-120.76,24.1-176.36,1.11-1.97,3.33-3.55,2.33-6.75-7.56-.37-15.32-1.73-15.96-11.41-.64-9.73,6.92-12.17,14.48-14.29,10.27-2.88,20.42-6.21,30.73-8.89,9.34-2.43,16.22,.98,17.1,10.94,1.22,13.78,1.34,27.68,1.56,41.53,.09,5.35-3.51,8.78-8.33,10.42-6.88,2.33-11.24-1.67-14.99-6.71-2.44-.5-.33-5.97-4.73-4.34Zm47.58-172.24c-17.2,.25-19.41,2.35-19.44,19.11-.05,26.53,.02,53.06-.03,79.59-.02,8.07,2.34,14.46,11.63,14.61,9.82,.15,12.56-6.14,12.47-14.92-.19-18.21-.06-36.43-.06-54.64,0-18.88,0-18.96,19.01-19.65,8.49-.31,15.38-2.78,19.33-11.09,3.97-8.36-.1-14.44-5.11-20.36-22.78-26.87-45.5-53.8-68.44-80.54-11.29-13.16-20.94-13.11-32.38,.2-22.95,26.72-45.62,53.68-68.49,80.47-5.26,6.16-8.19,12.78-4.65,20.65,3.49,7.77,10.25,10.54,18.37,10.63,3.17,.03,6.39,.4,9.49-.05,8.72-1.27,10.52,2.78,10.32,10.76-.51,20.58-.07,41.18-.22,61.77-.06,8.63,.96,16.59,11.85,16.77,10.78,.18,12.37-7.31,12.29-16.23-.23-24.15-.08-48.31-.08-72.46q0-23.86-23.34-24.61c-1.87-.06-4,.58-6.26-2.62,17.8-20.99,35.85-42.26,53.88-63.54,3.32-3.92,5.29-1.13,7.41,1.37,17.63,20.79,35.27,41.57,54.53,64.26-5.9,.27-8.99,.5-12.08,.55Zm395.84-51.29c-3.73,8.61-11.3,9.93-19.78,9.96-17.99,.05-17.99,.25-17.99,18.21,0,68.96-.04,137.93,.06,206.89,.01,7.28-.35,14.41-4.92,20.35-2.58,3.35-2.22,6.4-1.2,9.98,18.74,66.06,9.19,128.31-26.13,188.46,8.63,.54,16.32,1.93,17.12,11.69,.81,10.02-7.16,12.14-14.45,14.3-9.45,2.81-18.96,5.45-28.5,7.93-13.55,3.52-19.2-.64-19.88-14.82-.54-11.08-.62-22.19-.93-33.28-.2-7.07,2.08-12.88,9.64-14.17,8.12-1.38,12.53,3.23,14.13,10.94,.3,1.45,.96,2.82,1.57,4.53,46.87-66.78,42.96-167.08-8.81-235.18-61.02-80.27-166.66-105.62-257.48-61.78-1.78,.86-3.46,1.94-5.26,2.76-7.37,3.33-14.35,3.2-18.27-4.77-3.71-7.54,.44-12.77,7.1-16.42,14.28-7.84,29.25-14.26,45.04-17.95,9.02-2.1,11.83-5.76,11.73-15.03-.5-45.57-.42-91.16-.05-136.73,.07-8.2-2.06-11.19-10.55-10.69-10.04,.59-21.6,2.74-27.08-9.31-5.5-12.08,2.88-19.93,9.92-28.13,21.16-24.66,41.99-49.59,63.2-74.2,11.02-12.79,20.54-12.82,31.48-.11,23.27,27.03,46.22,54.32,69.39,81.43,5.35,6.26,7.67,13.07,3.97,20.78-3.7,7.7-10.41,9.86-18.68,9.85-19.18-.02-19.18,.23-19.18,19.45,0,42.8,.29,85.61-.24,128.41-.11,9.03,2.97,12.11,11.35,14.13,19.3,4.67,37.47,12.6,54.45,22.95,6.69,4.08,8.65,2.85,8.59-4.96-.24-35.67-.24-71.34,.01-107.01,.05-6.88-2.45-9.35-9.06-8.65-3.14,.33-6.34-.08-9.51,.08-8.52,.43-15.82-1.45-19.65-10.06-3.83-8.61,.07-15.17,5.54-21.49,9.07-10.49,17.93-21.15,26.9-31.72,13.58-16.01,27.12-32.06,40.78-48,11.09-12.94,21.18-12.96,32.44,.17,22.7,26.47,45.14,53.16,67.85,79.61,5.55,6.47,8.95,13.25,5.33,21.61Zm-208.68-80.63c-17.78-20.97-35.23-41.45-52.53-62.05-3.04-3.62-5.2-5.32-9.07-.67-17.41,20.91-35.08,41.6-54.27,64.26,4.57,.26,6.48,.44,8.39,.47,21.53,.35,22.78,1.6,22.78,23.13,0,44.36,0,88.72,0,133.08,0,22.12,.01,22.39,22.25,21.44,10.53-.45,24.85,5.46,30.52-1.68,5.27-6.63,1.7-20.43,1.72-31.07,.08-41.98-.03-83.97,.06-125.95,.03-14.99,3.74-18.65,17.6-19.02,3.98-.11,8.44,1.51,12.56-1.95Zm177.48,65.83c-18.87-22.24-36.55-42.91-54-63.77-4.06-4.86-6.27-2.38-9.14,1.03-11.48,13.63-23.22,27.05-34.57,40.78-5.85,7.08-12.89,13.33-17.38,22.28,2.58,.18,4.15,.35,5.73,.38,22.53,.39,23.89,1.79,23.89,24.79,0,36.84,1.08,73.73-.42,110.51-.86,21.01,1.7,38.78,20.25,51.5,3.8,2.61,6.67,6.77,9.5,10.56,8.13,10.89,16.02,21.95,25.56,35.09v-13.87c0-62.59,0-125.19,0-187.78q0-29.31,30.57-31.49Zm-99.71,380.32c-8.66,2.17-17.94,27.55-14.47,36.1q7.63,18.79-7,33.44c-2.8,2.8-5.94,5.35-8.34,8.46-9.52,12.37-19.98,16.44-34.52,7.15-7.61-4.86-32.47,6.69-36.09,15.29q-7.92,18.79-28.54,18.79c-3.57,0-7.2-.44-10.69,.08-15.95,2.34-26.56-2.46-30.75-19.51-2.14-8.71-27.69-18-36.23-14.53q-18.64,7.58-33.31-7c-5.34-5.31-10.63-10.66-15.94-15.99-2.84-2.85-5.53-5.78-4.56-13.79-.12,.36,.26-2.97,1.88-5.52,5.63-8.93,3.86-16.87,.28-26.48-4.15-11.12-10-17.9-21.41-20.65-7.11-1.71-9.99-7.09-9.79-14.34,.18-6.73,.75-13.57-.1-20.19-2.15-16.71,2.03-28.24,20.43-32.52,8.47-1.97,16.84-27.05,13.43-35.55q-7.57-18.89,7.15-33.57c2.53-2.52,5.42-4.76,7.53-7.58,9.63-12.92,20.41-17.16,35.5-7.85,7.78,4.8,32.29-6.88,35.87-15.56q7.65-18.55,27.4-18.55c3.17,0,6.39,.36,9.5-.06,16.86-2.29,29.14,1.61,33.54,20.6,1.95,8.43,28.76,17.54,36.76,12.75,12.65-7.57,22.24-5.16,30.79,6.03,2.15,2.81,4.71,5.43,7.51,7.59,13.4,10.34,19.79,21.69,9.13,38.28-4.35,6.77,7.68,32.1,16.01,34.33,15.54,4.15,21.1,13.66,18.77,28.98-.53,3.49-.52,7.19,0,10.68,2.36,16.06-2.9,26.46-19.72,30.68Zm-4.15-34.06c-.5-6.67,1.07-13.56-8.41-15.42-10.54-2.06-15.87-9.03-17.78-19.53-.9-4.94-2.89-10.07-5.7-14.21-6.93-10.2-8.35-20.15-1.49-30.87,4.89-7.65-2.8-10.26-6.31-14.23-3.19-3.61-6.19-8.93-12.62-4.5-10.52,7.24-20.47,5.57-30.6-1.49-4.09-2.85-9.33-4.48-14.29-5.54-10.73-2.3-17.67-8.09-19.91-19-1.88-9.16-9.06-6.72-15.03-7.02-5.7-.29-10.88-.49-12.65,7.09-1.22,5.27-2.7,12.99-7.92,13.85-19.78,3.24-35.87,26.72-59.06,11.11-.62-.42-1.46-.52-2.21-.76-6.23,.21-17.15,15.26-14.15,20.48,6.3,10.96,5.15,20.73-1.8,30.89-2.82,4.12-4.59,9.31-5.58,14.26-2.07,10.38-7.45,17.43-17.95,19.51-7.95,1.58-8.33,6.82-7.93,13.16,.39,6.02-1.9,13.13,7.22,14.89,11.15,2.15,16.52,9.39,18.75,20.17,1.1,5.31,3.27,10.74,6.26,15.25,6.33,9.57,7.69,19.03,1.04,28.63-4.77,6.89,.52,10.01,4.32,13.69,4.01,3.9,7.41,10.46,14.62,5.65,10.37-6.91,19.89-4.97,29.76,1.33,4.58,2.92,9.97,5.29,15.28,6.2,10.78,1.84,17.08,7.86,19.26,18.11,1.73,8.14,7.34,7.76,13.49,7.64,6.35-.12,12.89,1.02,14.65-7.88,2.07-10.47,8.6-16.2,19.27-17.95,4.56-.75,9.26-2.66,13.14-5.2,10.81-7.09,21.27-9.16,33.03-1.83,7.41,4.61,10-3.76,14.19-7.12,3.56-2.85,7.7-5.86,3.84-11.66-6.99-10.5-5.64-20.58,1.27-30.86,3-4.47,4.79-10.02,6.02-15.33,2.26-9.75,6.98-16.48,17.35-18.51,7-1.37,9.15-5.97,8.63-13.01Zm-51.94-.03c-.48,43.9-35.83,78.02-80.52,77.71-43.23-.29-77.54-35.68-77.17-79.6,.37-44.25,35.95-79.38,79.64-78.63,43.94,.76,78.52,36.43,78.05,80.51Zm-23.98-.87c.11-30.59-24.2-55.32-54.64-55.58-30.59-.26-54.91,23.97-55.08,54.86-.17,31.08,23.59,55.26,54.38,55.33,30.86,.07,55.24-23.99,55.34-54.62Z"/>
</svg>