<?xml version="1.0" encoding="UTF-8"?>
<svg id="Layer_1" data-name="Layer 1" xmlns="http://www.w3.org/2000/svg" viewBox="0 0 800 800">
  <defs>
    <style>
      .cls-1 {
        fill: none;
      }

      .cls-2 {
        fill: #010101;
      }
    </style>
  </defs>
  <rect class="cls-1" width="800" height="800"/>
  <path class="cls-2" d="M734.52,482.42c-7.1-1.39-9.85-4.96-13.64-10.99-8.47-13.48-1.23-22.38,5.28-32.59,14.99-23.51,13.87-32.43-5.65-51.9-28.91-28.84-31.84-29.18-65.99-7.73-15.24,9.57-33.64,1.83-37.13-15.86-1.96-9.91-3.32-20.02-9.13-28.59-11.82-17.43-63.94-17.52-75.92-.19-4.95,7.15-6.9,15.53-8.05,23.9-1.6,11.68-5.57,19.93-18.45,23.56-6.91,1.95-11.82,3.02-17.66-1.54-4.77-3.72-10.19-6.63-15.43-9.7-16.89-9.9-27.64-8.62-41.45,4.93-5.21,5.11-10.3,10.35-15.42,15.55-13.3,13.51-14.8,24.93-5.23,41.44,3.25,5.6,6.6,11.18,10.41,16.41,3.77,5.17,2.53,9.71,1.41,15.65-3.16,16.67-15.79,17.91-28.42,20.46-24.57,4.96-31.09,13.12-31.14,38.13-.09,43.55,.59,44.44,42.46,54.89,15.75,3.93,22.53,21.75,13.97,35.95-6.19,10.27-14.97,19.48-14.39,33.46-.24,3.42-.07,7.68,2.41,11.01,9.94,13.36,21.18,25.6,35.19,34.75,6.9,4.51,14.92,4.01,22.16,.22,8.6-4.5,16.89-9.57,25.28-14.48,9.98-5.83,29.07,1.99,31.9,13.23,1.87,7.43,3.23,14.99,5.3,22.35,4.26,15.17,13.94,23.63,28.82,22.75,20.84-1.23,46.58,9.17,56.78-21.04,1.67-4.95,3.53-10.04,3.94-15.18,.93-11.7,6.39-17.6,17.57-22.69,13.43-6.12,19.84,3.15,28.07,8.06,23.1,13.81,31.67,13.32,50.11-5.06,30.38-30.31,30.75-32.6,7.99-68.74-3.72-5.91-3.73-10.55-2.14-17.6,3.63-16.04,15.69-17.24,27.79-19.76,25.27-5.26,31.26-13.12,31.74-38.96,.7-37.25,1.37-45.36-43.31-54.11Zm6.06,69.38c-37.32,7.88-40.38,11.66-50.94,47.7-1.67,5.71-.05,10.28,2.8,14.85,4.92,7.91,9.61,15.98,14.94,23.62,4.09,5.87,4.35,9.98-1.24,15.6-19.18,19.32-18.89,19.51-41.83,5.2-6.45-4.02-12.24-9.43-20.65-10.8-13.8,5.95-28.87,10.46-41.57,18.63-8.55,5.5-6.06,18.58-9.16,28.08-2.05,6.28-.5,16.09-7.53,17.59-10.02,2.14-20.95,.86-31.38-.11-3.74-.35-4.71-6.17-4.61-9.17,1.12-32.79-20.84-44.62-47-53.29-5.7-1.89-10.09-1.24-14.83,1.8-9.21,5.91-18.56,11.6-27.84,17.4-3.21,2.01-6.13,3.79-9.64,.08-5.84-6.19-11.95-12.14-18.09-18.04-3.88-3.73-2.37-7.25-.08-10.87,4.77-7.53,9.56-15.04,14.33-22.56,1.3-2.05,2.8-4.03,3.78-6.23,5.17-11.63-14-51.09-26.36-54.19-9.04-2.27-18.08-4.76-27.27-6.21-7.22-1.14-9.26-4.65-9.05-11.5,1.06-34.2-5.66-25.92,25.87-32.93,14.55-3.23,22.3-9.58,29.26-23.93,10.36-21.35,9.13-38.08-6.08-54.85-8.57-9.45-7.15-16.57,2.36-25.12,15.6-14.04,15.03-14.67,32.4-3.73,1.72,1.08,3.62,1.94,5.13,3.25,12.07,10.43,23.21,8.47,38.46,3.75,23.65-7.31,32.02-21.87,33.67-43.53,.89-11.69,6-15.49,17.85-14.95,22.14,1.01,22.18,.28,27.59,22.47,1.15,4.71,2.69,9.39,3.21,14.17,.91,8.5,5.74,12.97,13.55,15.06,2.74,.74,5.94,1.02,8.04,2.65,20.33,15.72,38.3,8.76,55.22-5.75,9.38-8.04,16-6.12,23.94,2.73,16.91,18.86,16.83,10.9,3.56,33.51-2.46,4.19-4.98,8.37-7.85,12.28-5.37,7.3-6.11,14.53-1.31,22.48,2.49,4.12,5.17,8.6,5.92,13.21,2.99,18.5,15.58,23.35,32,26.84,28.21,6,22.19-.32,23.34,27.76,.41,9.99-1.71,14.69-12.89,17.05ZM407.24,238.69c.02-12.32-5.81-20.98-17.07-25.5-5.96-2.39-12.44-3.49-18.7-5.13-19.98-5.23-25.48-18.79-14.62-36.02,2.16-3.43,4.47-6.78,6.44-10.31,8.55-15.27,7.17-25.88-4.94-38.28-5.39-5.52-10.78-11.03-16.38-16.33-10.47-9.89-21.76-11.49-34.48-4.77-5.01,2.64-9.71,5.88-14.52,8.9-15.05,9.46-30.06,3.08-33.88-14.39-.86-3.93-1.81-7.84-2.73-11.76-4.22-18.05-13.23-25.35-31.52-25.55q-43.75-.48-55.15,41.67c-3.19,11.8-18.93,18.18-29.42,11.93-36.04-21.46-37.35-21.3-66.88,8.42-15.18,15.27-16.27,24.46-5.07,43,2.72,4.51,5.37,9.08,8.37,13.4,2.72,3.9,2.67,7.29,1.63,12.13-3.22,15-14.59,17.19-26.66,19.48-21.62,4.11-29.07,13.21-29.12,34.75q-.09,41.5,40.48,52.55c13.91,3.79,19.49,19.12,11.87,31.76-5.78,9.59-13.64,18.34-13.63,30.52-.02,16.78,30.34,46.53,47.08,46.12,4.95-.12,9.66-1.1,13.94-3.73,4.84-2.97,9.72-5.87,14.53-8.88,15.18-9.48,30.5-3.09,34.01,14.18,.72,3.54,1.61,7.05,2.52,10.56,5.44,20.88,13.03,26.9,34.02,27.01,41.17,.22,42.9-1.02,52.76-41.78,1.37-5.67,4.45-7.81,9.12-10.99,12.74-8.66,21.07-.54,30.47,5.31,20.54,12.79,30.29,11.72,47.15-5.05,28.16-28.02,28.44-29.82,6.93-64.79-3.26-5.3-3.02-9.37-1.37-15.46,3.16-11.67,11.02-14.52,21.06-16.35,27.74-5.08,33.77-12.54,33.77-40.79,0-5.27-.02-10.55,0-15.82Zm-25.13,26.8c-.29,3.58-4.66,4.61-7.82,4.54-30.4-.69-42.16,19.29-50.02,44.15-1.48,4.67-1.6,8.68,.69,12.7,2.8,4.92,5.93,9.66,8.94,14.46,11.35,18.1,9.72,24.94-8.54,37.24-2.28,1.54-4.19,2.28-6.62,1.05-1.44-.73-3.03-1.41-4.13-2.53-20.63-20.89-42.76-16.63-65.64-4.34-4.97,2.67-8.57,5.64-9.72,11.42-1.73,8.69-4.05,17.27-5.79,25.96-1.36,6.81-4.15,9.98-12.08,9.91-22.11-.22-21.86,.18-27.47-21.02-2.12-7.99-.4-18.7-8.43-23.15-11.9-6.59-25.07-10.96-37.87-15.83-2.99-1.14-6.26,.67-9.07,2.58-3.68,2.5-7.6,4.65-11.37,7.03-20.97,13.25-23.67,12.68-38.63-6.9-2.37-3.1-3.12-5.41-.59-8.48,.76-.92,1.02-2.29,1.85-3.11,20.93-20.75,16.13-42.76,3.85-65.59-2.78-5.17-6.12-8.3-11.53-9.6-5.52-1.33-11.06-2.52-16.57-3.88-18.64-4.6-18.29-4.63-18.72-24.22-.18-8.48,1.47-12.62,11.07-14.67,35.56-7.61,37.48-10.12,47.91-44.66,1.43-4.73,.75-8.79-1.51-12.74-2.61-4.56-5.59-8.91-8.4-13.36-11.03-17.49-8.97-26.28,8.54-37.26,2.26-1.41,4.31-2.12,6.75-.79,1.42,.77,3.09,1.31,4.18,2.41,20.63,20.95,42.71,16.6,65.55,4.2,5.37-2.92,9.21-6.15,9.97-12.58,.52-4.38,1.86-8.68,2.92-12.99,5.41-21.98,5.41-21.79,28.26-21.38,6.07,.11,9.73,1.08,10.82,8.1,1.35,8.72,4.12,17.22,6.23,25.83,.38,1.56,.3,3.29,.9,4.74,4.3,10.48,43.77,23.15,53.54,17.22,3.12-1.89,6.13-3.94,9.21-5.9q20.23-12.86,36.89,5.51c1.59,1.76,3.09,3.6,4.74,5.54-1.19,2.14-2.1,3.92-3.15,5.61-2.99,4.82-5.49,10.06-9.16,14.3-10.06,11.64-7.99,22.42-3.07,36.43,6.79,19.33,17.38,29.29,37.55,31.02,5.24,.45,14.17-.86,15.56,6.45,1.63,8.57,.69,17.75-.02,26.59Zm-.86,340.32c-20.41-21.41-41.13-42.6-62.84-62.67-13.2-12.2-33.37-4.82-38.75,12.49-1.99,6.4-1.52,12.91-1.11,19.3,.47,7.33-1.64,9.74-9.37,9.62-30.42-.46-60.86-.6-91.27,.05-9.74,.21-11.27-3.41-11.14-11.96,.46-29.59-.54-59.21,.39-88.78,.81-25.97-19.01-40.63-37.5-40.13-21.46,.57-36.29,16.76-36.39,40.25-.09,22.3-.02,44.6-.02,66.9,0,21.49-.02,42.98,0,64.46,.03,28.73,14.44,43.17,43.44,43.25,39.35,.1,78.7,.03,118.05,.03q22.09,0,23.67,21.76c.76,10.55,5.3,18.9,15.24,22.96,9.78,3.99,19.21,2.48,26.95-5.19,19.87-19.69,39.86-39.26,59.33-59.33,9.51-9.8,10.34-23.51,1.3-32.99Zm-23.59,20.68c-17.32,17.61-34.64,35.22-52.22,53.08-4.32-4.83-2.47-9.45-2.47-13.55,0-31.84,2.76-32.48-32.89-32.25-43.81,.29-87.62,.09-131.42,.06-17.93-.01-20.89-3.05-20.9-21.34-.01-40.94,0-81.89,0-122.83,0-2.84-.17-5.69,.08-8.51,.73-8.08,5.11-12.92,13.39-12.47,7.79,.42,11.14,5.38,11.12,13.12-.08,32.43,0,64.86,.01,97.29q0,29.9,29.51,29.9c37.32,0,74.64,.04,111.95-.02,16.29-.03,18.97-2.81,19.04-19.1,.03-8.34,0-16.68,0-28.55,20.21,20.33,37.99,38.37,55.98,56.2,4.02,3.98,1.45,6.29-1.19,8.97ZM690.41,225.31c.01-21.49,.03-42.98,0-64.47-.04-29.62-13.39-43.04-42.99-43.08-40.17-.05-80.33-.01-120.5-.01-20.7,0-20.98,0-21.47-20.53-.27-11.26-4.34-19.95-14.84-24.25-10.87-4.46-20.47-1.53-28.76,6.87-18.23,18.47-36.78,36.62-54.99,55.1-13.53,13.73-13.43,26.26,.25,40.16,15.64,15.89,31.68,31.39,47.25,47.35,9.84,10.08,19.4,20.85,35.46,14.7,16.28-6.23,16.5-20.61,15.42-34.71-.69-8.91,2.9-10.75,11.07-10.64,30.02,.42,60.05,.49,90.07-.04,8.51-.15,10.88,2.16,10.74,10.69-.51,31.21-.46,62.44-.09,93.66,.25,21.06,16.79,36.6,37.61,36.29,20.39-.3,35.5-15.51,35.72-36.54,.24-23.52,.06-47.04,.07-70.55Zm-36.86,82.22c-10.95-.33-12.23-8.43-12.2-17.29,.11-34.88,.07-69.76,.03-104.63-.02-14.98-2.96-18.19-17.46-18.23-41.8-.11-83.6-.1-125.39,0-13.41,.03-17.34,3.96-17.67,17.3-.22,8.78-.04,17.56-.04,29.7-19.39-19.53-36.18-36.58-53.16-53.42-3.9-3.87-6-6.5-.89-11.5,17.36-16.99,34.23-34.49,54.05-54.61,0,11.19-.03,18.97,0,26.74,.08,17.51,3.22,20.76,20.34,20.77,48.29,.03,96.58-.01,144.87,.02,17.14,.01,19.85,2.7,19.87,19.54,.03,42.99-.07,85.98,.08,128.97,.03,8.99-1.18,16.97-12.43,16.63Zm-82.56,143.79c-43.78-.55-80.02,35.38-79.85,79.19,.16,43.38,35.72,78.84,79.08,78.85,43.59,.01,78.77-35.03,78.96-78.66,.19-43.79-34.32-78.82-78.18-79.38Zm-1.15,133.37c-29.89-.28-53.91-24.41-54.01-54.25-.1-30.36,24.54-54.79,54.93-54.46,30.12,.33,53.8,24.14,53.85,54.16,.05,30.53-24.35,54.84-54.77,54.55ZM214.65,177.97c-40.65,.17-72.91,32.7-72.97,73.6-.07,41.62,32.49,74.47,73.55,74.21,40.63-.26,73.06-32.88,73.15-73.57,.09-41.32-32.77-74.41-73.72-74.25Zm.5,123.15c-27.41,.18-49.04-21.58-49.01-49.33,.02-27.62,21.85-49.43,49.2-49.16,27.27,.27,48.67,22.3,48.52,49.97-.14,26.82-21.75,48.34-48.71,48.52Z"/>
</svg>