<?xml version="1.0" encoding="UTF-8"?>
<svg id="Layer_1" data-name="Layer 1" xmlns="http://www.w3.org/2000/svg" viewBox="0 0 800 800">
  <defs>
    <style>
      .cls-1 {
        fill: #020202;
      }

      .cls-2 {
        fill: none;
      }
    </style>
  </defs>
  <rect class="cls-2" width="800" height="800"/>
  <path class="cls-1" d="M532.18,114.67c9.04,8.38,18.1,16.74,27.12,25.14,6.37,5.94,10.21,13,3.18,20.3-7.46,7.74-14.7,3.91-21.2-2.67-15.13-15.3-30.48-30.37-45.6-45.68-10.32-10.45-10.4-15.41-.33-25.63,15.37-15.6,31-30.95,46.42-46.51,6.27-6.33,13.31-9.46,20.4-2.48,7.22,7.11,3.81,14.2-2.53,20.31-8.91,8.59-17.81,17.19-26.71,25.78,.4,.95,.79,1.91,1.19,2.86,4.08,0,8.15-.08,12.23,.01,37.52,.8,75.1-1.94,112.56,1.51,26.76,2.47,50.12,25.06,52.63,51.75,2.96,31.58,.91,63.31,1.06,94.97,.04,8.01-3.96,13.96-12.64,13.78-9.4-.19-12.35-6.74-12.33-15.24,.04-26.6,.07-53.19,0-79.79-.08-26.32-15.05-41.46-41.35-41.58-34.82-.15-69.64-.04-104.46-.04-2.58,0-5.17,0-7.75,0-.62,1.06-1.25,2.13-1.87,3.19ZM269.35,726.37c-9.4,8.49-18.87,16.9-28.17,25.5-6.74,6.24-8.6,13.78-1.59,20.44,6.75,6.4,13.54,3.25,19.48-2.74,15.69-15.85,31.62-31.46,47.27-47.35,9.35-9.5,9.19-15.01-.45-24.76-15.13-15.31-30.43-30.44-45.6-45.7-6.26-6.29-13.21-11.52-21.07-3.49-7.5,7.67-3.57,15.03,3.21,21.22,9.1,8.31,18.27,16.54,27.41,24.8-.83,1.08-1.66,2.16-2.49,3.25-39.34,0-78.72,1.13-118-.43-22.92-.91-35.2-16.82-35.4-40.14-.2-22.31-.03-44.61-.06-66.92-.01-9.08-2.03-16.82-13.4-16.4-10.82,.4-11.88,8.22-11.87,16.61,.02,22.31-.22,44.62,.06,66.92,.49,38.7,26.22,64.67,64.72,65.27,21.52,.34,43.06,.07,64.59,.08,16.27,0,32.54,0,48.8,0,.85,1.28,1.7,2.55,2.56,3.83Zm493.43-23.35c-.01,43.16-26.04,69.81-69.2,69.95-87.31,.27-174.63,.3-261.95-.01-42.73-.15-68.33-26.5-68.37-69.24-.05-48.54-.22-97.08,.18-145.62,.07-8.28-2.23-10.37-10.39-10.34-81.05,.3-162.12-.79-243.15,.56-44.98,.75-72.45-30.76-71.51-71.22,1.47-63.77,.39-127.61,.39-191.41,0-64.2-.05-128.4,.02-192.6,.04-43.95,25.16-68.94,69.26-68.96,69.7-.04,139.39,.14,209.09-.18,9.71-.04,16.92,2.55,23.83,9.6,29.29,29.92,58.99,59.44,88.8,88.85,6,5.92,8.78,12.17,8.68,20.7-.37,31.31,.18,62.64-.35,93.94-.15,9.02,2.01,11.82,11.5,11.76,63.43-.45,126.86-.03,190.29-.43,11.02-.07,19.07,3.17,26.81,11.12,28.39,29.17,57.27,57.86,86.31,86.38,6.89,6.77,10.02,13.73,9.99,23.63-.33,111.17-.19,222.35-.22,333.52Zm-99.71-367.61c.2,6.21,3.21,12,10.19,12.27,14.43,.55,28.89,.17,44.23,.17-18.42-18.52-35.62-35.81-54.55-54.85,0,15.48-.3,28.96,.13,42.41ZM338.89,111.58c.24,6.19,3.56,11.49,10.74,11.63,14.15,.28,28.31,.08,41.49,.08-17.47-17.73-34.7-35.22-52.4-53.18,0,13.82-.37,27.66,.17,41.47Zm66.18,140.87c6.64-2.31,8.04-5.65,7.98-11.88-.24-27.78-.3-55.56,.04-83.34,.08-6.51-1.52-8.86-8.38-8.67-16.82,.47-33.65,.26-50.48,.12-25.78-.21-40.53-14.89-40.86-40.82-.21-16.43-.23-32.87,.05-49.3,.11-6.04-.83-9.31-8.12-9.28-68.88,.28-137.76,.03-206.63,.47-18.03,.12-31.6,13.49-33.76,31.27-.66,5.42-.84,10.92-.85,16.38-.06,62.99-.04,125.99-.04,188.98,0,64.17-.1,128.34,.04,192.51,.07,30.05,13.89,43.77,43.7,43.78,81.01,.05,162.03-.21,243.03,.29,10.71,.07,12.76-3.05,12.69-13.1-.47-65.73-.35-131.47-.18-197.2,.07-28.65,15.48-51.07,41.76-60.23Zm332.31,129.24c.01-6.33-2.08-7.96-8.05-7.84-16.43,.33-32.87,.32-49.3,.06-26.93-.43-42.06-15.71-42.23-42.39-.1-15.65-.65-31.33,.21-46.93,.53-9.61-2.87-11.51-11.8-11.46-64.95,.36-129.91,.15-194.87,.22-27.99,.03-42.86,14.54-42.89,42.61-.14,129.49-.13,258.98,0,388.47,.03,28.91,14.46,42.92,43.52,42.98,43.43,.08,86.87,.02,130.3,.02,45,0,90,.2,135-.09,24.22-.16,39.73-14.69,39.8-38.2,.31-109.15,.12-218.3,.32-327.44Zm-71.13,66.73c4.26-.01,8.74-.08,12.72-1.35,5.66-1.8,9.17-6.2,8.61-12.45-.55-6.14-4.42-9.92-10.44-10.94-3.43-.58-7.02-.38-10.53-.38-69.23-.02-138.45-.02-207.68,0-3.52,0-7.12-.26-10.53,.38-5.98,1.12-9.76,4.83-10.07,11.18-.31,6.25,2.79,10.72,8.66,12.36,4.05,1.13,8.49,1.19,12.75,1.2,34.42,.09,68.84,.05,103.25,.05,34.42,0,68.84,.04,103.25-.05Zm-211.02,49.96c-8.46-.02-16.56,.92-16.74,11.56-.18,10.88,7.61,13.08,16.83,13.07,71.54-.07,143.09-.08,214.63,.01,9.12,.01,17.34-1.96,17.44-12.58,.11-11.16-8.67-12.08-17.53-12.06-35.58,.11-71.15,.04-106.73,.04-35.97,0-71.94,.06-107.9-.04Zm217.83,99.34c8.28,.01,13.85-3.74,14.41-12.02,.49-7.23-3.92-12.08-11.35-12.1-75.44-.16-150.88-.16-226.32-.05-7.51,.01-11.61,4.64-11.37,12.02,.24,7.2,4.53,11.37,11.82,12.01,2.72,.24,5.47,.12,8.2,.12,34.79,0,69.58,0,104.37,0,36.75,0,73.49-.04,110.24,.01Zm-28.44,74.92c8.97,.04,17.21-1.05,17.42-12.31,.22-11.47-8.35-12.64-17.11-12.65-62.98-.03-125.96-.02-188.93-.01-8.74,0-17.59,1.09-17.5,12.33,.1,11.74,9.03,12.69,18.37,12.64,30.9-.16,61.8-.06,92.71-.06,31.68,0,63.37-.08,95.05,.05Zm-190.5-324.45c-8.3-.01-15.19,2.51-15.67,11.88-.52,10.14,6.87,13.69,15.35,13.75,39.47,.28,78.95,.3,118.42-.02,8.51-.07,15.66-3.73,15-14-.62-9.7-7.73-11.6-15.86-11.6-19.15,0-38.3,0-57.45,0-19.93,0-39.87,.02-59.8-.01Zm256.55,348.67c3.63-12.48,2.73-25.54,1.46-38.34-.73-7.34-5.87-10.7-13.18-10.24-6.96,.44-10.67,4.64-11.1,11.28-.45,6.99-.13,14.03-.25,21.05-.21,12.15-4.64,16.77-16.89,17.29-7.01,.3-14.04-.01-21.05,.28-7.39,.31-11.68,4.36-11.62,11.82,.06,7.28,4.25,11.62,11.47,12.27,5.03,.46,10.13,.09,15.2,.09,26.01,.18,40.77-7.64,45.96-25.5ZM344.65,223.89c9.34,.01,18.55-1.65,18.35-13-.2-11.23-9.44-12.69-18.76-12.69-70.43,.06-140.86,.02-211.29,.07-3.48,0-7.18,0-10.4,1.1-5.64,1.94-8.97,6.14-8.57,12.5,.36,5.76,3.58,9.58,8.95,10.96,3.71,.95,7.72,.98,11.6,.99,34.43,.07,68.86,.04,103.3,.04,35.61,0,71.21-.03,106.82,.02Zm-65.86,150.07c14.88,0,29.76,.22,44.63-.16,6.05-.15,11.69-2.42,13.83-8.96,1.56-4.77,.83-9.38-2.99-12.97-4.06-3.81-9.2-3.7-14.35-3.69-62.64,.04-125.28,.02-187.92,.04-2.73,0-5.57-.18-8.17,.48-5.29,1.34-9.08,4.55-9.74,10.34-.71,6.19,1.94,10.5,7.6,13.14,4.07,1.9,8.34,1.8,12.65,1.8,30.54-.02,61.07,0,91.61,0,17.62,0,35.23,0,52.85,0Zm34.41-75.03c5.41-.02,10.89,.84,16.24-1.31,5.85-2.34,8.69-6.38,8.42-12.6-.25-5.89-3.85-9.31-9.03-11.01-2.52-.83-5.39-.84-8.1-.85-63.03-.04-126.06-.04-189.09-.02-3.49,0-7-.29-10.32,1.49-4.48,2.41-7.29,5.78-7.37,11.04-.08,5.24,2.42,8.85,6.96,11.28,3.98,2.13,8.26,2.04,12.59,2.04,30.54-.03,61.07-.01,91.61-.01,29.36,0,58.72,.06,88.09-.05Zm-154,124.36c-10.95,0-21.91-.13-32.86,.14-7.22,.18-11.9,3.93-12.27,11.44-.37,7.4,3.75,11.76,10.84,12.98,3.82,.66,7.79,.58,11.69,.58,47.73,.03,95.46,.02,143.2,.02,13.69,0,27.39,.03,41.08-.02,6.01-.02,11.9-.66,15.39-6.53,5.58-9.38-1.02-18.48-13.91-18.56-32.08-.19-64.16-.06-96.25-.07-22.3,0-44.6-.01-66.9,0ZM246.79,148.76c8.86,.06,16.04-2.36,16.03-12.59,0-10.27-7.49-12.66-16.12-12.67-38.65-.04-77.29-.02-115.94-.02-8.56,0-16.33,2.09-16.62,12.23-.31,10.9,7.48,13.13,16.71,13.06,19.13-.14,38.25-.04,57.38-.04,19.52,0,39.04-.08,58.55,.04Z"/>
</svg>