<?xml version="1.0" encoding="UTF-8"?>
<svg id="Layer_1" data-name="Layer 1" xmlns="http://www.w3.org/2000/svg" viewBox="0 0 800 800">
  <defs>
    <style>
      .cls-1 {
        fill: none;
      }

      .cls-2 {
        fill: #010101;
      }
    </style>
  </defs>
  <rect class="cls-1" width="800" height="800"/>
  <path class="cls-2" d="M298.76,659.64c-10.41-2.68-19.81-7.52-28.97-12.68-5.2-2.92-8.52-2.95-12.89,1.81-9.58,10.43-19.76,20.32-30.02,30.1-24.23,23.1-59.14,23.54-84.01,.95-12.22-11.1-24.46-22.33-29.11-39.18-6.41-23.25-.82-43.46,15.54-60.75,9.74-10.29,19.78-20.33,30.13-30.01,3.97-3.71,4.19-6.58,1.68-11.05-8.27-14.72-14.92-30.19-19.25-46.53-1.47-5.57-4.4-7.16-10.01-7-14.18,.41-28.37,.26-42.56,.1-33.01-.38-59.75-26.71-60.71-59.7-.48-16.54-1.01-33.23,7.85-48.14,11.69-19.68,29.18-30.4,52.14-31.25,14.17-.52,28.37-.37,42.55-.05,5.8,.13,9.23-.85,10.92-7.4,4.12-15.97,10.67-31.1,18.8-45.46,2.75-4.86,2.76-7.95-1.74-12.05-9.88-9.01-19.11-18.75-28.49-28.3-26.2-26.66-26.24-62.15-.04-89.12,10.94-11.26,21.77-22.37,38.08-26.41,22.64-5.61,41.9-.02,58.54,15.49,10.36,9.66,20.41,19.71,30.01,30.12,4.05,4.39,7.08,4.64,12.04,1.87,14.74-8.22,30.17-14.96,46.59-19.1,5.29-1.33,6.47-4.3,6.36-9.34-.3-13.78-.25-27.58-.07-41.37,.47-35.99,26.91-61.9,62.82-62.64,22.26-.46,43.17,1.83,59.46,19.31,10.91,11.71,16.8,25.41,16.94,41.43,.12,13.79,.36,27.59-.11,41.37-.22,6.43,1.24,9.75,8.04,11.58,15.52,4.2,30.4,10.35,44.35,18.41,5.21,3.01,8.64,2.91,12.99-1.88,8.73-9.61,18.22-18.53,27.48-27.65,26.82-26.41,61.72-26.63,89.38-.97,16.66,15.45,29.79,32.26,28.65,56.78-.43,9.27-1.9,14.86-12.57,9.4-1.39-.71-2.82-1.78-4.28-1.86-11.86-.62-16.11-5.59-21.32-17.96-10.53-25.03-34.95-44.43-59.41-15.63-.51,.6-1.1,1.13-1.66,1.69-11.42,11.4-23.04,22.62-34.2,34.27-8.04,8.39-16.74,9.81-26.38,3.7-21.36-13.54-44.43-22.79-68.91-28.99-14.41-3.65-17.57-8.49-17.6-23.41-.04-18.91,.13-37.83-.06-56.74-.16-16.09-10.34-26.48-26.33-27.21-4.72-.22-9.46-.15-14.18-.02-16.82,.48-27.18,10.53-27.45,27.32-.31,19.3-.35,38.62,.02,57.92,.23,12.04-4.64,19.11-16.6,21.93-24.93,5.87-48.38,15.42-70.04,29.28-9.66,6.18-18.36,4.4-26.37-3.85-12.89-13.27-26.1-26.23-39.26-39.24-14.61-14.45-27.35-14.55-41.74-.44-2.81,2.76-5.62,5.52-8.33,8.37-11.84,12.44-11.93,26,.18,38.41,13.47,13.81,27.08,27.48,40.96,40.88,8.73,8.42,9.87,17.26,3.51,27.37-13.03,20.7-22.45,42.85-27.99,66.78-3.59,15.51-8.72,18.87-24.92,18.91-18.13,.05-36.26-.13-54.38,.05-18.3,.18-28.44,10.34-28.74,28.41-.07,4.33-.15,8.67,.02,13,.63,16.06,10.95,26.37,26.96,26.53,19.31,.2,38.62,.32,57.93-.05,11.96-.23,19.21,4.36,22.09,16.4,6.04,25.28,15.77,49.08,29.81,71.09,5.55,8.71,4.39,17.03-3.13,24.47-13.71,13.57-27.33,27.24-40.87,40.97-13.78,13.97-13.78,26.87-.15,40.88,2.75,2.82,5.53,5.62,8.37,8.34,12.45,11.92,26.27,12.15,38.51,.23,13.26-12.91,26.16-26.19,39.29-39.24,11.9-11.83,16.1-10.17,31.06-4.72,25.74,9.38,29.86,27.37,24.83,51.48Zm-10.1-321.34c22.19-29.21,51.93-46.72,88.45-50.59,48.53-5.14,87.76,13.54,118.5,50.94,6.28-7.55,11.36-14.67,17.49-20.73,5.71-5.65,4.27-9.31-.74-14.31-46.73-46.73-102.31-63.8-165.98-45.5-63.65,18.29-103.58,62.13-116,126.72-12.44,64.71,9.29,119.21,60.82,161.04,18.66,15.15,18.81,14.97,33.85-2.85,3.03-3.59,5.99-7.23,9.04-10.93-79.51-44.09-89.41-135.9-45.44-193.78Zm480.3,42.85c-1.72,6.25-5.35,11.23-9.4,16.09-85.39,102.45-170.95,204.76-255.84,307.61-10.55,12.78-23.37,16.91-38.28,19.78-37.31,7.19-74.49,15.05-111.71,22.69-12.58,2.58-22.42-5.11-22.59-18.49-.28-22.45-.08-44.9-.08-67.35-.94,0-1.88,0-2.82,0,0-21.67,.13-43.34-.07-65.01-.06-6.98,1.45-13,6.03-18.49,87.25-104.47,174.34-209.07,261.67-313.47,18.53-22.15,40.4-25.75,66.22-11.8,15.38,8.31,27.38,21.08,40.87,31.86,15.37,12.28,30.72,24.66,45.19,37.95,17.01,15.63,27.52,34.21,20.82,58.61Zm-328.01,311.73c-25.7-21.06-49.98-40.97-74.59-61.14,0,24.4,.05,47.86-.04,71.31-.02,4.71,2.23,4.91,6.01,4.11,22.33-4.74,44.69-9.32,68.62-14.29Zm220.47-246.16c-31.54-26-62.93-52.18-94.08-78.64-5.51-4.68-8.17-4.31-12.8,1.27-59.5,71.75-119.25,143.3-179.11,214.75-3.63,4.33-3.78,6.25,.83,9.97,32.72,26.42,65.17,53.19,97.72,79.83,1.5,1.23,3.11,2.32,4.94,3.68,2.6-2.83,5.08-5.32,7.32-8,58.68-70.39,117.26-140.87,176.16-211.09,4.46-5.31,4.1-7.59-.98-11.77Zm63.97-96.62c-24.69-21.28-49.97-41.88-75.03-62.72-4.95-4.12-10.97-5.86-16.85-7.16-4.76,.13-7.18,3.29-9.71,6.34-12.07,14.48-23.92,29.16-36.4,43.28-4.3,4.86-2.35,6.97,1.46,10.13,32.05,26.58,64.13,53.13,95.88,80.06,5.2,4.41,7.33,2.78,10.81-1.54,10.34-12.85,21.16-25.31,31.63-38.05,10.55-12.85,10.62-19.65-1.79-30.34Z"/>
</svg>