<svg id="Layer_1" data-name="Layer 1" xmlns="http://www.w3.org/2000/svg" viewBox="0 0 79.81 79.81"><defs><style>.cls-1{fill:none;}.cls-2{fill:#1d3460;}.cls-3{fill:#e55c63;}</style></defs><title>be_on_time</title><rect class="cls-1" width="79.63" height="79.63"/><rect class="cls-1" width="79.81" height="79.81"/><path class="cls-2" d="M26.8,68.09c6.28,0,12.57-.23,18.85-.16,12.42.13,26.66-9.38,28.59-24.33,2-15.63-10.42-29.69-23.43-31.79-15.65-2.52-29.39,7.45-33.16,21.9A33.25,33.25,0,0,0,18.71,48c.71,2.32-.53,3-2.93,3-1.68,0-1.61.07-3.3.06s-2.87-.22-2.86-1.59,1.08-2.25,2.91-2.29a2.26,2.26,0,0,1,.52,0c1.64.29,1.86-.33,1.58-1.9A31.72,31.72,0,0,1,76.76,32.66c4,16.19-6.18,33.53-22.3,37.83a34.23,34.23,0,0,1-8.94,1.22H5.59a7.2,7.2,0,0,1-1,0c-1.41-.2-2.22-.52-2.19-1.93s1-1.55,2.29-1.72a8.49,8.49,0,0,1,1.23,0Z" transform="translate(-0.19 -0.19)"/><path class="cls-3" d="M43.49,33.73c0-2.21,0-4.41,0-6.61,0-2,.59-3,2.09-3s2,1.21,2,3.12c0,3.36,0,6.64-.11,10,0,1.09-.37,2.48,2.07,2.48,2.15,0,4.4,0,6.55,0,1.8,0,2.83.42,2.87,1.83s-1,1.68-2.78,1.7c-3.31,0-6.61,0-9.92,0-1.95,0-2.75-.8-2.8-2.75C43.45,38.26,43.49,36,43.49,33.73ZM21.86,61.65c2,0,3.13-.68,3.11-1.82s-1.08-1.69-3.06-1.69H7.12C5,58.14,4,58.77,4,59.92s1.16,1.72,3.22,1.73H21.86Z" transform="translate(-0.19 -0.19)"/></svg>