<svg id="Layer_1" data-name="Layer 1" xmlns="http://www.w3.org/2000/svg" viewBox="0 0 79.81 79.81"><defs><style>.cls-1{fill:none;}.cls-2{fill:#e55d63;}.cls-3{fill:#1d3460;}</style></defs><title>innovation solution</title><rect class="cls-1" width="79.63" height="79.63"/><rect class="cls-1" width="79.81" height="79.81"/><path class="cls-2" d="M42.5,10.08a21.64,21.64,0,0,1,7.56,2.34A22.2,22.2,0,0,1,60.47,23.9a21,21,0,0,1,1.42,5.53A1.12,1.12,0,0,1,61,30.77a1.08,1.08,0,0,1-1.24-1A22,22,0,0,0,58,23.68a19.78,19.78,0,0,0-11.23-10.3,20.12,20.12,0,0,0-4.11-1,2.71,2.71,0,0,1-.41-.09,1.1,1.1,0,0,1,.3-2.18Zm-19.84,3.5c-.93-.93-1.84-1.88-2.8-2.78a1.08,1.08,0,0,0-1.55,1.48,28.8,28.8,0,0,0,2.87,2.87,1,1,0,0,0,1.16,0,1,1,0,0,0,.55-.92A1,1,0,0,0,22.66,13.58Zm38.21-2.92a1.05,1.05,0,0,0-1.25.23c-.83.81-1.65,1.62-2.46,2.45a1.13,1.13,0,1,0,1.58,1.57c.78-.77,1.56-1.55,2.33-2.33a1.25,1.25,0,0,0,.44-.94A1.09,1.09,0,0,0,60.87,10.66ZM14.27,33.37a1.09,1.09,0,0,0,1.16-1.07,1,1,0,0,0-1-1.13c-1.25-.05-2.51-.05-3.77,0a1.08,1.08,0,0,0-1.06,1.12,1.12,1.12,0,0,0,1.17,1.08c.59,0,1.18,0,1.77,0S13.68,33.39,14.27,33.37Zm52.77,0c.63,0,1.26,0,1.89,0a1.09,1.09,0,0,0,1.12-1.06,1.08,1.08,0,0,0-1-1.13c-1.26-.05-2.52-.05-3.77,0a1,1,0,0,0-1.06,1.11,1.09,1.09,0,0,0,1.15,1.09c.57,0,1.14,0,1.71,0ZM56,34a1.67,1.67,0,0,1-1.87,1.85c-.87,0-1.74,0-2.6,0-.33,0-.45.13-.62.4a1.72,1.72,0,0,0,.56,2.64A7,7,0,0,1,52.51,40a1.61,1.61,0,0,1,0,2.46c-.83.86-1.68,1.71-2.54,2.55a1.63,1.63,0,0,1-2.51,0c-.63-.61-1.26-1.24-1.87-1.88-.24-.25-.46-.34-.77-.14a.87.87,0,0,1-.38.17c-1,.15-1.18.8-1.08,1.68a13.25,13.25,0,0,1,0,1.89,1.63,1.63,0,0,1-1.78,1.76c-.59,0-1.18,0-1.77,0s-1.19,0-1.78,0a1.61,1.61,0,0,1-1.77-1.76c0-.9,0-1.81,0-2.72,0-.32-.15-.43-.41-.6a1.72,1.72,0,0,0-2.66.56,8.5,8.5,0,0,1-1,1,1.63,1.63,0,0,1-2.51,0c-.86-.83-1.71-1.68-2.54-2.54a1.61,1.61,0,0,1,0-2.46c.64-.67,1.3-1.32,2-2a.46.46,0,0,0,.12-.66A.88.88,0,0,1,29,37c-.14-1.13-.88-1.26-1.85-1.19A7.59,7.59,0,0,1,25,35.76a1.45,1.45,0,0,1-1.26-1.43c-.05-1.38-.05-2.76,0-4.13a1.48,1.48,0,0,1,1.55-1.46c.89,0,1.77,0,2.66,0,.14,0,.3.05.41,0,.68-.31.53-1.11.92-1.61.18-.23,0-.39-.16-.54-.63-.63-1.26-1.25-1.88-1.88a1.65,1.65,0,0,1,0-2.63c.8-.82,1.6-1.62,2.42-2.42a1.65,1.65,0,0,1,2.59,0c.64.61,1.27,1.24,1.88,1.88.23.24.42.2.72.14a1.72,1.72,0,0,0,1.47-2.27,8.12,8.12,0,0,1,0-1.48A1.61,1.61,0,0,1,38,16.12q1.86-.06,3.72,0a1.6,1.6,0,0,1,1.69,1.79c0,.9,0,1.81,0,2.71,0,.31.08.49.38.56a1.21,1.21,0,0,1,.39.14c.86.64,1.46.3,2-.44a13.07,13.07,0,0,1,1.28-1.3,1.64,1.64,0,0,1,2.51,0c.85.82,1.69,1.66,2.51,2.51a1.63,1.63,0,0,1,0,2.54c-.59.61-1.2,1.2-1.8,1.79-.08.09-.21.16-.24.26-.19.67.42,1.12.51,1.73,0,.26.25.31.49.31.91,0,1.81,0,2.72,0A1.62,1.62,0,0,1,56,30.56Q56,32.27,56,34Zm-2.23-2.56c0-.37-.12-.47-.47-.47-1,0-1.89,0-2.84,0a1.21,1.21,0,0,1-1.35-1A13.54,13.54,0,0,0,48,27.36a1.17,1.17,0,0,1,.25-1.65c.67-.69,1.35-1.37,2.05-2,.23-.23.26-.38,0-.62a13.7,13.7,0,0,1-1.2-1.21c-.29-.33-.48-.26-.75,0-.65.69-1.33,1.35-2,2a1.12,1.12,0,0,1-1.44.3A16.09,16.09,0,0,0,42,23a1.09,1.09,0,0,1-.81-1.16V20.32c0-.53,0-1.06,0-1.6,0-.28-.11-.38-.39-.37-.57,0-1.14,0-1.71,0s-.59.1-.57.56c0,.92,0,1.85,0,2.77a1.16,1.16,0,0,1-1,1.34,15.47,15.47,0,0,0-2.56,1,1.2,1.2,0,0,1-1.74-.27c-.66-.64-1.32-1.29-2-2-.27-.29-.44-.27-.7,0s-.79.82-1.21,1.21c-.24.23-.24.38,0,.61.7.67,1.37,1.36,2.05,2.05a1.16,1.16,0,0,1,.25,1.64,14.69,14.69,0,0,0-1.06,2.56A1.24,1.24,0,0,1,29.15,31H26.37c-.35,0-.5.08-.48.45,0,.57,0,1.15,0,1.72,0,.36.13.47.48.47.95,0,1.89,0,2.84,0a1.17,1.17,0,0,1,1.34,1,14.69,14.69,0,0,0,1.06,2.56,1.21,1.21,0,0,1-.27,1.74c-.64.65-1.26,1.3-1.93,1.91-.34.32-.31.51,0,.8a14.79,14.79,0,0,1,1.12,1.12c.27.31.45.26.71,0,.67-.7,1.36-1.38,2-2a1.17,1.17,0,0,1,1.51-.24,14.63,14.63,0,0,0,2.71,1.13,1.13,1.13,0,0,1,1,1.3c0,1,0,1.93,0,2.89,0,.37.12.49.48.47q.82,0,1.65,0c.4,0,.56-.09.54-.52,0-.92,0-1.85,0-2.77s.2-1.14,1-1.39a14.92,14.92,0,0,0,2.55-1.06,1.21,1.21,0,0,1,1.7.26c.64.64,1.3,1.26,1.91,1.93.33.37.54.32.84,0a11,11,0,0,1,1.08-1.08c.33-.29.27-.48,0-.75-.67-.64-1.32-1.3-2-2A1.16,1.16,0,0,1,48,37.19a15.6,15.6,0,0,0,1.08-2.61,1.17,1.17,0,0,1,1.34-1c.94,0,1.89,0,2.83,0,.35,0,.51-.09.49-.47C53.7,32.56,53.69,32,53.72,31.42Z" transform="translate(-0.19 -0.19)"/><path class="cls-3" d="M40.22,2a1.56,1.56,0,0,1,.71,1.5c0,1,0,2.09,0,3.13a1.15,1.15,0,0,1-.63,1.11,1.06,1.06,0,0,1-1.12-.09,1.17,1.17,0,0,1-.48-1c0-1.14,0-2.28,0-3.42A1.4,1.4,0,0,1,39.39,2ZM19.92,53.7c.91-.9,1.83-1.78,2.7-2.71a1.06,1.06,0,0,0,0-1.49,1.11,1.11,0,0,0-1.5-.06l0,0c-.87.87-1.76,1.74-2.62,2.63a1,1,0,0,0-.19,1.25,1.11,1.11,0,0,0,1,.62A1.12,1.12,0,0,0,19.92,53.7ZM61.08,52c-.53-.53-1-1.06-1.59-1.58a11.69,11.69,0,0,0-1-1,1.09,1.09,0,0,0-1.54,1.5,28.7,28.7,0,0,0,2.87,2.86.93.93,0,0,0,1.11.07,1.05,1.05,0,0,0,.6-.94A1.24,1.24,0,0,0,61.08,52Zm.71-16.37a22.52,22.52,0,0,1-2.86,7.95A22.15,22.15,0,0,1,53.11,50c-.52.38-1,.75-1.59,1.12a5.26,5.26,0,0,0-2.37,4.45c0,1.4,0,2.8,0,4.19a.64.64,0,0,0,.38.66,2.8,2.8,0,0,1,1.56,2.64,5.08,5.08,0,0,1-.5,3.09c-.11.17,0,.29.09.43a5.5,5.5,0,0,1,.16,4.14,2.49,2.49,0,0,1-2.42,1.77c-1.06,0-2.12,0-3.19,0-.38,0-.53.11-.51.5,0,.55,0,1.11,0,1.66a2.77,2.77,0,0,1-1.55,2.76c-.11.17-.32.13-.47.24H36.91c-.14-.11-.36-.07-.47-.24a2.81,2.81,0,0,1-1.56-2.76c0-.57,0-1.14,0-1.71,0-.34-.12-.45-.45-.45H31.67a2.9,2.9,0,0,1-3.14-3.12,4.82,4.82,0,0,1,.5-3c.13-.18-.05-.32-.12-.48a5.67,5.67,0,0,1,0-4.3A2.11,2.11,0,0,1,30,60.46a.76.76,0,0,0,.48-.83c0-1.18-.05-2.36,0-3.54a5.6,5.6,0,0,0-2.81-5.29,20.84,20.84,0,0,1-7.74-8.64,21.63,21.63,0,0,1,.34-20.53A21.83,21.83,0,0,1,32.83,11a21.3,21.3,0,0,1,4-.92,1.12,1.12,0,1,1,.36,2.19,20.53,20.53,0,0,0-4.56,1.18,19.44,19.44,0,0,0-12.19,13.7A19.66,19.66,0,0,0,29,49a7.64,7.64,0,0,1,3.73,7c0,1.18,0,2.36,0,3.54,0,.4.09.55.52.55q6.59,0,13.17,0c.41,0,.55-.12.54-.53,0-1.24,0-2.48,0-3.72a7.43,7.43,0,0,1,3.36-6.54,22.52,22.52,0,0,0,5.54-5.08,20.1,20.1,0,0,0,3.78-9c.17-1.1.66-1.56,1.42-1.41S62,34.53,61.79,35.59ZM42.49,73c0-.38-.11-.53-.5-.51-.71,0-1.42,0-2.12,0s-1.5,0-2.24,0c-.39,0-.52.13-.5.51,0,.61,0,1.21,0,1.82a.51.51,0,0,0,.58.58c1.39,0,2.78,0,4.18,0,.43,0,.59-.23.58-.64C42.48,74.2,42.46,73.61,42.49,73Zm6.36-4.56c0-.9-.16-1.06-1.08-1.06H32.49c-1.73,0-1.73,0-1.72,1.71,0,1.06.11,1.18,1.19,1.18H48.12a.68.68,0,0,0,.72-.76C48.85,69.17,48.85,68.81,48.85,68.46Zm0-5.14c0-.88-.16-1-1-1H32.42c-1.65,0-1.65,0-1.65,1.66,0,1.11.11,1.22,1.2,1.22,5,0,10,0,15.05,0C49,65.18,48.86,65.13,48.85,63.32ZM45.74,32.37a5.94,5.94,0,1,1-5.85-6A6,6,0,0,1,45.74,32.37Zm-5.86-3.79A3.69,3.69,0,1,0,39.73,36a3.69,3.69,0,1,0,.15-7.38Z" transform="translate(-0.19 -0.19)"/></svg>