<?xml version="1.0" encoding="UTF-8"?>
<svg id="Layer_1" data-name="Layer 1" xmlns="http://www.w3.org/2000/svg" viewBox="0 0 800 800">
  <defs>
    <style>
      .cls-1 {
        fill: none;
      }

      .cls-2 {
        fill: #010202;
      }
    </style>
  </defs>
  <rect class="cls-1" width="800" height="800"/>
  <path class="cls-2" d="M311.67,644.74c-13.68-37.9-39.42-64.81-77.03-82.6,73.79-44.7,76.44-131.01,32.88-180.34-44.42-50.29-121.62-52.38-169.78-5.54-41.72,40.58-56.14,133.57,26.49,185.57-.66,2.9-3.51,2.66-5.42,3.67-43.1,22.95-69.46,57.85-76.44,106.65-3.36,23.5-.98,47.12-1.51,70.69-.33,14.6,2.94,17.66,17.58,17.7,34.46,.08,68.91,.03,103.37,.03,46.84,0,93.69,.05,140.53-.03,13.94-.02,17.11-3.28,17.18-17.01,.07-13.54-.22-27.09,.07-40.63,.43-19.83-1.13-39.34-7.92-58.14ZM90.52,434.89c6.2-22.33,18.83-40.35,38.22-53.43,41.88-28.25,100.27-16.8,128.17,25.19,.78,1.17,1.38,2.45,2.97,5.29-19.65,0-37.69-.04-55.73,0-22.73,.06-30.2,5.76-35.49,27.95-1.12,4.69-3.41,6.77-7.78,6.79-22.06,.09-44.12,.25-66.17-.01-10.56-.13-5.22-8.08-4.19-11.8Zm-.53,46.64c-1.87-7.64-1.22-11.92,8.92-11.49,20.08,.86,40.23,.4,60.34,.21,18.95-.18,29.01-8.09,32.22-26.39,1.15-6.56,4.02-8.43,9.88-8.41,20.89,.07,41.78,.14,62.67-.06,4.87-.05,6.15,1.75,7.18,6.47,11.98,54.88-32.84,109.07-90.76,109.37-42.17,.22-80.61-29.42-90.46-69.7Zm136.88,111.16c-14.06,13.8-28.09,27.64-41.77,41.82-4.03,4.18-6.26,3.7-10.04-.19-13.72-14.14-27.68-28.05-41.79-41.8-4.62-4.5-3.61-6.21,1.93-8.56,14.47-6.14,29.52-8.87,45.12-9.14,15.61,.29,30.6,3.17,45.11,9.22,6.32,2.64,5.47,4.7,1.44,8.66Zm61.02,144.49c-35.95-.28-71.9-.14-107.86-.14-35.57,0-71.13-.23-106.7,.18-7.61,.09-9.72-1.98-9.5-9.54,.8-27.63-2.47-55.61,9.45-82.03,6.6-14.62,15.49-27.4,26.74-38.82,5.39-5.48,8.67-6.34,14.53-.18,17.31,18.19,35.34,35.69,53.16,53.39,10.19,10.11,14.72,10.07,25.04-.17,17.83-17.7,35.84-35.21,53.2-53.36,5.31-5.56,8.41-5.42,13.65-.33,22.63,21.99,34.9,48.65,36.5,80.01,.73,14.26-.2,28.6,.36,42.88,.27,6.92-2.29,8.14-8.57,8.1Zm472.92-46.83c-1.39-52.83-25.08-92.91-70.02-120.53-4.45-2.73-9.18-5.01-14.26-7.75,76.5-47.04,74.26-135.74,30.21-182.73-45.85-48.91-123.3-49.14-169.85-.68-43.31,45.1-48.84,135.1,29.85,183.63-42.73,20.42-70.22,52.13-80.88,97.12-7.12,30.07-3.3,60.84-3.24,91.3,.01,7.98,7.39,9.86,14.62,9.85,82.85-.03,165.7-.05,248.55,.02,10.71,0,15.39-4.93,15.2-15.68-.33-18.18,.31-36.39-.17-54.56Zm-229.05-255.06c8.16-28.72,25.76-49.72,53.26-61.91,41.69-18.48,93.86-1.59,115.55,38.58-19.49,0-37.65-.05-55.81,.01-21.78,.08-30.1,6.46-34.69,27.54-1.16,5.33-3.73,7.24-8.58,7.24-21.67,.03-43.34,.03-65.01,.02-10.56,0-5.8-7.7-4.72-11.49Zm3.18,56.22c-1.22-3.24-2.61-6.44-3.48-9.77-1.88-7.23-1.92-12.59,8.6-11.64,10.36,.94,20.87,.2,31.32,.2v-.05c10.83,0,21.68,.36,32.49-.08,15.74-.64,26.45-9.45,28.79-24.93,1.13-7.45,3.87-9.93,10.99-9.84,20.12,.24,40.24,.26,60.35-.03,5.69-.08,7.56,1.54,8.74,7.43,9.07,45.6-19.51,91.1-66.63,105.22-44.62,13.37-94.41-11.92-111.19-56.5Zm133.67,100.85c-14.39,14.02-28.55,28.27-42.68,42.55-2.83,2.86-4.71,4.23-8.29,.56-14.29-14.67-28.83-29.08-43.45-43.42-4.24-4.16-2.97-5.75,1.92-7.87,14.42-6.26,29.47-9.04,45.08-9.35,15.6,.23,30.66,2.9,45.13,9.06,5.1,2.17,7.24,3.65,2.29,8.48Zm60.78,144.84c-35.95-.31-71.9-.15-107.86-.15-35.57,0-71.13-.2-106.7,.17-7.36,.08-9.89-1.57-9.64-9.39,.87-27.63-2.46-55.6,9.42-82.04,6.74-15.01,15.89-28.07,27.53-39.66,5.31-5.29,8.49-4.93,13.67,.47,17.66,18.39,35.88,36.25,54.01,54.19,9.17,9.08,14.25,9.09,23.41,.02,18.12-17.94,36.35-35.8,54.02-54.18,5.15-5.35,8.22-5.82,13.65-.54,22.6,22.01,34.94,48.63,36.57,79.99,.74,14.26-.17,28.6,.36,42.88,.25,6.73-1.96,8.29-8.43,8.24ZM563.61,220.85c-.74-11.94-.68-23.99-.01-35.95,.63-11.26-4.63-16.25-15.07-17.88-4.47-.7-10.71,.52-13-3.51-4.71-8.28-8.6-17.24-11.33-26.36-1.67-5.56,4.12-9.67,7.14-13.89,6.12-8.54,5.06-15.4-2.49-22.36-7.68-7.07-14.81-14.72-22.2-22.1-13.32-13.32-14.65-13.72-30.18-2.84-5.81,4.07-10.55,5.1-16.55,1.06-2.83-1.9-6.26-3.19-9.6-4-8.45-2.03-12.19-6.55-13.4-15.73-2.03-15.39-4.88-16.83-20.66-16.88-10.06-.03-20.12-.02-30.17,0-16.78,.03-19.63,1.68-21.71,18.48-.99,8.03-4.29,11.52-11.32,13.5-4.06,1.14-8.35,2.48-11.72,4.88-5.81,4.13-10.32,2.75-15.51-1.05-4.57-3.35-8.91-7.65-15.92-7.58-4.1-.27-7.24,2.51-10.3,5.61-8.43,8.52-16.57,17.37-25.51,25.33-8.81,7.85-9.93,15.16-2.89,25.07,10.76,15.14,.73,39.08-17.37,42.22-10.81,1.87-16.53,6.59-15.78,18.47,.76,11.94,.69,23.99,.02,35.94-.63,11.25,4.61,16.28,15.06,17.88,4.48,.69,10.71-.57,13.01,3.5,4.7,8.29,8.57,17.25,11.31,26.38,1.68,5.58-4.23,9.55-7.1,13.92-4.49,6.85-6.54,13.17,.04,19.76,10.38,10.39,20.71,20.84,31.17,31.15,4.78,4.71,11.45,5.84,15.76,1.49,11.6-11.71,22.74-8.03,35.15-1.97,6.64,3.24,11.01,5.7,11.99,14.38,1.86,16.45,4.84,17.99,22.06,18.01,11.22,.01,22.44-.16,33.66,.05,9.09,.17,14.2-3.39,16.14-12.84,1.05-5.11-.69-12.3,3.99-15.14,8.17-4.95,17.22-8.92,26.41-11.56,5.87-1.69,10.09,4.7,14.77,7.75,7.74,5.05,14.16,4.73,20.62-2.01,8.29-8.65,16.56-17.38,25.48-25.36,8.77-7.85,9.94-15.18,2.9-25.09-10.78-15.18-.81-39.02,17.36-42.25,10.81-1.92,16.51-6.65,15.77-18.51Zm-29.36-3.62c-15.19,2.98-21.53,10.85-24.26,24.57-.88,4.43-2.73,9.06-5.39,12.68-8.22,11.22-8.93,21.78,.94,32.3,3.48,3.7,1.98,6.65-1.14,9.91-4.71,4.92-8.94,10.3-12.93,14.97-3.96-2.26-5.53-2.77-6.59-3.81-10.86-10.67-21.76-8.89-33.22-.82-3.71,2.61-8.28,4.79-12.72,5.44-13.99,2.05-22.57,8.77-23.44,23.59-.27,4.61-2.7,6.13-7.53,6.4-18.93,1.06-18.95,1.3-23.95-16.19-1.5-5.23-4.41-8.81-9.87-10.27-11.99-3.23-23.47-7.73-34.12-14.22-7.89-4.81-14.37-.79-19.91,4.18-6.89,6.18-11.54,3.5-15.89-2.62-4.05-5.72-15.77-8.86-6.33-19.21,7.63-8.37,7.42-16.98,.97-26.28-3.23-4.66-5.85-10.21-7.05-15.73-3.05-14.05-8.95-24.42-25.24-24.68-1.82-.03-4.57-.44-4.66-2.56-.35-7.7-1.28-15.65,.2-23.06,.94-4.69,7.84-4.33,12.01-4.76,9.5-.98,13.32-6.75,15.16-14.87,1.99-8.73,5.13-17.18,9.96-24.51,6.06-9.21,6.04-17.53-1.25-25.21-8.28-8.72-.52-12.87,4.38-17.68,4.77-4.69,8.71-13.05,17.48-4.61,8.1,7.8,16.67,7.69,26.12,1.2,7.3-5.01,15.9-7.89,24.63-9.88,8.48-1.93,13.69-6.54,14.03-15.81,.38-10.52,6.73-12.16,16.08-12.04,9.04,.12,16.01,.92,16.28,11.81,.25,9.94,6.18,14.36,14.96,16.31,8.77,1.94,17.25,5.06,24.58,9.99,9.19,6.19,17.34,5.97,25.1-1.43,6.81-6.51,11.54-3.37,15.85,2.64,4.09,5.69,15.66,8.94,6.24,19.23-7.65,8.35-7.44,17.01-.93,26.26,3.05,4.33,5.57,9.49,6.7,14.64,3.12,14.25,8.54,25.5,25.58,25.77,2.77,.04,6.02,1.36,4.97,4.82-2.42,7.97,6.84,21.08-5.8,23.56Zm-43.94,233.04c-19.19-19.58-38.63-38.91-58.15-58.16-3.54-3.49-8.2-4.26-12.93-2.08-4.71,2.17-6.76,6.06-6.77,11.14,0,4.25-.52,8.57,.09,12.73,1.24,8.51-2.5,10.43-10.29,9.83-8.83-.68-17.76-.16-26.64-.15-10.04,0-20.09,0-30.13,0-9.33,0-14.45,4.2-14.37,13.99,.11,13.9,.14,27.8-.01,41.7-.1,9.7,4.73,14.2,14.15,14.23,14.29,.04,28.59-.03,42.88,.04,7.69,.04,17.26-2.41,22.55,1.23,5.1,3.52,1.25,13.69,1.72,20.92,.32,5.01,1.92,9.07,6.66,11.25,5.17,2.38,9.98,1.23,13.86-2.62,19.18-19.04,38.34-38.11,57.27-57.39,5.04-5.13,5.12-11.54,.11-16.66Zm-29.72,13.25c-7.44,7.78-14.87,15.56-23.95,25.04-2.38-16.5-4.57-18.48-18.83-18.54-18.51-.08-37.05-.61-55.52,.22-9.97,.45-8.2-5.61-7.79-10.96,.39-5.07-3.88-12.8,7.48-12.39,18.87,.68,37.79-.09,56.68,.28,11.35,.22,17.85-3.87,19.83-18.34,7.83,8.73,15.51,17.59,23.54,26.13,3.68,3.91,.96,6.03-1.45,8.55Zm21.61,114.09c.17-10.35-4.93-14.79-14.9-14.74-14.71,.08-29.42,.02-44.14,.01-21.34,0-21.46,0-22.25-20.78-.22-5.9-1.63-10.74-7.55-13.02-5.34-2.07-9.81-.25-13.68,3.62-18.6,18.62-37.23,37.2-55.79,55.86-5.47,5.5-6.35,11.97-.9,17.54,19.21,19.64,38.49,39.23,58.41,58.14,7.76,7.37,17.89,2.49,19.43-8.15,1.11-7.66-4.13-18.24,2.87-22.33,6.09-3.56,15.83-.87,23.96-.92,3.48-.02,6.97,0,10.45,0,9.68,0,19.36-.07,29.04,.02,9.9,.09,15.2-4.19,15.04-14.61-.2-13.54-.22-27.09,0-40.63Zm-35.47,31.91c-17.01-.65-34.06-.24-51.09-.17-14.47,.06-16.66,2.02-18.67,16.68-1.41-1.05-2.69-1.81-3.73-2.81q-28.31-27.21,4.03-53.51c-.63,13.89,7.15,17.19,18.95,16.82,17.02-.52,34.1,.53,51.08-.39,9.88-.54,11.78,2.55,12.05,12,.3,10.58-3.8,11.71-12.62,11.38Zm-46.41-487.75c-44.67,.16-80.84,36.67-80.77,81.54,.06,44.77,36.35,81.03,81.19,81.12,44.76,.09,81.33-36.28,81.39-80.92,.06-45.37-36.5-81.9-81.81-81.74Zm-.79,139.16c-31.73-.74-57.09-26.91-56.73-58.54,.36-31.55,26.51-57.25,58.15-57.15,32.19,.1,58.37,26.56,57.93,58.53-.45,32.04-27.3,57.9-59.35,57.16Z"/>
</svg>