<?xml version="1.0" encoding="UTF-8"?>
<svg id="Layer_1" data-name="Layer 1" xmlns="http://www.w3.org/2000/svg" viewBox="0 0 800 800">
  <defs>
    <style>
      .cls-1 {
        fill: #030303;
      }

      .cls-2 {
        fill: none;
      }
    </style>
  </defs>
  <rect class="cls-2" width="800" height="800"/>
  <path class="cls-1" d="M471.1,229.42c-23.61-26.64-45.17-50.94-66.7-75.26-2.15-2.43-4.27-3.85-7-.77-21.8,24.59-43.62,49.17-65.3,73.61,2.71,3.55,5.36,2.33,7.57,2.36,23.33,.26,24.28,1.15,24.28,24.02,0,77.13-.06,154.27,.09,231.4,.02,8.73,.67,14.72-12.14,14.84-13.34,.13-12.89-6.06-12.86-15.38,.2-73.05-.09-146.1,.36-219.15,.06-9.37-2.46-12.12-11.48-11.19-7.67,.79-15.49,.16-23.24,.14-5.69-.01-10.49-1.83-13.01-7.32-2.49-5.44-1.13-10.35,2.73-14.69,31.98-35.98,63.89-72.02,96.03-107.85,6.3-7.03,13.96-6.95,20.24,.05,32.14,35.84,64.04,71.88,96.01,107.88,3.84,4.32,5.16,9.28,2.63,14.71-2.31,4.96-6.63,6.92-11.87,7.19-1.63,.08-3.26,.02-4.89,.06-9.73,.25-22.6-3.19-28.36,1.72-6.76,5.75-2.09,19.06-2.16,29.04-.29,39.18-.59,78.37,.18,117.53,.22,11.33-5.19,10.91-13.21,11.14-8.32,.24-12.25-.89-12.14-10.95,.56-50.19,.25-100.39,.26-150.59,0-20.81,1.61-22.44,22.03-22.52,2.84-.01,5.69,0,11.98,0Zm238.35-85.76c-10.23-.39-15.22,4.58-15.23,14.64-.04,62.03-.04,124.06,.02,186.1,0,2.64-.8,5.64,2.69,7.36,11.04,5.44,22.05-1.34,22.05-13.73,0-53.05,.21-106.11-.21-159.16-.07-8.54,2.06-11.55,10.7-10.7,7.68,.75,15.49,.12,23.24,.16,6.14,.02,11.34-1.68,13.91-7.83,2.33-5.57,.53-10.31-3.28-14.6-31.71-35.67-63.34-71.41-95.17-106.98-6.69-7.48-14.39-7.53-21.11-.02-31.83,35.57-63.47,71.3-95.2,106.95-3.82,4.3-5.62,9.06-3.34,14.6,2.53,6.14,7.73,7.9,13.88,7.87,7.34-.03,14.75,.63,22.01-.15,9.47-1.02,12.14,2.08,12.07,11.82-.48,61.62,0,123.25-.49,184.87-.08,10.01,3.12,12.29,12.41,11.95,8.34-.3,13.15-.58,12.92-11.47-.77-35.49-.29-71-.29-106.51,0-32.24,.07-64.48-.03-96.72-.05-15.44-3.11-18.21-18.79-18.47-4.15-.07-8.62,1.09-13.63-1.7,22-24.82,43.38-48.85,64.63-72.99,3.19-3.62,5.48-3.77,8.74-.06,21.25,24.16,42.65,48.2,66.26,74.82-8.43,0-13.61,.16-18.78-.03ZM200.94,327.4c-18.91,.08-20.93,2.08-20.94,21.16-.03,38.77,.34,77.54-.25,116.3-.15,10.13,4.87,10.1,11.99,9.7,6.61-.37,13.67,2.15,13.31-9.63-.82-26.91-.45-53.86-.17-80.79,.11-10.42-4.56-24.29,2.16-30.27,5.79-5.15,19.36-1.57,29.48-1.84,.82-.02,1.63-.02,2.45-.02,5.69,.03,10.57-1.69,13.16-7.11,2.83-5.92,.87-10.98-3.29-15.65-31.46-35.35-62.77-70.83-94.36-106.06-7.67-8.55-14.6-8.11-22.76,.64-6.4,6.86-12.49,14-18.73,21.01-24.66,27.75-49.28,55.53-74.02,83.2-4.36,4.88-7.43,9.92-4.47,16.52,2.98,6.64,8.92,7.61,15.37,7.49,6.52-.11,13.13,.61,19.56-.17,9.82-1.19,13.01,1.63,12.89,12.26-.63,53.45,.05,106.92-.57,160.37-.12,10.81,4.47,11.24,12.88,11.5,9.23,.29,12.54-1.85,12.45-11.92-.51-56.72-.25-113.45-.25-170.17q0-26.02-25.38-26.57c-1.86-.04-4.04,.83-6.45-2.39,21.61-24.37,43.41-48.94,65.19-73.52,2.66-3,4.79-1.93,7.01,.58,21.55,24.34,43.12,48.66,66.8,75.36-6.62,0-9.85-.01-13.07,0Zm566.95,288.44c-.11,13.83-3.89,17.56-17.22,17.87-15.33,.36-19.69,4.37-23.13,19.5-1.25,5.48,2.83,7.16,5.21,10.04,4.1,4.95,9.98,8.64,10.73,15.85,.05,5.4-3.11,9.04-6.65,12.57-15.32,15.26-30.69,30.46-45.81,45.91-7.8,7.97-15.86,9.22-22.78,.12-7.82-10.27-15.63-10.9-26.75-5.22-6.21,3.17-8.03,6.23-8.17,12.66-.48,21.98-2.07,23.29-24.17,23.29-18.76,0-37.52,.09-56.28-.03-13.75-.09-17.44-3.78-17.85-17.25-.42-13.76-7.7-21.95-20.63-23.61-5.17-.66-6.99,3.6-9.75,6.18-14.96,13.99-17.12,14.04-31.74-.59-13.55-13.56-27.14-27.08-40.61-40.72-10.17-10.29-10.1-15.2-.03-25.61,8.89-9.19,9.31-20.41,1.49-30.42-2.88-3.69-6.64-2.4-10.08-2.51-21.8-.73-23.31-2.23-23.31-24.24,0-19.18-.15-38.35,.06-57.53,.14-13.19,3.56-16.29,16.96-16.5,14.38-.23,21.53-6.63,23.57-20.75,.82-5.68-3.94-7.66-6.79-10.71-12.67-13.52-12.73-16.85,.48-30.09,13.83-13.86,27.62-27.76,41.55-41.52,10.24-10.12,15.28-10.02,25.7,.01,9.13,8.79,20.7,9.35,30.21,1.53,3.83-3.15,2.54-7.48,2.69-11.39,.8-20.72,1.88-21.8,22.99-21.81,19.58,0,39.15-.09,58.73,.03,13.12,.08,16.39,3.48,16.77,16.73,.47,16.24,3.21,19.08,19.54,23.24,6.13,1.56,7.87-3.14,10.79-5.84,14.55-13.45,17.46-13.57,31.14,.07,13.86,13.82,27.76,27.61,41.52,41.54,9.7,9.82,9.68,14.91,.34,24.73-9.18,9.65-9.92,21.62-1.83,31.29,3.8,4.54,9.12,2.61,13.78,2.76,16.7,.55,19.31,2.9,19.37,19.21,.08,20.4,.14,40.8-.02,61.2Zm-32.48-55.93c-19.66-1.95-40.09-38.89-32.27-57.13,.16-.37,.22-.87,.49-1.11,14.08-12.44,3.69-20.08-5.36-28.2-4.85-4.35-9.44-9.03-13.83-13.85-3.49-3.84-5.87-3.52-10.04-.29-15.31,11.87-53.69,2.6-62.89-14.76-.57-1.07-1.45-2.28-1.37-3.36,1.4-18.44-11.35-16.05-22.85-15.73-6.52,.18-13.07,.31-19.57-.05-5.41-.3-7.52,1.01-8.23,7.13-2.08,18.03-36.81,39.43-54.23,34.08-1.15-.35-2.53-.76-3.26-1.61-13.22-15.52-20.78-2.74-29.21,5.77-3.73,3.77-7.29,7.74-11.3,11.19-5.03,4.33-7.44,8.04-1.09,13.58,4.72,4.12,6.62,10.15,6.9,17.21-1,9.32-6.9,17.55-9.84,26.83-3.98,12.59-12.01,20.31-25.63,20.46-5.47,.06-6.93,2.04-6.79,7.21,.32,11.42,.32,22.85,0,34.27-.16,5.84,2.05,7.24,7.76,7.76,20.44,1.84,42.89,40.84,31.07,57.36-10,13.98-3.99,19.88,5.28,27.86,4.93,4.25,9.43,9.03,13.85,13.82,3.51,3.8,5.99,5.05,11.02,1.09,15.19-11.95,54.02-2.27,62.94,15.13,.55,1.08,1.38,2.3,1.29,3.39-1.53,18.48,11.13,16.29,22.77,15.88,6.52-.23,13.07-.35,19.57,.05,5.65,.35,7.44-1.53,8.15-7.37,2.41-19.82,37.81-40.4,56.41-33.3,.75,.29,1.63,.6,2.12,1.18,11.5,13.5,18.86,4.12,26.58-4.6,4.05-4.57,8.38-8.96,12.99-12.96,5.06-4.39,7.04-7.71,1.13-13.63-7.97-7.96-8.95-17.83-3.86-28.22,2.86-5.85,5.4-11.89,7.58-18.03,4-11.24,11.62-17.82,23.6-17.68,6.95,.08,8.1-2.96,7.93-8.8-.29-10.6-.38-21.23,.03-31.82,.23-6.01-1.18-8.11-7.85-8.77Zm-359.26,91.7c-.14,15.21-3.65,18.66-18.72,18.85-1.22,.02-2.45,.03-3.67,0-4.52-.13-8.66-.46-10.88,5.25-2.02,5.21,1.25,7.57,3.83,10.52,14.97,17.11,14.98,17.48-1.04,33.46-6.64,6.63-13.26,13.27-19.9,19.89-13.58,13.57-16.19,13.57-29.83,.55-2.56-2.45-4.48-6.02-9.02-6.04-4.21,1.22-8.37,2.58-8.25,8.53,.08,4.07-.2,8.16-.5,12.22-.63,8.74-5.38,13.45-14.16,13.53-15.09,.13-30.18,.14-45.26,0-8.74-.08-13.62-4.64-14.14-13.48-.19-3.25-.24-6.53-.09-9.79,.2-4.33-.38-7.78-5.08-9.9-4.91-2.22-7.52,.55-10.65,3.28q-17.61,15.35-34.33-1.39c-7.49-7.5-15.09-14.9-22.47-22.51-9.4-9.69-9.11-13.78-.31-23.81,3.62-4.13,11.32-6.31,8.2-14.59-3.12-8.26-10.11-5.19-15.7-5.52-13.69-.81-17.42-4.15-17.61-17.67-.19-13.05-.18-26.11,0-39.16,.19-13.72,3.56-16.81,17.74-16.98,2.85-.03,5.76,.32,8.55-.12,6.76-1.05,9.64-7.91,5.51-13.48-2.65-3.58-6.08-6.58-9.08-9.91-5.54-6.15-5.79-12.44,.1-18.43,10.85-11.06,21.79-22.03,32.83-32.91,6.25-6.16,12.87-6.39,19.44-.34,2.1,1.93,3.96,4.13,6.13,5.97,2.91,2.46,4.79,6.82,10.14,4.74,5.1-1.97,5.92-5.6,6.25-10.48,1.53-23.03,1.66-23.02,24.25-23.03,11.42,0,22.84,.24,34.25-.07,10.98-.29,15.67,5.11,15.55,15.61-.04,3.26-.29,6.56,.08,9.78,.91,7.94,7.29,10.71,13.53,5.86,3.21-2.49,6.01-5.5,9.01-8.27,6.5-5.98,13.16-6.15,19.47,.03,11.07,10.84,22.03,21.8,32.84,32.9,8.17,8.39,3.71,15.12-2.83,22.08-3.47,3.7-10.52,5.83-7.59,13.6,3.01,8,9.76,5.96,15.52,6.24,15.01,.74,17.76,3.33,17.9,18.24,.12,12.24,.11,24.48,0,36.71Zm-24.78-16.48c-.67-5.98,3.28-12.95-8.59-14.35-22.1-2.6-34.46-33.35-20.42-50.34,6.51-7.88,1.38-10.53-2.75-14.45-4.2-3.97-6.69-10.73-15.36-3.61-17.16,14.08-46.9,1.62-50.21-20.51-1-6.71-2.91-8.69-9.59-8.59-8.83,.14-17.4-1.3-16.37,12.16,.34,4.48-3.12,8.31-6.36,11.51-12.92,12.78-30.46,14.77-45.15,3.96-5.84-4.3-8.5-.99-10.66,2.54-2.75,4.5-12.53,5.57-7.71,13.93,14.85,25.76,6.28,47.3-21.85,54.03-10.02,2.4-3.62,9.94-4.77,14.94-.83,3.64-2,8.41,5.35,9.71,26.49,4.68,37.52,30.37,22.2,51.92-6.36,8.94,2.66,10.28,5.65,14.19,2.68,3.5,5.06,8.92,12.32,3.26,18.96-14.76,48.56-3.06,51.56,20.45,1.28,10.03,7.01,7.88,12.64,7.86,5.59-.02,11.4,2.28,12.69-7.81,2.99-23.51,32.2-34.75,51.73-20.78,1.57,1.13,2.98,2.48,5.94,4.97,4.62-5.11,9.11-9.78,13.25-14.74,3.72-4.45-.99-6.83-3.22-8.97-13.66-13.08,1.65-50.87,20.29-50.2,9.15,.33,10.17-4.13,9.38-11.09Zm330.79-50.69c-.09,53.92-44.32,98.24-98.02,98.24-53.69,0-97.93-44.34-98.03-98.24-.09-54.05,43.77-97.81,98.02-97.81,54.28,0,98.11,43.74,98.02,97.81Zm-24.82-.64c-.37-40.52-32.97-72.66-73.55-72.52-40.47,.14-72.93,32.77-72.85,73.21,.08,40.19,32.95,73.32,72.94,73.51,40.37,.2,73.83-33.61,73.47-74.21Zm-354.74,49.2c.22,33.78-27.44,61.8-61.11,61.9-33.6,.1-61.42-27.83-61.39-61.63,.03-34.02,27.44-61.06,61.73-60.89,33.65,.16,60.55,27,60.77,60.62Zm-24.79,.73c.23-20.18-15.93-36.57-36.18-36.71-20.29-.14-36.64,15.94-36.75,36.14-.1,19.96,16.4,36.89,36.18,37.1,19.67,.21,36.53-16.55,36.75-36.53Z"/>
</svg>