<?xml version="1.0" encoding="UTF-8"?>
<svg id="Layer_1" data-name="Layer 1" xmlns="http://www.w3.org/2000/svg" viewBox="0 0 800 800">
  <defs>
    <style>
      .cls-1 {
        fill: #020202;
      }

      .cls-2 {
        fill: none;
      }
    </style>
  </defs>
  <rect class="cls-2" width="800" height="800"/>
  <path class="cls-1" d="M361.49,708.47c86.85,0,173.69,0,260.54,0,30.22,0,43.61-13.24,43.62-43.14,.02-70.78,0-141.55,.01-212.33,0-3.44-.07-6.9,.19-10.32,.47-6.24,4.15-10.01,10.17-10.51,6.63-.54,10.9,3.3,12.38,9.59,.77,3.28,.46,6.85,.46,10.28,.02,71.54,.06,143.08,0,214.62-.03,41.25-24.43,65.85-65.54,65.87-172.54,.06-345.09,.02-517.63,.06-6.86,0-13.76,1.03-20.57,.6-24.15-1.52-46.12-21.57-50.53-46.08-1.14-6.36-1.51-12.93-1.52-19.4-.08-145.76-.09-291.52-.04-437.28,0-31.75,13.72-52.8,40.33-62.89,7.36-2.79,14.96-3.02,22.6-3.02,99.09-.05,198.18-.02,297.26-.06,8.45,0,17.52,.11,17.14,11.5-.35,10.58-8.89,11.78-17.58,11.78-97.56-.05-195.12-.04-292.67-.03-31.43,0-43.83,12.33-43.85,43.55-.01,14.16,.51,28.34-.19,42.46-.43,8.66,2.28,10.89,10.89,10.86,94.5-.32,188.99-.2,283.49-.2,15.81,0,21.76,3.46,21.41,12.44-.34,8.96-6.25,12.3-21.91,12.3-94.11,0-188.23,.11-282.34-.18-8.66-.03-11.61,1.73-11.58,11.12,.35,115.92,.19,231.84,.26,347.76,.02,27.15,13.78,40.65,41.22,40.66,87.99,.04,175.99,.02,263.98,.02Zm-196.25-134.39c-15.29,0-30.59-.12-45.87,.11-7.59,.12-12.44,4.07-12.31,12.02,.12,7.54,5.17,10.57,12.08,11.06,2.66,.19,5.35,.08,8.03,.08,155.98,0,311.96,0,467.94,0,3.44,0,6.97,.35,10.3-.29,6.72-1.3,11.4-5.41,10.79-12.57-.55-6.43-4.94-10.11-11.68-10.3-3.44-.1-6.88-.1-10.32-.1-77.61,0-155.22,0-232.82,0-65.37,0-130.75,0-196.12,0Zm429.24,98.98c15.2,0,22.99-4.1,21.77-12.29-1.97-13.13-12.72-10.91-21.66-10.91-155.33-.06-310.67-.04-466-.04-2.68,0-5.36-.07-8.03,.05-7.83,.34-13.68,3.38-13.47,12.17,.2,8.33,6.18,10.68,13.37,10.98,3.06,.13,6.12,.05,9.18,.05,77.28,0,154.57,0,231.85,0s155.33,0,233,0Zm-165.01-174.91c-8.85-.05-17.07,1.39-17.05,12.05,.02,10.16,8.05,11.32,16.41,11.3,56.89-.1,113.79-.12,170.68,.02,8.58,.02,16.34-1.97,16.55-11.51,.24-10.67-8.24-11.94-17.06-11.88-27.87,.19-55.75,.07-83.62,.07-28.64,0-57.28,.1-85.91-.06ZM236.78,248.61c4.93-.28,9.99,.04,14.75-1,5.76-1.26,9.29-5.51,8.95-11.6-.3-5.46-3.62-9.85-9.08-10.22-9.83-.67-19.77-.76-29.58,0-5.84,.45-9.59,5.13-9.58,11.07,0,5.99,3.82,10.09,9.73,10.93,4.84,.69,9.86,.14,14.79,.14v.68Zm-43.14-.64c6.34-.86,10.43-4.66,10.36-11.43-.07-6.76-4.12-10.77-10.58-11.12-9.06-.48-18.22-.59-27.24,.2-6.42,.56-10.14,5.29-9.88,11.85,.24,6.09,4.17,9.78,10.1,10.49,4.48,.54,9.08,.11,13.62,.12,4.55,.01,9.16,.5,13.62-.1Zm-69.3,.66c4.91-.31,9.92-.09,14.7-1.05,5.94-1.19,9.03-5.54,8.72-11.61-.29-5.53-3.41-9.84-8.94-10.19-9.8-.63-19.71-.78-29.48,0-5.78,.46-9.34,4.9-9.32,11.1,.02,6.27,3.72,10.04,9.57,10.89,4.82,.7,9.82,.14,14.74,.14,0,.24,.01,.47,.02,.71Zm321.6,190.75c3.29-5.55,1.68-10.27-2.79-14.15-5.63-4.89-22.98-4.14-27.76,1.15-4.04,4.49-4.5,9.52-.97,14.53,3.9,5.53,9.92,4.62,16.76,4.71,5.05,.3,11.05,0,14.75-6.24Zm322.05-168.24c-.06,14.94-7.36,24.13-22.17,27.44-6.71,1.5-13.56,2.37-20.32,3.64-16.71,3.13-22.16,17.15-12.02,30.83,3.87,5.22,8.03,10.26,11.62,15.66,10.08,15.15,6.98,32.53-7.54,43.62-.3,.23-.61,.46-.92,.69-29.77,22.39-34.42,22.34-63.54-.62-14.09-11.12-27.77-6.07-31.08,11.56-1.06,5.63-1.5,11.39-2.61,17.01-.81,4.1-1.73,8.33-3.51,12.06-7.16,14.95-24.34,20.6-49.57,16.69-14.33-2.22-23.99-12.39-26.42-27.75-.9-5.67-1.87-11.32-2.79-16.98-2.79-17.17-16.44-22.78-30.27-12.42-.31,.23-.62,.46-.91,.7-28.07,23.93-42.2,21.84-66.83-5.31-11.41-12.57-12.9-26.66-3.57-40.82,3.15-4.78,6.81-9.23,10.24-13.83,10.81-14.52,5.69-27.79-12-31.12-2.26-.43-4.47-1.28-6.74-1.39-40.91-1.99-41.2-29.25-36.57-60,1.89-12.52,11.83-19.15,24.05-21.64,5.99-1.22,12.07-2.04,18.1-3.07,18.75-3.22,24.28-16.47,13.1-31.39-.69-.92-1.34-1.86-2.03-2.78-21.33-28.43-18.76-45.55,10.09-67.17,10.9-8.17,23.59-8.5,35.25-.57,4.73,3.22,8.86,7.34,13.65,10.47,5.28,3.45,8.73,10.59,17.71,6.45,9.42-4.33,16.39-8.93,16.29-20.64-.05-6.02,1.54-12.14,3-18.07,3.16-12.88,14.32-22.87,27.54-24.17,7.58-.75,15.31-.73,22.92-.21,14.67,1.01,24.82,9.79,28.23,24.27,1.66,7.05,2.26,14.35,3.59,21.49,3.11,16.64,16.38,21.88,29.97,11.91,3.39-2.49,6.86-4.9,10.07-7.61,11.03-9.32,22.81-13.88,36.84-6.66,15.66,8.07,30.44,27.54,30.63,43.61,.69,10.52-7.99,19.83-15.85,29.01-6.65,7.77-8.01,14.48-2.63,23.48,2.87,4.8,5.66,7.47,11.25,8.04,7.59,.78,15.15,2.17,22.65,3.64,15.31,3,23.04,12.43,23.1,27.83,.03,8.03,.03,16.07,0,24.1Zm-42.47-27.28c-2.25-.46-4.5-.92-6.76-1.28-35.21-5.63-49.55-40.93-28.21-69.48,2.52-3.37,4.68-7.08,7.59-10.05,6.85-7,5.95-12.5-1.14-19.17-12.64-11.88-12.28-12.26-25.82-1.73-4.22,3.28-8.42,6.61-12.68,9.84-6.75,5.11-14.64,7.83-22.66,5.49-22.68-6.61-37.58-12.89-39.46-39.28-.32-4.55-2.02-9.02-2.19-13.56-.32-8.74-4.36-11.81-13.06-11.7-16.7,.22-16.69-.18-18.8,16.32-.48,3.79-1.11,7.56-1.65,11.35-3.21,22.38-31.78,40.33-53.22,33.16-8.87-2.97-15.96-9.24-22.64-15.35-8.91-8.15-14.91-7.66-23.47,1.25-7.89,8.22-10.01,14.12-1.58,22.65,4.26,4.31,7.53,9.62,11.07,14.6,6.48,9.12,7.27,19.18,3.92,29.53-6.06,18.75-16.12,32.95-38.44,33.16-4.9,.05-9.77,1.76-14.69,2.37-5.11,.63-7.41,3.33-7.36,8.36,.05,4.59,.18,9.18-.05,13.76-.32,6.2,2.61,8.98,8.59,9.75,7.57,.97,15.05,3.24,22.63,3.55,22.64,.92,40.71,46.09,24.63,62.52-5.56,5.69-9.55,12.89-14.61,19.11-4.25,5.22-3.35,9.15,1.07,13.93,13.9,15.04,13.83,15.3,30.1,2.94,8.89-6.75,17.61-13.58,30.5-14.45,18.44-.5,39.79,17.26,42.73,36.47,.75,4.91,2.43,9.81,2.36,14.69-.19,12.54,6.43,14.72,17.48,14.7,10.25-.02,14.78-3.14,14.97-13.46,.11-5.67,2.73-11.36,2.47-16.96-1.08-23.69,45.35-42.84,61.98-27.16,6.08,5.73,13.38,10.16,20.13,15.17,2.83,2.1,5.48,3.65,9.36,1.58,15.29-8.17,17.81-18.5,7.55-32.17-2.75-3.67-5.4-7.42-8.26-11.01-8.8-11.03-8.77-22.46-3.92-35.48,6.62-17.8,17.83-27.86,37.24-28.32,4.9-.12,9.74-1.87,14.64-2.67,3.83-.62,5.96-2.32,6.76-6.44,3.54-18.13,.53-22.98-17.09-26.56Zm-374.2,232.72c-.13,26.11-14.44,40.27-40.62,40.37-26.36,.11-52.73,.02-79.09,.02s-52.73,.09-79.09-.02c-25.98-.11-40.28-14.5-40.37-40.62-.1-30.18-.11-60.37,0-90.56,.1-25.88,14.63-40.34,40.62-40.38,52.73-.08,105.46-.09,158.19,0,25.92,.04,40.26,14.47,40.38,40.64,.14,30.18,.15,60.37,0,90.56Zm-24.61,.61c-.27-30.58,0-61.17-.14-91.75-.06-13.38-3.61-16.77-17.24-16.81-26-.09-51.99-.03-77.99-.02-26,0-51.99-.07-77.99,.03-13.07,.05-16.62,3.36-16.69,16.08-.15,30.58-.15,61.17,0,91.75,.06,12.57,3.25,15.92,15.55,15.95,53.14,.13,106.28-.01,159.42,.11,10.61,.02,15.16-4.66,15.07-15.33Zm329.73-218.28c-.33,42.48-34.39,76.37-76.79,76.4-42.26,.04-76.82-34.12-77.15-76.24-.33-42.48,34.54-77.68,77-77.72,42.63-.04,77.28,34.88,76.95,77.56Zm-24.44,.6c.45-29.04-22.51-52.97-51.45-53.62-29.06-.65-52.8,22.18-53.51,51.46-.7,29.13,22.21,53.02,51.33,53.51,29.07,.49,53.19-22.6,53.64-51.34Z"/>
</svg>