<?xml version="1.0" encoding="UTF-8"?>
<svg id="Layer_1" data-name="Layer 1" xmlns="http://www.w3.org/2000/svg" viewBox="0 0 800 800">
  <defs>
    <style>
      .cls-1 {
        fill: #020202;
      }

      .cls-2 {
        fill: none;
      }
    </style>
  </defs>
  <rect class="cls-2" width="800" height="800"/>
  <path class="cls-1" d="M236.89,654.2c-17.83,11.14-35.12,22.01-52.49,32.74-3.87,2.39-3.41,4.3,.01,6.44,17.33,10.8,34.65,21.6,53.61,33.41,0-5.45-.12-8.73,.02-12.01,.37-8.54,5.03-12.89,13.45-13.35,2.24-.12,4.49-.04,6.73-.04,124.53,0,249.05-.02,373.58,.09,3.84,0,9.45-2.27,11.21,2.25,2.27,5.83,1.5,12.54,.28,18.77-.49,2.53-3.42,2.43-5.65,2.44-4.49,.04-8.97,.02-13.46,.02-116.67,0-233.35,.12-350.02-.22-9.9-.03-14.75,1.99-12.9,12.65,.44,2.54,.15,5.23,.05,7.84-.52,13.36-8.73,18.09-20.17,11.08-24.21-14.83-48.19-30.04-72.26-45.09-5.39-3.37-10.92-6.53-16.12-10.16-9.49-6.62-9.91-15.4-.31-21.54,29.91-19.12,60.03-37.91,90.29-56.47,9.72-5.96,17.53-1.3,18.53,10.21,.03,.37,.02,.75,.04,1.12q1.22,21.15,22.17,21.15c108.45,0,216.89-.03,325.34,.11,3.74,0,9.7-2.52,10.9,2.42,1.44,5.93,1.28,12.79-.23,18.73-1.02,4.02-6.62,1.85-10.09,1.86-91.24,.11-182.49,.09-273.73,.09-23.93,0-47.87,0-71.8,0q-23.85,0-26.97-24.54ZM563,140.09c-.56-14.89-3.91-18.13-18.93-18.18-6.36-.02-12.72,0-19.07,0-111.08,0-222.15-.02-333.23,.09-3.48,0-8.55-2.19-10.24,1.79-2.49,5.85-2.03,12.75-.47,18.73,1.51,5.78,7.67,3,11.67,3.01,108.46,.16,216.92,.13,325.38,.13q20.55,0,21.56,20.56c.64,13.03,8.47,17.92,19.37,11.24,29.94-18.35,59.7-37,89.31-55.88,9.64-6.15,9.72-15.34,.04-21.52-29.92-19.1-60.03-37.92-90.33-56.42-9.23-5.64-17.15-1.07-18.26,9.59-.31,2.96-.52,6.04-.07,8.96,1.68,10.87-1.69,14.5-13.64,14.4-75.92-.65-151.84-.33-227.76-.33-43.38,0-86.77-.04-130.15,.07-3.54,0-9.16-1.87-10.15,2.06-1.5,5.95-1.73,12.86-.14,18.73,1.21,4.47,7.29,2.19,11.14,2.2,124.91,.11,249.83,.09,374.74,.09,2.24,0,4.49,.07,6.73-.06,7.5-.43,11.65-4.56,12.36-11.91,.35-3.62,.06-7.3,.06-13.31,19.42,12.13,37.08,23.1,54.65,34.2,3.72,2.35,1.41,4.26-1,5.76-17.33,10.83-34.68,21.62-52.94,33-.31-3.38-.56-5.17-.63-6.96ZM99.41,121.48c-8.68,.44-12.49,1.7-12.2,11.55,.26,8.9,1.1,13.71,11.91,13,8.41-.55,14.22-1.17,11.55-11.55,1.74-9.09-.46-13.55-11.26-13Zm45.78,24.51c8.13-.45,13.23-.75,12.46-11.18-.6-8.06,.09-14.31-11.39-13.25-8.13,.75-15.55-.17-12.4,11.52-2.05,9.45,.91,13.49,11.32,12.91Zm510.87,509.2c-9.32-.04-12.69,1.67-12.89,12.08-.2,10.97,4.17,11.68,12.98,11.78,9.18,.1,13.51-2.16,10.94-11.88,2.46-9.63-1.74-11.93-11.03-11.97Zm33.76,11.92c-.21,9.01,1.79,12.07,11.49,12.05,9.78-.02,12.71-2.37,12.46-12.4-.23-9.46-2.76-13.3-12.25-10.98-10.17-2.69-11.49,2.57-11.7,11.33Zm69.93-148.35c.25,13.84,.27,27.69,0,41.53-.46,23.54-14.48,37.18-38.33,37.25-41.53,.12-83.06,.03-124.59,.04-40.41,0-80.81,.04-121.22-.01-27.2-.03-40.29-13.3-40.38-40.78-.04-12.72-.14-25.44,.03-38.16,.25-18.81,8.37-30.74,26.23-35.62,8.61-2.35,8.03-7.38,8.4-13.87,.4-7.07-1.49-10.25-8.86-12.23-16.66-4.49-25.4-16.56-25.72-33.75-.28-14.96-.27-29.93,0-44.89,.31-17.67,9.3-30.08,26.37-34.43,7.36-1.87,8.59-5.4,8.09-11.69-.48-5.94,1.65-11.68-7.84-14.09-18.2-4.62-26.39-16.61-26.65-35.24-.2-14.21-.23-28.44,0-42.65,.36-22.74,14.31-36.65,37.62-36.77,48.64-.26,97.27-.08,145.91-.09,33.67,0,67.34-.1,101.02,.04,26.43,.11,39.79,13.67,39.96,40.25,.08,13.09,.24,26.19-.05,39.28-.42,18.7-8.77,30.87-26.84,35.19-9.63,2.3-7.63,7.91-8.02,13.92-.4,6.12,.35,9.89,7.92,11.73,17.33,4.23,26.36,16.22,26.87,34.09,.44,15.33,.46,30.69-.05,46.01-.57,17.22-9.55,29.26-26.39,33.27-8.21,1.96-8.81,5.94-8.38,12.43,.37,5.73-1.1,10.86,7.58,13.17,18.87,5.02,26.97,16.66,27.31,36.05Zm-281.65-222.42c55.29,.03,110.58,.01,165.86,.01,25.4,0,50.81,.13,76.21-.06,12.41-.09,15.92-3.79,16.05-16.12,.13-12.33,.12-24.66,0-36.98-.13-13.52-2.9-16.23-16.68-16.25-40.72-.05-81.44-.02-122.16-.02-41.09,0-82.18-.05-123.28,.03-12.1,.03-15.4,3.3-15.57,15.19-.17,11.58-.05,23.16-.03,34.74,.03,16.45,3,19.45,19.59,19.46Zm215.29,23.01c-63.83,.38-127.67,.43-191.5-.04-10.7-.08-8.56,6.11-8.87,12.19-.32,6.37-.7,11.14,8.76,10.95,31.72-.63,63.46-.24,95.18-.24,32.1,0,64.21-.36,96.31,.21,9.9,.18,8.5-5.52,8.4-11.43-.1-5.74,1.77-11.71-8.28-11.65Zm-219.38,116.01c11.2,.25,22.41,.06,33.62,.06,70.23,0,140.46,.03,210.69-.02,14.27-.01,17.76-3.3,17.89-16.55,.11-11.58,.06-23.16,.01-34.74-.06-15.76-2.51-18.29-18.2-18.31-39.97-.06-79.94-.02-119.92-.02-41.09,0-82.18-.07-123.28,.04-12.67,.03-16.18,3.55-16.31,15.78-.14,12.7-.14,25.4,0,38.1,.13,11.49,3.92,15.4,15.48,15.66Zm19.01,35.15c-.41,6.54-.38,10.87,8.88,10.81,63.45-.44,126.9-.47,190.34,.02,9.87,.08,9.55-4.59,9.56-11.49,0-6.96,.18-11.76-9.64-11.55-31.34,.67-62.7,.25-94.05,.25-32.1,0-64.2,.43-96.29-.24-10.79-.23-8.43,6.18-8.81,12.2Zm243.22,53.95c-.03-17.35-2.19-19.61-19.23-19.63-39.66-.04-79.31-.01-118.97-.01-40.78,0-81.56-.07-122.34,.04-14.06,.04-17.11,3.25-17.19,17.26-.07,11.22-.04,22.45,0,33.67,.04,15.65,2.71,18.43,18.2,18.46,33.3,.06,66.59,.02,99.89,.02,47.51,0,95.03,.05,142.54-.03,14.17-.03,16.99-3,17.09-17.23,.07-10.85,.03-21.7,.01-32.55Zm-404.93-55.8c.36,5.39-2.29,11.19,6.67,13.81,20.27,5.95,27.6,16.91,27.75,37.94,.09,12.72,.1,25.44,0,38.16-.19,25.21-13.74,38.91-38.79,38.98-41.15,.1-82.31,.03-123.46,.03-40.78,0-81.56,.05-122.34-.02-26.41-.04-39.79-13.54-39.95-40.17-.08-13.09-.23-26.19,.06-39.28,.42-18.73,8.66-30.46,26.85-35.25,9.01-2.38,7.9-7.68,8.05-13.97,.15-6.06-.28-9.75-7.97-11.62-17.43-4.24-26.36-16.26-26.87-34.09-.43-14.95-.41-29.93-.03-44.89,.46-18.41,9.35-30.09,27.52-34.76,7.02-1.81,7.79-5.4,7.26-11.05-.53-5.74,2.31-11.79-7.54-14.2-18.68-4.57-26.98-16.7-27.3-36.03-.23-14.21-.33-28.44,.04-42.65,.58-21.8,14.21-36.04,36.02-36.12,84.18-.33,168.36-.34,252.54,0,21.81,.09,35.45,14.52,35.85,36.2,.27,14.59,.25,29.18,0,43.77-.3,17.95-8.61,29.89-26.2,34.41-9,2.31-7.81,7.58-8.35,13.8-.61,7.07,1.36,10.36,8.81,12.3,16.32,4.25,25.35,16.72,25.72,33.83,.31,14.58,.24,29.18,.05,43.77-.24,19.06-8.79,31.12-27.43,35.93-7.47,1.93-7.33,5.89-6.97,11.16ZM84.18,296.35c54.54,.03,109.08,.01,163.62,.01,26.15,0,52.3,.12,78.45-.06,12.28-.09,16.09-4.04,16.2-16.07,.12-12.33,.11-24.66,0-36.98-.11-13.3-3.13-16.28-16.73-16.3-40.72-.06-81.44-.02-122.15-.02-41.09,0-82.18-.05-123.28,.03-12.3,.03-15.33,3.02-15.51,15.13-.18,11.58-.06,23.16-.04,34.74,.03,16.81,2.67,19.51,19.44,19.51Zm214.85,22.97c-63.46,.47-126.92,.46-190.38,0-10-.07-9.29,5.02-9.49,11.74-.21,7.17,.07,11.62,9.71,11.41,31.34-.65,62.71-.24,94.06-.24,32.1,0,64.21-.39,96.3,.24,9.53,.19,8.96-4.71,8.7-11.01-.25-6.14,1.69-12.21-8.92-12.13Zm25.01,185.52c-40.03-.06-80.06-.02-120.09-.02s-80.06-.03-120.09,.01c-16.69,.02-19.06,2.37-19.12,18.6-.04,10.85-.04,21.7,0,32.55,.06,15.66,2.57,18.25,18.3,18.27,43.02,.05,86.05,.02,129.07,.02,37.04,0,74.08,.03,111.11-.01,16.84-.02,19.22-2.51,19.25-19.69,.02-10.48,.03-20.95,0-31.43-.05-15.39-2.88-18.28-18.43-18.3Zm-224.87-35.11c.17,6.68-.65,11.85,9.43,11.62,31.71-.71,63.44-.26,95.17-.26,31.35,0,62.71-.35,94.05,.23,8.71,.16,10.91-2.53,10.26-10.68-.55-6.83,1.05-12.48-9.92-12.38-63.07,.6-126.15,.52-189.22,.05-9.62-.07-9.95,4.24-9.77,11.42Zm243.29-51.45c.08-12.7-.06-25.4,.04-38.1,.07-9.8-4.82-14.39-14.44-14.38-82.93,0-165.86,.03-248.8-.03-10.45,0-14.81,5.09-14.58,15.29,.26,11.57,.04,23.16,.06,34.74,.03,16.9,2.64,19.6,19.33,19.61,39.6,.04,79.2,.01,118.8,.01,2.99,0,5.98,0,8.97,0,37.73,0,75.46,.06,113.19-.03,13.75-.03,17.36-3.7,17.44-17.11Z"/>
</svg>