<?xml version="1.0" encoding="UTF-8"?>
<svg id="Layer_1" data-name="Layer 1" xmlns="http://www.w3.org/2000/svg" viewBox="0 0 800 800">
  <defs>
    <style>
      .cls-1 {
        fill: #111212;
      }

      .cls-2 {
        fill: none;
      }
    </style>
  </defs>
  <rect class="cls-2" width="800" height="800"/>
  <path class="cls-1" d="M412.61,70.86c-.02,7.57,.19,15.15-.07,22.71-.27,7.85-4.3,13.24-12.43,13.07-7.46-.16-11.49-5.33-11.6-12.67-.24-15.54-.26-31.09,.01-46.62,.13-7.33,4-12.22,11.78-12.28,8.47-.07,12.03,5.27,12.28,13.07,.24,7.56,.05,15.14,.03,22.71Zm111.57,15.35c-5.5-2.66-10.74-1.63-15.21,2.83-10.11,10.1-20.25,20.15-30.44,30.17-5.9,5.81-8.03,12.47-1.77,18.74,6.14,6.15,12.92,4.5,18.82-1.38,9.83-9.81,19.68-19.6,29.49-29.43,2.84-2.84,5.37-5.9,5.37-10.26,.13-4.86-2.11-8.66-6.27-10.67Zm-252.21,4.88c-2.78,5.27-1.42,10.12,2.56,14.2,10.01,10.26,20.15,20.39,30.2,30.61,5.86,5.95,12.43,7.78,18.74,1.47,6.46-6.46,3.99-12.99-1.78-18.77-9.56-9.59-19.12-19.17-28.65-28.79-2.89-2.91-5.97-5.31-10.29-4.92-5.03-.3-8.58,2.04-10.78,6.21Zm499.94,369.74c0,78.66,.02,157.32,0,235.97-.02,45.73-23.52,69.15-69.36,69.15-100.97,0-201.94,0-302.91,0-100.97,0-201.94,.02-302.91,0-43.32-.01-67.57-24.09-67.6-67.31-.06-107.01,.18-214.01-.14-321.02-.09-31.47,12.23-53.92,42.69-64.54,4.48-1.56,5.35-4,5.33-7.85-.02-5.19-.12-10.39,.04-15.57,.73-24.57,15.72-39.36,40.27-38.93,43.52,.76,86.7,5.34,129.44,13.52,10.51,2.01,15.38,2.3,18.31-11.29,13.66-63.41,65.8-107.84,126.41-110.14,66.17-2.51,121.42,35.3,140.99,96.49,.36,1.14,.77,2.27,1.08,3.42,2.04,7.61,1.91,19.34,6.63,21.81,6,3.14,15.97-.99,24.15-2.38,39.36-6.66,78.97-10.73,118.88-11.45,25.58-.46,40.2,13.95,40.79,39.42,.08,3.59,.23,7.2-.03,10.78-.46,6.58,.94,10.26,8.49,12.94,25.17,8.93,39.07,30.15,39.37,58.35,.32,29.54,.08,59.09,.08,88.64Zm-444.99-92.41c22.06,17.88,36.05,38.97,37.03,67.87,.26,7.77,3.88,13.66,11.56,16.58,9.94,3.77,12.8,1.95,12.84-8.76,.08-19.96-.21-39.93,.15-59.89,.12-6.84-1.81-12.07-6.27-17.27-16.63-19.38-32.83-39.13-49.23-58.71-3.88-4.64-5.79-9.66-2.9-15.42,2.7-5.36,7.62-6.31,13.16-6.3,37.92,.08,75.83,.08,113.75,0,5.93-.01,11.35,.77,13.95,6.92,2.49,5.88,.51,10.87-3.82,15.18-12.73,12.68-25.41,25.4-38.14,38.07-5.48,5.46-11.58,7.52-17.85,1.58-6.69-6.33-5.06-12.72,.87-18.73,5.68-5.75,11.3-11.55,18.09-18.5h-63.19c13.79,16.52,25.82,31.36,38.37,45.74,5.34,6.12,7.59,12.57,7.45,20.65-.36,21.56-.26,43.12,0,64.68,.05,3.99-2.58,9.78,2.7,11.68,5.44,1.95,11.05-.36,15.51-4.18,4.56-3.91,5.89-9.28,6.14-15.06,1.17-26.95,13.54-47.63,34.59-64.07,23-17.96,36.6-42.06,41.58-70.61,9.4-53.91-22.9-108.38-74.39-126.53-52.17-18.39-109.67,2.9-137.45,50.89-27.63,47.73-17.27,109.52,25.5,144.18Zm-2.79,370.84c-2.17-.96-4.39-1.84-6.67-2.49-63.53-17.92-128.27-28.24-194.24-30.48-33.29-1.13-46.21-13.93-46.21-46.97-.02-102.59,0-205.17,0-307.76,0-4.35,0-8.7,0-14.83-17.74,8.46-23.74,21.07-23.7,37.67,.12,65.46,.05,130.93,.05,196.39,0,43.91-.15,87.82,.06,131.73,.12,23.3,14.09,39.03,36.15,39.14,78.94,.4,157.89,.16,236.66,.16,.47-2.13-1.14-2.16-2.08-2.57Zm97.06-7.53c84.32-31.62,171.53-48.14,261.57-49.79,12.04-.22,16.74-4.78,16.76-16.83,.11-124.6,.11-249.21,0-373.81-.01-12.71-4.15-16.74-16.62-16.46-45.54,1.02-90.62,6.61-135.39,14.74-5.3,.96-8.78,2.81-9.66,9.69-4.61,36-20.92,66.12-49.24,88.81-16.98,13.61-26.39,29.71-27.78,51.78-1.46,23.25-18.91,37.99-42.53,38.47-11.17,.23-22.36,.15-33.53,.03-25.63-.28-42.12-14.91-44.09-40.69-1.57-20.56-10.41-36.13-26.51-48.72-28.67-22.41-45.23-52.32-50.54-88.12-1.11-7.53-4.11-10.27-10.66-11.43-42.84-7.57-85.91-13.06-129.43-14.48-19.54-.64-22.31,2.13-22.31,21.58-.01,121.01-.01,242.02,0,363.03,0,19.21,3.04,22.09,22.06,22.53,58.38,1.33,115.85,9.27,172.51,23.49,30.87,7.75,61.05,17.65,91.74,28.7,.45-2.99,.78-4.15,.78-5.31,.03-64.7-.14-129.4,.25-194.09,.05-8.35-3.51-8.83-9.92-8.67-8.41,.21-14.14-3.99-13.79-12.85,.34-8.39,6.23-11.22,14.1-11.14,13.97,.14,27.95,.19,41.91-.02,8.17-.12,14.91,2.08,15.2,11.25,.3,9.61-6.3,13.39-15.06,12.77-6.95-.49-8.58,2.14-8.55,8.76,.23,63.5,.24,127,0,190.5-.03,7.39,1.83,8.86,8.7,6.28Zm326.42-353.71c0-5.55-.14-11.25-1.34-16.63-2.58-11.52-9.62-19.48-22.26-24.73,0,5.66,0,9.92,0,14.18,0,104.16,.06,208.31-.04,312.47-.03,27.53-14.5,42.09-41.79,42.83-39.9,1.09-79.5,5.2-118.76,12.25-30.06,5.4-59.87,11.91-88.81,23.46,76.18,0,152.37,0,228.55,0,31.34,0,44.51-13.05,44.51-44.18,.02-106.55,.03-213.1-.05-319.65ZM137.45,585.14c-.67,11.3,8.06,12.93,17.18,13.47,10.74,.64,21.49,1.61,32.17,2.95,49.88,6.22,98.92,16.47,146.93,31.46,8.41,2.63,15.52,1.69,18.47-7.42,3.3-10.18-3.55-14.64-11.89-17.12-60.12-17.86-121.35-29.78-180.71-33.82-12.03-.97-21.45-1.25-22.14,10.48Zm331.8,47.18c58.61-17.04,118.17-28.74,179.23-32.19,8.33-.47,15.48-3.51,15.11-13.23-.38-10.13-7.88-11.4-16.3-11.07-25.49,1.01-50.75,4.22-75.93,8.03-38.94,5.91-77.24,14.71-114.93,26.17-7.06,2.15-11.11,6.67-9.54,14.19,1.54,7.36,7.1,10.08,15.34,9.98,1.68-.45,4.37-1.1,7.03-1.87Zm48.86-98.85c-19.34,4.53-38.46,10-57.63,15.22-8.09,2.2-16.19,5.55-13.42,16.07,2.65,10.07,10.57,10.59,19.21,7.68,1.5-.51,3.16-.51,4.68-.99,57.65-18.07,116.75-28.39,176.92-32.82,8.96-.66,16.41-3.23,15.67-13.69-.71-10.07-8.48-11.31-14.78-10.73-45.37,3.19-88.31,9.35-130.65,19.26Zm-364.56-77.9c-8.62-.92-15.69,1.31-16.25,11.16-.55,9.63,6.16,13.13,14.69,13.6,61.5,3.38,121.49,15.16,180.47,32.49,8.72,2.56,16.47,3.01,19.25-7.23,2.83-10.41-4.89-13.68-13.13-16.17-57.7-17.44-116.57-28.54-176.69-33.03-2.78-.27-5.56-.52-8.33-.81Zm410.32,10.93c-36.1,6.33-71.67,14.75-106.69,25.59-6.49,2.01-10.68,5.42-10.57,12.48,.09,5.92,3.55,10.14,9.05,11.16,3.63,.67,7.82-.6,11.55-1.71,39.73-11.84,79.97-21.1,121.12-26.66,20.56-2.78,41.11-5.17,61.78-6.68,8.44-.62,14-4.62,13.47-13.37-.5-8.28-6.35-11.36-14.28-10.84-1.99,.13-3.99,.02-5.43,.02-27.12,2.73-53.67,5.41-79.99,10.02Zm-424.65,52.76c-5.85,8.53,.35,18.2,12.59,19.11,32.15,2.39,64.12,6.16,95.79,12.22,28.09,5.38,55.92,11.86,83.25,20.41,8.29,2.59,16.5,2.76,19.37-7.52,2.48-8.9-3.56-13.03-11.17-15.28-60-17.75-121.1-29.53-185.69-33.89-3.88-.19-10.05-1.01-14.13,4.94Zm22.55-146.71c-2.78-.22-5.56-.38-8.33-.68-8.01-.86-14.89,.91-15.99,10.05-1.17,9.72,5.61,13.81,13.88,14.34,28.19,1.79,56.09,5.73,84.01,9.8,10.27,1.49,17.8-7.73,14.38-16.27-2.87-7.18-9.63-8.03-15.78-8.88-23.99-3.31-48.04-6.18-72.07-9.21-.03,.29-.07,.57-.1,.86Zm-24.3-40.07c-1.24,8.12,3.61,12.97,11.32,13.92,15.75,1.94,31.54,3.63,47.37,4.67,7.09,.47,12.47-3.76,13.26-11.06,.8-7.38-3.19-11.95-10.88-12.83-14.19-1.62-28.37-3.3-42.55-4.96-8.26-.11-16.86-.64-18.53,10.26Z"/>
</svg>