<?xml version="1.0" encoding="UTF-8"?>
<svg id="Layer_1" data-name="Layer 1" xmlns="http://www.w3.org/2000/svg" viewBox="0 0 800 800">
  <defs>
    <style>
      .cls-1 {
        fill: none;
      }

      .cls-2 {
        fill: #010101;
      }
    </style>
  </defs>
  <rect class="cls-1" width="800" height="800"/>
  <path class="cls-2" d="M767.69,369.32c-16.38-36.82-65.04-43.93-93.91-14.93-27.4,27.53-54.29,55.56-81.45,83.33-3.3,3.37-5.76,8.61-11.85,2.39-12.71-12.99-28.84-17.07-46.75-16.95-47.79,.34-95.58,.02-143.37,.21-8.28,.03-16.04-1.13-23.87-3.92-76.02-27.15-177.24-3.38-223.23,76.01-2.74,4.72-6.01,5.91-11.29,5.74-12.21-.39-22.84,4.22-31.5,12.8-22.62,22.42-45.2,44.89-67.57,67.55-8.37,8.48-8.5,16-.19,24.38,53.32,53.79,106.76,107.45,160.28,161.03,8.27,8.28,15.98,8.32,24.36,.18,23.12-22.46,46.15-45.02,68.9-67.86,10.47-10.52,14.75-23.53,12.18-38.39-.6-3.46-1.64-6.51,1.4-9.67,13.23-13.74,26.99-24.78,48.17-24,31.43,1.17,62.93,.3,94.4,.3,31.47,0,62.95,.31,94.41-.09,35.76-.45,68.26-11.73,91.88-38.68,45.55-51.97,89.36-105.49,133.37-158.8,15.19-18.4,14.53-40.64,5.63-60.63Zm-504.78,311.94c-17.02,16.98-34.41,33.6-51.35,50.67-4.44,4.47-7.18,5.12-12.01,.22-43.59-44.17-87.35-88.17-131.34-131.95-5.17-5.15-4.92-8,.12-12.87,17.01-16.44,33.61-33.29,50.27-50.09,3.71-3.73,7.63-6.58,13.13-6.16,5.14-.23,8.77,2.5,12.17,5.89,39.81,39.73,79.72,79.36,119.43,119.19,8.82,8.85,8.58,16.12-.42,25.11Zm471.68-263.69c-40.64,48.5-81.31,96.96-122.03,145.39-19.12,22.74-43.84,34.24-73.37,34.66-32.23,.45-64.46,.1-96.7,.1v.06c-31.07,0-62.14,.31-93.2-.1-24.2-.32-45.16,6.84-61.7,24.8-5.81,6.31-9.54,7.3-16.31,.38-32.57-33.3-65.59-66.17-98.94-98.7-6.48-6.32-6.21-10.71-1.63-17.67,26.81-40.84,65.33-61.98,113.05-67.21,27.77-3.04,55.06-.33,81.08,10.85,5.84,2.51,12.04,2.6,18.3,2.59,50.87-.07,101.75-.13,152.62,.01,19.43,.06,31.43,9.84,32.77,25.97,1.55,18.72-10.99,31.8-31.43,31.93-35.73,.24-71.46,.06-107.18,.08-3.49,0-7.03-.14-10.46,.35-8.56,1.24-13.57,6.65-13.13,15.03,.4,7.65,5.14,13.41,13.45,13.43,43.1,.09,86.25,1.06,129.28-.71,27.1-1.12,48.65-27.46,49.23-56.13,.14-6.82,2.19-11.5,6.87-16.24,28.91-29.28,57.55-58.84,86.29-88.29,14.14-14.48,30.37-16.36,43.27-5.06,13.08,11.45,13.12,28.66-.12,44.46ZM462.9,27.32c-87.86-.95-161.05,70.58-162.11,158.44-1.07,88.2,70.77,161.03,159.73,161.93,87.68,.89,160.77-70.1,161.86-157.23,1.12-89.57-69.85-162.18-159.48-163.14Zm-.64,291.3c-72.35,.28-131.45-58.46-131.62-130.79-.17-72.41,58.52-131.14,131.09-131.17,72.49-.03,131.26,58.81,131.03,131.21-.23,72.01-58.59,130.48-130.49,130.76Zm-87.82,205.04c-.41,8.15-7.42,14.6-15.52,13.61-9.06-1.11-13.92-6.59-13.13-15.8,.75-8.61,6.15-13.08,14.72-13.07,8.15,0,14.34,7.04,13.93,15.26Zm124.54-383.78c.34,12-10.79,19.16-20.91,13.9-3.41-1.78-6.23-4.65-9.56-6.61-6.14-3.61-12.55-4.34-18.52,.24-4.69,3.59-6.8,8.62-5.08,14.45,2.11,7.17,7.33,10.1,14.73,11.01,34.13,4.23,52.31,33.8,38.69,62.54-1.15,2.44-2.31,5.15-4.22,6.91-11.33,10.43-23.49,19.57-22.46,38.1,.37,6.67-8.15,9.82-15.52,8.54-7.49-1.3-12.61-6.55-11.76-13.7,1.52-12.78-3.54-20.01-14.75-25.14-5.51-2.52-9.94-7.47-13.19-12.89-4.22-7.04-2.9-13.64,3.13-18.8,5.72-4.89,12.14-4.8,18.13-.12,3.65,2.86,6.8,6.4,10.58,9.07,5.83,4.12,12.37,5.16,18.52,.95,5.17-3.54,7.7-8.78,5.79-15.2-2.17-7.3-7.51-9.8-14.86-10.73-35.34-4.49-53.57-37.57-36.71-66.07,1.18-2,2.29-4.32,4.06-5.63,11.87-8.77,21.86-17.76,20.43-35.1-.54-6.57,7.43-10.35,14.98-9.59,7.72,.78,13.34,6.05,12.61,12.87-1.52,14.35,5.41,21.71,16.91,27.66,5.1,2.64,9.24,7.26,8.98,13.35Z"/>
</svg>