<?xml version="1.0" encoding="UTF-8"?>
<svg id="Layer_1" data-name="Layer 1" xmlns="http://www.w3.org/2000/svg" viewBox="0 0 800 800">
  <defs>
    <style>
      .cls-1 {
        fill: none;
      }

      .cls-2 {
        fill: #010101;
      }
    </style>
  </defs>
  <rect class="cls-1" width="800" height="800"/>
  <path class="cls-2" d="M467.85,439.08c4.44-3.9,7.66-10.21,9.28-16.02,2.38-8.55,7.22-9.98,15.17-9.91,42.76,.36,85.53,.45,128.29-.05,9.07-.11,13.51,2.11,16.93,11.11,11.86,31.22,46.9,46.67,78.34,35.66,27.47-9.62,44.59-36.75,41.84-66.3-2.6-27.93-25.18-50.93-54.2-55.19-28.46-4.18-56.26,11.74-66.35,39.25-3,8.17-6.91,10.45-15.14,10.24-21.56-.55-43.15-.19-64.73-.19s-41.6-.5-62.37,.22c-9.71,.33-16.06-1.02-18.49-11.95-1.5-6.74-6.08-12.77-11.34-17.57-4.61-4.2-4.78-7.79-1.64-13.19,8.84-15.22,18.63-30.19,25.03-46.44,7.81-19.83,20.2-26.37,40.9-24.09,10.54,1.16,16.76,2.13,21.27,13.48,11.05,27.79,40.33,41.67,70.49,35.69,27.07-5.37,48.16-31.13,49.14-60,.93-27.56-18.87-54.51-45.34-61.71-28.99-7.88-60.17,3.37-71.8,30.1-6.91,15.86-15.82,19.56-30.61,17.4-2.3-.34-4.74-.32-7.05,0-7,.99-8.53-2.36-8.42-8.73,.32-20,.6-40.02-.09-59.99-.34-9.81,2.26-16.99,9.72-23.63,11.4-10.15,20.07-25.68,33.14-31.03,13.48-5.52,30.88-1.01,46.48-2.06,8.83-.59,12.49,2.15,15.66,10.52,12.61,33.28,49.78,48.8,82.26,35.28,32.14-13.38,47.27-51.27,33.28-83.32-10.25-23.48-32.82-37.92-58.76-37.57-25.27,.34-48.18,15.78-56.83,40.09-3.06,8.58-6.91,11-15.63,10.51-14.86-.84-29.8-.16-44.71-.26-6.9-.04-14.21,.6-18.28,6.27-8.25,11.48-17.64,10.9-29.36,6.33-6.74-2.63-10.28-4.95-9.94-12.93,.67-16.05,.35-32.15,.15-48.23-.21-16.73-9.43-26.68-26.03-26.88-32.56-.39-65.13-.37-97.69-.02-17.31,.19-26.95,10.78-27.07,28.54-.1,16.08-.31,32.17,.12,48.23,.17,6.24-1.92,9.14-7.95,10.62-21.83,5.37-42.46,14.09-61.77,25.39-6.92,4.05-10.19,2.1-14.7-2.56-11.18-11.54-22.52-22.94-34.08-34.1-12.24-11.82-26.16-11.79-38.35,.22-22.63,22.29-45.11,44.75-67.45,67.34-13.01,13.16-12.81,26.65,.37,40.14,11.23,11.5,22.67,22.8,34.15,34.05,3.76,3.68,5.21,6.73,2.09,12.12-11.59,20.01-20.37,41.32-26.37,63.66-1.57,5.84-4.36,7.33-9.88,7.24-16.08-.26-32.17-.22-48.25-.05-18.89,.19-29.15,10.35-29.22,29.05-.12,30.98-.11,61.96,0,92.94,.06,18.86,10.17,29.14,28.9,29.38,15.69,.2,31.4,.44,47.07-.13,7.34-.27,10.09,2.28,11.97,9.27,5.7,21.18,14.09,41.42,25.08,60.41,3.44,5.95,2.81,9.51-1.98,14.06-11.65,11.07-22.96,22.51-34.15,34.04-12.48,12.86-12.57,26.55,0,39.28,22.32,22.61,44.81,45.05,67.44,67.34,12.6,12.42,26.52,12.29,39.26-.13,11.51-11.22,22.92-22.55,34-34.18,4.45-4.68,7.64-5.55,13.82-1.99,19.4,11.16,39.95,20.06,61.79,25.38,6.79,1.65,8.38,5.16,8.21,11.63-.42,16.07-.26,32.16-.1,48.23,.17,16.84,10.03,27.44,26.79,27.64,32.56,.38,65.13,.38,97.69,0,16.69-.19,26.05-10.06,26.28-26.64,.22-15.29-.08-30.59,.13-45.88,.07-5.41-2.63-13.18,6.17-13.96,9.06-.81,18.14-12.48,27.47-.24,6.72,8.81,15.94,11.79,26.95,11.37,14.1-.53,28.27,.37,42.36-.32,8.25-.4,11.67,2.21,14.63,10.23,12.46,33.74,49.87,49.27,83.05,35.41,31.3-13.07,46.33-51.03,32.72-82.62-10.1-23.45-33.16-38.54-58.42-38.24-25.54,.31-48.68,16.2-57.54,41.03-2.73,7.66-6.06,10-13.92,9.62-16.04-.79-33.86,3.74-47.71-1.89-13.4-5.45-22.73-20.91-33.85-31.97-.83-.83-1.65-1.69-2.57-2.42-5-3.96-6.67-9-6.57-15.43,.33-20.78,.65-41.59-.11-62.34-.35-9.53,2.76-12.76,11.81-11.35,2.3,.36,4.73,.28,7.05,.02,12.49-1.42,20.36,.73,26.04,15.15,10.34,26.28,40.5,39.29,68.28,33.41,28.72-6.09,49.31-30.79,50.17-60.2,.8-27.53-18.53-53.81-45.45-61.77-26.74-7.91-59.7,2.8-70.46,28.58-8.21,19.68-20.14,20.89-36.56,19.3-2.72-.26-5.54-.37-8.23,.03-5.98,.88-9.02-1.86-11.73-7.02-10.2-19.38-20.54-38.71-31.56-57.63-4.84-8.3-6.99-14.64,1.57-22.16Zm227.45-75.87c21.01,.06,36.89,16.04,36.92,37.15,.04,21.17-15.73,37.26-36.68,37.41-21.14,.16-38.54-17.06-38.15-37.75,.39-20.52,17.23-36.87,37.91-36.82Zm-87.65-138.09c20.74,.18,37.09,16.66,37.08,37.38-.01,20.55-16.67,37.37-37.15,37.51-20.85,.15-38.31-17.41-37.92-38.15,.38-20.47,17.39-36.92,38-36.75Zm61.87-150.93c20.5-.4,38.54,17.44,38.36,37.92-.18,20.2-17.39,37.1-37.78,37.12-20.84,.01-37.14-16.26-37.2-37.14-.06-20.9,15.99-37.51,36.62-37.9Zm-.12,577.55c20.79-.44,38.62,16.98,38.48,37.59-.13,20.11-17.47,37.35-37.67,37.44-20.55,.1-37.21-16.5-37.32-37.18-.12-21.1,15.61-37.41,36.5-37.85Zm-62.32-150.77c20.52-.1,37.47,16.57,37.65,37.01,.18,20.82-15.89,37.46-36.58,37.88-21.1,.43-38.55-16.53-38.49-37.41,.05-20.34,17.06-37.37,37.43-37.47Zm-105.59,162.27c-7.41,2.31-12.37,4.57-17.55,5.31-11.79,1.7-15.48,8.79-15.33,19.73,.27,18.43-.11,36.86,.18,55.29,.09,5.91-1.45,8.3-7.86,8.23-28.24-.3-56.49-.28-84.73,0-5.96,.06-7.19-2.23-7.12-7.58,.25-18.43-.22-36.87,.21-55.29,.27-11.52-3.73-17.91-15.76-20.61-27.7-6.21-53.84-16.9-77.85-32.14-9.65-6.13-16.83-5.5-24.71,2.92-12.6,13.43-26.21,25.91-38.96,39.2-4.34,4.52-6.82,5.67-11.81,.51-19.36-20.01-39.03-39.73-59.05-59.08-5.5-5.32-4.69-8.14,.37-12.94,13.36-12.69,25.98-26.15,39.27-38.91,7.33-7.04,8.82-13.69,3.17-22.73-15.85-25.35-27.2-52.67-33.61-81.96-1.99-9.09-7.7-12.96-16.87-12.88-18.83,.17-37.67-.28-56.48,.21-7.16,.19-9.4-1.7-9.28-9.09,.44-27.44,.38-54.9,.03-82.34-.08-6.66,1.81-8.76,8.54-8.6,18.43,.42,36.88-.12,55.31,.24,11.25,.22,16.73-4.28,19.34-15.67,6.32-27.55,16.79-53.7,32.13-77.55,6.54-10.16,5.31-17.52-3.39-25.58-13.21-12.26-25.45-25.57-38.42-38.1-4.41-4.26-5.85-7-.61-12.07,20.27-19.65,40.2-39.66,59.95-59.84,4.4-4.5,6.84-4.05,10.97,.24,13.32,13.84,27.22,27.11,40.59,40.9,6.82,7.03,13.52,8.03,21.91,2.72,25.4-16.06,52.93-27.16,82.2-33.83,9.26-2.11,12.96-7.81,12.94-16.8-.04-18.82,.24-37.65-.15-56.46-.14-6.72,.98-9.7,8.8-9.55,27.45,.5,54.92,.41,82.37,.05,6.82-.09,8.76,2.09,8.61,8.71-.39,16.85-.14,33.72-.13,50.58,.01,18.79,.62,19.54,19.14,24.87,3.68,1.06,7.3,2.36,13.62,4.41-14.48,10.92-21.82,22.92-19.73,39.57,1.01,8.06-5.02,4.69-8.72,3.8-51-12.37-100.46-7.6-148.22,13.83-93.78,42.08-147.3,145.59-127.74,246.54,25.11,129.64,147.22,208.35,276.41,178.23,3.31-.77,9.1-3.84,8.23,3.24-2.09,16.95,5.17,29.36,19.82,40.29Zm-37.04-153.58c15.12,22.1,20.02,45.9,17.76,72.15-.63,7.26-2.96,10.28-9.52,12.14-108.52,30.7-221.45-35.21-249.2-145.68-3.91-15.58-6.16-31.46-5.55-43.24-.12-137.16,126.21-233.29,254.42-198.13,7.33,2.01,10.87,5.45,9.55,13.12-.07,.38-.05,.79,0,1.17,3.09,25.47-2.82,48.39-17.29,69.81-8.93,13.22-15.77,27.89-23.09,42.15-2.75,5.36-5.67,7.03-11.9,5.96-27.16-4.64-48.95,4.99-63.57,27.97-14.04,22.07-13.87,45.57,.43,67.48,14.61,22.39,36.14,31.89,62.78,27.31,6.94-1.19,9.78,1.07,12.65,6.66,7.14,13.91,13.75,28.27,22.54,41.12Zm-8.05-109.67c.15,21.33-16.45,37.93-37.8,37.78-20.63-.14-37.34-16.9-37.27-37.39,.07-20.52,16.8-37.12,37.48-37.17,20.88-.06,37.45,16.15,37.6,36.78Zm-212.2-21.86c4.34-46.18,25.03-83.07,62.64-110.44,7.4-5.39,14.92-8.6,21.49,.12,6.79,9.02,.82,15.16-6.43,20.33-32.98,23.55-50.4,55.89-53.4,95.95-.72,9.57-3.2,16.8-13.84,16.06-10.32-.72-11.7-8.74-10.88-17.34,.15-1.56,.28-3.12,.43-4.68Z"/>
</svg>