<?xml version="1.0" encoding="UTF-8"?>
<svg id="Layer_1" data-name="Layer 1" xmlns="http://www.w3.org/2000/svg" viewBox="0 0 800 800">
  <defs>
    <style>
      .cls-1 {
        fill: #010201;
      }

      .cls-2 {
        fill: none;
      }
    </style>
  </defs>
  <rect class="cls-2" width="800" height="800"/>
  <path class="cls-1" d="M743.88,400.52c0,98.48,.01,196.96,0,295.44,0,44.63-24.57,69.42-68.83,69.43-84.32,.03-168.63,.03-252.95,0-43.21-.02-67.56-24.5-67.58-67.87-.03-59.57,0-119.15,0-178.72,0-2.84-.05-5.68,.04-8.51,.24-7.68,4.01-12.35,11.89-12.38,7.81-.03,11.83,4.77,12.37,12.18,.44,6.05,.15,12.15,.15,18.23,0,57.14-.05,114.28,.03,171.43,.03,26.74,14.49,41.15,41.4,41.17,85.53,.07,171.07,.06,256.6,0,27.9-.02,42.42-14.76,42.42-42.99,.03-198.58,.03-397.16,0-595.74,0-27.78-14.18-42.09-41.7-42.1-85.94-.05-171.88-.05-257.81,0-27.09,.02-40.89,13.95-40.92,41.26-.05,59.98,0,119.96-.04,179.94,0,4.04,.28,8.22-.64,12.08-1.46,6.17-5.96,9.96-12.33,9.62-6.26-.33-10.45-4.15-11.27-10.69-.35-2.8-.2-5.66-.2-8.5,0-61.19-.06-122.39,.01-183.58,.05-39.58,24.9-64.54,64.35-64.57,86.75-.06,173.5-.07,260.25,0,39.09,.03,64.68,25.47,64.72,64.57,.12,100.1,.04,200.2,.04,300.3Zm-172.97-48.58c4.78,0,9.41-.55,13.42,3.71,9.15,9.74,18.74,19.09,28.32,28.41,3.47,3.37,4.23,5.86,.62,10.02-12.73,14.7-25.2,29.64-37.35,44.83-4,5-7.4,5.43-11.87,1.3-15.37-14.21-33.74-17.47-53.93-15.61-10.05,.92-20.38,1.16-30.37-.07-15.68-1.93-27.72,3.09-36.77,15.62-5.6,7.75-13.04,9.27-22.17,9.11-27.97-.49-55.97,.39-83.92-.44-12.1-.36-18.81,3.81-25.09,14.21-45.56,75.41-153.16,78.56-203.16,6.37-41.05-59.26-22.86-137.94,40.69-175.19,7.62-4.46,14.7-9.39,9.7-18.89-5.36-10.2-13.85-6.98-21.95-2.54-55.87,30.62-86.82,98.62-71.31,159.29,15.35,59.99,53.6,99.33,114.19,111.17,62.15,12.14,113-10.56,149.86-62.5,3.75-5.29,7.22-7.42,13.65-7.34,30,.34,60.01,0,90.01,.26,7.42,.06,13.94-1.4,18.2-7.55,10.38-14.98,24.79-16.89,41.99-17.47,26.06-.88,49.58,2.21,69.61,20.42,7.83,7.12,15.27,5.09,21.88-2.94,18.53-22.53,37.19-44.96,56.05-67.22,6.79-8.02,6.58-14.84-.98-22.18-13.37-12.99-26.74-26.01-39.44-39.65-6.64-7.13-13.78-9.8-23.48-9.76-77.44,.32-154.88,.13-232.33,.28-6.55,.01-10.77-1.4-14.9-7.42-30.74-44.8-73.53-66.71-127.99-65.6-9.14,.19-18.14,1.33-17.59,13.18,.51,10.92,8.9,11.61,17.74,11.42,49.22-1.06,86.8,19.43,111.87,61.87,4.73,8.01,10.43,11.13,19.6,11.05,39.33-.34,78.66-.15,117.99-.14,39.73,0,79.47,0,119.2,.01Zm-224.1,24.12c-8.45-.03-16.17,1.18-16.39,11.54-.22,10.76,7.37,13.02,16.5,13.01,69.68-.06,139.35-.08,209.03,.02,9.08,.01,17.15-2.17,17.18-12.53,.03-10.68-8.33-12.1-17.29-12.05-34.84,.18-69.68,.07-104.51,.07-34.84,0-69.68,.08-104.52-.05Zm-25.83,197.66c6.97-4.53,12.88-9.83,7.51-18.69-5.61-9.25-12.99-6.85-20.78-2.05-59.47,36.64-120.71,39.16-183.46,8.91-7.93-3.82-15.79-6.33-20.82,3.43-5.2,10.09,2.22,14.62,9.78,18.56,29.94,15.61,61.92,22.92,95.56,23.42,40.58-.61,78.09-11.41,112.21-33.59ZM74.9,242.19c-6.67,5.52-10.68,11.96-4.31,19.7,6.45,7.85,13.31,4.69,20.08-.67,53.12-42.01,112.1-53.26,176.86-33.12,8.6,2.67,16.6,3.44,19.89-6.85,3.42-10.69-4.72-14.41-12.7-16.99-21.3-6.88-43.15-10.58-65.63-10.51-50.17,1.03-95.25,16.18-134.19,48.42ZM493.65,84.21c-8.71-.07-17.19,.6-17.25,11.86-.06,10.8,7.79,12.71,16.8,12.69,37.25-.09,74.5-.11,111.75,.01,9.17,.03,16.98-2.51,16.86-12.85-.11-9.78-7.73-11.85-16.41-11.73-18.62,.25-37.25,.08-55.87,.07-18.62,0-37.25,.1-55.87-.05Zm68.35,632.25c6.82-.9,11.33-5.22,11.26-12.12-.08-7.51-4.75-11.81-12.43-11.98-8.08-.18-16.17-.21-24.25,.03-7.14,.21-11.3,4.17-11.65,11.32-.36,7.17,3.72,11.51,10.45,12.69,4.31,.76,8.86,.14,13.31,.15,4.44,0,8.95,.48,13.32-.1ZM305.93,242.46c.16,7.2,4.39,11.62,11.23,11.93,7.45,.34,12.56-4.2,12.84-11.7,.28-7.55-4.51-11.69-12.71-12.63-6.72,.94-11.53,4.36-11.35,12.4ZM73.83,534.39c-7.09,.38-11.28,4.43-11.16,11.73,.12,7.7,4.51,12.39,12.09,12.25,7.54-.13,11.43-5.18,12.29-12.87-1.4-7.06-5.47-11.54-13.22-11.12Zm134.78-134.04c-.1,26.47-22.47,48.79-48.92,48.81-26.76,.02-48.42-21.85-48.44-48.91-.02-27.2,21.3-48.47,48.53-48.43,27.02,.05,48.93,21.82,48.82,48.53Zm-47.64-24.03c-13.87-.72-25.15,9.87-25.25,23.69-.09,13.09,10.57,24.33,23.41,24.68,12.46,.34,24.3-10.78,24.97-23.46,.67-12.62-10.12-24.24-23.13-24.92Z"/>
</svg>