<?xml version="1.0" encoding="UTF-8"?>
<svg id="Layer_1" data-name="Layer 1" xmlns="http://www.w3.org/2000/svg" viewBox="0 0 800 800">
  <defs>
    <style>
      .cls-1 {
        fill: none;
      }

      .cls-2 {
        fill: #010101;
      }
    </style>
  </defs>
  <rect class="cls-1" width="800" height="800"/>
  <path class="cls-2" d="M678.47,115.63c-25.15-24.8-50.19-49.74-74.94-74.94-7.8-7.94-16.58-11.21-27.63-11.2-144.12,.17-288.25,.08-432.37,.14-22.17,0-31.46,9.62-31.46,32.04-.01,112.73,0,225.47,0,338.2,0,113.53,0,227.05,0,340.58,0,20.91,9.51,30.97,30.12,30.98,172.31,.09,344.63,.09,516.94,0,19.89-.01,29.61-10.27,29.62-30.3,.02-200.06-.05-400.12,.18-600.18,.01-10.36-3.23-18.19-10.46-25.31Zm-78.56-3c.04-12.67,.02-25.35,.02-38.38,15.31,15.44,29.88,30.13,45.14,45.52-13.25,0-26.55-.09-39.84,.04-5.39,.05-5.32-3.41-5.31-7.18Zm51.39,634.86c-167.55-.33-335.1-.35-502.65,.04-10.85,.03-12.95-2.98-12.91-13.24,.39-111.14,.24-222.29,.24-333.44,0-111.54,.12-223.09-.22-334.63-.03-9.63,2.06-12.67,12.25-12.64,138.57,.36,277.13,.36,415.7,0,10.32-.03,12.58,3.29,12.18,12.82-.73,17.43-.37,34.92-.16,52.39,.22,18.78,6.57,25.03,25.09,25.09,18.66,.07,37.33,.23,55.98-.11,6.05-.11,8.55,1.41,8.17,7.87-.51,8.7-.13,17.46-.13,26.19,0,185.38-.11,370.75,.27,556.13,.02,11.21-3.18,13.53-13.82,13.51Zm-82.56-323.21c-7.7,4.63-14.81,7.49-20.79-.54-4.62-6.2-2.84-12.02,2.67-16.75,8.13-6.98,16.43-13.74,24.66-20.6,5.99-4.98,11.75-4.06,17.01,1.03,7.13,6.89,14.01,14.04,21.07,21.01,5.68,5.61,8.73,11.86,2.46,18.61-6.12,6.58-12.64,4.95-18.7-.75-.78-.74-2.02-.99-3.24-1.55-7.03,70.24-39.5,124.02-102.44,157.13-109.98,57.86-247.36-9.65-269.63-131.96-20.64-113.34,65.44-220.49,178.32-222,5.61-.08,11.21-.5,15.2,4.66,2.99,3.87,3.14,8.27,1.4,12.39-2.5,5.93-7.85,7.02-13.8,7.14-32.17,.65-61.58,10.13-88.31,28.01-63.29,42.33-88.77,124.7-60.35,195.14,29.12,72.18,103.56,114.21,179.13,101.15,74.49-12.87,133.68-78.75,135.36-152.12Zm-115.02,280.66c-48.43,0-96.87,0-145.3,0-3.57,0-7.17,.15-10.7-.26-6.51-.76-9.85-4.94-10.11-11.23-.26-6.37,3.23-10.65,9.25-12.17,3.38-.85,7.1-.52,10.66-.52,97.26-.02,194.53-.02,291.79,0,3.56,0,7.29-.3,10.64,.62,5.96,1.64,9.71,6.31,9.15,12.3-.53,5.66-3.8,10.53-10.56,11.01-3.56,.25-7.14,.23-10.71,.23-48.04,.01-96.07,0-144.11,0Zm-.37-81.39c48.42,0,96.83,0,145.25,.02,3.56,0,7.18-.06,10.68,.46,6.5,.98,9.75,5.73,9.84,11.62,.08,5.46-3.34,9.9-8.91,11.27-3.77,.93-7.85,.84-11.8,.84-96.83,.04-193.67,.04-290.5,0-3.94,0-8.06,.17-11.79-.86-6.05-1.68-9.06-6.22-8.46-12.62,.55-5.86,3.87-9.5,9.75-10.27,3.52-.46,7.12-.44,10.69-.44,48.42-.03,96.83-.02,145.25-.02Zm-208.11,.22c5.14,0,10.3-.3,15.41,.09,6.32,.48,10.3,4.26,10.91,10.52,.67,6.95-3.34,12.15-9.77,12.72-10.96,.98-22.13,.94-33.11,.03-6.64-.55-10.02-5.63-9.47-12.76,.52-6.69,4.39-10.02,10.63-10.52,5.1-.42,10.27-.08,15.41-.08Zm-.7,81.08c-4.75-.01-9.52,.23-14.26-.07-6.91-.44-10.85-4.06-11.08-11.32-.23-7.16,3.47-11.86,10.11-12.34,10.64-.77,21.43-.83,32.04,.07,6.51,.55,10.66,5.56,10.18,12.48-.47,6.76-4.56,10.83-11.56,11.15-5.14,.23-10.3,.05-15.45,.03Zm161.28-423.55c-73.81,.15-134.06,60.29-134.07,133.85-.02,73.59,60.32,134.12,133.8,134.23,68.5,.29,133.86-52.71,134.61-134.54,.67-73.85-60.67-133.68-134.33-133.53Zm109.23,144.4c-1.26,20.6-8.86,38.81-21.06,55.21-1.98,2.66-3.22,6.6-7.74,6.29-4.38-5.46-6.84-12.41-13.11-16.41-4.1-2.62-8.03-3.5-11.74,.3-3.3,3.38-2.66,7.24-.37,10.85,3.47,5.47,8,9.6,14.51,11.4,2.57,.71,7.24,1.41,2.48,5.7-14.15,10.77-29.7,18.79-46.81,23.74-.48,.68-1.15,1.46-1.79,1.31-5.82-1.31-11.87,5.74-16.7,1.17-4.56-4.32,1.24-10.24,.96-15.61-.14-2.73,.18-5.49-.37-8.21-.77-3.74-2.51-6.77-6.71-7.09-4.07-.3-6.59,2.25-8.16,5.64-2.88,6.18-1.53,12.22,.83,18.25,4.03,10.28-1.29,9.63-8.25,6.9-20.63-4.93-40.15-12.28-56.66-26.14-.98-4.92,3.86-4.39,5.96-6.44,4.21-2.33,7.94-5.25,10.39-9.47,2.32-3.99,3.53-8.3-.25-11.97-4.02-3.9-8.55-3.08-13.04-.38-7.34,4.41-6.69,13.04-10.41,19.37-1.18,.71-1.98,.36-2.46-.87-14.44-17.02-24.78-35.93-26.87-58.61-1.06-2.9-1.84-5.76,1.15-8.08,4.84-.85,9.07,2.14,13.84,2.14,8.53,0,15.67-4.5,14.59-10.18-1.62-8.52-8.65-9.1-15.59-8.96-4.26,.09-8.1,3.29-12.63,1.86-2.52-1.6-2.44-3.85-1.59-6.29,2.1-23.69,12.78-43.41,28.18-60.96,4.08,1.08,3.42,4.82,4.08,7.64,1.24,5.32,4.53,9.07,8.69,12.15,3.91,2.9,8.04,3.28,11.68-.4,3.72-3.76,2.49-7.54,.1-11.71-4.24-7.4-12.92-8.27-18.63-13.4,10.28-10.11,23.19-16.11,35.61-22.9,8.21-2.24,15.89-6.2,24.76-6.39,7.29-.16,10.78,1.3,7.26,9.24-2.12,4.76-3.14,9.82-1.51,15.01,1.17,3.72,3.55,6.19,7.69,6.19,4.15,0,6.52-2.44,7.56-6.25,1.17-4.28,1.48-8.83,.12-12.9-3.59-10.68,1.89-12.15,10.43-11.17,1.9,.22,3.98-.32,5.37,1.58,17.94,6.06,35.63,12.57,49.68,26.04,1.01,2.13-.43,3.05-1.92,3.97-7.18,1.76-13.04,5.33-16.3,12.24-1.8,3.8-2.04,7.69,1.28,10.84,3.31,3.13,7.09,2.54,10.93,.8,8.1-3.67,9.4-12.02,13.06-18.77,1.07-.74,2.04-.59,2.93,.31,15.18,18.71,25.52,39.43,26.68,63.98,.64,2.26-.62,3.09-2.55,3.43-4.73-.75-8.71-3.96-13.56-4.23-7.07-.4-13.26,1.57-13.7,9.64-.43,7.9,5.75,9.27,12.2,9.74,5.34,.38,9.87-2.92,15.1-2.89,1.82,.59,3.09,1.54,2.39,3.74Zm48.08-287.2c-.16-13.55-3.62-17.09-16.92-17.1-97.23-.07-194.46-.07-291.69,0-13.3,0-16.71,3.52-16.87,17.13-.19,16.27-.1,32.53-.04,48.8,.07,17.71,2.43,20.1,19.92,20.11,47.62,.03,95.25,.01,142.87,.01s95.25,.02,142.87-.01c17.19-.01,19.77-2.46,19.88-18.96,.1-16.66,.17-33.33-.03-49.99Zm-23.86,18.84c-.75,25.86-.18,25.87-25.89,25.87-37.67,0-75.35,0-113.02,0-42.43,0-84.87-.2-127.3,.18-8.22,.07-11.74-1.02-11.56-10.66,.52-27.19,0-27.2,27.08-27.2,79.31,0,158.63,.16,237.94-.22,9.44-.05,13.05,1.57,12.75,12.03Zm-145.48,234.77c0-7.12-.24-14.24,.07-21.35,.33-7.57,3.65-13.18,12.07-13.19,8.39,0,11.79,5.23,11.92,13.09,.04,2.37,.36,4.8-.01,7.11-3.32,20.72,1.21,36.82,23.52,44.31,7.58,2.55,9.3,10.04,5.6,16.8-3.78,6.91-10.21,8.12-17.26,3.91-3.05-1.82-6.08-3.76-9.34-5.13-20.35-8.54-33.43-21.21-26.57-45.56Z"/>
</svg>