<?xml version="1.0" encoding="UTF-8"?>
<svg id="Layer_1" data-name="Layer 1" xmlns="http://www.w3.org/2000/svg" viewBox="0 0 800 800">
  <defs>
    <style>
      .cls-1 {
        fill: none;
      }

      .cls-2 {
        fill: #010101;
      }
    </style>
  </defs>
  <rect class="cls-1" width="800" height="800"/>
  <path class="cls-2" d="M741.94,546.51c-7.73-4.68-10.25-10.58-10.13-19.67,.52-41.11,.23-82.24,.23-123.36v-53.34c-5.43,1.71-9.77,3.07-14.1,4.44-13.12,4.17-25.96,9.27-39.75,11.05-21.63,2.79-37.91-10.83-38.37-32.41-.2-9.6-.34-19.23,.05-28.82,.71-17.67,13.48-30.06,31.04-30.43,8.5-.18,16.77,1.2,24.87,3.91,11.8,3.93,23.68,7.63,36.25,11.66,0-39.65,.05-78.07-.02-116.48-.04-23.91-13.85-37.57-37.99-37.63-27.65-.07-55.3-.02-83.06-.02-.19-4.52,1.54-7.91,2.67-11.52,11.4-36.59-10.68-73.89-47.76-79.86-9.76-1.57-19.94-1.06-29.9-.73-26.78,.91-49.27,20.45-55.93,46.59-4.01,15.72,.31,30.16,5.02,45.51-14.58,0-28.02-.2-41.44,.05-15.52,.29-31.69-2.98-45.54,7.53-14.39-9.76-30.74-7.53-46.69-7.57-21.09-.05-42.18-.01-64.39-.01,1.5-4.52,2.75-8.05,3.84-11.62,10.01-32.68-6.38-66.15-37.94-77.46-12.27-4.4-25.05-3.52-37.66-3.04-26.29,1-44.73,13.92-55.29,38.07-7.75,17.73-4.59,35.15,2.5,54.05-20.78,0-39.97-.02-59.17,0-27.15,.03-40.12,12.99-40.12,40.12-.01,106.84,.01,213.68-.07,320.52,0,4.06,1.88,9.01-1.94,12.02-8.06,6.35-3.6,10.63,1.7,15.27,2.59,2.27,4.87,4.9,7.25,7.41,3.55,3.72,4.24,8.03,2.35,12.74-1.96,4.87-5.98,6.79-10.88,7.03-4.22,.2-8.51,.5-12.67-.02-6.93-.85-9.21,1.32-9,8.66,.56,20.35,.12,40.73,.24,61.1,.04,7.21-1.93,16.21,1.59,21.12,3.35,4.68,12.88,1.01,19.65,1.61,.38,.03,.77,0,1.15,.04,10.02,1.25,14.31,10.31,8.34,18.41-2.93,3.98-6.61,7.55-10.44,10.7-5.17,4.25-4.66,7.34,0,11.89,17.88,17.43,35.58,35.06,52.9,53.04,5.18,5.38,8.16,5.36,13.47,.03,5.76-5.79,10.32-16.2,21.46-11.38,10.96,4.73,6.73,15.15,6.94,23.41,.16,6.34,.66,9.55,8.52,9.38,25.35-.57,50.73-.48,76.08-.04,7.03,.12,7.85-2.56,8.09-8.63,.33-8.56-4.46-19.56,7.33-24.25,11.12-4.43,15.68,5.98,21.32,11.86,5.73,5.97,8.77,4.16,13.47-.7,14.7-15.17,29.77-29.99,44.71-44.93q13.19-13.19,.2-27.17c-3.87-4.13-6.79-8.29-4.57-14.32,2.48-6.74,7.9-7.4,14.01-7.39,68.79,.06,137.58,.19,206.37-.17,7.8-.04,8.52,2.85,8.43,9.28-.32,24.98-.19,49.96-.04,74.94,.02,2.73-1.69,6.13,2.02,8.5,66.69-57.81,133.39-115.62,200.84-174.08-7.19-5.4-13.26-10.74-20.06-14.86ZM409.22,170.97c.07-10.05,6.69-12.52,15.56-12.47,30.34,.17,60.69,.07,92.59,.07-4.37-13.23-8.46-25.7-12.6-38.15-10.12-30.41,6.78-53.95,38.89-54.11,4.23-.02,8.46-.12,12.68,.05,25.45,1.03,42.15,23.21,35.43,47.71-4.03,14.67-9.08,29.06-13.96,44.49,38.04,0,75.23-.02,112.41,0,16.17,0,18.73,2.54,18.75,18.52,.03,26.11,0,52.22,0,79.51-7.79-1.68-14.93-3.48-22.17-4.72-41.48-7.11-70.08,16.87-70.08,58.69,0,10.37-.83,20.87,.47,31.09,3.96,31.02,32.25,51.52,64,46.88,9.03-1.32,17.93-3.52,27.34-5.41v138.6c-25.63-18.74-50.23-36.69-74.8-54.69-24.33-17.82-48.62-35.68-74.68-54.81,0,28.39-.39,54.73,.21,81.04,.2,8.9-2,11.51-11.21,11.39-43.03-.53-86.07-.47-129.1-.03-8.24,.08-10.12-2.31-10.01-10.23,.44-33.81,.48-67.63,0-101.44-.13-8.84,1.29-11.16,10.45-8.15,16.29,5.35,33.13,7.09,49.39-.41,20.72-9.56,31.7-26.11,32.49-48.87,.46-13.03,1.24-26.32-.68-39.11-4.8-31.94-32.95-50.22-67.38-44.87-7.84,1.22-15.54,3.32-24.06,5.18,0-28.96-.13-57.36,.07-85.76Zm-323,6.4c0-16.14,2.59-18.78,18.48-18.8,29.58-.03,59.16,0,89.78,0-4.28-13.05-8.23-25.38-12.36-37.64-10.5-31.17,6.22-54.5,39.23-54.62,4.61-.02,9.24-.18,13.83,.13,24.06,1.65,40.21,23.83,33.83,47.14-4.02,14.69-9.11,29.09-14.16,44.98,23.65,0,46.49,0,69.33,0,15.38,0,30.75-.09,46.13,.03,12.27,.1,15.69,3.47,15.72,15.75,.09,38.04,.03,76.08,.03,115.2,12.65-4.06,24.57-7.83,36.45-11.74,7.35-2.42,14.87-3.74,22.59-3.83,19.52-.22,32.68,12.33,33.18,31.8,.23,8.84,.16,17.68,.02,26.52-.35,22.88-16.93,36.51-39.77,33.18-13.39-1.95-25.81-7.06-38.6-10.98-4.33-1.33-8.66-2.68-13.87-4.29,0,47.19-.37,93.63,.27,140.04,.15,11.09-2.16,13.75-13.95,14.81-24.71,2.23-43.67-4.39-58.6-24.53-6.57-8.86-16.04-15.5-23.23-23.97-5.94-7-10.07-6.14-15.01,.51-2.04,2.74-4.91,4.85-7.28,7.36-3.9,4.14-8.7,4.99-13.68,3.06-4.73-1.84-6.59-5.98-6.91-11.01-.43-6.8,3.1-16.67-1.52-19.65-5.49-3.54-14.69-1.52-22.28-1.57-19.6-.11-39.22,.44-58.8-.26-8.46-.3-10.81,2.49-9.74,10.29,.52,3.77,.16,7.68,.02,11.52-.17,5.01-2.3,9.04-7.15,10.79-4.6,1.66-8.74,.71-12.82-2.51-5.7-4.5-9.09-14.89-16.83-12.91-6.11,1.56-10.72,9.38-15.77,14.65-4.75,4.95-9.19,10.2-13.87,15.43-4.15-4.03-2.61-7.67-2.61-10.82-.1-98.02-.09-196.04-.08-294.06Zm239.45,446.4c-18.44,5.48-25.1,30.01-14.84,47.16,3.95,6.61,2.88,9.93-2.23,14.13-3.25,2.67-5.93,6.01-8.97,8.93-8.76,8.41-14.57,18.68-31.41,9.37-16.4-9.08-36.91,3.83-41.7,22.65-2.11,8.28-5.96,9.97-13.27,9.17-4.56-.49-9.25-.5-13.81-.01-12.36,1.32-20.68,.17-25.5-15.09-5.73-18.14-29.66-24.47-46.39-14.41-6.89,4.14-10.49,3.24-14.87-2.45-2.55-3.32-5.85-6.09-8.96-8.94-9.11-8.37-16.79-14.74-8.98-30.6,8.83-17.94-4.32-38.11-24.44-42.86-6.64-1.56-7.66-4.27-7.22-9.86,.36-4.58,.15-9.21,.06-13.82-.26-12.53-2.52-23.54,15.73-28.8,17.62-5.08,23.37-29.44,13.69-45.68-4.1-6.88-3.4-10.57,2.34-15.09,3.89-3.07,7.17-6.93,10.65-10.51,7.74-7.99,12.83-16.1,27.83-7.37,16.48,9.59,37.68-3.3,43.18-22.29,1.97-6.81,4.4-10.45,12.19-9.13,4.85,.82,10.01,.59,14.94,.07,12.34-1.31,20.68-.08,25.73,14.93,6.12,18.2,29.76,24.26,46.49,14.02,6.57-4.02,9.72-2.74,14.17,2.13,6.47,7.08,13.56,13.58,20.32,20.4,1.58,1.6,2.9,3.47,4.53,5.44-1.46,2.16-2.88,3.94-3.97,5.92-11.52,20.93-1.86,44.68,21.28,50.85,6.63,1.77,8.43,4.63,7.82,10.94-.56,5.71-.51,11.54-.03,17.27,.96,11.48,.28,19.2-14.35,23.54Zm390.21-52.98c-44.08,37.65-87.72,75.82-133.76,115.78,0-20.03-.56-37.57,.23-55.05,.42-9.32-1.72-12.1-11.63-12.03-65.32,.52-130.64,.05-195.96,.5-9.45,.07-12.52-1.98-12.01-11.79,.89-16.86,.03-33.81,.37-50.7,.11-5.56-1.54-7.59-7.1-7.02-4.18,.42-8.45,.03-12.67,.09-8.21,.1-13.91-3.73-13.68-12.01,.23-8.16,5.68-11.13,14.15-11.1,75.31,.27,150.62-.04,225.93,.39,9.77,.06,13.25-1.71,12.65-12.29-1.04-18.36-.29-36.82-.29-57.45,8.47,6.19,15.68,11.45,22.88,16.72,36.83,26.99,73.45,54.26,110.62,80.76,8.65,6.17,7.61,8.91,.25,15.2ZM143.59,273.79c-19.1,.12-34.19,15.15-34.3,34.15-.11,19.24,15.83,35.29,34.85,35.11,19.05-.19,34.7-16.45,34.31-35.65-.39-19-15.67-33.72-34.86-33.6Zm.21,46.12c-6.76-1.27-11.51-4.89-11.24-12.02,.26-7.05,4.77-11.09,11.95-10.77,6.62,.3,10.63,4.43,10.67,10.93,.05,7.12-4.63,10.71-11.39,11.86Zm92.64-46.12c-19.18-.14-34.48,14.58-34.9,33.55-.42,19.23,15.18,35.49,34.25,35.7,19.01,.22,34.99-15.83,34.91-35.06-.08-19-15.17-34.06-34.27-34.2Zm.29,46.13c-6.89-.88-11.65-4.31-11.92-11.42-.24-6.55,3.64-10.78,10.21-11.36,7.16-.63,11.82,3.27,12.41,10.29,.61,7.2-4.18,10.84-10.7,12.49Zm91.96-46.13c-19.18-.13-34.48,14.59-34.88,33.57-.41,19.23,15.2,35.48,34.27,35.69,19.02,.21,34.98-15.84,34.89-35.07-.09-19.01-15.18-34.05-34.28-34.18Zm-.46,45.8c-6.87-.14-11.36-4.69-11.16-11.78,.18-6.47,4.26-10.47,10.91-10.72,7.4-.28,10.65,4.41,12.08,10.31-1.04,7.64-4.86,12.34-11.83,12.19Zm-126.54,184.85c-51-.04-92.33,40.95-92.42,91.69-.09,51.27,41.67,93.14,92.67,92.92,50.55-.22,91.85-41.86,91.85-92.6,0-50.87-41.15-91.97-92.1-92.02Zm-.39,161.39c-38.03-.17-69.27-31.93-68.93-70.07,.34-37.72,31.4-68.21,69.4-68.11,37.94,.1,68.81,30.82,68.93,68.59,.11,38.1-31.46,69.76-69.4,69.59Zm.27-115.25c-25.61-.01-46.03,20.18-46.15,45.64-.12,25.29,20.33,46.26,45.5,46.67,25.47,.42,46.81-20.87,46.72-46.61-.09-25.47-20.48-45.7-46.08-45.71Zm-.57,69.12c-11.92-.34-22.39-11.08-22.49-23.07-.1-12.73,10.62-23.13,23.54-22.85,12.4,.27,22.54,10.53,22.5,22.76-.04,12.43-11.32,23.51-23.55,23.16Z"/>
</svg>