<?xml version="1.0" encoding="UTF-8"?>
<svg id="Layer_1" data-name="Layer 1" xmlns="http://www.w3.org/2000/svg" viewBox="0 0 800 800">
  <defs>
    <style>
      .cls-1 {
        fill: none;
      }

      .cls-2 {
        fill: #010101;
      }
    </style>
  </defs>
  <rect class="cls-1" width="800" height="800"/>
  <path class="cls-2" d="M699.94,678.52c-.32-47.11-30.28-85.37-75.92-96.8-15.09-3.78-31.22-5.14-45.15-11.43-18.31-8.27-34.87-20.4-52.29-30.68-3.32-1.96-4.94-4.87-6.3-8.07-5.78-13.55-11.28-27.22-17.24-40.69-1.69-3.83-2.83-6.82,.03-10.71,3.22-4.38,6.88-3.91,11.31-2.88,45.56,10.66,88.57-24.43,85.7-72.55-.41-6.88,2.08-10.16,8.37-13.12,18.41-8.66,28.62-23.3,28.67-44.17,.04-17.14,.03-34.27,0-51.41-.04-21.43-10.74-36.14-29.69-44.7-5.71-2.58-7.42-5.49-7.35-11.29,.23-17.51-1.28-34.83-5.25-52.02C566.36,64.79,426.25-1.99,313.5,55.27c-72.99,37.07-110.22,97.98-111.99,179.99-.18,8.52-1.56,13.4-10.44,17.62-16.85,8-26.53,22.37-26.64,41.86-.1,17.91-.29,35.83,.04,53.74,.48,26.15,19.93,46.33,46.22,47.76,10.86,.59,21.82,.34,32.69-.29,5.14-.3,7.64-.26,7.85,6.11,.62,18.16,7.98,33.74,20,47.24,8.55,9.6,16.89,19.37,25.53,28.88,3.54,3.9,4.39,7.28,1.98,12.48-6.35,13.71-11.83,27.82-17.81,41.7-1.21,2.8-2.77,5.39-5.73,7.1-28.1,16.29-54.39,35.27-88.34,40.18-37.59,5.44-64.51,27.18-78.98,63.24-7.49,18.68-6.56,38.11-6.27,57.5,.4,26.36,18.05,50.34,43.32,57.5,16.82,4.77,34.01,8.55,51.26,11.38,67.85,11.15,136.34,13.6,204.96,11.57,31.54,0,63.15,1.31,94.61-.29,53.69-2.74,107.28-7.54,159.34-22.18,26.74-7.52,44.31-31.19,44.8-58.82,.13-7.01,.07-14.02,.02-21.03Zm-186.85-111.36c2.85-3.54,5.02-3.41,8.66-1.09,9.51,6.06,19.22,11.81,29.07,17.29,5.36,2.98,4.83,5.78,1.39,9.93-24.63,29.81-54.04,53.57-88.58,71.08-5.14,2.61-7.23,1.35-9.72-3.33-6.42-12.07-14.85-22.77-25.72-33.9,34.61-12.92,62.69-32.42,84.89-59.99Zm-107.31,39.69c-10.65,2.61-19.91-2.44-29.15-5.87-27.15-10.08-49.74-26.79-68.41-49-4.36-5.19-4.97-9.47-2.03-15.49,4.75-9.72,8.66-19.84,13.29-30.64,47.21,39.81,114.48,39.78,162.52,.09,4.92,11.48,9.55,22.82,14.67,33.94,2,4.36,.5,7.12-2.12,10.34-23.35,28.69-52.74,47.82-88.77,56.64Zm122.45-154.64c13.47-15.7,22.18-32.96,22.36-53.61,.03-3.45,2.75-2.96,5.09-2.81,4.65,.29,9.31,.6,13.97,.71,3.07,.07,4.86,.96,5.76,4.32,7,25.98-19.51,55.85-47.18,51.39Zm84.83-129.94c-.01,7.76,.34,15.55-.09,23.29-.87,15.89-11.02,25.81-27.01,25.99-35.7,.4-36.2,2.69-35.53-34.07,.29-16.3-.03-32.6,.08-48.91,.08-12.21,3.92-16.49,15.58-16.73,32.81-.69,50.17-2.98,46.97,50.43Zm-362.06,.07c0,11.26-.12,22.51,.03,33.77,.14,10.76-5.27,15.62-15.73,15.51-.39,0-.78-.02-1.16,0-35.86,1.87-47.88-3.91-45.8-44.7,.47-9.29-.18-18.64,.14-27.94,.56-16.65,10.52-26.86,27.1-27.12,36.57-.56,36.11-1.8,35.44,34.17-.1,5.43-.01,10.87-.02,16.3Zm-.63-74.45c-2.83-.31-5.12-.63-7.41-.8q-17.95-1.29-16.5-19.08c6.57-80.73,51.5-137.94,126.59-161.15,93.73-28.97,198.42,33.56,218.21,130.17,2.59,12.64,2.79,25.44,4.2,38.15,.99,8.9-1.56,13.19-11.29,11.82-4.11-.58-8.43,.37-13.63,.68,.87-22.34-1.09-44.39-9.53-65.12-24.12-59.24-68.3-93.52-132.08-97.18-62.46-3.58-106.13,29.28-136.74,81.31-10.73,18.24-19.34,39.78-21.82,81.19Zm245.11-3.56c-25.71-2.93-50.56-8.77-73.5-21.15-13.85-7.47-26.41-16.66-34.34-30.66-3.63-6.41-8.73-8.04-15.48-7.88-34.85,.8-64.98,13.63-92.77,37.06,9-59.88,63.94-110.44,119.35-111.44,61.81-1.12,113.86,42.12,124.96,103.8,5.94,33,4.89,34.05-28.21,30.28Zm-206.74,186.7c-7.94-9.12-12.31-19.58-12.22-31.88,.15-21.41,.04-42.82,.04-64.23h-.06c0-21.41,.15-42.83-.1-64.23-.07-5.79,1.51-10.38,5.22-14.84,20.79-25.03,47.09-40.16,79.3-44.97,3.83-.57,7.2-1.38,10.4,2.58,27.75,34.4,66.63,46.74,108.03,54,12.3,2.16,24.68,3.68,37.16,3.58,6.33-.05,8.68,1.75,8.62,8.54-.34,40.1-.43,80.2-.16,120.29,.13,19.65-12.61,31.85-24.29,44.84-2.2,2.45-5.06,1.4-7.67,.77-5.29-1.28-10.51-2.9-15.84-4-8.16-1.69-13.32-4.47-13.1-14.81,.21-10.19-6.96-17.16-16.87-19.86-13.51-3.68-27.08-7.28-40.82-9.89-18.9-3.59-37.51,9.31-42.34,28.42-4.53,17.93,6.24,38.21,24.28,43.76,13.73,4.22,27.82,7.5,41.93,10.24,10.48,2.04,18.95-2.33,24.96-11.34,2.69-4.04,19.51-4.02,22.12-.08,1.78,2.68-.67,4.12-1.98,5.91-17.12,23.41-38.27,38.51-69.17,34.77-7.29-.88-14.78-.27-22.18-.11-18.36,.41-33.34-6.81-45.32-20.31-16.79-18.92-33.34-38.06-49.95-57.14Zm149.03,10.74c-1.9,11.09-6.36,14.17-17.11,9.68-7.03-2.94-14.94-3.76-22.44-5.62-5.93-1.47-9.25-5.25-9.67-11.42-.34-8.13,5.44-13.6,14.35-12.32,8.76,1.26,17.28,4.21,26.04,5.52,9.12,1.36,10.23,6,8.83,14.17Zm-187.58,141.96c.7-.34,1.37-.74,2.04-1.14,10.02-5.98,19.69-15.97,30.14-16.86,11.19-.95,15.8,14.62,24.6,21.67,10.03,8.04,19.88,16.22,30.91,22.91,10.68,6.48,22.02,11.53,35.03,16.7-10.32,11.72-19.69,22.61-26.13,35.55-2.14,4.3-4.64,3.83-8.33,2-35.05-17.44-64.72-41.5-89.52-71.72-3.08-3.76-3.71-6.7,1.27-9.11Zm384.22,154.3c-77.04,16.49-155.13,19.42-233.47,19.85-64.34,.24-128.47-2.69-192.19-12.09-18.49-2.73-36.83-6.33-54.84-11.39-15.91-4.47-26.67-17.7-27-34-.35-17.01-1.88-34.2,5.15-50.56,12.51-29.13,36.61-41.06,65.92-47.84,16.75-3.88,26.51-1.1,37.74,12.97,25.71,32.23,57.67,57.72,96.04,74.22,18.03,7.75,26.76,4.57,36.08-13.04,6.8-12.85,15.75-23.96,26.16-34.1,4.85-4.72,8.1-5.36,13.29-.24,10.9,10.76,20.22,22.5,27.31,36.12,7.99,15.35,17.76,18.85,33.8,11.92,42.84-18.5,76.92-48.23,105.68-84.3,5.31-6.66,9.89-8.17,17.65-5.66,8.48,2.74,17.41,4.05,26.13,6.08,32.66,7.62,55.78,35.94,56.81,69.57,.13,4.28-.14,8.58,.17,12.84,2.27,32.07-13.51,43.88-40.41,49.64Z"/>
</svg>