<?xml version="1.0" encoding="UTF-8"?>
<svg id="Layer_1" data-name="Layer 1" xmlns="http://www.w3.org/2000/svg" viewBox="0 0 800 800">
  <defs>
    <style>
      .cls-1 {
        fill: #020202;
      }

      .cls-2 {
        fill: none;
      }
    </style>
  </defs>
  <rect class="cls-2" width="800" height="800"/>
  <path class="cls-1" d="M698.87,105.64c-.08-44.89-29.63-73.71-74.73-73.72-172.6-.05-345.2-.05-517.8,0-45.71,.01-75.04,28.89-75.08,74.55-.15,172.98-.14,345.97-.01,518.95,.03,45.37,28.93,74.02,74.07,74.06,77.09,.06,154.19,.02,231.29,.02,46.41,0,92.82-.06,139.23,.06,8.1,.02,15.36-1.43,15.49-11.05,.14-10.09-7.21-12.41-15.84-12.16-2.68,.08-5.37,.01-8.05,.01-120.44,0-240.87,.02-361.31-.02-33.1-.01-51.56-18.16-51.59-51-.08-125.04,.08-250.08-.26-375.12-.02-9.37,2.83-11.26,11.61-11.24,99.34,.3,198.68,.19,298.02,.19s199.45,.15,299.17-.23c9.82-.04,12.9,1.91,12.84,12.4-.48,82.85-.28,165.69-.24,248.54,0,4.2-.05,8.48,.7,12.58,1.03,5.64,5.3,8.59,10.7,8.7,5.41,.11,9.65-2.72,11.04-8.28,.73-2.93,.81-6.07,.81-9.11,.04-132.71,.18-265.42-.05-398.13Zm-35.74,110.58c-99.35-.32-198.69-.2-298.04-.2s-198.7-.2-298.04,.29c-10.93,.05-12.97-3.25-12.77-13.26,.62-32.21,.13-64.44,.26-96.66,.13-32.53,19.02-51.33,51.62-51.34,172.61-.05,345.22-.04,517.84,0,32.58,0,51.5,18.82,51.64,51.32,.14,32.6-.55,65.22,.36,97.8,.31,10.94-3.53,12.07-12.85,12.04Zm96.07,408.89c-72.93-68.01-145.89-135.97-218.82-203.98-5.15-4.8-10.23-10.11-18.03-6.54-7.34,3.36-6.61,10.44-6.6,17.01,.02,49.87,.01,99.73,.01,149.6,0,50.25-.04,100.5,.02,150.75,.02,16.57,6.31,20.69,21.64,14.14,15.83-6.77,31.67-13.55,47.25-20.86,7.1-3.33,10.66-2.38,13.28,5.49,3.13,9.42,7.77,18.33,11.57,27.54,4.04,9.79,10.63,12.14,20.25,7.92,25.58-11.2,51.19-22.34,76.93-33.17,9.93-4.18,12.22-10.73,8.16-20.19-4.09-9.51-7.71-19.25-12.46-28.42-3.71-7.16-1.23-9.94,5.31-12.61,15.58-6.36,30.96-13.25,46.38-20,16.81-7.35,18.19-14.46,5.09-26.67Zm-74.53,31.55c-13.24,5.81-14.83,9.83-9.29,23.16,3.82,9.19,7.6,18.41,11.85,27.4,2.4,5.09,2.35,7.96-3.64,10.4-16.63,6.79-33.06,14.08-49.41,21.52-5.23,2.38-7.61,.82-9.56-4.06-3.56-8.88-7.51-17.6-11.29-26.39-6.68-15.53-9.29-16.54-25.13-9.75-15.46,6.63-30.91,13.28-46.39,19.85-.59,.25-1.45-.16-2.53-.3V452.36c66.02,61.44,130.42,121.37,196.01,182.41-17.84,7.7-34.27,14.71-50.62,21.88Zm-216.42-204.82c-3.02-26.84-22.42-46.76-49.82-51.14-24.39-3.9-50.36,10.51-59.88,34.9-3.43,8.8-7.7,10.93-16.52,10.81-37.2-.51-74.4-.22-111.61-.22-14.57,0-29.15,0-43.72,0-24.16,0-48.33,0-72.49,.02-6.3,0-11.4,2.13-13.17,8.77-1.43,5.39,.23,9.86,5.14,12.81,3.87,2.33,8.22,1.51,12.38,1.51,74.79,.04,149.58,.13,224.37-.12,7.77-.03,11.72,1.63,14.84,9.72,11.58,29.97,44.3,44.1,73.6,32.92,24.9-9.5,39.82-33.77,36.88-59.98Zm-57.86,40.31c-19.09-.43-34.01-15.98-33.52-34.93,.49-18.8,16.57-34.35,34.98-33.83,18.71,.53,33.8,16.42,33.52,35.3-.28,18.9-15.94,33.89-34.98,33.46Zm46.05-160.94c-3.05-.25-6.13-.1-9.19-.1-66.28,0-132.57-.1-198.85,.14-7.3,.03-11.16-1.31-14.07-9.08-8.64-23.06-29.44-36.91-53-37.09-23.88-.18-44.93,14.01-54.03,37.41-2.39,6.13-4.7,9.46-11.89,8.77-8.3-.8-14.81,2.65-14.69,11.95,.11,8.79,6.4,11.59,14.3,10.97,5.97-.47,9.2,.95,11.65,7.47,9.32,24.84,29.32,38.59,54.15,38.62,25.03,.03,45.02-13.61,54.34-38.35,2.36-6.25,5.18-7.87,11.44-7.82,34.1,.3,68.2,.14,102.3,.14,13.79,0,27.59,0,41.38,0,21.84,0,43.68-.03,65.52,0,7.18,0,12.13-3.16,12.56-10.5,.46-7.84-4.28-11.9-11.91-12.54Zm-275.77,45.87c-19.11-.21-34.2-15.53-33.97-34.5,.23-18.77,16.05-34.48,34.54-34.28,18.6,.2,34,16,33.98,34.87-.02,18.9-15.53,34.12-34.55,33.91Zm287.6,194.24c-1.62-8.63-8.08-10.1-15.6-10.08-33.72,.07-67.43-.14-101.15,.17-6.84,.06-10.56-1.07-13.33-8.43-8.93-23.72-29.81-37.75-53.75-37.74-23.88,.02-44.73,14.17-53.69,37.85-2.53,6.69-5.62,8.38-12.24,8.32-34.1-.3-68.2-.09-102.3-.17-8.73-.02-15.87,2.46-15.5,12.47,.35,9.61,7.76,10.85,15.77,10.76,16.86-.2,33.72-.06,50.57-.06,16.86,0,33.73,.41,50.57-.19,7.26-.26,10.44,1.87,13.08,8.85,8.94,23.71,29.37,37.38,53.87,37.36,24.57-.02,44.82-13.6,53.77-37.48,2.67-7.12,6.05-8.81,13.16-8.73,34.09,.39,68.2,.25,102.3,.13,10.67-.04,15.99-4.92,14.47-13.05Zm-184.09,35.92c-19.11-.24-34.17-15.6-33.9-34.56,.26-18.77,16.14-34.46,34.61-34.21,18.61,.25,33.98,16.07,33.91,34.93-.06,18.89-15.61,34.09-34.62,33.84ZM410.86,101.02c-18.72,.15-34.11,15.7-34.29,34.66-.18,18.93,15.09,34.3,34.17,34.4,19.27,.1,34.55-14.69,34.84-33.73,.29-19.33-15.58-35.49-34.72-35.34Zm.73,45.79c-7.3,.19-11.52-3.93-11.55-11.18-.03-6.69,4.19-10.95,10.6-11.2,7.12-.28,10.92,4.33,11.74,10.99-.66,6.96-4.01,11.21-10.79,11.39Zm91.46-45.79c-18.71,.07-34.15,15.57-34.41,34.54-.25,18.92,14.98,34.37,34.04,34.52,19.29,.16,34.6-14.56,34.96-33.6,.37-19.35-15.42-35.53-34.59-35.46Zm.14,45.83c-6.73,.01-10.85-3.92-11.11-10.54-.29-7.23,4.18-11,11.13-12.18,6.83,1.16,11.32,4.88,11.04,12.13-.25,6.64-4.33,10.57-11.06,10.59Zm91.99-45.83c-18.7,.02-34.18,15.5-34.47,34.48-.29,18.92,14.92,34.41,33.97,34.59,19.3,.18,34.62-14.49,35.02-33.54,.41-19.36-15.33-35.55-34.52-35.53Zm.71,45.78c-7.3,.31-11.59-3.75-11.73-11-.13-6.68,4.02-11.02,10.43-11.36,7.1-.37,11.06,4.07,11.88,11.14-.54,6.62-3.8,10.93-10.58,11.22Z"/>
</svg>