<?xml version="1.0" encoding="UTF-8"?>
<svg id="Layer_1" data-name="Layer 1" xmlns="http://www.w3.org/2000/svg" viewBox="0 0 800 800">
  <defs>
    <style>
      .cls-1 {
        fill: #010201;
      }

      .cls-2 {
        fill: none;
      }
    </style>
  </defs>
  <rect class="cls-2" width="800" height="800"/>
  <path class="cls-1" d="M718.66,55.64c0-17.22-2.31-19.46-19.84-19.46-133.49,0-266.97,0-400.46,0-19.71,0-21.41,1.69-21.41,21.32,0,56.51,0,113.02,0,172.83-15.25-18.5-31.48-29.58-53.01-29.88-24.64-.35-49.31-.56-73.94,.08-25.14,.66-45.08,11.02-57.95,33.66-9.83,17.29-17.24,35.33-20.74,54.99-4.77,26.78-2.12,53.76-2.51,80.64-.4,27.45,15.77,41.68,43.76,38.78,0,3.07-.03,6.06,0,9.05,.17,17.29,2.24,19.31,19.92,19.31,37.92,0,75.84,.04,113.77-.02,13.16-.02,16.21-2.98,16.31-15.92,.17-22.38,.52-44.78,.07-67.15-.19-9.36,2.62-9.23,9.48-5.31,15.44,8.82,31,17.44,46.77,25.62,18.29,9.49,40.22,4.52,51.06-12.77,4.75-7.57,9.98-8.52,17.58-8.51,103.91,.16,207.81,.11,311.72,.11,17.76,0,19.41-1.66,19.41-19.65,.01-92.57,.01-185.15,0-277.72ZM350.41,348.2c-4.97,6.92-12.25,9.25-20.03,5.13-21.38-11.32-42.48-23.18-63.83-34.57-5.12-2.73-3.58-7.06-3.56-10.93,.03-8.04-3.35-13.89-11.45-14.05-8.75-.18-12.27,5.86-12.26,14.38,.03,31.86-.32,63.73,.01,95.59,.08,7.79-1.9,10.43-10.06,10.28-27.67-.5-55.36-.53-83.03,.01-8.39,.16-10.09-2.81-9.86-10.41,.5-17.06,.16-34.14,.15-51.21,0-17.07-.13-34.14,.05-51.21,.09-8.77-3.02-15.82-12.27-15.81-9.56,0-11.83,7.52-11.76,16.09,.17,22.76,.08,45.52,.04,68.28-.01,7.04,0,14.68-9.67,14.9-10.39,.24-10.7-7.72-10.5-15.21,.68-25.37-1.98-50.83,2.39-76.09,3.35-19.37,10.85-36.98,21.86-53.18,6.42-9.46,15.78-14.27,26.71-15.11,27.62-2.13,55.3-1.33,82.96-.52,9.99,.29,17.98,5.37,24.7,12.41,2.6,2.72,5.33,5.66,6.83,9.02,15.64,35,42.53,57.71,77.34,72.14,4.81,1.99,9.64,4.82,13.33,8.43,6.45,6.31,7.23,14.26,1.92,21.66Zm344.66-28.21c.03,8-2.13,10.08-10.08,10.06-99.75-.27-199.49-.17-299.24-.2-4.3,0-9.52,1.53-10.52-5.26-1.11-7.58-12.43-11.84-4.55-22.8,20.35-28.29,38.59-58.1,58.97-86.37,7.44-10.32,.75-12.16-5.23-16.79-6.48-5.01-9.8-4.7-14.63,2.76-19.15,29.58-39.38,58.47-58.72,87.93-4.1,6.25-7.2,6.98-13.38,3.12-9.29-5.8-19.02-10.94-28.87-15.75-6.92-3.38-8.44-8.52-8.41-15.66,.19-63.37,.27-126.74-.08-190.1-.05-8.76,2-11.6,11.24-11.53,62.2,.42,124.4,.22,186.6,.22s123.64,.17,185.46-.2c8.83-.05,11.53,2.05,11.49,11.27-.37,83.1-.33,166.2-.04,249.29Zm-428.82,367.2c.16-27.42-11.15-49.45-32.75-65.5-39.72-29.51-82.96-34.56-128.13-14.2-36.64,16.52-57.82,43.97-56.54,86.12,.53,17.4-.46,34.85-.64,52.28-.15,14.82,2.88,17.99,17.88,18.06,30.3,.13,60.6,.04,90.9,.04,0,.23,0,.47,0,.7,31.43,0,62.85-.14,94.27,.08,9.79,.07,15.03-3.8,15.01-13.92-.04-21.22-.13-42.44,0-63.66Zm-34.3,53.03c-25.36-.72-50.76-.25-76.14-.25-25,0-50.01-.24-75.01,.15-6.99,.11-9.14-1.8-8.79-8.92,.71-14.75,.41-29.55,.59-44.33,.22-18.63,7.67-34.06,22.26-45.29,39.11-30.11,86.08-30.54,125.45-.1,14.95,11.56,22.43,27.27,22.39,46.36-.03,13.64-.49,27.31,.19,40.92,.43,8.57-1.56,11.72-10.94,11.46Zm277.51-54.44c.05-26.11-10.8-47.26-31.08-62.84-40.03-30.74-83.92-36.1-129.94-15.33-36.64,16.54-57.66,44.17-56.37,86.25,.53,17.41-.31,34.85-.42,52.28-.1,14.83,2.75,17.76,17.99,17.81,30.68,.12,61.36,.03,92.04,.03,0,.24,0,.48,0,.71,31.05,0,62.09-.13,93.14,.07,9.94,.06,14.74-4.19,14.69-14.2-.1-21.6-.08-43.2-.04-64.8Zm-33.02,54.35c-25.37-.39-50.76-.15-76.14-.15-25.38,0-50.76-.21-76.14,.14-6.73,.09-9.38-1.37-8.99-8.73,.76-14.37,.53-28.79,.64-43.19,.15-20.4,8.77-36.45,24.86-48.67,35.71-27.11,85.7-27.03,121.11,.35,15.56,12.03,24.36,27.63,24.14,47.79-.16,14.4-.49,28.82,.17,43.19,.36,7.81-2.49,9.39-9.65,9.28Zm276.31-56.8c-.48-24.65-11.16-44.83-30.27-59.8-37.84-29.63-79.81-36.09-124.65-18.59-43.2,16.85-62.02,45.13-62.46,91.4-.16,16.29-.34,32.59-.47,48.88-.12,15.74,2.63,18.69,18.26,18.75,30.68,.11,61.36,.03,92.04,.03,0,.24,0,.48,0,.72,31.05,0,62.09-.12,93.14,.07,10.06,.06,14.63-4.59,14.6-14.4-.06-22.36,.24-44.72-.2-67.07Zm-31.79,56.78c-25.76-.32-51.52-.13-77.28-.13-25,0-50.01-.43-75,.23-8.91,.24-10.81-2.61-10.25-10.88,.89-13.22,.79-26.51,.74-39.78-.09-22.76,9.85-39.91,28.38-52.58,35.1-24,80.07-23.78,114.69,.77,17.49,12.4,27.38,28.87,26.99,50.91-.26,14.4-.37,28.81,.1,43.2,.22,6.6-2.01,8.33-8.37,8.25ZM185.42,55.22c-36.26,.36-65.43,29.68-65.66,65.99-.23,36.73,29.61,66.66,66.22,66.4,36.42-.26,65.39-29.35,65.55-65.83,.15-36.81-29.76-66.93-66.1-66.57Zm-.55,108.48c-23.18-.17-41.13-18.59-41.13-42.18,0-24.14,18.1-42.19,42.25-42.12,23.67,.07,42.15,18.88,41.92,42.67-.23,23.58-19.08,41.81-43.04,41.63Zm215.89,291.8c-32.73-.2-60.49,27.67-60.63,60.88-.15,33.4,26.95,60.91,60.19,61.11,33.11,.19,60.48-27.19,60.63-60.66,.15-33.22-27.23-61.12-60.18-61.32Zm.24,97.94c-20.72,.17-36.72-15.58-36.92-36.34-.2-20.85,15.48-37.1,35.99-37.29,20.7-.19,36.74,15.6,36.93,36.36,.19,20.89-15.48,37.11-35.99,37.27Zm242.75-97.94c-32.9,.12-60.29,27.94-60.23,61.21,.05,33.44,27.37,60.91,60.44,60.78,33.21-.13,60.52-27.69,60.43-60.99-.09-33.18-27.86-61.12-60.64-61Zm-.07,97.95c-20.45-.07-36.54-16.36-36.49-36.95,.05-20.57,16.26-36.74,36.78-36.7,20.61,.04,36.41,16.12,36.34,36.98-.07,20.82-15.97,36.74-36.63,36.67Zm-486.84-97.95c-32.93,.32-60.41,28.4-60.16,61.49,.25,33.35,27.9,60.81,60.91,60.49,33.31-.32,60.16-27.75,59.96-61.26-.2-33.26-27.98-61.04-60.72-60.73Zm.24,97.95c-20.57-.04-36.37-16.14-36.31-36.98,.06-20.82,15.98-36.75,36.64-36.67,20.44,.09,36.56,16.44,36.48,37-.09,20.58-16.27,36.69-36.81,36.65ZM657.84,199.63c0,30.3-.43,60.61,.26,90.9,.22,9.49-3.67,10.63-11.25,9.95-6.35-.57-13.1,2.26-13-9.38,.57-61.35,.57-122.72,0-184.07-.11-11.66,6.65-8.82,13.01-9.42,7.64-.72,11.44,.56,11.24,9.98-.67,30.66-.25,61.35-.25,92.03Zm-155.95,41.52c0,17.05-.56,34.12,.2,51.13,.47,10.58-6.31,8.22-11.82,7.98-5.13-.22-12.34,3.46-12.18-7.51,.51-34.46,.56-68.95-.02-103.41-.19-11.55,7.31-7.68,12.86-8.22,6.41-.62,11.66-.76,11.19,8.9-.82,17.01-.23,34.08-.23,51.13Zm93.31,3.74c0,15.87-.53,31.77,.18,47.61,.49,10.75-6.68,7.88-11.98,7.73-5.06-.15-12.38,3.6-12.21-7.39,.5-32.12,.38-64.25,.01-96.37-.08-6.83,2.46-7.9,8.45-7.89,15.55,.02,15.55-.25,15.55,15.5,0,13.61,0,27.21,0,40.82Zm-69.6,17.86c0-9.81,.68-19.69-.19-29.42-.87-9.75,4.25-10.2,11.53-9.85,6.77,.33,13.4-1.5,12.87,9.78-.91,19.58-.79,39.26-.05,58.86,.43,11.5-7.16,7.94-12.74,8.19-5.65,.25-12.5,2.31-11.6-8.14,.83-9.74,.18-19.61,.18-29.42Z"/>
</svg>