<?xml version="1.0" encoding="UTF-8"?>
<svg id="Layer_1" data-name="Layer 1" xmlns="http://www.w3.org/2000/svg" viewBox="0 0 14 14">
  <defs>
    <style>
      .cls-1 {
        fill: #393939;
      }

      .cls-2 {
        fill: none;
      }
    </style>
  </defs>
  <rect class="cls-2" width="14" height="14"/>
  <path class="cls-1" d="M13.64,10.12c0-.24-.08-.32-.32-.32-1.54,0-3.09,0-4.63,0-.25,0-.33,.08-.33,.33,0,.37,0,.74,0,1.11,0,.14-.04,.17-.17,.17-1.71,0-3.43,0-5.14,0-.23,0-.31-.08-.31-.31,0-1.18,0-2.36,0-3.55,0-.23,.09-.32,.32-.32,.44,0,.87,0,1.31,0,.11,0,.15,.03,.15,.15,0,.35,0,.7,0,1.05,0,.27,.09,.36,.35,.36,1.48,0,2.95,0,4.43,0,.26,0,.35-.1,.35-.36,0-.35,0-.7,0-1.05,0-.12,.04-.15,.15-.15,.42,0,.85-.02,1.27,0,.62,.04,.9-.44,.9-.9-.02-1.13,0-2.26,0-3.38,0-.63-.3-.93-.93-.93-1.67,0-3.35,0-5.02,0-.16,0-.21-.04-.2-.2,.01-.36,0-.72,0-1.09,0-.23-.1-.32-.33-.32-1.54,0-3.09,0-4.63,0-.24,0-.33,.08-.33,.32,0,1.03,0,2.06,0,3.1,0,.24,.08,.32,.32,.32,1.54,0,3.09,0,4.63,0,.25,0,.33-.08,.33-.33,0-.37,0-.74,0-1.11,0-.14,.04-.17,.17-.17,1.71,0,3.43,0,5.14,0,.23,0,.31,.08,.31,.31,0,1.18,0,2.36,0,3.55,0,.23-.09,.32-.32,.32-.44,0-.87,0-1.31,0-.12,0-.15-.03-.15-.15,0-.35,0-.7,0-1.05,0-.27-.09-.36-.35-.36-1.48,0-2.95,0-4.43,0-.26,0-.35,.1-.35,.36,0,.35,0,.7,0,1.05,0,.12-.04,.15-.15,.15-.42,0-.85,0-1.27,0-.6,0-.89,.29-.89,.89,0,1.13,0,2.27,0,3.4,0,.6,.31,.91,.91,.91,.83,0,1.65,0,2.48,0s1.72,0,2.58,0c.14,0,.19,.03,.18,.18-.01,.37,0,.74,0,1.11,0,.23,.1,.32,.33,.32,1.54,0,3.09,0,4.63,0,.24,0,.33-.09,.33-.32,0-1.03,0-2.06,0-3.1ZM5.09,3.66c-.65,0-1.3,0-1.95,0-.65,0-1.3,0-1.95,0-.13,0-.17-.04-.17-.17,0-.79,0-1.58,0-2.38,0-.15,.05-.18,.19-.18,1.3,0,2.59,0,3.89,0,.14,0,.17,.04,.17,.18,0,.79,0,1.58,0,2.38,0,.15-.05,.18-.19,.18Zm.1,2.05c1.26,0,2.51,0,3.77,0,.14,0,.17,.04,.17,.17,0,.74,0,1.47,0,2.21,0,.13-.03,.17-.17,.17-.63,0-1.26,0-1.88,0s-1.26,0-1.88,0c-.14,0-.17-.04-.17-.17,0-.74,0-1.47,0-2.21,0-.13,.03-.17,.17-.17Zm7.93,7.14c0,.15-.05,.18-.19,.18-.65,0-1.3,0-1.95,0-.64,0-1.28,0-1.93,0-.16,0-.19-.05-.19-.2,0-.78,0-1.56,0-2.34,0-.14,.02-.2,.19-.2,1.29,0,2.58,0,3.87,0,.15,0,.19,.04,.19,.19,0,.79,0,1.57,0,2.36Zm-1.54-.42c-.25,0-.51,0-.76,0-.17,0-.28-.08-.29-.25,0-.17,.1-.25,.28-.25,.51,0,1.01,0,1.52,0,.18,0,.28,.08,.27,.26,0,.17-.12,.25-.29,.25-.25,0-.49,0-.74,0Zm-1.95,0c-.14,0-.27-.12-.25-.26,.02-.15,.1-.25,.27-.24,.16,0,.23,.1,.24,.25,.01,.14-.11,.25-.26,.25Z"/>
</svg>