<?xml version="1.0" encoding="UTF-8"?>
<svg id="Layer_1" data-name="Layer 1" xmlns="http://www.w3.org/2000/svg" viewBox="0 0 14 14">
  <defs>
    <style>
      .cls-1 {
        fill: #393939;
      }

      .cls-2 {
        fill: none;
      }
    </style>
  </defs>
  <rect class="cls-2" width="14" height="14"/>
  <path class="cls-1" d="M12.46,8.22c-.09-.35-.17-.69,.11-1.01,.53-.62,.81-1.35,.82-2.11,0-.83-.24-1.51-.7-2.11-1.22-1.59-3.58-2.19-5.49-1.38-1.34,.57-2.22,1.53-2.43,3.02-.02,.12-.08,.13-.17,.14-.92,.08-1.76,.39-2.51,.94C.42,6.96,.12,9.12,1.43,10.69c.17,.2,.22,.4,.2,.64-.03,.36-.16,.67-.4,.93-.09,.09-.15,.19-.09,.32,.06,.13,.18,.16,.32,.15,.61-.03,1.16-.22,1.63-.62,.15-.13,.27-.13,.44-.08,1.1,.29,2.2,.3,3.27-.15,1.34-.57,2.22-1.53,2.43-3.02,.02-.1,.06-.13,.15-.14,.42-.03,.83-.09,1.23-.22,.11-.04,.17,.01,.25,.08,.5,.42,1.07,.64,1.72,.66,.13,0,.24-.02,.3-.15,.05-.12,0-.22-.08-.31-.15-.16-.28-.35-.33-.56Zm-5.05,2.75c-.73,.53-1.56,.77-2.45,.76-.55,0-1.09-.08-1.6-.28-.16-.06-.27-.03-.37,.09-.28,.29-.62,.5-1.07,.62,.19-.4,.24-.77,.21-1.16-.02-.2-.08-.38-.22-.54-1.09-1.24-1.03-2.88,.15-4.03,1.44-1.42,3.93-1.57,5.49-.33,1.67,1.33,1.61,3.62-.12,4.87Zm4.51-2.79c.02,.15,.09,.3,.15,.47-.38-.09-.71-.27-.97-.54-.17-.17-.32-.21-.55-.13-.37,.14-.77,.2-1.17,.23-.09,0-.15,0-.16-.11-.11-.92-.55-1.67-1.23-2.28-.01-.01-.02-.03-.04-.05,.07-.05,.14-.03,.21-.03,.94,0,1.88,0,2.81,0,.07,0,.13,0,.2-.01,.13-.03,.21-.11,.21-.25,0-.13-.08-.21-.2-.24-.07-.01-.15-.01-.22-.01-1.22,0-2.45,0-3.67,0-.1,0-.19,0-.29-.05-.5-.24-1.03-.38-1.59-.42-.12,0-.14-.04-.13-.16,.13-.88,.59-1.55,1.29-2.08,1.64-1.23,4.23-.95,5.57,.59,.97,1.12,1.01,2.61,.05,3.73-.36,.42-.34,.85-.27,1.32Zm-7,1.56c-.64,0-1.29,0-1.93,0-.07,0-.13,0-.2-.02-.11-.03-.18-.11-.18-.23,0-.13,.07-.21,.19-.25,.06-.02,.13-.02,.2-.02,1.29,0,2.58,0,3.87,0,.06,0,.12,0,.18,.01,.12,.03,.2,.11,.2,.24,0,.14-.07,.22-.21,.25-.06,.01-.13,.01-.2,.01-.64,0-1.28,0-1.91,0Zm.51-1.51c-.5,0-1,0-1.5,0-.22,0-.33-.09-.33-.26,0-.16,.11-.24,.33-.24,1,0,2,0,2.99,0,.21,0,.32,.09,.32,.25,0,.16-.1,.25-.32,.25-.5,0-1,0-1.5,0Zm-2.58-.49c.16,0,.27,.12,.26,.26-.02,.16-.11,.24-.27,.23-.15,0-.23-.1-.23-.25,0-.16,.1-.24,.24-.24Zm6.71-3.5c-.51,0-1.01,0-1.52,0-.19,0-.29-.09-.29-.25,0-.16,.1-.24,.3-.24,.42,0,.84,0,1.26,0,.59,0,1.17,0,1.76,0,.21,0,.32,.08,.33,.24,0,.17-.11,.25-.33,.25-.5,0-1,0-1.5,0Zm-2.57,0c-.16-.02-.24-.1-.24-.26,0-.16,.1-.24,.26-.23,.15,0,.23,.1,.23,.24,0,.16-.09,.24-.25,.25Z"/>
</svg>