<?xml version="1.0" encoding="UTF-8"?>
<svg id="Layer_1" data-name="Layer 1" xmlns="http://www.w3.org/2000/svg" viewBox="0 0 800 800">
  <defs>
    <style>
      .cls-1 {
        fill: none;
      }

      .cls-2 {
        fill: #010101;
      }
    </style>
  </defs>
  <rect class="cls-1" width="800" height="800"/>
  <path class="cls-2" d="M771.62,708.62c-.08-58.16-33.57-105.79-88.07-126.38-10.57-3.99-21.96-4.76-34.46-9.3,39.6-5.92,78.96-40.6,74.34-96.14-3.23-38.84-39.95-74.31-81.07-76.28-47.24-2.27-84.84,29.63-91.45,78.83-2.99,22.26,4.04,42.57,17.52,60.38,13.6,17.98,31.97,28.66,54.74,33.11-1.62,1.16-2.46,2.26-3.43,2.39-28.97,3.7-54.45,15.02-75.98,34.86-3.6,3.32-5.46,1.97-8.06-1.24-30.65-37.75-70.81-57.95-120.23-63.61,80.9-16.94,105.41-79.7,101.55-125.39-4.56-53.95-48.31-99.78-99.74-105.05-58.32-5.98-110.39,27.13-126.09,80.25-8,27.09-7.11,53.93,4.34,79.79,16.86,38.12,46.94,60.44,88.31,69.32-1.68,1.12-1.94,1.43-2.25,1.48-46.05,7.32-85.2,27.01-114.57,64.08-4.18,5.28-6.44,1.05-8.96-1.24-13.84-12.59-29.94-21.36-47.52-27.22-9.67-3.22-19.81-5.06-32.58-8.23,46.8-8.28,77.55-46.58,74.83-90.17-2.99-47.97-40.78-82.52-87.08-82.39-43.08,.12-81.86,34.79-85.65,75.13-5.32,56.58,34.48,91.4,74.49,97.38-4.5,1.55-6.21,2.48-8.02,2.71-30.88,4.09-56.53,18.23-78.18,40.26-29.5,30.02-38.69,66.77-36.75,107.66,.95,20,3.68,23.63,23.35,23.63,231.13,0,462.26,0,693.39,0,2.31,0,4.63,.1,6.93-.02,10.96-.58,15.91-5.51,16.27-16.62,.24-7.31,.06-14.64,.05-21.95Zm-191.85-221.86c.15-31.34,25.55-56.79,56.97-57.07,31.6-.29,58.3,25.83,58.52,57.25,.22,31.2-26.48,57.68-58.12,57.64-31.86-.04-57.53-25.9-57.37-57.82Zm-264.51-58.08c.46-47.79,39.21-86.17,86.82-86.01,47.51,.17,86.16,39.1,86.11,86.75-.06,47.69-38.72,86.49-86.27,86.58-48.03,.09-87.12-39.3-86.66-87.32Zm-207.11,58.24c.24-31.43,26.93-57.54,58.53-57.24,31.42,.3,56.81,25.74,56.96,57.09,.15,31.91-25.52,57.77-57.38,57.8-31.64,.03-58.34-26.46-58.11-57.65Zm136.78,157.94c-10.29,20.91-15.47,43.27-16.23,66.47-.24,7.17-3.73,6.92-8.67,6.91-25.42-.09-50.84-.04-76.25-.04-24.65,0-49.3-.24-73.94,.15-6.98,.11-9.11-1.73-9.19-8.97-.51-43.18,24.18-81.54,63.82-98.12,39.32-16.45,89.15-7.15,117.77,21.72,3.68,3.71,5.33,6.59,2.72,11.89Zm282.71,73.33c-41.96,0-83.92,0-125.88,0-44.66,0-89.31-.18-133.97,.17-7.83,.06-10.37-1.47-10.03-10,2.3-57.54,46.34-112.53,103.69-128.57,85.2-23.83,170.07,30.81,183.44,118.11q3.11,20.28-17.25,20.28Zm205.79,.13c-25.03-.34-50.06-.13-75.1-.13-24.65,0-49.3-.16-73.94,.11-6.24,.07-9.44-.48-9.76-8.29-.91-22.37-5.73-44.04-15.83-64.23-2.63-5.25-1.83-8.7,2.48-12.99,28.89-28.73,78.67-38.01,117.85-21.51,39.61,16.68,64.31,55.23,63.68,98.24-.11,7.47-2.65,8.88-9.37,8.79ZM472.61,190.68c12.91-12.1,25.41-24.65,37.98-37.12,4.29-4.25,6.8-9.1,4.63-15.5-2.27-6.69-6.95-9.57-13.69-10.46-16.73-2.19-33.41-4.75-50.13-6.98-6.44-.86-10.92-3.01-13.9-9.71-6.82-15.36-15.07-30.07-22.17-45.31-3.2-6.86-7.17-11.94-15.17-11.83-7.5,.11-11.48,5.23-14.46,11.42-7.3,15.15-14.93,30.15-21.86,45.46-2.91,6.43-7.34,9.11-13.97,9.98-16.35,2.13-32.61,4.93-48.98,6.8-7.24,.83-12.79,3.28-15.07,10.31-2.29,7.05,.92,12.55,6.03,17.42,12.26,11.67,24.14,23.77,36.6,35.21,4.9,4.5,5.9,8.94,4.65,15.24-3.49,17.68-6.35,35.48-8.99,50.55-.77,15.8,9.24,23,21.07,17.24,15.83-7.71,31.41-15.96,46.79-24.54,5.99-3.35,10.78-3.62,16.86-.19,14.34,8.07,29.18,15.25,43.62,23.16,6.52,3.57,12.69,5.62,19.27,.68,6.62-4.97,6.06-11.89,4.88-18.9-2.8-16.63-5.52-33.27-8.56-49.86-1.01-5.49,.47-9.21,4.6-13.08Zm-24.54-16.92c-12.01,8.86-12.07,20.22-9.54,32.86,1.72,8.6,3.22,17.24,5.15,27.71-12.65-6.57-23.59-11.91-34.19-17.86-6.41-3.6-12.05-3.4-18.38,.15-10.66,5.97-21.62,11.4-33.78,17.75,1.97-11.52,3.15-21.98,5.65-32.11,2.56-10.35,.82-18.48-7.28-25.88-7.92-7.22-14.88-15.49-22.97-24.06,7.89-1.27,15.92-3.4,24.02-3.7,14.81-.54,25.67-5.38,30.82-20.61,2.91-8.62,7.87-16.54,12.3-25.56,7,9.48,11.19,19.93,15.66,30.09,3.97,9.03,10.06,13.85,19.86,14.91,10.9,1.17,21.72,3.04,34.95,4.95-8.51,8.3-14.69,15.78-22.26,21.36Zm283.85,79.91c-.61-11.86-5.07-17.38-14.4-17.42-29.19-.12-50.01-11.25-57.53-41.54-1.68-6.77-7.46-11.25-14.52-11.17-7.03,.09-11.79,4.85-14.56,11.37-1.04,2.46-2.7,4.71-3.41,7.24-6.29,22.35-20.28,33.75-44.13,32.05-3.69-.26-7.51,1.31-11.27,2.06-12.37,2.45-16.83,14.65-8.62,24.41,4.19,4.99,8.65,10.12,13.97,13.73,14.84,10.05,18.15,23.18,12.99,39.66-1.7,5.43-1.92,11.32-3.16,16.92-1.38,6.28,.26,11.46,5.14,15.45,5.51,4.51,11.5,3.64,17.32,.63,9.53-4.92,19.14-9.74,28.38-15.18,5.24-3.09,9.5-3.23,14.85-.12,9.91,5.76,20.08,11.17,30.5,15.93,11.04,5.05,20.12-1.09,20.51-13.08,.28-8.57-1.67-16.87-3.83-24.98-3.42-12.81-2.61-23.41,9.62-31.67,6.28-4.24,11.26-10.46,16.67-15.93,2.99-3.03,5.74-6.34,5.48-8.36Zm-61.77,54.28c-16.85-13.42-32.91-12.38-49.55,.08,6.93-19.66,2.62-34.9-15.03-47.18,20.62,.1,34.28-7.76,39.47-28.95,7.19,18.69,18.21,30.71,40.42,28.75-18.12,11.99-21.71,27.52-15.31,47.3Zm-430.23-62.04c-2.57-5.7-6.44-9.06-12.98-9.79-10.28-1.15-20.46-3.18-30.74-4.37-6.62-.77-11.23-3.02-14.06-9.7-4.17-9.83-9.62-19.11-14.13-28.8-2.72-5.84-7.31-9.42-13.18-9.74-6.65-.36-11.4,3.98-14.37,9.88-3.78,7.51-8.16,14.83-10.97,22.69-4,11.17-10.76,16.37-22.95,16.28-8.31-.06-16.61,2.88-24.98,3.72-6.65,.67-10.86,4.15-12.96,9.83-2.19,5.92-.12,11.26,4.44,15.65,8.03,7.75,15.83,15.74,24.02,23.3,4.35,4.02,6.03,7.77,4.43,14.06-2.72,10.73-4.53,21.77-5.67,32.8-1.47,14.27,9.26,21.58,22.17,15.36,9.98-4.81,19.81-9.99,29.4-15.54,4.91-2.84,8.88-2.86,13.81-.05,9.97,5.69,20.1,11.15,30.5,15.99,10.54,4.9,21.15-1.35,21.95-12.76-1.91-10.45-3.63-21.42-5.98-32.26-1.56-7.2-1.53-13.09,4.89-18.48,8.22-6.91,15.76-14.69,23.19-22.49,4.01-4.21,7.08-9.18,4.18-15.6Zm-59.77,62.34c-17.61-12.58-33.4-14.13-50.36-.24,6.55-19.98,3.19-35.8-16.03-47.14,21.99,.49,34.91-8.96,39.84-31.35q13.83,28.29,41.38,30.8c-15.84,12.94-25.66,27.07-14.82,47.94Zm262.14,325.06c.3-11.16,11.61-17.62,21.66-11.38,18.68,11.6,32.57,27.75,41.68,47.89,3.34,7.38,.14,12.86-5.54,16.94-6.13,4.39-13.77,4.19-17.52-1.97-10.11-16.62-22.52-30.86-37.66-42.93-2.57-2.05-2.72-5.39-2.62-8.54Zm-41.4-1.75c-8.19-.07-14.23-6.55-13.82-15,.43-8.85,5.74-13.07,14.05-13.41,8.23-.34,14.14,6.31,13.82,14.79-.3,7.87-6.3,13.69-14.05,13.63Z"/>
</svg>