<?xml version="1.0" encoding="UTF-8"?>
<svg id="Layer_1" data-name="Layer 1" xmlns="http://www.w3.org/2000/svg" viewBox="0 0 800 800">
  <defs>
    <style>
      .cls-1 {
        fill: #030303;
      }

      .cls-2 {
        fill: none;
      }
    </style>
  </defs>
  <rect class="cls-2" width="800" height="800"/>
  <path class="cls-1" d="M400.71,766.09c-111.3,0-222.59,.02-333.89-.02-27.37,0-30.62-3.36-30.69-31.12-.05-18.55-.22-37.1,.06-55.65,.29-19.87,5.28-24.87,25.64-24.97,47.61-.21,95.22-.07,142.83-.07,126.13,0,252.27-.02,378.4,.05,6.77,0,13.71-.13,20.25,1.29,8.93,1.94,13.18,8.33,13.01,17.7-.17,9.27-4.31,15.66-13.42,17.36-6.61,1.23-13.51,1.14-20.28,1.15-163.23,.06-326.47,.04-489.7,.05-17.03,0-27.26,17.96-18.76,32.96,3.66,6.47,9.96,3.53,14.99,3.54,71.1,.21,142.21,.14,213.32,.14,135.41,0,270.82,.06,406.23-.19,6.13-.01,15.77,4.16,17.92-3.95,2.44-9.2,1.51-19.69,.16-29.35-.72-5.15-7.31-3-11.34-3.08-13.6-.25-27.21,.04-40.8-.22-12.51-.24-20.53-7.22-20.14-19.35,.36-11.02,8.13-17.86,19.82-17.95,24.11-.18,48.23-.44,72.33,.19,11.36,.3,18.29,6.79,18.31,18.95,.04,24.11,.03,48.23,.05,72.34,.01,14.13-8.05,19.96-21.14,20.1-19.17,.2-38.33,.09-57.5,.09-95.22,0-190.44,0-285.66,0Zm18.48-571.92c0,122.44-.33,244.89,.4,367.32,.09,15.85-4.43,19.31-19.5,19.11-14.23-.19-18.56-3.42-18.4-18.32,.82-76.67,.3-153.36,.45-230.04,.03-13.56-4.1-24.01-19.28-23.67-14.05,.31-18,10.35-17.98,23.12,.14,87.19,.25,174.39-.08,261.58-.07,17.65,8.34,24.54,24.93,24.37,19.17-.19,38.34,.05,57.51-.06,24.34-.14,29.04-4.88,29.05-29.32,.03-119.97,.01-239.94,.01-359.9q0-29.04,28.16-31.4c18.39-1.54,26.84-15.78,16.55-31.01-27.67-40.94-56.07-81.41-85.08-121.42-8.32-11.48-21.73-11.92-29.99-.62-29.53,40.38-58.2,81.42-86.16,122.91-9.71,14.41-1.35,28.43,16.01,30.03,4.91,.45,9.96,.66,14.82,.02,10.86-1.43,15.73,1.62,14.61,13.79-1.19,12.88-.24,25.95-.26,38.93-.02,12.33,5.4,20.78,18.24,20.97,12.79,.19,18.74-7.94,18.83-20.36,.11-16.7,.4-33.4-.09-50.09-.3-10.35,2.3-20.91-2.48-31.05-5.35-11.34-17.94-7.56-27.43-12.24,14.58-21.01,28.23-40.8,42.05-60.48,3.1-4.42,6-10.38,11.85-1.78,14.13,20.77,28.74,41.22,43.54,62.36-29.99,6.46-30.27,6.83-30.27,37.24Zm-222.7,169.1c-.02,66.8,.09,133.61-.19,200.41-.02,5.42,3.81,12.67-4.42,16.1-18.19,7.6-32.34-1.79-32.51-21.55-.02-2.47,.05-4.95-.03-7.42-.38-11.56-5.98-19.27-17.77-19.59-12.74-.35-19.08,7.39-19.25,19.91-.19,14.22,.29,28.46-.15,42.68-.51,16.56,7.71,23.79,23.57,23.78,19.79,0,39.59,.11,59.38-.02,23.49-.16,28.45-5.02,28.47-28.04,.06-64.95,.96-129.92-.53-194.83-.47-20.32,4.48-28.02,24.94-24.65,8.77,1.45,17.77-.54,22.18-9.78,4.08-8.57,1.97-16.61-3.46-24.31-27.07-38.38-53.74-77.05-81-115.28-10.88-15.26-24.91-14.93-35.97,.62-27.21,38.28-54.28,76.66-80.85,115.39-12.18,17.76-3.79,32.64,18.04,33.56,4.32,.18,8.72,.49,12.98-.06,9.82-1.28,12.74,2.68,12.55,12.41-.57,28.44,.02,56.91-.3,85.36-.16,14,3.04,25.8,19.54,25.25,15.33-.51,17.88-12.15,17.77-25.21-.28-34.02-.09-68.04-.09-102.06,0-28.69-1.06-29.97-30.61-35.2,16.48-23.54,32.43-46.32,49.27-70.37,17.22,24.76,32.67,46.96,49.27,70.81-28.59,4.02-30.79,6.5-30.8,32.1Zm509.48,6.99q-26.96,1.8-26.96,29.24c0,63.08,.03,126.16-.02,189.24-.02,23.59-4.81,28.63-27.67,28.83-19.79,.18-39.58-.09-59.37,.07-16.85,.13-24.73-7.45-24.46-24.85,.54-35.24,.16-70.5,.16-105.75,0-32.78-.97-65.59,.41-98.31,.68-16.11-4.71-21-19.63-18.54-3.61,.59-7.45,.38-11.11-.09-16.27-2.1-24.41-15.97-15.26-29.56,27.94-41.51,56.79-82.42,86.06-123,8.35-11.58,22.75-10.92,31.36,1.09,28.44,39.66,56.57,79.56,83.96,119.95,10.85,16,2.22,30.37-17.49,31.69Zm-33.53-39.67c-16.43-23.47-32.35-46.22-49.16-70.23-17.25,24.79-32.69,46.96-49.29,70.81,28.58,4.03,30.78,6.5,30.79,32.04,.02,66.74,.5,133.49-.38,200.22-.19,14.52,4.32,17.88,17.7,16.92,11.33-.81,20.66,1.94,20.31-16.24-1.28-66.1-.51-132.24-.5-198.36,0-28.48,.9-29.57,30.54-35.15Z"/>
</svg>