<?xml version="1.0" encoding="UTF-8"?>
<svg id="Layer_1" data-name="Layer 1" xmlns="http://www.w3.org/2000/svg" viewBox="0 0 800 800">
  <defs>
    <style>
      .cls-1 {
        fill: #020202;
      }

      .cls-2 {
        fill: none;
      }
    </style>
  </defs>
  <rect class="cls-2" width="800" height="800"/>
  <path class="cls-1" d="M175.62,709.82c17.09-17.48,34.83-34.39,51.04-52.65,10.29-11.59,21.73-15.15,36.83-15.1,142.67,.45,285.35,.28,428.02,.22,5.65,0,11.37-.28,16.93-1.21,12.38-2.07,21.07-10.79,23.24-23.13,.84-4.81,1.2-9.77,1.2-14.66,.06-135.49,.04-270.97,.08-406.46,0-6.85,.09-13.86-2.54-20.14-5.86-13.96-17.63-18.92-31.96-18.96-22.71-.07-45.41-.03-68.12-.02-5.84,0-11.51-.65-15.14-5.96-3.13-4.57-4.25-9.5-1.9-14.94,2.53-5.87,7.01-9.03,13.17-9.03,28-.02,56.11-1.28,83.97,.75,31.34,2.29,52.69,29.04,52.92,63.06,.27,39.74,.06,79.47,.06,119.21,0,98.4,.04,196.79-.02,295.19-.02,31.63-15.1,54.36-41.81,63.33-9.06,3.04-18.48,3.53-27.99,3.52-142.68-.05-285.35,.03-428.03-.18-7.75-.01-13.32,1.94-18.84,7.61-24.29,24.93-49.09,49.37-73.7,73.99-6.03,6.03-12.1,11.85-21.73,7.58-9.19-4.08-8.78-12.39-8.82-20.32-.11-26.49-.11-52.98,0-79.47,.04-8.19,.97-16.26,10.93-18.71,11.15-2.75,19.16,4.09,19.42,17.15,.32,15.86,.08,31.73,.08,47.6,.9,.58,1.8,1.16,2.7,1.73Zm-139.01-99.9c.1,33.67,21.26,57.66,53.96,62.17,11.49,1.58,19.42-2.96,20.99-12.03,1.63-9.36-3.44-15.15-15.69-17.93-21.65-4.91-29.21-14.06-29.22-36.18-.05-137.33-.06-274.67,0-412,.01-24.59,11.59-36.09,36.14-36.22,21.56-.11,43.13,.06,64.69-.06,13.16-.07,19.89-5.21,20.07-14.88,.18-9.66-6.74-15.1-19.67-15.16-21.56-.09-43.13-.05-64.69-.02-42.49,.07-66.63,24.26-66.65,66.89-.04,68.48,0,136.96,0,205.43,0,69.99-.15,139.98,.07,209.97ZM352.25,104.94c-61.31,22.96-96.19,66.64-103.19,132.12-1.79,16.79,2.58,25.81,13.39,26.65,10.35,.8,16.19-7.16,17.15-23.37,4.99-84.44,94.6-137.69,171.26-101,43.05,20.61,66.36,55.71,69.52,103.65,.9,13.68,6.46,21.05,16,20.75,10.21-.32,14.81-8.33,14.42-22.63-2.06-75.32-66.96-143.99-150.67-143.54-16.35-.02-32.5,1.61-47.89,7.37Zm46.21,356c18.24-.03,16.88,2.3,16.83-14.54-.06-18.44,2.11-16.43-14.82-16.39-18.38,.05-15.9-2.41-16.15,14.95,.2,17.4-2.3,16.01,14.15,15.98Zm-57.25-30.94c-17.13-.15-17.2-.04-17.12,13.89,.1,19.56-1.66,17.05,14.09,17.03,18.68-.02,16.25,2.24,16.48-14.56-.25-18.52,2.31-16.22-13.45-16.36Zm104.12,12.99c-.01,17.96-.01,18.05,13.1,17.94,19.37-.16,17.02,2.37,16.99-15.39-.03-17.95,2.57-15.27-15.57-15.55q-14.51,0-14.52,13Zm225.93-78.85c-4.52,27.01-23.94,46.27-51.32,49.83-6.88,.9-8.43,3.72-8.78,10.1-4.26,77.02-59.89,140.83-135.54,155.1-14.08,2.66-28.55,3.41-42.98,2.8-9.39-.4-15.59-4.18-17.42-14.28-1.38-7.6-4.19-14.84-13.87-15.37-7.66-.42-13.4,2.12-15.31,10.24-1.88,7.99,.53,14.15,8.27,17.49,2.73,1.18,5.85,1.42,8.75,2.26,7.97,2.3,12.17,7.63,11.31,15.94-.92,8.92-6.48,13.17-15.33,13.49-21.33,.77-41.44-17.08-44.18-39.32-2.77-22.38,11.85-44.52,32.63-49.45,22.11-5.25,40.42,2.19,52.04,22.1,3.05,5.22,6.19,6.2,11.73,5.85,74.31-4.6,128.93-61.62,130.29-136.64,.42-23.46,0-46.93,.11-70.4,.05-12.96,4.53-18.68,14.39-18.95,10.42-.29,15.46,5.68,15.64,18.93,.15,11.35,.26,22.71-.05,34.06-.16,5.99,2.35,7.4,7.52,5.78,11.29-3.53,19.4-10.45,21.57-22.45,2.43-13.48,2.21-27.16,.47-40.7-1.98-15.39-11.74-24.26-28.03-26.28-3.73-.46-7.56-.22-11.34-.29-15.61-.28-20.47-4.77-20.11-20.48,.85-37.45-2.95-73.74-20.42-107.88-32.92-64.35-103.64-102.83-175.75-97.72-73.74,5.23-147.08,59.84-164.14,147.05-5.92,30.25-2.41,61.15-3.03,91.76-.06,3.03,0,6.06,0,9.08,0,26.12,.08,52.23-.03,78.35-.06,15.71-5.37,20.92-21.18,21.35-43.66,1.19-69.7-24.06-69.75-67.68-.01-8.7-.23-17.42,.16-26.11,1.29-28.68,21.29-52.14,49.61-56.59,8.69-1.36,10.89-4.05,10.91-12.54,.18-74.78,30.3-134.72,91.31-178.14,111.49-79.35,273.12-27.86,319.33,101.08,9.05,25.26,13.35,51.11,12.88,77.79-.12,6.95,.67,10.35,9.14,11.56,29.15,4.15,48.89,25.89,51.39,56.25,1.18,14.26,1.53,28.72-.87,43.03Zm-491.33-68.58c-10.76,2.96-18.17,9.46-20.52,20.23-3.4,15.57-3.25,31.41-.06,47.03,2.24,10.97,9.95,17.28,20.27,20.7,5.65,1.87,8.49,.46,8.35-6.08-.25-12.43-.07-24.86-.07-37.29,0-12.81-.21-25.62,.09-38.42,.15-6.39-2.09-7.8-8.07-6.16Z"/>
</svg>