<?xml version="1.0" encoding="UTF-8"?>
<svg id="Layer_1" data-name="Layer 1" xmlns="http://www.w3.org/2000/svg" viewBox="0 0 800 800">
  <defs>
    <style>
      .cls-1 {
        fill: none;
      }

      .cls-2 {
        fill: #242323;
      }
    </style>
  </defs>
  <rect class="cls-1" width="800" height="800"/>
  <path class="cls-2" d="M400.78,771.15c-10.57,0-21.16,.3-31.72-.05-30.21-1-53.44-22.64-55.88-52.6-1.2-14.72-6.87-25.06-21.85-29.22-5.04-1.4-10.08-3.35-14.61-5.93-14.44-8.23-26.35-6.71-39.43,4.64-21.57,18.73-53.84,17.46-74.93-1.9-16.2-14.87-31.83-30.47-46.71-46.67-19.88-21.63-20.54-53.6-1.16-75.89,10.11-11.63,12.11-22.74,5.09-35.99-1.44-2.71-3.13-5.43-3.83-8.36-4.91-20.61-17.03-30.08-38.96-31.68-25.53-1.87-45.67-27.27-46.4-54.53-.55-20.68-.48-41.39-.04-62.08,.66-30.68,22.59-54.37,53.18-56.9,14.94-1.23,25.04-7.03,28.85-22.07,.75-2.94,1.91-5.91,3.48-8.5,10.58-17.42,9.6-32.12-4.49-48.75-17.17-20.25-13.97-51.8,4.41-71.47,15.02-16.08,30.59-31.71,46.73-46.66,20.87-19.33,53.4-20.4,74.89-1.67,12.44,10.84,24.06,13.25,38.22,5.1,3.78-2.17,7.93-3.96,12.14-5.07,17.26-4.54,24.78-15.4,25.77-33.32,1.26-22.79,20.01-44.02,42.62-47.85,28.73-4.87,57.99-4.66,86.73-.29,24.98,3.79,42.97,24.94,44.82,50.13,1.12,15.27,6.63,26.2,22.55,29.85,1.25,.29,2.43,1.03,3.57,1.68,19.57,11.23,36.49,12.64,55.97-4.07,19.25-16.52,50.23-11.83,69.17,5.94,15.73,14.76,31.03,30.02,45.8,45.73,19.89,21.17,21.31,53.85,2.31,75.91-10.77,12.51-12.97,24.09-4.88,38.2,2.6,4.54,4.9,9.46,6.17,14.5,3.96,15.64,14.24,21.52,29.74,22.77,29.74,2.4,51.64,26.13,52.47,56.2,.57,20.68,.53,41.39,.02,62.07-.75,30.27-22.14,53.32-52.36,56.09-15.27,1.4-25.91,7.22-29.8,22.9-1.05,4.21-2.74,8.44-4.99,12.14-9.54,15.69-7.22,28.57,4.95,42.81,17.66,20.66,15.9,52.42-2.68,72.69-15.16,16.53-31.09,32.46-47.7,47.53-21.19,19.23-53.17,19.96-74.94,1.04-12.67-11.01-24.39-12.34-38.31-4.42-2.65,1.51-5.61,2.6-8.55,3.41-18.75,5.1-27.88,16.15-29.14,36.65-1.62,26.29-26.79,46.85-54.59,47.91-10.56,.4-21.14,.06-31.72,.07ZM182.87,145.36c-11.83,11.84-23.76,23.58-35.53,35.47-14.99,15.13-15.24,24.07-1.85,41.01,14.87,18.82,18.32,39.38,8.79,61.74-3.61,8.47-7.19,16.94-10.64,25.47-9.64,23.87-27.05,37.12-52.89,39.26-17.27,1.43-25.15,9.61-25.56,27.19-.41,17.17-.38,34.36-.02,51.52,.37,17.71,7.72,25.36,25.4,27.12,26.2,2.61,44.06,15.95,53.34,40.69,2.46,6.56,4.94,13.17,8.05,19.44,12.54,25.24,9.39,48.17-8.83,69.62-10.61,12.49-9.98,23.34,1.34,35.06,11.31,11.72,22.94,23.14,34.49,34.64,15.62,15.54,24.92,15.93,42.2,2.31,18.96-14.95,39.64-17.8,61.93-8.26,8.47,3.63,16.94,7.29,25.49,10.72,24.04,9.65,36.77,27.48,38.99,53.12,1.44,16.63,9.46,24.46,26.31,24.83,17.62,.38,35.26,.36,52.88,0,17.43-.35,24.97-8.04,26.7-25.84,2.43-25.04,15.14-42.52,38.64-51.97,6.93-2.79,14.03-5.25,20.7-8.57,25.74-12.82,49.06-9.69,70.85,9.09,11.54,9.95,23.05,9.23,34.18-1.41,12.09-11.57,23.82-23.52,35.62-35.38,15.18-15.25,15.67-24.64,2.29-41.08-15.26-18.74-18.45-39.28-9.13-61.64,3.37-8.09,7.23-15.99,10.27-24.2,9.37-25.36,27.56-38.77,54.32-41.23,16.66-1.53,24.18-9.46,24.6-26.55,.43-17.17,.38-34.36,.02-51.52-.39-18.31-8.08-26.11-26.39-27.78-25.23-2.3-42.38-15.42-51.88-38.74-2.98-7.31-5.42-14.88-8.91-21.93-12.34-24.93-8.62-47.42,9.04-68.41,10.89-12.95,10.24-23.54-1.86-36.07-11.32-11.71-22.92-23.17-34.5-34.62-15.35-15.18-24.4-15.54-41-2.12-18.79,15.18-39.43,18.25-61.79,8.96-8.1-3.37-15.98-7.32-24.21-10.34-25.43-9.32-38.8-27.43-40.96-54.26-1.24-15.43-8.79-23.65-24.18-24.25-19.36-.76-38.79-.76-58.15,.1-14.22,.63-22.45,8.73-23.23,22.29-1.69,29.46-17.06,47.88-44.21,57.62-6.19,2.22-12.35,4.63-18.3,7.42-24.06,11.27-46.08,8.11-66.22-8.97-5.13-4.35-10.5-8.02-17.56-8.12-7.64-.24-13.47,3.37-18.64,8.54Zm259.81,454.03c.03,18.8,10.01,25.82,28.11,20,106.99-34.42,178.49-144.31,154.22-262.77-26.89-131.25-153.43-210.59-285.15-176.01-104.87,27.53-176.58,128.36-167.36,238.76,3.99,47.79,21.24,89.31,50.03,126.77,8.73,11.36,19.87,14.22,28.5,7.83,9.3-6.89,9.18-17.41-.84-29.86-35-43.49-49.08-93.64-41.97-148.2,17.25-132.34,159.94-208.38,279.08-147.62,74.32,37.91,110.45,101.66,106.01,185.5-3.89,73.45-42.01,125.87-105.91,160.64-8.5,4.62-10.29,1.85-10.22-6.79,.31-33.91,.1-67.83,.14-101.75,.02-19.86-1.2-17.5,17.99-17.5,20.1,0,35.37-8.55,42.66-27.22,6.7-17.16,3.4-33.16-9.6-47.54-31.55-34.91-62.42-70.42-93.51-105.75-17.62-20.03-50.22-20.26-67.93-.41-27.82,31.18-55.98,62.06-83.35,93.62-9.05,10.44-20.79,19.54-23.12,34.59-4.65,30.07,14.73,52.41,45.62,52.67q17.55,.15,17.55,17.98c0,45.37-.09,90.74,.08,136.11,.04,12.19,6.35,18.35,17.61,18.07,11.32-.28,16.88-6.44,16.89-17.54,.06-54.62,.16-109.24-.06-163.86-.06-15.05-9.83-24.69-24.76-25.32-8.36-.35-16.75,.08-25.12-.21-4.89-.17-9.94-1.1-12.48-5.99-2.65-5.1,1.54-8.14,4.37-11.36,30.5-34.66,61.04-69.29,91.57-103.94,6.03-6.85,11.91-6.5,17.76,.24,5.48,6.31,10.97,12.6,16.5,18.87,25.29,28.7,50.74,57.27,75.81,86.17,6.78,7.82,4.53,13.95-5.63,15.43-8.21,1.2-16.69,.56-25.06,.69-19.07,.3-28.34,9.44-28.42,28.43-.11,26.43-.03,52.86-.04,79.29-.01,25.99-.05,51.98,0,77.97Zm-167.71-45.21c-9.3,.04-17.43,8.39-17.26,17.76,.18,10.05,7.39,16.84,17.7,16.69,10.55-.15,16.88-6.65,16.81-17.25-.07-10.06-7.27-17.23-17.25-17.2Z"/>
</svg>