<?xml version="1.0" encoding="UTF-8"?>
<svg id="Layer_1" data-name="Layer 1" xmlns="http://www.w3.org/2000/svg" viewBox="0 0 800 800">
  <defs>
    <style>
      .cls-1 {
        fill: #030303;
      }

      .cls-2 {
        fill: none;
      }
    </style>
  </defs>
  <rect class="cls-2" width="800" height="800"/>
  <path class="cls-1" d="M389.41,426.56c-.66,6.31-2.89,11.08-6.56,15.21-12.51,14.05-25,28.11-37.54,42.13-6.36,7.11-13.56,10.37-22.08,3.63-7.4-5.86-7.37-14.42,.16-23.12,9.04-10.45,18.15-20.86,27.69-30.85,4.6-4.82,5.21-8.11,.23-13.25-9.88-10.18-19.18-20.95-28.42-31.73-6.98-8.15-6.96-16.84,.1-22.22,7.67-5.85,15.17-4.49,21.47,2.5,13.12,14.53,26.04,29.24,39.08,43.84,3.75,4.2,5.28,9.19,5.87,13.87Zm-269.31,15.34c12.34,13.72,24.49,27.61,36.86,41.3,8.13,9,15.9,10.27,22.87,4.12,6.62-5.83,6.37-14.94-1-23.45-9.07-10.45-18.11-20.96-27.68-30.93-4.5-4.69-4.28-7.7,.06-12.27,9.53-10.02,18.6-20.49,27.69-30.93,7.27-8.34,7.5-17.79,.9-23.47-6.49-5.58-15.05-4.43-22.25,3.49-12.67,13.94-25.15,28.05-37.65,42.14-3.63,4.1-6.59,8.56-5.8,14.46-.83,6.26,1.99,11.06,6.01,15.53Zm131.51-78.66c-9.68,39.74-19.27,79.5-28.59,119.33-2.11,9.02,1.14,16.48,10.65,18.76,9.57,2.29,15.44-2.94,17.66-12.06,9.67-39.75,19.37-79.49,28.66-119.32,2.32-9.95-4.67-17.99-14.24-17.95-7.63,.09-12.42,4.2-14.13,11.25Zm-1.78,220.39c-7.9-.03-14.98,6.86-15.02,14.59-.04,7.36,7.49,14.83,14.95,14.85,7.9,.01,14.74-6.83,14.77-14.76,.03-7.91-6.72-14.65-14.7-14.68Zm520.81-1.69c-.82,16.73-12.43,28.34-30.23,31-11.59,1.74-20.06,22.71-12.91,31.97,10.65,13.79,10.05,31.23-1.83,44.08-6.01,6.49-12.28,12.77-18.77,18.78-13.42,12.4-30.29,13.44-43.87,1.73-5.03-4.34-9.16-5.57-13.87-1.73-6.38,5.2-19.23,1.42-19.37,15.7-.15,15.63-13.2,28.34-28.72,29.36-10.74,.7-21.58,.65-32.33,.04-15.58-.88-27.73-12.85-29.3-28.96-.59-6.04-1.75-10.97-8.3-11.65-8.37-.86-14.68-12.8-25.47-2.41-12.05,11.6-29.38,10.25-41.97-1.09-7.43-6.69-14.56-13.78-21.2-21.25-10.8-12.15-11.96-29.02-1.25-41,6.06-6.78,3.48-11.17,1.67-18.06-3.53-13.44-11.25-15.94-23.96-15.57-31.94,.92-63.93,.31-95.89,.3-2.7,0-5.41,.17-8.08-.08-9.22-.88-15.82-5.56-15.44-15.18,.37-9.3,6.53-14.29,16.16-14.29,23.49,0,47.01-.53,70.48,.24,9.97,.33,14.13-1.94,12.64-12.49-.91-6.41-.4-13.08-.08-19.61,.75-15.48,12.91-28.44,28.29-30.13,5.25-.58,11.3,.61,11.91-7.23,.66-8.48,12.71-14.81,2.71-25.63-11.94-12.92-10.72-29.62,1.13-42.82,5.91-6.58,12.27-12.77,18.68-18.88,13.42-12.77,30.29-13.54,44.99-2.3,8.58,6.57,29.72-1.96,31.67-12.77,3.78-20.95,15.18-30.73,36.36-31.06,7.32-.11,14.65-.25,21.95,.06,19.36,.81,31.62,12.03,33.34,31.19,.46,5.13,2.26,7.6,6.87,9.04,4.39,1.38,8.9,2.8,12.84,5.1,4.99,2.91,8.65,3.28,12.93-1.47,3.87-4.3,9.22-7.67,15.21-7.36,9.84,.5,11.65-3.77,11.53-12.91-.55-40.42-.58-80.85,0-121.27,.15-10.28-2.17-13.55-13.14-13.5-100.14,.47-200.28,.27-300.42,.27s-201.82,.18-302.73-.27c-10.44-.05-12.56,2.83-12.51,12.77,.42,82,.28,164,.19,246.01-.01,11.67,1.01,22.95,7,33.33,8.13,14.08,19.47,22.08,36.49,21.78,25.41-.46,50.84-.17,76.26-.09,12.36,.04,19.43,5.56,19.32,14.8-.11,9.27-7.05,14.64-19.63,14.7-23.11,.12-46.28-1.06-69.32,.25-53.9,3.07-79.56-41.43-79.52-79.29,.13-116.65-.13-233.3,.18-349.96,.07-24.95-2.33-50.01,1.84-74.88,4.97-29.64,30.75-61.57,72.37-61.38,178.71,.81,357.43,1.09,536.13-.16,47.34-.33,75.97,38.33,76.13,75.42,.38,88.93,.18,177.86,.22,266.8,0,11.55,.39,23.12-.13,34.64-.37,8.18,1.66,14.39,7.69,20.5,12.43,12.59,12.95,30.06,1.62,43.68-4.14,4.97-4.12,8.37-1.72,14.12,4.46,10.66,7.4,19.82,22.66,20.45,12.51,.52,21.92,15.22,22.54,28.6,.46,9.99,.49,20.03,0,30.02Zm-83.23-466.37c-1.94-21.98-19.68-37.86-40.8-37.88-181.3-.13-362.6-.04-543.9-.13-15.97,0-26.9,7.64-34.73,20.79-5.89,9.88-7.52,20.7-7.47,32.05,.15,33.09,.44,66.19-.2,99.26-.18,9.53,3.01,11.16,11.68,11.14,100.85-.29,201.7-.18,302.55-.18,78.91,0,157.82,0,236.73,0,23.1,0,46.19-.04,69.29,.03,4.5,.01,8.49,.2,8.37-6.27-.76-39.6,1.98-79.29-1.51-118.81Zm54,459.71c-.29-3.05-.05-6.15-.05-9.23,0-18.01,.55-15.9-15.43-15.48-10.96,.28-17.42-4.17-19.71-15.03-1.9-9.03-5.48-17.51-9.66-25.72-10-19.63-10.16-19.74,5.25-36.28,3.87-4.15,5.32-7.16,.17-11.1-2.42-1.85-4.39-4.31-6.56-6.49-11.32-11.36-11.57-11.61-22.48-.42-7.59,7.78-15.13,9.59-24.54,3.45-7.75-5.05-16.31-8.55-25.14-11.39-21.33-6.86-21.47-6.92-22.66-28.98-.3-5.61-1.63-8.79-7.93-8.16-3.43,.34-6.92,.06-10.39,.06-14.58,0-14.98,.02-14.61,15.08,.29,11.48-4.26,17.87-15.69,20.32-10.16,2.18-19.66,6.61-28.79,11.64-15.23,8.4-17.38,8.71-28.67-3.84-7.4-8.22-12.67-7.91-18.77,.45-.9,1.23-2,2.39-3.22,3.29-9.24,6.82-10.99,13.35-.56,21.12,9.58,7.14,10.28,16.17,3.77,26.28-5.41,8.41-9,17.77-11.78,27.37-4.91,16.91-6.36,18.68-23.93,18.03-9.87-.37-13.39,3.01-12,12.43,.28,1.88,.04,3.84,.04,5.77,.01,15.04,.03,15.6,14.65,15.01,12.31-.5,18.12,5.1,21.03,16.48,2.16,8.46,5.51,16.77,9.4,24.61,9.59,19.34,10.03,19.39-5.13,35.35-4.48,4.71-5.05,8.04,.07,12.19,2.38,1.93,4.4,4.3,6.58,6.47,10.72,10.69,11,10.96,21.76-.11,7.63-7.84,15.17-9.25,24.61-3.46,9.86,6.05,20.47,10.69,31.85,13.15,10.7,2.31,15.36,8.46,15.14,19.59-.31,16,.13,16.01,16.29,16.01,17.04,0,17.51,0,17.21-16.37-.21-11.31,4.8-17.11,15.42-19.33,10.64-2.22,20.74-6.3,29.77-12.15,10.65-6.9,19.81-6.2,27.23,3.77,7.54,10.13,13.76,8.62,20.32-.53,.66-.92,1.53-1.76,2.46-2.43,9.43-6.81,10.78-13.32,.47-21-9.62-7.16-10.19-16.1-3.67-26.27,4.74-7.39,7.96-15.64,10.61-24.13,6.52-20.88,6.71-21.06,28.48-21.54,6.34-.14,9.43-1.79,8.8-8.48Zm-99.32-416.58c.4,28.6-20.14,49.62-50.36,50-41.98,.54-83.97,.57-125.94-.03-28.93-.41-50.96-22.53-50.73-49.27,.24-27.44,22.74-48.55,52.33-48.81,20.8-.18,41.6-.04,62.4-.04,20.41,0,40.83-.17,61.24,.04,29.63,.31,50.68,20.27,51.07,48.1Zm-28.59,.59c-.26-11.28-9.29-18.84-23.03-18.92-20.79-.12-41.59-.03-62.38-.03-20.02,0-40.05-.09-60.07,.03-14.9,.09-23.27,7.37-23.02,19.7,.23,11.77,8.63,19.11,22.64,19.15,40.82,.12,81.64,.1,122.46,0,13.98-.03,23.69-8.49,23.42-19.94Zm-272.08,.52c-.05,27.46-21.85,49.23-48.93,48.86-26.52-.36-48.29-22.19-48.5-48.65-.22-26.88,22.01-49.35,48.86-49.4,27.15-.06,48.62,21.69,48.57,49.19Zm-28.5-.43c-.2-10.52-9.6-19.22-20.48-18.98-11.1,.24-19.23,8.97-18.78,20.17,.42,10.51,8.94,18.69,19.38,18.64,10.48-.05,20.07-9.62,19.87-19.83Zm-97.62,.11c.09,26.93-22.22,49.28-49.1,49.21-26.76-.08-49.24-22.8-48.94-49.47,.3-26.42,22.24-48.35,48.63-48.61,26.85-.26,49.32,21.96,49.41,48.88Zm-29.24,.68c.3-10.66-8.61-19.71-19.52-19.81-10.56-.1-19.22,7.91-19.79,18.29-.58,10.66,8.12,20.14,18.85,20.54,10.63,.39,20.15-8.46,20.45-19.02Zm487.58,406.83c.01,48.96-39.82,89.04-88.62,89.19-49.23,.15-89.48-40.21-89.4-89.63,.08-48.68,40.31-88.53,89.25-88.42,49.07,.11,88.75,39.84,88.77,88.86Zm-29.43,.66c.3-33.25-26.71-60.59-59.74-60.46-32.78,.13-59.01,26.69-59.03,59.77-.02,33.47,25.59,59.32,58.91,59.45,33.17,.13,59.56-25.78,59.86-58.77Z"/>
</svg>