<?xml version="1.0" encoding="UTF-8"?>
<svg id="Layer_1" data-name="Layer 1" xmlns="http://www.w3.org/2000/svg" viewBox="0 0 800 800">
  <defs>
    <style>
      .cls-1 {
        fill: none;
      }

      .cls-2 {
        fill: #010101;
      }
    </style>
  </defs>
  <rect class="cls-1" width="800" height="800"/>
  <path class="cls-2" d="M751.46,365.83c-21.84-16.77-43.8-33.39-65.96-49.75-5.36-3.96-7.26-7.23-4.92-14.3,8.27-25.01,15.65-50.33,23.17-75.59,2.42-8.13,5.19-16.23,3.6-25.07-3.9-21.76-19.17-34.61-43.82-35.28-27.15-.73-54.31-.85-81.47-.78-7.17,.02-10.8-1.77-13.2-9.3-8.37-26.21-17.77-52.08-26.79-78.08-10.91-31.47-39.16-40.53-66.63-21.35-21.94,15.32-44.05,30.4-65.66,46.18-6.68,4.88-11.19,5.42-18.2,.25-21.84-16.11-44.27-31.42-66.6-46.86-26.9-18.6-55.2-9.37-65.91,21.37-9.06,25.98-18.53,51.84-26.76,78.08-2.57,8.19-6.57,9.76-14.08,9.73-25.6-.1-51.25,1.39-76.81,.4-32.65-1.27-57.59,24.72-44.22,61.48,8.86,24.37,14.93,49.74,23.1,74.38,2.48,7.47,.49,10.97-5.29,15.2-21.89,16.06-43.49,32.52-65.04,49.03-26.58,20.36-26.57,49.78-.03,70.02,21.28,16.23,42.54,32.49,64.12,48.3,6.38,4.67,8.9,8.5,5.99,17.03-8.5,24.93-15.74,50.29-23.29,75.54-10.33,34.56,7.41,58.52,43.46,58.84,26.38,.23,52.77,.53,79.15,.45,6.77-.02,10.25,2,12.5,8.94,8.5,26.17,17.81,52.07,26.81,78.07,11.05,31.92,39.46,41.12,67.39,21.72,21.66-15.04,43.44-29.92,64.7-45.51,6.98-5.12,11.8-5.76,19.13-.35,21.83,16.12,44.35,31.3,66.54,46.94,7.79,5.5,16.17,9.03,25.83,9.07,18.05,0,32.73-10.73,39.2-29.16,9.37-26.7,18.86-53.36,27.5-80.3,2.4-7.5,6.13-9.47,13.31-9.43,25.99,.12,51.99-.15,77.99-.41,36.86-.37,54.43-24.28,43.78-59.51-7.62-25.23-15.01-50.54-23.19-75.58-2.32-7.09-1.34-10.88,4.79-15.34,22.26-16.2,44.16-32.91,65.97-49.72,25.9-19.96,25.82-49.4-.16-69.36Zm-23.61,43.29c-25.34,19.22-50.61,38.55-76.21,57.42-10.05,7.41-13.45,15.43-9.32,27.95,9.71,29.44,18.31,59.25,27.23,88.95,4.77,15.87,4.18,16.56-12.02,16.74-29.88,.32-59.76,.45-89.63,1.02-18.69,.36-21.8,2.85-27.79,20.22-9.98,28.95-19.85,57.93-29.8,86.89-4.47,13.02-6.21,13.61-17.54,5.7-24.81-17.31-49.59-34.66-74.36-52.01-16.38-11.48-19.29-11.48-36.1,.28-24.15,16.89-48.29,33.81-72.47,50.67-13.4,9.35-14.47,8.91-19.61-6.11-10.03-29.34-20.6-58.5-30.09-88.02-3.99-12.4-11.59-17.47-23.95-17.57-31.43-.26-62.86-.69-94.28-1.09-13.97-.18-14.93-1.37-10.91-14.83,9.22-30.83,18.59-61.6,27.89-92.41,.89-2.95,1.65-5.94,2.21-7.98-.68-8.7-5.35-13.56-11.16-17.92-25.13-18.85-50.17-37.84-75.22-56.8-12.41-9.39-12.41-9.96,.41-19.66,23.81-18.03,47.64-36.03,71.5-54.01,15.7-11.83,16.62-14.2,10.88-33.34-8.91-29.7-17.67-59.46-27.18-88.97-3.32-10.31-.09-13.4,9.81-13.45,31.43-.17,62.86-.57,94.29-1.04,16.87-.25,20.54-3.01,26.11-19.12,10.13-29.31,20.15-58.65,30.26-87.96,4.51-13.07,5.97-13.6,17.39-5.66,25.78,17.94,51.47,36.02,77.22,54.01,11.87,8.29,18.47,8.27,30.56-.18,25.11-17.55,50.18-35.17,75.28-52.73,13.37-9.35,14.33-8.96,19.45,6.01,9.9,28.97,19.89,57.92,29.92,86.85,5.47,15.78,9.22,18.53,26.35,18.78,30.65,.45,61.31,.64,91.96,1.09,14.18,.21,15.11,1.46,11.12,14.83-9.1,30.46-17.84,61.04-27.78,91.22-4.18,12.69-.32,20.53,9.59,27.86,25.57,18.92,50.86,38.21,76.18,57.45,10.04,7.63,10,9.18-.18,16.89ZM399.49,195.23c-113.22,.45-204.68,92.55-204.36,205.79,.32,114.1,92.23,205.17,206.42,204.53,113.84-.64,204.69-91.97,204.34-205.43-.35-113.92-92.45-205.35-206.4-204.89Zm1.19,375.24c-94.59,.08-170.25-75.32-170.35-169.76-.09-94.14,75.94-170.33,170.01-170.38,94.16-.05,170.02,75.67,170.36,170.05,.33,94.17-75.47,170.01-170.02,170.09Zm-27.04-97.91c-7.1,.51-11.93-3.3-16.41-7.77-15.63-15.62-31.36-31.15-46.82-46.95-10.26-10.49-10.64-21.86-1.57-30.76,8.2-8.04,20.34-7.46,30.02,1.82,8.67,8.31,17.78,16.34,25.34,25.6,7.52,9.22,12.03,7.4,19.49-.38,24.15-25.17,49.17-49.5,73.85-74.16,1.65-1.64,3.24-3.35,4.97-4.9,9.94-8.86,21.76-9.01,30.07-.44,8.22,8.48,8.57,19.86-.62,29.18-34.03,34.49-68.43,68.62-102.76,102.81-4.28,4.26-9.51,6.65-15.56,5.93Z"/>
</svg>