<?xml version="1.0" encoding="UTF-8"?>
<svg id="Layer_1" data-name="Layer 1" xmlns="http://www.w3.org/2000/svg" viewBox="0 0 800 800">
  <defs>
    <style>
      .cls-1 {
        fill: #020202;
      }

      .cls-2 {
        fill: none;
      }
    </style>
  </defs>
  <rect class="cls-2" width="800" height="800"/>
  <path class="cls-1" d="M398.3,778.55c-44.48,0-88.96-.01-133.43,0-21.28,0-39.01-7.55-52.84-24.05-4.43-5.28-5.11-8.25,1.97-12.38,8.8-5.13,15.43-9.05,23.63,1.46,5.32,6.81,14.28,9.13,23.42,9.12,92.89-.08,185.78,.07,278.67-.14,19.98-.05,34.93-15.22,36.4-36.1,.61-8.62-.43-17.37,.43-25.95,1.01-10.09-1.83-13.38-12.7-13.29-66.91,.56-133.82,.28-200.74,.28-12.15,0-19.01-11.32-13.42-22.28,2.38-4.68,6.93-2.81,10.53-2.82,47.23-.13,94.47-.08,141.7-.09,21.25,0,42.52-.31,63.76,.16,7.99,.17,11.39-1.87,10.87-10.46-.67-10.98,.15-22.05-.25-33.05-.35-9.39,6.28-7.71,11.23-7.08,5.11,.65,14-4.7,13.98,6.61-.07,38.18,.9,76.41-.88,114.51-1.5,31.99-30.12,55.19-65.35,55.45-45.66,.33-91.32,.08-136.97,.08Zm1.93-76.32c-9.5,.31-14.27,1.32-13.23,12.6,.79,8.52,.03,14.75,12.1,14.14,10.04-.51,16.33-1.61,13.18-13.3,2.4-10.48-1.36-13.79-12.05-13.44ZM575.32,44.08c-6.78,7.44-12.22,15.36-23.49,6.37-4.79-3.82-11.38-2.54-17.22-2.55-89.76-.07-179.52-.14-269.28,0-26.23,.04-41.57,15.5-41.95,40.47-.12,7.85,2.27,9.87,10.02,9.83,59.84-.32,119.68,.04,179.52-.39,9.59-.07,12.7,2.19,12.57,12.2-.13,9.83-1.87,13.56-12.88,13.44-58.26-.6-116.53,.16-174.79-.63-12.58-.17-15.29,3.7-14.51,15.19,.99,14.5,.46,29.12,.14,43.68-.15,6.9,1.71,8.76,8.93,7.34,16.18-3.19,16.27-2.75,16.27-19.39,0-1.97,0-3.94,0-5.91,0-15.05,7.24-20.22,21.59-15.81,4.23,1.3,3.95,4.27,3.97,7.38,.04,7.87,.28,15.76-.06,23.62-.26,5.95,2.03,8.3,7.99,8.93,66.59,6.95,131.55,61.43,141.51,141.71,.79,6.34,3.48,7.73,9.12,7.47,7.86-.36,15.75,.1,23.61-.15,5.12-.16,6.58,2.01,6.97,6.96,1.46,18.56,1.31,18.95-16.19,18.95q-21.25,0-25.81,21.02c-14.93,68.95-68.69,118.79-138.66,128.15-6.33,.85-9.06,2.81-8.59,9.48,.52,7.44-.14,14.96,.17,22.43,.51,12.26-8.65,7.15-14.15,7.78-5.64,.64-12.01,1.89-11.67-8.01,.34-9.73,4.2-22.17-1.61-28.55-5.1-5.6-17.66-3.91-26.58-6.59-64.78-19.47-105.45-61.7-119.48-128.38-3.63-17.23-3.08-17.34-20.88-17.34-1.57,0-3.15,0-4.72,0-14.78,0-19.92-7.45-15.49-21.85,1.3-4.24,4.22-3.92,7.34-3.99,9.81-.22,21.86,2.96,28.82-1.61,7.23-4.74,4.61-18.12,7.26-27.55,13.47-47.78,42.34-82.88,86.55-105.07,6.75-3.39,8.93-7.02,8.85-14.26-.35-32.67-.31-65.36-.11-98.03,.26-42.62,25.94-67.99,68.69-68.06,44.49-.07,88.97-.02,133.46-.01,45.27,0,90.55,.08,135.82-.05,13.35-.04,25.57,3.2,36.91,10.31,5.27,3.31,7.14,5.84,2.02,11.47Zm-250.35,413.7c-.7-6.24-1.04-12.56-2.18-18.72-4.86-26.27-25.88-46.69-51.36-50.2-28.01-3.86-53.27,8.96-65.9,33.41-8.16,15.78-11.09,34.17-5.08,49.12,4.54,11.29,22.58,11.72,35.62,14.31,.39,.08,.81,.04,1.16,.19,9.73,4.17,12.98,.16,11.4-9.29-1.85-11.04,2.78-13.8,13.46-13.67,9.79,.12,13.85,2.75,12.16,12.55-1.89,11.01,2.23,14.04,12.72,10.32,7.36-2.61,15.1-4.16,22.7-6.06,11.53-2.88,18.12-9.02,15.3-21.95Zm-63.22-95.25c20.42-.22,37.03-17.42,36.91-38.24-.12-21.1-16.47-37.17-37.67-37-20.77,.16-37.56,17.16-37.28,37.75,.27,20.24,18,37.71,38.04,37.49Zm-136.82-36.48c-1.3,9.29,1.24,11.86,10.22,11.12,4.12-.34,10.8-3.13,12.44,2.79,1.83,6.63,2.62,14.52-.57,20.78-2.27,4.46-8.65,1.91-13.13,1.89-6.2-.03-10.61-.1-9.12,8.6,5.64,32.99,20.62,60.51,47.8,84.75,1.28-36.08,14.45-62.88,43.35-80.7,5.53-3.41,1.82-5.51-.43-7.97-8.72-9.55-14.51-20.58-16.26-33.43-4.12-30.1,11.6-57.36,39.1-68.25,26.44-10.47,56.81-1.76,73.73,21.14,17.89,24.21,16.64,55.52-3.95,79.34-4.66,5.39-4.46,7.21,1.43,10.98,18.99,12.16,31.18,29.44,37.18,51.33,2.26,8.26,2.42,16.76,3.49,27.42,25.98-22.73,40.55-49.04,47.24-80.4,2.27-10.61,.12-14.19-10.88-12.95-3.77,.42-9.69,3.4-11.77-3.78-4.2-14.47,.59-21.84,15.33-21.61,7.78,.12,9.02-2.14,7.89-9.53-8.56-55.6-53.79-102.82-109.36-113.54-14.23-2.75-14.07-2.74-14.51,11.63-.12,3.84,2.37,8.89-3.77,11.01-13.25,4.58-22.14-.85-21.47-14.41,.46-9.33-3.26-9.77-10.87-8.78-54.26,7.11-105.5,58.21-113.09,112.56Zm642.43,15.79c-24.46,26.66-47.99,54.17-71.93,81.31-33.3,37.76-66.56,75.56-99.97,113.22-4.04,4.55-6.44,9.22-7.54,15.4-8.1,45.89-43.31,75.21-90.1,75.42-26.75,.12-53.51-.05-80.26,.07-7.6,.04-14.46-1.14-16.95-9.48-2.36-7.89,2.5-12.53,8.57-16.26,12.06-7.43,15.88-18.83,15.66-32.24-.27-16.56-.36-33.15,6.04-48.83,13.12-32.12,36.71-51.24,71.29-55.99,4.22-.58,7.33-2.12,10.33-4.78,20.01-17.75,39.98-35.54,60.2-53.06,3.37-2.92,3.96-5.63,3.93-9.95-.33-37.77,.16-75.55-.47-113.31-.19-11.52,6.91-8.77,13.12-9.07,6.92-.33,12.82-1,12.53,9.73-.74,27.52-.25,55.08-.25,82.62v12.22c7.22-2.59,10.81-7.42,15.11-11.17,31.09-27.2,62.05-54.53,93-81.88,13.83-12.23,29.38-14.43,46.03-7.38,25.62,10.85,26.35,47.42,11.67,63.41Zm-210.68,194.95c-14.11-13.13-27.86-26.71-40.87-40.93-6.16-6.74-12.25-7.12-19.91-4.74-26.12,8.11-43.27,29.87-44.81,57.47-.98,17.54,1.77,35.46-7.54,52.64,22.72,0,43.6,.98,64.35-.25,24.96-1.48,47.82-22.27,53.73-46.36,1.72-7,.9-12.4-4.94-17.83Zm195.6-222.59c-.2-6.05-2.93-10.51-8.47-13.06-6.66-3.07-12.31-.71-17.32,3.71-62.83,55.38-125.6,110.83-188.5,166.13-4.58,4.03-5.15,6.71-.43,11.16,10.87,10.25,21.51,20.78,31.68,31.71,5.03,5.41,7.8,5.22,12.72-.39,54.69-62.38,109.66-124.52,164.56-186.71,3.2-3.63,5.68-7.53,5.76-12.56Zm.64-83.81c-.04,15.04-3.92,18.75-19.01,18.77-44.08,.06-88.15,.02-132.23,.02s-88.15,.04-132.23-.02c-15.39-.02-18.85-3.37-18.88-18.68-.09-46.44-.08-92.88,0-139.32,.03-15.07,3.83-18.96,18.79-18.97,88.15-.07,176.31-.07,264.46,0,15.01,.01,19.08,4.02,19.11,18.88,.1,46.44,.11,92.88,0,139.32Zm-25.33-16.67c-.5-35.41-.38-70.83-.06-106.25,.07-7.04-1.58-9.47-9.09-9.44-77.91,.27-155.82,.26-233.74,.01-7.31-.02-9.29,2.14-9.22,9.32,.34,35.02,.56,70.05-.1,105.06-.19,9.95,3.43,11.49,12.16,11.39,37.77-.42,75.55-.18,113.32-.18,38.56,0,77.13-.17,115.69,.14,7.62,.06,11.16-1.15,11.03-10.06Zm-402.88,483.49c-.08,14.09-4.16,17.95-18.63,17.98-44.45,.09-88.91,.03-133.36,.03-43.67,0-87.33,.04-131-.02-16.83-.02-19.75-3.06-19.78-20.15-.04-28.72-.05-57.44,0-86.16,.03-16.32,3.1-19.46,19.12-19.47,48.78-.04,97.56-.25,146.34,.19,8.85,.08,11.61-2.23,11.18-11.15-.74-14.91,.17-29.9-.33-44.84-.35-10.32,6.81-7.8,12.03-7.49,5.23,.31,13.59-4.08,13.34,7.34-.32,14.94,.39,29.92-.25,44.84-.37,8.56,1.76,11.58,10.97,11.32,24.37-.7,48.77-.32,73.16-.2,12.85,.06,17.09,4.05,17.18,16.89,.21,30.29,.19,60.59,.02,90.88Zm-25.73-16.93c-.53-18.86-.39-37.74-.05-56.61,.12-6.33-1.25-8.93-8.32-8.91-78.24,.23-156.47,.25-234.71-.02-7.66-.03-9.1,2.68-8.94,9.57,.43,18.47,.58,36.97-.05,55.43-.29,8.6,2.88,10.39,10.8,10.32,38.53-.36,77.06-.16,115.58-.16s77.06-.18,115.58,.16c7.53,.07,10.31-1.83,10.08-9.76ZM173.17,180.16c-.06,15.2-3.37,18.38-19.11,18.51-18.86,.16-37.73,.04-56.59,.04-18.86,0-37.73,.14-56.59-.04-15.56-.15-18.88-3.49-18.93-18.7-.08-29.87-.1-59.74,0-89.61,.05-13.73,4.45-18.11,18.52-18.15,38.12-.12,76.24-.13,114.36,0,14.06,.05,18.28,4.32,18.33,18.34,.12,29.87,.12,59.74,0,89.61Zm-24.98-73.67c.15-6.98-2.43-8.62-8.88-8.42-13.75,.42-27.52,.13-41.29,.13-14.55,0-29.1,.21-43.65-.1-5.65-.12-7.46,1.77-7.38,7.4,.27,20.05,.29,40.11,0,60.17-.09,6.22,2.11,8.07,8.2,8.02,28.31-.26,56.63-.28,84.94,.01,6.37,.07,8.07-2.29,8-8.22-.25-19.66-.37-39.33,.06-58.98Zm544.34,92.59c11.62,.33,10.46-5.99,10.34-13.29-.11-6.59,1.62-12.65-9.51-12.55-61.01,.58-122.03,.56-183.04,0-10.69-.1-9.93,5.36-9.8,12.32,.13,7.07-1.68,13.82,10.16,13.49,30.29-.84,60.61-.28,90.92-.28,30.31,0,60.64-.57,90.92,.29Zm2.1-50.72c9.93,.35,8.59-5.88,8.02-11.5-.57-5.57,4.28-14.23-7.85-14.14-36.55,.27-73.11,.41-109.65-.09-11.66-.16-8.53,7.4-8.71,13.45-.17,5.97-2.13,12.71,8.55,12.29,18.05-.72,36.15-.2,54.23-.2,18.47,0,36.96-.46,55.41,.19Zm-151.52-.07c9.87,.97,8.6-5.79,8-11.4-.59-5.54,4.3-14.49-7.74-14.15-9.78,.27-19.63,.75-29.33-.14-10.67-.98-14.17,2.38-13.83,13.44,.29,9.53,2.49,13.67,12.4,12.25,4.22-.6,8.59-.1,12.9-.1,5.87,0,11.79-.47,17.6,.1ZM169.98,638.97c-10.95-.67-10.02,5.72-9.58,12.47,.41,6.25-3.4,14.34,9.19,14.06,31.84-.71,63.72-.63,95.56,0,10.18,.2,9.75-5.44,8.99-11.88-.7-5.9,4.36-15.07-8.62-14.56-16.1,.64-32.24,.15-48.37,.15-15.73,0-31.51,.72-47.18-.25Zm-88.57,.1c-7.61-.63-9.77,2.54-8.96,9.45,.36,3.09,.29,6.28,.02,9.39-.49,5.57,1.7,7.57,7.39,7.46,16.06-.3,32.12-.08,48.18-.13,3.41,0,6.71,.63,7.81-4.59,3.53-16.72,.03-21.44-16.84-21.44-4.7,0-9.4,0-14.1,0-7.83,0-15.71,.5-23.49-.14ZM113.84,148.3c11.49,1.3,8.93-6.7,9.11-12.99,.19-6.73,1.44-13.63-9.57-12.69-10.16,.87-20.48,.72-30.67,.02-8.6-.59-10.07,2.96-10.54,10.81-.68,11.4,1.95,17.23,14.54,14.84,3.42-.65,7.06-.1,10.61-.1,5.51,0,11.08-.51,16.52,.11Z"/>
</svg>