<?xml version="1.0" encoding="UTF-8"?>
<svg id="Layer_1" data-name="Layer 1" xmlns="http://www.w3.org/2000/svg" viewBox="0 0 800 800">
  <defs>
    <style>
      .cls-1 {
        fill: #030303;
      }

      .cls-2 {
        fill: none;
      }
    </style>
  </defs>
  <rect class="cls-2" width="800" height="800"/>
  <path class="cls-1" d="M669.7,268.25c4.7-5.47,9.07-11.26,14.17-16.32,7.24-7.19,15.68-8.59,23.2-.87,6.85,7.04,6.1,15.28-.6,22.17-15.15,15.56-30.41,31.03-46.13,46.02-7.48,7.14-16.24,6.55-23.6-.6-15.21-14.77-30.16-29.82-44.98-44.99-7.26-7.43-7.99-16.02-.32-23.3,7.12-6.76,15.46-5.68,22.05,1.23,5.23,5.49,9.36,12.03,13.98,18.1l5.09-3.17c0-28.56,.67-57.15-.35-85.67-.38-10.73-9.95-13.19-19.59-13.17-26.9,.07-53.8-.13-80.69,.09-11.18,.09-22.18-.91-22.27-15.04-.1-14.77,11.15-16.4,22.99-16.31,26.9,.19,53.8-.1,80.69,.1,31.98,.24,50.83,19.05,51.23,51.3,.32,26.11,.06,52.22,.06,78.33,1.69,.7,3.37,1.41,5.06,2.11ZM136.32,535.23c0,5.03,0,10.06,0,15.08,.01,22.22-.39,44.45,.16,66.65,.62,25.04,16.21,45.48,38.86,46.69,34.01,1.83,68.17,.85,102.27,.61,8.38-.06,13.26-5.73,13.86-13.95,.6-8.23-3.78-13.94-11.64-16.14-3.88-1.09-8.19-.81-12.31-.82-26.87-.06-53.74-.13-80.61,0-10.02,.05-18.32-3.16-18.58-14.08-.67-28.1-.22-56.22-.22-84.33,1.33-.77,2.65-1.53,3.98-2.3,4.93,5.7,9.54,11.73,14.87,17.03,7.25,7.22,15.81,8.54,23.25,.87,7.5-7.73,5.46-16.12-1.64-23.31-14.52-14.7-29.14-29.31-43.84-43.84-7.28-7.19-15.87-8.7-23.47-1.53-16.14,15.25-31.81,31.03-47.17,47.07-6.59,6.88-6.89,15.37,.26,22.13,7.12,6.73,15.37,5.86,22.17-.83,5.44-5.35,9.95-11.66,14.87-17.55,1.65,.84,3.3,1.68,4.95,2.53Zm594.51,112.49c-7.99,14.48-16.16,28.88-24.87,42.94-9.58,15.47-22.19,20.09-39.79,15.65-9.99-2.52-19.92-5.38-30-7.5-16.14-3.39-27,3.38-31.56,18.99-3.04,10.42-6.14,20.82-9.34,31.2-4.85,15.75-15.65,23.94-32.07,24.17-17.59,.25-35.18,.31-52.77-.03-15.74-.3-26.3-8.3-31.11-23.32-3.46-10.82-6.47-21.79-9.61-32.72-4-13.89-14.77-21.13-29.13-18.47-11.13,2.06-22.05,5.21-33.06,7.93-16.65,4.11-29.64-.53-38.71-15.13-9.27-14.92-18.01-30.19-26.35-45.66-7.75-14.38-5.53-27.98,5.57-39.96,7.03-7.59,14.3-14.95,21.42-22.46,12.3-12.97,12.53-26.14-.27-38.96-41.02-41.08-38.98-42.74-10.39-90.78,3.96-6.66,7.29-13.82,12.04-19.86,8.9-11.32,20.13-17.22,35.26-12.86,10.89,3.14,22.03,5.44,33.12,7.86,14.95,3.26,26.36-3.56,30.5-17.9,3.01-10.43,5.75-20.94,9.18-31.23,5.88-17.62,15.9-25.08,34.48-25.5,16.03-.36,32.08-.41,48.11,.02,18.25,.49,28.37,8.42,34.06,25.98,3.18,9.83,6.07,19.76,8.96,29.69,4.55,15.57,15.31,22.29,31.14,18.89,11.09-2.38,22.22-4.75,33.07-8,12.48-3.74,23.71-.18,30.98,8.78,14.34,17.65,24.51,38.18,34.64,58.53,1.53,3.08,1.25,7.07,1.42,8.15,.28,11.22-2.58,18.77-8.56,25.09-6.76,7.13-13.55,14.24-20.34,21.35-15.16,15.88-15.27,26.69-.44,42.21,6.44,6.73,13.03,13.32,19.23,20.26,11.88,13.3,13.67,27.28,5.17,42.67Zm-53.41-47.87c-18.38-19.41-18.26-52.46,.27-72.05,27.8-29.39,27.3-29.12,7.78-64.27-6.04-10.87-12.13-12.09-23.28-9.15-20.92,5.52-40.7,13.17-63.57-1.1-18.88-11.78-23.68-28.02-27.03-45.77-3.47-18.4-11.92-25.99-30.23-22.35-.5,.1-1.03,.01-1.55,.01-30.6,0-30.31,.08-38.64,29.11-2.81,9.8-2.6,22.09-11.07,28.42-18.19,13.59-36.68,25.23-62.4,16.41-30.17-10.35-30.71-8.75-46.57,18.61-12.1,20.87-11.91,20.69,5.2,39.18,12.01,12.97,29.37,23.53,22.07,46,7.68,23.78-9.32,36.73-23.87,49.33-14.17,12.27-14.19,22.22-4.19,37.47,17.82,27.21,16.8,27.89,48.16,19.32,34.34-9.38,60.9,5.08,71.2,38.83,1.36,4.45,2.96,8.92,3.53,13.49,2.08,16.8,10.82,24.18,27.84,20.69,.99-.2,2.06-.03,3.1-.03,31.03,0,30.73-.09,39.53-29.93,2.86-9.7,2.61-21.64,11.71-28.02,18.59-13.02,37.46-26.65,62.35-14.68,5,2.4,11.3,2,16.48,4.15,9.93,4.11,15.16,1.52,20.61-8.14,20.33-36.04,20.77-35.79-7.42-65.56Zm-218.85-280.42c-8.3,15.48-17.12,30.72-26.35,45.66-9,14.56-21.98,19.2-38.6,15.11-11.01-2.71-21.98-5.72-33.11-7.77-14.47-2.66-25.18,4.41-29.2,18.28-3.16,10.92-6.18,21.88-9.61,32.72-4.99,15.78-16.22,23.42-32.54,23.59-17.07,.17-34.15,.28-51.22-.04-16.31-.3-27.31-8.29-32.16-24.1-3.33-10.87-6.47-21.8-9.72-32.7-3.92-13.17-14.42-20.32-27.95-17.81-12.14,2.25-24.04,5.75-36.07,8.61-12.09,2.87-23.66,.24-31.09-9.15-14.11-17.84-24.57-38.15-34.46-58.63-1.5-3.1-1.16-7.08-1.26-7.8-.25-11.63,2.95-19.04,8.92-25.32,7.84-8.24,15.79-16.4,23.55-24.72,10.15-10.88,10.08-24.5-.19-35.51-7.41-7.94-15.18-15.55-22.46-23.61-11.32-12.53-13.3-26.84-5.36-41.34,8.2-14.96,16.66-29.8,25.65-44.29,9.55-15.39,21.93-19.71,39.7-15.27,10.51,2.63,21.05,5.15,31.65,7.33,14.22,2.93,25.36-3.83,29.39-17.4,3.09-10.41,6.01-20.87,9.33-31.2,5.86-18.2,16.17-25.89,35.46-26.23,15.52-.27,31.05-.31,46.56,.01,18.6,.38,28.72,7.82,34.6,25.31,3.29,9.79,6.06,19.76,8.83,29.72,4.61,16.51,15.44,23.23,32.3,19.52,10.07-2.21,20.09-4.7,30.09-7.21,16.79-4.21,29.56,.17,38.61,14.68,9.3,14.91,18.06,30.17,26.43,45.62,7.73,14.27,6.07,27.95-5.06,40.05-7.01,7.61-14.3,14.95-21.41,22.47-12.56,13.28-12.68,26.04-.39,39.02,7.47,7.88,15.22,15.52,22.45,23.62,10.47,11.72,12.04,25.09,4.69,38.79Zm-38.53-29.83c-12.68-12.98-28.98-22.92-29.33-46.42-.34-22.8,8.19-37.75,23.39-52.36,18.44-17.73,17.84-18.35,5.22-40.19-15.32-26.5-15.28-26.35-45.46-18.39-13.88,3.66-26.57,5.85-41.61-1.52-20.64-10.12-28.04-25.84-33.88-46.14-9.01-31.29-.66-25.08-31.62-25.48-30.8-.4-30.46,.01-39.39,30.22-2.98,10.1-2.85,22.12-12.77,29.08-18.94,13.29-38.3,24.8-62.73,13.09-4.99-2.39-11.25-2.02-16.46-4.09-8.91-3.55-13.5-.82-18.32,7.42-21.63,37-21.92,36.83,7.37,67.91,16.8,17.82,16.9,52.21,.19,69.81q-29.52,31.1-7.45,67.77c.53,.89,1.12,1.75,1.53,2.7,2.71,6.22,6.28,7.62,13.41,5.46,14.75-4.47,30.02-7.26,43.56-10.4,15.89,.39,43.58,21.69,47.98,35.77,2.62,8.38,6.15,16.64,7.45,25.24,1.99,13.11,7.88,17.48,21.57,17.11,37.9-1.03,37.91-.33,49.04-35.85,9.62-30.72,36.39-46.01,67.65-38.66,35.67,8.39,35.11,8.05,54.2-23.3,7.2-11.82,6.21-18.77-3.56-28.77Zm211.58,275.67c-.51,52.31-42.76,93.29-95.8,92.91-51.72-.37-93.04-42.11-93.11-94.08-.08-52.85,43.25-95.75,95.83-94.89,52.2,.86,93.59,43.57,93.08,96.05Zm-31.41-.74c.2-34.98-27.21-63.26-62-64-35.11-.74-64.08,27.99-64.06,63.52,.02,35.14,27.63,62.76,62.8,62.84,35.27,.07,63.06-27.33,63.26-62.36ZM358.25,237.57c.16,52.42-41.82,94.44-94.38,94.47-52.53,.03-94.58-41.91-94.54-94.3,.04-52.28,42.31-94.73,94.37-94.77,52.2-.04,94.38,42.17,94.55,94.6Zm-31.43,.31c.07-34.98-27.67-63.24-62.44-63.6-35.23-.37-63.81,28.34-63.63,63.93,.17,34.96,28.06,62.56,63.19,62.51,35.18-.05,62.81-27.66,62.88-62.83Z"/>
</svg>