<?xml version="1.0" encoding="UTF-8"?>
<svg id="Layer_1" data-name="Layer 1" xmlns="http://www.w3.org/2000/svg" viewBox="0 0 800 800">
  <defs>
    <style>
      .cls-1 {
        fill: none;
      }

      .cls-2 {
        fill: #010101;
      }
    </style>
  </defs>
  <rect class="cls-1" width="800" height="800"/>
  <path class="cls-2" d="M720.52,606.82c-61.51-54.77-121.46-111.28-182.27-166.84-5.16-4.71-6.75-7.67-.89-13.01,6.6-6.02,7.96-13.5,1.54-20.76-5.77-6.52-14.06-6.57-21.44,1.41-6.25,6.76-10.2,5.11-15.06-.66-1.67-1.98-3.62-3.84-5.77-5.26-6.31-4.18-5.63-7.61-.38-12.73,22.92-22.39,45.64-45.01,67.95-68.01,5.73-5.9,10.82-7.87,19.25-6.41,88.67,15.31,163.76-47.96,163.75-137.51-.07-12.64,.83-25.33-3.03-37.71-5.97-19.18-16.29-21.95-30.35-7.83-15.78,15.84-31.48,31.77-47.23,47.65-2.85,2.87-5.34,5.74-10.15,6.01-14.47,.81-28.25,.96-37.21-13.64-2.66-4.34-7.14-7.55-10.75-11.33-9.13-9.55-9.09-31.99,.15-41.42,16.44-16.76,33.15-33.27,49.36-50.25,9.39-9.83,6.54-20.95-6.38-24.98-8.47-2.65-17.3-4.43-26.1-5.67-92.26-13.07-173.96,75.05-153.63,165.79,1.59,7.09,.01,11.65-5.09,16.68-29.73,29.3-59.29,58.77-88.46,88.63-6.17,6.32-9.49,6.16-15.63-.07-47.08-47.79-93.98-95.79-142.24-142.38-15.52-14.99-25.94-29.66-21.93-51.96,1.46-8.14-2.48-14.07-9.76-18.38-30.76-18.2-61.46-36.52-91.95-55.18-9.6-5.87-17.22-4.72-24.83,3.23-10.57,11.03-21.29,21.93-32.4,32.42-8.49,8.02-9.12,15.88-3.02,25.76,15.45,25.04,31.71,49.73,44.97,75.92,10.17,20.09,23.41,29.31,45.72,25.41,6.69-1.17,12.55,.32,18.07,5.9,52.91,53.56,106.09,106.86,159.47,159.95,5.44,5.41,4.75,8.21-.24,13.14-30.23,29.86-60.26,59.91-90.06,90.19-4.52,4.59-8.74,5.79-14.8,4.39-17.66-4.08-35.64-4.15-53.25-.73-81.73,15.85-131.28,96.21-109.27,176.5,4.83,17.61,16.25,20.74,29.2,7.82,16.1-16.05,32.15-32.15,47.98-48.45,3.9-4.01,7.98-5.54,13.56-6.24,14.63-1.83,26.05,2.36,34.96,14.25,3.32,4.43,7.85,7.93,11.76,11.93,8.44,8.63,8.42,30.95-.12,39.48-16.88,16.85-34.01,33.46-50.72,50.48-10.28,10.47-7.05,22.13,7.06,26.31,37.9,11.23,74.57,7.84,109.05-11.46,53.52-29.96,80.27-87.83,69.73-148.63-.93-5.35-2.63-10.29,2.55-15.35,24.51-23.97,48.56-48.41,72.85-72.61,1.66-1.65,3.63-5.23,6.33-2.72,5.43,5.06,11.21,10.21,14.95,16.45,3.27,5.46-4.32,7.41-6.77,11.07-4.62,6.9-4.85,13.48,1.09,19.2,5.99,5.76,13.61,5.97,18.93-.12,7.42-8.5,11.41-4.41,17.08,1.8,54.81,59.97,109.75,119.82,164.88,179.5,24.13,26.13,53.72,35.35,88.15,25.27,66.28-19.41,75.38-104.59,30.85-144.24ZM227.17,252.03c-20.51-20.59-41.54-40.69-61.31-61.96-9.98-10.73-20.62-16.87-35.2-14.23-12.9,2.34-20.07-3.21-26.13-14.44-11.3-20.96-23.99-41.18-36.52-61.44-3.32-5.36-3.75-8.95,1.46-13.21,4.88-3.99,8.97-8.93,13.5-13.36,1.54-1.51,3.33-2.76,5.21-4.3,2.28,1.29,4.22,2.33,6.1,3.46,23.3,13.99,46.47,28.19,69.97,41.83,5.47,3.18,7.36,7.03,6.34,12.65-3.88,21.39,5.97,35.9,20.91,50.44,51.01,49.62,100.64,100.66,151.17,150.78,6.5,6.45,7.94,10.72,0,16.18-1.21,.83-2.3,1.96-3.15,3.15-5.54,7.74-9.88,7.97-17.11,.49-31.32-32.42-63.42-64.09-95.24-96.03Zm57.93,308.42c-7.97,7.94-7.85,15.85-5.18,25.42,15.75,56.53-17.23,117.37-73.31,135.33-14.16,4.54-28.67,6.61-45.72,4.2,13.91-13.9,26.09-26.45,38.72-38.54,6.34-6.07,8.23-12.97,9.39-21.62,3.7-27.59-6.12-47.49-26.61-66.39-16-14.76-30.87-22.72-52.89-21.42-14.9,.88-26.21,4.15-35.97,15.63-9.54,11.23-20.6,21.17-32.7,33.4-2.44-29.42,3.97-54.03,19.51-75.97,28.13-39.71,74.49-56.33,122.09-43.42,10.01,2.71,16.84,1.08,23.93-6.04,89.68-90.03,179.42-179.99,269.45-269.68,8.34-8.31,7.85-16.36,5.11-26.38-19.25-70.35,36.77-141.75,109.58-139.96,2.55,.06,5.09,.5,10.38,1.05-11.94,12.17-21.87,23.43-33.02,33.34-10.6,9.42-13.71,20.14-14.62,34.21-1.43,22.35,5.56,38.48,21.77,53.95,29.46,28.11,28.58,28.94,69.23,26.41,6.5-.41,11.13-3.54,15.45-7.85,12.88-12.86,25.82-25.66,40.21-39.96,2.21,18.57-.37,34.75-6.24,50.47-20.43,54.62-78.54,83.77-136.25,67.89-9.19-2.53-15.55-.98-22.03,5.53-89.98,90.25-179.99,180.46-270.26,270.41Zm150.13-70.96c-1.99,1.97-3.46,4.85-7.79,5.24-4.9-5.36-10.87-10.58-15.12-16.95-3.44-5.15,3.19-7.43,5.86-10.19,14.72-15.23,30.02-29.89,44.69-45.17,5.11-5.32,8.41-6.26,14.27-.62,13.15,12.66,13.48,12.3,.68,25.12-14.18,14.2-28.32,28.45-42.57,42.58Zm281.61,201.93c-9.02,21.7-29.13,35.16-52.3,35.01-16.18-.04-29.75-6.4-40.53-18.08-57.08-61.83-113.91-123.89-171.04-185.67-4.5-4.86-3.7-7.45,.54-11.6,17.56-17.19,34.99-34.53,52.08-52.18,4.56-4.71,7.37-4.14,11.8-.06,61.59,56.79,123.41,113.33,184.93,170.21,17.82,16.48,23.17,41.58,14.53,62.37Zm-427.63-206.68c0-6.8,3.02-10.51,6.51-14.01,56.6-56.63,113.17-113.31,169.83-169.87,8.19-8.18,16.15-8.81,22.45-2.54,6.1,6.08,5.38,14.44-2.69,22.53-56.53,56.72-113.14,113.37-169.8,169.95-4.77,4.76-9.91,9.32-17.67,5.59-5.63-2.71-8.49-6.99-8.63-11.66Zm228.25-202.49c-7.61-.21-14.49-7.36-13.55-14.77,1.02-8.13,6.12-13,14.28-12.79,8.16,.21,13.03,5.35,13.61,13.51,.54,7.45-6.77,14.25-14.34,14.05Zm-255.75,254.56c-7.22-.8-11.88-5.41-12.29-13.63-.38-7.61,6.77-14.45,14.39-13.82,8.23,.68,12.92,5.49,13.26,13.77,.33,7.93-6.27,14-15.36,13.68Zm407.41,123.98c-.31,5.29-2.69,9.71-7.75,12.36-4.66,2.44-9.35,2.26-13.65-.85-2.4-1.73-4.61-3.76-6.71-5.86-39.26-39.11-78.5-78.22-117.68-117.41-2.6-2.6-5.02-5.53-6.83-8.7-3.2-5.62-1.55-10.98,2.7-15.26,4.27-4.3,9.71-5.83,15.31-2.85,3.21,1.7,6.08,4.25,8.69,6.84,39.26,39.1,78.42,78.28,117.67,117.39,4.02,4,7.93,7.92,8.26,14.34Z"/>
</svg>