<?xml version="1.0" encoding="UTF-8"?>
<svg id="Layer_1" data-name="Layer 1" xmlns="http://www.w3.org/2000/svg" viewBox="0 0 800 800">
  <defs>
    <style>
      .cls-1 {
        fill: none;
      }

      .cls-2 {
        fill: #010101;
      }
    </style>
  </defs>
  <rect class="cls-1" width="800" height="800"/>
  <path class="cls-2" d="M172.31,611.31c-2.2,21.88-9.99,29.01-30.37,29.06-24.83,.06-49.65,.12-74.48-.02-18.92-.11-27.83-9.13-27.89-28.08-.08-24.82,.08-49.65-.07-74.47-.05-9.06,.64-17.85,12.4-17.66,10.9,.18,11.79,8.5,11.73,17.16-.15,23.22,.23,46.45-.22,69.66-.14,7.27,1.63,9.58,9.24,9.39,22.01-.56,44.05-.57,66.06,0,7.76,.2,9.15-2.4,9.12-9.49-.24-74.07-.23-148.14-.01-222.21,.02-6.7-1.71-8.85-8.6-8.72-22.41,.42-44.85,.44-67.26,0-7.03-.14-8.58,2.24-8.51,8.81,.31,31.23,.01,62.46,.22,93.69,.06,8.93-1.64,17.04-12.01,17.11-10.36,.07-12.23-7.94-12.18-16.93,.2-33.23,0-66.46,.11-99.69,.06-17.85,9.37-26.95,27.63-27.03,25.63-.12,51.25-.12,76.88,0,18.2,.09,27.45,8.81,27.38,27.07-.03,7.69,2.36,9.24,9.52,9.1,23.21-.45,46.45-.05,69.67-.23,8.88-.07,16.92,1.57,16.85,12.2-.07,10.52-8.07,12.22-16.95,12.15-23.62-.18-47.25,.15-70.87-.2-6.23-.09-8.16,1.55-8.13,7.97,.25,52.45,.37,104.9-.1,157.35-.07,7.81,4.68,9.31,9.53,11.49,27.28,12.26,54.51,24.63,82.04,36.32,8.35,3.55,15.23,8.45,21.56,14.68,30.22,29.78,60.55,59.45,90.85,89.16,6.99,6.85,14.91,9.5,23.85,4.25,8.05-4.74,9.49-12.45,7.64-20.93-1.07-4.89-4.83-8.14-8.23-11.55-18.35-18.44-36.63-36.96-55.02-55.36-6.35-6.35-10.03-13.34-2.46-20.62,7.34-7.06,13.69-2.51,19.56,3.43,24.47,24.77,49.04,49.45,73.63,74.11,10.45,10.48,20.07,11.84,28.22,4.23,8.68-8.12,7.97-18.68-2.39-29.25-20.44-20.86-40.98-41.63-61.61-62.31-6.24-6.25-10.66-13.08-3.27-20.62,7.68-7.83,14.4-2.68,20.47,3.48,24.72,25.1,49.44,50.2,74.27,75.19,6.19,6.22,13.03,10.52,22.43,5.88,8.51-4.21,10.85-11.06,9.98-19.82-.56-5.7-4.52-9.19-8.13-12.86-19.36-19.7-38.78-39.34-58.18-59-11.52-11.68-13.59-18.31-6.37-23.79,10.95-8.3,17.35,.71,24.07,7.48,23.69,23.86,47.22,47.88,71.12,71.53,12.1,11.98,27.18,8.47,31.91-6.8,2.05-6.62-1.01-11.73-4.63-16.54-5.18-6.88-5.72-13.61,1.57-18.72,7.47-5.24,13.7-1.31,18.48,5.05,10.49,13.95,12.89,29.09,4.9,44.88-7.63,15.08-20.01,24.06-37.3,23.53-9.12-.28-14.54,.95-18.95,10.61-7.03,15.42-25.35,23.15-42.48,20.24-4.26-.72-6.31-1.62-8.66,3.54-10.85,23.81-28.39,32.05-53.53,24.74-5.61-1.63-6.45,.09-8.67,3.91-16.24,27.9-45.93,31.89-69.27,9.21-29.86-29-59.45-58.28-89.26-87.32-3.38-3.29-6.32-7.09-10.96-9.14-28.44-12.56-56.79-25.31-85.86-38.31Zm479.79-226.19c-.08-7.53,2.03-9.39,9.37-9.22,21.61,.51,43.25,.65,64.84-.05,8.84-.29,10.32,2.75,10.26,10.78-.37,47.23-.12,94.47-.24,141.71-.02,8.9,3.16,15.59,12.63,15.27,8.72-.3,11.54-6.89,11.51-15.22-.13-50.44,.05-100.88-.13-151.31-.05-15.08-9.62-24.94-24.6-25.13-27.62-.35-55.25-.33-82.87,0-14.46,.17-24.76,9.85-24.3,23.98,.32,10.08-2.46,13.5-12.49,12.25-7.1-.88-14.43-.65-21.59-.07-15.97,1.29-30.3-2.48-44.79-9.61-30.4-14.95-61.46-28.59-92.47-42.27-39.88-17.59-85.72-8.44-115.5,23.61-30.77,33.12-60.85,66.9-91.07,100.53-9.83,10.94-9.18,16.5,1.95,25.8,30.82,25.75,75.42,24.81,105.19-2.53,9.72-8.92,18.71-18.63,28.15-27.86,2.15-2.1,3.98-6.34,7.52-4.77,10,4.44,21.4,5.03,29.85,13.93,34.99,36.86,70.56,73.16,105.95,109.64,2.77,2.85,5.65,5.66,8.78,8.09,4.83,3.76,9.86,3.13,14.11-.91,4.11-3.9,5.7-8.9,2.64-14.09-2-3.39-4.75-6.41-7.51-9.26-35.89-37.11-72.08-73.93-107.66-111.33-14-14.71-33.24-16.11-50.6-22.3-4.77-1.7-8.87,2.53-12.33,6.04-10.94,11.12-21.6,22.56-33.01,33.19-17.54,16.34-37.79,21.51-60.79,12.65-6.58-2.54-10.27-4.83-3.5-12.14,26.63-28.78,52.4-58.36,79.14-87.04,24.22-25.98,59.77-32.38,92.42-17.65,22.17,10,44.91,19.03,66.2,30.67,31.38,17.16,63.99,26.2,99.72,21.67,9.88-1.25,11.62,2.79,11.57,11.83-.38,62.85-.24,125.69-.18,188.54,.02,16.57,8.57,27.32,23.36,27.6,28.41,.54,56.85,.48,85.26,.02,13.57-.22,22.95-10.22,23.41-23.89,.39-11.6,.12-23.22,.07-34.82-.03-7.94-3.54-13.3-11.94-13.34-8.39-.04-11.99,5.24-12.05,13.21-.06,8.81-.47,17.64,.12,26.41,.48,7.03-2.1,8.69-8.79,8.56-21.61-.4-43.26-.75-64.84,.12-9.69,.39-10.9-3.14-10.8-11.53,.44-36.02,.19-72.05,.19-108.08,0-37.23,.22-74.46-.19-111.68ZM215.96,39.33c-17.86,0-20.21,2.29-20.22,19.69,0,94.88,0,189.76,0,284.64,0,3.6-.41,7.34,.42,10.76,1.46,6.03,5.58,9.67,12.08,9.45,5.92-.2,9.71-3.76,11.03-9.27,.82-3.43,.47-7.16,.48-10.75,.02-89.68,.18-179.35-.23-269.03-.04-9.61,2.67-11.61,11.81-11.56,62.45,.41,124.91,.17,187.37,.27,8.89,.01,16.85-1.73,17.03-12.2,.18-10.8-7.96-12.11-16.79-12.07-34.43,.15-68.86,.06-103.29,.06-33.23,0-66.46,0-99.69,0Zm388.3,34.39c.13-37.06,2.09-34.53-34.39-34.42-32.03,.1-64.05,.05-96.08,.02-8.01,0-13.48,3.41-13.52,11.74-.04,8.19,5.33,12.01,13.22,12.38,2.8,.13,5.6,.04,8.41,.04,29.22,0,58.46,.47,87.67-.27,9.47-.24,10.85,2.84,10.82,11.35-.31,90.47-.16,180.94-.25,271.41,0,9.15,1.01,17.93,12.48,17.69,10.62-.22,11.69-8.63,11.67-17.33-.12-48.04-.06-96.08-.06-144.11,0-42.83-.12-85.67,.04-128.5Zm-212.02,37.62c-8.5-.07-15.96,1.69-16.02,11.64-.06,10.44,7.57,12.66,16.59,12.64,44.82-.11,89.63-.11,134.45,0,9,.02,16.74-2.17,16.61-12.6-.13-10.81-8.49-11.75-17.18-11.68-22.01,.19-44.01,.06-66.02,.06-22.81,0-45.62,.12-68.42-.06Zm.31,84.09c-8.4-.07-16.05,1.39-16.33,11.33-.3,10.39,7.15,12.96,16.27,12.94,45.22-.1,90.43-.09,135.65,0,8.66,.02,15.64-2.64,15.75-12.28,.11-9.91-7.07-12.05-15.68-11.98-22.81,.18-45.62,.06-68.42,.06-22.41,0-44.82,.13-67.22-.07Zm.86,84.1c-8.67-.07-17.05,.82-17.19,11.66-.13,10.43,7.59,12.64,16.6,12.62,44.82-.11,89.63-.11,134.45,0,9.01,.02,16.74-2.19,16.59-12.62-.15-10.81-8.52-11.73-17.2-11.65-22.01,.19-44.01,.06-66.02,.06s-44.82,.12-67.22-.06Zm-47.46-190.58c-5.76-3.03-10.98-1.77-15.38,2.44-7.8,7.46-15.32,15.21-22.96,22.83-14.61,14.59-14.68,14.67-29.7,1.64-5.95-5.16-12.25-6.71-18.15-1.09-6.02,5.73-4.77,12.26,.76,17.93,6.7,6.87,13.74,13.42,20.3,20.42,7.61,8.12,14.7,8.1,22.48,.15,14.26-14.57,28.78-28.89,43.23-43.27,2.89-2.88,5.36-5.9,5.46-10.24,.14-4.81-1.64-8.5-6.03-10.81Zm-.6,83.75c-5.34-2.53-10.38-1.4-14.42,2.43-7.84,7.41-15.3,15.22-22.95,22.84-4.81,4.79-9.03,12.28-14.68,13.61-7.14,1.68-10.47-7.92-15.84-12.16-6.17-4.86-12.53-6.02-18.2-.09-5.3,5.54-4.2,11.78,.92,17.09,6.93,7.2,14.22,14.07,21.14,21.28,7.32,7.62,14.24,7.47,21.6,0,14.6-14.79,29.39-29.4,44.1-44.09,2.89-2.89,5.17-6.08,4.97-10.46,0-4.88-2.26-8.37-6.64-10.44Zm-44.67,151.03c16-15.67,31.89-31.45,47.52-47.48,5.11-5.24,5.66-11.81,.37-17.19-5.28-5.36-11.91-4.87-17.28-.04-7.72,6.94-14.82,14.57-22.19,21.9-5.11,5.07-9.46,12.7-15.55,14.53-8.11,2.45-10.88-8.33-16.73-12.44-5.96-4.2-12.02-5.27-17.38,.05-5.4,5.36-4.82,11.72,.28,17.1,7.7,8.13,15.72,15.96,23.74,23.77,2.31,2.25,5.3,3.54,9.91,3.71,1.82-.94,5.16-1.82,7.31-3.92Z"/>
</svg>