<?xml version="1.0" encoding="UTF-8"?>
<svg id="Layer_1" data-name="Layer 1" xmlns="http://www.w3.org/2000/svg" viewBox="0 0 800 800">
  <defs>
    <style>
      .cls-1 {
        fill: #020202;
      }

      .cls-2 {
        fill: none;
      }
    </style>
  </defs>
  <rect class="cls-2" width="800" height="800"/>
  <path class="cls-1" d="M761.51,521.38c-11.53-68.6-77.21-129.1-148.65-135.58-12.36-1.12-12.76-6.61-12.74-16.09,.23-102.15,.09-204.3,.27-306.45,.01-7.5-.95-14.66-2.92-21.79H43.9c-3.13,8-2.89,16.37-2.89,24.75,.03,222.24,.02,444.48,.03,666.73,0,24.3,3.23,27.56,27.41,27.56,167.55,0,335.1,0,502.65,0,27,0,28.5-1.12,28.95-28.47,.14-8.29,2.47-11.34,10.91-11.57,19.2-.53,37.02-6.9,54.27-14.88,70.5-32.64,109.29-106.89,96.29-184.22Zm-191.97,204.46c-1.09,9.54-10.59,4.86-16.12,4.87-155.58,.27-311.17,.08-466.75,.48-12.15,.03-15.93-2.8-15.87-15.46,.52-105.14,.29-210.28,.29-315.43,0-106.14,.18-212.28-.26-318.42-.05-11.03,2.46-14.1,13.84-14.07,157.08,.41,314.16,.43,471.24-.02,12.17-.03,14.63,3.57,14.57,15-.45,96.17-.45,192.35,0,288.52,.05,11.03-3.24,15.18-13.97,17.84-75.13,18.62-126.41,79.75-132.2,156.43-5.64,74.67,53.47,152.84,129.33,171.01,.48,.12,1.03,.06,1.47,.25,5.36,2.36,15.44,.07,14.42,8.98Zm25.26-33.53c-81.08-1.13-141.18-61.38-140.79-141.17,.37-77.4,61.76-136.95,141.48-137.25,77.82-.29,139.5,61.42,139.33,139.41-.17,77.83-62.88,140.08-140.02,139.01ZM256.13,430.72c35.85,0,71.71,.13,107.56-.08,10.46-.06,19.95,1.67,20.37,14.1,.44,13.15-8.93,15.95-20.24,15.93-72.2-.12-144.41-.06-216.61-.07-10.02,0-19.85-.98-20.2-14.11-.36-13.57,8.8-15.91,20.06-15.85,36.35,.2,72.7,.07,109.05,.07Zm.7,93.25c33.34,0,66.68,0,100.02,0,3.48,0,6.97,.06,10.45,.03,9.91-.09,16.83,4.12,16.9,14.53,.07,10.33-6.74,14.98-16.6,14.99-74.64,.07-149.28,.09-223.92,0-9.5-.01-16.76-3.51-16.75-14.57,.01-11.93,7.88-14.94,17.94-14.95,37.32-.04,74.64-.02,111.96-.02Zm-2.08,122.35c-35.84,0-71.67-.08-107.51,.04-10.93,.04-20.63-1.46-20.23-15.47,.38-13.27,10.33-14.07,20.23-14.08,72.17-.05,144.34,0,216.51-.06,10.28,0,20,1.72,20.36,14.23,.38,13.32-9.11,15.53-20.36,15.44-36.33-.28-72.67-.1-109-.11Zm184.71-371.75c-19.39,0-38.78-.14-58.16,.06-9.87,.1-16.8-3.63-17.51-13.92-.79-11.45,6.72-16,16.94-16.05,39.27-.21,78.54-.25,117.81,.01,9.61,.06,16.35,4.7,15.96,15.46-.38,10.64-7.03,14.48-16.88,14.45-19.39-.05-38.77-.02-58.16-.01Zm-.29,93.16c-18.9,0-37.8-.06-56.7,.03-10.09,.05-18.31-2.96-18.66-14.41-.38-12.25,7.85-15.86,18.73-15.85,37.8,.07,75.61,.09,113.41-.01,10.16-.03,18.13,2.93,18.5,14.46,.39,12.35-7.56,15.94-18.57,15.84-18.9-.18-37.8-.05-56.7-.05Zm.37-186.18c-18.88,0-37.77,0-56.65,0-10.5,0-19.38-2.7-19.13-15.33,.23-11.68,8.7-14.44,18.59-14.45,37.77-.04,75.53,0,113.3-.03,10.57,0,19.11,2.64,18.91,15.46-.19,12.07-8.48,14.36-18.37,14.35-18.88,0-37.77,0-56.65,0Zm-143.51-10.65c.02-13.08-6.27-19.15-19.18-19.13-43.84,.06-87.69,.09-131.53-.03-13.06-.03-18.89,5.82-18.71,19.12,.41,29.37,.13,58.75,.13,88.12,0,29.87,.24,59.75-.11,89.61-.15,13.2,5.64,19.21,18.73,19.17,43.84-.12,87.69-.14,131.53,.01,13.15,.05,19.09-6.29,19.08-19.14-.04-59.25-.07-118.49,.04-177.74Zm-42.04,166.91c-28.83-.79-57.7-.52-86.55-.11-8.11,.12-11.39-1.78-11.31-10.63,.39-45.24,.33-90.48,.03-135.71-.05-8.06,2.99-10.07,10.54-9.98,29.35,.35,58.71,.58,88.05-.1,10.1-.23,11.25,4.07,11.09,12.35-.42,22.36-.14,44.74-.14,67.11,0,21.38-.37,42.76,.18,64.12,.23,9.03-1.21,13.24-11.88,12.94Zm421.35,295.42c-9.02,9.57-16.85,5.71-23.9-1.37-18.99-19.06-38.01-38.1-57.03-57.12-19.02,19.03-38.04,38.06-57.03,57.12-7.04,7.07-14.88,10.94-23.9,1.37-8.53-9.05-3.83-16.2,2.74-22.69,19.13-18.87,38.08-37.92,57.07-56.94-19-19-38-37.99-57-56.99-6.25-6.25-11.69-13.09-2.63-22.58,9.37-9.82,16.74-5.76,23.73,1.32,18.91,19.14,37.97,38.13,57.02,57.14,19.04-19.01,38.11-37.99,57.02-57.14,6.99-7.07,14.36-11.13,23.73-1.32,9.06,9.49,3.62,16.33-2.63,22.58-19,19-38,37.99-57,56.99,18.98,19.02,37.94,38.07,57.07,56.94,6.58,6.49,11.27,13.63,2.74,22.69Z"/>
</svg>