<svg id="Layer_1" data-name="Layer 1" xmlns="http://www.w3.org/2000/svg" viewBox="0 0 800 800"><defs><style>.cls-1{fill:none;}.cls-2{fill:#020202;}</style></defs><title>attendees list</title><rect class="cls-1" width="800" height="800"/><path class="cls-2" d="M316.89,738.36c-9.39-28.13-27.34-49.19-53.73-62.72-6.31-3.24-8-5.09-2.8-11.77C281.12,637,278,601.51,253.8,579.71a61.75,61.75,0,0,0-82.8-.06c-24.1,21.7-27.26,57.44-6.58,84.17,5,6.52,3.9,8.47-2.64,11.75C136.42,688.26,119,708.41,109,734.78c-10.71,28.38,4.78,50.5,35.2,50.79,22.7.22,45.41,0,68.12,0v0c23.9,0,47.81.49,71.69-.13C310.34,784.76,325.18,763.18,316.89,738.36ZM213.41,588a37.64,37.64,0,0,1,36.67,37.84c-.29,20.21-17.38,37.26-37.49,37.39-20.67.14-37.82-17.27-37.62-38.19A37.22,37.22,0,0,1,213.41,588Zm66.74,173.37c-22.68.22-45.36.06-68,.06-21.89,0-43.77.09-65.66,0-16.38-.09-19.85-5.43-13.81-20.81,12.81-32.6,45.35-53.69,81.84-53,35.53.63,66.92,22.91,78.64,55.83C297.57,755.92,293.92,761.26,280.15,761.39Zm36.73-566.78C307.63,166.89,290,146,264.16,132.43c-7.17-3.76-8.86-5.91-3.17-13.25,20.29-26.13,16.83-61.18-7.24-83.12a61.47,61.47,0,0,0-82.71,0c-24,21.9-27.49,57.19-7.24,83.11,5.69,7.28,4.23,9.44-3.06,13.24-25.89,13.46-43.72,34.3-52.72,62.1-8.32,25.67,7,46.84,33.82,47.19,23.1.3,46.21.06,69.32,0,24.31,0,48.61.31,72.91-.1C309.93,241.26,325.12,219.3,316.88,194.61ZM212.61,44.24a37.52,37.52,0,1,1-.43,75,37.52,37.52,0,0,1,.43-75Zm69,173.32c-23.08.24-46.17.07-69.26.07-22.69,0-45.38.13-68.06,0-13.62-.11-17-5.21-12.45-18.11,11.74-33.39,44.87-56.18,81.16-55.85s69.24,23.57,80.49,57C297.28,211.83,293.6,217.44,281.62,217.56Zm34.45,246.32c-9.65-26.53-27.05-46.74-52.11-59.7-7.62-3.94-8.5-6-2.9-13.15,20.17-25.64,16.65-61.28-7.26-83.09a61.61,61.61,0,0,0-82.69-.07c-24.3,22.14-27.64,58.2-6.71,84,6,7.39,3.2,8.85-3.16,12.12-25.15,12.95-42.66,33.06-52.41,59.49-10.29,27.89,5.07,49.76,34.69,50,22.69.22,45.37,0,68.06,0,23.48,0,47,.22,70.44-.06C311,513.13,326,491.26,316.07,463.88ZM211.72,316.28a37.46,37.46,0,0,1,38.35,37.26c.05,20.66-17.58,38.08-38.19,37.74A37.63,37.63,0,0,1,175,353.71,36.94,36.94,0,0,1,211.72,316.28Zm68.48,173c-22.68.16-45.36,0-68,0-22.29,0-44.57.1-66.86,0-15.15-.09-18.38-5-13-19.39,12.21-32.74,44.88-54.67,81-54.33s68,22.65,79.88,55.89C297.57,484,294,489.22,280.2,489.32ZM543.6,106.61q-66.27,0-132.55,0a72.17,72.17,0,0,1-10.72-.38c-5.84-.87-9.13-4.59-9.64-10.47s2.36-10.31,7.79-12c4.07-1.25,8.62-1.27,13-1.28q132.56-.09,265.11,0h4.77c8.55,0,15.69,3.06,15.62,12.51-.08,9.7-7.48,11.75-16,11.72C635.16,106.54,589.38,106.6,543.6,106.61Zm1.27,519.89q65.65,0,131.33,0a69.49,69.49,0,0,1,10.71.47c6.33,1,10,5.15,10.15,11.41s-3.82,10.36-9.89,11.73a43.55,43.55,0,0,1-9.5.54q-133.71,0-267.43,0c-3.94,0-8.08,0-11.77-1.16-5.51-1.72-8.26-6.11-7.78-12,.42-5.34,3.42-9,8.6-10.15a57.16,57.16,0,0,1,11.86-.81Q478,626.47,544.87,626.5Zm0-247.77q-66.27,0-132.54,0a91.32,91.32,0,0,1-10.73-.32c-6.88-.83-11-4.8-10.89-11.86s4.41-10.8,11.15-11.72a61.07,61.07,0,0,1,8.35-.25H677.68c2.39,0,4.79-.08,7.16.14,7.34.7,12.29,4.67,12.19,12.11s-5,11.56-12.46,11.74c-11.53.27-23.08.17-34.62.17Q597.41,378.75,544.87,378.73ZM489.06,451c-27,0-54.06,0-81.1,0-8.57,0-16.86-1.11-17.13-11.84s7.83-12.37,16.51-12.37q82.89,0,165.78,0c8.46,0,16,2.22,16.1,11.77.11,10.29-7.76,12.52-16.68,12.48C544.72,451,516.89,451,489.06,451ZM489.69,699c27.44,0,54.87.11,82.3-.06,8.7,0,17.08,1.11,17.17,11.68.1,10.18-7.81,12.59-16.69,12.59q-82.3-.07-164.6,0c-8.59,0-16.8-1.5-17.06-12.1-.27-10.91,7.86-12.16,16.58-12.13C434.82,699,462.26,699,489.69,699Zm.66-544.08q41.85,0,83.69,0c5.93,0,11.05,1.39,14.06,7.11,2.33,4.43,1.43,8.45-1.39,12.28-2.92,4-7.22,4.75-11.69,4.76q-84.9.06-169.78,0c-8.06,0-14.58-2.84-14.47-12.12s6.65-12,14.69-12C433.76,154.84,462.05,154.88,490.35,154.88Z" transform="translate(0)"/></svg>