<svg id="Layer_1" data-name="Layer 1" xmlns="http://www.w3.org/2000/svg" viewBox="0 0 377.58 422.66"><title>back order</title><path d="M112.33,421c-8.57,0-16,.05-23.49,0-20.68-.17-32.79-12.25-32.8-32.93Q56,240.87,56,93.63C56.05,73,68.24,60.83,89,60.81c66.25-.05,132.49,0,198.73-.16a21.15,21.15,0,0,0,10.94-3.22c40.44-26.51,93.77-15.84,120.53,24.34A86.43,86.43,0,0,1,394.29,202c-4.43,2.91-6.19,5.84-6,11.06.4,10.11.19,20.25.08,30.37-.07,7.18-3.29,11.23-8.52,11.12s-8.31-4.19-8.35-11.29c0-9.84,0-19.68,0-28.89-13.47,4.23-24.62,6.87-39.64,2.13v7.22c0,53-.77,106.09.33,159.1.54,26-13.28,39.07-38.9,38.54-51.92-1.07-103.87-.32-155.81-.32h-8.14c0,6.4-.64,12.13.17,17.64.89,6.06,5.45,9.31,11.48,10.16a41.8,41.8,0,0,0,5.93.15H353.58c13.94,0,17.92-4,17.93-18.12V326.54a44.25,44.25,0,0,1,.07-5.28c.58-5,3.29-8.29,8.46-8.4s7.35,3.37,8.2,7.91a26.16,26.16,0,0,1,.18,4.61c0,35.65.07,71.3,0,107,0,20.86-12.4,33.15-33.38,33.17q-104.65.09-209.29,0c-21.55,0-33.33-12-33.4-33.66C112.32,428.59,112.33,425.34,112.33,421ZM277.25,77.62c-2.63-.24-3.89-.45-5.15-.45q-92.12,0-184.22,0c-10.19,0-15.23,5.55-15.23,16.43q0,147.24,0,294.48c0,11.46,5.06,16.58,16.44,16.59q105,0,210,0c11.29,0,16.51-5.19,16.52-16.66.07-57.44,0-114.88.11-172.33,0-3.89-1.34-5.82-4.9-7.4a78.82,78.82,0,0,1-32.19-25.61c-3.31-4.53-6.43-5.63-12.18-5.58-48.19.47-96.39.31-144.59.22-7.45,0-10.34-3.11-10.42-10.51-.1-9.25,0-18.49,0-27.73,0-11.18,2.2-13.33,13.65-13.33q63.71,0,127.43,0c2.55,0,5.09-.23,7.83-.36C261.14,107.72,267.07,92.53,277.25,77.62Zm70.09-18.19c-38.68-.16-70.53,31.14-70.74,69.5-.22,38.81,31.4,70.82,70.1,71,38.36.15,70.09-31.39,70.42-70C417.45,91.53,385.82,59.59,347.34,59.43ZM129,160.76h7.88q56.46,0,112.92,0c11.92,0,9.94,1.3,10.55-10.67.31-6.18-1.72-7.73-7.74-7.69-36.76.26-73.52.48-110.28.13-14.07-.13-14.7-2.67-14.24,13A23.22,23.22,0,0,0,129,160.76Zm259.12,123.1c.51-4.41-3.68-8.74-8.13-8.53-4.85.22-7.69,3.12-8.33,7.78-.57,4.15,3.83,8.48,8.22,8.56C384.78,291.32,387.59,288.56,388.14,283.86Zm-125.27,17a41.84,41.84,0,0,0,5.93-.15c4.72-.67,7.72-3.26,7.65-8.27s-3.14-7.51-7.83-8.17a38.53,38.53,0,0,0-5.27-.13q-69.24,0-138.47,0a50.88,50.88,0,0,0-7,.63c-3.85.56-5.78,5.31-5.9,8.17a7.65,7.65,0,0,0,6,7.33,32.32,32.32,0,0,0,6.44.56q34.6,0,69.23,0ZM263,222.4c9.74,0,13.24-2,13.47-7.8.23-6-3.73-8.59-13.47-8.59q-69,0-138,0a63.5,63.5,0,0,0-7.08.62c-3.82.44-6.12,5.3-6,7.93s2.2,7.14,6.61,7.48c1.62.12,3.84.33,5.82.33H263ZM262.37,340c2.63,0,5.46-.48,7.76-.59,4.19-.19,6-4.89,5.91-7.29a9.14,9.14,0,0,0-5.87-8.15c-1.42-.56-3.81-.43-5.78-.44q-70.33,0-140.66,0a55.28,55.28,0,0,0-5.79.44c-4,.43-5.85,5.26-6,8.12-.14,2.38,2.4,6.61,6,7.32a40.33,40.33,0,0,0,7.1.58q34.33,0,68.68,0T262.37,340Zm-62-78.2q33,0,65.92,0c5.47,0,9.61-1.82,10.12-7.92.45-5.31-3.27-8.44-10-8.76-.88,0-1.76,0-2.63,0q-69.88,0-139.75,0a21.76,21.76,0,0,0-7.14.81c-6.18,2.2-7.58,10-2.29,13.6,2.31,1.59,5.72,2.14,8.64,2.16,23.51.17,47,.09,70.53.09Zm138.11-88.32c.08,6.06,3.32,9.75,8.3,9.84s8.38-3.41,8.44-9.7q.27-26.7,0-53.39c-.07-6.12-3.84-10.12-8.61-9.55-5.73.68-8.2,4.42-8.17,10.07.06,8.79,0,17.58,0,26.36S338.39,164.64,338.51,173.43ZM347,84c-4.31-.28-8.56,4-8.49,8.31s4.42,8.42,8.75,8c4.9-.46,7.27-3.54,7.72-8.18C354.4,87.35,351.93,84.33,347,84Z" transform="translate(-56.01 -42.89)"/></svg>