<svg id="Layer_1" data-name="Layer 1" xmlns="http://www.w3.org/2000/svg" viewBox="0 0 411.78 412.38"><title>it consultancy</title><path d="M68.46,416.05c0-2.82,0-5.35,0-7.88q-.13-61.21-.25-122.43c0-13.33,5.38-21.58,16.22-24.87a24.51,24.51,0,0,1,6.95-.9c12.88-.1,25.76-.17,38.65,0,13.57.13,22.45,8.89,22.94,22.53.19,5.34,0,10.68,0,16.15h58.25c0-1.8,0-4.08,0-6.37,0-18.68-.1-37.37,0-56.06.07-15.71,8.43-24.33,24.17-24.7,12.23-.29,24.48-.35,36.71,0,14.88.38,23.34,9.22,23.6,24,.08,4.45,0,8.91,0,13.31h58.2v-6.51q0-39.61,0-79.25c0-15.39,8.42-24,23.7-24.24,12.45-.17,24.91-.23,37.36,0,14.45.2,22.61,7.67,23.12,22,.55,15.66.31,31.35.26,47,0,4.3-1,8.64-6.53,8.51-5.32-.12-6.49-4.38-6.54-8.69-.17-14.39-.09-28.78-.17-43.17-.06-10.76-2-12.63-12.94-12.64-11.38,0-22.76,0-34.14.06-7.85.07-11.12,3.17-11.12,10.83q0,124.68.08,249.37c0,1,.18,2.09.33,3.71h58.4c0-3,0-5.68,0-8.41q-.21-84.09-.4-168.17c0-2.77-.29-5.94.92-8.18a8.74,8.74,0,0,1,6.2-4.07c1.76-.06,4.39,2.41,5.23,4.36,1,2.42.81,5.46.82,8.23q.21,84.09.34,168.18v7.89c3,.56,5.47.87,7.89,1.54A17.42,17.42,0,0,1,459.53,435c-.55,8.57-6.84,15.87-15.45,16.15-18.45.59-36.92.46-55.38.59-8.37.06-16.75.12-25.12,0-4.45-.06-8.37-1.39-8.19-6.86.16-5.14,4.05-6.15,8.17-6.17,24.27-.13,48.53-.09,72.79-.32,3.68,0,9.54,1.93,9.75-4.14.24-6.66-5.87-4.87-9.77-4.87q-182.62.12-365.23.47c-3.72,0-9.53-1.75-9.74,4.26-.22,6.54,5.78,5,9.75,5q130.11-.09,260.24-.34a56.7,56.7,0,0,1,7.62.44c4.74.67,5.68,3.89,5.5,5.62-.25,2.4-.42,6.63-5.39,6.56-1.31,1-3.73.48-5.66.48Q201,452,68.67,452.09c-14.56,0-23.41-9.76-20.24-22.16C50.2,423,54.85,419,61.61,417.25,63.64,416.73,65.74,416.52,68.46,416.05Zm214,.37c.19-2.48.41-3.95.41-5.41q0-87.3-.17-174.61c0-8.6-3.05-11.73-11.6-11.87-10.73-.18-21.47,0-32.2,0-12.34.06-14.69,2.41-14.67,14.7q.09,75.7.23,151.42c0,7.08-.19,14.18.23,21.25.1,1.57,2.39,4.3,3.71,4.32C246.17,416.52,264,416.42,282.44,416.42Zm13.84-.59h57.1a8.19,8.19,0,0,0,.52-1.73q0-71.76,0-143.5c0-6.27-3.31-9.12-9.92-9.18q-19-.18-38,0c-7.05.07-10.16,3.18-10.17,10.31q0,70.47.09,140.94C295.9,413.52,296.1,414.36,296.28,415.83Zm-156.17.74c0-8.84,0-16.54,0-24.24q0-53.16-.11-106.31c0-10.22-2.91-13.12-12.88-13.14q-15.8,0-31.57,0c-11.56,0-14.23,2.69-14.2,14.51q.09,45.09.27,90.2c0,11.17-.1,22.34.25,33.5,0,1.86,2.16,5.22,3.38,5.25C103.22,416.68,121.21,416.57,140.11,416.57Zm70.58-.42a15,15,0,0,0,.6-2.57c0-30.9.06-61.81-.1-92.72,0-6.64-3.27-9.49-10.26-9.58-11.8-.14-23.6-.06-35.4,0-10,.05-12.47,2.57-12.47,12.66q0,42.82,0,85.64c0,2.08.21,4.16.34,6.57ZM254.2,113c10.73.33,19.09,8.07,19.73,19,.22,3.87,1.73,5.66,4.93,7.23q13.29,6.48,26.33,13.5c3.15,1.7,5.59,4.08,7.78.89,2-2.87,7.86-4.24,11.24-4,4.84.29,7.25-1.52,9.7-5.35Q355,111.14,376.68,78.37c2.06-3.14,2.66-5.49.76-9.22-4.42-8.66-2-18.29,5.2-24.46a20.76,20.76,0,0,1,25.09-1.45c7.58,5.07,10.79,14.73,7.95,23.89A20.23,20.23,0,0,1,395.43,81c-3.72-.13-5.79,1-7.76,4.1-14.62,22.74-29.48,45.32-44,68.12-1.15,1.79-1.09,5.1-.32,7.25,3,8.26,3,16-2.82,23A20.25,20.25,0,0,1,319,190c-8.82-2.93-14.12-9.11-14.81-18.32-.31-4.12-1.91-6-5.32-7.63-8.87-4.31-17.48-9.18-26.44-13.29-2.17-1-5.42-3.93-7-1.76-3.14,4.41-10.19,5.56-14.41,4.93-4.76-.7-6.93.82-9.53,4Q222.45,181.4,203,204.6c-2.28,2.74-2.82,4.93-1.53,8.56a20.62,20.62,0,0,1-14.67,27,20.19,20.19,0,0,1-25-17.68c-.57-5.33-2.8-7.81-7.14-10-8.64-4.29-17-9.19-25.67-13.37a9.26,9.26,0,0,0-7.28.21c-9,4.65-18.81,3.75-25.6-2.91a20.35,20.35,0,0,1-3.67-24.81c4.36-7.89,13.92-12.32,22.39-10.37,9.41,2.16,15.42,9.7,16.51,19.74a9.38,9.38,0,0,0,3.9,6.26c9.45,5.5,19.12,10.64,28.88,15.56,1.67.84,4.72,3.24,6.3,1.87a19.47,19.47,0,0,1,13.47-5c4.58.1,7.4-1,10.25-4.57,12.36-15.39,25-30.59,37.62-45.75,2.49-3,3.47-5.38,2-9.61C229,125.85,239.45,112.51,254.2,113ZM118.27,181.46c-.63-4.5-3.34-8.1-7.83-7.11-2.91.64-6.65,4.26-7.24,7.12-.9,4.31,2.4,7.55,7.27,7.68S117.64,186.22,118.27,181.46ZM388.44,61.05c.81,4,3.08,7.16,7.91,7s7.28-3.44,7.11-8c-.16-4.41-2.89-7.19-7.39-7.09C391.37,53,388.78,55.8,388.44,61.05ZM183.79,214.37l-3.08-.07c-3.64.84-5.21,2.22-5.83,5.24-1,4.66,2.26,7.86,7,8s8.07-3.19,7.46-7.69C189,216.83,187.79,215.31,183.79,214.37Zm62-81.37c.21,5.14,3.12,8.06,7.56,8.1s7.63-3.06,7.6-7.76c0-4.34-2.58-7.14-7.21-7.27C248.86,125.93,246.32,128.51,245.78,133Zm86.38,38.2c.17-5.56-2.36-8.49-7.08-8.66s-8.39,2.83-7.67,7.3c.46,2.89,2,7.78,6.81,7.5C328.86,177.07,331.53,175.23,332.16,171.2Z" transform="translate(-47.79 -39.7)"/></svg>