<svg id="Layer_1" data-name="Layer 1" xmlns="http://www.w3.org/2000/svg" viewBox="0 0 29 47.41"><title>mobile development new</title><path d="M.53,25c0-6.21.07-12.42,0-18.62A4.83,4.83,0,0,1,5.62,1.3c6.26.06,12.52,0,18.78,0,3.24,0,5.09,1.85,5.09,5.06q0,18.66,0,37.31c0,3.17-1.8,5-5,5-6.34,0-12.68,0-19,0a4.78,4.78,0,0,1-5-5C.59,37.46.53,31.23.53,25Zm2-15.92V41h.94c7.72,0,15.45,0,23.17,0,.76,0,1-.16,1-1q0-15,0-30V9.08ZM2.41,7.13H27.53a11.44,11.44,0,0,0,0-1.66A2.47,2.47,0,0,0,25,3.32H5A2.41,2.41,0,0,0,2.56,5.27,15.57,15.57,0,0,0,2.41,7.13ZM27.5,43h-25c-.35,2.44.84,3.88,3.44,3.84,6.15-.11,12.3,0,18.45,0C26.82,46.75,27.89,45.46,27.5,43Zm-4-10.72c.67,0,1.11-.23,1.19-.91s-.42-1-1.21-1c-5.64,0-11.28,0-16.92,0-.65,0-1.13.17-1.17.91s.36.95,1.19.95H15C17.82,32.23,20.66,32.21,23.49,32.23Zm-16.89,2c-.85,0-1.22.29-1.22.93s.37.93,1.22.93H23.44c.8,0,1.25-.34,1.25-.93s-.44-.93-1.25-.93H6.6ZM17.72,24.5c.78,0,1.12-.3,1.11-.94s-.34-.92-1.14-.92q-5.58,0-11.18,0c-.77,0-1.14.32-1.13.94s.37.91,1.15.92H17.72Zm0,3.86c.78,0,1.12-.3,1.11-.94s-.34-.92-1.14-.92H6.51c-.77,0-1.14.33-1.13.94s.37.92,1.15.92h5.63C14,28.36,15.87,28.37,17.72,28.36ZM12.16,11.7c-.38.62-.67,1.28-1,1.92-.61,1.22-1.23,2.43-1.82,3.66a.94.94,0,0,0,.39,1.33A.84.84,0,0,0,11,18.26c1-2,2-3.94,3-5.94.31-.65-.17-1.27-1.12-1.28A3.13,3.13,0,0,0,12.16,11.7Zm-4.24,2a.9.9,0,0,0,0-1.37.89.89,0,0,0-1.37,0c-.65.61-1.29,1.25-1.91,1.9a1,1,0,0,0,0,1.44c.59.6,1.19,1.2,1.8,1.79a.92.92,0,0,0,1.43,0,.9.9,0,0,0,0-1.37c-.38-.38-.8-.72-1.33-1.18C7.13,14.4,7.54,14.05,7.92,13.66Zm7.43,2.42a.89.89,0,0,0,0,1.42.93.93,0,0,0,1.38-.08c.59-.57,1.18-1.15,1.75-1.74a1,1,0,0,0,0-1.62c-.55-.58-1.11-1.14-1.69-1.69s-1.09-.52-1.49-.08a.91.91,0,0,0,.11,1.42c.37.36.76.69,1.3,1.17C16.15,15.36,15.73,15.7,15.35,16.08Z" transform="translate(-0.5 -1.3)"/></svg>