<svg id="Layer_1" data-name="Layer 1" xmlns="http://www.w3.org/2000/svg" viewBox="0 0 348.12 360.22"><title>Own Customer</title><path d="M423.84,373.13c-.93-46.66-32.93-87.76-77.78-100.78-15.42-4.47-31.15-4.1-46.9-4.16-2.71,0-5.43-.25-8-.37a17.47,17.47,0,0,1-.41-2.3c0-3-.47-6.1.09-9,.43-2.24,1.57-5,3.32-6.23,24.77-17,37.58-40.18,37.59-70.31,0-11.83-.2-23.66.16-35.48a11.76,11.76,0,0,1,3.43-7.54c8.62-7.86,15.41-17.11,16.48-28.67,1.18-12.76.27-25.72.27-38.91-1.18-.09-2.45-.27-3.72-.27-43.56,0-87.13-.19-130.69.07-26,.15-47.4,22.11-47.55,48.15-.12,20.84.07,41.69-.06,62.53-.18,29.49,12.12,52.4,36,69.36,1.3.92,3.13,2.25,3.22,3.5.38,5,.16,9.94.16,15.48-7.41,0-14-.32-20.47.07-9.34.56-18.8.82-27.93,2.6-46.14,9-82.37,50.8-84.57,97.82-.9,19.12-.41,38.29-.53,57.44a27.47,27.47,0,0,0,.4,3.12H423.9C423.9,410.26,424.21,391.69,423.84,373.13ZM208,86.6a25.26,25.26,0,0,1,7.57-1.19q58-.12,115.92,0c1.15,0,2.3.19,3.34.29,4.55,21.66-9.39,38.78-31.64,38.89-30.91.15-61.83-.1-92.74.14-7.41,0-14.82,1.34-22.75,2.12C183.77,108,191.64,91.88,208,86.6ZM184,181.43c-.35-5.66-.22-11.35-.21-17,0-16.55,7.2-23.68,23.94-23.7q41.31-.07,82.63,0h27.7c-.9,19.26,2.51,38.43-3.48,57.09-10,31.07-40.05,50.63-71.52,46.68C210.39,240.34,186.06,214.44,184,181.43Zm92.13,100c0,1.06-1.9,2.4-3.38,3-7.53,3.26-15.22,6.32-22.78,9.42-7.39-3-15.51-6.18-23.43-9.6-1.41-.61-2.79-2.22-2.83-3.39-.26-7.13-.13-14.27-.13-20.76h52.71C276.32,266.87,276.46,274.16,276.16,281.45Zm128.66,132.4H368.54V377.44c0-8.74,0-8.74-7.86-8.75H347V414H153.17v-44.8H131.8v44.75H95.5c-.15-26.46-2.7-53,9.15-77.65,10-20.75,24.47-36.38,44.41-45.1A94,94,0,0,1,176,284.07c10.65-1.2,21.51-.28,32.88-.28v17.65c3.73,0,6.87-.05,10,0,11.94.23,19.94,8.46,20.53,21.6.34,7.56.06,15.15.06,23h21.14c0-6.74,0-13.09,0-19.44,0-17,7.5-25.16,23-25.2h7.33V283.37c9.78,0,19-.38,28.18.06,49,2.36,85.46,43.76,85.74,97.18C404.87,391.53,404.82,402.45,404.82,413.85ZM239.63,386.66c0-5.7-.2-11.08.15-16.44A4.63,4.63,0,0,1,243,367c5.53-.34,11.1-.15,17.06-.15v19.77Z" transform="translate(-75.9 -69.05)"/></svg>