<?xml version="1.0" encoding="UTF-8"?>
<svg id="Layer_1" data-name="Layer 1" xmlns="http://www.w3.org/2000/svg" viewBox="0 0 800 800">
  <defs>
    <style>
      .cls-1 {
        fill: none;
      }

      .cls-2 {
        fill: #010101;
      }
    </style>
  </defs>
  <rect class="cls-1" width="800" height="800"/>
  <path class="cls-2" d="M762,166.17c.25-49.34-39.53-84.56-84.39-84.29-184.73,1.11-369.48,1.11-554.21,0-44.86-.27-84.64,34.94-84.39,84.29,.78,156.13,.27,312.26,.3,468.39,0,50.92,33.67,84.6,84.66,84.63,92.18,.05,184.36,.01,276.54,.01,92.56,0,185.12,.06,277.67-.02,49.47-.04,83.51-34.11,83.52-83.49,.04-156.51-.48-313.02,.3-469.52ZM63.4,235.03c.81-23.29,.97-46.65,.08-69.93-1.22-32.11,22.78-59.19,59.5-59.43,1.5,0,3.01,0,4.51,0,182.03,0,364.06-.01,546.09,0,32.73,0,53.58,14.19,62.04,41.69,2.05,6.65,1.59,13.38,1.65,20.06,.2,22.94-.4,45.89,.3,68.81,.31,9.97-2,13.18-12.73,13.13-108.31-.45-216.63-.28-324.95-.28s-215.13-.24-322.69,.33c-12.02,.06-14.18-3.54-13.81-14.4Zm611.26,460.82c-182.81-.37-365.61-.12-548.42-.21-31.86-.01-52.35-14.41-60.86-41.64-1.96-6.28-1.64-12.64-1.65-18.95-.1-117.35,.03-234.7-.3-352.04-.03-9.06,3.15-10.21,11.01-10.19,108.71,.24,217.41,.16,326.12,.16,108.33,0,216.66,.11,324.99-.21,9.05-.03,12.07,1.77,12.04,11.47-.35,116.22-.89,232.45,.16,348.66,.34,37.17-24.86,63.03-63.08,62.96Zm-241.73-338.53c-5.14,24.5-10.29,49.01-15.41,73.51-10.24,49.03-20.45,98.07-30.71,147.1-.46,2.18-1.47,4.25-1.96,6.43-1.66,7.33-6.15,11.57-13.63,10.23-8.18-1.47-10.72-7.68-9.34-15.33,2.25-12.5,4.7-24.98,7.33-37.41,12.6-59.61,25.29-119.2,37.96-178.8,.7-3.28,1.58-6.53,2.32-9.8,1.66-7.28,6.27-11.56,13.63-10.29,7.36,1.27,10.49,6.71,9.82,14.35Zm-97.43,43.75c.52,6.97-3.34,10.42-7.48,13.92-17.82,15.02-35.18,30.62-53.45,45.07-8.62,6.82-6.97,10.26,.57,16.32,18.15,14.59,35.48,30.19,53.35,45.14,7,5.85,10.56,12.49,4.08,20.17-6.6,7.82-13.56,3.45-19.6-1.69-23.49-19.96-46.95-39.97-70.3-60.08-9.77-8.41-10.03-15.09-.49-23.34,23.88-20.65,48.04-40.98,72.02-61.51,4.69-4.01,9.78-5.85,15.5-3.15,3.97,1.88,6.29,5.36,5.8,9.16Zm129.97,133.58c-.41-6.65,3.23-9.84,7.04-13.08,18.05-15.32,35.66-31.17,54.2-45.87,8.18-6.48,6.85-9.76-.3-15.56-18.1-14.67-35.5-30.2-53.43-45.09-6.92-5.75-11.12-12.53-4.96-20.14,6.52-8.06,13.82-4.07,20.46,1.62,22.82,19.57,45.84,38.91,68.69,58.46,11.47,9.82,11.51,16.06,.34,25.64-23.4,20.07-46.86,40.06-70.32,60.05-4.45,3.79-9.4,6.77-15.35,3.9-4.34-2.09-6.87-5.82-6.36-9.93ZM165.19,177.11c-.57-20.13-17.82-37.04-37.92-37.17-20.58-.14-38.12,17.39-37.99,37.96,.14,20.72,17.58,37.89,38.24,37.63,20.59-.25,38.24-18.26,37.67-38.42Zm-24.58,1.22c-.45,8.05-5.43,12.86-14.74,13.04-7.33-1.25-12.41-5.44-12.16-14.01,.26-8.72,5.83-13.13,13.9-12.91,8.23,.22,13.47,5.54,13.01,13.88Zm217.67-37.3c-20.67,.31-36.83,16.72-36.83,37.4,0,21.19,16.59,37.72,37.77,37.64,21.19-.08,37.27-16.56,37.12-38.03-.16-21.33-16.61-37.33-38.05-37.01Zm14.27,37.96c-.33,7.98-5.54,12.71-14.07,13.05-8.14-1-12.78-5.41-12.58-13.99,.21-8.76,5.44-12.96,13.63-12.77,8.42,.19,13.34,5.65,13.01,13.72Zm-129.97-38.35c-21.27,.27-37.01,16.74-36.68,38.39,.31,20.88,16.42,36.75,37.27,36.72,20.88-.04,37.85-17.07,37.73-37.87-.12-20.86-17.25-37.5-38.32-37.23Zm.6,50.83c-8.5,.13-13.49-5.15-13.73-13.14-.24-8.27,5.31-13.42,13.39-13.52,8.01-.1,13.33,4.27,13.4,14.51-.24,7.13-4.59,12.03-13.06,12.16Z"/>
</svg>