<?xml version="1.0" encoding="UTF-8"?>
<svg id="Layer_1" data-name="Layer 1" xmlns="http://www.w3.org/2000/svg" viewBox="0 0 800 800">
  <defs>
    <style>
      .cls-1 {
        fill: none;
      }

      .cls-2 {
        fill: #050505;
      }
    </style>
  </defs>
  <rect class="cls-1" width="800" height="800"/>
  <path class="cls-2" d="M365.81,449.46c-4.5,.53-7.84-2.23-11.24-4.92-20.54-16.28-41.04-32.61-61.67-48.78-6.93-5.43-11.41-11.62-4.9-19.73,6.22-7.76,12.95-4.49,19.38,.63,21.12,16.81,42.31,33.52,63.5,50.24,4.99,3.94,8.13,8.61,5.91,15.2-1.69,4.99-5.33,7.55-10.98,7.36Zm81.19-3.81c8.61-6.77,17.15-13.62,25.74-20.42,13.18-10.45,26.41-20.83,39.54-31.35,6.03-4.84,7.92-11,3.02-17.43-4.88-6.4-11.09-6.53-17.39-1.49-4.28,3.42-8.62,6.75-12.92,10.14-17.8,14.07-35.58,28.16-53.39,42.21-5.09,4.02-7.76,8.91-5.25,15.35,1.91,4.9,5.76,7.23,11.11,6.78,3.85,.42,6.77-1.6,9.55-3.78Zm-33.61-120.44c-.1-8.09-3.67-13.97-12.48-13.68-8.17,.27-11.35,6.11-11.38,13.62-.11,25.38-.09,50.75-.03,76.13,.02,8.24,3.56,13.68,12.51,13.42,8.41-.24,11.36-5.8,11.42-13.36,.09-12.49,.03-24.99,.02-37.48,0-12.88,.11-25.77-.05-38.65Zm222.24,259.75c-68.26,42.32-136.65,84.45-205.22,126.27-22.76,13.88-47.2,14.24-72.52,7.22-42.93-11.9-86.17-22.69-129.02-34.87-9.33-2.65-14.84,2.02-21.6,5.49-3.65,1.87-2.36,4.22-.9,6.78,2.33,4.08,4.79,8.13,6.7,12.41,5.9,13.17,2.33,27.47-9.77,35.3-11.16,7.22-22.81,13.8-34.7,19.75-13.93,6.97-28.96,2.99-36.76-10.58-31.45-54.7-62.54-109.6-93.31-164.69-7.87-14.09-3.22-29.06,10.61-37.78,9.6-6.05,19.63-11.45,29.59-16.9,17.08-9.35,32.49-5.56,41.79,11.59,4.78,8.81,8.37,9.21,16.64,4.14,24.37-14.95,49.48-28.69,74.13-43.18,29.44-17.3,59.06-21.54,91.82-7.69,30.91,13.07,63.17,22.81,96.29,29.55,22.89,4.66,36.95,27.89,32.68,51.09-.48,2.63-1.06,5.25-1.85,9.18,7.71-1.06,12.42-4.77,17.43-7.67,35.6-20.61,71.05-41.48,106.7-62.01,17.43-10.04,35.64-18.06,56.4-17.76,21.05,.3,38,12.62,43.35,31.51,5.86,20.69-1.04,42.03-18.49,52.85Zm-444.18,133.77c-1.32-2.53-3.01-6.02-4.92-9.39-24.65-43.62-49.35-87.2-73.99-130.82-15.88-28.11-15.7-27.85-44.4-12-8.27,4.57-10.2,8.31-5.14,17.08,28.74,49.84,56.89,100.02,85.28,150.06,1.53,2.69,3,5.78,5.35,7.55,4.09,3.09,37.48-16.03,37.81-22.48Zm439.33-179.91c-2.67-10.57-10.9-14.55-21.42-14.55-15.53,0-28.84,6.67-41.75,14.09-37.36,21.48-74.63,43.12-111.78,64.96-14.2,8.35-29.34,12.69-46.89,13.26-2.73-.33-6.61-.77-10.49-1.26-29.62-3.73-57.62-14.23-86.57-20.79-8.47-1.92-17.08-5.09-14.15-16.08,2.89-10.87,11.72-9.6,20.2-7.07,1.5,.45,2.99,.89,4.5,1.29,20.79,5.48,41.48,11.4,62.42,16.24,11.67,2.7,21.1-3.65,23.58-13.97,2.56-10.66-3.78-21.66-15.32-24-35.78-7.26-70.18-19.12-104.02-32.26-21.33-8.28-40.47-6.21-59.52,4.61-28.27,16.06-56.34,32.47-84.66,48.44-5.48,3.09-5.71,5.89-2.74,11.04,15.28,26.47,30.44,53.03,45.17,79.81,3.6,6.54,6.89,7.32,12.69,3.13,9.87-7.13,19.58-9.78,32.7-5.89,42.72,12.65,86.1,23.06,129.03,35.01,19.7,5.48,38.78,6.71,56.73-4.25,67.89-41.48,135.57-83.28,203.35-124.93,10.55-6.49,11.58-16.45,8.96-26.85Zm-348.36-227.23c-.47,68.18-55.94,122.99-124.06,122.59-68.78-.41-124.05-56.22-123.43-124.64,.62-67.88,56.57-123.21,124.3-122.9,68.48,.31,123.67,56.28,123.2,124.95Zm-60.39,67.98c-7.87-26.82-34.66-46.3-63.98-46.03-28.77,.27-54.83,19.95-62.52,46.38-1.74,5.99,.58,8.62,4.7,11.51,17.45,12.26,36.66,18.93,57.63,18.58,22.33,.45,41.94-6.13,59.72-18.7,4.34-3.07,6.09-6.13,4.44-11.75Zm-62.72-70.32c14.78-.32,26.96-12.48,27.13-27.08,.17-14.72-12.92-28.13-27.53-28.2-14.72-.07-27.48,12.96-27.45,28.03,.03,15.39,12.5,27.59,27.85,27.25Zm88.97,45.43c33.09-65.97-15.99-144.85-89.97-143.87-39.79,.52-69.81,19.12-88.16,54.4-17.24,33.15-14.62,66.17,5.02,100.42,9.65-20.58,22.29-35.32,40.1-44.78,7.33-3.89,3.37-6.61,.89-10.52-14.22-22.42-10.46-50.3,8.92-67.13,19.46-16.89,47.14-17.14,66.62-.6,20.05,17.03,24.76,44.52,10.13,66.7-4.95,7.5-2.84,9.78,3.59,13.43,13.57,7.7,23.76,18.98,31.7,32.37,1.53,2.58,1.71,7.09,5.09,7.23,4.27,.18,4.62-4.73,6.08-7.65ZM511.32,186.28c-9.88,3.2-16.15,19.52-11.51,29.09,4.69,9.67,3.05,17.06-5.03,23.9-5.37,4.54-10.07,9.87-15.06,14.85-2.87,2.86-6.08,4.95-12.25,4.38-.82-.27-3.44-1.02-5.96-2-13.06-5.07-26.95,.27-32.05,13.14-3.2,8.07-8.21,11.87-16.88,11.36-5.86-.34-11.81-.57-17.62,.05-11.84,1.26-19.23-2.86-22.93-14.76-2.61-8.39-19.48-15.08-27.37-10.97-10.52,5.48-18.5,3.62-25.77-5.33-3.44-4.23-7.44-8.11-11.62-11.63-7.42-6.25-8.51-13.21-4.6-21.97,5.22-11.69-.97-26.03-13.35-30.96-8.39-3.34-12.56-8.56-11.7-17.84,.5-5.44,.56-11.01,0-16.44-1.22-11.74,2.55-19.22,14.69-22.91,9.12-2.77,15.28-19.61,10.98-28.34-4.68-9.5-3.76-17.12,4.57-23.95,3.92-3.21,7.6-6.86,10.8-10.78,7.13-8.72,14.75-11.44,25.6-5.83,9.23,4.78,25-2.46,28.59-12.57,3.56-10.03,9.89-14.38,20.41-13.57,5.84,.45,11.77,.34,17.63,.02,9.49-.52,15.31,3.43,18.76,12.47,4.7,12.29,19.1,18.1,31.24,12.7,8.39-3.73,14.95-2.62,20.95,4.29,3.59,4.13,7.42,8.15,11.65,11.6,9.23,7.52,11.49,15.73,5.7,26.77-4.35,8.29,3.12,24.47,12.61,27.67,10.17,3.43,14.58,9.5,13.52,20.16-.54,5.43-.56,11.01,0,16.44,1.16,11.08-3.21,17.47-13.99,20.96Zm-9.83-28.24c-.02-5.51-1.6-8.95-7.16-10.34-7.28-1.82-10.7-6.92-12.56-14.01-1.48-5.62-3.86-11.15-6.75-16.21-3.6-6.31-4.93-12.37-1.1-18.81,2.86-4.81,1.88-8.22-1.99-12.33-4.32-4.58-8.17-3.46-12.45-1.12-5.79,3.16-11.06,2.24-16.69-.73-5.5-2.91-11.26-5.62-17.23-7.25-7.48-2.04-12.8-5.65-14.71-13.42-1.23-5.01-4.5-6.58-9.55-6.62-5.25-.04-8.12,2.16-9.33,6.96-1.97,7.86-7.48,11.32-14.96,13.12-4.51,1.08-9.09,2.77-13.01,5.2-7.55,4.66-14.95,6.78-23.03,1.74-4.32-2.7-7.12-.54-10.11,2.49-2.96,3-5.18,5.71-2.66,10.17,1.52,2.7,2.34,5.79,3.62,9.1-1.1,9.75-8.6,17.31-10.55,26.89-1.54,7.58-5.16,13.03-12.99,14.99-4.89,1.23-6.71,4.2-6.85,9.36-.16,5.79,2.05,8.4,7.47,9.92,6.49,1.81,10.15,6.55,12.02,13.23,1.68,5.98,4.01,11.95,7.1,17.32,3.68,6.38,4.73,12.5,.93,18.81-3.03,5.03-1.54,8.23,2.22,12.21,3.88,4.11,7.19,3.52,11.31,1.28,6.49-3.52,12.57-2.53,18.94,1.01,5.07,2.81,10.71,4.7,16.25,6.54,6.65,2.21,12.27,5.24,14.05,12.7,1.17,4.92,4.12,6.8,9.32,6.84,5.51,.04,9.01-1.51,10.32-7.13,1.5-6.39,5.96-10.07,12.02-11.66,7.26-1.91,14.08-4.72,20.56-8.44,5.24-3.01,10.48-2.82,15.72-.16,4.4,2.23,8.05,3.47,12.37-1.19,3.87-4.18,4.68-7.51,1.83-12.31-3.83-6.44-2.39-12.52,1.23-18.8,2.9-5.04,5.29-10.59,6.72-16.22,1.82-7.16,5.55-12.16,12.55-14.16,4.82-1.37,7.15-3.55,7.13-8.96Zm266.51,152.53c.03,67.91-55.28,123.24-123.56,123.59-68,.35-123.66-54.9-123.9-122.99-.24-68.18,54.52-123.73,122.7-124.46,67.97-.73,124.72,55.62,124.75,123.86Zm-23.92,1.07c.56-55.07-44.3-100.58-99.45-100.91-54.71-.32-99.85,44.18-100.17,98.74-.33,55.87,43.48,100.33,99.18,100.65,54.97,.32,99.88-43.72,100.44-98.48ZM90.14,571.36c-8.46-.13-13.05,4.76-13.17,13.13-.12,8.04,4.92,12.64,12.31,12.84,8.09,.22,12.89-4.67,13.28-13.26-.68-7.54-4.44-12.6-12.42-12.71Zm564.99-187.68c.75-6.39,4.03-8,9.35-9.82,17.46-5.99,26.83-17.82,27.3-33.03,.5-16.37-8.68-30.17-25.97-36.82-9.43-3.62-19.62-5.23-29.34-8.14-6.63-1.99-12.87-5.25-12.31-13.53,.56-8.25,6.52-12.45,13.91-13.83,12.34-2.31,22.29,1.04,28.43,13.19,3.23,6.39,9.16,8.87,15.85,5.22,6.98-3.81,8.33-9.68,4.71-16.96-5.3-10.66-13.23-18.4-24.28-22.75-3.81-1.5-7.11-2.58-7.22-7.75-.14-6.9-4.19-11.05-11.08-11.23-7.57-.2-11.51,4.62-12.29,11.62-.47,4.24-2.64,5.67-6.13,7.39-19.66,9.71-28.03,23.12-25.77,40.35,2.13,16.26,14.09,27.28,34.34,32.46,8.29,2.13,17.02,2.79,24.76,6.99,5.29,2.87,8.55,7.07,8.22,13.15-.31,5.81-4.39,8.67-9.5,10.71-16.43,6.53-31.17,1.61-38.45-13.57-3.49-7.27-8.77-10.5-16.01-7.28-7.06,3.14-8.74,9.25-6.03,16.78,4.7,13.07,13.73,21.87,26.42,26.64,4.94,1.86,7.79,3.66,8.46,9.39,.69,5.94,4.81,9.67,10.05,10.11,6.96,.28,11.83-2.74,12.6-9.29Zm-188.95-225.14c-.44,35.44-29.31,63.41-65.21,63.21-35.77-.2-64.19-28.62-64.22-64.21-.03-35.81,29.45-65.07,65.22-64.76,35.85,.32,64.67,29.83,64.22,65.76Zm-23.87-.79c.11-22.68-18.43-41.17-41.14-41.03-22.19,.13-40.38,18.27-40.55,40.44-.18,22.85,17.99,40.84,41.13,40.74,22.49-.1,40.45-17.88,40.55-40.15Z"/>
</svg>