<?xml version="1.0" encoding="UTF-8"?>
<svg id="Layer_1" data-name="Layer 1" xmlns="http://www.w3.org/2000/svg" viewBox="0 0 800 800">
  <defs>
    <style>
      .cls-1 {
        fill: #020202;
      }

      .cls-2 {
        fill: none;
      }
    </style>
  </defs>
  <rect class="cls-2" width="800" height="800"/>
  <path class="cls-1" d="M757.57,61.67c-.01-17.69-1.96-19.63-19.9-19.63-112.28,0-224.57,0-336.85,0-111.91,0-223.82,0-335.74,0-3.35,0-6.7-.06-10.04,.08-7.58,.33-11.6,4.14-11.57,11.95,.05,12.64,.16,25.28-.05,37.92-.15,8.97,4.21,13.76,12.85,12.6,11.69-1.57,12.85,3.85,12.83,13.8-.32,128.64-.22,257.28-.2,385.93,0,16.77,2.49,19.2,19.37,19.21,33.09,.02,66.18,0,99.27,0q20.97,0,21.09,20.82c.1,17.32,7.77,28.76,22.24,33.42,6.91,2.22,14.08,2.06,21.01,1.37,10.77-1.07,11.38,2.74,7.82,11.57-16.48,40.91-32.74,81.92-48.66,123.06-9.56,24.71,7.19,45.73,33.37,42.35,11.98-1.55,18.59-9.7,23.43-19.99,22.26-47.34,45.11-94.42,66.65-142.09,5.27-11.65,11.38-16.1,24.01-15.1,8.06,.64,10.73,2.2,10.65,10.71-.43,43.87-.23,87.74-.16,131.62,0,4.78-.24,9.52,1.56,14.26,5.71,15.02,19.26,22.88,35.51,20.16,15.05-2.52,25.71-14.62,25.77-30.38,.2-45.36,.05-90.72,.15-136.08,0-3.15-1.5-6.93,1.84-9.32,6.06-4.35,25.65,.9,28.84,7.65,23.44,49.65,46.8,99.33,70.3,148.96,8.46,17.86,24.66,24.82,41.23,18.06,15.9-6.49,22.14-23.71,14.91-42.2-14.7-37.65-29.61-75.22-44.42-112.82q-7.79-19.77,13.17-20.25c21.72-.49,34.19-13.23,34.41-35.19,.03-2.6,.32-5.25-.05-7.8-1.42-9.72,1.57-13.32,12.35-13.08,35.3,.78,70.64,.3,105.96,.29,19.75,0,20.96-1.2,20.96-20.76,0-128.64,.07-257.29-.15-385.93-.01-8.38,.67-12.99,11.04-12.33,12.32,.78,15-2.66,15.15-14.95,.11-9.29,.03-18.59,.02-27.88ZM316.62,583.28c-.8,1.64-1.62,3.29-2.41,4.96-21.53,45.56-43.05,91.13-64.59,136.69-.95,2-1.88,4.06-3.18,5.83-2.67,3.65-6.36,5.41-10.7,3.54-4.66-2.01-6.81-6.02-5.2-10.9,2.89-8.78,6.18-17.45,9.56-26.06,14.09-35.84,28.65-71.51,42.17-107.57,3.24-8.65,7.46-11.73,16.16-10.59,4.75,.62,9.64,.1,14.47,.14,2.52,.02,4.35,.78,3.72,3.95Zm94.02,137.5c0,7.17-.9,14.08-10.07,14.21-9.88,.13-10.69-7.13-10.67-14.73,.06-21.89,.02-43.79,.02-65.68,0-21.89,.37-43.8-.19-65.68-.21-8.16,2.7-10.11,10.21-9.78,6.55,.29,11.01,.04,10.92,9.19-.48,44.16-.23,88.32-.21,132.48Zm156.81-6c1.21,3.09,2.31,6.29,2.88,9.55,.79,4.52-1.1,8.07-5.4,9.89-4.41,1.87-8.09,.36-10.67-3.4-1.66-2.42-2.84-5.19-4.1-7.86-20.32-42.9-40.62-85.8-60.91-128.71q-7.06-14.93,11.25-14.94c10.97-3.57,15.47,3.5,19.57,14.4,15.27,40.56,31.54,80.73,47.38,121.07Zm3.49-179.98c-.37,2.17-.04,4.45-.08,6.68-.21,14.13-2.16,16.21-16.16,16.22-64.68,.05-129.37,.02-194.05,.02-37.92,0-75.84,.02-113.75,0-15.17-.01-17.28-2.17-17.4-17.4-.01-1.49,.23-3.02-.04-4.45-2.06-10.87,3.3-12.62,12.97-12.54,52.41,.43,104.83,.2,157.25,.2s106.32,.2,159.48-.2c8.95-.07,13.42,1.8,11.79,11.48Zm139.98-44.66c.04,10.41-3.18,12-12.52,11.99-198.87-.26-397.75-.26-596.62,.02-9.21,.01-11.72-2.23-11.7-11.54,.31-124.9,.34-249.8-.04-374.7-.03-9.63,2.77-11.37,11.74-11.34,99.62,.33,199.25,.21,298.87,.21,99.25,0,198.5,.12,297.75-.2,9.33-.03,12.55,1.58,12.52,11.97-.43,124.53-.44,249.06,0,373.58Zm25.65-409.81c-.78,2.63-2.15,3.69-4.62,3.76-2.6,.07-5.2,.08-7.8,.08-215.9,0-431.79-.02-647.69,.11-7.81,0-13.07,.27-12.78-10.62,.25-9.32,3.39-10.75,11.62-10.73,108.13,.24,216.27,.16,324.4,.16s216.27,0,324.4,0c11.97,0,15.92,5.62,12.47,17.23ZM443.53,446.68c-3.59-.73-7.47-.94-11.08-.43-11.13,1.56-14.89-1.88-14.8-14.06,.6-88.82,.32-177.65,.32-266.48,0-2.97,.03-5.95-.03-8.92-.16-8.58-4.26-13.01-13.14-12.87-10.03,.16-20.07,.03-30.1,.03-18.17,0-19.84,1.61-19.84,19.5-.02,86.6,0,173.2,0,259.79,0,22.96-.02,22.42-22.48,23.15-9.85,.32-12.3-2.35-12.22-12.24,.5-62.81,.26-125.62,.25-188.43,0-15.79-2.75-18.46-18.96-18.51-7.8-.03-15.61-.01-23.42,0-19,.01-20.59,1.55-20.59,20.03,0,58.35,0,116.7,0,175.05,0,24-.01,23.49-23.67,24.1-9.75,.25-11.44-3.22-11.34-12.05,.45-40.13,.23-80.28,.18-120.42-.02-14.24-2.61-16.75-17.04-16.83-10.03-.06-20.07-.1-30.1,0-12.78,.14-15.65,2.98-15.67,15.88-.07,37.54-.02,75.08-.02,112.61q0,19.85-20.17,20.56c-1.85,.07-3.75,.03-5.54,.42-5.9,1.3-9.06,5.18-8.72,11.12,.31,5.4,3.48,8.99,9.02,9.72,3.3,.43,6.67,.31,10.01,.31,47.95,.02,95.89,.01,143.84,.01,48.32,0,96.63,0,144.95-.01,3.34,0,6.74,.18,10.01-.33,5.34-.83,8.77-4.03,9.12-9.64,.39-6.17-2.99-9.91-8.74-11.08Zm-252.76-.4c-6.1,.06-10.41,.11-10.3-8.52,.48-36.78,.45-73.58,.01-110.36-.1-8.16,3.4-9.3,9.98-8.82,5.76,.42,11.85-1.53,11.43,8.51-.77,18.55-.22,37.15-.22,55.73,0,18.21-.54,36.44,.22,54.62,.4,9.55-4.89,8.79-11.13,8.84Zm97.73,.07c-7.29,.2-10.38-1.27-10.33-9.65,.37-59.44,.35-118.89,.02-178.33-.04-7.95,2.42-9.98,10.08-9.98,7.8,0,11.19,1.39,11.02,10.3-.55,30.08-.21,60.18-.21,90.28,0,29.35-.37,58.71,.22,88.05,.18,9-4.07,9.15-10.8,9.34Zm97.66,.13c-8.87,.23-10.19-3.03-10.16-10.94,.27-86.61,.26-173.23,.02-259.84-.02-7.6,.84-11.1,9.94-11.08,9.14,.03,10.92,3,10.84,11.44-.4,43.12-.19,86.24-.19,129.36s-.25,86.99,.22,130.48c.09,8.61-2.58,10.37-10.67,10.57Zm289-49.78c-1.6-18.37-16.07-32.96-34.45-33.27-39.34-.66-78.71-.68-118.06-.03-19.49,.32-34.46,16.77-35.05,36.37-.27,8.9-.11,17.82-.06,26.73,.14,25.16,15.65,40.87,40.99,41.19,17.45,.22,34.9,.04,52.35,.03,18.56-.01,37.14,.32,55.69-.1,22.8-.52,38.21-15.87,39.02-38.66,.38-10.74,.5-21.58-.44-32.27Zm-20.32,30.08c-.29,12.61-6.56,19.09-19.33,19.28-18.2,.27-36.41,.07-54.62,.08-17.09,.01-34.19,.12-51.28-.02-15-.12-20.74-5.8-21.16-20.89-.21-7.79-.41-15.64,.2-23.4,.91-11.65,6.97-17.89,18.61-18,36.04-.36,72.09-.37,108.12-.03,12.94,.12,19.28,7.49,19.47,20.68,.11,7.43,.16,14.87-.01,22.29Zm-52.86-175.29c-4.09-.01-8.17,0-12.26,0q-25.53,0-25.53-25.36c0-4.09,.01-8.17,0-12.26-.06-16.65-3.23-19.45-19.88-17.57-32.96,3.71-57.71,33.73-56.72,68.8,.93,32.72,29.08,60.96,62.42,62.63,34.68,1.74,64.96-22.85,69.19-56.18,2.11-16.65-.76-20-17.22-20.05Zm-6.43,27.42c-5.54,15.49-24.3,28.4-41.9,28.31-19.73-.1-39.2-15.27-43.47-33.88-4.95-21.61,4.33-42.36,22.92-51.79,6.79-3.44,11.19-4.3,10.32,5.89-.59,7.01-.2,14.11-.09,21.16,.24,15.25,7.97,23.04,23.43,23.46,8.17,.22,16.34,.16,24.51,.03,5.5-.09,6,2.01,4.28,6.83Zm2.13-138.98c-8.23,.19-12.56,3.62-12.56,11.97,0,19.32-.33,38.64,.2,57.94,.34,12.48,8.94,20.17,21.73,20.52,9.28,.25,18.57,.05,27.86,.05,9.29,0,18.58-.08,27.86,.03,8.83,.1,12.75-4.12,12.84-12.93,.43-40.58-37.67-78.5-77.92-77.58Zm47.31,69.52c-5.15-.42-10.37-.08-15.55-.08q-23.26,0-23.26-22.85c0-3.71,0-7.41,0-11.11,0-14.35,1.41-15.26,14.8-8.72,14.63,7.15,24.66,18.43,30.39,33.78,2.58,6.91,1.23,9.6-6.38,8.98Zm-63.46,195.13c13,0,26,.11,39-.04,7.8-.09,14.85,1.34,14.75,10.84-.09,8.65-6.73,10.66-14.08,10.67-26.37,.04-52.74,.04-79.11,0-7.29,0-13.95-1.74-14.1-10.55-.17-9.58,6.7-11.07,14.55-10.98,13,.15,26,.04,39,.04Z"/>
</svg>