<?xml version="1.0" encoding="UTF-8"?>
<svg id="Layer_1" data-name="Layer 1" xmlns="http://www.w3.org/2000/svg" viewBox="0 0 800 800">
  <defs>
    <style>
      .cls-1 {
        fill: none;
      }

      .cls-2 {
        fill: #010101;
      }
    </style>
  </defs>
  <rect class="cls-1" width="800" height="800"/>
  <path class="cls-2" d="M716.42,127.82c-7.52-6.16-14.47-13.01-22.03-19.12-4.6-3.72-4.43-6.31,0-9.95,7.81-6.42,15.16-13.39,22.93-19.85,6.9-5.73,10.93-12.5,7.31-21.36-3.5-8.58-11.17-9.49-19.48-9.45-38.92,.19-77.85,.06-116.78,.11-5.49,0-10.5,.92-10.69-7.67-.13-6.01-5.34-9.35-11.63-8.91-5.92,.42-8.95,4.35-9.65,9.96-.48,3.84-.55,7.75-.56,11.62-.04,42.41-.02,84.82-.03,127.24,0,5,.54,9.65-5.41,12.79-27.82,14.68-55.39,29.84-82.67,44.62-6.09-12.07-11.67-24.01-18.02-35.53-8.29-15.02-23.45-21.41-39.55-17.43-20.99,5.19-35.23,19.62-34.98,36.91,.28,20.07,11.72,35.74,23.01,50.89,3.44,4.61,3.88,6.91,1.27,11.65-5.64,10.23-8.18,21.66-11.24,32.86-1.9,6.96,1.13,11.51,7.35,13.67,6.85,2.38,11.3-1.57,13.74-7.48,1.91-4.62,3.13-9.57,4.19-14.48,3-13.85,10.89-23.08,23.71-29.58,23.92-12.12,47.23-25.42,70.82-38.19,19.93-10.79,39.89-21.51,61.04-32.91-.26,3.69-.07,5.67-.58,7.45-3.91,13.71-12.16,23.91-24.45,31.28-32,19.2-63.79,38.76-95.76,58.02-5.03,3.03-8.74,6.3-8.16,12.77,.44,4.91,3.06,8.79,7.57,9.08,7.89,.51,6.12,4.44,4.51,9.11-4.54,13.15-8.96,26.35-13.45,39.52-.85,2.5-.63,5.75-3.59,6.98-15.47,6.45-30.99,12.78-48.13,19.82,3.98-14.04,7.4-25.51,10.45-37.08,1.63-6.16-1.19-10.85-6.93-12.87-5.72-2.01-11.55-.66-13.46,5.64-6.72,22.17-15.28,44.01-17.93,67.09-2.34,20.42-2.41,41.12-3.15,61.71-.57,16.07-3.46,31.21-11.32,45.69-9.41,17.35-19.07,34.97-25.23,53.59-7.69,23.23-20.98,33.3-45.13,28.15-1.11-.24-2.33-.04-3.5,0-22.34,.97-37.73,16.54-38.18,38.81-.19,9.67-.03,19.36-.03,29.11-5.78-.88-10.73-2.24-15.68-2.27-29.58-.2-59.17-.38-88.75,0-21.08,.27-36.6,15.72-37.69,36.79-.4,7.76-.1,15.56-.1,23.34q0,16.65-16.36,16.66c-8.88,0-20.43-1.82-20.55,10.8-.12,12.54,11.32,11.25,20.3,11.25,209.03,0,418.06,0,627.09-.02,3.5,0,7.06,.2,10.48-.37,6.12-1.01,9.86-4.68,9.53-11.17-.32-6.35-4.01-10.01-10.37-10.36-5.43-.31-10.98-.72-16.33,.01-10.26,1.41-12.98-2.24-12.92-12.66,.45-88.71,.33-177.43,.21-266.14-.03-26.09-14.3-40.46-40.19-40.83-17.51-.24-35.06-.62-52.54,.18-9.06,.41-10.81-2.56-10.75-11.04,.38-55.64,.31-111.28,.08-166.92-.03-8.37,.89-15.89,5.7-23.12,5.97-8.97,7.83-19.79,7.5-30.08-.28-8.66,2.08-19.87-8.05-25.18-9.17-4.8-4.84-12.41-4.47-18.34,.36-5.84,7-3.01,10.73-3.03,38.15-.23,76.29-.24,114.44-.07,9.08,.04,17.68-.74,21.07-10.67,3.09-9.06-1.82-15.47-8.63-21.05Zm-295.95,132.65c-12.41-2.02-13.03-15.39-18.64-24.35-3.76-6-8.17-12.54-2.44-20.15,10.36-13.79,26.11-12.72,34.04,2.47,2.32,4.44,4.59,8.91,6.83,13.38,7.57,15.1-1.07,28.71-19.78,28.65Zm-189.95,493.95c-5.09,7.26-21.69,1.67-33.19,2.16-8.15,.35-16.33,.07-24.49,.07-17.11,0-34.22-.25-51.32,.13-6.36,.14-9.16-1.37-8.78-8.3,.55-10.08,.04-20.21,.3-30.31,.26-10.26,5.6-15.81,16.05-15.83,29.16-.05,58.33-.09,87.49,.01,10.35,.04,15.95,5.6,15.99,15.89,.05,12.36,3.86,27.75-2.04,36.18Zm236.68-397.08c10.08-35.33,26.97-60.91,61-75.17,9.1-3.81,17.14-10.13,25.42-15.14,3.24,2.91,2.16,5.8,2.17,8.34,.07,50.56-.04,101.12,.17,151.68,.03,6.8-1.09,9.98-9.03,11.19-16.88,2.58-26.67,15.3-29.71,35.54v71.86c-13.57,1.37-11.79-7.17-10.83-15.55,2.66-23.37,7.67-46.51,6.95-70.22-6.82-18.9-20.73-33.19-34.38-46.54-17.47-17.09-18.48-32.43-11.75-55.99Zm-19.75,85.06c2.83-7.99,1.68-16.95,6-26.07,11.58,13.97,22.2,26.79,32.83,39.6,4.11,4.95,6.48,10.34,5.6,17.05-2.71,20.71-5.07,41.46-7.95,62.14-.41,2.94,.57,7.91-4.35,8.32-6.16,.5-5-5.37-5.38-8.43-2.1-16.9-4.02-33.86-5.06-50.85-.61-9.99-4.64-17.53-13.28-21.51-9.71-4.47-11.8-10.67-8.41-20.24Zm-9.56,52.85c.88-4.98,1.8-9.83,3.74-14.75,4.04,1.09,5.59,2.88,5.89,6.04,1.55,16.6,3.1,33.21,4.89,49.78,.6,5.53-1.1,8.17-6.91,7.36-.76-.11-1.55,.01-2.33-.02-7.68-.26-19.56,2.27-22.05-1.46-3.63-5.43,6.64-11.27,9.61-17.76,4.26-9.3,5.43-19.34,7.17-29.19Zm-87.9,77.39c25.1-39.76,30.98-83.66,29.6-129.16-.34-11.21,3.43-16.78,13.84-20.15,12.35-3.99,24.24-9.42,37.94-14.87-6.28,33.99-12.25,66.22-18.14,98.46-.94,5.14-3.47,9.39-6.53,13.45-21.99,29.12-43.92,58.28-66,87.34-2.08,2.74-3.26,7.55-9.94,5.37,6.41-13.69,11.38-27.97,19.24-40.43Zm23.63,43.52c-.5,.73-6.43-.47-6.99-1.91-2.2-5.59,3.96-7.86,6.53-11.97,2.32,4.91,3.35,9.68,.47,13.88Zm-7.71,140.61c-17.09-.41-34.19-.14-51.29-.14s-33.43-.27-50.12,.13c-6.64,.16-9.76-.99-9.66-8.72,.41-31.07,0-62.15,.26-93.22,.11-13.21,5.35-18.12,18.62-18.19,27.59-.15,55.18-.14,82.77,0,12.99,.07,18.6,5.53,18.65,18.17,.13,31.07-.22,62.15,.23,93.22,.11,7.68-2.75,8.91-9.45,8.75Zm270.33-298.04c18.84,.03,23.63,4.75,23.64,23.21,.02,43.57,0,87.15,0,130.72,0,44.35-.23,88.71,.2,133.06,.08,8.53-1.82,11.29-10.83,11.14-33.46-.57-66.94-.46-100.41-.05-7.65,.09-10.17-1.96-9.93-9.74,.53-17.49,0-35.01,.24-52.52,.11-7.99-1.88-14.75-10.93-14.48-8.81,.26-10.81,7.08-10.71,15,.23,17.89-.15,35.8,.19,53.69,.11,5.95-1.41,8.07-7.75,8.02-35.03-.29-70.06-.27-105.09-.02-6.35,.05-7.89-2.43-7.87-8.23,.15-54.47-.07-108.94,.21-163.4,.07-14.18,5.26-18.77,19.3-18.83,27.24-.11,54.49-.12,81.73,0,14.28,.06,19.21,5.22,19.31,19.95,.11,15.56,.15,31.13-.02,46.69-.09,8.16,2.72,14.41,11.55,14.09,8.28-.29,10.11-6.64,10.09-14.17-.15-50.19-.1-100.38-.07-150.57,.01-18.36,5.17-23.51,23.59-23.55,24.52-.05,49.04-.04,73.56,0Zm41.7-321.18c-29.92,0-59.85-.19-89.77,.14-7.06,.08-10.45-1.03-10.11-9.3,.67-16.68,.5-33.41,.05-50.1-.18-6.74,2.07-8.47,8.6-8.42,34.18,.3,68.37,.14,102.56,.14,.51,.8,1.02,1.6,1.52,2.4-6.5,5.8-13.1,11.5-19.47,17.43-10.08,9.38-10.15,18.34-.19,27.66,6.41,5.99,13.08,11.71,22.45,20.06h-15.64Z"/>
</svg>