<svg id="Layer_1" data-name="Layer 1" xmlns="http://www.w3.org/2000/svg" viewBox="0 0 354.53 413.71"><title>Android &amp;amp; IOS</title><path d="M247.27,198.74q0,60.82,0,121.66c0,19.84-12.3,33.79-30.95,34q-56.09.51-112.17,0C85.38,354.21,72.77,340,72.76,320q0-121,0-242c0-20.44,12.68-34.53,31.8-34.65q55.45-.36,110.92,0c19.42.11,31.78,13.79,31.79,34.45Q247.29,138.26,247.27,198.74ZM115.16,55.27c-4.72,0-8.65-.17-12.55,0C91.55,55.91,84,64.1,84,75.86q-.09,123,0,246c0,11.75,7.6,20.41,18.66,20.48q57.33.39,114.67,0c11.44-.07,18.81-8.59,18.95-20.8.1-8.42,0-16.85,0-25.27q0-109.37,0-218.74c0-10.92-5-19.47-13.35-21.33-5.54-1.24-11.39-.84-17.45-1.2-.18,3-.35,5-.4,6.91-.28,10.91-6.5,17.9-16.77,18q-28.35.3-56.71,0c-9.86-.13-16.16-7.28-16.42-17.76C115.12,60.21,115.16,58.25,115.16,55.27Zm11.62,0c-1.34,11.76-.27,13.14,9.56,13.15q24.21,0,48.43,0c1.85,0,4.07.36,5.36.22,5.33-.58,4.5-7.78,4.2-12.52,0-.68-2.17-.68-3.37-.69C169.68,55.19,148.38,55.25,126.78,55.25Zm65,271.23c3.57,0,6.88-.56,7-5.42.14-5.19-3.17-6.05-7.09-6.05q-31.42,0-62.85,0c-3.83,0-7.37.59-7.35,5.78s3.64,5.7,7.43,5.7q15.24,0,30.48,0ZM427.21,170.86c0-19.32-14.88-34.07-34.28-34.12q-53-.13-106,0a35.43,35.43,0,0,0-10.77,1.68c-15.05,4.94-23.42,17.27-23.45,34.47q-.1,61.74,0,123.48,0,60.49,0,121c0,2.33,0,4.67.17,7,1.24,18.15,15,32,33.15,32.19q54,.54,108,0c18.86-.2,33.19-15.39,33.2-34.25Q427.31,296.58,427.21,170.86ZM416.28,422.27c0,11.7-5.15,19.34-14.84,21.89a33.26,33.26,0,0,1-8.29.85q-53.23.08-106.48,0c-14.93,0-23-7.92-23-22.37q0-126,0-251.94c0-14.66,8.2-22.6,23.4-22.62q53,0,106,0c15.16,0,23.25,7.89,23.27,22.73q.08,62.73,0,125.46Q416.3,359.29,416.28,422.27Zm-76-262.52c6.82,0,13.64-.06,20.46,0,4.83,0,8.09,2.78,8.37,6.77s-3.13,7.74-8,7.8q-21.21.27-42.41,0c-5.19-.08-7.9-3.28-7.64-7.89.22-4.15,3.19-6.62,8.26-6.67C326.34,159.7,333.33,159.75,340.31,159.75Zm14,260.48a14.37,14.37,0,0,1-14.71,14.35A14.86,14.86,0,0,1,325.38,420a14.31,14.31,0,0,1,14.68-14.35C348.44,405.71,354.41,411.79,354.33,420.23Z" transform="translate(-72.74 -43.15)"/></svg>