<svg id="Layer_1" data-name="Layer 1" xmlns="http://www.w3.org/2000/svg" viewBox="0 0 233.41 445.56"><title>dashboard</title><path d="M132.68,249.05q0-93,0-186.1c0-24.88,11-36,35.58-36q81.51-.06,163,0c23.09,0,34.75,11.71,34.76,35q.06,187.61,0,375.22c0,23.41-12.09,35.29-35.74,35.31q-81,.06-162,0c-23.79,0-35.58-11.69-35.6-35.27Q132.63,343.1,132.68,249.05Zm10.52.06q0,93,0,186.09c0,20,6.8,26.81,26.64,26.83q78.47,0,156.94,0c22.36,0,28.76-6.43,28.76-28.94q0-183.57,0-367.13c0-3,.14-6.09-.14-9.1-1.08-11.76-8.66-19-20.56-19.43-6.74-.26-13.6-.77-20.2.21-3.49.52-6.54,4-9.79,6.11-4.43,2.9-8.8,8.16-13.33,8.29q-40,1.18-80,0c-4.82-.13-11.46-3.66-13.83-7.65-3.62-6.12-7.69-7.54-13.87-7.14-4.71.3-9.45.05-14.18.06-20.21,0-26.47,6.32-26.48,26.68Q143.17,156.57,143.2,249.11ZM227.33,87.69c0-7.35-4.56-11.91-11.88-11.93q-23.58-.08-47.15,0c-7.56,0-12.05,4.54-12.07,12.12q0,22.46,0,44.91c0,7.59,4.47,12.07,12.07,12.13s15.47,0,23.2,0c8,0,16,.06,23.95,0,7.36-.07,11.86-4.59,11.88-11.94Q227.4,110.34,227.33,87.69Zm-7.46,44.44c0,4.26-1,5.28-5.34,5.29q-22.83,0-45.65,0c-4,0-5.16-1.11-5.17-5.09,0-14.72,0-29.44,0-44.17,0-3.47,1.54-5,5-4.93,7.74.08,15.47,0,23.2,0s15.22,0,22.83,0c4,0,5.16,1.11,5.17,5.07Q219.93,110.23,219.87,132.13Zm26.77-46.9c-3.88,0-7.49.62-7.62,5.22-.14,4.82,3.43,5.94,7.61,5.94q45,0,90,0c4.18,0,7.75-1.11,7.62-5.94-.12-4.59-3.73-5.24-7.61-5.22-14.82.07-29.64,0-44.46,0C277,85.25,261.83,85.29,246.64,85.23Zm0,19.39c-3.88,0-7.49.62-7.62,5.22-.14,4.82,3.43,5.94,7.61,5.94q45,0,90,0c4.18,0,7.75-1.11,7.62-5.93-.12-4.59-3.73-5.25-7.61-5.23-14.82.07-29.64,0-44.46,0C277,104.65,261.83,104.69,246.64,104.62ZM244.89,124c-3,0-5.77.62-5.87,5.22-.11,4.82,2.64,6,5.86,5.94q34.67,0,69.33,0c3.22,0,6-1.11,5.87-5.93-.1-4.59-2.87-5.25-5.86-5.23-11.41.07-22.83,0-34.24,0C268.28,124,256.58,124.08,244.89,124Zm99.36,51.54c0-8.49-2.45-10.18-14.79-10.2q-39.46,0-78.94,0-40,0-79.93,0c-10.76,0-13.68,1.9-13.77,8.86q-.18,14.29,0,28.59c.1,6.8,3.41,9,13.77,9.05q79.92.09,159.85,0c10.65,0,13.73-2.28,13.8-9.71C344.31,193.28,344.28,184.42,344.25,175.55Zm-13.52,25.53H170.28V176.16H330.73Zm13.52,209.38c0-8.49-2.45-10.18-14.79-10.2q-39.46,0-78.94,0-40,0-79.93,0c-10.76,0-13.68,1.9-13.77,8.86q-.18,14.3,0,28.59c.1,6.8,3.41,9,13.77,9.06q79.92.08,159.85,0c10.65,0,13.73-2.28,13.8-9.71C344.31,428.19,344.28,419.33,344.25,410.46ZM330.73,436H170.28V411.07H330.73ZM259.16,227.88h-97c-4.66,0-5.47.81-5.48,5.42v53.17c0,4.9.72,5.62,5.65,5.62q24,0,48,0,24.49,0,49,0c4.2,0,5.12-.92,5.12-5.09q0-26.94,0-53.88C264.45,228.77,263.56,227.88,259.16,227.88Zm-1.82,57H164.05c-.2-4.65-.45-7.56,3.67-10s7.8-5.8,11.85-8.48a5.48,5.48,0,0,1,4.3-.5c5.2,1.93,10.3,4.13,15.37,6.4a4.88,4.88,0,0,0,6.2-1.23c4.9-5.08,9.88-10.1,15-15a4.83,4.83,0,0,1,3.8-1c4.28.93,8.52,2.12,12.71,3.42a7.45,7.45,0,0,0,7.12-1.2c4.19-3,8.59-5.7,13.28-8.79Zm-3.26-42.53c-4.19,2.44-8.05,5.45-12.25,7.89a7.69,7.69,0,0,1-5.05.78c-4.52-1-8.95-2.29-13.38-3.62a5.33,5.33,0,0,0-5.93,1.58c-5.31,5.49-10.73,10.88-16.25,16.45-5.88-2.42-11.68-4.65-17.33-7.2a5.57,5.57,0,0,0-6.37.79c-4.37,3.35-8.84,6.56-13.67,10.13V235.09h93.38C258.35,238.64,257,240.65,254.08,242.35Zm85.58,133.1c-2.44,0-4.89,0-7.58,0,0-11.08-.08-21.58.12-32.08,0-1.05,1.57-2.43,2.73-3,5.88-3.08,9.57-9,8.93-15.44-.68-6.74-4.22-11.46-10.71-13.74-6.07-2.12-13.29-.9-16.6,4.61-3.18,5.31-7,4.72-11.52,4-1.29-.21-2.71,0-3.9-.41s-2.85-1.22-3.35-2.29c-3.73-8-10.11-11.89-17.76-10.5-7.95,1.45-12.6,7.37-13,16.32a4.13,4.13,0,0,1-1.61,3c-5.2,2.7-10.53,5.15-15.74,7.65-5.59-5.31-11.71-7.12-18.66-4.09A14.63,14.63,0,0,0,221.67,343c-.3,7.3,3.32,12.44,9.92,15.59a3.51,3.51,0,0,1,1.73,2.51c.17,4.58.08,9.18.08,14.37-2.72,0-4.93,0-7.14,0-2.59,0-4.53,1-4.6,3.72-.08,2.92,1.91,4.1,4.65,4.17.79,0,1.58,0,2.37,0H336.74c1.06,0,2.4.39,3.1-.11,1.52-1.1,3.55-2.49,3.85-4.05C344.14,376.82,342.13,375.48,339.66,375.45ZM229.46,343.9a7.89,7.89,0,0,1,15.77-.23,7.89,7.89,0,1,1-15.77.23Zm49.31,31.38H241.29c0-5-.1-9.78.09-14.59,0-.81,1.17-1.88,2.05-2.31,6.44-3.13,9.56-8.23,9.79-15.37a5.13,5.13,0,0,1,2.26-3.44,74.74,74.74,0,0,1,7.41-3.63c7.64-3.66,7.66-3.68,14.55,1a3.14,3.14,0,0,1,1.27,2.19C278.79,351.06,278.77,363,278.77,375.28ZM274.94,322a7.8,7.8,0,0,1,15.59-.2,7.8,7.8,0,1,1-15.59.2Zm49.25,53.32h-37a13.76,13.76,0,0,1-.45-2.31c0-10.92-.11-21.83.08-32.75a4.94,4.94,0,0,1,2.43-3.72c3-1.55,6-4,7.19-7,.8-2.06,2.41-2.39,4.4-2.16,3.13.36,6.31.43,9.39,1A4.53,4.53,0,0,1,313,330.8a17.08,17.08,0,0,0,9.09,9.86,3.59,3.59,0,0,1,2,2.38C324.24,353.67,324.19,364.3,324.19,375.27ZM320.25,326A7.89,7.89,0,1,1,336,326a7.89,7.89,0,0,1-15.77,0Zm-37.61-91c-2.31,0-4.46.62-4.54,5.21-.08,4.83,2,6,4.53,6q26.82,0,53.62,0c2.49,0,4.62-1.11,4.54-5.94-.07-4.59-2.22-5.24-4.53-5.22-8.83.07-17.65,0-26.48,0C300.73,235,291.69,235.08,282.64,235Zm0,19.39c-2.31,0-4.46.62-4.54,5.22-.08,4.82,2,5.94,4.53,5.94q26.82,0,53.62,0c2.49,0,4.62-1.11,4.54-5.93-.07-4.6-2.22-5.25-4.53-5.23-8.83.07-17.65,0-26.48,0C300.73,254.44,291.69,254.48,282.64,254.41Zm-1,19.39c-1.78,0-3.44.62-3.5,5.22-.06,4.82,1.57,6,3.49,5.94q20.64,0,41.29,0c1.92,0,3.56-1.11,3.5-5.93-.06-4.59-1.71-5.25-3.49-5.23-6.8.07-13.6,0-20.39,0C295.53,273.83,288.56,273.87,281.6,273.8ZM158.69,329c-1.78,0-3.44.62-3.5,5.22-.06,4.82,1.57,5.94,3.49,5.94q20.65,0,41.29,0c1.92,0,3.56-1.11,3.5-5.93-.06-4.59-1.71-5.25-3.49-5.23-6.8.07-13.6,0-20.39,0C172.62,329,165.65,329.07,158.69,329Zm0,19.39c-1.78,0-3.44.62-3.5,5.22-.06,4.83,1.57,5.95,3.49,5.94q20.65,0,41.29,0c1.92,0,3.56-1.11,3.5-5.93-.06-4.59-1.71-5.25-3.49-5.23-6.8.07-13.6,0-20.39,0C172.62,348.42,165.65,348.46,158.69,348.39Zm-.81,19.39c-1.37,0-2.64.62-2.69,5.22-.05,4.83,1.21,5.95,2.69,5.94q15.9,0,31.8,0c1.47,0,2.73-1.11,2.69-5.93-.05-4.59-1.32-5.25-2.69-5.23-5.23.07-10.47,0-15.7,0S163.25,367.85,157.88,367.78ZM200.7,128.47a14.56,14.56,0,0,0,6.16-3,4.53,4.53,0,0,0,1.69-3.9,29.34,29.34,0,0,0-.63-4.2,15.62,15.62,0,0,0-4.27-7.27,1.52,1.52,0,0,0-2-.24,1.81,1.81,0,0,0-.54,2.81,7.59,7.59,0,0,0,.59.78c2.23,2.36,2.43,3.16,2.8,6.37a2.81,2.81,0,0,1-1.5,3c-.33.19-.66.38-1,.55a22.26,22.26,0,0,1-7.69,2,16.42,16.42,0,0,1-7-.46c-2.17-.44-5.29-1-7.13-2.35a2.47,2.47,0,0,1-1.12-2.41c.29-3.36,1.52-5.28,3.86-7.73.75-.79-.19-1.73-.84-2.36s-1.57-.59-2.39.28A16.64,16.64,0,0,0,175,121.53a4.21,4.21,0,0,0,1.45,3.61,15.55,15.55,0,0,0,3.48,2.27,29.22,29.22,0,0,0,11.53,2.18A35.33,35.33,0,0,0,200.7,128.47Zm-8.95-38.55a10.68,10.68,0,1,0,10.71,10.69A10.7,10.7,0,0,0,191.75,89.92Zm0,16.45a5.78,5.78,0,1,1,5.76-5.74A5.81,5.81,0,0,1,191.79,106.37Z" transform="translate(-132.67 -26.91)"/></svg>