<svg id="Layer_1" data-name="Layer 1" xmlns="http://www.w3.org/2000/svg" viewBox="0 0 800 800"><defs><style>.cls-1{fill:none;}.cls-2{fill:#020202;}</style></defs><title>event list</title><rect class="cls-1" width="800" height="800"/><path class="cls-2" d="M779.48,148.87c-.06-34.85-21-59.16-55.34-64.15-6-.88-8-3.14-8-9,.07-8.28-.23-16.6-3.61-24.45a50.78,50.78,0,0,0-56.08-30c-23.93,4.55-41.36,24.67-40.76,49.44.28,11.45-3.62,13.84-14,13.36-17-.8-34-.72-51,0-9,.37-11.19-2.4-11.22-11.26-.09-24.11-14-43.21-34.78-49.86-33.53-10.73-66.63,13.44-66.65,49.4,0,9.44-2.64,12.11-11.88,11.73-17.36-.72-34.8-.71-52.16,0-9.27.37-12.28-2.27-12-11.82.61-20.78-8.92-36.66-27.34-46.2-34.19-17.72-72.46,6.41-74,46.87-.33,8.83-2.35,11.6-11.3,11.16-15.37-.76-30.81-.21-46.23-.21-17.43,0-17.43,0-18.48-17a49.58,49.58,0,0,0-47.08-46.16C111,19.44,86.79,37.71,85.1,63.06c-.95,14.25-3.5,20.68-19.39,24.12-28.95,6.28-45.23,32-45.23,64.26q-.07,278.16,0,556.33c0,46.71,25.64,72.13,72.73,72.13H400.3q154.74,0,309.48,0c44,0,69.73-25.82,69.74-70q0-169,0-338.06Q779.52,260.38,779.48,148.87ZM641.22,67.35c1.36-14.65,13.48-22.38,27.88-21,12.5,1.21,21.46,11.12,21.89,25.11.39,12.62.08,25.26.08,37.89,0,12.23.3,24.48-.07,36.7-.45,14.72-10.42,25.45-23.72,26.29-12.66.8-25.07-8.26-26.18-22.31A482.75,482.75,0,0,1,641.22,67.35ZM463.94,70.29c.24-14.52,10.9-24.17,25.1-24.09s24.16,9.89,24.53,24.65c.32,13,.06,26,.07,39,0,12.23.22,24.46-.06,36.67-.34,14.92-11.36,26-25.1,25.82a25.17,25.17,0,0,1-24.57-25.19Q463.34,108.75,463.94,70.29ZM286.48,72.42c.22-16.19,10.6-26.38,25.64-26.2,14.51.18,23.83,9.87,24.35,26.07.39,12.21.08,24.44.09,36.66,0,11.83.25,23.67-.05,35.49-.44,17.23-10.76,28.35-25.43,27.93C297,172,286.62,160.6,286.45,144.58,286.21,120.53,286.15,96.47,286.48,72.42Zm-176.9-.93c.5-15.1,10.13-24.88,24.09-25.26,14.11-.39,25.49,8.65,26,23.4.93,26,.86,52.09.06,78.1a25.24,25.24,0,0,1-25.4,24.64c-13.84-.18-24-11-24.86-26.31,0-.78,0-1.57,0-2.36V108.18h0C109.5,96,109.17,83.71,109.58,71.49ZM46.08,210.17c1-21.7.1-43.48.4-65.22C46.72,128,60,113,76.3,109.83c5.71-1.11,8,.08,7.85,6.2-.27,11.07-.37,22.16.12,33.21,1.24,27.88,23.59,48.71,51.28,48.18,27.3-.52,48.27-21.22,49.22-48.9.37-10.66.31-21.35.08-32-.13-5.6,1.93-7.65,7.6-7.58,20.16.23,40.32.35,60.47-.06,6.87-.14,7.55,3,7.63,8.58.19,13-1.25,26.06,1.5,39,5.66,26.73,28,43.18,55.46,40.51,25.17-2.44,44.23-23.58,44.7-49.75.18-9.88.25-19.77,0-29.65-.16-5.64.91-8.79,7.66-8.67,20.15.33,40.31.26,60.47,0,5.52-.07,7.82,1.54,7.6,7.35-.36,9.48-.16,19-.08,28.47.24,30,22.13,52.63,50.85,52.71,28.25.08,50-21.78,51-51.42q.48-14.82,0-29.65c-.2-5.74,2-7.52,7.54-7.46,20.16.24,40.32.32,60.47,0,6.61-.12,8,2.67,7.78,8.47-.32,10.27-.22,20.56,0,30.84.53,27.12,21.86,48.42,49.11,49.2,26.9.78,48.89-18.5,51.05-45.45.91-11.4.79-22.91.6-34.36-.11-6.8,1.64-9.3,8.94-7.54,15.13,3.65,28,16.92,28.4,32.47.7,24.49.23,49,.46,73.53,0,5.16-1.87,6.93-7,6.74-8.29-.32-16.6-.08-24.9-.08H399.62c-113.44,0-226.87-.14-340.31.23C49.27,223,45.58,221.12,46.08,210.17Zm665.79,544.2q-311.83-1-623.69,0c-22.31.08-42.39-17.21-42.24-43.06.88-150.24.59-300.49.12-450.74,0-11.32,3.78-12.49,13.37-12.46q170.74.45,341.49.19,170.74,0,341.49-.21c9.12,0,11.76,2.07,11.74,11.55-.32,150.65-.59,301.29.12,451.93C754.4,737.77,735.09,754.44,711.87,754.37ZM223.08,603.16c-.39-15.95-9.42-25.45-25.05-25.87-25.62-.7-51.29-.73-76.9.09-15.36.49-24.34,10.8-24.53,26.33q-.45,36.69,0,73.4c.23,16.33,10.42,26.24,26.85,26.64,11.82.3,23.66.06,35.5.07,12.23,0,24.46.18,36.69,0,16.79-.31,27-9.35,27.41-26C223.72,652.89,223.68,628,223.08,603.16Zm-32.74,75.16c-10.23-.32-20.48-.09-30.72-.09s-20.49-.19-30.73.08c-5.09.13-6.93-1.7-6.88-6.84q.3-30.74,0-61.48c-.06-5.58,1.76-7.62,7.45-7.55,20.48.24,41,.19,61.45,0,5.06,0,7,1.78,6.94,6.89-.18,20.49-.22,41,0,61.48C197.91,676.46,196,678.5,190.34,678.32Zm32.5-380.63c-.45-14.86-9.4-23.35-24.28-23.72q-38.43-.95-76.89,0c-15.94.37-24.8,10.47-25.12,26.78-.23,11.83,0,23.68,0,35.51,0,12.24-.21,24.47.06,36.7.36,16.45,10.2,27,26.35,27.23q37.28.63,74.55,0c14.67-.27,24.89-9.58,25.35-24.34Q224.07,336.78,222.84,297.69Zm-25,68.38c.08,5.86-1.26,8.54-7.84,8.42-20.15-.37-40.31-.29-60.46,0-5.55.07-7.65-1.64-7.57-7.39.26-20.16.32-40.33,0-60.48-.12-6.55,2.51-8.07,8.41-7.86,9.86.35,19.75.1,29.63.1s19.77.28,29.63-.11c6.11-.23,8.35,1.74,8.25,8.07C197.55,326.54,197.6,346.31,197.86,366.07Zm25,83.72c-.49-15.64-10.4-23.86-26.41-24.18-11.84-.23-23.68,0-35.52,0-13,0-26-.27-39.06.09-15.26.44-25,10.05-25.26,25.45q-.59,37.29,0,74.61c.25,16.09,11,26.26,27.18,26.4q36.1.33,72.21,0c15.22-.12,26.24-9.24,26.76-24.22C223.67,501.9,223.68,475.81,222.88,449.79Zm-34,76.58c-19.33-.33-38.69-.5-58,.06-7.84.23-9.26-2.91-8.92-9.7.47-9.45.11-19,.11-28.42,0-9.87.25-19.75-.09-29.61-.19-5.77,1.07-8.56,7.71-8.44q30.2.57,60.39,0c6.63-.12,7.84,2.65,7.76,8.44-.25,19.74-.38,39.49.06,59.22C198.06,525,195.3,526.49,188.9,526.37Zm250,.1q-72.27,0-144.54,0c-3.94,0-8,.14-11.77-.78-5.59-1.37-8.38-5.59-8.57-11.36s2.28-10.14,7.77-11.93a34.42,34.42,0,0,1,10.5-1.27q145.73-.11,291.45,0c3.52,0,7.25,0,10.51,1.15,5.92,2,8.61,6.74,8,13-.58,5.64-3.54,9.75-9.34,10.73a72.58,72.58,0,0,1-11.81.52Q510,526.5,438.89,526.47Zm-1.38-151.9q-71.65,0-143.31,0c-3.55,0-7.22.36-10.62-.4-6.69-1.49-9.91-6.27-9.52-13,.35-6.24,3.62-10.38,10.2-10.95,3.93-.33,7.89-.34,11.83-.34q142.13,0,284.25,0c3.16,0,6.31.06,9.47.1,8.22.13,12.71,4.53,12.38,12.52-.32,7.8-4.9,12.16-13.08,12.09-4.74-.05-9.48,0-14.21,0Zm.68,303.88q-73.44,0-146.89,0c-6.6,0-12.79-.39-16.15-7.23-3.64-7.4.23-15.59,8.43-17.29a58.49,58.49,0,0,1,11.78-.72q142.75-.06,285.51,0c2.37,0,4.74,0,7.1.06,8.09.18,14.35,3.22,14.27,12.19-.08,9.14-5.74,13-14.78,13Q512.84,678.34,438.19,678.45ZM393.7,476.33c-34,0-67.91-.07-101.86.05-9.18,0-16.88-1.82-17.79-12.69-.73-8.72,5.76-13.45,18.17-13.46q101.86-.08,203.73,0c9,0,17,1.58,17.72,12.7.58,8.9-5.66,13.4-18.11,13.41Q444.62,476.39,393.7,476.33Zm1.35-177.73q50.31,0,100.61,0c12.73,0,18.74,4.38,18,13.33-.91,11.18-9,12.31-17.95,12.3q-101.8-.11-203.59-.06c-12.62,0-18.82-4.49-18.07-13.33.94-11.13,9-12.32,18-12.3C326.4,298.65,360.72,298.6,395.05,298.6Zm-1.76,329.34c-33.94,0-67.87-.09-101.8.06-9.27,0-17.3-1.89-17.35-12.87-.05-11.16,8.37-12.83,17.4-12.83q102.39,0,204.78,0c9.06,0,17.38,1.61,17.27,12.88-.1,11.06-8.07,12.86-17.32,12.82C461.94,627.85,427.61,627.94,393.29,627.94ZM621.84,476.33c-21.71,0-43.41-.05-65.11,0-9.32,0-17-2.44-16.89-13.4.08-10.4,7.75-12.72,16.39-12.73q65.7-.09,131.39,0c8.84,0,16.06,3.07,15.72,13.38-.34,10.11-7.46,12.77-16.4,12.73C665.24,476.26,643.54,476.33,621.84,476.33Zm-.08,151.61c-21.68,0-43.37-.08-65.06,0-9.29,0-17-2.08-16.87-13.24.14-10.59,7.93-12.42,16.51-12.42q65.07,0,130.13,0c9.15,0,17.19,2,16.86,13.26-.29,10.26-7.6,12.5-16.5,12.43C665.14,627.83,643.45,627.94,621.76,627.94Zm-1-303.73c-21.29,0-42.58,0-63.87,0-9.17,0-17.21-1.84-17-13.08s8.55-12.58,17.52-12.57q64.47.06,128.93,0c9.22,0,17.24,1.92,17,13.07s-8.45,12.67-17.54,12.62C664.11,324.13,642.42,324.21,620.74,324.21Z" transform="translate(0)"/></svg>