<svg id="Layer_1" data-name="Layer 1" xmlns="http://www.w3.org/2000/svg" viewBox="0 0 334.52 380.18"><title>firebase notification</title><path d="M282.06,109.77c26.72,8.75,47.83,24.3,63.1,47.5,12.63,19.19,18.56,40.4,18.95,63.27.31,18-.39,36.11,1.18,54,3.31,37.62,18.6,70.33,43.64,98.54a64.13,64.13,0,0,1,4.67,5.37c5.21,7.39,1.19,16.53-7.79,17.77a43.53,43.53,0,0,1-5.94.17c-30.3,0-60.6.08-90.91-.08-4,0-5.74,1.13-7,5.13-7.5,24-28.66,39.39-53.42,39.34a55.07,55.07,0,0,1-52.89-39.24c-1.38-4.42-3.47-5.23-7.53-5.22q-46,.21-92.1,0a19.6,19.6,0,0,1-9.57-2.23c-6.23-3.71-6.26-10.95-1.14-17.43,7.72-9.76,16-19.24,22.56-29.73,17-27,25.2-56.85,25.61-88.83.22-16.81-.45-33.74,1.28-50.4,4.31-41.35,26.3-71.11,62.69-90.52,4-2.13,8.17-4.34,12.53-5.29,5.19-1.13,5.48-4,5.67-8.42.34-7.61.22-15.67,2.72-22.68,5.35-15,21.28-22.62,37.69-19.46,14.65,2.81,25.8,16.48,26,31.91C282.11,98.57,282.06,103.91,282.06,109.77ZM118.88,373.65H380.25c-1.14-1.78-1.83-2.94-2.61-4-18.09-25.88-30.3-54.29-33.6-85.71a518.46,518.46,0,0,1-2.32-62.2c.89-55.07-48-100.94-105.1-93.65-39.6,5.05-74.79,38.3-79.28,77.8-1.85,16.24-1,32.79-1.29,49.21-.39,26.13-4.37,51.65-15,75.61C134.49,345.38,126.31,359.37,118.88,373.65Zm160.48,23.2H218.18c3.74,13,16.26,21.48,30.94,21.43C263.35,418.23,275.9,409.46,279.36,396.85ZM259.64,105c-.73-7.23,2.84-15-4.78-20.3a10.08,10.08,0,0,0-12.2,0c-7.59,5.33-4,13.08-4.72,20.26Zm153,82.45c-6.37-32.71-21.56-60.9-45-84.56-2.13-2.16-6.13-4.28-8.73-3.75-3.58.72-7.79,3.26-9.68,6.3-2.62,4.24-.86,8.92,2.46,13,7.77,9.69,16.08,19.12,22.55,29.65,13.21,21.5,18.86,45.44,19.47,70.55.13,5,1.45,9,6,11.33,8.77,4.53,16.77-2.25,16.1-18.51C415.26,206.6,414.52,196.92,412.67,187.45ZM81.42,217.9c-.07,7.71,4.63,13.42,11.14,13.55s10.86-5,11.23-13.22a173.82,173.82,0,0,1,1.63-19.49c4.86-30.53,17.83-57.09,39.39-79.39,5.83-6,6.11-13.17,1-17.78s-11.41-3.63-17.2,2.43c-29.82,31.2-45.25,68.5-47.21,111.52Z" transform="translate(-81.42 -60.61)"/></svg>