<svg id="Layer_1" data-name="Layer 1" xmlns="http://www.w3.org/2000/svg" viewBox="0 0 289.28 415.24"><defs><style>.cls-1{fill:#fff;}</style></defs><title>logo</title><path class="cls-1" d="M265.48,180.54c0,13.3.25,24.73-.11,36.15-.18,5.44,1.87,6.89,7,6.86,28.7-.18,57.41-.22,86.11,0,6,0,7.6-2.2,7.53-7.87-.53-46.12-1-92.25-1.06-138.37,0-6.7-3.61-6.41-8.1-6.41q-87.06,0-174.14,0c-13.61,0-27.22.21-40.82-.1-5.56-.12-7.54,1.86-7.47,7.36.2,17-.08,34,.14,51,.06,5.1-1.42,7.46-6.85,7.1a132.46,132.46,0,0,0-15.94,0c-4.84.26-6.14-1.78-6.11-6.39.17-27.21.16-53.43,0-80.64,0-4.4,1.32-7,5.83-6.92,9.56.26,19.13.08,28.7.08H384.51c8.9,0,9.88,0,9.93,9.18.49,95,0,190,.5,285.06,0,8.42.06,8.43-8.44,8.45-4.68,0-9.38-.29-14,.09-5.14.43-6.53-1.56-6.49-6.56.2-26.15-.12-52.3.16-78.45.07-6.3-1.59-8.44-8.19-8.36-27.85.35-55.71.14-83.57.15-8.83,0-8.85,0-8.86,8.61,0,25.93-.13,51.87.11,77.81.05,5.35-1.64,7.17-6.91,6.79a150.32,150.32,0,0,0-16.58,0c-3.94.16-5.19-1.5-5.18-5.27.07-37.63,0-75.26.12-112.89a12.67,12.67,0,0,1,1.89-6.55C247.3,207.66,255.85,195,265.48,180.54Z" transform="translate(-105.66 -42.37)"/><path class="cls-1" d="M105.78,457.61H394.63V363.2H364.76v64.28H135.61V207.53l48.92,74.19,81.55-131.21c-8.26,0-15.24.27-22.18-.1-4.21-.23-6.44,1.37-8.63,4.83-15.42,24.43-31.07,48.72-46.67,73-1.2,1.87-2.54,3.64-4.27,6.11L133.5,154.23H105.78Z" transform="translate(-105.66 -42.37)"/><path class="cls-1" d="M249.59,377.67a16.5,16.5,0,1,0,.48,33c9.44-.09,16.33-7.18,16.23-16.71A16.1,16.1,0,0,0,249.59,377.67Z" transform="translate(-105.66 -42.37)"/></svg>