<svg id="Layer_1" data-name="Layer 1" xmlns="http://www.w3.org/2000/svg" viewBox="0 0 432.53 340.99"><title>multi language</title><path d="M318,181.94h8.64c24.78,0,49.55-.07,74.33,0,38.12.14,64.51,26.58,64.62,64.68q.09,32.1,0,64.19c0,36.57-20.18,60.19-56.26,66-.87.14-1.72.37-3.56.78.34,5.05.65,10.12,1.06,15.18.21,2.69.8,5.35.9,8,.46,13.49-10.19,21.54-22.87,16.82-17.51-6.52-31.27-17.77-39.83-34.6-2.25-4.43-4.74-6.14-9.76-6.05-17.56.31-35.14.16-52.7.11-38.79-.12-64.77-25.94-65.17-64.81-.12-12.59,0-25.17,0-38.89h-9.75c-15.09,0-30.18.15-45.27-.09-4.16-.06-6.46,1.21-8.34,5-8.4,16.92-22,28.23-39.34,35.21-13.85,5.58-25.16-3-23.74-18,.48-5.14,1-10.29,1.75-15.4s-1.06-6.87-6.29-7.67c-26.46-4-43.44-19.33-51.1-44.8a57.92,57.92,0,0,1-2-16q-.31-35.81-.07-71.62c.2-34,25.84-61.16,59.77-61.56q82.43-1,164.86,0c34.05.41,59.64,27.63,60.15,62.16C318.19,154.13,318,167.61,318,181.94ZM217.41,256.27c0-3.69-.43-6.44.08-9,2.07-10.49,3.83-21.11,6.92-31.32,1.86-6.17,7.13-7.93,11.68-5.52,5.43,2.89,5.34,7,3.64,12.57-2.45,8-4.67,16.47-4.92,24.79-.67,22-.28,44.12-.21,66.19.08,26.88,18.91,45.77,45.89,46,19.36.13,38.74.56,58.07-.18,10.48-.4,16.36,2.64,20.35,12.91,5.41,13.93,16.35,23.2,31.45,28.68-.64-10-1.5-19.13-1.73-28.25-.26-10.46,2.55-13.57,13.14-13,25.27,1.32,47.92-20.36,46.91-47.34-.83-22-.87-44.14,0-66.17A45.89,45.89,0,0,0,401.28,199c-24.74.74-49.53.15-74.29.15-12.16,0-24.32.13-36.47-.1-6.24-.11-10.34-3.91-9.82-8.8.6-5.65,4.37-8.07,9.77-8.22,3.3-.09,6.6,0,10.36,0,0-13.89,0-26.7,0-39.52-.1-28.29-18.6-47-46.89-47-52.23-.1-104.47.48-156.69-.23-27.37-.38-48.15,21.19-47.47,47.63.55,21.37.76,42.79-.05,64.15-1.14,30.12,22.36,51.22,48.42,49.41,8.84-.61,12.28,3.25,12,12.27-.29,9.38-1.29,18.74-2.05,29.05,2.64-1.1,4.69-1.8,6.6-2.78,12.73-6.56,21.91-16.45,26.88-29.9,2.38-6.45,6.46-9.35,13.29-8.82,3.58.28,7.2,0,10.81,0Zm-78.69-50.08c-4.72,3.44-9.93,6.18-14.69,9.56-4.24,3-5.6,7.17-2.49,11.72,2.84,4.17,6.87,4.72,11.29,2.43a37.57,37.57,0,0,0,4-2.41c10.45-7.3,20.88-14.63,30.68-21.51,11.51,7.89,22.9,15.86,34.48,23.54,4.63,3.07,9.21,2.35,12.19-2.6,2.87-4.78.88-8.65-3.33-11.55-2.4-1.66-5.09-2.92-7.45-4.63-8.11-5.89-16.15-11.9-23-17,6.33-13.1,12.74-24.46,17.3-36.52,2.31-6.15,3.62-10.29,11.32-9.63,4.53.39,7.46-3.21,7.62-7.83s-2.75-7.49-7.3-8.25a46.75,46.75,0,0,0-7.4-.36c-8.26,0-16.53,0-25.68,0,0-4.07,0-7.37,0-10.67,0-5.69-2.37-10-8.38-10.21-6.23-.19-8.25,4.51-8.67,10-.26,3.47-.33,7-.51,10.94-10.21,0-19.63-.1-29,0-7.09.11-10.87,3.21-10.83,8.45s3.86,8.26,10.89,8.29c15.08.08,30.15,0,45.23.05,2.38,0,4.75.21,9.36.43l-16.06,32c-4.19-6.94-7.17-11.9-10.17-16.86-3.44-5.66-7.79-7.46-12.17-4.74-5.32,3.3-5.33,8-2.53,12.87,3.87,6.8,8,13.45,12.53,21C150.28,197.11,144.65,201.86,138.72,206.19Zm202.06,24.23c8.06.08,11.66,2.47,14,10q11.17,36,22.1,72.17c2,6.74-.09,9.95-7.52,12.09-6.51,1.87-9.6.19-11.56-6.32-3.88-12.84-3.88-12.84-17.31-12.84h-.68c-12.53,0-12.53,0-16,11.9-2.15,7.45-5.28,9.28-12.23,7.16-7.58-2.32-9.23-5.3-6.88-13q10.68-35.13,21.51-70.22C328.88,232.71,332.18,230.34,340.78,230.42Zm-9.23,58.52h18.22c-3-10.81-5.71-20.64-8.43-30.47l-1.55.12C337.06,268.61,334.34,278.64,331.55,288.94ZM246.75,196c.08,4.95,2.69,8,7.76,8.39a7.91,7.91,0,0,0,8.64-8.17c-.22-5.06-3.19-7.62-7.45-8.11C250.54,188,246.67,191.52,246.75,196Z" transform="translate(-33.11 -78.01)"/></svg>