<svg id="Layer_1" data-name="Layer 1" xmlns="http://www.w3.org/2000/svg" viewBox="0 0 325.28 413.49"><title>Own Sales Orders</title><path d="M412.51,139.33c0-19.39-11.41-35.35-29.66-40.83-5.24-1.58-11-1.65-16.58-1.78-10.7-.26-21.41-.08-32.6-.08,0-4.57,0-8.21,0-11.85,0-10.07-2.8-12.9-13.08-13-7.53-.1-15.09.26-22.59-.2-2.19-.14-5.27-1.87-6.2-3.74C283,50.22,268.43,42.63,249.44,42.42c-18.72-.2-32.73,8-41.51,24.53-1.87,3.53-3.89,5-7.91,4.86-7.53-.29-15.08-.24-22.61,0-8.3.25-11.15,3.34-11.24,11.55,0,4.06,0,8.12,0,13.3-12.33,0-23.71-.08-35.09,0-26.15.23-43.69,17.84-43.78,43.92-.06,17,0,34,0,51q0,111.75,0,223.5c0,19.26,9.77,32.88,28.22,38.53a59.7,59.7,0,0,0,17.18,2.18q117.24.19,234.48.05a79.18,79.18,0,0,0,12.22-.85A39.06,39.06,0,0,0,412,423.51a39.71,39.71,0,0,0,.5-7.07Q412.54,277.89,412.51,139.33ZM180.08,88.52c9.56,0,18-.16,26.45.06,7.24.18,11.32-3.28,13.46-10,4.81-15.05,16-23.93,29.65-23.81,13.28.12,23.93,8.61,28.45,23.28,2.3,7.46,6.85,10.79,14.56,10.52,7.06-.24,14.13.15,21.19-.11,4.46-.16,6.34,1.2,6.21,6-.28,10.62-.22,21.26,0,31.88.08,4.27-1.41,5.74-5.72,5.73-42.85-.12-85.7-.07-128.55-.07-2.93,0-5.75.19-5.72-4.16C180.14,115.13,180.08,102.43,180.08,88.52Zm216.11,50.27q0,137.86,0,275.74c0,16.86-7.11,24.08-24.2,24.09q-122,.09-244,0c-17.1,0-24.15-7.17-24.15-24V138.19c0-18.74,8.15-26.78,27.09-26.8,10.75,0,21.5,0,33.29,0,0,8.13-.1,15.16,0,22.19.15,9,4,13,12.91,13q72.75.1,145.48,0c8.87,0,12.88-4.22,13-13.05.09-7,0-14,0-21.37a33.78,33.78,0,0,1,4.86-.76c11-.06,22-.18,33.06,0,12.54.22,21.54,8.88,22.57,21.39C396.29,134.81,396.19,136.8,396.19,138.79ZM350.38,302.1c7.94,0,12.59-3.21,12.74-8.46s-4.46-8.56-12.33-8.75H349.5q-52.9,0-105.81,0a31.49,31.49,0,0,0-6.26.68,8.86,8.86,0,0,0-6.62,7.16c-.25,2.59,2.1,6.93,5.14,8a27,27,0,0,0,8,1.31c17.63.1,35.26.05,52.9.05C314.69,302.12,332.53,302.16,350.38,302.1Zm1.13,78.52c5.91,0,10.13-1.79,11.42-7,1.38-5.62-3.79-9.93-11.94-9.94q-53.88-.06-107.76,0c-8.33,0-13.06,3.28-12.9,8.74.15,5.25,4.59,8.16,12.76,8.18,17.86,0,35.71,0,53.56,0C314.94,380.59,333.22,380.53,351.51,380.62Zm.17-157.28c7.05,0,11.32-3.33,11.45-8.51s-4.42-8.94-11.67-9q-54.52-.06-109,0c-7.49,0-12,3.28-12.1,8.57-.13,5.49,4.43,8.88,12.32,8.9,18.06.05,36.13,0,54.19,0C315.12,223.36,333.4,223.41,351.68,223.34Zm-198.2-21.81c-4.41-4.09-10.11-6.11-13.86-2.37-3.47,3.46-3.88,7.49-.23,11.46,6.84,7.42,13.94,14.63,21.17,21.67,3.54,3.45,8.18,3.73,11.74.46,13.61-12.49,27.14-25.11,40.12-38.25,2-2,2.31-5.78.86-8.41a8.9,8.9,0,0,0-9.37-3.88c-2.52.67-5.83,3.32-8.09,5.39-9.63,8.84-19,19-28.81,28.27C162.05,211,157.89,205.61,153.48,201.53Zm0,78.9c-4.41-4.09-10.11-6.11-13.86-2.36-3.47,3.45-3.88,7.48-.23,11.45,6.84,7.43,13.94,14.63,21.17,21.68,3.54,3.45,8.18,3.72,11.74.45,13.61-12.49,27.14-25.11,40.12-38.24,2-2,2.31-5.79.86-8.42a8.89,8.89,0,0,0-9.37-3.87c-2.52.66-5.83,3.32-8.09,5.39-9.63,8.83-19,18.94-28.81,28.27C162.05,289.85,157.89,284.51,153.48,280.43Zm.48,79c-4.41-4.09-10.11-6.11-13.86-2.36-3.47,3.46-3.88,7.49-.23,11.45,6.84,7.43,13.94,14.63,21.17,21.68,3.54,3.45,8.18,3.72,11.74.46,13.61-12.5,27.14-25.11,40.12-38.25,2-2,2.31-5.79.86-8.41a8.88,8.88,0,0,0-9.37-3.88c-2.52.66-5.83,3.32-8.09,5.39-9.63,8.83-19,18.95-28.81,28.27C162.52,368.84,158.37,363.49,154,359.41Z" transform="translate(-87.26 -42.42)"/></svg>