<svg id="Layer_1" data-name="Layer 1" xmlns="http://www.w3.org/2000/svg" viewBox="0 0 360.34 398.05"><title>order details</title><path d="M126.09,145.71c0-12.79-.1-24.57,0-36.35.12-11.57-.3-23.22.93-34.69,1.51-14.11,13-23.58,27.24-23.87,9.46-.19,18.92,0,28.38,0H397c21.5,0,32.59,11.21,32.59,32.89q0,166.08,0,332.15c0,21.58-11.2,32.93-32.62,32.93q-143,0-286,0c-25.94,0-41.68-15.54-41.71-41.37q-.11-115,0-229.94c0-20.5,11.13-31.57,31.49-31.69C108.76,145.67,116.77,145.71,126.09,145.71Zm14.84,284.15h253.8c13.5,0,16.12-2.61,16.12-16.09q0-164.23,0-328.47c0-13-2.75-15.79-15.79-15.79q-117,0-234.06,0c-13.65,0-15.56,1.91-15.56,15.46,0,94.83.17,189.66-.15,284.49C145.24,389.37,148.44,409.59,140.93,429.86Zm-15.2-265.42H103.59c-13.37,0-15,1.64-15,15.17q0,112.8,0,225.6a77.81,77.81,0,0,0,.25,8.51,18.27,18.27,0,0,0,24,15.1c9.36-3.2,13.2-9.39,13.21-21.69q0-117.42,0-234.83C126.08,170,125.88,167.68,125.73,164.44Zm133.16,85.61c0,4,.48,8.09-.09,12-1.91,13.22-10.25,23-23.57,24.79a105.53,105.53,0,0,1-30.83-.62c-11.94-2-19.68-11.58-20.67-23.8a153.82,153.82,0,0,1,.08-26.11,25.85,25.85,0,0,1,23.93-23.85,151.21,151.21,0,0,1,23.31-.37c17.28,1.14,27.86,12.81,28.06,30.15,0,2.6,0,5.2,0,7.79Zm-37.77-19c-2.36,0-4.72,0-7.08,0-9.31.1-11.62,2.42-11.7,11.77,0,5-.08,9.91,0,14.87.15,7.6,3,10.67,10.69,11,5.41.25,10.85.17,16.27,0,6.78-.22,10.38-3.87,10.61-10.69.09-2.59.07-5.19.07-7.78C240,231.52,239.52,231,221.12,231ZM221,192.79c-3.77,0-7.56.2-11.32,0-13.53-.87-24.7-11-25.9-24.56a150.87,150.87,0,0,1,0-26.8c1.2-13.44,12-23.29,25.43-23.93,6.83-.33,13.69-.31,20.52-.16,15.44.34,26.33,8.84,28.58,24a91.78,91.78,0,0,1-.1,27.44c-2.44,15.32-13.79,23.88-29.44,24.1-2.59,0-5.19,0-7.79,0Zm.17-56.79c-18.74,0-18.88.15-18.88,18.33,0,19.37.47,19.85,19.82,19.84,15.94,0,17.83-1.9,17.84-17.93v-1.42C240,136.91,239.09,136,221.21,136Zm67.89-9.53c-7.64.1-11.52,3.6-11.4,9.63s4.23,9.31,11.67,9.61h.71c23.4,0,46.8.05,70.2,0,8.14,0,12.32-3.36,12.5-9.49.19-6.38-4-9.68-12.77-9.75-11.58-.1-23.16,0-34.74,0C313.21,126.42,301.16,126.3,289.1,126.47ZM199,337.8c-4.07-4.19-9-4.27-13.18-.09s-4.13,9-.12,13.21c6.18,6.52,12.58,12.84,19.05,19.07,4.26,4.11,9.09,4.16,13.27.08q19.25-18.85,38.11-38.11c4.1-4.19,4.16-9.13-.2-13.18s-9-3.57-13.37.23c-1.78,1.55-3.41,3.28-5.07,5-8.45,8.55-16.89,17.12-27.14,27.52C206.26,346.47,203,341.83,199,337.8Zm126.42-97.6c12.53,0,25.06.11,37.59,0,6-.07,10-3,10-9.47s-4.12-9.05-10.06-9.43c-.7-.05-1.41,0-2.12,0-23.88,0-47.77,0-71.65.06-8,0-11.57,2.91-11.73,9.12-.16,6.5,3.59,9.74,11.81,9.81,12.06.11,24.12,0,36.18,0Zm35.95,94.73c7.2-.06,11.5-3.94,11.29-9.77-.21-5.65-4.17-8.88-11.33-8.9q-36.14-.09-72.28,0c-7.32,0-11,3.07-11.18,8.93-.19,6.06,3.82,9.68,11.22,9.75,11.81.1,23.62,0,35.43,0C336.82,335,349.11,335,361.39,334.93ZM287.54,164.46c-5.86.14-9.46,3.32-9.56,9.17s3.12,9.46,9.1,9.54q19.11.27,38.22,0c5.87-.09,9.25-3.5,9.21-9.43s-3.7-9-9.46-9.24c-6.12-.22-12.27-.05-18.4-.06C300.28,164.43,293.91,164.31,287.54,164.46Zm37,113.64c6.14-.06,9.84-3,10.16-9.33.28-5.63-3.54-9.24-10-9.31-12.26-.12-24.53,0-36.79,0-6,0-9.35,2.88-9.79,8.79-.42,5.64,3.36,9.59,9.59,9.84s12.26,0,18.39.06S318.45,278.16,324.59,278.1Zm-37.34,76.26c-5.81-.07-8.93,3-9.26,8.48s2.57,9.73,8,9.94c13.43.52,26.91.5,40.34,0,5.33-.19,8.44-4.16,8.21-9.71s-3.28-8.67-9-8.71c-6.37,0-12.74,0-19.11,0S293.62,354.44,287.25,354.36Z" transform="translate(-69.21 -50.7)"/></svg>