<svg id="Layer_1" data-name="Layer 1" xmlns="http://www.w3.org/2000/svg" viewBox="0 0 381.54 381.8"><title>online offline</title><path d="M251.11,267.7a76.5,76.5,0,1,1,71.21-103.54,77.52,77.52,0,0,1,4.85,31.48c-.25,5.43-2.82,8.47-6.91,8.27s-6.26-3.36-6-8.88c1.62-31.95-18.72-58.87-49.94-66.11-32.06-7.44-65.74,12.48-74.72,44.18-9.87,34.89,9.65,69.89,44.6,79.63a62.33,62.33,0,0,0,38.39-1.66,11.08,11.08,0,0,1,4.33-.8,6,6,0,0,1,5.55,5.17,6.17,6.17,0,0,1-4,7,71.65,71.65,0,0,1-21.46,5C254.89,267.55,252.73,267.62,251.11,267.7Zm57.07-57.43a25.54,25.54,0,1,0,25.46,25.53A25.54,25.54,0,0,0,308.18,210.27Zm0,38.24a12.71,12.71,0,1,1-.07-25.41,12.71,12.71,0,0,1,.07,25.41ZM74,300.58h7.21q168.68,0,337.37.13c5.78,0,7.24-1.63,7.23-7.31-.2-67-.12-133.95-.14-200.92,0-13.09-5.32-18.43-18.38-18.43Q348,74,288.65,74c-2.18,0-4.93.68-6.42-.37-2.42-1.71-5.53-4.57-5.54-7s3.12-5.15,5.43-7.09c1.08-.9,3.45-.3,5.24-.3q60.5,0,121,0c20,0,32.37,12.25,32.38,32.26q.06,116.55,0,233.11c0,20.23-12.49,32.71-32.71,32.74q-56.62.06-113.25,0h-7.4v29.83c5.08,0,10.17-.12,15.24,0,23.52.63,43.93,21.13,44,44.09,0,6.69-2.51,9.49-9.27,9.5q-87.31.08-174.64,0c-7,0-9.3-2.44-9.33-9.28-.14-23.09,20-43.63,43.56-44.31,5.1-.15,10.22,0,15.67,0V357.42H92.79c-21.68,0-33.55-11.86-33.55-33.5q0-116,0-231.92c0-21,11.81-32.7,32.93-32.7q59.91,0,119.81,0c2,0,4.57-.64,5.82.36,2.37,1.88,5.52,4.76,5.46,7.15s-3.32,5.19-5.81,6.86c-1.53,1-4.25.36-6.43.36H93c-13.77,0-19,5.28-19,19.14Q74,193,74,292.9Zm.5,15.4c-2.26,20.8,2.65,26.34,22.57,26.34H405.1a73.94,73.94,0,0,0,7.74-.19c6.22-.68,11.8-5.69,12.46-11.81.5-4.64.1-9.37.1-14.33Zm95,109.42H330.63a44.24,44.24,0,0,0-2.11-6c-5.78-10.93-15-17.18-27.23-17.3q-51.53-.5-103.06,0C184.05,402.28,172.67,411.85,169.47,425.4ZM272.2,387V358H227.87v29ZM250,59.38c-4.3-.24-7.35,3-7.21,7.43s2.56,6.9,7,7.09c4.24.18,7.43-3.17,7.35-8.29C256.8,62.05,254.38,59.62,250,59.38Zm-.19,262.35c-4.36.19-7,2.47-7,7s2.16,7.06,6.59,7.48a7.07,7.07,0,0,0,7.75-7A7,7,0,0,0,249.83,321.73Z" transform="translate(-59.23 -59.1)"/></svg>