<svg id="Layer_1" data-name="Layer 1" xmlns="http://www.w3.org/2000/svg" viewBox="0 0 800 800"><defs><style>.cls-1{fill:none;}.cls-2{fill:#010101;}</style></defs><title>scan to  verify</title><rect class="cls-1" width="800" height="800"/><path class="cls-2" d="M401.6,225.08q-77.22,0-154.43,0c-17.92,0-22.49,4.48-22.5,22,0,36.28.1,72.56-.06,108.84-.06,13.5-10,20.69-20.92,15.8-5.81-2.58-8.24-7.14-8.23-13.19.06-41.46-.35-82.92.49-124.36.39-19.12,17.9-35.77,37.32-38a105.61,105.61,0,0,1,12.2-.44q156.65,0,313.29,0c34,0,50.64,16.46,50.71,50.08.08,37-.07,74,0,111.06,0,9.85-4.74,15.48-14.2,16.45-8.48.87-14.76-6.56-15.13-16.79-.07-2.22,0-4.44,0-6.66q0-51.64,0-103.28c0-16.83-4.74-21.47-21.92-21.47Q479.91,225,401.6,225.08Zm-163.36,533c12.15-.17,19-9.65,14.81-20.14-3.05-7.72-9.66-9.24-17.27-9.21-35.53.13-71.06.07-106.59.06-35.72,0-52.94-17.29-52.95-53.15,0-35.52-.07-71,0-106.55,0-8.07-1.77-14.85-10.48-17.36-10.53-3-18.79,4.15-18.83,16.73q-.21,57.72,0,115.43c.18,41.54,32.17,73.75,73.6,74.23,18.5.21,37,0,55.51,0C196.79,758.14,217.52,758.35,238.24,758.05Zm446.09,0c41.42-.48,73.36-32.69,73.55-74.27.18-37.73.07-75.47,0-113.21,0-12.76-5-19.31-14.53-19.45s-14.72,6.18-14.75,19.05c-.09,35.89,0,71.78,0,107.66-.07,32.77-18.11,50.82-50.77,50.88-36.27,0-72.54,0-108.81,0-12.24,0-18,4.88-18,14.62s5.6,14.63,17.87,14.69c19.61.11,39.23,0,58.84,0C646.58,758.12,665.46,758.3,684.33,758.09Zm73.5-638.83c-.66-34.73-26.41-65.95-60.8-70-44.15-5.15-88.67-1.49-133-1.59-8.27,0-13.18,6.11-13,15s5.37,13.3,13.93,14c2.94.26,5.91.23,8.86.23Q624.92,77,676,77c34.9,0,52.57,17.65,52.6,52.4,0,35.89-.07,71.77.06,107.66,0,11.52,4.85,17.11,14.07,17.34,9.72.24,15.09-5.77,15.17-17.51.12-20,0-40,0-59.93C757.9,157.74,758.2,138.49,757.83,119.26ZM47,238.12c.13,11.67,7,17.72,17.43,16,9.76-1.62,11.87-8.55,11.85-17.11q-.09-53.84,0-107.66c0-34.74,17.69-52.27,52.69-52.31,35.9,0,71.8.11,107.7-.1,11.77-.06,17-4.87,17.16-14.29.13-9.87-5.68-15.26-17.5-15.29-38.85-.13-77.72-.5-116.57.13-36.07.58-64.74,25.23-71.2,61-4.11,22.69-.46,45.76-1.61,64.37C46.91,197.42,46.75,217.77,47,238.12ZM668.84,477.2c-.11,8.52-5.19,13.89-13.87,14.25a293.41,293.41,0,0,1-33.29,0c-9.4-.68-12.95,1.54-12.46,11.87.94,19.93.45,39.94.23,59.91-.33,29-17.05,46.64-46,46.73q-161,.5-321.95,0c-29-.09-45.76-17.72-46.08-46.69-.22-20.34-.57-40.71.2-61,.35-9.24-2.87-11.38-11.28-10.76-9.2.67-18.49.17-27.74.15-14,0-20.56-4.59-20.74-14.36-.18-10.14,6.63-15,21.24-15q77.7,0,155.4,0H644.38a105,105,0,0,1,11.09.21C664.21,463.36,669,468.74,668.84,477.2Zm-98.45,14.24c-55.91.31-111.81.17-167.72.17-56.28,0-112.56.12-168.84-.15-7,0-9.56,1.41-9.36,9,.55,20.72.08,41.45.24,62.18.09,12.34,5.26,17.67,17.5,17.68q159.94.12,319.9,0c12.93,0,17.95-5.2,18-18.3.12-20.35-.4-40.72.24-61.06C580.63,492.79,577.86,491.4,570.39,491.44Z" transform="translate(0)"/></svg>