<svg id="Layer_1" data-name="Layer 1" xmlns="http://www.w3.org/2000/svg" viewBox="0 0 377.14 376.96"><title>ui-ux design</title><path d="M119.42,90.61H220c0-4.17-.11-8.22,0-12.25.22-6.7,2.7-9.32,9.38-9.38q20-.2,40.06,0c6.59.07,9.05,2.75,9.26,9.5.12,3.88,0,7.76,0,12H379.28c0-4.1-.12-8,0-11.82.26-7.21,2.6-9.66,9.64-9.72q19.72-.16,39.47,0c7,.06,9.41,2.63,9.45,9.79q.09,19.44,0,38.88c0,7.18-2.4,9.72-9.41,9.78q-19.74.16-39.48,0c-7-.05-9.41-2.48-9.67-9.65-.14-3.87,0-7.75,0-12H319.82c58.87,31.05,90.58,78.58,96.36,144.45,3.9,0,8.11-.07,12.32,0,6.89.14,9.31,2.45,9.35,9.18q.12,20,0,40.07c-.05,6.32-2.6,9-9,9.14q-20.32.26-40.65,0c-6.06-.07-8.75-2.58-8.86-8.66q-.37-20.61,0-41.24c.12-6.16,2.73-8.3,8.91-8.47,4.08-.12,8.16,0,12.25,0-1.25-66-54.06-130-121.83-141.31,0,3.21.11,6.32,0,9.41-.29,6.5-2.89,9-9.67,9.06q-19.44.15-38.88,0c-7.64,0-10-2.58-10.17-10.36,0-2.54,0-5.07,0-7.64-50.89,6.07-117.75,58.05-122.23,140.83,4.08,0,8.14-.07,12.18,0,6.66.13,9.27,2.19,9.39,8.6q.38,20.61,0,41.24c-.11,6-2.86,8.48-9,8.55-13.55.16-27.1.18-40.65,0-6.28-.09-8.79-2.87-8.83-9.25q-.12-20,0-40.07c0-6.46,2.47-8.84,8.88-9.06,3.92-.14,7.85-.15,11.77-.25.34,0,.67-.32,1.37-.66,1.83-30.32,10.78-58.53,27.75-84.09s39.41-44.86,66.55-59.37H119.41c0,3.93.13,8,0,12-.27,7.1-2.67,9.49-9.78,9.54q-19.74.14-39.48,0c-6.74-.06-9.24-2.61-9.28-9.31q-.12-20,0-40.07c0-6.37,2.55-9,9-9.06q20.32-.22,40.65,0c6.1.07,8.41,2.5,8.9,8.63.17,2.15,0,4.32.06,6.48C119.43,86.05,119.42,88,119.42,90.61ZM104,112.46V83.7c-8.54,0-16.57-.15-24.6.14-1.31,0-3.63,1.94-3.67,3-.31,8.39-.17,16.79-.17,25.57ZM263.43,84.05H235.32V112.5h28.11Zm131.14-.35v29.14c8.61,0,16.82.14,25-.16,1.22,0,3.33-2.13,3.38-3.34.33-7.26.36-14.54,0-21.79-.07-1.34-2.31-3.62-3.62-3.68C411.32,83.52,403.28,83.7,394.57,83.7Zm-290.29,181c-8.79,0-17-.17-25.16.18-1.24,0-3.34,2.43-3.41,3.81-.35,7-.32,14.08,0,21.1.06,1.37,1.8,3.79,2.84,3.83,8.5.31,17,.17,25.76.17ZM394.5,265v28.8c8.67,0,17,.09,25.36-.11,1.09,0,3.05-1.55,3.07-2.42.23-8.7.14-17.41.14-26.27Zm-104,69.75c4.18.59,8.07.83,11.81,1.71,9,2.11,14.21,8.31,16.14,16.91,1.87,8.32-1,15.69-7.57,21a9.32,9.32,0,0,0-3.92,8.34c.17,16.89.08,33.78.07,50.67a40.42,40.42,0,0,1,0,4.12c-.47,4.53-2.32,8.14-7.44,8.23s-7.17-3.43-7.67-8a64.06,64.06,0,0,1-.08-7.07V380.31H206.88v33.08c0,7.07,0,14.14,0,21.21,0,7.43-2.52,11.16-7.49,11.23s-7.71-3.65-7.73-11c0-17.67.09-35.34-.13-53a9.53,9.53,0,0,0-2.78-6.31c-7.62-6.73-10.62-15.05-8.06-23.53,3-10,9.92-15.16,20-16.39,2.31-.27,4.64-.34,7.54-.54a78.52,78.52,0,0,0-11.73-30,187.11,187.11,0,0,0-17.41-22.12c-4-4.47-5.14-8.34-1.91-13.61s6-11,9.13-16.45c2.67-4.59,7.23-6.21,10.81-3.8,4.13,2.77,4.5,6.5,2.12,10.74-2.59,4.61-5.05,9.28-7.11,13.08,6.94,10.25,14.39,19.5,19.83,29.81,5.33,10.1,8.61,21.28,13,32.51h50A121.56,121.56,0,0,1,307.21,274l-50.28-91.3c-.24,3.06-.46,4.64-.47,6.23,0,13.74.17,27.49-.12,41.23-.09,4.23,1,6.56,4.93,8.62a24.36,24.36,0,0,1,12.27,28,25.39,25.39,0,0,1-23.63,18.87c-11.15.33-21.25-7.22-24.57-18.36s1.68-23,12.62-28.81c3.2-1.69,4.43-3.45,4.38-7.13-.23-15.65-.1-31.3-1.23-47.36q-6.17,11.16-12.33,22.3a73.4,73.4,0,0,1-3.84,6.61c-2.47,3.51-5.91,4.77-9.72,2.49s-4.88-5.71-2.75-9.62c10.13-18.6,20.2-37.24,30.68-55.64,3.25-5.73,9.59-5.1,13.1,1,6.43,11.23,12.6,22.61,18.84,33.95q22.43,40.71,44.83,81.44c5.43,9.87,5.34,10.34-2.38,18.2a102.57,102.57,0,0,0-26.42,46.5C290.83,332.28,290.74,333.42,290.51,334.79Zm-41.22,15.66H204c-4.17,0-8,.64-8.93,5.65-1,5.47,2.07,8.69,8.74,8.72,16.66.09,33.32,0,50,0,13.72,0,27.44.06,41.16,0,6.26,0,9.06-2.61,8.74-7.66-.34-5.39-4-6.7-8.56-6.7Zm.25-100c-5.68-.09-10.73,4.74-10.66,10.2.07,5.28,4.82,9.91,10.27,10,5.71.09,10.74-4.7,10.66-10.19C259.74,255.15,255,250.5,249.54,250.41ZM205.77,225.3c-4.19-.29-7.35,3.14-7.14,7.52.22,4.53,2.89,6.88,7.21,6.78s6.66-2.79,7.08-7.21C212.4,228.19,210.08,225.61,205.77,225.3Z" transform="translate(-60.78 -68.88)"/></svg>