<?xml version="1.0" encoding="UTF-8"?>
<svg id="Layer_1" data-name="Layer 1" xmlns="http://www.w3.org/2000/svg" viewBox="0 0 14 14">
  <defs>
    <style>
      .cls-1 {
        fill: #393939;
      }

      .cls-2 {
        fill: none;
      }
    </style>
  </defs>
  <rect class="cls-2" width="14" height="14"/>
  <path class="cls-1" d="M12.63,10.39c-.51,0-1.02,0-1.53,0-.18,0-.27-.07-.28-.25-.04-.38-.28-.59-.67-.59-.37,0-.74,.02-1.11,0-.44-.03-.8,.25-.76,.77,.01,.16,.08,.38-.03,.48-.11,.1-.32,.03-.48,.03-.28,0-.33-.05-.33-.34,0-.86,0-1.72,0-2.58,0-.22-.09-.5,.04-.63,.14-.14,.43-.02,.65-.05,.14-.01,.17,.05,.16,.17,0,.27,0,.54,0,.81,0,.47,.25,.71,.71,.71,1.22,0,2.44,0,3.66,0,.47,0,.72-.25,.72-.73,0-.5,0-.99,0-1.49,0-.51-.24-.76-.75-.76-.5,0-1.01,0-1.51,0-.18,0-.27-.07-.29-.25-.04-.38-.28-.59-.66-.59-.4,0-.81,0-1.21,0-.4,0-.65,.25-.66,.66,0,.29,0,.58,0,.87,0,.12-.04,.16-.16,.16-.18,0-.36,0-.54,0-.13,0-.16-.04-.16-.16,0-.31,0-.62,0-.93,0-.74,0-1.48,0-2.23,0-.12,.02-.25,.15-.26,.22-.03,.47-.07,.66,.02,.11,.05,.02,.31,.03,.47,0,.01,0,.03,0,.04,0,.48,.24,.72,.72,.72,1.21,0,2.42,0,3.64,0,.47,0,.73-.25,.73-.72,0-.51,0-1.02,0-1.53,0-.48-.26-.73-.74-.73-.5,0-1.01,0-1.51,0-.19,0-.28-.06-.3-.26-.04-.36-.28-.58-.65-.58-.41,0-.82,0-1.23,0-.39,0-.64,.26-.65,.65,0,.31,0,.62,0,.93,0,.17,.07,.39-.03,.5-.11,.1-.33,.03-.5,.03-.5,0-.74,.25-.74,.75,0,.88,0,1.76,0,2.64,0,.2,.09,.47-.03,.6-.13,.13-.4,.02-.61,.05-.16,.02-.2-.04-.2-.2,0-.68-.01-1.37,0-2.05,.01-.44-.19-.72-.55-.9-.13-.07-.27-.13-.42-.18-1.09-.35-2.2-.36-3.31-.09-.34,.08-.66,.2-.93,.42-.2,.16-.32,.36-.31,.63,0,.83,0,1.67,0,2.5,0,0,0,0,0,0,0,.83,0,1.66,0,2.48,0,.33,.14,.55,.41,.72,.3,.18,.63,.28,.96,.35,.81,.17,1.62,.18,2.43,.07,.44-.06,.87-.16,1.26-.38,.31-.17,.48-.41,.47-.79-.02-.66,0-1.32,0-1.99,0-.12,.02-.18,.16-.17,.18,.01,.36,0,.54,0,.12,0,.15,.04,.15,.15,0,.24,0,.49,0,.74,0,.81,0,1.62,0,2.42,0,.47,.25,.72,.72,.73,.13,0,.27,0,.4,0,.12,0,.16,.03,.16,.16,0,.41,0,.82,0,1.23,0,.49,.25,.73,.73,.73,1.21,0,2.41,0,3.62,0,.48,0,.73-.25,.74-.73,0-.5,0-1.01,0-1.51,0-.49-.25-.73-.74-.73Zm-3.93-4.59c0-.22,.06-.28,.29-.29,.38,0,.75,0,1.13,0,.18,0,.26,.08,.28,.26,.04,.38,.3,.6,.69,.6,.52,0,1.05,0,1.57,0,.22,0,.28,.06,.28,.28,0,.51,0,1.02,0,1.53,0,.24-.06,.3-.31,.3-.6,0-1.2,0-1.81,0-.61,0-1.22,0-1.83,0-.23,0-.29-.06-.29-.3,0-.79,0-1.59,0-2.38Zm0-4.43c0-.24,.05-.3,.29-.3,.37,0,.74,0,1.11,0,.19,0,.28,.06,.3,.26,.04,.37,.3,.59,.67,.59,.52,0,1.05,0,1.57,0,.24,0,.29,.05,.29,.29,0,.5,0,1.01,0,1.51,0,.25-.06,.31-.3,.31-.61,0-1.22,0-1.83,0-.6,0-1.19,0-1.79,0-.26,0-.32-.06-.32-.31,0-.78,0-1.56,0-2.35ZM1.17,4.16c.16-.15,.35-.24,.55-.3,.18-.06,.35-.11,.53-.14,.38-.08,.76-.1,1.14-.11,.61,.01,1.21,.07,1.79,.3,.14,.05,.27,.12,.38,.21,.19,.16,.2,.3,0,.46-.18,.15-.38,.23-.6,.3-1.14,.32-2.28,.32-3.41-.09-.15-.05-.29-.13-.4-.25-.13-.13-.14-.24,0-.37Zm-.1,2.63c1.56,.58,3.09,.57,4.65,0,0,.35,0,.71,0,1.07,0,.12-.13,.18-.23,.23-.33,.18-.7,.27-1.07,.32-.88,.12-1.75,.11-2.61-.13-.03,0-.06-.02-.09-.03-.61-.21-.63-.24-.63-.88v-.59Zm4.65,2.75c0,.12-.11,.18-.2,.23-.31,.18-.65,.27-.99,.32-.95,.15-1.9,.14-2.83-.14-.08-.02-.15-.05-.22-.08-.37-.15-.41-.21-.41-.62,0-.22,0-.44,0-.66,0-.12,.02-.13,.13-.09,1.36,.54,2.75,.52,4.14,.11,.12-.04,.24-.1,.38-.16,0,.37,0,.72,0,1.07Zm0-3.39c0,.14-.13,.2-.23,.25-.32,.18-.68,.27-1.04,.31-.91,.12-1.82,.12-2.71-.14-.05-.01-.1-.03-.15-.05-.49-.18-.52-.22-.52-.74v-.74c1.56,.64,3.1,.65,4.65,0,0,.36,0,.73,0,1.1Zm7.22,6.51c0,.22-.06,.28-.29,.28-.61,0-1.22,0-1.83,0s-1.22,0-1.83,0c-.23,0-.29-.06-.29-.3,0-.79,0-1.58,0-2.37,0-.23,.06-.3,.29-.3,.37,0,.74,0,1.11,0,.18,0,.28,.07,.3,.27,.04,.36,.29,.58,.66,.58,.53,0,1.06,0,1.59,0,.22,0,.28,.06,.29,.28,0,.52,0,1.03,0,1.55Zm-3.61-5.44c-.13-.02-.21-.1-.2-.23,0-.12,.08-.2,.21-.2,.13,0,.22,.08,.21,.21,0,.13-.09,.2-.22,.21Zm0,.42c.13,.02,.21,.09,.21,.22,0,.13-.09,.21-.22,.2-.12,0-.2-.08-.2-.2,0-.13,.08-.2,.21-.22Zm.21,4.65c-.01,.14-.09,.22-.21,.22-.12,0-.21-.08-.22-.21,0-.13,.07-.21,.2-.22,.13,0,.2,.08,.22,.2Zm-.2-1.04c.12,0,.2,.08,.2,.21,0,.13-.09,.21-.22,.2-.13,0-.19-.09-.2-.21,0-.13,.08-.21,.22-.21Zm-.01-8.49c-.14,0-.21-.09-.21-.22,0-.12,.08-.2,.2-.2,.13,0,.22,.07,.22,.2,0,.13-.08,.2-.21,.21Zm0,.43c.13,.01,.21,.09,.21,.21,0,.13-.09,.21-.22,.2-.13,0-.2-.08-.2-.2,0-.13,.07-.21,.21-.21ZM1.7,6.15c-.12-.02-.21-.08-.21-.21,0-.13,.08-.21,.21-.21,.13,0,.21,.08,.22,.21,0,.13-.09,.2-.21,.22Zm-.01,1.69c-.13,0-.21-.09-.2-.22,0-.13,.09-.2,.23-.2,.13,0,.2,.09,.2,.2,0,.13-.08,.21-.22,.21Zm.23,1.49c-.02,.12-.08,.21-.21,.22-.13,0-.21-.08-.22-.2,0-.13,.08-.21,.2-.22,.13,0,.2,.07,.23,.21Z"/>
</svg>