<?xml version="1.0" encoding="UTF-8"?>
<svg id="Layer_1" data-name="Layer 1" xmlns="http://www.w3.org/2000/svg" viewBox="0 0 14 14">
  <defs>
    <style>
      .cls-1 {
        fill: #393939;
      }

      .cls-2 {
        fill: none;
      }
    </style>
  </defs>
  <rect class="cls-2" width="14" height="14"/>
  <path class="cls-1" d="M3.35,5.82c0-.55,0-1.1,0-1.65,0-.18,.07-.29,.24-.34,.35-.12,.69-.25,1.02-.42,.09-.04,.17-.06,.26,0,.06,.04,.09,.11,.08,.18-.01,.1-.08,.14-.16,.18-.3,.15-.61,.28-.92,.39-.08,.03-.13,.06-.13,.16,.02,1.09-.05,2.19,.04,3.28,.05,.61,.28,1.16,.68,1.63,.65,.78,1.46,1.37,2.37,1.81,.12,.06,.21,.06,.33,0,.87-.42,1.64-.97,2.28-1.69,.53-.59,.79-1.29,.81-2.07,.02-.98,0-1.95,0-2.93,0-.11-.03-.16-.14-.19-.58-.2-1.13-.47-1.66-.78-.94-.55-1.9-.57-2.86-.05-.06,.03-.12,.08-.19,.06-.09-.02-.15-.08-.17-.17-.02-.1,.04-.17,.13-.22,.69-.4,1.42-.55,2.21-.4,.39,.07,.76,.23,1.1,.43,.54,.32,1.1,.59,1.7,.78,.19,.06,.27,.19,.27,.39,0,1,0,2.01,0,3.01,0,.93-.32,1.75-.96,2.44-.71,.77-1.54,1.36-2.49,1.79-.11,.05-.22,.07-.34,.02-1.12-.5-2.09-1.19-2.83-2.18-.44-.58-.64-1.24-.66-1.96-.01-.5,0-1,0-1.51,0,0,0,0,0,0Zm8.08-.54c0,.14-.01,.28-.2,.28-.19,0-.2-.14-.2-.28,0-.5,0-1,0-1.51,0-.13-.04-.19-.16-.22-.74-.18-1.42-.51-2.08-.9-.63-.37-1.31-.54-2.04-.49-.53,.03-1.03,.17-1.49,.44-.69,.41-1.4,.76-2.19,.96-.12,.03-.14,.1-.14,.21,0,.65,0,1.3,0,2.05,.01,.48-.01,1.07,.02,1.65,.04,.68,.25,1.3,.61,1.88,.02,.04,.05,.07,.07,.1,.07,.11,.08,.23-.04,.31-.12,.08-.21,.02-.28-.09-.24-.35-.43-.73-.55-1.14-.18-.56-.23-1.13-.2-1.71,0-.18-.05-.22-.22-.21-.17,0-.3,.02-.41,.19-.19,.28-.6,.28-.85,.04-.24-.24-.23-.63,.02-.86,.26-.23,.66-.19,.87,.08,.04,.06,.04,.16,.15,.15,.13,0,.27,0,.4,0,.06,0,.04-.08,.04-.12,0-.29,0-.57,0-.86,0-.12-.05-.14-.15-.14-.18,0-.36,0-.54,0-.23,0-.42-.01-.59,.22-.19,.26-.61,.22-.83-.03-.22-.25-.2-.63,.05-.84,.26-.22,.66-.18,.85,.09,.09,.13,.17,.17,.32,.16,.25-.01,.5,0,.75,0,.11,0,.14-.04,.14-.14,0-.32,0-.64,0-.96,0-.21,.08-.35,.29-.39,.8-.18,1.51-.55,2.22-.94,1.29-.71,2.59-.7,3.88,0,.2,.11,.4,.23,.6,.34,.1,.06,.17,.08,.16-.09-.01-.29,0-.57,0-.86,0-.1-.02-.16-.11-.22-.25-.17-.34-.42-.25-.69,.07-.23,.31-.39,.56-.39,.26,0,.48,.16,.56,.39,.08,.26,0,.53-.25,.69-.08,.05-.11,.1-.11,.2,0,.36,0,.73,0,1.09,0,.11,.03,.16,.14,.2,.29,.11,.57,.2,.87,.28,.27,.07,.33,.14,.33,.42,0,.55,0,1.1,0,1.65Zm-10.35-.37c0-.11-.07-.19-.2-.19-.12,0-.19,.09-.19,.2,0,.1,.07,.18,.19,.18,.13,0,.2-.08,.2-.19Zm.41,1.33c-.11,0-.19,.06-.19,.17,0,.13,.06,.2,.19,.2,.11,0,.18-.06,.19-.13,0-.17-.06-.24-.18-.24ZM10.1,.94c0-.13-.09-.18-.2-.2-.11,.03-.19,.08-.18,.21,0,.12,.09,.19,.19,.18,.11,0,.2-.07,.2-.2Zm3.4,6.13c-.25,.22-.64,.2-.83-.07-.11-.15-.22-.18-.38-.18-.24,0-.47,0-.71,0-.11,0-.15,.03-.14,.14,.01,.28,0,.56-.04,.83,0,.04-.04,.09,.01,.13,.09,.07,.54-.02,.6-.11,.15-.22,.42-.32,.66-.24,.25,.08,.42,.31,.42,.56,0,.25-.16,.47-.4,.56-.25,.09-.53,.01-.66-.21-.08-.14-.18-.14-.31-.14-.43,0-.43,0-.57,.39-.31,.9-.93,1.56-1.63,2.16-.69,.6-1.47,1.05-2.32,1.39-.14,.06-.28,.06-.42,0-.52-.21-1.02-.47-1.5-.78-.04-.03-.08-.08-.16-.06,0,.35,0,.7,0,1.06,0,.09,.06,.11,.12,.15,.24,.17,.33,.43,.25,.69-.07,.23-.32,.4-.56,.4-.24,0-.48-.18-.56-.4-.08-.27,0-.52,.26-.69,.08-.05,.11-.11,.11-.2,0-.4,0-.81,0-1.21,0-.1-.04-.16-.12-.22-.24-.19-.46-.4-.68-.62-.11-.11-.2-.22-.06-.35,.13-.12,.24-.03,.34,.07,.74,.77,1.61,1.34,2.59,1.75,.13,.05,.24,.06,.37,0,1.08-.46,2.02-1.11,2.81-1.98,.73-.8,1.05-1.75,1.05-2.82,0-.26,0-.53,0-.79,0-.14,.03-.27,.2-.26,.16,0,.21,.12,.19,.26-.02,.14,.04,.16,.17,.16,.18,0,.36,0,.54,0,.22,0,.41,.01,.57-.22,.19-.26,.61-.22,.83,.02,.22,.25,.2,.62-.05,.84ZM5.12,13.14c0-.12-.09-.16-.19-.18-.11,.03-.2,.09-.18,.22,.01,.11,.09,.18,.2,.17,.12,0,.19-.08,.18-.21Zm7.19-4.98c0,.12,.08,.18,.19,.18,.12,0,.19-.08,.19-.21-.01-.11-.08-.18-.19-.18-.12,0-.2,.07-.19,.2Zm.99-1.53c0-.11-.07-.18-.18-.19-.12,0-.21,.07-.21,.18,0,.11,.06,.19,.18,.2,.14,0,.21-.07,.21-.19Zm-4.8,1.65c0,.27-.2,.45-.47,.45-.35,0-.7,0-1.05,0h0c-.32,0-.64,0-.96,0-.35,0-.53-.18-.53-.53,0-.48,0-.96,0-1.44,0-.3,.12-.46,.41-.51,.13-.02,.11-.1,.11-.18,0-.28,.03-.54,.21-.77,.26-.31,.66-.44,1.05-.33,.38,.11,.65,.43,.69,.83,0,.06,.02,.13,.01,.19-.02,.16,.02,.24,.2,.27,.2,.04,.32,.2,.32,.41,0,.53,0,1.06,0,1.59Zm-1.73-2.03h.5q.33,0,.32-.33c0-.29-.23-.54-.5-.57-.3-.04-.59,.16-.66,.45-.09,.36-.02,.46,.35,.46Zm.22,1.24c.12,0,.19-.07,.2-.19,0-.12-.07-.19-.19-.2-.11,0-.18,.07-.19,.18,0,.12,.06,.2,.18,.21Zm1.12-.53c0-.09,.03-.19-.03-.28-.02-.01-.05-.03-.07-.03-.66,0-1.32,0-1.98,0-.13,0-.14,.07-.14,.17,0,.27,0,.54,0,.81,0,.23-.04,.46,.03,.68,.33,.04,.66,.02,.98,.01,0-.02,0-.04,0-.07-.02-.01-.04-.03-.04-.04-.01-.27-.21-.43-.36-.63-.15-.21-.11-.48,.06-.67,.17-.19,.45-.25,.69-.15,.04,.02,.08,.04,.12,.06,0,0,0,0,0,0,0,0,0,0,0,0,.33,.38,.3,.67-.1,.99-.07,.05-.07,.11-.07,.18,0,.1-.02,.19-.1,.26,0,.02,0,.05,0,.07,.32,0,.65,.03,.98-.02,.07-.45,.02-.9,.03-1.35Z"/>
</svg>