<?xml version="1.0" encoding="UTF-8"?>
<svg id="Layer_1" data-name="Layer 1" xmlns="http://www.w3.org/2000/svg" viewBox="0 0 14 14">
  <defs>
    <style>
      .cls-1 {
        fill: #393939;
      }

      .cls-2 {
        fill: none;
      }
    </style>
  </defs>
  <rect class="cls-2" width="14" height="14"/>
  <path class="cls-1" d="M10.75,5.24c0,.12-.05,.21-.17,.22-.13,0-.2-.08-.21-.21-.09-.64-.33-1.22-.75-1.72-.55-.65-1.24-1.06-2.09-1.19-.03,0-.05,0-.08-.01-.12-.03-.23-.09-.2-.23,.03-.14,.14-.18,.28-.16,.37,.07,.73,.16,1.07,.32,1.21,.61,1.94,1.57,2.14,2.92,0,.02,0,.04,.01,.05Zm-8.41,.66c.11,0,.23,0,.34,0,.11,0,.17-.08,.18-.18,0-.1-.06-.17-.15-.18-.23-.03-.47-.03-.7,0-.09,.01-.15,.08-.15,.19,0,.1,.06,.17,.16,.17,.11,0,.21,0,.32,0h0Zm9.28,0c.11,0,.21,0,.32,0,.11,0,.18-.06,.19-.17,.01-.11-.06-.19-.16-.2-.23-.01-.45-.01-.68,0-.1,0-.17,.09-.16,.19,.01,.1,.08,.17,.19,.17,.1,0,.2,0,.3,0h0ZM6.81,1.37c0,.11,.06,.2,.18,.2,.12,0,.19-.08,.19-.19,0-.21,.01-.41,0-.62,0-.11-.07-.19-.19-.19-.13,0-.17,.09-.18,.2,0,.1,0,.2,0,.3,0,.1,0,.2,0,.3ZM3.57,9.38c.2-.15,.38-.33,.53-.53,.05-.06,.03-.16-.04-.22-.07-.06-.15-.07-.22-.01-.18,.16-.36,.32-.5,.51-.08,.11,.02,.27,.17,.27,.01,0,.04,0,.06-.02Zm6.33-.7c-.03,.08-.03,.16,.03,.22,.14,.15,.29,.3,.44,.44,.08,.08,.18,.08,.27,0,.08-.08,.08-.18,0-.27-.14-.15-.29-.29-.44-.44-.03-.03-.08-.04-.11-.06-.08,.01-.14,.03-.17,.1ZM3.33,2.12c-.05,.08-.03,.15,.02,.2,.15,.16,.3,.32,.46,.47,.07,.07,.16,.06,.24,0,.08-.07,.09-.17,.03-.25-.16-.17-.33-.33-.49-.49-.02-.02-.06-.02-.08-.03-.08,0-.13,.05-.17,.11Zm6.8,.69c.2-.17,.39-.34,.54-.55,.05-.07,0-.14-.06-.19-.06-.05-.13-.08-.2-.03-.19,.15-.37,.32-.52,.52-.09,.12,.02,.27,.17,.27,.01,0,.05,0,.06-.01Zm.6,3.41c-.15,1.03-.64,1.85-1.46,2.49-.07,.05-.14,.1-.21,.15-.34,.22-.5,.53-.48,.93,0,.11,0,.23,0,.34,0,.18,0,.32,.18,.46,.25,.2,.18,.51,.11,.78-.02,.08-.03,.14,0,.22,.08,.2,.08,.41,.02,.61-.06,.2-.21,.32-.43,.34-.16,0-.32,0-.48,0-.1,0-.15,.02-.14,.13,.07,.59-.15,.8-.79,.75-.13,0-.25,0-.38,0-.32,0-.5-.19-.5-.5q0-.38-.39-.38c-.6,0-.86-.39-.64-.96,.02-.06,.04-.1,.02-.17-.11-.35-.17-.7,.22-.94,.04-.03,.05-.08,.05-.12,0-.25,0-.51,0-.76-.01-.34-.21-.56-.48-.74-.77-.51-1.29-1.21-1.56-2.09-.65-2.13,.76-4.4,2.95-4.79,.03,0,.07-.01,.1-.02,.14-.04,.29-.03,.32,.14,.03,.17-.12,.22-.25,.24-1.43,.25-2.36,1.09-2.77,2.46-.41,1.37,.15,2.89,1.36,3.69,.52,.34,.76,.78,.72,1.39-.01,.18-.08,.42,.03,.52,.1,.09,.33,.03,.5,.03,.23,0,.45,0,.68,0,.33,0,.67,0,1,0,.14,0,.21-.02,.19-.18-.02-.14,0-.28,0-.42-.03-.57,.2-1,.68-1.31,.59-.38,1-.91,1.27-1.56,.1-.25,.17-.52,.21-.79,.02-.13,.08-.22,.22-.21,.14,.02,.17,.13,.15,.26Zm-3.45,6.32c-.16,0-.32,.02-.48,0-.2-.02-.27,.03-.27,.25,0,.2,.05,.29,.26,.25,.06-.01,.13,0,.2,0,.5-.01,.44,.08,.45-.35,0-.13-.05-.16-.16-.15Zm1.04-.86c-.44,.01-.88,0-1.32,0-.44,0-.88,0-1.32,0-.19,0-.22,.09-.21,.24,0,.14,0,.26,.21,.26,.88,0,1.77,0,2.65,0,.2,0,.21-.1,.21-.25,0-.15,0-.26-.21-.25Zm0-.87c-.44,.01-.88,0-1.32,0s-.88,0-1.32,0c-.2,0-.21,.1-.21,.25,0,.15,0,.25,.21,.25,.88-.01,1.76-.01,2.65,0,.2,0,.21-.1,.21-.25,0-.15-.01-.25-.21-.25Zm1.41-5.08c0,.59,0,.59-.59,.58-.16,0-.27,.02-.32,.2-.03,.1-.02,.16,.05,.22,.1,.09,.2,.19,.3,.3,.11,.12,.11,.26,0,.38-.15,.16-.31,.32-.47,.47-.13,.12-.26,.11-.39,0-.08-.07-.16-.14-.23-.23-.11-.16-.24-.15-.39-.07-.06,.04-.1,.06-.1,.15,0,.14,0,.28,0,.42,0,.2-.1,.3-.29,.3-.21,0-.41,0-.62,0-.19,0-.28-.11-.29-.29,0-.11-.01-.22,0-.32,.02-.16-.03-.25-.2-.3-.1-.03-.15-.03-.22,.04-.09,.1-.2,.2-.3,.3-.13,.12-.26,.12-.39,0-.15-.15-.31-.3-.45-.45-.13-.13-.12-.28,0-.41,.07-.08,.14-.16,.23-.23,.15-.11,.14-.23,.07-.38-.04-.08-.08-.11-.16-.1-.14,0-.28,0-.42,0-.18,0-.29-.1-.29-.29,0-.21,0-.43,0-.64,0-.18,.11-.26,.28-.27,.11,0,.22-.01,.32,0,.18,.02,.27-.04,.31-.21,.02-.08,.02-.13-.04-.19-.11-.1-.21-.2-.31-.31-.12-.13-.12-.27,0-.39,.15-.15,.3-.31,.45-.45,.13-.12,.27-.11,.39,0,.09,.07,.17,.15,.24,.24,.1,.12,.19,.15,.34,.07,.09-.05,.15-.09,.13-.2-.01-.13,0-.25,0-.38,0-.18,.09-.3,.27-.3,.22-.01,.44,0,.66,0,.17,0,.27,.11,.27,.29,0,.11,.02,.22,0,.32-.05,.24,.12,.27,.27,.33,.07,.03,.1-.02,.13-.06,.11-.1,.21-.21,.31-.31,.11-.1,.25-.12,.36-.02,.18,.16,.34,.34,.51,.51,.04,.04,.06,.1,.06,.16,0,.11-.06,.18-.12,.24-.06,.07-.13,.14-.2,.2-.1,.09-.15,.17-.09,.32,.06,.16,.16,.15,.28,.15q.62,0,.62,.62Zm-.39-.21c-.03-.07-.16-.03-.24-.03-.45,0-.45,0-.61-.4-.03-.06-.06-.12-.09-.18-.07-.13-.06-.24,.05-.34,.1-.1,.2-.2,.3-.3,.06-.05,.06-.09,0-.15-.22-.26-.22-.27-.46-.03-.05,.05-.11,.1-.16,.16-.1,.12-.22,.14-.35,.06-.11-.07-.24-.12-.37-.15-.14-.03-.2-.11-.19-.26,0-.14,0-.28,0-.42,0-.06,0-.11-.08-.13-.32-.06-.38,0-.38,.31,0,.05,0,.09,0,.14,.03,.22-.09,.29-.27,.39-.4,.23-.68,.14-.92-.21-.02-.03-.06-.1-.11-.07-.1,.08-.2,.16-.26,.27-.04,.08,.08,.12,.13,.18,.07,.08,.14,.14,.21,.21,.1,.09,.12,.2,.06,.32-.07,.13-.13,.28-.17,.42-.03,.12-.11,.17-.24,.17-.15,0-.29,0-.44,0-.04,0-.11-.02-.11,.05,0,.13-.03,.26,.01,.38,.03,.07,.16,.04,.24,.03,.34-.05,.57,.04,.62,.42,0,.06,.06,.12,.09,.18,.06,.12,.04,.22-.05,.31-.1,.1-.2,.2-.3,.3-.07,.07-.07,.12,0,.18,.05,.04,.09,.08,.13,.13,.07,.09,.13,.09,.2,0,.04-.05,.08-.09,.13-.13,.28-.28,.26-.22,.65-.13,.41,.1,.45,.34,.41,.67-.02,.18,.03,.27,.23,.22,.22,.06,.26-.05,.24-.24,0-.07,0-.15,0-.22-.04-.21,.06-.33,.26-.37,.03,0,.07,0,.1-.03,.32-.25,.56-.11,.77,.17,.1,.13,.17,.15,.31,.02,.15-.15,.15-.23,0-.35-.08-.06-.15-.15-.23-.23-.04-.04-.09-.1-.07-.16,.08-.22,.17-.44,.26-.66,.03-.07,.12-.06,.18-.06,.15,0,.29,0,.44,0,.04,0,.11,.02,.11-.05,0-.13,.03-.26-.01-.38Zm-1.34,.2c0,.56-.45,1.01-1.01,1-.56,0-1-.45-1-1.01,0-.56,.45-1,1.01-1,.56,0,1,.45,1,1.01Zm-.37,0c0-.33-.28-.62-.62-.63-.34,0-.65,.28-.65,.62,0,.33,.29,.63,.62,.64,.33,.01,.64-.3,.65-.63Z"/>
</svg>