<?xml version="1.0" encoding="UTF-8"?>
<svg id="Layer_1" data-name="Layer 1" xmlns="http://www.w3.org/2000/svg" viewBox="0 0 14 14">
  <defs>
    <style>
      .cls-1 {
        fill: #393939;
      }

      .cls-2 {
        fill: none;
      }
    </style>
  </defs>
  <rect class="cls-2" width="14" height="14"/>
  <path class="cls-1" d="M7.33,3.52c-1.88,0-3.75,0-5.63,0-.04,0-.09,0-.13,0-.15,0-.31,0-.31-.2,0-.2,.16-.2,.31-.2,3.72,0,7.45,0,11.17,0,.21,0,.28-.04,.27-.26-.02-.38-.03-.77,0-1.15,.03-.49-.29-.73-.72-.73-2.96,.01-5.93,0-8.89,0-.58,0-1.17,0-1.75,0-.44,0-.67,.23-.67,.67,0,3.56,0,7.12,0,10.68,0,.44,.22,.67,.66,.68,3.57,0,7.14,0,10.7,0,.45,0,.66-.22,.66-.67,0-2.57,0-5.15,0-7.72,0-.06,0-.11,0-.17,.01-.13,.08-.22,.21-.22,.13,0,.19,.09,.2,.21,0,.06,0,.11,0,.17,0,2.55,0,5.1,0,7.66,0,.76-.4,1.16-1.15,1.16-3.52,0-7.04,0-10.56,0-.75,0-1.15-.4-1.15-1.16,0-3.51,0-7.02,0-10.53,0-.76,.4-1.16,1.16-1.16,3.52,0,7.04,0,10.56,0,.74,0,1.15,.41,1.15,1.14,0,.49,0,.98,0,1.47,0,.28-.06,.33-.34,.33-1.92,0-3.84,0-5.76,0Zm-.83-1.68c-.15,0-.31,0-.31,.2,0,.21,.17,.21,.32,.21,.02,0,.04,0,.06,0,1.82,0,3.65,0,5.47,0,.06,0,.13,0,.19,0,.11-.02,.18-.09,.18-.2,0-.12-.07-.18-.19-.19-.06,0-.11,0-.17,0-.92,0-1.85,0-2.77,0-.93,0-1.86,0-2.79,0Zm-3.34,0c-.07,0-.14,0-.21,0-.12,0-.21,.06-.22,.19-.01,.14,.08,.21,.21,.22,.16,0,.31,0,.47,0,.11-.01,.18-.09,.18-.2,0-.12-.07-.18-.19-.19-.08,0-.16,0-.23,0,0,0,0,0,0,0Zm1.19,0c-.08,0-.17,0-.25,0-.11,.01-.18,.07-.19,.19,0,.12,.07,.19,.17,.2,.17,.01,.34,.01,.51,0,.11,0,.18-.09,.18-.2,0-.12-.08-.19-.2-.2-.07,0-.14,0-.21,0,0,0,0,0,0,0Zm-2.37,0c-.09,0-.17,0-.26,0-.12,.01-.18,.09-.18,.2,0,.1,.06,.19,.16,.19,.18,.01,.35,.02,.53,0,.11,0,.17-.1,.16-.21-.01-.11-.08-.17-.18-.18-.08,0-.16,0-.23,0h0ZM11.33,11.07c0,.17-.08,.26-.26,.26-.62,0-1.24,0-1.85,0-.19,0-.27-.08-.27-.27,0-.5,0-1.01,0-1.51,0-.19,.08-.27,.27-.27,.19,0,.38,0,.58,0,.11,0,.15-.02,.15-.14,0-.21,0-.43,0-.64,0-.12-.04-.14-.15-.14-.81,0-1.62,0-2.43,0-.12,0-.16,.03-.16,.16,0,.21,0,.41,0,.62,0,.11,.04,.15,.15,.15,.2,0,.4,0,.6,0,.16,0,.25,.08,.25,.25,0,.52,0,1.04,0,1.56,0,.17-.08,.25-.24,.25-.63,0-1.27,0-1.9,0-.17,0-.24-.09-.24-.25,0-.51,0-1.02,0-1.54,0-.19,.09-.27,.28-.27,.18,0,.37,0,.55,0,.12,0,.17-.02,.16-.15,0-.21,0-.41,0-.62,0-.11-.02-.15-.14-.15-.82,0-1.63,0-2.45,0-.11,0-.15,.03-.15,.14,0,.21,0,.43,0,.64,0,.1,.03,.14,.13,.14,.19,0,.38,0,.58,0,.19,0,.29,.07,.29,.28,0,.5,0,1.01,0,1.51,0,.19-.08,.27-.27,.27-.61,0-1.22,0-1.83,0-.2,0-.28-.08-.28-.28,0-.5,0-1,0-1.49,0-.2,.08-.29,.28-.28,.18,0,.36,0,.53,0,.13,0,.19-.03,.18-.18-.01-.28,0-.55,0-.83,0-.27,.04-.31,.31-.31,.43,0,.87,0,1.3,0,.45,0,.9,0,1.34,0,.15,0,.19-.05,.19-.19,0-.48,0-.48-.49-.48-.13,0-.26,0-.38,0-.16,0-.24-.08-.24-.24,0-.53,0-1.05,0-1.58,0-.15,.09-.24,.24-.24,.72,0,1.44,0,2.15,0,.15,0,.23,.09,.23,.24,0,.53,0,1.05,0,1.58,0,.16-.09,.23-.24,.23-.23,0-.47,0-.7,0-.14,0-.17,.04-.17,.17,0,.51,0,.51,.49,.51,.78,0,1.56,0,2.35,0,.26,0,.3,.04,.3,.3,0,.28,0,.57,0,.85,0,.13,.03,.18,.17,.17,.18,0,.37,0,.55,0,.19,0,.28,.08,.28,.27,0,.51,0,1.02,0,1.54Zm-7.47-1.39c-.22,0-.44,0-.66,0-.1,0-.14,.03-.14,.13,0,.33,0,.65,0,.98,0,.12,.04,.14,.15,.14,.43,0,.87,0,1.3,0,.1,0,.14-.03,.13-.13,0-.33,0-.65,0-.98,0-.11-.03-.15-.15-.15-.21,0-.43,0-.64,0Zm3.12-2.8c.26,0,.51,0,.77,0,.09,0,.14-.02,.14-.13,0-.33,0-.67,0-1,0-.11-.05-.13-.14-.13-.5,0-1.01,0-1.51,0-.12,0-.14,.04-.14,.15,0,.32,0,.64,0,.96,0,.11,.04,.15,.15,.15,.25,0,.5,0,.75,0Zm-.63,2.8c-.11,0-.15,.04-.14,.15,0,.32,0,.64,0,.96,0,.13,.05,.15,.16,.15,.21,0,.41,0,.62,0,.22,0,.44,0,.66,0,.11,0,.15-.04,.15-.15,0-.32,0-.64,0-.96,0-.11-.03-.15-.14-.15-.43,0-.87,0-1.3,0Zm4.57,1.13c0-.33,0-.67,0-1,0-.1-.04-.13-.14-.13-.43,0-.87,0-1.3,0-.11,0-.15,.03-.15,.15,0,.32,0,.64,0,.96,0,.13,.05,.15,.16,.15,.21,0,.43,0,.64,0,.21,0,.43,0,.64,0,.09,0,.14,0,.14-.12Z"/>
</svg>