<?xml version="1.0" encoding="UTF-8"?>
<svg id="Layer_1" data-name="Layer 1" xmlns="http://www.w3.org/2000/svg" viewBox="0 0 800 800">
  <defs>
    <style>
      .cls-1 {
        fill: #020202;
      }

      .cls-2 {
        fill: none;
      }
    </style>
  </defs>
  <rect class="cls-2" width="800" height="800"/>
  <path class="cls-1" d="M465.87,153.14c.67-3.07,1.03-5.68,1.81-8.15,1.7-5.36,5.81-8.29,11.12-7.8,5.84,.54,10.16,4.59,10.08,10.48-.16,12.47-.9,24.97-2.24,37.37-.69,6.37-6.25,7.89-11.97,8.03-9.84,.25-19.68,.53-29.53,.77-7.29,.18-12.88-1.84-12.89-10.52-.02-8.61,5.39-10.82,12.77-10.63,2.12,.06,4.24,0,9.48,0-22.29-19.04-45.22-24.28-70.46-19.28-35.41,7.01-60.7,36.69-63.39,73.11-.44,6.03-.41,12.45-7.65,14.97-8.27,2.87-14.54-3.05-14.33-13.44,1.17-58.24,55.34-104.69,113.24-97.24,9.81,1.26,19.14,3.79,28.34,7.46,9.19,3.67,17.03,9.49,25.62,14.86Zm-71.49,179.94c56.34,3.83,106.32-41.19,107.93-97.7,.2-7.18-1.9-13.39-9.85-14.11-8.04-.73-11.15,4.98-11.89,12.2-.12,1.13-.11,2.27-.19,3.41-3.38,45.91-42.68,79.26-88.42,74.53-16.09-1.66-30.76-7.29-43.82-19.89,3.38-.26,4.88-.49,6.38-.47,8.08,.1,14.82-1.77,14.17-11.74-.67-10.34-8.45-9.93-15.9-9.65-9.09,.34-18.18,.75-27.27,.97-5.95,.14-10.78,2.07-11.36,8.6-1.05,11.69-1.74,23.43-2.15,35.17-.17,4.76,2.05,8.91,6.76,10.86,4.13,1.71,8.19,1.25,11.6-1.93,3.62-3.37,3.59-8.14,4.72-13.5,18.22,14.03,37.39,21.79,59.29,23.28Zm202.82,238.55c2.07,4.94,6.47,7.65,12,6.08,7.86-2.24,8.51-8.82,8.09-15.51-.45-7.12,2.61-15.85-7.6-19.05-5.47-1.71-9.57,.48-12.43,5.18-2.33,3.83-.69,8.13-1.46,13.43,.31,2.52,.01,6.55,1.4,9.86ZM93.98,702.78c-2.83-4.32-6.69-6-11.61-4.87-8.39,1.93-8.35,8.77-8.23,15.25,.14,7.3-1.87,15.86,7.65,19.23,4.66,1.65,8.84-.06,11.8-4.33,2.86-4.12,1.61-8.74,1.99-13.18-.52-4.03,.91-8.25-1.61-12.1Zm670.72,34.69c-.53,19.54-9.71,29.07-29.52,29.1-49.3,.07-98.61,.08-147.91,0-18.69-.03-29.71-10.08-29.17-28.45,.59-19.88-.89-39.65,2.46-59.82,1.93-11.62-3.13-25.74-2.61-38.91,.52-13.11-2.59-26.58,3.62-39.2,1.37-2.79-1.07-4.99-1.53-7.49-3.94-21.4-3.4-43.02-.62-64.36,1.66-12.77,11.12-18.79,24.47-18.89,18.96-.14,37.93-.3,56.89,.1,6.5,.14,8.46-1.86,8.27-8.3-.44-14.39-.47-28.82,.01-43.21,.22-6.58-2.01-8.12-8.31-8.11-73.58,.2-147.15,.24-220.73-.05-7.24-.03-8.94,2.1-8.69,8.94,.51,14.01,.56,28.07-.01,42.07-.3,7.33,2.36,8.82,9.12,8.66,18.57-.44,37.16-.21,55.75-.13,18.17,.08,27.59,8.82,27.19,27.14-.45,20.33-.05,40.63-1.77,61.07-1.17,13.88,2.4,29.17,1.78,43.8-1.33,31.56,.62,63.08,.19,94.61-.3,21.8-8.78,30.52-30.23,30.54-48.54,.05-97.09,.05-145.63,0-21.46-.02-30.55-8.75-30.05-30.54,.45-19.57,.57-39.17,1.77-58.75,.9-14.73-2.43-30.73-1.69-46.07,1.51-31.2-.96-62.33-.26-93.49,.44-19.85,8.77-28.25,28.51-28.3,18.2-.05,36.42-.3,54.61,.14,6.71,.16,9.45-1.25,9.16-8.63-.58-14.38-.39-28.81-.06-43.21,.13-5.7-1.28-7.8-7.48-7.79-74.33,.21-148.67,.18-223.01,.04-5.29-.01-7.3,1.28-7.17,6.9,.35,15.16,.43,30.34-.02,45.49-.2,6.68,2.94,7.2,8.24,7.13,18.58-.22,37.17-.17,55.75-.06,16.95,.1,27.37,9.5,26.92,26.65-.53,20.26,1.37,40.41-2.52,60.98-2.05,10.8,3.38,24.19,2.72,36.63-.74,13.85,2.81,28.09-3.72,41.46-1.32,2.7,1.2,4.99,1.65,7.51,3.82,21.41,3.42,43.01,.5,64.34-1.71,12.49-11.45,19.15-24.38,19.51-13.26,.37-26.55,.08-39.82,.1-7.42,.01-13.1-3.09-13.24-10.84-.15-8.06,5.72-10.62,13.13-10.54,11.76,.12,23.52-.22,35.27,.12,6.47,.18,8.58-2.29,8.4-8.66-.38-13.64-.34-27.3-.01-40.94,.14-5.85-1.8-8.07-7.75-8.05-49.3,.14-98.61,.12-147.91,.04-5.9-.01-8.02,2.58-7.94,8.3,.21,13.27,.35,26.55-.04,39.81-.23,7.82,3.47,9.62,10.42,9.52,18.2-.28,36.41-.05,54.61-.11,7.36-.02,14.29,.86,14.35,10.3,.05,9.05-6.31,11.08-13.93,11.07-20.1-.02-40.21,.27-60.3-.11-16.09-.3-26.43-10.56-25.78-26.78,.83-20.65,.65-41.37,1.89-62.03,.98-16.38-2.54-34.3-1.78-51.4,1.33-29.9-1.24-59.7-.37-89.55,.52-18.06,9.32-27.23,27.29-27.31,19.34-.08,38.69-.28,58.02,.12,6.47,.13,8.37-1.8,8.23-8.24-.4-18.95-.22-37.91-.11-56.87,.07-12.35,3.9-16.34,16.27-16.38,39.06-.12,78.13-.04,117.19-.04,38.68,0,77.37-.18,116.05,.16,7.37,.06,11.25-.95,10.44-9.59-.84-9.02,2.61-19.9-1.35-26.77-4.05-7-15.92-2.45-24.29-3.84-17.54-2.91-35.22-4.99-52.27-10.26-5.39-1.67-9.27,.71-13.67,3.08-51.82,27.95-115.08,5.9-140.26-48.75-23.79-51.66,2.1-113.93,56.08-134.68,9.2-3.54,18.67-6.43,28.65-6.21,5.52,.12,7.68-1.08,8.09-7.38,4.73-71.89,46.96-123.99,116.59-141.33,44.8-11.16,86.28-.98,123.53,26.17,6.02,4.38,10.32,9.97,4.62,17.18-5.54,7-11.61,4.32-17.84-.08-79.65-56.25-183.15-15.95-203.23,79.2-1.47,6.96-1.2,14.3-1.66,21.47-1.11,17.42-7.69,24.11-25.22,25.56-40.71,3.36-72.04,31.94-76.47,69.75-4.4,37.54,19.28,74.56,56.09,86.07,21.94,6.86,43.68,4.74,63.4-7.51,8.87-5.51,16.87-6.17,26.76-3.44,55.62,15.35,111.44,15.27,167.04-.15,9.5-2.63,17.21-1.91,25.72,3.29,27.84,17.02,60.9,14.98,87.36-4.5,25.88-19.06,38.3-51.02,30.83-80.94-8.42-33.71-29.63-54.51-64.11-60.77-33.8-6.13-33.51-5.95-36.46-41.56-1.45-17.5-7.57-33.81-16.61-48.91-2.39-3.98-4.39-7.9-3.59-12.76,.8-4.86,4.18-7.32,8.43-8.05,5.51-.95,9.13,2.28,11.95,6.81,13.9,22.31,20.99,46.78,22.41,72.83,.36,6.57,1.57,8.8,8.76,9.19,39.46,2.16,74.09,29.24,87.25,67.3,13.53,39.14,2.22,80.43-29.88,109.1-29.84,26.65-73.08,34.31-107.73,15.35-14.54-7.96-26.05-2.87-38.77-.56-16.78,3.05-33.52,6.29-50.59,6.42-6.86,.05-7.85,2.72-7.96,8.72-.54,30.38-.71,30.38,29.28,30.38,70.16,0,140.33,0,210.49,0,17.35,0,20.17,2.89,20.18,20.51,0,17.82,.25,35.65-.13,53.46-.13,6.09,1.83,8.31,7.74,7.46,1.86-.27,3.79,.05,5.68-.05,6.99-.36,11.22,3.35,11.3,9.86,.08,6.98-4.13,10.92-11.65,10.89-25.41-.1-50.82-.03-76.23-.03-27.72,0-27.89,0-27.62,27.66,.09,9.36-4.1,21.32,1.77,27.42,5.95,6.17,17.99,1.9,27.33,1.95,40.96,.25,81.92-.15,122.88,.31,9.15,.1,12.03-2.76,11.53-11.71-.67-12.1-.36-24.26-.09-36.39,.15-6.71-2.22-9.87-9.28-9.3-7.92,.64-13.74-2.09-13.24-11.24,.48-8.78,6.87-9.43,13.86-9.48,20.88-.14,30.13,8.38,29.33,29.66-.74,19.5-1.04,39.14-1.97,58.55-.79,16.45,2.63,34.37,1.83,51.48-1.39,29.53,1.22,58.96,.42,88.45ZM211.43,609.14c-24.21,.44-48.44,.17-72.66,.17-23.84,0-47.69,.21-71.53-.13-7.2-.1-10.32,1.87-10.03,9.55,.48,12.85,.26,25.72,.07,38.59-.09,5.9,1.52,9.07,8.3,9.05,49.2-.18,98.4-.18,147.6,0,6.08,.02,7.82-2.25,7.69-7.99-.3-13.24-.51-26.5,.07-39.72,.33-7.5-2.06-9.65-9.51-9.52Zm-144.79-79.13c-6.89-.03-9.53,2.41-9.37,9.22,.28,12.48,.55,24.99-.08,37.45-.45,8.79,3.06,10.9,11.27,10.74,23.83-.46,47.68-.16,71.53-.16,23.84,0,47.69-.29,71.53,.16,7.62,.14,9.74-2.39,9.43-9.72-.54-12.84-.47-25.73-.02-38.58,.24-6.84-1.84-9.19-8.94-9.15-48.44,.27-96.89,.24-145.33,.03Zm415.8,205.03c-.58-12.85-.42-25.76-.04-38.63,.19-6.37-1.99-8.77-8.42-8.75-48.88,.15-97.76,.18-146.63-.03-7.27-.03-8.94,3.03-8.73,9.6,.39,12.49,.65,25.03-.07,37.49-.52,9.01,3.32,10.8,11.32,10.67,23.86-.39,47.74-.14,71.61-.14,23.49,0,46.99-.24,70.47,.13,7.78,.12,10.85-2.21,10.48-10.34Zm0-79.03c-.55-12.85-.48-25.76-.01-38.61,.25-6.84-2.65-8.2-8.73-8.18-48.86,.17-97.73,.19-146.59-.02-6.38-.03-8.69,1.91-8.49,8.43,.42,13.24,.45,26.51,0,39.75-.24,7.13,2.52,9.09,9.29,9,23.86-.31,47.72-.12,71.59-.12,24.24,0,48.49-.3,72.72,.17,8.11,.16,10.56-2.55,10.22-10.43Zm-155.19-125.98c-6.41-.02-8.74,2.24-8.6,8.6,.31,13.24,.43,26.51-.05,39.74-.26,7.11,2.41,9.1,9.2,9.01,23.85-.31,47.71-.12,71.57-.12,24.61,0,49.23-.18,73.84,.12,6.77,.08,9.47-1.87,9.22-9-.48-13.23-.35-26.5-.05-39.74,.15-6.36-2.17-8.64-8.59-8.61-48.85,.18-97.69,.18-146.54,0Zm405.43,157.58c-23.46,.43-46.94,.15-70.42,.15-23.85,0-47.71,.37-71.55-.19-8.68-.2-11.13,2.58-10.66,11,.7,12.45,.51,24.98,.05,37.45-.25,6.78,1.73,9.39,8.86,9.36,48.46-.23,96.92-.2,145.38-.04,6.79,.02,9.58-2.45,9.42-9.32-.29-12.48-.54-25,.08-37.46,.43-8.65-2.88-11.11-11.16-10.95Zm-1.3-78.54c-23.44,.78-46.92,.24-70.38,.24-23.84,0-47.69,.3-71.52-.17-7.62-.15-9.69,2.33-9.38,9.64,.55,12.84,.49,25.73,.02,38.58-.25,6.92,1.99,9.09,8.99,9.05,48.44-.26,96.88-.24,145.32-.02,6.9,.03,9.53-2.33,9.35-9.19-.31-11.72-.67-23.49,.1-35.17,.64-9.73-2.11-13.3-12.49-12.96Zm-131.34,121.38c4.86,3.66,9.83,3.57,14.22-.93,4.56-4.67,4.52-24.47-.13-28.84-4.48-4.21-9.44-4.28-14.29-.55-5.01,3.84-3.61,9.46-3.77,14.62,.25,5.51-1.44,11.63,3.97,15.71Zm-261.76-.79c4.9,4.62,10.28,4.63,15.1-.2,5.37-5.37,5.33-23.88-.13-28.81-4.97-4.49-10.49-4.36-15.25,.25-3.84,3.71-3.8,8.87-3.38,13.84-.34,5.38-.62,10.9,3.65,14.93Zm-242.74-169.23c0-1.89-.06-3.78,.01-5.67,.27-7.35-3.6-11.82-10.54-12.1-7.29-.3-10.71,4.63-10.81,11.7-.06,4.52-.1,9.07,.32,13.57,.55,6,3.84,9.94,10.12,10.03,6.23,.09,9.64-3.8,10.71-9.61,.47-2.56,.08-5.27,.08-7.92,.04,0,.07,0,.11,0Zm-3.4,62.63c-4.68-4.04-9.74-4.01-14.38-.38-5.34,4.18-5.4,24.97-.2,29.72,4.54,4.15,9.64,4.06,14.3,.23,4.71-3.88,3.64-9.53,3.67-15.72-.35-4.14,1.36-9.74-3.39-13.84Zm508.72,30.52c4.63,2.82,9.38,2.58,13.41-1.45,4.04-4.05,4.59-23.42,.73-28.07-4.03-4.85-9.26-5.13-14.24-2.17-5.84,3.48-4.78,9.67-4.66,15.3,.21,5.87-1.62,12.49,4.77,16.38Zm-244.96-25.96c-1.75-5.99-6.25-8.29-12.19-7.17-8.03,1.52-9.23,7.7-9.15,14.5,.09,7.74-1.66,16.56,8.23,19.87,5.61,1.87,10.17-.52,12.81-6.2,1.67-3.6,1.27-7.32,1.45-13.11-.17-1.28-.22-4.71-1.15-7.88Zm1.07-71.2c-.18-8.18-3.21-14.19-12.44-13.67-8.39,.47-12.23,10.02-9.85,24.06,1.19,7.02,4.9,11.98,12.87,11.03,5.03-.6,7.71-4.51,8.87-9.09,.72-2.86,.52-5.95,.56-6.63,0-3.45,.02-4.58,0-5.7Z"/>
</svg>