<?xml version="1.0" encoding="UTF-8"?>
<svg id="Layer_1" data-name="Layer 1" xmlns="http://www.w3.org/2000/svg" viewBox="0 0 800 800">
  <defs>
    <style>
      .cls-1 {
        fill: none;
      }
    </style>
  </defs>
  <rect class="cls-1" width="800" height="800"/>
  <path d="M585.06,401.12c-.59-4.38-.6-8.97,0-13.35,1.98-14.29-4.85-21.68-17.92-25.79-5.27-1.66-12.05-4.98-14.05-9.4-7.42-16.34-18.2-33.09-4.02-51.4,.93-1.2,1.02-3.04,1.97-6.08-1.7-2.77-3.43-6.92-6.3-10.02-7.43-8.02-15.98-15.06-22.95-23.43-8.92-10.7-18.24-13.48-30.47-5.82-3.97,2.49-10.53,6.09-13.2,4.54-14.65-8.54-37.14-6.7-40.95-30.32-1.69-10.45-9.31-14.21-19.65-13.78-10.11,.42-20.33,.82-30.37-.09-13.72-1.25-21.37,4.5-24.83,17.45-1.23,4.58-2.88,11.79-5.88,12.7-16.24,4.9-30.75,21.75-50.2,8.06-8.6-6.05-16.4-3.77-23.46,4.07-7.85,8.72-16.25,17.01-24.91,24.93-7.44,6.8-8.57,13.84-3.89,22.64,2.82,5.29,7.39,11.79,6.27,16.6-2.63,11.24-7.23,22.37-13.06,32.35-2.52,4.31-9.83,6.55-15.41,8.19-11.57,3.4-16.35,10.35-15.58,22.37,.69,10.9,.41,21.88,.07,32.81-.3,9.88,3.75,15.93,13.3,19,6.05,1.94,15.4,3.88,16.84,8.04,5.53,16,21.43,30.88,7.74,50.19-5.76,8.12-3.59,15.7,3.82,22.48,8.96,8.21,17.54,16.86,25.8,25.77,6.51,7.03,13.26,8,21.66,3.82,5.72-2.84,13.76-8.34,17.58-6.4,15.07,7.68,37.08,6.6,41.12,29.95,1.8,10.4,9.22,14.28,19.6,13.9,11.33-.42,22.7-.42,34.03,0,10.42,.38,16.74-3.86,19.79-13.94,1.73-5.72,3.49-14.62,7.35-15.95,16.03-5.53,30.77-21.6,50.16-8.22,8.69,5.99,16.46,3.72,23.51-4.08,7.59-8.41,15.67-16.44,24.06-24.06,7.64-6.94,10.34-14.42,4.55-23.46-7.02-10.95-7.29-21.43-.02-32.46,2.59-3.93,3.05-9.22,5.34-13.42,1.58-2.89,4.32-6.65,7.07-7.16,23.94-4.44,28.31-20.4,25.5-41.22Zm-38.33,19.57c-9.78,1.62-14.87,8.56-17.04,18.11-1.15,5.08-2.64,10.32-5.21,14.78-8.41,14.62-14.26,29.02-2.86,44.94,1.05,1.46,.03,5.46-1.3,7.39-10.55,15.32-16.4,16.49-34.41,10.82-5.47-1.72-12.55-.55-18.26,1.27-9.54,3.04-18.26,9.01-27.9,11.27-12.05,2.83-18.09,10.02-20.35,21.07-2.29,11.19-10.24,10.35-18.52,10.21-8.06-.14-16.46,1.57-18.72-9.89-2.42-12.28-9.62-19.81-22.61-21.66-4.68-.66-9.54-2.55-13.51-5.13-13.89-9.02-27.61-12.52-42.71-2.53-1.84,1.22-6.94-.4-9.23-2.28-16.16-13.29-15.61-13.28-9.14-33.71,1.63-5.13,.32-11.75-1.27-17.21-1.78-6.1-6.35-11.4-8.05-17.51-4.51-16.16-10.37-29.85-29.52-34.19-3.18-.72-4.47-13.69-4.86-21.09-.2-3.79,2.94-10.66,5.6-11.22,17.27-3.62,24.28-15.23,27.63-30.96,.99-4.63,3.19-9.32,5.94-13.19,7.73-10.83,7.64-21.28,1.19-32.74-4.17-7.39,9.47-28.12,18.62-28.67,1.07,.41,2.75,.72,4.04,1.59,14,9.49,27.22,6.92,40.35-2.04,2.93-2,6.54-3.42,10.04-4.1,15.09-2.96,25.28-10.38,28.98-26.38,2.74-11.86,13.38-5.52,20.56-6.65,6.05-.95,12.53-1,14.02,7.44,2.68,15.17,12.63,22.39,27.01,25.1,3.51,.66,7.16,1.94,10.12,3.9,13.8,9.12,27.56,12.64,42.66,2.57,1.84-1.23,6.96,.37,9.25,2.24,16.09,13.2,15.58,13.35,9.17,33.72-1.62,5.15-.32,11.76,1.26,17.22,1.77,6.1,6.35,11.4,8.05,17.51,4.49,16.16,10.19,30.26,29.58,33.9,2.58,.49,4.06,9.86,5.03,15.3,1.94,10.88-.99,18.68-13.6,20.78ZM449.66,87.24c-1.93-47.48,7.62-33.2-35.07-59.08-9.88-5.99-17.47-6.33-27.57-.14-43.24,26.46-33.54,10.89-35.33,61.3-.42,11.88,3.4,19.48,14.15,23.76,17.54,6.99,28.79,17.6,22.7,35.27,0,10.51-1.5,18.24,.49,24.94,1.5,5.06,7.45,8.81,11.42,13.14,4.1-4.21,10.45-7.81,11.77-12.76,2.01-7.57,1.56-16.21,.36-24.12-2.68-17.62,3.34-29.17,20.45-35.14,12.63-4.41,17.2-13.26,16.64-27.16Zm-49.22,16.57c-11.29-.26-24.16-14.79-24.16-27.26,0-12.25,13.63-27.12,24.61-26.85,11.43,.28,24.13,14.65,24.13,27.3,0,12.56-13.3,27.07-24.57,26.8Zm49.1,630.6c-.94-7.58-.84-15.44-.01-23.04,1.23-11.38-3.33-18.74-13.58-22.86-17.92-7.2-29.57-17.97-23.17-36.19,0-9.7-.08-16.18,.02-22.65,.14-8.71-4.07-14.67-12.65-14.41-7.82,.23-11.77,6.01-11.67,14.2,.15,12.55,.63,25.15-.3,37.63-.31,4.23-3.56,10.63-6.98,11.87-25.49,9.25-34.08,27.14-29.3,52.83,.22,1.17,.21,2.46,0,3.63-2.29,13.21,4.13,20.52,15.35,26.76,33.73,18.75,33.25,18.66,66.66,.21,11.89-6.56,17.31-14.46,15.63-27.98Zm-49.49,17.25c-11.75-.76-23.77-14.76-23.76-27.69,0-11.78,12.75-27.32,23.72-25.86,7.85,1.04,16.17,5.93,22.05,11.48,3.32,3.14,2.65,11.05,2.85,16.84,.38,10.87-14.75,25.89-24.86,25.24ZM705.88,196.38c-1.86-.73-3.76-1.68-5.27-2.95-13.06-10.98-24.94-9.02-39.09-.12-34.06,21.43-29.04,11.33-29.26,50.28-.04,6.95-2.03,10.95-8.39,14.18-10.78,5.46-20.99,12.06-31.45,18.17-7.06,4.12-9.66,10.4-5.73,17.39,4.11,7.32,11.29,7.2,18.05,3.56,8.88-4.78,17.91-9.48,26.11-15.3,9.32-6.62,17.74-8,26.82-.09,15.7,13.69,31.5,13.66,47.25-.03,.3-.26,.7-.41,1.07-.55,19.64-7.45,29.45-20.53,23.1-42.23,6.44-21.83-3.77-34.68-23.19-42.29Zm-25.2,69.71c-11.38-.8-24.1-15.5-24.09-27.85,0-11.56,14.82-27.46,25.08-26.92,11.24,.58,23.86,15.37,23.85,27.94-.01,11.5-14.85,27.53-24.84,26.83Zm49.46,297.19c2.86-18.47-2.03-30.65-20.04-41.52-21.16-12.77-38.36-15.53-57.26,.81-5.9,5.1-11.17,3.78-17.27-.14-10.18-6.54-20.46-13.3-31.56-17.85-4.56-1.87-13.48-.15-16.67,3.35-5.27,5.77-2.38,12.9,4.62,17.17,5.86,3.57,11.48,7.94,17.83,10.25,18.68,6.8,26.04,19.25,22.44,38.88-2.05,11.17,3.91,17.46,12.9,24.61,24.83,19.78,47.31,20.06,72.09,.05,8.43-6.81,14.05-12.53,12.99-23.49-.39-4.01-.06-8.09-.06-12.13Zm-48.48,26.79c-10.73,.54-25.08-15.58-25.07-28.16,.01-11.28,13.47-27.57,24.02-26.06,7.81,1.11,15.84,6.3,21.93,11.73,3.32,2.96,2.81,10.22,4.03,15.54-1.07,11.74-14.16,26.4-24.92,26.95ZM208.74,275.79c-7.32-4.27-14.28-9.49-22.07-12.55-14.59-5.73-20.33-15.43-17.52-30.78,2.99-16.29-3.66-27.26-19.15-33.03-1.87-.69-3.72-1.74-5.22-3.04-16.58-14.33-31.6-11.55-49.9-.51-17.67,10.67-29.01,21.26-23.72,39.31-.01,36.15-.23,28.88,19.84,43.75,20.72,15.36,38.89,15.93,58.11-.53,5.57-4.77,10.56-3.2,16.19,.32,10.26,6.42,20.78,12.46,31.43,18.21,6.76,3.65,13.95,3.59,17.97-3.81,3.86-7.1,1.02-13.29-5.96-17.36Zm-88.69-9.56c-10.34-.03-24.27-15.87-24.27-27.58,0-12.09,13.75-27.48,24.43-27.33,10.85,.15,24.5,15.47,24.5,27.5,0,11.75-14.12,27.44-24.65,27.41Zm94.62,241.97c-4.41-7.91-11.86-7.26-19.02-3.24-9.15,5.13-18.82,9.62-27.14,15.88-8.6,6.47-15.93,6.09-23.56-.38-16.52-14.01-31.48-12.12-49.88-.77-17.41,10.74-29.36,20.95-23.86,39.37,0,9.52-1.09,15.86,.32,21.58,1.31,5.34,4.04,11.83,8.27,14.72,38.04,26,38.17,25.8,77.52,2.25,.69-.41,1.7-.61,2.06-1.21,3.34-5.5,10.12-11.72,9.23-16.49-4.92-26.51,8.43-40.15,30.73-48.9,2.97-1.17,5.61-3.18,8.42-4.77,7.27-4.14,11.23-10.3,6.92-18.04Zm-94.29,81.8c-10.53,.37-24.6-15.15-24.61-27.12,0-11.83,13.63-27.55,24.1-27.8,10.31-.25,24.83,15.69,24.83,27.27,0,12.21-13.23,27.26-24.32,27.65ZM400.52,307.94c-52.29,.06-92.83,40.84-92.63,93.19,.2,51.75,40.57,92.15,92.29,92.36,52.28,.22,93.17-40.4,93.26-92.64,.09-52.29-40.6-92.97-92.92-92.91Zm.02,161.05c-38.69-.03-68.19-29.64-68.16-68.42,.03-38.71,29.61-68.18,68.41-68.15,38.7,.04,68.19,29.63,68.15,68.39-.04,38.7-29.64,68.2-68.4,68.17Z"/>
</svg>