<?xml version="1.0" encoding="UTF-8"?>
<svg id="Layer_1" data-name="Layer 1" xmlns="http://www.w3.org/2000/svg" viewBox="0 0 800 800">
  <defs>
    <style>
      .cls-1 {
        fill: none;
      }

      .cls-2 {
        fill: #010101;
      }
    </style>
  </defs>
  <rect class="cls-1" width="800" height="800"/>
  <path class="cls-2" d="M769.11,206.53c-3.07-2.53-7.13-4.09-10.97-5.36-5.45-1.79-11.08-3.11-16.7-4.25-21.93-4.44-29.34-21.88-17.33-41.03,1.96-3.13,3.81-6.33,5.81-9.43,7.29-11.32,12.65-24.55,3.38-35.47-12.87-15.16-23.58-34.68-46.89-36.76-6.67-.59-12.76,2.76-18.44,6.19-6.33,3.81-12.52,7.86-18.82,11.72-3.1,1.89-5.88,3.79-10.2,2.31-12.8-4.41-24.35-9.27-24.69-25.84-.12-5.58-2.2-11.25-4.08-16.64-4.77-13.73-14.07-20.37-28.69-20.67-9.86-.21-19.73-.22-29.58,0-14.69,.33-23.57,6.76-28.22,21.07-2.78,8.54-4.98,17.33-6.56,26.17-1.02,5.71-4.4,7.89-8.98,10.46-12,6.72-22.79,6.94-33.32-2.85-3.24-3.01-7.51-5.02-11.5-7.11-15.61-8.15-26.18-6.5-38.92,6.01-6.74,6.62-13.48,13.25-20,20.09-8.85,9.29-10.8,20.08-5.53,31.78,2.35,5.21,5.74,9.94,8.36,15.04,1.81,3.52,6.79,6.76,4.8,10.54-2.02,3.84-7.44,1.66-11.31,1.66-110.53,.1-221.06,.04-331.59,.1-34.86,.02-52.96,18.35-52.96,53.39-.02,114.63-.02,229.27,0,343.9,0,36.7,17.7,54.47,54.27,54.49,55.88,.03,111.76,.38,167.64-.28,12.31-.15,13.72,3.45,10.12,13.82-3.91,11.27-8.58,22.08-14.06,32.68-3.87,7.48-8.68,10.46-17.37,10.26-18.81-.42-37.82-1.75-56.14,4.81-31.31,11.2-51.9,32.23-59.71,64.89-4.29,17.94,2.47,26.63,20.87,27.46,4.92,.22,9.86,.14,14.79,.14,68.21,0,136.42,0,204.62,0,37.8,0,75.6,.02,113.41,0,36.16-.02,72.32,.22,108.47-.25,18.13-.24,24.38-8.77,20.78-26.21-8.94-43.32-45.39-70.54-95.12-71.07-36.89-.39-37.69-.95-49.94-35.88-.95-2.7-1.43-5.58-2.48-8.24-3.62-9.16-1.64-12.45,9.16-12.35,57.11,.52,114.23,.32,171.34,.21,32.77-.06,51.39-18.28,51.74-50.86,.3-28.35,.06-56.7,.06-85.05,0-20.13,.09-40.27-.05-60.4-.04-5.92-.01-9.21,7.97-6.21,13.92,5.24,24.97-.33,35.2-10.7,33.35-33.79,33.6-33.71,9.14-73.77-2.3-3.77-5.39-7.1-3.39-12.36,4.73-12.44,9.68-24.23,25.99-24.4,3.63-.04,7.29-1.21,10.86-2.16,13.12-3.51,25.66-10.31,25.64-24.64-.03-19.95,9.1-42.52-10.82-58.93Zm-279.14,490.78c27.56,0,49.5,10.42,63.65,34.71,6.94,11.92,6.29,12.72-7.19,12.73-68.16,.02-136.32,.01-204.48,.01s-135.5,0-203.25,0c-13,0-14.17-1.54-7.9-12.54,12.35-21.65,31.54-33.05,56.16-34.55,15.14-.92,30.37-.34,45.56-.34,85.82-.02,171.63,0,257.45-.01Zm-232.24-25.05c8-17.66,14.96-33.76,17.85-51.2,.82-4.98,4.46-5.05,8.34-5.04,38.96,.03,77.93,.14,116.89-.11,5.91-.04,7.72,2.54,8.77,7.6,2.91,14.07,7.3,27.72,13.93,40.47,3.41,6.56,2.11,8.4-5.18,8.38-52.9-.17-105.8-.09-160.59-.09Zm385.83-141.69c0,11.1,.12,22.19-.03,33.29-.26,19.94-7.61,27.14-27.86,27.15-134.8,.03-269.6,.02-404.4,.02-47.26,0-94.52,.03-141.79-.01-21.16-.02-28.45-7.09-28.45-27.83-.04-115.48-.04-230.96,0-346.44,0-19.52,7.54-27.41,26.43-27.42,110.55-.07,221.11-.04,331.66-.01,2.69,0,5.39,.34,8.08,.52-8.84,7.66-19.42,7.51-29.1,10.45-17.62,5.36-24.3,13.43-24.54,31.85-.13,9.45-.19,18.91,.06,28.35,.38,14.31,6.48,22.87,20.07,27.65,6.17,2.17,12.62,4.13,19.08,4.74,13.71,1.3,20.12,8.89,21.43,23.31-12.72,0-25.34-.07-37.96,.02-16.86,.12-22.62,5.44-22.65,21.77-.12,62.05-.12,124.11,0,186.17,.03,16.15,5.58,21.74,21.26,21.86,20.55,.16,41.1,.17,61.65,0,15.54-.13,21.48-6.18,21.53-21.72,.09-30.82,.03-61.64,.03-92.47q0-20.4,21.66-28.88c0,21.27,0,42.05,0,62.83,0,19.73-.15,39.45,.05,59.18,.15,14.43,6.7,20.92,21.22,21.05,20.55,.19,41.1,.16,61.65,.01,16.17-.11,22.54-6.35,22.7-22.32,.19-18.49,.02-36.99,.07-55.48,.01-4.37-1.06-9.01,5.3-10.72,13.8-3.7,18.65-15.04,21.99-27.29,1.4-5.14,1.99-10.49,3.24-15.67,2.08-8.62,14.92-19.22,23.66-19.03,7.17,.15,3.8,6.16,3.82,9.33,.25,41.92,.17,83.84,.17,125.75Zm-210.28-20.04c.18,7.64-1.43,11.21-9.98,10.72-11.86-.67-23.8-.47-35.69-.05-6.59,.23-9.39-1.3-9.35-8.71,.29-54.17,.27-108.33,.02-162.5-.03-6.91,1.89-9.84,8.93-8.87,5.15,.71,10.56-1.17,16.19,1.62-1,2.3-1.93,4.48-2.9,6.63-7.47,16.67-7.06,26.96,7.41,38.32,21.06,16.52,28.39,36.35,25.64,62.55-2.09,19.89-.72,40.18-.26,60.28Zm127.27,1.93c.13,6.22-1.76,8.9-8.32,8.73-13.1-.34-26.22-.51-39.3,.06-7.6,.33-8.64-3.05-8.52-9.45,.34-17.19,.12-34.4,.12-51.6,0-16.79-.18-33.58,.18-50.36,.06-2.78-3.11-8.29,3.36-8.29,4.31,0,7.53,2.45,8.5,7.35,1.5,7.6,3.28,15.14,5.21,22.64,4.81,18.74,12.13,25.46,31.06,27.34,5.77,.57,7.82,2.37,7.71,8.13-.28,15.15-.31,30.31,.01,45.45Zm195.5-255.07c-.52,4.37-2.25,6.8-6.17,8.01-1.17,.36-2.4,.83-3.59,.8-33.46-.62-47.34,20.99-55.95,48.88-1.57,5.08-1.69,9.52,1.23,14.04,3.34,5.17,6.52,10.44,9.74,15.69,15.04,24.5,14.61,16.81-3.76,36.98-7.52,8.26-13.79,9.95-22.83,2.85-6.74-5.3-14.43-9.42-21.76-13.95-3.5-2.16-7.16-4.11-11.18-3.57-13.95,5.76-27.63,11.22-41.12,17.14-2.99,1.31-4.27,4.81-5.01,8.15-1.24,5.59-2.5,11.18-3.93,16.72-6.5,25.3-6.53,24.85-32.45,25.21-8.89,.12-13.95-3.06-13.89-11.26,.24-32.5-20.62-45.65-47.58-54.24-6.64-2.12-11.84-1.61-17.36,1.95-8.63,5.56-17.48,10.79-26,16.51-5.36,3.59-9.28,2.89-14.07-1.47-21.48-19.54-22.24-19.85-5.61-44.14,8.96-13.1,9.11-23.38,3.74-39-7.89-22.98-21.23-32.82-43.72-35.12-5.51-.56-14.62,.62-15.64-6.84-1.47-10.83-.63-22.11,.46-33.07,.34-3.44,6.1-4.26,9.5-4.37,28.1-.9,44.34-14.73,51.79-42.1,2.71-9.95,4.79-17.4-1.89-25.88-4.04-5.13-6.46-11.57-10.66-16.54-8.28-9.8-7.07-16.79,2.69-25.46,16.46-14.62,15.84-15.31,34.92-3.35,4.87,3.05,9.75,6.09,14.65,9.1,1.75,1.07,3.51,2.83,5.34,2.94,16.84,.99,29.27-11.38,44.7-15.1,7.28-1.76,8.14-9.53,9.16-16.14,.44-2.83,1.15-5.63,1.83-8.42,6.66-27.37,6.66-27.12,35.16-26.32,7.14,.2,10.39,2.86,11.69,9.59,1.86,9.64,4,19.25,6.49,28.74,4.15,15.82,45.38,32.36,59.29,23.96,3.52-2.12,6.96-4.37,10.43-6.56,23.69-14.97,28.05-14.01,44.97,8.79,3.06,4.12,2.58,7.24,.1,11.09-5.55,8.63-10.99,17.34-16.31,26.12-8.68,14.34,9.11,55.97,25.38,59.62,4.01,.9,7.97,1.99,11.96,2.96,27.2,6.61,28.65,8.9,25.28,37.06Zm-433.81,25.34c0-13.54,.07-27.09-.02-40.63-.13-18.93-9.78-28.77-28.73-28.91-24.62-.18-49.25,.17-73.87-.13-14.06-.17-27.53,.13-34.05,15.76-6.21,14.89,1.52,25.08,11.76,34.39,.61,.55,1.09,1.23,1.71,1.76,3.53,3.02,2.51,5.46-.88,7.73-22.17,14.83-48.58,23.46-75.72,5.25-6.09-4.09-11.49-9.23-17.05-14.08-11.67-10.19-21.72-12.11-31.05-5.7-9.01,6.18-11.74,17.6-7.01,31.07,6.81,19.37,18.11,35.78,33.73,49.09,43.64,37.18,103,37.1,154.11-.85,7.61-5.65,12.4-6.3,17.87,1.41,1.17,1.65,2.85,2.94,4.31,4.38,8.33,8.22,17.89,11.61,29.11,6.67,10.89-4.8,15.98-13.38,15.81-25.34-.2-13.95-.05-27.9-.05-41.86Zm-24.94,38.68c0,.8-.19,1.59-.41,3.35-8.61-3.11-12.94-10.79-18.89-16.32-10.92-10.15-14.92-10.52-25.93-.54-24.06,21.82-51.32,35.55-84.74,32.52-27.24-2.47-49.11-14.77-64.51-37.77-1.78-3.32-1.62-5.5,2.98-5.07,49.06,31.78,90.41,9.84,122.5-16.65,7.99-6.59,7.8-14.01,.74-21.16-6.27-6.35-12.91-12.35-19.38-18.5,.4-1.04,.8-2.08,1.2-3.13h55.72q30.75,0,30.75,30.29c0,17.66-.01,35.32-.04,52.98Zm34.29,71.39c-.12-15.51-6.1-21.68-21.65-21.9-20.93-.29-41.86-.32-62.79,.02-14.73,.24-20.75,6.44-20.82,21.44-.19,43.91-.18,87.82,0,131.74,.06,15.69,6.22,21.76,21.62,21.88,20.52,.17,41.04,.16,61.56,0,16-.13,22.01-6.33,22.1-22.68,.12-21.75,.03-43.5,.03-65.25,0-21.75,.12-43.5-.04-65.25Zm-34.17,128.42c-12.29-.55-24.64-.57-36.93,0-8,.38-9.57-3.01-9.41-10.14,.41-17.64,.14-35.3,.13-52.95,0-17.24,.3-34.49-.14-51.72-.19-7.62,1.4-11.26,10.09-10.71,11.86,.76,23.83,.75,35.69,0,8.72-.55,10.11,3.18,10.04,10.75-.32,34.89-.31,69.78,0,104.67,.07,7.23-1.62,10.43-9.48,10.08Zm-92.76-76.53c-.22-13.13-6.2-18.64-19.31-18.81-22.17-.3-44.36-.31-66.53,0-12.85,.18-18.65,6.27-18.86,19.05-.22,13.55-.05,27.1-.05,40.65,0,13.55-.16,27.11,.04,40.66,.19,13.16,6.41,19.54,19.73,19.7,21.76,.27,43.53,.28,65.3-.01,12.8-.18,19.41-6.11,19.63-18.71,.49-27.5,.5-55.03,.04-82.53Zm-26.66,73.86c-6.98,7.28-20.95,2.18-31.85,2.4-21.37,.43-21.38,.13-21.38-20.85,0-13.92,.22-27.85-.1-41.76-.13-5.88,1.94-7.86,7.78-7.72,13.09,.33,26.21,.39,39.3-.02,6.75-.21,8.4,2.71,8.18,8.77-.33,9.41-.09,18.83-.09,30.17-.8,8.65,4.52,22.35-1.86,29.01ZM567.17,142.35c-57.06-.19-102.34,45.06-102.42,102.35-.08,57.26,45.12,103.03,101.89,103.18,56.25,.15,102.95-46.36,103.07-102.66,.12-56.53-45.88-102.68-102.55-102.87Zm-.44,180.48c-42.82-.08-77.08-34.63-77.11-77.76-.03-43.38,33.77-77.54,76.88-77.69,43.23-.15,78.69,35.17,78.38,78.06-.31,42.3-35.82,77.47-78.15,77.39Z"/>
</svg>