<?xml version="1.0" encoding="UTF-8"?>
<svg id="Layer_1" data-name="Layer 1" xmlns="http://www.w3.org/2000/svg" viewBox="0 0 800 800">
  <defs>
    <style>
      .cls-1 {
        fill: #030303;
      }

      .cls-2 {
        fill: none;
      }
    </style>
  </defs>
  <rect class="cls-2" width="800" height="800"/>
  <path class="cls-1" d="M519.6,318.45c23.03,0,46.07-.09,69.1,.03,11.21,.06,16.82,4.9,16.25,14.06-.61,9.73-6.4,13.65-15.86,13.63-46.82-.1-93.64-.09-140.46-.02-9.49,.01-15.63-4.38-15.81-13.82-.18-9.55,5.81-13.97,15.42-13.92,23.79,.13,47.58,.04,71.36,.04Zm150.88-40.47c11.38-.07,16.37-4.49,16.4-13.97,.03-9.58-4.64-13.63-16.48-13.65-38.87-.08-77.74,.09-116.6-.12-9.62-.05-16.5,2.77-17.31,13.29-.69,8.93,6.06,14.4,17.39,14.46,19.24,.1,38.49,.03,57.74,.03,19.62,0,39.25,.09,58.87-.03ZM132.27,595.73c-11.53,.14-17.81,5.36-17.84,14.39-.03,8.98,6.43,14.83,17.61,14.92,25.71,.22,51.43,.2,77.15,.02,11.08-.08,18.04-6.01,18.19-14.67,.15-8.65-6.84-14.51-17.96-14.65-12.86-.16-25.72-.04-38.57-.04s-25.72-.12-38.57,.04Zm62.62-68.08c-10.42,.24-17.1,6.03-16.64,14.51,.56,10.28,7.39,14.59,16.7,14.73,21.54,.32,43.09,.33,64.62,0,9.3-.14,16.13-4.3,16.45-14.78,.27-8.85-5.8-14.21-16.52-14.47-10.58-.25-21.16-.05-31.75-.05-10.96,0-21.93-.2-32.88,.06Zm287.15-249.81c8.72-.69,12.49-6.35,12.2-14.64-.28-7.95-4.45-12.69-12.74-12.77-11.69-.13-23.38-.11-35.07-.02-8.74,.06-13.51,5.15-13.66,13.34-.15,8.17,4.57,13.49,13.08,14.13,5.63,.42,11.31,.08,16.97,.08,6.41,0,12.86,.4,19.23-.1Zm179.65,68.27c3.78,0,7.56,.12,11.33-.02,9.11-.33,13.92-5.05,13.84-14.25-.08-8.73-4.7-13.21-13.37-13.33-8.31-.11-16.62-.06-24.93,.02-8.4,.09-12.73,5.42-13.05,12.83-.34,7.94,3.92,13.78,12.59,14.62,4.49,.43,9.06,.08,13.59,.08v.06Zm87.75,59.79c-8,.82-13.24,5.22-13.61,13.81-.34,7.88,6.19,14.64,13.94,14.74,7.72,.1,14.21-6.56,14.16-14.53-.05-7.95-6.75-14.81-14.49-14.01Zm-620.82,121.9c-7.61-.76-14.26,6.42-14.22,14.33,.03,7.73,6.99,15.45,14.24,14.52,8.3-1.07,13.89-5.64,13.48-13.24-.19-10.68-5.59-14.83-13.5-15.61Zm635.17,120.62c-.16,23.02-18.04,40.47-41.25,41.13-15.12,.43-30.29,.61-45.39-.05-9.03-.4-15.7,2-21.82,8.86-9.05,10.14-19,19.49-28.76,28.98-9.69,9.43-16.28,10.12-24.89-.05-8.05-9.51-15.51-11.28-25.38-4.05-.89,.65-2.04,1.14-3.12,1.3-13.04,1.98-17.61,9.03-16.28,22.41,1.09,11.01-5.45,16.55-16.74,16.7-18.91,.26-37.83,.24-56.75,.01-12.2-.15-17.98-5.26-16.82-17.37,1.18-12.29-2.52-19.11-14.81-21.22-2.9-.5-5.86-1.84-8.31-3.5-7.44-5.04-12.78-4.11-19.14,2.9-12.44,13.69-17.33,13.19-30.58,.09-11.56-11.42-21.36-27.25-35.28-32.92-14.32-5.83-32.68-1.93-49.28-1.94-74.15-.08-148.32-.83-222.45,.34-31.53,.5-49.85-21.78-49.76-49.9,.63-184.62,.32-369.25,.33-553.87,0-33.04,16.3-49.19,49.59-49.19,209.22,0,418.43,0,627.65,0,33.63,0,49.39,15.64,49.4,49,.01,87.39,0,174.79,0,262.18,0,3.03,.21,6.08-.13,9.07-.97,8.44-6.39,13.39-14.33,13.13-7.17-.24-12.78-4.64-13.52-12.79-.31-3.38-.24-6.8-.24-10.2-.01-51.45,0-102.91,0-154.36q0-14.29-14.84-14.29c-106.69,0-213.38,0-320.07,0-107.45,0-214.89,.14-322.34-.24-9.99-.04-12.55,2.45-12.52,12.51,.35,149.44,.23,298.88,.25,448.32,0,18.24,3.73,22.01,21.74,22.01,87.39,.02,174.79,.02,262.18,0,15.54,0,19.49-6.12,13.07-19.96-.63-1.37-1.52-2.7-1.8-4.14-2.8-14.57-10.1-21.54-26.23-19.21-9.55,1.38-13.88-6.47-13.98-15.51-.21-19.29-.25-38.59,0-57.88,.15-11.71,5.8-17.88,17.77-16.83,12.36,1.08,19-2.98,20.96-15.1,.29-1.82,.97-3.8,2.07-5.24,7.01-9.2,5.13-15.93-3.64-23.51-11.13-9.62-10.51-16-.09-26.55,12.23-12.37,24.57-24.63,36.92-36.88,10.53-10.45,17.76-10.91,27.66-.04,6.78,7.45,12.97,10.74,21.8,4.02,1.47-1.11,3.33-2.03,5.13-2.33,13.34-2.23,18.35-9.4,16.85-23.24-1.19-11.02,4.89-15.86,17.01-16.01,18.54-.23,37.08-.22,55.61-.01,12.6,.14,18.66,5.54,17.73,18.05-.87,11.71,2.25,18.7,14.45,20.33,1.8,.24,3.68,1.15,5.17,2.23,9.55,6.95,16.73,5.38,24.52-3.89,8.41-10.02,16.42-9.28,26.02,.18,12.67,12.47,25.23,25.05,37.71,37.71,9.75,9.89,10.19,17.65-.41,26.87-8.25,7.17-10.16,13.7-3.77,22.64,1.5,2.09,2.6,4.74,3.02,7.28,1.83,10.91,7.93,14.16,18.82,13.45,14.08-.92,19.23,4.79,19.34,18.75,.15,17.78,.16,35.56,0,53.34-.13,14.36-4.67,19.37-19.34,18.34-11.03-.78-16.63,2.87-18.8,13.51-.89,4.34-3.3,8.4-5.18,12.52-4.01,8.81,.04,16.72,9.7,16.99,17.39,.5,34.81,.47,52.2,0,10.48-.29,15.19-6.26,15.23-18.38,.13-37.45,.05-74.91,.05-112.36,0-14.75-.16-29.51,.07-44.26,.17-10.81,5.46-16.57,14.6-16.11,9.98,.49,13.58,6.67,13.58,15.94-.05,54.1,.21,108.2-.16,162.3ZM78.05,150.83c107.81-.32,215.62-.2,323.43-.2s214.11-.12,321.16,.21c9.87,.03,14.07-1.69,13.35-12.74-1.06-16.2-.27-32.51-.27-48.78-.01-21.15-2.89-23.97-24.48-23.97-172.12,0-344.23,0-516.35,0-36.31,0-72.63-.05-108.94,.03-15.52,.04-19.66,4.15-19.73,19.37-.09,18.16,.54,36.34-.25,54.46-.43,9.74,2.97,11.66,12.1,11.64Zm594.95,421.37c0-2.27-.32-4.59,.06-6.8,1.24-7.27-1.99-9.2-8.76-8.49-11.82,1.24-19.73-3.61-22.27-15.76-2.97-14.22-8.9-27.21-16.51-39.47-4.01-6.47-4.38-12.64,.46-18.86q10.37-13.34-1.43-25.1c-.8-.8-1.76-1.49-2.4-2.41-5.31-7.58-10.32-8.34-16.37-.37-5.26,6.92-12.46,10.37-20.81,5.25-13.97-8.57-28.86-14.71-44.72-18.63-8.76-2.16-13.28-8.63-12.11-16.69,1.89-13.07-4.76-14.23-14.62-13.09-2.61,.3-5.35,.4-7.93-.02-9.25-1.49-13.24,1.84-11.72,11.49,1.86,11.76-4.58,17.52-15.25,19.75-13.46,2.82-25.89,8.24-37.4,15.58-9.29,5.92-16.93,4.62-24.01-3.45-2.21-2.51-4.86-4.64-7.87-7.47-1.6,1.31-3.06,2.34-4.32,3.57-4.33,4.23-8.27,8.91-12.95,12.7-6.27,5.09-6.1,9.15,.17,14.1,9.67,7.64,10.35,16.42,3.41,26.76-7.62,11.35-12.4,24.18-15.32,37.49-2.13,9.72-7.95,15.53-17.22,14.35-13.08-1.66-14.41,4.79-13.21,14.77,.27,2.24,.37,4.59-.02,6.79-1.86,10.7,2.85,14.17,13.03,12.74,8.05-1.13,14.72,1.81,16.6,10.12,3.71,16.4,10.27,31.47,18.9,45.78,3.54,5.87,2.41,11.54-1.43,16.94-3.19,4.48-11.28,7.22-9.69,12.7,1.48,5.13,7.81,8.86,12,13.2,.53,.54,1.17,1.01,1.58,1.63,5.32,8.18,10.44,7.66,16.36,.31,6.68-8.28,14.61-9.52,23.96-3.55,12.47,7.98,26.14,13.37,40.61,16.66,7.43,1.69,11.75,5.8,12.17,14.01,.82,16.1,1.05,16.08,17.43,16.08,1.13,0,2.29-.14,3.4,.02,9.6,1.44,14.58-1.14,13.23-12.33-1.06-8.8,3.44-15.54,12.53-17.63,15.22-3.51,29.42-9.28,42.63-17.58,7.42-4.66,15.12-4.62,20.39,2.31,8.37,10.99,14.73,7.97,21.38-1.19,.88-1.21,2-2.31,3.22-3.18,8.4-6.04,10.21-11.76,.61-18.82-6.3-4.64-8.91-11.59-4.49-19.01,8.56-14.37,14.99-29.55,19.06-45.77,1.63-6.48,5.62-10.21,12.74-10.79,16.88-1.39,16.87-1.56,16.87-18.68Zm-317.14-185.72c-8.44,14.73-16.89,29.45-25.47,44.1-7.32,12.5-13.5,14.16-25.93,7.25-15.56-8.65-30.36-.01-30.62,17.85-.2,13.95-4.37,18.26-18.21,18.49-9.07,.15-18.14,.03-27.22,.02-9.83,0-19.66,.21-29.48-.06-11.81-.33-16.11-4.91-16.44-16.76-.37-13.13-5.94-20.47-17.85-24.28-4.51-1.44-7.1,1.7-10.23,3.43-15.72,8.67-20.9,7.32-29.97-8.32-8.52-14.69-17.03-29.39-25.41-44.16-6.9-12.17-5.32-18.16,6.33-25.25,15.91-9.68,15.93-26.14,.05-35.87-11.62-7.11-13.3-13.28-6.47-25.34,8.92-15.76,17.95-31.46,27.14-47.07,7.32-12.44,13.27-13.83,26.07-6.62,15.07,8.49,30.13-.49,30.34-18.08,.17-13.99,4.28-18.24,18.23-18.33,18.52-.11,37.04-.14,55.56,0,13.12,.1,17.33,4.56,17.56,17.9,.32,18.54,14.92,26.99,31.24,18.07,12.16-6.64,17.94-5.15,25.05,6.95,9.18,15.62,18.23,31.32,27.17,47.07,6.86,12.1,5.91,19.99-6.41,25.01-13.75,5.6-11.06,15.91-11.45,26.01-.21,5.6,4.96,6.17,8.21,8.15,16,9.73,17.3,13.95,8.21,29.81Zm-36.36-13.14c-8.38-3.75-11.13-10.71-9.13-19.68,2.01-8.99,1.75-17.97-.18-26.99-1.46-6.84-.25-13.84,6.52-16.54,12.7-5.06,8.91-11.83,3.57-19.64-2.34-3.42-4.44-7.06-6.17-10.82-2.52-5.48-5.54-6-10.36-2.51-8.09,5.86-15.94,5.32-23.62-1.45-6.86-6.05-14.95-10.23-23.53-13.36-5.78-2.11-11.24-5.88-10.39-11.93,2.34-16.53-7.98-15.27-18.48-14.64-2.64,.16-5.32,.27-7.94-.02-7.13-.79-10.72,1.47-9.66,9.37,1.07,7.97-1.87,14.13-9.83,17.05-9.68,3.55-18.46,8.64-26.37,15.22-5.2,4.32-11.82,5.99-16.76,2.05-10.79-8.61-14.68-2.02-18.66,6.63-1.41,3.08-3.08,6.12-5.1,8.82-4.3,5.73-4.43,9.8,3.06,13,7.37,3.15,10.94,9.16,9.59,17.37-1.73,10.56-1.49,21.07,.04,31.62,.81,5.62-.28,11.78-5.47,13.89-14.36,5.82-9.84,13.49-3.48,22.12,2,2.71,3.57,5.8,4.98,8.88,2.47,5.39,5.68,6.27,10.52,2.69,8.72-6.47,16.56-4.53,24.61,2.05,5.19,4.24,11.19,8.04,17.46,10.28,11.03,3.94,17.45,10.03,15.54,22.51-.92,6.05,3.01,7.53,7.6,6.4,9.14-2.24,19.93,5.74,27.65-4.51,.37-.49,.16-1.49,.07-2.23-1.54-11.93,4.59-18.17,15.32-21.6,4.24-1.35,8.54-3.49,11.95-6.31,10.49-8.68,20.88-15.66,34.07-4.96,.55,.44,1.35,.57,2.07,.86,2.94,0,3.41-2.74,4.52-4.48,3.23-5.1,5.74-10.69,9.26-15.56,4.48-6.19,4.3-10.19-3.26-13.58ZM585.43,122.1c28.34,0,56.67,.11,85.01-.06,11.96-.07,17.75-6.02,16.31-16.39-1.53-11.04-9.7-11.83-18.58-11.82-98.61,.06-197.22,.04-295.83,.06-3.01,0-6.14-.2-9.02,.49-5.56,1.33-9.38,4.88-10.33,10.72-.99,6.11,.95,11.09,6.22,14.73,4.09,2.82,8.67,2.24,13.13,2.24,49.49,.05,98.99,.03,148.48,.03,21.54,0,43.07,0,64.61,0Zm-457.77-.26c8.26,.41,13.5-3.83,14.26-12.41,.79-8.95-3.34-14.66-12.36-15.35-8.79-.67-13.98,4.02-15.28,12.63,.31,8.98,4.38,14.68,13.38,15.13Zm77.46-14.09c-.71-7.98-5.1-13.28-13.66-13.79-7.79-.46-15.08,6.15-15.3,13.61-.21,7.28,6.93,14.36,14.57,14.44,7.81,.08,15.07-6.65,14.39-14.26Zm47.99-13.7c-8.21,.07-13.48,4.58-13.74,13.13-.27,8.89,4.45,14.34,13.37,14.67,8.97,.33,13.67-4.78,14.23-13.32-.2-9.51-4.92-14.55-13.87-14.47Zm260.71,572.15c-50.8,1-94.42-40.74-95.18-91.09-.77-51.2,40.04-93.15,91.63-94.18,50.71-1.02,92.18,39.14,93.63,90.68,1.41,50.21-39.91,93.6-90.09,94.59Zm61.63-92.47c.22-34.88-28-63.83-62.7-64.32-35.58-.5-64.59,27.65-64.87,62.96-.29,36.1,27.23,64.33,62.94,64.58,35.7,.25,64.4-27.83,64.62-63.22Zm-299.3-232.32c-.32,26.8-22.06,48.17-48.63,47.79-26.46-.38-47.81-22.33-47.65-49,.16-26.39,22.43-48.18,48.84-47.79,26.78,.4,47.76,22.07,47.44,49Zm-28.32-1.04c-.21-10.62-9.13-19.24-19.83-19.14-10.7,.1-19.58,8.9-19.62,19.44-.04,11.11,9.17,19.91,20.49,19.6,10.67-.29,19.16-9.21,18.95-19.9Z"/>
</svg>