<?xml version="1.0" encoding="UTF-8"?>
<svg id="Layer_1" data-name="Layer 1" xmlns="http://www.w3.org/2000/svg" viewBox="0 0 800 800">
  <defs>
    <style>
      .cls-1 {
        fill: none;
      }

      .cls-2 {
        fill: #010101;
      }
    </style>
  </defs>
  <rect class="cls-1" width="800" height="800"/>
  <path class="cls-2" d="M766.84,352.56c-.08-11.67-5.04-16.27-17.02-16.43-15.26-.2-30.53-.33-45.78,.07-6.44,.17-9.35-1.7-10.89-8.35-6.92-29.88-18.56-57.94-34.91-83.9-3.46-5.49-2.09-8.46,2.02-12.39,11.03-10.54,21.81-21.35,32.45-32.28,8.67-8.91,8.8-15.91,.11-24.71-21.98-22.26-44.1-44.38-66.36-66.35-9.53-9.4-16.04-9.34-25.51-.11-10.65,10.38-21.36,20.74-31.42,31.69-4.82,5.25-8.54,5.43-14.36,1.79-25.36-15.85-52.73-27.15-81.85-33.87-6.45-1.49-8.83-3.95-8.64-10.6,.43-15.25,.27-30.52,.09-45.78-.14-12.59-4.71-17.18-17.36-17.23-31.29-.13-62.57-.12-93.86-.01-13.49,.05-17.33,4.07-17.46,18.05-.13,14.88-.24,29.76,.07,44.64,.12,5.75-1.22,9.27-7.42,10.63-30.39,6.68-58.66,18.72-85.06,35.03-5.09,3.14-7.92,2.18-11.63-1.67-10.6-10.97-21.38-21.78-32.3-32.44-9.64-9.41-16.06-9.57-25.45-.29-22.25,21.99-44.37,44.1-66.35,66.35-9.23,9.34-9,15.71,.49,25.43,10.13,10.37,20.15,20.89,30.86,30.64,5.62,5.12,5.93,8.95,1.97,15.33-15.75,25.4-27.1,52.76-33.66,81.95-1.46,6.51-4.45,8.64-10.95,8.45-14.49-.41-28.99-.2-43.49-.11-15.49,.1-19.02,3.57-19.09,18.73-.07,14.88-.01,29.76-.01,44.64,0,16.02-.12,32.05,.04,48.07,.13,12.57,4.69,17.09,17.37,17.23,15.26,.17,30.53,.26,45.78-.07,5.86-.12,8.92,1.41,10.3,7.62,6.61,29.57,18.06,57.27,34.15,82.93,3.75,5.98,3.03,9.64-2.03,14.33-10.63,9.85-20.71,20.29-30.87,30.63-10.14,10.32-10.12,16.71,.28,27.18,21.51,21.65,43.09,43.24,64.77,64.71,9.77,9.67,16.29,9.53,26.31-.3,10.62-10.42,21.22-20.87,31.49-31.63,3.98-4.17,6.96-5.32,12.39-1.9,25.95,16.37,54.03,27.97,83.92,34.86,6.73,1.55,8.37,4.68,8.22,11.02-.37,15.25-.27,30.52-.05,45.78,.17,11.89,4.86,16.83,16.56,16.91,31.67,.21,63.34,.21,95.01,0,12.13-.08,16.94-5.33,17.08-17.84,.17-15.26,.27-30.53-.07-45.78-.14-5.99,1.63-8.6,7.81-10.03,29.89-6.92,57.93-18.65,83.96-34.89,5.32-3.32,8.38-2.46,12.42,1.8,10.23,10.79,20.86,21.21,31.47,31.65,10.01,9.85,16.48,10.03,26.25,.35,21.95-21.75,43.81-43.6,65.55-65.57,9.62-9.72,9.41-16.22-.47-26.27-10.17-10.33-20.25-20.78-30.88-30.62-5.09-4.71-5.64-8.25-1.88-14.27,15.83-25.37,27.24-52.75,33.96-81.88,1.67-7.25,4.73-9.04,11.6-8.82,14.87,.47,29.76,.28,44.64,.1,12.4-.15,17.64-5.03,17.72-17.2,.21-31.67,.22-63.34,0-95Zm-28.93,75.68c.14,6.75-2.5,8.46-8.75,8.32-14.49-.33-29,.08-43.49-.16-10.15-.16-15.31,4.63-17.15,14.45-6.83,36.36-20.62,69.92-41.11,100.76-8.11,12.22-7.44,17.44,2.89,27.84,9.67,9.74,19.28,19.56,29.19,29.06,3.8,3.64,4.43,5.96,.21,10.02-14.02,13.47-27.77,27.23-41.24,41.26-4.16,4.33-6.5,3.23-10.03-.43-10.06-10.43-20.53-20.47-30.63-30.86-7.61-7.82-15.38-8.43-24.42-2.31-31.6,21.42-66.19,35.68-103.78,42.57-8.71,1.6-13.23,6.77-13.17,15.88,.11,14.88-.23,29.76,.13,44.63,.15,6.41-1.86,8.92-8.46,8.6-9.13-.44-18.31-.11-27.46-.11-9.54,0-19.09-.27-28.61,.1-5.9,.23-8.07-1.69-7.91-7.78,.36-14.49-.18-29,.21-43.49,.29-10.67-4.5-16.14-14.81-18.08-36.36-6.84-69.88-20.72-100.74-41.14-12.24-8.1-17.39-7.42-27.85,2.98-9.73,9.68-19.52,19.31-29.03,29.2-3.63,3.78-5.99,4.17-9.94,.05-13.2-13.76-26.6-27.35-40.46-40.43-5.32-5.01-3.62-7.65,.66-11.72,9.94-9.47,19.29-19.55,29.25-29,8.21-7.8,9.53-15.52,2.93-25.21-21.07-30.89-35.19-64.78-42.01-101.59-2.01-10.83-7.83-15.66-18.93-15.31-14.1,.44-28.24-.15-42.34,.22-6.39,.17-8.77-1.86-8.65-8.44,.34-18.69,.3-37.39,.02-56.08-.09-5.9,1.76-8.06,7.83-7.92,14.87,.35,29.76-.08,44.63,.18,9.61,.17,15.13-4.34,16.87-13.49,7.21-37.92,21.48-72.89,43.28-104.76,5.58-8.16,4.91-15.53-2.22-22.52-10.36-10.14-20.32-20.68-30.87-30.61-4.6-4.33-5.22-7.06-.29-11.76,13.53-12.88,26.8-26.07,39.64-39.65,4.89-5.17,7.57-3.87,11.74,.53,9.43,9.97,19.59,19.26,28.97,29.27,7.8,8.32,15.57,9.63,25.19,3.06,31.23-21.31,65.52-35.37,102.69-42.35,10.21-1.92,14.82-7.83,14.48-18.45-.46-14.1,.11-28.23-.22-42.34-.14-6.04,1.05-9.02,8.05-8.87,18.68,.42,37.39,.37,56.08,.02,6.73-.13,8.45,2.55,8.3,8.79-.34,14.49,.1,29-.17,43.49-.19,10.12,4.54,15.59,14.28,17.41,37.56,7.03,72.14,21.3,103.64,42.96,8.14,5.6,15.6,4.93,22.59-2.12,10.2-10.3,20.67-20.34,30.64-30.85,4.17-4.39,6.81-5.7,11.73-.5,13.09,13.86,26.65,27.29,40.43,40.46,4.27,4.08,3.42,6.41-.22,9.93-10.42,10.07-20.48,20.51-30.9,30.58-7.87,7.6-8.56,15.58-2.47,24.5,21.53,31.56,35.69,66.16,42.67,103.73,1.7,9.14,7.14,13.74,16.8,13.55,14.49-.28,29,.15,43.49-.17,6.01-.13,9.01,1.01,8.85,8.02-.43,18.68-.39,37.39-.02,56.08ZM399.94,155.94c-134.6-.34-244.68,110.64-244.13,244.9,.55,134.24,110.03,243.62,244.17,243.93,134.23,.31,244.91-110.27,244.77-244.56-.86-135.17-108.72-243.92-244.81-244.27Zm-.02,459.83c-118.57-.08-214.92-96.72-214.89-215.54,.03-119.11,96.06-215.18,215.11-215.2,118.9-.02,215.62,96.31,215.63,214.78,.01,119.21-96.77,216.04-215.85,215.96Zm136.34-319c0-7.23-5.57-10.36-11.43-12.71-38.08-15.27-76.22-30.41-114.24-45.83-7.15-2.9-13.62-2.87-20.81,.07-37.65,15.35-75.38,30.51-113.24,45.36-9.14,3.59-13.13,9.45-12.94,19.06,.25,12.96,.06,25.92,.06,32.9-1.95,93.29,30.84,163.31,104.73,211.58,37.91,24.76,24.75,24.94,63.99-.03,45.7-29.08,76.76-69.81,93.9-121.23,14.08-42.25,9.99-85.86,9.98-129.17Zm-42.91,135.24c-18.28,43.07-48.53,74.98-88.27,98.75-5.32,3.18-8.32,.48-12.19-1.88-69.71-42.51-102.32-104.97-100.41-186.11,.98-11.37-4.37-25.39,2.06-33.39,6.26-7.78,19.97-9.65,30.49-13.89,22.92-9.24,45.94-18.21,68.8-27.58,4.55-1.86,8.24-1.92,12.88-.03,30.97,12.62,62.13,24.8,93.13,37.34,3.46,1.4,8.38,1.54,8.42,7.65,.29,40.38,1.4,80.71-14.91,119.14Zm-157.06-43.13c-.41-5.75,2.14-9.96,6.92-12.26,5.44-2.61,11.31-2.62,16.01,1.65,6.47,5.88,12.89,11.9,18.6,18.49,5.57,6.44,9.43,7.42,15.89,.42,13.91-15.09,28.78-29.32,43.38-43.77,9.26-9.16,16.78-10.01,23.74-3.09,6.3,6.27,5.04,15.02-3.71,23.82-19.04,19.15-38.12,38.27-57.28,57.29-11.1,11.02-16.62,10.98-27.74,.02-10.02-9.88-19.91-19.9-29.89-29.82-3.61-3.59-6.67-7.38-5.91-12.76Z"/>
</svg>