<?xml version="1.0" encoding="UTF-8"?>
<svg id="Layer_1" data-name="Layer 1" xmlns="http://www.w3.org/2000/svg" viewBox="0 0 800 800">
  <defs>
    <style>
      .cls-1 {
        fill: #090909;
      }

      .cls-2 {
        fill: none;
      }
    </style>
  </defs>
  <rect class="cls-2" width="800" height="800"/>
  <path class="cls-1" d="M251.6,633.25c.23-8.76,5.3-13.33,13.46-14.16,7.75-.78,14.65,6.32,14.78,14.29,.13,7.89-6.76,15.67-14.27,14.88-8.48-.89-14.25-5.37-13.97-15.01Zm408.44,86.64c-76.64,31.24-162.35-1.83-204.25-61.5-5.45-7.76-11.04-9.93-19.89-9.81-33.58,.45-67.17,.14-100.75,.21-6.32,.01-12.49-.42-17.2-5.17-4.57-4.61-5.18-10.54-2.68-16.11,2.76-6.14,8.23-8.64,15.08-8.62,30.88,.11,61.77-.25,92.64,.22,9.16,.14,10.58-1.28,7.86-10.74-14.84-51.51-8.58-100.48,20.61-145.92,3.58-5.58,4.62-10.33,2.79-17.1-3.41-12.57-5.35-25.56-7.4-38.46-2.41-15.1,6.5-22.46,21.4-18.06,5.9,1.74,12.22,2.69,17.58,5.48,22.57,11.72,43.17,3.58,64.68-4.05,18.17-6.45,37.63-8.41,57.04-6.55,6.4,.62,7.93-1.28,7.91-7.34-.17-58.29-.28-116.57,.08-174.86,.06-9.73-5.79-7.99-11.36-7.99-72.19-.02-144.37-.01-216.56-.01h-50.95c-88.78,0-177.57,.12-266.35-.18-8.81-.03-11.8,1.83-11.77,11.34,.34,128.15,.2,256.31,.25,384.46,0,21.98,7.97,29.78,29.95,29.79,35.51,.02,71.03-.02,106.54,.02,13.32,.01,19.53,4.42,19.91,13.96,.41,10.14-6.25,15.75-19.66,15.8-36.29,.14-72.57,.34-108.86-.04-35.62-.36-56.98-22.57-56.98-58.44-.01-157.49-.02-314.98,0-472.46,0-35.24,21.6-56.92,56.85-56.93,166.76-.04,333.52-.04,500.28,0,36.16,0,57.16,21.09,57.2,57.61,.09,86.08,.17,172.16-.17,258.23-.04,9.29,2.05,14.11,11.58,17.45,68.17,23.93,114.84,88.53,115.55,158.74,.76,75.46-42.79,139.23-110.94,167.01Zm-44.5-566.46c-.81-10.74-.17-21.6-.19-32.4-.04-23.2-7.92-31.08-31.25-31.08-98.41-.02-196.82,0-295.22,0-66.76,0-133.53-.03-200.29,.02-21.83,.01-29.71,8.02-29.81,30.06-.05,11.19,.63,22.43-.21,33.56-.72,9.49,2.88,11.39,11.74,11.36,88.37-.31,176.75-.19,265.12-.19s179.06-.14,268.6,.21c9.14,.04,12.21-2.29,11.52-11.52Zm26.96,345.3c0,19.25,.13,36.52-.04,53.79-.16,16.03-4.24,20.08-19.79,20.14-17.37,.07-34.74,.07-52.11,0-14.64-.06-19.47-4.78-19.57-19.24-.11-17.55-.03-35.1-.03-54.54-2.82,2.26-3.99,3.07-5.02,4.04-36.53,34.32-30.99,92.63,11.85,118.93,9.6,5.89,13.38,12.45,11.94,23.53-1.98,15.27-2.6,30.72-4.21,46.04-.52,4.92-.41,7.63,5.64,8.7,17.3,3.06,34.42,3.17,51.7-.01,4.87-.9,6.18-2.41,5.62-7.56-1.63-14.94-1.46-30.14-3.92-44.91-2.12-12.67,2.03-19.62,12.7-26.29,43.69-27.32,47.17-89.16,5.25-122.6Zm-93.37-76.83c-23.84,8.91-44.16,11.38-66.7,1.64-.5-.22-1.31,.29-2.63,.63,1.07,5.11,2.6,10.24,3.15,15.47,1.17,11.01,5.88,21.26-2.71,32.81-26.49,35.65-34.48,76.2-23.72,119.23,11.04,44.17,37.82,76.45,80.14,97.59,1.16-13.16,1.68-24.35,3.31-35.38,.87-5.87-1-8.96-5.44-12.48-64.33-50.92-52.3-146.13,22.58-179.81,12.52-5.63,22.6,.34,23.06,14.32,.49,14.65,.12,29.33,.12,43.99,0,24.15,0,23.87,24.28,23.85,6.9,0,9.35-1.48,9.14-8.85-.54-18.9-.26-37.82-.15-56.73,.1-17,9.45-22.76,25.04-15.58,73.52,33.85,84.91,128.15,21.6,178.62-2.86,2.28-7.54,3.7-6.65,8.53,2.32,12.63,.96,25.79,5.14,39.06,46.46-23.8,74.56-60.65,81.85-111.24,15.49-107.38-89.8-193.67-191.42-155.66Zm-167.74,134.25c-.27,11.58-6.51,16.38-19.19,16.4-39,.08-77.99,.03-116.99,.03-38.61,0-77.22,.02-115.83-.01-16.16-.01-20.85-4.58-20.89-20.31-.05-20.85-.12-41.7,.03-62.54,.08-11.88,4.99-17.36,16.64-17.38,79.92-.16,159.84-.08,239.76-.07,10.39,0,16.19,5.81,16.42,15.56,.56,22.76,.56,45.56,.04,68.33Zm-29.43-46.54c.42-6.58-1.76-8.45-8.38-8.43-65.95,.24-131.9,.21-197.85,.03-5.86-.02-8.4,1.42-8.08,7.69,.43,8.46,.54,16.99-.03,25.44-.48,7.19,2.03,9.1,9.14,9.02,32.78-.38,65.56-.17,98.34-.17,24.68,0,49.37,.24,74.05-.11,10.62-.15,25.15,4.86,30.79-2.16,5.35-6.65,1.32-20.6,2.01-31.31Zm210.42-231.34c.13,9.82-5.83,14.55-15.4,14.92-3.08,.12-6.17,.05-9.26,.05-46.69,0-93.39,0-140.08,0s-95.7,.1-143.55-.11c-6.64-.03-10.83,.94-14.37,7.86-8.37,16.36-22.61,24.81-41.23,24.89-19.12,.09-33.46-8.61-42.01-25.45-3.02-5.95-6.29-7.66-12.35-7.29-6.92,.42-13.9,.32-20.83-.06-9.03-.48-14.64-5.47-14.58-14.59,.06-9.18,5.9-13.72,14.89-14.26,1.92-.12,3.88-.25,5.78-.03,13.95,1.65,23.56-1.23,32.73-14.9,18.46-27.49,61.27-23.2,77.29,6.31,3.78,6.97,7.73,8.72,15.04,8.7,94.55-.23,189.09-.15,283.64-.15,3.09,0,6.18-.08,9.26,.05,9,.38,14.9,4.76,15.02,14.04Zm-345.5,.92c.39-9.17-8.64-18.68-18.08-19.03-9.81-.37-18.41,7.93-18.63,17.98-.23,10.17,7.65,18.67,17.57,18.97,9.4,.28,18.74-8.46,19.14-17.91Zm197.45,111.43c.15,10.02-6.05,15.22-18.59,15.31-14.28,.1-28.56,.22-42.83-.08-5.17-.11-7.96,1.4-10.68,6.19-20.2,35.52-64.71,35.63-84.47,.02-3.22-5.8-6.7-6.15-11.85-6.14-37.43,.08-74.86,.04-112.29,.04-2.32,0-4.63,.05-6.95-.01-11.17-.29-18.17-6.13-18.14-15.09,.03-8.93,6.83-14.58,18.48-14.69,20.06-.19,40.13-.05,60.2-.05,19.68,0,39.36-.16,59.04,.1,5.55,.07,8.73-1.2,11.61-6.67,8.73-16.6,22.86-25.82,41.92-25.89,19.05-.07,33.39,8.87,42.1,25.55,3.1,5.94,6.61,7.16,12.51,7.02,13.88-.33,27.78-.24,41.67-.07,12.21,.15,18.12,5,18.26,14.47Zm-96.12,.65c.2-9.81-7.18-17.74-17.07-18.33-10.47-.63-18.68,6.84-18.97,17.25-.29,10.63,7.15,18.89,17.3,19.2,9.94,.31,18.53-7.99,18.74-18.11ZM157.15,113.74c-8.37,.1-13.59,5.04-13.85,13.62-.28,9.17,4.96,14.49,13.87,14.78,9.12,.3,13.87-5.08,14.29-14.12-.27-9.4-5.36-14.38-14.31-14.28Zm-68.01,14.93c.41,8.59,5.43,13.55,13.93,13.54,9.1-.01,14.03-5.53,14.42-14.46,.35-7.98-6.7-14.45-15.87-14.2-7.7,1.19-12.92,5.86-12.48,15.11Z"/>
</svg>