<?xml version="1.0" encoding="UTF-8"?>
<svg id="Layer_1" data-name="Layer 1" xmlns="http://www.w3.org/2000/svg" viewBox="0 0 800 800">
  <defs>
    <style>
      .cls-1 {
        fill: none;
      }

      .cls-2 {
        fill: #010101;
      }
    </style>
  </defs>
  <rect class="cls-1" width="800" height="800"/>
  <path class="cls-2" d="M770.11,418.74c-9.17-23.51-31.06-37.25-57.2-35.14-4.99,.4-7.67-.86-10.77-4.48-25.13-29.32-60.53-33.28-91.22-10.23-41.35,31.05-82.84,61.93-123.69,93.63-9.67,7.51-18.96,10.57-30.76,8.47-8.01-1.43-16.23-1.61-24.34-2.5-63.75-6.95-127.51-13.79-191.23-21-18.83-2.13-35.24,2.68-50.13,14.1-16.97,13.01-34.57,25.22-51.03,38.84-8.57,7.09-13.37,8.23-20.03-2.23-7.61-11.95-14.9-12.4-26.24-3.94-19.63,14.65-39.21,29.37-58.63,44.3-10.68,8.22-11.5,14.97-3.4,25.72,50.29,66.79,100.62,133.55,151.01,200.25,9.68,12.81,15.35,13.59,28.09,4.1,17.46-13.01,34.76-26.23,52.16-39.32,17.76-13.36,18.23-16.4,5.58-34.76-1.59-2.3-5.94-5.31-2.49-7.81,14.16-10.27,25.97-25.9,46.48-23.22,23.89,3.12,47.71,6.7,71.57,10.04,26.16,3.65,52.33,7.25,78.5,10.87,14.25,.09,27.11-4.04,38.28-12.44,83.92-63.08,167.84-126.14,251.45-189.63,20.51-15.58,26.91-40.9,18.04-63.62Zm-261.39,63.96c41.33-30.94,82.37-62.26,123.88-92.96,13.1-9.69,30.92-7.89,41.97,2.31,4.31,3.98,5.08,6.76-.36,10.83-50.95,38.11-101.73,76.45-153.96,115.78-2.17-10.85-6.07-19.64-12.55-26.93-3.54-3.98-3.02-5.99,1.03-9.03Zm-272.94,230.32c-10.18,7.13-20.1,14.66-29.82,22.42-4.42,3.53-6.68,2.87-10.02-1.59-43.14-57.56-86.48-114.97-129.82-172.39-2.45-3.25-5.16-5.98-.25-9.57,11.3-8.25,22.41-16.77,33.61-25.16,.89-.67,1.91-1.18,3.31-2.04,1.53,1.77,3.12,3.41,4.49,5.22,43.31,57.45,86.54,114.96,130.01,172.28,3.72,4.9,3.44,7.36-1.51,10.83Zm508.06-269.88c-1.14,7.38-5.25,12.76-11.04,17.13-82.59,62.23-165.18,124.49-247.78,186.71-8.47,6.38-17.75,8.49-28.5,6.92-44.59-6.5-89.34-11.95-133.85-18.9-26.68-4.16-48.2,5.08-67.05,22.32-7.97,7.28-11.6,5.63-17.59-2.53-27.4-37.3-55.28-74.26-83.67-110.8-6.86-8.83-8.16-13.65,2.46-20.31,13.13-8.23,26.18-17.27,37.19-28.07,19.4-19.04,41.43-20.4,66.73-17.06,54.72,7.21,109.71,12.33,164.6,18.31,13.53,1.47,27.06,2.88,40.57,4.48,16.72,1.98,26.4,13.11,25.27,28.8-1.03,14.24-13.27,24.21-29.66,22.71-40.26-3.7-80.47-8-120.69-12.1-11.93-1.22-19.22,2.93-20.39,11.8-1.31,9.88,4.93,16.05,17.14,17.29,40.24,4.06,80.47,8.2,126.42,12.89,11.16,1.63,25.53-3.94,38.82-13.99,65.75-49.73,131.64-99.27,197.4-148.97,9.95-7.52,20.48-9.81,31.46-3.45,10.07,5.83,13.96,15.2,12.16,26.83Zm-131.39-226.64c-.36-23.4-12.03-40.28-32.47-51.41-9.69-5.28-20.61-5.19-31.15-7.25,19.09-43.91,13.89-77.38-15.25-100.22-26.68-20.92-62.87-21.37-89.73-1.12-30.47,22.98-35.95,55.87-16.75,101.4-9.87,1.71-20.11,1.63-29.22,6.39-2.48,1.3-4.39,.72-6.2-1.18-13.03-13.73-29.48-19.23-48.24-19.09,19.06-48.49,13.59-80.07-17.38-102.84-27.03-19.87-64.72-18.5-90.75,3.28-27.94,23.38-32.66,57.86-12.86,99.42-2.41,.18-3.95,.32-5.49,.4-32.89,1.77-55.33,21.03-57.96,53.83-2.3,28.63-1.12,57.54-1.15,86.33-.02,16.69,4.81,21.15,21.64,21.16,58,.02,116,.02,174-.01,5.08,0,9.54-1.08,9.68,7.19,.33,18.92,4.84,22.62,24.03,22.66,5.84,.01,11.68,0,17.52,0,62.28,0,124.56,.05,186.84-.03,16.01-.02,21.01-5.09,21.02-20.8,.04-32.7,.37-65.4-.13-98.09ZM282.52,56.34c24.09-.15,45.41,21.19,44.61,44.67-.81,23.87-21.08,43.41-44.82,43.2-24.42-.21-43.92-20.47-43.51-45.19,.38-23.18,20.21-42.54,43.72-42.69Zm22.74,118.09c-7.94,11.29-14.94,21.23-22.56,32.07-7.55-10.77-14.34-20.45-22.49-32.07h45.05Zm65.7,13.96c-10.57,18.28-7.52,38.37-8.09,58.02-.28,9.63,4.15,22.12-1.79,28.12-5.97,6.04-18.48,1.48-28.12,1.82-9.32,.33-18.66,.07-27.99,.07-15.55,0-31.12-.5-46.64,.19-9.12,.4-14.32-1.36-12.39-11.77,.28-1.5,.16-3.13-.06-4.65-1.17-7.98-5.87-12.73-13.86-13.08-8.05-.35-12.78,3.96-14.67,12-1.3,5.56,2.71,13.6-2.88,16.25-5.46,2.58-12.94,.72-19.51,1.11-5.29,.32-7.64-1.3-7.56-7.15,.3-22.93-.31-45.89,.33-68.81,.43-15.67,15.15-27.47,30.91-26.94,5.31,.18,7.46,3.32,9.89,6.77,13.15,18.75,26.17,37.59,39.42,56.27,10.34,14.58,19.36,14.45,29.81-.32,13-18.38,25.82-36.88,38.81-55.26,7.3-10.34,29.04-8.37,34.23,3.08,.56,1.23,.79,3.21,.18,4.27Zm117.27-116.77c24.79,.05,43.34,18.62,43.3,43.35-.04,24.66-18.76,43.49-43.33,43.56-25.09,.08-43.92-18.91-43.8-44.16,.12-24.45,18.92-42.8,43.82-42.75Zm21.92,117.89c-7.55,10.84-14.52,20.83-22.13,31.75-7.65-10.92-14.5-20.7-22.24-31.75h44.36Zm61.53,115.97c-1.52-.23-3.13-.21-4.66,0-9.2,1.26-14.67-.46-13.15-11.99,1.22-9.24-3.41-15.87-13.63-16.61-9.53-.69-16.14,4.83-15.52,15.96,.64,11.55-3.99,13.26-13.85,12.8-15.53-.73-31.15-.75-46.67,.01-9.61,.47-13.92-1.19-13.04-12.31,.93-11.75-6.71-17.9-17.21-16.32-9.23,1.39-12.82,8.28-12.02,15.93,1.23,11.88-4.37,13.82-13.92,12.5-.38-.05-.79-.07-1.16,0-10.73,1.95-15.34-1.41-14.1-13.29,1.2-11.55,.26-23.32,.28-34.99,.01-13.62-.21-27.24,.08-40.86,.26-12.21,7.96-22.83,19.44-26.34,8.81-2.69,16.63-2.99,22.9,6.92,11.41,18.04,24.21,35.2,36.55,52.63,11.73,16.56,20.48,16.56,31.94,.22,11.38-16.22,23.15-32.18,34-48.75,5.75-8.78,11.45-15.21,23.19-12.01,10.9,2.97,19.57,11.96,21.31,23.64,.63,4.21,.82,8.52,.83,12.78,.08,22.96-.47,45.93,.28,68.87,.32,9.64-3.02,12.57-11.85,11.2Z"/>
</svg>