<?xml version="1.0" encoding="UTF-8"?>
<svg id="Layer_1" data-name="Layer 1" xmlns="http://www.w3.org/2000/svg" viewBox="0 0 800 800">
  <defs>
    <style>
      .cls-1 {
        fill: #020202;
      }

      .cls-2 {
        fill: none;
      }
    </style>
  </defs>
  <rect class="cls-2" width="800" height="800"/>
  <path class="cls-1" d="M666.66,497.66c.65,5.1-1.63,8.85-4.58,12.58-15.85,20.02-31.49,40.2-47.36,60.21-8.17,10.29-14.48,11.13-25.37,3.53-12.49-8.72-24.91-17.57-37.22-26.55-9.74-7.1-11.94-14.73-6.79-22.14,5.28-7.58,13.49-7.92,23.86-.82,7.54,5.16,15.27,10.11,22.34,15.85,5.26,4.27,8.07,2.92,11.77-1.93,12.23-16.07,24.75-31.93,37.4-47.68,4.23-5.27,9.54-8.89,16.89-5.84,5.76,2.39,9.66,6.1,9.05,12.78Zm100.49,92.1c-1.5,52.28-26.53,92.61-71.93,118.72-27.73,15.95-56.89,29.42-85.33,44.15-6.35,3.29-12.15,2.98-18.42-.26-27.42-14.21-55.32-27.54-82.36-42.45-40.1-22.11-64.86-55.92-72.33-101.43-1.39-8.45-6.19-7.81-12.05-7.8-107.48,.05-214.97,.05-322.45,.03-43.21,0-69.37-25.99-69.39-68.89-.01-23.72,.08-47.43-.03-71.15-.08-16.76,5.06-31.58,16.59-43.75,4.06-4.29,5.5-6.78,.57-11.83-12.29-12.59-17.39-28.22-17.2-45.83,.25-24.09,.27-48.2,0-72.29-.2-17.61,4.97-33.13,17.11-45.88,4.01-4.2,4.54-6.6,.25-11.02-12.91-13.31-17.71-29.68-17.39-48.07,.4-22.94,.08-45.9,.1-68.85,.04-40.63,25.42-66.7,66.12-67.26,29.45-.4,58.9-.08,88.36-.08,40.16,0,80.33,0,120.49,0,68.85,0,137.7-.13,206.55,.05,34.65,.09,56.89,17.03,65.93,48.88,1.41,4.96,1.39,9.8,1.42,14.71,.12,24.86-.24,49.73,.16,74.59,.29,17.71-5.3,32.94-17.03,45.97-2.98,3.31-5.75,5.4-1.09,10.04,13.77,13.72,19.03,30.75,18.1,50.04-.46,9.54,.46,19.16-.24,28.67-.62,8.32,1.54,11.34,10.54,11.03,21.01-.72,42.08,.1,63.1-.39,8.56-.2,14.22,2.58,19.06,9.73,19.41,28.66,46.02,47.31,79.73,55.64,9.56,2.36,13.64,8.28,13.61,18.26-.22,58.9,1.16,117.85-.53,176.7ZM61.74,182.13c.16,25.92,13.7,39.43,39.69,39.44,137.31,.05,274.62,.05,411.93,0,25.72,0,39.67-13.8,39.93-39.56,.23-22.95,.27-45.9,0-68.84-.31-25.42-13.78-38.4-39.43-38.42-68.46-.03-136.93-.01-205.39-.01-69.61,0-139.22-.04-208.83,.02-24.17,.02-37.6,13.2-37.86,37.37-.25,23.33-.17,46.66-.02,69.99Zm372.91,253.8c.63-9.09-2.76-10.54-10.98-10.52-107.86,.27-215.73,.15-323.59,.2-25.44,0-38.12,12.42-38.34,37.7-.2,23.33,.6,46.69-.23,69.99-.8,22.43,15.74,38.71,38.45,38.24,53.14-1.1,106.33-.35,159.49-.35,54.7,0,109.39-.16,164.09,.18,8.12,.05,11.73-1.25,11.09-10.46-.88-12.56-.77-25.26-.03-37.84,.49-8.38-2.58-9.96-10.31-9.91-56.22,.32-112.45,.17-168.68,.16-3.06,0-6.22,.4-9.16-.22-7.87-1.65-13.44-6.25-13.48-14.71-.04-8.53,5.55-13.05,13.5-14.55,2.96-.56,6.1-.19,9.16-.19,56.23,0,112.45-.16,168.68,.17,7.88,.05,10.74-1.78,10.28-10.05-.71-12.58-.84-25.28,.03-37.84Zm13.79-41.18c32.71-8.56,58.98-26.36,78.11-54.29,4.88-7.12,10.18-12.33,19.57-10.89,5.52,.85,7.43-1.73,7.3-7.16-.27-11.09,.04-22.19-.1-33.28-.35-26.09-13.78-39.35-39.88-39.36-68.47-.03-136.95-.01-205.42-.01-69.24,0-138.48-.04-207.71,.02-24.84,.02-38.32,13.27-38.55,38.06-.21,22.95-.14,45.9-.02,68.85,.13,27.11,12.83,39.53,40.32,39.53,110.55,.02,221.1,0,331.65,0,4.96,0,9.81-.2,14.74-1.49Zm290.45,34.87c.07-6.24-1.46-9.52-7.79-11.67-30.1-10.26-54.63-28.63-74.15-53.55-3.67-4.69-7.16-6.72-13.2-6.65-28.68,.34-57.37,.3-86.05,.03-5.53-.05-8.94,1.66-12.36,6.05-19.7,25.31-44.5,43.89-74.97,54.31-5.69,1.95-7.61,4.7-7.59,10.65,.23,52.4-.71,104.82,.46,157.19,1.01,45.27,22.67,79.06,62.87,100.35,22.57,11.96,45.53,23.2,68.11,35.15,5,2.65,8.74,2.53,13.67-.07,23.28-12.24,47.17-23.35,70.12-36.17,36.96-20.65,58.26-52.22,60.2-95,1.16-25.57,.21-51.24,.21-76.86,.11,0,.22,0,.34,0,0-27.92-.18-55.84,.14-83.76ZM473.67,162.14c13.08-.04,20.11-8.94,15.95-19.86-3.29-8.64-10.89-8.32-18.26-8.32-64.24,.01-128.47,0-192.71,.02-11.09,0-22.18-.03-33.25,.32-7.82,.24-11.81,5.41-12.34,12.54-.57,7.75,3.47,13.2,11.24,15.01,2.92,.68,6.09,.33,9.14,.33,36.32,.02,72.65,.01,108.97,0,37.09,0,74.18,.08,111.27-.05Zm-324.84,0c3.8,0,7.61,.26,11.38-.05,8.52-.71,12.99-5.46,13.05-14.1,.06-8.7-4.23-13.58-13.01-13.81-7.96-.21-15.95-.27-23.9,.14-8.35,.43-12.1,5.89-12.11,13.64-.01,7.79,4.14,12.95,12.07,14.02,4.1,.55,8.34,.1,12.51,.1,0,.02,0,.04,0,.07Zm325.92,175.32c9.44-.01,15.48-4.22,15.55-14.25,.07-10.11-5.95-14.24-15.43-14.24-75.34-.01-150.67,0-226.01-.03-6.19,0-11.21,1.78-14.24,7.6-5.5,10.58,1.68,20.82,15.27,20.89,37.09,.2,74.19,.07,111.28,.06,37.86,0,75.72,.02,113.58-.02Zm-339.03-28.18c-7.22,1.2-11.38,5.96-11.49,13.39-.12,7.8,3.69,13.55,11.6,14.33,8.65,.84,17.51,.87,26.15-.01,7.94-.81,11.45-6.48,11.32-14.46-.13-7.68-4.23-12.08-11.42-13.29-4.06-.68-8.33-.12-12.51-.11-4.56,.01-9.21-.58-13.65,.15Zm13.32,174.37c-3.05,0-6.12-.19-9.16,.04-9.04,.67-15.6,4.55-15.63,14.53-.03,9.79,6.16,14.36,15.27,15,6.46,.46,13.03,.6,19.45-.05,8.46-.85,14.19-5.1,14.36-14.59,.18-9.6-5.55-13.61-13.99-14.81-3.37-.48-6.86-.08-10.3-.08,0-.01,0-.02,0-.03Z"/>
</svg>