<?xml version="1.0" encoding="UTF-8"?>
<svg id="Layer_1" data-name="Layer 1" xmlns="http://www.w3.org/2000/svg" viewBox="0 0 800 800">
  <defs>
    <style>
      .cls-1 {
        fill: none;
      }

      .cls-2 {
        fill: #010101;
      }
    </style>
  </defs>
  <rect class="cls-1" width="800" height="800"/>
  <path class="cls-2" d="M771.54,643.64c-.34-7.89-6.08-14.87-14.25-16.7-10.15-2.28-10.22-8.72-10.22-16.88,.16-138.53-.57-277.07,.57-415.59,.31-37.27-27.35-68.41-67.8-67.37-35.29,.91-70.63-.27-105.93,.46-10.91,.23-14.67-2.99-13.12-13.56,3.67-25.03-10-39.96-30.15-51.04-14.66-8.06-30.27-13.74-46.38-17.94-60.99-15.9-123.17-18.99-185.74-15.81-44.54,2.26-88.75,7.75-130.92,23.38-31.7,11.75-59.48,27.23-53.96,68.6,.56,4.18-1.42,5.79-5.74,6.77-40.39,9.18-55.71,28.6-55.71,70.03,0,138.14-.06,276.29,.16,414.43,.01,7.46-1.27,11.58-9.26,13.99-10.64,3.21-15.91,11.77-16.07,23.01-.14,10.09-.04,20.18-.04,30.27,0,57.84,36.34,94.03,94.45,94.04,92.36,.01,184.72,0,277.08,0,95.08,0,190.15,.11,285.23-.05,40.21-.07,72.45-23.67,84.65-61.97,7.09-22.27,4.13-45.34,3.14-68.07Zm-110.92-245.24c.35,97.61-76.65,175.7-173.59,176.04-95.83,.33-173.71-77.13-173.98-173.06-.27-96.15,76.69-173.87,172.71-174.43,95.08-.55,174.51,77.34,174.86,171.45ZM155.85,85.23c23.69-13.07,49.72-19.23,76.05-23.77,35.21-6.07,70.75-8.86,99.58-8.03,58.29-.13,109.1,3.98,158.47,19.36,9.99,3.11,19.78,6.82,28.84,12.07,7.32,4.25,16.94,8.32,17.09,17.53,.15,9.27-9.31,13.41-16.69,17.7-14.85,8.63-31.02,14.1-47.62,17.74-88.69,19.47-177.51,19.63-266.26,.31-17.4-3.79-34.3-9.33-49.83-18.34-7.02-4.08-15.99-8-16.15-16.81-.18-9.49,9.18-13.71,16.51-17.75Zm-17.5,140.92c1.48-28.44,.41-57.01,.41-83.47,133.09,47.56,264.95,47.26,398.06,.04,0,18.39-.13,38.78,.08,59.15,.06,5.6-2.23,6.42-7.1,5.46-83.85-16.45-151.58,10.01-203.97,76.95-2.25,2.88-4.21,4.95-8.44,4.69-50.3-3.19-100.48-7.02-148.08-25.68-3.95-1.55-7.77-3.46-11.6-5.29-13.39-6.39-20.21-15.5-19.36-31.85Zm150.05,190.97c.28,3.79,.58,6.65-5.15,6.16-39.83-3.39-79.17-9.02-116.44-24.46-4.62-1.92-9.01-4.43-13.43-6.81-10.43-5.61-15.31-13.49-14.91-26.21,.94-29.4,.3-58.85,.3-89.65,41.38,22.25,84.67,29.68,128.73,34.05,11.18,1.11,22.38,2.1,33.59,2.62,5.87,.27,6.35,2.16,4.11,7.08-14.04,30.92-19.3,63.41-16.8,97.21Zm-150.13,78.45c1.99-26.92,.49-54.1,.49-82.51,44.66,23.75,91.56,30.74,139.07,34.54,11.3,.9,17.07,3.45,20.77,15.6,10.69,35.15,31.22,64.45,59.08,88.55,3.04,2.63,7.13,4.4,9.24,9.88-32.29,.29-63.81,1.1-95.3-2.43-33.09-3.71-65.9-8.6-97.21-20.62-3.96-1.52-7.86-3.22-11.78-4.85-16.99-7.05-25.87-17.8-24.36-38.17ZM76.23,196.06c0-22.92,10.51-37.71,28.78-42.22,6.5-1.6,9.2-1.1,8.79,6.39-.5,9.29-.12,18.62-.12,27.94,0,104.4,.43,208.8-.34,313.2-.17,23.12,9.37,38.18,28.29,49.21,25.5,14.87,53.62,21.85,82.21,27.07,58.75,10.72,117.99,11.63,177.35,7.09,14.31-1.1,26,6.51,39.02,9.59,105.13,24.89,210.66-37.82,238.78-142.45,24.79-92.23-20.58-189.96-107.6-230.56-8.47-3.95-11.25-8.44-10.78-17.44,.78-14.71,.39-29.49,.12-44.23-.1-5.43,1.59-7.51,7.26-7.48,39.2,.2,78.41-.47,117.59,.37,23.61,.51,37.52,17.3,37.54,42.77,.07,93.92,.03,187.84,.03,281.76,0,44.24,.06,88.49-.03,132.73-.03,16.87,2.01,14.51-15.09,14.52-102.85,.07-205.7,.04-308.56,.04s-207.26-.18-310.88,.27c-10.53,.05-12.65-2.87-12.62-12.9,.35-138.55,.22-277.1,.25-415.66Zm435.35,463.39c-.89,16.82-9.7,26.58-26.8,26.76-28.67,.3-57.34,.08-86.01,.09-27.9,0-55.8,.21-83.69-.07-18.23-.18-27.13-10.33-27.28-28.62-.06-7.08,2.61-8.15,8.78-8.11,36.81,.24,73.61,.12,110.42,.12,31.38,0,62.77,.25,94.15-.18,7.8-.11,10.89,1.47,10.44,10.01Zm233.05,44.55c-8.83,27.57-30.99,44.19-59.83,44.22-95.46,.11-190.91,.04-286.37,.04-93.13,0-186.27-.99-279.37,.49-37.31,.59-70.13-29.61-66.84-66.67,.92-10.35-3.33-24.36,1.96-30.27,6.13-6.84,20.37-2.07,31.06-2.11,55.49-.22,110.98,.09,166.46-.3,8.4-.06,10.89,1.62,11.05,10.6,.56,30.94,21.54,51.08,52.62,51.2,55.88,.22,111.75,.18,167.63,.02,32.51-.09,53.01-19.91,53.67-52.56,.17-8.19,3-9.22,10.02-9.19,63.64,.23,127.27,.26,190.91-.03,7.54-.04,10.29,1.83,9.57,9.56-1.39,14.95,2.2,30.2-2.53,44.99Zm-174.98-309.85c-3.72,4.83-7.08,10-11.24,14.41-5.69,6.02-12.65,6.63-18.34,.44-5.07-5.51-4.71-12.21,.68-17.72,11.66-11.93,23.45-23.74,35.38-35.4,6.27-6.12,13.3-6.26,19.58-.21,12.01,11.58,23.75,23.44,35.4,35.38,5.75,5.89,6.1,12.84,.3,18.56-5.52,5.44-12.22,4.79-17.54-.82-4.23-4.45-7.7-9.61-13.28-13.54-2.64,14.45-3.46,27.75-7.7,40.56-16.09,48.66-64.14,80.79-114.93,76.52-52.57-4.42-94.61-43.57-101.69-95.57-6.37-46.83,10.89-84.39,49.97-109.67,39.63-25.64,81.14-24.52,121.65,.18,1.98,1.21,3.77,2.71,5.69,4.02,7.57,5.16,10.39,11.99,4.69,19.72-5.6,7.6-12.52,5.68-19.26,.6-18.13-13.65-38.58-19.18-61.15-17.17-40.95,3.65-74.48,37.78-78,79.43-3.43,40.59,24.28,80.18,63.39,90.57,57.55,15.29,110.97-27.07,110.05-87.27-1.22-1.01-2.43-2.02-3.65-3.04ZM206.99,699.03c-5.79,.01-11.59,.18-17.38-.03-8.09-.3-13.4-4.25-13.38-12.72,.02-7.88,5.09-12.03,12.6-12.25,12.35-.36,24.72-.35,37.07,.02,7.75,.23,12.51,5.35,12.37,12.62-.14,7.2-4.87,12.06-12.74,12.3-6.17,.19-12.36,.04-18.54,.05Zm-117.03,.05c-8.97-.53-13.39-5.74-13.37-12.71,.02-7.05,4.76-12.48,12.6-12.29,7.59,.19,12.34,4.88,12.28,12.51-.06,7.65-5.08,11.56-11.5,12.48Zm60.87-12.89c-.34,8.25-4.63,12.83-12.37,12.62-7.68-.21-12.03-5-11.76-12.87,.25-7.32,4.72-11.66,11.76-11.78,7.71-.14,11.97,4.48,12.37,12.04Z"/>
</svg>