<?xml version="1.0" encoding="UTF-8"?>
<svg id="Layer_1" data-name="Layer 1" xmlns="http://www.w3.org/2000/svg" viewBox="0 0 800 800">
  <defs>
    <style>
      .cls-1 {
        fill: #040404;
      }

      .cls-2 {
        fill: #020202;
      }

      .cls-3 {
        fill: none;
      }

      .cls-4 {
        fill: #050505;
      }
    </style>
  </defs>
  <rect class="cls-3" width="800" height="800"/>
  <path class="cls-1" d="M609.88,243.72c38.35,1.38,75.19,16,106.98,43.44,3.88,3.35,7.29,6.92,5.95,12.66-.95,4.06-3.6,6.63-7.53,7.9-5.08,1.64-8.87-.87-12.44-3.95-28.82-24.92-62.22-37.93-100.35-38.59-7.72-.13-13.02-3.63-12.42-11.56,.74-9.68,8.34-10.57,19.81-9.9Z"/>
  <path class="cls-4" d="M376.82,424.73c-.87,35.61-11.68,67.92-32.02,97.12-4.54,6.53-9.99,11.76-17.85,6.55-8.11-5.38-4.84-12.22-.25-18.72,18.01-25.53,27.64-53.9,28.32-85.21,.13-5.95,.82-11.68,7.23-14.23,8.34-3.31,14.81,3.2,14.56,14.49Z"/>
  <path class="cls-2" d="M404.36,279.68c-47.64-.25-84.8-32.77-90.4-74.8-5.78-43.41,22.17-85.53,63.8-96.14,42.46-10.83,86.21,10.78,102.77,50.61,2.9,6.97,4.46,13.97-3.79,17.68-8.6,3.86-13.06-1.65-16.53-9.14-13.34-28.88-42.03-45.02-70.26-39.93-30.49,5.5-52.37,30.13-55.02,61.95-2.4,28.8,18.85,57.79,48.33,65.93,29.45,8.13,61.43-6.24,75.28-33.96,3.86-7.73,6-18,18.3-13.48,7.54,2.78,7.88,11.26,.81,24.06-16.96,30.7-43.28,46.19-73.28,47.21Z"/>
  <path class="cls-2" d="M312.05,586.67c-81.42,0-162.84,.17-244.26-.22-10.04-.05-14.11,1.83-13.44,12.91,1.16,19.15-2.28,17.31,17.12,17.36,27.14,.08,54.28,.02,81.42,.02,2.29,0,4.59-.08,6.88,.02,7.6,.34,14,2.58,13.7,11.71-.28,8.41-6.37,10.53-13.51,10.59-11.85,.1-23.7,.03-35.55,.03-21.02,0-42.05,.14-63.07-.05-17.85-.16-27.86-10.01-27.88-27.6-.09-86.39,0-172.78-.09-259.17,0-8.05,1.29-15.34,11.13-15.03,9.01,.29,10.2,7.21,10.19,14.85-.12,67.28,.14,134.56-.3,201.83-.06,9.42,2.12,12,11.76,11.98,160.93-.32,321.86-.23,482.8-.23,2.68,0,5.35,.07,8.03-.01,8.15-.25,16.46,.35,16.38,11.01-.07,10.28-8.31,10-15.88,10-81.8-.05-163.61-.03-245.41-.03ZM180.58,244.59c-36.8,3.98-69,18.44-96.9,42.65-3.86,3.35-7.38,7.05-5.89,12.72,1.02,3.88,3.69,6.63,7.7,7.81,5.62,1.65,9.41-1.6,13.26-4.86,28.39-24.07,61.07-36.97,98.39-37.72,7.84-.16,14.05-2.58,13.42-11.67-.64-9.19-7.79-10.11-14.5-10.11-5.57,.42-10.55,.66-15.48,1.19Zm275.62,277.8c4.69,6.68,10.28,11.08,17.99,5.66,7.51-5.27,4.7-11.66,.19-17.79-11.88-16.14-19.76-34.2-24.64-53.55-2.99-11.86-3.62-24.06-4.52-36.22-.48-6.54-3.74-10.84-10.79-10.78-7.11,.06-9.92,4.68-10.61,11.05-.2,1.88-.03,3.81-.03,4.08,1.6,36.72,12.17,68.74,32.4,97.55Zm311.46,84.91c0,22.39-9.52,31.78-32.17,31.79-67.29,.02-134.59,0-201.88,0h-14.62c10.29,19.18,19.6,36.21,28.53,53.43,2.24,4.33,5.5,4.57,9.46,4.54,9.94-.08,19.89-.23,29.82,.03,14.77,.39,21.74,7.35,22.07,21.95,.21,9.17,.21,18.36,0,27.53-.34,14.5-6.81,21.08-21.22,21.09-126.18,.07-252.35,.07-378.53,0-13.49,0-19.79-6.18-20.2-19.42-.32-10.31-.31-20.65,0-30.97,.39-12.9,6.96-19.6,19.99-20.11,11.07-.43,22.18-.39,33.26,0,6.06,.21,9.61-1.54,12.48-7.3,8.27-16.58,17.33-32.76,26.96-50.75-21.53,0-40.91,.02-60.29-.02-3.43,0-7.02,.31-10.25-.58-4.63-1.28-7.95-4.16-8.07-9.76-.13-5.83,2.3-9.81,7.81-11.08,4.02-.93,8.33-.87,12.5-.87,169-.04,338,0,507-.16,4.98,0,12.33,3.09,14.6-2.71,3.02-7.72,2.08-16.68,.36-24.85-.86-4.05-5.94-2.32-9.14-2.33-37.85-.1-75.71-.07-113.56-.07-3.06,0-6.12-.05-9.18-.03-6.99,.04-11.03-3.57-10.9-10.39,.13-6.72,4.35-10.42,11.15-10.47,16.44-.11,32.88-.07,49.32-.07,24.47,0,48.94-.2,73.41,.13,6.93,.09,9.96-1.04,9.94-9.19-.29-112.41-.25-224.82-.09-337.23,.01-8.18-2.34-11.53-11.12-11.48-55.44,.31-110.88,.22-166.32,.07-6.12-.02-9.59,.43-9.97,8.25-.53,10.89-8.12,16.77-20.36,17.1-5.5,.15-9.96,.56-10.85,7-.97,7.02-10.41,12.63-1.6,21.39,10.63,10.57,9.87,20.21-.49,30.91-8.77,9.06-17.61,18.08-26.81,26.71-9.81,9.19-19.58,9.26-29.37,.1-4-3.74-7.42-6.76-12.71-3.12-6.17,4.24-16.87,2.52-16.35,15.42,.52,12.98-7.67,20.08-20.96,20.49-12.99,.4-26.01,.42-38.99-.02-12.97-.44-20.48-7.9-20.66-20.99-.09-6.37-1.7-10.26-8.09-11.45-6.63-1.23-12.04-9.5-20.28-1.09-10.31,10.52-20.3,9.66-30.94-.62-8.8-8.5-17.47-17.14-25.96-25.94-9.61-9.97-9.91-20.28-.68-30.33,3.58-3.9,7.02-6.95,2.85-12.52-4.43-5.93-2.1-17.08-15.13-16.25-11.24,.72-18.99-5.61-19.83-17.59-.43-6.07-2.99-7.46-8.63-7.45-56.2,.17-112.41,.2-168.61-.01-7.67-.03-9.93,3.02-9.85,10.24,.26,24.85-.06,49.71,.19,74.56,.08,8.15-1.27,15.4-10.91,15.25-9.82-.15-10.49-7.87-10.44-15.74,.17-25.62-.01-51.23,.09-76.85,.07-18.97,9.19-28.26,28.1-28.29,56.21-.11,112.41-.25,168.62,.18,9.03,.07,11.5-2.38,11.3-11.33-.38-17.16,5.11-22.73,22.07-23.6,5.58-.28,8.78-1.92,9.32-7.45,.66-6.7,10.61-11.7,2.17-20.27-11.42-11.59-10.64-20.88,.91-32.65,8.3-8.46,16.62-16.91,25.18-25.11,10.58-10.15,19.41-10.58,29.95-.55,4.66,4.43,8.59,5.83,13.79,2.26,5.57-3.82,15.38-1.8,15.07-13.68-.36-14.03,7.5-21.07,21.25-21.4,12.61-.3,25.24-.29,37.85-.01,14,.31,21.2,6.97,21.74,21.06,.25,6.35,1.93,9.92,8.27,11.38,7.02,1.62,12.92,9.29,21.12,.12,8.51-9.53,18.83-8.82,28.23,.02,9.74,9.16,19.21,18.64,28.41,28.34,9.13,9.62,9.44,19.72-.16,29.27-5.29,5.26-5.12,9.41-1.83,14.9,3.5,5.86,2.39,14.84,14.09,14.23,13.35-.69,21.15,7.42,19.99,20.67-1.11,12.59,4,13.91,14.68,13.81,54.29-.5,108.59-.26,162.88-.22,22.21,.02,31.2,9.05,31.2,31.35,.02,129.62,.02,259.23,0,388.85Zm-239.92-433.73c-10.86,1.74-16.21-3.52-18.42-13.71-1.88-8.62-5.95-16.46-10.25-24.13-2.84-5.07-3.23-9.97,.34-14.98q9.66-13.52-2.4-25.59c-2.16-2.16-4.61-4.1-6.43-6.52-4.62-6.15-8.74-5.71-13.16,.21-6.33,8.48-13.82,9.73-22.8,3.78-7.69-5.1-16.52-7.96-25.31-10.36-6.66-1.82-10.85-6.02-9.91-11.98,2.49-15.73-6.19-16.74-17.82-15.36-3.39,.4-6.92,.42-10.3-.01-7.44-.95-10.56,1.76-9.69,9.46,1.15,10.14-2.77,16.83-13.46,19.04-9.03,1.87-17.24,6.06-25.23,10.55-5.13,2.88-9.73,3.33-14.86-.36-4.38-3.14-6.58-11.33-12.71-9.27-4.9,1.65-8.4,7.47-12.49,11.47-2.46,2.4-4.64,5.16-7.35,7.22-5.29,4.01-5.22,7.48-.19,11.75,4.01,3.41,8.35,6.9,8.73,13.7-.19,.74-.3,2.35-1,3.64-5.82,10.76-10.5,21.95-14.07,33.66-1.62,5.32-5.74,8.59-11.33,7.59-13.27-2.36-16.76,3.69-14.81,15.6,.55,3.35,.49,6.92,0,10.29-1.35,9.5,1.23,14.53,12.03,12.61,8.13-1.44,13.27,2.83,15.21,10.48,2.55,10.08,6.65,19.43,11.77,28.42,2.91,5.13,2.6,9.93-1.34,14.79-9.85,12.17-9.72,12.28,1.78,23.77,2.16,2.16,4.61,4.11,6.42,6.54,5,6.73,9.54,7.58,14.93,.23,5.94-8.11,13.22-9.04,21.78-3.37,7.68,5.08,16.44,8.03,25.29,10.37,6.43,1.7,11.05,5.61,9.99,11.95-2.53,15.1,5.89,16.07,17.04,14.98,4.16-.41,8.45-.47,12.59,.02,7.36,.88,9.35-2.31,8.7-9.17-.71-7.53,.06-14.79,9.19-17.31,10.71-2.96,20.92-7.11,30.51-12.72,4.96-2.9,9.34-2.1,13.72,1.28,4.17,3.21,7.1,10.66,11.95,9.49,4.82-1.16,8.48-7.22,12.61-11.17,1.93-1.85,3.58-4.05,5.7-5.64,6.99-5.22,8.19-10.05,.38-15.89-7.17-5.36-8.17-12.29-3.42-20.15,4.95-8.2,8.32-17.11,10.86-26.35,1.64-5.96,4.72-9.98,11.69-10.59,15.78-1.37,15.76-1.59,15.76-18.07,0-3.44-.39-6.93,.08-10.31,1.15-8.29-2.54-11.15-10.31-9.91Zm-128.02,545.81c-59.58,0-119.16,.35-178.73-.3-11.59-.13-10.87,5.67-10.51,13.24,.34,7.15-2.6,14.54,10.45,14.49,118.39-.52,236.78-.49,355.17-.01,11.59,.05,10.86-5.7,10.51-13.27-.33-7.15,2.6-14.62-10.46-14.46-58.8,.73-117.62,.32-176.44,.32Zm67.48-23.1c-33.71-27.09-98.42-27.14-134.16,0h134.16Zm30.24-51.68c-2.64-5.21-6.39-5.57-11.19-5.56-57.33,.07-114.66,.12-171.99-.07-5.69-.02-9.04,1.59-11.64,6.82-6.27,12.64-13.32,24.88-19.7,37.47-2.09,4.12-8.17,10.51-4.66,12.36,5.71,3.01,13.98,3.67,20.41-1.47,2.98-2.38,5.74-5.04,8.7-7.45,54.15-44.2,134.75-43.68,187.76,2.01,8.86,7.63,17.39,9.91,29.55,7.19-9.46-17.7-18.65-34.34-27.24-51.29Zm213.48-191.21c-5.56-.39-9.82-.02-12.32,6.8-2.22,6.06-1.83,9.88,2.99,13.92,7.78,6.52,7.57,13.26,.26,20.3-9.35,9.01-18.42,18.29-27.59,27.48-6.59,6.6-13.32,7.14-19.75,.05-3.9-4.31-7.41-6.52-13.72-3.98-6.59,2.65-6.41,7.25-6.49,12.7-.14,8.56-4.41,13.65-13.36,13.71-13.75,.1-27.5,.06-41.25,.01-8.3-.03-12.89-4.21-13.07-12.57-.12-5.73,.35-10.67-6.65-13.93-7.87-3.67-10.93,1.39-15.26,5.37-2.26,2.07-4.87,3.74-8.2,3.49-3.8,.36-6.59-1.62-9.08-4.08-9.76-9.67-19.51-19.35-29.19-29.11-6.26-6.31-6.26-12.87,.19-18.94,4.53-4.26,6.48-7.82,3.76-14.72-2.79-7.09-7.26-6.74-12.57-6.5-9.21,.42-13.38-4.15-13.39-13.05-.02-13.37-.02-26.73,0-40.1,.01-9.4,4.45-14.12,14.14-13.61,4.87,.25,9.15,.68,11.75-5.94,2.59-6.6,1.5-10.35-3.37-14.8-6.93-6.33-6.57-13.09,.22-19.73,9.29-9.07,18.44-18.28,27.51-27.57,6.6-6.77,13.07-7.24,19.67-.21,3.7,3.94,6.78,7.1,13.43,4.07,6.09-2.78,7.58-6.27,7.29-12.24-.5-10.15,5.04-14.49,14.85-14.4,12.22,.11,24.45,.17,36.66-.02,10.85-.17,16.79,4.64,16.07,15.76-.37,5.84,1.68,8.59,7.13,10.96,5.87,2.54,9.05,.7,12.63-3.42,6.64-7.64,13.41-7.42,20.46-.13,9.02,9.33,18.26,18.46,27.55,27.53,6.76,6.59,7.39,13.02,.07,19.49-4.25,3.76-6.67,7.09-3.98,13.69,2.63,6.45,6.3,7.52,12.15,7.14,9.6-.62,13.97,4.07,13.78,13.75-.26,12.98-.32,25.98,.02,38.95,.25,9.52-3.37,14.59-13.36,13.9Zm-14.96-45.41c-8.38,.23-12.44-3.66-14.59-11.38-1.63-5.82-3.99-11.56-6.93-16.84-3.83-6.88-4.58-13.1,1.91-18.4,7.31-5.98,1.21-9.51-2.58-12.14-3.96-2.75-5.93-13.52-13.86-5.12-6.17,6.53-12.28,6.12-19.43,1.73-4.17-2.56-8.89-4.61-13.63-5.82-9.06-2.31-14.46-6.18-14.99-16.92-.49-9.76-9.52-3.77-14.58-4.89-3.63-.8-9.01-1.77-8.44,5.39,.76,9.45-4.4,13.62-13.1,15.57-5.11,1.15-10.15,3.51-14.67,6.25-7.46,4.52-13.85,5.32-20.42-1.69-7.26-7.75-9.51,1.99-12.97,4.85-3.26,2.69-10.91,5.7-3.52,12.13,6.78,5.89,5.91,12.28,1.9,19.5-2.75,4.94-4.52,10.46-6.36,15.86-2.4,7.05-5.67,12.52-14.47,11.58-10.17-1.09-7.44,6.77-7.06,11.64,.38,4.88-4.54,12.88,6.76,13.24,10.93,.35,27.93,32.38,23.03,42.32-.66,1.34-1.61,2.75-2.81,3.57-8.18,5.64-2.3,9.62,1.89,13,4.16,3.35,6.5,12.45,15.1,4.08,8.72-8.48,45.75,5.33,46.06,17.4,.26,10.36,5.23,9.84,12.26,9.04,7.68,1.4,12.48,.38,12.23-9.97-.19-7.92,36.56-24.79,41.93-19.08,11,11.69,15.71,1.68,22.16-4.29,2.86-2.65,4.38-5.03,.47-8.18-7.84-6.32-6.72-13.33-2-21.21,2.89-4.83,4.73-10.41,6.34-15.86,2.09-7.05,5.68-11.9,13.68-10.77,8.3,1.17,9.14-3.87,7.85-9.57-1.23-5.42,5.56-15.38-7.17-15.03Zm-371.57,31.39c-.11,9-3.93,14.65-13.92,13.97-5.53-.37-9.45,.12-12.38,6.73-3.13,7.07-.6,10.43,3.86,14.57,6.49,6.01,6.88,12.27,.32,18.72-9.54,9.38-18.99,18.85-28.36,28.39-6.67,6.79-13.32,7.04-19.68-.04-3.87-4.31-7.26-6.67-13.58-3.8-6.03,2.74-7.55,6.49-7.07,12.48,.77,9.74-4.55,13.98-13.82,14.01-13.38,.04-26.76,.09-40.14-.03-8.87-.07-13.51-4.66-13.13-13.61,.25-5.69-.54-9.68-6.71-12.7-7.18-3.51-10.43,.33-14.54,4.42-6.36,6.34-12.67,5.93-18.92-.39-9.14-9.23-18.28-18.48-27.63-27.51-7.23-6.98-7.75-13.79,.03-20.42,4.64-3.95,5.87-7.58,3.27-13.74-2.61-6.18-6.2-7.71-12.13-7.06-9.13,.99-13.59-3.25-13.52-12.48,.09-13.76,.05-27.52,.02-41.29-.02-9.05,4.32-13.53,13.47-12.83,5.65,.43,9.63-.32,12.22-6.82,2.52-6.32,.88-9.84-3.61-13.71-7.89-6.81-6.7-13.66,.28-20.49,9.29-9.09,18.45-18.29,27.62-27.51,2.79-2.81,5.83-4.92,9.99-4.8,3.7,.16,6.43,2.15,8.88,4.68,3.99,4.12,7.18,7.87,14.47,4.21,6.23-3.13,6.95-6.98,6.7-12.61-.44-9.72,4.89-13.86,14.11-13.88,12.62-.02,25.23,.04,37.85-.03,10.25-.06,16.15,4.3,15.13,15.18-.53,5.74,1.27,9.03,6.93,11.16,5.22,1.96,8.57,1.78,12.79-2.52,8.87-9.05,12.81-8.7,21.95,.27,8.73,8.57,17.21,17.38,26.03,25.85,7.21,6.92,7.92,13.72,.13,20.41-4.57,3.93-5.85,7.38-3.37,13.65,2.6,6.58,6.52,7.33,12.19,6.87,9.85-.8,14.08,4.66,14.25,13.7,.25,12.99,.18,26,.03,38.99Zm-22.39-19.95c.29-4.72,3.52-12.75-6.79-11.78-8.66,.82-12.18-4-14.31-11.5-1.55-5.46-3.81-10.81-6.46-15.83-3.78-7.13-4.84-13.57,1.74-19.65,7.86-7.27-1.42-9.74-4.41-13.07-2.8-3.12-5.75-11.2-12.2-3.89-6.4,7.25-12.91,6.03-20.4,1.78-5.25-2.97-11.05-5.25-16.87-6.86-6.93-1.91-10.48-5.71-10.41-12.94,.02-2.57,.81-6.62-2.17-7-6.37-.82-13.06-1.15-19.34-.06-4.21,.73-2.12,5.85-2.47,9.02-.36,3.21-1.21,7.56-3.82,7.77-15.49,1.25-28.04,24.34-46.07,6.4-.51-.51-1.33-.72-4.76-2.48-3.46,4.32-7.6,9.31-11.52,14.46-3.32,4.35,1.43,5.87,3.27,8.32,5.63,7.51-4.85,41.91-13.86,45.03-1.76,.61-3.79,.79-5.66,.68-13.09-.81-6.66,9.1-7.66,14.48-1.06,5.7-1.37,10.94,8.09,10.53,10.39-.46,26.47,33.83,21.35,43.12-1.98,3.59-10.41,5.18-4.57,11.66,3.57,3.96,7.49,7.63,11.45,11.2,2.43,2.19,4.34,.04,5.71-1.64,6.45-7.91,13.42-6.75,21.27-2.12,4.55,2.68,9.6,4.92,14.72,6.12,8.31,1.94,12.26,6.12,12.42,15.02,.19,10.74,8.99,4.78,13.82,5.62,4.04,.71,10.75,2.79,10.06-6.06-.64-8.23,3.65-12.45,11.48-14.51,5.45-1.43,10.78-3.85,15.73-6.59,7.45-4.13,13.87-5.27,20.45,1.85,7.06,7.63,9.59-1.75,13.02-4.75,3.22-2.81,10.84-5.69,3.49-12.22-6.14-5.45-5.75-11.66-2.21-18.61,2.92-5.73,5.13-11.88,7.18-18,2.31-6.88,5.92-11.26,13.98-10.65,11.36,.86,6.48-8.01,6.77-12.85Zm362.94,1.19c-.17,35.2-28.64,63.75-64.11,64.27-35.39,.52-64.91-28.83-64.92-64.54-.02-35.97,28.81-64.8,64.61-64.63,35.95,.17,64.59,29.03,64.42,64.9Zm-21.54,0c.18-23.5-19.03-43.02-42.55-43.24-23.67-.22-42.88,18.57-43.33,42.38-.44,23.44,18.83,43.03,42.48,43.18,23.8,.14,43.22-18.79,43.4-42.32Zm-378.57,.41c-.48,34.89-29.79,63.78-64.82,63.9-35.32,.11-65.25-29.87-64.89-64.99,.37-35.72,29.85-64.67,65.4-64.21,35.81,.46,64.79,29.89,64.3,65.31Zm-22.29-.83c-.02-23.99-18.7-42.79-42.55-42.82-23.82-.03-42.52,18.76-42.56,42.78-.04,24.06,18.59,42.82,42.51,42.79,23.99-.02,42.62-18.72,42.6-42.75Z"/>
</svg>