<?xml version="1.0" encoding="UTF-8"?>
<svg id="Layer_1" data-name="Layer 1" xmlns="http://www.w3.org/2000/svg" viewBox="0 0 800 800">
  <defs>
    <style>
      .cls-1 {
        fill: #0f0f0f;
      }

      .cls-2 {
        fill: none;
      }
    </style>
  </defs>
  <rect class="cls-2" width="800" height="800"/>
  <path class="cls-1" d="M593.52,662.51c7.99-.31,15.02,6.21,14.79,14.27-.24,8.43-4.76,13.62-13.26,14.53-7.94,.85-14.97-5.59-15.39-13.59-.43-8.09,5.77-14.9,13.86-15.22Zm148.16-365.32c-.78,19.05-12.83,30.71-32.63,31.93-5.63,.35-7.97,2.27-9.78,7.33-3.75,10.48-7.72,20.96-12.69,30.9-2.62,5.25-1.5,7.95,1.91,12.02,13.82,16.5,12.96,32.73-2.23,48.33-10.22,10.5-20.61,20.84-31.12,31.05-15.55,15.11-31.71,15.87-48.23,1.77-4.28-3.66-7.32-4.37-12.03-1.4-3.87,2.45-8.24,4.22-12.56,5.83-13.68,5.08-26.72,8.29-28.36,28.17-1.12,13.64-14.96,20.74-29.59,20.94-16.58,.24-33.18,.33-49.76-.03-18.51-.4-32-13.22-32.87-31.91-.32-6.75-2.6-9.56-8.81-11.02-5.21-1.22-10.35-3.19-15.15-5.58-11.6-5.79-21.48-11.78-34.36,.62-9.43,9.07-25.78,5.53-36.06-4.13-13.2-12.41-26.12-25.17-38.42-38.47-11.57-12.52-11.32-29.66,.54-42.94,4.73-5.3,5.33-9.31,1.74-15.15-2.8-4.55-4.84-9.64-6.63-14.71-4.29-12.14-7.12-23.26-24.95-23.66-13.32-.3-22.44-15.54-22.95-30.86-.53-16.18-.57-32.41-.01-48.6,.68-19.57,12.88-32.2,32.73-33.47,6.36-.41,8.33-3.09,10.24-8.18,3.78-10.07,7.82-20.08,12.48-29.76,2.4-4.98,1.79-7.97-1.75-12.19-13.9-16.53-12.98-32.74,2.18-48.18,10.54-10.73,21.25-21.29,31.84-31.97,6.83-6.88,14.79-11.03,24.74-10.55,9.03-.34,16.75,3.03,22.78,9.46,3.95,4.21,7.33,4.4,12.05,1.63,4.63-2.72,9.49-5.44,14.6-6.87,13.68-3.82,23.82-8.61,25.74-26.03,1.56-14.19,14.42-21.47,28.91-21.97,17.34-.59,34.73-.68,52.06-.02,18.46,.7,30.42,12.8,31.58,31.79,.37,6.12,2.38,8.88,7.99,10.44,5.55,1.54,11.08,3.49,16.25,6.02,11.62,5.69,21.51,12.21,34.46-.52,9.07-8.92,26.01-5.21,36.05,4.25,12.91,12.16,25.56,24.64,37.65,37.61,12.12,13,12.21,30.26-.05,43.86-4.9,5.44-5.21,9.34-1.6,15.04,2.45,3.87,4.49,8.17,5.82,12.54,4.19,13.72,8.32,24.82,26.92,26.34,13.97,1.14,20.83,15.04,21.32,29.37,.58,16.95,.68,33.96,0,50.9Zm-184.17,50.37c59.34-38.8,59.48-130.44-1.3-165.23,0,3.75,.01,6,0,8.25-.17,24.3,.71,48.67-.78,72.89-1.77,28.69-27.22,52.65-54.54,53.62-26.99,.96-53.4-22.06-57.17-50.71-3.33-25.33-.76-50.86-1.43-76.29-.06-2.41,1.82-5.51-2.46-7.23-28.92,21.13-44.78,49.53-43.11,85.74,1.83,39.53,21.59,68.88,57.37,85.62,13.09,6.12,17.59,13.72,17.27,27.44-.69,30.47,.18,60.97-.44,91.44-.2,9.95,3.23,12.77,12.6,12.1,9.98-.71,20.11-.82,30.07,.02,10.78,.91,14.72-2.24,14.42-13.79-.81-30.85,.03-61.74-.43-92.6-.17-11.48,3.35-19.21,14.64-23.18,5.38-1.89,10.47-4.94,15.29-8.09Zm155.15-58.19c-.65-10.38-.15-20.82-.15-31.24,0-14.68-.01-14.96-15.08-14.67-10.14,.19-18.77-1.56-21.51-12.9-4.66-19.25-11.91-37.4-22.44-54.16-4.9-7.81-3.79-14.5,2.41-20.81,1.89-1.93,3.62-4.08,5.75-5.7,7.38-5.64,8.39-10.73,.51-17.29-7.38-6.15-13.67-13.59-20.57-20.32-13.15-12.83-10.11-12.72-22.76-.3-10.84,10.66-14.52,11.27-27.21,3.72-12.67-7.53-26.04-13.46-40.12-17.66-22.74-6.77-23.06-6.63-23.58-30.52-.16-7.14-2.47-9.44-9.46-9.14-10.78,.47-21.6,.12-32.4,.12-14.75,0-14.93,0-14.82,15.07,.07,9.99-1.49,18.74-12.93,21.53-19.64,4.8-38.02,12.53-55.29,23.02-6.8,4.13-13.27,3.19-19.01-2.31-3.06-2.93-6.28-5.76-9-8.99-4.19-4.99-7.68-4.99-12.19-.11-7.59,8.2-15.73,15.91-23.63,23.83q-10.54,10.56-.11,21.08c11.71,11.81,12.05,14.29,3.57,29.03-6.94,12.06-12.59,24.71-16.65,38-7.21,23.63-7.07,23.99-30.8,24.51-7.43,.16-9.2,2.95-8.9,9.67,.44,9.63,.11,19.29,.11,28.93,0,18.38,0,18.69,18.14,18.64,9.27-.03,15.99,2.78,18.23,12.24,4.75,20.05,12.83,38.64,23.49,56.22,3.58,5.9,2.81,11.89-1.8,17.11-2.8,3.18-5.56,6.51-8.86,9.11-6.68,5.25-5.65,9.46,.26,14.72,7.48,6.66,14.13,14.24,21.35,21.19,12.13,11.67,9.86,14.14,22.73,.32,8.44-9.06,16.71-10.82,27.47-3.78,9.94,6.5,20.73,11.7,34.1,15.16,0-16.93-.42-32.74,.16-48.52,.33-8.88-1.86-14.06-10.4-18.99-82.68-47.73-85.45-166.97-5.5-217.83,10.51-6.68,21.7-11.62,33.64-5.19,11.77,6.34,12.67,18.21,12.55,30.26-.25,25.46-.38,50.93-.05,76.39,.18,14.27,12.22,27.15,25.59,28.59,12.43,1.34,25.62-9.4,28.63-23.72,.86-4.1,.9-8.42,.89-12.64-.02-24.69-.59-49.39-.13-74.07,.42-22.72,16.55-33.35,36.76-24.85,4.23,1.78,8.2,4.31,12,6.92,78.19,53.57,72.99,170.34-9.67,217.49-4.64,2.65-9.32,4.29-9.02,11.56,.65,15.79,.51,31.64,.07,47.44-.21,7.51,2.71,7.16,8.1,5.03,9.71-3.85,19.13-8.24,27.93-13.84,8.77-5.59,16.59-5.32,23.75,2.64,1.8,2,4,3.67,5.67,5.78,4.85,6.13,9.19,6.82,14.8,.42,6.59-7.53,14-14.35,21.14-21.4,13.6-13.43,13.24-11.08,.17-23.49-8.63-8.19-10.44-15.92-3.65-26.32,9.95-15.26,16.24-32.28,20.61-49.94,1.58-6.39,4.13-11.96,11.17-13.2,4.89-.86,10.04-1.07,14.97-.58,8.85,.89,11.53-2.76,10.99-11.29Zm-2.01,321.49c-17.24,14.73-36.56,27.06-55.25,40.03-7.41,5.14-15.25,3.92-20.3-3.62-4.99-7.45-3.24-14.93,4.08-20.29,14.01-10.25,28.23-20.19,42.35-30.29,3.13-2.24,6.39-4.37,9.24-6.95,9.35-8.46,11.71-20.81,6.02-30.24-5.94-9.84-17.21-13.43-29.45-8.18-10.96,4.7-21.43,10.55-32.07,15.99-25.74,13.16-51.39,26.52-77.23,39.46-5.43,2.72-7.8,5.52-7.65,12.16,.75,34.76-21.58,57.21-56.5,57.33-39.36,.13-78.72,.03-118.08,.03-1.93,0-3.87,.12-5.78-.08-8.88-.93-14.4-5.41-14.36-14.81,.04-8.98,5.53-13.09,13.87-13.93,3.44-.35,6.94-.19,10.41-.19,38.2-.01,76.4,.13,114.61-.09,14.49-.08,23.88-7.31,26.63-19.36,2.46-10.8-2.96-21.9-13.02-27.09-4.68-2.42-9.67-2.41-14.68-2.42-21.61-.04-43.26-.82-64.82,.23-18.22,.88-32.64-4.43-45.73-17.37-15.74-15.57-34.39-27.1-56.26-32.97-28.44-7.64-55.16-.69-81.32,9.32-13.95,5.34-27.93,8.99-42.8,8.07-7.49-.47-8.95,2.62-8.89,9.38,.29,33.18,.14,66.37,.12,99.56,0,4.71-.75,9.71,6.65,9.06,37.69-3.29,71.86,12.04,107.19,20.81,43.01,10.68,85.67,22.79,128.45,34.43,18.49,5.03,35.84,2.34,52.58-6.52,14.39-7.62,27.04-17.79,40.37-26.98,10.13-6.98,17.83-6.77,23.4,.62,5.8,7.7,3.52,15.93-6.68,23.33-8.74,6.34-17.63,12.48-26.43,18.74-32.53,23.17-67.34,26.89-105.57,15.74-59.57-17.36-119.7-32.82-179.6-49.04-12.52-3.39-25.34-1.32-38.03-1.84-4.39-.18-5.56,3.13-7.31,6.2-7.76,13.68-19.78,19.98-35.36,19.94-18.14-.05-36.28,.25-54.41-.08-24.99-.45-39.98-15.79-40.17-40.92-.18-24.7-.04-49.39-.04-74.09,0-23.15-.05-46.31,.01-69.46,.08-29.34,14.93-44.31,43.93-44.38,16.59-.04,33.19,.13,49.78-.05,16.11-.17,28.53,6.4,36.25,20.44,2.7,4.91,5.71,6.18,10.87,6.33,11.76,.35,22.78-1.71,33.82-6.03,34.39-13.45,69.52-20.73,106.18-9.43,25.27,7.79,46.43,22.41,65.47,40.23,5.49,5.13,11.03,7.34,18.51,7.22,23.15-.38,46.3-.12,69.46-.14,13.49-.01,26.31,2.75,36.75,11.59,5.13,4.34,8.85,3.9,14.28,1.07,34.87-18.18,69.95-35.95,104.87-54.03,15.19-7.86,31.03-9.96,47-4.1,36.96,13.56,45.32,61.44,14.65,87.65Zm-546.44-56.82c.18-10.15-3.09-15-13.92-14.65-16.18,.52-32.4,.43-48.58,.03-10.68-.27-14.22,4.77-14.17,14.8,.2,47.05,.18,94.1,.02,141.15-.03,10.02,3.82,15.05,14.36,14.84,16.19-.32,32.4-.34,48.59,.01,9.95,.22,13.81-4.07,13.67-13.88-.33-23.52-.11-47.05-.1-70.57,0-23.91-.29-47.83,.14-71.73Z"/>
</svg>