<?xml version="1.0" encoding="UTF-8"?>
<svg id="Layer_1" data-name="Layer 1" xmlns="http://www.w3.org/2000/svg" viewBox="0 0 800 800">
  <defs>
    <style>
      .cls-1 {
        fill: none;
      }

      .cls-2 {
        fill: #010101;
      }
    </style>
  </defs>
  <rect class="cls-1" width="800" height="800"/>
  <path class="cls-2" d="M648.36,58.55c3.06-3.23,6.19-4.58,10.75-4.56,35.68,.2,71.36,.04,107.04,.21,4.24,.02,5.91-.94,5.54-5.41-.39-4.71-.39-9.5,0-14.22,.36-4.37-1.11-5.47-5.44-5.45-38.77,.17-77.55,.16-116.32,.03-5.38-.02-9.43,1.89-13.1,5.66-9.21,9.45-18.7,18.62-27.89,28.09-2.51,2.59-5.08,3.58-8.66,3.52-12.37-.2-24.75-.12-37.12-.06-9.89,.05-14.33,4.51-14.37,14.37-.05,12.58-.1,25.16,.05,37.74,.04,3.12-.8,5.37-3.07,7.59-12.21,11.99-24.31,24.1-36.32,36.28-2.2,2.23-4.45,3.12-7.59,3.07-12.79-.17-25.57-.14-38.36-.04-9.08,.07-13.65,4.69-13.7,13.78-.08,12.79-.11,25.58,.05,38.36,.04,3.13-.85,5.36-3.11,7.58-12.06,11.85-24.03,23.79-35.86,35.87-2.53,2.59-5.11,3.53-8.67,3.47-12.37-.2-24.75-.13-37.12-.06-9.85,.05-14.26,4.52-14.29,14.44-.05,12.58-.07,25.16,.03,37.74,.02,2.82-.53,5-2.68,7.12-16.42,16.23-32.74,32.57-49,48.98-2.19,2.21-4.38,3.22-7.55,3.15-10.31-.21-20.65-.48-30.93,.07-6.35,.34-6.59-2.03-5.42-7.13,7.7-33.51,24.7-61.2,51.07-83.28,4.44-3.72,12.69-5.68,12.62-11.27-.06-5.1-5.95-9.99-8.75-15.24-2.29-4.28-4.25-3.96-7.97-1.48-61.15,40.81-89.43,120.15-68.19,191.8,22.04,74.34,89.17,124.39,167.31,124.57,49.71,.11,99.41,.01,149.12,.05,2.16,0,4.44-.6,6.66,.61-.81,2.4-2.86,3.53-4.51,4.89-49.63,40.98-106.48,60.2-170.81,55.11-62.92-4.97-115.52-31.65-157.43-78.69-34.24-38.42-53.53-83.61-58.02-134.98-.56-6.36,1.43-14.48-1.8-18.66-3.71-4.81-12.28-.8-18.65-1.75-4.98-.74-5.69,1.56-5.56,5.89,.5,16.74,2.3,33.31,6.18,49.6,1.14,4.77,.54,6.65-5.22,6.58-27.01-.33-54.04-.28-81.05-.03-5.04,.05-6.56-1.11-6.53-6.35,.24-37.12,.22-74.25,.01-111.37-.03-4.78,1.09-6.18,6.04-6.14,30.32,.25,60.64,.06,90.95,.17,7.09,.03,11.71-3.02,14.36-9.48,5.93-14.47,11.71-29.01,17.98-43.34,3.36-7.67,2.12-13.55-3.86-19.42-21.03-20.66-41.69-41.71-62.71-62.38-3.73-3.66-4.28-5.75-.24-9.73,26.44-26.05,52.69-52.31,78.79-78.71,3.45-3.49,5.13-2.96,8.25,.2,21.01,21.27,42.31,42.26,63.3,63.56,5.65,5.73,11.33,7.22,18.86,3.92,14.14-6.22,28.51-11.9,42.77-17.84,8.16-3.4,10.25-6.58,10.26-15.56,.01-29.91,.08-59.81-.08-89.72-.02-4.45,.56-6.36,5.85-6.32,37.54,.27,75.07,.22,112.61,.04,4.4-.02,5.48,1.21,5.41,5.5-.25,16.7-.22,33.41-.04,50.12,.06,6.1-2.73,14.44,1.25,17.67,3.78,3.07,11.81,.61,17.93,1.17,4.88,.44,5.72-1.45,5.69-5.9-.21-25.78-.09-51.56-.11-77.34,0-12-3.95-15.98-15.88-15.98-47.02-.01-94.05,0-141.07,0-12.49,0-16.36,3.82-16.37,16.11,0,31.35-.07,62.7,.09,94.05,.02,3.87-1.06,5.97-4.75,7.35-7.72,2.87-15.43,5.84-22.86,9.36-4.1,1.94-6.52,1.15-9.57-1.94-21.73-22.01-43.63-43.85-65.52-65.71-9.23-9.22-14.71-9.18-24.02,.11-33.11,33.08-66.21,66.18-99.29,99.29-8.36,8.37-8.33,14.33,.02,22.68,22.16,22.18,44.25,44.42,66.53,66.46,2.99,2.96,3.52,5.28,1.74,9.09-3.48,7.45-6.61,15.09-9.42,22.82-1.45,3.99-3.61,5.1-7.74,5.07-31.35-.18-62.7-.11-94.05-.09-11.87,0-15.8,4.01-15.8,16.05,0,47.02,0,94.05,0,141.07,0,12.14,4.15,16.25,16.39,16.25,31.14,.01,62.29,.1,93.43-.1,4.42-.03,6.51,1.29,7.98,5.48,2.58,7.37,5.59,14.63,9,21.65,2.07,4.26,1.34,6.88-1.96,10.14-22.31,22.01-44.43,44.22-66.58,66.4-7.74,7.75-7.71,14.08,.03,21.82,33.38,33.4,66.77,66.79,100.18,100.17,8.72,8.71,14.38,8.72,23.1,.02,22.04-22,44.12-43.97,65.99-66.13,3.13-3.17,5.65-3.76,9.66-1.87,7.45,3.49,15.08,6.68,22.81,9.5,3.8,1.39,4.7,3.46,4.68,7.27-.15,31.56-.1,63.11-.08,94.67,0,11.29,4.37,15.62,15.78,15.62,47.23,.02,94.46,.02,141.69,0,11.6,0,15.84-4.36,15.85-16.2,.01-30.73,.13-61.46-.12-92.19-.04-5.23,1.01-8.14,6.39-9.87,7.43-2.39,14.63-5.6,21.7-8.93,3.89-1.83,6.2-.95,9.08,1.96,21.76,21.99,43.68,43.82,65.56,65.69,9.33,9.33,14.66,9.38,23.97,.09,33.12-33.08,66.21-66.18,99.3-99.29,8.34-8.34,8.38-14.44,.07-22.71-5.15-5.13-10.47-10.09-15.72-15.13,20.3-1.41,39.63-1.39,58.96-1.42,10.92-.02,15.43-4.51,15.43-15.37,.01-138.39,.01-276.78,0-415.18,0-10.74-4.27-15.07-14.91-15.08-31.35-.03-62.7-.03-94.05,0-10.62,.01-14.84,4.34-14.85,15.14-.02,25.78-.21,51.56,.15,77.34,.08,5.72-1.67,6.69-6.9,6.64-25.98-.27-51.97-.16-77.96-.1-9.85,.02-14.26,4.52-14.29,14.45-.04,18.15-.16,36.3,.09,54.45,.06,4.42-1.28,5.47-5.55,5.43-26.19-.19-52.39-.12-78.58-.09-10.7,.01-14.96,4.3-14.97,15.01-.03,21.86-.16,43.73,.11,65.59,.06,4.85-1.2,6.19-6.11,6.14-26.19-.26-52.39-.15-78.58-.1-9.91,.02-14.38,4.49-14.41,14.32-.05,14.23-.06,28.46,.02,42.69,.02,3-.07,4.95-4.12,4.93-27.43-.17-54.86-.12-82.29-.04-2.9,0-4.36-.87-5.28-3.82-4.19-13.45-6.64-27.17-7.31-41.24-.18-3.68,1.16-4.46,4.55-4.41,13.61,.17,27.23-.17,40.83,.17,6.52,.16,11.38-2.05,15.88-6.62,16.92-17.2,34.14-34.1,51.05-51.32,3.03-3.08,6.07-4.21,10.29-4.13,12.16,.25,24.34,.16,36.5,.06,9.3-.07,14.1-4.89,14.16-14.14,.07-12.79,.08-25.58-.03-38.36-.03-2.86,.66-5.01,2.78-7.1,12.2-12,24.3-24.11,36.32-36.3,2.19-2.22,4.44-3.19,7.59-3.14,11.96,.17,23.92,.08,35.89,.06,12.26-.01,16.47-4.14,16.48-16.18,.01-12.17,.09-24.34-.06-36.51-.03-2.92,.84-4.99,2.92-7.04,12.04-11.87,24.02-23.81,35.85-35.89,2.54-2.59,5.16-3.5,8.71-3.45,12.37,.18,24.75,.13,37.12,.05,9.66-.06,14.4-4.83,14.45-14.48,.06-12.17,.14-24.34-.06-36.5-.07-3.97,.9-6.92,3.91-9.74,7.36-6.91,14.49-14.1,21.43-21.44ZM261.96,626.14c-19.81,19.83-39.67,39.61-59.39,59.53-2.63,2.65-4.21,2.79-6.94,.04-26.73-26.91-53.56-53.71-80.46-80.44-2.6-2.58-2.99-4.15-.18-6.94,20.07-19.86,40.03-39.84,59.9-59.91,2.71-2.73,3.84-2.2,5.73,.79,20.84,32.89,47.8,59.73,80.54,80.79,1.28,.83,3.11,1.26,3.22,3.54-.76,.81-1.56,1.74-2.42,2.6Zm195.38,120.94c-38.12-.14-76.25-.08-114.37-.08-2.23,0-4.56,.49-4.55-3.16,.08-30.06,.04-60.13,.04-90.66,19.26,4.19,38.16,6.94,57.36,7.3,20.92,.39,41.55-1.99,61.93-6.5,3.81-.84,4.47,.03,4.45,3.6-.11,28.23-.13,56.46,.02,84.7,.02,3.84-1.1,4.83-4.88,4.82Zm215.25-396.46c0-63.73,.06-127.46-.12-191.19-.01-5.09,1.14-6.54,6.36-6.46,20.62,.33,41.25,.27,61.87,.03,4.68-.06,6.2,.93,6.19,5.98-.16,128.08-.15,256.15-.02,384.23,0,4.52-.94,5.96-5.72,5.9-20.62-.28-41.25-.32-61.87,.01-5.36,.09-6.85-1.11-6.83-6.7,.23-63.93,.14-127.87,.14-191.81Zm-92.93-98.61c20.83,.24,41.66,.27,62.49-.02,4.72-.06,5.74,1.27,5.73,5.83-.17,47.43-.11,94.87-.11,142.3,0,47.64-.08,95.28,.12,142.92,.02,4.99-1.43,6.11-6.19,6.05-20.83-.26-41.66-.27-62.49,.01-4.78,.07-5.73-1.39-5.72-5.9,.13-95.08,.14-190.15-.02-285.23,0-5.05,1.53-6.03,6.2-5.98Zm11.92,324.42c1.69-1.83,3.42-2.6,5.89-2.59,19.99,.07,39.98,.06,59.97,.02,2.13,0,3.95,.24,5.59,1.9,7.65,7.79,15.41,15.48,23.11,23.22,.71,.71,1.29,1.55,1.76,2.13,.1,2.04-1.26,2.84-2.23,3.82-26.94,26.97-53.92,53.89-80.8,80.92-2.43,2.44-3.99,2.67-6.5,.14-19.88-20.04-39.84-40-59.87-59.88-2.55-2.53-2.75-3.9,.52-5.93,19.55-12.13,36.99-26.84,52.57-43.74Zm-117.08-244.97c0-3.97,.95-5.23,5.08-5.19,21.45,.21,42.9,.23,64.34-.01,4.4-.05,4.92,1.64,4.91,5.36-.11,35.27-.07,70.53-.07,105.8,0,35.27-.08,70.53,.1,105.8,.02,4.51-.93,5.97-5.72,5.9-21.03-.28-42.07-.24-63.11-.02-4.25,.04-5.57-.98-5.56-5.42,.14-70.74,.13-141.48,.02-212.22Zm-99.03,87.25c-.02-4.55,.99-5.9,5.72-5.83,20.82,.28,41.65,.26,62.48,.02,4.64-.05,6.3,.86,6.22,5.96-.32,20.82-.13,41.65-.13,62.48,0,20.83,0,41.65,0,62.48,0,2.61,.72,5.38-3.74,5.25-21.42-.64-42.87,.99-64.28-1.27-5.03-.53-6.3-2.27-6.28-7.21,.21-40.62,.2-81.25,.01-121.87Zm-28.09,56.12c2.82-.01,3.42,1.11,3.41,3.66-.08,19.14-.13,38.28,.02,57.41,.04,4.79-2.12,3.68-4.9,2.57-25.64-10.23-46.83-26.32-63.63-48.2-3.48-4.53-6.85-9.14-9.98-15.39,25.74,0,50.4,.04,75.07-.05Zm40.89-160.96q-12.7,0-12.7-12.93,0-11.7,11.99-11.7,12.7,0,12.7,12.85,0,11.78-11.99,11.78Zm98.53-99q-12.22,0-12.22-12.17,0-12.46,12.47-12.46,12.22,0,12.22,12.09,0,12.54-12.47,12.54Zm98.89-99q-12.11,0-12.11-12.28t12.58-12.35q12.11,0,12.11,12.2,0,12.43-12.58,12.43Z"/>
</svg>