<?xml version="1.0" encoding="UTF-8"?>
<svg id="Layer_1" data-name="Layer 1" xmlns="http://www.w3.org/2000/svg" viewBox="0 0 800 800">
  <defs>
    <style>
      .cls-1 {
        fill: none;
      }

      .cls-2 {
        fill: #010101;
      }
    </style>
  </defs>
  <rect class="cls-1" width="800" height="800"/>
  <path class="cls-2" d="M729.51,41.71c0-13.69-3.86-17.47-17.37-17.48-140.72-.03-281.43-.03-422.15,0-14.04,0-16.78,2.92-16.79,17.5-.03,56.43-.01,112.85-.01,169.28,0,3.75,0,7.5,0,11.11-1.36,.17-1.87,.38-2.04,.23-1.14-1.04-2.28-2.1-3.27-3.27-13.03-15.31-29.05-25.03-49.62-25.24-25.87-.27-51.75-.55-77.6,.13-24.6,.64-44.52,10.51-57.53,32.45-7.81,13.16-14.35,26.81-18.73,41.49-10.75,36.03-7.19,73.02-6.4,109.64,.4,18.33,17.71,33.79,34.64,31.51,11.79-1.59,10.53,3.33,10.53,10.83,.02,15.62,2.88,18.2,18.75,18.21,39.2,.02,78.39,.03,117.59,0,15.52-.01,17.98-2.33,18.04-17.45,.1-25.45,.03-50.9,.03-79.22,20.75,11.25,39.13,21.36,57.64,31.21,19.46,10.35,42.23,5.56,53.75-12.79,4.65-7.4,9.55-8.49,17.03-8.48,108.18,.16,216.37,.12,324.55,.11,15.27,0,18.97-3.42,18.98-18.21,.06-97.18,.06-194.36,0-291.54ZM349.76,345.02c-5.05,8.96-14.84,10.57-26.5,4.23-18.85-10.26-37.55-20.81-56.56-30.78-5.78-3.03-9.24-6.15-8.66-13.3,.68-8.37-2.59-15.39-12.12-15-9.84,.4-12.33,7.65-12.29,16.56,.14,32.49-.22,64.99,.13,97.47,.08,7.49-1.69,10.11-9.66,9.98-28.97-.48-57.96-.48-86.93,0-7.94,.13-9.86-2.43-9.65-9.95,.51-17.99,.17-36.01,.16-54.02,0-17.62-.12-35.23,.05-52.85,.09-9.13-3.43-16.06-12.94-16.05-9.34,0-11.75,7.49-11.74,15.75,.02,22.71,.05,45.41-.04,68.12-.02,3.88-.31,7.82-1,11.63-.89,4.88-4.29,7.28-9.18,7.42-5.52,.16-9.81-2.77-9.89-7.94-.63-46.22-6.8-93.16,19.98-135.59,9.05-14.35,21.17-21.91,37.37-22.34,25.83-.68,51.69-.68,77.52-.15,15.2,.31,26.47,8.53,34.52,21.17,8.38,13.18,16.83,26.33,24.9,39.69,3.79,6.28,8.85,10.55,15.3,13.92,15.91,8.31,31.65,16.97,47.31,25.75,11.4,6.4,15.18,16.94,9.92,26.27Zm354.92-29c.04,9.14-2.21,11.71-11.58,11.67-102.31-.36-204.61-.19-306.92-.35-4.01,0-10.17,3.02-11.41-4.39-1.41-8.45-13.51-13.45-4.62-25.62,21.46-29.34,40.52-60.43,61.55-90.1,7.54-10.63-1.87-11.34-6.39-15.1-4.78-3.96-8.68-7.59-14.23,1.04-20.1,31.24-41.43,61.69-61.92,92.69-3.76,5.69-6.44,7.32-12.75,3.29-9.53-6.08-19.65-11.3-29.81-16.29-7.28-3.57-9.74-8.57-9.7-16.73,.32-65.83,.33-131.66,0-197.5-.04-8.2,2.08-10.47,10.37-10.42,64.67,.35,129.35,.19,194.03,.19,63.89,0,127.79,.19,191.68-.21,9.12-.06,11.77,2.12,11.73,11.54-.39,85.42-.37,170.85-.02,256.27Zm60.23,380c-.48-25.14-9.95-46.16-28.75-63.07-39.74-35.71-102.57-41.17-149.61-13.03-31.12,18.62-47.19,45.59-46.95,82.11,.12,18.79-.26,37.59-.27,56.38,0,13.66,2.93,16.73,16.34,16.92,12.14,.17,24.29-.09,36.43,.06,52.84,.67,105.71-1.45,158.54,1.11,9.91,.48,14.09-5.57,14.26-14.71,.21-11.74,.05-23.49,.05-35.24,0-10.18,.16-20.36-.03-30.54Zm-33.34,55.07c-26.63-.36-53.27-.15-79.91-.15-26.25,0-52.5-.31-78.73,.19-8,.15-10.02-2.41-9.54-10.03,.96-15.23,1.32-30.52,1.41-45.79,.11-17.99,7.02-32.84,20.59-44.18,40.15-33.54,93.87-33.74,134.32,.04,12.78,10.67,20.11,24.72,20.11,41.94,0,16.44-.11,32.9,.37,49.33,.19,6.64-1.87,8.74-8.62,8.64Zm-218.26-55.05c-.05-25.31-9.85-46.21-28.61-63.06-37.8-33.96-95.24-40.73-142.28-16.86-34.72,17.62-54.26,44.71-53.96,84.7,.14,18.79-.53,37.58-.67,56.37-.11,15.17,2.69,18.1,17.57,18.15,30.55,.11,61.1,.03,91.64,.03,0,.15,0,.3,0,.45,32.5,0,65-.46,97.49,.21,14.11,.29,18.73-2.57,18.8-16.57,.11-21.14,.06-42.28,.02-63.43Zm-32.98,55.04c-26.63-.31-53.26-.13-79.89-.13-26.24,0-52.48-.22-78.72,.15-7.01,.1-9.66-1.59-9.3-9.09,.79-16.42,.45-32.88,.99-49.32,.69-20.84,11.52-35.99,28.02-47.57,36.51-25.61,84.43-25.2,120.64,.94,16.89,12.19,26.47,28.47,26.86,49.53,.29,15.66-.18,31.33,.25,46.98,.19,6.83-2.33,8.59-8.84,8.51Zm-218.6-57.4c-.07-18.22-6-34.48-17.27-48.69-29.03-36.59-84.81-52.77-131.86-37.64-35.16,11.3-63.29,30.92-73.08,69.05-3.82,14.85-1.17,30.42-3.36,50.22,0,7.11,0,18.86,0,30.6,.01,14.74,3.14,18.08,17.8,18.13,33.29,.1,66.58-.24,99.87,.11,31.3,.34,62.61-1.32,93.91,.97,9.56,.7,14.11-5,14.06-14.62-.12-22.71,.02-45.42-.07-68.13Zm-34.4,57.44c-25.85-.45-51.71-.17-77.57-.17-26.64,0-53.29,.05-79.93-.06-3.5-.01-8.49,1.76-8.38-4.82,.37-20.73-1-41.7,1.65-62.14,2.62-20.17,16.82-33.76,34.41-43.47,38.68-21.38,76.33-19.08,112.65,5.42,18.48,12.47,27.55,30.41,27.66,52.74,.07,14.1-.51,28.23,.21,42.29,.44,8.62-2.8,10.35-10.7,10.21ZM178.76,43.65c-37.51-.29-68.14,30.75-67.96,68.86,.18,38.03,29.7,67.74,67.48,67.92,38.02,.18,68.28-30.32,68.07-68.59-.21-37.72-30.11-67.89-67.59-68.18Zm-.29,112.27c-24.36,0-43.7-19.53-43.61-44.04,.09-24.17,18.84-42.88,43.09-42.99,25.2-.12,43.95,18.26,43.96,43.1,.02,24.78-18.92,43.93-43.44,43.94Zm-28.84,301.27c-34.07-.39-62.51,27.85-62.88,62.43-.37,34.74,27.16,62.88,61.79,63.15,34.5,.27,62.36-27.17,63.01-62.06,.63-33.93-27.83-63.13-61.92-63.52Zm.09,101.14c-21.54,.23-38.52-16.7-38.48-38.36,.04-21.09,16.81-37.94,37.78-37.95,21.12,0,37.66,16.59,37.7,37.85,.04,21.37-16.19,38.24-36.99,38.46Zm502.56-101.14c-33.97-.19-62.59,28.35-62.82,62.64-.22,34.46,27.72,62.76,62.15,62.95,34.69,.19,62.31-27.27,62.63-62.28,.31-34.46-27.73-63.12-61.96-63.31Zm.19,101.14c-21.6,.18-38.19-16.54-38.15-38.45,.04-21.26,16.57-37.86,37.68-37.86,20.98,0,37.74,16.83,37.79,37.95,.05,21.17-16.5,38.19-37.32,38.37Zm-252.3-101.14c-34.19,.22-62.43,29.08-61.97,63.33,.47,35.07,28.04,62.47,62.66,62.27,34.59-.2,62.21-28.24,61.99-62.95-.21-34.54-28.56-62.87-62.68-62.65Zm1.08,101.14c-21.61,.26-38.38-16.45-38.38-38.26,0-21.34,16.37-37.96,37.49-38.06,21.05-.1,37.73,16.56,37.81,37.75,.08,21.41-16.11,38.32-36.91,38.57ZM666.29,193.22c0,30.96-.47,61.93,.27,92.87,.24,9.85-3.2,11.62-11.87,11.23-7.56-.34-12.75,.46-12.64-10.57,.62-63.08,.67-126.18-.02-189.26-.13-12.12,6.64-9.16,13.19-9.78,7.94-.76,11.61,.54,11.37,10.31-.79,31.72-.29,63.47-.3,95.22Zm-185.66,41.94c0-17.96,.43-35.93-.17-53.87-.34-10.06,6.23-8.14,11.64-7.79,5.29,.35,13.24-3.73,13.16,7.47-.26,36.31-.14,72.62-.08,108.93,.02,12.39-9.31,5.93-14.55,7.04-5.7,1.21-10.48,.68-10.19-7.9,.61-17.94,.18-35.91,.18-53.87Zm120.97,4.28c0,16.39-.45,32.8,.14,49.17,.47,12.97-8.77,7.51-14.54,8.42-6.53,1.04-10.62,.06-10.47-8.79,.57-32.77,.65-65.57,0-98.34-.24-12.21,7.81-7.67,13.27-8.09,5.84-.45,12.44-2.24,11.83,8.47-.93,16.34-.24,32.77-.24,49.16Zm-71.71,17.86c0-10.92,.4-21.85-.12-32.74-.46-9.71,6.42-7.16,11.05-6.73,5.04,.46,13.51-4.54,13.42,6.9-.18,21.83,.02,43.67-.08,65.5-.06,12.29-9.51,5.5-14.7,6.65-4.72,1.05-10.19,1.61-9.71-6.83,.62-10.88,.15-21.82,.15-32.74Z"/>
</svg>