<?xml version="1.0" encoding="UTF-8"?>
<svg id="Layer_1" data-name="Layer 1" xmlns="http://www.w3.org/2000/svg" viewBox="0 0 683.05 739.37">
  <defs>
    <style>
      .cls-1 {
        fill: #0b0c0c;
      }
    </style>
  </defs>
  <path class="cls-1" d="M534.94,633.01c8.02-.04,14.76,6.67,14.29,14.73-.49,8.48-5.32,13.37-13.76,14.04-7.91,.63-14.72-6.08-14.88-14.09-.16-8.18,6.16-14.65,14.35-14.68Zm147.52-364.2c-.79,17.9-12.6,29.63-31.11,30.91-7.2,.5-9.69,3.2-11.78,9.49-3.25,9.81-7.34,19.43-12.01,28.66-2.53,5.01-1.98,7.81,1.58,12.03,14.03,16.62,13.26,32.75-1.84,48.22-10.23,10.49-20.62,20.82-31.1,31.06-15.43,15.08-31.89,15.94-48.27,2.09-4.15-3.51-6.96-4.33-12.01-1.62-9.8,5.27-20.03,9.85-30.9,12.61-5.44,1.38-6.75,4.55-7.13,9.95-1.48,20.71-13.78,31.85-34.61,32.15-7.33,.1-14.65,.02-21.98,0-8.48-.01-16.97,.16-25.45-.05-18.88-.45-32.16-12.69-33.14-31.38-.33-6.36-1.67-9.95-8.48-11.12-4.85-.84-9.7-2.7-14.08-5.02-12.23-6.47-22.63-11.69-36.42,.17-10.14,8.72-24.71,5.36-35.04-4.15-13.32-12.25-26.1-25.15-38.48-38.36-11.3-12.06-11.82-29.76-.58-41.97,5.97-6.48,6.18-11.25,1.65-17.95-2.33-3.44-3.69-7.6-5.14-11.57-4.62-12.64-6.86-25.39-26.22-25.4-12.81,0-21.79-16.04-22.17-31.35-.38-15.41-.36-30.84-.02-46.26,.46-20.89,12.44-33.41,33.59-34.88,5.09-.35,7.08-1.93,8.8-6.69,3.9-10.83,8.53-21.42,13.41-31.85,2.13-4.55,1.52-7.33-1.71-11.2-14.4-17.29-13.51-32.94,2.29-48.98,10.27-10.43,20.55-20.87,31.03-31.09,15.05-14.67,31.97-15.57,47.35-1.83,4.59,4.1,7.81,4.87,12.93,1.8,4.59-2.75,9.58-4.96,14.62-6.8,12.26-4.48,23.93-7.03,25.16-25.11,1-14.57,14.97-22.66,30.43-23.01,16.57-.38,33.17-.45,49.74,0,18.25,.5,31.48,12.87,32.34,31.07,.34,7.25,2.85,10.21,9.28,11.87,5.19,1.34,10.42,3.07,15.14,5.55,11.61,6.08,21.42,11.76,34.3-.57,9.49-9.09,25.55-5.58,35.99,4.19,12.94,12.11,25.59,24.59,37.64,37.58,12.22,13.18,12.29,30.35,.09,43.81-4.82,5.32-5.35,9.22-1.8,15.02,2.79,4.56,5.2,9.54,6.71,14.64,3.77,12.73,7.42,22.75,24.76,23.79,14.19,.85,21.78,14.12,22.53,28.37,.93,17.68,.88,35.48,.09,53.17Zm-139.83-25.57c3.05-37.99-12.88-67.65-45.45-91.58,0,5.2,.02,7.84,0,10.47-.19,24.26,.83,48.61-.92,72.76-1.73,23.95-15.84,40.55-38.13,49.17-21.88,8.46-40.74,1.5-57.01-13.91-13.48-12.77-17.79-29.25-17.81-47.2-.03-22.96,0-45.92,0-70.5-2.5,1.66-3.7,2.37-4.8,3.2-28.09,21.28-42.65,49.59-40.66,84.75,2.26,39.94,22.68,68.85,59.05,85.45,11.19,5.11,15.6,11.86,15.42,23.83-.47,31.2,.3,62.42-.41,93.61-.24,10.55,3.2,13.42,13.17,12.65,10.73-.83,21.62-.83,32.34,0,9.65,.75,11.6-3.21,11.47-11.96-.45-30.81,.32-61.65-.4-92.45-.32-13.45,4.56-20.51,16.98-26.33,34.38-16.09,54.12-43.98,57.17-81.95Zm110.9,18.24c-.58-10.38-.07-20.81-.16-31.22-.15-17.04,2.58-16.69-15.94-16.2-12.36,.32-18.97-4.22-21.78-16.92-3.74-16.91-10.43-33.07-20.07-47.59-6.65-10.01-4.84-17.86,3.5-25.34,2.01-1.8,3.66-4.01,5.77-5.67,5.71-4.47,5.11-8.37-.01-13.11-7.92-7.32-15.33-15.19-22.97-22.82-10.8-10.79-10.97-10.96-21.9,.26-6.74,6.92-13.8,11.62-23.31,5.97-17.32-10.29-35.59-18.17-55.18-22.89-8.88-2.14-12.63-8.08-12.73-16.8-.05-3.85-.26-7.73,.02-11.56,.44-5.95-1.91-8.25-7.99-8.05-11.17,.35-22.36,.09-33.55,.1-14.94,0-15.27,.01-14.95,14.83,.24,11.29-2.67,19.73-14.99,22.37-18.26,3.91-35.07,11.41-50.98,21-8.9,5.36-16.73,4.51-23.73-3.31-1.8-2.01-4.03-3.65-5.67-5.77-4.59-5.9-8.59-6.21-13.82-.27-6.61,7.5-14.1,14.24-21.19,21.32-12.14,12.13-12.25,12.27-.24,24.29,6.18,6.18,10.85,12.7,5.59,21.33-10.9,17.9-18.68,37.02-23.88,57.26-1.87,7.28-6.89,10.84-14.3,11.14-2.7,.11-5.44,.39-8.09,.04-10.09-1.32-14.9,1.76-13.71,13.06,1.04,9.91,1.18,20.14-.03,30.02-1.51,12.37,3.46,15.68,14.73,14.16,11.24-1.52,19.82,1.91,22.53,14.29,4.07,18.6,11.62,35.79,21.58,51.92,5.07,8.21,4.08,15.24-2.63,21.82-2.48,2.43-4.72,5.15-7.4,7.31-5.47,4.4-5.57,8.17-.21,13.05,7.96,7.27,15.32,15.2,22.96,22.82q10.98,10.95,21.97,.09c11.23-11.1,14.47-11.47,28.1-3.8,10.35,5.83,20.76,11.57,33.65,14.6,0-17.71-.54-33.91,.22-50.05,.4-8.53-2.66-12.66-9.98-16.87-83.26-47.99-86.17-167.44-5.56-218.32,10.08-6.36,20.88-11.24,32.58-5.17,11.94,6.19,13.26,17.77,13.15,29.86-.23,25.44-.33,50.89-.08,76.33,.15,14.85,12.25,28.07,26.05,29.39,12.49,1.2,26.13-10.76,28.58-25.35,.63-3.77,.52-7.68,.51-11.53-.05-24.67-.67-49.35-.1-74.01,.54-23.52,18-33.57,39.06-23.23,3.1,1.52,6.08,3.35,8.94,5.29,78.46,53.1,74,169.88-8.19,217.41-3.68,2.13-9.51,2.43-9.52,8.69-.03,19.03,0,38.06,0,57.7,11.71-2.76,20.89-7.55,29.96-12.55,19.11-10.54,19.32-10.79,35.18,5.21,5.5,5.55,9.3,6.6,14.83,.31,6.35-7.23,13.48-13.76,20.28-20.58,12.55-12.57,12.78-12.79,.29-25.06-7.69-7.55-9.69-14.76-3.5-24.42,10.24-15.98,17.05-33.54,21.42-52.03,2.05-8.66,7.46-13.18,16.46-13.18,3.47,0,6.98-.34,10.4,.05,7.43,.86,10.47-1.79,10.03-9.62Zm-3.86,321.6c-16.51,13.24-34.21,25.01-51.61,37.11-8.53,5.93-18.24,4.8-22.32-2.56-4.63-8.34-2.37-15.53,5.42-21.05,14.47-10.25,28.89-20.56,43.35-30.81,4.42-3.13,8.97-6.18,11.9-10.82,5.36-8.5,6.38-17.43,.48-26-5.58-8.11-13.72-11.06-23.29-8.72-4.42,1.08-8.76,2.9-12.83,4.97-33.61,17.1-67.07,34.48-100.77,51.41-6.2,3.11-8.88,6.33-8.64,13.86,1.02,32.66-21.24,55.57-54.05,55.85-40.88,.34-81.77,.16-122.65,.06-12.28-.03-18.1-4.95-17.97-14.47,.13-9.61,5.73-14.07,18.41-14.1,38.95-.08,77.91-.06,116.86,0,5.44,0,10.76-.23,15.87-2.34,10.42-4.31,16.53-15.15,14.64-26.11-1.94-11.26-10.7-19.9-21.98-20.12-23.13-.45-46.32-1.07-69.41-.02-19.03,.87-34.11-4.63-47.78-18.12-15.73-15.53-34.41-27.09-56.34-32.59-27.9-6.99-54.3-.7-80.04,9.33-14.24,5.55-28.64,9.04-43.82,8.41-6.93-.29-8.29,2.52-8.25,8.76,.25,33.54,.12,67.08,.11,100.63,0,4.31-.64,8.93,6.04,8.49,44.29-2.94,84.23,15.67,125.85,25.72,36.6,8.84,72.91,18.91,109.21,28.95,19.34,5.35,37.22,2.66,54.61-6.69,13.98-7.53,26.34-17.41,39.33-26.39,9.91-6.85,17.9-6.62,23.39,.66,5.82,7.74,3.52,15.79-6.71,23.27-3.11,2.27-6.47,4.23-9.41,6.71-41.01,34.57-85.42,41.05-136.87,23.86-53.83-17.99-109.58-30.22-164.46-45.11-12.55-3.41-25.28-1.6-37.92-2.25-4.42-.23-5.86,2.47-7.55,5.68-7.35,13.95-19.23,20.58-34.79,20.67-18.9,.11-37.82,.54-56.69-.15-24.7-.91-38.69-15.9-38.87-40.73-.18-24.67-.04-49.35-.03-74.02,0-24.29-.17-48.58,.05-72.87,.23-24.81,15.84-40.33,40.5-40.52,18.9-.14,37.8-.01,56.7,0,11.56,0,20.54,5.31,28.36,13.39,3.7,3.83,3.82,11.66,9.47,12.22,9.42,.93,19.14,1.92,28.57-1.42,12.31-4.37,24.65-8.74,37.18-12.44,50.41-14.89,95.61-3.85,134.32,30.52,14.1,12.52,28.09,17.03,46.45,16.46,22.99-.72,46.21-2.77,69.16,1.63,6.18,1.18,12.43,2.98,16.7,7.32,7.52,7.66,14.06,5.26,22.16,.99,33.71-17.77,67.54-35.31,101.66-52.27,33.55-16.69,68.54-2.03,77.16,32.3,5.41,21.54-1.93,39.94-18.83,53.49ZM105.39,665.49c-.47-23.46-.14-46.93-.15-70.39,0-24.23-.15-48.47,.07-72.7,.08-8.77-3.8-12.75-12.42-12.71-16.93,.07-33.86,.08-50.79,0-9.12-.05-13.31,4.33-13.29,13.42,.07,48.08,.05,96.17,.02,144.25,0,9.02,4.09,13.31,13.41,13.15,16.16-.29,32.34-.54,48.48,.08,11.26,.43,14.88-4.35,14.67-15.08Z"/>
</svg>