<?xml version="1.0" encoding="UTF-8"?>
<svg id="Layer_1" data-name="Layer 1" xmlns="http://www.w3.org/2000/svg" viewBox="0 0 800 800">
  <defs>
    <style>
      .cls-1 {
        fill: none;
      }

      .cls-2 {
        fill: #010101;
      }
    </style>
  </defs>
  <rect class="cls-1" width="800" height="800"/>
  <path class="cls-2" d="M222.39,308.17c4.37-5.84,6.56-9.44,9.4-12.42,5.79-6.09,12.84-7.24,19.54-2.09,6.05,4.65,8.22,11.3,3.66,18.23-9.03,13.73-18.13,27.42-27.84,40.67-5.44,7.42-12.99,6.95-20.48,2.56-11.87-6.96-23.75-13.91-35.6-20.9-8.2-4.84-12.7-11.36-8.03-20.92,3.95-8.09,12.28-9.37,22.75-4.05,1.99,1.01,3.66,2.9,6.44,2.09,1.39-6.87-.89-13.54-1.52-20.32-12.87-138.4,107.67-259.83,246.17-247.98,106.91,9.15,190.78,82.91,209.73,188.37,13.77,76.66-7.85,144.44-61.34,201.54-8,8.53-16.45,9.48-23.14,3.38-6.87-6.27-5.93-14.61,2.73-23.91,44.06-47.32,62.82-103.12,54.84-167.3-13.77-110.73-120.17-189.62-230.28-171.25-89,14.85-154.38,80.46-168.54,170.34-3.19,20.26-2.95,40.98,1.53,63.95Zm312.4,150.13c-.27-8.55-5.35-13.36-13.79-13.33-8.91,.03-14.34,4.96-14.27,14.08,.07,9.11,5.68,13.44,14.29,14.12,9.23-.89,14.06-5.86,13.77-14.88Zm-252.22,228.32c8.78-.61,13.77-5.46,13.73-14.74-.04-8.96-5.35-13.09-13.4-13.86-7.96-.76-14.41,5.9-14.49,14.09-.08,8.02,6.35,15.05,14.16,14.51Zm434.95,25.9c-36.47,10.03-73.29,18.77-109.95,28.09-20,5.08-39.97,10.24-59.98,15.28-42.1,10.6-82.49,5.12-122.09-11.81-26.34-11.26-53.3-21.06-79.97-31.52-14.12-5.53-19.01-12.96-14.78-22.45,3.68-8.24,12.04-9.77,25.06-4.65,26.66,10.5,53.71,20.12,79.92,31.64,39.23,17.25,78.5,18.93,119.68,7.32,49.27-13.89,99.18-25.49,148.78-38.22,5.14-1.32,10.39-2.94,14.99-5.5,14.19-7.92,20.23-25.67,14.36-40.71-6.24-16-22.37-24.7-40.07-20.74-45.13,10.09-90.31,19.98-135.21,31-37.23,9.14-73.49,7.83-109.25-5.89-44.95-17.24-89.87-34.57-134.76-51.97-12.04-4.67-16.39-11.87-12.85-20.29,3.66-8.71,11.76-11.02,23.46-6.54,29.61,11.34,59.2,22.76,88.81,34.12,21.02,8.06,41.62-.06,49.63-19.51,8.05-19.54-.61-39.76-21.62-48.56-45.11-18.89-90.42-37.32-135.58-56.09-4.03-1.67-7.96-2.36-12.22-2.36-39.01,.04-78.03,.24-117.04-.16-7.76-.08-9.6,2.35-9.55,9.75,.3,47.43,.37,94.86-.05,142.28-.07,8.5,2.96,10.19,10.57,9.9,14.13-.52,28.3-.29,42.45-.1,11.72,.16,18.33,5.63,18.23,14.55-.09,8.74-7.04,14.42-18.37,14.54-14.53,.16-29.08,.34-43.6-.09-6.73-.2-9.31,1.41-9.3,8.81,.02,15.08-4.18,18.74-19.32,18.78-32.89,.07-65.79,.08-98.68,0-14.71-.04-19.39-4.57-19.4-19.02-.07-80.71-.06-161.41,0-242.12,.01-14.71,4.56-19.35,19.04-19.39,32.89-.11,65.79-.08,98.68-.02,15.54,.03,20.63,4.3,19.61,19.61-.79,11.78,2.82,14.6,14.39,14.35,37.08-.81,74.2-.12,111.3-.42,9.8-.08,18.81,1.76,27.8,5.53,42.99,18.03,86.08,35.82,129.14,53.66,49.8,20.63,60.6,73.79,22.79,112.22-1.01,1.02-1.87,2.2-3.78,4.48,24.6,8.2,48.35,9.03,71.74,4.09,46.35-9.79,92.48-20.69,138.56-31.75,27.99-6.72,52.7-2.83,71.64,20.26,28.82,35.13,11.53,87.31-33.2,99.61Zm-578.82-59.42c-.45-33.6-.19-67.22-.19-100.83,0-34.37-.17-68.75,.14-103.12,.07-7.16-1.39-10.12-9.37-9.89-20.23,.58-40.49,.49-60.72,.04-7.42-.17-9.76,1.93-9.73,9.56,.28,68.37,.3,136.73-.02,205.1-.04,8.13,3.1,9.33,10.06,9.19,19.85-.37,39.73-.5,59.57,.05,7.96,.22,10.37-1.98,10.26-10.11Zm433.52-349.76c-4.07,16.51-7.13,18.64-23.82,15.76-17.56-3.03-30.49,9.68-27.32,26.78,.88,4.74,3.57,8.28,6.68,11.75,9.22,10.32,8.99,16.99-1.09,26.34-17.08,15.84-36.87,27.15-59.03,34.21-12.93,4.12-19.01,.88-23.33-12.16-3.63-10.92-10.4-17.74-22.48-17.59-12.02,.15-18.8,7.08-22.27,17.97-3.95,12.37-10.01,15.86-22.4,11.94-22.91-7.26-43.41-18.84-60.83-35.54-8.94-8.58-9.23-15.25-.46-24.55,8.06-8.54,10.35-18.07,4.84-28.26-5.61-10.37-15.04-13.02-26.5-10.58-13.83,2.94-18.55-.45-22.19-14.12-2.98-11.19-3.88-22.55-3.59-34.06-.32-12.28,.62-24.4,4.04-36.29,3.27-11.4,8.94-15.09,20.09-12.59,13.07,2.93,22.42-.28,27.97-9.6,5.38-9.02,3.56-19.41-5.1-29.17-8.17-9.22-8.01-16.03,1.1-24.64,17.8-16.83,38.43-28.82,62.02-35.59,11.17-3.21,17.46,.19,20.85,11.14,3.86,12.45,11.77,19.45,22.26,19.71,10.48,.26,18.89-6.7,22.91-18.97,3.95-12.04,9.61-15.19,21.38-11.8,23.21,6.67,43.52,18.45,61.08,34.96,9.68,9.1,9.96,15.79,1.45,25.48-8.54,9.72-10.47,20.48-4.63,29.12,6.85,10.14,16.31,12.71,28.09,9.39,10.31-2.9,17.03,1.45,19.54,11.83,5.56,22.98,6.46,46.02,.76,69.16Zm-25.24-30.81c-.14-2.29-.36-4.6-.17-6.87,.77-9.04-2.18-12.81-12.29-14.13-30.26-3.95-49.6-34.75-41.25-63.5q5.2-17.93-11.52-26.96c-2.02-1.09-4.19-1.92-6.1-3.16-4.66-3.01-7.5-2.3-11.24,2.45-24.07,30.55-60.25,30.55-84.7,.42-1.62-1.99-2.49-4.85-6.76-5.21-5.55,3.08-11.8,6.73-18.22,10.07-7.34,3.81-9.86,7.55-6.06,16.83,12.61,30.79-6.52,64.84-38.98,69.01-11.04,1.42-13.08,6.42-13.2,15.17-.05,3.44-.08,6.88,.11,10.31,.4,7.28,1.87,11.71,11.45,13.02,32.31,4.42,52.63,35.66,41.69,65.78-4.86,13.38-.86,18.55,9.6,23.42,2.42,1.13,4.82,2.35,7.07,3.79,6.06,3.85,9.86,3.33,14.75-3.22,19.31-25.83,56.56-27.65,78.28-4.59q11.47,12.17,26.29,3.41c1.64-.97,3.19-2.14,4.89-2.98,7.1-3.46,8.04-7.6,4.9-15.41-12.33-30.59,4.44-63.12,37.1-69.27,12.92-2.43,14.99-8.01,14.37-18.38Zm-62.81-1.06c-.21,34.25-28.18,61.92-62.38,61.7-34.93-.23-61.97-28.04-61.64-63.39,.31-34.09,28.49-61.57,62.77-61.19,34.02,.37,61.47,28.55,61.26,62.89Zm-28.87-.38c.12-18.54-14.96-33.6-33.46-33.42-17.7,.17-33.11,15.08-33.66,32.56-.55,17.58,15.3,33.72,33.37,33.97,18.54,.26,33.63-14.55,33.76-33.11Z"/>
</svg>