<?xml version="1.0" encoding="UTF-8"?>
<svg id="Layer_1" data-name="Layer 1" xmlns="http://www.w3.org/2000/svg" viewBox="0 0 800 800">
  <defs>
    <style>
      .cls-1 {
        fill: none;
      }

      .cls-2 {
        fill: #030403;
      }
    </style>
  </defs>
  <rect class="cls-1" width="800" height="800"/>
  <path class="cls-2" d="M353.96,626.11c16.61,4.41,35.06,4.74,53.58,4.52,11.73-.13,23.34-1.08,34.81-3.62,8.26-1.83,15.72-.81,17.68,8.81,2.08,10.23-4.55,14.26-13.53,15.41-8.6,1.1-17.2,2.29-25.84,2.87-6.18,.42-8.15,2.93-8.07,9.17,.32,27.55,.02,55.1,.2,82.65,.06,8.99-.88,17.17-11.9,18.37-8.32,.91-12.6-5.72-12.64-18.81-.08-26.04-.67-52.11,.29-78.11,.4-10.88-3.79-13.83-13.3-13.8-9.07,.03-18.08-1.17-26.79-3.78-6.24-1.87-9.46-6.78-8.55-12.94,.97-6.57,5.38-10.62,14.07-10.75Zm-203.09-212.82c16.4-.03,20.36-3.44,20.37-19.58,.01-21.35,3.96-41.96,10.22-62.2,1.29-4.19,2.15-7.94-.31-11.86-2.6-4.14-6.35-6.79-11.16-6.48-6.38,.4-10.04,4.73-11.85,10.55-5.47,17.67-9.52,35.72-10.42,54.19-.47,9.77-4.75,11.27-13.36,11.09-26.03-.55-52.08-.25-78.12-.18-13.49,.04-19.23,3.84-18.59,12.62,.85,11.51,9.28,11.97,18.1,11.9,15.85-.14,31.7-.04,47.55-.04,15.85,0,31.7,.02,47.55,0ZM388.27,154.47c.15,12.29,4.22,16.92,15.97,17.29,14,.44,27.89,1.15,41.68,4.03,7.22,1.51,12.83-1.8,14.44-9.32,1.74-8.16-2.35-13.22-10.29-14.59-9.65-1.67-19.38-3.34-29.13-3.83-7.35-.37-8.39-3.67-8.32-9.98,.28-27.22,.05-54.45,.16-81.68,.04-8.84-.36-17.3-11.91-18.13-8.78-.63-12.55,5.14-12.62,18.66-.07,15.5-.02,31.01-.01,46.51,0,17.02-.15,34.04,.05,51.05Zm218.1,253.36c-4.22,117.06-101.16,202.06-211.99,199.36-118.32-4.91-205.02-102.58-199.52-216.17,5.5-113.69,103.17-202.11,215.27-195.71,117.77,6.73,200.17,103.72,196.25,212.52Zm-24.12-6.41c.2-100.04-81.36-181.57-181.66-181.6-99.98-.03-181.13,80.73-181.37,180.51-.24,100.45,80.75,182.22,180.77,182.52,99.75,.29,182.05-81.63,182.25-181.43Zm181.41,.05c-.34,7.37-5.05,11.7-12.67,11.72-35.92,.09-71.84,.13-107.75-.02-8.96-.04-13-5.95-12.99-14.03,.04-39.8-10.59-76.63-29.55-111.41-6.14-11.26-.44-19.76,13.15-20.09,15.49-.37,31-.27,46.5,0,5.55,.1,8.44-1.34,10.95-6.96,10.1-22.57,32.12-33.05,55.91-27.57,21.35,4.92,36.89,24.82,36.79,47.12-.1,22.3-15.67,41.93-37.17,46.87-23.67,5.44-45.21-5.13-55.61-28.06-2.29-5.05-4.81-6.77-10.05-6.58-9.42,.34-18.86,.09-30.29,.09,9.54,22.61,17.04,44.26,20.48,67.09,.22,1.49,.7,2.95,.91,4.44q3.51,24.7,27.95,24.7c20.79,0,41.59,0,62.38,.01,3.02,0,6.07-.07,9.06,.27,7.33,.83,12.34,4.75,12,12.39Zm-72.4-120.8c.36,13,11.13,23.45,24.1,23.4,13.62-.05,23.99-10.78,23.79-24.62-.19-13.09-10.7-23.39-23.89-23.4-13.41-.02-24.37,11.23-24,24.62Zm-375.47,421.17c-.23,16.89-10.21,26.29-27.2,26.45-12.48,.12-24.97,.02-37.45,.03-6.05,0-12.11,.09-18.16-.01-15.12-.25-28.43-1.9-37.51,17.03-9.03,18.82-35.61,23.64-55.17,15.61-20.91-8.58-32.24-28.25-29.93-51.93,1.94-19.85,18.75-37.16,39.82-40.99,20.2-3.67,42.31,6.77,50.89,25.79,3.64,8.07,7.94,10.07,16.14,9.86,21.93-.57,43.88-.46,65.82-.04,6.99,.13,9.12-1.87,8.93-8.92-.48-18.15-.55-36.32,.03-54.46,.23-7.2-2.44-10.65-8.58-13.74-27.99-14.11-52.17-33.25-73.04-56.63-5.95-6.67-9.17-13.98-1.55-20.66,7.2-6.3,13.97-2.36,19.53,4.01,21.46,24.57,47.21,43.46,76.79,57.02,7.57,3.47,10.85,8.52,10.79,16.69-.18,24.97,.18,49.94-.15,74.9Zm-133.04,13.07c-.51-12.52-12-23.25-24.71-23.08-13.05,.18-23.58,10.83-23.62,23.91-.04,13.75,10.6,24.2,24.43,24,13.41-.2,24.43-11.65,23.89-24.82Zm476.96,46.29c-22.92,8.84-49.95-1.48-60.14-24.24-3.33-7.43-7.29-8.87-14.44-8.77-24.19,.35-48.39,.22-72.59,.1-17.42-.09-27.16-9.86-27.4-27.44-.16-12.1-.03-24.2-.03-36.29,0-12.48,.16-24.95-.06-37.43-.14-8.1,2.97-13.41,10.63-16.81,24.77-10.98,46.66-26.29,65.96-45.28,6.2-6.1,13-10.73,20.36-2.8,7.02,7.56,2.93,14.38-3.45,20.52-18.37,17.67-38.64,32.7-61.52,43.98-5.4,2.67-7.75,5.73-7.59,12.05,.47,18.51,.55,37.06-.02,55.56-.23,7.67,2.34,9.42,9.57,9.27,22.3-.44,44.61-.39,66.91-.03,6.89,.11,10.4-1.71,13.42-8.58,8.71-19.79,30.62-30.73,51.25-27.03,21.87,3.92,38.09,21.25,40.36,43.08,2.22,21.45-10.72,42.21-31.25,50.13Zm6.96-45.22c.07-12.97-10.37-23.76-23.36-24.15-13.38-.4-24.67,10.56-24.66,23.96,0,13.19,10.3,23.74,23.36,23.94,13.87,.21,24.59-10.11,24.66-23.75Zm24.6-629.5c-.08,22.21-15.89,42.36-37.01,47.18-23.37,5.32-44.79-5.29-55.68-28.27-2.33-4.92-5.01-6.65-10.23-6.6-23.82,.2-47.64,.3-71.45-.06-6.25-.09-7.47,2.21-7.39,7.83,.28,19.28,.37,38.56-.05,57.84-.13,6.02,2.51,8.53,7.39,10.96,23.16,11.54,43.76,26.74,62.36,44.7,6.46,6.23,9.97,13.14,2.67,20.5-7.07,7.12-13.53,3.21-19.53-2.73-19.24-19.04-41.07-34.49-65.84-45.45-8.54-3.78-11.62-9.59-11.5-18.6,.31-23.81,.02-47.63,.13-71.45,.09-18.65,9.3-27.93,27.68-28.07,12.1-.09,24.2-.02,36.29-.02,12.85,0,25.72-.27,38.56,.12,5.8,.18,8.49-1.93,10.93-7.22,10.28-22.3,31.96-33.11,54.72-27.99,22.53,5.07,38.03,24.4,37.95,47.33Zm-24.62-.38c-.08-13.23-10.29-23.31-23.74-23.44-13.51-.13-23.88,9.69-24.26,22.95-.37,13.2,10.81,25.04,23.76,25.18,12.94,.14,24.31-11.45,24.23-24.69Zm-312.46,89.75c-15.44,3.68-30.46,8.42-45.25,14.21-9.51,3.73-16.63-1.4-16.99-11.67-.43-12.09-.1-24.2-.1-36.3h-.04c0-11.72-.22-23.45,.1-35.17,.15-5.49-.9-8.25-7.31-8.17-24.2,.31-48.41,.38-72.61-.05-6.69-.12-7.95,3.98-10.11,8.46-9.06,18.76-27.23,29.03-47.97,27.39-19.7-1.55-36.19-15.02-42.07-34.35-5.75-18.91,.76-39.53,16.4-51.94,24.25-19.24,60.37-10.87,73.67,17.69,3.11,6.69,6.63,8.55,13.56,8.44,24.2-.4,48.41-.23,72.61-.12,18.56,.08,27.58,9.12,27.77,27.91,.18,17.02,.13,34.04,0,51.06-.04,5.69,.55,8.44,7.58,5.69,8.02-3.14,16.63-4.85,25.1-6.68,7.85-1.7,13.83,1.67,15.57,9.4,1.68,7.46-2.95,12.55-9.91,14.21ZM182.76,86.59c.17-13.36-10.85-24.03-24.69-23.92-13.43,.11-23.59,10.27-23.6,23.58-.01,13.3,11.54,24.91,24.41,24.53,12.42-.37,23.73-11.82,23.89-24.19Zm76.54,133.26c-22.38,17.27-40.94,38.02-55.32,62.34-4.59,7.77-10.53,11.15-19.48,10.48-6.76-.51-13.6-.1-20.4-.1-3.02,0-6.05,.14-9.07-.02-12.89-.71-22.98-.6-30.43,14.87-9.36,19.45-35.36,25.76-55.47,18.26-20.66-7.7-33.05-27.29-31.53-49.83,1.43-21.24,17.35-39.01,38.57-43.06,22-4.2,43.46,5.82,52.65,25.94,3.22,7.05,6.77,9.41,14.27,9.01,12.81-.67,26.64,2.7,38.27-1.08,11.89-3.87,15.57-19.2,24.03-28.63,11.89-13.27,24.31-25.85,38.18-37.02,6.73-5.42,13.92-9.48,20.67-1.21,6.55,8.03,2.15,14.59-4.94,20.06Zm-149.1,60.39c.15-12.89-11.57-24.35-24.76-24.19-13.75,.16-23.75,10.86-23.33,24.97,.4,13.34,10.79,23.27,24.11,23.04,12.72-.22,23.83-11.26,23.98-23.82Zm77.3,254.58c-8.3,.42-16.63,.08-24.95,.08-1.51,0-3.03,.08-4.54,0-14.26-.79-25.99-1.05-34.48,15.96-9.31,18.65-34.68,24.21-53.88,17.12-21.96-8.11-34.13-27.71-32.04-51.63,1.72-19.76,17.89-37.61,37.74-41.66,21.05-4.29,43.72,5.24,52.49,24.54,4.35,9.57,9.66,11.21,18.83,10.98,22.93-.57,22.67-.09,15.17-21.65-3.95-11.36-6.98-23.05-10.04-34.69-2.02-7.68,.68-14.03,8.55-15.94,8.57-2.08,13.7,2.98,15.41,11.1,4.78,22.69,13.09,43.98,24.08,64.36,6.49,12.04,1.42,20.74-12.35,21.43Zm-77.3-12.78c-.04-12.93-11.88-24.17-25.12-23.83-13.28,.34-23.11,10.7-22.99,24.22,.12,13.29,10.46,23.93,23.38,24.1,12.82,.16,24.76-11.66,24.73-24.48Zm653.72,1.91c-1.07,21.34-16.8,40.76-36.71,45.32-22.08,5.05-45.11-4.72-54.34-24.94-3.79-8.3-8.35-9.89-16.31-9.57-13.59,.55-27.23,.33-40.84,.11-16.22-.27-21.33-8.65-13.78-22.67,10.81-20.05,18.8-41.1,23.59-63.37,1.67-7.77,6.31-12.57,14.32-11.01,8.45,1.65,11.09,7.64,9.4,16.24-3,15.25-7.79,29.9-13.62,44.23-4.78,11.76-4.88,11.72,8.07,11.74,2.27,0,4.54,0,8.75,0,10.02,2.6,16.54-1.65,22.36-13.25,9.78-19.49,34.16-27.45,54.83-20.87,21.18,6.74,35.36,26.61,34.29,48.04Zm-24.75-2.03c-.06-13.23-10.31-23.53-23.58-23.71-13.54-.19-24.54,10.83-24.32,24.33,.21,12.76,11.27,23.92,23.79,24,13.24,.09,24.17-11.07,24.11-24.61Zm-241.97-35.08c-.36,20.88-15.45,34.53-36.65,35.27-.76,.03-1.51,.02-2.27,.02-19.28,0-38.56,0-57.84,0-19.66,0-39.32,.22-58.97-.06-22.85-.33-37.68-14.97-37.85-37.66-.27-35.53-.26-71.07,0-106.6,.14-18.7,9.98-31.16,28.4-35.77,6.6-1.65,8.27-4.77,7.79-10.96-.83-10.59-.14-21.22,2.44-31.51,6.64-26.53,33.68-45.12,62.81-43.58,27.01,1.43,51.13,23.45,54.97,50.2,.43,2.99,1.33,6.02,1.15,8.98-.88,14.59-.69,26.59,18.4,31.37,11.89,2.98,17.67,16.04,17.74,29.18,.2,37.04,.53,74.1-.11,111.13Zm-112.93-146.52h28.24q26.78,0,24.22-27.1c-1.67-17.63-15.72-31.29-33.37-32.44-23.3-1.52-38.68,14.06-38.78,39.27q-.08,20.27,19.7,20.27Zm89.17,142.03c-.06-33.98-.04-67.96-.01-101.94,0-10.11-4.53-15.38-15.07-15.29-19.25,.17-38.51,.05-57.77,.05-18.88,0-37.76-.07-56.64,.02-11.98,.06-15.82,3.63-15.86,15.24-.13,33.98,.04,67.96-.1,101.94-.04,10.23,4.35,15.46,14.84,15.44,38.51-.07,77.03-.04,115.54-.03,10.32,0,15.08-5.25,15.06-15.44Zm-51.61-27.81c-4.59,3.27-9.19,5.64-10.58,12.12-.97,4.53-5.59,7.21-10.47,7.29-5.4,.09-9.94-2.75-11.12-7.91-1.27-5.57-5.02-7.8-9.14-10.6-10.68-7.27-16.3-17.49-16.16-30.59,.14-17.69,11.75-31.64,29.29-35.15,16.62-3.33,32.85,5.01,40,20.55,7.25,15.76,2.55,34.05-11.83,44.29Zm-9.52-29.86c-.21-7.33-5.24-10.3-11.7-11.29-7.05,.86-11.68,4.36-11.71,11.55-.03,7.48,4.15,12.45,11.8,12.25,7.43-.19,11.83-4.88,11.61-12.52Z"/>
</svg>