<?xml version="1.0" encoding="UTF-8"?>
<svg id="Layer_1" data-name="Layer 1" xmlns="http://www.w3.org/2000/svg" viewBox="0 0 800 800">
  <defs>
    <style>
      .cls-1 {
        fill: none;
      }

      .cls-2 {
        fill: #010101;
      }
    </style>
  </defs>
  <rect class="cls-1" width="800" height="800"/>
  <path class="cls-2" d="M758.42,580.92c-18.3-6.28-39.45-.42-49.03,16.55-5.79,10.25-12.58,12.51-22.65,11.41-2.46-.27-5.01-.35-7.44,.02-8.37,1.25-11.28-1.53-11.21-10.55,.42-58.35,.4-116.7,.02-175.05-.06-8.74,2.44-11.95,11.1-10.9,4.9,.59,9.99,.59,14.88-.01,6.39-.78,9.13,2,11.91,7.54,8.6,17.15,27.86,26.06,45.71,22.11,19.94-4.42,33.25-19.57,34.11-38.82,.88-19.86-10.54-36.62-29.12-42.74-18.51-6.1-38.07,.18-48.18,17.94-5.03,8.83-10.72,11.01-19.53,10.09-3.28-.34-6.68-.45-9.92,.02-8.87,1.29-11-2.49-10.94-11.01,.37-53.8,.19-107.6,.19-161.39,0-24.32,0-24.1,24.8-24.15,6.48-.01,9.97,1.49,13.08,7.85,8.58,17.57,26.68,25.2,47.11,21.33,16.6-3.15,30.26-17.89,32.37-34.93,2.34-18.86-7.61-36.84-24.65-44.56-16.94-7.67-38.06-5.07-47.96,11.08-9.53,15.56-21.43,16.05-35.94,15.11-4.95-.32-9.94-.1-14.91-.04-15.26,.18-18.31,3.11-18.33,18.04-.06,31.45-.02,62.9-.02,94.35,0,24.42,.08,48.83-.03,73.25-.05,11.12,3.78,25.87-1.82,32.42-6.58,7.69-21.85,1.4-33.25,2.66-8.71,.96-13.3-1.16-11.93-11.18,1.14-8.37-3.73-15.44-11.71-13.83-23.74,4.79-31.56-8.72-35.83-27.83-.17-.78-.76-1.46-1.1-2.21-8.26-18.39-8.42-18.54,6-33.29,6.88-7.04,8.84-14.07,1.57-21.55-11.24-11.57-22.79-22.84-34.32-34.13-5.66-5.55-13.04-6.53-17.31-.07-11.83,17.9-25.28,16.51-40.62,5.69-.97-.68-2.36-.74-3.52-1.18-21.35-8.13-21.57-8.13-22.08-31.07-.22-9.55-3.74-14.88-13.86-14.81-16.15,.1-32.31,.19-48.46-.04-9.58-.14-15.22,5.51-13.68,13.62,4.08,21.39-7,29.57-25.29,33.04-.8,.15-1.66,.43-2.29,.92-14.22,10.94-26.11,9.44-36.73-5.61-5-7.08-12.47-8.27-19.26-1.71-11.9,11.5-23.6,23.22-35.17,35.06-5.43,5.56-6.63,13.01-.08,17.35,18.01,11.94,16.26,25.64,5.83,41.09-.67,.99-.92,2.28-1.35,3.43-7.7,20.62-7.7,20.7-29.59,21.49-7.15,.26-15.03,1.6-14.12,10.07,1.92,17.87-8.58,17.75-20.9,16.76-4.53-.37-9.17-.56-13.65,.04-9.66,1.3-12.51-2.11-12.43-12.1,.49-63.31,.27-126.63,.24-189.95,0-15.71-2.96-18.59-18.93-18.7-10.77-.07-21.54-.23-32.3,.08-5.04,.15-7.82-1.09-10.41-6.03-9.97-18.97-29.53-27.76-48.66-22.78-18.61,4.84-31.28,20.67-31.69,39.59-.41,19.09,11.72,36.48,29.08,41.67,19.64,5.88,39.39-1.53,49.89-20.23,3.67-6.55,7.52-8.77,14.4-8.07,4.1,.42,8.36,.62,12.4-.03,10.25-1.66,12.06,2.99,11.99,12.3-.42,53.79-.2,107.59-.2,161.39,0,22.79,0,22.63-22.53,22.84-7.35,.07-12.25-.51-16.07-8.97-7.19-15.9-27.27-24.27-44.02-20.83-20.05,4.12-33.74,19.12-34.86,38.17-1.22,20.96,9.89,37.6,29.2,43.7,18.92,5.98,38.79-1,48.97-19.14,4.18-7.45,8.54-9.94,16.3-9.04,3.68,.43,7.53,.57,11.16-.02,10.3-1.67,12.12,3.1,12.05,12.42-.4,55.04-.2,110.08-.2,165.12,0,18.89,0,19.12-18.73,18.78-7.09-.13-14.63,3-19.34-7.67-7.84-17.75-26.65-25.15-47.05-21.24-16.58,3.18-30.21,17.98-32.25,35.03-2.25,18.83,7.01,36.31,23.35,44.08,17.24,8.19,38.91,5.71,49.16-10.64,9.59-15.3,21.3-16.34,35.92-15.16,4.12,.33,8.28,.06,12.42,.05,18.56-.05,20.96-2.37,20.96-20.43,.01-55.45-.15-110.91,.14-166.36,.06-10.95-4.93-25.1,2.39-32.01,6.68-6.3,20.62-.81,31.24-2.01,10.04-1.13,13.19,2.68,12.4,12.36-.69,8.46,4.4,14.47,12.7,12.94,20.6-3.79,30.32,5.35,33.16,24.61,.12,.78,.55,1.58,1.02,2.24,10.36,14.6,10.28,27.09-5.88,38.1-7.29,4.97-7.33,12.63-.8,19.23,11.36,11.47,22.82,22.84,34.28,34.21,5.52,5.48,12.91,7.24,17.4,.96,12.26-17.13,25.73-18.06,41.7-6.09,.94,.7,2.36,.73,3.52,1.15,19.89,7.18,19.99,7.18,21.03,28.76,.45,9.43,3.47,16.21,14.36,16.21,16.15,0,32.31,.06,48.46-.04,8.35-.05,14.75-4.43,13.22-12.71-3.89-20.98,5.47-30.8,25.02-33.86,1.57-.24,2.98-1.4,4.49-2.07,19.04-8.44,19.16-8.55,34.34,6.09,6.56,6.33,13.03,8.98,20.4,1.76,11.52-11.3,22.99-22.65,34.29-34.16,5.31-5.41,7.17-13.31,1.02-17.51-18.67-12.75-16.09-26.95-5.47-42.8,.43-.64,.35-1.61,.63-2.39,7.15-20.23,7.15-20.3,29.49-21.32,7.68-.35,15.85-2.34,14.82-11.05-1.87-15.72,6.88-15.43,17.61-14.56,4.94,.4,10.02,.65,14.89-.05,11.53-1.66,15.37,1.84,15.22,14.39-.75,62.89-.37,125.8-.32,188.7,.01,14.17,3.31,17.46,17.47,17.65,10.35,.14,20.72,.28,31.06-.06,6.63-.22,10.7,.98,14.15,8.05,8.16,16.74,28.23,25.11,46.21,21.09,18.66-4.18,32.15-19.9,33.04-38.53,.94-19.6-10.09-36.82-27.4-42.76Zm-32.43-182.53c.46-9.52,8.14-16.24,18.22-15.93,10.11,.31,17.66,8.35,17.4,18.52-.26,10.05-8.51,17.85-18.47,17.46-10.27-.41-17.68-9.07-17.16-20.06Zm17.57-237.11c10.47-.15,18.1,7.36,18.06,17.78-.04,10.46-7.61,17.64-18.31,17.38-10.32-.25-17.46-7.85-17.32-18.42,.14-9.78,7.28-16.59,17.56-16.74ZM56.95,198.03c-10.13-.1-17.86-8.18-17.62-18.42,.23-9.9,7.5-17.05,17.4-17.12,9.98-.07,17.96,7.74,18.24,17.85,.28,10.17-7.49,17.8-18.01,17.69Zm.72,220.43c-10.08,.17-18.1-7.51-18.34-17.55-.23-10.07,7.62-18.37,17.44-18.44,10-.07,18.27,8.65,18.21,19.2-.05,9.72-7.17,16.62-17.31,16.79Zm-1.06,221.22c-9.89-.25-17.03-7.42-17.24-17.31-.22-10.5,7.19-17.98,17.71-17.89,10.03,.09,17.78,7.91,17.89,18.04,.11,10.15-7.68,17.43-18.37,17.16Zm514.82-228.25c-.71,4.26-6.44,2.11-9.88,2.18-21.33,.42-21.47,.3-26.52,20.99-3.35,13.76-8.43,26.94-16.35,38.47-7.89,11.49-6.73,20.05,3.5,29.01,3.54,3.1,11.3,6.31,8.14,11.9-3.72,6.57-10.14,12.04-16.41,16.59-3.75,2.72-6.12-2.86-8.58-5.22-16.25-15.55-16.16-15.56-35.38-4.16-12.18,7.22-25.01,13.35-39.16,14.88-13.87,1.49-18.17,8.94-17.51,21.75,.26,5.09,2.88,13.09-2.03,14.87-6.57,2.39-14.67,.95-22.07,.55-4.11-.22-3.24-4.08-3.3-6.82-.11-4.96-.2-9.94-.01-14.89,.31-7.93-3.63-12.53-11.07-14.09-19.64-4.12-37.96-11.13-54.76-22.38-8.9-5.96-15.31,.12-21.54,6.18-3.68,3.58-7.49,11.4-11.65,9.28-6.6-3.36-11.41-10.43-16.61-16.26-2.29-2.57,.62-4.46,2.21-6.13,3.71-3.9,7.65-7.56,11.35-11.46,5.26-5.54,5.92-11.76,1.56-18.02-11.51-16.5-19.17-34.43-22.08-54.45-.9-6.21-5.11-10.29-12.04-10.39-2.48-.03-4.97-.08-7.45-.09-16.33-.09-21.49-7.44-16.99-23.41,1.1-3.92,3.47-4.04,6.41-4.06,4.97-.04,9.95-.19,14.91,.01,8.99,.36,13.94-4.17,15.62-12.61,3.73-18.8,10.39-36.4,21.34-52.24,6.57-9.51,1.25-16-5.24-22.59-3.67-3.73-11.37-7.62-9.61-11.74,2.72-6.38,9.48-11.09,14.69-16.34,2.49-2.51,4.41-.38,6.19,1.37,3.53,3.49,7.16,6.89,10.55,10.51,6.02,6.42,12.55,7.38,19.9,2.36,15.94-10.87,33.26-18.4,52.43-21.34,8.28-1.27,12.45-5.82,11.9-14.38-.13-2.06-.26-4.17,.04-6.2,.75-5.07-2.93-12.78,2.42-14.67,6.65-2.34,14.73-1.34,22.09-.69,4.65,.41,2.85,5.19,2.99,8.16,1.09,24.19,1.09,24.05,25.03,30.85,11.96,3.39,23.41,8.08,34.06,14.7,16.24,10.09,16.58,9.82,32.42-5.35,2.65-2.53,4.78-8.66,9.59-5.44,6.35,4.25,11.68,10.03,20.19,17.59-6.8,5.07-11.23,8.12-15.38,11.51-8.99,7.33-9.39,15.26-2.69,24.83,9.04,12.92,15.5,27.18,18.22,42.9,2.96,17.1,4.93,18.58,22.7,18.89,4.7,.08,12.25-2.69,13.6,1.9,2.12,7.19,1.54,15.61,.28,23.2Zm171.63,226.98c-10.2-.39-17.34-8.26-17.06-18.8,.26-9.69,7.73-16.69,17.82-16.7,10.16,0,17.99,8.02,17.82,18.28-.17,10.42-7.95,17.63-18.58,17.22ZM400.85,303.73c-52.05-.27-96.92,44.06-97.24,96.05-.32,52.12,43.55,96.68,95.89,97.42,52.39,.74,97.84-44.17,97.87-96.69,.03-52.09-44.28-96.51-96.52-96.78Zm-.52,168.9c-39.23-.08-71.87-32.6-71.96-71.7-.09-39.96,32.49-72.71,72.25-72.63,39.27,.07,71.88,32.55,71.96,71.69,.09,39.97-32.49,72.72-72.26,72.64Z"/>
</svg>