<?xml version="1.0" encoding="UTF-8"?>
<svg id="Layer_1" data-name="Layer 1" xmlns="http://www.w3.org/2000/svg" viewBox="0 0 800 800">
  <defs>
    <style>
      .cls-1 {
        fill: none;
      }

      .cls-2 {
        fill: #0b0b0b;
      }
    </style>
  </defs>
  <rect class="cls-1" width="800" height="800"/>
  <path class="cls-2" d="M258.78,484.16c7.99-.09,15.78,7.1,15.1,14.89-.73,8.29-5.29,13.89-14.16,14.53-8.02,.58-15.68-6.35-16.01-14.15-.32-7.5,7.26-15.18,15.08-15.27Zm519.87-82.64c-.18,9.08-6.3,13.91-17.84,14.04-1.97,.02-3.95,.09-5.92-.01-14.53-.78-27.23-1.19-35.49,15.99-6.08,12.64-21.06,16.79-36.33,17.22-17.57-.9-32.09-8.65-40.51-25.01-3.5-6.81-7.4-9.06-14.48-8.27-4.68,.52-9.46,.06-14.2,.11-15,.16-27.5-1.26-38.9,16.04-18.1,27.47-59.51,21.79-75.7-7.41-3.78-6.82-7.7-9.82-15.3-8.73-3.87,.56-7.89,.32-11.82,.06-15.39-1.01-27.03,.44-37.7,16.41-17.86,26.73-60.02,21.27-75.99-7.87-3.97-7.24-8.18-9.29-15.49-8.57-4.3,.42-8.69,.33-13.01,.03-14.62-1.03-25.33,.52-35.65,15.56-19.23,28.01-61.32,22.37-77.2-8.16-3.06-5.88-6.06-8.01-12.31-7.46-5.88,.51-11.85,.44-17.75,.05-15.08-1-26.33,.43-36.65,16.14-17.39,26.46-59.32,22.04-75.38-6.26-4.81-8.47-9.86-10.55-18.33-9.91-6.67,.5-13.41,.21-20.12,.07-10.22-.22-16.61-5.84-15.91-14.65,.72-9.14,5.7-14.24,15.44-14.01,8.68,.21,17.38-.31,26.04,.16,5.48,.3,8.31-1.63,10.77-6.54,8.71-17.35,23.14-26.6,42.56-26.5,19.39,.1,33.81,9.34,42.31,26.85,2.49,5.12,5.79,6.5,11.01,6.15,5.5-.38,11.04-.06,16.57-.09,15.05-.07,27.48,1.13,38.88-16.08,18.19-27.45,59.5-21.75,75.69,7.46,3.79,6.83,7.72,9.8,15.3,8.72,3.87-.55,7.89-.31,11.82-.06,15.38,.99,27-.49,37.69-16.41,17.95-26.73,60.04-21.26,75.98,7.86,3.96,7.23,8.15,9.32,15.46,8.59,4.3-.43,8.69-.33,13.01-.03,14.61,1.02,25.33-.49,35.67-15.53,19.29-28.04,61.24-22.45,77.19,8.09,3.05,5.83,5.97,8.14,12.27,7.5,5.08-.52,10.26-.25,15.38-.08,15.89,.54,28.45,.23,39.92-16.88,17.93-26.76,59.67-20.38,75.83,8.93,3.33,6.05,6.61,8.59,13.4,8.05,7.45-.59,14.99-.2,22.48-.12,11.29,.13,17.45,5.38,17.28,14.59Zm-645.94,.12c.2-9.75-6.8-17.36-16.38-17.81-10.24-.49-18.22,6.85-18.45,16.96-.23,10.2,7.38,17.91,17.59,17.84,9.71-.07,17.04-7.29,17.24-16.99Zm143.66,0c.22-10.12-7.56-17.99-17.66-17.87-9.14,.12-17.47,8.12-17.74,17.04-.29,9.26,8.48,17.91,18.1,17.85,9.65-.06,17.1-7.39,17.31-17.03Zm123.75-17.82c-9.76-.22-17.39,6.73-17.91,16.32-.55,10.2,6.79,18.23,16.92,18.49,9.73,.25,17.37-6.73,17.88-16.34,.54-10.21-6.81-18.25-16.89-18.47Zm158.14,17.13c-.19-8.92-8.47-17-17.6-17.16-10.12-.18-17.95,7.61-17.8,17.71,.14,9.64,7.53,17.02,17.17,17.15,9.62,.14,18.43-8.42,18.23-17.71Zm143.07-.15c-.21-9.68-7.55-16.91-17.23-16.98-10.2-.07-17.81,7.62-17.6,17.82,.2,10.11,8.21,17.49,18.43,16.99,9.6-.47,16.61-8.09,16.4-17.83ZM142.62,221.59c-7.33,3.06-9.86,6.73-9.63,14.71,.64,21.67,.33,43.37,.17,65.06-.09,12.07-5.53,19.01-14.45,19.25-9.83,.27-15.15-6.45-15.23-19.43-.07-11.04-.01-22.08-.01-33.12,0-3.55-.08-7.1,.01-10.65,.46-17.64,2.07-32.55-20.45-42.79-25.3-11.5-32.89-44.99-23.17-70.96,10.29-27.49,36.43-43.62,66.04-40.75,25.67,2.49,49.51,25.09,53.56,50.77,4.7,29.81-9.4,56.46-36.83,67.91Zm-23.48-89.39c-17.28-.67-32.65,13.94-33.17,31.53-.53,17.87,13.31,33,30.86,33.74,17.34,.74,32.87-13.38,33.95-30.87,1.11-17.87-13.45-33.7-31.65-34.41Zm479.68,526.79c-9.26,26.96-34.31,42.46-65.86,40.74-24.42-1.33-47.36-22.12-53-48.04-6.63-30.44,7.9-59.11,36.81-70.62,7.34-2.92,8.74-6.73,8.59-13.83-.47-21.29-.24-42.61-.14-63.91,.05-12,5.37-18.81,14.56-19.14,9.49-.34,15.65,7.03,15.84,19.35,.16,11.04,.03,22.09,.04,33.14,0,3.95,.38,7.93-.06,11.83-1.98,17.45,.21,29.95,19.67,39.47,24.96,12.21,32.9,43.84,23.57,71.02Zm-26.27-21.06c-.08-17.54-14.95-32.71-32.18-32.81-17.19-.1-31.97,14.93-32.07,32.61-.1,17.95,13.78,32.77,31.27,33.39,17.39,.61,33.06-15.16,32.98-33.18ZM423.29,221.98c-7.62,3.06-10.04,6.72-9.53,14.58,.71,11.01,.18,22.1,.17,33.15,0,11.84-.08,23.69,.02,35.53,.08,9.68-5.03,15.1-14.23,15.15-9.17,.06-14.46-5.2-14.44-14.93,.04-23.29-.18-46.59,.12-69.87,.08-6.55-1.11-10.29-8.17-13.09-28.87-11.44-43.78-38.64-39-69.11,4.03-25.68,29.46-48.91,55.34-50.55,31.52-2,57.04,15.73,66,45.86,8.7,29.27-6.8,61.46-36.28,73.29Zm9.32-56.92c.19-17.23-15.99-33.17-33.37-32.88-17.2,.29-32.43,15.44-32.63,32.43-.2,17.3,15.8,33.06,33.36,32.86,17.09-.19,32.46-15.45,32.64-32.42Zm334.69,14.97c-21.32,12.5-42.67,24.98-64.29,36.95-5.65,3.13-7.49,6.67-7.39,12.96,.37,22.86,.18,45.73,.13,68.59-.03,13.17-5.13,19.83-14.9,19.76-9.49-.07-14.75-6.96-14.8-20.04-.1-29.57-.03-59.13-.03-88.7,0-29.17-.13-58.35,.05-87.52,.11-18.56,10.67-24.44,26.94-15.13,24.86,14.22,49.68,28.49,74.43,42.9,15.45,8.99,15.41,21.1-.14,30.22Zm-33.24-15.23c-13.46-7.71-25.43-14.56-38.31-21.93v44.11c13.47-7.8,25.22-14.6,38.31-22.18Zm-413.33,481.74c-6.74,33.2-30.12,53.3-61.99,53.28-29.99-.02-54.47-19.83-60.62-49.06-6.04-28.75,8.67-58.16,35.87-69.32,7.4-3.03,10.19-6.11,9.86-14.16-.38-9.39,5.17-15.69,14.79-16.63,8.43-.83,15.62,6.84,15.11,17.26-.38,7.8,2.78,10.55,9.36,13.24,25.9,10.57,42.69,40.32,37.6,65.4Zm-29.8-7.89c.14-18.5-14.64-33.84-32.32-33.54-17.28,.29-31.95,15.49-31.93,33.06,.02,17.56,14.77,32.74,32.03,32.96,17.19,.22,32.08-14.79,32.22-32.48Z"/>
</svg>