<?xml version="1.0" encoding="UTF-8"?>
<svg id="Layer_1" data-name="Layer 1" xmlns="http://www.w3.org/2000/svg" viewBox="0 0 800 800">
  <defs>
    <style>
      .cls-1 {
        fill: none;
      }

      .cls-2 {
        fill: #010101;
      }
    </style>
  </defs>
  <rect class="cls-1" width="800" height="800"/>
  <path class="cls-2" d="M772.91,585.66c-7.42-32.35-38.62-51.74-73.14-44.88-24.77,4.92-49.37,10.66-74.08,15.91-49.78,10.59-99.58,21.11-150.53,31.9,6.88-32.67-2.31-53.48-29.78-69.51-18.38-10.73-36.99-21.07-55.24-32.02-33.37-20.02-68.8-36.6-98.81-62.2-12.71-10.85-28.92-14.72-46.01-15.28-29.92-.97-58.09,6.71-86.08,15.67-6.41,2.05-9.83,3.17-13.01-5.52-5.88-16.05-18.91-24.56-36.37-24.86-15.33-.26-30.68-.31-46.01,0-22.87,.46-39.83,16.98-39.91,39.7-.25,74.67-.27,149.34,.02,224.01,.09,22.57,17.48,39.07,40.3,39.38,14.93,.2,29.87,.19,44.8,0,19.61-.25,33.69-10.74,38.34-30.09,2.14-8.9,6.78-10.45,14.5-9.82,20.76,1.69,39.82,8.73,58.5,17.45,38.23,17.84,73,42.17,111.59,59.31,22.31,9.91,44.58,16.78,69.8,9.88,108.19-29.59,216.6-58.39,324.91-87.57,35.38-9.53,53.83-38.26,46.21-71.46ZM125.44,653.07c-.1,14.66-5.99,20.52-20.38,20.65-12.5,.11-25,.14-37.49,0-14.05-.17-19.43-5.61-19.47-20-.11-35.88-.04-71.75-.04-107.63,0-35.07-.03-70.14,.01-105.21,.02-16.68,4.9-21.63,21.29-21.71,12.09-.06,24.19-.12,36.28,.02,14.17,.16,19.77,6,19.8,21.05,.09,47.57,.03,95.13,.03,142.7,0,23.38,.11,46.76-.04,70.14Zm608.21-24.51c-4.36,2.68-9.38,4.6-14.35,5.93-87.84,23.6-175.72,47.08-263.61,70.53-16.64,4.44-33.84,7.29-49.9,13.26-21.75,8.08-41.52,4.48-61.63-4.61-32.99-14.9-63.26-34.76-95.34-51.3-26.12-13.47-52.6-25.87-82.53-28.39-5.22-.44-10.38-.84-16.51,.29v-64.81c0-35.52,.03-71.04-.04-106.55,0-4.89-.45-9.26,5.93-11.19,29.19-8.8,58.01-19.07,89.26-17.74,12.07,.51,23.71,3.18,32.58,10.91,30.66,26.72,67.59,43.25,101.82,64.14,18.51,11.3,37.63,21.59,56.3,32.64,17.13,10.14,22.64,27.59,14.08,43.1-8.82,15.96-27.39,20.68-44.88,10.72-33.16-18.87-66.11-38.13-99.14-57.22-2.44-1.41-4.85-2.88-7.36-4.15-6.76-3.41-13.13-2.42-16.75,4.17-3.43,6.25-2.23,12.8,4.54,16.71,37.91,21.89,75.75,43.92,113.96,65.27,11.24,6.28,23.85,6.34,36.46,3,65.95-17.44,133.21-28.95,199.73-43.78,21.52-4.8,43.14-9.14,64.64-14.02,20.9-4.74,40.13,3.21,46.88,19.84,6.49,15.98,.78,34.08-14.13,43.25Zm38.58-382.69c-1.73-9.99-8.9-18.74-18.74-17.14-20.16,3.27-27.54-7.12-31.58-23.63-.19-.78-.33-1.66-.79-2.27-8.85-11.62-6.86-20.5,4.5-30.12,11.28-9.56,11-20.35,2.02-32.12-12.05-15.79-25.97-29.78-41.92-41.66-10.33-7.69-21.74-8.83-29.28,.56-11.29,14.05-22.21,14.88-35.81,4.96-1.57-1.14-3.66-1.86-5.6-2.14-13.13-1.92-17.04-9.14-16.14-22.29,1.07-15.53-7.02-24.13-20.96-25.94-19.69-2.55-39.42-2.68-59.09,.02-10.87,1.5-21.5,7.03-20.07,18.46,2.64,21.14-7.69,29.36-25.67,33.08-.75,.16-1.46,.68-2.12,1.15-10.71,7.61-18.86,6.27-27.72-4.42-9.56-11.53-20.36-12.35-30.91-4.64-17.36,12.68-32.47,27.77-45.13,45.19-6.09,8.39-7.81,19.48,.05,25.33,18.72,13.94,13.11,28.34,4.54,44.02-.95,1.74-1.86,3.65-2.15,5.57-1.23,8.14-5.31,11.95-13.9,10.37-3.12-.58-6.45-.18-9.67-.06-12.44,.48-20.02,7.56-22.01,19.63-3.45,20.88-3.28,41.68,.02,62.55,1.75,11.06,9.07,20.11,18.7,18.61,22.06-3.44,28.53,8.8,32.58,25.95,.18,.76,.63,1.51,1.12,2.14,7.79,10.26,5.24,17.76-4.28,26.13-12.92,11.35-12.56,22.11-1.74,35.92,11.51,14.68,24.75,27.55,39.38,39.09,4.69,3.7,9.67,5.62,15.53,5.64,5.48,.06,10.29-.2,13.19-4.44,11.74-17.19,25.29-14.6,40.07-5.12,1,.64,2.2,1.16,3.36,1.3,13.5,1.58,16.9,9.23,16.01,22.2-1.04,15.3,5.12,23.15,18.51,25.15,21.22,3.17,42.66,3.12,63.9-.07,10.75-1.61,19.16-8.82,17.94-19.47-2.2-19.22,6.39-27.69,23.7-30.69,1.52-.26,3.13-1.01,4.34-1.97,10.65-8.5,18.32-5.41,26.77,4.45,9.45,11.04,21.68,11.74,32.18,3.89,16.57-12.38,31.07-26.94,43.42-43.54,6.83-9.18,8.29-20.71-.38-27.47-16.13-12.57-14.22-24.98-4.6-39.42,.64-.96,.9-2.25,1.1-3.42,2.14-12.67,8.83-17.26,22.15-15.78,13.39,1.49,23.43-6.3,25.2-17.31,3.55-22.04,3.79-44.23-.02-66.24Zm-21.75,32.98c0,.4,0,.81,0,1.21-.13,25.12-.13,25.54-25.06,25.17-10.33-.16-15.69,3.68-17.84,13.56-3.44,15.8-9.55,30.67-18.27,44.23-5.6,8.7-4.43,14.96,2.8,22.14,17.71,17.59,17.56,17.97,.2,35.24-6.27,6.23-12.58,15.15-20.1,16.63-7.49,1.48-12.32-9.69-18.26-15.31-6.67-6.31-13.18-6.96-20.66-2.23-14.03,8.85-29.21,15.26-45.29,18.86-9.83,2.2-13.16,7.44-13.43,16.79-.74,25.6-.91,25.6-26.81,25.48-24.93-.11-25.1-.11-25.56-24.21-.2-10.28-3.82-16.06-14.81-18.31-14.52-2.98-28.64-8.51-40.98-16.74-11.05-7.37-18.66-5.41-27.23,3.71-14.32,15.23-14.68,14.88-29.79,.56-.88-.83-1.81-1.61-2.67-2.46-19.69-19.27-19.86-19.44-1.37-38.82,6.33-6.63,7.12-12.7,2.28-20.42-8.79-14-15.26-29.05-18.73-45.31-2.08-9.74-7.84-13.53-18.14-13.35-24.76,.43-24.77-.02-24.8-25.44,0-1.21,0-2.42,0-3.63,.09-23.68,.11-24.27,22.99-23.53,12.58,.41,18.28-4.79,20.68-16.55,2.9-14.22,8.49-27.72,16.56-39.71,7.12-10.58,4.99-17.9-3.76-26.16-15.81-14.94-15.46-15.31-.21-31.03,.84-.87,1.67-1.75,2.52-2.61,18.7-18.9,18.89-19.1,37.73-.99,7.1,6.83,13.73,6.89,21.6,2.06,14.1-8.66,29.19-15.01,45.42-18.51,10.32-2.22,12.66-9.46,12.72-18.91,.15-23.15,.34-23.33,23.98-23.85,7.22-.16,14.46,1.38,21.7,1.43,5.37,.04,7.64,2.27,6.7,7.21-4.71,24.56,6.35,35.91,30.17,39.59,9.45,1.46,18.43,7.68,27,12.77,9.09,5.4,16.03,4.59,23.53-2.99,16.93-17.09,17.21-16.9,34.22-.05,4.86,4.82,9.45,9.93,14.04,15.02,1.58,1.75,2.77,3.85,4.49,6.28-1.74,2.02-3.16,3.86-4.77,5.52-3.93,4.05-7.83,8.15-11.96,11.99-6.56,6.09-7.7,12.39-2.64,20.24,9.2,14.25,15.5,29.85,19.3,46.38,2.18,9.49,7.93,12.77,17.4,12.78,25.13,0,25.13,.28,25.12,26.29ZM86.31,442.62c11.12-.09,19.96,8.49,20.18,19.58,.23,11.91-8.38,20.65-20.2,20.51-11.13-.14-19.72-8.86-19.72-20.03,0-11.11,8.71-19.96,19.74-20.05ZM548.83,157.75c-67.56-.24-122.7,54.64-122.32,121.75,.36,65.4,54.9,120.25,119.93,120.6,68.14,.37,122.4-52.79,123.12-120.64,.71-66.67-53.64-121.48-120.72-121.72Zm-1.66,218.11c-52.78-.41-97-45.33-96.26-97.79,.75-53.37,44.44-96.3,97.73-96.03,53.61,.27,96.71,43.59,96.45,96.95-.27,54.02-44.02,97.3-97.92,96.88Zm-13.27-53.47c-.56-.13-2-.06-2.85-.72-13.66-10.65-26.31-22.43-36.16-36.72-3.11-4.51,.31-9.31,4.23-12.58,4.04-3.38,8.62-4.74,13.09-.88,5.76,4.97,11.72,9.84,16.74,15.5,4.54,5.12,7.05,4.27,11.07-.55,12.11-14.52,24.83-28.52,37.04-42.95,5.89-6.95,12.69-11.52,20.42-4.42,6.87,6.32,4.19,13.38-1.71,20.01-16.85,18.93-33.28,38.24-49.94,57.35-2.95,3.39-6.32,6.29-11.93,5.96Z"/>
</svg>