<?xml version="1.0" encoding="UTF-8"?>
<svg id="Layer_1" data-name="Layer 1" xmlns="http://www.w3.org/2000/svg" viewBox="0 0 800 800">
  <defs>
    <style>
      .cls-1 {
        fill: none;
      }

      .cls-2 {
        fill: #010101;
      }
    </style>
  </defs>
  <rect class="cls-1" width="800" height="800"/>
  <path class="cls-2" d="M718.88,354.17c-7.12-.7-7.37-3.57-7.32-8.97,.2-19.03,.11-38.06,.07-57.09-.06-35.01-19.62-54.54-54.79-54.62-30.6-.07-61.2-.3-91.79,.18-8.06,.13-9.81-2.46-9.75-10.08,.36-41.04-.82-82.12,.6-123.12,.69-19.82-8.03-30.41-24.51-37.83-24.78-11.15-51.27-14.95-77.83-17.55-41.29-4.05-82.66-3.68-123.82,2.23-24.26,3.49-48.48,7.54-69.84,20.75-9.38,5.8-14.97,13.73-14.43,25.76,.71,15.64-.19,31.35,.33,47,.24,7.28-1.82,9.48-9.27,9.37-30.59-.43-61.24,.87-91.78-.47-31.62-1.38-55.96,20.22-55.44,55.27,.69,46.63,.07,93.29,.29,139.93,.03,6.23-.92,8.6-8.2,9.31-24.24,2.37-43.01,27.33-38.65,51.23,10.45,57.31,21.49,114.52,32.23,171.78,8.55,45.6,17.39,91.15,25.35,136.86,5.06,29.06,22.94,45.09,52.72,45.09,82.46,.02,164.93,0,247.39,0,83.21,0,166.42,.03,249.63-.02,25.49-.01,42.69-12.81,48.44-37.36,5.07-21.66,9.05-43.58,13.14-65.45,15.5-82.8,30.8-165.64,46.27-248.45,4.84-25.9-12.92-51.18-39.05-53.76Zm-163.52-89.11c-.06-5.88,1.7-7.62,7.56-7.58,33.54,.25,67.08-.04,100.62,.21,12.82,.1,23.02,9.6,23.34,22.3,.55,22.35,.02,44.72,.33,67.08,.08,5.8-2.4,6.66-7.33,6.61-19.38-.21-38.76-.08-58.14-.08-19.38,0-38.76-.23-58.14,.13-6.32,.12-8.33-1.77-8.25-8.17,.32-26.83,.29-53.67,0-80.5Zm-286.6,45.7c87.94,25.27,175.49,25.04,263.64,.19,0,11.63-.25,23.87,.11,36.1,.17,5.82-2.51,6.64-7.42,6.63-83.15-.1-166.3-.11-249.44,.02-5.39,0-7.12-1.77-6.98-7.07,.31-11.91,.1-23.84,.1-35.86Zm254.52-23.89c-19.71,9.43-41.07,12.78-62.4,15.06-49.04,5.24-98.06,4.92-146.78-4-2.17-.4-4.34-.86-6.48-1.42q-38.86-10.17-38.86-50.13c0-10.42,0-20.84,0-31.06,88.47,24.91,175.5,24.81,263.63,.05,0,20.28-.03,40.96,.02,61.64,.02,6.22-4.9,7.84-9.13,9.87Zm6.75-197.18c-26.98,31.19-219.87,33.75-259.25,.96,29.71-30.72,220.29-32.62,259.25-.96Zm-261.51,86.53c.8-18.88,.24-37.81,.24-56.38,88.08,24.99,175.37,24.89,263.62,.01,0,20.33,.06,41.06-.03,61.79-.03,7.2-6.4,8.72-11.18,10.76-17.87,7.65-36.87,11.18-56.04,13.42-47.17,5.51-94.32,5.5-141.34-1.79-15.03-2.33-29.8-5.68-44.03-11.21-7.69-2.99-11.63-7.39-11.24-16.6Zm-154.38,22.75c.06-15.17,9.28-24.25,24.35-24.33,32.79-.17,65.59,.21,98.38-.27,7.85-.11,9.02,2.79,8.94,9.61-.34,26.83-.14,53.66-.14,80.49,0,26.83-.23,53.67,.16,80.49,.1,6.93-1.93,8.83-8.81,8.77-38.38-.32-76.77-.31-115.15,0-6.59,.05-7.95-2.23-7.92-8.32,.22-48.82,0-97.64,.19-146.46Zm619.45,210.82c-8.98,45.51-17.47,91.11-26.08,136.7-10.6,56.14-21.04,112.32-31.7,168.45-2.56,13.5-10.81,19.86-25.31,19.87-83.59,.06-167.17,.03-250.76,.03-80.6,0-161.21-.42-241.8,.24-26.6,.22-30.72-8.1-34.75-29.32-15.09-79.48-29.9-159.01-44.82-238.52-3.7-19.69-7.39-39.39-11.12-59.08-3.84-20.25,6.47-31.47,29.12-31.47,176.88-.02,353.75,0,530.63,0,26.49,0,52.99-.08,79.48,.02,21.74,.08,31.21,12.28,27.11,33.08Zm-340,241.88c-3.19-6.57-8.83-9.93-12.87-14.67-5.09-5.96-5.9-12.23,.06-17.79,5.47-5.09,11.46-4.58,16.81,.77,11.6,11.59,23.22,23.16,34.73,34.84,6.21,6.3,5.31,12.58-.63,18.55-11.05,11.09-22.11,22.17-33.19,33.24-5.76,5.76-12.15,7.7-18.43,1.28-6.29-6.42-4.42-12.81,1.69-18.39,4.29-3.92,8.71-7.69,15.28-13.48-22.16-2.33-39.94-6.46-56.67-15.03-51.48-26.36-75.75-79.38-71.31-126.5,5.65-60.02,44.93-104.62,100.72-117.91,76.84-18.31,151.42,33.85,161.01,111.89,3.95,32.16-3.79,61.06-20.47,88.09-6.51,10.55-13.82,13.54-20.64,9.28-6.98-4.37-6.71-11.1,.28-22.25,22.63-36.1,24.88-73.71,4.43-110.94-20.27-36.9-53.21-55.38-95.19-55.66-55.15-.36-101.35,44.38-105.6,100.86-4.04,53.65,35.81,103.36,89.57,111.76,3.26,.51,6.48,1.28,10.42,2.07Zm7.36-394.09c4.44,0,8.94-.45,13.31,.11,6.36,.81,9.95,5.51,10.27,11.33,.3,5.34-2.54,9.9-8.49,11.46-9.49,2.49-19.12,1.84-28.62,.68-7.1-.87-11.75-5.82-10.79-12.99,.9-6.72,5.55-11.08,13.2-10.74,3.7,.16,7.4,.03,11.11,.03,0,.04,0,.08,0,.13Zm-61.33,20.55c-9.09-1.11-16.19-1.5-23.05-2.96-7.13-1.51-12.64-5.8-11.34-13.91,1.35-8.48,7.75-11.91,15.66-10.08,6.58,1.52,13.25,1.5,19.78,2.76,7.3,1.4,13.17,5.58,12.25,13.31-.95,7.97-6.84,12.02-13.3,10.89Zm123.12-.16c-8.18,1.08-13.46-3.18-14.5-10.51-1.01-7.13,3.96-11.74,10.94-13.12,7.24-1.44,14.57-2.48,21.91-3.37,7.72-.94,13.44,2.23,14.79,10.07,1.4,8.14-3.97,12.55-11.07,14.1-7.22,1.57-14.69,1.95-22.06,2.84Zm-62.54-91.97c-3.71,0-7.42,.12-11.13-.02-7.47-.27-11.98-4.73-12.51-11.63-.51-6.65,3.97-11.61,10.44-12.27,8.8-.9,17.81-.9,26.62-.09,6.47,.59,11.16,5.42,10.95,11.98-.22,6.92-4.7,11.53-12.13,11.98-4.07,.25-8.16,.04-12.24,.05Zm-62.44-3.47c-7.07-1.06-15.2-1.92-23.16-3.58-6.7-1.4-10.28-6.29-9.43-13.04,.93-7.38,6.07-11.07,13.36-10.4,7.73,.71,15.35,2.52,23.07,3.46,7.65,.93,11.92,5.79,11.31,12.58-.66,7.38-6.11,11.58-15.15,10.98Zm124.76,.13c-8.58,.13-13.53-4.03-14.31-10.89-.72-6.38,3.1-11.37,10.01-12.59,8.02-1.42,16.07-2.84,24.17-3.65,7.29-.73,12.57,2.82,13.53,10.19,.94,7.25-2.92,12.12-10.28,13.42-8.02,1.42-16.1,2.47-23.13,3.52Z"/>
</svg>