<?xml version="1.0" encoding="UTF-8"?>
<svg id="Layer_1" data-name="Layer 1" xmlns="http://www.w3.org/2000/svg" viewBox="0 0 800 800">
  <defs>
    <style>
      .cls-1 {
        fill: #020202;
      }

      .cls-2 {
        fill: none;
      }
    </style>
  </defs>
  <rect class="cls-2" width="800" height="800"/>
  <path class="cls-1" d="M532.46,89.61c6.04,0,12.09-.04,18.13,0,34.07,.26,68.18-.36,102.2,1.1,30.71,1.32,54.63,25.37,55.97,56.07,1.3,29.78,.47,59.66,.53,89.5,.02,8.37-4.49,13.75-12.56,13.65-8.12-.1-12.27-5.88-12.3-14.03-.08-25.96,0-51.93-.07-77.89-.07-29.81-14.16-43.74-44.26-43.78-35.87-.04-71.75,0-107.62,0-.84,1.15-1.68,2.29-2.52,3.44,9.06,8.14,18.16,16.24,27.17,24.43,6.7,6.1,10.79,13.46,3.26,20.98-7.59,7.57-14.67,2.95-20.95-3.39-14.99-15.15-30.16-30.11-45.14-45.26-9.57-9.69-9.72-15.05-.44-24.48,15.49-15.74,31.21-31.25,46.79-46.9,6.23-6.26,13.2-9.21,20.09-1.92,6.32,6.69,3.8,13.62-2.31,19.32-9.26,8.64-18.7,17.08-28.06,25.61,.69,1.19,1.39,2.38,2.08,3.57ZM268.89,695.16c-38.2,0-76.42,.64-114.6-.24-23.26-.53-37.54-16.73-37.66-39.91-.12-21.69-.08-43.38,0-65.06,.03-9.05-.39-18.02-12.61-17.84-12.24,.19-12.25,9.53-12.27,18.32-.06,19.75,.61,39.53-.15,59.25-1.67,43.37,28.63,71.45,69.42,70.07,33.25-1.12,66.58-.28,99.87-.14,2.74,.01,6.15-1.7,9.07,2.83-9,8.71-18.11,17.58-27.28,26.38-6.12,5.87-8.51,12.69-2.22,19.3,6.2,6.52,13.2,4.96,19.3-1.12,16.43-16.41,32.88-32.8,49.25-49.27,7.09-7.13,6.62-14.31-.37-21.29-16.15-16.14-32.29-32.29-48.45-48.42-5.81-5.8-12.27-8.99-19.13-2.12-7.11,7.1-4.54,13.93,1.95,20.05,9.25,8.73,18.5,17.46,27.75,26.19-.61,1-1.22,2-1.83,3Zm489.94-326.26c-.26,110.87-.12,221.73-.2,332.6-.03,41.89-25.98,67.97-68.06,68.06-86.4,.17-172.81,.2-259.21-.01-41.93-.1-67.97-26.51-68.05-68.36-.09-48.07-.28-96.14,.21-144.2,.09-8.84-2.27-10.73-10.83-10.69-80.59,.35-161.18,.23-241.78,.2-43.16-.01-68.7-25.39-68.72-68.28-.04-63.57,0-127.15,0-190.72,0-63.96-.04-127.92,.01-191.88,.03-41.65,25.79-67.71,67.05-67.76,70.13-.07,140.26,.09,210.39-.17,8.39-.03,14.66,2.38,20.54,8.34,29.66,30.06,59.5,59.94,89.53,89.63,5.67,5.6,8.1,11.49,8.01,19.48-.36,31.4,.27,62.81-.39,94.19-.2,9.59,2.95,11.44,11.78,11.39,63.54-.35,127.09-.04,190.63-.36,9.2-.05,16.03,2.5,22.52,9.11,29.03,29.57,58.35,58.85,87.85,87.95,6.25,6.16,8.75,12.65,8.73,21.49Zm-98.35-31.69c.24,7.97,5.52,11.48,13.16,11.53,13.09,.07,26.18,.02,38.55,.02-17.08-17.52-34.1-34.97-51.82-53.15,0,14.16-.3,27.89,.11,41.6ZM339.38,113.88c.14,7.78,4.47,12.24,12.35,12.35,13.46,.19,26.93,.05,39.15,.05-17.09-17.47-34.13-34.89-51.56-52.71,0,13.47-.17,26.89,.07,40.31Zm66.09,140.02c6.09-2.2,7.43-5.21,7.39-10.93-.2-27.9-.31-55.8,.07-83.69,.09-6.7-1.87-8.48-8.4-8.32-17.42,.43-34.85,.27-52.28,.11-22.31-.2-37.85-15.48-38.23-37.76-.28-16.27-.55-32.57,.11-48.81,.36-8.79-1.68-11.73-11.2-11.66-63.9,.47-127.82,1.13-191.69-.14-29.61-.59-44.52,18.69-44.09,44.03,1.06,63.52,.35,127.08,.35,190.62,0,63.93,.03,127.86-.03,191.79-.01,9.84,.84,19.3,7.05,27.53,9.34,12.38,22.27,15.21,36.92,15.17,79.78-.21,159.56-.28,239.34,.14,9.89,.05,12.89-1.88,12.8-12.45-.58-64.7-.41-129.41-.23-194.11,.08-29.88,14.91-51.68,42.12-61.52Zm328.61,132.58c.07-10.65-3.01-12.93-12.87-12.39-15.44,.85-30.97,.57-46.45,.13-24.31-.69-39.6-16.47-39.77-40.53-.11-16.27-.63-32.57,.21-48.8,.48-9.17-2.77-10.63-11.07-10.59-63.89,.34-127.78,.16-191.67,.2-29.44,.02-44.02,14.63-44.04,44.2-.04,63.53-.01,127.06-.01,190.59,0,64.31-.06,128.61,.03,192.92,.04,27.65,14.48,41.91,42.32,41.93,86.73,.05,173.47,.04,260.2,0,28.57-.01,42.49-13.84,42.79-42.73,.23-22.08,.05-44.16,.05-66.24,0-82.9-.23-165.8,.29-248.7Zm-275.77,36.71c-14.6,0-21.09,3.91-20.86,12.5,.23,8.44,7.21,12.59,21.27,12.67,.39,0,.77,0,1.16,0,67.76,0,135.53,0,203.29-.03,3.47,0,7.03,.07,10.38-.67,6.75-1.49,11.23-5.52,10.69-12.97-.53-7.3-5.11-10.89-12.19-11.43-2.7-.2-5.42-.08-8.13-.08-34.46,0-68.92,0-103.39,0s-68.15,0-102.22,0Zm198.3,98.79c5.03,0,10.07,.08,15.08-.21,7.62-.45,12.61-4.3,12.51-12.27-.1-7.89-4.81-11.81-12.69-11.86-1.55,0-3.1-.04-4.64-.04-70.42,0-140.85,0-211.27,0-2.32,0-4.67-.12-6.96,.16-6.64,.82-10.7,4.8-11.01,11.34-.31,6.64,3.68,10.88,10.09,12.16,3.75,.75,7.69,.69,11.55,.7,33.66,.05,67.33,.03,100.99,.03,32.12,0,64.23,0,96.35,0Zm13.31,73.83c8.17,.03,13.89-3.03,14.25-11.59,.35-8.57-4.82-12.38-13.25-12.38-73.12,.04-146.23,.03-219.35,0-4.44,0-8.43,.77-11.32,4.55-2.79,3.66-3.88,7.58-1.72,11.88,2.96,5.89,7.96,7.6,14.36,7.57,35.98-.17,71.96-.08,107.94-.08,36.37,0,72.73-.06,109.1,.05Zm-26.23,74.2c9.15,.09,15.73-2.6,15.64-12.46-.08-9.36-6.81-11.8-15.21-11.79-63.5,.09-127.01,.07-190.51,.02-8.72,0-16.25,2.42-15.84,12.44,.4,9.68,7.78,11.84,16.58,11.77,31.36-.25,62.73-.1,94.09-.1,31.75,0,63.51-.18,95.26,.12Zm-189.47-321.24c-8.65-.03-16.14,2.56-16.49,12.22-.35,9.77,7.25,13.18,15.7,13.23,38.74,.22,77.49,.16,116.23,.05,8.64-.02,15.96-3.39,15.8-13.05-.15-9.65-7.31-12.55-16.18-12.47-18.98,.15-37.97,.05-56.95,.05-19.37,0-38.74,.05-58.11-.02Zm255.06,310.62c-.31-8.04-3.72-13.32-12.59-13.28-8.31,.04-11.65,5.24-12.15,12.59-.44,6.54-.05,13.13-.19,19.7-.26,12.19-4.48,16.43-16.83,16.79-6.95,.2-13.91-.05-20.85,.21-6.19,.23-10.07,3.96-11.38,9.71-1.41,6.19,2.1,12.3,7.24,12.88,18.18,2.05,37.13,5.86,53.32-7.11,12.43-9.96,14.62-23.87,13.47-37.05,0-5.95,.14-10.2-.03-14.45ZM329.49,225.53c6.97,0,13.96,.25,20.91-.11,7.44-.38,12.54-4.06,12.88-12.03,.32-7.53-4.63-11.12-11.17-12.67-2.95-.7-6.16-.45-9.25-.45-68.55-.02-137.1-.02-205.66,0-4.24,0-8.47-.32-12.55,1.56-5.05,2.32-8.18,5.94-8.09,11.57,.09,6.3,4.09,9.98,9.67,11.53,3.27,.9,6.91,.58,10.38,.58,34.47,.03,68.94,.02,103.41,.02,29.82,0,59.64,0,89.47,0Zm-42.88,74.42c12.77,0,25.54,.14,38.3-.08,8.13-.14,13.66-4.67,13.61-12.68-.05-7.98-5.6-12.3-13.7-12.74-1.93-.1-3.87-.04-5.8-.04-60.74,0-121.48,0-182.23,.01-3.09,0-6.34-.37-9.23,.46-6.35,1.81-11.31,5.51-10.99,12.96,.3,6.84,5.11,10.15,11.07,11.66,2.93,.74,6.15,.42,9.23,.42,30.18,.02,60.36,.01,90.53,.01,19.73,0,39.46,0,59.19,0Zm-151.51,48.79c-9.27-.04-18.28,1.52-18.29,12.63,0,11.03,9.09,12.94,18.28,12.94,61.9,0,123.8,.04,185.69-.03,11.81-.01,18.59-5.12,17.69-13.46-1.14-10.55-8.72-12.15-17.68-12.1-30.95,.17-61.9,.07-92.85,.07-30.95,0-61.9,.08-92.85-.05Zm-.47,74.38c-8.8-.04-16.7,1.1-18,11.71-.99,8.11,6.07,13.45,17.85,13.47,62.24,.11,124.48,.05,186.72,.05,8.91,0,17.06-2.32,17.14-12.8,.08-10.65-7.84-12.52-17-12.46-31.31,.22-62.63,.09-93.94,.09-30.93,0-61.85,.09-92.78-.06ZM248.55,151.22c9.16,.18,15.8-2.8,15.78-12.45-.02-9.04-6.77-12.28-15.11-12.28-39.05-.02-78.11-.09-117.16,.06-8.6,.03-15.93,3.33-15.29,13.29,.58,9.02,7.43,11.44,15.79,11.34,19.33-.23,38.67-.07,58-.07,19.33,0,38.67-.26,58,.11Z"/>
</svg>