<?xml version="1.0" encoding="UTF-8"?>
<svg id="Layer_1" data-name="Layer 1" xmlns="http://www.w3.org/2000/svg" viewBox="0 0 800 800">
  <defs>
    <style>
      .cls-1 {
        fill: none;
      }

      .cls-2 {
        fill: #010101;
      }
    </style>
  </defs>
  <rect class="cls-1" width="800" height="800"/>
  <path class="cls-2" d="M780.54,513.18c-4.88-35.37-42.44-52.43-73.1-32.85-29.06,18.56-57.41,38.21-86.13,57.3-2.82,1.88-5.62,6-9.06,4.2-3.46-1.81-1.53-6.46-1.54-9.79-.22-58.71-.33-117.42-.35-176.13,0-3.37-1.09-6.99,1.86-11.55,9.73,9.01,19.11,17.79,28.59,26.45,18.81,17.17,42.96,17.51,58.18,.89,15.16-16.55,13.19-39.55-5.18-56.95-18.71-17.73-37.66-35.21-56.44-52.86-5.78-5.43-12.06-11.07-19.27-3.47-7.06,7.44-1.73,13.64,4.21,19.16,17.42,16.2,34.76,32.5,52.13,48.76,14.13,13.23,16.49,22.35,8.03,31.03-7.94,8.15-17.49,6.3-30.66-6.04-80.18-75.1-160.33-150.22-240.52-225.3-13.29-12.45-14.6-12.39-28.12,.34-79.67,75.05-159.32,150.13-239,225.17-3.17,2.98-6.3,6.16-9.96,8.41-7.6,4.69-15.3,4.39-21.51-2.42-5.77-6.34-6.06-13.61-.91-20.64,2.09-2.85,4.61-5.43,7.19-7.87,86.87-81.87,173.75-163.72,260.67-245.54,15.18-14.29,20.42-14.17,35.93,.35,49.8,46.62,99.61,93.22,149.37,139.88,5.82,5.46,12.33,8.78,18.58,2,5.85-6.34,2.15-12.35-3.32-17.47-51.54-48.24-102.91-96.65-154.62-144.7-18.13-16.84-38.83-16.26-57.27,.83-19.49,18.06-38.74,36.38-58.1,54.57-8.24,7.74-16.5,15.45-25.78,24.14-.42-3.49-.7-5-.76-6.51-.77-19.91-5.36-24.45-24.93-24.48-15.87-.02-31.73-.02-47.6,.03-19.22,.07-24.46,5.36-24.47,25-.02,28.96-.14,57.92,.29,86.87,.12,7.73-1.97,13.24-7.79,18.6-26.26,24.17-52.06,48.83-78.05,73.29-10.75,10.11-17.04,22.17-14.06,37.16,6.04,30.41,39.81,42.14,63.44,22.03,11.03-9.39,21.34-19.63,34.51-31.82,0,32.31,.09,61.43-.07,90.55-.03,5.77-4.83,4.06-8.06,3.92-11.09-.46-22.17-1.65-33.24-1.58-7.07,.05-10-1.11-10.67-9.35-1.82-22.5-17.71-36.27-40.45-36.63-11.1-.18-22.22-.21-33.32,.03-21.64,.46-38.92,15.35-39.22,36.64-.82,57.11-.38,114.24-.42,171.36,0,1.18,.08,2.39,.3,3.55,1.06,5.43,4.6,8.4,9.91,8.55,5.8,.16,9.92-2.9,11.04-8.7,.67-3.45,.34-7.11,.34-10.68,.02-51.97-.04-103.93,.04-155.9,.03-16.82,6.27-23.07,22.82-23.32,7.53-.11,15.07-.05,22.61-.01,19.2,.11,25.57,6.44,25.59,25.75,.05,48,.02,96,.02,144,0,33.32,.1,66.64-.04,99.97-.07,16.64-6.57,23.1-22.93,23.29-9.91,.11-19.84,.3-29.74-.13-11.25-.48-17.47-6.71-18.23-17.86-.4-5.93,.04-11.9-.23-17.84-.32-6.94-4.24-11.48-11.09-11.47-6.41,0-9.96,4.6-10.27,10.93-.32,6.73-.4,13.5-.02,20.22,1.21,21.55,16.63,37.06,38.14,37.97,12.27,.52,24.6,.48,36.88,.02,19.39-.73,34.32-12.81,37.59-31.75,1.59-9.21,4.73-8.05,11.38-5.5,48.03,18.47,96.19,36.59,144.32,54.79,10.92,4.13,22.19,5.7,33.82,4.05,66.27-9.39,132.33-20.86,198.87-27.51,49.87-4.98,91.91-21.77,125.27-59.34,1.57-1.77,3.53-3.18,5.3-4.77,37.14-33.42,74.23-66.9,111.46-100.23,12.94-11.59,20.26-25.56,17.84-43.09ZM215.12,133.34c13.42,.21,26.84,.32,40.25-.06,6.17-.17,6.63,2.78,7.12,7.86,1.44,14.99-1.57,27.05-14.58,37-13.3,10.17-24.75,22.75-37.02,34.28-.92-.53-1.84-1.06-2.75-1.58,0-23.6,.11-47.19-.08-70.79-.04-5.29,2.12-6.79,7.06-6.71Zm-2.36,183.32c59.55-55.92,119.08-111.87,178.33-168.11,5.65-5.36,8.54-3.98,13.38,.58,59.18,55.74,118.49,111.34,177.98,166.76,4.9,4.56,6.36,9.22,6.32,15.57-.23,36.49-.11,72.99-.11,109.49h.15c0,36.1-.25,72.2,.2,108.29,.1,7.77-2.9,11.74-8.76,16.33-13.74,10.77-27.96,16.89-45.87,13.25-5.82-1.18-8.98-1.87-9.78-8.66-3.49-29.56-19.51-49.77-47.69-59.32-7.17-2.43-7.45-6.3-7.44-12.14,.1-41.26,.03-82.51-.01-123.77-.02-20.52-7.07-27.43-27.96-27.43-30.14,0-60.29-.02-90.43,.09-17.32,.06-24.43,7.18-24.46,24.51-.06,35.7-.41,71.41,.28,107.1,.21,10.91-3.51,11.59-12.12,8.6-13.86-4.81-27.64-9.72-40.49-16.92-19.04-10.67-38.41-20.62-59.8-25.83-5.61-1.37-7.25-4.44-7.21-10.16,.22-35.3,.14-70.61-.09-105.91-.04-5.27,1.86-8.81,5.59-12.32Zm135.05,60.1c-.04-5.84,2.13-7.37,7.67-7.33,28.15,.19,56.31,.21,84.46-.11,6.65-.08,7.89,2.79,7.82,8.55-.23,19.83-.09,39.66-.09,59.48h.18c0,19.83-.28,39.66,.15,59.48,.15,7-2.11,9.01-8.86,8.18-28.3-3.47-56.63-6.77-84.98-9.8-5.46-.58-6.22-3.3-6.22-7.82,.06-36.88,.08-73.76-.14-110.64Zm401.65,162.08c-22.32,20.24-44.7,40.41-67.1,60.57-24.46,22.01-49.34,43.57-73.34,66.07-17.78,16.69-38.48,25.88-62.31,29.23-68.62,9.63-137.36,18.5-205.75,29.6-23.92,3.88-45.07,.32-66.93-8.39-43.02-17.12-86.44-33.23-129.9-49.21-8.46-3.11-11.06-7.29-10.86-16.26,.65-30.13,.25-60.28,.25-90.42,0-30.14,.44-60.29-.24-90.42-.23-10.19,3.06-12.35,12.69-12.18,38.71,.69,75.73,7.88,109.18,28,42.15,25.34,89.05,31.4,136.55,35.92,23.65,2.25,47.28,4.86,70.82,8.08,19.88,2.72,35.36,17.89,39.6,36.32,1.93,8.4,.22,11.24-8.94,10.31-38.24-3.87-76.53-7.26-114.81-10.68-32.76-2.92-65.53-5.65-98.29-8.44-7.58-.65-15.3-.29-16,9.47-.75,10.45,7.33,11.53,15.29,12.21,73.83,6.32,147.67,12.51,221.46,19.24,13.83,1.26,27.84,.95,41.44,3.06,16.25,2.52,28.72-2.74,41.74-11.73,43.38-29.92,87.46-58.83,131.24-88.16,6.67-4.47,13.41-8.81,21.95-7.29,10.15,1.81,17.39,7.39,20.75,17.37,3.78,11.23-.24,20.22-8.5,27.72Z"/>
</svg>