<?xml version="1.0" encoding="UTF-8"?>
<svg id="Layer_1" data-name="Layer 1" xmlns="http://www.w3.org/2000/svg" viewBox="0 0 800 800">
  <defs>
    <style>
      .cls-1 {
        fill: #020202;
      }

      .cls-2 {
        fill: none;
      }
    </style>
  </defs>
  <rect class="cls-2" width="800" height="800"/>
  <path class="cls-1" d="M638.42,643.8c0,23.85,.07,47.7-.03,71.55-.06,14.1-3.55,17.81-17.25,17.88-28.39,.15-56.8-.49-85.16,.31-11.62,.33-8.64-6.79-8.71-12.75-.07-6.13-2.51-13.05,8.95-12.53,21.35,.96,42.8-.26,64.17,.51,10.2,.37,13.89-1.49,13.65-12.98-.86-41.52,.21-83.07-.69-124.59-.25-11.78,5.42-10.77,13.23-11.04,8.19-.28,12.52,.51,12.13,10.87-.92,24.23-.29,48.51-.29,72.78Zm-86.43-342.45c10.58,.11,12.92-2.93,12.67-12.95-.23-9.1-1.78-12.42-11.96-12.39-116.02,.41-232.03,.46-348.05-.06-11.27-.05-10.95,4.88-11.32,12.96-.42,9.19,1.64,12.52,11.84,12.42,57.59-.55,115.19-.27,172.79-.27,58.01,0,116.02-.3,174.02,.28Zm-173.07,24.32c58.01,0,116.02,.33,174.02-.3,10.69-.11,11.65,4,11.61,12.67-.04,8.57-.79,12.76-11.56,12.71-116.02-.47-232.03-.46-348.05,0-10.68,.04-11.65-3.99-11.61-12.66,.04-8.57,.78-12.84,11.57-12.72,58,.64,116.01,.3,174.02,.3Zm37.33-73.99c-46.07,0-92.14-.46-138.19,.33-11.15,.19-10.64-5.04-10.41-12.5,.21-6.88-1.63-13,9.94-12.93,92.13,.53,184.26,.61,276.39-.07,12.81-.09,9.65,6.81,10.47,13.75,1.07,9.05-1.7,11.79-11.23,11.67-45.65-.56-91.31-.25-136.96-.25Zm55.28,123.38c27.95,0,55.92,.56,83.84-.27,11.41-.34,8.97,6.45,8.88,12.59-.09,5.96,2.88,12.87-8.7,12.75-55.89-.57-111.8-.58-167.69,.01-11.38,.12-8.97-6.45-8.88-12.58,.09-5.96-2.9-13.08,8.7-12.75,27.93,.79,55.89,.26,83.84,.26Zm25.72,49.36c2.05,0,4.14-.28,6.13,.06,3.74,.64,9.75-2.5,10.81,2.37,1.44,6.6,.73,13.82-.02,20.67-.28,2.54-4.12,1.75-6.46,1.77-7.78,.07-15.57-.11-23.34,.08-4.4,.11-6.31-.97-6.78-6.03-1.73-18.94-1.99-18.92,19.66-18.92ZM242.79,240.3c3.44,12.35-4.62,10.92-12.95,11.76-11.86,1.19-11.25-4.98-11.95-13.59-.96-11.76,4.86-11.43,13.59-11.99,11.52-.73,13.09,4.57,11.3,13.83Zm-61.43,307.52c-10.88,2.96-12.68-2.26-12.89-12.04-.21-10.03,2.19-13.1,12.67-13.01,10.11,.09,13.3,2.4,12.86,12.81-.4,9.37-1.33,15.43-12.64,12.25Zm313.53,150.61c-11.65-14.6-17.14-29.32-20.01-47.16-3.91-24.32-22.59-40.19-44.2-41.34-21.91-1.16-38.71,11.54-47.39,35.76-2.8,7.81-4.26,15.87-4.26,24.12,0,5.73-1.74,10.72-5.85,14.42-18.62,16.76-24.3,36.45-13.05,60.78-4.76,.23-8.36,.54-11.96,.55-35.41,.04-70.83-.31-106.23,.25-9.05,.14-11.65-1.84-11.54-11.31,.56-47.32,.28-94.65,.25-141.97-.01-17-2.9-19.8-20.28-19.83-20.18-.04-40.35-.1-60.53,.02-14.55,.08-17.99,3.59-18.01,18.36-.06,42.8-.02,85.6-.02,128.39,0,26.46,0,26.12-27.11,26.32-8.05,.06-10.19-2.07-10.15-10.14,.33-66.25,.26-132.51,.07-198.76-.02-6.45,1.28-10.07,7.95-12.92,44.63-19.05,89.03-38.63,133.4-58.28,4.97-2.2,8.95-2.29,13.96-.07,44.37,19.63,88.79,39.16,133.41,58.23,6.55,2.8,8.25,6.28,8.1,12.88-.42,17.69,.31,35.4-.3,53.08-.39,11.35,7.51,7.35,12.59,7.42,5.17,.08,12.91,3.68,12.45-7.56-.67-16.42-.17-32.89-.17-51.13,5.91,2.54,10.01,4.29,14.1,6.06,15.58,6.72,22.81,2.22,22.94-14.48,.13-16.87-.35-33.76,.18-50.61,.3-9.53-3.18-15.23-12.01-19.06-62.99-27.34-125.86-54.96-188.76-82.51-5.46-2.39-10.78-3.42-16.64-.85-64.39,28.26-128.81,56.43-193.26,84.56-6.37,2.78-9.66,7.14-9.62,14.22,.11,19.34-.27,38.69,.16,58.02,.26,11.61,7.3,16.03,18.31,12.53,6.07-1.93,11.35-6.27,18.62-6.4v179.42c0,25.99-.02,26.67-25.82,25.83-11-.36-11.3,4.42-11.51,12.82-.22,8.99,1.4,12.53,11.77,12.5,134.23-.4,268.46-.25,402.69-.34,5.71,0,11.59-.45,17.11-1.82,32.33-7.98,49.94-45.79,30.62-69.99ZM57.68,516.77c0-10.88,.23-20.49-.09-30.07-.17-4.98,3.04-5.89,6.54-7.42,57.62-25.15,115.22-50.35,172.74-75.72,4.61-2.04,8.34-1.8,12.84,.18,56.41,24.84,112.83,49.65,169.43,74.04,7.11,3.06,10.21,6.52,9.39,14.41-.79,7.6-.17,15.35-.17,24.46-41.99-18.3-82.58-35.96-123.16-53.67-16.95-7.4-34-14.58-50.71-22.47-8.21-3.87-15.28-3.28-23.45,.34-57.05,25.26-114.28,50.11-173.36,75.93Zm148.19,118.94c.36,11.91,.08,23.84,.08,35.76,0,21.79-.27,43.58,.15,65.35,.13,6.88-1.61,9.3-8.8,8.92-13.12-.7-30.46,4.57-38.29-1.95-8.08-6.72-2.26-24.69-2.38-37.73-.31-32.88,.15-65.77-.29-98.65-.11-7.92,1.83-10.71,10.07-10.17,12.7,.82,29.48-4.39,37.1,1.92,7.88,6.52,1.98,23.92,2.36,36.54Zm270.2,93.38c-4.32,10.13-12.45,15.27-22.92,16.23-8.16,.75-16.45,.15-24.69,.15,0,.02,0,.05,0,.07-7.82,0-15.67,.4-23.46-.1-11.02-.71-19.61-5.63-24.28-16.16-4.7-10.6,.43-18.1,7.73-25.02,10.39-9.84,15.11-21.81,15.47-36.29,.51-19.92,10.77-33.05,24.38-33.34,13.46-.29,23.55,12.31,24.39,33.14,.6,14.93,5.51,27.18,16.27,37.24,7.13,6.67,11.38,14.06,7.11,24.08Zm162.7-401.81c-.84-47.3-.57-94.63-.16-141.95,.08-9.49-3.03-16.2-9.68-22.7-25.01-24.45-49.77-49.15-74.18-74.2-6.86-7.05-14.05-9.93-23.91-9.89-79.45,.32-158.91,.04-238.37,.38-8.79,.04-12.45-1.91-14.26-11.23-4.19-21.56-21.36-35.85-42.97-38.02-20.64-2.06-43.83,8.29-48.22,28.38-5.04,23.04-18.42,22.07-34.93,20.72-4.09-.33-8.23-.06-12.35-.05-17.38,.07-20.27,2.84-20.28,19.83-.03,45.67-.01,91.34-.01,137.02s.45,93.82-.33,140.71c-.19,11.16,4.57,11.19,12.87,11.46,9.11,.3,12.52-1.52,12.45-11.83-.5-81.47-.28-162.94-.28-244.4,0-29.11,0-28.92,28.88-28.2,6.16,.15,8.78,1.38,8.34,8.14-.61,9.42-.15,18.92-.15,28.38,0,32.86,13.07,50.27,37.51,49.96,24.03-.31,36.37-17.51,36.85-49.62,.14-9.36-1.96-12.28-11.91-12.5-11.06-.24-14.88,2.94-13.12,13.66,.59,3.6,.24,7.4-.01,11.09-.53,7.69-4.63,12.52-12.47,12.39-7.86-.13-11.98-5.17-12.02-12.84-.13-25.1-.5-50.21,.25-75.29,.34-11.29,7.29-19.07,18.64-21.73,10.72-2.51,19.48,1.02,25.91,9.94,2.41,3.34,5.13,7.46,3.74,11.3-1.82,5.04-7.16,1.68-10.86,2.51-4.18,.94-10.89-2.5-12.22,2.2-1.82,6.44-1.82,14.22,.11,20.6,1.3,4.31,8.11,1.85,12.38,1.85,89.75,.13,179.5,.27,269.24-.13,10.56-.05,15.01,1.65,14.26,13.59-1.18,18.85-.12,37.84-.38,56.76-.16,11.49,5.17,16.49,16.47,16.38,19.35-.2,38.71,.4,58.04-.25,9.14-.3,12.49,1.58,12.33,11.74-.66,41.96,.13,83.94-.57,125.9-.17,10.22,3.76,11.28,12.07,10.94,7.76-.32,13.49,.84,13.28-11Zm-85.55-206.61c7.84,8.39,14.12,15.62,20.96,22.28,6.69,6.52,13.94,12.45,20.95,18.64-44.76,6.71-47.14,4.26-41.91-40.92Zm183.65,245.56c-4.46-4.43-4.12-7.77-.68-12.57,8.15-11.36,15.79-23.08,23.59-34.68,4.42-6.57,7.69-13.57,7.53-21.73,.31-16.47-9.56-30.57-25.02-35.74-17.62-5.89-32.74-.32-44.5,17.04-65.3,96.33-130.49,192.74-195.76,289.09-2.81,4.15-5.02,8.36-5.65,13.45-1.98,15.89-4.19,31.75-6.23,47.63-.75,5.85-.92,11.73,4.9,15.44,5.6,3.56,10.96,1.91,16.25-1.14,10.69-6.15,21.19-12.73,32.27-18.08,10.81-5.22,18.54-12.95,25-22.87,14.36-22.05,29.3-43.72,44.04-65.53,32.94-48.72,65.85-97.45,98.95-146.05,1.82-2.67,2.4-7.91,7.38-6.82,8.38,1.82,14.65,18.26,9.87,25.34-13.12,19.43-25.89,39.1-39.63,58.08-6.08,8.4-.25,10.74,5.04,13.54,4.73,2.5,8.77,11.34,15.42,1.13,15.92-24.47,32.51-48.51,48.98-72.62,5.26-7.7,4.51-14.33-1.85-21-6.81-7.14-12.93-14.96-19.92-21.91Zm-165.1,185.42c-15.12,21.5-23.88,49.34-53.72,58-1.64-30.6,20.2-48.89,33.81-71.07,3.47-5.66,7.48,0,10.02,2.15,3.83,3.25,13.99,5.1,9.89,10.92Zm116.02-170.27c-31.13,45.95-62.52,91.74-93.09,138.07-5.91,8.95-9.73,7.27-16.81,2.34-7.11-4.95-9.99-8.02-3.9-16.83,34.84-50.39,68.9-101.32,103.24-152.05,1.83-2.7,3.82-5.29,6.31-8.72q17.39,17.88,4.25,37.2Zm30.64-45.26c-1.15,1.72-2.19,3.47-4.58,3.56-6.48-.72-15.06-18.52-11.44-24,5.43-8.21,10.9-16.39,16.57-24.44,4.5-6.39,10.31-9.86,17.78-4.89,7.17,4.77,7.49,11.25,2.95,18.11-7.02,10.6-14.2,21.09-21.28,31.65Zm-364.17,276.89c.09-10.84-5.15-15.71-15.82-15.66-22.58,.11-45.15,.06-67.73,.02-9.98-.02-15.36,4.53-15.34,14.83,.04,18.87,.06,37.74-.01,56.62-.04,10.24,5.11,15.04,15.16,15.03,11.08-.01,22.17,0,33.25,0,11.49,0,22.99-.1,34.48,.03,10.57,.12,16.08-4.56,16-15.49-.13-18.46-.15-36.92,0-55.38Zm-39.62,46.25c-3.17-.57-6.54-.09-9.81-.09-24.82,0-24.26-.02-25.03-24.65-.32-10.23,2.35-14.15,12.69-12.59,4.8,.73,9.81,.12,14.72,.12,22.32,0,21.51,.04,22.63,22.18,.63,12.38-2.75,17.26-15.2,15.01Z"/>
</svg>