<?xml version="1.0" encoding="UTF-8"?>
<svg id="Layer_1" data-name="Layer 1" xmlns="http://www.w3.org/2000/svg" viewBox="0 0 800 800">
  <defs>
    <style>
      .cls-1 {
        fill: none;
      }
    </style>
  </defs>
  <rect class="cls-1" width="800" height="800"/>
  <path d="M763.83,582.11c0-39.52-20.98-68.76-58.39-81.29-30.47-10.2-60.96-20.31-91.45-30.45-25.96-8.63-26.24-8.64-25.2-36.18,.16-4.3,3.15-10.19,6.67-12.39,34.55-21.62,56.18-52.38,65.57-91.65,1.93-8.09,5.52-11.69,13.04-14.51,29.16-10.95,44.76-43.39,32.51-71.26-5.89-13.41-7.42-26.58-8.27-40.44-.3-4.91-.48-9.85-1.27-14.69-12.31-75.93-71.09-135.93-146.74-149.91-73.89-13.65-149.74,20.61-187.94,86.31-9.91,17.05-16.15,36.24-24.36,55.1-1.96-1.42-5.01-3.46-7.85-5.74-26.59-21.29-53.26-42.47-79.62-64.04-7.77-6.36-14.15-6.63-22.03-.1-18.93,15.7-38.34,30.83-57.6,46.14-2.79,2.22-5.82,4.14-8.82,6.26-1.04-1.69-1.71-2.29-1.73-2.9-.16-5.29-.16-10.59-.27-15.88-.26-12.46-3.01-15.52-15.44-15.75-15.14-.28-30.28-.19-45.42-.06-14.92,.13-18.07,3.23-18.14,18.05-.12,24.22,.42,48.46-.39,72.65-.18,5.49-3.51,12.1-7.52,15.99-8.94,8.64-19.35,15.75-28.94,23.74-8.58,7.15-9.11,12.77-1.82,21.15,9.19,10.56,18.29,21.27,28.31,31.01,6,5.84,13.68,9.95,20.61,14.84,.94-.82,1.88-1.65,2.82-2.47,0,4.1,0,8.21,0,12.31,0,35.95-.09,71.91,.07,107.86,.05,12.38,3.47,16.34,15.16,16.37,86.69,.17,173.38,.17,260.06,0,11.93-.02,15.06-3.74,15.12-16.16,.12-23.46,0-46.93,.08-70.39,0-3.12,.5-6.24,.54-6.64,14.58,15.3,28.05,33.66,45.58,46.48,13.95,10.2,18.13,20.3,17.34,36.19-.46,9.17-3.11,13.35-11.66,16.08-31.69,10.1-63.41,20.21-94.66,31.59-14.36,5.23-28.72,11.92-41.06,20.76-9.33,6.68-15.47,17.82-22.95,26.88-50.04-83.28-144.57-72.37-192.03-33.42-55.94,45.91-66.19,128.25-22.15,185.39,23.92,31.04,55.8,48.67,94.6,52.17,44.31,4,81.26-12.4,113.51-43.88,0,13.21-.11,26.42,.03,39.62,.16,15.23,3.67,18.75,18.8,18.75,151.8,.03,303.6,.03,455.4,0,14.9,0,17.91-3.12,17.92-18,.03-54.5,.01-109,.01-163.49Zm-76.07-319.92c.38,13.87-7.06,25.12-21.37,30.93v-60.17c13.6,5.22,21,15.65,21.37,29.24ZM105.71,153.19h29.18c10.19,29.32-8.19,42.24-29.18,54.9v-54.9Zm-7,134.07c-3.21,2.58-6.48,5.09-10.59,8.3-7.42-8.1-14.43-15.75-22.09-24.12,25.48-20.54,50.12-40.46,74.82-60.31,30.07-24.16,60.33-48.08,90.17-72.52,6.08-4.98,9.98-5.46,16.3-.26,26.56,21.88,53.6,43.17,80.47,64.67,10.33,8.27,12.46,18.69,6.22,30.54-1.74,3.31-3.52,6.6-5.79,10.85-2.95-2-5.77-3.66-8.3-5.67-22.77-18.15-45.72-36.09-68.11-54.7-8.96-7.45-15.95-7.13-24.89,.14-42.53,34.62-85.43,68.77-128.21,103.08Zm168.42,148.68h-54.82v-98.54h54.82v98.54Zm94.4,.01h-69.42c-.23-3.95-.64-7.91-.65-11.88-.06-31.03,.02-62.06-.06-93.09-.03-14.25-3.82-18.14-18.23-18.25-22.33-.18-44.66-.17-66.99,0-14.94,.11-18.42,3.75-18.48,19.19-.11,30.27-.03,60.55-.04,90.82,0,4.07,0,8.15,0,13.03H118.08c-.23-4.06-.62-7.74-.63-11.42-.05-37.46-.33-74.93,.31-112.38,.09-5.46,3.28-12.57,7.44-16,35.06-28.85,70.82-56.85,105.99-85.56,6.29-5.13,10.12-5.05,16.28,.03,23.35,19.26,47.36,37.72,70.71,56.98,4.66,3.85,8.67,9.44,10.94,15.05,5.2,12.83,13.44,22.46,24.97,29.92,3.24,2.1,7.07,6.45,7.11,9.82,.5,37.43,.32,74.86,.32,113.75Zm8.72-143.47c-12.7-2.71-21.09-13.48-21.84-27.63-.82-15.39,6.87-26.85,21.84-31.75v59.38Zm-10.05-84.13c5.06-55,29.21-98.55,76.91-126.43,55.49-32.44,112.3-31.22,166.61,2.92,44.76,28.14,67.8,70.34,72.37,124.14-10.05-.96-17.79-3.23-24.99-2.1-19.32,3.04-30.64-5.13-39.53-21.72-8.38-15.64-12.92-15.75-27.96-6.34-21.03,13.16-42.03,26.38-65.14,40.89,0-10.98,.03-19.54,0-28.09-.09-18.13-6.13-22.19-23.37-15.68-21.58,8.14-42.94,16.95-64.82,24.2-10.88,3.61-22.64,4.95-34.12,6.27-11.49,1.31-23.13,1.31-35.96,1.95Zm33.63,90.71c-.26-22.66-.04-45.33-.04-69.78,37.59,2.58,66.83-20.26,101.87-27.8,0,11.87-.12,23.1,.03,34.32,.2,15.07,8.34,19.62,21.35,11.63,21.92-13.46,43.63-27.26,65.44-40.89,3.47-2.16,7.04-4.16,11.91-7.02,10.32,18.66,20.85,37.1,48.26,28.34-1.4,50.22,7.95,99.23-23.94,142.16-31.96,43.02-87.84,62.01-138.27,45.78-51.48-16.57-86-62.95-86.61-116.74Zm155.02,194.71c-15.12,12.62-37.23,14.93-54.16,5.34-24.54-13.9-26.32-36.52-22.78-62.57,30.61,9.06,60.68,10.22,90.59,.34,7.41,22.91,2.36,43.52-13.65,56.89Zm-268.02,166.44c-8.81-1.98-13.42,3.99-17.54,11.19-20.29,35.45-51.64,53.66-91.95,55.22-47.26,1.83-94.02-34.12-106.5-80.26-18.96-70.09,28.47-136.41,101.07-141.35,43.15-2.93,83.58,25.13,98.8,70.42,4.37,12.98,10.89,16.45,23.8,16.33,64.34-.63,128.69,.02,193.02-.74,12.96-.15,22.23,3.14,30.18,13.26,6.73,8.58,14.89,16.04,23.37,24.99-11.38,10.88-21.84,20.69-32.06,30.74-4.57,4.49-8.39,4.28-12.29-.61-1.18-1.47-2.58-2.76-3.9-4.12-15.19-15.69-16.02-15.76-34.4-1.31-4.67-5.36-9.45-11.08-14.47-16.57-6.99-7.63-14.22-7.52-21.6-.36-5.12,4.97-10.39,9.79-15.03,14.15-8.08-5.33-15.19-13.55-22.73-13.97-7-.39-14.48,7.54-24.77,13.58-2.14-2.71-5.25-7.34-9.07-11.31-5.97-6.21-12.55-6.27-19.01-.45-1.97,1.77-4.12,3.43-5.72,5.5-10.02,12.93-22.24,19.48-39.19,15.68Zm459.75,71.23c-.02,2.83-3.85,8.03-6.04,8.09-20.72,.62-41.46,.37-63.86,.37,0-28.88,0-55.69,0-82.51,0-3.4,1.21-7.84-.46-9.99-3.3-4.24-7.94-9.29-12.59-9.94-2.8-.39-9.26,6.69-9.58,10.77-1.21,15.04-.55,30.24-.58,45.38-.02,11.73-.44,23.49,.14,35.19,.41,8.32-2.22,11.48-10.86,11.2-17.02-.56-34.07-.16-51.1-.16-91.23,0-182.47,0-273.7,0-4.83,0-9.67,0-15.34,0v-55.82c18.25,4.67,25.54-11.65,38.85-21.18,12.97,20.51,27.59,21.89,40.07,3.23,10.26,5.13,19.52,13.76,27.24,12.55,8.67-1.36,15.95-11.6,26.01-19.73,2.51,3.41,4.84,7.39,7.92,10.64q15.16,16,32.16,3.43c.68,.11,1.6-.02,2.07,.39,22.23,19.07,31.87,18.82,53.06-1.52,10.92-10.48,21.66-21.16,32.8-31.41,7.68-7.07,8.2-13.75,.9-21.34-14.17-14.72-27.77-30.04-42.5-44.17-4.05-3.88-11.27-6.22-17.06-6.26-62.46-.4-124.92-.19-187.39-.15-4.11,0-8.23,0-14.1,0,5.27-20.48,15.82-35.45,34.25-42.16,37.99-13.84,76.5-26.29,115.02-38.64,2.61-.84,8.42,3.17,10.43,6.38,21.58,34.43,65.37,45.82,98.96,23.95,9.78-6.37,17.38-16.49,24.92-25.75,3.61-4.43,5.69-6.54,11.77-4.44,36.11,12.42,72.53,23.92,108.56,36.54,25.03,8.77,39.44,27.35,39.94,53.79,.97,51.08,.43,102.18,.09,153.27ZM462.64,340.01c9.44,2.46,18.4,3.72,26.46,7.12,19.58,8.26,38.52,8.21,58.08-.14,8.04-3.43,17.08-4.51,26.77-6.93-2.67,24.78-25.47,37.03-60.53,35.84-30.04-1.02-50.02-13.8-50.78-35.88Zm156.76-66.31c-9.78,.01-19.04,4.47-25.97-6.54-1.55-2.46-13.1-2.71-14.31-.64-6.44,11.03-15.79,7.5-24.64,7.39-3.82-15.92,9.01-31.93,27.21-34.46,19.47-2.71,36.12,11.83,37.7,34.24Zm-135.62-.07c-10.31,.54-19.78,3.93-26.92-6.98-1.45-2.22-12.93-1.84-14.32,.54-6.78,11.58-16.19,5.85-24.79,6.84-.61-18.29,12.69-32.24,30.58-33.35,18.84-1.16,32.9,11.44,35.46,32.95ZM125.12,565.09c-27.68-.07-49.56,21.97-49.51,49.86,.04,27.19,21.74,48.96,48.96,49.13,27.84,.16,50.17-21.58,50.41-49.08,.23-27.14-22.45-49.84-49.86-49.9Zm-.53,75.82c-14.13,.12-25.73-11.46-25.93-25.87-.2-14.9,11.35-26.64,26.31-26.73,14.71-.09,27.08,12.05,26.87,26.37-.21,14.26-12.51,26.09-27.25,26.22Z"/>
</svg>