<?xml version="1.0" encoding="UTF-8"?>
<svg id="Layer_1" data-name="Layer 1" xmlns="http://www.w3.org/2000/svg" viewBox="0 0 800 800">
  <defs>
    <style>
      .cls-1 {
        fill: none;
      }

      .cls-2 {
        fill: #010101;
      }
    </style>
  </defs>
  <rect class="cls-1" width="800" height="800"/>
  <path class="cls-2" d="M776.35,491.63c-20.94-64.88-42.04-129.71-63.14-194.54-7.76-23.84-25.14-32.65-49-24.97-10.89,3.51-21.84,6.87-32.57,10.84-7.51,2.78-10.29,1.66-10.1-7.17,.52-24.48-.14-48.98,.34-73.45,.19-9.8-2.72-17.1-9.79-24.08-42.15-41.61-84.04-83.48-125.67-125.61-6.65-6.73-13.45-9.58-22.89-9.55-81.35,.29-162.71,.16-244.07,.17-30.89,0-41.1,10.29-41.11,41.39-.01,62.8-.34,125.6,.29,188.39,.12,12.28-3.52,12.87-13.18,9.01-9.88-3.94-20.14-6.93-30.3-10.14-23.06-7.28-40.86,1.8-48.41,24.6-2.23,6.73-4.31,13.51-6.5,20.26-18.87,58.1-37.76,116.19-56.6,174.3-6.94,21.41-.18,40.66,19.24,46.91,31.06,10,61.09,23.71,93.89,27.83,2.64,.33,4.16,1.4,5.83,3.26q13.09,14.59,2.08,31.19c-3.5,5.26-7.18,10.4-10.54,15.75-17.39,27.65-4.22,60.26,27.55,67.28,6.07,1.34,7.74,3.35,8.59,9.56,4.71,34.17,37.05,50.05,67.01,32.68,6.78-3.93,7.64-.25,10.4,3.64,14.74,20.85,39.11,26.17,60.25,12.24,6.26-4.12,8.52-2.94,13.06,1.99,13.95,15.17,37.88,18.32,50.72,3.51,11.81-13.63,20.29-9.09,31.21-2.02,2.97,1.92,6.24,3.39,9.45,4.9,26.47,12.42,54.13-.99,60.12-29.72,1.2-5.77,2.53-7.42,8.61-7.75,26.88-1.45,43.85-17.55,47.04-44.01,.54-4.5,1.01-6.75,6.62-7.1,31.75-1.96,43.07-11.9,50.71-43.8,.94-3.93,1.76-5.85,6.62-5.99,35.87-1.08,50.89-14.91,54.88-51.02,13.43,7.67,25.83,5.75,38.67,1.29,21.62-7.5,43.5-14.23,65.27-21.31,23.95-7.79,33.09-24.98,25.41-48.75ZM484.09,86.48c31.85,31.88,62.37,62.44,93.13,93.23-2.18,2.78-6,1.06-9.19,1.08-24.88,.17-49.75,.07-74.63,.11-4.86,0-9.48,.62-9.42-6.86,.24-28.79,.1-57.58,.1-87.56Zm-268.52-19.63c39.08,.28,78.17,.12,117.26,.12,38.69,0,77.39,.35,116.07-.25,9.75-.15,11.8,3.01,11.68,12.07-.48,35.92-.25,71.86-.17,107.79,.04,15.44,2.57,17.96,17.96,17.99,36.32,.07,72.65,.23,108.97-.13,7.96-.08,11.1,1.73,10.88,10.4-.58,23.28-.31,46.59-.12,69.88,.05,5.66-.99,8.96-7.16,11.47-22.37,9.11-29,25.21-21.22,48.73,4.45,13.45,4.11,14.28-10.03,16.73-11.84,2.05-22.9,1.76-33.97-5.4-35.16-22.74-72.26-25.51-110.37-7.46-7.38,3.5-13.72,3.12-21.22-.22-11.85-5.29-24.27-9.41-36.63-13.44-32.18-10.5-60.77,.42-87.76,16.56-11.74,7.02-22.88,6.83-35.12,3.82-5.51-1.35-6.62-3.78-5.14-9.25,7.7-28.56,3.59-38.05-22.47-50.85-4.75-2.33-4.95-5.37-4.95-9.37,0-68.7,.09-137.4-.1-206.1-.03-9.79,4.12-13.15,13.6-13.08Zm-69.87,461.98c-4.34,13.38-7.64,15.35-20.63,11.24-22.92-7.25-45.68-14.99-68.63-22.13-10.35-3.22-13.73-8.69-10.2-19.45,21.23-64.69,42.17-129.48,63.03-194.3,2.99-9.28,8.19-12.93,17.76-9.8,24.34,7.97,48.71,15.88,73.1,23.68,6.51,2.08,9.95,6.01,9.44,13.51-5.89,18.29-11.9,37.03-17.96,55.75-15.29,47.17-30.6,94.34-45.91,141.51Zm24.68,131.81c-15.09,.39-25.1-15.37-17.63-29.03,5.63-10.29,12.44-20.04,19.6-29.35,6.34-8.25,17.22-9.64,25.39-4.55,8.78,5.46,12.44,16.33,7.19,25.54-6.01,10.54-13.12,20.49-20.16,30.41-3.34,4.7-8.63,6.64-14.4,6.99Zm78.83,10.21c-5.78,11.09-13.14,21.51-20.82,31.43-6.4,8.26-17.15,9.11-25.52,3.58-8.62-5.7-11.77-16.55-6.33-25.79,5.98-10.15,12.78-19.85,19.7-29.41,3.6-4.98,9.09-7.39,15.39-7.48,13.91,.09,24.12,15.14,17.59,27.67Zm68.84,19.26c-5.71,8.95-11.45,17.92-17.81,26.41-7.26,9.69-17.86,11.45-26.98,5.27-9.27-6.28-11.88-16.81-5.78-26.88,5.91-9.74,12.24-19.28,19.19-28.3,5.56-7.22,13.49-9.28,22.25-5.87,8.25,3.22,11.78,9.88,12.56,16.25,.33,6.17-1.34,9.86-3.42,13.12Zm36.35,40.35c-4.92,3.63-10.71,1.7-15.22-2.29-4.67-4.13-6.06-9.82-3.46-15.07,4.9-9.86,10.93-19.21,18.55-27.22,3.77-3.96,9.08-4.61,14.28-2.21,5.56,2.57,8.19,7.12,8.46,14.98-5.27,10.97-11.22,23.42-22.61,31.82Zm267.41-161.05c-3,16.45-20.17,23.56-36.3,15.23-24.55-12.68-48.86-25.83-73.27-38.78-2.79-1.48-5.58-2.96-8.34-4.49-7.91-4.37-16.74-9.2-22.26,1.91-5.41,10.89,3.78,15.26,11.67,19.42,18.15,9.59,36.25,19.27,54.42,28.83,10.17,5.35,15.29,13.67,14.04,25.08-1.89,17.27-19.21,26.03-35.61,17.79-18.34-9.22-36.31-19.14-54.44-28.77-1.4-.74-2.77-1.51-4.14-2.31-7.28-4.22-14.71-5.64-19.47,2.89-4.78,8.57,.33,13.94,7.89,17.87,11.21,5.82,22.35,11.79,33.42,17.88,14.42,7.93,19.29,20.77,12.89,33.43-6.59,13.03-20.36,16.63-35.45,8.84-16.84-8.69-33.65-17.46-50.17-26.72-7.93-4.45-14.75-4.92-21.32,1.87-2.52,9.21,1.3,14.88,9.6,18.92,11,5.34,21.73,11.24,32.43,17.16,11.38,6.3,15.07,15.85,10.2,25.4-5.1,10.03-15.34,12.43-27.44,6.38-3.18-1.59-6.13-3.74-9.44-4.91-10.26-3.65-13.6-8.53-10.95-20.89,5.65-26.37-21.01-49.43-46.63-40.93-10.18,3.38-13.52,.01-16.22-8.11-20.69-19.45-34.89-21.79-59.64-9.06-4.14,2.13-6.01,2.1-8.29-1.96-6.82-12.17-17.59-19.09-31.1-21.38-4.87-.82-6.04-2.65-6.79-7.39-4.5-28.47-19.65-41.16-48.25-41.22-13.97-.03-22.29-13.34-17.9-26.43,16.13-48.21,31.65-96.63,47.45-144.96,2.32-7.11,3.09-15.97,7.86-20.71,5.59-5.55,13.89,1.29,21.13,1.83,14.15,1.05,27.38-.11,39.55-8.64,9.06-6.35,19.35-10.74,29.99-13.86,22.59-6.61,38.32-4.54,61.51,7.63-1.38,4.44-5.86,4.97-9.07,6.82-32.75,18.91-61.8,42.33-87.56,70.02-6.25,6.72-8.14,13.15-3.76,21.25,3.56,6.59,6.64,13.49,10.69,19.76,15.02,23.25,32.52,29.45,58.85,20.87,34.89-11.37,69.77-22.82,104.5-34.66,7.91-2.7,15.06-2.57,22.94-.15,50.45,15.44,95.6,41.05,138.18,71.6,9.33,6.7,16.88,15.21,14.61,27.69Zm4.32-43.57c-30.77-21.55-61.72-41.94-95.63-57.31-11.49-5.21-23.38-9.51-34.94-14.57-23.59-10.33-46.27-12.49-71.39-1.79-28.92,12.33-59.68,20.35-89.66,30.2-17.42,5.72-35-4.83-38.31-22.63-.76-4.08,2.02-5.75,4.06-7.85,41.92-43.08,91.66-73.29,149.56-89.5,23.01-6.44,44.16,1.66,62.95,13.79,18.73,12.1,37.71,12.55,57.71,6.78,7.97-2.3,11.41-1.48,14.16,7.42,13,42.16,26.94,84.03,40.52,126,.83,2.56,2.57,4.98,.97,9.45Zm121.71-9.48c-25.83,8.49-51.65,17.02-77.62,25.07-9.61,2.98-13.17-3.62-15.72-11.55-15.43-47.96-31.02-95.86-46.58-143.77-5.11-15.72-10.31-31.42-15.42-47.14-4.47-13.74-2.7-17.5,10.79-21.95,22.83-7.53,45.76-14.74,68.56-22.36,9.85-3.29,15.65-.49,18.88,9.57,20.7,64.45,41.64,128.82,62.48,193.22,.85,2.61,1.5,5.29,2.03,7.17,.08,6.19-2.38,10.09-7.39,11.74Zm-118.63-189.12c7.62,1.06,12,5.49,11.56,12.62-.44,7.01-4.91,11.65-12.57,11-6.83-.58-10.71-4.78-10.63-11.7,.08-7.6,4.78-11.07,11.64-11.92Zm-447.44,13.15c-.26,7.88-4.29,12.33-11.66,12.24-7.28-.09-11.97-4.84-11.83-11.99,.13-6.47,4.41-11.03,11.31-11.27,7.46-.26,11.56,3.85,12.18,11.02Zm215.74-129.47c-4.41-1.84-7.23-3.62-7.1-9.17,.36-15.3,.12-30.62,.12-47.79,11.89,5.77,15.71,13.98,16.68,24.56,.69,7.43,5.1,12.98,13.19,12.2,8.19-.79,10.73-6.85,10.25-14.58-1.34-21.41-12.28-36.01-31.44-44.94-4.02-1.87-9.34-2.14-8.88-9.03,.44-6.65-4.05-10.32-10.12-10.94-6.91-.71-11.63,3.57-12.69,9.92-.9,5.35-2.89,7.96-7.88,10.1-20.92,8.97-32.47,25.46-32.36,47.96,.12,22.99,12.08,39.47,33.6,48.37,3,1.24,5.95,1.83,5.93,6.04-.09,16.33-.04,32.65-.04,50.8-11.03-6.41-15.08-14.48-16.02-24.28-.76-7.93-4.44-13.08-12.64-12.27-8.74,.86-11.8,7.31-10.87,15.36,2.17,18.92,11.28,33.59,28.49,42.22,6.14,3.08,11.38,5.26,12.45,13.41,.79,6.01,6.14,9.03,12.52,8.21,5.77-.74,9.71-4.12,9.58-10.11-.12-5.53,2.91-7.36,7.24-9.18,21.41-8.98,33.11-24.9,33.1-48.44,0-23.52-11.68-39.48-33.11-48.41Zm-31.77-7.39c-19.69-14.6-19.67-34.81,0-48.63v48.63Zm31.87,77.18c-1.48,1.13-3.54,2.63-5.05,2.37-3.15-.55-2.04-3.66-2.08-5.8-.12-6.25-.04-12.51-.04-18.76,0-4.3-.22-8.61,.07-12.89,.23-3.31-1.94-8.27,1.47-9.58,4.76-1.83,7.35,3.28,9.82,6.53,8.7,11.44,6.6,29.86-4.19,38.14Z"/>
</svg>