<?xml version="1.0" encoding="UTF-8"?>
<svg id="Layer_1" data-name="Layer 1" xmlns="http://www.w3.org/2000/svg" viewBox="0 0 800 800">
  <defs>
    <style>
      .cls-1 {
        fill: none;
      }

      .cls-2 {
        fill: #010101;
      }
    </style>
  </defs>
  <rect class="cls-1" width="800" height="800"/>
  <path class="cls-2" d="M107.67,739.49c0-39.5,0-78.8,0-118.1,0-12.96,9.46-19.16,21.4-14.14,4.87,2.05,2.85,6.22,2.86,9.43,.15,37.76,.4,75.53-.12,113.28-.13,9.02,2.05,11.6,11.3,11.4,29.63-.66,59.29,.35,88.91-.54,11.61-.35,9.53,6.25,9.71,12.94,.18,6.67,1.19,12.18-9.33,11.99-37.75-.69-75.52,.15-113.28-.4-47.92-.7-84.4-37.47-84.34-85.52,.03-26.23-3.58-52.8,4.38-78.61,14.78-47.89,54.64-78.64,104.9-79.17,36.51-.39,73.07-1.85,109.54,1.15,5.04,.42,7.28-1.85,9.81-5.24,23.4-31.34,55.27-45.03,93.8-44.89,28.83,.1,57.66,0,86.48,.02,38.04,.03,69.55,13.76,92.77,44.57,2.87,3.8,5.43,5.86,10.88,5.46,37.29-2.73,74.71-2.23,111.98-.84,61.13,2.27,105.97,49.85,106.07,110.92,.03,21.05,2.11,42.22-1.72,63.18-7.03,38.51-39.77,67.85-78.72,68.74-39.36,.9-78.77-.04-118.14,.56-12.82,.2-7.4-8.46-8.31-14.04-1.12-6.91,.13-10.98,9.25-10.77,29.22,.66,58.49-.44,87.69,.58,11.52,.4,13.01-3.58,12.86-13.6-.57-36.94,.26-73.91-.52-110.84-.24-11.19,5.66-9.8,12.68-10.03,7.64-.26,12.48-.21,12.28,10.43-.74,40.57-.3,81.16-.3,122.63,23.53-5.77,40.68-19.34,45.44-41.67,6.43-30.15,7.32-61.63-.99-91.61-10.19-36.78-42.28-59.7-80.81-60.43-31.25-.59-62.53-.04-93.79-.21-7.06-.04-10.6,.72-7.71,9.55,2.6,7.94,3.55,16.72,3.62,25.15,.36,41.41,.55,82.83,.07,124.24-.39,33.77-25.57,59-59.13,60.24-9.73,.36-19.54-.47-29.21,.35-8.19,.7-9.13-2.89-9.1-9.79,.23-58.47,.46-116.94-.16-175.4-.12-11.15,5.62-9.83,12.65-10.05,7.61-.23,12.44-.24,12.3,10.41-.67,49.93-.08,99.88-.5,149.82-.07,8.55,2.18,10.98,10.73,10.63,23.12-.95,37.98-15.07,38.13-38.32,.26-39.38,.24-78.77,.04-118.16-.25-48.79-35.8-85.88-84.5-87.16-32.87-.87-65.79-.9-98.66,.02-49.09,1.38-84.42,37.96-84.76,86.85-.28,39.38-.21,78.77,0,118.16,.13,23.39,14.78,37.42,37.83,38.66,9.74,.52,11.09-3.03,11.03-11.59-.38-49.13,.21-98.27-.49-147.39-.16-11.11,4.02-11.88,13.2-12.2,10.2-.36,11.72,3.42,11.66,12.43-.38,57.25-.41,114.5,.03,171.75,.07,9.04-2.05,12.17-11.32,11.3-14.84-1.4-30.05,1.93-44.64-3.22-25.21-8.9-41.34-30.36-41.58-57.04-.38-41.82-.17-83.64,.02-125.46,.04-8.9,1.26-17.78,4.24-26.28,1.86-5.31,.03-7.5-5.5-7.46-34.91,.28-69.99-1.65-104.68,1.21-46.06,3.81-76.66,40.12-76.94,86.47-.1,15.83-.3,31.68,.08,47.5,.7,28.86,19.35,51.25,48.63,58.11Zm-36.44-339.16c.48,15.57,7.83,26.98,22.23,33.39,4.52,2.01,12.05,5.76,13.3,.06,1.47-6.69,5.6-16.72-2.9-21.86-7.28-4.41-8.44-10.01-8.41-17.23,.1-20.71-.03-41.42,.06-62.13,.06-14.13,3.74-17.72,18.23-17.82,17.05-.11,34.12-.29,51.16,.11,6.33,.15,9.3-1.6,10.87-8.11,5.25-21.77,13.72-42.37,25.66-61.35,3.46-5.5,3.26-8.78-1.57-13.33-12.7-11.96-24.85-24.5-37.13-36.9-9.67-9.77-9.78-14.98-.36-24.5,14.84-15.01,29.75-29.95,44.77-44.77,9.42-9.3,14.35-9.38,23.65-.31,11.92,11.62,23.93,23.18,35.26,35.36,5.79,6.22,10.03,8.09,18.11,2.84,18.1-11.76,38.2-19.64,59.25-24.4,6.9-1.56,8.12-4.63,8.02-10.73-.3-17.86,.1-35.74-.18-53.6-.18-11.42,5.36-16.25,16.34-16.21,21.52,.09,43.04-.12,64.56,.08,12.68,.12,16.51,4.15,16.6,16.99,.13,17.87,.21,35.74-.07,53.6-.09,5.75,1.35,8.37,7.58,9.8,21.85,5,42.49,13.48,61.48,25.42,5.93,3.73,9.41,3.65,14.31-1.57,11.95-12.72,24.5-24.88,36.95-37.11,9.94-9.77,14.29-9.7,24.43,.35,14.71,14.56,29.34,29.21,43.9,43.92,9.97,10.07,9.84,14.94-.5,25.38-11.99,12.11-23.86,24.36-36.19,36.13-4.51,4.31-5.84,7.48-2.13,13.27,12.09,18.89,20.57,39.51,25.76,61.29,1.73,7.25,5.17,8.62,11.81,8.46,17.45-.41,34.92-.1,52.38-.15,10.18-.03,16.21,4.12,16.16,15.11-.09,22.74-.07,45.48,0,68.22,.01,4.28-.6,9.42-4.26,10.76-9.97,3.66-7.23,11.55-8.08,18.73-1.16,9.82,4.08,9.74,10.78,7.86,15.04-4.21,25.6-18.58,25.82-35.97,.29-23.14,.21-46.29,.05-69.44-.17-24.42-14.93-39.14-39.59-39.6-11.77-.22-23.56-.31-35.32,.07-6.06,.19-9.38-1.33-11.52-7.67-3.88-11.47-8.45-22.8-13.97-33.56-3.15-6.14-1.65-9.38,2.7-13.51,9.12-8.67,18.04-17.57,26.67-26.72,15.1-16.01,15.33-36.55,.2-52.24-16.62-17.23-33.51-34.22-50.77-50.81-15.76-15.16-36.44-15.09-52.41-.21-9.5,8.85-18.67,18.08-27.6,27.5-3.84,4.05-6.78,5.45-12.21,2.31-10.88-6.28-22.59-11-34.67-14.53-5.45-1.59-7.67-4.19-7.45-10.15,.48-12.57,.3-25.17,.11-37.76-.35-22.51-14.59-37.82-36.97-38.42-23.94-.65-47.92-.61-71.87-.02-22.45,.55-36.9,15.76-37.28,38.13-.22,12.99-.23,25.99,.06,38.98,.1,4.73-1.19,7.21-5.97,8.69-12.79,3.94-25.18,9.01-36.93,15.45-4.17,2.29-6.91,1.99-10.31-1.61-8.91-9.44-18.11-18.64-27.54-27.57-17.02-16.12-37.58-16.26-54.19-.13-16.88,16.4-33.55,33.03-49.9,49.95-15.28,15.81-15.27,36.24-.23,52.21,8.9,9.46,18.16,18.6,27.54,27.58,4.1,3.93,4.91,7.09,2.17,12.6-5.39,10.83-10.03,22.12-14.02,33.55-2.11,6.05-4.99,8.23-11.31,7.99-12.17-.45-24.37-.38-36.54-.07-23.85,.61-38.4,15.47-38.68,39.28-.13,10.96-.02,21.93,0,32.89,.01,12.59-.29,25.19,.09,37.76ZM378.4,194.62c-80.29,9.46-144.99,78.51-148.63,158.62-.23,4.99-1.94,12.07,6.86,9.96,6.17-1.48,17.28,7.13,17.63-8.38,.31-13.77,3.3-27.29,8.13-40.31,24.47-65.96,88.08-104.58,157.51-95.58,68.04,8.81,120.46,64.09,125.7,134.34,1.23,16.55,11.81,9.14,18.74,9.89,10.48,1.12,6.05-7.65,5.72-11.99-6.85-89.36-80.81-158.13-173.38-158.27-3.73,.35-11.02,.87-18.27,1.72Zm-19.5,546.32c-10.99-.45-7.43,7.27-7.37,12.35,.05,5-3.8,12.58,7.27,12.38,27.47-.48,54.97-.52,82.44,.03,9.8,.2,7.99-6.02,7.37-11.08-.63-5.14,4.81-14-7.27-13.64-13.32,.4-26.67,.09-40.01,.09-14.15,0-28.31,.44-42.43-.14Zm114.21-353.93c.44,40.72-31.95,73.63-72.63,73.82-40.79,.18-73.53-32.33-73.47-72.97,.06-39.82,32.77-72.71,72.64-73.06,39.65-.34,73.03,32.48,73.46,72.22Zm-24.36,1.14c.08-26.72-21.91-48.9-48.57-48.99-26.55-.09-48.76,22.09-48.81,48.76-.05,26.95,21.5,48.48,48.57,48.52,27.08,.05,48.72-21.37,48.8-48.29Zm-182.74,48.37c.05,40.66-32.67,73.2-73.42,73.03-40.71-.16-73.11-33.04-72.68-73.76,.42-39.73,33.79-72.58,73.42-72.27,39.89,.31,72.64,33.19,72.68,73Zm-24.37,.21c0-26.72-22.09-48.86-48.72-48.83-26.6,.03-48.69,22.23-48.65,48.91,.04,26.95,21.63,48.38,48.73,48.37,27.06-.02,48.65-21.51,48.65-48.45Zm438.58-.93c.41,40.71-32.01,73.6-72.69,73.76-40.79,.16-73.5-32.38-73.41-73.03,.09-39.81,32.84-72.7,72.7-73,39.67-.29,73,32.53,73.4,72.27Zm-24.36,.94c0-26.72-22.09-48.86-48.71-48.84-26.6,.02-48.69,22.23-48.66,48.91,.03,26.95,21.63,48.39,48.72,48.37,27.06-.01,48.65-21.51,48.65-48.44Z"/>
</svg>