<?xml version="1.0" encoding="UTF-8"?>
<svg id="Layer_1" data-name="Layer 1" xmlns="http://www.w3.org/2000/svg" viewBox="0 0 800 800">
  <defs>
    <style>
      .cls-1 {
        fill: none;
      }

      .cls-2 {
        fill: #010101;
      }
    </style>
  </defs>
  <rect class="cls-1" width="800" height="800"/>
  <path class="cls-2" d="M737.07,698.86c-7.18-.19-9.39-2.01-9.22-9.26,.47-20.3,.34-40.61,.1-60.92-.2-17.22-11.2-28.54-28.4-29.34-8.58-.4-17.24-.71-25.77,.07-9.18,.83-11.73-2.16-11.67-11.49,.41-69.12,.22-138.24,.22-207.36s.24-138.24-.26-207.36c-.07-10.28,2.31-14.09,12.83-12.78,12.74,1.58,23.48-1.38,27.01-16.02,1.08-4.46,4.96-2.94,7.78-2.97,14.84-.14,29.69,.01,44.54-.09,17.87-.12,24.95-7.11,25.03-24.63,.07-16.01,.08-32.02,0-48.03-.09-16.08-7.42-23.88-23.36-24.26-14.45-.34-28.91-.31-43.36,.02-6.37,.14-10.61-.46-12.77-8.02-2.27-7.92-9.62-10.93-17.67-10.94-45.71-.06-91.42-.06-137.13,0-7.58,.01-14.85,2.7-16.95,10.11-2.43,8.62-7.65,8.84-14.68,8.83-80.87-.14-161.74-.09-242.61-.09-17.19,0-34.38-.23-51.57,.07-15.97,.28-23.05,7.37-23.2,22.89-.17,17.18-.17,34.37,0,51.55,.16,15.35,6.89,22.2,22.13,22.45,14.06,.24,28.13,.3,42.19-.04,6.1-.15,7.55,2.01,8.18,8.01,2.05,19.72-1.22,36.79-18.24,49.57-6.16,4.62-11.17,10.92-16.18,16.89-4.09,4.87-8.62,6.9-15.11,6.97-12.02,.14-18.19,6.33-18.41,17.98-.32,16.79-.36,33.59,.03,50.37,.26,10.93,6.76,17.48,17.83,17.55,40.63,.27,81.26,.26,121.89,0,11.16-.07,17.67-6.3,18-17.33,.52-17.16,.41-34.36,.04-51.53-.23-10.62-6.44-17.13-16.96-16.9-8.06,.17-13.14-3.06-17.94-8.67-4.56-5.33-9.05-10.99-14.57-15.2-16.78-12.81-20.62-29.76-18.28-49.58,.68-5.74,1.79-8.15,8.09-8.14,73.06,.19,146.11,.11,219.17,.16,2.92,0,6.88-1.1,7.83,3.12,3.38,14.97,14.37,17.36,26.95,15.88,10.74-1.27,12.81,2.99,12.78,13.04-.34,131.6-.17,263.21-.33,394.81-.01,9.98,4.43,22.78-2.26,29.21-6.12,5.87-18.67,1.48-28.38,1.73-20.63,.54-31.5,11.35-31.63,32.2-.12,19.13-.37,38.28,.14,57.4,.2,7.58-1.76,10.58-9.7,9.98-13.43-1.02-24.34,4.38-32.72,14.86-7.03,8.78-7.97,19.17-8,29.88-.08,28.59,3.17,32,31.27,32,79.7,0,159.4,0,239.1,0,11.72,0,23.44,.05,35.16-.07,7.97-.08,14.55-2.91,18.22-10.48,14.55-30.06-6.1-65.23-39.2-66.12Zm14.65-632.09c3.46-.13,4.64,2.08,4.62,5.26-.04,9.52-.01,19.04-.01,28.57-1.01,.43-2.01,.86-3.02,1.29-10.27-11.44-20.55-22.89-30.91-34.43,8.93-2.02,19.19-.31,29.32-.69Zm-49.91,46.02c.02-9.25,0-18.5,0-28.75,11.5,12.71,22.16,24.49,31.79,35.13-6.64,1.22-17.03-.12-27.35,.1-4.54,.1-4.45-3.26-4.45-6.48Zm-478.81,6.52c-4.35,0-4.94-2.74-4.92-6.21,.05-13.25,.02-26.51,.02-39.76,0-2.36-.17-5.09,2.27-6.16,2.3-1.01,4.56,.27,6.25,2.1,15.54,16.83,31.07,33.68,46.15,50.02-14.94,0-32.35-.02-49.75,.01Zm105.06,125.18c6.71-.17,8.93,2.11,8.55,8.69-.47,8.15-.6,16.38,.03,24.51,.59,7.62-2.74,9-9.5,8.94-31.93-.28-63.86-.32-95.79,.02-7.2,.08-9.17-2.19-9.3-9.3-.6-32.73-.82-32.72,31.26-32.72,8.96,0,17.91,0,26.87,0,15.97,0,31.94,.28,47.89-.13Zm-27.65-22.51h-41.8c6.89-7.39,12.32-13.16,17.67-18.99,2.45-2.67,4.49-2.08,6.71,.34,5.18,5.65,10.46,11.21,17.42,18.64Zm10.72-112.37c-2.41,2.32-4.86,6.19-8.6,2.23-14.01-14.83-27.84-29.83-41.37-44.38h90.95c-3.06,7.64-9.97,11.57-15.09,16.87-8.38,8.67-17.2,16.91-25.89,25.28Zm27.04,8.97c13.02-14.04,26.5-28.54,39.92-43.09,2.78-3.01,5.24-4.16,8.56-.57,13.68,14.8,27.49,29.48,40.74,43.66h-89.23Zm117.73-7.21c-13.78-14.68-27.57-29.35-41.33-44h89.97c-13.73,14.64-27.69,29.53-41.67,44.4-2.43,2.59-4.77,1.94-6.97-.4Zm38.33,7.46c9.07-10.16,19.67-22.05,31.23-35,.21,2.71,.37,4.12,.41,5.53,.87,32.42-2.52,35.13-31.64,29.47Zm61.95,19.54c-6.66,.12-8.67-2.11-8.57-8.72,.35-24.55,.35-49.11,0-73.66-.09-6.73,2.15-8.62,8.71-8.57,38.21,.26,76.43,.26,114.64,0,6.67-.05,8.73,2.1,8.65,8.69-.31,24.55-.33,49.11,.01,73.66,.1,6.8-2.33,8.7-8.8,8.6-19.1-.31-38.21-.11-57.32-.11-19.11,0-38.22-.23-57.32,.12Zm75.85,91.7c-14.68,13.76-29.33,27.54-44,41.31v-90.31c14.76,13.96,29.61,27.98,44.44,42.03,2.58,2.44,1.93,4.74-.44,6.96Zm7.53,27.23v91.81c-15.24-14.58-30.23-28.91-45.22-43.25-2.32-2.22-1.32-4.18,.54-5.96,14.79-14.13,29.61-28.24,44.67-42.6Zm-7.07,119.45c2.65,2.5,1.82,4.78-.48,6.95-14.66,13.85-29.31,27.69-43.98,41.55v-90.38c14.65,13.79,29.56,27.83,44.46,41.87Zm6.97,35.32v90c-14.75-13.92-29.7-28-44.63-42.1-2.61-2.47-1.87-4.71,.47-6.89,14.8-13.74,29.59-27.49,44.16-41.02Zm-20.53,104.48q16.69,16.95,.42,33.74c-9.51,9.79-19.09,19.52-28.66,29.26-.25,.26-.7,.32-2.71,1.18v-94.85c10.97,10.85,21.07,20.64,30.94,30.67Zm21.3,48.72c0,8.6-.09,18.16,.04,27.71,.06,4.32-1.63,6.43-6.1,6.38-9.49-.09-18.99-.03-30.82-.03,13.42-12.4,24.89-22.99,36.88-34.07Zm-.64-372.35c-10.44-9.84-21.86-20.62-33.76-31.84,1.24-.21,2.33-.54,3.43-.57,33.89-1,34.29-.53,30.33,32.41Zm116.51,555.86c-1.41,6.93-6.39,4.53-10.06,4.54-43.74,.16-87.48,.1-131.22,.11-41.79,0-83.57,.19-125.36-.26-4.9-.05-13.2,4.94-14.63-5.52-2.04-14.91,2.38-23.97,13.08-26.22,3.77-.79,7.76-.64,11.66-.65,28.12-.05,56.24-.05,84.35-.01,5.67,0,11.13-.56,14.25-6.09,4.42-7.82-1.21-15.7-11.83-15.89-17.18-.32-34.37-.41-51.54,.04-7.1,.19-9.53-1.89-9.36-9.17,.45-19.12,.42-38.26,.03-57.38-.16-8.06,2.6-10.94,10.83-10.9,52.72,.28,105.44,.26,158.16,.02,8-.04,11.33,2.58,11.19,10.77-.32,19.51-.28,39.04,0,58.55,.09,6.19-2.23,8.14-8.22,8.05-17.18-.27-34.37-.02-51.55-.12-7.74-.04-14.58,1.26-14.66,10.85-.08,9.51,6.74,11.24,14.45,11.25,29.29,.02,58.58-.06,87.87,.04,18.37,.06,26.18,10.16,22.55,27.99Zm-457.4-105.04c-.8-6.56-4.46-10.84-11.5-10.86-6.67-.02-9.73,4.34-10.75,10.27-.52,3.04-.35,6.22-.35,9.34-.02,30.07-.37,60.14,.21,90.2,.17,9.02-2.67,10.97-11.24,10.93-65.24-.35-130.48-.51-195.71,.11-11.35,.11-13.18-3.63-13.16-13.8,.3-146.43,.21-292.86,.21-439.3,0-2.34,.09-4.69,0-7.03-.18-4.38,1.64-6.26,6.22-6.24,28.52,.12,57.04,.16,85.55-.02,5.84-.04,7.53,2.58,7.15,7.86-.25,3.5-.38,7.07,.02,10.53,.88,7.41-2.45,9.49-9.43,9.16-9.35-.44-18.75-.27-28.11,.16-6.27,.29-10.45,4.17-10.51,10.44-.07,6.73,3.86,10.82,10.93,11.16,2.34,.11,4.69,.08,7.03,.1,31.85,.17,31.67,.16,30.18,31.74-.29,6.15-2.21,8.26-8.22,8.01-8.19-.33-16.42-.29-24.6,.13-6.58,.34-11.29,3.61-11.3,10.86,0,7.75,4.68,11.14,12.01,11.26,7.42,.12,14.89,.54,22.25-.1,7.95-.69,9.96,2.45,9.85,10-.39,26.16-.17,52.32-.14,78.49,.01,17.97,1.92,19.82,20.39,19.83,30.08,.01,60.16,.3,90.24-.19,8.42-.14,10.51,2.62,10.34,10.63-.48,23.42-.18,46.85-.16,70.28,0,8.09,1.75,15.81,11.64,15.48,9.5-.32,11.26-7.66,11.2-15.97-.19-27.72,0-55.45-.1-83.17-.05-14.11-5.54-19.4-20.08-19.57-10.94-.13-21.89-.29-32.81,.08-5.74,.19-8.44-1.01-8.22-7.56,.47-13.65,.39-27.34,.02-40.99-.16-5.75,1.85-7.29,7.37-7.16,13.66,.32,27.35,.32,41.01-.06,6.99-.2,12.52-4.04,12.37-11.4-.15-7.17-5.23-10.96-12.6-10.99-6.64-.03-13.28-.03-19.92-.03-27.75,0-27.85,0-28.05-27.36-.06-7.99-.67-15.72-10.87-15.97-10.72-.26-10.65,7.83-10.71,15.65-.2,27.96-.27,27.57-28.1,27.91-8.81,.11-11.2-2.32-11.08-11.11,.5-36.7,.25-73.41,.19-110.11-.02-15.96-4.09-20.03-20.11-20.07-32.81-.07-65.63-.03-98.44-.02-20.09,0-24.95,4.78-24.96,24.63-.02,76.93,0,153.85,0,230.78,0,77.32-.03,154.63,.02,231.95,.01,16.93,5.72,22.88,22.18,22.9,73.44,.07,146.88,.07,220.33,0,16.22-.02,22.42-6.4,22.46-22.84,.08-32.02,.03-64.04,.02-96.06,0-4.3,.35-8.64-.16-12.87Zm-121.52-204.87c-.55-8.6,2.92-10.14,10.65-10.13,28.56,.07,28.57-.19,28.57,28.25s0,27.37-28.06,27.66c-8.49,.09-11.83-1.78-11.18-10.87,.83-11.59,.76-23.31,.02-34.91Zm72.74,118.17c-.31-11.25-6.27-17.54-17.52-17.61-44.08-.27-88.16-.27-132.24,0-11.52,.07-17,5.95-17.28,17.56-.34,13.64-.29,27.29-.08,40.94,.22,14.27,5.5,19.27,20.24,19.35,21.06,.11,42.13,.03,63.19,.03,21.45,0,42.91,.13,64.36-.05,13.5-.12,19.16-5.76,19.39-19.27,.24-13.64,.3-27.3-.07-40.94Zm-94.45,29.83c-.25,6.16-2.23,8.28-8.18,7.96-6.19-.34-12.42-.08-18.63-.07-2.33,0-4.66,0-6.99,0-17.38,0-16.63-.04-17.64-17.91-.67-11.86,2.41-17.23,14.94-15.12,4.15,.7,8.52,.11,12.79,.11,24.94,0,24.71,0,23.71,25.04Zm46.26,7.88h-1.16c-25.73,0-25.56,.01-23.35-26.28,.43-5.08,2.17-6.74,6.98-6.68,12.41,.16,24.83,.14,37.24,0,4.69-.05,7.56,1.3,6.95,6.6-.04,.38-.02,.78,0,1.16q1.42,25.2-26.65,25.2Zm48.21,73.11c-.29-11.43-5.94-17.77-17.23-17.86-44.45-.33-88.9-.33-133.34,.01-10.42,.08-16.55,6.05-16.56,17.1-.01,13.64-.21,27.28-.01,40.92,.21,14.68,5.03,19.46,19.91,19.58,21.05,.18,42.11,.05,63.16,.04,21.44,0,42.89,.16,64.33-.06,14.33-.14,19.59-5.56,19.8-19.99,.19-13.25,.27-26.51-.07-39.75Zm-103.42,37.92c-5.8-.37-11.65-.08-17.48-.08-27.19,0-27.03,.01-24.89-27.07,.39-4.99,1.9-6.8,6.86-6.71,12.43,.22,24.87,.23,37.3,0,5.84-.1,7.32,2.72,7.07,7.92-.28,5.81-.43,11.68,.03,17.47,.56,6.9-2.55,8.87-8.89,8.46Zm55.53-.08c-26.31,0-26.15,0-24.83-26.11,.27-5.27,1.44-7.82,7.21-7.69,12.43,.27,24.86,.18,37.29,.04,4.96-.06,7.22,1.95,6.67,6.94-.04,.38-.02,.78,0,1.16q1.3,25.66-26.34,25.66Z"/>
</svg>