<?xml version="1.0" encoding="UTF-8"?>
<svg id="Layer_1" data-name="Layer 1" xmlns="http://www.w3.org/2000/svg" viewBox="0 0 800 800">
  <defs>
    <style>
      .cls-1 {
        fill: none;
      }

      .cls-2 {
        fill: #010101;
      }
    </style>
  </defs>
  <rect class="cls-1" width="800" height="800"/>
  <path class="cls-2" d="M748.39,741.2c-35.57,.5-71.15-.04-106.71,.39-7.75,.09-10.44-2.22-11.09-9.89-2.13-25.24-4.81-50.44-7.56-75.62-.73-6.68,.8-9.54,8.14-11.52,33.2-8.98,58.88-39.18,59.58-72.08,1.09-50.71,.38-101.46,.64-152.19,.03-5.36-1.52-7.37-7.05-7.13-9.07,.39-18.21-.49-27.23,.27-9.43,.8-13.76-1.3-12.88-12.05,.87-10.61,.02-22.87-8.71-29.5-13.57-10.31-9.11-17.45-1.23-28.83,13.73-19.83,11.32-43.41,9.15-66-2.8-29.14-19.03-49.07-46.27-58.8-28.98-10.35-54.36-2.51-75.27,19.44-19.64,20.61-19.51,46.51-17.96,72.55,1.61,27.15,14.44,47.26,38.45,59.97,5.08,2.69,7.06,4.45,1.97,9.41-17.89,17.42-35.48,35.14-53.04,52.9-2.89,2.92-5.85,4.28-9.94,4.25-17.41-.14-34.82-.2-52.22,.02-5.36,.07-7.61-1.38-8.95-7.19-4.14-17.96-15.3-29.88-33.39-34.94-11.25-3.14-22.38-6.72-33.62-9.91-15.69-4.46-19.29-17.22-8.17-29.89,4.53-5.16,8.41-10.72,11.3-16.89,9.23-19.7,7.78-40.65,6.02-61.34-2.6-30.54-25.44-54.81-56.48-61.39-27.87-5.91-58.98,8.31-73.52,33.62-17.76,30.9-13.36,79.28,9.78,107.57,8.57,10.47,4.25,24.44-8.51,28.04-11.97,3.38-23.94,6.79-35.78,10.59-21.45,6.9-33.35,23.06-33.76,45.67-.22,11.73-.33,23.48,.05,35.21,.19,5.97-1.79,7.95-7.76,7.71-10.58-.42-21.21,.25-31.78-.25-6.65-.31-8.32,2.16-8.17,8.46,.39,16.27,.8,32.6-.11,48.83-.59,10.58,1.86,15.85,13.31,13.64,8.42-1.62,10.82,1.78,10.76,10.37-.4,55.28-.43,110.56,.02,165.83,.08,9.37-3.11,11.23-11.66,11.07-27.62-.49-55.26,.32-82.87-.44-10.31-.28-11.27,3.85-11.43,12.48-.17,9.24,2.17,11.99,11.78,11.96,117.32-.35,234.63-.23,351.95-.23,116.94,0,233.88-.09,350.81,.17,8.96,.02,13.15-.7,13.05-11.78-.09-11.13-3.97-12.69-13.61-12.55Zm-220.6-430.08c-.68-10.16-.67-20.44,.01-30.61,1.64-24.44,22.46-43.04,47.12-42.7,24.65,.34,44.39,19.55,45.45,44.36,.21,4.91,.03,9.83,.03,16.19,1.75,18.18-2.45,35.58-19.57,47.53-14.46,10.09-30.15,11.6-46.1,4.15-16.33-7.63-25.74-20.78-26.95-38.92Zm-36.15,254.16c-.13-5.38-1.96-11.58,7.69-11.19,8.93,.36,20.73,4.07,26.21-1.52,5.96-6.09,2.74-18.16,1.62-27.26-2.23-18.26,4.22-31.14,17.85-43.19,19.24-17.01,36.7-36.04,54.85-54.28,7.09-7.13,14.84-13.74,20.57-22.58,0,46.18,.26,92.36-.13,138.54-.15,18.61-14.66,32.94-33.31,33.25-29.13,.47-58.28-.14-87.41,.39-10.51,.19-7.82-6.63-7.95-12.15Zm-4.19-104.57c6.54,.06,11.2-1.75,15.85-6.5,21.95-22.43,44.29-44.47,66.5-66.65,1.87-1.87,3.62-3.92,5.71-5.5,5.79-4.4,12.03-5.08,17.51,.07,5.96,5.6,5.72,12.29,.42,18.16-6.57,7.29-13.68,14.11-20.63,21.07-18.7,18.73-37.57,37.3-56.07,56.23-4.33,4.43-8.75,6.17-14.87,6.06-18.52-.34-37.05-.12-55.58-.13-18.53,0-37.06-.09-55.58,.04-8.04,.05-14.98-1.97-15.25-11.2-.29-10.18,7.16-11.85,15.57-11.82,32.14,.1,64.28-.12,96.42,.17Zm-238.94-190.11c6.11-21.96,27.93-35.37,50.83-32.4,21.99,2.85,38.89,21.44,39.85,43.99,.21,4.91,.03,9.84,.03,15.71,1.57,17.73-2.21,34.47-17.84,46.68-25.38,19.82-63.53,8.33-72.71-22.52-5.02-16.86-4.88-34.48-.16-51.45Zm67.79,109.99c.12,12.49-16.33,23.73-28.72,20.1-6.37-1.86-11.26-5.83-15.62-10.72-3.41-3.83-4.13-8.65-2.61-12.73,2.15-5.76,6.38-.52,9.57-.28,10.18,.76,20.47,1.86,30.34-.92,5.77-1.63,7.8-1.04,7.03,4.55Zm-129.11,93.77c.63-10.54-.09-21.16,.23-31.74,.43-14.14,5.06-20.77,18.38-25.2,13.92-4.62,28.13-8.34,42.14-12.67,4.07-1.26,6.17,.9,8.77,3.32,24.8,23.12,47.32,23.09,72.45-.12,2.64-2.43,4.76-4.4,8.8-3.14,14.37,4.47,28.83,8.67,43.27,12.91,3.71,1.09,7.05,2.77,9.65,5.64,2.79,3.09,6.29,6.57,5.22,10.79-1.29,5.08-6.41,2.25-9.72,2.59-23.37,2.35-36.35,16.95-34.31,40.18,.55,6.26-1.62,6.71-6.6,6.68-25.31-.17-50.62-.08-75.93-.08-24.18,0-48.36-.24-72.53,.15-7.12,.11-10.3-1.46-9.83-9.3Zm-47.07,44.68c.07-8.85,1.64-12.37,11.66-12.34,113.8,.37,227.61,.4,341.41-.04,10.49-.04,10.55,4.64,10.43,12.18-.12,7.21,.64,12.56-10.21,12.44-57.08-.62-114.18-.29-171.27-.29-56.71,0-113.43-.24-170.13,.23-9.75,.08-11.95-3.03-11.88-12.17Zm78.67,221.67c3.3-6.77,6.23-12.4,8.79-18.18,1.93-4.36,5.42-4.52,9.37-4.51,52.98,.05,105.95,.08,158.93-.06,4.77-.01,7.76,1.18,9.58,5.84,2.16,5.54,6.29,10.27,7.04,16.92H218.79Zm15.11-139.37c74.53-.43,149.07-.06,223.61-.46,9.16-.05,11.15,2.63,11.05,11.34-.46,39.74-.41,79.49-.02,119.24,.08,7.93-2.28,9.63-10.05,10.31-13.08,1.15-21.8-2.26-25.31-15.56-6.92-26.24-23.15-33.58-50.36-32.16-52.45,2.72-105.14,.96-157.73,.61-7.51-.05-11.64,2.03-14.6,9-4.12,9.71-9.38,18.94-14.14,28.37-3.94,7.8-22.76,13.28-30.01,8.81-2.9-1.79-2.11-4.59-2.11-7.08-.05-41.64,.07-83.28-.15-124.92-.03-5.88,1.66-8.33,7.66-7.8,4.13,.37,8.32,.07,12.48,.07,15.43,0,17.66-2.93,15.03-18.68-.62-3.7-1.97-5.3-5.74-5.2-6.05,.16-12.17-.5-18.15,.16-8.78,.97-11.32-1.93-11.59-11.06-.3-10.36,2.91-12.38,12.67-12.27,46.53,.54,93.07,.24,139.61,.24s94.59,.34,141.88-.27c9.96-.13,10.6,3.86,10.67,11.79,.07,8.18-1.11,11.76-10.84,11.7-74.53-.46-149.07-.08-223.61-.47-9.51-.05-12.07,2.65-11.99,11.98,.08,8.95,1.78,12.38,11.73,12.32Zm321.12,140.07c-18.87-.04-37.73-.15-56.6,.06-5.69,.06-6.99-2.58-6.91-7.63,.21-13.21,.07-26.42,.07-39.64,0-12.46,.31-24.93-.13-37.37-.24-6.68,1.5-9.47,8.76-9.22,14.7,.51,29.43,.27,44.14,.08,4.87-.06,7.48,.94,7.99,6.65,2.39,27.03,5.11,54.04,8.04,81.02,.52,4.81-1.16,6.05-5.36,6.04Zm46.85-.29c-6.34-.8-16.65,6.35-17.89-8.05-2.28-26.34-5.49-52.6-8.28-78.9-1.23-11.59,8.32-3.43,10.03-5.87,9.4-1.82,13.61,.2,14.29,9.09,1.88,24.49,4.74,48.91,6.78,73.39,.32,3.85,4.06,11.48-4.93,10.34Zm-102.67-116.68c-10.84,.11-7.1-7.28-7.54-12.49-.48-5.63-1.44-11.19,7.89-11.02,27.22,.49,54.45,.18,81.67,.17,27.08-.02,47.23-11.23,58.58-36.5,4.46-9.92,4.56-20.59,4.63-31.14,.19-28.75,.61-57.52-.22-86.24-.31-10.68,4.97-10.18,12.38-10.46,8.18-.3,12.2,.96,11.75,10.84-.9,19.63-.27,39.33-.27,63.25-1.11,18.39,2.3,41.2-1.6,63.7-5.14,29.58-26.35,48.76-56.11,49.46-37.04,.87-74.11,.05-111.16,.44ZM597.77,45.99c.04-5.76-1.3-7.87-7.48-7.85-88.86,.18-177.72,.18-266.57,0-6.04-.01-7.61,1.89-7.56,7.76,.26,33.67,.32,67.34-.03,101-.08,7.2,2.47,8.94,9.15,8.83,21.17-.33,42.35,.19,63.52-.29,7.31-.17,9.64,1.73,9.43,9.29-.54,19.9-.18,39.83-.18,62.92,27.98-23.32,53.58-44.48,78.91-65.94,5.24-4.44,10.57-6.29,17.43-6.23,31.38,.29,62.77-.02,94.15,.24,6.58,.05,9.35-1.44,9.27-8.75-.35-33.67-.28-67.34-.04-101Zm-32.9,85.67c-24.94-.32-49.9,.29-74.84-.34-9.74-.24-17.17,2.48-24.37,8.9-13.42,11.97-27.53,23.17-43.68,36.62,0-14.57-.32-25.9,.12-37.21,.26-6.6-2.19-8.33-8.51-8.23-21.54,.34-43.1-.2-64.63,.31-7.6,.18-9.74-2.22-9.54-9.6,.47-17.38,.38-34.79,.03-52.18-.13-6.48,2.11-8.41,8.49-8.39,72.58,.18,145.15,.18,217.73,0,6.34-.02,8.68,1.74,8.55,8.28-.35,17.77-.46,35.56,.04,53.32,.21,7.5-2.9,8.62-9.39,8.53Zm-107.93-22.96c-13.23,0-26.48-.34-39.7,.11-10.8,.36-7.13-7.35-7.49-12.57-.37-5.38-1.93-11.4,7.6-11.23,26.46,.45,52.94,.34,79.4,.06,10.11-.11,6.86,7.03,6.87,11.88,.01,4.89,3.03,12.12-6.98,11.85-13.22-.36-26.47-.09-39.7-.09Zm93.5-11.3c2.8,10.48-2.94,11.04-11.55,11.7-11.32,.86-11.43-4.46-12-13.19-.71-11,4.82-10.61,12.8-11.1,10.25-.62,12.73,3.61,10.75,12.59Zm-176.01,11.02c-11.44,3-11.2-3.95-11.8-12.45-.76-10.76,4.71-10.4,12.64-11.15,11.26-1.06,11.33,4.45,11.72,13.02,.47,10.23-3.74,12.5-12.56,10.57Z"/>
</svg>