<?xml version="1.0" encoding="UTF-8"?>
<svg id="Layer_1" data-name="Layer 1" xmlns="http://www.w3.org/2000/svg" viewBox="0 0 800 800">
  <defs>
    <style>
      .cls-1 {
        fill: #030303;
      }

      .cls-2 {
        fill: none;
      }
    </style>
  </defs>
  <rect class="cls-2" width="800" height="800"/>
  <path class="cls-1" d="M164.24,364.34c6.85-.04,11.77,1.93,14.44,7.65,3.01,6.45,1.78,12.42-2.77,17.63-9.63,11.01-19.14,22.16-29.26,32.72-5.12,5.33-5.75,8.93-.21,14.54,9.71,9.84,18.67,20.43,27.75,30.87,7.87,9.05,8.13,17.71,1.1,24.1-7.15,6.5-15.09,5.34-23.49-3.92-12.75-14.06-25.41-28.21-37.84-42.55-9.7-11.2-9.63-20.26,.22-31.63,12.43-14.34,25.22-28.38,37.76-42.63,3.56-4.04,7.52-6.98,12.29-6.78Zm220.33,50.66c-13.16-14.77-26.19-29.66-39.52-44.28-6.88-7.54-16.86-8.53-23.15-2.92-6.45,5.75-6.24,14.82,.93,23.14,9.05,10.48,18.04,21.05,27.68,30.97,5.46,5.62,6.18,9.38,.22,15.34-9.77,9.78-18.65,20.46-27.71,30.93-7.69,8.89-7.85,17.89-.44,23.92,8.73,7.1,16.09,3.77,22.66-3.59,12.91-14.47,25.81-28.94,38.7-43.42,3.79-4.26,6.39-9.04,6.33-15.3,.24-5.48-1.84-10.46-5.69-14.78Zm-117.95-61.78c-8.43-1.47-14.75,1.76-17.41,10.42-1.04,3.4-1.91,6.86-2.73,10.32-8.73,36.53-17.38,73.08-26.17,109.6-2.99,12.44,1.03,21.17,11.14,23.39,8.26,1.82,15.48-4.5,18.27-16.06,3.71-15.37,7.41-30.75,11.07-46.13,5.94-25,11.85-50,17.49-73.83,.52-9.85-2.72-16.16-11.65-17.72Zm-19.59,237.81c-8.07,.06-15.19,7.25-15.09,15.25,.1,7.76,7.8,15.95,15.31,15.17,8.82-.92,14.47-5.85,14.89-14.14-.02-9.46-6.92-16.34-15.12-16.28Zm535.87-6.58c-.48,21.54-11.05,33.63-32.32,37.17-10.36,1.72-19.09,23.67-12.72,31.98,11.86,15.47,11.34,32.16-1.74,46.27-6.19,6.67-12.59,13.18-19.32,19.31-13.6,12.38-29.83,13.01-44.3,2.14-11-8.26-32.21,.86-34.08,14.63-2.18,16.08-14.89,28.31-31.06,29.2-9.48,.52-19.01,.39-28.5,.17-19.21-.45-31.78-11.78-34.59-30.82-1.77-12.03-23.56-21.25-32.95-13.94-15.06,11.73-31.11,11.34-45.14-1.5-7-6.41-13.78-13.12-20.15-20.16-12.06-13.31-13.3-30.94-1.4-44.26,10.39-11.64-2.48-18.49-3.59-27.63-.94-7.7-7.73-5.17-12.39-5.19-35.24-.15-70.49-.08-105.73-.09-3.17,0-6.4,.32-9.49-.17-9.3-1.48-15.87-6.58-15.14-16.49,.67-9.09,6.98-13.96,16.2-14.01,24.95-.13,49.91-.51,74.83,.18,9.16,.25,12.11-2.54,10.96-11.32-.61-4.67-.13-9.49-.1-14.25,.15-24.43,9.23-34.87,33.73-38.77,1.89-.3,4.34,.37,5.3-1.71,2.64-5.75,4.16-12.17,7.59-17.35,5.12-7.73-.73-11.38-4.29-16.34-8.93-12.46-8.45-28.82,1.82-40.67,6.98-8.06,14.59-15.68,22.6-22.72,12.91-11.34,29.35-11.36,43.57-.89,9.84,7.25,31.59-1.58,33.24-13.49,2.42-17.46,12.24-27.92,29.76-30.48,11.75-1.71,23.7-1.78,35.47,.12,16.75,2.71,26.79,13.25,29.16,29.76,1.79,12.48,23.86,21.33,34.05,13.64,5.49-4.14,11.38-7.54,18.46-6.99,6.57,.51,7.88-2.47,7.86-8.37-.18-44.77-.39-89.54,.11-134.3,.12-10.6-6.13-8.86-12.3-8.86-103.75,0-207.5,0-311.25,0s-206.71,.18-310.06-.27c-10.83-.05-12.95,3.14-12.9,13.32,.41,84.78,.32,169.56,.16,254.34-.03,13.46,2.41,26.03,10.03,37.21,8.06,11.81,18.72,18.55,33.78,18.27,26.52-.49,53.06-.19,79.59-.11,12.97,.04,19.74,5.48,19.57,15.37-.16,9.38-6.93,15.2-18.81,15.28-27.72,.18-55.45,.56-83.15-.1-34.38-.81-63.5-27.94-69.23-63.9-1.36-8.56-1.79-17.35-1.79-26.04-.11-134.3-.05-268.6-.11-402.9,0-14.78,1.29-29.27,7.11-43.05,12.54-29.67,36.87-45.69,69.76-45.7,182.15-.03,364.32,1.05,546.46-.63,58.64-.54,83.75,44.76,83.56,84.1-.32,64.97-.09,129.94-.08,194.91,0,36.84,.13,73.69-.11,110.53-.05,7.47,1.36,13.28,6.99,19.02,13.66,13.92,14.21,30.67,1.86,45.93-3.93,4.86-4.44,8.43-1.44,13.64,2.34,4.07,3.96,8.66,5.26,13.2,1.29,4.55,3.79,5.84,8.42,6.38,22.25,2.61,32.63,14.56,32.97,37.18,.1,6.73,.14,13.47-.01,20.2Zm-84.47-352.38c-.31-40.38,.6-80.81-1.22-121.12-1.08-23.93-19.97-40.52-41.78-40.54-186.81-.1-373.63-.04-560.44-.09-12.88,0-22.91,5.36-30.65,15.26-8.35,10.68-12.01,23-12,36.5,.03,34.45,.41,68.91-.25,103.34-.2,10.34,2.37,13.31,13.04,13.27,103.3-.43,206.6-.26,309.9-.26,102.91,0,205.81,0,308.72,0,2.77,0,5.55-.11,8.31,0,4.51,.19,6.39-1.86,6.36-6.38Zm54.39,348.11c-.24-1.95-.04-3.96-.04-5.93,0-16.38,0-16.57-16.07-16.88-10.88-.21-17.75-4.29-20.2-15.77-2.06-9.63-5.98-18.81-10.64-27.61-10.13-19.11-10.24-19.35,5.19-35.32,4.93-5.1,5.91-8.84-.02-13.38-1.87-1.43-3.42-3.29-5.09-4.98-13.82-13.99-11.91-13.48-24.31-.57-7.35,7.65-14.83,9.43-24.16,3.36-8.63-5.62-18.18-9.46-28.05-12.53-20.45-6.34-20.64-6.42-21.43-28.7-.23-6.41-1.92-9.74-8.84-9.09-3.53,.33-7.18,.5-10.67-.02-11.21-1.68-15.85,2.38-14.43,14.07,1.5,12.46-3.94,20.08-16.92,22.75-9.64,1.98-18.69,6.25-27.42,10.97-17.91,9.69-18.48,9.94-32.32-4.42-6.13-6.35-10.68-7.2-16.17-.05-1.43,1.87-3.31,3.39-4.99,5.07-10.96,10.94-11.31,11.31-.29,21.73,9.01,8.52,10.26,16.93,3.53,27.31-5.61,8.65-9.35,18.25-12.01,28.28-4.32,16.27-7.64,19.26-25.06,18.58-10.24-.4-13.65,3.25-12.23,12.85,.29,1.94,.29,3.99,0,5.93-1.7,11.39,1.69,17.29,14.55,15.27,12.98-2.04,19.93,4.81,22.56,17.12,2.17,10.15,6.52,19.46,11.54,28.49,8.26,14.83,7.71,17.65-4.06,29.96-2.99,3.13-9.86,6-6.23,11.19,5.54,7.94,12.61,14.94,20.52,20.28,5.11-1.67,7.74-5.31,10.58-8.49,8.02-8.96,16.41-10.96,27.18-4.1,9.99,6.36,21.07,10.75,32.74,13.38,10.31,2.32,15.41,8.51,15.1,19.43-.53,18.74-1.44,17.25,17.2,17.27,16.38,.02,16.88,0,16.51-15.68-.29-12.45,4.99-19.38,17.02-21.64,9.03-1.7,17.26-5.58,25.35-9.7,19.82-10.09,19.95-10.33,36.42,5.18,4.81,4.53,8.31,5.32,12.58-.07,1.71-2.16,3.88-3.95,5.84-5.91,14.4-14.39,12.54-11.42,.55-23.2-8.01-7.87-9.74-15.64-3.46-25.29,5.64-8.67,9.24-18.33,12.42-28.15,6.39-19.75,6.49-20.19,27.3-19.96,8.66,.1,11.43-3.05,10.44-11.03Zm-130.54-380c-7.95,3.79-16.5,5.46-25.3,5.47-41.97,.03-83.94,.24-125.91-.08-23.02-.18-40.48-10.39-49.83-31.9-8.15-18.75-3.23-40.54,11.36-54.77,10.82-10.54,24.13-14.69,38.91-14.74,20.98-.07,41.97-.02,62.95,0,21.78,.01,43.57-.45,65.33,.14,25.4,.69,45.21,16.75,50.13,39.47,4.93,22.77-6.53,46.35-27.63,56.42Zm-1.43-45.75c-.18-10.98-8.85-19.51-21.14-19.57-43.5-.22-87.01-.22-130.51,0-13.28,.06-21.43,8.37-21.17,20.35,.27,11.9,8.57,19.54,21.95,19.64,21.36,.16,42.71,.04,64.07,.04,21.75,0,43.51,.14,65.26-.06,12.55-.11,21.74-9.08,21.55-20.4Zm-409.33,.07c.09,27.83-22.74,51.02-50.22,51.02-27.43,0-50.27-23.23-50.2-51.05,.07-27.76,23.39-50.8,50.83-50.24,27.46,.56,49.51,22.92,49.6,50.27Zm-29.86,.25c.03-10.81-9.6-20.1-20.67-19.93-10.76,.17-19.46,8.77-19.68,19.47-.23,11.15,8.73,20.45,19.81,20.56,10.89,.11,20.5-9.3,20.54-20.1Zm160.08-.62c.22,27.88-22.22,51.02-49.83,51.4-27.34,.37-50.38-22.77-50.46-50.69-.08-27.91,22.73-50.83,50.35-50.6,27.37,.23,49.73,22.56,49.94,49.89Zm-30.04,1.11c.35-10.97-8.85-20.36-20.01-20.44-10.63-.07-19.71,8.44-20.26,18.98-.57,10.89,8.45,20.69,19.38,21.06,10.98,.37,20.55-8.6,20.89-19.61Zm371.08,418.79c-.03,50.57-40.66,91.49-91.03,91.66-50.46,.17-92.3-41.74-92.08-92.25,.21-49.95,41.95-91.16,92.07-90.89,50.75,.27,91.07,40.79,91.04,91.47Zm-29.85,0c.01-33.48-27.7-61.36-61.14-61.51-33.63-.15-61.16,27.12-61.5,60.92-.35,34.24,27.46,62.3,61.5,62.08,33.5-.22,61.13-28,61.14-61.49Z"/>
</svg>