<?xml version="1.0" encoding="UTF-8"?>
<svg id="Layer_1" data-name="Layer 1" xmlns="http://www.w3.org/2000/svg" viewBox="0 0 800 800">
  <defs>
    <style>
      .cls-1 {
        fill: #0e0e0e;
      }

      .cls-2 {
        fill: none;
      }
    </style>
  </defs>
  <rect class="cls-2" width="800" height="800"/>
  <path class="cls-1" d="M493.62,49.7c-.01,7.83,.21,15.67-.08,23.49-.25,6.84-4.31,10.56-11.03,10.93-7.33,.4-12.44-3.38-12.69-10.56-.56-16.46-.57-32.97,.03-49.43,.26-7.28,5.58-10.67,12.89-10.21,6.85,.43,10.62,4.27,10.83,11.05,.25,8.24,.06,16.49,.05,24.73Zm-137.95,72.75c-12.01-14.06-24.8-27.41-39.25-38.94-4.71-3.76-10.28-1.49-14.19,3.09-4.06,4.76-4.28,10.14-.09,14.53,11.64,12.17,23.57,24.07,35.66,35.79,3.48,3.38,8.08,3.87,12.55,1.21,4.17-2.49,6.6-6.06,6.76-11.62-.34-1.02-.45-2.91-1.43-4.06Zm41.97-88.3c-2.82-4.67-8.44-4.65-13.38-2.32-4.95,2.33-8.54,6.55-6.66,11.8,6.1,17,12.27,34.06,21.3,49.78,2.19,3.82,6.7,6.16,11.81,3.75,5.17-2.44,9.02-5.8,8.56-14-6.95-15.21-12.02-33.14-21.63-49.02Zm224.59,106.94c14.88-11.04,27.47-24.51,39.18-38.7,3.19-3.86,1.63-9.48-2.5-13.38-4.14-3.91-9.75-4.89-13.55-1.74-13.86,11.51-27.65,23.36-38.56,37.76-5.08,6.7,2.23,17.43,11.52,17.46,.88-.3,2.68-.48,3.92-1.4Zm-45.85-107.35c-5.76-1.41-11.13-.25-13.65,5.4-6.69,15-13.17,30.12-19.04,45.46-2.32,6.07,.47,11.58,6.6,14.14,6.6,2.75,12.38,.89,15.41-5.82,4.73-10.48,9.07-21.15,13.32-31.84,2.11-5.3,5.31-10.3,5.3-17.75-.25-3.96-2.25-8.19-7.93-9.58Zm119.47,572.18c-63.26,50.19-126.79,100.06-189.85,150.51-20.28,16.23-41.76,15.29-65.28,9.79-57.99-13.55-116.25-25.94-174.4-38.84-10.28-2.28-19.58,.18-28.32,5.5-5.63,3.42-11.1,7.1-16.76,10.47-7.75,4.61-14.68,8.41-15.47,19.89-.81,11.76-11.2,18.34-24.07,18.56-17.3,.29-34.61,.25-51.92,.04-17.67-.21-27.18-9.79-27.33-27.9-.24-28.86-.06-57.72-.07-86.59,0-28.04-.09-56.08,.03-84.11,.09-20.63,8.94-29.51,29.23-29.59,16.48-.07,32.96-.11,49.44,.02,14.7,.11,23.05,5.17,26.51,19.02,2.24,8.94,5.48,5.62,9.77,3.03,18.33-11.05,37.08-21.49,54.84-33.4,15.2-10.2,30.91-11,47.1-5.29,57.32,20.21,115.01,39.58,171.32,62.35,15.93,6.44,25.23,3.22,37.39-4.37,31.08-19.39,62.58-38.11,93.99-56.97,20.7-12.43,42.35-15.48,64.81-5.16,31.86,14.64,36.41,51.34,9.05,73.05ZM183.38,746.89c-.57-26.38-.2-52.79-.21-79.18,0-26.81-.29-53.62,.18-80.42,.14-7.8-2.35-9.95-9.82-9.63-12.75,.55-25.55,.39-38.32,.05-6.15-.16-8.74,1.43-8.71,8.21,.23,54.44,.21,108.88,.02,163.32-.02,6.46,2.09,8.66,8.54,8.45,12.35-.41,24.75-.62,37.08,.06,8.5,.47,11.42-1.95,11.23-10.86Zm506.05-176.98c-1.61-9.43-9.15-13.27-17.28-15.7-11.63-3.47-23.2-2.09-33.47,3.94-37.29,21.89-74.27,44.31-111.43,66.42-4.19,2.49-5.42,5.1-3.96,10.05,5.79,19.76-1.45,35.85-16.03,48.67-14.16,12.45-30.95,14.9-48.54,8.25-33.46-12.65-66.74-25.75-100.14-38.56-8.31-3.19-16.17-7.41-12-17.74,4.03-9.97,12.33-8.37,20.92-5.01,32.14,12.62,64.35,25.07,96.72,37.1,15.46,5.74,29.3-.29,34.79-14,5.12-12.77-1.41-27.16-16.28-32.57-57.93-21.07-116.05-41.66-174.09-62.42-8.78-3.14-16.92-1.65-24.78,3.13-22.87,13.91-45.74,27.83-68.82,41.39-5.61,3.3-8.09,6.99-7.87,13.72,.51,15.66,.16,31.34,.16,47.02,0,15.26-.11,30.52,.08,45.78,.04,3.48-1.99,8.22,1.68,10.21,3.68,2,6.64-2.19,9.56-4.12,15.64-10.31,32.2-16.68,51.27-12.51,58.18,12.74,116.55,24.69,174.39,38.81,23,5.61,41.04,2.48,58.72-13.51,20.76-18.77,43.11-35.82,65.09-53.2,36.86-29.14,73.96-57.97,110.99-86.89,6.02-4.7,11.8-9.72,10.34-18.28Zm-105.5-164.88c-8.82,6.86-17.83,13.32-22.76,23.87-3.15,6.75-4.18,11.97,2.38,18.52,16.75,16.7,13.51,41.46-6.84,53.63-6.8,4.07-9.56,8.14-10.48,16.01-5.21,44.7-.88,39.15-43.63,39.37-6.18,.03-12.36,0-18.54,0-14.01,0-28.03-.33-42.03,.11-10.06,.31-15.5-4.12-17.08-13.79-.66-4.07-1.51-8.14-1.75-12.24-.77-12.79-2.28-23.06-16.5-30.67-18.95-10.14-20.49-37.09-4.81-52.31,6.26-6.07,5.74-10.74,2.63-17.16-4.44-9.19-11.48-15.84-19.57-21.82-54.94-40.62-77.52-105.43-60.64-173.47,15.51-62.54,71.26-114.08,134.01-123.9,75.05-11.75,148.72,28.61,178.19,97.61,29.7,69.55,8.57,148.65-52.58,196.23Zm-62.42,109.96c1.69-6.74-4.11-5.48-7.92-5.53-9.88-.11-19.76-.04-29.64-.04s-19.77-.23-29.64,.12c-3.71,.13-10.96-2.53-8.91,5.44,1.61,6.27-3.76,17.41,7.35,18.07,20.51,1.21,41.21,1.26,61.71-.02,11.05-.69,5.46-11.73,7.05-18.04Zm25.41-41.9c0-10.15-7.26-11.41-15.42-11.38-33.74,.1-67.49,.12-101.23-.01-8.38-.03-15.38,1.93-15.22,11.73,.16,9.64,7.22,11.73,15.53,11.66,16.87-.13,33.74-.04,50.62-.04,16.87,0,33.75-.11,50.62,.04,8.46,.07,15.1-2.27,15.1-12Zm74.61-196.38c1.47-104.57-109.9-174.07-202.53-126.46-92.63,47.6-104.21,173.51-21.53,237.29,15.77,12.16,29.46,25.26,34.03,45.36,1.36,5.96,5.4,5.18,9.41,5.19,13.19,.04,26.38,.02,39.57,.02,14.01,0,28.03-.02,42.04,.01,4.21,.01,8.09,.27,9.28-5.46,4.24-20.37,18.21-33.08,34.07-45.18,36.3-27.69,55.02-64.9,55.66-110.76Zm-156.64-93.95c.92,10.97,9.08,12.05,17.99,12.17,16.45,.21,31.53,5.01,44.93,14.68,21.43,15.46,32.32,36.77,34.19,62.84,.51,7.1,1.7,13.25,10.13,14.54,9.54,1.46,14.71-5.32,13.88-18.08-3.53-54.18-47.41-96.54-101.96-98.43-12.2-.42-19.84,4.16-19.16,12.29Z"/>
</svg>