<?xml version="1.0" encoding="UTF-8"?>
<svg id="Layer_1" data-name="Layer 1" xmlns="http://www.w3.org/2000/svg" viewBox="0 0 800 800">
  <defs>
    <style>
      .cls-1 {
        fill: #0f0f0f;
      }

      .cls-2 {
        fill: none;
      }
    </style>
  </defs>
  <rect class="cls-2" width="800" height="800"/>
  <path class="cls-1" d="M388.86,64.45c0-9.41-.16-18.82,.05-28.22,.16-7.07,3.02-12.28,11.06-12.34,8.03-.07,11.15,5.04,11.22,12.15,.2,18.42,.15,36.85,.05,55.27-.04,7.65-3.47,13.46-11.66,13.19-7.45-.25-10.63-5.83-10.7-13-.08-9.02-.02-18.03-.02-27.05Zm-90.21,.64c9.19,16.77,18.86,33.29,28.57,49.77,3.58,6.08,8.78,9.19,15.63,4.76,6.5-4.2,6.82-10.12,3.27-16.36-9.09-15.95-18.33-31.81-27.53-47.69-2.47-4.26-5.76-7.38-10.35-7.48-9,.24-13.97,8.99-9.59,17Zm160.89,55.82c6.25,2.23,10.65-1.15,13.63-6.24,9.67-16.52,19.08-33.18,28.72-49.71,3.78-6.48,1.49-11.28-4-14.97-6.19-4.16-11.63-1.72-14.98,3.83-10.09,16.71-19.7,33.71-29.38,50.66-.92,1.62-1.05,3.69-1.07,3.74-.59,7.38,2.32,10.99,7.09,12.69Zm307.26,463.94c-.01,13.7-2.87,16.41-16.93,16.46-28.31,.11-56.62-.29-84.92,.19-10.61,.18-17.46-2.87-19.51-13.95-1.25-6.73-4.18-8.95-11.22-5.01-13.33,7.46-27.24,13.85-42.33,18.95,13.86,26.98,10.2,49.71-9.49,64.13-7.9,5.78-16.67,9-26.43,8.2-5.86-.48-8.52,.62-10.45,7.07-7.47,24.92-24.17,36.31-50.3,34.43-5.22-.37-5.67,1.57-6.92,5.09-9.93,27.98-30.64,38.97-59.11,30.76-4.8-1.38-6.14-.94-8.74,3.29-15.87,25.83-42.99,28.92-64.19,7.31-40.74-41.53-81.24-83.31-121.84-124.98-20.12-20.65-41.69-39.31-68.05-51.86-6.77-3.22-10.56-3.55-12.31,5.02-1.77,8.65-7.91,11.58-16.59,11.5-29.48-.28-58.97-.29-88.46-.01-10.97,.1-15.93-4.76-15.92-15.52,.03-89.66,.08-179.32-.07-268.98-.02-9.69,4.57-14.7,13.63-15.84,15.18-1.92,30.38-3.84,45.63-5.01,5.8-.44,9.01-1.56,10.92-7.78,8.37-27.19,25.51-47.5,50.69-60.67,6.44-3.37,7.26-5.38,2.65-11.75-23.6-32.65-18.93-74.75,10.49-101.14,29.24-26.23,73.87-26.02,103.15,.48,28.84,26.1,33.37,68.01,10.14,100.24-4.81,6.68-4.07,8.88,2.97,12.38,19.22,9.56,33.74,24.47,43.32,43.53,3.66,7.28,6.92,5.06,11.73,2.65,7.05-3.53,2.1-6.77-.09-9.93-17.1-24.63-20.23-50.76-7.18-77.89,13.1-27.24,36.13-41.62,65.59-42.91,30.5-1.33,55.16,11.82,70.35,38.93,15.18,27.09,12.93,54.07-3.58,80.25-1.89,3-10.61,5.9-1.73,11.52,7.07,4.47,9.65,1.6,12.98-4.67,9.85-18.53,24.28-32.79,43.18-42.08,6.2-3.05,6.6-5.25,2.47-11.04-19.17-26.92-21.19-55.58-4.12-83.93,16.78-27.87,43.09-40.4,74.99-36.34,33.37,4.25,56.24,23.83,65.03,56.73,6.05,22.64,2.07,44.7-12.78,63.48-5.09,6.44-3.4,8.24,2.83,11.5,25.16,13.19,42.28,33.59,50.85,60.64,2,6.31,5.03,7.35,10.81,7.79,14.86,1.12,29.66,3.04,44.47,4.81,10.14,1.21,14.63,6.46,14.6,17.34-.31,88.87-.14,177.75-.21,266.62Zm-239.04-414.51c-.19,30.55,23.66,54.62,54.11,54.61,29.78-.01,54.31-24.06,54.47-53.4,.17-29.52-23.66-53.39-53.83-53.93-30.03-.54-54.57,23.09-54.76,52.72Zm-33.49,128.47c8.93,8.96,17.37,19.71,18.86,31.98,2.83,23.3,18.92,25.09,36.34,26.42,4.65,.36,9.36,.05,15.58,.05-1.29-4.34-2.14-7.72-3.29-11-5.97-17.01-4.89-19.79,11.9-26.34,30.04-11.71,60.95-20.05,93.22-22.5,7.74-.59,9.83-3.06,6.21-10.58-10.77-22.37-27.52-37.68-51.13-45.54-3.95-1.32-7.43-1.27-11.33,.29-19.01,7.63-38.18,7.75-57.22,.14-4.32-1.73-8.18-1.74-12.47-.26-21.78,7.49-38,21.23-48.59,41.82-3.09,6.02-3.3,10.28,1.91,15.51Zm-148.19-80.17c-.12,30.35,22.91,53.64,53.24,53.86,30.85,.22,55.2-23.39,55.18-53.49-.02-29.59-24-53.14-54.2-53.23-30.56-.09-54.11,22.86-54.22,52.86Zm-41.61,129.27c-5.98,22.96-4.82,23.82,18.29,21.65,1.56-.15,3.15-.12,4.7-.36,15.01-2.37,28.92-5.26,41.75-15.94,25.14-20.93,55.13-27.09,87.33-19.62,12.05,2.8,23.94,6.29,36.18,9.54-2.01-22.02-29.04-49.16-55.98-54.89-2.94-.62-5.4,.33-7.94,1.34-19.09,7.59-38.22,7.87-57.25-.03-4.32-1.79-8.37-1.69-12.55-.23-28.43,9.95-46.95,29.47-54.53,58.53ZM164.06,170.2c-.46,30.21,23.78,54.74,54.1,54.75,29.88,0,54.37-23.89,54.58-53.26,.22-29.57-23.51-53.46-53.68-54.07-29.92-.6-54.56,22.95-55.01,52.58Zm-40.02,125.57c5.39,.89,9.94,1.97,14.53,2.34,27.14,2.19,53.17,9.14,78.59,18.49,24.86,9.14,30.86,9,18.78,36.89-.31,.71-.4,1.52-.69,2.25-1.45,3.6-.83,5.47,3.47,6.64,11.33,3.1,22.59,6.27,34.36,7.49,5.23,.54,6.88-1.18,7.03-6.3,.73-25.32,10.02-47.32,26.9-66.03,3.76-4.17,4.13-7.33,1.67-12.41-10.52-21.67-27.21-35.93-49.83-43.72-4.37-1.51-8.24-1.25-12.47,.43-18.66,7.41-37.44,7.33-56.14,.11-3.74-1.44-7.17-2.3-11.31-.93-27.1,9.01-45.33,26.71-54.88,54.75Zm89.89,52.87c1.45-4.21,4.7-7.73-2.99-10.64-46.85-17.75-95.03-23.1-144.65-17.67-8.08,.88-10.7,4.11-10.57,12.67,.57,38.91,.25,77.84,.25,116.76,0,39.32,.35,78.64-.25,117.94-.15,9.69,2.93,11.84,11.92,11.46,16.09-.7,32.31-1.24,48.31,.12,14.11,1.2,20.14-3.66,24.66-17.25,23.77-71.35,48.76-142.3,73.33-213.39Zm358.24,264.96c-10.91-14.54-27.95-21.28-40.36-33.94-36.32-37.03-73.36-73.35-109.76-110.3-5.52-5.6-8.78-5.5-14.06-.21-10.35,10.39-17.36,21.66-17.4,37.15-.05,17.15-7.25,32.06-18.93,44.49-20.51,21.85-46.58,31.12-75.94,32.37-10.18,.43-13.75-5.16-13.7-14.74,.19-36.56,.13-73.13,.12-109.69,0-16.63,6.25-30.58,18.02-42.09,7.54-7.37,15.32-14.49,25.8-24.37-34.62,2.87-65.38,1.18-95.19-9.02-6.17-2.11-6.08,3.24-7.26,6.55-5.66,15.86-11.16,31.79-16.69,47.7-13.12,37.76-26.28,75.49-39.24,113.3-1.34,3.93-5.01,8.71,2.26,11.62,35.59,14.24,62.48,39.99,88.55,66.93,38,39.25,76.2,78.3,114.47,117.29,8.63,8.79,17.44,9.08,24.77,1.7,6.76-6.81,6.56-15.7-1.19-24.03-9.64-10.35-19.69-20.33-29.56-30.47-10.7-10.98-21.46-21.89-32.08-32.94-5.01-5.22-6.17-11.25-.84-16.72,5.51-5.65,11.32-4.02,16.52,1.08,1.68,1.65,3.33,3.34,4.99,5.02,23.69,24.1,47.4,48.2,71.07,72.32,6.35,6.47,13.4,10.98,23.02,8.7,17.99-4.27,23.78-24.67,10.48-38.72-19.72-20.83-39.97-41.17-60.01-61.7-5.27-5.4-10.02-11.55-3.27-18.26,6.72-6.68,13.49-3.49,19.37,2.6,15.02,15.55,30.13,31.01,45.21,46.49,8.23,8.44,16.18,17.18,24.81,25.19,9.32,8.65,23.65,8.14,31.87-.38,8.34-8.64,8.6-21.19,.23-30.93-4.6-5.36-9.72-10.28-14.65-15.35-15.62-16.05-31.21-32.14-46.94-48.1-5.51-5.59-9.1-11.69-2.7-18.34,6.5-6.76,12.77-3.4,18.25,2.32,1.63,1.7,3.28,3.39,4.93,5.07,20.07,20.5,40.14,41,60.22,61.5,6.61,6.75,13.98,11.67,24.01,8.67,17.03-5.08,21.68-23.21,10.76-37.76Zm60.55-62.91c-19.24-54.67-38.23-109.43-57.09-164.23-1.31-3.8-2.5-6.16-6.98-6.1-38.4,.52-73.88-12.86-109.97-23.31-30.81-8.92-58.38-2.7-82.09,18.56-20.47,18.36-40.18,37.57-60.21,56.42-8.47,7.98-12.5,17.81-12.41,29.46,.11,14.54,.03,29.09,.02,43.63,0,15.72,.05,31.45-.03,47.17-.02,4.78-.15,7.96,6.9,6.98,30.76-4.3,55.28-26.36,57.51-56.3,1.83-24.63,13.98-41.78,31.88-56.49,16.19-13.31,16.93-13.3,31.79,1.54,39.48,39.44,79.05,78.8,118.35,118.42,12.36,12.46,26.55,16.81,42.87,10.56,12.04-4.61,23.41-10.95,35.18-16.3,4.74-2.15,6.22-4.54,4.29-10.01Zm112.12-216.64c.18-9.9-3.52-12.98-12.16-13.89-48.82-5.13-96.26,.21-142.44,17.29-7.69,2.84-5.65,6.12-3.82,11.39,25.52,73.68,50.93,147.39,76.15,221.17,2.41,7.06,6.13,9.4,13.65,9.16,18.85-.61,37.74-.65,56.59,0,9.01,.31,12.13-1.88,11.98-11.57-.59-38.92-.24-77.85-.24-116.77,0-38.92-.43-77.86,.3-116.77Z"/>
</svg>