<?xml version="1.0" encoding="UTF-8"?>
<svg id="Layer_1" data-name="Layer 1" xmlns="http://www.w3.org/2000/svg" viewBox="0 0 800 800">
  <defs>
    <style>
      .cls-1 {
        fill: #fff;
      }

      .cls-2 {
        fill: none;
      }
    </style>
  </defs>
  <rect class="cls-2" width="800" height="800"/>
  <path class="cls-1" d="M727.66,310.07c12.46,.15,21.51,9.46,21.49,22.11-.02,12.08-10.04,21.94-22.1,21.76-11.93-.18-21.98-10.49-21.77-22.33,.21-12.14,10.13-21.69,22.38-21.54Z"/>
  <path d="M764.92,636.83c-12.07-15.66-28.51-21.88-48.12-17.34-4.34,1-6.47-.05-8.98-3.32-21.19-27.67-42.7-55.11-63.75-82.89-4.62-6.1-9.87-8.3-17.32-8.28-79.05,.19-158.11,.14-237.16,.15-2.26,0-4.61,.33-6.77-.17-1.4-.33-3.59-1.86-3.61-2.88-.24-13.47-.16-26.94-.16-40.65,2.76-.13,4.53-.29,6.31-.29,96.04,0,192.08,.06,288.13-.11,5.83-.01,8.89,1.09,11.51,7.08,10.72,24.48,39.41,34.32,63.44,22.51,23.62-11.62,33.24-41.21,20.51-64.33-9.05-16.44-23.39-25.26-42.14-24.92-19.92,.36-34.35,10.35-42.46,28.61-1.95,4.38-4.1,6.03-8.9,6.02-96.27-.13-192.54-.16-288.81,.04-6.39,.01-7.89-1.95-7.84-8.1,.3-31.94,.26-63.88,.02-95.81-.04-5.69,1.11-7.86,7.4-7.85,96.49,.2,192.99,.17,289.49,.05,4.53,0,6.61,1.35,8.42,5.67,9.45,22.52,33.6,33.96,56.31,27.14,22-6.61,35.19-25.9,33.9-49.59-1.11-20.45-18.25-38.75-39.65-42.36-20.84-3.51-41.98,8.21-50.49,28.47-1.77,4.21-3.7,5.66-8.36,5.64-59.12-.19-118.24-.13-177.36-.13-37.37,0-74.75-.15-112.12,.15-6.12,.05-7.86-1.76-7.56-7.64,.44-8.81,.13-17.66,.14-26.5q0-9.98,9.85-9.99c78.83,0,157.65-.11,236.48,.18,8.83,.03,14.68-2.75,20-9.8,20.04-26.57,40.79-52.6,60.84-79.15,3.8-5.03,6.92-6.55,13.3-5.23,32.37,6.66,61.84-24.08,53.99-56.09-4.96-20.21-17.84-32.75-38.4-36.37-19.57-3.45-35.41,3.89-46.45,19.93-11.49,16.7-11.41,34.43-.64,51.64,2.38,3.8,2.2,6.07-.38,9.38-19.76,25.36-39.3,50.89-59.18,76.15-1.78,2.26-5.48,4.26-8.3,4.27-78.37,.23-156.75,.15-235.12,.28-4.9,0-6.23-1.74-6.07-6.36,.29-8.6,.49-17.24-.05-25.81-.41-6.58,1.77-8.4,8.33-8.37,56.17,.25,112.35,.16,168.53,.12,10.7,0,14.84-4.13,14.9-14.74,.08-15.63,.22-31.26-.06-46.89-.1-5.37,1.2-8.24,6.69-10.54,18.27-7.66,29.98-27.4,28.03-45.53-2.41-22.38-16.25-38.57-37.01-43.26-19.75-4.47-40.18,4.4-50.71,22.02-14.59,24.42-4.54,54.99,21.98,67.29,2.18,1.01,5.45,3.08,5.51,4.74,.45,13.73,.25,27.48,.25,41.57-2.77,.21-4.76,.49-6.75,.49-50.97,0-101.93-.09-152.9,.09-5.56,.02-6.8-1.87-6.77-7.05,.18-35.79,.11-71.58,.03-107.37-.02-9.34-4.89-14.13-14.24-14.24-6.79-.08-13.59-.08-20.38,.11-28,.79-52.21,21.07-56.03,48.86-2.02,14.68-1.1,29.79-1.2,44.71-.03,3.98-1.17,5.81-5.09,7.32-12.02,4.61-23.89,9.67-35.58,15.07-3.6,1.66-5.61,1.15-8.17-1.46-8.25-8.4-16.57-16.73-25.09-24.86-22.98-21.91-58-22.22-81.14-.62-7.94,7.41-15.66,15.09-23.02,23.08-22.51,24.46-21.52,59.41,2.11,83.04,7.85,7.84,15.65,15.74,23.69,23.39,2.93,2.78,3.26,5.01,1.56,8.8-5.27,11.74-10.17,23.66-14.72,35.7-1.36,3.6-2.9,4.89-6.72,4.82-11.09-.2-22.2,0-33.29,.06-28.82,.19-53.24,18.8-58.26,47.14-2.65,14.95-1.94,30.69-1.25,46,1.19,26.64,23.29,50.14,49.85,52.86,14.35,1.47,28.92,.81,43.39,.98,3.4,.04,5.64,.43,7.13,4.37,4.66,12.24,9.79,24.32,15.17,36.26,1.6,3.56,1.22,5.66-1.45,8.26-8.43,8.22-16.8,16.5-24.92,25.02-22.33,23.41-22.11,58.88,.44,82.08,6.94,7.14,14.02,14.16,21.2,21.06,24.08,23.13,59.89,22.81,83.64-.7,8.05-7.97,16.08-15.96,23.85-24.18,2.84-3,5.07-3.07,8.78-1.42,11.56,5.14,23.28,9.97,35.15,14.34,4.23,1.56,5.41,3.67,5.33,7.86-.21,11.32-.21,22.65,.02,33.97,.58,28.65,20.36,52.34,48.45,57.32,7.93,1.41,16.21,1.05,24.34,1.14,12.47,.15,16.53-4.06,16.53-16.73,.02-31.94,0-63.88,.02-95.82,0-2.84,.27-5.67,.41-8.57h165.9c0,11.9-.34,23.21,.13,34.49,.27,6.57-1.3,10.07-7.97,13.11-22.11,10.06-31.91,35.58-23.5,58.36,8.2,22.22,32.37,34.97,55.47,29.25,20.47-5.07,33.84-21.51,35.91-44.18,1.61-17.6-10.45-36.89-28.59-44.61-4.75-2.02-6.35-4.38-6.23-9.46,.34-15.4,.14-30.8,.11-46.21-.02-12.41-3.81-16.19-16.21-16.2-43.49-.02-86.98,0-130.47,0-12.91,0-25.82,.11-38.73-.13-2.05-.04-5.82-1.61-5.85-2.57-.4-12.32-.26-24.65-.26-37.17,2.85-.21,4.62-.45,6.4-.45,78.15-.02,156.3-.07,234.44,.15,2.81,0,6.5,1.97,8.27,4.21,19.48,24.71,38.54,49.76,58.04,74.46,3.64,4.61,3.81,7.66,.71,12.81-18.26,30.42,3.37,69.98,38.54,70.72,20,.42,35.15-8.67,44.07-26.3,8.58-16.95,6.98-34.2-4.65-49.27Zm-37.48-190.46c12.26,.12,21.77,9.81,21.73,22.12-.04,12.44-9.48,21.84-21.88,21.79-12.22-.05-21.95-9.76-21.98-21.93-.03-11.82,10.32-22.1,22.13-21.98Zm.23-136.3c12.46,.15,21.51,9.46,21.49,22.11-.02,12.08-10.04,21.94-22.1,21.76-11.93-.18-21.98-10.49-21.77-22.33,.21-12.14,10.13-21.69,22.38-21.54Zm-.3-196.93c12.27,0,21.71,9.51,21.79,21.96,.08,12.28-9.47,21.9-21.79,21.96-11.93,.05-21.98-9.96-22.06-21.97-.07-11.99,9.92-21.94,22.05-21.94Zm-191.03-18.24c.09-12.29,9.82-21.96,21.96-21.81,12.11,.14,22.02,10.17,21.9,22.17-.11,11.87-10.58,22.19-22.23,21.92-12.32-.29-21.73-9.97-21.64-22.27Zm-189.1,125.86c-60.17,12.25-103.73,46.11-130.55,101.26-37.48,77.07-12.3,174.62,57.55,224.3,22.65,16.11,47.35,27.2,74.8,32.1,1.73,.31,4.38,2.87,4.38,4.39,.17,42.35,.05,84.69-.05,127.04,0,.39-.38,.78-.58,1.17-7.47,1.18-14.61-.2-20.63-3.48-8.03-4.37-14.09-12.12-16.3-21.69-.55-2.39-.87-4.9-.91-7.5-.27-15.62-.11-31.25-.23-46.88-.07-9.03-3.02-12.09-11.34-15.35-18.26-7.16-36.36-14.76-54.38-22.49-6.64-2.85-11.49-2.5-17.2,3.17-10.76,10.69-21.29,21.61-32.06,32.29-15.49,15.37-35.05,15.47-50.57,.35-6.49-6.32-12.95-12.67-19.25-19.18-13.15-13.58-13.63-33.34-.72-47.12,10.67-11.4,21.97-22.22,32.92-33.36,7.32-7.45,7.03-10.92,2.67-20.47-7.59-16.6-14.61-33.5-21.13-50.55-3.6-9.42-6.55-12.4-16.68-12.37-14.95,.04-29.9,.17-44.84,.11-20.76-.08-34.81-14.11-35.1-34.98-.12-9.06-.15-18.12-.06-27.18,.19-19.9,14.22-34.14,34.26-34.5,15.17-.27,30.35-.08,45.52-.2,9.6-.07,12.41-2.87,15.79-11.67,6.78-17.69,13.93-35.25,21.49-52.62,3.83-8.79,3.88-12.28-3.12-19.33-10.52-10.6-21.2-21.04-31.72-31.64-14.96-15.07-15.06-34.92-.28-50.12,6.31-6.49,12.7-12.9,19.19-19.21,13.92-13.51,34.23-13.58,48.19-.07,11.06,10.71,21.87,21.67,32.82,32.48,6.61,6.52,10.93,6.43,19.42,2.61,17.06-7.69,34.35-14.94,51.8-21.72,8.95-3.48,11.98-6.51,11.97-16.29,0-14.04-.11-28.08-.12-42.13-.03-25.67,14.61-39.42,41.1-37.68,.14,2.59,.37,4.79,.37,6.99,.02,41.22-.12,82.44,.19,123.66,.04,5.4-1.95,6.89-6.58,7.84Zm6.06,24.46v308.16c-29.12-5-54.15-17.55-75.82-36.79-30.41-27-47.92-61.09-51.98-101.4-8.89-88.19,55.02-158.72,127.8-169.98Zm204.92,437.96c11.98,.07,22.13,10.31,21.96,22.15-.17,12.05-10.21,22.01-22.13,21.97-12.15-.04-21.75-9.82-21.73-22.13,.02-12.29,9.75-22.05,21.9-21.99Zm169.12,4.03c-12.02-.01-22.1-10.09-22.04-22.03,.06-12.01,10.13-21.98,22.14-21.92,12.3,.07,21.8,9.69,21.73,22.02-.07,12.43-9.54,21.94-21.84,21.93Z"/>
</svg>