<?xml version="1.0" encoding="UTF-8"?>
<svg id="Layer_1" data-name="Layer 1" xmlns="http://www.w3.org/2000/svg" viewBox="0 0 800 800">
  <defs>
    <style>
      .cls-1 {
        fill: none;
      }

      .cls-2 {
        fill: #010101;
      }
    </style>
  </defs>
  <rect class="cls-1" width="800" height="800"/>
  <path class="cls-2" d="M620.05,571.23c-2.71-19.23-15.41-30.87-32.94-36.09-16.24-4.84-32.33-1.99-47.5,6.4-39.52,21.85-79.25,43.34-121.71,66.51,6.64-24.51-4.52-38.91-20.77-50.72-6.13-4.45-12.71-8.39-19.43-11.93-28.99-15.28-60.21-23.97-92.48-27.65-30.67-3.51-60.52-1.55-86.88,18.82-14.49,11.2-31.4,19.24-47.02,29.02-4.8,3.01-7.41,3.18-11.74-1.64-12.92-14.41-27.23-16.34-44.26-7.02-10.18,5.58-20.28,11.35-30.14,17.49-16.63,10.35-22.03,28.9-12.36,46,25.48,45.03,51.34,89.84,77.52,134.47,9.22,15.73,27.94,20.91,44.02,12.7,12.11-6.18,23.92-13.06,35.35-20.42,11.41-7.36,16.38-18.6,14.81-32.07-1.64-14.07-.65-14.97,13.79-10.94,36.5,10.17,73.1,20,109.55,30.34,23.79,6.75,45.73,3.39,66.71-9.53,27.98-17.23,56.22-34.02,84.39-50.93,31.94-19.18,63.95-38.25,95.87-57.47,17.03-10.25,28.18-24.18,25.2-45.34Zm-425.33,160.39c-8.01,4.53-15.89,9.29-23.89,13.84-13.41,7.61-17.44,6.64-25.13-6.6-21.14-36.37-42.2-72.79-63.19-109.25-17.51-30.41-21.31-29.45,12.87-48.16,3.51-1.92,6.89-4.07,10.37-6.06,8.02-4.59,14.78-3.13,19.44,4.88,25.36,43.65,50.62,87.36,75.8,131.11,1.35,2.34,1.64,5.29,1.99,6.49,.12,7.57-3.43,11.02-8.26,13.75Zm395.49-137.97c-5.83,4.76-12.82,8.12-19.33,12.05-51.12,30.87-103.05,60.49-153.07,93.06-27.01,17.59-52.5,20.65-82.6,10.51-34.36-11.57-69.85-19.77-104.8-29.59-3.76-1.06-7.17-1.33-10.22,1.13-7.33,5.9-10.87,2.92-14.99-4.49-15.01-26.99-30.55-53.7-46.41-80.2-3.82-6.38-2.88-9.02,3.38-12.55,15.7-8.85,31.82-17.34,46.19-28.09,23.29-17.41,48.86-20.85,76.35-16.55,29.73,4.65,58.73,11.9,85.38,26.51,5.61,3.07,11.35,6.23,16.13,10.38,6.72,5.85,15.94,11.31,11.43,22.68-3.73,9.42-18.37,16.85-29.02,14.77-18.41-3.59-36.79-7.36-54.63-13.34-3.79-1.27-7.76-2.01-11.51-3.37-7.22-2.63-13.14-1.04-15.46,6.37-2.45,7.83,2.61,11.83,9.63,13.84,15.73,4.49,31.29,9.7,47.22,13.3,14.39,3.25,28.97,6.51,43.25,5.21,17.24,1.36,31.92-3.07,46.46-11.33,38.64-21.96,77.98-42.67,117-63.97,11.5-6.28,23.06-8.91,35.4-2.35,16.05,8.52,18.2,24.59,4.21,36.03Zm159.28-415.28c-25.57-45.44-51.63-90.6-78.02-135.56-9.15-15.59-28.17-20.57-44.15-12.34-11.74,6.04-23.23,12.67-34.34,19.8-12.24,7.85-17.56,19.55-15.28,34.08,1.83,11.66-.07,13.59-12.05,10.24-36.11-10.08-72.23-20.09-108.24-30.51-24.84-7.18-48.05-4.91-70.22,9.02-21.37,13.43-43.16,26.2-64.81,39.19-38.47,23.09-76.98,46.13-115.46,69.21-20.59,12.35-29.5,30.89-24.22,50.24,5.42,19.86,25.95,33.59,49.04,33.14,11.52-.22,21.89-3.67,31.9-9.18,39.21-21.55,78.53-42.9,120.57-65.82-6.52,23.67,3.52,37.89,18.96,49.45,6.39,4.79,13.21,9.12,20.27,12.84,29.35,15.46,60.92,24.34,93.62,28.09,30.27,3.47,59.71,1.43,85.77-18.47,14.57-11.12,31.38-19.27,47.04-29,4.91-3.05,7.91-4.1,12.73,1.42,12.14,13.9,27.08,16.03,43.29,7.31,10.58-5.69,21-11.71,31.15-18.12,16.17-10.2,21.74-28.48,12.43-45.03Zm-109.04,35.66c-21.86,12.62-43.23,26.08-64.92,38.99-18.17,10.81-38.15,8.28-57.5,5.85-31.08-3.91-61.05-12.3-88.69-27.66-4.54-2.53-9.18-5.17-13.03-8.6-6.69-5.95-15.97-11.19-12.28-22.51,3.17-9.7,18.66-17.63,29.79-15.38,18.38,3.71,36.79,7.34,54.58,13.48,3.77,1.3,7.79,1.92,11.53,3.31,6.82,2.54,12.38,.66,14.81-5.81,2.84-7.56-1.56-12.01-8.73-14.3-30.12-9.61-60.33-18.76-96.94-19.16-11.99-1.03-26.6,3.76-41.1,11.99-38.3,21.74-77.29,42.26-115.93,63.4-11.44,6.26-22.93,9.32-35.41,3.08-16.73-8.37-18.99-25.01-4.51-36.7,5.25-4.23,11.52-7.18,17.34-10.69,51.47-31.07,103.72-60.92,154.09-93.68,26.87-17.47,52.3-21.53,82.56-11.38,34.38,11.53,69.85,19.8,104.78,29.69,3.24,.92,6.64,2.23,9.17,.14,10.76-8.89,14.3-.94,18.83,7.09,14.58,25.85,29.42,51.57,44.49,77.14,3.27,5.54,3.13,8.2-2.94,11.71Zm84.16-7.93c-9.63,5.71-19.35,11.29-29.11,16.8-7.66,4.32-14.2,2.46-18.49-4.9-25.41-43.62-50.63-87.34-75.82-131.08-1.35-2.35-1.76-5.25-2.14-6.42-.27-6.99,2.4-10.73,6.88-13.33,9.69-5.63,19.38-11.24,29.1-16.81,8.18-4.68,14.8-2.5,19.32,5.29,25.32,43.67,50.49,87.42,75.67,131.17,4.7,8.17,2.4,14.65-5.42,19.29Zm-316.9,66.16c-70-.12-126.8,56.71-126.89,126.97-.09,70.05,56.68,127,126.83,127.22,69.52,.22,127.33-57.59,127.14-127.13-.19-70.16-56.98-126.94-127.09-127.05Zm-.25,232.83c-58.14,0-104.87-47.57-105.28-106.02-.36-51,38.95-104.59,105.7-105.82,57.67-1.07,105.52,48.24,105.38,106.24-.14,58.32-47.51,105.6-105.81,105.6Zm-303.81,88.76c3.48-.29,6.64,1.27,8.63,4.57,4.1,6.81,8.18,13.65,11.84,20.7,2.56,4.92,1,9.66-3.35,12.65-4.72,3.24-10.44,3.37-13.9-1.49-5.04-7.07-9.73-14.62-13.15-22.57-3.25-7.57,1.65-13.82,9.93-13.87ZM687.28,164.35c4.44-.11,7.62,1.87,9.83,5.69,3.42,5.9,7.28,11.57,10.34,17.64,2.72,5.4,3.17,11.4-2.87,14.87-5.92,3.41-11.73,2.28-15.52-4-3.73-6.18-7.61-12.32-10.65-18.84-3.71-7.93,.79-15.22,8.88-15.35ZM360.83,426.6c.19-5.19,1.93-9.48,7.57-10.77,6.39-1.46,10.63,1.18,13.5,7.11,7.74,16.01,20.77,22.37,36.76,18.27,7.46-1.91,14.2-5.49,14.25-14.01,.05-8.15-5.92-13.07-13.32-15.19-8.02-2.3-16.49-3.08-24.46-5.52-17.93-5.48-27.91-16.74-28.84-31.43-1.02-16.05,7-28.42,24.61-35.99,5.34-2.29,7.51-4.82,7.17-10.53-.4-6.75,1.97-12.08,9.9-12.19,8.24-.11,11.64,4.87,11.02,12.41-.5,6.1,2.57,8.17,7.58,10.22,12.05,4.91,20.17,13.97,25.61,25.8,3.28,7.14,2.36,12.85-4.71,16.11-6.78,3.13-11.09-.8-14.54-6.72-9.22-15.79-18.35-20.34-31.92-16.29-6.94,2.07-12.71,5.96-13.43,13.68-.79,8.4,5.64,12.23,12.25,14.28,8.34,2.59,17.23,3.39,25.61,5.89,17.55,5.23,29.33,19.87,29.32,35.48,0,15.4-10.96,29.03-29.08,33.94-5.86,1.59-6.83,4-6.59,8.93,.38,7.83-3.77,12.66-11.31,12.42-7.18-.23-10.62-5.69-9.66-12.62,1-7.19-3.63-8.48-8.61-10.34-15.42-5.77-25.23-16.56-28.69-32.95Z"/>
</svg>