<?xml version="1.0" encoding="UTF-8"?>
<svg id="Layer_1" data-name="Layer 1" xmlns="http://www.w3.org/2000/svg" viewBox="0 0 800 800">
  <defs>
    <style>
      .cls-1 {
        fill: none;
      }

      .cls-2 {
        fill: #010101;
      }
    </style>
  </defs>
  <rect class="cls-1" width="800" height="800"/>
  <path class="cls-2" d="M749.74,236.3c-4.16-3.75-6.42-7.19-6.81-13.28-1.63-25.31-19.89-44.97-43.42-48.03-23.21-3.03-45.65,11.86-53.97,35.94-16.99,49.17-33.96,98.34-50.8,147.56-2.38,6.96-6.4,11.72-12.92,15.46-33.82,19.43-67.54,39.06-101.02,59.08-37.26,22.29-55.98,55.41-56.03,98.91-.03,34.53,.07,69.07-.12,103.6-.02,3.62,2.43,8.64-3.29,10.57-8.4,2.83-9.03,9.44-9,16.86,.14,29.6,0,59.2,.09,88.8,.04,13.79,3.72,17.53,17.46,17.59,27.14,.12,54.29,.03,81.43,.03,26.73,0,53.47,.07,80.2-.03,14.33-.05,18.41-4.06,18.48-18.2,.12-25.9,.28-51.8-.09-77.7-.15-10.44,4.18-23.14-10.91-28.08-.69-.23-1.15-2.11-1.17-3.24-.48-20.52-2.17-40.57,17-56.13,25.83-20.97,49.86-44.13,74.99-65.97,11.57-10.06,19.47-22.07,23.38-36.79,17.47-65.74,34.86-131.5,52.39-197.22,5.36-20.08-1.01-36.34-15.86-49.74Zm-126.87,116.46c15.39-44.53,31.08-88.95,46.33-133.52,4.1-11.99,12.28-17.84,23.72-19.61,8.92,.33,15.6,4.01,20.43,10.68,6.46,8.93,5.19,12.49-5.39,15.17-20.15,5.1-32.47,17.89-38.61,37.53-9.9,31.65-20.18,63.19-30.38,94.75-1.87,5.79-2.64,10.89-12.3,7.74-10.16-3.32-5.44-8-3.8-12.73Zm-37.48,326.75c-.45,18.88-.37,37.78-.04,56.67,.11,6.29-1.63,8.58-8.28,8.55-43.96-.26-87.92-.28-131.87,.02-6.83,.05-8.17-2.47-8.07-8.57,.31-18.89,.39-37.79-.04-56.67-.15-6.78,1.54-9.14,8.72-8.99,21.76,.47,43.54,.17,65.32,.17,21.77,0,43.55,.26,65.32-.15,7.01-.13,9.11,1.99,8.94,8.97Zm152.26-384.54c-15.82,59.79-32.2,119.43-48.04,179.21-2.96,11.17-8.2,20.23-16.9,27.8-22.94,19.98-44.97,41.06-68.56,60.23-22.52,18.3-34.49,40.31-31.18,69.53,1.22,10.75-1.7,14.81-13.65,14.46-32.47-.95-64.99-.84-97.47-.04-10.77,.27-12.95-3.17-12.49-13.07,.82-17.64,.23-35.35,.23-53.03,0-16.86-.24-33.72,.06-50.57,.57-32.04,14.37-57.18,41.68-73.79,35.44-21.55,71.44-42.18,107.33-62.98,13.87-8.04,28.46-4.91,35.7,7,7.54,12.4,3.11,27.01-11.3,35.49-20.88,12.29-41.92,24.29-62.98,36.26-7.92,4.5-14.14,10.29-8.85,19.66,5.38,9.54,13.33,6.73,21.2,2.1,21.23-12.51,42.78-24.49,63.95-37.1,24.08-14.35,32.06-37.21,22.2-63.37-1.88-5-2.02-9.44-.43-14.3,12.07-37.01,23.99-74.07,36.19-111.04,3.89-11.8,15.34-19.38,26.32-18.27,10.72,1.08,20.72,10.63,22.02,21.9,.96,8.36-2.94,16.07-5.02,23.9Zm-349.76,366.3c0-5.65-.9-11.46-6.57-13.46-6.52-2.29-5.81-6.81-5.81-11.69,.03-34.13,.1-68.26,0-102.38-.14-44.82-19.3-78.93-58-101.77-32.53-19.2-65.05-38.42-97.84-57.16-7.62-4.35-12.08-9.78-14.9-18.12-16.59-48.89-33.64-97.64-50.68-146.37-8.31-23.75-31.53-38.61-54.47-35.24-23.84,3.5-41.08,22.86-42.35,48.75-.29,5.82-2.99,8.62-6.74,12-14.83,13.38-21.52,29.55-16.15,49.63,16.4,61.33,33.68,122.45,48.66,184.12,6.17,25.41,18.52,44.61,38.41,60.88,22.89,18.72,44.48,39.05,66.5,58.83,12.77,11.47,19.87,38.4,14.54,53.48-.6,1.71-1.37,2.8-3.09,3.33-9.21,2.82-9.22,10.21-9.19,17.92,.12,28.37,.03,56.74,.06,85.11,.02,17.28,2.88,20.23,19.77,20.26,26.33,.04,52.65,.01,78.98,.01,27.15,0,54.3,.1,81.45-.05,12.87-.07,17.29-4.29,17.37-16.8,.18-30.43,.04-60.85,.08-91.28ZM85.3,212.35c4.12-7.93,11.29-11.52,19.39-12.82,12.61,1.32,21.69,6.93,25.79,18.62,15.96,45.58,31.69,91.25,47.47,136.89,1.45,4.18,4.02,8.17-3.69,9.9-6.01,1.35-9.95,3.53-12.53-4.85-9.88-32.09-20.73-63.88-30.71-95.94-6.42-20.6-19.2-34.64-40.47-38.59-11.31-2.1-8.37-7.18-5.23-13.22Zm118.44,357.45c-21.99-19.2-43-39.59-65.72-57.86-16.55-13.31-26.18-29.18-31.36-49.64-15.27-60.39-31.8-120.46-47.81-180.66-3.83-14.4,2.64-27.17,15.85-31.47,11.61-3.78,26.32,3.44,30.67,16.42,12.74,38.07,24.83,76.35,37.31,114.5,1.58,4.84-.33,8.73-1.94,12.97-8.75,23.08-1.21,47.44,19.71,60.26,22.75,13.94,46.13,26.86,69.19,40.29,7.51,4.37,14.77,4.38,19.11-3.57,4.26-7.8,.62-13.94-6.99-18.27-21.05-11.97-41.98-24.16-62.92-36.34-15.82-9.2-20.97-23.71-13.2-36.81,7.42-12.5,22.14-14.76,37.81-5.6,34.04,19.9,68.02,39.89,102.03,59.83,30.35,17.79,44.86,44.6,45.2,79.41,.15,16.04,.03,32.08,.03,48.11,0,18.51-.27,37.02,.14,55.51,.15,6.9-1.81,9.23-8.96,9.16-35.38-.33-70.76-.29-106.14-.02-6.33,.05-9.09-1.52-8.44-8.19,.48-4.89,.01-9.86,.11-14.8,.4-21.44-7.44-39.06-23.68-53.24Zm150.31,174.94c-21.77-.38-43.55-.14-65.32-.14-21.77,0-43.55-.22-65.32,.13-6.31,.1-8.63-1.49-8.5-8.15,.4-19.7,.33-39.42,.02-59.13-.09-5.52,1.8-6.87,7.05-6.85,44.37,.18,88.74,.24,133.11-.04,6.76-.04,8.2,2.35,8.08,8.57-.36,18.88-.43,37.79,.02,56.67,.17,7.14-2.26,9.07-9.15,8.95ZM540.26,43.62c-46.57-22.14-91.16-15.68-131.5,16.06-7.45,5.86-11.15,5.65-17.91-.23-19.14-16.64-42.03-25.76-67.13-27.81-52.14-4.24-100.09,23.19-122.13,68.81-22.71,47.02-14.59,102.14,22.71,140.23,54.07,55.22,109.11,109.47,163.84,164.05,9.32,9.3,14.28,9.21,23.85-.33,54.43-54.27,108.92-108.49,163.06-163.04,23.61-23.8,35.31-52.93,35.74-92.48-2.1-44.73-24.34-83.3-70.53-105.26Zm18.37,178.65c-50.64,51.15-101.73,101.85-152.43,152.95-5.05,5.09-7.95,4.62-12.72-.19-50.43-50.76-101.37-101.02-151.52-152.05-29.41-29.93-36-73.86-18.29-110.65,18.16-37.71,56.57-59.86,98.65-55.85,24.59,2.34,45.38,13.32,62.75,30.98,13.2,13.42,16.4,13.22,29.99-.17,54.93-54.14,140.87-35.09,165.79,36.74,3.4,9.79,4.94,19.86,4.89,30.22-.19,26.19-8.63,49.36-27.1,68.02Zm-72.12-43.93c-.14-8.81-4.89-13.61-13.95-13.64-9.46-.03-18.92-.28-28.37,.08-5.43,.21-7.21-1.77-7.05-7.06,.3-9.44,.21-18.91,.02-28.36-.17-8.74-4.46-13.93-13.6-13.99-16.03-.1-32.07-.14-48.11,.03-7.89,.08-12.15,4.45-12.35,12.33-.19,7.8-.72,15.69,.09,23.41,1.07,10.35-1.52,14.13-13.11,13.86-39.83-.93-36.47-3.66-36.43,36.17,0,7.4,.14,14.8-.03,22.19-.24,10.16,4.56,15.28,14.72,15.47,11.06,.2,25.78-3.76,32.21,1.81,7.46,6.47,1.92,21.59,2.37,32.93,.38,9.63,4.96,14.44,14.41,14.56,11.51,.15,23.03,.05,34.54,.05,23.56,0,25.33-1.75,25.34-24.96q0-24.4,23.82-24.4c3.7,0,7.41,.1,11.1-.05,9.45-.38,14.32-5.46,14.4-14.83,.13-15.21,.2-30.42-.04-45.62Zm-37.41,35.88c-39.94-.5-36.75-3.66-36.68,36.04,.02,11.53-11.28,18.15-21.94,13-3.51-1.7-2.53-4.77-2.57-7.44-.12-8.21,.06-16.43-.07-24.65-.2-13.14-3.88-16.9-16.7-17.11-7.4-.12-14.9-.82-22.17,.16-10.75,1.45-10.96-4.48-10.59-12.27,.33-6.86-1.67-14.3,9.97-12.66,7.25,1.02,14.77,.31,22.17,.16,12.81-.25,17.02-4.33,17.31-16.88,.18-7.39,.88-14.91-.16-22.16-1.59-10.98,4.72-10.61,12.24-10.4,7.06,.2,14.21-1.29,12.71,10.14-1,7.67,0,15.59-.23,23.39-.33,10.81,4.77,16,15.51,15.93,7.4-.05,14.86,.62,22.18-.16,9.82-1.05,13.95,2.23,11.42,12.28,3.01,11.13-2.67,12.74-12.39,12.62Z"/>
</svg>