<?xml version="1.0" encoding="UTF-8"?>
<svg id="Layer_1" data-name="Layer 1" xmlns="http://www.w3.org/2000/svg" viewBox="0 0 800 800">
  <defs>
    <style>
      .cls-1 {
        fill: #020202;
      }

      .cls-2 {
        fill: none;
      }
    </style>
  </defs>
  <rect class="cls-2" width="800" height="800"/>
  <path class="cls-1" d="M306.14,413.41c0,17.16-.01,17.31-15.01,15.96-71.99-6.51-101.26-62.66-105.51-113.23-.47-5.57,1.28-6.89,6.67-7.13,21.24-.93,20.75-1.02,25.74,19.9,8.5,35.59,28.64,65.32,74.01,69.54,11.63,1.08,17.28,4.55,14.1,14.96Zm140.57-175.64c-16.24,16.72-16.12,16.57,1.9,32.35,3.8,3.33,5.98,3.17,9.22-.22,4.67-4.9,9.6-12.98,14.62-13.14,4.79-.15,10.12,7.86,14.69,12.78,3.69,3.97,6.08,3.73,10.05,.11,16.68-15.18,17.07-15.28,1.56-31.45-4.71-4.92-2.39-6.96,1.03-10.49,13.87-14.28,13.77-14.37-.35-28.26-.81-.79-1.63-1.58-2.34-2.46-3.46-4.28-6.63-3.93-10.02,.23-2.13,2.62-5.04,4.63-7.04,7.33-4.85,6.53-8.59,6.89-14.56,.37-11.93-13.02-11.94-12.14-25.03-.28-7.59,6.88-8.71,11.91,0,18.03,4.02,2.82,7.78,6.01,11.62,9.01-2.87,3.26-4.06,4.73-5.36,6.08Zm-150.11-19.4c-20.88,0-20.4,0-20.73,20.6-.14,8.63,3.33,9.66,10.6,9.59,34.77-.31,69.54-.14,104.3-.14,22.35,0,22.06,0,21.85-22-.06-6.54-1.96-8.31-8.32-8.19-19.64,.37-39.3,.14-58.95,.14-16.25,0-32.5,0-48.75,0Zm315.84-94.98c-.34,.16-.69,.44-1.03,.45-18.89,.37-17.81,13.09-17.67,26.74,.49,49.16,0,98.33,.38,147.49,.07,8.64-1.74,11.78-11.08,11.46-20.02-.68-20.03-.13-20.03-20.57,0-50.3-.22-100.6,.21-150.89,.07-8.42-1.89-10.58-10.47-10.56-144.02,.3-288.05,.28-432.07,.04-8.52-.01-11.36,1.7-11.33,10.94,.35,113.45,.33,226.91,.04,340.36-.02,9.17,2.05,12.19,11.75,12.11,58.21-.47,116.43-.05,174.64-.44,8.33-.06,10.87,1.75,10.6,10.42-.63,19.82-.12,19.84-20.38,19.84-35.53,0-71.07,.2-106.6-.17-7.43-.08-9.85,1.95-9.53,9.48,.58,13.59,.68,27.25-.03,40.83-.43,8.37,1.82,10.92,10.53,10.81,38.55-.51,77.12,.11,115.67-.46,8.85-.13,10.52,2.56,10.3,10.72-.53,19.57-.11,19.58-19.47,19.58-51.03,0-102.06,0-153.1,0-20.05,0-24.12,4-24.19,23.6-.09,24.1-.08,24-24.17,21.88-3.99-.35-6.44-.98-6.29-5.69,.32-10.2-.67-20.54,.69-30.58,3.24-23.8,21.8-39.76,46.45-38.9,11.91,.41,14.83-3.24,13.95-14.42-1.01-12.78-.56-25.71-.1-38.55,.24-6.61-2.15-8.49-8.47-8.23-10.57,.43-21.16,.18-31.75,.1-15.99-.11-20.72-4.88-20.73-21.14-.03-94.92-.02-189.85-.02-284.77,0-26.09-.27-52.19,.19-78.28,.12-6.62-1.8-8.77-8.19-10.16-24.03-5.23-39.46-25.68-37.19-48.14,2.48-24.5,21.34-41.37,46.94-41.4,85.43-.11,170.86-.04,256.3-.04s170.86-.08,256.3,.06c22.39,.04,39.53,14.03,44,35,4.67,21.94-5.22,42.26-25.07,51.51Zm-5.07-46.53c-3.48-9.88-12.05-10.02-20.6-10.01-83.49,.02-166.97,.01-250.46,.01-40.42,0-80.84,0-121.26,0-43.44,0-86.89-.04-130.33,.03-13.1,.02-20.01,5.23-20.22,14.76-.22,10.02,7.2,15.75,20.6,15.66,6.41-.04,12.82-.71,19.23-.71,154.89-.04,309.77-.04,464.66,0,8.29,0,16.65,1.07,24.87,.35,11.25-.98,17.06-10,13.52-20.08Zm152.46,636.58c-.03,31.5-18.36,49.71-50.15,49.73-107.71,.05-215.42,.06-323.12,0-31.29-.02-50.26-18.51-50.32-50.02-.22-108.13-.22-216.27,0-324.4,.06-31.34,19.07-49.71,50.61-49.74,107.71-.08,215.42-.09,323.12,0,31.63,.03,49.84,18.44,49.86,50.02,.05,54.44,.01,108.89,.01,163.33,0,53.69,.04,107.38-.02,161.07Zm-30.02-17.15c0-101.72,.01-203.44-.01-305.15,0-15.48-4.14-21.07-17.09-21.11-67.28-.21-134.56-.05-201.83-.21-5.76-.01-7.86,1.56-7.81,7.64,.26,35.16,.23,70.33,.02,105.5-.03,5.75,1.48,7.96,7.6,7.88,24.94-.3,49.89-.32,74.83,.01,6.49,.09,8.42-1.96,8.31-8.37-.35-20.79-.13-41.59-.13-62.39,0-20.45,0-20.07,20.96-20.36,7.54-.1,9.34,2.14,9.25,9.42-.4,30.62-.12,61.26-.19,91.88-.03,15.09-4.5,19.66-19.52,19.7-36.28,.09-72.57,.05-108.85,.02-18.87-.01-23.05-4.26-23.07-23.51-.04-39.33-.18-78.65,.14-117.98,.06-7.25-1.73-9.69-9.33-9.55-25.32,.47-50.64,.09-75.97,.21-16.18,.08-20.03,4.03-20.04,20.22-.04,53.69-.02,107.39-.01,161.08,0,53.69-.03,107.39,.02,161.08,.01,15.16,4.58,20.37,19.15,20.39,108.1,.13,216.2,.07,324.3,.07,.76,0,1.52,.01,2.27-.05,11.28-.96,16.35-5.92,16.94-17.18,.33-6.41,.07-12.85,.07-19.28ZM245.5,233.57c-.16,25.38-20.35,45.63-45.3,45.42-24.72-.21-45.47-21.17-45.37-45.82,.1-25.03,20.45-45.02,45.76-44.94,25.6,.08,45.08,19.74,44.92,45.34Zm-30.33-.81c-.59-8.83-5.64-13.76-14.47-14.18-8.58-.4-15.09,6.2-15.06,14.75,.03,8.53,6.55,14.93,15.09,14.8,8.52-.13,15.02-6.8,14.44-15.37Zm181.2,391.71c1.69,19.95-2.27,17.78,14.7,17.77,17.52,0,16.02,3.02,16.13-14.92,.1-16.05,.02-16.05-16.93-16.05-7.97-1.25-15.11-1.02-13.9,13.2Zm30.8,63.85c-.06-8.44,3.17-17.99-12.5-16.46-17.79,1.73-17.92,.39-17.93,13.13q0,17.38,14.65,17.38c15.8,0,15.87,0,15.78-14.04Zm43.33,14.4c17.01-1.61,17.13-.36,17.13-14.08q0-16.35-13.25-16.36-16.8,0-16.8,16.45c-.49,6.82-2.13,15.41,12.92,13.99Z"/>
</svg>