<?xml version="1.0" encoding="UTF-8"?>
<svg id="Layer_1" data-name="Layer 1" xmlns="http://www.w3.org/2000/svg" viewBox="0 0 800 800">
  <defs>
    <style>
      .cls-1 {
        fill: none;
      }

      .cls-2 {
        fill: #010101;
      }
    </style>
  </defs>
  <rect class="cls-1" width="800" height="800"/>
  <path class="cls-2" d="M750.78,245.01c-11.78-5.13-16.73-16.58-11.73-28.07,3.44-7.91,2.21-13.91-3.99-19.55-4.49-4.09-8.89-8.32-12.85-12.91-6.47-7.49-13.46-8.83-22.61-4.68-9.4,4.26-22.53-1.12-25.7-10.62-3.31-9.89-9.55-13.16-19.32-12.4-6.04,.47-12.16,.37-18.22,.02-8.42-.49-13.48,2.88-16.67,10.9-4.56,11.5-16.15,16.52-27.15,11.74-8.81-3.83-15.44-2.06-21.58,4.81-4.04,4.52-8.36,8.83-12.85,12.91-6.87,6.24-8.41,13.25-4,21.48,2.49,7.5,2.39,7.83-2.84,9.54-4-4.47-4.24-13.22-12.64-12.63-8.67,.61-8.61-4.34-8.57-10.56,.17-27.95-.03-55.89,.13-83.84,.05-9.31-1.97-17.45-8.87-24.27-21.9-21.62-43.66-43.39-65.33-65.23-6.12-6.16-13.2-8.57-21.82-8.56-122.72,.12-245.45,.05-368.17,.11-18.26,0-27.91,9.28-27.92,27.58-.11,191.17-.1,382.34,0,573.51,0,19.26,10.05,28.74,29.5,28.75,53.87,.04,107.74-.02,161.61,.08,4.09,0,8.53-1.13,12.86,1.5-44.21,32.27-62.45,59.36-69.63,102.88-2.13,12.92,2.26,19.27,14.68,19.29,83.84,.17,167.68,.16,251.52,0,11.98-.02,16.68-6.23,14.75-18.18-6.57-40.8-26.36-73.45-60.35-97.27-3.09-2.17-6.14-4.4-11.54-8.28,41.07,0,79.05,.01,117.03,0,23.12,0,31.55-8.33,31.61-31.38,.07-25.92-.06-51.84,.11-77.76,.02-3.26-1.86-9.44,2.69-9.2,12.13,.64,15.92-8.18,20.56-16.71,4.1,4.3,3.89,8.2,1.58,11.91-6.18,9.92-2.86,17.48,5.21,24.39,4.3,3.68,8.25,7.79,12.05,11.99,5.67,6.27,11.78,7.18,19.6,3.82,11.26-4.83,22.99,.14,27.76,10.83,5.41,12.15,40.85,17.28,49.81,7.17,1.06-1.19,1.87-2.64,2.62-4.06,8.1-15.44,15.44-18.6,31.48-13.04,4.08,1.41,8.07,2.28,11.57-.4,9-6.93,16.9-15.06,24.03-23.87,3.07-3.79,2.17-8.15,.53-12.66-5.32-14.63-1.48-24.02,12.68-30.61,6.3-2.94,9.36-7.47,9.46-14.14,.12-8.1,.08-16.2,0-24.3-.06-6.33-3.39-10.49-8.92-13.31-15.17-7.71-18.46-15.54-13.05-31.36,1.23-3.59,2.46-7.25,.21-10.48-6.98-10.03-15.66-18.63-25.54-25.64-6.18-4.39-12.14,1.52-18.25,2.86-7.08,1.56-14.1-1.47-17.83-7.02-2.32-3.45-3.87-10.78,2.41-13.74,6.27-2.95,12.55-7.41,20.41-2.38,7.08,4.53,13.83,2.55,19.54-3.65,4.66-5.06,9.57-9.91,14.57-14.64,5.65-5.35,7.09-10.98,3.94-18.53-5.19-12.46-.61-23.56,11.82-28.93,7.29-3.15,10.82-8,10.76-15.78-.05-6.88-.21-13.78,.06-20.65,.33-8.45-3.62-13.47-11.2-16.77ZM454.92,66.89c10.47,11.07,19.85,20.99,29.13,30.8,.1-.07-.48,.7-1.08,.72q-29.89,.92-28.05-31.52Zm-30.87,674.06c3.03,9,1.93,11.88-8.33,11.71-34.38-.56-68.77-.21-103.16-.21s-68.78-.23-103.16,.16c-8.78,.1-11.42-1.57-8.33-10.78,16-47.78,60.78-80.56,111.22-80.77,50.56-.21,95.71,32.3,111.76,79.9Zm-164.21-157.32c-.18-29.87,23-53.15,52.95-53.18,29.43-.03,52.59,22.75,52.9,52.01,.31,29.86-22.83,53.68-52.33,53.87-29.75,.19-53.33-23.03-53.51-52.7Zm238.25,45c-39.67-.19-79.35-.1-121.32-.1,13.55-22.47,17.06-45.34,9.87-70.67,23.75,0,46.77,0,69.78,0,4.05,0,8.14,.28,12.14-.21,7.38-.9,12.11-5.05,11.83-12.8-.29-7.84-5.19-11.42-12.86-11.42-26.73-.02-53.47-.3-80.2,.08-9.29,.13-16.4-1.78-23.77-8.51-27.17-24.8-68.75-25.6-98.31-3.12-28.52,21.69-38.13,60.97-22.95,93.88,1.67,3.62,3.5,7.15,5.14,10.5-1.69,3.46-4.47,2.21-6.59,2.21-55.9,.08-111.8-.12-167.69,.26-8.63,.06-10.75-2.57-10.74-10.92,.25-186.73,.27-373.45,.09-560.18,0-7.69,1.66-10.24,9.86-10.22,115.84,.27,231.69,.27,347.53,.01,7.91-.02,10.6,1.91,10.2,10.05-.66,13.74-.23,27.53-.17,41.31,.09,18.34,5.77,24.12,23.73,24.18,14.58,.05,29.17,.28,43.74-.11,6.38-.17,8.35,1.94,8.27,8.31-.32,25.11-.22,50.22-.06,75.34,.04,5.57-.5,9.27-7.67,8.99-9.33-.36-11.53,7.42-14.18,14.23-6.18,15.87-28.99,26.04-43.95,18.42-10.98-5.59-19.02-3.91-26.51,5.32-3.3,4.07-7.04,7.92-11.13,11.17-12.85,10.21-19,21.22-8.57,37.21,5.84,8.95-.46,10.71-8.46,10.68-36.45-.17-72.91,.04-109.36-.15-9.29-.05-18.38,.89-17.98,12.48,.38,11.12,9.35,12.26,18.67,12.19,33.2-.23,66.41-.09,99.61-.09-13.78,5.32-20.09,13.78-18.13,28.38,.98,7.33-5.08,5.73-9.18,5.75-23.09,.09-46.18,.04-69.26,.05-2.84,0-5.69-.15-8.5,.08-7.79,.65-13.64,4.28-13.33,12.66,.31,8.24,6,11.79,14.06,11.78,23.49-.02,46.99-.01,70.48,.04,7.86,.02,16.37-1.91,20.76,7.93,.78,1.74,3.95,2.99,6.21,3.41,12.2,2.29,17.06,10.65,21.56,21.44,4.12,9.87,5.42,18.06-.53,27.08-1.29,1.96-2.73,4.83-2.23,6.8,3.49,13.65-5.3,12.02-13.79,11.97-34.02-.19-68.05-.05-102.07-.07-7.86,0-14.08,2.85-14.42,11.31-.36,8.95,5.74,12.76,14.11,13.22,3.23,.18,6.48,.08,9.72,.08,40.91,0,81.82,.01,122.73,0,6.04,0,11.85-.28,17.24,3.9,5.62,4.36,11.58,1.15,17.18-1.28,16.88-7.32,38.74,1.38,45.12,18.13,3.02,7.93,6.32,15.13,16.72,14.5,5.73-.34,5.02,3.99,5.02,7.55,.01,26.33-.12,52.66,.04,78.98,.03,5.49-1.39,8.03-7.47,8Zm70.82-152.5c-4.56,3.12-10.14,5.4-15.57,6.47-11.6,2.28-19.01,8.34-21.43,20.02-2,9.66-9.63,6.37-15.57,6.88-5.93,.51-11.4,.38-12.89-7.34-2.18-11.26-9.37-17.22-20.53-19.37-4.68-.9-9.62-2.52-13.5-5.18-11.06-7.58-22-9.59-33.74-1.88-6.81,4.47-9.38-2.16-12.62-5.49-3.55-3.64-10.99-6.47-6.26-13.62,7.87-11.9,5.36-22.67-1.94-33.66-2.4-3.62-3.9-8.1-4.82-12.39-2.39-11.25-7.83-19.35-19.81-21.62-9.27-1.76-7.29-8.97-7.65-15.27-.37-6.54,.15-11.91,8.18-13.54,10.65-2.17,16.46-9.05,18.69-19.73,1.14-5.47,3.06-11.19,6.17-15.74,7.14-10.46,8.61-20.67,1.37-31.42-4.36-6.47,.66-9.69,4.47-13,4.17-3.63,7.12-11.51,14.74-6.54,11.48,7.49,21.86,5.38,32.6-1.68,4.29-2.82,9.54-4.82,14.61-5.67,11-1.85,17.54-8.13,19.71-18.57,1.93-9.27,8.5-7.83,14.93-8.03,6.76-.21,12.84-.49,14.57,8.47,1.96,10.13,8.48,15.87,18.82,17.89,5.07,.99,10.27,2.9,14.63,5.64,11.09,6.95,21.87,9.89,33.73,1.8,6.43-4.39,9.52,1.76,12.87,5.31,3.55,3.76,10.91,6.75,6.15,13.71-8.16,11.94-5.04,22.58,1.8,33.66,2.92,4.73,4.89,10.31,6.13,15.77,2.1,9.22,6.87,15.23,16.3,17.37,7.87,1.79,11.83,6.39,9.5,14.88,2.63,9.72-2.38,14.02-11.15,16.21-7.64,1.91-12.24,6.84-14.1,14.93-1.43,6.24-3.64,12.63-6.98,18.03-6.69,10.8-9.32,21.04-1.74,32.58,5.43,8.27-3.71,10.99-7.2,15.64-3.24,4.32-6.98,7.72-13.13,3.56-9.83-6.64-19.48-5.8-29.32,.92Zm66.51-209.52c-3.46-2.74-6.39-6.16-9.51-9.31-8.65-8.74-8.24-11.11,2.94-17.23,13.41-7.35,28.99-5.89,40.78,3.81,11.61,9.55,16.04,26.34,10.72,40.7-4.73,12.79-18.21,22.84-32.12,23.33-5.9,.81-10.31-.99-5.49-8.24,9.24-13.9,4.2-23.96-7.32-33.06Zm5.76,176.17c17.18-2.68,31.72,4.87,38.35,19.86,6.49,14.69,2.3,32.44-10.11,42.78-12.78,10.65-30.04,11.29-43.59,1.89-5.94-4.12-9.23-8.08-1.67-13.66,.96-.71,1.72-1.7,2.55-2.57,6.65-7,14.38-13.28,19.67-21.19,6.52-9.75-5.79-17.53-5.2-27.11Zm41.08-32.25c6.22,4.34,12.6,5.25,19.28,1.32,3.24-1.91,5.85-1.71,8.64,1.04,2.92,2.89,3.57,5.41,2.14,9.6-4.56,13.41,6.86,41.17,19.38,47.51,3.08,1.56,5.67,2.49,5.71,6.58,.04,4.12-1.06,7.34-5.28,8.37-8.85,2.15-11.82,9.01-13.88,16.7-2.96,11.09-13.11,20.41-5.43,34.18,2.57,4.61-4.1,9.44-11.26,7.59-14.37-3.71-40.95,6.97-47.46,19.18-1.64,3.08-2.88,5.38-6.92,5.44-4.25,.06-6.41-1.73-8.44-5.34-7.05-12.58-33.19-23.05-47.34-19.35-7.59,1.99-13.77-3.21-10.64-9.89,4.05-8.63,1.72-15.37-2.41-22.77-2.09-3.75-6.16-8.36,.95-12.09,6.3-3.31,9.21-.85,12.33,4.73,16.42,29.3,42.06,40.77,71.82,32.59,26.01-7.14,44.35-32.54,43.54-60.27-.89-30.21-20.13-51.39-53.06-58.47-1-.21-1.89-.92-4.17-2.07,11.06-6.47,20.67-12.84,32.5-4.58Zm49.41-131.05c-12.67,6.25-23.64,33.37-19.29,47.4,1.11,3.58,.89,5.91-1.62,8.7-2.93,3.26-5.68,3.9-9.51,1.75-5.7-3.2-11.74-3.65-17.12,.4-11.91,8.97-22.31,3.64-35.8-3.85,13.14-3.19,23.2-5.71,31.99-11.73,21.12-14.46,30.92-39.46,25.19-64.98-5.27-23.46-26.2-42.2-51.13-45.79-23.78-3.42-48.34,8.68-60.61,29.91-1.62,2.8-2.77,5.9-4.62,8.53-2.72,3.86-6.25,2.56-9.73,.92-3.57-1.69-4.79-4.34-3.1-7.87,4.51-9.43,9.82-18.09,3.99-29.66-2.14-4.24,2.96-9.3,9.98-7.63,16.73,3.99,39.21-5.45,49.12-20.36,4.11-6.18,10.87-5.52,14.62,1.41,6.44,11.94,33.73,23.62,46.6,19.69,3.65-1.11,6.64-2.26,9.89,1.13,3.01,3.14,3.62,6.01,1.43,9.71-3.74,6.32-2.33,12.17,1.1,18.31,2.74,4.9,4.62,10.33,6.38,15.69,2.01,6.14,5.14,11.02,11.67,12.83,3.89,1.08,6.41,2.83,6.33,7.48-.08,4.28-1.98,6.14-5.76,8.01Zm-362.24-69.55c31.17,0,62.34,.03,93.51-.02,8.52-.01,17.46,.24,17.37,11.66-.09,11.47-8.87,12.91-18.08,12.91-61.94-.03-123.88,0-185.81-.04-2.82,0-5.73,.06-8.43-.61-6.61-1.64-10.96-5.89-10.38-12.94,.57-6.96,4.99-10.8,12.23-10.83,13.76-.05,27.53-.11,41.29-.13,19.43-.02,38.86,0,58.29,0Zm-.39-35.08c-31.18,0-62.35-.12-93.53,.08-8.89,.06-17.44-1.18-17.78-11.69-.36-11.3,8.42-13.05,17.83-13.04,62.35,.09,124.71,.07,187.06,.01,9.29,0,17.89,1.36,17.65,13.06-.19,9.21-6.93,11.67-15.27,11.63-31.99-.13-63.97-.05-95.96-.05Zm-210.82,108.63c-38.88,0-70.37,31.12-70.72,69.94-.36,39.04,31.64,71.26,70.76,71.26,39.19,0,70.8-31.96,70.53-71.3-.26-38.88-31.56-69.88-70.57-69.89Zm-.45,116.67c-25.37-.2-46.19-21.56-45.7-46.89,.5-25.69,21.39-45.71,47.21-45.24,25.17,.46,45.01,20.84,44.92,46.15-.1,25.64-20.84,46.19-46.43,45.99Zm1.31-278.33c-39.46-.48-71.52,30.94-71.6,70.17-.07,38.85,32.73,71.76,71.13,71.37,38.42-.4,70.03-32.34,70.19-70.91,.16-38.98-30.6-70.14-69.73-70.62Zm-1.24,116.95c-25.08-.34-46.2-22.14-45.76-47.23,.44-25.27,20.57-45.04,45.93-45.1,26.09-.07,46.26,19.97,46.2,45.89-.06,25.43-21.37,46.78-46.37,46.44Zm.8,206.98c-39.9-.14-71.41,30.97-71.16,70.27,.24,38.47,31.97,70.43,70.34,70.86,38.55,.43,71.02-32.15,70.98-71.25-.03-39.15-30.74-69.74-70.16-69.88Zm-.14,116.6c-24.8,.28-46.4-21.38-46.44-46.56-.03-25.74,20.29-45.65,46.49-45.54,26.19,.11,45.98,20.15,45.63,46.22-.34,24.91-20.94,45.6-45.69,45.88Zm360.48-269.42c-45.39-.37-82.29,35.57-82.92,80.77-.63,44.98,36.02,82.2,81.16,82.4,45.28,.21,82.33-36.26,82.53-81.24,.2-44.23-36.61-81.58-80.77-81.94Zm-1.15,138.69c-31.54,.02-57.16-25.52-57.19-57.01-.03-31.39,25.7-57.15,57.13-57.18,31.22-.03,57.42,26.04,57.4,57.12-.02,31.21-25.99,57.06-57.33,57.08Zm-381.21-87.86c.8,.08,1.88-.14,2.37,.29,12.48,11.02,18.67-.71,26.27-7.23,2.46-2.11,4.67-4.56,7.31-6.39,5.68-3.94,11.58-4.06,16.5,1.1,4.95,5.19,4.92,11.63,.06,16.39-10.69,10.47-22.01,20.3-33.28,30.17-4.12,3.61-9.18,3.89-13.34,.22-5.73-5.07-11.21-10.5-16.25-16.26-3.13-3.58-3.19-8.07-.78-12.51,2.47-4.53,6.35-5.91,11.13-5.79Zm-.59-162.31c.74,.1,2.37-.18,3.07,.5,11.64,11.3,17.89,.37,25.23-6.02,2.14-1.86,4.08-3.95,6.28-5.72,6.05-4.85,12.8-6.27,18.48-.34,5.75,6,4.33,12.64-1.61,18.12-9.81,9.06-19.68,18.06-29.65,26.94-4.72,4.21-10.46,5.48-15.48,1.33-5.88-4.85-11.66-10.2-16.11-16.33-5.66-7.81-.01-18.1,9.81-18.49Z"/>
</svg>