<?xml version="1.0" encoding="UTF-8"?>
<svg id="Layer_1" data-name="Layer 1" xmlns="http://www.w3.org/2000/svg" viewBox="0 0 800 800">
  <defs>
    <style>
      .cls-1 {
        fill: none;
      }

      .cls-2 {
        fill: #010101;
      }
    </style>
  </defs>
  <rect class="cls-1" width="800" height="800"/>
  <path class="cls-2" d="M350.91,577.55c0,11.96-.05,23.91,.02,35.87,.07,10.76-4.75,16.41-15.94,15.8-3.18-.17-6.38-.17-9.56,0-9.27,.52-12.19,5.29-6.97,13.07,24.57,36.61,49.47,73,74.35,109.4,4.49,6.56,9.76,6.71,14.28,.11,24.91-36.39,49.81-72.79,74.39-109.39,5.26-7.83,2.4-12.64-6.8-13.19-3.18-.19-6.38-.19-9.56,0-11.12,.63-16.09-4.83-16.06-15.67,.06-18.73,0-37.46,0-56.19,0-27.9,.35-55.8-.17-83.69-.21-11.3,4.01-17,14.95-20.51,99.13-31.78,160.13-131.03,144.11-233.64-13.8-88.4-85.03-159.5-174.28-173.95-112.16-18.16-217.01,54.58-239.5,166.14-23.87,118.4,54.95,231.43,174.09,249.5,7.07,1.07,14.28,1.16,21.42,1.76,9.09,.76,17.26,3.38,16.03,14.6-1.13,10.32-9.09,11.39-17.83,10.96-45.13-2.24-86.46-15.99-123.07-42.3-58.66-42.14-92.1-99.14-99.48-171.46-12.73-124.67,77.76-232.3,189.95-253.49,124.55-23.52,246.35,55.76,274.71,179.56,26.52,115.76-38.61,232.56-146.83,272.74-7.2,2.67-9.27,6.13-9.17,13.62,.44,35.07,.43,70.14,0,105.21-.09,7.48,1.22,10.91,9.44,12.45,22.8,4.27,34.42,27.94,21.92,47.3-25.62,39.68-52.29,78.72-79.68,117.21-13.1,18.4-38.91,17.85-52.02-.67-26.84-37.93-53.15-76.25-78.64-115.1-13.19-20.11-1.69-44.25,22.35-48.99,6.92-1.36,8.81-3.79,8.59-10.7-.56-17.92,.05-35.87-.29-53.8-.17-8.95,2.98-15.28,12.22-15.7,9.55-.43,12.96,6.17,12.98,14.88,.02,12.75,0,25.51,.01,38.26Zm181.69-219.86c10.01-12.95,11.05-19.93,3.73-25.68-6.92-5.44-13.97-2.17-24.11,9.94-33.49,39.96-75.97,59.06-128.29,53.01-88.3-10.21-145.14-94.27-122.27-180.06,14.88-55.8,69.05-101.84,122.96-104.53,70.16-3.49,126.48,31.03,149.2,91.34,8.12,21.55,11.29,43.7,8.79,66.62-.97,8.88,2.52,15.29,11.53,16.2,7.72,.78,12.31-4.05,13.55-11.96,1.3-8.29,2.14-16.59,1.7-24.98-5.65-107.97-101.19-176.01-193.48-161.8-84.02,12.94-148.21,86.28-145.2,170.82,3.6,100.98,86.62,166.84,169.32,164.93,55.94,1.31,105.34-28.65,132.56-63.86Zm160.52,83.82c-.01-30.28,.02-60.56-.06-90.83-.02-8.9-4.57-15.11-13.52-14.67-8.06,.4-11.91,6.02-11.88,14.8,.21,68.92,.15,137.84,.07,206.77,0,8.53,3.67,13.23,12.28,14.46,11.31,1.62,12.77,4.84,6.3,14.45-14.86,22.06-30.11,43.86-44.93,65.96-5.32,7.93-9.97,8.22-15.33,.35-15.42-22.64-30.94-45.23-46.35-67.88-4.74-6.97-4.41-12.48,5.47-12.77,10.95-.31,14.8-6.74,14.89-16.15,.25-27.49,.22-54.98,.01-82.47-.07-8.63-2.8-16.53-13.24-16.25-10.09,.26-12.72,7.46-12.64,16.54,.2,21.11-.1,42.23,.16,63.34,.08,6.33-.79,10.33-7.44,13.9-15.85,8.52-21.2,27.81-11.44,43,17.16,26.71,34.91,53.11,53.76,78.63,12.69,17.18,37.7,16.15,50.17-1.35,17.73-24.9,34.93-50.2,51.56-75.84,10.2-15.71,5.68-35.08-10.46-44.31-6.55-3.75-7.51-7.74-7.47-14.07,.19-30.28,.09-60.56,.09-90.83,0-1.59,0-3.19,0-4.78ZM132.33,350.52c.07-8.87-4.16-14.21-12.16-14.54-8.24-.35-12.83,5.34-13.21,13.78-.14,3.18-.08,6.37-.08,9.56,0,59.36,0,118.73-.01,178.09,0,5,.59,9.24-5.5,12.82-19.43,11.45-23.01,29.77-10.35,48.55,15.76,23.38,31.68,46.65,47.71,69.84,14.68,21.23,39.6,22,54.47,1.12,17.04-23.93,33.52-48.27,49.65-72.82,11.72-17.84,7.3-36.2-11.09-46.57-5.12-2.89-6.17-5.95-6.12-11.1,.2-21.51-.07-43.03,.16-64.54,.1-9.4-2.04-17.31-12.95-17.43-10.41-.12-12.91,7.93-12.96,16.53-.18,27.09-.16,54.18-.01,81.27,.06,9.9,3.57,16.83,15.22,17.06,8.8,.17,10.17,5.36,5.69,11.99-15.77,23.37-31.73,46.62-47.73,69.83-4.12,5.98-8.92,6.53-13.25,.2-15.93-23.26-31.84-46.53-47.54-69.95-4.34-6.47-3.37-11.79,5.58-12.1,11.59-.4,14.56-6.86,14.48-17.21-.27-33.46-.1-66.93-.1-100.4,0-34.66-.17-69.32,.11-103.98Zm293.52-100.35c-14.75-4.4-29.98-7.18-44.83-11.28-9.1-2.51-17.07-6.74-17.35-18.23-.27-11.3,6.53-17.47,15.5-21.89,18.23-8.97,36.86-5.98,52.62,8.55,6.48,5.98,13,8.17,19.66,1.28,6.13-6.33,4.36-12.99-1.06-19.09-6.45-7.26-13.96-13.59-23.37-15.7-11.51-2.58-16.46-7.84-14.65-20.1,1.25-8.45-4.57-14.1-12.6-14.05-7.33,.05-13.33,5.35-12.14,13.3,2,13.4-4.61,17.67-16.08,21.68-22.46,7.86-34.52,26.58-33.67,48.06,.78,19.73,12.05,33.14,35.84,40.58,15.06,4.71,30.67,7.61,45.87,11.89,8.22,2.31,15.53,6.27,16.48,16.42,.98,10.56-4.39,17.2-12.92,22.12-17.77,10.26-39.52,7.73-54.73-6.88-6.41-6.15-13.22-8.29-19.8-1.82-6.59,6.49-4.53,13.52,1.45,19.93,6.63,7.12,14.21,13.58,23.56,15.37,11.97,2.3,15.43,8.32,13.87,19.59-.82,5.94,1.8,11.31,7.95,13.16,4.53,1.36,9.36,1.38,13.35-2.59,4.58-4.55,4.14-10.27,3.73-15.7-.57-7.49,1.68-10.85,9.61-12.98,23.83-6.37,39.93-26.34,39.96-47.47,.03-21.7-12.03-36.93-36.26-44.16Z"/>
</svg>