<?xml version="1.0" encoding="UTF-8"?>
<svg id="Layer_1" data-name="Layer 1" xmlns="http://www.w3.org/2000/svg" viewBox="0 0 800 800">
  <defs>
    <style>
      .cls-1 {
        fill: #020202;
      }

      .cls-2 {
        fill: none;
      }
    </style>
  </defs>
  <rect class="cls-2" width="800" height="800"/>
  <path class="cls-1" d="M720.85,48.27c0-15.95-3.28-19.33-18.84-19.33-137.66-.04-275.32-.04-412.97,0-15.62,0-18.4,2.78-18.42,18.12-.04,55.27,.01,110.54-.08,165.81,0,3.67,1.15,7.56-.83,11.01-2.7,.42-3.54-1.65-4.68-2.97-14.8-17.26-33.3-25.44-56.25-24.53-18.15,.71-36.42,1.25-54.5-.08-42.05-3.1-68.18,16.71-82.76,54.59-2.21,5.75-4.6,11.46-6.42,17.33-11.24,36.25-7.35,73.56-6.55,110.47,.38,17.56,16.68,31.15,33.9,29.97,9.81-.67,10.41,2.72,10.3,10.54-.22,15.2,3.08,18.09,18.42,18.11,39.44,.03,78.88,.08,118.32-.03,12.74-.04,15.83-3.15,15.92-15.69,.18-23.19,.42-46.38,.11-69.57-.11-8.38,1.83-9.22,8.92-5.11,15.7,9.1,31.71,17.69,47.79,26.14,19.34,10.16,41.34,5.17,53.11-12.98,4.28-6.59,8.79-8.03,15.88-8.02,106.34,.18,212.67,.13,319.01,.12,17.51,0,20.61-2.93,20.62-19.81,.03-94.7,.04-189.39,0-284.09ZM325.99,352.49c-22.48-11.09-44.21-23.69-66.3-35.59-4.89-2.63-3.94-7.1-3.84-11.2,.21-8.24-3.39-14.18-11.64-14.26-8.89-.09-12.44,6.18-12.42,14.81,.06,32.05-.31,64.11,.14,96.16,.12,8.41-1.76,11.36-10.77,11.17-28.19-.61-56.41-.53-84.61-.02-7.97,.14-9.62-2.62-9.42-9.86,.46-17.37,.15-34.75,.15-52.13,0-17.38-.08-34.76,.03-52.14,.05-8.72-2.68-16.02-12.28-16.43-10.27-.44-12.37,7.53-12.41,15.92-.1,23.56-.08,47.12-.02,70.67,.02,7.56-1.15,14.8-10.56,14.64-8.61-.15-10.21-7.18-10.04-14.18,.76-31.53-3.23-63.38,6.21-94.33,.67-2.21,1.2-4.49,2.07-6.62,17.85-43.72,27.07-49.81,68.81-48.69,17.37,.47,34.78,.38,52.16,0,17.13-.38,31.41,6.37,38.45,21.2,17.69,37.27,46.63,61.09,83.79,76.66,7.52,3.15,14.31,7.81,14.68,17.57,.49,12.68-10.93,22.22-22.17,16.68Zm370.41-34.6c.03,8.01-2.08,10.43-10.26,10.41-101.65-.27-203.29-.17-304.94-.19-4.46,0-9.55,1.23-10.82-5.48-1.44-7.68-12.41-12.2-4.38-23.32,21.01-29.1,39.99-59.65,60.77-88.93,7-9.87-.61-11.3-5.6-15.33-5.79-4.67-9.7-6.63-15.13,1.79-19.46,30.16-40.21,59.5-59.84,89.57-4.52,6.93-7.7,6-14.59,3.6-29.87-10.42-40.16-29-38.11-61.66,3.43-54.64,1.15-109.66,.72-164.51-.07-8.88,2.52-10.79,11.02-10.74,63.38,.37,126.77,.2,190.15,.2s126.77,.18,190.15-.21c8.77-.05,10.93,2.38,10.9,11-.32,84.6-.3,169.21-.03,253.81Zm-188.74,374.72c-.03-27.32-10.95-49.61-32.37-66.21-34.36-26.63-73.02-34.74-114.74-22.1-38.27,11.6-77.84,38.41-75.03,99.33,.68,14.65-.17,29.36-.28,44.05-.16,21.3,1.14,22.63,21.92,22.64,29.77,0,59.54,0,89.31,0v.41c31.31,0,62.63-.25,93.93,.12,12.74,.15,17.09-2.95,17.21-15.64,.19-20.87,.06-41.74,.04-62.61Zm-24.2,43.19c.39,7.96-1.98,10.73-10.28,10.57-25.89-.49-51.8-.18-77.7-.18-25.51,0-51.03-.26-76.54,.16-7.61,.13-10.2-2-9.75-9.81,1.1-18.88-.93-38.26,2.57-56.63,5.93-31.14,30.69-44.6,58.4-53.2,24.03-7.46,47.3-4.28,69.85,6.21,28.49,13.26,45.41,33.78,43.41,66.96-.72,11.94-.55,23.97,.04,35.92Zm272.35-43.7c-.36-27.66-11.67-50.18-33.74-66.75-34.38-25.83-72.74-33.68-113.93-20.91-40.91,12.69-77.25,40.69-74.65,99.7,.71,16.2-.11,32.46-.13,48.69-.02,14.67,2.73,17.42,17.75,17.46,31.32,.07,62.64,.02,93.96,.02,0,.11,0,.22,0,.33,30.93,0,61.86-.28,92.78,.13,13.42,.18,17.86-2.87,17.99-16.07,.2-20.87,.24-41.74-.03-62.61Zm-35.26,54.3c-25.5-.61-51.03-.22-76.55-.22-25.91,0-51.82-.2-77.72,.14-6.97,.09-9.6-1.76-9.19-9.1,.87-15.43,1.04-30.9,1.3-46.35,.34-20.57,9.92-36.1,25.99-48.06,35.79-26.65,86.63-26.25,122.11,1.01,15.89,12.21,25.17,27.85,24.75,48.55-.29,14.29-.54,28.62,.15,42.89,.42,8.56-1.92,11.36-10.85,11.15Zm-460.95-52.58c.29-27.85-10.99-50.04-32.28-67.47-45.11-36.93-114.04-36.58-158.59,.97-18.92,15.94-29.97,35.98-30.45,61.21-.4,20.87-.96,41.73-1.26,62.59-.23,16.23,2.65,19.15,18.57,19.18,30.93,.06,61.86,.02,92.8,.02,0,.24,0,.48,0,.72,32.08,0,64.16-.12,96.24,.07,10.24,.06,14.96-4.61,14.94-14.67-.05-20.87-.19-41.74,.03-62.61Zm-33.39,52.47c-26.29-.27-52.58-.11-78.87-.11-25.52,0-51.04-.2-76.55,.13-6.92,.09-9.7-1.65-9.22-9.06,.72-11.17,.44-22.4,.55-33.61,.4-42.27,18.33-65.38,59.24-76.89,32.53-9.15,61.96-2.17,88.85,17.03,16.42,11.72,24.98,28.14,25.38,48.4,.3,15.07-.29,30.16,.24,45.21,.26,7.58-2.97,8.97-9.61,8.9ZM177.38,48.54c-37.04-.15-66.73,29.53-67.05,67.01-.32,37.82,29.83,68.19,67.35,67.85,37.19-.33,66.55-30.18,66.48-67.58-.07-37.39-29.59-67.13-66.78-67.29Zm-.54,110.43c-23.88-.09-42.3-18.72-42.37-42.83-.06-24.23,18.09-42.85,42.04-43.11,24.4-.27,43.67,18.59,43.71,42.78,.05,24.24-19.07,43.26-43.38,43.16Zm467.65,297.48c-33.89-.12-61.93,28.03-61.82,62.09,.11,34.26,27.87,61.85,62.06,61.67,34.21-.18,61.52-28.1,61.12-62.49-.39-33.83-27.75-61.15-61.36-61.27Zm.01,99.76c-20.65,.13-37.2-16.57-37.28-37.61-.07-21.06,16.33-37.9,36.96-37.95,20.51-.05,37.53,16.98,37.61,37.63,.08,20.64-16.79,37.81-37.3,37.93Zm-496.62-99.76c-33.45,.13-60.84,27.51-61.43,61.4-.59,33.93,27.32,62.26,61.43,62.36,34.3,.1,61.75-27.37,61.75-61.79,0-34.25-27.76-62.1-61.76-61.97Zm.36,99.76c-20.69,.07-37.08-16.61-37.09-37.76-.02-21.18,16.33-37.84,37.06-37.79,20.57,.06,37.29,17,37.28,37.76-.01,20.85-16.65,37.72-37.25,37.78Zm249.27-99.75c-33.9-.73-61.85,26.36-62.9,60.98-1.01,33.21,26.4,62,59.77,62.75,34.56,.78,62.32-25.63,63.27-60.2,.94-34.24-26.09-62.8-60.13-63.54Zm-1.54,99.76c-20.7-.1-36.74-16.76-36.66-38.07,.08-21.14,16.56-37.71,37.26-37.47,20.64,.24,37.11,17.19,36.99,38.07-.12,20.78-16.97,37.58-37.59,37.47ZM658.73,194.88c0,31.26-.46,62.52,.26,93.76,.24,10.36-5.09,9.91-12.07,9.74-6.57-.16-12.54,1.35-12.46-9.41,.48-62.51,.49-125.03-.02-187.54-.09-10.4,5.19-9.86,12.09-9.64,6.43,.2,12.7-1.57,12.45,9.32-.72,31.24-.25,62.51-.25,93.76Zm-159.26,42.37c0,17.34-.6,34.71,.21,52.01,.53,11.17-6.49,8.9-12.75,9.07-6.27,.16-11.87,1.21-11.7-8.89,.61-34.67,.58-69.36,0-104.02-.16-9.77,4.96-9.44,11.52-9.07,6.12,.35,13.4-2.4,12.91,8.9-.76,17.31-.2,34.67-.2,52.01Zm71.07,3.38c0-16.17,.45-32.35-.18-48.49-.33-8.57,4.59-8.72,10.12-7.75,5.28,.92,14.22-4.75,14.17,7.28-.13,33.1-.1,66.21-.02,99.31,.03,11.98-8.99,6.23-14.27,7.21-5.7,1.05-10.32,.51-10-7.9,.62-16.53,.18-33.1,.18-49.65Zm-46.47,18.52c0-10.77,.36-21.56-.13-32.3-.33-7.31,4.16-7.67,8.78-6.53,5.27,1.3,14.81-5.47,15.11,6.04,.57,21.91,.6,43.86-.01,65.76-.32,11.4-9.88,4.73-15.17,6.02-4.74,1.15-9.04,.49-8.71-6.69,.49-10.75,.13-21.53,.13-32.3Z"/>
</svg>