<svg id="Layer_1" data-name="Layer 1" xmlns="http://www.w3.org/2000/svg" viewBox="0 0 79.81 79.81"><defs><style>.cls-1{fill:none;}.cls-2{fill:#1d3460;}.cls-3{fill:#e55c63;}</style></defs><title>accountability</title><rect class="cls-1" width="79.63" height="79.63"/><rect class="cls-1" width="79.81" height="79.81"/><path class="cls-2" d="M76.9,57.44a7.17,7.17,0,0,0-4,3.7,7,7,0,0,1-3.19,3,3.28,3.28,0,0,0-1.94,3.44c.12,2.35.23,4.71.36,7.07,0,.78.42,1.57-.53,1.66s-.85-.67-.88-1.5c-.1-2.51-.25-4.91-.33-7.42-.07-2.23.22-3.42,2.2-4.43a8.76,8.76,0,0,0,3.23-3A8.24,8.24,0,0,1,76.3,56c.65-.21,0-.93-.37-1.17a3.48,3.48,0,0,0-2.53-.66,6.56,6.56,0,0,0-2.61,1.41c-.65.5-1.79,1.94-2.57,1.57s-.67-.53-.66-1.32c0-1.57,0-3.15,0-4.71,0-.26,0-.51,0-.72h0c0,.42-.07.24,0,0v0c0-1.43-.07-8.53-.06-9.9a1.73,1.73,0,0,0-1.76-1.43c-.91,0-1.11,1.31-1.11,2,0,2.82.27,5.67.26,8.49,0,.79.33,1.74-.86,1.75s-.65-.83-.64-1.66c0-3.69-.17-7.48-.17-11.18a8.11,8.11,0,0,0-.24-1.72c-.14-.37-1.23-.51-1.65-.41-.6.15-.83.85-.83,1.47,0,3.74.13,7.87.13,11.6a5.67,5.67,0,0,1,0,.92c-.08.64-.1,1-.81,1s-.61-.38-.65-1c0-.76,0-1.52,0-2.28V40.27a1.34,1.34,0,0,0-1.29-1.47,1.29,1.29,0,0,0-1.39,1.39c0,3.43.06,7.71.06,11.14,0,.75.07,1.19-.73,1.16s-.52-.64-.51-1.36c0-.23,0-.42,0-.65,0-2.25-.12-5.5-.11-7.75,0-.6-.54-.8-1.31-.82a1.69,1.69,0,0,0-1.57,1.4c0,2.48,0,5.35,0,7.83,0,2.25.06,4.11,0,6.35a9.49,9.49,0,0,0,1,3.86,9.08,9.08,0,0,1,1.45,3.81.7.7,0,0,1-.63.81.69.69,0,0,1-.91-.52,8.66,8.66,0,0,0-1-2.83A11.31,11.31,0,0,1,50.85,57V43.89c0-2.24,1-3.34,3.28-3.48.46,0,.5-.19.59-.58a3,3,0,0,1,3.36-2.58c.54,0,.7-.17.91-.58a2.89,2.89,0,0,1,3-1.75,2.77,2.77,0,0,1,2.57,1.92.81.81,0,0,0,1,.64,3,3,0,0,1,3.28,3.15c0,1.46,0,7.72,0,9.78,0,.11,0,.23,0,.35h0a1.15,1.15,0,1,1,0,.14v.16c0,1.29,0,2.57,0,4.08a12.65,12.65,0,0,1,4.5-2.45,3.9,3.9,0,0,1,4.5,2.19A1.79,1.79,0,0,1,76.9,57.44ZM53.21,68.9c-.15,2-.23,4-.36,6-.06.79-.45,1.41.43,1.43s1-.61,1-1.36c.1-1.79.38-3.5.52-5.29,0-.21,0-.42,0-.63a1.1,1.1,0,0,0-1.68-.12ZM22.87,55.11a13.28,13.28,0,0,1,4.44-2.41,4,4,0,0,1,4.53,2.15,1.75,1.75,0,0,1-.91,2.56,7.86,7.86,0,0,0-4.17,4A6.39,6.39,0,0,1,23.86,64a3.29,3.29,0,0,0-2.05,3.47c.13,2.36.19,4.72.33,7.08.05.83.39,1.66-.63,1.71s-.7-.81-.73-1.65c-.08-2.4-.24-4.88-.33-7.27a4.38,4.38,0,0,1,2.68-4.7A6.73,6.73,0,0,0,25.88,60,8.28,8.28,0,0,1,30.33,56c.55-.17-.13-1-.56-1.32a2.83,2.83,0,0,0-2.35-.51,9.43,9.43,0,0,0-3.08,1.87c-.62.49-1.2,1.65-1.91,1.32s-.85-1-.84-1.79c0-4.38-.11-8.62-.11-13,0-.5,0-1.6,0-2.09a1.71,1.71,0,0,0-1.77-1.44c-1,0-1.1,1.3-1.1,2,0,2.67.22,5.46.22,8.12,0,.23,0,.46,0,.69,0,.75.11,1.42-.82,1.44s-.65-.64-.65-1.43c0-3.58-.11-7.28-.11-10.87,0-.3-.14-1-.15-1.28a1.48,1.48,0,0,0-1.32-1.4,1.53,1.53,0,0,0-1.39,1.36c0,3.69.23,8,.23,11.71,0,.3,0,.61,0,.91-.08.67.06,1-.72,1s-.75-.46-.75-1.16c0-2.93.07-6.39,0-9.33,0-.71-.07-2-1.32-2s-1.4,1.33-1.4,2.09c0,3.2,0,6.86,0,10.06,0,.81.39,1.53-.56,1.52s-.65-.59-.65-1.34c0-2.29-.1-6.11-.12-8.4,0-.66-.33-.82-1.31-.85a1.58,1.58,0,0,0-1.62,1.49c0,4.38.07,9.41.07,13.79a9,9,0,0,0,1.17,4.48,12.6,12.6,0,0,1,1.29,2.76c.18.64.34,1.11-.26,1.35a.91.91,0,0,1-1.25-.51C6.59,63,5,61,4.91,58.5c0-.42,0-.84,0-1.26V44c0-2.41.85-3.36,3.26-3.57.48,0,.52-.23.61-.61A3,3,0,0,1,12,37.25a.91.91,0,0,0,1-.62,2.83,2.83,0,0,1,3-1.71,2.9,2.9,0,0,1,2.63,1.85c.16.35.17.73.8.73,2.33,0,3.46,1.17,3.47,3.54,0,4.23,0,8.46,0,12.69ZM8.74,71c0-.34.08-.69.11-1,.06-.75.1-1.28-.7-1.3s-1,.49-1,1.26c-.08,1.7-.21,3.4-.29,5.11,0,.7-.28,1.22.47,1.25s1-.36,1-1.07c.09-1.36.28-2.56.37-3.93,0,0,0-.29,0-.29Z" transform="translate(-0.19 -0.19)"/><path class="cls-3" d="M46.83,44.87a.36.36,0,0,1,0-.23c-.05-.46,0-.52-.37-.72a1,1,0,0,0-1,.21.44.44,0,0,0-.13.31s0,.21,0,.22c.08,1.6.15,3,.2,4.56,0,1-.3,2,.85,1.92s.78-1,.73-2C47,47.73,46.89,46.3,46.83,44.87ZM46.26,9.62c0,.58,0,1.86,0,2.43,0,1.7,0,3.38,0,5.06.53.1,1.05.23,1.58.31,0-2.39,0-4.79,0-7.18,0-2.75-1.32-4.12-4-4.11-.73,0-.74-.43-.93-.83a3.36,3.36,0,0,0-3.05-2.16,3.31,3.31,0,0,0-3.43,2,1,1,0,0,1-1.17.72,3.42,3.42,0,0,0-3.76,3c-.1.43-.15.66-.7.71C28,9.76,27,10.87,27,13.66V20h0c.07.52.18.79.59.91a.87.87,0,0,0,.73-.19c.13,0,.24-.68.24-.67,0-2.64,0-4.61,0-7.07a1.83,1.83,0,0,1,1.87-1.72c1.14,0,1.53.23,1.53,1,0,2.65.15,7.08.14,9.73,0,.88-.27,1.55.75,1.56s.66-.82.65-1.76c0-3.71-.07-8,0-11.67,0-.88.08-2.45,1.62-2.43s1.52,1.55,1.53,2.39c0,3.41,0,7.42,0,10.82,0,.81,0,1.28.86,1.34s.74-.35.84-1.13a7.52,7.52,0,0,0,0-1.06c0-4.29-.25-9.3-.25-13.59a1.75,1.75,0,0,1,1.62-1.57,1.73,1.73,0,0,1,1.53,1.62c0,.35.17,1.13.17,1.49,0,4.15.13,8.45.13,12.6,0,.92-.42,1.69.75,1.66s1-.8.95-1.67c0-.26,0-.53,0-.79,0-3.1-.24-6.33-.25-9.43,0-.87.1-2.37,1.27-2.37A2,2,0,0,1,46.26,9.62ZM30,34.15A10.32,10.32,0,0,1,28.63,29c0-1.69,0-3.17,0-5a.68.68,0,0,0-.15-.43,1.17,1.17,0,0,0-.49-.19h-.35a1.2,1.2,0,0,0-.41.2c-.16.12-.14.15-.17.3A.27.27,0,0,0,27,24v5c0,.49,0,1,0,1.46.1,2.88,1.94,5.16,2.69,7.82a1,1,0,0,0,1.44.59c.7-.27.52-.81.3-1.56A14.88,14.88,0,0,0,30,34.15ZM61.93,21.27A2.27,2.27,0,0,0,59.6,19.6a3.82,3.82,0,0,1-4.12-3A2.18,2.18,0,0,0,53.93,15c-1.35-.4-2.39.12-3.12,1.75s-1.31,2.92-3.35,2.68a4,4,0,0,0-1.12.17,2.36,2.36,0,0,0-1.4,3.88A9.1,9.1,0,0,0,46.4,25a1.88,1.88,0,0,1,.79,2.35,8.44,8.44,0,0,0-.32,2,2.33,2.33,0,0,0,3.32,2.41,12,12,0,0,0,1.92-1,1.85,1.85,0,0,1,2.19,0A7.75,7.75,0,0,0,56.75,32c2.08,0,3.25-1.43,2.7-3.18A3.84,3.84,0,0,1,61,24,2.29,2.29,0,0,0,61.93,21.27Zm-1.5,1.59A11.54,11.54,0,0,1,59,24a3.72,3.72,0,0,0-.81,3.91c.24.72.7,2.16-.44,2.62A2.56,2.56,0,0,1,55.33,30c-1.79-1.22-2.7-1.15-4.48.13a5.94,5.94,0,0,1-1.65.66c-.76.18-1.12-.3-1-1,0,0,.07-.77.08-.81.68-3.69.28-4-2.61-6.41a1.12,1.12,0,0,1-.12-1.06,1,1,0,0,1,.86-.55c.26,0,1,0,1.23,0,1.89-.2,3.32-.6,4.11-3.1a2.53,2.53,0,0,1,1.46-1.86c1.2.35,1.54,2,2,2.94a2.57,2.57,0,0,0,2.17,1.67c.86.1,1.51.22,2.37.33a2.13,2.13,0,0,1,1,.8,1.35,1.35,0,0,1-.28,1.19ZM30.8,42.3c-.89,0-1.14.57-1.18,1.46-.09,2-.24,4-.34,5.93,0,.81-.32,1.42.54,1.45S31,50.73,31,49.91c.1-1.58.32-3,.42-4.56,0,0,0-.34,0-.34,0-.4.1-.8.13-1.19C31.68,42.94,31.73,42.33,30.8,42.3Zm20.49-7.82a2.26,2.26,0,0,0-.16-.26c0,.07-.2-.2-.24-.24a3.22,3.22,0,0,0-.51-.38,7.15,7.15,0,0,1-2.2,1.74c-2.41,1.24-3.22,2.79-3.11,5.45v.15c0,.33.07.34.14.44s.1.08.14.12a1.2,1.2,0,0,0,.18.07l.17,0a1.22,1.22,0,0,0,.33,0c.11,0,.27-.12.25-.1a.55.55,0,0,0,.36-.38V41a3.83,3.83,0,0,1,2.39-4,7.45,7.45,0,0,0,2.19-1.53v0s.1-.46.1-.37a2,2,0,0,0,0-.35C51.33,34.77,51.22,34.35,51.29,34.48Z" transform="translate(-0.19 -0.19)"/></svg>