<svg id="Layer_1" data-name="Layer 1" xmlns="http://www.w3.org/2000/svg" viewBox="0 0 79.81 79.81"><defs><style>.cls-1{fill:none;}.cls-2{fill:#1d3460;}.cls-3{fill:#e55c63;}</style></defs><title>agile_team</title><rect class="cls-1" width="79.63" height="79.63"/><rect class="cls-1" width="79.81" height="79.81"/><path class="cls-2" d="M23.43,34.9a10.91,10.91,0,0,0,3.08-5.44l0,0v0a.24.24,0,0,1,0-.08c0-.36,0-.73,0-1.09v-.42a.12.12,0,0,1,0-.1c0-.7,0-1.4,0-2.1a.28.28,0,0,1,0-.09l0-.09c-.08-.29-.15-.59-.25-.88A10.06,10.06,0,0,0,6.64,28.73a10.91,10.91,0,0,0,3.1,6.2,12,12,0,0,0-7.87,8C1,45.8,1.5,48.76,1.43,51.68c0,.71.58,1,1.15,1.31a33,33,0,0,0,9.18,3c1.09.19,2,.28,2.15-.93s-.72-1.49-1.77-1.67a36.37,36.37,0,0,1-5.56-1.16c-2.76-1-2.92-1.4-2.92-4.24,0-.52,0-1.82,0-2.34a8.6,8.6,0,0,1,8.54-8.54c2.47-.09,6.5-.2,9-.16a7.41,7.41,0,0,1,3.86,1.43A13.76,13.76,0,0,1,27.36,37,12.24,12.24,0,0,0,23.43,34.9Zm-6.82.55a8,8,0,1,1,0-15.94,8.18,8.18,0,0,1,8.05,8A8.15,8.15,0,0,1,16.61,35.45Zm61.47,7.47a12,12,0,0,0-7.76-8c0-.1,0-.16,0-.19.28-.36.59-.71.87-1.07A9.51,9.51,0,0,0,72.76,24a9.74,9.74,0,0,0-7.82-6.45c-4.62-.8-9.78,1.81-11.44,7.7a7.36,7.36,0,0,1-.14,1.23l0,.24a.76.76,0,0,1,0,.16h0c0,.05,0,.09,0,.14,0,.73.07,1.47.07,2.21a11.15,11.15,0,0,0,3.19,5.67,15.34,15.34,0,0,0-3.73,2,11.13,11.13,0,0,1,2.45,1.57,7.24,7.24,0,0,1,3.92-1.28c2.52-.05,6.5,0,9,0,3.69.14,6,2.78,7.22,6.26a19.33,19.33,0,0,1,.63,5.3,2.78,2.78,0,0,1-2.12,2.74,37.44,37.44,0,0,1-6.2,2c-1.06.2-1.92.14-1.74,1.28s1.09,1.39,2.12,1.22a32.61,32.61,0,0,0,9.33-3c.58-.29,1.15-.66,1.14-1.33,0-2.92.39-5.86-.5-8.73Zm-14.7-7.47a8,8,0,1,1,7.95-8A8,8,0,0,1,63.38,35.45Z" transform="translate(-0.19 -0.19)"/><path class="cls-3" d="M59.81,53.91a15.46,15.46,0,0,0-5.47-13l0,0a1.27,1.27,0,0,1-.42-.41,2.81,2.81,0,0,0-.55-.54,7.43,7.43,0,0,0-.68-.43c-.56-.32-1.14-.59-1.7-.9l-.13-.08a1.71,1.71,0,0,1-.85-.2l-2-.69a13.93,13.93,0,0,0,4.72-7.86.55.55,0,0,0,.1-.26.74.74,0,0,0,0-.21c0-.11,0-.23,0-.34a9.92,9.92,0,0,1,0-1.09,8.53,8.53,0,0,1,0-.87c0-.59-.06-1.18-.07-1.77a.3.3,0,0,1,0-.1C50.73,16.78,42.46,12.3,35,15.6a13.21,13.21,0,0,0-7.83,10,5.52,5.52,0,0,1-.07,1.22.14.14,0,0,1,0,.06v1.37c0,.11,0,.22,0,.33a0,0,0,0,1,0,0,2,2,0,0,1,.11.59c0,.11,0,.21,0,.31a13.8,13.8,0,0,0,4.78,8.08c-.47.21-.78.34-1.08.49a2.88,2.88,0,0,1-1.37.37,1,1,0,0,1-.47.48,10.73,10.73,0,0,0-2.94,1.85,5,5,0,0,1-.72.73,13.61,13.61,0,0,0-4.83,8.09c-.63,3.33-.17,6.66-.3,10,0,.78.59,1.11,1.22,1.43a42.13,42.13,0,0,0,13,4.09A40.39,40.39,0,0,0,58.64,61a2,2,0,0,0,1.19-2.1C59.76,57.2,59.75,55.55,59.81,53.91ZM29,27.49A11.09,11.09,0,0,1,40,16.54,11.21,11.21,0,0,1,51,27.46,11.08,11.08,0,0,1,40,38.35,11,11,0,0,1,29,27.49Zm27,32a38.93,38.93,0,0,1-32.06,0,1.88,1.88,0,0,1-1.39-2.14c.2-2.44-.24-4.91.34-7.35A12.74,12.74,0,0,1,35.4,40c1.56,0,3.11,0,5,0a48.83,48.83,0,0,1,6.26.23,12.72,12.72,0,0,1,10.75,12.5c0,1.55-.08,3.12,0,4.65A1.88,1.88,0,0,1,56,59.5Z" transform="translate(-0.19 -0.19)"/></svg>