<svg id="Layer_1" data-name="Layer 1" xmlns="http://www.w3.org/2000/svg" viewBox="0 0 79.81 79.81"><defs><style>.cls-1{fill:none;}.cls-2{fill:#1d3460;}.cls-3{fill:#e55c63;}</style></defs><title>partnership</title><rect class="cls-1" width="79.63" height="79.63"/><rect class="cls-1" width="79.81" height="79.81"/><path class="cls-2" d="M78.4,38.46,72.13,21.21a2.15,2.15,0,0,0-2.91-1.35l-3.47,1.25a2.18,2.18,0,0,0-1.61,2.42c0,.25-.06.26-.26.24l-6.48-.89c-2.34-.31-4.67-.66-7-.92a23.23,23.23,0,0,0-10.58,1.3,32.4,32.4,0,0,0-5.58,2.81.6.6,0,0,1-.68,0,23.65,23.65,0,0,0-11.2-2.79c-2,0-3.91,0-5.87,0-.27,0-.42,0-.46-.37a2,2,0,0,0-1.38-1.73c-1.28-.49-2.55-.95-3.84-1.4A2.13,2.13,0,0,0,8.13,21c-.16.38-.29.77-.43,1.15L1.79,38.47A2.14,2.14,0,0,0,3.06,41.3c1.27.48,2.55,1,3.83,1.39a2,2,0,0,0,2.25-.57c.19-.21.31-.24.56-.1q2.37,1.4,4.77,2.76c.22.13.24.24.19.47a3.84,3.84,0,0,0,4.82,4.59c.32-.09.36,0,.43.28a3.82,3.82,0,0,0,4.63,2.79l.09,0c.33-.1.43-.08.52.28a3.81,3.81,0,0,0,4.63,2.76l.16,0c.31-.09.36,0,.43.26a3.83,3.83,0,0,0,6.33,1.9.43.43,0,0,1,.61-.07c1.18.7,2.37,1.4,3.57,2.05a3.77,3.77,0,0,0,4.77-.94,3.84,3.84,0,0,0,.88-2.71,3.89,3.89,0,0,0,4.13.27,3.82,3.82,0,0,0,2-3.64l.44.24a3.84,3.84,0,0,0,5.22-1.47,3.93,3.93,0,0,0,.49-1.71c0-.44,0-.44.41-.23a3.69,3.69,0,0,0,4.18-.24,3.65,3.65,0,0,0,1.47-3.92.46.46,0,0,1,.28-.6q2.64-1.5,5.26-3c.24-.14.37-.17.59.07a2,2,0,0,0,2.28.56c1.26-.44,2.52-.9,3.77-1.37A2.16,2.16,0,0,0,78.4,38.46ZM8.11,40.62c-.19.5-.38.59-.88.41L3.88,39.82c-.61-.22-.68-.4-.47-1Q6.22,31.15,9,23.46c.21-.56.42-1.12.61-1.68a.53.53,0,0,1,.56-.4l.26.07,3.46,1.26c.48.18.58.38.4.85Q11.21,32.1,8.11,40.62Zm12.12,6.72a2.17,2.17,0,0,1-3.78-2.13c.52-1,1.09-2,1.67-2.91a2.08,2.08,0,0,1,1.82-1,2.17,2.17,0,0,1,1.94,3.15c-.51,1-1.07,1.92-1.65,2.85Zm5.3,2.9a2.16,2.16,0,0,1-2.94.84,1.59,1.59,0,0,1-.27-.18,2.13,2.13,0,0,1-.62-2.73q2.3-4,4.64-8a2.15,2.15,0,0,1,2.45-.92,2.21,2.21,0,0,1,1.57,2.11,2.35,2.35,0,0,1-.3,1.1c-1.51,2.61-3,5.22-4.52,7.82Zm5.23,3a2.12,2.12,0,0,1-1.82,1.09,2.18,2.18,0,0,1-2-3.2c1-1.79,2-3.56,3.07-5.32a2.18,2.18,0,1,1,3.75,2.22h0c-1,1.74-2,3.48-3,5.21Zm6.83.22c-.52,1-1.1,2-1.7,3a2,2,0,0,1-1.67.94,2.17,2.17,0,0,1-2.13-3,19.41,19.41,0,0,1,1.81-3.16,2.12,2.12,0,0,1,2.87-.54A2.15,2.15,0,0,1,37.59,53.5Zm24.83-5.21a2.06,2.06,0,0,1-2.29.1c-1.32-.74-2.64-1.51-4-2.27l-8.59-5a.84.84,0,1,0-.82,1.45L56,48a2.17,2.17,0,0,1,1.1,2.52A2.12,2.12,0,0,1,54,51.78c-1.37-.75-2.71-1.55-4.06-2.33L44.65,46.4a1.06,1.06,0,0,0-.7-.22.81.81,0,0,0-.72.65.82.82,0,0,0,.44.93l3.47,2,2.74,1.59a2.17,2.17,0,0,1-.75,4.07,2.11,2.11,0,0,1-1.44-.33l-6.08-3.51a1,1,0,0,0-.67-.19A.84.84,0,0,0,40.68,53l3,1.77a2.15,2.15,0,0,1-1.81,3.9c-1.33-.64-2.58-1.44-3.87-2.17-.18-.1-.1-.21,0-.33l.87-1.51a3.85,3.85,0,0,0-3.33-5.91l-.19,0a3.94,3.94,0,0,0-3.73-5.64A6.43,6.43,0,0,0,32,41.85a3.85,3.85,0,0,0-7.1-2.55c-.49.82-1,1.65-1.43,2.47-.16,0-.18-.17-.23-.27a3.88,3.88,0,0,0-5.32-1.28,3.93,3.93,0,0,0-1.34,1.38c-.3.52-.6,1-.89,1.55-.11.22-.21.29-.45.15q-2.48-1.45-5-2.88c-.25-.14-.19-.29-.12-.49q1.65-4.5,3.28-9c.68-1.88,1.37-3.75,2-5.63a.42.42,0,0,1,.48-.34c2.57,0,5.14-.07,7.7.05a21.27,21.27,0,0,1,8.24,2.1l.28.16L29.66,28.7l-3.82,2.21a2.75,2.75,0,0,0-.9,4.25,4.93,4.93,0,0,0,6.41,1.42c2.11-1.17,4.2-2.39,6.28-3.62a4.17,4.17,0,0,1,4.54,0Q52,38.71,61.93,44.42a2.39,2.39,0,0,1,1.4,1.75,2.09,2.09,0,0,1-.91,2.12Zm7.42-7.81c-1.85,1.05-3.7,2.11-5.53,3.19a.43.43,0,0,1-.61-.06,9.64,9.64,0,0,0-1.81-1.13q-9.49-5.52-19-11a5.61,5.61,0,0,0-6,0L30.72,35a3.31,3.31,0,0,1-4.47-.92,1.07,1.07,0,0,1,.38-1.73c3-1.74,6-3.45,9-5.2a26.64,26.64,0,0,1,5.8-2.71,23.91,23.91,0,0,1,7-1,30.42,30.42,0,0,1,4.23.44l6.68.9c1.73.24,3.46.48,5.19.7a.47.47,0,0,1,.43.37l5.1,14c.11.3.08.43-.2.59Zm6.7-.76c-1.25.46-2.5.93-3.76,1.37-.35.12-.57-.09-.69-.42-.42-1.19-.86-2.39-1.29-3.58l-4.88-13.4c-.24-.65-.17-.79.48-1l3.28-1.19c.53-.19.73-.11.91.41q3.1,8.52,6.2,17.05l.08.26a.48.48,0,0,1-.33.53Z" transform="translate(-0.19 -0.19)"/><path class="cls-3" d="M6,39.37a1.49,1.49,0,1,1,1.48-1.49h0A1.48,1.48,0,0,1,6,39.37Zm67.35-3a1.49,1.49,0,1,0,1.48,1.48A1.48,1.48,0,0,0,73.32,36.4Z" transform="translate(-0.19 -0.19)"/></svg>