<?xml version="1.0" encoding="UTF-8"?>
<svg id="Layer_1" data-name="Layer 1" xmlns="http://www.w3.org/2000/svg" viewBox="0 0 800 800">
  <defs>
    <style>
      .cls-1 {
        fill: #020202;
      }

      .cls-2 {
        fill: none;
      }
    </style>
  </defs>
  <rect class="cls-2" width="800" height="800"/>
  <path class="cls-1" d="M509.27,178.49c-7.13,0-14.12,.02-21.11,0-7.37-.03-12.51-3.34-13.09-10.94-.59-7.6,4.01-12.24,11.27-12.77,19.83-1.44,39.7-2.58,59.58-3.26,8.77-.3,13.6,5.26,12.56,13.74-2.47,20.1-5.54,40.14-8.85,60.12-1.13,6.83-6.49,10.25-13.17,9.25-6.65-1-10.69-5.79-10.17-12.66,.59-7.87,2.21-15.66,3.42-23.68-4.05-1.51-5.69,1.78-7.79,3.6C383.91,321.66,226.93,408.3,55.26,469.28c-7.59,2.7-15.76,4.32-19.31-5-3.84-10.11,2.67-15.06,11.73-18.23,106.47-37.32,207.68-85.55,302.83-146.36,53.72-34.33,104.8-72.16,152.97-113.92,2.23-1.93,5.66-3.07,5.79-7.28Zm244.47,458.27c-20.47,7.81-30.1,30.9-21.04,50.53,4.28,9.26,3.54,16.37-4.29,23.29-7.74,6.84-15.13,14.19-21.97,21.93-6.97,7.88-14.1,8.33-23.33,4.14-19.73-8.97-42.41,.69-50.35,21.28-3.44,8.93-8.54,13.57-18.65,12.9-10.31-.69-20.74-.76-31.04,.01-10.97,.83-16.66-3.6-20.32-13.85-6.94-19.43-31.06-29.27-49.92-20.48-9.78,4.56-17.11,3.6-24.23-4.65-5.96-6.91-12.62-13.3-19.42-19.41-7.5-6.74-7.71-13.72-7.43-23.93,.39-13.98-.13-28.96-3.9-42.98-1.69-6.27-8.73-6.69-13.71-8.05-11.65-3.17-15.99-9.92-14.94-21.81,.87-9.88,.71-19.93,.03-29.84-.68-9.93,3.3-15.29,12.55-18.72,18.29-6.78,18.16-7.15,18.17-26.42,0-75.26,0-150.52,.01-225.78,0-19.44,1.6-20.98,21.23-20.99,18.32-.02,36.64,0,54.95,0,21.49,0,22.55,1.04,22.55,22,0,45.34,0,90.68,0,136.02,5.04-15.08,14.26-21.29,29.38-18.67,9.22,1.6,11.15-2.49,11.1-11.21-.38-59.73-.21-119.46-.19-179.19,0-17.47,2.47-19.88,20.03-19.89,19.51-.02,39.03-.02,58.54,0,18.69,.02,20.16,1.53,20.16,20.73,0,70.08,.06,140.17-.09,210.25-.01,6.29,1.05,11,6.32,15.44,8.49,7.16,15.58,15.98,23.95,23.31,8.23,7.21,9.24,14.55,4.65,24.28-8.88,18.87,.85,42.74,20.55,49.84,10.3,3.71,14.55,9.59,13.77,20.45-.71,9.9-.77,19.95,.02,29.84,.84,10.53-3.68,16.02-13.16,19.63Zm-130.86-379.36c.42,46.17,.13,92.35,.23,138.53,.04,17.43-2.12,34.68,9.09,50.98,5.43,7.9,8.16,16.46,18.88,18.5,3.42,.65,6.6,2.68,9.85,4.16,12.15,5.56,12.65,5.31,12.67-7.68,.04-34.23,.01-68.47,.01-102.71,0-34.24-.18-68.47,.15-102.7,.07-7.13-1.6-10.02-9.24-9.54-10.31,.64-20.73,.72-31.03-.01-8.37-.59-10.68,2.05-10.6,10.47Zm-138.94,70.45c.42,30.65,.17,61.32,.17,91.98,0,17.78,0,35.56,0,53.34,.81,.56,1.63,1.11,2.44,1.67,8.49-13.33,18.92-12.24,30.18-5.52,1.69,1.01,3.62,1.65,5.48,2.33,7.99,2.9,12.39,.2,12.4-8.42,.06-45.79-.08-91.58,.15-137.37,.03-6.67-2.78-8.02-8.58-7.86-10.74,.29-21.53,.58-32.24-.08-7.87-.48-10.12,2.1-10.01,9.93Zm252.81,258.79c-14.65-2.93-20.85-12.49-23.66-26.04-1.02-4.94-3.32-9.94-6.2-14.1-6.93-9.99-7.72-20.03-.78-29.84,5.46-7.72,.41-11.67-4.45-15.72-5.18-4.32-8.27-13.82-18.21-7.35-9.95,6.48-19.95,6.46-30.02-.61-4.15-2.91-9.11-5.4-14.03-6.34-13.69-2.61-23.24-8.68-26.19-23.47-1.84-9.23-10.22-5.49-15.94-5.61-5.34-.11-12.76-3.17-14.68,5.68-2.98,13.73-11.56,20.7-25.14,23.15-5.32,.96-10.69,3.51-15.21,6.57-10.11,6.85-20.03,7.23-30.02,.58-6.82-4.54-11.12-1.1-14.83,4.03-3.91,5.4-14.4,7.98-7.95,18.11,6.93,10.89,6.5,21.39-1.28,32.03-2.95,4.03-4.79,9.3-5.75,14.27-2.51,13-9.29,21.52-22.55,24.26-8.83,1.83-6.65,8.92-6.23,14.35,.46,5.93-4.25,14.44,6.05,16.73,13.22,2.94,20.06,11.28,22.62,24.25,.98,4.98,2.77,10.25,5.69,14.31,7.95,11.03,8.42,21.86,1.15,33.13-5.87,9.11,3.53,11.63,7.31,16.12,3.45,4.11,6.8,10.66,14.48,5.56,11.15-7.41,21.99-6.91,33.07,1.04,4.37,3.13,10.06,4.92,15.42,6.06,12.04,2.56,20.17,8.88,22.54,21.23,2.12,11.05,10.62,7.14,17.07,7.49,6.03,.33,12.64,2,15.01-7.25,1.6-6.25,2.66-15.56,9.83-16.66,21.38-3.29,39.32-28.37,64.04-10.5,.31,.23,.73,.32,1.09,.47,6.76,.53,20.98-17.52,17.67-23.19-7-11.99-6.95-22.99,1.51-34.25,2.54-3.38,4.2-7.83,5.01-12.03,2.61-13.63,8.89-23.29,23.6-26.02,8.86-1.64,5.82-9.25,5.68-14.6-.15-5.7,3.64-14-5.72-15.86Zm-316.97-61.4c0,47.35,.03,94.69-.02,142.04-.01,15.71-3.2,18.96-18.77,19.03-21.09,.1-42.18,.14-63.26-.02-13.38-.1-17.16-3.65-17.18-17.05-.12-95.89-.12-191.77,0-287.66,.02-13.77,4.02-17.26,18.18-17.32,21.09-.08,42.18-.1,63.26,0,13.88,.07,17.71,3.84,17.74,17.74,.09,47.74,.03,95.49,.03,143.23Zm-23.9,125.5c-.41-41.77-.19-83.55-.19-125.32,0-42.17-.2-84.35,.18-126.51,.07-8.17-1.9-11.41-10.53-10.8-10.29,.73-20.72,.75-31.01-.01-8.4-.62-9.81,2.91-9.79,10.29,.2,84.34,.22,168.69-.03,253.03-.02,8.02,1.7,11.59,10.48,10.92,9.89-.75,19.93-.8,29.81,0,9.39,.77,11.16-3.03,11.07-11.61Zm-115.27-85.98c0,34.24,.06,68.47-.03,102.71-.04,15.78-3.12,18.79-18.97,18.85-20.7,.09-41.4,.1-62.11,0-14.32-.08-18.15-3.59-18.17-17.33-.1-69.67-.1-139.34,0-209,.02-12.93,4.36-17.01,17.23-17.06,21.5-.09,43-.09,64.5,0,13.97,.06,17.42,3.45,17.48,17.93,.15,34.63,.05,69.27,.05,103.9Zm-23.96,84.7c-.84-28.22-.28-56.49-.28-84.73,0-29.44-.19-58.88,.14-88.32,.08-7.15-1.86-9.95-9.36-9.54-10.71,.58-21.51,.7-32.21-.03-8.42-.58-9.67,3-9.63,10.35,.26,58.08,.28,116.17-.02,174.25-.04,8.01,1.68,11.6,10.42,10.9,9.09-.73,18.35-.82,27.42,.01,10.19,.94,13.84-1.89,13.52-12.89ZM724.99,105.71c-2.06,1.87-4.09,3.98-6.53,5.19-22.78,11.22-25.98,28.45-16.07,50.21,3.85,8.46,5.05,17.18-3.87,23.59-8.42,6.04-15.68,1.69-22.91-3.17-8.9-5.98-18.05-16.1-27.1-16.11-9.05,0-18.09,10.27-27.15,16.02-2.69,1.71-5.25,3.77-8.15,4.94-10.82,4.37-21.41-3.23-21.05-16.94,2.38-8.83,4.84-19.7,8.33-30.22,2.1-6.32,1.07-10.29-4.35-14.21-8.05-5.82-15.69-12.24-23.3-18.64-5.18-4.35-8.31-9.78-5.92-16.83,2.26-6.69,7.05-10.54,14.12-11.02,9.93-.67,19.88-1.53,29.82-1.4,7.19,.09,10.68-2.73,12.76-9.44,2.69-8.69,6.47-17.05,9.59-25.62,2.54-6.96,6.97-11.89,14.59-12.16,8.21-.29,13.12,4.72,15.95,12.05,3,7.78,6.96,15.34,8.79,23.39,2.26,9.93,7.98,12.2,17.11,11.96,9.12-.24,18.28,.74,27.4,1.51,6.63,.56,10.98,4.43,12.87,10.76,1.9,6.38-.11,11.77-4.92,16.16Zm-34.92-3.99c-23.84,2.67-36.99-6.74-41.56-30.22-4.28,23.87-18.16,32.88-41.89,30.47,20.41,11.41,26.53,26.36,15.53,46.45,11.28-1.07,17.06-10.76,26.71-10.46,9.51,.29,15.3,9.29,27.04,12.5-12.16-21.48-5.98-36.88,14.17-48.74ZM141.09,669.97c-.09,12.73-3.54,16.19-16.42,16.31-21.87,.2-43.75,.19-65.63,0-12.89-.11-16.55-3.71-16.58-16.25-.1-44.94-.1-89.88,0-134.82,.03-13.21,3.74-16.96,17.1-17.08,21.48-.19,42.96-.2,64.43,0,13.58,.13,17,3.58,17.09,17.02,.15,22.67,.04,45.34,.04,68.01,0,22.27,.12,44.54-.04,66.82Zm-23.98-16.67c-.39-17.12-.13-34.25-.13-51.37,0-17.13-.2-34.26,.11-51.38,.11-6.11-1.75-8.58-8.11-8.37-11.54,.38-23.11,.43-34.64-.02-6.56-.25-7.95,2.45-7.91,8.41,.22,34.25,.25,68.5-.02,102.75-.05,6.54,1.5,9.31,8.57,8.97,11.13-.53,22.31-.5,33.44,0,6.98,.31,8.86-2.34,8.71-8.99Zm566.86-51.48c.13,47.04-38.05,85.56-85.47,86.22-47.14,.66-86.93-38.74-86.93-86.08,0-46.94,38.28-85.55,85.59-86.31,47.05-.76,86.68,38.58,86.81,86.17Zm-24.24,.18c.03-34.26-27.97-62.29-62.08-62.16-33.95,.13-62.36,28.84-61.89,62.55,.47,33.89,27.88,61.15,61.72,61.36,34.4,.22,62.23-27.39,62.26-61.75Z"/>
</svg>