<?xml version="1.0" encoding="UTF-8"?>
<svg id="Layer_1" data-name="Layer 1" xmlns="http://www.w3.org/2000/svg" viewBox="0 0 800 800">
  <defs>
    <style>
      .cls-1 {
        fill: none;
      }
    </style>
  </defs>
  <rect class="cls-1" width="800" height="800"/>
  <path d="M249.93,415.02c31.67,0,63.33-.01,95,.02,3.29,0,7.35-.85,9.69,.72,3.96,2.66,9.35,6.85,9.49,10.56,.16,4.34-3.9,9.75-7.62,12.98-2.44,2.12-7.52,1.59-11.42,1.6-63.99,.08-127.99,.07-191.98,.07-1.32,0-2.64,.05-3.96-.01-9.75-.44-15.48-5.23-15.58-13.01-.1-7.82,5.69-12.85,15.46-12.99,12.85-.18,25.71-.12,38.57-.13,20.78-.02,41.56,0,62.34,0,0,.06,0,.12,0,.18Zm16.31,80.28c10.58-.06,16.8-4.92,16.79-12.7,0-7.75-6.3-12.72-16.81-12.75-38.67-.09-77.34-.09-116.01,0-10.68,.02-16.67,4.81-16.69,12.77-.01,7.97,5.9,12.62,16.7,12.68,19.5,.11,39,.03,58.5,.03,19.17,0,38.34,.08,57.51-.03Zm16.69-383.01c-.87-7.51-5.41-11.78-13.13-11.97-7.46-.18-13.54,5.87-12.9,13.05,.7,7.72,5.52,11.48,12.4,12.15,7.79-.08,14.41-6.47,13.62-13.23ZM420.92,45.33c-7.4-.3-13.63,5.63-13.59,12.72,.04,6.95,6.52,13,13.73,12.59,7.94-.45,11.51-5.37,12.55-12.61-1.04-7.58-4.72-12.39-12.69-12.71ZM132.97,100.33c-7.38-.1-13.52,6-13.22,12.92,.3,6.89,7.03,12.97,14.07,12.17,7.55-.85,11.64-5.35,12.14-13.09-1.17-7.37-5.1-11.89-12.98-12Zm68.56-.02c-7.53-.29-13.34,5.65-12.82,13.09,.55,7.93,5.53,12.09,13,11.93,7.53-.16,11.97-4.73,12.46-12.75-.79-7.5-4.81-11.97-12.64-12.27ZM755.05,642.5c-.73,2.87-1.65,5.73-2.83,8.44-3.08,7.09-8.65,10.04-16.04,7.96-7.23-2.04-10.37-7.87-8.3-14.68,11.99-39.48,7.06-80.02,8.08-120.19,.06-2.31,.11-4.64-.06-6.94-.84-11.83-9.8-21.29-20.52-21.76-10.42-.46-19.41,7.71-21.4,19.47-.16,.97-.08,1.99-.24,2.96-1.27,7.64-5.77,11.87-13.53,11.63-7.9-.24-12.05-4.86-12.27-12.68-.22-7.6,0-15.21-.18-22.8-.38-15.14-8.43-25.16-20.59-25.83-11.46-.63-19.68,7.17-22.19,21.93-1.32,7.73-5.46,12.44-13.01,12.26-8.11-.19-12.36-5.51-12.64-13.68-.15-4.29,.13-8.61-.2-12.89-.88-11.56-10.31-21.12-20.92-21.48-10.48-.36-19.76,7.78-21.12,19.64-1.01,8.82-4.43,14.62-13.89,14.65-8.09,.02-12.73-6.03-12.76-16.75-.11-37.35-.01-74.7-.03-112.06,0-3.62,.15-7.32-.45-10.86-1.71-10.07-10.2-17.61-19.68-17.93-8.82-.29-18.09,6.53-20.43,15.84-1.19,4.74-1.49,9.8-1.49,14.71-.1,58.84-.06,117.68-.06,176.51,0,2.98,.04,5.95-.02,8.92-.22,11.11-5.11,17.36-13.38,17.15-7.93-.2-12.59-6.24-12.65-16.82-.1-17.19,.23-34.38-.13-51.56-.46-21.48-16.39-38.78-37.15-41-11.79-1.26-18.66,4.26-18.69,16.05-.09,42.97-1.44,86.02,.6,128.89,2.56,53.55,27.08,96.51,70.08,128.72,1.06,.79,2.21,1.46,3.25,2.27,7.39,5.7,9.1,12.49,4.76,18.78-4.45,6.44-12.45,7.49-20.12,2.15-25.94-18.07-46.68-40.93-61.47-68.88-15.57-29.41-23.87-60.75-23.19-94.25,.15-7.54,.02-15.08,.02-24.32-27.24,0-52.63,0-78.03,0-65.1,.02-130.2,.16-195.31,.03-31.81-.07-55.13-23.24-55.33-54.98-.24-39.66-.13-79.33-.02-119,.03-11.88,6.4-17.97,16.04-15.64,8.43,2.03,9.96,8.41,9.94,16.01-.11,37.68-.06,75.37-.04,113.05,.02,24.22,10.21,34.75,34.09,34.77,85.59,.05,171.17-.11,256.76,.13,8.7,.03,12.38-1.94,12.03-11.45-.68-18.48-.33-37.01-.14-55.51,.31-29.07,20.84-46.73,49.57-41.79,10.49,1.8,20.54,6.2,32.44,9.93,0-7.47,0-14.88,0-22.29,0-16.86-.18-33.72,.09-50.57,.09-5.74-1.53-8.69-7.37-10.79-23.58-8.48-36.88-29.46-33.23-51.14,3.96-23.52,22.72-39.87,48.2-40.22,40.31-.55,80.64-.64,120.95-.01,27.78,.44,48.17,21.63,47.84,47.9-.32,25.28-21.56,45.27-48.91,45.9-8.59,.2-17.21-.29-25.76,.29-2.46,.17-6.76,2.95-6.8,4.61-.45,22.66-.31,45.33-.31,69.34,25.5-8.37,45.81-3.09,61.32,18.08,21.57-13.08,41.92-11.23,62.57,5.41,.34-5.59,.77-9.34,.78-13.09,.06-84.29-.02-168.57,.25-252.86,.03-8.24-3.26-9.99-10.59-9.94-32.38,.24-64.77,.06-97.16,.07-161.27,.01-322.54,.02-483.8,.09-13,0-12.89,.19-12.87,13.17,.06,44.62,.13,89.25-.1,133.87-.02,4.36-.7,10.35-3.48,12.65-3.44,2.84-10.48,4.83-14.01,3.13-3.93-1.9-7.86-8.3-7.97-12.84-.72-29.07-.4-58.17-.4-87.26,0-46.6-.05-93.21,.04-139.81,.07-36.24,21.87-58.05,58-58.08,83.27-.05,166.55-.02,249.82-.02,1.98,0,3.97-.04,5.95,.06,8.27,.4,13.19,4.73,13.07,13.02-.12,7.74-4.87,11.98-12.65,12.42-3.29,.19-6.61,.09-9.91,.09-80.97,0-161.93-.03-242.9,0-25.31,0-35.37,10.16-35.41,35.52-.02,12.56,.4,25.14-.14,37.68-.34,7.93,1.7,10.74,10.35,10.72,151.68-.27,303.37-.19,455.05-.18,42.63,0,85.26-.25,127.89,.2,8.87,.09,11.53-2.7,11.15-11.27-.59-13.2-.01-26.44-.19-39.66-.29-21.97-11.26-32.94-33.13-32.98-55.52-.1-111.04-.07-166.55-.08-1.65,0-3.31,.07-4.96,.01-9.31-.33-14.46-4.81-14.54-12.64-.08-7.86,4.95-12.74,14.27-12.82,24.12-.21,48.24-.11,72.36-.11,33.38,0,66.76-.02,100.13,.04,36.03,.06,58.21,22.07,58.23,58.02,.06,117.01,.02,234.03,.03,351.04,0,4.57,0,9.15,0,14.64,4.05,.32,7.21,.59,10.37,.82,20.87,1.51,41.75,17.45,42.79,37.66,2.33,45.08,5.85,90.48-5.54,135.09Zm-198.1-309.91c12.19,.44,24.48,.71,36.62-.35,11.86-1.03,19.98-10.68,19.63-21.15-.36-10.76-9.58-20.11-21.14-21.32-2.29-.24-4.62-.15-6.93-.16-17.83-.01-35.67,0-53.5,0,0,.1,0,.21,0,.31-15.52,0-31.05-.06-46.57,.03-6.27,.03-12.62-.22-18.77,.72-9.23,1.41-15.88,6.88-18.06,16.14-2.09,8.9,1.47,16.27,8.64,21.7,4.96,3.75,8.89,4.9,13.73-1.78,21.2-29.21,57.89-28.68,79.07,.44,1.74,2.39,4.77,5.33,7.29,5.42Zm-178.33,35.38c-.02,14.31-3.72,17.88-18.4,17.88-73.94,.03-147.88,.04-221.83,0-14.89,0-18.76-3.88-18.78-18.72-.04-41.93-.05-83.87,0-125.8,.02-13.64,4.15-17.85,17.62-17.88,37.3-.07,74.6-.02,111.91-.03,37.3,0,74.6-.05,111.91,.02,13.78,.02,17.55,3.83,17.57,17.73,.05,42.26,.05,84.53,0,126.79Zm-25.56-109.03c.09-7.84-2.46-10.26-10.25-10.17-31.04,.37-62.08,.15-93.12,.12-31.38,0-62.75,.19-94.13-.14-7.37-.08-9.73,2.33-9.66,9.68,.32,31.05,.27,62.11,.02,93.16-.05,6.52,2.28,8.63,8.64,8.62,63.08-.15,126.16-.16,189.23,0,6.75,.02,9.31-2.1,9.25-9.11-.29-30.72-.34-61.45,.02-92.16Z"/>
</svg>