<?xml version="1.0" encoding="UTF-8"?>
<svg id="Layer_1" data-name="Layer 1" xmlns="http://www.w3.org/2000/svg" viewBox="0 0 800 800">
  <defs>
    <style>
      .cls-1 {
        fill: none;
      }

      .cls-2 {
        fill: #0b0b0b;
      }
    </style>
  </defs>
  <rect class="cls-1" width="800" height="800"/>
  <path class="cls-2" d="M749.99,153.06c0,5.12,.43,10.29-.1,15.36-.87,8.42-5.9,13.52-14.39,13.66-8.52,.14-14.13-4.83-14.67-13.23-.7-10.93-.57-21.97,.09-32.91,.49-8.22,6.65-12.6,14.14-12.62,8-.03,13.96,4.57,14.78,13.28,.51,5.44,.09,10.97,.09,16.46,.02,0,.03,0,.05,0Zm-29.09,175.56c0,6.21-.72,12.54,.18,18.62,1.17,7.9,6.74,12.15,14.69,11.92,7.38-.21,13.12-4.35,13.67-11.78,.86-11.63,.88-23.42,.06-35.06-.57-8.17-7.25-12.13-14.69-11.95-6.92,.16-12.71,4.07-13.76,11.82-.73,5.41-.62,10.94-.88,16.42h.73Zm29.1,89.54c0-5.13,.3-10.27-.07-15.37-.62-8.71-6.27-13.61-14.29-13.84-8.06-.23-14.32,4.43-14.81,13.1-.62,10.94-.66,21.98,.1,32.91,.55,7.93,6.05,12.61,13.99,12.74,8.46,.13,13.84-4.63,14.85-13.09,.65-5.41,.12-10.96,.12-16.45,.03,0,.07,0,.1,0Zm-.33,71.74c-.91-8.21-6.9-12.4-14.36-12.44-7.49-.04-13.8,4.16-14.3,12.39-.69,11.29-.8,22.7,.02,33.98,.57,7.92,6.29,12.41,14.25,12.41,7.92,0,13.26-4.43,14.37-12.36,.75-5.38,.14-10.95,.15-16.44,0-5.85,.52-11.76-.12-17.54Zm.38,104.82c0-4.76,.23-9.53-.05-14.28-.55-9.22-6.3-14.41-14.86-14.44-8.05-.03-14,4.92-14.41,13.61-.49,10.59-.65,21.26,.07,31.83,.57,8.4,6.08,13.42,14.61,13.32,8.48-.1,13.59-5.14,14.45-13.57,.55-5.43,.1-10.97,.1-16.46,.03,0,.05,0,.08,0Zm-.12-353.18c0-5.49,.43-11.02-.1-16.46-.84-8.71-6.84-13.28-14.83-13.22-7.48,.05-13.61,4.47-14.09,12.68-.64,10.94-.78,21.98-.06,32.91,.55,8.41,6.2,13.35,14.71,13.17,8.49-.18,13.49-5.3,14.34-13.72,.51-5.07,.09-10.24,.09-15.37-.02,0-.05,0-.07,0Zm-248.48-.64c7.86-1.25,12.4-6.35,12.41-14.37,0-8.01-4.48-13.45-12.38-14.35-11.94-1.36-24.02-2.14-35.93,.6-7.18,1.65-10.29,6.97-10.29,13.73,0,6.76,3.25,11.57,10.23,13.88,6.17,2.04,12.35,.81,20.06,1.55,4.27-.25,10.17-.13,15.9-1.04Zm-122.99-28.53c-7.54,1.18-11.57,6.37-11.71,13.76-.13,7.29,3.3,12.93,10.97,14.3,12.28,2.2,24.67,2.26,36.95-.08,7.2-1.37,10.52-6.66,10.66-13.44,.15-7.29-3.43-12.27-10.91-14.48-5.83-1.72-11.64-.59-19.29-1.35-4.34,.31-10.58,.34-16.67,1.3Zm-53.65,28.41c7.96-1.31,12.2-6.67,12.05-14.62-.15-7.39-4.12-12.58-11.68-13.81-11.59-1.89-23.31-1.79-34.89-.1-7.97,1.16-12.18,6.67-12.05,14.62,.13,8.06,4.96,12.91,12.73,14.15,5.37,.85,10.91,.67,17.44,1,4.79-.33,10.68-.3,16.4-1.24Zm-87.62-.09c7.45-2.12,11.22-6.97,11.17-14.3-.05-7.37-3.87-12.73-11.46-13.94-11.94-1.91-23.99-2.03-35.92,.08-7.62,1.34-11.26,6.81-11.2,14.15,.05,7.36,4.01,12.09,11.43,14.11,5.83,1.59,11.65,.43,17.45,1.03,6.16-.65,12.35,.64,18.54-1.12Zm-17.43-162.2c8.99-.28,13.57-5.74,13.88-14.06,.3-7.96-4.41-13.91-12.25-14.56-11.33-.95-22.86-.95-34.18,.02-7.79,.67-12.52,6.49-12.24,14.54,.29,8.46,5.01,13.67,13.87,14.05,5.14,.22,10.3,.04,15.46,.04,5.15,0,10.31,.13,15.46-.03Zm73.25,.01c5.15,0,10.31,.17,15.45-.04,9.01-.36,13.48-5.95,13.68-14.24,.19-7.93-4.58-13.79-12.46-14.39-11.34-.86-22.87-.93-34.18,.1-7.78,.71-12.38,6.64-12.03,14.7,.34,7.9,4.63,13.17,12.98,13.74,5.49,.37,11.03,.07,16.55,.07,0,.02,0,.04,0,.06Zm88.2-.07c5.52,0,11.05,.27,16.55-.06,8.49-.52,12.57-6.11,12.87-13.85,.31-7.97-4.34-13.95-12.17-14.63-11.32-.98-22.85-.96-34.18-.02-7.8,.65-12.56,6.43-12.32,14.48,.25,8.45,4.92,13.72,13.79,14.13,5.14,.24,10.3,.04,15.45,.04,0-.03,0-.06,0-.09Zm88.9,.06c5.15,0,10.31,.19,15.45-.04,9.02-.4,13.44-6.07,13.57-14.34,.13-7.91-4.67-13.73-12.58-14.3-11.35-.82-22.87-.92-34.18,.15-7.77,.73-12.32,6.73-11.91,14.79,.4,7.91,4.74,13.11,13.09,13.64,5.5,.35,11.03,.07,16.55,.07,0,.01,0,.03,0,.04Zm104.32-.08c8.48-.41,12.78-5.81,13.16-13.58,.41-8.48-4.45-14.43-12.91-15.06-10.98-.82-22.13-.92-33.09,.05-8.33,.73-13.15,6.71-12.59,15.31,.52,7.93,5.11,12.9,13.43,13.32,5.14,.26,10.3,.05,15.45,.03,5.52-.01,11.05,.2,16.56-.06Zm87.8,.08c9-.29,13.56-5.75,13.88-14.06,.3-7.96-4.41-13.9-12.26-14.55-11.33-.94-22.86-.95-34.18,.02-7.79,.67-12.51,6.5-12.23,14.55,.3,8.46,5.02,13.67,13.88,14.05,5.14,.22,10.3,.04,15.46,.04,5.15,0,10.31,.13,15.46-.03Zm-74,237.38c-.3-6.23,.03-12.57-1.06-18.66-1.32-7.41-6.42-11.21-14.15-11.22-7.75,0-13.04,3.82-14.13,11.23-1.72,11.64-1.51,23.51-.12,35.17,.87,7.33,5.88,11.53,13.72,11.72,8.29,.2,13.51-3.85,14.82-11.75,.89-5.36,.17-10.98,.17-16.48,.25,0,.5,0,.75-.01Zm-29.86,87.28c0,5.51-.56,11.09,.13,16.51,1.07,8.39,6.02,13.11,14.91,12.98,8.4-.13,13.46-4.8,14.02-12.63,.78-10.96,.79-22.06-.04-33.02-.6-7.87-5.84-12.38-14.19-12.44-8.92-.06-13.69,4.83-14.75,13.19-.64,5.06-.12,10.27-.12,15.42h.04Zm29.39,74.13c-.9-8.83-5.45-14.26-14.98-14.19-8.99,.07-13.79,5.29-14.35,13.58-.69,10.24-.69,20.61,0,30.85,.55,8.28,5.31,13.53,14.3,13.64,9.54,.11,14.12-5.31,15.02-14.13,.52-5.09,.09-10.28,.1-15.43,0-4.78,.4-9.6-.08-14.33Zm-.11,103.55c0-5.51,.58-11.09-.14-16.51-1.03-7.83-5.64-12.53-14.04-12.7-8.89-.18-14.26,4.51-14.9,12.91-.81,10.59-.79,21.33-.06,31.93,.57,8.35,5.71,13.29,14.63,13.25,8.97-.04,13.52-5.16,14.52-13.46,.61-5.07,.11-10.28,.11-15.42-.04,0-.08,0-.13,0ZM724.1,49.44c-8.54-.38-15.59,2.13-17.67,11.26-2.01,8.83,1.68,15.18,10.65,17.51,4.37,1.13,3.67,4.97,5.19,7.64,5.45,9.6,19.06,10.96,24.69,1.76,5.71-9.33,4.67-20.11,1.23-29.83-3.1-8.75-11.71-8.79-18.51-8.32-2.64,0-4.11,.06-5.58,0Zm-144.73,164.1c-9.77-3.79-20.09-3.99-29.69,1.12-4.15,2.21-5.73,6.61-6.02,11.16-.6,9.77,21.03,30.43,30.89,29.65,9.74-.77,13.39-6.57,13.41-21.26,.09-8.15,.71-17.06-8.59-20.67Zm-95.03,486.51c-.42,17.69-13.36,28.25-32.85,28.5-19.91,.26-39.82,.06-59.73,.06-94.02,0-188.05,0-282.07,0-27.57,0-38.26-10.58-38.27-37.89-.02-25.45-.09-50.91,.03-76.36,.09-18.88,6.3-27.6,24.38-33.19,3.98-1.23,5.51-2.45,5.23-6.48-.28-4.04-.42-8.15,.02-12.16,.84-7.68-1.3-11.31-9.8-13.51-12.58-3.25-19.41-13.49-19.6-26.5-.44-30.24-.69-60.51,.09-90.73,.46-17.6,13.24-28.17,31.71-28.2,58.26-.08,116.51-.03,174.77-.03,57.15,0,114.3-.01,171.45,0,23.89,0,34.91,11.05,34.98,35.19,.07,25.45,.05,50.91,0,76.36-.03,21.34-4.4,27.71-24.39,35.15-3.59,1.34-5.47,3.04-5.13,7.12,.33,4.03,.45,8.15-.01,12.16-.81,7.03,.82,10.98,8.76,12.91,12.85,3.13,20.15,12.78,20.41,25.75,.62,30.6,.77,61.24,.04,91.83ZM111.62,521.38c55.63-.34,111.27-.18,166.91-.18,55.64,0,111.27-.08,166.91,.1,6.41,.02,9.94-.44,9.73-8.63-.61-23.94-.41-47.92-.09-71.87,.08-6.36-2.01-8.13-8.22-8.12-112.38,.16-224.75,.18-337.13-.04-7.04-.01-8.7,2.33-8.6,8.91,.33,23.22,.58,46.46-.1,69.66-.25,8.71,2.65,10.21,10.6,10.16Zm313.82,42.06c1.65-9.68-1.97-12.19-11.84-12.14-88.02,.44-176.05,.25-264.08,.25-18.91,0-18.47,.01-19.02,18.97-.24,8.09,1.61,10.44,10.11,10.35,45.67-.49,91.34-.23,137.01-.23s92.08-.18,138.12,.18c7.61,.06,10.94-1.77,9.7-9.66-.4-2.52-.43-5.21,0-7.72Zm29.71,125.44c-.58-23.21-.46-46.44-.05-69.66,.12-7.06-1.58-9.53-9.11-9.52-112.01,.23-224.02,.24-336.02-.02-7.97-.02-8.93,3.17-8.84,9.8,.3,22.85,.5,45.72-.09,68.55-.21,8.26,1.95,10.49,10.33,10.43,55.63-.4,111.27-.21,166.91-.21,55.64,0,111.27-.14,166.91,.16,7.44,.04,10.16-1.47,9.96-9.55ZM188.15,144.24c-4.08,7.75-11.39,9.41-18.74,8.88-8.3-.59-9.43,2.68-9.4,10,.28,62.7,.17,125.41,.15,188.11,0,19.01-4.3,23.24-23.46,23.26-15.12,.02-30.23,.14-45.35-.04-14.84-.18-19.87-5.25-19.92-20.15-.11-32.09-.03-64.18-.03-96.27,0-32.09-.18-64.18,.15-96.27,.07-6.69-1.55-9.34-8.56-8.73-7.65,.67-15.06-.91-18.79-8.62-3.76-7.78,.1-13.93,5.06-20.02,17.45-21.43,34.54-43.17,51.88-64.68,10.14-12.58,19.28-12.58,29.54,.06,17.65,21.74,35.24,43.53,52.6,65.51,4.25,5.38,9.04,11.05,4.87,18.97Zm-48.51-26.64c-7.79-9.25-15.53-18.54-23.29-27.81-9.96,7.15-15.4,18.26-23.57,26.99-.75,.8-1.27,1.81-1.98,2.65-1.76,2.09-2.02,3.87,.93,5.04,9.54,3.77,9.53,11.99,9.53,20.28-.03,30.93-.01,61.86-.01,92.8,0,31.67,.51,63.35-.29,95-.26,10.28,3.09,13.15,12.34,11.63,1.43-.23,2.98-.27,4.4,0,10.77,2.08,13.1-2.42,13.01-12.93-.55-62.23-.25-124.46-.3-186.7,0-7.52-.34-15.57,7.69-19.16,5.55-2.49,4.32-4.48,1.53-7.79ZM743.97,695.39c-24.05,20.01-48.34,39.77-73.11,58.88-11.15,8.6-24.17,1.61-24-13.37,.13-11.42-4.09-12.7-13.91-12.51-32.4,.63-64.81,.28-97.22,.22-16.96-.03-21.77-4.82-21.84-21.55-.06-15.47-.07-30.95,0-46.43,.07-16.58,4.16-20.59,21.04-20.66,16.57-.07,33.15-.01,49.72-.01,16.57,0,33.17-.52,49.71,.2,9.26,.41,14.08-1.49,12.34-11.83-.68-4.03,.29-8.12,2.59-11.65,4.71-7.23,14.33-8.86,22.12-2.73,24.3,19.13,48.46,38.45,72.3,58.15,9.18,7.58,9.33,15.74,.26,23.28Zm-32.5-11.49c-10.31-8.26-19.76-15.89-29.29-23.43-2.46-1.94-4.97-5.07-7.49,.35-3.49,7.49-10.23,8.45-17.65,8.41-31.67-.15-63.34-.06-95.01-.06-18.4,0-17.87,.02-18.54,18.47-.32,8.96,2.57,10.93,11.06,10.81,33.51-.48,67.02-.19,100.54-.2,7.96,0,15.82,.51,19.65,9,2.03,4.5,4.22,2.77,6.58,.9,9.77-7.79,19.48-15.66,30.15-24.26ZM161.49,463.02c-5.52,0-11.05-.14-16.56,.03-8.82,.28-13.78,5.26-14.16,13.76-.39,8.58,4.59,14.36,12.97,15,10.98,.83,22.11,.81,33.09-.05,7.9-.62,12.71-6.38,12.58-14.3-.13-8.29-4.56-13.91-13.57-14.34-4.77-.22-9.56-.04-14.35-.04,0-.02,0-.04,0-.06Zm249.33,.04c-8.5-.03-14.79,6.05-14.78,14.3,0,8.03,6.65,14.69,14.7,14.72,8.05,.03,14.73-6.58,14.79-14.64,.06-8.29-6.14-14.36-14.7-14.39Zm-236.42,206.06c9.14-.38,14.83-5.45,14.98-14.37,.15-8.84-4.9-14.51-14.4-14.64-9.93-.14-19.88-.19-29.81,0-9.39,.18-14.55,5.63-14.41,14.61,.14,9.04,5.87,13.94,14.93,14.39,4.77,.24,9.57,.04,14.35,.04,4.79,0,9.58,.16,14.35-.04Zm221.65-14.93c-.13,8.07,6.35,14.78,14.44,14.95,8.04,.17,14.83-6.33,15.02-14.4,.2-8.3-5.92-14.5-14.46-14.63-8.54-.13-14.88,5.81-15.01,14.07Z"/>
</svg>