<?xml version="1.0" encoding="UTF-8"?>
<svg id="Layer_1" data-name="Layer 1" xmlns="http://www.w3.org/2000/svg" viewBox="0 0 14 14">
  <defs>
    <style>
      .cls-1 {
        fill: #393939;
      }

      .cls-2 {
        fill: none;
      }
    </style>
  </defs>
  <rect class="cls-2" width="14" height="14"/>
  <path class="cls-1" d="M3.38,6.31c-.27,.01-.6-.02-.92,.04-.8,.16-1.3,.72-1.37,1.53-.02,.29-.12,.41-.33,.4-.22-.01-.32-.17-.29-.46,.12-1.25,1.09-2.13,2.36-2.13,.47,0,.94,0,1.41,0,.16,0,.21,.02,.17,.2-.09,.42-.08,.42-.51,.42-.16,0-.31,0-.52,0Zm6.65-.63c-.45,0-.44,0-.4,.44,.01,.17,.08,.2,.22,.19,.43,0,.86,0,1.28,0,.4,0,.78,.09,1.11,.33,.45,.33,.64,.79,.67,1.33,.01,.21,.13,.32,.34,.31,.23-.01,.29-.17,.29-.36,0-.9-.65-1.79-1.51-2.09-.48-.17-.98-.14-1.48-.14-.17,0-.35,0-.52,0Zm.86,6.14c-.1,.3-.24,.39-.62,.39-2.06,0-4.12,0-6.18,0-.14,0-.28,0-.42,0-.38,0-.59-.21-.58-.59,.04-1.54,1.3-2.64,2.62-2.64,.87,0,1.75,0,2.62,0,1.28,0,2.44,1.06,2.57,2.34,.03,.17,.03,.33,0,.5Zm-.6-.41c-.12-.98-.99-1.79-1.97-1.81-.87-.01-1.75-.01-2.62,0-.95,.01-1.79,.77-1.94,1.71-.03,.21,0,.29,.24,.28,1-.01,2.01,0,3.01,0,1.02,0,2.04,0,3.07,0,.12,0,.25,.03,.22-.18Zm-1.33-5.04c0,1.03-.89,1.91-1.93,1.92-1.08,.01-1.97-.88-1.97-1.98,0-1.07,.88-1.93,1.96-1.92,1.09,0,1.93,.87,1.93,1.98Zm-.64-.18c-.07-.66-.63-1.17-1.29-1.17-.66,0-1.08,.35-1.33,1.11-.04,.14-.04,.29,0,.43,.02,.07,.05,.15,.07,.22,.23,.63,.89,.98,1.57,.83,.62-.14,1.05-.78,.98-1.42Zm-3.3-2.78c0,.89-.73,1.6-1.63,1.6-.88,0-1.62-.74-1.62-1.62,0-.87,.77-1.64,1.64-1.64,.88,0,1.62,.76,1.61,1.66Zm-.62-.02c0-.55-.47-1.01-1.01-1.01-.55,0-.99,.47-.98,1.02,0,.55,.47,1,1.01,.99,.53-.01,.98-.48,.98-1Zm8.16,.02c0,.88-.73,1.6-1.63,1.6-.91,0-1.61-.72-1.61-1.64,0-.88,.76-1.62,1.63-1.61,.89,.01,1.61,.75,1.61,1.66Zm-.62-.04c0-.55-.43-.97-.99-.97-.57,0-1,.43-1,.99,0,.55,.46,1,1,1,.55,0,.99-.46,.99-1.01Z"/>
</svg>