<?xml version="1.0" encoding="UTF-8"?>
<svg id="Layer_1" data-name="Layer 1" xmlns="http://www.w3.org/2000/svg" viewBox="0 0 14 14">
  <defs>
    <style>
      .cls-1 {
        fill: #393939;
      }

      .cls-2 {
        fill: none;
      }
    </style>
  </defs>
  <rect class="cls-2" width="14" height="14"/>
  <path class="cls-1" d="M12.88,7.89c-.38-.11-.72,.03-.91,.39-.04,.08-.08,.11-.17,.11-.28,0-.56,0-.84,0-.1,0-.14-.02-.14-.13,0-.3,0-.6,0-.9,0-.11,.04-.15,.15-.15,.33,0,.65,0,.98,0,.24,0,.3-.06,.31-.31,0-.19,0-.37,0-.56,0-.12,.02-.2,.15-.26,.32-.16,.45-.51,.35-.87-.09-.33-.37-.54-.73-.53-.35,0-.63,.23-.71,.56-.08,.35,.06,.7,.38,.84,.15,.07,.14,.17,.14,.29,0,.13,.03,.25-.02,.37-.02,.05-.08,.02-.13,.02-.22,0-.44-.01-.66,0-.17,.01-.19-.05-.19-.2,0-1.58,0-3.15,0-4.73,0-.33-.05-.39-.38-.39-2.3,0-4.61,0-6.91,0-.33,0-.38,.04-.38,.39,0,1.58,0,3.15,0,4.73,0,.15-.03,.22-.2,.2-.11-.01-.23,0-.34,0-.5,0-.5,0-.48-.5,0-.08,.03-.13,.11-.17,.35-.18,.49-.51,.4-.87-.09-.35-.36-.57-.73-.56-.34,0-.63,.22-.71,.53-.1,.38,.04,.71,.39,.89,.09,.05,.11,.09,.11,.18,0,.21,0,.43,0,.64,0,.23,.06,.28,.29,.29,.33,0,.67,0,1,0,.11,0,.15,.04,.15,.15,0,.29,0,.59,0,.88,0,.11-.02,.16-.14,.15-.28,0-.56,0-.84,0-.1,0-.13-.04-.18-.12-.16-.33-.49-.47-.86-.38-.34,.08-.57,.38-.57,.73,0,.35,.22,.62,.56,.71,.37,.09,.7-.04,.86-.37,.05-.09,.09-.13,.19-.13,.27,0,.55,0,.82,0,.11,0,.16,.03,.15,.14,0,.29,0,.59,0,.88,0,.11-.03,.15-.15,.15-.34,0-.68,0-1.02,0-.18,0-.27,.09-.27,.27,0,.21,0,.43,0,.64,0,.11-.03,.17-.14,.23-.35,.17-.49,.57-.34,.94,.12,.31,.41,.5,.74,.48,.37-.03,.62-.25,.69-.61,.07-.33-.08-.66-.38-.81-.11-.05-.15-.11-.14-.22,0-.11,0-.23,0-.34,0-.09,.03-.13,.13-.13,.23,0,.45,.01,.68,0,.15,0,.21,.03,.2,.2-.01,.51,0,1.03,0,1.54,0,.32,.04,.36,.36,.36,1.16,0,2.32,0,3.49,0,1.16,0,2.32,0,3.49,0,.28,0,.34-.05,.34-.34,0-.51,0-1.01,0-1.52,0-.17,.03-.26,.22-.23,.17,.02,.35,0,.52,0,.3,0,.25-.04,.26,.27,0,.21,0,.36-.24,.49-.37,.21-.4,.77-.11,1.11,.27,.3,.79,.32,1.08,.03,.31-.31,.32-.89-.04-1.11-.26-.16-.27-.34-.26-.59,0-.12,0-.24,0-.36,0-.22-.08-.28-.3-.28-.33,0-.67,0-1,0-.1,0-.14-.02-.14-.13,0-.3,0-.6,0-.9,0-.12,.05-.14,.15-.14,.25,0,.51,0,.76,0,.13,0,.2,.02,.26,.15,.13,.26,.44,.42,.72,.38,.39-.05,.65-.32,.68-.69,.02-.36-.18-.67-.52-.77Zm-1.15-2.47c0-.17,.14-.31,.32-.31,.18,0,.31,.14,.31,.32,0,.18-.14,.31-.32,.3-.17,0-.3-.14-.31-.31Zm-9.78,.31c-.17,0-.33-.15-.32-.31,0-.18,.15-.31,.33-.31,.17,0,.3,.14,.3,.31,0,.17-.13,.3-.3,.31Zm-.61,3.18c-.18,0-.32-.13-.32-.31,0-.18,.14-.31,.32-.31,.17,0,.3,.13,.31,.3,0,.18-.12,.32-.31,.32Zm.91,2.88c0,.17-.13,.31-.29,.31-.17,0-.32-.13-.33-.3,0-.17,.14-.32,.31-.32,.18,0,.31,.13,.32,.31Zm7.96,.31c-.45,0-.89,0-1.34,0-1.68,0-3.35,0-5.03,0-.2,0-.24-.06-.24-.25,.01-.45,0-.9,0-1.36,.21,.26,.39,.52,.61,.75,.11,.11,.23,.18,.36,.06,.14-.13,.06-.25-.04-.36-.76-.81-1.05-1.77-.91-2.85,.09-.68,.39-1.28,.86-1.79,.04-.04,.08-.08,.11-.12,.08-.11,.07-.21-.03-.3-.1-.09-.21-.08-.3,.02-.2,.2-.37,.42-.52,.66-.03,.05-.06,.1-.1,.15-.07-.04-.04-.11-.04-.16,0-1.49,0-2.98,0-4.47,0-.14,.03-.19,.19-.19,2.14,0,4.27,0,6.41,0,.09,0,.19-.03,.19,.13,0,1.56,0,3.12,0,4.69-.09,0-.1-.09-.13-.14-.15-.23-.32-.44-.51-.64-.1-.11-.22-.16-.35-.04-.12,.12-.08,.24,.03,.35,.47,.49,.77,1.06,.89,1.73,.19,1.11-.09,2.08-.83,2.93-.03,.04-.07,.07-.1,.1-.09,.1-.09,.21,0,.3,.1,.1,.22,.09,.32,0,.22-.21,.41-.46,.57-.72,.02-.03,.02-.08,.1-.09v.77c0,.22,0,.44,0,.66,0,.14-.03,.18-.18,.18Zm1.84-.62c.17,0,.3,.13,.31,.3,0,.18-.13,.32-.31,.33-.17,0-.32-.14-.32-.31,0-.17,.14-.31,.32-.31Zm.61-2.57c-.18,0-.32-.12-.32-.31,0-.17,.12-.31,.29-.31,.18,0,.32,.12,.33,.3,0,.18-.12,.32-.3,.32ZM6.98,3.89c-.75,0-1.49,0-2.24,0-.07,0-.13,0-.2-.01-.11-.02-.16-.09-.16-.2,0-.1,.04-.18,.14-.21,.05-.02,.1-.02,.16-.02,1.54,0,3.08,0,4.62,0,.03,0,.07,0,.1,0,.13,.02,.21,.09,.2,.23,0,.14-.08,.21-.22,.21-.27,0-.55,0-.82,0-.53,0-1.05,0-1.58,0Zm0,.95c-.77,0-1.55,0-2.32,0-.16,0-.29-.02-.29-.22,0-.18,.13-.21,.28-.21,1.55,0,3.11,0,4.66,0,.15,0,.27,.03,.27,.21,0,.2-.13,.21-.29,.21-.77,0-1.55,0-2.32,0Zm-.02-1.91c-.37,0-.73,0-1.1,0-.22,0-.33-.08-.31-.22,.02-.18,.15-.21,.3-.21,.75,0,1.51,0,2.26,0,.07,0,.14,0,.19,.03,.08,.06,.13,.14,.1,.24-.03,.11-.11,.16-.22,.16-.41,0-.81,0-1.22,0h0Zm2.9,5.2c0-.16-.09-.25-.25-.25-.15,0-.29,0-.44,0-.07,0-.13,0-.17-.1-.03-.09-.02-.15,.05-.21,.1-.09,.2-.2,.3-.3,.12-.12,.12-.25,0-.37-.22-.23-.45-.46-.68-.68-.11-.11-.24-.11-.35,0-.11,.1-.21,.21-.31,.31-.05,.06-.1,.09-.19,.05-.08-.04-.13-.08-.12-.18,0-.14,0-.28,0-.42,0-.19-.1-.27-.27-.27-.31,0-.61,0-.92,0-.17,0-.27,.09-.27,.28,0,.14,0,.28,0,.42,0,.1-.04,.14-.12,.18-.09,.04-.13,0-.19-.06-.1-.1-.2-.2-.29-.3-.12-.12-.25-.13-.37,0-.23,.22-.45,.45-.68,.68-.12,.12-.12,.25,0,.37,.1,.1,.21,.21,.32,.31,.06,.06,.07,.11,.04,.19-.03,.08-.08,.11-.17,.1-.13,0-.27,0-.4,0-.22,0-.29,.08-.3,.28,0,.3,0,.6,0,.9,0,.18,.09,.27,.27,.28,.13,0,.25,0,.38,0,.09,0,.18-.01,.23,.11,.05,.11-.02,.16-.08,.22-.09,.08-.17,.17-.26,.25-.06,.06-.11,.12-.11,.22,0,.05,.02,.1,.07,.15,.24,.23,.47,.47,.71,.7,.12,.11,.24,.1,.35-.01,.11-.1,.21-.2,.31-.31,.06-.07,.12-.06,.19-.03,.08,.03,.1,.07,.1,.15,0,.15,0,.31,0,.46,0,.16,.09,.25,.25,.25,.33,0,.65,0,.98,0,.14,0,.22-.08,.23-.22,0-.15,0-.31,0-.46,0-.08,0-.14,.1-.17,.09-.03,.15-.03,.21,.04,.09,.1,.2,.2,.3,.3,.12,.12,.25,.13,.37,0,.23-.22,.46-.45,.68-.68,.12-.12,.11-.25,0-.37-.1-.09-.19-.19-.28-.28-.06-.06-.1-.1-.07-.2,.04-.12,.12-.11,.2-.11,.14,0,.28,0,.42,0,.16,0,.24-.09,.24-.26,0-.32,0-.64,0-.96Zm-.44,.4c-.02,.38,0,.39-.39,.38-.23,0-.36,.07-.4,.29,0,.03,0,.06-.02,.08-.22,.3-.1,.51,.16,.7,.13,.1,.16,.18,.01,.31-.29,.26-.29,.28-.56-.01-.15-.16-.27-.15-.47-.09-.42,.11-.53,.36-.47,.74,.02,.11-.04,.13-.14,.13-.45,.01-.45,.02-.45-.42,0-.2-.07-.31-.27-.36-.15-.04-.28-.11-.42-.17-.14,0-.2,.11-.28,.19-.27,.26-.26,.25-.53,0-.14-.13-.14-.22,.01-.32,.04-.03,.07-.08,.12-.11,.18-.14,.22-.29,.08-.48-.02-.02-.03-.05-.03-.07-.06-.35-.29-.44-.6-.39-.18,.03-.24-.04-.23-.23,.01-.36,0-.36,.37-.36,.32,0,.29-.03,.44-.3,.2-.36,.12-.61-.19-.82-.1-.07-.09-.13,0-.22,.31-.31,.31-.32,.61,0,.13,.13,.26,.18,.42,.07,.04-.03,.09-.05,.14-.07q.36-.15,.36-.54c0-.3-.04-.27,.26-.27,.32,0,.32,0,.32,.33,0,.35,.02,.31,.33,.49,.34,.19,.56,.09,.75-.18,.09-.12,.16-.12,.26,0,.29,.29,.3,.3,0,.58-.15,.14-.19,.28-.07,.46,.01,.02,.03,.05,.03,.07,.06,.36,.29,.46,.62,.41,.17-.03,.23,.03,.22,.21Zm-2.44-1.1c-.66,0-1.18,.51-1.19,1.17,0,.66,.52,1.18,1.18,1.18,.65,0,1.17-.51,1.17-1.16,0-.66-.51-1.19-1.16-1.19Zm0,1.92c-.4,0-.76-.35-.76-.75,0-.4,.35-.73,.75-.74,.4,0,.74,.33,.74,.74,0,.4-.33,.74-.73,.75Z"/>
</svg>