<svg id="Layer_1" data-name="Layer 1" xmlns="http://www.w3.org/2000/svg" viewBox="0 0 463.86 333.8"><title>web development</title><path d="M250.41,115.61q73.91,0,147.82,0c11.1,0,12.34,1.27,12.34,12.59q0,96,0,192c0,10.28-1.51,11.93-11.49,11.93q-149.26,0-298.53,0c-10.1,0-11.61-1.61-11.61-11.81q0-96.37,0-192.74c0-10.55,1.46-12,12.21-12Q175.78,115.6,250.41,115.61Zm146.1,202.6V129.93H256.68v8.31q0,32.23,0,64.48c0,2.17.62,4.86-.42,6.38-1.68,2.47-4.35,5.47-6.88,5.76-1.85.22-4.64-3.29-6.08-5.69-1-1.63-.44-4.23-.44-6.4q0-32.6,0-65.2v-7.51H103V318H242.84c0-24.6,0-48.7,0-72.81,0-2.63-.26-5.6.84-7.79,1-2,3.76-4.45,5.62-4.35,2.27.11,5.07,2.24,6.44,4.29,1.18,1.76.87,4.64.88,7q.08,33,0,65.93v7.91ZM56.9,350.75c0-9.28.11-17.67,0-26.05-.08-4.65,1.06-8.65,6.25-8.78,5.49-.14,7.11,3.72,7,8.82-.2,8.39-.06,16.78-.06,26H79.3c38.4,0,76.8.08,115.21-.07,6.94,0,11.44,1.37,12.42,9.5.77,6.4,5.59,10.14,12.2,10.2q30.44.24,60.86,0c6.94,0,11.85-3.83,12.69-10.56,1-7.78,5.31-9.17,11.94-9.15,39.36.12,78.73.06,118.1,0,1.91,0,3.82-.18,6.73-.34V173.67c0-1.93.08-3.86,0-5.79-.19-4.54,1.57-7.78,6.37-7.89,5.29-.12,6.95,3.42,6.78,8.2-.07,1.93,0,3.86,0,5.79V350.74c9.88,0,19-.05,28.1,0s10.89,1.95,10.92,11.14c0,6.27.07,12.56,0,18.83-.25,20.64-15.51,36.1-36.24,36.16-58,.14-115.94.06-173.9.06h-213c-26.55,0-40.58-14.06-40.59-40.56,0-5.32.2-10.64-.05-15.94-.31-6.83,3-9.75,9.53-9.71C36.93,350.79,46.52,350.75,56.9,350.75ZM31.13,364.69V375.3c0,19.74,8.52,28.36,28,28.37H170q136.18,0,272.35,0c14.5,0,23.79-7.08,25.6-20.23.8-5.86.13-11.92.13-18.11a19.19,19.19,0,0,0-3.11-.57c-51.67,0-103.34-.1-155,.14-2,0-4.75,2.48-5.95,4.51-5.14,8.77-12.28,14.31-22.63,14.41q-31.86.3-63.73,0c-9.76-.11-17.18-5.18-21.39-13.71-2.24-4.53-4.82-5.47-9.37-5.46q-73.87.21-147.76.09ZM100,83.18c-24.52-.45-43.89,17.46-43.43,43.13,1,53.6.29,107.22.3,160.84,0,1.93-.24,4.13.3,5.69,1.2,3.47,3.89,5.06,5.76,5,2.4-.14,6.05-.61,6.75-4.76a42.45,42.45,0,0,0,.32-6.38q0-79.7,0-159.4c0-20.55,10-30.52,30.75-30.52H326.85c25.11,0,50.23-.08,75.35,0,13.86.07,24.27,8.41,26.81,21.71.85,4.44.55,9.14.39,13.71-.19,5.05.53,10.05,6.43,10.17,6.55.13,7-5.28,6.78-10.46a44.75,44.75,0,0,1,0-5.79C444.67,101,424.33,82.79,400,83.2c-50,.83-100,.25-150,.25S150,84.09,100,83.18Zm227,120.6c15.69,0,31.37,0,47.06,0,7.83,0,10.09,2.1,10.19,9.61.12,9.66,0,19.31,0,29,0,6.17-2.67,9.3-9.18,9.28q-48.51-.17-97,0c-5.78,0-8.5-2.57-8.51-8.22,0-10.38,0-20.75,0-31.13,0-6,2.86-8.64,8.95-8.57C294.65,203.89,310.82,203.78,327,203.78Zm42.87,33.88v-19.9H283.42v19.9Zm-75.57-48c-5.54,0-11.08-.07-16.62,0-5.31.07-8.11-2.32-8.11-7.77,0-10.59,0-21.19,0-31.78,0-5.43,2.73-8,8-8q16.62,0,33.24,0c5.59,0,8.36,2.92,8.33,8.57,0,10.11-.06,20.23,0,30.34,0,6.08-2.94,8.76-8.92,8.62C304.89,189.56,299.59,189.66,294.29,189.66ZM304.6,176V156.35H283.53V176Zm54.72,13.59H342c-4.73,0-7.21-2.53-7.25-7.12-.11-11.07-.07-22.15,0-33.23,0-4.72,2.81-7,7.35-7,11.56-.08,23.12-.13,34.67,0,5,.06,7.43,3,7.45,7.91.06,10.59.08,21.19,0,31.79,0,5.35-3,7.79-8.28,7.73-5.54,0-11.08,0-16.62,0Zm-10.79-13.89H370V156.42H348.53ZM278,265.8c-4.67,0-8.35,1.12-8.24,6.66.11,5.36,3.72,6.71,8.38,6.71q48.54,0,97.07,0c4.75,0,8.49-1.66,8.72-6.58.26-5.7-3.92-6.86-8.86-6.83-16.18.11-32.36,0-48.54,0S294.2,265.86,278,265.8Zm96.3,41c5.23.05,9.56-1.22,9.62-7.07s-4.53-6.64-9.23-6.64q-48.08,0-96.15,0c-4.73,0-9,1-8.77,7,.2,5.8,4.25,6.7,9.1,6.67,16.14-.1,32.29,0,48.44,0C343,306.75,358.67,306.65,374.33,306.8ZM187.75,183.92c-5-1.65-7.33,2.23-8.93,6.25-8.24,20.74-16.4,41.52-24.71,62.23-1.91,4.74-2.72,9.2,3,11.38,6,2.25,8-2.32,9.76-6.77q12.24-30.76,24.49-61.52c.62-1.56,1.14-3.15,2.2-6.09C193.58,186.76,190.19,184.73,187.75,183.92ZM141.45,241c-2.44-4.41-5.45-8.58-7.36-13.2a11.69,11.69,0,0,1,0-8.34c2.33-5.23,6-9.87,8.35-15.1.85-1.9.27-5.36-1-7.05-1.13-1.47-4.3-2.17-6.4-1.9-4.38.56-19.69,25.87-17.71,29.73a285.18,285.18,0,0,0,14.81,25.5c1,1.51,4.92,2.27,6.91,1.62s4.15-1.51,5.05-5.26C143,244.49,142.37,242.66,141.45,241Zm73.37,8.1c4.44-7.14,8.75-14.4,12.58-21.88a9.27,9.27,0,0,0,0-7.41c-3.82-7.21-8.21-14.14-12.53-21.08-2.42-3.9-6.53-5.33-9.71-2.27-1.86,1.8-2.47,6.58-1.52,9.27,1.66,4.66,4.73,8.9,7.65,13,2.46,3.45,2.32,6.3,0,9.76a135.66,135.66,0,0,0-8.25,14.38c-2.5,5,.91,10.45,7.27,10.09C212.62,252.49,213.66,251,214.82,249.1Z" transform="translate(-17.79 -83.17)"/></svg>