<?xml version="1.0" encoding="UTF-8"?>
<svg id="Layer_1" data-name="Layer 1" xmlns="http://www.w3.org/2000/svg" viewBox="0 0 14 14">
  <defs>
    <style>
      .cls-1 {
        fill: #393939;
      }

      .cls-2 {
        fill: none;
      }
    </style>
  </defs>
  <rect class="cls-2" width="14" height="14"/>
  <path class="cls-1" d="M7.17,3.89c-.13-.07-.26-.1-.35,.05-.08,.15,0,.25,.13,.32,.56,.32,.79,.83,.64,1.41-.14,.53-.64,.89-1.26,.9-.14,0-.2-.03-.19-.18,.01-.39,0-.78,0-1.17,0-.3-.05-.35-.36-.35-.45,0-.9,0-1.34,0-.47,0-.94,0-1.41,0-.24,0-.3,.06-.3,.3,0,.41,0,.82,0,1.24,0,.07,.03,.17-.1,.16-.23,0-.46,.02-.67-.07-.52-.2-.81-.73-.68-1.27,.13-.54,.61-.88,1.2-.83,.38,.03,.42-.01,.36-.37-.12-.8,.41-1.56,1.18-1.69,.85-.15,1.6,.37,1.76,1.19,.03,.16,.03,.31,.03,.47,0,.1,.05,.17,.15,.18,.14,.03,.27,0,.37-.11,.07-.08,.07-.18,0-.25-.11-.09-.09-.22-.11-.33-.17-.98-1.04-1.67-2.03-1.6-1.02,.08-1.77,.88-1.78,1.88,0,.15-.03,.2-.19,.21-.62,.04-1.16,.48-1.34,1.08-.17,.59,.05,1.24,.53,1.62,.34,.26,.73,.34,1.14,.32,.15,0,.19,.04,.19,.19-.01,.41,0,.82,0,1.24,0,.2,.09,.29,.28,.28,.94,0,1.89,0,2.83,0,.23,0,.3-.07,.3-.31,0-.35,0-.7,0-1.04q0-.33,.34-.35c.76-.05,1.41-.59,1.54-1.28,.15-.76-.19-1.49-.86-1.83Zm-4,1.55c0-.1,.02-.15,.14-.15,.75,0,1.51,0,2.26,0,.14,0,.17,.05,.16,.17,0,.31,0,.63,0,.94,0,.13-.04,.17-.17,.17-.38,0-.75,0-1.13,0-.37,0-.74,0-1.11,0-.12,0-.16-.03-.16-.15,0-.33,0-.65,0-.98Zm2.39,2.84c-.37,0-.74,0-1.11,0s-.75,0-1.13,0c-.12,0-.16-.03-.16-.15,0-.33,0-.65,0-.98,0-.11,.02-.15,.14-.15,.75,0,1.51,0,2.26,0,.14,0,.17,.05,.16,.17,0,.31,0,.63,0,.94,0,.13-.04,.17-.17,.17Zm5.98-.09c-.19,0-.2-.1-.22-.23-.16-.98-1.04-1.67-2.02-1.59-1.01,.08-1.77,.88-1.77,1.88,0,.15-.03,.2-.19,.21-.7,.04-1.27,.59-1.38,1.29-.1,.69,.31,1.38,.96,1.63,.25,.1,.51,.11,.78,.1,.13,0,.17,.03,.17,.17,0,.4,0,.81,0,1.21,0,.27,.05,.33,.32,.33,.46,0,.92,0,1.38,0,.46,0,.92,0,1.38,0,.26,0,.32-.06,.32-.33,0-.33,0-.67,0-1q0-.35,.35-.38c.9-.07,1.58-.8,1.56-1.68-.02-.89-.75-1.61-1.65-1.61Zm-.69,4.4c0,.13-.03,.17-.16,.17-.75,0-1.51,0-2.26,0-.09,0-.14-.01-.14-.13,0-.34,0-.68,0-1.02,0-.11,.04-.13,.13-.13,.38,0,.75,0,1.13,0,.38,0,.75,0,1.13,0,.13,0,.17,.04,.17,.17,0,.31,0,.63,0,.94Zm.5-1.53c-.12-.02-.07-.1-.08-.16,0-.4,0-.81,0-1.21,0-.27-.06-.33-.32-.33-.23,0-.47,0-.7,0-.15,0-.25,.06-.25,.22,0,.15,.11,.2,.24,.21,.03,0,.06,0,.09,0q.52,0,.52,.53c0,.19,0,.38,0,.58,0,.14-.04,.17-.17,.17-.38,0-.75,0-1.13,0-.37,0-.74,0-1.11,0-.12,0-.16-.03-.15-.15,0-.32,0-.64,0-.96,0-.13,.03-.17,.16-.17,.28,.01,.55,0,.83,0,.15,0,.28-.05,.28-.22,0-.17-.13-.22-.28-.22-.38,0-.77,0-1.15,0-.19,0-.27,.09-.27,.28,0,.41,0,.82,0,1.24,0,.17-.05,.2-.2,.2-.39,0-.75-.06-1.02-.38-.29-.34-.35-.72-.18-1.13,.17-.41,.49-.63,.94-.66,.08,0,.17,0,.26,0,.29,.03,.37-.05,.32-.33-.03-.17-.03-.34-.01-.51,.08-.7,.71-1.25,1.44-1.26,.72-.02,1.36,.5,1.49,1.19,.03,.14,.04,.28,.04,.42-.01,.22,.09,.3,.3,.25,.76-.16,1.4,.28,1.52,1.04,.12,.75-.67,1.51-1.4,1.36Zm1.84-5.53c-.02-.12-.11-.18-.22-.2-.05-.01-.09-.04-.14-.05-.19-.02-.26-.12-.22-.32,.06-.28,.02-.57-.02-.85-.27-1.87-1.86-3.25-3.75-3.28-.93,0-1.76,.29-2.48,.87-.18,.14-.18,.24-.03,.41,.15,.17,.3,.33,.44,.49,.19,.2,.25,.21,.46,.05,.35-.27,.74-.44,1.18-.5,1.58-.22,2.86,.97,2.93,2.37,.01,.29,.03,.29-.26,.21-.11-.03-.21-.05-.29,.05-.08,.09-.05,.18-.02,.28,.19,.46,.38,.93,.57,1.4,.1,.24,.2,.27,.42,.13,.42-.27,.84-.54,1.26-.8,.09-.06,.18-.12,.17-.25Zm-1.44,.55c-.07,.04-.09,0-.11-.05-.1-.24-.2-.48-.3-.75,.34,.03,.39-.01,.42-.32,.16-1.98-1.49-3.54-3.46-3.24-.4,.06-.78,.21-1.13,.43-.12,.07-.38-.05-.39-.19,0-.07,.06-.09,.11-.12,.76-.51,1.6-.69,2.5-.53,1.44,.26,2.49,1.33,2.76,2.78,.07,.35,.06,.71,.02,1.06-.04,.33-.04,.33,.29,.48-.25,.16-.48,.3-.7,.45Zm-7.29,.08c-.14,0-.28,0-.43,0-.13,0-.22-.07-.22-.21,0-.14,.08-.21,.21-.21,.28,0,.57,0,.85,0,.13,0,.21,.09,.21,.22,0,.12-.09,.2-.21,.2-.14,0-.28,0-.43,0h0Zm-.02,1.71c-.13,0-.27,0-.4,0-.13,0-.22-.07-.22-.21,0-.14,.08-.21,.21-.22,.28,0,.55,0,.83,0,.14,0,.24,.08,.23,.22,0,.13-.1,.2-.23,.21-.14,0-.28,0-.43,0Zm5.13,2.77c-.13,0-.27,0-.4,0-.14,0-.23-.07-.23-.22,0-.14,.09-.21,.22-.21,.28,0,.55,0,.83,0,.13,0,.22,.08,.22,.21,0,.14-.1,.21-.24,.22-.13,0-.27,0-.4,0Zm0,1.71c-.13,0-.27,0-.4,0-.14,0-.23-.07-.23-.22,0-.14,.09-.2,.22-.21,.28,0,.55,0,.83,0,.13,0,.22,.08,.22,.21,0,.14-.1,.21-.24,.22-.13,0-.27,0-.4,0Z"/>
</svg>