<?xml version="1.0" encoding="UTF-8"?>
<svg id="Layer_1" data-name="Layer 1" xmlns="http://www.w3.org/2000/svg" viewBox="0 0 14 14">
  <defs>
    <style>
      .cls-1 {
        fill: #393939;
      }

      .cls-2 {
        fill: none;
      }
    </style>
  </defs>
  <rect class="cls-2" width="14" height="14"/>
  <path class="cls-1" d="M11.93,4.66c-.16-.08-.24-.18-.28-.35-.42-1.73-2.27-2.69-3.93-2.02-.13,.05-.2,.04-.29-.07-.71-.8-1.59-1.15-2.66-1.01-1.56,.21-2.69,1.65-2.51,3.2,.02,.13-.03,.16-.13,.21-1.31,.63-1.99,2.07-1.58,3.46,.35,1.18,1.16,1.89,2.39,2.1,.4,.07,.8,.02,1.19,.04,.06,0,.14-.03,.14,.08,0,.16,.05,.34,.03,.49-.07,.48-.02,.96-.03,1.44-.01,.44,.15,.59,.6,.59,.7,0,1.4,0,2.1,0,.72,0,1.43,0,2.15,0,.41,0,.58-.16,.58-.57,0-.61,0-1.21,0-1.82,0-.17,.03-.23,.22-.22,.47,0,.95,.04,1.41-.08,1.21-.31,2.08-1.33,2.21-2.6,.12-1.15-.54-2.33-1.61-2.86Zm-2.83,7.7c-.7,0-1.4,0-2.1,0-.69,0-1.38,0-2.08,0-.14,0-.2-.02-.19-.18,.01-.35,0-.69,0-1.04,0-.11,.03-.14,.14-.14,1.41,0,2.83,0,4.24,0,.13,0,.15,.05,.14,.16,0,.35,0,.69,0,1.04,0,.13-.03,.16-.16,.16Zm.16-1.97c0,.13-.04,.16-.16,.16-.7,0-1.4,0-2.1,0-.69,0-1.38,0-2.08,0-.14,0-.19-.03-.19-.18,.01-.34,.01-.68,0-1.02,0-.13,.04-.16,.16-.16,1.4,0,2.8,0,4.2,0,.12,0,.17,.03,.17,.16,0,.35,0,.69,0,1.04Zm0-1.81c0,.13-.04,.16-.16,.16-.7,0-1.4,0-2.1,0-.69,0-1.38,0-2.08,0-.14,0-.19-.03-.19-.18,.01-.34,.01-.68,0-1.02,0-.13,.04-.16,.16-.16,1.4,0,2.8,0,4.2,0,.12,0,.17,.03,.17,.16,0,.35,0,.69,0,1.04Zm3.84-1.13c-.08,1.07-.83,1.96-1.91,2.24-.46,.12-.93,.06-1.39,.07-.13,0-.08-.11-.08-.17,0-.7,0-1.39,0-2.09,0-.41-.16-.57-.57-.57-.72,0-1.43,0-2.15,0-.71,0-1.42,0-2.12,0-.43,0-.59,.16-.58,.59,.01,.48-.02,.96,.03,1.44,.02,.23-.02,.48-.03,.71,0,.07-.04,.09-.1,.08-.58-.01-1.17,.05-1.73-.18-.93-.38-1.56-1.3-1.56-2.3,0-1.01,.62-1.94,1.55-2.31,.33-.13,.35-.16,.29-.52-.22-1.31,.74-2.61,2.07-2.79,1.02-.14,1.82,.22,2.43,1.04,.13,.17,.24,.2,.43,.1,1.48-.73,3.14,.04,3.56,1.64,.02,.06,.02,.12,.02,.18,.01,.17,.09,.27,.25,.34,1.06,.44,1.67,1.4,1.59,2.49Zm-4.96,.38c.14,0,.29,0,.43,0,.14,0,.23,.08,.23,.22,0,.14-.09,.23-.23,.23-.3,0-.6,0-.9,0-.14,0-.23-.09-.22-.23,0-.14,.1-.21,.24-.22,.15,0,.3,0,.45,0Zm-2.73,0c.14,0,.23,.08,.23,.22,0,.14-.08,.22-.23,.22-.13,0-.21-.08-.22-.21,0-.14,.08-.22,.22-.24Zm.92,.22c-.03,.15-.1,.23-.24,.22-.14,0-.22-.1-.21-.24,.01-.13,.09-.2,.23-.2,.14,0,.21,.1,.23,.22Zm.45-.22c.14,.02,.22,.1,.22,.24,0,.14-.1,.22-.24,.21-.13,0-.21-.09-.2-.22,0-.14,.09-.21,.23-.22Zm1.35,2.26c-.15,0-.3,0-.45,0-.14,0-.23-.08-.23-.23,0-.14,.09-.22,.23-.22,.29,0,.59,0,.88,0,.14,0,.23,.07,.24,.22,0,.16-.09,.23-.24,.24-.14,0-.29,0-.43,0,0,0,0,0,0,0Zm-2.71,0c-.14,0-.23-.08-.23-.22,0-.13,.07-.21,.2-.23,.14-.01,.23,.06,.24,.2,.01,.14-.07,.22-.21,.24Zm.9-.23c-.02,.14-.09,.23-.23,.23-.14,0-.22-.09-.22-.23,0-.13,.08-.21,.21-.22,.14,0,.22,.08,.24,.22Zm.68,0c-.02,.15-.09,.24-.24,.23-.14,0-.22-.09-.22-.23,0-.13,.09-.21,.22-.21,.15,0,.21,.09,.23,.21Zm1.12,2.04c-.15,0-.3,0-.45,0-.14,0-.22-.09-.22-.23,0-.13,.09-.21,.22-.21,.31,0,.62,0,.92,0,.13,0,.21,.09,.21,.22,0,.13-.08,.22-.21,.22-.16,.01-.32,0-.47,0h0Zm-2.48-.22c-.02,.14-.1,.22-.24,.21-.14,0-.22-.1-.21-.24,.01-.13,.09-.2,.23-.2,.14,0,.21,.09,.22,.23Zm.46-.23c.14,.02,.22,.1,.22,.24,0,.14-.1,.22-.24,.21-.13,0-.21-.09-.2-.22,0-.14,.09-.21,.23-.22Zm.67,0c.14,.01,.23,.09,.22,.23,0,.14-.09,.22-.23,.22-.13,0-.21-.09-.21-.22,0-.14,.08-.22,.22-.23Z"/>
</svg>