<?xml version="1.0" encoding="UTF-8"?>
<svg id="Layer_1" data-name="Layer 1" xmlns="http://www.w3.org/2000/svg" viewBox="0 0 14 14">
  <defs>
    <style>
      .cls-1 {
        fill: #393939;
      }

      .cls-2 {
        fill: none;
      }
    </style>
  </defs>
  <rect class="cls-2" width="14" height="14"/>
  <path class="cls-1" d="M12.78,4.75c0-.54,0-.54-.52-.64-.14-.03-.18-.09-.25-.21-.19-.32-.16-.58,.09-.85,.1-.11,.07-.23-.04-.34-.12-.11-.23-.23-.34-.34-.44-.44-.35-.44-.86-.08-.1,.07-.17,.05-.27,.02-.34-.1-.56-.28-.55-.68,0-.13-.1-.21-.25-.2-.17,0-.35,0-.52,0-.51,.01-.55-.13-.63,.51-.02,.12-.09,.18-.21,.25-.32,.19-.59,.14-.85-.1-.1-.1-.22-.07-.32,.03-.12,.13-.25,.25-.37,.37-.43,.42-.39,.36-.08,.82,.08,.12,.06,.2,.03,.32-.09,.34-.28,.53-.65,.53-.16,0-.23,.11-.23,.27,0,.15,0,.31,0,.46,0,.65-.06,.57,.56,.68,.11,.02,.15,.08,.2,.17,.18,.32,.2,.6-.08,.88-.1,.1-.07,.22,.03,.32,.2,.2,.41,.41,.61,.61,.09,.09,.2,.11,.31,.03,.07-.05,.15-.09,.21-.15,.14-.12,.27-.14,.43-.04,.15,.1,.41,.07,.49,.22,.08,.15,.02,.37,.02,.55,0,.18,.09,.26,.26,.26,.14,0,.28,0,.42,0,.15,0,.31,0,.46,0,.15,0,.24-.08,.23-.24,0-.13,0-.27,0-.4-.01-.16,.05-.22,.2-.3,.33-.17,.6-.18,.87,.09,.1,.1,.22,.07,.32-.03,.11-.12,.23-.23,.34-.34,.39-.41,.49-.33,.09-.88-.06-.08-.05-.15-.02-.25,.1-.36,.29-.57,.68-.58,.16,0,.21-.12,.21-.26,0-.17,0-.34,0-.5Zm-2.9,1.28c-.15,.06-.2,.16-.2,.31,0,.51,0,1.02,0,1.53,0,.14-.04,.18-.18,.18-.39,0-.39,0-.39-.39s-.01-.82,0-1.23c0-.21-.07-.32-.27-.4-.49-.19-.77-.58-.82-1.1-.05-.55,.18-.97,.68-1.3,0,.33,.02,.62,0,.9-.03,.49,.36,.78,.69,.78,.42,0,.69-.3,.69-.78,0-.27,0-.54,0-.84,.37,.26,.57,.59,.6,1.01,.04,.59-.26,1.09-.81,1.33Zm2.26-.83c-.28,0-.46,.13-.5,.43-.01,.11-.07,.22-.13,.31-.17,.22-.14,.42,.04,.6,.16,.16,.12,.27-.04,.42-.25,.22-.25,.24-.53,.03-.16-.12-.3-.13-.47-.03-.42,.24-.41,.23-.43-.23,0-.23,.05-.37,.26-.51,.56-.37,.81-.92,.74-1.59-.06-.64-.4-1.11-.98-1.4-.3-.15-.43-.07-.43,.27,0,.36,0,.73,0,1.09,0,.2-.11,.32-.28,.32-.16,0-.28-.13-.28-.32,0-.39,0-.78,0-1.17,0-.26-.12-.34-.36-.24-.67,.27-1.07,.76-1.13,1.48-.06,.76,.27,1.33,.94,1.7,.1,.06,.14,.11,.14,.22,0,.19,0,.39,0,.59-.2-.04-.37-.11-.53-.21-.15-.1-.28-.09-.42,.01-.32,.22-.31,.21-.59-.04-.14-.12-.16-.22-.03-.35,.19-.2,.24-.41,.05-.66-.1-.13-.14-.3-.18-.47-.03-.13-.11-.2-.25-.22-.44-.07-.49-.14-.42-.6,.01-.11,.1-.12,.15-.12,.36,0,.55-.18,.6-.52,0-.06,.04-.13,.08-.18,.21-.25,.16-.49-.05-.71-.11-.11-.1-.2,.02-.31,.29-.27,.29-.28,.62-.06,.14,.09,.26,.1,.4,.01,.16-.1,.34-.18,.53-.22,.18-.03,.25-.15,.28-.32,.06-.37,.06-.34,.41-.37,.24-.02,.31,.08,.32,.28,0,.25,.11,.39,.37,.43,.16,.03,.32,.11,.45,.2,.15,.09,.27,.08,.4-.02,.33-.22,.32-.21,.6,.05,.12,.11,.16,.2,.03,.32-.06,.06-.09,.15-.15,.21-.07,.09-.08,.18-.02,.28,.13,.21,.22,.43,.28,.66,.03,.15,.15,.19,.28,.21,.39,.06,.37,.07,.39,.45,0,.19-.05,.27-.23,.27Zm1.1,3.58c-.19-.25-.5-.34-.81-.23-.98,.32-1.96,.64-2.94,.97-.12,.04-.18,.02-.2-.1-.04-.21-.17-.33-.36-.41-1.01-.42-2.01-.85-3.02-1.29-.35-.15-.68-.15-1.02,0-.39,.18-.78,.34-1.17,.51-.07,.03-.13,.08-.15-.06-.04-.3-.16-.39-.47-.39-.71,0-1.42,0-2.14,0-.32,0-.46,.14-.46,.46,0,.61,0,1.22,0,1.83,0,.61,0,1.22,0,1.83,0,.34,.16,.5,.5,.5,.66,0,1.32,0,1.97,0,.48,0,.59-.11,.59-.58,0-.12,.04-.18,.16-.2,.38-.09,.75-.19,1.12-.3,.12-.04,.21-.02,.32,.05,.52,.33,1.05,.64,1.56,.98,.42,.27,.83,.29,1.27,.06,1.67-.86,3.34-1.71,5.01-2.56,.1-.05,.19-.12,.26-.22,.18-.27,.17-.61-.02-.86ZM3.01,12c-.64,0-1.29,0-1.93,0-.15,0-.17-.05-.17-.18,0-.58,0-1.15,0-1.73s0-1.17,0-1.75c0-.13,.03-.17,.16-.17,.65,0,1.3,0,1.95,0,.13,0,.15,.04,.15,.16,0,1.17,0,2.34,0,3.5,0,.13-.03,.17-.17,.17Zm9.95-2.63c-.04,.07-.1,.1-.17,.13-1.67,.85-3.34,1.7-5.01,2.56-.27,.14-.52,.13-.78-.03-.54-.34-1.08-.67-1.61-1.01-.2-.13-.39-.17-.62-.1-.38,.12-.77,.21-1.18,.32,0-.82,0-1.61,0-2.4,0-.09,.04-.13,.11-.16,.49-.21,.98-.42,1.47-.63,.18-.08,.35-.07,.52,0,1.03,.44,2.06,.88,3.09,1.32,.11,.05,.14,.12,.16,.23,.06,.35-.35,.71-.71,.52-.44-.23-.92-.4-1.37-.6-.13-.06-.26-.07-.32,.07-.06,.14,0,.24,.15,.3,.52,.22,1.03,.44,1.54,.66,.32,.13,.77-.06,.98-.4,.06-.1,.13-.16,.23-.19,1.05-.34,2.09-.68,3.14-1.02,.15-.05,.27-.03,.36,.09,.09,.11,.1,.23,.03,.36Zm-10.76-.62c0-.14,.09-.21,.2-.21,.12,0,.21,.08,.2,.22,0,.12-.08,.2-.2,.2-.13,0-.2-.09-.2-.22Z"/>
</svg>