<?xml version="1.0" encoding="UTF-8"?>
<svg id="Layer_1" data-name="Layer 1" xmlns="http://www.w3.org/2000/svg" viewBox="0 0 14 14">
  <defs>
    <style>
      .cls-1 {
        fill: #393939;
      }

      .cls-2 {
        fill: none;
      }
    </style>
  </defs>
  <rect class="cls-2" width="14" height="14"/>
  <path class="cls-1" d="M1.45,5.03c-.13,.06-.23,.11-.32,.15-.12,.05-.21,0-.26-.1-.05-.1-.02-.2,.08-.25,.27-.14,.54-.28,.81-.41,.12-.06,.21,.01,.27,.12,.12,.26,.23,.52,.35,.77,.06,.13,.03,.23-.1,.29-.12,.05-.21,0-.27-.12-.05-.1-.1-.21-.16-.35-.14,.31-.23,.61-.31,.9-.33,1.2-.1,2.34,.46,3.4,1.08,2.05,2.82,3.08,5.14,3.15,.05,0,.1,0,.16,0,.14,0,.26,.03,.26,.2,0,.16-.11,.2-.25,.2-.44,.01-.88,0-1.31-.1-2.09-.44-3.61-1.62-4.51-3.57-.39-.84-.55-1.73-.48-2.65,.03-.49,.19-.96,.36-1.42,.02-.06,.04-.13,.08-.23ZM10.18,1.7C7.64,.3,4.59,.76,2.64,2.82c-.12,.13-.24,.27-.35,.41-.07,.09-.07,.2,.02,.28,.1,.08,.2,.07,.29-.03,.04-.05,.08-.1,.12-.15,.85-1,1.91-1.66,3.2-1.91,2.36-.44,4.3,.36,5.89,2.11,.03,.03,.08,.05,.04,.12-.16,0-.32,0-.48,0-.13,0-.21,.07-.21,.2,0,.13,.09,.2,.21,.2,.3,0,.59,0,.89,0,.14,0,.23-.08,.24-.21,0-.3,0-.59-.02-.89,0-.11-.09-.17-.2-.17-.11,0-.18,.07-.19,.18,0,.07,0,.15,0,.27-.57-.66-1.21-1.15-1.92-1.55Zm-.91,10.28c.09-.12,.11-.24-.03-.33-.13-.08-.23,0-.31,.11-.14,.22-.29,.43-.42,.65-.1,.16-.07,.26,.1,.34,.25,.12,.51,.23,.76,.34,.13,.06,.22,0,.27-.11,.05-.11,0-.2-.1-.26-.1-.05-.19-.09-.29-.13,0-.02,.01-.03,.02-.03,.06-.03,.12-.05,.17-.08,2.15-1.04,3.53-2.66,3.8-5.1,.1-.88-.06-1.73-.37-2.56-.03-.09-.09-.16-.19-.17-.08,0-.14,.03-.18,.1-.05,.09-.02,.17,.01,.26,.16,.43,.27,.87,.32,1.33,.14,1.35-.21,2.57-.98,3.67-.67,.95-1.56,1.66-2.65,2.1,.02-.04,.05-.08,.07-.11Zm1.79-4.97c0,.12,0,.23,0,.35-.01,.3-.19,.47-.49,.48q-.33,0-.45,.32s-.02,.05-.03,.07c-.18,.28-.26,.54,.08,.79,.17,.13,.12,.42-.05,.59-.15,.16-.31,.31-.47,.46-.22,.19-.47,.18-.68-.02-.26-.25-.26-.24-.58-.1-.11,.05-.21,.1-.33,.12-.19,.03-.23,.14-.23,.32,.01,.45-.16,.61-.6,.6-.18,0-.36,0-.54-.02-.28-.01-.47-.17-.44-.45,.03-.3-.08-.44-.37-.5-.13-.03-.26-.09-.37-.17-.11-.08-.18-.05-.26,.04-.06,.07-.13,.14-.21,.2-.17,.12-.4,.11-.57-.04-.18-.16-.34-.33-.5-.51-.18-.21-.16-.45,.04-.66q.24-.26,.1-.57s-.03-.04-.03-.07c-.07-.34-.21-.56-.63-.51-.21,.03-.37-.19-.38-.42,0-.24,0-.48,0-.72,0-.26,.19-.46,.44-.43,.3,.03,.46-.06,.51-.36,.02-.1,.07-.21,.13-.3,.12-.16,.07-.26-.07-.38-.31-.29-.3-.53,0-.82,.12-.12,.25-.25,.38-.36,.23-.21,.48-.21,.71,0,.25,.24,.25,.23,.57,.09,.14-.06,.27-.11,.42-.15,.11-.03,.15-.08,.14-.19,0-.08,0-.17,0-.25,.02-.27,.18-.45,.45-.47,.23-.01,.47-.01,.7,0,.27,.01,.43,.2,.44,.47q0,.36,.35,.5s.07,.02,.09,.03c.27,.19,.51,.22,.74-.09,.12-.16,.38-.14,.55,0,.21,.17,.4,.37,.57,.58,.06,.08,.09,.17,.08,.26,0,.2-.09,.32-.22,.42-.15,.12-.2,.23-.08,.42,.1,.15,.15,.34,.2,.52,.03,.1,.08,.14,.18,.13,.56-.05,.77,.14,.73,.77Zm-.4,.27c0-.16,0-.32,0-.48,0-.12-.05-.16-.16-.15-.15,0-.3,0-.45,0-.13,0-.22-.07-.24-.19-.06-.36-.2-.68-.39-.98-.07-.12-.06-.22,.04-.31,.11-.1,.21-.21,.32-.31,.03-.03,.06-.05,.06-.11-.02-.02-.04-.05-.06-.08-.12-.12-.24-.24-.35-.36-.08-.09-.14-.08-.22,0-.09,.1-.19,.19-.29,.29-.08,.08-.18,.11-.28,.05-.31-.21-.65-.34-1.01-.43-.11-.03-.16-.1-.16-.21,0-.14,0-.27,0-.41,.02-.16-.05-.2-.2-.19-.14,.01-.28,0-.43,0-.12,0-.16,.03-.16,.15,0,.14,0,.28,0,.43,0,.14-.06,.24-.21,.26-.35,.06-.67,.2-.96,.39-.12,.07-.22,.06-.31-.04-.1-.1-.2-.2-.3-.3-.07-.07-.13-.09-.21-.01-.12,.13-.25,.25-.38,.36-.08,.07-.07,.12,0,.19,.1,.09,.19,.19,.29,.29,.1,.1,.12,.2,.04,.33-.19,.29-.33,.61-.4,.95-.03,.13-.12,.19-.25,.19-.14,0-.28,0-.43,0-.09,0-.14,.03-.13,.12,0,.05,0,.1,0,.16,0,.51,0,.52,.5,.51,.21,0,.32,.07,.35,.27,.04,.26,.15,.5,.28,.74,.19,.34,.19,.34-.09,.61,0,0-.02,.02-.03,.03-.27,.28-.27,.2,0,.48,.31,.32,.31,.32,.62,.01,.03-.03,.06-.06,.1-.1,.09-.09,.19-.1,.3-.03,.29,.2,.62,.33,.96,.41,.15,.03,.2,.12,.2,.26,0,.14,0,.27,0,.41,0,.06,0,.13,.08,.13,.22,0,.48,.07,.66-.03,.12-.06,.03-.31,.04-.48,0-.01,0-.03,0-.04,0-.15,.06-.24,.22-.27,.34-.06,.65-.2,.95-.38,.12-.08,.23-.06,.33,.04,.1,.1,.2,.2,.3,.3,.04,.04,.09,.1,.15,.05,.17-.16,.4-.29,.47-.5,.04-.11-.2-.23-.3-.35,0,0-.02-.02-.03-.03-.12-.11-.13-.22-.04-.36,.12-.18,.2-.37,.29-.57,.07-.17,.03-.39,.2-.51,.16-.11,.37-.04,.55-.04,.11,0,.17-.03,.16-.15Zm-5.35,.2c.28,.99,1.39,1.56,2.36,1.21,1-.37,1.48-1.44,1.05-2.39-.06-.13-.13-.26-.3-.19-.17,.07-.14,.21-.07,.34,.13,.27,.15,.56,.09,.85-.12,.63-.74,1.09-1.42,1.08-.67-.02-1.25-.52-1.35-1.17-.1-.64,.29-1.26,.92-1.49,.19-.07,.39-.07,.59-.09,.11-.01,.18-.06,.19-.18,0-.12-.06-.18-.17-.2-.06-.01-.12-.02-.17-.02-.97,.01-1.76,.8-1.76,1.77,0,.16,.01,.32,.05,.48Zm2.7-1.54c.13,0,.19-.08,.2-.2,.01-.12-.24-.33-.39-.32-.12,0-.19,.08-.19,.17,0,.15,.23,.35,.39,.34Z"/>
</svg>