<?xml version="1.0" encoding="UTF-8"?>
<svg id="Layer_1" data-name="Layer 1" xmlns="http://www.w3.org/2000/svg" viewBox="0 0 14 14">
  <defs>
    <style>
      .cls-1 {
        fill: #393939;
      }

      .cls-2 {
        fill: none;
      }
    </style>
  </defs>
  <rect class="cls-2" width="14" height="14"/>
  <path class="cls-1" d="M13.26,10.16c-.08-.35-.4-.58-.75-.52-.18,.04-.29-.01-.39-.15-.12-.18-.29-.23-.51-.22-.34,.01-.67,0-1.01,0-.13,0-.17-.04-.17-.17,0-.48,0-.96,0-1.43,0-.48,0-.47,.47-.48,.18,0,.29,.02,.38,.2,.14,.26,.47,.35,.74,.27,.29-.09,.5-.37,.49-.67,0-.29-.2-.57-.47-.65-.3-.09-.64,0-.77,.25-.1,.22-.25,.22-.43,.21-.09,0-.18,0-.26,0-.13,.01-.16-.04-.16-.16,0-.59,0-1.17,0-1.76,0-.14,.05-.17,.17-.17,.34,0,.69,0,1.03,0,.2,.01,.35-.05,.46-.21,.09-.14,.19-.2,.38-.16,.3,.06,.6-.12,.72-.4,.12-.28,.04-.62-.19-.81-.23-.19-.58-.21-.83-.04-.25,.17-.36,.47-.26,.78,.04,.11,.02,.18-.05,.27-.11,.16-.26,.16-.42,.17-.13,0-.16-.04-.16-.16,0-.44,0-.88,0-1.31,0-.23-.06-.28-.29-.28-.45,0-.9,0-1.35,0-.06,0-.16,.04-.16-.07,0-.17-.07-.36,.17-.47,.27-.13,.37-.46,.29-.73-.09-.3-.33-.49-.63-.5-.33,0-.59,.16-.69,.45-.09,.28-.02,.63,.23,.75,.21,.11,.24,.25,.22,.45,0,.07,0,.13,0,.2,0,.24,.05,.29,.3,.29,.45,0,.9,0,1.35,0,.08,0,.16-.02,.16,.11,0,.38,0,.77,0,1.15,0,.05,0,.09-.06,.11-.27,.08-.41-.02-.41-.29,0,0,0-.01,0-.02,0-.34-.02-.36-.37-.36-.9,0-1.79,0-2.69,0-.14,0-.21-.02-.19-.18,.01-.21,.01-.43,0-.65,0-.14,.02-.24,.17-.31,.25-.13,.37-.44,.31-.69-.08-.33-.32-.54-.65-.56-.26-.02-.54,.16-.65,.4-.12,.28-.08,.65,.17,.78,.28,.15,.27,.36,.26,.61,0,.14-.01,.28,0,.42,.01,.15-.05,.18-.18,.18-.84,0-1.68,0-2.53,0-.52,0-.53,0-.55,.51,0,.1-.03,.15-.14,.14-.06,0-.12,0-.18,0-.11,.01-.15-.02-.15-.14,0-.36,0-.73,0-1.09,0-.12,.04-.15,.15-.15,.36,0,.71,0,1.07,0,.64,0,.59,.05,.58-.59,0-.13,.01-.21,.15-.28,.33-.18,.43-.59,.25-.91-.18-.33-.59-.45-.93-.27-.23,.13-.35,.32-.36,.59,0,.27,.11,.49,.36,.61,.22,.1,.13,.28,.12,.41,0,.13-.15,.06-.24,.07-.42,0-.84,0-1.25,0-.26,0-.31,.05-.31,.31,0,.43,0,.86,0,1.29,0,.05,.03,.15-.05,.15-.14,0-.31,.07-.43-.04-.11-.1-.25-.2-.16-.42,.11-.29-.03-.61-.29-.77-.26-.16-.59-.13-.81,.07-.22,.2-.29,.56-.14,.83,.14,.28,.44,.43,.74,.35,.13-.03,.22,0,.29,.1,.14,.2,.33,.27,.57,.25,.32-.02,.63,0,.95,0,.16,0,.19,.05,.19,.19,0,.44,0,.89,0,1.33,0,.17,.07,.4-.03,.51-.12,.12-.34,.02-.52,.04-.17,.02-.29-.02-.39-.19-.14-.26-.46-.35-.74-.27-.28,.09-.48,.34-.49,.63,0,.32,.16,.58,.44,.68,.28,.1,.63,.04,.76-.21,.13-.26,.32-.25,.54-.24,.09,0,.19,0,.28,0,.11,0,.15,.03,.15,.15,0,.59,0,1.19,0,1.78,0,.12-.04,.16-.16,.16-.32,0-.65,.01-.97,0-.24-.01-.42,.05-.55,.25-.09,.13-.19,.17-.35,.13-.32-.06-.6,.11-.73,.39-.12,.28-.04,.62,.18,.81,.24,.2,.56,.22,.82,.05,.26-.17,.37-.48,.26-.79-.04-.1-.02-.16,.04-.25,.11-.16,.24-.18,.42-.18,.13,0,.17,.03,.17,.17,0,.42,0,.83,0,1.25,0,.31,.03,.34,.35,.34,.43,0,.86,0,1.29,0,.07,0,.16-.03,.16,.09,0,.17,.04,.33-.18,.43-.26,.12-.37,.46-.29,.73,.08,.3,.34,.5,.65,.51,.3,0,.58-.19,.67-.46,.09-.28,.01-.63-.24-.75-.22-.11-.24-.25-.22-.45,0-.07,0-.13,0-.2,0-.24-.04-.28-.28-.29-.46,0-.92,0-1.37,0-.11,0-.15-.03-.15-.15,0-.32,.02-.65,0-.97-.01-.21,.05-.27,.26-.26,.19,0,.24,.06,.21,.23,0,.05,0,.09,0,.14,0,.25,.06,.3,.3,.3,.46,0,.92,0,1.37,0,.46,0,.93,0,1.39,0,.15,0,.2,.03,.2,.19-.01,.26,0,.53,0,.79,0,.12-.03,.19-.14,.25-.28,.14-.41,.46-.32,.75,.09,.32,.35,.52,.66,.52,.33,0,.59-.22,.68-.56,.07-.28-.07-.59-.35-.72-.1-.05-.13-.11-.13-.22,0-.27,.01-.54,0-.81,0-.15,.03-.19,.19-.19,.86,0,1.72,0,2.59,0,.44,0,.5,.05,.47-.47,0-.15,.04-.2,.18-.18,.05,0,.09,0,.14,0,.13-.02,.16,.04,.16,.16,0,.35,0,.7,0,1.05,0,.14-.05,.17-.17,.17-.46,0-.92,0-1.37,0-.19,0-.28,.08-.27,.27,0,.1,0,.2,0,.3,.02,.16-.02,.26-.18,.35-.26,.14-.36,.44-.28,.74,.08,.29,.32,.49,.63,.51,.27,.02,.55-.16,.66-.41,.15-.34,.03-.7-.31-.87-.21-.11-.11-.28-.11-.42,0-.12,.14-.05,.22-.06,.41,0,.82,0,1.23,0,.3,0,.34-.04,.34-.33,0-.42,0-.85,0-1.27,0-.06-.04-.16,.09-.16,.1,0,.2-.01,.3,0,.15,.02,.28,.28,.25,.42-.05,.18-.05,.36,.03,.53,.15,.31,.52,.46,.84,.34,.34-.13,.53-.46,.45-.81Zm-1.44-3.46c.15,0,.3,.14,.3,.29,0,.15-.15,.29-.3,.29-.15,0-.28-.13-.29-.28,0-.16,.13-.3,.29-.3Zm.74-3.3c.15,0,.3,.14,.3,.3,0,.16-.15,.3-.3,.29-.15,0-.28-.15-.27-.3,0-.15,.14-.29,.28-.29Zm-3.26-1.63c-.16,0-.29-.14-.29-.3,0-.15,.13-.28,.28-.28,.15,0,.28,.12,.29,.28,0,.16-.12,.3-.28,.3Zm-4.9-.29c0-.15,.13-.28,.27-.29,.15-.01,.3,.13,.31,.28,0,.16-.13,.3-.29,.3-.16,0-.29-.13-.29-.29ZM1.39,3.97c-.15,0-.28-.14-.28-.29,0-.16,.14-.29,.3-.28,.15,0,.28,.14,.28,.29,0,.15-.15,.29-.3,.29Zm.66,3.31c-.15,0-.28-.12-.29-.28,0-.17,.12-.3,.28-.3,.15,0,.29,.13,.3,.27,0,.15-.14,.3-.29,.31Zm-.65,3.3c-.14,0-.3-.16-.29-.3,0-.15,.15-.29,.3-.29,.15,0,.28,.14,.28,.29,0,.15-.15,.3-.29,.3Zm3.25,1.63c.15-.01,.31,.13,.32,.27,0,.15-.14,.3-.29,.3-.16,0-.29-.13-.29-.3,0-.16,.1-.26,.26-.28ZM6.72,1.97c0-.15,.13-.27,.28-.28,.17,0,.3,.12,.3,.28,0,.15-.13,.29-.28,.29-.15,0-.3-.15-.3-.29Zm.56,10.15c0,.16-.14,.29-.3,.29-.15,0-.28-.13-.28-.29,0-.16,.12-.28,.27-.29,.16,0,.3,.13,.3,.28Zm2.57-2.19c-.96,0-1.91,0-2.87,0s-1.9,0-2.85,0c-.16,0-.2-.04-.2-.2,0-1.82,0-3.65,0-5.47,0-.15,.03-.21,.2-.21,1.91,0,3.82,0,5.74,0,.15,0,.2,.03,.2,.19,0,1.83,0,3.66,0,5.49,0,.17-.06,.2-.21,.2Zm-.27,2.57c0,.15-.16,.29-.31,.28-.15,0-.28-.15-.28-.29,0-.15,.14-.28,.29-.28,.16,0,.31,.14,.3,.29Zm3-1.91c-.15,0-.29-.12-.3-.27-.01-.16,.12-.3,.28-.31,.15,0,.29,.12,.3,.27,0,.16-.12,.3-.28,.31Zm-3.38-4.19c-.35-.06-.45-.31-.24-.59,.11-.15,.1-.26-.03-.39-.13-.12-.26-.24-.37-.37-.14-.16-.28-.15-.44-.03-.25,.18-.52,.06-.56-.25-.02-.19-.11-.27-.3-.27-.18,0-.36,0-.55,0-.2,0-.29,.08-.32,.27-.05,.33-.31,.43-.58,.24-.15-.11-.28-.1-.41,.03-.11,.12-.23,.25-.36,.36-.16,.14-.17,.28-.03,.43,.11,.12,.12,.23,.04,.38-.06,.11-.12,.17-.25,.19-.29,.04-.31,.07-.31,.38,0,.13,0,.26,0,.38,0,.35,0,.35,.35,.41,.21,.04,.33,.33,.22,.5-.05,.08-.14,.15-.13,.27,0,.08,.04,.14,.09,.19,.13,.13,.26,.25,.38,.39,.13,.15,.27,.18,.41,.03,.12-.12,.24-.13,.39-.05,.12,.06,.17,.13,.19,.25,.04,.29,.06,.3,.37,.3,.17,0,.34,0,.5,0,.19,.01,.27-.08,.29-.25,.05-.35,.3-.46,.58-.25,.16,.12,.28,.1,.4-.04,.12-.13,.24-.25,.37-.37,.15-.13,.15-.26,.03-.42-.2-.27-.08-.52,.25-.57,.17-.02,.27-.1,.26-.29,0-.19-.01-.38,0-.56,.01-.2-.07-.28-.26-.31Zm-.07,.57c0,.14-.01,.25-.19,.26-.18,0-.26,.11-.3,.27-.01,.07-.04,.15-.08,.21-.13,.2-.16,.39,.03,.58,.1,.1-.02,.15-.07,.21-.06,.05-.11,.19-.22,.09-.19-.18-.38-.16-.58-.02-.05,.04-.12,.06-.19,.07-.18,.03-.28,.13-.3,.3-.02,.22-.18,.16-.31,.17-.16,.02-.15-.11-.16-.2-.02-.16-.09-.24-.24-.28-.09-.02-.18-.05-.26-.1-.19-.12-.37-.14-.55,.03-.12,.12-.17-.03-.24-.08-.07-.06-.16-.12-.06-.22,.17-.17,.16-.34,.03-.52-.04-.06-.07-.13-.08-.21-.03-.21-.15-.31-.35-.31-.12,0-.13-.07-.12-.16,.02-.1-.08-.26,.11-.27,.25-.01,.36-.15,.4-.37,.01-.07,.05-.14,.09-.2,.11-.16,.1-.32-.04-.46-.11-.11-.04-.18,.05-.26,.09-.08,.16-.17,.28-.05,.13,.13,.28,.14,.44,.03,.06-.04,.13-.07,.2-.09,.24-.04,.37-.16,.39-.41,.01-.17,.17-.08,.26-.1,.09-.02,.16,0,.17,.11,0,.22,.12,.35,.34,.38,.06,.01,.13,.04,.19,.08,.19,.12,.36,.13,.53-.03,.08-.07,.35,.09,.35,.22-.03,.05-.07,.11-.12,.17-.08,.1-.09,.2-.02,.32,.07,.12,.13,.25,.16,.39,.03,.15,.12,.23,.28,.24,.13,0,.2,.06,.19,.21Zm-2.13-1.25c-.7-.01-1.27,.55-1.28,1.26-.01,.7,.55,1.27,1.26,1.28,.71,.01,1.27-.54,1.29-1.25,.01-.72-.54-1.29-1.26-1.3Zm-.02,2.16c-.48,0-.88-.42-.87-.9,0-.48,.4-.87,.88-.87,.48,0,.89,.41,.89,.89,0,.48-.43,.89-.9,.88Z"/>
</svg>