<?xml version="1.0" encoding="UTF-8"?>
<svg id="Layer_1" data-name="Layer 1" xmlns="http://www.w3.org/2000/svg" viewBox="0 0 14 14">
  <defs>
    <style>
      .cls-1 {
        fill: #393939;
      }

      .cls-2 {
        fill: none;
      }
    </style>
  </defs>
  <rect class="cls-2" width="14" height="14"/>
  <path class="cls-1" d="M13.33,9.77c-.11-.32-.43-.52-.78-.5-.2,.01-.37,.11-.59,.19,.2-.47,.31-.92,.31-1.4,.01-1.44-.62-2.61-1.56-3.65-.07-.08-.17-.11-.26-.04-.1,.08-.09,.18-.02,.28,.03,.05,.08,.09,.11,.13,.58,.66,1.03,1.4,1.24,2.27,.21,.87,.15,1.71-.3,2.51-.06,.11-.13,.18-.25,.23-.66,.29-1.32,.57-1.98,.87-.11,.05-.15,.06-.16-.09-.01-.63-.43-1.09-1.04-1.15-.5-.06-.99-.12-1.49-.16-.54-.04-1.04-.18-1.5-.49-.25-.17-.54-.29-.83-.37-.16-.04-.19-.12-.2-.26-.02-.4,.03-.79,.13-1.18,.39-1.39,1.28-2.41,2.38-3.29,.05-.04,.08-.04,.14-.02,.59,.23,1.21,.2,1.83,.15,.23-.02,.45-.06,.65-.18,.07-.05,.12-.01,.17,.03,.15,.13,.31,.26,.46,.39,.09,.08,.19,.09,.28,0,.09-.09,.06-.19-.03-.27-.15-.13-.29-.26-.45-.37-.12-.09-.19-.17-.17-.33,.02-.14-.04-.27-.14-.37-.07-.07-.06-.13,0-.2,.17-.26,.32-.53,.43-.83,.06-.17,.11-.34,.1-.53-.02-.31-.24-.46-.53-.33-.14,.06-.26,.06-.38-.02-.24-.15-.49-.15-.73,0-.14,.09-.26,.09-.4,0-.25-.16-.5-.15-.75,0-.12,.07-.23,.07-.35,.02-.31-.13-.51,0-.54,.33-.01,.12,0,.23,.04,.35,.09,.34,.26,.65,.44,.95,.02,.04,.09,.08,.04,.14-.06,.07-.1,0-.14-.04-.27-.23-.58-.35-.93-.32-.33,.03-.65-.01-.93-.2-.1-.07-.21-.06-.27,.05-.06,.1-.03,.2,.08,.27,.16,.1,.33,.17,.52,.22,.23,.06,.46,.05,.7,.04,.3-.01,.53,.11,.73,.37-.27,.03-.5,.03-.73,.1-.42,.12-.78,.31-1.03,.69-.09,.14-.06,.26,.07,.3,.13,.05,.19-.04,.25-.13,.35-.47,.86-.55,1.39-.57-.03,.05-.07,.08-.11,.11-.52,.42-1.01,.88-1.41,1.42-.68,.9-1.14,1.88-1.15,3.04,0,.34,0,.34-.34,.33-.13,0-.18-.03-.19-.16-.04-.3-.23-.48-.54-.49-.27,0-.55,0-.82,0-.33,.01-.54,.22-.54,.55,0,1.41,0,2.82,0,4.23,0,.33,.23,.54,.56,.55,.25,0,.51,0,.76,0,.31,0,.5-.15,.57-.45,.03-.13,.08-.11,.17-.08,.39,.15,.79,.3,1.18,.44,.41,.15,.81,.32,1.25,.32,.91,0,1.82,0,2.73,0,.4,0,.78-.09,1.11-.31,1.15-.72,2.3-1.45,3.44-2.18,.29-.19,.4-.56,.28-.9ZM8.85,3.36c-.31,.08-.62,.12-.94,.12-.32,0-.63-.04-.94-.12-.17-.04-.25-.17-.21-.33,.04-.17,.16-.21,.31-.17,.57,.14,1.13,.14,1.69,0,.16-.04,.27,.02,.31,.18,.04,.16-.05,.28-.22,.33Zm-2.32-1.98c-.02-.08-.04-.15,0-.25,.27,.15,.52,.08,.76-.07,.1-.06,.19-.04,.27,.02,.27,.18,.54,.19,.82,0,.12-.08,.23-.07,.35,0,.2,.13,.4,.17,.63,.08,.13-.05,.11,.03,.09,.1-.09,.43-.32,.79-.55,1.15-.03,.05-.09,.05-.14,.06-.52,.13-1.04,.14-1.56,.02-.06-.01-.11-.03-.14-.09-.21-.33-.41-.66-.52-1.04Zm6.29,8.99c-1.15,.73-2.29,1.45-3.44,2.17-.29,.18-.63,.24-.97,.24-.86,0-1.72,0-2.57,0-.27,0-.53-.05-.78-.14-.58-.22-1.15-.43-1.73-.64-.12-.04-.16-.1-.16-.22,0-.55,0-1.11,0-1.66,0-.06,0-.13-.02-.19-.02-.1-.09-.14-.19-.13-.1,0-.15,.06-.17,.16,0,.05,0,.1,0,.16,0,.72,0,1.44,0,2.16,0,.24-.02,.27-.27,.27-.21,0-.43,0-.64,0-.18,0-.26-.07-.25-.25,0-.68,0-1.37,0-2.05,0-.67,0-1.34,0-2.01,0-.24,.03-.27,.27-.27,.21,0,.43,0,.64,0,.18,0,.26,.06,.25,.25-.01,.28,0,.56,0,.84,0,.13,.03,.24,.19,.24,.16,0,.18-.12,.19-.24,0,0,0-.01,0-.02,.01-.44,.02-.44,.46-.4,.39,.04,.77,.15,1.1,.37,.72,.48,1.53,.61,2.37,.68,.35,.03,.7,.07,1.04,.12,.41,.06,.72,.55,.61,.95-.03,.1-.1,.07-.15,.07-.52,0-1.04,0-1.56,0-.05,0-.09,0-.14,0-.12,0-.21,.04-.21,.18,0,.14,.09,.19,.22,.19,.03,0,.05,0,.08,0,.6,0,1.21,0,1.81,0,.11,0,.22-.02,.32-.07,1.03-.46,2.06-.91,3.1-1.36,.1-.04,.2-.09,.31-.11,.2-.05,.37,.04,.45,.22,.08,.18,.03,.39-.14,.5Zm-4.5-3.87c-.15-.05-.2-.12-.19-.27,.02-.19,0-.38,0-.57q0-.42,.37-.22c.09,.05,.18,.04,.24-.04,.07-.09,.06-.18-.03-.26-.12-.1-.26-.19-.41-.21-.16-.02-.19-.1-.18-.23,.01-.13-.02-.24-.18-.25-.16,0-.19,.12-.18,.24,.02,.16-.05,.22-.19,.27-.34,.12-.52,.38-.56,.73-.04,.31,.04,.63,.34,.75,.43,.17,.46,.47,.42,.84,0,.03,0,.06,0,.1,0,.19,0,.39,0,.58,0,.14-.05,.17-.18,.14-.13-.03-.25-.08-.36-.15-.11-.07-.23-.1-.3,.04-.07,.13,0,.22,.12,.28,.12,.07,.25,.15,.39,.17,.23,.02,.38,.09,.33,.36-.02,.09,.06,.15,.16,.16,.11,0,.17-.05,.19-.16,0-.04,0-.09,0-.14-.02-.13,.02-.19,.16-.23,.41-.12,.72-.53,.74-.96,.02-.45-.22-.8-.71-.97Zm-.7-.31c-.38-.19-.25-.7,0-.84,.1-.06,.17-.08,.16,.08,0,.12,0,.23,0,.35,0,.1,0,.21,0,.31,.01,.14-.02,.17-.16,.1Zm.66,1.85c-.09,.05-.15,.07-.15-.08,0-.37,0-.74,0-1.13,.35,.1,.49,.25,.51,.51,.02,.3-.12,.57-.37,.7Z"/>
</svg>