<?xml version="1.0" encoding="UTF-8"?>
<svg id="Layer_1" data-name="Layer 1" xmlns="http://www.w3.org/2000/svg" viewBox="0 0 14 14">
  <defs>
    <style>
      .cls-1 {
        fill: #393939;
      }

      .cls-2 {
        fill: none;
      }
    </style>
  </defs>
  <rect class="cls-2" width="14" height="14"/>
  <path class="cls-1" d="M10.04,3.54c-.96-.96-1.91-1.91-2.87-2.87-.1-.1-.21-.14-.36-.14-1.74,0-3.47,0-5.21,0-.54,0-.75,.21-.75,.75,0,1.89,0,3.79,0,5.68,0,1.92,0,3.83,0,5.75,0,.46,.22,.71,.64,.71,2.67,0,5.34,0,8.01,0,.41,0,.65-.25,.65-.66,0-2.97,0-5.94,0-8.91,0-.12-.03-.22-.12-.31ZM7.18,1.32c.73,.73,1.46,1.46,2.2,2.19-.67,0-1.34,0-2.01,0-.11,0-.18-.06-.18-.17,0-.68,0-1.36,0-2.02Zm2.55,11.37c0,.24-.05,.29-.29,.29-2.63,0-5.26,0-7.88,0-.25,0-.3-.05-.3-.3,0-1.91,0-3.82,0-5.73,0-1.89,0-3.79,0-5.68,0-.31,.01-.33,.33-.33,1.64,0,3.29,0,4.93,0,.2,0,.23,.06,.23,.24-.01,.68,0,1.37,0,2.05,0,.46,.22,.68,.68,.68,.7,0,1.4,0,2.09,0,.15,0,.21,.03,.21,.2,0,2.86,0,5.73,0,8.59Zm3.42-7.78c0-.16,.04-.37-.2-.37-.25,0-.22,.2-.21,.36,0,.14-.08,.14-.18,.14-.12,0-.17-.03-.16-.16,0-.16,0-.31-.02-.47-.05-.32-.24-.53-.53-.64-.3-.11-.57-.04-.81,.16-.22,.18-.3,.43-.3,.7,0,1.08,0,2.16,0,3.25,0,1.03,0,2.05,0,3.08,0,.8,.19,1.55,.61,2.24,.17,.28,.28,.28,.45,0,.42-.7,.6-1.47,.6-2.28,0-1.74,0-3.49,0-5.23,0-.12-.05-.25,.17-.25,.23,0,.16,.15,.16,.26,0,.21,0,.41,0,.62,0,.37,0,.74,0,1.11,0,.15,0,.32,.21,.32,.22,0,.2-.18,.2-.33,0-.01,0-.03,0-.04,0-.82,0-1.64,0-2.46Zm-2.04-.24c.01-.36,.2-.56,.49-.53,.2,.02,.32,.15,.36,.34,.02,.15,.01,.3,.01,.45,0,.09-.05,.11-.12,.1-.11,0-.21,0-.32,0-.01,0-.03,0-.04,0q-.39,0-.38-.36Zm.03,2.93c0-.66,0-1.32,0-1.99,0-.14,.03-.19,.18-.18,.18,.01,.36,0,.53,0,.11,0,.15,.02,.15,.14,0,1.35,0,2.71,0,4.06,0,.11-.03,.16-.14,.15-.23-.01-.51,.07-.66-.04-.15-.11-.05-.41-.05-.63,0-.51,0-1.01,0-1.52Zm.54,4.96c-.03,.06-.04,.14-.12,.19-.22-.42-.34-.87-.38-1.34-.03-.36-.01-.72-.02-1.09,0-.1,.03-.15,.13-.14,.01,0,.03,0,.04,0,.21,0,.49-.07,.62,.04,.14,.11,.04,.4,.05,.61,.01,.6-.08,1.17-.32,1.73ZM4.23,5.78c.57,0,1.14,0,1.71,0,.15,0,.29,.02,.29,.2,0,.18-.14,.21-.29,.21-1.15,0-2.29,0-3.44,0-.15,0-.3-.03-.3-.22,0-.18,.15-.19,.3-.19,.58,0,1.15,0,1.73,0Zm4.57,.44c-.21-.2-.52-.23-.77-.09-.24,.14-.37,.42-.29,.72,.03,.12,0,.18-.08,.25-.25,.25-.49,.49-.73,.75-.12,.12-.22,.22-.41,.15-.07-.02-.18-.03-.23,.01-.24,.19-.4,.02-.59-.09-.13-.08-.26-.17-.4-.24-.09-.05-.12-.11-.13-.22-.01-.37-.28-.63-.64-.63-.44,0-.74,.39-.61,.82,.03,.11,.01,.18-.06,.26-.29,.32-.58,.65-.86,.97-.08,.09-.15,.13-.29,.1-.25-.05-.46,.05-.61,.26-.14,.19-.17,.4-.06,.62,.14,.29,.5,.44,.81,.33,.31-.1,.49-.42,.41-.75-.04-.15,0-.25,.1-.36,.24-.26,.48-.53,.71-.8,.13-.15,.24-.33,.49-.22,.04,.02,.11,.01,.15-.01,.25-.18,.43-.01,.62,.11,.1,.06,.19,.13,.29,.18,.13,.07,.2,.15,.19,.31,0,.27,.16,.45,.4,.56,.24,.1,.46,.06,.66-.11,.2-.17,.28-.4,.2-.65-.04-.11,0-.17,.07-.24,.27-.27,.53-.53,.79-.81,.09-.1,.18-.15,.33-.11,.29,.06,.57-.09,.69-.35,.12-.26,.07-.55-.14-.74Zm-6.16,3.64c-.14-.02-.23-.09-.23-.23,0-.14,.1-.24,.25-.24,.13,0,.23,.09,.22,.23,0,.15-.1,.23-.24,.24Zm1.92-2.13c-.15,0-.24-.09-.24-.24,0-.15,.09-.21,.23-.23,.15,.01,.24,.09,.24,.24,0,.14-.09,.23-.24,.22Zm1.9,1.17c-.15,0-.24-.09-.24-.24,0-.14,.08-.22,.23-.23,.15,0,.24,.08,.24,.24,0,.14-.08,.23-.22,.23Zm1.87-1.95c-.15,0-.23-.09-.22-.24,0-.14,.1-.22,.23-.23,.14,0,.24,.09,.24,.24,0,.15-.09,.23-.25,.23Zm.29-2.2c-.06,0-.13,0-.19,0-.8,0-1.61,0-2.41,0-.18,0-.4,.08-.51-.04-.1-.11-.02-.33-.03-.5,0-.02,0-.04,0-.06-.02-.34-.26-.61-.61-.63-.5-.03-1.01-.03-1.51,0-.35,.02-.59,.27-.61,.62,0,.16,0,.31,0,.47,0,.1-.03,.14-.14,.14-.06,0-.13,0-.19,0-.13,0-.2,.08-.2,.21,0,.12,.08,.19,.21,.2,.06,0,.11,0,.17,0,.97,0,1.94,0,2.9,0,.98,0,1.96,0,2.95,0,.06,0,.11,0,.17,0,.13-.01,.2-.08,.2-.21,0-.12-.07-.18-.19-.19Zm-4.06,0c-.16,0-.31,0-.47,0-.27,0-.54,0-.81,0-.12,0-.16-.03-.16-.16,0-.61-.07-.71,.65-.69,.32,0,.64,0,.96,0,.23,0,.32,.09,.33,.32q.02,.52-.5,.52Zm4.14,3.35c-.23,0-.46,0-.68,0-.24,0-.29,.05-.29,.29,0,.59,0,1.18,0,1.77,0,.61,0,1.21,0,1.82,0,.19,.07,.28,.26,.27,.25,0,.5,0,.75,0,.18,0,.26-.08,.26-.26,0-1.2,0-2.41,0-3.61,0-.2-.1-.28-.29-.28Zm-.11,3.59c0,.21-.12,.17-.24,.16-.11,0-.24,.04-.24-.16,.01-.51,0-1.01,0-1.52,0-.5,0-1,0-1.5,0-.21,.12-.16,.24-.16,.11,0,.24-.05,.24,.16,0,1,0,2.01,0,3.01Zm-3.4-1.11c0-.48,0-.95,0-1.43,0-.17-.07-.26-.24-.26-.26,0-.53,0-.79,0-.17,0-.25,.08-.25,.25,0,.95,0,1.91,0,2.86,0,.17,.08,.25,.25,.24,.25,0,.5,0,.75,0,.2,0,.28-.08,.28-.28,0-.46,0-.93,0-1.39Zm-.62,1.27c-.11,0-.25,.06-.24-.16,0-.75,0-1.49,0-2.24,0-.19,.11-.16,.22-.16,.1,0,.25-.06,.24,.15-.01,.38,0,.75,0,1.13,0,.37,0,.74,0,1.11,0,.19-.1,.17-.22,.16Zm2.52-.89c0-.33,0-.67,0-1,0-.23-.06-.29-.29-.29-.24,0-.48,0-.73,0-.16,0-.25,.06-.25,.24,0,.7,0,1.4,0,2.09,0,.17,.08,.25,.25,.24,.25,0,.5,0,.75,0,.2,0,.29-.09,.28-.28,0-.33,0-.67,0-1Zm-.41,.01c0,.24,0,.48,0,.73,0,.17-.1,.16-.21,.15-.1-.01-.26,.08-.26-.14,0-.5,0-1,0-1.49,0-.22,.16-.12,.26-.14,.11-.02,.21-.02,.2,.15-.01,.25,0,.5,0,.75ZM4.07,1.47c-.47,0-.87,.38-.87,.85,0,.47,.4,.89,.86,.89,.47,0,.87-.39,.88-.87,0-.47-.39-.87-.87-.87Zm0,1.32c-.26,0-.46-.2-.46-.46,0-.25,.21-.45,.47-.45,.26,0,.45,.2,.45,.46,0,.26-.2,.45-.46,.45Zm-.78,8.06c0-.14-.07-.22-.22-.22-.28,0-.55,0-.83,0-.14,0-.21,.07-.21,.21,0,.19,0,.38,0,.58,0,.19,0,.38,0,.58,0,.16,.07,.24,.23,.24,.26,0,.53,0,.79,0,.16,0,.24-.07,.24-.23,0-.38,0-.77,0-1.15Zm-.67,.99c-.15,0-.22-.04-.2-.2,.01-.12,.01-.24,0-.36-.03-.2,.03-.28,.25-.26,.22,.02,.22,0,.22,.41,0,.05,0,.1,0,.15,.04,.22-.06,.28-.27,.26Z"/>
</svg>