<?xml version="1.0" encoding="UTF-8"?>
<svg id="Layer_1" data-name="Layer 1" xmlns="http://www.w3.org/2000/svg" viewBox="0 0 14 14">
  <defs>
    <style>
      .cls-1 {
        fill: #393939;
      }

      .cls-2 {
        fill: none;
      }
    </style>
  </defs>
  <rect class="cls-2" width="14" height="14"/>
  <path class="cls-1" d="M1.86,7.13c0-1.79,.01-3.57,0-5.36,0-.55,.32-.88,.89-.88,2.86,.01,5.72,0,8.57,0,.59,0,.87,.28,.88,.87,0,1.27,0,2.55,0,3.82,0,.06,0,.12,0,.17-.02,.12-.1,.2-.22,.21-.13,0-.22-.07-.25-.2-.01-.06-.01-.13-.01-.19,0-1.27,0-2.53,0-3.8,0-.33-.06-.39-.38-.39-2.86,0-5.72,0-8.57,0-.33,0-.39,.07-.39,.4,0,3.57,0,7.13,0,10.7,0,.32,.07,.39,.38,.39,2.86,0,5.73,0,8.59,0,.31,0,.37-.06,.37-.38,0-1.47,0-2.94,0-4.4,0-.07,0-.14,.01-.21,.03-.12,.11-.19,.24-.19,.13,0,.21,.08,.23,.2,.01,.06,.01,.13,.01,.19,0,1.47,0,2.95,0,4.42,0,.57-.29,.86-.86,.86-2.86,0-5.73,0-8.59,0-.54,0-.89-.32-.88-.89,.02-1.79,0-3.57,0-5.36Zm1.75,2.49c-.06,0-.13,0-.19,0-.13,.02-.2,.1-.2,.23,0,.13,.07,.22,.2,.24,.06,0,.13,0,.19,0,2.29,0,4.57,0,6.86,0,.05,0,.09,0,.14,0,.15,0,.26-.08,.26-.23,0-.16-.1-.25-.26-.25-.06,0-.12,0-.18,0-1.12,0-2.25,0-3.37,0s-2.3,0-3.45,0Zm3.91-5.35c.1,.15,.24,.2,.36,.11,.14-.1,.14-.24,.05-.38-.12-.19-.23-.38-.36-.56-.07-.09-.07-.17,0-.26,.11-.15,.2-.32,.3-.47,.14-.23,.15-.37,0-.46-.14-.09-.28-.03-.42,.19-.07,.1-.13,.21-.2,.31-.05,.08-.09,.08-.13,0-.08-.13-.16-.25-.24-.38-.11-.16-.25-.21-.38-.12-.14,.11-.13,.24-.04,.38,.11,.18,.22,.37,.35,.54,.08,.11,.07,.19,0,.29-.12,.17-.23,.36-.35,.54-.09,.14-.09,.27,.05,.38,.12,.09,.26,.05,.36-.11,.1-.15,.2-.31,.32-.49,.11,.18,.21,.34,.32,.49Zm2.69,.16c.11,0,.22,0,.33-.02,.34-.05,.59-.31,.6-.62,.02-.34-.18-.62-.51-.71-.08-.02-.17-.02-.25-.04-.1-.02-.19-.07-.18-.19,0-.11,.09-.17,.2-.18,.1,0,.19,0,.29-.01,.14-.01,.23-.09,.23-.24,0-.15-.08-.23-.22-.25-.19-.02-.39-.02-.57,.06-.25,.11-.41,.3-.42,.58-.02,.29,.13,.49,.37,.63,.1,.06,.21,.07,.32,.08,.13,.01,.26,.05,.26,.2,0,.16-.14,.18-.27,.18-.15,0-.3,0-.45,0-.14,.01-.23,.1-.23,.25,0,.15,.1,.22,.23,.24,.09,.01,.18,0,.27,0h0Zm-1.92-.29c0,.18,.09,.28,.27,.29,.23,0,.45,0,.68,0,.15,0,.24-.1,.24-.25,0-.14-.09-.23-.23-.24-.11-.01-.22,0-.33,0-.1,0-.16-.02-.13-.13,.02-.09-.08-.24,.12-.24,.16,0,.29-.06,.28-.25,0-.18-.12-.25-.29-.24-.09,0-.12-.04-.12-.13-.01-.25-.02-.25,.23-.25,.07,0,.14,0,.21,0,.16,0,.25-.08,.26-.23,0-.16-.09-.25-.26-.25-.21,0-.43,0-.64,0-.21,0-.29,.09-.29,.3,0,.27,0,.53,0,.8,0,.27,0,.54,0,.82Zm-4.87-.65c0,.23,0,.45,0,.68,0,.15,.09,.25,.24,.25,.14,0,.22-.09,.24-.23,0-.06,0-.12,0-.17,0-.31,0-.62,0-.94,0-.12-.05-.26,.03-.36,.06-.07,.2-.01,.3-.03,.14-.03,.21-.11,.2-.24,0-.13-.07-.22-.2-.22-.39,0-.78,0-1.17,0-.12,0-.2,.1-.2,.23,0,.13,.08,.22,.21,.24,.06,0,.13,.01,.19,0,.1,0,.14,.03,.13,.13,0,.22,0,.44,0,.66,0,0,0,0,0,0Zm.1,7.5c-.2,0-.31,.09-.32,.24,0,.15,.11,.25,.31,.25,.83,0,1.66,0,2.49,0,.2,0,.31-.1,.31-.25,0-.15-.12-.23-.32-.24-.41,0-.83,0-1.24,0-.41,0-.82,0-1.23,0Zm3.45,.22c-.01,.14,.08,.25,.23,.26,.14,0,.25-.1,.25-.24,0-.15-.09-.22-.21-.24-.16,0-.26,.08-.27,.22Zm4.73-4.38c.02,.14,.1,.22,.25,.22,.14,0,.25-.12,.24-.25-.02-.14-.1-.22-.23-.23-.15,0-.27,.13-.26,.26Zm-.82-.92c0,.82,0,1.64,0,2.46,0,.31-.07,.38-.38,.38-2.31,0-4.61,0-6.92,0-.31,0-.37-.07-.37-.38,0-.82,0-1.64,0-2.46,0-.31,.07-.38,.38-.38,1.15,0,2.3,0,3.45,0,1.16,0,2.31,0,3.47,0,.3,0,.37,.07,.38,.38Zm-5.45,.99c.6,0,1.21,0,1.81,0,.6,0,1.21,0,1.81,0,.12,0,.16-.03,.15-.15-.01-.21,0-.42,0-.62,0-.08-.03-.11-.11-.11-1.23,0-2.47,0-3.7,0-.11,0-.13,.04-.13,.14,0,.19,.01,.39,0,.58,0,.13,.04,.16,.17,.16Zm-.65,1.21c0-.65,0-1.3,0-1.94,0-.1-.02-.15-.14-.15-.27,0-.54,0-.82,0-.1,0-.13,.03-.13,.13,0,.32,0,.65,0,.97s0,.65,0,.97c0,.12,.02,.18,.16,.17,.26-.01,.52,0,.78,0,.12,0,.15-.04,.15-.16Zm4.42-.03c-.01-.19,0-.38,0-.56,0-.09-.02-.14-.13-.14-1.23,0-2.45,0-3.68,0-.1,0-.14,.03-.13,.13,0,.19,.01,.38,0,.56,0,.14,.03,.19,.18,.19,.6,0,1.19,0,1.79,0s1.19,0,1.79,0c.15,0,.19-.04,.18-.19Zm1.17-.26q0-.44-.44-.44s-.05,0-.08,0c-.11-.01-.15,.03-.15,.14,0,.17,.02,.35,0,.53-.02,.19,.06,.22,.23,.22,.44-.01,.44,0,.44-.45Zm0-1.35q0-.45-.45-.45s-.05,0-.08,0c-.1-.01-.14,.03-.13,.13,0,.17,.01,.34,0,.51-.02,.19,.03,.26,.24,.25,.43-.02,.43,0,.43-.44Zm-4.05-2.3c-.01,.12-.06,.21-.17,.24-.12,.04-.26,0-.28-.11-.07-.36-.33-.3-.58-.31-.22,0-.38,.01-.45,.27-.04,.14-.16,.21-.31,.14-.15-.06-.19-.19-.13-.34,.23-.56,.47-1.12,.71-1.68,.04-.09,.12-.15,.23-.15,.11,0,.19,.05,.23,.15,.24,.57,.48,1.13,.72,1.7,.01,.03,.02,.06,.03,.09Zm-.87-.83c-.04-.06-.05-.14-.12-.21-.04,.09-.06,.16-.1,.23-.07,.12-.04,.16,.1,.16,.15,0,.21-.03,.12-.18Z"/>
</svg>