<?xml version="1.0" encoding="UTF-8"?>
<svg id="Layer_1" data-name="Layer 1" xmlns="http://www.w3.org/2000/svg" viewBox="0 0 14 14">
  <defs>
    <style>
      .cls-1 {
        fill: #393939;
      }

      .cls-2 {
        fill: none;
      }
    </style>
  </defs>
  <rect class="cls-2" width="14" height="14"/>
  <path class="cls-1" d="M6.99,13.47c-.78,0-1.57,0-2.35,0-.37,0-.66-.15-.89-.44-.06-.08-.05-.11,.03-.16,.16-.1,.3-.19,.45,.03,.07,.1,.21,.14,.34,.14,1.61,0,3.22,0,4.84,0,.31,0,.57-.25,.59-.55,.02-.23,.1-.53-.03-.69-.1-.14-.4-.04-.62-.04-1.02,0-2.04,0-3.06,0-.19,0-.18-.08-.18-.22,0-.13-.01-.22,.18-.22,1.16,.01,2.32,0,3.48,.01,.2,0,.25-.06,.24-.25-.02-.17,0-.34,0-.51,0-.1,.04-.12,.13-.13,.31-.01,.31-.02,.31,.29,0,.54,0,1.08,0,1.62,0,.65-.46,1.12-1.12,1.12-.78,0-1.57,0-2.35,0Zm.04-1.3c-.14,.02-.28-.03-.25,.2,.02,.14-.02,.28,.21,.25,.15-.02,.29,0,.23-.22,.03-.15,.02-.26-.18-.24ZM10.09,.78c-.04,.05-.09,.1-.12,.16-.09,.12-.18,.19-.32,.07-.07-.06-.16-.05-.25-.05-1.59,0-3.17,0-4.76,0-.42,0-.7,.35-.66,.77,.01,.12,.08,.08,.14,.08,.5,0,1,0,1.5,0,.55,0,1.11,0,1.66,0,.18,0,.16,.1,.15,.2-.01,.1,.08,.25-.15,.25-1.03,0-2.06,0-3.1,0-.17,0-.21,.05-.2,.21,.01,.27,0,.54,0,.81,0,.12,.04,.14,.14,.11,.06-.01,.12-.03,.18-.03,.1,0,.12-.05,.12-.14,0-.13,0-.27,0-.4,0-.1,.03-.14,.14-.14,.29,0,.29,0,.29,.29q0,.37,.31,.43c1.14,.22,2.01,1.08,2.23,2.22q.06,.31,.38,.31h.04c.29,0,.35,.08,.29,.37-.02,.08-.07,.07-.12,.07-.17,0-.4-.06-.51,.03-.1,.08-.08,.32-.12,.49-.27,1.06-1.23,1.9-2.31,2.03-.14,.02-.21,.05-.19,.21,.01,.09,0,.18,0,.26,.03,.18-.04,.22-.22,.22-.19,0-.22-.06-.21-.23,.01-.42,0-.42-.38-.51-1.13-.27-1.83-.98-2.14-2.09-.04-.14,.01-.34-.11-.4-.12-.06-.29-.03-.44-.01-.18,.02-.18-.07-.17-.2,.01-.11-.06-.27,.17-.25,.15,.02,.32,.05,.44-.01,.13-.07,.07-.26,.11-.4,.23-.86,.73-1.5,1.53-1.89,.1-.05,.12-.1,.12-.2,0-.55,0-1.11,0-1.66,0-.79,.44-1.22,1.23-1.22,1.5,0,3.01,0,4.51,0,.3,0,.57,.07,.8,.27ZM5.71,7.91c-.01-.66-.47-1.12-1.16-1.12-.37,.01-.7,.21-.9,.62-.12,.26-.18,.56-.08,.8,.08,.2,.38,.2,.6,.25,.03,0,.07,.02,.1,.03,.1,.03,.16,.01,.14-.11,0-.05,0-.1,0-.14-.03-.2,.11-.15,.22-.15,.11,0,.23-.04,.21,.16-.02,.26,0,.26,.24,.21,.1-.02,.2-.04,.29-.08,.43-.16,.34-.08,.33-.47Zm-1.1-1.56c.36,0,.66-.29,.66-.65,0-.35-.28-.64-.64-.65-.35,0-.65,.28-.66,.63,0,.35,.28,.66,.64,.67Zm-2.31-.71c-.06,.26-.06,.27,.2,.26,.15,0,.19,.04,.17,.18,0,.05,0,.09,0,.14,.01,.1-.03,.12-.12,.12-.32,0-.32,.01-.24,.34,.01,.05,.02,.09,.04,.14,.14,.44,.37,.81,.72,1.1,.02-.02,.03-.02,.04-.02,0-.05,0-.09,.01-.14,.03-.48,.24-.86,.64-1.13,.13-.09,.14-.13,.03-.25-.3-.35-.33-.87-.08-1.26,.25-.39,.7-.58,1.15-.47,.8,.19,1.11,1.13,.57,1.76-.09,.1-.09,.13,.03,.2,.14,.08,.25,.19,.36,.32,.23,.29,.33,.62,.32,1.02,.44-.35,.77-.93,.84-1.45,.02-.13-.03-.16-.15-.15-.08,0-.22,.05-.24-.03-.04-.12-.03-.26,0-.38,.02-.07,.14-.04,.2-.03,.19,.02,.21-.06,.17-.22-.23-1-.84-1.62-1.83-1.88-.27-.07-.3-.06-.29,.21,0,.17-.07,.19-.2,.18-.11,0-.24,.04-.23-.17,.01-.28,0-.29-.29-.22-.96,.25-1.57,.86-1.81,1.83Zm10.97,.37c-.62,.71-1.25,1.41-1.87,2.12-.35,.4-.7,.8-1.06,1.2-.07,.08-.12,.17-.13,.29-.11,.73-.74,1.26-1.48,1.26-.48,0-.96,0-1.44,0-.12,0-.24,0-.28-.14-.05-.14,.03-.23,.14-.3,.22-.13,.27-.33,.26-.57-.02-.47,.06-.91,.38-1.28,.25-.28,.56-.45,.94-.5,.08-.01,.14-.03,.19-.08,.33-.3,.66-.59,1-.88,.07-.06,.09-.11,.09-.21-.01-.65,0-1.29,0-1.94,0-.09,.02-.13,.12-.13,.32-.02,.32-.02,.32,.3v1.53c.31-.27,.59-.51,.86-.76,.34-.3,.67-.6,1.02-.89,.33-.28,.81-.22,1.04,.14,.16,.24,.12,.62-.09,.86Zm-3.61,3.29c-.24-.21-.46-.44-.67-.67-.1-.11-.21-.13-.34-.09-.47,.14-.77,.55-.79,1.05,0,.28,.03,.56-.12,.83,.05,0,.07,.01,.1,.01,.32,0,.63,0,.95,0,.44-.02,.83-.32,.96-.74,.05-.15,.04-.27-.09-.39Zm3.38-3.79c-.01-.1-.06-.18-.16-.22-.12-.05-.22,0-.31,.08-1.07,.95-2.14,1.89-3.22,2.83-.08,.07-.09,.11,0,.19,.18,.17,.36,.34,.53,.53,.11,.12,.16,.1,.26,0,.93-1.06,1.86-2.11,2.79-3.17,.06-.07,.11-.14,.11-.23Zm0-1.43c0,.26-.06,.32-.32,.32-.76,0-1.52,0-2.28,0-.75,0-1.5,0-2.24,0-.28,0-.34-.05-.34-.32,0-.8,0-1.59,0-2.39,0-.25,.07-.32,.33-.32,1.51,0,3.02,0,4.53,0,.26,0,.33,.07,.33,.32,0,.8,0,1.59,0,2.39Zm-.44-2.11c0-.13-.03-.16-.16-.15-.66,0-1.32,0-1.98,0-.67,0-1.33,0-2,0-.13,0-.17,.03-.17,.16,0,.61,0,1.23,0,1.84,0,.13,.04,.15,.16,.15,1.33,0,2.67,0,4,0,.11,0,.15-.02,.15-.14,0-.62,0-1.24,0-1.86ZM5.72,12.08c0,.24-.07,.31-.32,.31-.76,0-1.52,0-2.29,0-.76,0-1.51,0-2.27,0-.28,0-.32-.04-.32-.32,0-.51,0-1.03,0-1.54,0-.24,.06-.3,.3-.3,.84,0,1.69,0,2.53,0,.15,0,.2-.03,.19-.18-.02-.25,0-.5,0-.75-.01-.22,.13-.15,.24-.16,.11,0,.21-.03,.2,.15-.02,.25,0,.5,0,.75,0,.15,.02,.2,.18,.19,.41-.01,.82,0,1.23,0,.25,0,.32,.07,.32,.33,0,.51,0,1.01,0,1.52Zm-.44-.3c-.02-.32,0-.63,0-.95,0-.11-.02-.15-.14-.15-1.35,0-2.7,0-4.04,0-.11,0-.15,.03-.15,.15,0,.32,.01,.65,0,.97,0,.15,.05,.18,.18,.18,.66,0,1.32,0,1.98,0,.65,0,1.31,0,1.96,0,.15,0,.22-.02,.21-.19ZM3.12,3.23c0,.24-.08,.31-.32,.31-.33,0-.66,0-.99,0-.32,0-.65,0-.97,0-.25,0-.31-.07-.31-.31,0-.52,0-1.04,0-1.56,0-.23,.07-.3,.3-.3,.66,0,1.32,0,1.98,0,.22,0,.31,.08,.31,.31,0,.52,0,1.04,0,1.56Zm-.43-1.3c0-.1-.03-.12-.13-.12-.49,0-.98,0-1.48,0-.1,0-.14,.03-.14,.13,0,.34,0,.69,0,1.03,0,.11,.04,.14,.14,.13,.24,0,.48,0,.73,0,.25,0,.5,0,.75,0,.1,0,.13-.03,.13-.12,0-.35,0-.7,0-1.05Zm6.21,1.17c-.17,0-.19,.06-.18,.2,.01,.12-.05,.25,.17,.25,1.04-.01,2.09-.01,3.13,0,.21,0,.16-.12,.17-.23,0-.11,.03-.22-.16-.21-.53,.01-1.05,0-1.58,0-.52,0-1.04,0-1.56,0Zm3.02-.43c.29,0,.29,0,.28-.3,0-.09-.02-.13-.12-.13-.64,0-1.28,0-1.92,0-.21,0-.12,.15-.13,.24-.01,.1-.03,.2,.14,.19,.32-.01,.63,0,.95,0,.27,0,.54,0,.81,0Zm-2.92-.43c-.29,0-.29,0-.28,.29,0,.11,.04,.14,.14,.13,.17,0,.35-.01,.52,0,.17,.02,.23-.03,.23-.22,0-.18-.05-.24-.23-.21-.07,0-.13,0-.2,0-.06,0-.12,0-.18,0ZM4.65,11.53c.16,0,.21-.05,.19-.2,0-.05,0-.09,0-.14,0-.07-.02-.11-.1-.11-.58,0-1.16,0-1.74,0-.09,0-.12,.04-.11,.12,0,.06,0,.12,0,.18-.01,.11,.03,.15,.14,.15,.28,0,.55,0,.83,0,.26,0,.53-.01,.79,0Zm-2.28,0c.09,0,.12-.02,.11-.11,0-.07,0-.14,0-.2,.01-.11-.04-.13-.14-.13-.22,0-.44,0-.67,0-.29,0-.28,0-.29,.29,0,.12,.02,.17,.15,.16,.13-.01,.26,0,.38,0,.15,0,.3,0,.44,0Zm-.12-9.17c0-.09-.03-.12-.11-.11-.17,0-.35,.01-.52,0-.18-.02-.24,.04-.23,.23,0,.17,.04,.23,.21,.2,.07-.01,.15,0,.22,0,.46,0,.45,0,.44-.31Z"/>
</svg>