<?xml version="1.0" encoding="UTF-8"?>
<svg id="Layer_1" data-name="Layer 1" xmlns="http://www.w3.org/2000/svg" viewBox="0 0 800 800">
  <defs>
    <style>
      .cls-1 {
        fill: none;
      }

      .cls-2 {
        fill: #010101;
      }
    </style>
  </defs>
  <rect class="cls-1" width="800" height="800"/>
  <path class="cls-2" d="M493.92,610.79c-3.72,1.68-6.52,3.49-9.59,4.24-15,3.69-24.26,10.8-26.15,28.24-1.57,14.55-16.49,24.16-32.25,24.59-17.45,.48-34.94,.53-52.39,0-18.6-.55-32.25-12.87-34.18-31.6-.99-9.66-5.2-14.74-14.05-17.24-4.66-1.32-9.38-2.86-13.65-5.09-14.77-7.71-27.94-12.8-44.33-.26-11.6,8.88-26.95,4.92-38.12-5.3-13.17-12.05-25.78-24.76-37.94-37.83-12-12.9-12.83-31.68-1.62-45.7,6.32-7.9,6.75-14.59,2.35-23.26-4.57-9-8.15-18.54-11.57-28.06-2.73-7.59-6.82-11.89-15.52-12.91-21.57-2.53-32.94-15.9-33.18-37.74-.17-15.43-.22-30.86,.02-46.28,.32-20.83,12.03-34.6,32.71-37.1,8.53-1.03,13.06-4.56,15.9-12.33,3.88-10.64,8.4-21.06,13.01-31.41,2.94-6.59,2.47-12.04-2.03-18.02-13.94-18.56-12.54-35.58,3.78-52.17,10.53-10.71,21.05-21.44,31.91-31.81,14.58-13.92,32.4-15.32,48.52-3.05,7.65,5.82,14.35,6.14,22.35,1.81,4.97-2.69,10.16-5.3,15.57-6.84,15.18-4.32,26.3-10.31,28.14-29.25,1.41-14.52,16.59-23.85,32.48-24.31,17.04-.49,34.13-.55,51.17,.01,18.59,.61,32.75,12.7,34.77,31.23,1.19,10.9,6.3,15.44,15.77,18.49,9.22,2.97,18.11,7.09,26.89,11.24,7.32,3.45,13.38,3.32,20.24-1.81,17.36-13,34.82-11.62,50.43,3.45,11.1,10.71,22.02,21.61,32.69,32.74,14.53,15.15,15.66,32.59,2.7,49.36-5.24,6.78-5.74,12.91-2.01,20.14,2.41,4.68,5,9.39,6.49,14.39,4.79,16.12,10.66,28.73,31.32,30.96,13.96,1.51,22.17,15.07,22.97,29.6,1.02,18.62,.97,37.36,.09,55.99-.78,16.39-12.64,30.61-28.48,31.8-13.84,1.04-18.93,7.92-22.3,19.51-1.43,4.92-2.23,13.93-7.45,13.2-6.61-.92-12.6-7.49-16.1-13.78-2.71-4.85,2.19-9.88,3.63-14.84,4.68-16.15,15.65-25.53,32.26-26.98,11.03-.96,14.73-6.42,14.51-16.65-.29-13.39-.28-26.8,0-40.19,.21-10.2-3.51-15.94-14.48-16.77-16.26-1.23-26.88-10.36-32.05-25.68-3.77-11.16-8.58-21.85-13.47-32.55-6.56-14.33-6.3-28.49,4.39-40.98,6.56-7.67,6.3-14.23-.86-21.17-10.2-9.89-20.22-19.97-30.17-30.11-6.4-6.51-12.8-7.85-20.22-1.53-13.72,11.69-28.56,11.47-44.26,4.11-9.53-4.46-19.24-8.66-29.18-12.08-15.81-5.44-25.37-15.76-26.76-32.56-.83-10.07-5.67-14.51-15.61-14.38-14.21,.18-28.43,.15-42.64,0-9.16-.09-14.48,3.45-15.19,13.27-1.31,17.9-11.45,28.49-28.24,34.07-10.34,3.44-20.2,8.33-30.26,12.61-14.51,6.19-28.57,6.29-41.07-4.32-8.3-7.05-14.96-5.91-22.07,1.58-9.21,9.72-18.73,19.16-28.41,28.42-7.39,7.06-8.76,13.82-1.71,22.13,10.95,12.93,10.85,27.15,3.97,42.08-4.57,9.92-8.89,20-12.52,30.3-5.53,15.71-15.83,25.41-32.6,26.78-10.18,.83-14.41,5.63-14.24,15.59,.25,14.2,.23,28.42,0,42.63-.14,9.14,3.04,14.45,13.02,15.29,17.69,1.5,28.62,11.37,34.12,28.28,3.24,9.98,7.71,19.6,12.17,29.13,6.98,14.92,6.98,29.14-3.92,42.08-7,8.31-5.76,15.05,1.67,22.14,9.69,9.24,19.17,18.72,28.42,28.4,7.15,7.48,14.02,8.39,22.21,1.5,12.55-10.56,26.38-10.83,40.99-4.26,10.34,4.65,20.75,9.25,31.43,13,15.77,5.54,25.35,16.07,26.83,32.66,.92,10.31,5.63,14.32,15.59,14.11,13.8-.29,27.62-.33,41.42,0,10.25,.25,15.59-3.41,16.75-14.4,2.06-19.5,19.36-36.24,38.32-36.13,9.77,.05,12.68,10.83,18.87,17.57Zm-59.01-56.72c-114.69,26.69-217.8-76.66-190.69-190.91,20.06-84.58,104.24-137.28,189.94-118.92,82.36,17.64,137.63,101.33,120.98,185.18-2.45,12.33,.9,18.3,9.24,25.4,6.96,5.92,8.95,3.54,10.92-3.5,7.74-27.8,9.67-55.98,4.59-84.36-18.99-106.13-125.5-172.86-230-144.36-76.62,20.9-130.99,89.8-134.6,170.59-3.47,77.63,46.51,151.78,120.56,178.4,40.71,14.63,81.61,15.09,125.9,.08-11.25-6.38-11.79-21.12-26.84-17.62Zm92.19,201.59c-19.58,6.77-39.45,12.33-59.81,16.03-22.4,4.06-45.02,6.17-67.86,6.06-90.96-1.13-171.89-30.05-241.89-88.33-7.11-5.92-10.91-5.84-16.5,.88-4.91,5.9-10.58,11.26-16.38,16.32-8.95,7.81-18.85,5.37-21.39-6.07-6.31-28.48-11.95-57.12-17.19-85.81-1.69-9.23,5.83-15.05,16.84-13.09,23.15,4.11,46.26,8.51,69.17,13.75,8.42,1.93,20.17-.39,23.32,11.68,3.03,11.57-7.47,16.2-13.61,22.56-15.77,16.35-16.06,16.23,2.04,29.96,77.81,59.02,165.56,82.63,262.18,70.87,144.39-17.58,265.59-128.17,297.69-269.42,17.58-77.35,11.09-152.36-21.45-224.68-6.02-13.38,4.73-12.18,10.28-16.23,8.49-6.19,9.98,.99,12.45,6.36,90.53,197.01-12.74,438.21-217.89,509.18Zm-372.57-117.04c-2.36-7.55-20.97-5.36-32.13-8.6-.77-.22-1.59-.31-2.38-.49-4.43-1.06-6.18,.87-5.32,5.11,2.54,12.52,5.21,25.01,7.89,37.76,5.36-1.65,7.96-5.52,10.77-8.72,7.58-8.59,23.87-16.42,21.17-25.06ZM698.56,199.04c-28.69-5.31-57.33-10.9-85.81-17.23-10.41-2.31-12.64-12.47-5.25-21,5.57-6.43,11.6-12.56,18.08-18.07,6.4-5.45,6.98-8.83-.21-14.67-48.56-39.47-103.28-65.64-165.05-75.86C276.74,21.8,106.3,131,58.02,310.73c-21.22,79.02-14.43,156.67,18.05,231.97,1.43,3.32,6.66,7.4,2.71,10.59-5.21,4.21-11.78,7.47-18.27,9.11-3.68,.93-4.38-5.12-5.77-8.22-22.02-49.18-32.96-100.73-32.73-154.63C22.6,222.16,143.89,70.17,317.39,32c120.17-26.44,228.37,1.34,324,78.25,6.98,5.61,11.26,7.22,17.33-.54,4.72-6.03,10.52-11.3,16.34-16.35,8.44-7.32,18.26-5.15,20.75,5.69,6.62,28.81,12.3,57.85,17.69,86.91,1.52,8.2-5.96,14.73-14.94,13.07Zm-13.82-34.65c-2.82-11.98-5.17-24.08-7.63-35.69-11.15,11.5-22.14,22.85-33.35,34.41,11.02,2.34,22.82,4.88,34.63,7.34,4.93,1.03,7.82,.21,6.35-6.07Zm-65.46,413.95c-6.04,22.24-20.92,36.41-43.34,41.62-23.12,5.38-42.36-2.32-57.91-19.79-28.33-31.85-56.75-63.63-84.77-95.76-7.01-8.03-12.9-11.86-25.31-10.18-57.48,7.78-108.09-38.69-107.85-98.34-.67-9.08,1.74-19,4.95-28.61,3.72-11.15,13.02-13.38,21.78-5.38,7.49,6.84,14.63,14.09,21.53,21.52,4.13,4.45,7.1,5.33,11.67,.31,7.64-8.4,15.81-16.35,24.09-24.14,3.92-3.69,3.72-6.22-.08-9.78-7.41-6.94-14.63-14.09-21.6-21.47-9.25-9.8-7.2-19.47,5.3-23.27,34.52-10.49,66.23-4.32,93.34,19.33,27,23.56,38.25,53.87,32.11,89.53-1.27,7.38,1.22,11.13,6.11,15.44,34.43,30.33,68.94,60.57,102.91,91.41,16.98,15.41,23.13,35.15,17.05,57.54Zm-34.95-40.92c-35.83-32.42-72.04-64.41-108.52-96.09-8.46-7.34-11.8-14.44-7.88-25.36,5.16-14.34,3.01-28.72-1.69-42.93-8.48-25.65-39.23-51.48-74.47-46.15,8.69,7.26,15.42,12.4,21.58,18.16,6.46,6.03,6.49,12.97,.32,19.24-16.24,16.49-32.64,32.82-49.09,49.11-7.15,7.09-14.42,6.64-21.13-.68-5.19-5.65-10.11-11.56-15.15-17.35-7.2,46.29,40.26,85.54,84.62,73.27,12.93-3.58,20.89-.82,29.46,9.14,30.72,35.69,62.34,70.61,93.54,105.88,10.03,11.33,22.13,16.57,36.98,12.01,26.12-8.02,32.47-39.21,11.42-58.25Zm-11.3,24.06c-.04-7.91-5.11-12.19-12.18-12.22-6.66-.03-11.5,4.85-11.8,11.57-.33,7.32,3.87,12,12.12,12.45,7.27-.28,11.9-3.79,11.86-11.8Z"/>
</svg>