<?xml version="1.0" encoding="UTF-8"?>
<svg id="Layer_1" data-name="Layer 1" xmlns="http://www.w3.org/2000/svg" viewBox="0 0 800 800">
  <defs>
    <style>
      .cls-1 {
        fill: none;
      }

      .cls-2 {
        fill: #010101;
      }
    </style>
  </defs>
  <rect class="cls-1" width="800" height="800"/>
  <path class="cls-2" d="M546.43,472.23c.24,21.51,15.02,37.1,36.46,37.26,48.79,.36,97.59,.36,146.37,0,21.01-.16,36.26-15.2,36.43-36.11,.4-49.17,.41-98.34-.02-147.51-.18-19.92-15.18-35.15-34.66-35.3-49.93-.4-99.87-.39-149.8-.01-19.49,.15-34.28,15.69-34.75,35.24-.3,12.19-.08,24.39-.08,36.59,0,25.35,0,25.03-25.5,25.44-8.41,.14-11.62-1.42-11.55-10.91,.46-67.46,.23-134.93,.26-202.4,0-15.03,3.7-18.62,18.93-18.74,3.43-.03,6.9,.32,10.28-.07,6.16-.72,7.8,1.9,7.69,7.78-.32,17.53-.26,35.07-.07,52.6,.23,21.47,15.25,37.19,36.44,37.31,48.79,.28,97.58,.28,146.37,0,20.69-.12,36.29-15.37,36.46-36.16,.4-49.17,.42-98.34-.03-147.51-.18-20.34-15.36-35.33-35.73-35.49-49.17-.4-98.35-.39-147.52-.02-20.91,.16-35.66,15.64-35.99,36.49-.22,14.1-.05,28.21-.05,42.31q0,18.4-18.53,18.49c-28.66,.14-42.58,14.11-42.63,42.92-.05,32.78-.01,65.56-.01,98.34,0,28.97,0,57.94,0,86.91s0,28.56-28.55,28.1c-5.91-.1-8.62-1.11-9.29-7.83-.79-7.94-5.58-14.8-13.65-16.75-20.48-4.96-32.11-17.82-36.53-37.94-.08-.36-.3-.71-.53-1-4.36-5.54-3.18-10.87-.5-16.95,13.76-31.29,13-34.31-12.14-57.99-2.22-2.09-4.53-4.07-6.78-6.13-8.46-7.76-18.56-10.43-28.32-4.54-15.82,9.54-30.03,8.83-46.3,.3-8.82-4.63-15.54-8.24-19.16-18.25-9.32-25.77-13.73-28.32-40.96-28.38-4.95-.01-9.91,.14-14.85,.46-12.15,.78-21.54,5.92-24.67,18.33-4.15,16.5-13.58,27.12-30.56,30.49-.74,.15-1.57,.33-2.13,.78-9.01,7.16-17.59,5.03-27.13,.29-7.91-3.94-16.42-9.99-25.88-5.92-17.38,7.47-29.51,21.12-38.7,37.17-2.78,4.85-2.44,11.57,.73,16.58,10.57,16.67,10.56,33.04-.02,49.55-.41,.63-.82,1.37-.9,2.09-.91,8.47-6.67,11.67-13.95,14.47-28.96,11.15-30.67,13.99-30.44,45.28,.03,3.81,.21,7.62,.34,11.43,.41,12.92,6.64,22.17,19.01,25.47,15.62,4.17,23.87,13.07,29.86,28.59,4.91,12.72,5.82,22.53-.7,33.85-8.67,15.05-5.41,27.66,6.72,39.99,29.95,30.44,31.25,26.2,60.85,13.26,3.48-1.52,6.56-3.59,11.59-1.53,19.32,7.92,37.41,14.89,43.27,39.35,4.05,16.88,21.82,15.18,35.83,15.16,14.34-.02,29.71,1.46,37.71-14.97,.17-.34,.33-.7,.4-1.07,3.65-19.66,16.33-29.34,34.83-35.24,8.54-2.73,14.98-3.95,23.18-.23,27.03,12.28,30.54,11.39,51.64-9.8,1.88-1.89,3.59-3.97,5.54-5.77,11.9-10.99,14.42-23.4,6.71-38.01-3.16-5.98-8.89-14.61-6.82-18.63,7.92-15.39,6.28-37.89,29.88-42.85,9.25-1.94,20.46-5.84,21.66-16.19,1.67-14.38,10.24-12.89,19.65-12.51,3.43,.14,6.92,.43,10.28-.06,8.4-1.21,9.98,2.7,9.93,10.32-.32,43.83-.16,87.67-.15,131.5,0,25.54-.33,51.08,.12,76.61,.39,22.41,15.44,37.15,37.39,37.64,5.33,.12,10.7,.38,16-.07,6.07-.51,7.89,1.8,7.77,7.77-.34,16.76-.18,33.54-.1,50.31,.11,24.24,14.86,39.56,38.86,39.67,47.27,.21,94.53,.22,141.8,0,23.52-.11,38.64-15.24,38.74-38.66,.2-47.65,.22-95.29-.01-142.94-.11-22.81-15.33-37.71-38.22-37.78-47.65-.14-95.3-.14-142.94,0-23.55,.07-38.08,14.99-38.22,38.87-.09,16.77,.04,33.54-.08,50.31-.02,2.82,1.24,6.22-2.36,8.13-15.51,8.24-34.38-2.85-34.39-20.26-.01-61.37,0-122.74,0-184.11,0-27.99,0-27.75,27.89-27.55,6.9,.05,9.3,1.65,9.08,8.88-.52,17.14-.31,34.3-.12,51.45Zm24.41-142.03c.04-11.93,3.83-15.62,15.91-15.66,46.06-.13,92.12-.12,138.18,0,12.95,.03,16.13,3.37,16.18,16.31,.09,23.22,.03,46.44,.03,69.66,0,22.84,.08,45.68-.03,68.52-.06,13.11-3.11,16.18-16.25,16.2-46.06,.08-92.12,.09-138.18,0-12.07-.03-15.79-3.59-15.83-15.7-.15-46.44-.15-92.88,0-139.32Zm0-255.78c.04-12.54,3.23-15.69,15.59-15.71,46.43-.1,92.86-.1,139.28,0,12.65,.03,15.34,2.84,15.4,15.64,.11,23.21,.03,46.43,.03,69.64,0,22.83,.07,45.67-.03,68.5-.05,13.17-3.18,16.55-15.93,16.58-46.05,.11-92.1,.11-138.14,0-12.64-.03-16.18-3.61-16.21-16.51-.12-46.05-.13-92.09,0-138.14Zm-153.91,343.15c-21.43,4.9-35.78,16.81-38.89,39.7-.05,.36-.27,.73-.5,1.02-13.3,17.14-10.98,34.4,.14,51.32,4.86,7.39,1.01,11.82-3.93,16.45-4.88,4.57-8.93,10.13-14.49,13.23-8.67-3.8-16.42-6.94-23.95-10.57-7.8-3.76-14.89-4.07-22.58,.89-8.96,5.78-18.94,10.06-29.32,12.29-9.39,2.02-14.89,6.85-17.3,15.85-.59,2.19-1.51,4.29-2.32,6.42-7.22,19.04-12.67,21.92-32.93,18.76-5.05-.79-6.25-4.21-7.07-7.61-5.05-20.91-17.93-31.11-38.37-39.52-20.76-8.54-37.47-11.11-55.89,1.37-4.2,2.85-7.77,2.11-10.98-1.64-.74-.86-1.66-1.56-2.49-2.34-14.66-13.8-15.44-14.19-6.57-32.04,6.33-12.74,7.88-23.87-.88-35.92-3.27-4.49-5.83-10.2-6.61-15.66-2.47-17.3-13.38-25.04-29.04-29.04-4.78-1.22-12.4-1.62-13.33-6.94-1.55-8.85-.92-18.22-.14-27.28,.31-3.61,5.35-3.77,8.47-4.61,18.91-5.08,33.03-14.64,35.48-35.96,.25-2.17,1.28-4.53,2.65-6.25,12.86-16.18,10.17-32.19-.51-47.99-5.67-8.4-1.43-13.91,4.73-19.27,6.39-5.56,11.04-15.81,22.2-7.71,1.19,.87,2.88,1.03,4.16,1.81,14.17,8.64,28.08,10.24,42.01-.72,2.59-2.04,6.15-3.54,9.42-3.92,20.52-2.4,30.12-15.59,33.8-34.2,2.02-10.23,8.84-10.81,16.92-10.36,8.55,.48,19.06-3.4,21.51,10.08,.2,1.11,.8,2.14,1.06,3.25,4.03,17.03,13.42,28.37,31.81,30.57,2.54,.3,5.25,1.55,7.3,3.12,16.88,12.93,33.71,10.8,50.21-.35,9.93-6.71,14.33,1.46,19.75,6.63,5.57,5.31,13.34,10.21,6.66,19.81-.64,.92-.85,2.14-1.44,3.1-9.3,15.22-11.17,30.31,.62,45.25,.46,.58,.79,1.35,.92,2.08,4.11,23.4,17.69,37.42,41.18,41.68,4.67,.85,5.92,4.17,5.93,8.38,.02,5.71,0,11.43,.14,17.14,.14,5.36-2.23,8.48-7.52,9.69Zm168.91,153.05c46.82,.02,93.63,0,140.45,0,10.33,0,15.11,4.82,14.96,15.48-.34,23.59-.1,47.2-.1,70.79,0,22.84,.09,45.67-.03,68.51-.07,12.8-2.87,15.74-15.32,15.77-46.44,.09-92.87,.09-139.31,0-12.16-.02-15.6-3.36-15.64-15.73-.14-46.44,.02-92.87-.11-139.31-.03-10.44,4.68-15.53,15.1-15.53Zm118.56-207.49c.17,4.03-1.76,7.21-3.92,10.43-14.77,22.07-29.34,44.27-44.19,66.28-7.52,11.14-14.31,11.62-23.99,2.16-6.79-6.64-13.49-13.36-20.12-20.15-5.56-5.7-6.8-12.19-.88-18.04,5.92-5.85,12.15-4.29,18.16,.95,13.28,11.58,13.37,11.47,23.2-3.38,9.63-14.54,19.29-29.08,28.91-43.63,3.94-5.96,9.61-7.34,15.94-5.32,4.84,1.54,6.91,5.63,6.9,10.69Zm-60.84-170.9c-3.85,.36-6.58-1.69-9.04-4.13-7.55-7.49-15.1-14.98-22.54-22.59-5.21-5.32-6.38-11.49-1.28-17.25,5.54-6.25,11.74-5.29,18.11-.39,4.78,3.67,7.73,12.62,14.04,10.45,4.62-1.59,7.2-9.26,10.57-14.3,9.08-13.56,18.24-27.07,27.11-40.76,4.93-7.61,11.56-10.76,19.15-5.6,7.46,5.07,5.7,12.4,1.24,19.1-14.93,22.43-29.84,44.88-44.82,67.28-2.99,4.47-6.19,8.87-12.53,8.19Zm-401.48,86c-67.66-.25-122.36,53.67-122.74,120.97-.38,67.26,53.87,121.98,121.36,122.4,67.35,.42,122.48-53.94,122.71-121.01,.24-67.45-53.97-122.11-121.33-122.36Zm-.17,219.16c-53.71,.18-97.91-43.31-98.23-96.63-.32-54.11,43.59-98.39,97.61-98.43,53.88-.04,97.05,43.11,97.31,97.25,.26,53.94-42.94,97.63-96.69,97.81Zm-.37-170.7c-40.13-.16-72.56,31.95-72.87,72.17-.32,41.01,31.61,74.06,71.94,74.44,40.16,.38,73.73-32.71,73.98-72.91,.25-40.31-32.68-73.53-73.05-73.7Zm-.41,121.64c-26.83-.05-48.73-21.74-48.84-48.38-.11-26.55,21.76-48.26,48.73-48.37,27.71-.11,49.57,21.58,49.22,48.83-.35,26.77-22.07,47.97-49.12,47.92Z"/>
</svg>