<?xml version="1.0" encoding="UTF-8"?>
<svg id="Layer_1" data-name="Layer 1" xmlns="http://www.w3.org/2000/svg" viewBox="0 0 800 800">
  <defs>
    <style>
      .cls-1 {
        fill: none;
      }

      .cls-2 {
        fill: #010101;
      }
    </style>
  </defs>
  <rect class="cls-1" width="800" height="800"/>
  <path class="cls-2" d="M772.8,355.68c.11-9.19-4.1-13.86-12.22-16.78-13.16-4.73-25.95-10.53-39.25-14.78-7.38-2.36-11.16-6.39-13.08-13.62-6.08-22.94-15.42-44.6-27.06-65.22-3.13-5.55-3.11-9.98-.39-15.65,6.4-13.33,11.77-27.16,18.11-40.52,3.82-8.04,2.72-14.19-3.65-20.45-21.15-20.77-42.11-41.74-62.87-62.9-6.19-6.31-12.27-7.77-20.39-3.91-13.72,6.52-27.8,12.26-41.59,18.64-4.74,2.19-8.66,2.61-13.49-.15-21.61-12.37-44.53-21.81-68.47-28.55-6.28-1.77-9.03-5.17-11.05-10.92-4.91-13.95-10.59-27.62-15.69-41.51-2.83-7.72-7.63-11.4-16.19-11.31-30.44,.29-60.88,.21-91.32,.05-7.89-.04-12.67,3.24-15.39,10.64-4.97,13.5-10.92,26.66-15.36,40.33-2.5,7.7-6.48,11.91-14.29,13.9-22.61,5.75-43.82,15.15-64.1,26.54-5.43,3.05-9.86,3.55-15.63,.77-13.68-6.59-27.83-12.2-41.6-18.63-7.64-3.57-13.55-2.32-19.42,3.63-21.1,21.39-42.34,42.64-63.73,63.74-5.93,5.85-7.32,11.64-3.67,19.37,6.49,13.74,12.13,27.87,18.55,41.65,2.4,5.14,2.82,9.27-.16,14.53-11.87,20.95-21.36,42.97-27.65,66.27-1.78,6.58-4.93,10.79-12.02,13.07-13.67,4.4-26.87,10.27-40.39,15.17-8.11,2.94-12.26,7.77-12.17,16.88,.31,30.05,.24,60.11,.04,90.16-.05,8.41,3.55,13.38,11.35,16.23,13.89,5.08,27.49,10.96,41.48,15.72,6.38,2.17,9.79,5.54,11.52,12.03,6.21,23.31,15.61,45.4,27.46,66.36,3.17,5.6,3.02,9.98,.34,15.59-6.38,13.35-11.8,27.15-18.13,40.52-3.82,8.05-2.63,14.19,3.73,20.43,21.16,20.76,42.17,41.68,62.85,62.92,6.69,6.87,13.18,7.61,21.5,3.66,13.36-6.34,27.05-11.99,40.48-18.19,4.64-2.14,8.6-2.94,13.47-.13,21.58,12.43,44.44,21.98,68.47,28.55,6.04,1.65,9.04,5,11.07,10.94,4.77,13.99,10.68,27.59,15.69,41.5,3.01,8.36,8.37,11.78,17.22,11.7,29.64-.27,59.28-.3,88.92,.02,8.98,.09,14.14-3.63,17.12-11.84,5.06-13.9,10.88-27.53,15.61-41.53,2.04-6.04,5.34-9.03,11.29-10.68,20.49-5.66,40.72-12.66,58.78-23.73,11.93-7.31,21.54-6.69,33.09-.6,12.34,6.51,25.45,11.53,36.38,16.38,7.44,1,11.16-1.83,14.67-5.36,21.2-21.29,42.34-42.64,63.76-63.71,6.4-6.3,7.25-12.55,3.48-20.51-6.49-13.74-12.24-27.83-18.65-41.61-2.25-4.83-2.2-8.74,.48-13.48,12.05-21.32,21.52-43.78,28.04-67.41,1.63-5.9,4.45-9.36,10.55-11.43,13.99-4.73,27.58-10.65,41.48-15.66,8.22-2.96,12.11-7.91,12.02-16.96-.31-30.05-.33-60.11,.01-90.16Zm-24.05,78.13c.08,5.62-1.46,8.57-7.03,10.49-13.21,4.57-26.04,10.25-39.25,14.8-8.49,2.92-12.81,8.16-14.94,16.86-6.6,26.98-17.25,52.41-31.68,76.15-4.17,6.85-4.71,13.05-1.27,20.31,6.16,13.01,11.42,26.46,17.72,39.4,2.62,5.39,1.62,8.63-2.38,12.55-15.74,15.42-31.37,30.97-46.7,46.79-4.14,4.27-7.48,4.26-12.56,1.83-12.98-6.22-26.37-11.56-39.39-17.69-6.86-3.23-12.88-2.85-19.27,1.08-24.38,14.98-50.59,25.75-78.32,32.6-7.85,1.94-12.42,6.11-15.1,13.63-4.69,13.18-10.33,26.02-14.91,39.24-1.99,5.75-4.5,8.22-10.96,8.09-21.63-.43-43.27-.39-64.9-.02-6.19,.11-9.15-1.78-11.19-7.73-4.66-13.61-10.25-26.9-15.29-40.38-2.4-6.42-6.12-10.68-13.23-12.44-28.51-7.08-55.47-18.1-80.57-33.45-6.06-3.71-11.77-3.66-18.17-.65-13.03,6.11-26.4,11.5-39.4,17.66-4.93,2.33-8.36,2.83-12.62-1.57-15.61-16.12-31.55-31.92-47.57-47.63-3.7-3.63-4.42-6.6-2.05-11.5,6.25-12.96,11.54-26.39,17.7-39.4,3.4-7.18,3.39-13.47-.83-20.38-14.72-24.05-25.49-49.86-32.16-77.25-2.01-8.25-6.24-13.2-14.25-16-13.58-4.74-26.84-10.41-40.38-15.25-4.94-1.77-6.62-4.34-6.55-9.59,.29-22.04,.29-44.09,0-66.13-.07-5.56,1.26-8.54,6.97-10.5,13.6-4.67,26.82-10.42,40.33-15.38,6.9-2.53,11.38-6.37,13.25-13.95,7.05-28.53,18.14-55.47,33.5-80.56,3.76-6.14,3.35-11.9,.43-18.2-5.89-12.7-11.05-25.75-17.21-38.31-2.91-5.94-2.71-9.78,2.3-14.57,15.35-14.67,30.31-29.75,45.08-45.02,4.59-4.75,8.36-5.84,14.56-2.71,12.13,6.12,24.87,11,37.15,16.84,7.5,3.57,14.06,3.68,21.44-.85,24.01-14.75,49.9-25.32,77.25-32.07,7.86-1.94,12.51-6.06,15.21-13.53,4.75-13.16,10.27-26.04,14.87-39.24,1.97-5.68,4.41-8.28,10.92-8.15,22.03,.44,44.07,.37,66.1,.03,5.89-.09,8.29,2.06,10.17,7.46,4.73,13.58,10.48,26.81,15.38,40.34,2.57,7.09,6.99,11.05,14.35,12.86,28.16,6.91,54.7,17.9,79.44,33.06,6.04,3.7,11.74,3.8,18.16,.81,13.41-6.24,27.15-11.77,40.51-18.12,4.81-2.29,7.94-1.85,11.6,1.88,15.73,16,31.66,31.8,47.51,47.68,1.96,1.96,4.24,3.8,3.54,7.75-4.5,10.01-8.45,21.04-14.19,31.05-8.62,15.06-8.26,28,1.54,43.11,12.85,19.82,20.61,42.44,26.08,65.52,2.19,9.24,6.93,14.51,15.83,17.52,12.86,4.36,25.27,10.03,38.11,14.44,5.49,1.89,7.43,4.46,7.34,10.27-.32,22.04-.31,44.09,0,66.13Zm-112.13,97.05c-53.68-.05-107.36-.02-161.03-.04-7.96,0-11.41,4.91-12.68,11.85-.63,3.45-.51,7.04-.81,11.95-20.43-11.82-39.84-23.06-61.06-35.34,21.4-12.35,40.65-23.45,61.53-35.5-.11,12.74-.16,24.43,15.5,24.44,52.08,.02,104.15,.03,156.23-.03,7.74,0,13.51-3.05,13.68-11.72,.16-8.62-5.32-12.36-13.16-12.09-8.27,.29-7.89-3.15-5.87-9.4,13.09-40.46,14.86-81.5,6.62-123.24-34.42-174.32-247.11-250.84-385.93-138.92-11.74,9.46-19.85,25.08-34.24,28.73-14.68,3.72-31.04,.98-46.66,.8-8.83-.1-16.93,1.23-16.64,12.22,.28,10.73,8.34,11.97,17.15,11.95,47.67-.13,95.34-.06,143.01-.06,22.62,0,23.34-.64,25.82-24.38,20.25,11.69,39.93,23.06,61.2,35.35-21.63,12.41-41.12,23.58-61.33,35.17-1.93-22.98-3.5-24.38-25.11-24.39-46.47,0-92.94,0-139.4,.01-3.6,0-7.28-.3-10.79,.33-6.61,1.19-11.04,4.97-10.7,12.24,.33,7.12,4.52,10.67,11.52,11.42,3.78,.4,7.85-1.18,11.73,1.61-1.23,3.84-2.43,7.63-3.67,11.41-14.75,44.95-17.18,90.81-4.25,136.1,25.67,89.95,83.96,150.02,174.81,172.62,91.79,22.83,171.61-3.12,236.73-72.18,4.93-5.23,9.64-7.28,16.56-7.05,13.2,.44,26.44,.36,39.65,.02,7.83-.2,13-4.35,12.93-12.69-.06-7.09-4.04-11.18-11.34-11.19Zm-255.63,85.76c-92.96-7.75-174.92-76.34-194.08-177-7.73-40.6-3.25-80.52,11.8-119.16,2.33-5.98,5.6-8.47,12.41-8.38,30.84,.4,61.69,.38,92.53,.03,7.16-.08,10.49,1.58,9.54,9.29-.54,4.34-.37,8.84,.1,13.2,1.04,9.66,8.65,14.67,17.02,9.97,33.15-18.61,66.08-37.62,98.77-57.03,8.53-5.07,8.32-15.49-.37-20.64-32.36-19.17-64.93-38.02-97.77-56.38-9.51-5.32-17.02,.11-17.82,11.37q-1.45,20.5-22.21,20.5h-36.9c7.09-8.97,14.65-13.96,21.89-19.05,126.33-88.72,303.15-19.34,335.68,131.57,8.75,40.58,5.88,80.29-7.56,119.47-2.39,6.96-5.49,10.15-13.5,10.02-31.24-.51-62.49-.44-93.73-.05-7.9,.1-10.18-2.33-10.2-10.23-.05-26.31-5.23-28.94-28.52-15.49-27.73,16-55.51,31.91-83.16,48.05-13.34,7.79-13.46,17.41-.3,25.1,30.07,17.56,60.25,34.95,90.48,52.25,13.83,7.91,21.38,3.63,21.68-11.94,.07-3.61,.21-7.23-.03-10.82-.3-4.58,1.5-6.51,6.18-6.48,18.73,.13,37.46,.05,56.19,.05-46.95,46.87-103.19,67.18-168.12,61.77Z"/>
</svg>