<?xml version="1.0" encoding="UTF-8"?>
<svg id="Layer_1" data-name="Layer 1" xmlns="http://www.w3.org/2000/svg" viewBox="0 0 800 800">
  <defs>
    <style>
      .cls-1 {
        fill: none;
      }

      .cls-2 {
        fill: #010101;
      }
    </style>
  </defs>
  <rect class="cls-1" width="800" height="800"/>
  <path class="cls-2" d="M770.95,445.99c-.01-16.28-7.09-23.24-23.53-23.32-26.13-.12-52.29-.72-78.39,.28-11.4,.44-13.46-3.15-13.38-13.75,.5-65.93,.27-131.87,.24-197.8,0-16.24-1.37-17.55-17.87-17.58-18.25-.03-36.51-.22-54.75,.11-6.19,.11-8.7-1.44-8.98-8.16-.5-12.21-7.65-21.33-19.43-22.33-11.95-1.01-16.27-6.85-18.5-16.92-.61-2.77-1.88-5.57-3.5-7.91-4.21-6.08-3.26-10.42,1.86-16.1,9.29-10.3,9.04-22.28,.02-32.6-7.08-8.09-14.81-15.69-22.84-22.86-8.46-7.55-22.89-8.82-30.86-1.32-7.62,7.17-13.72,6.44-21.45,1.56-3.44-2.17-7.52-3.86-11.51-4.53-6.48-1.09-8.53-4.05-8.84-10.73-.72-15.29-10.27-24.24-25.46-24.82-9.53-.37-19.09-.38-28.62,.02-12.77,.54-24.52,9-24.27,20.46,.26,11.79-5.93,14.55-14.61,17.06-3.15,.91-6.3,2.25-9.05,4.02-6.42,4.14-11.14,3.56-17.16-1.98-9.14-8.4-23.64-7.67-32.92,.66-7.7,6.91-15.07,14.27-21.96,21.99-8.84,9.91-10.1,22.33-1.43,31.59,6.91,7.38,6.28,12.97,1.65,20.45-2.35,3.8-3.82,8.3-4.9,12.68-1.41,5.72-4.37,7.54-10.35,8.11-15.63,1.49-23.13,8.78-24.89,24.19-.69,6.08-2.78,7.55-8.38,7.47-17.83-.26-35.67-.1-53.51-.09-18.93,.01-19.71,.77-19.71,19.48,0,65.93-.19,131.87,.21,197.8,.05,9.09-1.83,12.62-11.51,11.75-10.29-.93-20.74,.19-31.08-.34-7.38-.38-12.36,2.27-17.01,7.89-16.39,19.79-33.05,39.37-49.98,58.7-4.48,5.11-5.81,10.4-5.79,16.9,.13,80.45,.07,160.9,.1,241.35,0,18.9,6.51,25.65,25.22,25.67,76.74,.09,153.48,.08,230.22,0,18.77-.02,25.98-7.5,26-26.58,.05-49.35,.02-98.7,.02-148.04,0-49.35,.02-98.69,0-148.04,0-20.98-6.57-27.68-27.14-27.7-36.5-.03-73.01-.05-109.51,.04-5.68,.01-10.2,.57-10.16-7.93,.32-64.69,.23-129.38,.08-194.07-.01-5.33,1.53-7.28,7.02-7.18,15.76,.29,31.53,.24,47.29,.02,5.03-.07,7.11,1.32,7.85,6.75,1.55,11.43,8.45,20.03,20.03,20.24,10.63,.19,14.58,4.7,16.57,13.79,.78,3.58,2.17,7.3,4.27,10.26,4.65,6.55,3.41,11.11-1.89,17.14-9.05,10.3-8.4,22.56,.7,32.65,7.21,7.99,14.77,15.76,22.86,22.85,8.65,7.59,20.27,10.02,28.38,2.18,9.96-9.62,17.72-6.33,27.01-1.25,2.51,1.37,5.41,2.06,8.17,2.94,5.41,1.72,8.6,4,8.81,11.01,.44,14.63,9.99,24.04,24.22,24.9,10.33,.62,20.77,.65,31.09-.06,12.53-.87,23.12-9.99,23.16-21.89,.04-9.67,4.15-12.96,12.2-14.98,4.37-1.09,8.83-2.78,12.56-5.25,5.77-3.83,9.6-3.31,14.96,1.53,11.31,10.2,23.37,9.7,34.43-.48,7.31-6.73,14.37-13.79,21.06-21.14,8.69-9.56,10.71-21.31,2.57-30.43-7.63-8.56-6.91-15.3-1.84-23.84,2.08-3.5,3.37-7.57,4.42-11.54,1.49-5.66,4.46-7.8,10.58-7.75,13.49,.11,21.92-7.29,24.12-20.37,1-5.96,3.23-7.35,8.71-7.25,14.93,.29,29.88,.49,44.79-.07,7.39-.28,8.84,2.44,8.82,9.23-.23,63.45-.26,126.89,.02,190.34,.03,7.53-1.8,10.02-9.65,9.82-21.56-.55-43.14,.04-64.7-.32-6.89-.11-11.58,2.19-15.95,7.44-16.7,20.08-33.71,39.9-50.74,59.71-3.97,4.61-5.88,9.44-5.87,15.71,.18,81.28,.06,162.56,.17,243.83,.02,15.77,7.86,23.73,23.76,23.77,77.98,.16,155.97,.15,233.95,0,16.5-.03,23.66-7.29,23.67-23.44,.07-101.18,.07-202.37,0-303.55Zm-675.28,1.66c0,17.93,.16,32.12-.07,46.31-.11,6.43-4.61,7.92-10.23,7.85-10.67-.13-21.34-.04-35.39-.04,15.46-18.31,29.38-34.8,45.7-54.12Zm184.55-5.29c8.8-.08,9.96,3.26,9.91,10.77-.28,48.49-.14,96.98-.14,145.48,0,47.66-.19,95.33,.18,142.99,.07,8.54-.98,12.25-11.13,12.18-73.38-.5-146.76-.39-220.14-.09-8.07,.03-10.4-2.01-10.36-10.26,.33-70.46,.32-140.92,.01-211.37-.03-7.97,1.83-11.02,10.17-10.3,8.64,.74,17.4,.27,26.1,.14,19.92-.29,30.71-11.02,30.89-30.77,.12-13.26,.43-26.54-.14-39.78-.31-7.32,2.33-8.89,9.19-8.86,51.82,.25,103.65,.33,155.47-.12Zm274.63-245.78c-.3,2.03-.04,4.14-.04,6.21,0,17.76,0,17.96-17.44,18.86-7.72,.4-12.15,3.42-13.88,11.28-2.5,11.36-6.58,22.34-12.99,32.04-5.87,8.88-5.64,16.12,3.03,22.53,9.35,6.91,8.92,13.3-.14,20.29-6.14,4.74-10.28,11.84-17.1,15.51-5.56-.66-8.13-4.79-11.03-8.1-6.45-7.33-12.86-9.09-21.54-3.06-9.21,6.4-19.78,10.73-30.74,12.88-10.84,2.13-14.86,7.96-13.37,18.29,1.6,11.1-3.2,15.36-14,13.82-2.03-.29-4.14-.04-6.22-.04-18.11,0-18.4,.01-19.18-18.39-.32-7.61-3.87-11.28-10.78-12.88-11.36-2.64-22.53-6.35-32.08-12.91-9.41-6.46-16.78-5.95-23.43,3-6.66,8.96-12.89,8.99-19.48,0-1.7-2.31-4.08-4.12-6.14-6.16-14.69-14.63-12.17-12.45-.61-23.61,6.59-6.36,6.99-12.26,2.23-19.75-6.24-9.82-10.98-20.49-13.25-31.92-1.89-9.51-7.22-13.96-16.48-12.64-13.24,1.89-17.23-4.11-15.4-16.19,.31-2.03,.04-4.14,.04-6.21,0-16.9,0-17.25,16.44-17.27,8.44,0,13-3,14.87-11.41,2.61-11.76,7.05-22.99,13.64-33.1,5.24-8.04,4.87-14.94-2.88-20.5-10.82-7.77-9.52-14.8,.36-22,1.33-.97,2.41-2.28,3.58-3.45,12.73-12.7,12.88-12.87,25.75-.86,5.28,4.93,10.32,6.34,16.67,2.42,11.35-6.99,23.44-12.24,36.52-15.1,9.4-2.06,11.34-8.93,10.21-17.06-1.62-11.72,3.28-16.14,14.67-14.45,2.44,.36,4.97,.05,7.46,.05,16.96,0,17.37,0,17.29,16.5-.04,9.19,3.91,13.7,12.49,15.51,11.02,2.31,21.54,6.4,30.88,12.55,8.87,5.84,16.05,5.81,22.51-2.92,7.12-9.62,13.91-8.54,20.66,.4,1.24,1.64,2.87,2.99,4.34,4.45,12.62,12.64,12.86,12.87,.88,25.37-5.54,5.78-6.16,10.91-2.04,17.63,6.27,10.26,11.44,21.17,13.79,33.04,1.99,10.05,7.61,14.28,17.54,12.75,11.68-1.8,16.07,3.26,14.39,14.58Zm1.71,251.61c0,17.64,.11,32.55-.08,47.45-.05,3.86-2.85,5.93-6.6,5.97-11.77,.12-23.55,.04-38.45,.04,15.61-18.5,29.28-34.69,45.13-53.46Zm183.68,305.52c-73.41-.37-146.82-.32-220.23-.05-7.85,.03-10.63-1.67-10.59-10.16,.35-70.49,.33-140.97,.01-211.46-.04-8.21,2.18-10.93,10.39-10.29,9.07,.7,18.24,.31,27.36,.12,18.86-.4,29.25-10.74,29.43-29.28,.13-14.1,.27-28.2-.08-42.29-.15-5.9,1.69-7.81,7.7-7.79,53.09,.18,106.18,.27,159.26-.12,9.06-.07,7.4,5.28,7.4,10.44,.02,48.51,0,97.02,0,145.54,0,48.1-.21,96.2,.2,144.29,.07,8.57-2,11.1-10.86,11.05Zm-571.67-122.05c-18.18,0-36.37-.11-54.55,.05-7.37,.07-13.99-1.34-13.91-10.09,.08-7.82,6.13-9.76,13.11-9.74,37.2,.07,74.39,.04,111.59,.02,6.78,0,13.01,1.35,13.21,9.53,.22,9.02-6.35,10.3-13.65,10.26-18.6-.1-37.2-.03-55.79-.03Zm.24,41.9c18.24,0,36.48,.04,54.73-.02,7.03-.03,14.21,.41,14.48,9.49,.27,8.94-6.4,10.32-13.74,10.3-36.9-.07-73.8-.07-110.7,0-6.94,.01-13.02-1.62-13.25-9.63-.26-9.07,6.49-10.21,13.76-10.17,18.24,.09,36.48,.03,54.73,.03Zm33.62-103.3c-8.29,0-16.59,.09-24.88-.03-6.33-.09-10.67-3.67-10.8-9.7-.14-6.11,4.13-9.88,10.47-9.93,17-.14,34.01-.18,51,.05,6.24,.09,10.24,3.48,10,10.15-.21,5.98-4.07,9.07-9.68,9.28-8.69,.33-17.41,.09-26.12,.09,0,.03,0,.06,0,.09Zm428.48,61.4c-18.6,0-37.19-.06-55.79,.04-7.36,.04-13.83-1.4-13.5-10.39,.3-8.19,6.61-9.4,13.35-9.4,37.19,.03,74.39,.04,111.58-.01,7-.01,12.91,2.03,12.97,9.88,.06,7.87-5.7,9.99-12.82,9.93-18.6-.15-37.19-.05-55.79-.05Zm-.82,41.9c17.43,0,34.85-.02,52.28,.01,7.43,.02,16.77-1.26,16.86,9.49,.09,11.52-9.64,10.23-17.52,10.23-34.44,.02-68.87,.03-103.31-.01-7.4,0-16.5,1.3-16.79-9.61-.3-11.05,8.7-10.09,16.2-10.1,17.43-.04,34.85-.01,52.28-.01Zm34.43-103.26c-8.25,0-16.51,.14-24.75-.05-6.54-.15-11.28-2.72-11.15-10.24,.12-6.88,4.56-9.4,10.58-9.46,16.5-.16,33-.15,49.51,0,6.1,.06,10.56,2.95,10.67,9.52,.13,7.31-4.79,10.03-11.34,10.18-7.83,.18-15.68,.04-23.51,.04ZM401.68,108.9c-51.44-.93-94.07,40.25-94.72,91.47-.65,51.75,39.9,93.62,91.56,94.53,51.22,.9,93.53-40.44,94.12-91.97,.59-50.83-40.32-93.12-90.96-94.03Zm-2.29,166.28c-40.54-.17-72.57-33.07-72.3-74.26,.27-40.63,33.34-72.71,74.33-72.11,39.9,.59,71.45,33.49,71.07,74.12-.38,40.16-33.02,72.43-73.11,72.25Z"/>
</svg>