<?xml version="1.0" encoding="UTF-8"?>
<svg id="Layer_1" data-name="Layer 1" xmlns="http://www.w3.org/2000/svg" viewBox="0 0 800 800">
  <defs>
    <style>
      .cls-1 {
        fill: #020202;
      }

      .cls-2 {
        fill: none;
      }
    </style>
  </defs>
  <rect class="cls-2" width="800" height="800"/>
  <path class="cls-1" d="M709.21,482.54c0,52.1,0,104.2,0,156.3,0,3.91,.23,7.85-.16,11.72-.79,7.92-4.52,12.68-13.37,12.64-40-.14-80.01-.12-120.01,0-7.76,.02-13.15-3.1-13.19-10.98-.04-8.69,6.13-11.66,14.12-11.65,33.05,.02,66.09-.04,99.14,.02,5.89,.01,10.81,.69,10.74-8.32-.39-49.92-.19-99.84-.19-151.41-10.38,6.25-16.63,15.04-24.33,22.12-5.86,5.39-12.02,10.09-19.02,2.73-6.7-7.05-2.76-13.43,3.02-19.16,13.58-13.45,27.21-26.86,40.56-40.54,7.72-7.91,14.61-7.58,22.19,.21,13.04,13.38,26.37,26.47,39.67,39.59,6.09,6.01,10.52,12.83,3.3,20.13-7.87,7.96-14.21,1.48-19.75-4.32-6.53-6.84-12.76-13.96-19.13-20.96-1.2,.63-2.41,1.25-3.61,1.88ZM326.03,106.13c-4.2,0-8.4,0-12.6,0-36.96,0-73.93-.04-110.89,.02-16.38,.02-18.89,2.49-18.91,18.89-.07,42.16-.05,84.31,.02,126.47,0,3.44,.14,7,1.03,10.29,1.43,5.29,5.56,7.6,10.87,7.46,5.41-.15,9.13-3.09,10.31-8.28,.75-3.32,.45-6.91,.45-10.38,.03-37.38-.03-74.75,.08-112.13,.01-4.27-2.11-10.08,6.06-10.05,38.04,.13,76.09,.06,114.13,.06,.55,.98,1.1,1.96,1.65,2.94-7.41,7.06-14.77,14.18-22.24,21.16-6,5.61-9.73,12.11-3.36,19.16,6.75,7.46,13.18,3.29,18.91-2.48,13.48-13.56,26.83-27.25,40.59-40.53,8.54-8.24,7.72-15.3-.49-23.19-13.48-12.94-26.58-26.27-39.7-39.58-5.69-5.78-11.98-10.24-18.95-3.21-6.65,6.71-3.57,13.67,2.69,19.15,7.68,6.73,15.65,13.12,23.49,19.65-1.04,1.52-2.09,3.05-3.13,4.57Zm37.8,378.39c-4.51,9.83-8.37,20.02-11.66,30.33-3.81,11.95-11.02,17.05-23.5,14.27-13.17-2.93-23.11-.07-33.11,10.88-8.2,8.98-7.05,17.43-5.44,26.18,2.82,15.33-2.4,24.18-17.32,27.81-1.66,.4-3.19,1.36-4.79,2.05q-29.61,12.76-52.68-10.33c-6.48-6.48-30.37-5.68-36.54,1.56-22,25.78-14.12,26.05-50.26,11.28-1.6-.65-3.34-.98-4.95-1.61q-19.88-7.8-18.99-28.99c1.02-24.5-11.32-36.46-36.38-35.27q-21.13,1.01-29.5-18.11c-.69-1.59-1.51-3.12-2.18-4.72-14.72-34.88-15.89-27.86,9.94-50.72,8.56-7.57,7.54-30.52-1.34-38.02-26.83-22.65-23.67-15.36-11.82-46.72,.31-.81,.59-1.64,.91-2.44,12.07-29.84,7.09-25.48,38.18-24.24,14.66,.58,30.4-15.88,28.83-30.37-.56-5.18-1.11-10.37-1.87-15.52-1.22-8.25,2.77-13.19,9.95-16.23,8.79-3.72,18.1-6.54,26.27-11.33,12.92-7.56,22.85-5.98,30.82,6.75,6.8,10.86,15.86,14.34,29.21,14.09,11.99-.23,16.76-6.91,22.67-14.16q12.89-15.8,31.41-8.37c2.42,.97,4.77,2.1,7.2,3.04q28.95,11.29,27.98,41.58c-.39,12.14,17.58,29.19,29.7,27.14,33.26-5.63,27.93-1.43,39.62,23.42,.74,1.57,1.32,3.21,2.03,4.79,12.63,28.16,9.8,24.54-8.78,41.3-12.86,11.61-12.3,33.37,1.22,44.4,3.7,3.02,7.36,6.1,11.05,9.14,5.68,4.68,7.46,9.82,4.1,17.13Zm-33.61-12.17c-12.6-6.83-17.27-17.41-14.39-31.48,.51-2.5,.54-5.31-.05-7.78-3.71-15.55,1.8-27.24,15.22-34.98,10.57-6.1,5.51-13.03,2.77-20.69-2.99-8.36-6.85-13.4-16.87-10.74-14.25,3.79-26.53,1.17-34.82-12.46-1.31-2.15-3.39-4.15-5.58-5.41-13.62-7.88-17.44-19.55-13.69-34.24,2.24-8.8-1.21-13.75-9.76-16.34-8.38-2.53-16.32-8.62-22.89,3.71-6.93,13.01-17.78,19.74-33.36,15.05-1.97-.59-4.49-.5-6.46,.15-15.89,5.27-26.44-1.74-35.24-14.27-2.24-3.19-4.19-7.89-9.55-7.78-14.1,.3-24.43,11.79-21.49,25.96,2.54,12.25-.18,21.1-10.59,28-3.19,2.11-6.39,4.99-8.2,8.27-7.55,13.65-19.58,16.71-33.22,13.38-13-3.17-14.28,5.89-18.67,13.85-5.2,9.43-1.22,14.13,6.01,18.72,12,7.61,19.05,17.43,14.69,32.51-.58,2-.56,4.48,.06,6.46,5.08,16.31-1.62,27.68-15.07,36.12-7.45,4.67-7.91,10.45-3.91,17.57,3.94,7.02,4.5,17.46,17.47,13.81,15.26-4.29,28.07-.57,36.83,13.71,1.53,2.5,4.04,4.73,6.6,6.21,10.97,6.31,14.25,15.68,11.97,27.42-4.77,14.12,3.42,18.46,14.69,23.33,12.5,5.4,15.44-3.98,20.12-10.16,6.57-8.67,13.68-13.97,25.2-11.68,4.6,.91,9.71,.98,14.28-.02,14.27-3.12,24.04,2.76,31.98,13.97,3.89,5.49,7.74,12.05,16.58,6.35,7.4-4.77,19.67-4.69,15.77-19.16-4.17-15.48,.42-28.01,14.51-36.61,1.78-1.09,3.33-2.92,4.4-4.75,7.11-12.13,17.38-15.67,30.9-12.66,8.32,1.85,15.11,1.32,18.76-9.56,3.33-9.93,6.3-17.67-5.02-23.8Zm444.78-252.25c-.24,107.21-88.87,195.16-196.49,194.96-107.06-.2-194.51-87.87-194.54-195.03-.03-107.71,87.9-195.92,195.25-195.86,107.07,.05,196.01,89.07,195.78,195.93Zm-23.2,.91c.49-95.55-76.92-173.57-172.35-173.71-95.04-.14-172.41,76.85-172.7,171.86-.29,95.11,76.58,172.69,171.48,173.07,95.06,.38,173.08-76.58,173.57-171.22Zm-211.56,439.12c.88,10.82-3.84,16.78-14.31,19.85-17.41,5.12-20.76,13.42-12.07,29.95,4.82,9.17,4.08,16.33-3.93,22.94-3.34,2.75-6.62,5.75-9.23,9.17-8.5,11.19-17.61,13.32-30.1,5.31-10.35-6.64-21.91-1.51-24.96,10.56-3.29,13.03-9.89,19.61-23.9,17.53-4.68-.69-9.57-.45-14.32-.04-10.33,.9-15.88-3.5-18.83-13.55-5.17-17.63-13.5-21.16-29.56-12.67-9.57,5.05-17.13,4.56-24-4.15-2.67-3.39-5.82-6.54-9.23-9.17-10.67-8.23-12.59-17.07-5.24-29.13,6.96-11.43,2.08-22.54-10.87-25.81-12.66-3.19-18.65-9.8-16.89-23.1,.62-4.69,.5-9.58,.02-14.31-1.11-11.04,4.08-16.68,14.39-19.69,16.52-4.83,20.39-13.65,12.12-28.82-5.57-10.22-4.28-17.72,4.59-24.93,5.36-4.36,9.9-9.73,14.89-14.56,2.5-2.42,5.11-4.79,11.31-4.58,2.3,1.1,6.58,3.07,10.79,5.16,12.83,6.36,23.5,2.69,26.73-11.04,3.14-13.32,10.49-17.86,23.29-16.46,4.72,.52,9.58,.44,14.32,.01,10.34-.94,15.95,3.59,19,13.47,5.46,17.66,14.08,21.23,30.64,12.27,8.85-4.79,15.34-3.89,21.71,3.49,3.4,3.93,7,7.8,11.05,11.03,10.18,8.12,11.72,16.57,4.67,28.16-7.43,12.2-2.54,22.89,11.71,26.43,12.47,3.09,17.38,10.02,16.2,22.37-.45,4.73-.39,9.57,0,14.32Zm-23.11-7.69c-.03-5.19-1.93-7.62-6.55-9.55-20.92-8.73-29.79-30-21-51.47,2.18-5.33,.34-7.85-2.76-11.24-3.3-3.61-5.97-2.92-10.13-1.02-19.56,8.93-43.71-.79-51.05-20.36-1.86-4.95-3.67-8.11-9.87-7.87-5.75,.22-7.31,3.46-8.59,7.87-1.8,6.23-2.82,13.59-10.11,15.6-14.12,3.88-27.63,17.65-43.31,3.61-.61-.55-1.55-.74-2.35-1.09-6.33,.09-10.12,9.49-6.76,16.78,7.72,16.74-2.79,42.46-19.88,48.42-5.02,1.75-9.34,3.08-9.21,10.26,.12,6.71,4.28,7.56,8.79,9.2,17.2,6.24,28.32,32.17,20.43,48.21-2.47,5.02-4.14,8.73,.74,13.72,4.73,4.83,8.1,2.44,12.45,.35,16.77-8.05,42.81,2.44,48.67,19.71,1.62,4.76,2.6,8.65,9.09,8.91,6.98,.28,8.54-3.54,10.42-8.92,6.12-17.45,31.94-27.77,48.64-19.77,4.16,1.99,7.67,5.13,12.38-.15,3.9-4.37,3.92-7.5,1.56-12.56-8.48-18.2,1.88-42.73,20.88-49.87,4.45-1.67,7.54-3.04,7.5-8.76Zm-232.87-213.58c-.34,48.28-41.3,88.78-89.51,88.5-49.22-.29-89.01-41.04-88.38-90.54,.62-49.07,40.19-87.5,89.77-87.19,48.86,.3,88.47,40.41,88.12,89.24Zm-22.93-.98c-.15-36.06-30.52-66.27-66.5-66.14-35.69,.12-66.49,31.07-66.33,66.64,.16,36,30.51,65.85,66.83,65.72,36.6-.13,66.16-29.78,66-66.22Zm467.09-215.74c-.48,81.35-67.45,146.99-149.67,146.68-82.72-.31-148.91-66.37-149.13-148.85-.22-82.7,66.82-149.43,149.98-149.28,83.82,.15,149.31,66.81,148.82,151.45Zm-22.57-2.89c-.32-70.05-57.16-126.42-127.19-126.14-69.91,.29-126.76,57.46-126.42,127.16,.34,69.8,57.78,126.66,127.43,126.14,70.32-.53,126.5-57.15,126.18-127.16Zm-233.47,432.76c.04,31.39-24.65,55.74-56.36,55.59-31.47-.14-56.07-25.02-55.69-56.32,.37-30.41,25.32-55.25,55.75-55.5,30.8-.25,56.26,25.17,56.3,56.22Zm-22.93-.03c-.04-18.51-14.33-32.98-32.73-33.12-19.19-.15-33.33,14.29-33.13,33.84,.2,18.69,14.43,32.58,33.18,32.38,18.52-.2,32.72-14.58,32.68-33.09Zm139.04-375.18c-15.61,2.92-30.11-.69-43.97-7.93-6.93-3.61-13.55-4.04-17.56,4.28-3.72,7.72,.7,12.28,6.92,15.71,7.24,4,14.74,7.6,22.96,8.87,6.73,1.05,11.31,2.76,10.87,11.17-.38,7.2,3.16,13.09,11.33,13.04,9.04-.05,11.74-6.26,11.1-14.22-.46-5.78,1.95-8.09,7.47-9.96,24.86-8.42,36.73-25.55,34.47-48.49-1.96-19.94-20.35-36.66-43.75-39.86-6.88-.94-13.93-1.39-20.57-3.25-9.78-2.74-17.37-8.8-18.49-19.56-1.14-11.02,5.55-17.63,14.92-22.09,5.29-2.52,10.92-2.74,16.57-2.73,11.99,.02,23.02,3.4,33.56,9.11,6.44,3.48,13.24,3.2,16.76-4.1,3.35-6.93,.33-12.57-6.45-16.14-7.69-4.05-15.51-8.02-24.15-9.28-6.83-1-11.44-2.6-10.44-11.06,.82-6.91-2.34-12.1-9.9-12.66-8.21-.61-12.49,4.6-12.28,11.92,.23,8.07-3.16,10.6-10.34,13.29-22.25,8.35-32.64,25.51-30.43,47.4,1.88,18.63,17.43,34.58,38.44,38.91,7.65,1.58,15.54,1.93,23.2,3.45,11.81,2.34,19.14,9.53,21.42,21.18,.41,10.35-9.25,20.66-21.66,22.98Z"/>
</svg>