<?xml version="1.0" encoding="UTF-8"?>
<svg id="Layer_1" data-name="Layer 1" xmlns="http://www.w3.org/2000/svg" viewBox="0 0 800 800">
  <defs>
    <style>
      .cls-1 {
        fill: none;
      }

      .cls-2 {
        fill: #010101;
      }
    </style>
  </defs>
  <rect class="cls-1" width="800" height="800"/>
  <path class="cls-2" d="M642.13,64.71c5.81-4.39,10.61-7.53,18.21-7.43,32.62,.41,65.26-.31,97.87,.44,11.38,.26,8.78-6.57,8.74-12.58-.04-5.89,2.86-12.78-8.6-12.56-36.69,.72-73.4,.35-110.11,.19-6.16-.03-11.48,1.4-15.06,6.39-17.89,24.94-41.41,35.71-72.24,30.64-9.37-1.54-14.17,4.78-14.25,14.13-.1,11.42-.02,22.85-.04,34.27,0,3.64,.19,7.11-2.72,10.23-21.28,22.85-41.11,48.42-78.41,39.07-.77-.19-1.63-.02-2.44-.02-9.62-.04-14.19,5.03-14.27,14.38-.1,11.42-.03,22.85-.04,34.27,0,3.64,.17,7.11-2.73,10.23-21.26,22.88-41.14,48.38-78.41,39.05-.38-.1-.81,0-1.22-.01-10.85-.43-17.14,5.32-15.25,15.57,5.8,31.48-7.45,53.89-31.59,71.85-.65,.48-1.32,1.02-1.77,1.68-12.59,18.3-29.98,24.78-51.56,21.07-.79-.14-1.64-.09-2.44,0-7.52,.77-8.53-1.76-6.7-9.16,8.79-35.53,27.81-64.02,57.23-85.45,12.3-8.96-.82-13.58-2.89-19.77-2.58-7.71-7.28-3.31-11.26-.56-59.76,41.23-86.6,122.85-63.14,192.01,24.59,72.45,88.37,118.55,164.9,118.85,50.51,.2,101.02,.04,153.88,.04-69.29,66.63-182.78,79.98-267.55,31.69-74.67-42.54-114.59-107.88-120.2-193.53-1.05-16.1-11.37-8.22-17.93-9.44-10.06-1.87-7.3,6.23-6.91,11.16,1.09,13.79,1.54,27.75,5.41,41.12,2.23,7.69-.55,8.92-7.44,8.83-24.47-.3-48.95-.53-73.4,.1-8.98,.23-10.71-2.93-10.6-11.15,.43-33.86,.48-67.73-.04-101.58-.13-8.44,2.7-10.04,10.39-9.92,27.73,.43,55.46-.04,83.19,.29,9.02,.11,14.53-3.35,17.71-11.71,4.48-11.78,8.54-23.84,14.41-34.92,6.54-12.35,3.81-20.72-6.08-29.89-18.81-17.46-36.28-36.34-54.79-54.13-6.17-5.93-5.91-9.34,.19-15.26,24.3-23.56,48.24-47.5,71.81-71.79,5.78-5.96,9.02-5.58,14.5,.08,19.3,19.91,39.23,39.21,58.57,59.08,6.33,6.51,12.76,7.81,20.86,4.28,13.05-5.68,26.1-11.38,39.39-16.46,8.51-3.25,11.7-8.69,11.58-17.68-.36-28.15,.09-56.31-.28-84.47-.09-6.95,1.95-8.97,8.88-8.9,35.07,.32,70.15,.38,105.22-.03,7.47-.09,8.53,2.74,8.41,9.17-.37,18.76,.32,37.55-.29,56.29-.39,11.89,7.82,7.63,13.33,8.04,5.77,.43,12.03,2.19,11.68-8.34-.79-24.05-.19-48.14-.27-72.21-.05-14.42-2.86-17.34-17.04-17.36-45.68-.07-91.35-.07-137.03,0-13.62,.02-17.23,3.68-17.29,17.46-.11,24.07-.03,48.14-.03,72.21,0,24.72-.13,24.42-23.03,34.2-7.05,3.01-11.32,2-16.58-3.44-19.83-20.51-40.12-40.59-60.36-60.7-11.1-11.03-15.18-11.04-26.31,.06-31.78,31.66-63.49,63.38-95.13,95.17-10.98,11.03-10.86,14.86,.41,26.21,16.67,16.79,33.44,33.47,50.15,50.22,17.4,17.44,16.87,17.25,7.81,40.56-3.14,8.08-7.26,9.85-15.17,9.72-28.54-.46-57.09-.24-85.64-.15-13.73,.04-17.48,3.66-17.51,17.24-.09,45.29-.08,90.57,0,135.86,.02,14.23,4,18.26,18.04,18.33,24.06,.12,48.12,.03,72.19,.03,24.49,0,24.21,.12,33.67,22.17,3.13,7.3,2.83,11.95-3.35,17.85-20.94,19.98-41.19,40.69-61.56,61.27-9.53,9.63-9.62,14-.15,23.54,32.47,32.7,65.05,65.29,97.73,97.77,9.55,9.5,13.91,9.41,23.54-.09,17.42-17.18,34.65-34.55,51.96-51.85,17.28-17.27,17.12-16.88,39.48-7.98,7.64,3.04,10.25,6.7,10.07,15.03-.61,28.55-.31,57.11-.2,85.67,.05,13.71,4.01,18.04,17.04,18.07,46.08,.13,92.17-.02,138.25,.1,11.23,.03,16.3-4.99,16.17-16.36-.28-24.48-.08-48.96-.08-73.44,0-24.84,.14-24.52,23-34.33,7.53-3.23,12.06-2.16,17.74,3.76,20.05,20.88,40.87,41.03,61.21,61.65,6.66,6.75,13.46,9.61,21.01,2.08,34.1-33.95,68.11-67.99,102.03-102.12,6.69-6.73,6.3-13.78-.81-20.14-5.3-4.74-10.81-9.25-16.22-13.86,.8-1.05,1.59-2.09,2.39-3.14,18.27,0,36.54-.13,54.81,.05,11.15,.11,16.33-4.76,16.32-16.21-.12-136.27-.13-272.54,.02-408.81,.01-11.58-4.99-16.03-16.3-15.91-29.77,.32-59.54,.04-89.31,.14-13.02,.05-16.83,3.75-16.92,16.59-.16,22.85-.82,45.73,.28,68.53,.55,11.48-3.4,13.36-13.63,13.01-22.4-.77-44.85-.31-67.28-.21-13.61,.06-17.17,3.69-17.27,17.49-.12,15.5-.4,31.02,.14,46.5,.26,7.43-1.75,9.79-9.46,9.61-23.23-.53-46.49-.23-69.73-.18-15.45,.03-18.77,3.26-18.83,18.4-.08,18.77-.62,37.56,.23,56.29,.43,9.6-2.84,11.43-11.66,11.19-23.23-.62-46.49-.3-69.73-.17-12.87,.07-16.54,3.82-16.7,16.82-.15,11.83-.39,23.68,.11,35.49,.29,6.81-1.63,9.25-8.77,9.01-15.48-.52-30.99-.16-46.49-.16-37.97,0-37.75-.03-42.31-38.08-1.05-8.73,1.26-12.3,10.01-10.74,32.08,5.73,57.02-5.41,75.58-31.8,.46-.66,1.26-1.08,1.72-1.74,16.08-23.3,38.01-32.6,65.94-27.72,1.58,.28,3.27,.13,4.89-.02,8.11-.75,12.65-5.01,12.8-13.38,.08-4.49,.65-9.08-.06-13.45-3.39-20.79,5.02-35.25,19.86-50.02,15.27-15.2,29.96-23.17,51.92-21.48,25.89,1.99,27.59,.17,25.75-26.47-1.44-20.93,5.65-35.1,20.2-50.04,15.59-16.01,31.02-23.16,53.21-21.38,23.83,1.91,26.44-.65,24.48-24.11-1.9-22.7,4.03-40.04,22.37-53.88ZM260.14,626.32c-17.51,17.59-35.14,35.05-52.47,52.82-4.53,4.64-7.42,5.52-12.55,.27-24.46-25.04-49.23-49.78-74.24-74.26-5.04-4.93-4.89-7.84-.04-12.57,18.05-17.61,35.91-35.44,53.52-53.5,4.82-4.95,7.17-4.25,10.74,1.25,19.52,30.11,44.52,54.86,74.4,74.7,2.16,1.44,5.4,2.17,5.49,6.21-1.52,1.6-3.14,3.37-4.84,5.08Zm193.61,116.46c-35.87-.03-71.75-.13-107.62,.09-6.15,.04-7.47-2.46-7.43-7.99,.21-25.69,.09-51.38,.09-77.08,0-4.16-.66-8.47,6.18-6.89,38.31,8.84,76.64,8.14,116.02-1.15,0,29.91-.07,58.8,.06,87.69,.03,5.69-3.49,5.34-7.31,5.33ZM680.04,155.13c17.89,.88,35.86,.57,53.78,.09,6.97-.19,8.75,1.96,8.74,8.81-.2,124.76-.2,249.52,0,374.28,.01,7.09-2.16,8.94-9,8.77-17.92-.45-35.88-.62-53.78,.05-8.66,.32-10.88-2.36-10.84-10.9,.36-61.97,.19-123.94,.19-185.91,0-61.16,.17-122.31-.2-183.47-.05-8.69,1.4-12.19,11.1-11.72Zm-99.37,98.01c18.32,.5,36.69,.65,55-.06,8.23-.32,9.05,2.94,9.01,9.83-.27,45.65-.14,91.31-.14,136.96s-.18,91.31,.17,136.96c.06,7.82-1.69,10.61-10,10.3-17.9-.66-35.86-.5-53.77-.05-7.19,.18-9.89-1.45-9.86-9.35,.28-91.72,.28-183.43,0-275.15-.02-7.71,2.21-9.64,9.6-9.44Zm7.69,321.72c2.88-3.17,6.17-3.35,9.89-3.34,17.12,.05,34.25,.29,51.36-.12,6.28-.15,10.78,1.72,14.88,6.37,4.84,5.49,10.17,10.58,15.54,15.58,4.04,3.76,4.65,6.59,.24,10.93-25.55,25.18-50.87,50.6-76.11,76.09-3.57,3.61-5.93,4.27-9.84,.31-19.73-19.97-39.72-39.69-60.84-60.7,20.91-13.54,39.17-27.83,54.87-45.12Zm-115.18-238.25c-.04-8.17,2.31-10.31,10.23-10.06,17.91,.58,35.87,.72,53.76-.05,8.72-.37,9.7,3.11,9.63,10.44-.33,33.41-.14,66.84-.14,100.25s-.2,66.84,.16,100.25c.08,7.29-1.56,9.94-9.38,9.67-17.9-.62-35.85-.54-53.76-.03-7.7,.22-10.54-1.57-10.49-9.97,.34-66.83,.34-133.67,0-200.51Zm-97.83,83.93c-.05-6.48,1.91-8.37,8.27-8.25,19.15,.36,38.33,.45,57.47-.04,6.96-.18,7.88,2.61,7.79,8.53-.31,19.57-.12,39.15-.12,58.73,0,19.58-.28,39.16,.15,58.72,.16,6.99-2.01,9.17-8.93,8.83-18.3-.9-36.65,.9-54.97-1.21-6.64-.76-9.84-2.46-9.74-10.29,.46-38.33,.35-76.67,.07-115.01Zm-29.72,53.01c4.5-.03,5.34,2.01,5.32,5.9-.12,19.01-.05,38.02-.05,58.61-33.54-12.71-58.2-33.36-77.62-64.43,25.61,0,48.99,.08,72.36-.07Zm42.15-158.71c-10.25-.15-12.58-3.14-12.72-13.02-.15-10.74,3.55-13.84,13.3-11.55,10.32-2.7,11.65,2.49,11.84,11.49,.21,9.72-1.76,13.25-12.42,13.09Zm97.97-97.92c-10.1-.22-12.8-2.9-12.79-12.94,.01-10.39,2.91-14.42,12.68-11.5,10.72-2.83,12.33,2.11,12.44,11.26,.12,9.56-1.52,13.4-12.33,13.17Zm96.84-98.03c-12.12,1.07-10.81-5.68-11.69-13.88-1.4-13.02,6.84-10.05,14.18-11.07,11.65-1.61,11.59,4.96,10.2,12.87,3.41,12.3-4.19,11.32-12.69,12.08Z"/>
</svg>