<?xml version="1.0" encoding="UTF-8"?>
<svg id="Layer_1" data-name="Layer 1" xmlns="http://www.w3.org/2000/svg" viewBox="0 0 800 800">
  <defs>
    <style>
      .cls-1 {
        fill: none;
      }

      .cls-2 {
        fill: #010101;
      }
    </style>
  </defs>
  <rect class="cls-1" width="800" height="800"/>
  <path class="cls-2" d="M184.23,25.14c38.26,0,76.52-.05,114.78,.02,17.3,.03,23.75,6.63,23.79,24.17,.06,20.69,.04,41.38,0,62.08-.03,19.89-7.57,26.64-27.2,24.44-23.46-2.63-41.34,9.41-46.36,31.22-4.44,19.25,7.22,39.3,26.7,46.08,7.65,2.66,15.35,1.94,23.13,.88,14-1.91,23.51,5.97,23.67,20.19,.26,22.64,.24,45.29,0,67.93-.15,13.94-7.71,21.13-22.11,21.21-29.67,.16-59.34,.05-89.02,.05-4.77,0-8.18-1.17-6.84,7.17,4.36,27.19-6.04,49.11-29.01,64.03-20.87,13.56-43.05,13.67-63.84,.09-22.8-14.9-33.26-36.53-28.84-64.01,.98-6.12-.53-7.51-6.21-7.35-10.53,.29-21.09,.3-31.62-.02-12.3-.37-19.84-7.43-19.91-19.69-.26-48.41-.07-96.82-.15-145.23-.01-7.61,3.82-12.38,10.97-12.38,8.14,0,10.76,5.62,10.72,13.54-.22,42.94,.33,85.9-.4,128.83-.19,11.21,3.37,13.91,13.75,13.2,12.43-.86,24.97-.32,37.47-.17,14.4,.17,18.41,7.29,11.77,20.38-8.21,16.19-6.97,31.78,4.36,45.89,10.27,12.78,24.31,16.75,39.94,13.12,15.58-3.62,27.53-18.67,29.67-35.52,1.02-8.01-.88-15.49-4.4-22.58-7.65-15.42-4.05-21.28,13.37-21.3,32.41-.04,64.81-.3,97.21,.18,8.48,.13,11.82-1.68,11.38-10.84-.75-15.58-.34-31.23-.13-46.84,.07-5.33-.97-7.17-7.19-6.85-37.19,1.95-67.31-26.06-67.31-61.95,0-35.75,29.46-63.56,66.13-61.88,5.88,.27,8.57-.14,8.42-6.9-.37-17.17-.31-34.36-.02-51.53,.1-6.01-1.79-8.11-8-8.1-74.18,.18-148.36,.01-222.54,.21-14.58,.04-23.02,8.71-23.48,23.53-.43,13.65-.17,27.33-.09,40.99,.04,7.33-2.88,12.45-10.63,12.39-7.63-.06-10.86-5.26-10.9-12.44-.07-15.62-.63-31.27,.18-46.84,1.17-22.48,19.55-39.15,42.85-39.29,38.65-.23,77.3-.06,115.96-.07ZM774.73,733.11c-.63,24.46-19.55,41.69-45.6,41.73-80.42,.13-160.84,.05-241.27,.05-78.86,0-157.72,.02-236.58,0-32.35-.01-49.41-16.53-49.49-48.67-.18-74.56-.1-149.13-.03-223.7,.02-20.3,6.3-26.42,26.61-26.51,11.71-.05,23.44-.35,35.13,.11,15.99,.64,23.66,11.58,19.44,26.9-5.27,19.11,.16,35.85,15.1,46.58,13.42,9.63,30.12,9.97,43.8,.88,15.29-10.16,21.15-26.47,16.56-46.08-4.35-18.56,3.29-28.26,22.74-28.37,28.5-.15,57.01-.44,85.49,.2,9.06,.2,11.21-2.57,10.81-11.14-.7-15.19-.45-30.45-.07-45.66,.15-6.04-1.36-7.63-7.72-7.55-35.09,.47-61.3-20.23-66.58-54.4-5.28-34.13,22.68-69.57,61.94-69.23,10.7,.09,12.94-2.4,12.47-12.41-.83-17.92-.35-35.91-.2-53.86,.13-14.41,6.93-22.11,21.31-22.15,77.69-.25,155.38-.48,233.07,.12,25.94,.2,43.13,18.67,43.15,44.08,.1,125.71,.04,251.41,.08,377.12,0,5.58,.19,11.21-5.46,14.43-6.55,3.74-16.66,.26-16.39-12.3,.75-34.73,.26-69.48,.26-104.23,0-3.51-.43-7.09,.08-10.53,1.28-8.64-2.76-10.29-10.55-10.09-19.12,.51-38.25,.23-57.38,.15-15.83-.07-20.13-7.42-12.73-21.49,13.5-25.64,6.91-56.12-15.29-70.66-23.59-15.46-57.34-11-74.05,10.73-14.27,18.56-13.92,39.04-4.12,59.47,7.26,15.14,3.52,21.92-13.17,21.97-18.74,.05-37.5,.57-56.21-.22-9.2-.39-10.88,2.79-10.8,11.22,.42,40.99,.24,81.98,.16,122.97-.03,16.82-5.19,20.26-20.42,14-13.74-5.65-27.44-2.02-36.55,9.71-7.69,9.9-7.94,24.67-.58,34.83,8.37,11.56,23,16,36.31,11.04,17.49-6.52,20.89-3.9,21.39,15,.3,11.55-5.18,26.64,2.42,33.7,7.44,6.91,22.34,1.95,33.95,1.98,62.46,.19,124.93,.1,187.39,.09,22.88,0,30.1-7.22,30.14-30.08,.03-16.79,.1-33.57-.03-50.36-.06-7.09,1.75-12.65,9.95-12.93,8.48-.29,11.66,4.85,11.65,12.68-.02,20.3,.4,40.61-.13,60.9ZM478.82,387.58c15.88-5.14,20.37-1.87,20.44,15.18,.08,20.29,.49,40.59-.19,60.86-.32,9.42,1.9,13.44,12.05,12.56,10.07-.87,20.33-.88,30.4,0,10.47,.91,12.92-1.49,10.38-12.44-8.8-37.87,14.1-74.98,51.28-84.97,41.54-11.16,82.06,8.07,94.57,45.15,4.8,14.23,6.58,28.83,2.06,43.57-1.93,6.3-.64,8.99,6.73,8.66,12.46-.57,24.98-.49,37.45-.03,6.96,.26,9.49-1.71,9.46-9.11-.25-73.35-.05-146.7-.23-220.06-.04-17.02-8.33-24.76-25.4-24.79-35.9-.06-71.79-.02-107.69-.02s-74.14,.23-111.2-.19c-7.82-.09-9.97,2.22-9.82,9.83,.45,22.23,.28,44.48,.12,66.72-.12,16.44-4.59,19.52-19.89,14.27-17.68-6.07-36.06-.53-46.95,14.16-9.67,13.03-9.69,32.34-.06,45.77,10.92,15.22,28.28,20.78,46.48,14.88Zm-2.61,340.2c-1.51-4.32-9.18-.72-14.03-1.59-3.79-.68-7.57-.71-11.37-2.11-25.14-9.27-40.86-34.19-36.51-58.46,4.67-26.01,27.66-44.47,55.46-43.42,6.78,.26,7.61-1.75,7.58-7.45-.18-35.89-.36-71.78,.12-107.66,.1-7.9-2.96-8.7-9.5-8.62-24.96,.32-49.96,.79-74.88-.17-11.03-.43-12.15,2.89-11.21,12.85,4.44,47.03-43.78,81.66-86.2,62.44-27.16-12.31-39.8-38.59-35.36-74.98-8.61,0-17.18,.67-25.59-.18-8.94-.91-10.86,2.22-10.81,10.86,.37,72.16,.19,144.33,.23,216.5,.01,20.3,6.92,27.08,27.61,27.11,40.96,.07,81.92,.02,122.88,.02,30.82,0,61.63,.08,92.45-.11,3.41-.02,9.06,2.39,9.76-3.11,.93-7.25,1.69-15.3-.63-21.9ZM730.71,120.63c-.09,18.08-11.59,33.11-28.95,37.81-16.89,4.57-34.63-3.34-43.96-20.74-2.96-5.53-6.35-6.46-11.84-6.44-42.13,.18-84.26,.21-126.38-.02-5.96-.03-10.15,1.79-14.3,6.03-16.88,17.31-33.93,34.45-51.29,51.27-4.94,4.79-6.88,9.78-6.58,16.51,.44,10.12,0,20.28,.15,30.42,.12,8.38-.84,17.01-11.35,16.7-9.3-.27-9.7-8.28-10.85-16.25-5.08-35.25,4.29-64.04,34.64-84.57,2.22-1.5,4.21-3.59,5.76-5.78,21.52-30.4,50.27-42.86,87.33-36.49,8.33,1.43,17.13,.21,25.71,.21,22.23,0,44.47-.17,66.7,.11,5.95,.08,9.4-1.14,12.55-7.09,9-17.03,27.4-24.68,44.3-19.79,17.66,5.11,28.44,19.6,28.35,38.12Zm-21.42-.75c-.21-9.08-8.43-16.72-17.61-16.38-8.85,.33-15.92,7.69-15.96,16.65-.05,9.42,7.55,17.1,16.8,16.99,9.06-.11,16.98-8.26,16.77-17.26Zm-303.68-22.26c-6.78,3.57-8.06,7.74-7.95,14.56,.37,23.42,.14,46.84,.14,70.27,0,23.42-.06,46.85,.03,70.27,.03,8.22-.04,16.65-11.23,16.55-11.45-.1-10.81-9.13-10.82-16.98-.06-46.46-.18-92.91,.12-139.37,.05-7.35-1.51-11.72-8.61-15.55-15.99-8.62-23.09-27.4-18.24-44.08,4.82-16.6,20.05-28.05,37.41-28.13,18.47-.09,33.56,11.7,38.35,29.96,4.19,15.93-3.41,34.18-19.21,42.51Zm-2.31-33.52c.12-9.16-7.89-17.36-16.81-17.22-8.44,.14-16.3,7.86-16.64,16.36-.35,8.8,7.69,17.62,16.36,17.96,8.63,.34,16.97-8.01,17.09-17.1Zm-72.72,415.21c-1.21,8.42-.15,17.14-.39,25.71-.19,6.95-3.98,11.15-10.98,10.87-6.77-.26-10.62-4.31-10.66-11.36-.04-8.19,0-16.38-.02-24.58-.01-1.17-.25-2.4,.02-3.5,5.53-22.34-8.6-35.19-22.87-48.18-3.71-3.38-6.55-2.03-10.49-.86-22.08,6.52-43.28-5.2-49.46-26.91-6.08-21.36,6.48-42.31,28.93-48.25,27.88-7.37,53.63,19.65,45.68,48.6-1.83,6.67-1.37,11.15,4.1,14.91,22.53,15.52,29.95,37.01,26.15,63.54Zm-50.17-89.02c.05-8.91-7.99-16.33-17.58-16.23-8.9,.1-16.61,7.27-16.9,15.72-.3,8.8,7.9,17.12,16.98,17.23,9.01,.11,17.45-7.96,17.5-16.73Z"/>
</svg>