<?xml version="1.0" encoding="UTF-8"?>
<svg id="Layer_1" data-name="Layer 1" xmlns="http://www.w3.org/2000/svg" viewBox="0 0 800 800">
  <defs>
    <style>
      .cls-1 {
        fill: none;
      }

      .cls-2 {
        fill: #010101;
      }
    </style>
  </defs>
  <rect class="cls-1" width="800" height="800"/>
  <path class="cls-2" d="M754.41,703.49c-4.21-2.68-5.62-5.3-5.59-10.11,.2-31.55,.2-63.11,0-94.66-.03-4.77,1.23-7.46,5.49-10.18,16-10.22,21.26-24.31,16.12-40.76-4.89-15.67-17.42-24.4-35.45-24.48-19.06-.09-38.11-.02-57.71-.02,4.21-19-1.28-33.32-17.8-42.88-1.92-1.11-3.56-2.14-4.17-4.98-3.8-17.43-.11-22.28,17.63-22.28,4.67,0,9.36-.17,14.02,.04,4.5,.21,5.98-.9,5.07-5.95-6.04-33.56-11.73-67.19-17.5-100.81-1.5-8.75-1.77-16.42,4.05-24.96,11.9-17.47,6.83-42.96-11.55-53.01-11.39-6.23-12.47-13.67-11.63-23.97,.22-2.71,.03-5.45,.03-8.18q0-24.67-22.6-33.71c-2.09-.84-4.1-1.89-6.74-3.13,31.65-12.72,62.6-25.16,94.87-38.13-2.53-1.58-3.35-2.27-4.29-2.64-103.37-41.39-206.78-82.67-310.05-124.31-7.5-3.02-13.27-1.11-19.85,1.53-73.21,29.35-146.48,58.55-219.71,87.84-29.97,11.99-59.89,24.09-89.65,36.07,.39,3.11,2.15,2.98,3.49,3.52,40.91,16.4,81.81,32.86,122.74,49.22,4.38,1.75,7.88,2.81,7.82,9.27-.4,43.63-.32,87.26-.08,130.88,.03,5.82-1.89,7.13-7.31,7.01-14.41-.33-28.83-.36-43.24-.04-55.39,1.23-98.19,54.04-88.58,108.27,4.41,24.88,16.96,44.42,36.7,60.88-4.18,1.66-7.31,2.84-10.38,4.14-53.64,22.72-84,81.72-71.83,139.58,11.43,54.35,62.12,96.03,118.01,96.08,196.72,.18,393.44,.09,590.16,.06,18.47,0,31.16-9.18,35.9-25.5,4.59-15.83-.87-29.85-16.38-39.72Zm-94.74-273.68c-5.42-.21-10.85-.05-16.28-.05q-21.16,0-17.51-20.74c3.52-20.13,7.23-40.23,10.32-60.43,.82-5.34,2.38-6.83,7.86-6.76,5.08,.06,6.3,1.55,7.08,6.27,4.21,25.49,8.83,50.91,13.39,76.34,.74,4.13-.82,5.52-4.85,5.36ZM234.38,235.19c-.13-10.11,2.91-9.36,10.32-6.35,47.25,19.21,94.72,37.86,141.92,57.18,8.14,3.33,14.92,3.43,23.1,.09,50.01-20.4,100.23-40.27,152.17-61.03,0,46.56-.12,91.3,.15,136.04,.03,5.64-2.91,8.49-6.51,11.47-26.71,22.13-58.21,33.44-91.74,39.45-57.86,10.36-115.17,8.5-171.19-10.74-18.76-6.45-36.21-15.64-51.59-28.5-4.49-3.76-6.62-7.69-6.58-13.84,.3-41.25,.46-82.52-.07-123.77Zm355.33,171.38c-12.35-.78-24.79-.19-39.09-.19,9.43-7.56,17.08-13.97,25.03-19.98,8.96-6.77,19.41-3.38,28.97-2.51,3.77,.34-.34,6.55-.12,9.99,.73,11.18-4.98,13.31-14.79,12.69Zm-247.98,30.63c44.66,7.24,89.22,5.89,133.29-3.49,14.68-3.12,29.1-3.94,43.83-3.95,26.45-.02,52.9,0,79.83,0-1.37,8.05-2.59,15.23-3.97,23.38,10.16,0,19.86,.3,29.53-.11,5.82-.25,7.99,1.13,7.99,7.56,0,15.93,.39,15.93-15.86,15.93-147.24,0-294.48,0-441.73,0-2.73,0-5.46,.06-8.18-.01-14.86-.41-25.27-9.99-25.33-23.27-.07-13.41,10.18-23.32,25.08-23.4,35.45-.2,70.93,.85,106.33-.39,23.65-.83,46.27,4.05,69.19,7.77Zm319.19-135.4c-.29,9.53-7.63,16.57-17.26,16.56-9.58-.01-16.92-7.12-17.18-16.64-.28-10.07,7.21-17.77,17.24-17.75,10.05,.03,17.49,7.75,17.19,17.83Zm-29.43-57.96c2.57,11.73-.56,18.54-11.75,25.12-19.28,11.34-22.1,37.21-9.01,56.36,3.61,5.28,4.09,29.97-.53,32.74-6.45,3.87-14.44,1.69-21.65,1.27-6.07-.36-3.13-6.12-3.14-9.31-.21-41.98-.17-83.96-.12-125.94,.01-10.78,3.14-13,13.24-9.41,5.81,2.06,11.32,5.24,17.27,6.57,12.73,2.85,20.38,8.58,15.69,22.59ZM140.8,162.02c.76-4.86,5.35-4.38,8.02-5.45,80.34-32.27,160.81-64.22,241.17-96.45,5.41-2.17,9.9-2.88,15.49-.63,82.46,33.18,165.01,66.16,247.53,99.2,.98,.39,1.88,.98,4.73,2.48-21.64,8.75-41.77,16.94-61.95,25-4.43,1.77-8.34-.86-12.26-2.35-57.46-21.78-115.08-43.16-172.21-65.77-11.68-4.62-10.71,3.04-13.5,8.74-3.1,6.33-4,10.14,4.82,13.41,52.03,19.3,103.77,39.39,157.66,60-19.86,7.97-38.03,15.29-56.23,22.55-32.67,13.04-65.41,25.9-97.98,39.19-5.06,2.07-9.4,2.72-14.46,.68-83.54-33.56-167.11-67.06-250.82-100.62Zm-39.48,320.99c-21.84-45.33,10.25-97.99,60.59-99.85,16.34-.6,32.72,.03,49.08-.27,4.69-.09,7.88,1.62,11.29,4.58,7.03,6.11,14.55,11.65,23.76,18.91-28.64,0-55.39-.22-82.14,.07-22.64,.25-40.6,15.48-45.43,37.78-4.47,20.67,6.94,42.35,27.06,51.56,7.61,3.49,15.6,4.14,23.84,4.13,154.67-.06,309.33-.05,464-.05,3.12,0,6.24-.07,9.35,.04,7.23,.25,12.18,3.92,12.4,11.16,.24,7.89-4.83,11.8-12.59,12.15-1.94,.09-3.9,.03-5.84,.03-156.22,0-312.45,.03-468.67-.03-30.22-.01-53.41-12.64-66.71-40.23Zm414.63,155.65c.76,3.26,6.29,1.42,9.62,1.43,62.73,.1,125.46,.31,188.19-.17,9.61-.07,12.82,2,12.01,11.92-.98,12-.86,24.18-.02,36.2,.61,8.77-1.98,10.83-10.74,10.8-90.78-.36-181.56-.22-272.35-.22-4.68,0-9.35,0-14.03,0-93.9,0-187.8,.08-281.7-.05-29.27-.04-52.51-20.88-54.64-48.35-2.33-30.07,21.31-56.04,52.07-56.71,17.91-.39,35.84-.09,53.77-.09,171.82,0,343.65-.02,515.47,.12,3.89,0,10.14-2.67,11.39,2.12,1.61,6.15,1.23,13.3-.21,19.58-.76,3.32-6.28,1.47-9.6,1.48-63.12,.1-126.24,.03-189.36,.19-3.48,0-9.22-2.53-10.21,2.17-1.32,6.29-1.13,13.32,.33,19.59Zm-79.43-68.63c-96.98,0-193.96-.08-290.94,.04-39.09,.05-70.38,27.42-76.46,66.34-5.37,34.43,16.93,69.34,52,81.61,9.31,3.26,18.85,4,28.61,4,192.41-.05,384.81-.04,577.22-.04,3.12,0,6.24-.08,9.35,.04,7.23,.27,12.16,3.97,12.34,11.21,.2,7.89-4.88,11.77-12.64,12.1-1.94,.08-3.89,.03-5.84,.03-193.57,0-387.15,.04-580.72-.03-44.79-.01-82.77-26.59-96.48-67.11-21.82-64.46,25.39-131.2,93.63-131.47,96.59-.39,193.18-.1,289.78-.11,97.37,0,194.74,0,292.11,.02,3.88,0,7.92-.33,11.61,.59,5.35,1.33,8.63,5.3,8.67,10.99,.05,5.7-3.21,9.7-8.52,11.11-3.67,.97-7.72,.64-11.6,.64-97.37,.03-194.74,.02-292.11,.02Zm-130.6,81.82c51.03,0,102.06,.39,153.08-.31,10.86-.15,9.42,5.41,9.44,12.01,.01,6.64,1.35,12.03-9.46,11.98-102.84-.5-205.68-.5-308.51,0-10.85,.05-9.42-5.4-9.43-12-.01-6.64-1.36-12.13,9.46-11.99,51.8,.69,103.61,.31,155.42,.31Z"/>
</svg>