<?xml version="1.0" encoding="UTF-8"?>
<svg id="Layer_1" data-name="Layer 1" xmlns="http://www.w3.org/2000/svg" viewBox="0 0 800 800">
  <defs>
    <style>
      .cls-1 {
        fill: none;
      }

      .cls-2 {
        fill: #010101;
      }
    </style>
  </defs>
  <rect class="cls-1" width="800" height="800"/>
  <path class="cls-2" d="M754.94,221.78c-14.05-22.69-24.52-47.64-35.91-71.89-4.23-9.01-8.91-18.17-8.53-28.8,.17-4.76,.75-7.33,6.41-8.85,11.89-3.21,17.59-12,17.53-24.43-.05-11.31,.08-22.62-.03-33.93-.17-17.24-8.41-26.75-25.35-26.86-57.7-.37-115.4-.19-173.1-.1-8.04,.01-15.3,2.21-20.64,8.95-7.75,9.78-8.91,60.82,.57,68.38,9.04,7.21,6.74,12.65,2.39,20.06-2.74,4.68-4.64,9.86-7.38,14.54-18.72,31.87-28.2,65.69-21.42,102.8,1.13,6.19-1.88,6.32-6.31,6.32-49.46-.05-98.92-.1-148.38,.07-5.62,.02-8.1-1.84-9.76-7.36-9.52-31.83-35.06-51.73-66.51-52.41-30.77-.67-58.6,19.97-68.33,51.82-2.12,6.93-5.29,8.08-11.49,7.96-17.15-.33-34.31-.23-51.46-.07-16.09,.15-22.81,6.59-23.13,22.58-.32,15.6-.28,31.21,.03,46.8,.11,5.6-1.63,9.35-6.05,12.89-13.38,10.72-26.24,22.08-39.56,32.87-11.94,9.67-17.55,22.23-19.21,37.24-3.13,28.26-4.82,56.86-10.53,84.61-8.05,39.09,1.82,73.06,23.04,105.06,3.31,4.99,7.73,9.06,14.63,5.25,6.84-3.78,7.76-9.42,4.55-15.84-4.35-8.69-9.05-17.21-13.76-25.7-6.78-12.21-10.6-25.17-9.05-39.17,3.64-32.89,9.78-65.68,10.79-98.63,.97-31.6,23.65-43.65,45.05-61.39,0,6.03,0,9.79,0,13.54,0,25.74,.25,51.49-.08,77.23-.27,21.06,6.61,38.7,22.1,53.25,12.5,11.74,24.31,24.21,36.44,36.33,13.47,13.45,25.4,15.87,42.1,9.09,16.38-6.65,22.22-19.37,22.08-36.12-.16-19.11-1.08-38.31,.35-57.32,2.07-27.57,12.61-51.98,32.95-71.37,4.51-4.3,10.09-7.83,16.82-5.42,7.41,2.65,6.73,9.75,7.53,15.78,.4,3.07,.12,6.23,.11,9.35-.09,30.03-.32,60.07-.26,90.1,.05,25.73,.78,51.38,4.8,76.92,3.18,20.22,2.78,40.54-6.26,59.58-9,18.95-18.67,37.59-27.68,56.54-2.18,4.6-4.86,6.05-9.81,6.03-41.71-.18-83.43-.22-125.14,.02-6.23,.03-7.89-2.09-7.96-8.07-.22-19.73-9.95-36.46-17.97-53.66-2.47-5.3-7.48-7.03-12.84-5.2-5.97,2.05-8.53,6.99-6.84,13.05,1.44,5.18,4.05,10.03,6.07,15.06,3.9,9.7,9.04,19,9.59,29.8,.25,5-.09,8.07-6.59,9.8-11.7,3.11-17.66,12.01-17.64,24.45,.03,11.31-.16,22.63,.03,33.93,.3,17.05,8.7,26.63,25.53,26.74,58.09,.39,116.18,.19,174.27,.06,7.18-.02,13.72-2.24,18.71-8.04,8.43-9.79,9.1-62.17-.69-70.33-7.16-5.96-6.84-10.35-2.58-16.94,2.31-3.57,3.79-7.66,5.86-11.4,18.23-32.91,31.93-66.86,24.08-105.69-1.32-6.54,2.36-6.72,7.2-6.71,49.01,.09,98.02,.16,147.03-.07,6.19-.03,8.42,1.87,10.15,7.97,8.73,30.9,34.92,50.67,66.12,50.82,33.38,.16,59.05-18.4,68.51-50.65,2.01-6.86,5-8.28,11.35-8.14,17.15,.37,34.31,.18,51.46,.11,16.23-.06,23.3-6.97,23.73-23.45,.25-9.35,1.12-18.87-.17-28.05-2.77-19.68,2.93-34.37,20.48-44.86,8.25-4.93,14.77-12.67,22.54-18.53,12.94-9.75,19.58-22.58,21.42-38.53,3.39-29.39,6.5-58.84,11.07-88.06,5.12-32.82,.88-62.77-17.04-91.72ZM258.21,751.99c-53.33-.3-106.66-.36-159.99,.04-8.49,.06-10.81-2.64-10.04-10.57,.97-10-4.01-22.86,1.91-29.4,6.08-6.71,19.1-2.02,29.07-2.2,20.24-.37,40.48-.11,60.72-.11,26.08,0,52.17,.26,78.24-.16,7.81-.13,11.53,1.54,10.69,10.19-.72,7.33-.75,14.85,0,22.17,.89,8.7-2.9,10.08-10.61,10.04Zm120.94-218.4c-19.88-.4-39.8-.79-59.65,.12-10.79,.5-13.33-3.77-13.25-13.4,.29-37.84,.12-75.68,.11-113.53,0-5.46,.09-10.93-.03-16.39-.34-15.57-3.82-29.97-19.69-36.7-15.74-6.67-30.04-1.44-41.9,9.4-22.14,20.24-33.33,46.48-38.81,75.45-4.4,23.21-1.68,46.69-2.24,70.04-.16,6.55-.16,12.99-7.61,15.3-6.61,2.04-12.61,1.21-18-4.49-12.59-13.3-25.75-26.08-38.73-39.01-9.01-8.97-13.42-19.62-13.32-32.45,.22-27.7,.07-55.4,.07-83.1,0-28.48,.24-56.96-.16-85.44-.1-7.42,1.58-10.25,9.57-9.97,17.53,.6,35.09,.27,52.64,.15,12.62-.09,19.34-5.62,22.23-17.86,6.27-26.51,23.07-40.89,47.69-40.82,23.77,.08,40.67,14.69,46.85,40.51,3.12,13.03,9.43,18.1,23.11,18.17,17.55,.1,35.1,.32,52.64-.12,6.7-.17,8.84,1.91,8.62,8.57-.44,13.25-.84,26.57,.1,39.77,.72,10.07-2.21,14.35-12.35,17.7-43.88,14.48-61.08,66.85-35.2,105.07,9.47,13.99,22.33,23.85,38.91,27.96,6.27,1.56,8.88,4.11,8.59,11.04-.61,14.8-.69,29.67,0,44.46,.39,8.32-2.98,9.68-10.2,9.53Zm284.78,.04c-17.52-.58-35.07-.19-52.61-.18-18.57,.01-18.62,.07-21.55,18.14-3.45,21.31-17.52,35.57-39.74,40.26-16.75,3.54-37.83-6.34-47.93-22.46-4.21-6.72-6.66-13.94-6.86-21.95-.26-10.09-5.32-14.39-15.66-14.14-19.48,.48-38.98-.18-58.46,.3-7.54,.18-10.15-1.84-9.91-9.74,.57-19.48,.04-38.99,.25-58.49,.11-10.35-3.6-15.49-14.88-16.15-25.34-1.48-45.08-23.22-44.94-48.06,.14-24.49,19.26-45.5,44.2-47.35,11.36-.85,15.91-5.74,15.67-16.94-.39-18.32,.69-36.7-.4-54.97-.66-11,3.26-12.89,13.08-12.5,19.07,.76,38.21,.8,57.28-.02,9.8-.42,12.69,2.69,12.6,12.27-.4,40.94-.22,81.89-.1,122.84,.02,5.81,.47,11.69,1.43,17.42,3.96,23.65,25.79,35.2,47.42,24.63,21.64-10.57,32.67-30.43,41.98-51.25,10.04-22.47,12.82-46.28,11.86-70.72-.44-11.29,.11-22.62-.15-33.92-.14-6.07,1.47-11.14,7.37-13.2,5.53-1.93,11.42-2.74,16.32,2.22,14.79,14.97,29.82,29.7,44.34,44.92,7.62,7.98,9.83,18.21,9.78,29.1-.13,27.69-.04,55.38-.04,83.06,0,28.86-.3,57.72,.2,86.57,.14,8.34-2.48,10.55-10.53,10.29Zm87.33-236.6c-4.92,32.32-8.41,64.87-11.61,97.41-1.32,13.45-6.47,23.49-17.45,31.3-8.17,5.81-15.51,12.79-25.52,21.18,0-30.07-.59-57.28,.17-84.45,.72-25.73-7.04-47.14-26.55-64.47-11.64-10.34-22.41-21.69-33.18-32.95-11.72-12.26-25.52-14.29-40.59-8.57-15.08,5.73-22.41,17.53-22.65,33.49-.27,17.94-.02,35.88-.12,53.82-.14,25.9-9.64,48.57-24.6,69.15-3.15,4.33-7.32,8.23-11.74,11.26-11.85,8.12-20.62,3.87-20.82-10.62-.44-33.14-.2-66.3-.06-99.45,.12-28.11-1.68-56.04-5.77-83.87-3.14-21.34-.08-41.88,9.77-61.27,7.21-14.19,14.37-28.41,21.32-42.72,3.37-6.93,5.46-14.24,15.83-13.96,4.99,.13,7.79-5.2,7.82-10.17,.03-5.1-3.37-8.61-8.06-10.38-1.74-.66-3.85-.38-5.79-.46q-20.05-.81-20.05-21.77,0-20.38,20.02-20.38c49.9,0,99.79,.19,149.69-.18,8.31-.06,12.38,1.39,11.26,10.71-1.21,9.97,4.08,22.84-2.16,29.38-6.28,6.58-19.15,1.98-29.11,2.12-23.77,.34-47.56,.27-71.33,.02-8.5-.09-15.63,2.28-15.37,11.57,.25,8.66,7.46,10.51,15.32,10.43,22.61-.21,45.22,.11,67.83-.18,6.78-.09,10.47,.49,10.41,9.14-.1,14.25,6.23,27.14,11.98,39.91,12.28,27.3,25.6,54.11,40.39,80.14,9.76,17.17,13.78,34.76,10.73,54.8Z"/>
</svg>