<?xml version="1.0" encoding="UTF-8"?>
<svg id="Layer_1" data-name="Layer 1" xmlns="http://www.w3.org/2000/svg" viewBox="0 0 800 800">
  <defs>
    <style>
      .cls-1 {
        fill: none;
      }

      .cls-2 {
        fill: #010101;
      }
    </style>
  </defs>
  <rect class="cls-1" width="800" height="800"/>
  <path class="cls-2" d="M762.73,338.09c-12.11-31.8-51.01-39.37-75.93-14.78-38.03,37.51-75.55,75.53-113.4,113.22-2.2,2.19-3.55,6.26-8.43,5.42,0-31.79-.05-63.43,.01-95.07,.08-42.62,3.14-38.53-37.99-38.55-14.03,0-28.06,0-44.12,0,104.17-56.7,95.64-173.15,44.93-226.75-57.01-60.26-150.52-61.12-208.67-2.93-50.71,50.75-65.13,170.58,42.05,229.68-22.9,0-43.65-.05-64.4,.02-14.06,.05-16.82,2.73-16.9,16.46-.1,15.83-.02,31.65-.02,47.48,0,19.14-.06,20.09-19.36,18.84-15.54-1.01-26.68,3.89-37.26,15.31-20.43,22.04-42.75,42.31-63.32,64.23-8.47,9.02-13.97,9.78-21.62-.13-6.23-8.06-14.15-11.9-23.05-3.02-26.62,26.54-53.17,53.14-79.77,79.7-6.98,6.97-6.61,13.86,.16,20.64,66.03,66.02,132.08,132,198.08,198.05,6.95,6.96,13.61,7.04,20.52,.12,26.57-26.58,53.15-53.15,79.74-79.71,6.93-6.92,6.9-13.72-.17-20.52-2.57-2.47-4.81-5.32-7.6-7.49-5.57-4.34-4.44-7.7,.24-12.14,11.48-10.89,22.86-21.93,33.58-33.55,5.36-5.81,11.04-7.57,18.67-7.53,51.45,.27,102.91-.03,154.36,.3,9.06,.06,15.59-2.69,21.78-9.33,32.64-35.01,65.66-69.68,98.55-104.46,32.35-34.2,64.58-68.52,97.12-102.54,14.15-14.8,19.57-31.7,12.23-50.96Zm-269.69,93.9c-.86-3.97,.66-4.87,4.07-4.84,6.32,.05,12.64,0,18.97,0,27.37,0,28.83,1.9,25.17,29.85-.64,4.9-2.74,5.74-6.85,5.7-11.85-.12-23.71-.04-35.56-.04-3.11,0-6.22,0-10.63,0,3.59-11.29,7.02-20.67,4.84-30.67Zm-189.28-255.55c.33-65.29,53.45-117.47,119.34-117.24,64.53,.22,117.83,53.46,117.96,117.81,.13,65.43-53.77,119.44-119.12,119.38-65.52-.07-118.51-53.85-118.18-119.95Zm8.62,155.48c36.36,.67,72.75,.27,109.12,.27,36.77,0,73.55,.38,110.31-.25,9.86-.17,9.69,4.59,9.36,11.46-.31,6.56,1.66,12.76-9.53,12.68-73.14-.51-146.3-.49-219.44-.04-12.23,.07-7.79-7.77-8.43-13.42-.7-6.19-.9-10.87,8.6-10.69Zm0,47.57c36.8,.4,73.61,.18,110.42,.18,35.62,0,71.25,.34,106.86-.23,9.31-.15,11.81,2.31,11.83,11.66,.01,9.72-2.44,13.33-12.46,12.39-9.42-.88-18.98-.29-28.48-.16-12.19,.17-24.15,.88-34.91-7.36-6.37-4.88-14.88-4.58-22.88-4.57-43.14,.07-86.28,.09-129.42-.09-3.1-.01-7.77,2.43-9.23-2.51-2.06-6.97,.66-9.4,8.27-9.31Zm-9.36,303.77c-17.04,17.09-34.44,33.84-51.02,51.37-6.09,6.44-9.36,6.51-15.69,.13-52.89-53.39-106.18-106.4-159.34-159.53q-17.81-17.8-.17-35.45c13.99-13.99,28.19-27.76,41.87-42.05,4.86-5.08,7.75-5.6,13.05-.26,53.22,53.63,106.71,106.99,160.13,160.42,4.47,4.47,8.99,8.89,13.43,13.39,1.35,1.37,2.5,2.94,4.12,4.87-2.26,2.53-4.22,4.93-6.39,7.11Zm430.36-311.13c-50.87,53.7-101.65,107.48-152.47,161.24-12.77,13.51-25.8,26.79-38.23,40.6-4.91,5.46-9.98,7.6-17.4,7.56-51.84-.33-103.68,0-155.52-.34-8.6-.05-14.97,2.3-20.9,8.56-12.78,13.5-26.35,26.24-39.21,39.67-4.56,4.76-7.43,5.03-12.25,.18-41.79-42.12-83.75-84.06-125.87-125.85-4.42-4.39-4.39-7.04-.05-11.33,24.5-24.16,48.87-48.47,73.02-72.98,3.89-3.94,8.07-4.18,12.88-4.17,30.87,.06,61.73,.03,92.6,.03,30.47,0,60.94-.05,91.41,.02,16.94,.04,28.39,9.62,28.35,23.46-.05,13.91-11.56,23.76-28.27,23.84-24.93,.12-49.86,.13-74.79-.02-8.48-.05-15.54,1.82-15.36,11.91,.18,9.78,7.15,12.04,15.6,12.03,60.94-.05,121.89-.1,182.83,.09,6.66,.02,10.91-2.96,15.29-7.37,46.03-46.28,92.13-92.48,138.37-138.55,14.1-14.05,33.49-10.26,38.63,7.19,2.99,10.15-2.14,17.34-8.67,24.23ZM433.26,142.32c-7.52,0-15.03-.14-22.54,.04-6.88,.17-11.4,3.67-11.77,10.71-.4,7.58,4.08,11.99,11.31,12.56,7.86,.62,15.81,.1,23.72,.29,18.96,.46,33.3,13.14,35.74,31.45,2.25,16.89-9,33.42-26.79,38.13-6.12,1.62-9.57,3.28-8.79,10.65,.85,8.15-3.36,14.41-11.98,14.42-8.77,.01-12.51-6.3-11.56-14.53,.91-7.87-2.56-9.59-9.42-8.89-4.31,.44-8.7,.2-13.04,.03-7.74-.31-13.07-3.83-13.1-12.11-.04-8.42,5.25-11.72,13.17-11.7,13.84,.03,27.69-.09,41.53,.03,8.52,.07,15.74-2.69,15.86-11.99,.12-9.57-7.23-11.74-15.74-11.76-9.05-.02-18.18,1.15-27.17-1.03-16.61-4.02-27.47-17.22-27.81-33.88-.34-16.9,9.57-31.24,26.11-34.93,7.86-1.75,10.39-4.58,9.65-12.31-.7-7.35,3.15-12.35,10.86-12.66,8.2-.33,13.31,4.73,12.53,12.4-1.16,11.41,4.7,11.56,13.19,11.32,17.04-.49,23.68,3.19,22.42,12.02-1.91,13.39-12.7,11.65-22.14,11.69-4.75,.02-9.49,0-14.24,0v.04Z"/>
</svg>