<?xml version="1.0" encoding="UTF-8"?>
<svg id="Layer_1" data-name="Layer 1" xmlns="http://www.w3.org/2000/svg" viewBox="0 0 800 800">
  <defs>
    <style>
      .cls-1 {
        fill: #040404;
      }

      .cls-2 {
        fill: none;
      }
    </style>
  </defs>
  <rect class="cls-2" width="800" height="800"/>
  <path class="cls-1" d="M399.93,709.23c-24.39-.93-48.31-3.51-71.86-9.12-7.68-1.83-14.84-4.73-12.61-14.2,2.25-9.51,10.06-8.87,17.69-7.08,44.71,10.51,89.44,10.5,134.15,0,7.6-1.78,15.44-2.49,17.73,7.01,2.28,9.47-4.89,12.47-12.55,14.27-23.94,5.65-48.23,8.29-72.55,9.1ZM91.51,407.8c1.16,22.62,3.65,45.06,9.42,67.04,1.74,6.63,5.55,11.76,12.85,10.18,7.59-1.63,9.95-7.68,8.38-15.17-.4-1.87-.78-3.75-1.21-5.62-3.72-16.08-6.25-32.32-6.94-48.85-1.19-28.5,.55-56.7,8.1-84.34,1.83-6.7,1.11-12.34-5.82-15.43-5.21-2.32-10.03-.9-13.08,3.82-1.81,2.8-2.7,6.33-3.45,9.66-5.24,23.25-8.02,46.81-8.25,70.65,0,2.68-.12,5.37,.02,8.05ZM325.57,100.35c-5.78,1.42-10,4.26-10.58,10.43-.43,4.59,2.03,8.38,6.14,10.16,4.75,2.06,9.83,.8,14.66-.4,14.13-3.51,28.44-5.69,42.99-6.56,29.57-1.76,58.83-.41,87.71,6.94,7.55,1.92,16.36,2.96,18.6-7.47,2.07-9.64-5.54-12.11-13.05-13.84-23.55-5.42-47.38-8.46-71.56-8.63-25.34,.17-50.29,3.34-74.91,9.38Zm375,227.9c-1.71-7.48-4.25-15.18-13.92-13.23-10.48,2.12-9.45,10.5-7.55,18.41,4.14,17.22,6.75,34.63,7.46,52.36,1.11,27.8-.97,55.25-7.89,82.27-1.92,7.5-.93,14.62,7.46,16.77,8.79,2.25,12.05-4.39,13.94-11.63,.19-.74,.44-1.47,.61-2.22,5.29-23.69,8.13-47.67,8.52-71.95-.58-23.88-3.28-47.49-8.62-70.78Zm68.43,309.56c-.28,72.24-59.39,131.25-131.35,131.14-72.39-.11-131.82-60-131.43-132.45,.38-71.82,59.98-130.64,132.17-130.45,72.01,.19,130.9,59.6,130.62,131.76Zm-58.73,66.65c-16.77-26.54-41.15-36.52-69.86-34.31-7.03,0-12.41-.24-17.76,.04-25.76,1.34-44.82,13.65-58.15,35.54-3.78,6.2-3.57,10.33,2.48,15.44,40,33.77,98.89,34.3,139.88,1.32,7.08-5.7,8.32-10.28,3.41-18.04Zm-72.35-56.49c18.07-.11,32.76-14.68,32.99-32.72,.24-18.9-14.07-33.14-33.28-33.12-18.74,.02-32.73,13.75-32.9,32.28-.17,18.79,14.56,33.68,33.19,33.56Zm72.34-92.46c-42.91-37.83-107.24-36.23-148.56,3.27-41.94,40.1-40.54,103.47-15.85,135.38,9.96-16.22,22.78-29.41,40.15-36.69,8.77-3.67,10.23-5.91,4.8-14.7-12.49-20.22-11.09-41.1,2.62-60.53,12.72-18.04,35.53-26.05,56.97-20.87,37.53,9.06,53.87,50.4,33.29,83.85-1.64,2.67-8.17,6.17-.08,9.36,19.62,7.72,34.51,21.12,46.17,39.71,29.8-39.76,20.37-103.63-19.5-138.78ZM294.28,162.3c-.14,72.31-60.18,132.05-132.38,131.72-71.59-.33-130.74-60.37-130.39-132.35,.36-72.51,58.95-130.61,131.58-130.48,72.42,.13,131.33,59.01,131.19,131.11Zm-60.18,65.06c-17.22-25.63-41.64-34.73-69.36-32.51-6.6,0-11.2-.15-15.8,.03-25.25,.97-44.33,12.53-58.17,33.52-5.04,7.63-4.9,12.84,2.98,19.11,40.01,31.87,96.88,32.08,137.28,.59,8.72-6.79,8.74-12.29,3.08-20.73Zm-71.26-54.66c18.3-.04,32.71-14.35,32.92-32.68,.21-18.78-14.54-33.74-33.17-33.64-18.52,.1-33.32,15.32-32.99,33.91,.32,18.11,15.04,32.46,33.24,32.42Zm74.46-90.61c-42.88-39.71-109.02-39-151.02,1.89-43.31,42.17-39.09,105.28-15.45,134.74,10.25-15.83,22.84-29.34,40.34-36.55,8.99-3.71,9.93-6.14,4.57-14.64-16.44-26.1-6.96-60.58,19.71-75.78,27.19-15.49,61.52-5.53,75.98,22.4,10.07,19.45,8.3,38.44-3.34,56.81-1.54,2.44-7.35,5.37,.23,8.29,19.94,7.71,35,21.5,46.43,39.65,24.93-32.61,26.09-96.49-17.45-136.81Zm56.98,556.99c-.97,61.35-46.23,116.06-105.42,127.43-70.51,13.55-136.95-29.71-154.35-100.48-16.13-65.59,24.88-134.82,91.72-154.75,7.19-2.14,15.31-4.28,18.68,4.96,3.54,9.69-3.07,13.47-11.51,15.91-48.5,14.02-80.4,56.16-80.09,105.81,.12,19.9,5.08,38.53,16.91,57.07,12.15-19.14,26.9-32.72,46.59-40.33,7.95-3.07,1.89-6.54,.15-9.35-20.99-33.95-4.37-75.34,34.11-84.09,22.99-5.23,41.99,2.53,55.77,20.91,14.25,19,15.32,40.11,2.97,60.45-5.11,8.42-4.68,11.03,4.56,14.82,17.47,7.17,30.27,20.48,40.87,37.69,16.04-25.55,20.74-51.94,14.52-79.47-10.01-44.33-37.46-72.77-81.75-84.45-7.33-1.93-14.94-4.6-12.55-14.41,2.36-9.69,10.03-8.85,17.65-7.12,58.93,13.43,102.13,68.67,101.17,129.41Zm-164.69-24.44c-.05,18.13,14.28,32.87,32.37,33.31,18.64,.45,33.64-14.15,33.81-32.92,.17-18.51-13.76-32.71-32.29-32.9-19.38-.2-33.84,13.67-33.89,32.5Zm107.03,92.16c-14.84-25-36.53-36.15-65.57-37.01-33.75-1-63.51,4.22-81.88,36.63-3.4,6-2.88,9.99,2.69,14.53,20.67,16.87,44.17,25.59,71.05,26.22,26.28-.57,49.86-9.13,70.53-26.01,5.26-4.29,6.97-8,3.19-14.36ZM765.64,192.03c-15.95,62.16-70.06,103.89-132.28,101.97-73.47-2.26-133.5-69.34-126.73-141.6,7.24-77.33,75.86-132.11,150.99-119.59,53.73,8.95,88.84,40.42,105.92,92.11,2.65,8.02,3.37,16.16-6.48,18.87-9.49,2.61-11.95-5.19-14.41-12.53-15.76-47.13-48.78-74.41-97.93-77.95-45.23-3.26-80.7,16.8-102.81,56.67-19.98,36.03-17.85,72.57,2.96,110.53,12.48-20.08,27.48-33.42,47.01-41.13,8.44-3.33,1.6-6.54,.03-9.09-16.09-26.28-10.69-57.48,13.23-75,21.33-15.63,50.39-14.03,69.89,3.85,19.46,17.85,23.8,46.81,9.25,69.25-4.82,7.43-4.86,9.75,3.82,13.25,16.75,6.76,24.65,14.68,42.32,37.46,7.58-9.75,11.26-20.84,13.79-32.34,1.84-8.35,4.82-15.47,15.05-12.64,9.66,2.67,8.32,10.39,6.39,17.9Zm-160.92-52.5c-.04,18.82,14.79,33.47,33.57,33.16,18.66-.31,33.09-15.44,32.6-34.18-.47-17.91-15.61-32.36-33.63-32.11-18.21,.26-32.49,14.8-32.53,33.14Zm100.95,82.61c-24.44-37.49-110.76-37.07-134.18-1.72-2.54,3.83-5.09,7.64-7.69,11.43-3.74,5.45-2.47,9.4,2.66,13.56,20.97,17.01,44.46,26.67,71.76,26.03,23.45,.51,44.36-6.97,63.32-20.37,15.32-10.83,14.6-12.87,4.12-28.94Zm-171.45,242.53c-6.14,10.62-12.05,21.39-18.43,31.86-8.15,13.38-19.61,16.34-33.33,8.96-4.39-2.36-8.56-5.12-12.94-7.49-8.95-4.84-18.36,.75-18.8,11.07-1.6,37.54-3.17,39.04-40.84,39.04-11.89,0-23.79,.11-35.68-.03-14.95-.18-23.47-8.3-24.33-23.18-.31-5.36,.07-10.75-.14-16.12-.4-10.28-9.86-15.52-19.01-10.63-32.61,17.42-35.46,16.6-54.27-15.79-5.78-9.95-11.58-19.88-17.19-29.93-8-14.35-5.04-25.77,8.78-34.26,3.92-2.41,8.03-4.5,11.96-6.88,9.47-5.72,9.66-16.88,.37-22.56-4.58-2.8-9.39-5.22-13.88-8.13-11.25-7.31-14.91-19.37-8.6-30.92,8.82-16.15,18.07-32.08,27.66-47.79,7.27-11.89,18.22-14.62,30.69-8.41,5.14,2.56,10,5.66,15.09,8.32,8.5,4.43,17.8-.93,18.43-10.52,.03-.38,.03-.77,0-1.15-2.44-31.12,5.22-40.62,40.26-38.54,12.23,.72,24.55-.08,36.82,.18,15,.32,23.11,8.48,23.82,23.66,.25,5.36-.18,10.76,.12,16.12,.53,9.55,10.02,14.64,18.64,10.18,.34-.18,.72-.29,1.03-.51,26.49-18.38,38.35-14.14,52.9,14.7,5.35,10.6,11.69,20.7,17.8,30.9,2.65,4.41,4.28,8.96,4.15,15.18,.52,13.24-10.41,18.24-20.39,24.07-5.37,3.14-11.98,4.74-11.24,13.73,.46,5.68,2.19,8.82,7.01,11.7,30.37,18.19,31.34,22.38,13.54,53.17Zm-26.68-35.78c-22.66-13.39-22.55-44.9,.22-58.2,2.98-1.74,5.84-3.79,9.01-5.07,6.94-2.79,6.65-6.55,3.07-12.26-6.91-11.05-13.47-22.35-19.58-33.85-3.19-5.99-6.25-8.24-12.1-3.35-2.03,1.69-4.62,2.7-6.95,4.03-25.8,14.67-52.36-.62-52.44-30.19,0-2.3-.31-4.66,.05-6.9,1.39-8.48-2.64-10.39-10.32-9.88-9.17,.61-18.41,.14-27.61,.14q-18.99,0-19.17,19.24c-.25,26.3-27.62,41.75-50.74,28.62-4.66-2.65-9.29-5.36-13.66-7.88-4.11-.81-4.62,2.42-5.88,4.58-6.58,11.26-12.61,22.88-19.81,33.72-5.11,7.68-3.93,12.06,4.4,15.22,1.77,.67,3.32,1.9,4.97,2.87,25.45,14.89,25.29,45.59-.32,60.55-2.32,1.35-4.5,3.06-6.98,3.98-7.29,2.69-6.39,6.62-2.94,12.18,6.87,11.08,13.43,22.37,19.56,33.87,3.2,6.01,6.39,7.91,12.11,3.24,2.05-1.68,4.61-2.73,6.94-4.06,25.72-14.71,52.3,.78,52.35,30.51,0,3.07,.27,6.17-.05,9.21-.67,6.25,2.21,7.93,8.04,7.73,10.35-.36,20.71-.1,31.07-.1q17.91,0,17.98-18.35c.11-27.36,26.86-43.17,50.61-29.9,3.34,1.87,6.82,3.57,9.94,5.75,4.37,3.05,7.08,2.81,9.78-2.38,4.77-9.18,10.29-17.97,15.46-26.93q9.45-16.37-7.02-26.1Zm-47.69-28.72c-.14,32.59-26.89,59.47-59.34,59.62-32.88,.16-59.99-27.12-59.88-60.24,.11-33.23,27.03-59.64,60.51-59.35,32.6,.28,58.86,27.1,58.71,59.97Zm-21.87-.49c-.06-21.12-17.17-37.96-38.19-37.61-20.79,.35-37.08,16.67-37.29,37.37-.22,21.22,16.36,37.97,37.62,38.03,21.28,.06,37.92-16.55,37.85-37.79Z"/>
</svg>