<?xml version="1.0" encoding="UTF-8"?>
<svg id="Layer_1" data-name="Layer 1" xmlns="http://www.w3.org/2000/svg" viewBox="0 0 800 800">
  <defs>
    <style>
      .cls-1 {
        fill: #020202;
      }

      .cls-2 {
        fill: none;
      }
    </style>
  </defs>
  <rect class="cls-2" width="800" height="800"/>
  <path class="cls-1" d="M459.12,128.49c-19.15-21.89-36.15-41.36-53.2-60.79-2.52-2.87-4.52-7.54-9.28-2.01-17.57,20.4-35.33,40.64-54.15,62.25,5.04,.25,8.17,.5,11.3,.54,19.72,.2,22.23,2.77,22.43,23.01,.2,19.71,.35,39.43,.7,59.14,.15,8.69-1.66,16.16-12,16.48-10.37,.32-12.84-7.1-12.96-15.74-.23-15.6-.99-31.24-.26-46.81,.45-9.64-2.95-12.2-11.9-11.32-7.32,.72-14.77,.07-22.16,.17-6.02,.08-11.69-.54-14.48-6.91-2.89-6.6-.04-11.75,4.31-16.69,24.42-27.73,48.7-55.59,73.09-83.35,19.84-22.58,20.35-22.51,40.47,.54,23.76,27.22,47.59,54.38,71.37,81.59,4.33,4.95,9.22,9.69,5.8,17.34-3.37,7.53-9.92,7.54-16.64,7.47-7.39-.07-14.84,.55-22.16-.17-8.05-.79-9.58,2.61-9.35,9.82,.51,16,.12,32.03,.27,48.05,.08,8.85-2.41,15.93-12.59,15.99-10.46,.06-12.37-7.37-12.33-16.08,.09-21.36-.06-42.71-.01-64.07,.03-14.7,3.52-18.24,17.87-18.44,4.37-.06,8.75,0,15.88,0Zm309.57,494.65c-4.37,27.01-29.02,47.56-56.47,48.04-35.35,.62-70.72,.3-106.08-.01-6.46-.06-12.9-2.05-20.31-3.31,0,16.71,.11,33.52-.02,50.32-.3,38.29-24.88,58.91-62.29,50.27-37.09-8.57-73.77-19.02-110.46-29.22-8.61-2.39-16.3-2.48-24.91-.04-33.89,9.58-67.95,18.53-101.98,27.6-7.54,2.01-15.19,3.37-23.1,3.33-28.33-.15-46.51-17.28-47.27-45.6-.5-18.83-.1-37.69-.1-55.82-44.3,5.24-87.89,3.19-131.3,1.94-27.98-.81-51.11-26.13-53.49-54.19-4.13-48.78,8.62-90.52,51.99-118.35,6.58-4.22,3.71-7.67,1.97-12.09-14.94-37.98,6.14-77.13,45.81-84.71,23.04-4.41,42.45,3.18,57.42,20.51,15.37,17.78,20.13,38.94,10.99,60.86-4.24,10.17-1.92,14.18,6.41,19.11,9.22,5.44,16.79,13.24,23.11,21.96,3.52,4.85,5.65,4.75,8.46-.55,18.87-35.62,46.48-62.31,82.75-79.86,5.75-2.78,4.43-5.04,1.46-9.04-14.28-19.18-19.82-40.91-19.44-64.73,.53-33.3,.23-66.61,.11-99.92-.17-48.08-31.39-79.12-79.67-79.29-24.26-.08-48.52,0-72.78-.02-18.25-.01-20.12-1.96-20.19-20.73-.01-3.28,0-6.57,0-9.71-3.92-2.39-5.44,1.04-7.35,2.69-18.02,15.61-35.95,31.32-53.87,47.04-2.92,2.56-7.5,4.66-2.03,9.39,20.37,17.62,40.6,35.4,63.25,55.19,0-8.56,.07-14.11-.02-19.65-.17-10.36,5.24-15,15.21-15.01,19.74-.01,39.49-.47,59.21,.16,27.36,.88,48.53,21.5,48.83,48.84,.62,56.74,.21,113.49,.22,170.23,0,8.42-3.03,14.9-12.41,15.05-10.49,.17-12.47-7.06-12.46-15.88,.1-53.45,.06-106.91,.04-160.36,0-25.09-8.15-33.2-33.27-33.24-10.28-.02-20.58,.44-30.83-.15-7.3-.42-10.53,1.32-9.86,9.35,.71,8.58,.09,17.26,.17,25.89,.06,5.84-1.91,10.61-7.37,13.09-5.39,2.45-10.42,1.15-14.84-2.72-31.86-27.88-63.8-55.66-95.52-83.71-8.3-7.34-8.22-14.51,.2-21.95,31.41-27.77,63.04-55.3,94.61-82.89,4.15-3.62,8.55-6.44,14.49-3.94,6.15,2.59,8.41,7.42,8.42,13.71,0,.82,0,1.65,0,2.47,.23,10.21-3.53,24.28,1.68,29.67,6.75,6.98,20.88,1.84,31.82,2.31,23.69,1.02,47.7-2.7,70.92,5.17,40.39,13.69,67.38,50.39,68.17,93.18,.26,14.27,.04,28.55,.04,45.17,47.71-42.51,84.37-42.6,147.95-1.43,0-14.14-.04-27.53,0-40.92,.19-58.18,42.9-100.83,101.3-101.09,20.15-.09,40.31-.4,60.44,.17,8.28,.23,11.98-1.57,11.08-10.63-.81-8.14-.1-16.43-.17-24.65-.05-5.82,1.83-10.32,7.44-12.96,5.32-2.51,9.8-.64,13.62,2.69,32.56,28.34,65.1,56.69,97.4,85.32,7.23,6.41,6.54,13.78-.69,20.14-31.79,27.96-63.65,55.85-95.5,83.73-4.66,4.08-9.88,5.88-15.86,2.97-5.71-2.78-6.5-7.91-6.43-13.54,.1-8.63-.27-17.28,.12-25.9,.29-6.17-1.38-8.91-8.18-8.67-13.14,.47-26.32-.14-39.47,.22-17,.46-26.23,10.03-26.28,27.38-.14,49.75-.04,99.51-.07,149.26,0,3.68,.23,7.51-.64,11.02-1.55,6.28-5.93,9.84-12.59,9.48-6.64-.36-10.74-4.12-11.29-10.78-.47-5.72-.21-11.5-.21-17.26,0-46.88-.07-93.75,.02-140.63,.06-32.74,20.28-53.09,52.89-53.34,16.86-.13,33.72-.07,50.57-.01,16.38,.06,19.84,3.65,19.95,20.5,.02,3.68,0,7.36,0,13.65,17.19-14.95,32.85-28.41,48.35-42.06q18.78-16.53,.06-32.86c-15.41-13.43-30.82-26.87-48.41-42.21,0,7.41-.09,12.49,.02,17.58,.25,11.31-5.04,16.41-16.5,16.28-25.49-.29-50.99-.14-76.48-.08-49.3,.12-79.61,30.58-79.69,80.06-.05,32.89-.22,65.79,.06,98.68,.2,23.71-5.23,45.53-19.48,64.78-2.54,3.43-5.51,6.24,.83,9.29,38.36,18.46,66.54,47.45,86.72,86.16,10.25-13.21,21.03-24.42,34.67-32.28,6.78-3.91,1.62-8,.29-11.42-12.9-33.09,1.89-67.98,34.75-81.24,31.01-12.52,66.04,2.64,79.33,34.47,6.48,15.52,6.62,31.25-.29,46.6-2.75,6.09-3.11,9.36,3.41,13.82,44.1,30.12,57.09,73.27,48.91,123.91ZM104.84,461.59c-.14,20.45,16.08,36.9,36.44,36.96,20.2,.06,37.16-16.54,37.28-36.48,.12-19.68-16.97-36.99-36.8-37.27-19.89-.28-36.78,16.55-36.92,36.79Zm103.73,76.83c-6.65-8.51-14.85-15.23-24.05-20.89-5.27-3.24-9.45-3.87-15.6-.69-16.91,8.77-35.11,9.91-52.09,1.07-9.46-4.93-15.68-2.63-23.16,2.58-35.87,25.01-42.66,61.85-36.57,99.04,2.66,16.24,16.86,26.48,33.86,26.91,16.84,.43,33.7,.09,50.55,.09,16.85,0,33.79,1.05,50.53-.29,18-1.43,25.57-4.84,23.79-24.37-1.38-15.15-1.62-30.95,2.91-45.3,5.03-15.98-1.4-26.93-10.17-38.16Zm118.26-162.83c0,40.93,32.32,73.42,73.2,73.61,41.24,.19,74.69-32.87,74.61-73.74-.08-40.01-33.45-73.63-73.55-74.08-40.62-.45-74.27,33.18-74.27,74.21Zm233.74,229.2c-3.45-66.56-36.67-114.12-97.15-142.45-5.39-2.52-10.02-3.39-16.09-.2-31.28,16.42-62.9,16.26-94.22-.18-4.36-2.29-7.96-2.93-12.66-.87-54,23.71-88.43,63.95-97.26,122.38-7.07,46.79-2.09,94.35-2.32,141.57-.07,14.05,8.15,20.48,22.48,20.12,5.27-.13,10.65-1.02,15.75-2.39,70.4-18.89,140.77-37.87,211.11-56.95,16.06-4.36,24.23-17.09,20.49-31.12-3.98-14.95-16.04-22.39-32.14-18.43-41.33,10.17-82.53,20.89-123.78,31.41-20.23,5.16-40.42,10.48-60.69,15.49-5.93,1.47-11.59,.68-15.01-5.35-2.99-5.27-2.97-12.21,1.83-14.45,11.13-5.2,8.67-14.15,8.73-22.74,.06-9.45,.16-18.91-.02-28.36-.15-8.2,3.31-14.25,11.55-14.59,8.86-.36,13.15,5.67,13.25,14.37,.12,9.86,.28,19.73-.04,29.59-.23,7.24-.4,10.81,9.65,8.14,52.24-13.87,104.77-26.68,157.26-39.62,3.58-.88,5.48-2,7.01-5.46,2.36-5.32,7.01-8.17,13.02-6.89,6.35,1.36,10.07,5.81,10.25,12.2,.14,4.94,1.78,8.1,5.64,11.34,16.18,13.59,22.55,30.84,17.21,51.69-5.21,20.31-19.1,31.87-38.66,37.33-13.97,3.9-28.03,7.49-42.05,11.22,27.83,9.48,54.8,20.24,83.56,23.37,15.82,1.72,23.5-6.87,23.63-24.32,.29-38.63,1.65-77.34-.35-115.87Zm62.3-143.27c-.18,20.49,15.93,36.89,36.36,37.03,20.29,.13,37.19-16.29,37.41-36.35,.22-19.61-16.92-37.06-36.73-37.4-19.86-.33-36.87,16.53-37.04,36.72Zm79.1,55.68c-5.11-2.95-8.96-3.49-14.5-.52-15.63,8.39-33.34,10.85-48.64,2.72-15.21-8.08-24.37-1.8-34.53,6.81-9.2,7.79-16.44,17.12-21.83,27.97-2.1,4.23-3.15,8.17-1.92,12.93,4.68,18.03,6.31,36.51,5.07,54.97-1.25,18.53,2.8,22.64,24.9,24.26,16.36,1.2,32.87,.24,49.31,.24,15.62,0,31.24,0,46.86,0,.82,0,1.65,0,2.47-.03,17.27-.68,31.27-10.2,34.65-26.11,8.42-39.67-4.06-81.43-41.85-103.25Zm-214.67,43.09c7.27-.22,11.55-4.43,11.92-11.42,.37-6.96-3.56-12.43-10.53-12.82-13.44-.76-26.98-.74-40.44-.08-7.02,.35-10.72,5.52-10.48,12.71,.24,7.28,4.17,11.35,11.51,11.6,6.13,.21,12.26,.04,18.4,.05,6.54,0,13.09,.17,19.62-.04Z"/>
</svg>