<?xml version="1.0" encoding="UTF-8"?>
<svg id="Layer_1" data-name="Layer 1" xmlns="http://www.w3.org/2000/svg" viewBox="0 0 800 800">
  <defs>
    <style>
      .cls-1 {
        fill: #010201;
      }

      .cls-2 {
        fill: none;
      }
    </style>
  </defs>
  <rect class="cls-2" width="800" height="800"/>
  <path class="cls-1" d="M176.83,427.86c-10.12,20.25-19.84,39.13-28.99,58.27-3.96,8.29-9.19,12.63-18.89,13.66-20.99,2.23-41.83,5.95-60.53,8.73,13.14,14.24,26.35,29.83,40.99,43.95,8.49,8.19,10.67,16.02,8.18,27.33-4.23,19.16-6.86,38.68-10.55,60.29,19.13-9.88,37.16-18.23,54.15-28.31,11.29-6.7,20.44-6.3,31.58,.2,17.67,10.32,36.22,19.13,54.45,28.49,8.06,4.14,13.34,10.09,8.38,19.03-4.67,8.4-12.23,7.04-19.77,3.01-16.74-8.94-33.81-17.27-50.32-26.6-6.48-3.67-11.38-3.25-17.62,.2-16.6,9.17-33.62,17.58-50.38,26.46-9.05,4.79-17.98,6.24-26.81-.12-8.96-6.46-9.79-15.74-8.16-25.62,3.16-19.05,5.96-38.18,9.98-57.06,1.37-6.43-.57-9.78-4.74-13.72-14.38-13.59-28.44-27.52-42.73-41.2-7.18-6.88-10.55-14.7-7.13-24.56,3.39-9.77,10.75-14.06,20.6-15.38,20.34-2.74,40.6-6.08,60.99-8.41,5.78-.66,7.57-3.9,9.62-8.02,8.78-17.64,17.69-35.22,26.42-52.88,4.31-8.72,10.08-14.96,20.7-15.21,11.17-.27,17.43,6.12,21.94,15.18,8.79,17.65,17.67,35.25,26.21,53.01,2.36,4.91,5.12,7.27,10.95,7.95,20,2.32,39.88,5.58,59.83,8.4,8.77,1.24,14.86,5.64,13.07,14.96-1.6,8.32-8.08,10.92-16.57,9.59-22.51-3.55-45.02-7.21-67.65-9.75-9.25-1.04-14.29-5.23-18.07-13.08-9.2-19.11-18.81-38.03-29.12-58.78Zm460.93,181.08c-6.64-3.56-12.54-3.9-19.32-.29-20.43,10.89-41.09,21.34-61.62,32.03-7.49,3.9-12.59,9.51-8.08,18.25,4.54,8.8,11.88,7.72,19.46,3.75,17.48-9.16,35.17-17.94,52.45-27.46,5.36-2.95,9.35-2.71,14.5,.09,17,9.25,34.32,17.91,51.38,27.04,9.43,5.04,18.64,6.63,27.76-.26,8.85-6.69,9.2-16.08,7.59-25.86-3.08-18.69-5.74-37.47-9.76-55.96-1.5-6.9,.64-10.46,5.12-14.67,14.69-13.82,29.15-27.9,43.54-42.02,6.45-6.33,8.89-13.96,5.98-22.87-3.04-9.32-9.76-14.23-19.16-15.63-20.31-3.01-40.6-6.17-60.98-8.56-5.69-.67-8.64-2.66-11.05-7.68-8.54-17.76-17.65-35.25-26.33-52.95-4.49-9.17-10.48-15.59-21.64-15.57-11.25,.02-17.08,6.89-21.53,15.85-8.77,17.67-17.63,35.29-26.19,53.06-2.21,4.58-5,6.59-10.27,7.23-20.37,2.46-40.68,5.54-60.98,8.54-8.21,1.21-13.93,5.79-12.36,14.49,1.52,8.41,7.91,11.14,16.4,9.84,22.53-3.46,45.05-7.12,67.69-9.66,9.16-1.03,14.4-4.96,18.21-12.9,9.28-19.33,19.02-38.44,29.15-58.81,10.25,20.41,20.17,39.61,29.53,59.08,3.63,7.56,8.37,11.56,17.14,12.57,21.32,2.46,42.5,6.04,61.74,8.88-13.45,14.56-26.69,30.14-41.34,44.26-8.21,7.91-10.34,15.59-8.09,26.35,4.08,19.57,7.08,39.36,10.87,61-21.03-10.92-40.53-20.84-59.81-31.17Zm-16.06-357.51c-.05,93.42-59.18,177.68-143.43,206.91-8.9,3.09-16.09,3.17-19.48-6.6-3.35-9.67,3.77-13.86,11.23-16.56,16.91-6.11,32.37-14.81,46.94-25.21,3.36-2.4,6.38-4.56,6.93-9.62,3.92-36.61-17.1-74.69-50.4-91.18-5.25-2.6-9.26-2.77-14.58,.31-37.72,21.87-75.7,21.8-113.42-.08-4.8-2.78-8.46-2.99-13.54-.59-33.63,15.9-55.73,55.46-51.21,91.76,.63,5.05,3.87,7.08,7.17,9.48,14.19,10.3,29.4,18.72,45.89,24.78,7.96,2.92,15.53,6.99,12.09,17.04-3.62,10.59-11.91,9.61-20.66,6.05-78.91-32.12-127.59-89.84-139.6-174.06-17.19-120.53,60.42-226.9,181.03-247.72,112.02-19.34,217.82,49.93,247.75,159.92,5.09,18.7,8.2,37.82,7.3,55.36Zm-134.41-34.77c.25-47.07-37.14-85.37-83.72-85.76-47.69-.4-85.98,37.02-86.28,84.33-.3,47.37,37.65,85.77,84.88,85.86,46.78,.09,84.87-37.69,85.12-84.43Zm52.05-102.84c-76.3-75.35-199.13-74.9-274.97,.89-76.29,76.23-72.14,196.2-8.93,264.5,.56-1.55,1.1-2.83,1.48-4.17,.52-1.82,1-3.66,1.34-5.52,5.96-32.34,22.84-57.71,50.24-75.48,8.16-5.29,9.49-7.66,3.53-16.36-45.11-65.85-6.79-157.88,70.4-169.76,47.49-7.31,85.54,8.93,112.09,48.91,25.27,38.05,23.39,85.01-3.97,123.81-4.58,6.5-2.89,8.03,2.77,11.49,24.63,15.07,41.1,36.81,49.95,64.19,2.38,7.38,3.67,15.1,5.6,23.24,64.06-69.69,67.26-189.89-9.54-265.74Zm-36.14,543.84c4.18,23.5,8.26,47.02,12.53,70.5,2.12,11.7,2.75,22.92-8.21,31.02-10.78,7.97-21.29,5.01-31.97-.71-21.08-11.28-42.49-21.94-63.41-33.51-7.15-3.96-12.76-3.65-19.75,.16-22.65,12.33-45.48,24.38-68.55,35.9-18.29,9.13-36.61-2.87-35.96-25.8,3.87-22.23,7.8-47.32,12.79-72.2,2-9.98,.39-16.88-7.55-23.94-17.61-15.69-34.07-32.66-51.25-48.83-8.54-8.04-12.52-17.33-8.62-28.62,3.94-11.43,13.24-15.5,24.71-17,25.24-3.3,50.36-7.53,75.61-10.76,5.78-.74,8.53-3.11,10.92-8,11.14-22.82,22.82-45.37,33.89-68.23,5.06-10.46,12.41-17.83,24.24-17.74,11.84,.09,19.03,7.71,24.03,18.11,10.84,22.53,22.24,44.79,33.16,67.28,2.52,5.18,5.39,7.88,11.7,8.66,26.02,3.2,51.93,7.29,77.89,11.03,10.57,1.53,18.6,6.4,22.21,16.96,3.61,10.56,.4,19.43-7.29,26.88-18.58,18.02-37.1,36.11-56.05,53.73-4.86,4.52-6.12,9.14-5.06,15.12Zm12.66-56.4c10.13-10.09,19.94-20.52,30.32-31.24-3.16-.72-5.99-1.57-8.88-1.99-25.93-3.78-51.81-7.94-77.83-10.97-9.3-1.08-14.1-5.51-17.87-13.3-10.88-22.49-22.11-44.81-33.33-67.13-1.72-3.43-2.53-7.68-6.8-10.08-13.12,26.25-26.08,51.92-38.75,77.73-3.62,7.37-8.22,11.74-17.06,12.7-20.01,2.15-39.9,5.37-59.82,8.31-9.08,1.34-18.11,3.05-23.78,4.01,14.52,15.97,28.4,33.87,45,48.73,15.78,14.12,25.85,28.13,17.51,49.79-.8,2.09-.92,4.44-1.31,6.68-3.6,20.87-7.2,41.73-11.21,65.02,27.56-14.27,53-26.92,77.88-40.6,9.16-5.04,16.45-4.61,25.38,.23,24.94,13.53,50.31,26.24,76.85,39.97-.8-5.99-1.25-10.48-2.01-14.92-4.16-24.26-8.23-48.54-12.71-72.75-1.55-8.39,.8-14.52,7.11-20.19,10.75-9.66,21.08-19.81,31.33-30.01Zm-135.33,.14c5.85-.89,10.21-3.95,12.93-9.82,5.73-12.37,12.1-24.44,18.26-36.61,3.91-7.73,4.28-15.15-4.31-19.54-9.13-4.67-15.35,1.17-17.63,8.89-7.82,26.58-24.91,39.38-52.58,38.61-9.2-.26-14.67,4.66-13.6,14.01,1.08,9.4,8.17,10.83,16.25,9.9,13.56-1.78,27.15-3.39,40.67-5.44Z"/>
</svg>