<?xml version="1.0" encoding="UTF-8"?>
<svg id="Layer_1" data-name="Layer 1" xmlns="http://www.w3.org/2000/svg" viewBox="0 0 800 800">
  <defs>
    <style>
      .cls-1 {
        fill: #020202;
      }

      .cls-2 {
        fill: none;
      }
    </style>
  </defs>
  <rect class="cls-2" width="800" height="800"/>
  <path class="cls-1" d="M776.2,658.56c-3.45-24.89-22.97-46.68-47.47-49.94-9.84-1.31-12.22-5.02-12.02-14.3,.57-26.38,.38-52.78,.13-79.17-.13-14.04-4.16-17.69-18.08-17.95-2.09-.04-4.23-.27-6.28,.04-9.44,1.43-13.04-1.54-12.72-11.96,.82-26.37,.32-52.78,.25-79.17-.04-14.66-3.94-18.73-18.4-18.77-32.27-.11-64.54-.1-96.81,0-14.76,.04-18.52,3.83-18.58,18.56-.1,26.39-.54,52.8,.23,79.17,.3,10.35-3.18,12.86-12.82,12.33-13.79-.77-27.65-.25-41.48-.18-16.5,.09-18.52,2.18-18.55,19.11-.04,25.14-.8,50.31,.32,75.39,.56,12.56-3.45,14.84-15.23,14.8-122.37-.46-244.74-.32-367.11-.26-34.92,.02-59.21,16.48-66.33,45.94-4.36,18.03-4.35,36.69-.04,54.7,7.11,29.66,30.22,45.55,64.79,45.58,103.09,.1,206.19,.03,309.28,.04,43.17,0,86.33,0,129.5,0,61.19,0,122.38-.48,183.55,.18,34.47,.37,56.08-20.63,62.42-44.25,4.34-16.16,3.75-33.09,1.42-49.88Zm-92.33-137.14c6.53-.08,8.67,2.07,8.57,8.65-.34,22.59-.35,45.19,0,67.78,.1,6.68-2.17,8.74-8.65,8.49-11.28-.42-22.6-.12-33.9-.12-11.3,0-22.61-.24-33.9,.1-5.91,.17-9.13-.64-9-7.92,.44-23,.34-46.02,.04-69.03-.08-5.95,1.66-8.04,7.77-7.96,23.02,.29,46.04,.29,69.06,0Zm-113.55-101.32c-.07-6.04,2.03-7.95,8.02-7.87,23.04,.28,46.09,.32,69.14-.03,6.22-.09,7.84,2.06,7.64,7.9-.38,11.3-.11,22.62-.11,36.51-1.23,11.47,6.15,30.28-2.74,38.26-7.76,6.97-26.24,2.11-39.98,2.29-10.89,.15-21.8-.2-32.68,.12-5.99,.18-9.38-.98-9.29-8.07,.29-23.03,.26-46.08,0-69.11Zm-65.29,101.34c23.41,.21,46.83,.21,70.24,0,5.51-.05,7.21,1.98,7.16,7.31-.2,23.41-.18,46.81,0,70.22,.04,5.16-1.27,7.43-6.99,7.37-23.41-.27-46.83-.35-70.24,.03-7.21,.12-8.25-3.18-8.09-9.13,.29-11.28,.08-22.57,.09-33.85,0-11.29,.24-22.58-.1-33.85-.18-5.95,1.95-8.14,7.93-8.09Zm247.85,171.07c-1.1,18.77-12.96,32.03-31.55,35-5.33,.85-10.83,.96-16.25,.96-203.15,.05-406.31-.02-609.46,.14-17.51,.01-34.78-1.47-43.17-18.95-9.43-19.63-9.49-40.98,.26-60.58,6.9-13.87,20.66-18.19,36.05-18.16,103.88,.17,207.76,.09,311.64,.09s205.25,0,307.87,0c31.31,0,44.7,13.56,44.73,45.17,0,5.44,.2,10.9-.11,16.33Zm-218.88-424.2c-.05-9.63-5.14-14.6-14.86-14.62-12.57-.02-25.28-1.18-37.68,.26-18.63,2.16-32.41-.91-35.36-22.61-.48-3.53-2.87-6.92-4.81-10.11-3.56-5.84-3.04-10.18,2.31-15.19,13.14-12.3,25.51-25.42,38.37-38.02,7.66-7.5,8.64-14.81,.71-22.68-15.74-15.63-31.48-31.27-47.11-47.01-7.32-7.38-14.4-7.47-21.71-.13-8.87,8.9-17.78,17.76-26.7,26.61-5.94,5.89-11.02,14.3-18.18,16.88-7.44,2.68-14.68-5.83-22.41-8.44-3.17-1.07-6.38-2-9.61-2.86-6.81-1.82-9.94-5.39-9.58-13.21,.74-15.88,.23-31.82,.22-47.74-.02-19.27-2.66-21.98-21.34-22-9.22-.01-18.44,0-27.65,0-10.89,0-21.81,.4-32.68-.11-12.13-.57-16.52,5.11-16.16,16.65,.43,13.81,.1,27.64,.1,41.46q0,20.37-18.66,27.55c-4.27,1.66-8.79,3.19-12.42,5.84-7.79,5.7-12.86,2.89-18.72-3.4-11.7-12.56-24.25-24.31-36.29-36.56-7.59-7.72-15.09-8.23-22.84-.49-15.71,15.69-31.38,31.41-47.07,47.12-7.32,7.33-7.09,14.55,.22,21.78,10.12,10.01,20.17,20.08,30.23,30.15q14.44,14.45,6.11,33.73c-1.48,3.43-3.36,6.91-3.79,10.52-1.31,10.93-7.78,12.63-17.46,12.18-16.31-.75-32.68,.08-49.01-.3-11.4-.27-17.38,4.23-17.32,16.05,.12,22.2,.11,44.4,.04,66.6-.03,10.52,5.48,15.24,15.54,15.31,13.41,.09,26.82,.03,40.22,.03q22.59,0,31.05,20.76c1.74,4.24,3.79,8.41,6.23,12.27,3.5,5.53,2.5,9.42-2.26,13.95-13.35,12.7-26.07,26.06-39.26,38.93-7.94,7.74-7.74,14.91,.02,22.58,15.8,15.59,31.58,31.2,47.09,47.07,7.54,7.71,14.26,7.1,21.45-.24,9.67-9.88,19.52-19.56,29.29-29.34q15.4-15.42,34.9-7.06c4.6,1.96,9.33,3.82,14.18,4.9,7,1.56,8.95,5.33,8.74,12.39-.55,18.41-.12,36.85-.2,55.28-.05,10.41,4.97,15.31,15.36,15.26,21.79-.1,43.58-.25,65.36,.06,11.8,.17,16.83-5.79,16.98-16.79,.17-12.56,.05-25.13,.05-37.7q0-24.08,21.59-33.26c3.83-1.64,7.77-3.23,11.22-5.5,5.62-3.7,9.56-2.47,14.08,2.25,12.73,13.31,26.05,26.05,38.91,39.24,7.76,7.97,14.98,7.72,22.64-.02,15.3-15.48,30.64-30.93,46.15-46.21,8.33-8.2,7.78-15.74-.38-23.64-9.63-9.32-19-18.91-28.49-28.38q-15.55-15.53-7.06-34.96c1.82-4.19,3.77-8.43,4.77-12.85,1.69-7.48,5.94-9.4,13.32-9.17,17.58,.55,35.19,.16,52.79,.18,10.36,.01,16.93-4.05,16.92-15.42-.02-22.62,.07-45.24-.06-67.85Zm-24.75,17.76c-.48,11.29-.4,22.62-.03,33.92,.19,5.75-2.15,7.11-7.39,6.92-9.21-.34-18.43-.09-27.65-.09-8.38,0-16.77,.33-25.13-.08-10.2-.5-15.47,4.38-17.61,13.93-3.29,14.76-8.92,28.68-16.93,41.48-6.4,10.24-5.04,18.24,3.95,26.44,12.05,10.99,22.97,23.21,34.83,34.43,4.81,4.55,4.62,7.28-.13,11.64-9.56,8.76-17.93,24.45-27.98,25.47-9.98,1.01-18.58-15.54-27.65-24.5-23.66-23.36-23.58-23.5-53.95-9.32-9.12,4.26-18.6,7.37-28.35,9.74-8.99,2.19-13.03,7.49-12.72,17.12,.54,16.32-.27,32.68,.32,48.99,.3,8.29-1.29,12.4-10.73,11.45-11.98-1.21-27.62,4.82-35.17-2.15-7.74-7.15-2.2-22.95-2.33-34.93-.35-34.57-.2-34.39-32.78-46.66-8.53-3.21-16.8-7.46-24.61-12.18-9.11-5.51-16.08-4.22-23.27,3.4-11.48,12.17-23.77,23.58-35.31,35.7-4.46,4.68-7.32,6.62-12.52,.59-8.45-9.79-24.14-18.15-25.11-28.24-1.01-10.44,15.57-18.81,24.54-27.97,22.76-23.25,22.71-23,9.45-52.74-4.21-9.45-7.52-19.39-10.28-29.38-2.41-8.72-7.43-12.39-16.23-12.3-17.18,.19-34.37-.42-51.52,.25-8.56,.33-11.01-2.65-10.31-10.7,1.04-12.01-4.9-27.56,2.18-35.19,7.23-7.79,22.96-2.25,34.94-2.37,35.09-.36,35.11-.12,46.94-32.04,3.35-9.03,7.36-17.76,12.69-25.77,5.61-8.42,4.22-15.37-2.89-22.21-11.77-11.32-22.93-23.28-34.86-34.41-5.96-5.56-8.04-9.53-.51-15.55,9.71-7.76,16.89-24.13,27.36-23.66,9.04,.41,17.53,15.09,26.11,23.62,24.24,24.07,24.13,23.94,54.87,10.07,8.33-3.76,17.04-7.25,25.95-9.05,11.38-2.29,15.14-8.98,15.09-19.46-.07-15.92,.53-31.86-.23-47.74-.43-9.1,2.77-11.57,11.34-10.93,9.17,.69,18.46,.67,27.63,0,8.09-.59,9.83,2.63,9.59,10.1-.54,16.32,.16,32.67-.28,48.99-.28,10.33,3.25,16.26,13.94,18.69,15.11,3.44,29.56,9.24,42.62,17.68,9.58,6.19,16.75,4.39,24.23-3.58,11.46-12.21,23.8-23.59,35.35-35.72,4.51-4.74,7.4-5.01,11.88,.03,8.58,9.66,23.96,18.12,25.04,28.29,1.12,10.54-15.52,18.71-24.39,27.88-26.81,27.72-26.15,20.21-9.37,53.11,4.12,8.07,7.23,16.93,9.14,25.79,2.62,12.16,9.3,16.42,21.32,15.93,16.31-.67,32.68,.06,49.01-.28,5.81-.12,8.21,1.25,7.94,7.57Zm-109.76,357.19c-19.74,.25-35.84,16.35-36.08,36.06-.24,19.75,16.91,37.08,36.67,37.07,20.13-.02,36.33-16.54,36.26-36.98-.07-20.28-16.5-36.4-36.85-36.14Zm1.31,48.3c-7.49-.37-12.12-4.05-12.4-11.47-.28-7.51,4.12-11.7,11.55-11.86,6.82-.14,11.05,3.3,11.41,10.49,.38,7.51-3.29,11.7-10.57,12.83Zm244.18-48.27c-20.5-.7-37.32,14.95-37.8,35.2-.49,20.45,15.28,37.29,35.46,37.87,19.84,.57,37.09-16.12,37.36-36.14,.27-19.74-15.4-36.26-35.02-36.94Zm-2.05,48.07c-7.49-.39-11.13-5.03-10.8-12.53,.31-7.16,4.62-10.59,11.34-10.62,7.54-.03,11.2,4.39,11.63,11.09-.73,8.12-4.68,12.44-12.17,12.06Zm-364.12-48.11c-19.96-.21-36.07,15.31-36.44,35.12-.39,20.94,14.72,37.32,35.03,37.97,19.59,.63,37.21-16.16,37.72-35.96,.52-19.83-16.2-36.93-36.32-37.14Zm-.29,48.14c-7.58,.05-11.62-4.69-11.61-11.93,0-6.71,3.8-10.98,10.89-11.23,7.56-.27,11.48,3.79,12.44,10.86-.61,7.53-4.18,12.25-11.72,12.3Zm-122.87-48.1c-19.66,.43-35.66,16.83-35.56,36.45,.1,19.97,17.24,36.94,36.98,36.63,20.18-.32,36.12-16.95,35.84-37.38-.28-20.32-16.79-36.15-37.26-35.69Zm.87,48.09c-7.43-.14-11.8-4.97-11.8-11.76,0-6.9,4.42-11.35,11.99-11.41,7.78-.06,10.87,4.71,11.97,11.31-1.25,7.1-4.55,12.01-12.15,11.86Zm365.39-48.1c-20.57-.08-36.08,15.67-36.02,36.59,.05,20.52,16.4,36.89,36.44,36.49,19.48-.38,35.71-16.76,35.98-36.29,.27-20.09-16.18-36.72-36.39-36.79Zm.2,48.24c-7.96-.23-12.13-5.27-12.19-11.79-.06-6.56,3.99-11.67,11.83-11.57,7.62,.09,11.86,4.43,11.82,11.52-.03,6.99-4.3,11.37-11.46,11.83ZM277.57,168.66c-73.78,.41-133.58,60.92-133.26,134.85,.32,72.6,61.55,133.57,134.1,133.5,73.6-.06,133.84-60.97,133.44-134.91-.41-74.57-60.06-133.85-134.28-133.44Zm1.55,243.46c-60.78,.12-109.97-48.93-109.97-109.65,0-60.45,48.5-108.83,109.12-108.87,60.59-.04,109.47,48.35,109.72,108.6,.24,59.6-49.48,109.81-108.87,109.92Zm-.89-206.38c-54.4,.04-97.38,42.99-97.07,97.01,.31,54.04,43.61,97.24,97.41,97.17,53.67-.06,97.14-43.71,97.13-97.52,0-53.99-43.08-96.71-97.47-96.66Zm.31,169.22c-40.1,.06-73.13-31.68-72.9-71.85,.22-40,28.75-72.3,73.16-73.29,39.78-.88,72.23,33.1,72.13,72.86-.1,40.25-32.11,72.21-72.39,72.27Z"/>
</svg>