<?xml version="1.0" encoding="UTF-8"?>
<svg id="Layer_1" data-name="Layer 1" xmlns="http://www.w3.org/2000/svg" viewBox="0 0 800 800">
  <defs>
    <style>
      .cls-1 {
        fill: #010201;
      }

      .cls-2 {
        fill: none;
      }
    </style>
  </defs>
  <rect class="cls-2" width="800" height="800"/>
  <path class="cls-1" d="M723.71,81.2c-108.59-.03-217.18,0-325.77,0-108.2,0-216.39-.01-324.59,0-34.85,0-52.98,18.1-52.99,52.82,0,145.17,0,290.34,0,435.5,0,36.77,18,54.61,55.15,54.61,67.67,.02,135.35,.28,203.01-.28,10.44-.09,12.57,2.97,11.13,12.39-2.8,18.21-5.09,36.5-7.16,54.81-.69,6.05-4.6,5.29-8.44,5.33-9.83,.09-19.67,.07-29.5,.16-6.58,.06-10.64,3.89-11.11,9.96-.52,6.75,3.64,11.01,10.39,12.03,3.08,.47,6.28,.22,9.43,.22,57.44,0,114.88,0,172.33,0,40.92,0,81.84-.05,122.75,.04,8.19,.02,14.55-2.9,14.54-11.64-.01-8.25-6.24-10.92-13.93-10.78-9.05,.16-18.1,0-27.15,.04-4.17,.02-7.36-.07-7.99-5.87-1.95-17.92-4.34-35.81-7.05-53.63-1.46-9.61,.35-13.19,11.6-13.09,68.45,.65,136.91,.39,205.37,.3,33.68-.04,52.28-18.92,52.28-52.74,.01-145.96,.01-291.91,0-437.86,0-33.89-18.39-52.3-52.31-52.31Zm-241.43,615.31c-27.89-.27-55.78-.11-83.67-.11s-55.79-.34-83.67,.2c-8.61,.17-10.58-2.14-9.23-10.51,2.92-18.15,5.3-36.42,6.96-54.73,.6-6.68,3.43-7.73,8.82-7.25,1.95,.18,3.93,0,5.89,.03,8.24,.11,17.33-1.91,24.47,.94,7.51,3,4.95,13.75,8.19,20.71,7.44,15.96,23.38,26.64,40.09,25.54,18.44-1.21,34.37-12.79,37.8-31.45,2.62-14.26,9.25-16.6,22.01-16.04,23.51,1.03,23.46,.3,25.97,24.11,1.4,13.24,2.57,26.55,4.92,39.63,1.47,8.21-1.81,8.99-8.55,8.93Zm-104.46-71.95h40.85c-3.64,17.67-9.27,24.23-20.52,24.2-11.28-.03-16.98-6.72-20.33-24.2Zm376.48-56.75c0,25.66-8.13,33.75-33.88,33.75-107.41,0-214.82,0-322.23,0s-214.82,0-322.23,0c-25.8,0-33.86-8.03-33.86-33.76,0-143.6,0-287.19,0-430.79,0-25.38,8.55-33.95,33.86-33.95,214.82,0,429.64,0,644.46,0,25.3,0,33.88,8.59,33.88,33.96,0,143.6,0,287.19,0,430.79Zm-320.43,9.02c-90.88,0-181.75,0-272.63,0-3.15,0-6.3,.09-9.44-.05-7.7-.35-13.37-3.85-12.97-12.02,.36-7.52,6.06-10.45,13.22-10.53,3.15-.03,6.29-.02,9.44-.02,177.43,0,354.85-.11,532.28,.27,11.15,.02,13.43-3.23,13.4-13.76-.36-125.88-.32-251.76-.06-377.64,.02-9-1.04-14.19-11.78-12.86-7.46,.92-12.01-3.14-11.86-11.07,.13-7.34,4.61-10.34,11.44-10.66,.39-.02,.79-.02,1.18-.02,33.34,.04,32.85-3.22,32.8,31.15-.21,132.17-.08,264.35-.09,396.52,0,18.55-2.19,20.7-21.1,20.7-91.27,0-182.54,0-273.81,0Zm-71.01-448.37c91.67,0,183.35,0,275.02,0,3.54,0,7.14-.25,10.6,.31,5.77,.94,9.31,4.92,9.14,10.56-.17,5.9-3.15,10.56-9.99,10.88-3.93,.19-7.87,.16-11.8,.16-177.45,0-354.9,.12-532.34-.26-11.27-.02-14.32,2.62-14.28,14.09,.43,125.5,.34,251,.12,376.51-.02,9.04,.28,15.23,12.11,13.81,6.32-.76,11.35,2.72,11.52,10.38,.17,8.08-4.61,11.63-11.71,11.76-33.29,.59-33.85,2.33-33.77-29.25,.33-132.98,.14-265.95,.14-398.93,0-18.27,1.77-20.03,20.22-20.03,91.67,0,183.35,0,275.02,0Zm174.32,118.14c-36.15-1.74-72.3-3.34-108.45-5-46.77-2.15-93.54-4.29-140.3-6.52-3.35-.16-7.26,1.02-9.63-2.78-9.43-15.07-26.42-20.41-39.66-30.57-5.46-4.19-11.33-3.13-15.47,2.58-4.31,5.94-2.3,11.45,2.93,15.46,6.23,4.76,12.7,9.38,19.61,13.04,9.4,4.97,13.85,12.49,16.61,22.57,10.76,39.2,21.31,78.5,33.91,117.12,5.83,17.86,6.92,33.2-4.42,48.92-5.56,7.7-6.88,17.27-.85,25.3,4.04,5.38,4.06,9.85,2.49,15.76-3.74,14.05,1.32,28.25,12.83,36.37,11.57,8.15,24.1,9.23,36.64,2.53,13.48-7.21,19.99-19.13,17.92-34.11-1.13-8.17,1.25-9.14,8.23-9.07,26.76,.3,53.52,.31,80.28,0,7.35-.09,10.06,.79,8.8,9.62-2.59,18.21,10.3,33.91,28.46,37.05,18.19,3.14,33.92-7.73,39.29-25.6,3.5-11.63-3.52-22.83,.45-34.55,1.34-3.96-4.35-7.99-9.56-8.59-3.5-.4-7.07-.29-10.61-.29-64.92-.01-129.84-.01-195.73-.01,9.41-24.88,9.36-25.32,32.15-28.11,48.75-5.98,97.54-11.64,146.36-17.08,22.21-2.47,38.74-16.41,43.28-38.55,6.05-29.52,11.69-59.13,17.38-88.72,2.21-11.48-1.44-16.2-12.93-16.75Zm-43.82,212.12c7.4,.16,11.27,4.63,11.7,12.22-.7,7.66-4.76,12.32-12.8,12.01-7.35-.29-11.48-4.71-11.53-12.12-.05-8.24,4.81-12.28,12.63-12.11Zm-166.12,0c7.94,.12,12.41,4.54,12.04,12.67-.34,7.42-4.73,11.57-12.08,11.57-8.15,0-11.74-5.06-12.27-12.22,.79-7.99,4.93-12.14,12.31-12.02Zm-30.95-165.98c-1.14-9.15-4.08-18.29-7.56-26.89-3.42-8.44,.6-8.32,6.68-7.82,3.89,.32,7.82,.06,11.73,.06q23.86,1.09,27.13,24.87c3.13,22.82,3.12,22.28-20.04,23.06-10.49,.35-16.48-1.53-17.94-13.28Zm48.29,92.98c-18,2.66-21.9,.21-26.71-17.53-2.65-9.78-4.93-19.71-8.42-29.18-3.56-9.67-.36-12.38,8.92-11.05,1.92,.28,3.92,.04,5.88,.04q17.29,0,20.24,17.82c1.79,10.78,3.37,21.61,5.6,32.3,1.09,5.23-.43,6.85-5.51,7.59Zm13.09-98.55c-.51-3.48-1.33-6.91-1.81-10.4q-2.31-16.5,15.26-15.77c1.96,.08,3.91,.18,5.87,.3q21.7,1.34,21.7,23.5,0,20.98-20.52,20.98-17.75,0-20.48-18.61Zm30.96,93.12c-9.88,1.36-17.11,2.67-17.73-11.15-.48-10.82-3.62-21.52-5.61-32.27-1.14-6.16,.32-8.92,7.63-9.08,25.76-.56,25.76-.88,25.76,26.75,0,4.32-.49,8.7,.1,12.93,1.15,8.15-1.56,11.62-10.16,12.81Zm68.92-38.43c-.57,1.81-.24,3.91-.34,5.87-1.37,25.12-6.55,29.54-31.7,28.14-4.45-.25-4.05-2.68-4.1-5.28-.12-6.29-.04-12.58-.05-18.87,0-23.74,.02-23.07,23.94-24.01,11.78-.46,15.87,2.63,12.25,14.15Zm4.82-53.94q-1.48,17.86-19.85,17.86-21.15,0-21.15-21.5,0-21.05,20.88-19.8,21.96,1.31,20.12,23.44Zm48.94,57.67c-1.29,6.31-3.52,12.15-8.43,16.44-6.22,5.44-14.74,8.89-21.71,6.55-6.4-2.15-1.7-10.91-2.24-16.7-.29-3.05,.66-6.22,1.1-9.33q2.05-14.58,17.42-14.58,17.53,0,13.88,17.61Zm11.04-56.13c-1.21,5.37,.99,14.28-5.48,15.48-10.21,1.89-21.03,.82-31.56,.35-2.75-.12-2.12-3.79-1.87-5.99,.48-4.27,1.5-8.48,1.92-12.75q1.87-19.07,20.98-18.74c20.49,.36,20.79,.43,16.01,21.65Z"/>
</svg>