<?xml version="1.0" encoding="UTF-8"?>
<svg id="Layer_1" data-name="Layer 1" xmlns="http://www.w3.org/2000/svg" viewBox="0 0 800 800">
  <defs>
    <style>
      .cls-1 {
        fill: none;
      }

      .cls-2 {
        fill: #060707;
      }
    </style>
  </defs>
  <rect class="cls-1" width="800" height="800"/>
  <path class="cls-2" d="M209.49,203.97c5.83,.35,11.76,.12,17.44,1.18,8.17,1.53,13.11,6.63,12.98,15.43-.12,8.17-4.53,13.38-12.34,14.72-12.31,2.11-24.81,1.98-37.14,.09-7.97-1.22-12.11-6.58-12.27-14.71-.17-8.72,4.35-14.13,12.71-15.56,6.09-1.04,12.39-.82,18.61-1.16Zm280.69,32.13c5.45,0,11.02,.71,16.33-.16,8.41-1.38,14.41-5.93,14.45-15.49,.05-9.53-5.78-14.79-14.25-15.55-11.2-1-22.63-.99-33.83,.02-8.67,.78-13.9,6.49-13.71,15.91,.19,8.9,5.43,13.71,13.52,14.98,5.7,.9,11.65,.17,17.49,.17,0,.04,0,.07,0,.11Zm-94,.57c5.83-.27,11.75,.03,17.46-.95,8.05-1.39,13.45-6.05,13.64-14.94,.2-9.47-5.35-15.06-13.92-15.78-11.57-.98-23.36-.86-34.94,.16-8.29,.73-12.96,6.55-12.91,15.33,.05,8.84,5.02,13.92,13.19,15.22,5.69,.9,11.64,.17,17.47,.17,0,.26,0,.52,.01,.78Zm-77.26-.66c8.35-1.36,14.53-5.73,14.69-15.31,.15-9.49-5.46-14.94-14.01-15.73-11.2-1.03-22.62-1.05-33.82-.1-8.62,.73-14.06,6.23-13.95,15.72,.11,9.53,5.87,14.17,14.42,15.42,5.34,.78,10.89,.15,16.34,.15,5.46,0,11.03,.71,16.34-.15Zm279.95,153.78c-1.33-8.4-6.65-12.81-15.4-12.85-8.31-.03-13.77,4.31-14.82,12.04-1.72,12.68-2.19,25.6,.28,38.27,1.56,7.98,7.33,11.49,15.46,11.16,7.6-.31,12.14-4.14,14.24-11.42,1.78-6.16,.6-12.4,1.25-20.35-.23-4.46-.04-10.74-1.01-16.85Zm0,93.68c-1.33-8.4-6.64-12.82-15.39-12.86-8.31-.04-13.77,4.29-14.83,12.03-1.73,12.68-2.19,25.6,.27,38.27,1.55,7.98,7.32,11.5,15.45,11.17,7.6-.31,12.15-4.12,14.25-11.41,1.78-6.16,.61-12.4,1.25-20.34-.23-4.47-.03-10.75-1-16.86Zm-30.98,126.83c1.08,8.99,5.24,15.41,15.54,15.47,10.18,.06,15.2-5.97,15.89-15.08,.79-10.45,.77-21.06-.04-31.51-.71-9.2-5.93-15.04-16.04-14.89-10.29,.15-14.35,6.66-15.36,15.66-.56,5-.1,10.12-.1,15.18,0,5.06-.49,10.19,.11,15.18Zm31.33-296.97c0-5.44,.61-10.97-.14-16.3-1.23-8.83-6.47-13.81-15.86-13.76-9.03,.05-14.24,5.36-14.92,13.38-.99,11.58-.99,23.39,.05,34.96,.73,8.03,6.07,13.21,15.09,13.17,9.46-.04,14.52-5.21,15.67-13.98,.76-5.73,.14-11.65,.14-17.48-.01,0-.03,0-.04,0ZM210.32,63.65c8.94-.42,13.6-6.1,14.05-14.28,.48-8.91-4.63-15.31-13.55-16.01-11.62-.91-23.43-.95-35.05,.02-8.86,.74-13.9,6.93-13.36,16.11,.49,8.47,5.16,13.73,14.01,14.19,5.44,.28,10.91,.05,16.37,.04,5.85-.01,11.7,.21,17.54-.06Zm75.4,.01c6.24,0,12.49,.3,18.7-.07,8.98-.53,13.35-6.54,13.67-14.65,.33-8.32-4.56-14.75-12.87-15.46-12-1.03-24.2-1.04-36.2-.05-8.23,.68-13.21,6.66-12.96,15.32,.25,9.07,5.06,14.52,14.46,14.97,5.06,.24,10.13,.04,15.2,.04v-.1Zm111.34,.06c9.53-.31,14.39-6.2,14.71-14.9,.31-8.3-4.67-14.69-12.99-15.37-12-.99-24.21-1.04-36.2,0-8.22,.71-13.15,6.77-12.84,15.42,.32,9.07,5.19,14.47,14.59,14.85,5.45,.22,10.91,.04,16.37,.03,5.46,0,10.92,.14,16.37-.04Zm77.04-.05c5.85,0,11.71,.27,17.53-.06,8.97-.51,13.41-6.39,13.81-14.53,.4-8.34-4.43-14.83-12.71-15.57-11.99-1.08-24.21-1.12-36.2-.09-8.83,.76-13.76,7.17-13.08,16.34,.64,8.49,5.46,13.58,14.28,13.94,5.45,.23,10.91,.04,16.37,.04,0-.02,0-.05,0-.07Zm110.71,0c8.93-.36,13.68-5.88,14.25-14.09,.62-8.95-4.45-15.47-13.3-16.19-12-.98-24.23-1.07-36.2,.12-8.14,.81-12.95,7.07-12.46,15.75,.48,8.46,4.94,13.87,13.81,14.38,5.83,.33,11.69,.06,17.53,.07,5.46,0,10.92,.19,16.37-.03Zm76.03,.05c5.85,0,11.7,.19,17.54-.04,9.57-.38,14.37-6.52,14.44-15.14,.07-8.76-5.35-14.8-14.43-15.32-10.88-.62-21.85-.63-32.73-.05-9.55,.51-15.15,6.22-14.84,15.97,.29,9.09,5.46,14.3,14.82,14.61,5.06,.16,10.13,.03,15.2,.03,0-.02,0-.04,0-.06Zm-90.03,140.59c-8.15,.75-15.74,2.67-17.43,12.3-1.51,8.59,.67,15.54,10.09,18.28,4.45,1.29,4.94,5.47,6.83,8.81,5.3,9.37,19.86,10.54,25.58,1.61,6.33-9.88,5.35-21.24,1.61-31.61-3.31-9.16-12.43-9.4-20.82-9.41-1.95,0-3.92-.15-5.85,.03Zm200.33-61.52c0-5.81,.52-11.68-.12-17.42-1-8.99-7.12-14.22-15.61-14.19-8.44,.03-14.81,4.81-15.1,14.32-.33,10.83-.45,21.69-.14,32.52,.27,9.62,5.71,15.38,15.33,15.29,9.54-.09,14.74-6.11,15.63-15.42,.48-4.99,.08-10.07,.08-15.1-.03,0-.06,0-.09,0Zm-.05,170.53c-.94-9.56-7.14-15.01-16.21-14.79-8.52,.21-14.48,5.43-14.66,14.84-.21,10.84-.32,21.69,.03,32.52,.3,9.14,5.65,14.53,14.64,14.76,9.57,.24,15.05-5.55,16.19-14.81,.66-5.34,.12-10.83,.11-16.26,0-5.42,.42-10.89-.1-16.26Zm0,93.65c-.95-9.56-7.16-15-16.23-14.77-8.52,.22-14.47,5.45-14.64,14.86-.2,10.84-.31,21.69,.04,32.52,.3,9.14,5.67,14.52,14.66,14.74,9.57,.23,15.04-5.57,16.17-14.83,.65-5.35,.12-10.83,.11-16.26,0-5.42,.43-10.89-.11-16.26Zm.05-170.51c0-5.81,.52-11.68-.12-17.42-1-8.99-7.12-14.22-15.61-14.19-8.44,.03-14.81,4.81-15.1,14.32-.33,10.83-.45,21.69-.14,32.52,.27,9.62,5.71,15.38,15.33,15.29,9.54-.09,14.74-6.11,15.63-15.42,.48-4.99,.08-10.07,.08-15.1-.03,0-.06,0-.09,0Zm-30.94,280.71c0,5.42-.26,10.86,.06,16.26,.54,9.17,5.86,14.37,14.83,14.59,9.02,.22,15.05-5.21,15.77-13.87,.96-11.54,.93-23.28-.04-34.82-.75-8.9-7.59-13.84-16.13-13.45-7.87,.36-13.93,4.88-14.32,13.88-.25,5.79-.05,11.61-.05,17.41-.04,0-.08,0-.12,0Zm30.83,93.14c0-5.81,.7-11.72-.16-17.4-1.35-8.88-7.73-13.8-16.27-13.37-7.88,.4-14,4.98-14.23,13.97-.29,11.22-.44,22.46-.06,33.67,.31,9.19,5.9,14.33,14.87,14.49,9.02,.17,14.49-5.31,15.78-13.96,.84-5.68,.16-11.6,.16-17.41-.03,0-.06,0-.08,0Zm-28.08-577.3c-9.26-.42-16.38,2.94-18.22,12.54-1.67,8.69,1.88,15.55,10.94,17.78,4.66,1.15,4.32,4.67,5.76,7.68,2.74,5.72,7.59,8.78,13.99,8.77,5.89-.01,11.07-2.55,13.32-7.88,4.21-9.99,4.46-20.67,.12-30.56-3.97-9.05-12.89-8.72-19.83-8.32-2.97,0-4.53,.06-6.08-.01Zm-252.86,686.71c-.33,20.01-14.4,31.78-36.86,31.84-46.43,.12-92.86,.04-139.3,.04-73.74,0-147.49,0-221.23,0-28.74,0-40.18-11.52-40.19-40.42-.01-26.53-.06-53.06,.02-79.59,.06-20.43,6.99-30.32,26.18-36.05,4.23-1.26,5.84-2.53,5.55-6.79-.29-4.27-.45-8.62,.02-12.86,.91-8.17-1.27-12.28-10.47-14.13-12.66-2.55-20.99-15.25-21.17-30.22-.37-30.43-.49-60.87,.01-91.29,.34-20.55,13.58-32.5,34.67-32.52,61.65-.06,123.3-.02,184.95-.02,60.48,0,120.96-.02,181.44,0,24.41,.01,36.48,12.09,36.54,36.59,.06,27.7,.05,55.4,0,83.1-.04,20.32-5.98,28.8-25.22,35.26-4.5,1.51-6.27,3.72-5.94,8.38,.33,4.66,.53,9.41-.04,14.03-.85,7.01,1.79,9.86,8.71,11.79,14.23,3.96,22.17,14.4,22.36,29.24,.4,31.21,.51,62.43,0,93.63ZM95.94,532.32c58.13-.34,116.26-.18,174.39-.18s118.6-.21,177.9,.22c8.98,.07,11.09-2.52,10.88-11.13-.59-24.17-.41-48.37-.08-72.55,.1-7.15-1.25-10.28-9.53-10.26-118.6,.27-237.2,.28-355.8-.02-8.43-.02-9.5,3.21-9.41,10.25,.32,24.18,.68,48.39-.15,72.55-.34,9.82,3.23,11.16,11.79,11.11Zm320.67,31.71c-48.33,.48-96.67,.23-145.01,.23-45.61,0-91.22,0-136.83,0-19.29,0-18.83,.01-19.45,19.47-.28,8.84,1.77,11.59,11.21,11.55,93.56-.4,187.12-.24,280.67-.24,20.12,0,19.65-.01,20.23-19.98,.25-8.65-1.9-11.11-10.82-11.02Zm30.4,61.67c-58.51,.5-117.04,.24-175.56,.24-58.91,0-117.82,.15-176.73-.18-8.12-.05-10.67,2.11-10.5,10.37,.52,24.56,.46,49.15,.02,73.72-.13,7.41,1.58,9.82,9.49,9.8,118.21-.27,236.42-.3,354.63,.04,9.24,.03,10.91-2.92,10.72-11.28-.54-23.39-.62-46.82,.02-70.21,.26-9.46-2.03-12.6-12.09-12.52ZM176.36,133.14c-4.24,8.39-12.04,10.17-19.73,9.52-9.72-.83-10.4,3.48-10.37,11.36,.27,66.3,.17,132.6,.15,198.91,0,19.35-4.64,23.94-24.1,23.98-15.99,.03-31.99,.11-47.98-.02-16.24-.14-21.76-5.63-21.8-21.81-.09-33.93-.03-67.86-.03-101.79,0-33.15-.24-66.31,.17-99.45,.1-8.04-.89-12.36-10.47-11.29-7.59,.85-14.72-1.41-18.43-9.33-3.77-8.03-.03-14.04,4.88-20.11,18.87-23.32,37.47-46.86,56.33-70.18,9.47-11.71,19.68-12.07,28.95-.74,19.24,23.51,38.28,47.2,57.11,71.04,4.43,5.62,9.59,11.48,5.32,19.91Zm-51.04-27.35c-7.27-9.15-14.65-18.21-21.89-27.38-2.34-2.96-4.27-4.21-7.15-.48-7.64,9.85-15.44,19.58-23.25,29.3-1.89,2.35-2.01,4.01,1.11,5.19,10.19,3.86,10.27,12.66,10.28,21.37,.04,33.14,.02,66.29,.02,99.43,0,30.8,0,61.61,0,92.41,0,19.27,.02,18.76,19.64,19.39,9.13,.29,11.64-2.17,11.58-11.47-.43-67.06-.18-134.13-.29-201.2-.01-8.17,.34-16,9.07-19.66,5.12-2.15,2.89-4.4,.91-6.9ZM759.93,720.75c-23.2,19.04-46.83,37.57-70.28,56.3-5.41,4.32-11.1,7.08-18.25,4.02-7.63-3.26-10.68-10.03-9.83-17.01,1.46-11.99-4.32-12.77-13.85-12.65-34.72,.45-69.45,.23-104.18,.15-17.18-.04-22.55-5.34-22.64-22.17-.09-16.78-.09-33.55,0-50.33,.1-16.59,4.82-21.19,21.79-21.27,17.56-.08,35.12-.02,52.68-.02,18.73,0,37.46-.28,56.18,.14,7.31,.17,10.8-1.39,10-9.6-.82-8.36,.32-16.44,9.48-20.63,9.29-4.25,15.39,1.35,21.85,6.53,22.2,17.8,44.7,35.23,66.66,53.32,16.46,13.56,16.5,19.97,.39,33.19Zm-29.75-16.43c-9.46-7.6-18.07-14.32-26.44-21.31-5.37-4.49-9.78-9.89-15.26,.51-2.9,5.51-9.83,5.25-15.84,5.23-33.16-.1-66.33-.05-99.49-.05-20.54,0-20.09,0-20.55,20.75-.18,8.28,2.17,10.33,10.31,10.22,35.89-.45,71.79-.18,107.68-.21,8.02,0,16.44,.38,20.25,8.53,2.85,6.08,4.85,4.09,8.25,1.32,9.95-8.11,20.01-16.1,31.09-24.99ZM129.35,470.74c-8.87,.5-13.32,5.91-13.81,14.37-.5,8.69,4.36,14.93,12.47,15.75,11.96,1.2,24.2,1.11,36.19,.12,8.85-.73,13.92-7.25,13.3-16.2-.57-8.23-5.35-13.72-14.26-14.08-5.45-.22-10.91-.04-16.37-.03-5.85,0-11.71-.26-17.53,.07Zm282.97-.14c-9.18-.22-15.64,5.8-15.85,14.76-.2,8.72,6.39,15.74,14.99,15.98,8.69,.23,15.63-6.36,15.89-15.09,.26-8.99-5.92-15.43-15.03-15.65Zm-282.37,187.4c-9.41,.44-14.26,5.94-14.39,15-.13,9.2,5.27,14.87,14.17,15.45,11.25,.74,22.64,.75,33.89-.04,8.97-.63,14.25-6.85,13.94-15.7-.31-8.75-5.39-14.46-14.86-14.74-5.45-.16-10.91-.03-16.37-.02-5.46,0-10.92-.2-16.37,.05Zm266.5,15.26c.09,8.69,6.98,15.52,15.57,15.42,8.72-.09,15.35-6.88,15.32-15.66-.03-8.97-6.39-15.13-15.59-15.09-9.1,.03-15.4,6.34-15.31,15.33Z"/>
</svg>