<?xml version="1.0" encoding="UTF-8"?>
<svg id="Layer_1" data-name="Layer 1" xmlns="http://www.w3.org/2000/svg" viewBox="0 0 800 800">
  <defs>
    <style>
      .cls-1 {
        fill: none;
      }

      .cls-2 {
        fill: #010101;
      }
    </style>
  </defs>
  <rect class="cls-1" width="800" height="800"/>
  <path class="cls-2" d="M688.96,500.8c-6.42-2.32-8.07-5.02-8.04-11.46,.25-59.97,.2-119.93,.06-179.9-.01-5.98,.5-9.49,7.67-11.84,25.33-8.3,39.28-26.9,41.96-53.1,2.45-23.93-11.25-47.78-32.59-58.29-23.94-11.79-46.77-9.08-67.23,7.8-5.77,4.76-9.32,5.4-15.88,1.56-51.23-30.06-102.65-59.82-154.29-89.18-6.72-3.82-8.19-7.42-6.82-14.71,7.06-37.52-21.18-71.22-59.25-71.28-38.05-.06-66.78,33.9-59.46,71.07,1.61,8.16-.86,11.63-7.66,15.51-50.93,29.02-101.66,58.38-152.26,87.96-6.96,4.07-11.16,4.06-17.92-1.49-20.52-16.84-43.78-19.29-67.22-6.61-22.44,12.14-33.59,32.12-31.63,57.53,1.99,25.8,16.08,44.27,40.63,52.85,7.86,2.75,8.99,6.19,8.97,13.27-.23,59.18-.27,118.36,.05,177.53,.04,7.34-1.64,10.57-9.07,13.13-24.28,8.35-40.25,29.84-40.77,53.94-.56,25.97,10.57,46.01,33.98,57.44,23.85,11.64,46.8,8.23,66.99-9.17,4.57-3.94,7.47-4.8,12.96-1.59,52.31,30.58,104.74,60.98,157.41,90.94,6.21,3.54,6.74,6.96,5.59,13.03-4.74,25,5.25,49.15,26.17,62.33,22.09,13.92,45.03,14.32,66.63-.34,21.34-14.48,30.78-35.37,25.85-61.26-1.42-7.48,.43-10.86,6.99-14.59,49.59-28.22,99.05-56.69,148.18-85.71,9.71-5.74,17.06-9.14,25.87,1.14,4.7,5.48,12.19,6.81,17.54,.2,5.7-7.04,2.83-13.16-4.18-17.79-.66-.43-1.29-.91-1.9-1.41-18.04-15.12-19.83-39.85-4.09-56.41,15.09-15.88,40.78-15.83,55.94,.12,15.32,16.11,13.49,42.15-4.63,56.41-7.11,5.59-12.33,11.41-5.45,19.34,7.03,8.1,14.32,2.63,20.55-2.58,37.03-31,26.52-87.67-19.65-104.36ZM394.03,42.32c21.04-.29,38.28,16.89,38.35,38.21,.07,21.46-16.55,38.84-37.52,39.24-20.55,.39-38.2-17.3-38.33-38.42-.12-21.58,16.36-38.75,37.5-39.04ZM80.38,239.56c.24-20.88,17.8-38.05,38.71-37.84,20.97,.21,38.38,17.62,38.32,38.32-.07,21.13-18.19,38.85-39.36,38.48-20.61-.36-37.9-18.25-37.67-38.97Zm38.28,356.81c-21.29-.1-38.43-17.27-38.28-38.37,.15-21.12,17.37-38.05,38.64-37.98,21.12,.06,38.55,17.49,38.37,38.37-.18,21.07-17.52,38.08-38.74,37.98Zm276.03,159.48c-21.16,.18-38.08-16.78-38.16-38.27-.09-21.5,16.5-38.54,37.66-38.71,21.13-.17,38.15,16.87,38.19,38.21,.04,21.6-16.48,38.58-37.69,38.76Zm257.6-255.46c-32.55,11.68-47.81,38.52-41.14,72.46,1.04,5.32-.66,6.94-4.36,9.07-53.19,30.63-106.38,61.25-159.44,92.11-4.92,2.86-7.79,2.77-12.1-1.28-11.31-10.65-24.84-16.49-40.67-15.45-16-.98-29.58,4.74-40.89,15.42-4.3,4.06-7.21,4.16-12.1,1.32-53.06-30.84-106.24-61.48-159.46-92.06-4.36-2.5-5.44-4.56-4.19-10.15,6.99-31.32-9.33-60.01-40.14-70.99-6.17-2.2-8.41-4.64-8.38-11.42,.31-60.37,.26-120.74,.05-181.11-.02-6.11,1.72-8.58,7.79-10.61,31.09-10.42,47.33-39.22,40.49-71.74-1.07-5.09,.06-7.08,3.93-9.31,53.89-31.02,107.77-62.06,161.53-93.3,4.49-2.61,6.65-.99,9.98,1.81,26.59,22.37,56.23,22.45,82.39,.07,3.89-3.33,6.24-4.1,10.97-1.35,53.4,31.08,106.97,61.88,160.53,92.7,3.78,2.17,5.13,4,4.05,9.21-6.86,33.19,9.08,60.83,41.48,72.16,5.8,2.03,6.76,4.92,6.75,10.21-.14,60.76-.14,121.53,0,182.29,.01,5.48-1.46,7.92-7.07,9.94Zm17.68-221.86c-20.67-.02-38.2-17.41-38.49-38.18-.3-21.12,17.96-39.14,39.17-38.65,21.14,.49,38.13,17.89,37.81,38.71-.32,20.93-17.7,38.14-38.49,38.12Zm-90.39,163.9c.11-7.75-2.35-13.89-10.79-13.81-8.13,.08-11.2,5.74-11.04,13.72,.28,13.41-.38,26.85,.25,40.23,.37,7.89-2.96,12.5-9.31,16.11-16.08,9.13-32.07,18.43-48.1,27.65-30.92,17.8-61.85,35.6-94.76,54.54,0-58.16,0-113.77,.03-169.37,0-2.64-.65-5.6,2.4-7.35,13.07-7.48,26.13-14.99,40.49-23.23,0,19.33-.26,36.29,.08,53.23,.31,15.47,12.36,22.29,26.08,14.9,10.05-5.41,19.76-11.43,29.8-16.87,10.42-5.64,15.19-14,14.97-25.94-.37-19.33-.17-38.66-.03-58,.03-3.66-1.43-7.77,3.33-10.38,11.24-6.15,22.24-12.72,34.85-20,0,23.52,.18,45.09-.1,66.65-.1,7.82,2.4,13.92,10.5,14.29,9.19,.43,11.4-6.29,11.35-14.4-.16-24.46-.21-48.92-.02-73.38,.1-13.15-5.65-22.59-16.83-29.03-50.12-28.86-100.27-57.67-150.34-86.6-12.01-6.94-23.69-7.04-35.72-.09-50.07,28.94-100.2,57.77-150.33,86.61-11.17,6.43-17.06,15.71-17.03,28.9,.12,58.79,.12,117.57,0,176.36-.03,13.13,5.68,22.54,16.86,28.99,50.44,29.1,100.87,58.23,151.32,87.33,11.2,6.46,22.53,6.53,33.7,.1,50.82-29.25,101.62-58.52,152.34-87.92,10.25-5.94,15.97-14.87,15.92-27.1-.06-15.39-.1-30.77,.12-46.16Zm-83.02-35.87c-.04,3.81-20.43,18.11-23.63,16.89-2.95-1.13-2.03-3.92-2.04-6.11-.08-14.2,.06-28.41-.1-42.61-.05-4.29,.75-7.52,4.98-9.68,6.52-3.34,12.79-7.17,20.87-11.76,0,18.94,.11,36.11-.08,53.28Zm-106.21-193.33c2.88-1.62,6.02-1.28,9.01,.45,48.29,27.87,96.59,55.71,145.76,84.06-1.7,1.85-2.13,2.58-2.77,2.99q-32.72,20.69-65.9,1.5c-36.06-20.89-72.09-41.82-108.13-62.75-3.36-1.95-6.65-4.02-11.38-6.89,11.87-6.9,22.58-13.24,33.41-19.35Zm-59.95,34.52c2.69-1.66,5.01-1.44,7.6,.06,48.57,28.19,97.16,56.35,146.15,84.75-15.22,16.24-28.66,14.68-46.09,3.74-41.93-26.32-85.5-50.04-129.57-75.48,7.9-4.69,14.97-8.78,21.91-13.07Zm52.61,326.82c0,1.43-.42,2.87-.88,5.75-12.34-7.11-23.81-13.71-35.27-20.33-34.76-20.07-69.41-40.34-104.37-60.08-8.08-4.56-11.75-9.69-11.66-19.46,.51-50.5,.24-101.01,.24-151.52v-11.06c21.81,12.56,42.12,24.25,62.43,35.97,27.26,15.73,54.47,31.56,81.82,47.15,4.68,2.67,7.93,4.97,7.9,11.41-.3,54.06-.17,108.12-.2,162.18Zm-21.31-207.19c-39.09-22.61-78.18-45.24-118.97-68.85,14.09-8.2,26.94-15.58,39.68-23.14,3.95-2.34,6.72,.02,9.72,1.76,45.56,26.41,91.04,52.96,136.75,79.12,7.38,4.22,7.39,5.72,.01,10.15-33.63,20.22-33.5,20.44-67.19,.95Z"/>
</svg>