<?xml version="1.0" encoding="UTF-8"?>
<svg id="Layer_1" data-name="Layer 1" xmlns="http://www.w3.org/2000/svg" viewBox="0 0 800 800">
  <defs>
    <style>
      .cls-1 {
        fill: none;
      }

      .cls-2 {
        fill: #010101;
      }
    </style>
  </defs>
  <rect class="cls-1" width="800" height="800"/>
  <path class="cls-2" d="M732.11,623.5c-3.81,0-7.62,.12-11.43-.02-11.78-.44-20.87,4.03-25.86,14.95-2.36,5.17-4.22,5.17-7.95,1.31-9.79-10.13-19.4-20.53-29.99-29.77-7.44-6.49-6.9-10.68-1.27-18.53,53.25-74.32,71.96-156.66,55.46-246.75-8.73-47.64-28.04-90.71-56.98-129.43-4.16-5.56-4.96-8.99,.69-14.14,10.97-9.99,21.3-20.7,31.61-31.38,4.01-4.15,6-4.56,8.67,1.3,4.59,10.04,13.15,14.21,24.04,14.03,6.85-.11,13.71,.1,20.57-.05,15.53-.34,25.62-9.19,25.88-24.41,.5-28.94,.71-57.91-.14-86.83-.6-20.44-15.78-34.77-36.29-35.14-28.18-.51-56.37-.35-84.55-.05-12.7,.13-23.89,7.94-24.52,19.6-1.1,20.34-8.66,43.81,18.83,54.26-.89,1.61-1.12,2.4-1.63,2.91-11.01,11.08-22.4,21.79-32.93,33.31-5.52,6.04-9.04,6.14-15.83,1.23-78.35-56.64-165.05-74.88-259.54-54.36-43.32,9.41-82.58,28.16-118.24,54.49-3.27,2.42-6.12,7.47-11.42,2.11-12.8-12.96-25.93-25.59-40.11-39.52,19.01-6.19,23.03-19.45,21.7-35.7-.28-3.41,0-6.85-.05-10.28-.32-18.26-10.06-28.03-28.44-28.13-25.9-.14-51.8-.13-77.7,0-25.56,.13-40.31,14.78-40.53,40.47-.22,25.14-.11,50.28-.03,75.41,.06,22.55,8.36,30.61,31.29,30.66,4.57,0,9.15-.16,13.71,.03,11.72,.49,21.03-3.51,26-14.6,2.43-5.41,4.42-4.83,8-1.15,9.54,9.84,18.99,19.82,29.15,29,7.03,6.35,8.22,10.61,1.97,19.31-53.05,73.9-71.79,155.9-55.62,245.61,8.66,48.06,28.02,91.52,57.28,130.5,4.33,5.77,4.49,9.14-.89,14.12-10.89,10.09-21.26,20.75-31.56,31.45-4.03,4.19-5.97,4.48-8.64-1.33-4.78-10.43-13.63-14.78-24.96-14.52-6.85,.15-13.72-.15-20.57,.08-13.83,.47-24.54,9.59-24.81,23.27-.6,30.07-.86,60.19,.23,90.24,.69,18.9,15.85,32.47,34.67,32.76,28.94,.44,57.89,.13,86.84,.12,9.14,0,16.18-4,20.87-11.75,11.1-18.35,2.94-51.03-16.01-62.21,.51-.91,.64-1.31,.89-1.57,11-11.08,22.44-21.75,32.85-33.35,6.03-6.72,9.83-6.95,17.44-1.5,79.28,56.75,166.76,74.56,261.89,52.89,42.06-9.58,80.24-27.99,114.94-53.62,3.73-2.75,6.75-7.14,12.27-1.46,12.39,12.77,25.44,24.9,38.45,37.51-19.92,13.32-20.78,14.97-20.78,38.22,0,2.67-.02,5.33,0,8,.18,19.63,9.15,28.77,28.52,28.83,25.9,.08,51.8,.07,77.7,0,25.88-.07,40.24-14.24,40.46-40.21,.2-24.37,.06-48.75,.04-73.13-.03-25.32-7.95-33.1-33.68-33.11Zm8.94,108.11c.01,8.8-4.07,13.6-13.07,13.62-25.52,.04-51.04-.22-76.55,.17-11.01,.17-6.96-7.53-7.38-12.67-.45-5.48-1.78-12.02,7.82-11.06,5.66,.57,11.42,.25,17.13,.02,5.71-.23,10.25-2.65,12.63-8.19,2.29-5.33,.37-9.83-3.3-13.52-23.9-24.03-47.88-47.98-71.9-71.9-7.15-7.12-13.48-3.8-20,1.54-31.58,25.87-66.7,45.12-106.29,55.71-95.68,25.57-182.93,8.08-261.7-51.77-17.35-13.19-17.15-13.47-32.68,2.08-20.46,20.47-40.9,40.96-61.38,61.42-4.72,4.72-9.28,9.52-5.84,16.91,3.25,6.98,9.53,8.04,16.34,7.81,2.28-.08,4.57-.01,6.86-.01,13.82,0,17.88,5.8,14.29,19.52-1.13,4.3-3.93,3.97-6.91,3.97-25.9,.01-51.8,.03-77.7-.07-8.43-.03-12.5-4.68-12.51-12.95-.04-25.52,.22-51.04-.16-76.55-.14-9.06,5.82-7.62,10.7-6.99,4.92,.64,13.37-4.52,13.27,6.63-.06,6.47-.47,13.01,.23,19.41,1.27,11.56,12.36,16.6,20.62,8.66,24.7-23.75,48.77-48.16,72.86-72.54,6.9-6.99,3.57-13.64-1.81-20.18-22.73-27.59-40.55-58.07-51.35-92.22-31.09-98.39-16.15-189.31,45.17-272.45,2.48-3.37,5.21-6.56,7.86-9.8,5.47-6.69,5.33-13.1-.85-19.28-23.44-23.42-46.86-46.86-70.32-70.25-4.01-4-8.58-6.32-14.39-3.83-5.6,2.4-7.75,7-7.97,12.73-.14,3.8-.6,7.71,.03,11.41,1.96,11.48-3.05,14.2-13.8,13.58-7.71-.44-10.51-2.05-10.32-10.25,.54-23.6,.11-47.22,.22-70.84,.06-12.47,3.37-15.94,15.29-16,24.37-.12,48.77,.46,73.12-.26,11.32-.34,8.19,6.85,8.69,12.75,.57,6.72,.34,12.21-9.12,11.03-5.62-.7-11.49-.64-17.1,.14-12.07,1.7-16.62,13.02-8.21,21.68,23.62,24.3,47.74,48.13,71.84,71.95,6.97,6.89,13.63,3.86,20.15-1.57,29.28-24.4,62.01-43.01,98.52-53.68,97.89-28.62,187.93-12.32,269.27,49.7,17.11,13.05,17.62,13.23,32.84-1.96,20.22-20.17,40.4-40.39,60.58-60.6,4.89-4.9,10.24-9.74,6.56-17.75-3.47-7.54-10.29-8.18-17.4-8.06-1.9,.03-3.81,0-5.71,0-13.91,0-17.94-5.72-14.32-19.41,1.33-5.03,4.86-3.94,8.04-3.97,12.57-.1,25.14-.04,37.71-.04,12.19,0,24.38,.2,36.56-.06,10.02-.22,14.84,4.35,14.83,14.31-.03,24.76-.42,49.52,.19,74.26,.26,10.45-6.29,8.32-11.99,8.21-5.5-.11-13.1,2.7-12.13-7.97,.52-5.66,.24-11.43-.03-17.13-.26-5.72-2.68-10.19-8.39-12.41-5.41-2.1-9.75-.09-13.44,3.58-23.75,23.65-47.44,47.35-71.11,71.07-7.39,7.41-4.49,14.05,1.24,21.03,25.67,31.28,44.77,66.12,55.33,105.32,25.29,93.91,9.05,180.11-48.62,258.45-2.93,3.98-6.13,7.77-9.21,11.65-4.83,6.09-4.35,12.18,.9,17.47,23.88,24.05,47.87,48,72,71.8,3.58,3.53,8.05,5.47,13.52,2.83,5.08-2.45,7.45-6.38,7.78-11.66,.28-4.55-.18-9.16,.22-13.7,.35-3.9-2.37-9.97,2.38-11.2,6.02-1.57,12.84-.88,19.17-.08,3,.38,2.15,4.4,2.15,6.94,.04,25.14,0,50.27,.03,75.41ZM396.76,136.26c-147.2,1.02-266.26,122.73-265.19,271.09,1.06,146.3,122.72,266.43,268.7,265.33,149.4-1.13,269.19-121.5,268.08-269.38-1.12-149.04-122.18-268.06-271.59-267.03Zm1.94,512c-134.12-.66-243.14-110.75-242.39-244.78,.75-134.42,110.68-243.75,244.29-242.97,134.45,.79,243.9,110.79,243.02,244.24-.89,135.32-110.36,244.17-244.92,243.51Zm121.23-414.26c-7.62-4.16-15.65-7.85-23.88-10.58-48.69-16.16-98.68-17-148.87-10.43-23.7,3.1-47.01,9.01-68.03,21.4-16.97,10-26.22,23.54-26.04,44.53,.68,80.69,.43,161.38,.14,242.07-.05,15.04,5.71,26.35,17.23,35.37,11.89,9.32,25.58,14.98,39.88,19,52.22,14.69,105.01,15.33,158.07,5.31,18.73-3.54,36.86-9.1,53.38-18.97,16.58-9.91,25.49-23.49,25.02-43.94-.92-39.56-.27-79.16-.27-118.75,0-39.58-.77-79.19,.3-118.75,.59-21.89-8.78-36.36-26.93-46.26Zm-234.68,26.12c14.41-11.48,31.85-16.52,49.31-19.75,51.09-9.44,102.09-9.78,152.31,5.94,10.21,3.2,20.07,7.24,28.34,14.23,8.27,6.98,8.37,12.87-.02,19.66-13.06,10.56-28.9,15-44.8,18.84-23.03,5.57-46.5,7.68-76.51,7.67-25.78-.23-57.43-3.55-87.79-14.86-7.5-2.79-14.77-6.17-21-11.33-8.75-7.25-8.84-13.22,.17-20.4Zm236.14,266.03c-.32,7.77-7.07,11.38-12.98,14.78-17.72,10.19-37.36,14.53-57.21,17.97-17.27,2.99-34.73,3.79-50.64,3.46-33.35,.37-64.48-3.41-94.39-14.6-5.31-1.98-10.4-4.61-15.43-7.25-8.83-4.64-13.43-11.43-12.65-22.09,.79-10.97,.4-22.05,.09-33.07-.18-6.25,.96-8.19,7.54-5.22,51.55,23.29,105.65,25.16,160.71,18.67,24.27-2.86,47.81-8.19,69.73-19.4,3.93-2.01,5.57-.91,5.55,3.42-.09,14.45,.29,28.91-.3,43.34Zm-20.25-66.6c-24.58,10.9-61.9,17.91-108.47,17.89-24.17-.49-55.06-3.47-84.71-14.25-5.33-1.94-10.43-4.55-15.53-7.06-10.16-4.98-15.51-12.39-14.38-24.54,.99-10.56,.48-21.29,.11-31.93-.25-7.02,1.72-7.13,7.74-4.7,72.09,29.2,145,28.64,218.13,4.45,17.99-5.95,17.66-6.93,17.66,12.05,0,5.33-.71,10.77,.13,15.95,2.78,17.16-6.34,25.77-20.68,32.13Zm-2.76-84.06c-31.61,12.7-64.72,16.02-98.32,16.68-32.82-.69-65.29-3.59-96.16-15.93-5.26-2.1-10.23-4.99-15.2-7.75-7.71-4.28-11.08-10.66-10.6-19.76,.6-11.39,.34-22.84,.07-34.25-.16-6.82,1.47-7.26,7.83-4.69,71.38,28.78,143.61,28.14,216.32,5.25,.36-.11,.74-.2,1.09-.34q18.27-7.09,18.27,13.3c0,4.19-.61,8.48,.1,12.54,3.42,19.31-7.43,28.52-23.41,34.95Z"/>
</svg>