<?xml version="1.0" encoding="UTF-8"?>
<svg id="Layer_1" data-name="Layer 1" xmlns="http://www.w3.org/2000/svg" viewBox="0 0 800 800">
  <defs>
    <style>
      .cls-1 {
        fill: none;
      }
    </style>
  </defs>
  <rect class="cls-1" width="800" height="800"/>
  <path d="M415.61,488.62c5.33-3.29,11.98-9.88,14.61-8.54,7.05,3.58,12.37,10.55,19.43,17.16-15.73,15.53-30.24,30.11-45.18,44.22-1.6,1.51-6.99,1.64-8.52,.18-14.95-14.13-29.45-28.74-45.08-44.19,5.78-5.92,10.32-11.64,15.9-16.05,9.08-7.18,10.16,7.07,18.29,6.81,.33-2.44,1.06-5.29,1.07-8.15,.06-27.62-.29-55.24,.15-82.85,.14-8.9-3.1-11.27-11.6-11.24-83.89,.24-167.77,.25-251.66-.01-8.7-.03-11.57,2.72-11.43,11.42,.46,27.61,.18,55.24,.27,82.85,0,2.62,.57,5.24,.92,8.29,6.03-3.26,12.41-9.44,16.11-8.12,7.07,2.52,12.61,9.33,20.72,15.93-17.57,16.91-32.55,31.49-47.83,45.76-1.39,1.3-5.77,1.69-6.96,.58-15.49-14.51-30.66-29.37-45.56-43.81,13.5-20.35,16.52-21.21,33.48-9.54,.45-4.71,1.14-8.55,1.15-12.4,.08-34.26,.02-68.52,.03-102.79q0-16.11,15.59-16.14c90.88-.03,181.75-.03,272.63-.06,13.96,0,13.97-.07,13.98-13.69,0-22.72,.3-45.46-.18-68.17-.17-8.18,2.26-11.85,10.64-10.82,2.41,.3,4.92,.28,7.33-.01,7.77-.95,10.47,2.3,10.33,10.09-.4,23.42,.15,46.85-.42,70.27-.23,9.44,2.52,12.6,12.38,12.56,92.27-.36,184.55-.04,276.82-.45,10.55-.05,13.78,2.6,13.57,13.4-.68,35.3-.26,70.62-.21,105.93,0,3.64,.41,7.27,.69,11.9,6.17-3.77,12.67-10.22,15.38-8.9,6.85,3.34,11.99,10.18,18.93,16.67-11.1,11.25-21.42,21.94-32,32.37-17.35,17.11-17.37,17-34.88-.43-10.12-10.08-20.42-19.98-31.78-31.08,5.95-6.06,10.52-11.73,16.08-16.14,8.94-7.09,10.27,7.14,18.47,6.51,.26-2.37,.85-5.22,.86-8.07,.07-27.62-.21-55.24,.2-82.85,.12-8.08-2.16-11.08-10.59-11.06-84.24,.25-168.47,.18-252.71,.14-6,0-11.15-.03-11.09,8.41,.23,29.71,.09,59.43,.18,89.15,0,1.58,.91,3.16,1.48,4.98ZM208.39,142.37c14.82,14.74,18.41,28.87,7.81,49.49-7.34,14.27-13.65,21.14-29.75,22.45-27.33,2.22-27.24,3.36-27.24,30.36,0,2.45,.14,4.9-.02,7.34-.49,7.28-.26,12.75,10.07,12.37,17.48-.64,17.97,0,17.7-12.05-.16-7.39,2.03-10.82,9.69-11.44,8.68-.69,17.25-2.81,25.93-3.68,6.53-.65,8.92-3.9,11.19-9.96,6.93-18.54,14.54-36.88,23.03-54.75,3.03-6.38,1.69-9.94-1.95-14.83-6.81-9.16-18.56-19.28-17.82-28.12,.75-8.96,14.28-16.72,21.92-25.27,4.36-4.88,8.23-5.27,13.37-1.06,7.28,5.98,15.17,11.22,22.48,17.17,4.44,3.61,7.76,3.2,13.02,.78,18.31-8.41,37.23-15.49,55.64-23.7,3.7-1.65,7.91-5.63,8.84-9.31,2.3-9.08,2.94-18.6,4.03-27.96,.67-5.75,3.16-8.84,9.4-8.68,9.43,.24,18.87,.26,28.3-.04,6.73-.21,9.19,2.97,9.81,9.31,.91,9.38,1.88,18.84,4.13,27.95,.84,3.4,4.81,7.2,8.25,8.57,10.99,4.38,22.61,7.2,33.6,11.6,10.49,4.19,20.99,14.22,30.58,13.2,9.91-1.05,18.86-12.15,27.96-19.22,4.39-3.41,7.77-3.69,11.75,.48,6.75,7.07,13.66,14.02,20.79,20.7,4.6,4.3,4.19,7.89,.42,12.54-6.16,7.59-12.22,15.34-17.38,23.61-1.74,2.79-1.91,7.84-.66,11.01,7.53,19.06,15.43,38,23.86,56.68,1.65,3.66,5.71,7.62,9.45,8.67,8.34,2.35,17.14,3.52,25.82,4.13,8.59,.6,11.7,4.5,10.43,12.71-1.25,8.02,1.75,11.92,10.34,10.79,3.43-.45,7.4,.96,10.35-.3,2.98-1.27,6.91-4.63,7.12-7.34,.83-10.42,.94-21-.03-31.39-.28-3.03-4.63-7.37-7.83-8.13-9.47-2.26-19.26-3.43-28.98-4.25-8.64-.73-13.7-3.98-16.08-13.01-2.29-8.68-6.49-16.95-10.59-25.03-2.73-5.37-2.77-9.43,1.16-14.26,7.04-8.67,13.23-18.03,20.26-26.72,3.88-4.8,3.67-8.1-.74-12.44-18.45-18.12-36.7-36.44-54.82-54.88-3.96-4.03-7.06-4.48-11.57-.85-8.71,7-18.03,13.25-26.65,20.35-5.11,4.21-9.44,4.19-15.2,1.34-9.06-4.47-18.91-7.38-27.81-12.11-3.85-2.04-7.86-6.56-8.85-10.67-2.61-10.82-3.82-22.01-5.16-33.11-.67-5.56-3.01-7.81-8.73-7.77-26.2,.2-52.41-.1-78.61,.44-2.69,.05-7.01,4.09-7.64,6.92-2.26,10.2-3.6,20.65-4.61,31.07-.72,7.42-3.28,11.96-11.05,14.31-9.3,2.81-17.9,7.88-27.17,10.87-3.93,1.27-9.72,1.24-13-.83-10.01-6.33-19.01-14.24-28.88-20.82-2.26-1.51-7.77-1.55-9.53,.12-20.77,19.67-41.11,39.78-62.25,60.45,5,6.79,7.97,12.1,12.12,16.22Zm307.19,107c-4.29-31.63-18.76-57.78-44.26-76.97-36.61-27.54-76.93-32.74-118.65-14.13-40.88,18.24-63.65,50.98-68.54,95.71-.32,2.89,.44,8.4,1.26,8.51,7.16,.97,14.6,1.93,21.6,.74,2.36-.4,4.72-6.86,5.29-10.81,6.28-43.48,43.19-76.27,86.57-76.53,44.63-.26,81.9,31.1,88.31,75.24,1.5,10.3,4.44,15.97,14.09,12.96,16.12-.07,16.31-.1,14.33-14.72ZM205.44,754.04c.04,7.87-2.45,10.2-10.18,10.15-52.74-.28-105.49-.31-158.23-.02-8.43,.05-11.7-2.2-11.53-11.17,.52-26.19,.18-52.4,.18-78.61h.04c0-26.2,.38-52.42-.21-78.61-.2-9.04,3.01-11.21,11.41-11.16,52.74,.29,105.49,.27,158.23,.04,7.57-.03,10.33,2.05,10.29,10.06-.32,53.1-.31,106.21,0,159.32Zm-28.21-132.07c.04-6.82-2.65-9.17-9.32-9.14-34.94,.19-69.88,.25-104.82-.03-7.72-.06-9.37,3.39-9.25,10.2,.31,17.12,.1,34.25,.09,51.37,0,17.12,.19,34.25-.09,51.37-.11,6.78,1.55,10.25,9.29,10.19,34.94-.29,69.88-.24,104.82-.04,6.71,.04,9.3-2.24,9.26-9.09-.21-34.95-.19-69.9,.01-104.84Zm597.17,131.35c.04,8.06-2.12,10.93-10.56,10.87-52.43-.34-104.86-.37-157.28,0-9.29,.06-11.92-2.97-11.86-12.08,.38-52.44,.36-104.88,.02-157.32-.05-8.11,2.8-10.19,10.29-10.11,26.91,.29,53.83,.11,80.74,.12,26.21,0,52.43,.25,78.64-.14,7.87-.12,10.1,2.53,10.05,10.29-.31,52.79-.32,105.58-.03,158.37Zm-27.89-25.9c-.2-35.28-.19-70.55-.08-105.83,.02-6.16-2.25-8.78-8.61-8.75-35.27,.16-70.54,.23-105.8-.03-7.71-.06-9.37,3.4-9.25,10.23,.32,17.11,.1,34.23,.1,51.34,0,17.46,.22,34.93-.11,52.39-.13,6.86,2.45,9.17,9.18,9.13,35.27-.19,70.54-.13,105.8,.02,6.12,.03,8.8-2.06,8.76-8.5Zm-256.9,26.59c.12,7.9-2.68,10.16-10.34,10.13-53.06-.25-106.13-.22-159.19,0-7.24,.03-9.73-2.34-9.69-9.65,.23-53.43,.25-106.85-.01-160.28-.04-7.5,2.7-9.53,9.77-9.51,53.41,.19,106.83,.21,160.24-.05,7.79-.04,9.27,3.34,9.2,10.13-.25,26.89-.1,53.78-.11,80.66,0,26.19-.25,52.38,.14,78.57Zm-27.81-130.95c.07-7.73-2.5-10.36-10.29-10.29-34.24,.31-68.49,.28-102.74-.02-7.66-.07-10.58,2.4-10.39,10.23,.05,2.14,.09,4.28,.12,6.42,.22,14.98,0,29.97,.01,44.96,0,14.99,.23,29.98,0,44.96-.03,2.14-.07,4.28-.12,6.42-.18,7.67,2.35,10.39,10.21,10.31,34.24-.37,68.49-.39,102.74-.08,7.7,.07,10.49-2.34,10.43-10.14-.28-34.25-.27-68.51,.03-102.76Z"/>
</svg>