<svg id="Layer_1" data-name="Layer 1" xmlns="http://www.w3.org/2000/svg" width="240" height="80" viewBox="0 0 1354.15 424.15"><defs><style>.cls-1{fill:#326169;stroke:#020202;stroke-miterlimit:10;stroke-width:1.15px;}.cls-2{fill:#fff;}</style></defs><title>footer</title><rect class="cls-1" x="0.58" y="0.58" width="1353" height="423"/><path class="cls-2" d="M105.5,87c-3.17,0-5.74,2.24-5.74,5s2.57,5,5.74,5,5.75-2.24,5.75-5-2.58-5-5.75-5m20.1-10h-7.18L117,73.93A3,3,0,0,0,114.12,72H96.9A3,3,0,0,0,94,73.93L92.6,77H85.4a2.71,2.71,0,0,0-2.87,2.5v25A2.72,2.72,0,0,0,85.4,107h40.2a2.71,2.71,0,0,0,2.87-2.5v-25A2.71,2.71,0,0,0,125.6,77m-20.1,25C99.16,102,94,97.52,94,92s5.14-10,11.48-10S117,86.48,117,92s-5.14,10-11.49,10" transform="translate(0.58 0.58)"/><path class="cls-2" d="M98.94,319.29a3.6,3.6,0,1,0,4.1,3.57,3.87,3.87,0,0,0-4.1-3.57m14.35-7.15h-5.13l-1-2.19a2.12,2.12,0,0,0-2-1.38H92.79A2.12,2.12,0,0,0,90.73,310l-1,2.19H84.58a1.94,1.94,0,0,0-2,1.79v17.86a1.94,1.94,0,0,0,2,1.78h28.71a1.93,1.93,0,0,0,2-1.78V313.93a1.93,1.93,0,0,0-2-1.79M98.94,330c-4.53,0-8.21-3.2-8.21-7.14s3.68-7.14,8.21-7.14,8.2,3.19,8.2,7.14-3.67,7.14-8.2,7.14" transform="translate(0.58 0.58)"/><path class="cls-2" d="M157.9,319.29a3.6,3.6,0,1,0,4.1,3.57,3.86,3.86,0,0,0-4.1-3.57m14.35-7.15h-5.13l-1-2.19a2.12,2.12,0,0,0-2-1.38h-12.3a2.12,2.12,0,0,0-2.06,1.38l-1,2.19h-5.14a1.93,1.93,0,0,0-2,1.79v17.86a1.93,1.93,0,0,0,2,1.78h28.71a1.93,1.93,0,0,0,2.05-1.78V313.93a1.93,1.93,0,0,0-2.05-1.79M157.9,330c-4.53,0-8.21-3.2-8.21-7.14s3.68-7.14,8.21-7.14,8.2,3.19,8.2,7.14-3.67,7.14-8.2,7.14" transform="translate(0.58 0.58)"/><path class="cls-2" d="M217,319.29a3.6,3.6,0,1,0,4.1,3.57,3.87,3.87,0,0,0-4.1-3.57m14.35-7.15h-5.13l-1-2.19a2.12,2.12,0,0,0-2-1.38h-12.3a2.11,2.11,0,0,0-2,1.38l-1,2.19h-5.14a1.94,1.94,0,0,0-2,1.79v17.86a1.94,1.94,0,0,0,2,1.78h28.71a1.93,1.93,0,0,0,2.05-1.78V313.93a1.93,1.93,0,0,0-2.05-1.79M217,330c-4.53,0-8.2-3.2-8.2-7.14s3.67-7.14,8.2-7.14,8.2,3.19,8.2,7.14S221.53,330,217,330" transform="translate(0.58 0.58)"/><path class="cls-2" d="M275,319.29a3.6,3.6,0,1,0,4.1,3.57,3.87,3.87,0,0,0-4.1-3.57m14.36-7.15h-5.13l-1-2.19a2.12,2.12,0,0,0-2-1.38H268.85A2.11,2.11,0,0,0,266.8,310l-1,2.19h-5.14a1.94,1.94,0,0,0-2.05,1.79v17.86a1.94,1.94,0,0,0,2.05,1.78h28.72a1.93,1.93,0,0,0,2.05-1.78V313.93a1.93,1.93,0,0,0-2.05-1.79M275,330c-4.53,0-8.2-3.2-8.2-7.14s3.67-7.14,8.2-7.14,8.21,3.19,8.21,7.14S279.54,330,275,330" transform="translate(0.58 0.58)"/><rect class="cls-2" x="83.1" y="159.58" width="457.47" height="10.62"/><rect class="cls-2" x="83.1" y="186.58" width="457.47" height="10.62"/><rect class="cls-2" x="83.1" y="213.58" width="457.47" height="10.62"/><rect class="cls-2" x="83.1" y="240.58" width="457.47" height="10.62"/><rect class="cls-2" x="660.1" y="159.58" width="197.47" height="10.62"/><rect class="cls-2" x="660.1" y="186.58" width="197.47" height="10.62"/><rect class="cls-2" x="660.1" y="213.58" width="197.47" height="10.62"/><rect class="cls-2" x="660.1" y="240.58" width="197.47" height="10.62"/><rect class="cls-2" x="83.1" y="267.58" width="289.47" height="10.62"/><rect class="cls-2" x="660.1" y="77.26" width="116.47" height="21.91"/><rect class="cls-2" x="991.1" y="160.23" width="197.47" height="10.62"/><rect class="cls-2" x="991.1" y="187.23" width="197.47" height="10.62"/><rect class="cls-2" x="991.1" y="214.23" width="197.47" height="10.62"/><rect class="cls-2" x="991.1" y="241.23" width="197.47" height="10.62"/><rect class="cls-2" x="991.1" y="268.23" width="197.47" height="10.62"/><rect class="cls-2" x="991.1" y="295.23" width="197.47" height="10.62"/><rect class="cls-2" x="991.1" y="77.92" width="116.47" height="21.91"/></svg>