<?xml version="1.0" encoding="UTF-8"?>
<svg id="Layer_1" data-name="Layer 1" xmlns="http://www.w3.org/2000/svg" viewBox="0 0 800 800">
  <defs>
    <style>
      .cls-1 {
        fill: none;
      }
    </style>
  </defs>
  <rect class="cls-1" width="800" height="800"/>
  <path d="M763.66,664.43c-16.73-15.44-16.42-44.44,.65-59.88,11.36-10.28,12.41-16.57,4.85-30.33-4.28-7.79-8.69-15.51-13.09-23.23-9.41-16.54-15.15-19.71-32.26-13.39-10.42,3.85-10.94,.17-10.89-8.32,.24-42.28-.62-84.57,.34-126.83,.76-33.45-24.72-60.01-58.12-58.56-38.08,1.65-76.28,.38-116.6,.38,6.51-12.15,8.77-23.65,8.75-35.77-.16-76.1,0-152.2-.11-228.3-.05-38.46-21.1-59.48-59.34-59.5-78.73-.05-157.46-.04-236.19,0-38.4,.02-59.24,20.84-59.28,59.32-.07,71.65-.05,143.3,0,214.95,.01,16.35-1.96,33.02,8.72,49.29-40.17,0-78.34,1.36-116.36-.42-32.31-1.51-58.98,23.4-58.59,58,.86,76.98,.15,153.98,.32,230.97,.08,35.41,21.82,58.02,57.14,58.21,80.06,.44,160.13,.23,240.19,.05,14.03-.03,27.86-2.86,38.07-13.25,6.44-6.56,10.24-5.11,15.93,.47,6.44,6.31,14.71,9.61,23.76,11.13,21.68,3.63,43.68,3,65.18,1.17,23.35-1.99,38.01,4.37,47.06,26.89,6.38,15.86,13.98,17.43,29.98,12.16,20.04-6.6,46.62,9.28,50.14,29.96,2.59,15.23,8.5,20.3,24.22,20.52,11.12,.16,22.24,.11,33.36,.19,10.26,.08,18.46-4.72,19.17-14.7,1.22-17.15,11.84-24.03,25.1-31.74,10.15-5.91,17.81-6.39,28.06-2.33,14.4,5.7,21.03,2.87,28.97-10.16,5.32-8.73,10.36-17.63,15.42-26.52,7.63-13.42,6.58-20.17-4.54-30.43Zm-190.62-296.83c5.57-.04,7.88,1.75,7.8,7.65-.27,19.94-.1,39.89-.1,61.33-11.41-4.63-19.09-12.63-27.82-18.91-14.07-10.12-20.89-10.33-34.59-.24-8.53,6.29-17.02,12.63-28.35,21.03,0-23.46,.12-43.73-.08-64-.05-5.42,2.43-6.85,7.26-6.84,25.29,.09,50.59,.13,75.88-.03ZM332.26,44.59c24.87,.1,49.73,.08,74.6,.02,4.79-.01,8.62,.11,8.53,6.8-.29,20.3-.1,40.61-.1,64.09-12.07-8.97-21.41-15.64-30.44-22.71-10.19-7.98-19.96-8.14-30.23-.1-9.27,7.25-18.92,14.02-30.58,22.6,0-23.13,.18-43.39-.11-63.65-.09-6.46,3.31-7.08,8.33-7.06ZM164.94,367.56c25.77,.02,51.55,.05,77.32-.04,4.75-.02,7.42,1.23,7.36,6.75-.21,20.36-.08,40.72-.08,62.45-12.32-5.33-20.81-13.82-30.26-20.73-10.39-7.6-20.12-7.97-30.39-.09-9.35,7.18-18.95,14.03-30.59,22.62,0-23.53,.06-44.25-.05-64.97-.03-4.83,2.59-5.99,6.69-5.98Zm192.79,268.27c-.05,19.64-12.51,30.97-33.73,31.09-40.46,.23-80.92,.07-121.38,.07-38.68,0-77.37,.07-116.05-.02-26.01-.06-36.12-10.33-36.13-36.53-.04-75.62-.04-151.25,0-226.87,.01-25.96,10.11-35.87,36.47-36,11.12-.05,22.29,.73,33.33-.21,11.27-.97,15.69,1.84,14.97,14.27-1.18,20.39-.14,40.91-.4,61.37-.12,9.23,2.34,16.95,11.01,21.04,8.42,3.97,16.3,2,23.59-3.72,9.09-7.13,18.71-13.6,27.64-20.92,5-4.1,8.67-4.35,13.78-.12,8.9,7.36,18.54,13.8,27.6,20.97,7.29,5.77,15.23,7.77,23.59,3.82,8.5-4.02,11.41-11.62,11.3-20.93-.25-21.35,.41-42.72-.3-64.05-.32-9.62,2.95-12.17,12.06-11.72,14.19,.71,28.46-.12,42.67,.34,18.1,.58,29.93,12.39,29.98,30.57,.21,79.18,.22,158.37,0,237.55Zm11.29-291.58c-38.69,0-77.38,.04-116.07-.01-25.96-.04-37.22-11.36-37.22-37.41-.02-75.64-.04-151.27,0-226.91,.01-24.34,10.53-35.01,34.66-35.26,12.45-.13,24.98,.82,37.33-.27,11.32-1.01,13.14,3.73,12.81,13.6-.67,20.44-.02,40.93-.28,61.39-.12,9.19,2.45,16.58,10.76,21.31,9.24,5.26,16.83,1.49,24.54-3.87,11.6-8.06,21.93-23.71,34.55-22.84,11.64,.81,22.48,14.44,33.5,22.65,7.55,5.63,15.13,9.19,24.48,4.14,9.23-4.98,10.77-13.18,10.66-22.62-.23-20.91,.21-41.83-.22-62.73-.16-7.57,1.05-11.41,9.97-10.98,15.08,.74,30.24-.12,45.35,.38,17.97,.6,29.12,11.66,29.17,29.56,.22,79.64,.23,159.28,0,238.92-.06,19.53-12.76,30.81-33.95,30.9-40.02,.17-80.05,.05-120.07,.05Zm136.88,259.18c16.07,14.57,14.97,45.54-1.67,58.99-4.59,3.71-9.18,4.66-14.69,4.63-24.46-.14-48.91,.09-73.37-.1-23.71-.19-34.86-11.6-34.91-35.51-.08-38.26-.02-76.52-.02-114.78,0-37.37-.03-74.74,0-112.11,.03-26.49,10.48-36.79,37.32-36.87,12.45-.04,24.93,.5,37.34-.18,8.55-.47,10.43,2.81,10.24,10.76-.51,21.34-.05,42.71-.23,64.06-.08,9.09,2.13,17.12,10.59,21.45,8.82,4.52,16.97,1.93,24.82-3.79,11.41-8.32,22.03-23.66,34.5-22.92,11.55,.68,22.49,14.39,33.38,22.77,7.71,5.93,15.81,8.41,24.74,3.98,8.69-4.31,10.59-12.44,10.55-21.43-.1-21.35,.3-42.72-.2-64.06-.18-7.88,1.58-11.23,10.2-10.84,14.64,.66,29.35-.07,44.01,.27,18.61,.44,29.92,11.39,30.1,30.05,.37,40.04,.18,80.08,.03,120.12-.01,2.94,2.24,7.98-3.25,8.31-3.48,.21-6.97-2.24-8.03-5.99-1.45-5.12-2.43-10.38-3.28-15.64-1.72-10.68-7.85-17.04-18.56-17.57-13.31-.67-26.68-.76-40-.37-10.87,.31-18.14,6.78-18.41,17.4-.59,24.09-22.73,25.36-36.37,35.2-4.7,3.39-11.62-2.54-17.37-4.55-11.93-4.16-20.74-1.2-27,9.89-5.02,8.9-10.46,17.56-15.59,26.41-8.5,14.68-7.45,21.01,5.13,32.42Zm237.2-11.84c-14.07,8.39-18.23,20.74-14.92,36.44,.9,4.25,.86,9.04-.12,13.27-3.5,15.16,.41,27.2,13.75,35.62,6.01,3.79,5.77,8.14,1.87,13.12-4.71,6.02-6.06,14.7-13,18.16-1.66-.21-2.18-.13-2.53-.34-28.54-17.52-45.02,11.59-67.36,17.86-7.15,2.01-8.68,10.8-9.21,18.09-.65,8.86-3.89,12.58-13.97,12.86-14.19,.39-22.44-1.64-24.01-18.51-1.4-15-48.89-40.25-63.38-35.74-5.28,1.64-11.76,6.99-15.82,2.62-5.88-6.32-9.86-14.77-13.26-22.89-1.83-4.36,3.81-6.62,6.85-8.7,10.73-7.37,14.93-16.86,12.38-29.83-1.09-5.58-1.34-11.74-.18-17.26,3.27-15.59-.13-28.09-14.15-36.77-5.52-3.42-4.93-7.47-1.57-12.23,2.8-3.98,5.36-8.21,7.45-12.6,2.93-6.14,6.88-7.32,12.8-4.17,13.32,7.08,25.29,5.3,36.45-5.12,3.78-3.53,8.84-6.34,13.81-7.84,13.95-4.21,21.49-12.67,22.7-27.55,1.32-16.25,14.41-8.16,22.62-9.88,8.28-1.73,12.15,1.93,12.53,10.45,.63,13.92,7.52,23.09,21.27,27.2,4.56,1.36,9.22,3.93,12.65,7.19,11.94,11.35,24.74,14.81,39.82,6.69,4.81-2.59,8.25-1.02,10.64,4.05,2.27,4.81,4.94,9.49,7.96,13.86,3.41,4.94,3.4,8.73-2.05,11.99Zm-107.84-17.64c-33.56-.43-60.4,25.78-60.59,59.15-.19,32.84,25.63,59.26,58.53,59.9,33.31,.65,60.47-25.84,60.67-59.15,.19-32.8-25.92-59.49-58.62-59.91Zm-.62,95.82c-19.56,.31-36.39-16.59-36.31-36.46,.08-19.87,15.39-35.1,35.41-35.24,20.94-.15,36.25,14.97,36.12,35.67-.13,19.62-15.86,35.72-35.22,36.03Z"/>
</svg>