<?xml version="1.0" encoding="UTF-8"?>
<svg id="Layer_1" data-name="Layer 1" xmlns="http://www.w3.org/2000/svg" viewBox="0 0 800 800">
  <defs>
    <style>
      .cls-1 {
        fill: none;
      }

      .cls-2 {
        fill: #010101;
      }
    </style>
  </defs>
  <rect class="cls-1" width="800" height="800"/>
  <path d="M447.79,686.63c-126.72,0-253.45-.03-380.17,.07-6.47,0-11.01,.7-10.99-8.9,.32-188.85,.29-377.7,.06-566.55,0-7.36,2.27-8.68,9-8.62,36.64,.32,73.29,.25,109.93,.05,5.86-.03,9.61,1.17,12.85,6.79,6.13,10.65,16.22,16,28.56,16.1,23.28,.19,46.57,.23,69.85-.05,11.88-.14,21.73-5.48,27.61-15.7,3.49-6.06,7.62-7.17,13.8-7.14,35.5,.2,71,.48,106.49-.15,9.52-.17,11.8,2.18,11.78,11.74-.36,126.66-.24,253.33-.23,379.99,0,3.81-.25,7.7,.44,11.4,1.02,5.47,4.79,8.72,10.37,8.97,6.12,.27,10.27-2.95,11.59-8.88,.73-3.29,.46-6.83,.47-10.25,.02-132.77,.04-265.54,0-398.31,0-39.98-23.13-63.08-63.31-63.11-102.68-.07-205.36-.06-308.03,0-40.98,.02-63.89,22.89-63.9,63.68-.03,100.72,0,201.44,0,302.16,0,102.25-.07,204.49,.04,306.74,.04,34.66,23.19,59.76,57.12,59.91,106.87,.49,213.75,.47,320.63,.03,33.62-.14,56.96-24.88,57.46-58.48,.29-19.47-1.7-21.48-21.42-21.48ZM93.54,57.01c27.48-.19,54.97-.06,82.46-.06,77.11,0,154.23,.1,231.34-.08,16.42-.04,28.85,5.66,36.97,23-32.22,0-62.67,0-93.12,0-12.6,0-25.2,.14-37.79-.05-8.65-.13-14.95,2.19-16.12,12.08-.93,7.86-6.17,10.86-13.62,10.85-21.38-.02-42.76-.02-64.13,0-7.45,0-12.71-2.96-13.63-10.84-1.25-10.71-8.41-12.14-17.26-12.11-40.46,.13-80.93,.06-121.4,.04-2.21,0-4.42-.23-6.79-.37,5.09-15.27,15.38-22.35,33.1-22.48ZM444.34,720.89c-5.11,13.89-17.08,22.7-33.56,22.91-23.66,.3-47.33,.1-71,.1-81.31,0-162.62,.04-243.93-.02-19.72-.01-32.06-8.46-37.32-24.07-2.66-7.89-1.49-10.5,7.54-10.45,61.84,.34,123.68,.18,185.52,.18,61.46,0,122.92,.23,184.38-.23,10.24-.08,11.57,2.92,8.38,11.58Zm322.09-138.92c-.56-5.3-.88-10.72-2.24-15.84-14.99-56.73-50.41-94.42-108.2-105.55-58.15-11.2-105.94,9.52-140.34,58.25-9.25,13.1-20.58,19.4-36.55,19.08-23.28-.46-46.57-.03-69.86-.17-7.4-.04-14.72,.38-20.79,4.91-22.34,16.68-44.38,17.47-67.07,.37-7.59-5.71-16.98-5.68-24.79-.17-21.64,15.3-42.38,17.61-65.21,1.24-10.54-7.55-21.08-3.72-29.29,6.5-7.88,9.81-15.22,20.05-22.71,30.17-6.97,9.42-7.03,18.99-.08,28.45,7,9.53,14.59,18.66,21.09,28.52,7.3,11.08,17.01,14.81,30.05,14.75,81.69-.36,163.39,.13,245.08-.42,18.66-.13,31.39,6.42,42.05,21.9,34.29,49.8,97.85,70.48,155.01,51.72,56.22-18.45,94.55-71.69,94.41-133.85-.08-1.51-.13-5.71-.57-9.88Zm-100.67,121.72c-48.9,15.36-100.66-.72-128.78-42.13-15.78-23.23-35.87-32.75-63.6-32.46-79.36,.83-158.74,.16-238.11,.48-8.87,.04-14.5-2.37-19.8-9.81-18.16-25.49-18.21-25.05,.13-49.6,4.37-5.85,7.6-5.34,12.97-2.62,39.3,19.9,29.98,19.75,69.86-.57,7.64-3.89,13.48-3.8,21.04,.08,40.27,20.63,30.49,20.23,70.87-.12,8.78-4.43,17.46-6.6,27.32-6.35,20.21,.51,40.46-.26,60.67,.26,24.69,.64,42.77-9.45,56.83-29.78,25.56-36.97,61.62-54.07,106.35-49.46,45.32,4.66,76.42,29.85,94.45,71.32,5.84,13.43,7.99,27.72,8.16,37.17-.12,54.28-32.58,99.23-78.35,113.61ZM251.29,171.48c-63.09,.16-114.22,51.39-114.22,114.45,0,63.04,51.15,114.3,114.23,114.47,63.04,.17,114.57-50.95,114.81-113.9,.24-63.56-51.29-115.18-114.82-115.02Zm58.31,185.34c-17.07,13.43-36.3,20.32-57.95,20.7-21.65-.37-40.9-7.18-57.96-20.65-5.77-4.56-6.96-7.39-.5-12.75,33.44-27.79,83.26-27.8,116.81-.05,6.43,5.32,5.45,8.15-.39,12.75Zm-89.87-87.97c-.08-17.34,14.73-31.51,32.62-31.18,17.19,.31,31.49,14.83,31.09,31.58-.4,17.05-14.71,30.71-32.06,30.63-17.3-.08-31.57-14.07-31.65-31.03Zm110.72,62.31c-10.73-8.61-21.69-16.82-34.55-22.01-6.51-2.62-2.08-5.86-.17-8.71,11.74-17.53,14.03-35.94,4.73-55.16-13.69-28.3-47.73-39.17-74.92-24.16-27.73,15.31-37.08,50.18-19.46,76.7,5.54,8.34,4.06,10.61-4.27,13.99-10.61,4.29-19.72,11.45-28.31,19.05-22.74-28.48-16.31-79.79,13.39-109.57,33.03-33.11,85.45-35.98,121.98-6.67,35.31,28.32,44.9,79.3,21.57,116.54Zm363.9-35.99c42.68-9.04,72.47-46.05,72.64-89.29,.19-46.84-35.46-86.17-82.62-91.14-45.52-4.79-88.82,26.46-98.4,71.04-.69,3.21,.15,6.96-4.22,8.49-8.18,2.88-22.23-1.42-27.66-8.68-11.99-16.03-34.45-18.77-49.62-6.05-15.56,13.05-16.5,36.44-2.04,50.68,14.1,13.88,38.37,13.88,49.44-2.43,7.32-10.78,15.67-10.87,25.99-10.65,5.23,.11,6.92,2,8.09,7.09,8.8,38.21,32.74,61.93,70.72,70.93,6.68,1.58,7.41,4.35,7.34,9.89-.23,17.54-.39,35.1,.07,52.64,.18,6.78-1.61,10.74-7.68,14.61-12.35,7.87-17.32,20.05-14.67,34.59,2.81,15.36,15.47,26.38,30.91,27.68,15.24,1.29,29.83-8.07,34.92-22.41,5.43-15.28,.61-31.26-13.39-40.02-5.65-3.54-7.63-7.12-7.48-13.55,.4-17.92,.34-35.86,.03-53.78-.1-5.83,1.15-8.27,7.62-9.64Zm-168.63-78.19c-7.06-.5-11.03-5.09-10.43-12.21,.54-6.52,4.82-10.31,11.39-10.17,7.25,.15,10.54,4.83,11.34,11.12-1.23,7.54-5.18,11.77-12.3,11.27Zm160.88,184.09c-.43,7.11-5.08,11.03-12.14,10.54-6.5-.45-10.45-4.72-10.33-11.27,.13-7.13,4.57-10.76,11.6-11.3,7.02,1,11.3,4.88,10.87,12.02Zm-11.58-126.66c-38.16-.24-68.76-31.4-68.3-69.55,.45-37.58,31.38-67.89,69.03-67.66,38.17,.23,68.78,31.39,68.31,69.53-.46,37.57-31.41,67.91-69.04,67.67Zm-275.24,186.83c-4.44-22.99-22.48-37.78-47.43-37.85-67.12-.21-134.25-.08-201.38-.05-7.28,0-14.41,.91-21.15,4.06-19.35,9.04-30.33,29.53-26.45,49.61,4.29,22.22,21.76,37.42,45.16,37.76,34.32,.5,68.65,.13,102.97,.13v.05c32.8,0,65.6-.01,98.4,0,7.67,0,15.25-.52,22.41-3.61,19.86-8.58,31.42-29.68,27.47-50.1Zm-45.95,30.63c-34.3,.34-68.61,.11-102.92,.12-33.54,.01-67.09,.28-100.63-.09-18.99-.21-30.05-16.9-22.26-32.79,4.28-8.72,11.74-12.8,21.29-12.8,68.23-.05,136.46-.16,204.69,.09,13.92,.05,23.58,10.14,23.52,22.82-.06,12.72-9.67,22.51-23.69,22.65Zm310.53-251.89c-3.62,.03-6.72-1.34-9.24-3.83-7.3-7.22-14.66-14.38-21.72-21.83-4.83-5.1-5.5-11.11-.43-16.3,5.05-5.17,10.75-4.28,16.43-.15,5.56,4.04,8.55,14.25,15.89,12.12,6.11-1.77,10.53-9.42,15.65-14.51,6.74-6.7,13.28-13.61,20.19-20.13,5.11-4.82,11.18-5.47,16.38-.53,5.22,4.96,5.01,11.23,.11,16.27-14.84,15.26-30.01,30.21-45.1,45.23-2.21,2.2-5,3.42-8.17,3.65ZM164.73,480.61c-7.02,.33-14.3-.64-15.89-9.83-1.11-6.4,2.16-11.82,8.67-12.43,8.56-.8,18.8-4.38,24.16,6.44,4.45,8.98-2.86,15.87-16.95,15.82Zm57.54,0c-8.29,.29-16.05-1.28-16.18-11.34-.13-10.04,7.46-11.9,15.84-11.67,5.62,.15,11.61-.78,15.62,4.54,2.66,3.54,3.39,7.45,1.34,11.7-3.53,7.33-10.18,6.73-16.62,6.76Zm56.99,0c-7.05,.33-14.32-.67-15.88-9.87-1.09-6.41,2.19-11.8,8.71-12.4,8.56-.78,18.81-4.37,24.14,6.48,4.42,8.99-2.89,15.85-16.98,15.78Zm58.45,0c-8.55,.31-17.11-.72-17.06-11.56,.05-10.85,8.7-11.48,17.19-11.49,8.18,0,16.2,1,16.48,11.06,.31,10.84-7.95,12.28-16.61,11.98Z"/>
  <path class="cls-2" d="M675,549.33c-25.25,.24-45.59,20.9-45.38,46.1,.21,25.17,20.97,45.57,46.15,45.33,25.24-.23,45.61-20.92,45.4-46.1-.22-25.18-20.99-45.58-46.17-45.34Zm.04,68.53c-12.72-.21-23.02-11.09-22.48-23.74,.53-12.35,10.81-22.05,23.17-21.86,12.28,.19,22.4,10.34,22.52,22.58,.13,12.69-10.5,23.23-23.21,23.02Z"/>
</svg>