<?xml version="1.0" encoding="UTF-8"?>
<svg id="Layer_1" data-name="Layer 1" xmlns="http://www.w3.org/2000/svg" viewBox="0 0 800 800">
  <defs>
    <style>
      .cls-1 {
        fill: none;
      }
    </style>
  </defs>
  <rect class="cls-1" width="800" height="800"/>
  <path d="M746.82,532.67c-.35-13.91-8.04-21.33-22.14-21.74-4.31-.13-8.63-.04-12.94-.04-6.07,.01-10.62-2.64-13.29-8.04-2.86-5.77-.71-10.61,3.42-14.87,2.18-2.25,4.43-4.45,6.62-6.68,13.67-13.91,13.66-23.13-.04-37.04-2.2-2.23-4.44-4.43-6.66-6.64q-25.46-25.36-52.74-2.79c-4.53,3.75-9.15,5.73-15.05,3.28-5.96-2.48-7.95-6.98-7.74-13.05,.15-4.31,.17-8.63-.02-12.94-.6-13.23-6.48-20.13-19.79-21.59-5.68-.62-7.28-2.6-7.19-7.94,.25-14.11,.6-28.25-.11-42.34-.44-8.73,2.05-11.38,11.06-11.19,29.41,.6,58.84,.46,88.26,.14,23.4-.25,41.34-16.07,41.46-37.64,.36-62.34,1.79-124.75-.67-187-1.87-47.27-42.79-79.33-82.05-79.16-177.31,.74-354.62,.31-531.93,.36-6.24,0-12.49-.19-18.66,1.57-32.17,9.2-52.06,34.88-52.1,68.39-.11,105.86-.04,211.73-.04,317.6,0,104.69,.55,209.38-.4,314.06-.23,25.72,15.8,48.5,47.58,48.09,90.21-1.15,180.44-.4,270.67-.4,61.2,0,122.39,.08,183.59-.04,27.31-.05,42.81-15.52,43.4-42.9,.14-6.27,.04-12.55,.03-18.82,0-3.66,.1-6.25,5.18-7.27,18.27-3.67,21.68-8.33,21.75-26.98,0-2.35,.14-4.71-.02-7.06-.43-6.55,1.84-11.59,8.13-14.14,6.4-2.6,11.35,.08,15.69,4.75,2.67,2.87,5.48,5.61,8.36,8.27,10.44,9.63,20.83,9.7,31.14-.09,7.67-7.29,15.2-14.75,22.43-22.47,8.82-9.42,8.81-19.79,.27-29.37-3.9-4.38-8.61-8.12-12.12-12.77-6.33-8.38-1.8-18.8,8.6-20.02,5.42-.63,10.98,.03,16.46-.3,13.77-.84,21.36-8.76,21.64-22.64,.2-10.19,.24-20.39-.02-30.58ZM663.63,47.66c25.3,2.73,47.17,23.29,52.55,49.91,1.38,6.85,2.17,13.95,2.19,20.94,.18,54.83,.13,109.66,.08,164.49-.02,17.94-6.11,24.21-23.87,24.3-28.21,.14-56.43-.37-84.63,.27-9.31,.21-10.93-3.1-10.8-11.47,.47-30.15,.18-60.31,.19-90.47,0-28.2-.04-56.4,.02-84.6,.03-11.79,1.3-23.36,6-34.4,11.02-25.92,34.28-41.56,58.28-38.98Zm-87.13,691.86c-1.02,7.53-6.96,12.12-14.63,13.32-3.84,.6-7.82,.39-11.74,.39-148.67,.02-297.35,.02-446.02,.01-22.62,0-27.59-4.97-27.59-27.68,0-207.81-.01-415.62,0-623.43,0-37.07,17.68-54.72,54.73-54.73,153.38,0,306.77,0,460.15,0h14.44c-28.57,28.37-28.83,61.82-28.6,95.91,.53,78.42,.13,156.84,.23,235.26,0,7.01,.72,12.31-9.74,12.44-10.09,.13-15.65,7.94-16.31,18.2-.35,5.47-.04,10.98-.15,16.46-.11,5.52-2.41,9.75-7.57,12.18-5.66,2.67-10.63,1.34-15.13-2.61-.88-.77-1.71-1.61-2.57-2.42-20.94-19.93-23.04-20.13-45.05-.55-4.57,4.06-9.27,3.46-14.21,3.47-62.77,.06-125.53,.03-188.3,.05-3.52,0-7.14-.27-10.55,.4-6.2,1.21-9.64,5.35-9.15,11.73,.45,5.8,3.91,9.28,9.92,9.65,3.52,.22,7.05,.25,10.58,.25,56.1,.01,112.19,.14,168.29-.15,7.42-.04,11.39,1.02,11.89,9.59,.49,8.51,8.46,12.75,13.65,18.46,4.29,4.72,8.62,9.12,5.64,16.46-3.07,7.57-9.17,8.29-16.2,8.84-61.83,4.83-123.76,1.44-185.63,2.48-3.13,.05-6.4-.21-9.34,.62-5.88,1.66-9.49,5.63-8.77,12.12,.65,5.87,4.4,9.03,10.17,9.59,3.11,.3,6.27,.17,9.41,.17,47.07,0,94.15,.4,141.22-.29,10.77-.16,10.82,4.62,11,12.57,.19,8.4-.92,12.33-11.18,12.19-46.67-.65-93.36-.28-140.04-.28-2.75,0-5.49-.06-8.24,.02-7.33,.21-12.25,3.7-12.32,11.25-.07,7.76,5.14,11,12.39,11.04,17.26,.1,34.52,.06,51.78,.06,31.38,0,62.79,.69,94.14-.27,17.36-.53,34.01,5.07,51.3,3.91,5.33-.36,8.26,3.4,10.32,8.11,2.46,5.62,.19,9.98-3.25,13.92-7.07,8.1-16.72,14.12-17.33,26.87-.25,5.3-6.45,2.81-9.88,2.82-56.88,.16-113.76,.11-170.64,.12-3.14,0-6.38-.38-9.38,.29-5.97,1.33-9.73,5.14-9.54,11.58,.18,5.94,3.89,9.34,9.45,10.34,3.43,.62,7.03,.42,10.55,.42,62.77,.02,125.53,.12,188.3-.13,7.22-.03,12.38,1.88,17.49,7.14,14.11,14.53,23.2,14.19,37.82-.26,2.23-2.2,4.44-4.44,6.69-6.61,4.08-3.94,8.84-5.07,14.04-2.76,5.06,2.24,7.89,6.34,8.17,11.91,.2,3.91,.06,7.84,.09,11.76,.11,16.38,4.35,21.59,20.39,24.45,2.77,.49,5.69,.09,5.63,4.05-.15,9.79,.46,19.69-.84,29.32Zm133.04-175.74c-14.84-.54-26.25,7.7-31.56,22.07-5.01,13.54-2.79,26.1,7.12,37.15,3.24,3.61,10.85,7.31,8.48,11.23-4.52,7.48-11.46,14.04-18.71,19.09-3.69,2.57-6.68-4.08-9.64-6.83-14.61-13.57-31.96-15.41-46.97-4.77-9.76,6.92-14.56,17-14.37,28.22,.21,11.95-2.08,18.52-14.97,13.93-12.99,3.62-17.34-.9-16.41-13.78,1.11-15.25-6.89-26.32-20.84-32.26-13.96-5.94-26.7-3.16-38.08,6.99-3.6,3.21-7.3,10.85-11.14,8.47-7.43-4.59-13.74-11.68-18.95-18.87-2.59-3.58,3.5-6.29,6.03-8.81,9.93-9.89,14.47-21.29,11.17-35.18-3.95-16.67-17.44-27.36-36.53-26.85-10.23,.27-13.33-3-11.65-12.4,.14-.76,.02-1.57,.02-2.35,0-16.09,0-16.28,15.57-16.55,14.57-.26,24.68-7.41,30.45-20.15,6-13.26,3.81-25.82-5.38-37.39-3.44-4.33-12.3-7.61-9.47-13.05,3.81-7.3,11.05-13.2,17.8-18.46,4.39-3.42,6.39,2.85,8.72,5.19,10.8,10.87,23.1,16.13,38.29,11.3,15.79-5.03,24.69-16.79,23.98-34.76-.45-11.3,3.49-14.58,13.76-12.98,1.91,.3,3.96,.32,5.87,0,9.27-1.58,11.82,2.17,11.61,11.4-.35,16.12,6.35,29.03,22.13,35.36,15.73,6.31,29.45,2.13,40.35-10.2,5.73-6.48,10-7.62,15.28-.05,1.77,2.53,4.14,4.8,6.64,6.63,6.95,5.11,7.3,9.32,.29,15.29-13.09,11.14-16.56,25.7-9.92,41.44,6.56,15.57,19.54,21.95,36.13,20.3,8.48-.84,11.48,2.42,10.24,10.51-.23,1.53-.27,3.17,0,4.69,2.25,12.42-1.92,16.91-15.33,16.42Zm-325.27,121.05c35.64,0,71.28,.1,106.92-.08,8.19-.04,15.81,1,16.08,10.85,.28,10.05-7.47,11.42-15.59,11.42-72.46-.03-144.92-.03-217.37,0-8.15,0-15.84-1.45-15.48-11.52,.35-9.9,8.04-10.79,16.17-10.75,36.42,.17,72.85,.07,109.27,.07Zm-2.46-273.28c-34.85,0-69.7,.03-104.55-.05-3.87,0-7.86-.19-11.58-1.13-5.35-1.36-7.3-5.7-6.9-10.84,.36-4.6,2.55-8.4,7.51-9.24,3.83-.64,7.77-.77,11.67-.77,70.09-.04,140.18-.04,210.27-.01,3.51,0,7.05,.06,10.53,.5,5.5,.71,8.18,4.48,8.56,9.63,.43,5.77-2.31,9.95-8.11,11.2-3.39,.73-6.99,.68-10.5,.68-35.63,.04-71.26,.03-106.9,.03Zm98.87-235.52c-.09-19.47-8.29-27.62-27.92-27.65-24.57-.04-49.13,0-73.7,0-.24-.85-.48-1.69-.72-2.54,16.71-11.56,33.53-22.97,50.09-34.74,6.66-4.74,17.14-8.86,9.83-19.83-7.24-10.86-14.98-3.36-21.92,1.4-23.24,15.95-46.33,32.1-69.55,48.08-16.25,11.19-23.59,10.99-40.07-.42-24.78-17.16-49.63-34.22-74.4-51.4-6.16-4.27-12.43-4.31-16.47,1.78-3.8,5.74-2.65,12.04,3.8,16.29,3.27,2.15,6.5,4.36,9.71,6.59,15.51,10.8,31,21.61,46.5,32.42-21.4,2.37-42.03,3.13-62.57,2.21-42.63-1.92-39.77,13.36-39.19,41.95,0,.39,.05,.78,.07,1.17,.31,9.72,5.03,16.91,14.28,19.2,7.3,1.8,8.64,6.3,9.82,12.3,6.13,31.03,12.28,62.05,18.83,92.99,4,18.9,15.54,27.94,34.87,27.98,50.17,.08,100.35,.09,150.52,0,19.17-.04,31.49-10.41,35.28-29.39,5.73-28.72,11.37-57.46,17-86.21,1.7-8.68,2.76-16.56,14.28-19.26,7.81-1.83,11.19-10.39,11.56-18.8,.21-4.69,.07-9.4,.05-14.1Zm-46.62,44.74c-6.36,29.35-12.12,58.84-17.84,88.32-1.92,9.92-7.65,13.25-17.35,13.2-47.77-.25-95.55-.23-143.32-.02-10.78,.05-16-3.87-18.01-15.14-5.12-28.79-11.39-57.39-17.67-85.96-1.68-7.63,.37-9.32,7.86-9.24,32.89,.37,65.79,.16,98.68,.16,33.29,0,66.57,.18,99.86-.15,7.03-.07,9.52,.9,7.8,8.82Zm13.58-30.16c-40.32-.37-80.65-.17-120.97-.17s-80.65-.26-120.97,.21c-8.47,.1-10.34-2.54-10.31-10.52,.03-7.77,2.4-9.66,9.96-9.63,80.65,.27,161.3,.25,241.95,.03,7.47-.02,11.24,.91,11.17,9.87-.06,8.5-2.91,10.29-10.83,10.22Zm-217.63,209.07c-.39-10.97-7.01-17.41-18.07-17.72-15.68-.43-31.39-.46-47.07,0-11.73,.35-17.76,6.89-18.23,18.73-.3,7.44-.06,14.9-.06,22.35,0,7.84-.23,15.69,.05,23.53,.41,11.76,6.58,18.52,18.09,18.85,15.68,.45,31.39,.4,47.07,.03,11.06-.26,17.79-6.56,18.2-17.56,.61-16.05,.59-32.16,.01-48.21Zm-41.71,43.48q-20.23,0-20.23-20.03,0-19.4,19.88-19.4t19.86,20.21q0,19.22-19.51,19.22Zm41.86,82.96c-.37-12.87-7.06-19.54-19.69-19.83-14.85-.34-29.71-.36-44.56,0-12.45,.31-18.95,6.67-19.24,18.85-.36,15.23-.32,30.48-.02,45.71,.23,12.05,6.79,18.69,18.9,19.36,7.4,.41,14.85,.08,22.28,.09,7.04,.01,14.08,.17,21.11-.02,14.15-.38,20.96-6.85,21.27-20.8,.32-14.45,.37-28.92-.04-43.36Zm-42.24,41.4q-19.86,0-19.86-20.37,0-19.13,18.99-19.13h1.17q19.61,0,19.61,19.45,0,20.05-19.9,20.05Zm41.96,80.32c-.54-10.81-7.61-16.9-18.59-17.11-15.24-.29-30.49-.32-45.73,0-11.81,.25-18.49,7.21-18.93,19.18-.27,7.41-.05,14.84-.06,22.27,0,7.42-.16,14.85,.03,22.27,.31,12.54,5.91,19.4,18.14,19.99,15.6,.74,31.27,.65,46.88,.06,10.62-.4,18-6.23,18.36-17.45,.53-16.39,.72-32.83-.1-49.2Zm-41.32,44.54q-20.51,0-20.51-20.97,0-18.58,18.35-18.58c.39,0,.78,0,1.17,0q20.24,0,20.24,20,0,19.56-19.26,19.56Zm402.45-219.09c-41.37-1.07-76.55,32.36-77.36,73.51-.8,40.79,32.13,74.79,73.5,75.87,41.08,1.08,74.74-31.38,75.89-73.17,1.1-40.17-31.98-75.17-72.02-76.21Zm-2.89,127.3c-28.88-.19-52.12-23.48-52.16-52.26-.04-29.35,23.56-52.69,53.03-52.47,29.48,.23,52.45,23.74,52.1,53.33-.34,28.63-24,51.59-52.97,51.4Zm-220.03-309.78c1.55-16.76,2.85-33.54,4.79-50.25,.84-7.21,4.49-13.05,13.1-11.65,7.7,1.26,9.76,7.04,9.07,14.07-1.64,16.74-3.3,33.48-5.05,50.22-.78,7.46-4.07,13.27-12.52,12.24-8.19-.99-10.69-6.98-9.39-14.63Zm-82.78-5.16c.2,2.34,.41,4.67,.58,7.01,.51,6.73-1.92,11.99-8.99,12.79-7.45,.84-11.71-3.48-12.49-10.88-1.79-17.09-3.48-34.19-5.16-51.3-.73-7.44,1.01-13.79,9.68-14.43,8.34-.62,11.42,4.66,12.1,12.47,1.29,14.79,3.12,29.53,4.73,44.29-.15,.02-.3,.03-.45,.05Zm52.54-18.53c0,8.96,.16,17.93-.04,26.89-.15,6.71-3.41,11.56-10.49,11.51-7.39-.05-11.25-4.57-11.26-12.07,0-17.54-.04-35.08,.02-52.62,.03-7.37,3.56-12.04,11.2-12.07,7.27-.02,10.32,4.84,10.5,11.47,.25,8.96,.06,17.93,.07,26.89Z"/>
</svg>