<?xml version="1.0" encoding="UTF-8"?>
<svg id="Layer_1" data-name="Layer 1" xmlns="http://www.w3.org/2000/svg" viewBox="0 0 800 800">
  <defs>
    <style>
      .cls-1 {
        fill: none;
      }

      .cls-2 {
        fill: #0b0b0b;
      }
    </style>
  </defs>
  <rect class="cls-1" width="800" height="800"/>
  <path class="cls-2" d="M468.03,345.91c-.44,8.12-5.22,12.85-13.03,12.46-7.66-.38-12.94-5.79-12.45-13.55,.44-6.86,5.03-11.82,12.76-11.81,8.29,.02,12.48,4.48,12.72,12.9Z"/>
  <path d="M51.33,407.17c-9.26,6.42-17.11,9.17-23.46,.56-6.5-8.81-.34-15.15,5.77-21.12,6.48-6.33,12.81-12.8,19.23-19.19,7.52-7.5,14.99-7.47,22.49,.1,6.07,6.13,12.19,12.2,18.34,18.25,5.97,5.88,12.49,11.87,6.97,21.13-5.6,9.4-13.73,6.36-22.77,2.04-.21,27.35,4.04,52.92,11.13,78.02,41.52,147.01,177.09,244.29,329.38,236.56,5.55-.28,11.33-1.59,16.1,2.57,4.31,3.75,5.79,8.57,3.96,14.01-2.04,6.08-6.83,8.35-12.95,8.88-24.18,2.07-48.48,1.77-72.26-2.24-135.76-22.88-229.6-98.48-280.63-226.38-14.13-35.42-20.09-72.86-21.29-113.18ZM717.34,253.15c-59.66-128.72-194.21-210.03-333.97-201.7-10.02,.6-22.06,.26-21.12,14.51,.87,13.2,11.98,12.13,21.83,11.42,20.74-1.5,41.64-1.06,61.96,2.59,135.75,24.34,224.61,102.66,266.12,234.13,7.85,24.88,11.29,50.75,11.34,77.93-9.1-4.49-17.08-7.26-22.93,1.96-5.5,8.68,.39,14.46,6.08,20.09,6.45,6.37,12.85,12.77,19.23,19.21,7.43,7.5,14.88,7.88,22.48,.29,6.41-6.4,12.76-12.86,19.27-19.16,6.21-6.02,11.88-12.49,5.69-21.27-6.32-8.96-14.24-5.18-23.42,.1-1.65-49.82-12.19-96.1-32.57-140.08Zm-327.93-91.49c-5.13,9.48,1.6,19.17,14.88,18.47,15.85-.83,23.77,4.88,25.66,20.73,1.46,12.28,8.38,19.31,21.61,21.81,14.35,2.72,28.05,8.9,40.39,16.88,9.63,6.23,17.65,5.9,27.44,.16,20.19-11.86,20.46-11.4,37.23,5.48,.3,.31,.61,.61,.91,.92,15.13,15.42,15.79,15.82,4.58,34.15-6.77,11.08-6.68,20.01,.34,30.84,8.21,12.66,13.48,26.98,16.85,41.75,2.03,8.88,6.09,15.02,15.63,16.49,17.62,2.7,29.42,9.67,26.07,30.89-1.21,7.63,4.91,12.98,13.08,12.76,8.29-.22,12.49-5.65,12.24-13.69-.32-10.33-1.52-20.63-2.02-30.95-.39-8.03-4.24-13.74-12.01-14.54-22.39-2.31-30.64-16.65-38.7-36.01-7.23-17.38-8.99-30.72,2.64-45.58,4.8-6.14,5.93-13.13,.52-20.23-13.96-18.3-29.96-34.48-48.46-48.2-5.03-3.73-10.77-5-15.55-.93-18.03,15.36-36.07,13.75-54.71,1.44-2.81-1.86-6.31-3.39-9.6-3.67-11.21-.95-14.33-8.42-16.93-17.82-7.11-25.65-7.42-25.56-33.74-27.63-2.15-.17-4.3-.29-7.14-.48-7.28,.26-16.18-2.35-21.2,6.95Zm23.77,472.03c-.67-13.62-11.19-13.88-20.8-13.23-12.19,.82-18.57-4.09-19.97-16.09-1.8-15.44-9.46-24.56-25.75-27.31-12.7-2.14-24.85-7.73-35.59-14.94-10.84-7.28-20.01-6.57-30.93,.01-17.98,10.84-18.33,10.27-33.19-4.2-1.24-1.2-2.45-2.43-3.66-3.66-14.56-14.92-15.05-15.21-4.44-33.04,6.42-10.78,7.6-20.02,.23-30.96-8.21-12.19-13.69-26.13-16.73-40.41-2.43-11.41-8.25-16.65-19.01-19.7-21.29-6.04-21.32-6.51-22.83-27.63-.61-8.47-3.78-14.68-12.85-14.58-9.71,.1-13.45,6.75-13.04,15.72,.41,9.04,1.73,18.04,1.97,27.07,.25,9.07,4.09,15.36,13.07,16.53,20.75,2.69,33.05,13.64,36.27,34.47,.06,.41,.23,.86,.48,1.19,12.03,15.97,10.35,31.24-1.75,46.45-4.63,5.82-5.58,12.31-.53,18.98,13.91,18.34,29.91,34.51,48.34,48.32,4.92,3.68,10.64,5.78,15.48,1.66,18.93-16.12,37.8-13.18,57.13-1.16,2.52,1.57,5.51,2.94,8.4,3.25,9.75,1.04,13.2,6.96,15.68,15.82,7.81,27.92,8.19,27.81,37.59,29.69,1.29,.08,2.58,.15,3.88,.22,15.92,.7,23-2.95,22.54-12.46Zm77.57-229.09c.14-4.64,4.68-14.37-5.98-12.89-7.32,1.01-19.67-5.14-20.03,11.93-.62,29.36-21.41,53.62-48.66,59.52-25.87,5.6-48.23-1.26-65.09-21.66-16.81-20.34-20.31-43.71-8.83-67.74,12.12-25.36,33.38-37.55,61.37-37.6,9.6-.02,17.92-1.34,17.82-13.25-.09-11.23-8.54-12.49-17.27-12.79-49.78-1.69-93.41,39.41-94.15,88.71-.76,50.3,40.1,91.94,90.41,92.14,48.48,.2,88.92-38.19,90.42-86.37Zm-129.12-210.52c-.3,92.56-75.73,167.64-168.27,167.5-92.96-.14-168.66-76.19-168.28-169.03C25.45,100.28,101.15,25.05,193.6,25.05c93.09,0,168.33,75.69,168.02,169.02Zm-25.89-.94c-.08-78.64-63.85-142.29-142.43-142.17-78.4,.13-142.42,64.23-142.34,142.51,.08,78.24,64.35,142.28,142.68,142.19,78.59-.09,142.17-63.86,142.09-142.53Zm440.19,414.65c-.08,92.65-75.1,167.84-167.7,168.07-92.88,.23-168.96-75.67-168.86-168.47,.1-92.8,76.37-168.53,169.26-168.05,92.65,.48,167.38,75.72,167.3,168.45Zm-25.9,.15c.14-78.71-63.31-142.51-141.91-142.69-78.38-.17-142.68,63.73-142.86,141.99-.18,78.27,63.78,142.48,142.16,142.71,78.54,.23,142.46-63.42,142.61-142.01Zm-155.43-29.71c-5.55,27.15,7.23,45.89,27.22,61.95,6.84,5.5,13.49,9.17,20.44,2.47,7.52-7.25,4.45-14.8-2.31-21.3-3.1-2.99-5.79-6.49-9.19-9.07-8.33-6.31-10.87-14.25-10.39-24.65,.83-18.06,.16-36.18,.26-54.27,.05-8.86-2.81-15.88-12.69-15.93-9.68-.05-13.23,6.63-13.23,15.59,0,11.63,0,23.26,0,34.9,0,3.45,.58,7.01-.1,10.32ZM256.05,231.3c-5.22,16.12-18.64,26.24-37.32,26.5-8.7,.12-13.92,.97-12.66,11.67,.93,7.88-3.48,13.68-11.77,14.04-8.84,.38-14.41-5.22-13.55-13.67,1.18-11.66-4.78-12.4-13.56-11.87-7.74,.47-15.53,.14-23.29,.04-8.44-.11-14.75-3.82-14.88-12.71-.13-8.85,5.93-12.92,14.46-13.08,8.63-.16,17.28-.43,25.88,.02,7.53,.4,12.81-.55,11.09-10.07-1.23-6.85,4.44-16.21-10.41-16.29-29.95-.16-47.98-24.9-39.05-51.23,5.31-15.65,19.16-25.69,37.92-25.82,8.47-.06,12.6-1.41,11.73-11.07-.76-8.39,3.75-14.5,12.7-14.63,9.05-.14,13.5,5.85,12.76,14.36-.83,9.46,3.02,11.86,11.74,11.23,9.01-.66,18.12-.35,27.16,.05,8.09,.36,12.54,4.95,12.99,13.13-.93,8.34-5.9,12.26-13.86,12.48-8.62,.23-17.28,.5-25.88,0-8.11-.48-13.35,.67-12.09,10.81,.94,7.58-2.82,15.69,11.36,15.63,29.09-.12,46.95,24.5,38.54,50.48Zm-75.61-64.05c-.3-6.34,2.57-14.33-9.4-13.01-8.62,.95-15.9,3.18-16.11,12.72-.24,10.33,7.28,12.8,16.47,13.63,12.19,1.1,8.51-7.26,9.04-13.34Zm51.47,52.17c.06-10.65-7.53-12.7-16.67-13.38-12.12-.9-8.46,7.48-8.77,13.44-1.13,7.63-1.29,13.92,9.63,12.9,8.69-.81,15.75-3.14,15.81-12.96Z"/>
</svg>