<?xml version="1.0" encoding="UTF-8"?>
<svg id="Layer_1" data-name="Layer 1" xmlns="http://www.w3.org/2000/svg" viewBox="0 0 500 500">
  <defs>
    <style>
      .cls-1 {
        fill: none;
      }

      .cls-2 {
        fill: #010101;
      }
    </style>
  </defs>
  <rect class="cls-1" width="500" height="500"/>
  <path class="cls-2" d="M411.6,325.74c-3.31-11.17-13.64-18.68-26.27-18.89-10.71-.18-20.44,3.48-29.6,8.51-12.19,6.69-24.14,13.84-36.18,20.81-14.24,8.25-28.47,16.51-44.49,25.8,.65-3.49,.82-4.85,1.15-6.17,3.48-13.65-4.76-29.03-18.55-31.94-21.8-4.59-42.81-11.57-63.44-19.6-16.81-6.54-32.4-4.7-47.58,3.74-16.69,9.28-33.25,18.81-49.63,28.64-4.92,2.95-7.23,2.68-10.07-2.63-5.63-10.51-14.6-12.84-25.09-7.23-6.03,3.23-11.99,6.6-17.81,10.19-9.2,5.66-11.84,14.25-6.59,23.65,18.51,33.13,37.22,66.15,56.08,99.09,5.17,9.03,14.56,11.37,23.84,6.52,5.64-2.95,11.15-6.16,16.64-9.36,11.45-6.68,13.6-14.98,7.54-26.77-1.22-2.37-5.38-4.99-2.18-7.89,2.96-2.67,6.47-5.77,11.33-4.38,1.81,.52,3.66,.91,5.48,1.4,25.74,6.87,51.48,13.73,77.21,20.64,16.12,4.33,31.21,2.35,45.46-6.62,17.17-10.8,34.52-21.31,51.8-31.94,23.09-14.22,46.24-28.35,69.25-42.7,10.9-6.8,15.44-20.15,11.68-32.85Zm-282.77,117.51c-.42,.51-1.21,.7-1.8,1.09q-18.75,12.46-29.84-7.08c-15.22-26.85-30.27-53.8-45.73-80.52-2.75-4.75-1.96-7.02,2.6-9.25,4.44-2.17,8.83-4.54,12.92-7.29,4.3-2.9,6.5-1.5,8.79,2.58,17.42,31.03,34.99,61.97,52.5,92.95,.81,1.43,1.46,2.95,2.29,4.63-.57,.96-1.05,2.01-1.76,2.88Zm268.71-102.98c-1.19,3.33-3.68,5.32-6.56,7.09-39.97,24.57-79.94,49.14-119.86,73.79-7.01,4.33-14.41,6.96-22.77,6.66-15.75-1.86-30.68-7.24-45.97-11.08-17.37-4.36-34.69-8.96-51.89-13.94-5.81-1.68-9.74,1.31-13.59,4.03-5.26,3.72-7.52,2.41-10.39-2.97-8.32-15.59-17.13-30.92-26.13-46.12-2.47-4.17-1.59-5.94,2.28-8.13,16.01-9.04,31.9-18.3,47.8-27.54,13.16-7.65,26.32-9.66,41.13-3.59,19.4,7.94,39.41,14.36,59.99,18.76,7.94,1.7,12.61,8.05,11.14,14.51-1.65,7.28-8.01,10.92-16.62,8.81-12.59-3.09-25.06-6.64-37.58-9.99-1.82-.49-3.62-1.13-5.47-1.37-4-.51-7.1,.98-8.1,5.07-.97,3.95,.55,7.38,4.5,8.45,20.9,5.67,41.43,13.12,63.27,14.48,10.41,.65,19.9-2.88,28.85-8.15,21.33-12.56,42.75-24.96,64.15-37.4,8.59-4.99,17.35-9.77,27.52-10.43,11.5-.74,18.14,8.31,14.31,19.05Zm59.17-101.83c-8.86,.22-9.53-3.94-8.42-10.59,.15-.92,.02-1.88,.03-2.83-.72-47.15-15.37-89.37-45.88-125.47-35.14-41.58-80.08-64.93-134.46-69.74-8.8-.78-11.07,1.33-11.18,10.09-.07,5.9-.1,11.8,0,17.69,.28,16.31-3.63,19.17,17.77,20.66,.94,.07,1.87,.24,2.8,.41,74.17,13.62,125.83,78.16,123.13,153.62-.15,4.07-1,5.56-5.43,5.93-9.16,.77-13.34,9.67-7.87,17.03,9.56,12.87,19.59,25.4,29.74,37.82,4.42,5.41,11.37,6.25,15.52,1.29,11.02-13.2,21.71-26.72,31.75-40.66,4.42-6.14-.15-15.43-7.51-15.24Zm-31.34,42.39c-7.39-9.38-14.33-18.19-21.92-27.82,9.9-.66,10.79-7.04,11.17-14.3,3.03-57.41-17.01-104.8-61.64-141.27-22.01-17.99-47.51-28.71-75.55-33.18-4.38-.7-6.53-1.59-6.47-6.73,.16-13.91-.08-14.06,14.34-10.93,73.21,15.92,120.44,60.1,142.2,131.54,5.81,19.09,7.47,38.83,5.92,58.76-1.04,13.39-.42,14.21,13.85,16.07-7.37,9.37-14.44,18.35-21.92,27.86Zm-70.97-1.7c-5.08-34.54-23.25-59.5-54.83-74.57-2.5-1.19-5.06-2.27-8.43-3.77,12.62-10.46,20.07-23.2,20.7-39.16,.63-15.93-4.91-29.58-16.74-40.41-19.66-17.99-49.9-17.67-69.45,.63-22.94,21.48-21.68,47.85,3.84,79.11-.55,.41-1.03,.96-1.64,1.2-33.62,13.37-53.62,37.91-60.4,73.39-1.88,9.82,.24,12.76,10.05,12.78,32.32,.04,64.63,.02,96.95,.02,23.59,0,47.18,.04,70.77-.03,7.15-.02,10.09-3.01,9.19-9.19Zm-130.93-119.53c-.28-20.22,16.84-37.32,37.34-37.28,20.43,.04,36.82,16.41,36.86,36.81,.04,20.37-16.37,36.86-36.75,36.92-20.26,.07-37.17-16.39-37.45-36.45Zm109.45,114.49c-24.04-.16-48.09-.08-72.13-.08-23.81,0-47.62-.18-71.42,.13-5.84,.07-7.28-1.28-5.56-6.99,10.06-33.44,42.23-56.98,77.87-56.7,35.06,.27,66.84,24.54,76.2,57.89,1.47,5.25-.5,5.78-4.96,5.75ZM246.73,66.6c-.26-4.23-.05-8.49-.05-12.74h-.03c0-5.43,.09-10.85-.03-16.28-.12-5.45-2.96-8.36-8.51-8-25.24,1.65-49.22,8.09-71.98,19.12-5.73,2.78-6.61,6.94-3.62,12.2,4.78,8.4,9.66,16.74,14.46,25.12,2.89,5.04,6.49,6.84,12.29,4.14,15.08-7.01,30.91-11.52,47.56-12.72,6.9-.5,10.34-3.67,9.9-10.84Zm-23.38-1.83c-10.76,1.25-21.15,4.52-31.2,8.6-3.38,1.37-5.29,1.53-7.24-2.13-7.9-14.81-9.61-11.24,6.04-17.35,10.13-3.95,20.7-6.22,31.35-8.19,10.06-1.86,10.05-1.92,10.05,9.37,2.04,6.67-1.81,8.87-8.99,9.71Zm-55.01,26.47c-4.86-8.34-9.54-16.79-14.51-25.08-3.74-6.23-7.06-6.78-13.37-2.46-20.08,13.73-36.97,30.67-50.69,50.75-4.24,6.21-3.58,9.49,2.77,13.28,8.3,4.95,16.71,9.7,25.1,14.5,1.41,.81,2.96,1.38,3.79,1.76,4.04,.42,5.84-.42,8.79-4.57,9.81-13.76,21.43-25.71,35.25-35.44,4.94-3.48,5.88-7.56,2.86-12.74Zm-24.26,11.42c-7.24,6.43-13.88,13.41-19.9,21-1.11,1.39-1.86,3.33-4.45,3.39-4.41-2.67-9.19-5.24-13.57-8.38-1.81-1.3,.3-2.95,1.21-4.15,9.62-12.62,20.81-23.67,33.31-33.44,2.69-2.1,4.01-1.99,5.96,.99,7.57,11.55,7.68,11.48-2.57,20.59Zm-31.21,48.45c-8.63-4.84-17.21-9.77-25.74-14.78-5.42-3.18-9.58-1.98-12.22,3.52-10.8,22.49-17.48,46.13-19.01,71.1-.44,7.13,1.76,9.26,9.03,9.45,4.95,.13,9.9,.03,14.85,.03v-.02c5.19,0,10.37,.08,15.56-.02,4.65-.09,7.23-2.24,7.82-7.21,2.07-17.36,6.07-34.23,13.57-50.16,2.35-4.98,1.2-9.07-3.86-11.9Zm-15.49,21.87c-2.66,7.79-5.23,15.67-6.03,23.85-.72,7.33-2.72,11.99-9.69,9.27-3.47,0-5.36-.07-7.24,.02-2.95,.13-4.07-.63-3.54-4.07,2.31-15.16,6.05-29.89,11.57-44.21,1.76-4.56,3.16-6.3,8.21-3.11,10.6,6.68,10.79,6.36,6.72,18.25Zm18.17,113.22c-6.8-15.15-10.7-31.07-12.39-47.51-.58-5.63-3.2-7.95-8.58-7.92-9.42,.04-18.84-.03-28.26,.02-9.25,.05-10.78,1.68-10.3,12.86,1.84,22.32,8.22,45.51,18.77,67.56,2.62,5.47,6.74,6.83,12.17,3.64,7.92-4.64,15.91-9.14,23.84-13.76,7.5-4.37,8.37-6.82,4.75-14.89Zm-19.12,6.75c-3.83,1.69-7.35,4.07-11.22,6.27-7.69-16.36-11.75-33.21-14.34-50.47-.16-1.1-.82-2.93,.55-3.04,5.37-.41,10.81-.85,16.14-.38,4.03,.36,2.49,4.51,2.94,6.98,1.96,10.91,4.56,21.67,8.86,31.88,1.84,4.36,1.57,6.77-2.93,8.76Zm-21.66,65.5c-.14,4.01-2.74,6.15-6.69,6.1-3.99-.05-6.59-2.49-6.55-6.65,.05-4.47,2.61-6.9,7.13-6.68,4.22,.21,6.17,2.74,6.11,7.23Z"/>
</svg>