<?xml version="1.0" encoding="UTF-8"?>
<svg id="Layer_1" data-name="Layer 1" xmlns="http://www.w3.org/2000/svg" viewBox="0 0 500 500">
  <defs>
    <style>
      .cls-1 {
        fill: none;
      }

      .cls-2 {
        fill: #010101;
      }
    </style>
  </defs>
  <rect class="cls-1" width="500" height="500"/>
  <path class="cls-2" d="M252.44,47.65c-41.31,.43-79.24,11.81-113.5,35.05-1.33,.9-2.63,1.87-4,2.7-4.8,2.89-8.86,1.78-11.98-2.63-3.14-4.44-1.81-8.67,2.17-11.44,7.33-5.12,14.84-10.07,22.68-14.35,41.47-22.62,85.94-30.82,132.59-24.92,87.84,11.11,157.92,73.03,181.94,154.03,33.83,114.04-26.89,232.29-139.39,270.79-55.95,19.15-111.33,15.28-164.95-9.97-5.28-2.49-9.87-3.27-15.68-1.65-32.47,9.05-65.05,17.73-97.64,26.37-9.46,2.51-14.39-2.84-11.73-12.4,9.03-32.39,18.09-64.77,27.23-97.12,.99-3.51,.78-6.44-1-9.77-20.99-39.38-29.19-81.46-24.69-125.74,3.78-37.16,16.43-71.29,37.95-101.99,4.26-6.08,9.35-7.67,13.82-4.5,4.42,3.14,4.66,8.28,.27,14.57-18.17,26.06-29.69,54.91-33.9,86.24-5.98,44.5,1.6,86.88,23.53,126.31,2.9,5.21,3.57,9.7,1.86,15.52-7.93,26.99-15.39,54.12-22.86,81.24-.56,2.02-2.74,4.65-.65,6.32,1.74,1.38,4.29-.41,6.46-1,28.76-7.82,57.54-15.58,86.3-23.4,4.06-1.1,7.6-.08,11.2,1.85,35.48,18.98,73.6,26.51,113.3,22.39,59.77-6.2,108.1-33.93,143.83-82.44,22.25-30.2,34.37-64.24,37.78-101.8,9.23-101.72-62.36-197.56-167.96-215.56-10.86-1.85-21.9-2.9-32.98-2.71ZM113.33,365.22c3.96-10.9,2.35-19.61-3.71-29.52-22.08-36.09-28.78-75.31-21.4-117.03,15.79-89.32,104.31-150.35,194.32-133.81,101.94,18.74,162.51,124.88,126.85,222.17-4.45,12.13-10.44,23.42-17.19,34.38-2.84,4.61-2.88,9.43,2.22,12.65,5.06,3.2,9.19,1.23,12.33-3.4,.9-1.33,1.73-2.7,2.57-4.08,25.88-42.55,33.72-88.22,23.22-136.86-16.23-75.18-77.26-132.4-153.93-143.03-48.64-6.74-93.89,3.78-133.78,32.96-45.71,33.45-71.42,78.68-76.18,135.36-3.31,39.44,5.81,76.04,26.02,109.95,2.7,4.52,3.91,8.52,2.18,14.1-5.23,16.81-9.64,33.87-14.27,50.86-2.71,9.92,2.69,15.28,12.59,12.62,16.83-4.53,33.8-8.63,50.42-13.84,6.59-2.06,11.49-1.21,17.36,1.95,48.73,26.21,99.39,30.57,151.82,12.44,13.96-4.83,27.04-11.48,39.32-19.65,4.64-3.09,6.29-7.59,3-12.48-3.01-4.47-7.4-5.08-12.1-2.31-1.78,1.05-3.48,2.24-5.24,3.31-34.34,20.75-71.41,28.06-111.11,22.74-23.36-3.13-44.78-11.51-64.95-23.43-3.62-2.14-7.25-3.7-11.73-2.44-15.88,4.49-31.82,8.77-49.21,13.54,3.67-13.16,6.33-25.45,10.59-37.16Zm-9.83-255.84c4.77,.13,8.45-3.71,8.55-8.73,.12-5.43-3.07-7.99-7.86-8.68-4.53-.65-8.89,3.62-9.02,8.33-.14,4.92,3.56,8.96,8.33,9.08Zm273.1,255.71c-5.05,.39-7.94,3.32-8.2,8.41-.25,4.91,3.66,8.86,8.47,8.85,4.74,0,8.7-4.05,8.62-8.81-.08-4.76-4.17-8.82-8.89-8.46Zm-64.79-5.45c-23.82-.26-43.54-7.72-62.56-17.18-48.57-24.14-84.23-61.03-106.17-110.55-9.91-22.36-7.7-44.94,4.76-66.01,10.05-17,27.43-23.93,46.01-19.56,6.31,1.48,10.76,4.92,13.35,10.77,5.84,13.2,11.8,26.34,17.37,39.65,4.67,11.16,2.05,20.74-6.37,29.52-9.4,9.79-9.1,10.14-.76,20.96,13.84,17.97,30.97,32.01,51.14,42.31,9.68,4.95,9.73,4.78,16.11-3.58,2.93-3.84,5.75-7.79,9.04-11.3,7.98-8.52,15.55-10.02,26.13-5.03,12.46,5.88,24.84,11.95,37.11,18.23,6.86,3.51,10.12,9.44,10.7,17.24,2.77,36.81-26.34,55.29-55.84,54.52Zm38.87-51.63c-.12-2.96-1.39-4.53-3.94-5.76-11.15-5.39-22.27-10.86-33.33-16.45-3.55-1.79-6-1.04-8.26,2.08-3.24,4.46-6.65,8.8-10.09,13.12-7.72,9.69-14.31,12.07-25.96,7.42-30.15-12.04-53.58-32.54-71.57-59.32-7.79-11.59-6.9-18.37,2.64-28.8,2.02-2.2,3.72-4.73,5.92-6.72,3.87-3.52,3.85-7.27,1.85-11.73-5.15-11.48-10.21-23.01-15.04-34.63-1.38-3.31-3.37-4.02-6.73-4.4-12.84-1.43-20.53,5.43-25.59,15.83-7.61,15.66-8.42,31.95-1.06,47.85,19.63,42.4,49.86,75.08,91.21,97.16,18.53,9.9,37.75,17.78,59.12,18.83,6.28,.08,12.43-.95,18.37-2.72,14.54-4.32,23.05-16.66,22.46-31.76Z"/>
</svg>