<?xml version="1.0" encoding="UTF-8"?>
<svg id="Layer_1" data-name="Layer 1" xmlns="http://www.w3.org/2000/svg" viewBox="0 0 500 500">
  <defs>
    <style>
      .cls-1 {
        fill: none;
      }

      .cls-2 {
        fill: #010101;
      }
    </style>
  </defs>
  <rect class="cls-1" width="500" height="500"/>
  <path class="cls-2" d="M465.76,361.51c-.33-2.2-.09-4.49-.04-6.74,.08-3.55-1.37-6.62-4.79-7.23-10.08-1.79-14.29-8.57-16.3-17.64-.28-1.28-.85-2.61-1.64-3.64-4.32-5.65-4.11-11.21-.45-17.16,2.02-3.29,3.56-7.49,.17-10.52-6.05-5.4-9.79-13.67-18.71-15.56-.78-.16-1.87,.2-2.55,.69-8.24,5.96-16.15,4.29-23.97-.86-.74-.49-1.6-.95-2.46-1.07-7.93-1.12-12.6-5.5-14.26-13.4-.87-4.15-3.72-7.2-8.07-6.59-8.07,1.13-17.25-4.01-24.1,4.01-.83,.97-1.06,2.45-1.55,3.7-.81,2.08-1.62,4.16-2.41,6.25-.55,1.48-1,3.31-2.95,3.15-2.48-.21-1.3-2.39-1.47-3.73-.2-1.55-.05-3.14-.05-4.72,0-75.33,0-150.67,0-226,0-9.74-1.57-11.32-11.26-11.32-94.7,0-189.39,0-284.09,0-9.9,0-11.1,1.23-11.1,11.33,0,68.14,0,136.27,0,204.41s0,135.37,0,203.06c0,12.19,.95,13.17,12.84,13.17,93.57,0,187.14,0,280.71,0,11.47,0,12.6-1.15,12.95-12.58,.05-1.55-1.18-3.98,1.22-4.54,2.27-.53,3.07,1.81,3.34,3.45,2.09,12.66,10.41,15.3,21.53,13.7,1.54-.22,3.15-.14,4.72-.01,4.96,.42,8.51-1.62,9.64-6.44,1.8-7.72,6.22-12.34,14.11-13.62,1.08-.17,2.16-.69,3.1-1.28,7.64-4.8,15.08-6.41,23.35-.75,3.89,2.66,7.9,.03,10.4-3.54,4.34-6.22,16.19-9.48,11.81-18.95-4.26-9.18-3.31-16.14,1.31-24.03,1.66-2.84,2.58-6.2,3.36-9.44,.55-2.29,1.63-3.76,3.81-4.12,12.56-2.06,15.53-10.17,13.86-21.44Zm-139.26,87.89c-.09,3.63-3.41,2.05-5.27,2.05-89.53,.08-179.07,.02-268.6,.21-5.39,.01-5.49-2.25-5.48-6.34,.09-65.45,.07-130.89,.07-196.34s.11-129.99-.17-194.99c-.03-6.44,1.96-7.44,7.77-7.43,88.18,.18,176.37,.17,264.55,0,5.49-.01,7.5,.71,7.48,7.05-.28,74.89-.18,149.78-.18,224.68,0,8.68-4.88,11.83-12.88,8.35q-11.55-5.03-20.63,4.06c-1.43,1.43-2.73,3.04-4.32,4.27-5.57,4.3-6.53,9.29-2.65,15.2,3.29,5,3.44,9.92-.26,14.87-1.05,1.41-1.96,3.12-2.31,4.82-1.9,9.18-6.13,16.05-16.26,17.55-.22,.03-.46,.1-.63,.23-8.06,6.28-3.1,15.07-4.26,22.66-.68,4.39,1.18,8.56,5.76,9.43,8.93,1.7,13.27,7.1,14.77,15.55,.15,.86,.49,1.78,.99,2.49,5.16,7.23,6.04,14.55,.76,22.14-.5,.71-.99,1.7-.91,2.5,.96,9.7,10.1,13.07,15.35,19.46,2.69,3.28,6.37,1.78,9.91,.43,4.67-1.79,8.79-5.92,14.82-1.73,3.97,2.76,2.68,5.85,2.6,8.82Zm119.29-78.76c-6.03,1.59-9.49,4.9-10.54,11.39-1.07,6.63-3.7,13.08-7.67,18.46-3.96,5.37-3.73,10.17-.67,15.45,1.99,3.44,3.26,6.22-.54,9.98-3.65,3.61-6.29,2.16-9.38,.35-5.57-3.26-10.51-3.4-16.06,.77-4.78,3.6-10.59,6.13-16.58,7.03-7.39,1.11-11.71,4.75-13.37,11.98-.77,3.34-2.06,5.78-6.7,5.71-4.36-.07-6.05-1.81-6.86-5.45-1.66-7.45-6.22-11.14-13.83-12.34-5.94-.94-11.73-3.49-16.54-7.12-5.31-4-10.16-3.78-15.47-.7-3.4,1.97-6.15,3.17-10.01-.41-4.17-3.87-1.93-6.96-.22-9.92,3.21-5.57,2.82-10.33-.81-15.57-3.71-5.35-6.31-11.46-7.43-17.86-1.15-6.58-4.53-10.36-10.92-11.86-3.93-.92-6.56-2.47-6.46-7.65,.09-4.87,3.21-5.72,6.21-6.45,6.75-1.64,10.07-5.59,11.23-12.4,1.06-6.17,3.54-12.13,7.18-17.23,3.89-5.45,4.32-10.41,.86-16.14-1.9-3.14-3.16-6.09,.7-9.85,3.74-3.64,6.4-2.01,9.3-.32,5.65,3.29,10.6,3.29,16.13-.69,5.07-3.65,11.05-6.13,17.26-7.19,6.76-1.15,10.76-4.5,12.44-11.22,.82-3.28,1.76-6.51,7-6.36,4.84,.14,6.3,2.54,7.1,6.15,1.58,7.06,6.04,10.21,12.96,11.55,4.75,.92,9.84,2.56,13.65,5.39,7.48,5.54,14.42,5.71,22.23,1.18,3.14-1.82,9.29,2.74,9.15,6.52-.2,.48-.36,1.17-.74,1.7-5.85,8.21-3.62,15.52,1.57,23.25,2.79,4.14,4.48,9.37,5.37,14.34,1.11,6.22,4.37,9.31,10.12,10.99,3.39,.99,7.04,1.54,7,7.19-.04,5.36-3.06,6.41-6.7,7.37Zm-292.01-112.73c-4.77,4.28-8.29,7.41-11.78,10.57-3.83,3.46-7.6,3.44-11.27-.18-4.64-4.57-9.33-9.1-13.82-13.81-2.98-3.13-3.8-6.94-.54-10.2,3.25-3.25,6.87-2.5,10.12,.59,3.4,3.22,7.42,9.33,10.22,8.83,4.35-.78,7.94-6.02,11.77-9.46,6.18-5.56,12.3-11.19,18.44-16.8,3.54-3.23,7.36-5.97,11.61-1.51,4.27,4.47,1.81,8.64-2.24,11.27-8.01,5.18-9.81,12.33-9.1,21.26,.64,8.04,.22,16.18,.11,24.27-.1,6.7-2.76,9.5-9.37,9.52-24.51,.09-49.02,.03-73.53,.04-5.92,0-9.17-2.35-9.13-8.83,.15-22.93,.17-45.86-.01-68.79-.05-6.49,2.97-8.8,9-8.79,24.51,.06,49.02,.08,73.53-.02,4.92-.02,9.08,1.58,9.21,6.63,.14,5.54-4.13,7.1-9.35,7.06-20.91-.15-41.83,.06-62.74-.16-4.4-.05-6.26,.6-6.14,5.67,.36,15.95,.23,31.92,.06,47.88-.04,3.98,.41,5.98,5.33,5.89,18.21-.33,36.43-.22,54.64-.06,3.66,.03,5.33-.76,5.06-4.8-.33-4.84-.08-9.72-.08-16.07Zm0-131.52c-4.59,4.11-8.23,7.29-11.79,10.57-3.8,3.51-7.39,3.7-11.12-.16-4.52-4.69-9.17-9.26-13.78-13.87-3.15-3.15-3.94-6.64-.77-10.07,3.26-3.53,6.78-2.71,10.07,.24,.17,.15,.33,.31,.5,.45,3.51,3.02,6.24,9.2,10.21,8.74,3.81-.45,7.04-5.77,10.54-8.93,6.67-6.02,13.42-11.95,20-18.07,3.66-3.4,7.5-4.53,11.14-.65,3.59,3.83,1.96,7.94-1.79,10.3-9.03,5.68-10.65,13.8-9.8,23.59,.65,7.58,.18,15.27,.11,22.91-.06,5.95-2.75,8.93-9.13,8.89-24.73-.17-49.46-.17-74.18,0-6.4,.05-8.78-2.63-8.73-8.87,.16-22.7,.18-45.4-.01-68.1-.06-6.34,2.46-8.93,8.76-8.89,24.73,.13,49.46,.11,74.18,0,4.98-.02,8.95,1.62,8.83,6.8-.12,5.02-4.1,6.93-9.04,6.91-20.91-.06-41.82,.19-62.72-.17-5.51-.1-6.58,1.65-6.48,6.72,.32,15.28,.26,30.57,.02,45.84-.07,4.39,.63,6.27,5.71,6.18,17.98-.33,35.97-.23,53.95-.05,3.91,.04,5.8-.67,5.41-5.1-.4-4.6-.09-9.26-.09-15.24Zm0,263.11c-4.78,4.28-8.46,7.52-12.08,10.82-3.62,3.3-7.09,3.39-10.6-.17-4.73-4.81-9.56-9.52-14.27-14.35-3.14-3.22-3.55-6.78-.21-10.07,3.17-3.12,6.4-2.25,9.61,.34,3.85,3.12,6.49,9.99,11.24,9.05,4.35-.87,7.79-6.37,11.62-9.83,6.34-5.73,12.7-11.43,19-17.2,3.5-3.2,7.24-3.9,10.65-.33,3.32,3.48,2.39,7.66-1.22,9.84-10.29,6.22-11.08,15.6-10.3,26.1,.51,6.93,.15,13.94,.08,20.91-.06,5.95-2.74,8.96-9.12,8.92-24.75-.16-49.5-.17-74.24,0-6.45,.05-8.73-2.73-8.68-8.94,.16-22.72,.18-45.44-.01-68.15-.06-6.44,2.66-8.81,8.88-8.77,24.75,.14,49.5,.12,74.24,0,4.72-.02,8.49,1.55,8.63,6.33,.15,5.06-3.6,7.35-8.58,7.35-21.15,0-42.3,.19-63.44-.13-5.14-.08-6.33,1.34-6.22,6.31,.34,15.51,.23,31.04,.05,46.56-.05,4.02,.46,5.95,5.34,5.86,18.22-.32,36.45-.22,54.67-.05,3.68,.03,5.32-.77,5.03-4.8-.34-4.67-.08-9.39-.08-15.61ZM247.67,124.15c-13.71,0-27.42-.12-41.13,.06-4.97,.07-9.05-1.51-9.16-6.59-.13-5.54,4.2-7.18,9.35-7.17,27.42,.07,54.84,.04,82.27,.03,4.91,0,9.32,.91,9.29,7.02-.03,6.3-4.66,6.68-9.48,6.66-13.71-.05-27.42-.02-41.13-.02Zm.29,95.35c-13.7,0-27.41-.11-41.11,.06-5.17,.06-9.57-1.38-9.45-6.95,.12-5.52,4.68-6.77,9.75-6.75,27.18,.11,54.37,.06,81.55,.04,4.79,0,9.45,.46,9.57,6.66,.13,6.78-4.87,6.97-9.88,6.95-13.48-.05-26.96-.02-40.44-.02Zm.15,36.4c-13.7,0-27.41-.1-41.11,.05-5.14,.06-9.56-1.45-9.6-6.93-.04-5.65,4.51-6.77,9.6-6.75,27.41,.12,54.82,.07,82.23,.04,4.6,0,8.93,.46,9.07,6.36,.15,6.1-4.06,7.25-9.07,7.24-13.7-.03-27.41,0-41.11,0Zm.16-181.35c13.71,0,27.42,.02,41.13-.01,4.63-.01,8.89,.59,8.91,6.51,.02,6.12-4.32,7.16-9.24,7.16-27.42,0-54.84-.03-82.26,.03-5.16,.01-9.49-1.74-9.42-7.19,.07-5.7,4.76-6.61,9.76-6.55,13.71,.16,27.42,.06,41.13,.06Zm-24.2,312.78c-6.27,0-12.55-.08-18.82,.03-4.6,.09-7.71-2.28-7.89-6.48-.2-4.67,3.13-7.18,7.9-7.19,12.55-.03,25.1-.04,37.65,.01,4.48,.02,7.56,2.44,7.52,6.85-.04,4.33-2.91,6.81-7.53,6.78-6.27-.04-12.55,0-18.82,0Zm-.04-49.59c6.27,0,12.55,.07,18.82-.02,4.61-.06,7.58,2.23,7.58,6.64,0,4.37-3.1,6.93-7.52,6.97-12.54,.12-25.09,.11-37.64,.02-4.67-.04-8.09-2.59-7.91-7.26,.18-4.76,3.8-6.54,8.53-6.4,6.04,.19,12.1,.05,18.15,.05Zm140.59-25.42c-28.87-.2-51.48,22.09-51.54,50.81-.07,28.65,22.6,51.62,50.98,51.66,28.18,.04,51.53-23.27,51.53-51.43,0-28.02-22.8-50.84-50.96-51.04Zm27.69,76.16c-12.31,13.79-33.16,16.63-48.41,6.77-2.77-1.79-3.91-3.73-3.81-7.06,.23-8.31,.08-16.64,.08-24.95,0-8.09,.19-16.19-.09-24.28-.12-3.59,1.08-5.72,4.09-7.62,15.57-9.8,36.65-6.49,48.84,7.84,12.11,14.24,11.81,35.28-.7,49.29Z"/>
</svg>