<?xml version="1.0" encoding="UTF-8"?>
<svg id="Layer_1" data-name="Layer 1" xmlns="http://www.w3.org/2000/svg" viewBox="0 0 14 14">
  <defs>
    <style>
      .cls-1 {
        fill: #393939;
      }

      .cls-2 {
        fill: none;
      }
    </style>
  </defs>
  <rect class="cls-2" width="14" height="14"/>
  <path class="cls-1" d="M1.6,7.55c0,.14-.09,.23-.22,.27-.09-.03-.18-.03-.27,0-.12-.02-.16-.13-.23-.21V.93c.03-.12,.1-.19,.22-.22H11.23c1.01,.12,1.67,.69,2.06,1.61,.08,.18,.06,.38,.11,.56v.78c-.14,.46-.28,.91-.62,1.28-.29,.33-.63,.58-1.04,.72-2.81,.97-5.62,1.93-8.43,2.89-.37,.13-.73,.26-1.1,.38-.34,.11-.49,.37-.61,.67-.06,.07-.03,.16-.03,.24,0,.8,0,1.61,0,2.41,0,.08-.03,.17,.04,.24h0c.06,.05,.14,.03,.21,.03,2.68,0,5.35,0,8.03,0,.07,0,.15,.02,.21-.03,.48-.1,.95-.23,1.36-.51,1.62-1.11,1.65-3.52,.06-4.67-.12-.09-.24-.18-.39-.25-.23-.1-.31-.33-.2-.52,.1-.19,.31-.25,.52-.14,.89,.48,1.53,1.16,1.81,2.15-.02,.15,.03,.3,.07,.44,.08,.03,.03,.14,.1,.17v.95c-.06,.73-.34,1.37-.82,1.92-.59,.66-1.3,1.12-2.22,1.17-.03,0-.05,0-.07,.03H1.11c-.1-.05-.17-.12-.22-.22v-3.56c.21-.74,.74-1.1,1.45-1.34,2.42-.8,4.83-1.65,7.24-2.47,.49-.17,.97-.37,1.47-.5,.88-.23,1.45-.74,1.63-1.65,.06-.15,.06-.29,0-.44-.12-.54-.36-1-.84-1.31-.25-.16-.54-.23-.82-.31-.09-.05-.18-.03-.27-.03-2.95,0-5.91,0-8.86,0-.09,0-.19-.03-.27,.04h0c-.06,.04-.04,.11-.04,.18,0,1.92,0,3.84,0,5.77,0,.06,0,.11,.02,.16Zm8.57,2.04c-.03,.79-.66,1.41-1.43,1.42-.79,.01-1.45-.55-1.51-1.29-.07-.82,.43-1.48,1.23-1.61,.15,.03,.29,.04,.44,0,.74,.1,1.31,.75,1.27,1.47Zm-.76-.05c-.01-.4-.33-.71-.74-.7-.41,0-.73,.34-.72,.75,0,.39,.34,.71,.74,.7,.41,0,.73-.34,.72-.75Zm-2.97-4.87c-.06,.59-.71,1.16-1.28,1.16-.11-.04-.22-.03-.33,0-.76-.08-1.29-.68-1.29-1.44,0-.74,.52-1.34,1.24-1.43,.15,.04,.29,.04,.44,0,.64,.08,1.1,.51,1.22,1.17-.01,.18-.01,.37,0,.55Zm-.71-.29c0-.41-.32-.72-.72-.72-.4,0-.73,.33-.73,.72,0,.41,.33,.73,.74,.73,.4,0,.71-.32,.71-.73Z"/>
</svg>