<?xml version="1.0" encoding="UTF-8"?>
<svg id="Layer_1" data-name="Layer 1" xmlns="http://www.w3.org/2000/svg" viewBox="0 0 14 14">
  <defs>
    <style>
      .cls-1 {
        fill: #393939;
      }

      .cls-2 {
        fill: none;
      }
    </style>
  </defs>
  <rect class="cls-2" width="14" height="14"/>
  <path class="cls-1" d="M13.58,3.91c-.1-.09-.21-.19-.29-.3-.08-.1-.13-.08-.21,0-1.65,1.65-3.29,3.3-4.94,4.94-.04,.04-.07,.08-.1,.12h0s-.06,.05-.09,.08c-.81,.8-1.61,1.6-2.41,2.4-.07,.07-.14,.13-.21,.2h0s0,0,0,0c-.03-.03-.07-.06-.1-.1-.83-.83-1.67-1.67-2.5-2.5-.03-.03-.07-.06-.11-.09,0,0,0,0,0,0,0,0,0,0,0,0-.03-.03-.06-.07-.09-.1-.39-.39-.78-.79-1.18-1.18-.08-.08-.07-.12,0-.19,.42-.41,.83-.83,1.25-1.25,.05,.02,.08,.06,.12,.1,.83,.83,1.67,1.67,2.5,2.5,.03,.03,.06,.08,.11,.09,.04,0,.06-.04,.08-.06,.86-.86,1.72-1.72,2.58-2.58,.02-.02,.04-.05,.06-.07h0s0,0,0,0c.04-.04,.08-.07,.12-.11,1.01-1.01,2.02-2.02,3.03-3.03,.03-.03,.07-.06,.1-.1,.05-.07,.09-.06,.15,0,.09,.1,.18,.2,.29,.28,.09,.07,.07,.12,0,.19-1.2,1.2-2.4,2.4-3.6,3.59-.03,.03-.06,.07-.09,.11h0s-.07,.05-.1,.08c-.53,.53-1.06,1.06-1.59,1.59-.34,.34-.68,.68-1.02,1.02-.03-.03-.07-.06-.1-.1-.84-.84-1.67-1.68-2.51-2.52-.03-.03-.04-.1-.11-.07-.13,.13-.26,.25-.39,.38-.04,.04-.04,.06,0,.1,.13,.12,.26,.25,.39,.38h0s0,0,0,0c.02,.02,.04,.05,.06,.07,.87,.87,1.74,1.74,2.61,2.61,.02,.02,.04,.03,.06,.05,.04,0,.06-.03,.08-.06,.86-.86,1.72-1.72,2.58-2.58,.02-.02,.04-.05,.06-.07h0s0,0,0,0c.01-.01,.03-.02,.04-.03,1.53-1.53,3.05-3.06,4.58-4.58,.07-.06,.04-.09-.01-.14-.4-.4-.8-.8-1.19-1.2-.08-.08-.11-.07-.19,0-1.05,1.06-2.11,2.11-3.16,3.17-.03,.03-.05,.06-.08,.09h0s-.07,.05-.1,.08c-.84,.83-1.67,1.67-2.51,2.5-.03,.03-.07,.06-.11,.09h0s0,0,0,0c-.03-.03-.07-.06-.1-.1-.84-.84-1.67-1.67-2.51-2.51-.03-.03-.04-.1-.12-.07,0,0,0,0,0,0-.03,.03-.06,.05-.09,.08-.69,.69-1.38,1.39-2.08,2.08-.07,.07-.07,.11,0,.18,.7,.69,1.39,1.39,2.09,2.08,.02,.02,.05,.04,.08,.07,.02,.03,.04,.06,.07,.08,.86,.86,1.73,1.73,2.59,2.59,.02,.02,.03,.05,.07,.05,.05,0,.07-.05,.1-.08,.68-.68,1.37-1.37,2.05-2.05,.19-.19,.38-.38,.57-.57h0s0,0,0,0c.02-.02,.05-.04,.07-.06,1.81-1.81,3.63-3.62,5.44-5.44,0,0,.02-.02,.03-.03,.06-.04,.05-.08,0-.12Z"/>
</svg>