<?xml version="1.0" encoding="UTF-8"?>
<svg id="Layer_1" data-name="Layer 1" xmlns="http://www.w3.org/2000/svg" viewBox="0 0 14 14">
  <defs>
    <style>
      .cls-1 {
        fill: #393939;
      }

      .cls-2 {
        fill: none;
      }
    </style>
  </defs>
  <rect class="cls-2" width="14" height="14"/>
  <path class="cls-1" d="M13.04,4.24s0-.07,0-.1v-.07c0-.2,0-.4-.05-.59-.03-.15-.07-.3-.13-.45-.18-.52-.49-.96-.91-1.32-.39-.33-.84-.55-1.33-.69-.04-.01-.08-.03-.12-.06H1.71c-.15,.03-.26,.12-.36,.21-.17,.15-.33,.31-.39,.53v7.85s.03,.09,.06,.12c.15,.17,.31,.31,.52,.41,.26,.12,.54,.16,.83,.16,.24,0,.48,0,.72-.01,1.3,0,2.6,0,3.9,0,.06,0,.12,0,.17,.02,.1,.02,.12,.04,.12,.15,0,.49-.01,.97,.01,1.46,.01,.2,.04,.4,.12,.59,.15,.33,.41,.52,.77,.56,.08,0,.16,0,.24,.02h1.42s.05-.01,.07,0h.07s.02,0,.03,0c.29,0,.58-.05,.86-.14,.55-.18,1.01-.5,1.39-.93,.26-.29,.45-.61,.58-.98,.07-.2,.14-.41,.16-.62,0-.11,0-.22,.02-.33v-.04s-.01-.07,0-.1v-.04c-.02-.16,0-.31,0-.47v-.46c0-.09,0-.18,0-.27,0-.11,0-.21,0-.32v-1.59s0-.05,0-.08c0-.32,0-.64,0-.96v-.82c0-.11,0-.22,0-.33,0-.1,0-.19,0-.29v-.03Zm-5.67,3.37c-.03,.38-.03,.75-.02,1.13,0,.17,0,.34,0,.5,0,.14,0,.15-.14,.2-.05,.02-.11,.03-.17,.03-1.6,0-3.2,0-4.8,0-.07,0-.15,0-.22-.02-.19-.05-.29-.16-.31-.35-.01-.08-.01-.16-.01-.24,.01-1.76,.02-3.52,0-5.28,0-.45,0-.9,0-1.35,0-.07,.01-.15,.03-.22,.04-.16,.14-.25,.29-.28,.08-.02,.17-.03,.25-.03,1.28,0,2.56,.02,4.06,0,1.05,0,2.33-.02,3.61,.01,1.1,.03,2.05,.79,2.29,1.89,.17,.78,.01,1.5-.5,2.12-.4,.49-.92,.77-1.54,.86-.22,.03-.44,.04-.66,.04-.4,0-.8-.01-1.2,.01-.56,.03-.93,.4-.97,.96Zm4.93,1.83c0,.29,0,.58-.04,.88-.06,.43-.24,.8-.53,1.13-.38,.43-.85,.71-1.41,.82-.12,.02-.25,.03-.38,.03-.49,.02-.98,.01-1.48,0-.24,0-.37-.13-.4-.38,0-.03,0-.05,0-.08,0-1.34,0-2.68,0-4.02,0-.14,.03-.28,.16-.37,.08-.06,.18-.08,.27-.08,.35,0,.7,0,1.05,0,.84,.03,1.6-.18,2.27-.7,.16-.13,.31-.27,.46-.43,0,.03,0,.05,0,.07,0,1.04,.03,2.08,0,3.12ZM4.5,3.08c.32,0,.64,0,.96,0,.07,0,.14,0,.2,.03,.18,.05,.26,.19,.24,.42-.01,.16-.12,.26-.3,.28-.09,0-.18,.01-.28,.01-.57,0-1.13,0-1.7,0-.1,0-.2,0-.3-.03-.16-.04-.23-.14-.24-.33,0-.18,.07-.29,.22-.34,.08-.03,.17-.03,.25-.03,.31,0,.62,0,.94,0Zm-.36,1.42c.23,0,.46,0,.69,0,.2,0,.32,.08,.36,.24,.07,.27-.08,.47-.36,.47-.47,0-.94,0-1.42,0-.17,0-.28-.1-.32-.25-.04-.18,.01-.34,.14-.42,.06-.04,.13-.05,.2-.05,.23,0,.47,0,.7,0h0Zm5.68-1.88c-.89,.01-1.51,.7-1.52,1.49-.02,.92,.62,1.59,1.54,1.58,.89,0,1.54-.69,1.54-1.51,0-.88-.69-1.56-1.55-1.56Zm0,2.35c-.44,0-.79-.36-.79-.8,0-.43,.38-.81,.81-.81,.42,0,.81,.4,.81,.83,0,.42-.38,.79-.82,.79Z"/>
</svg>