<?xml version="1.0" encoding="UTF-8"?>
<svg id="Layer_1" data-name="Layer 1" xmlns="http://www.w3.org/2000/svg" viewBox="0 0 14 14">
  <defs>
    <style>
      .cls-1 {
        fill: #393939;
      }

      .cls-2 {
        fill: none;
      }
    </style>
  </defs>
  <rect class="cls-2" width="14" height="14"/>
  <path class="cls-1" d="M13.36,5.57c.32-.36,.35-.85,.06-1.23-.34-.44-.68-.88-1.03-1.32-.31-.39-.79-.46-1.22-.2-.32,.19-.63,.39-.95,.59-.3,.18-.61,.2-.92,.05-.31-.15-.61-.3-.93-.45-.42-.19-.83-.17-1.22,.06-.15,.09-.25,.08-.39,0-.52-.3-1.06-.3-1.6-.05-.11,.05-.23,.1-.34,.15-.43,.2-.86,.2-1.29,0-.13-.06-.26-.12-.4-.17-.53-.22-1-.12-1.38,.31-.36,.41-.72,.81-1.09,1.22-.42,.47-.39,.92,.09,1.33,.35,.3,.7,.6,1.06,.9-.19,.2-.38,.39-.56,.59-.31,.35-.3,.8,.03,1.13,.11,.11,.21,.22,.36,.27,.09,.03,.12,.07,.08,.16-.26,.53,.37,1.33,1.07,1.18,.11-.02,.14,0,.18,.1,.21,.47,.71,.7,1.15,.53,.13-.05,.17-.02,.24,.09,.35,.57,1.01,.73,1.49,.18,.1-.11,.21-.2,.3-.31,.08-.1,.14-.09,.23,0,.14,.15,.31,.27,.45,.42,.37,.41,1.06,.47,1.46-.23,.11-.19,.16-.12,.25-.02,.53,.55,1.28,.29,1.53-.37,.04-.11,.09-.14,.2-.13,.51,.02,.97-.42,.96-.93,0-.15,.05-.18,.18-.23,.58-.25,.93-.99,.31-1.52-.13-.12-.1-.18,0-.29,.54-.59,1.09-1.19,1.62-1.79ZM1.68,8.22c-.2-.19-.23-.4-.07-.58,.37-.39,.74-.78,1.11-1.16,.13-.13,.28-.15,.43-.09,.18,.08,.3,.24,.33,.43,0,.12-.04,.2-.11,.28-.37,.39-.74,.78-1.12,1.16-.17,.17-.38,.16-.58-.03Zm1.23,1.31c-.19,.2-.39,.18-.61-.03-.2-.19-.22-.4-.03-.6,.48-.51,.97-1.01,1.46-1.52,.13-.13,.28-.19,.45-.09,.17,.09,.32,.22,.32,.47,0,.09-.05,.17-.12,.25-.49,.51-.97,1.02-1.46,1.52Zm1.25,.65c-.2,.21-.4,.2-.62-.02-.21-.2-.22-.4-.02-.61,.31-.33,.63-.65,.94-.98,.13-.13,.28-.19,.44-.11,.18,.09,.31,.22,.33,.4,0,.15-.05,.24-.13,.33-.31,.33-.62,.66-.94,.98Zm1.92-.05c-.19,.2-.38,.4-.57,.6-.08,.09-.18,.15-.33,.15-.18-.03-.33-.15-.42-.33-.09-.17-.03-.32,.1-.45,.19-.2,.38-.4,.57-.6,.2-.2,.4-.19,.63,.03,.2,.2,.21,.39,.02,.59Zm5.5-1.67c-.08,.2-.29,.33-.49,.32-.12-.01-.2-.08-.28-.16-.51-.47-1.03-.94-1.53-1.42-.16-.15-.22-.08-.35,.03-.17,.15-.06,.22,.04,.31,.55,.51,1.1,1.02,1.65,1.53,.25,.23,.25,.42,.03,.65-.21,.23-.4,.23-.64,0-.53-.49-1.06-.97-1.57-1.46-.19-.19-.23,.03-.33,.1-.12,.08-.08,.15,.01,.24,.46,.42,.91,.84,1.37,1.26,.25,.23,.26,.42,.04,.65-.21,.23-.41,.23-.66,0-.46-.42-.92-.83-1.36-1.26-.15-.14-.2-.04-.28,.05-.08,.09-.2,.15-.03,.29,.21,.17,.41,.37,.61,.56,.22,.21,.23,.4,.01,.62-.2,.21-.41,.23-.63,.03-.18-.16-.35-.33-.53-.49-.07-.06-.09-.11-.06-.21,.16-.56-.22-1.11-.81-1.17-.09,0-.12-.04-.15-.13-.11-.35-.28-.66-.67-.78-.09-.03-.08-.08-.06-.14,.12-.54-.39-1.03-.82-1.08-.12-.01-.17-.05-.2-.17-.16-.61-.98-1.07-1.58-.4-.18,.2-.19,.2-.41,.01-.3-.26-.61-.52-.91-.78-.22-.19-.24-.37-.05-.58,.39-.45,.79-.9,1.2-1.34,.19-.21,.48-.26,.74-.16,.18,.07,.37,.15,.55,.23,.49,.22,.98,.21,1.48,0,.32-.13,.61-.32,.97-.32,.22,0,.44,.03,.66,.18-.22,.16-.42,.3-.62,.44-.41,.29-.52,.72-.29,1.11,.29,.5,.8,.68,1.26,.45,.13-.07,.25-.14,.37-.22,.32-.2,.62-.17,.94,.04,1.18,.79,2.23,1.72,3.25,2.7,.14,.14,.19,.29,.11,.46Zm-.18-1.38c-.1,.11-.15,.11-.25,0-.81-.81-1.72-1.48-2.64-2.14-.5-.35-.99-.38-1.51-.05-.06,.04-.13,.07-.19,.12-.33,.24-.61,.07-.78-.24-.09-.17-.05-.33,.1-.44,.42-.31,.85-.61,1.28-.9,.13-.09,.28-.11,.44-.09,.14-.02,.27,.02,.39,.09,.29,.14,.58,.29,.87,.42,.47,.22,.93,.2,1.37-.07,.31-.18,.61-.38,.91-.56,.27-.16,.49-.12,.68,.12,.31,.4,.63,.8,.94,1.2,.22,.28,.21,.51-.02,.77-.53,.59-1.06,1.17-1.59,1.76Z"/>
</svg>