<?xml version="1.0" encoding="UTF-8"?>
<svg id="Layer_1" data-name="Layer 1" xmlns="http://www.w3.org/2000/svg" viewBox="0 0 14 14">
  <defs>
    <style>
      .cls-1 {
        fill: #393939;
      }

      .cls-2 {
        fill: none;
      }
    </style>
  </defs>
  <rect class="cls-2" width="14" height="14"/>
  <path class="cls-1" d="M11.98,7.47c0,1.62,0,3.24,0,4.86,0,.82-.48,1.3-1.3,1.3-2.48,0-4.96,0-7.44,0-.72,0-1.23-.5-1.23-1.22,0-3.31,0-6.61,0-9.92,0-.69,.51-1.19,1.19-1.2,.35,0,.7,0,1.05,0,.1,0,.14,.03,.14,.14-.01,.42,.05,.34-.33,.34-.28,0-.56,0-.84,0-.42,0-.72,.3-.72,.73,0,3.31,0,6.62,0,9.94,0,.41,.3,.71,.71,.71,2.52,0,5.05,0,7.57,0,.42,0,.72-.3,.72-.73,0-3.31,0-6.61,0-9.92,0-.44-.3-.73-.73-.73-.33,0-.66,0-1,0-.12,0-.17-.02-.17-.16,0-.32,0-.32,.32-.32,.28,0,.55,0,.83,0,.73,0,1.23,.51,1.23,1.23,0,1.65,0,3.3,0,4.94Zm-.95-4.85c0-.32-.06-.38-.39-.38-.24,0-.47,0-.71,0-.38,0-.32-.08-.33,.34,0,.12,.05,.14,.15,.14,.2,0,.39,.01,.59,0,.17-.01,.21,.04,.21,.21,0,3.03,0,6.05,0,9.08,0,.16-.04,.21-.2,.2-2.24,0-4.47,0-6.71,0-.16,0-.2-.04-.2-.2,0-3.03,0-6.05,0-9.08,0-.03,0-.06,0-.08-.01-.09,.03-.13,.12-.13,.17,0,.34,0,.51,0,.37,0,.31,.06,.32-.32,0-.13-.04-.16-.17-.16-.3,0-.61,0-.91,0-.29,0-.35,.07-.35,.36,0,3.24,0,6.48,0,9.72,0,.3,.06,.36,.37,.36,2.45,0,4.89,0,7.34,0,.31,0,.37-.06,.37-.36,0-1.61,0-3.23,0-4.84,0-1.62,0-3.24,0-4.86Zm-2.6,4.13c.29,0,.57,0,.86,0,.37,0,.31,.06,.32-.32,0-.13-.03-.16-.16-.16-.63,0-1.26,0-1.89,0-.37,0-.32-.09-.33,.34,0,.1,.03,.14,.13,.14,.35,0,.71,0,1.06,0,0,0,0,0,0,0Zm0,4.27c.3,0,.6,0,.89,0,.33,0,.28,.06,.3-.29,0-.15-.04-.19-.19-.19-.62,0-1.25,0-1.87,0-.33,0-.33,0-.32,.34,0,.11,.03,.15,.15,.14,.35,0,.7,0,1.04,0h0Zm.01-5.69c.29,0,.57,0,.86,0,.37,0,.31,.06,.32-.32,0-.13-.04-.16-.16-.16-.63,0-1.26,0-1.89,0-.37,0-.32-.07-.33,.33,0,.12,.04,.15,.16,.15,.35,0,.7,0,1.04,0h0Zm-.89,2.37c-.31,0-.3,0-.31,.3,0,.14,.04,.18,.18,.18,.63,0,1.26,0,1.89,0,.37,0,.3,.06,.31-.33,0-.12-.03-.16-.15-.15-.35,0-.7,0-1.04,0-.29,0-.58,0-.88,0Zm0,1.42c-.31,0-.3,0-.31,.32,0,.12,.03,.16,.16,.16,.63,0,1.27,0,1.9,0,.36,0,.3,.06,.32-.33,0-.12-.03-.16-.15-.15-.34,0-.69,0-1.03,0-.3,0-.6,0-.89,0Zm-2.23-2.96c.22-.22,.44-.45,.67-.67,.25-.25,.25-.25-.01-.5-.07-.07-.11-.06-.18,0-.15,.16-.31,.31-.46,.47q-.25,.25-.55,.07c-.27-.17-.26-.17-.44,.09-.06,.1-.07,.15,.04,.21,.19,.12,.37,.24,.55,.36,.06,.04,.12,.07,.19,.06,.08,0,.14-.05,.2-.11Zm0,1.89c.22-.22,.45-.44,.67-.67,.25-.25,.25-.25-.02-.5-.07-.06-.11-.06-.17,0-.16,.17-.33,.33-.5,.5q-.23,.23-.5,.05c-.31-.2-.32-.2-.49,.13,0,0,0,0,0,.01-.04,.05-.02,.08,.03,.11,.22,.15,.44,.29,.66,.44,.03,.02,.07,.03,.09,.03,.11,0,.17-.05,.23-.11Zm3.82-4.69c0,.2-.09,.29-.28,.29-1.24,0-2.47,0-3.71,0-.19,0-.28-.09-.28-.28,0-.61,0-1.21,0-1.82,0-.19,.09-.27,.28-.27,.26,0,.52,0,.78,0,.08,0,.12-.01,.13-.11,.04-.35,.23-.59,.52-.76,.08-.02,.16-.05,.23-.07,.12,0,.25,0,.37,0,.08,.02,.16,.05,.23,.07,.29,.17,.49,.41,.52,.76,0,.09,.06,.11,.13,.11,.25,0,.49,0,.74,0,.24,0,.32,.08,.32,.31,0,.59,0,1.18,0,1.77Zm-.47-.36c0-.36,0-.72,0-1.08,0-.12-.03-.17-.16-.17-.25,.01-.49,0-.74,0-.2,0-.28-.09-.29-.29,0-.08,0-.17,0-.25-.03-.24-.22-.4-.46-.4-.24,0-.43,.17-.46,.41-.01,.08,0,.17,0,.25,0,.2-.09,.28-.29,.29-.25,0-.49,0-.74,0-.12,0-.16,.03-.16,.15,0,.37,0,.74,0,1.11,0,.13,.04,.16,.16,.16,.49,0,.99,0,1.48,0,.5,0,1,0,1.5,0,.14,0,.18-.05,.18-.18Zm-2.37,7.06c0,.22,0,.45,0,.67,0,.18-.09,.27-.27,.27-.45,0-.91,0-1.36,0-.17,0-.26-.09-.26-.26,0-.46,0-.92,0-1.38,0-.16,.09-.25,.25-.25,.46,0,.92,0,1.38,0,.17,0,.26,.09,.26,.26,0,.23,0,.46,0,.69Zm-.48,.03c0-.15,0-.27,0-.4,0-.08-.02-.11-.11-.11-.24,0-.48,0-.72,0-.09,0-.12,.03-.12,.12,0,.24,0,.47,0,.71,0,.09,.03,.12,.12,.12,.12,0,.25,0,.37,0,.14,0,.33,.06,.42-.03,.1-.1,.02-.29,.04-.41Zm1.58-7.39c.37,0,.31,.07,.32-.34,0-.11-.03-.15-.15-.14-.32,0-.64,0-.96,0-.35,0-.35,0-.33,.36,0,.09,.03,.12,.12,.12,.2,0,.39,0,.59,0,.13,0,.27,0,.4,0Z"/>
</svg>