<?xml version="1.0" encoding="UTF-8"?>
<svg id="Layer_1" data-name="Layer 1" xmlns="http://www.w3.org/2000/svg" viewBox="0 0 800 800">
  <defs>
    <style>
      .cls-1 {
        fill: none;
      }

      .cls-2 {
        fill: #010101;
      }
    </style>
  </defs>
  <rect class="cls-1" width="800" height="800"/>
  <path class="cls-2" d="M594.36,402.75c11.98,.44,24,.51,35.97,0,7.72-.34,12.84,1.86,18.28,7.98,30.64,34.48,86.65,28.81,108.99-10.49,6.72-11.81,2.25-20.34-11.26-20.94-8.78-.39-17.59-.15-26.38-.17-8.61-.02-12.6-5.41-12.45-12.93,.14-6.99,4.27-11.91,12.23-11.92,8.39-.02,16.79,.11,25.18-.16,15.72-.51,20.21-8.68,12.16-21.82-22.01-35.93-71.86-45.03-102.04-15.77-12.92,12.52-25.15,15.45-40.93,14.26-5.96-.45-12.04-.57-17.97,.05-7.81,.81-10.14-1.84-10.04-9.82,.44-35.58,.49-71.16-.03-106.74-.12-8.48,2.95-9.82,10.33-9.73,21.58,.26,43.22,.77,64.73-.53,35.83-2.17,58.3-37.93,46.08-71.86-8.6-23.88-26.23-35.15-52.47-34.32-5.87,.19-12.09,3.44-17.8-2.73-11.93-12.88-27.21-19.22-44.81-19.04-5.38,.06-6.9-1.18-8.12-6.92-5.36-25.23-21.93-38.1-47.47-38.11-95.15-.03-190.29-.02-285.44,.03-4.34,0-8.61-.1-12.99,1.24-22.71,6.93-34.6,23.48-34.64,49.67-.1,60.77-.21,121.53,.17,182.3,.05,8.7-1.68,11.53-11.03,11.41-44.37-.56-88.75-.31-133.12-.22-20.97,.04-30.73,9.63-31.02,30.57-.25,17.99-.06,35.98-.05,53.97,.02,29.19,7.51,36.6,37.14,36.62,37.18,.02,74.36,0,111.54,0,26.59,0,26.25,0,26.56,26.92,.09,8.16-1.68,10.89-10.35,10.68-20.33-.49-27.97,5.15-35.31,23.58-4.2,10.55-10.61,13.03-20.82,8.06-14.66-7.14-29.83-4.54-41.5,7.12-13.49,13.47-15.95,26.2-8.11,42.01,5.05,10.18,3.14,15.12-7.49,19.37-18.62,7.45-23.86,16.48-23.49,40.45,.25,16.12,7.71,26.03,23.89,31.76,10.47,3.7,12.9,10.06,7.45,19.5-8.55,14.81-6.91,27.55,5.16,40.07,16.2,16.81,28.4,20.12,43.99,11.95,9.86-5.17,15.88-2.84,19.99,7.7,6.82,17.5,16.43,24.54,35.2,24.06,8.3-.21,11.51,1.01,11.49,10.65-.09,32.03,18.04,49.47,49.72,49.49,47.17,.02,94.35,0,141.52,0,46.77,0,93.55,0,140.32,0,32.42,0,50.8-18.41,50.97-51.24,.13-25.99,.4-51.98-.19-77.95-.19-8.42,2.04-10.61,10.48-10.51,39.97,.47,79.95,.4,119.93,.14,26.24-.17,43.07-17.58,43.11-43.78,.01-7.6-.63-15.25,.11-22.78,2.55-25.8-15.96-50.49-49.41-49.25-37.93,1.4-75.94,.25-113.92,.4-6.18,.03-10.43,.13-10.29-8.48,.5-31.97,.38-63.96,.05-95.94-.07-6.54,2.1-8.09,8.21-7.86Zm73.06-67.28c14.5-14.48,37.01-16.91,52.87-5.7-23.42,4.14-35.55,16.66-35.59,36.74-.04,20.56,11.84,32.99,36.38,37.31-20.15,13.37-47.09,3.92-57.48-10.66-12.91-18.13-11.59-42.3,3.81-57.68Zm-41.32-216.67c4.71,6.47,9.48,10.41,17.94,5.66,11.41-6.41,22.8-6.71,33.06,2.71,10.05,9.23,12.79,21.66,7.95,34.9-4.55,12.43-15.15,19.85-29.6,20-20.78,.22-41.56,.05-62.33,.05s-41.56,.1-62.33-.04c-10.87-.07-19.49-4.76-23.91-14.83-3.74-8.51-3.05-17.27,3.33-24.57,6.59-7.54,14.78-10.58,24.69-6.91,8.99,3.33,14.26-.52,17.88-8.71,15.23-34.42,51.32-38.47,73.33-8.25ZM203.43,573.14c0,5.98-.7,12.07,.15,17.93,1.53,10.57-3.96,11.73-12.37,11.1-16.2-1.2-27.34-14.18-26.73-31.82,.52-15.04,13.76-27.92,28.61-28,7.15-.04,11.23,2.24,10.47,10.46-.62,6.72-.13,13.55-.13,20.33Zm-.97-55.08c-3.06,5.09-12.35,1.06-18.89,2.27-25.96,4.8-44.7,29.2-42.84,56.51,1.79,26.4,25.29,48.8,52.74,48.78,8.69,0,10.62,2.16,10.16,10.35-.73,12.73,.13,25.55-.37,38.3-.17,4.27,3.67,11.7-5.22,11.84-7.38,.12-16.25,3.31-19.48-8.24-3.44-12.27-11.79-20.3-24.07-24.44-8.91-3-18.01-3.15-25.21,2.26-9.39,7.05-13.23,.09-18.83-4.77-5.87-5.09-4.78-9.22-.85-15.25,11.35-17.41,2.1-43.27-18.08-49.97-7.95-2.64-12.04-5.91-12.12-14.72-.09-8.89,3.28-13.42,11.7-16.58,20.79-7.79,28.35-27.78,18.27-47.35-3.42-6.64-3.28-11.55,1.99-17.09,5.76-6.06,10.92-5.76,17.97-2.03,18.98,10.03,42.14,.63,49.91-19.67,1.97-5.14,2.9-10.64,9.96-11.86,11.22-1.95,14.18,.21,14.24,11.77,.04,7.19,0,14.37,0,21.56,0,2.4,.02,4.79,0,7.19-.08,7.18,2.23,15.81-.96,21.13Zm-23.41-144.03c-38.77,0-77.55-.2-116.32,.16-8.05,.07-11.34-1.71-11.04-10.52,.65-18.76,.47-37.57,.06-56.35-.15-6.85,2.11-8.94,8.85-8.93,78.75,.17,157.49,.16,236.24,0,6.14-.01,8.46,1.71,8.34,8.13-.34,19.58-.52,39.18,.07,58.75,.24,8.08-3.11,8.94-9.88,8.89-38.77-.28-77.55-.13-116.32-.13Zm384.07,271.08c-.96,25.14-.23,50.35-.32,75.53-.06,17.68-7.86,25.58-25.28,25.6-47.56,.05-95.13,.02-142.69,.02-47.56,0-95.13,.03-142.69-.01-18.03-.02-25.21-7.15-25.23-25.29-.05-83.94-.02-167.88-.02-251.81,0-19.43,.69-38.89-.27-58.27-.55-11.14,1.87-14.78,13.96-14.59,49.15,.81,98.32,.36,147.48,.33,27.78-.02,35.55-7.83,35.56-35.55,0-17.99,.07-35.97-.02-53.96-.1-21.63-9.85-31.6-31.22-31.64-51.56-.09-103.12-.29-154.68,.21-9.22,.09-11.08-2.5-11.03-11.28,.4-61.15,.18-122.31,.23-183.46,.01-18.46,7.66-26.15,25.9-26.15,94.73-.03,189.46,.29,284.18-.31,15.5-.1,24.87,10.32,23.91,23.07-.06,.8,.16,1.66-.07,2.39-2.78,8.71-12.2,10.68-17.49,17.09-4.54,5.5-6.06,13.59-17,14.14-26.85,1.34-45.86,22.74-45.11,47.85,.73,24.6,20.26,43.72,46.49,45.48,2.39,.16,4.8,.06,7.19,.23,9.06,.66,21.43-4.06,26.29,2.06,4.54,5.73,1.59,17.56,1.59,26.71,.05,89.93-.11,179.87,.24,269.8,.04,9.22-2.05,11.95-11.67,11.9-83.93-.41-167.88,.47-251.8-.58-33.17-.42-52.01,20.62-50.21,51.03,.33,5.58,0,11.19,.06,16.78,.36,30.67,17.87,48.07,48.51,48.08,83.54,.03,167.08,.33,250.61-.33,12.37-.1,15.04,3.21,14.59,14.94Zm-235.1-308.21c0-9.96,.27-19.93-.1-29.88-.22-5.81,1-8.76,7.7-8.64,18.72,.35,37.46,.28,56.18,.03,6.04-.08,8.42,1.75,8.31,8.16-.35,19.92-.26,39.85-.04,59.77,.06,5.38-1.11,7.92-7.22,7.81-19.12-.33-38.26-.29-57.38-.02-5.59,.08-7.81-1.46-7.57-7.35,.42-9.95,.11-19.92,.11-29.88Zm318.48,209.18c0-4.46-.48-9.08,6.25-9.02,22.68,.2,45.36,.28,68.03,.52,.99,.01,1.97,1.18,2.96,1.8,16.92,9.86,18.68,55.39,2.53,65.19-6.52,4.47-13.85,1.96-20.77,2.08-18.71,.32-37.42-.03-56.13-.12-4.22-.84-2.77-4.29-2.78-6.7-.14-17.92-.07-35.83-.08-53.75Zm-34.7-8.49c10.51-.04,13.93,2.37,13.19,13.13-1.01,14.71-.79,29.56-.06,44.3,.46,9.14-1.83,12.1-11.61,12.01-53.11-.54-106.23-.25-159.35-.25-52.32,0-104.64,.02-156.96-.01-17.79-.01-24.2-6.54-24.27-24.54-.03-7.99-.21-15.98,.05-23.96,.39-11.89,7.39-19.23,19.11-20.33,2.77-.26,5.59-.09,8.38-.09,103.84,0,207.68,.16,311.51-.26Zm-25.68-164.86c-.92-18.58-1.2-18.56,23.81-18.56,2,0,4,0,6,0,16.7,0,19.66,4.1,16.52,21.01-.95,5.12-4.07,3.98-6.94,4.01-10.79,.12-21.59-.16-32.37,.14-5.02,.14-6.74-1.18-7.01-6.59Zm-192.39,354.04c-7.56,0-15.12,.02-22.68,0-7.05-.03-11.31-3.65-12.06-10.54-.79-7.28,3.94-12.12,10.19-12.42,17.06-.82,34.21-.84,51.27-.04,6.21,.29,11.04,5.05,10.31,12.35-.69,6.88-4.9,10.6-11.95,10.65-8.36,.06-16.71,.01-25.07,.01ZM195.63,347.63c-25.17,0-50.35-.04-75.52,.02-8.24,.02-15.7-.97-15.58-11.71,.11-10.59,7.79-11.8,15.8-11.81,49.55-.08,99.09-.07,148.64,0,8.16,.01,15.73,1.78,15.71,12.05-.02,10.56-7.73,11.51-15.92,11.48-24.37-.06-48.75-.02-73.12-.02Zm-110.1,.08c-8.8-.05-13.8-4.35-13.74-12.18,.05-7.48,5.81-11.39,12.79-11.25,7.3,.14,13.14,3.44,12.88,12.22-.24,8.09-5.49,10.71-11.92,11.21Zm633.4,234.6c-4.61-3.8-4.81-8.08-4.57-13.62,.55-12.55-4.49-22.32-16.91-27.14-6.6-3.07-13.13-2.02-19.64,.33-11.94,5.28-17.37,14.98-16.48,27.46,.82,11.54,7.19,20.66,18.56,23.61,10.3,2.67,21.38,1.89,29.9,10.35,3.28,3.26,7.35-1.25,11.13-1.81,4.19-6.91,4.71-13.66-1.99-19.19Zm-30.97-11.39c-2.53-.08-3.13-1.86-3.17-3.88-.05-2.11,.8-4,3.18-3.86,2.57,.16,4.26,1.84,4.06,4.57-.17,2.32-1.95,3.09-4.07,3.17Z"/>
</svg>