<?xml version="1.0" encoding="UTF-8"?>
<svg id="Layer_1" data-name="Layer 1" xmlns="http://www.w3.org/2000/svg" viewBox="0 0 800 800">
  <defs>
    <style>
      .cls-1 {
        fill: none;
      }

      .cls-2 {
        fill: #010101;
      }
    </style>
  </defs>
  <rect class="cls-1" width="800" height="800"/>
  <path class="cls-2" d="M770.69,364.1c-.2-26.48-18.48-44.26-45.14-44.58-16.67-.2-33.42,.9-50.02-.23-36.02-2.45-67.16,3.41-81.15,45.02-14.4-25.64-28.66-48.22-40.02-72.16-8.57-18.05-20.09-26.49-39.84-22.78-10.44,1.96-12.94-2.25-12.98-12.63-.1-30.32-21.39-54.22-48.63-54.83-31.25-.69-62.54-.63-93.8,.02-22.37,.47-43.99,21.22-47.15,43.07-1.15,7.96,3.85,18.91-3.2,23.16-6.17,3.72-16.2,1.05-24.52,1.19-1.25,.02-2.53,.17-3.75-.02-13.01-2.11-20.53,3.7-26.57,15.22-13.65,26.04-28.6,51.4-43.06,77.11-4.39-2.01-5.47-5.85-7.05-9.04-11.65-23.52-30.76-33.75-56.67-33.18-20.84,.46-41.69,.09-62.54,.09-35.57,.01-52.26,16.47-52.29,51.61-.03,35.84-.17,71.68,.06,107.52,.13,19.14-1.64,38.35,1.57,57.41,6.2,36.83,19.41,68.4,60.3,78.48,4.41,1.09,5.24,3.34,5.04,6.98-.68,12.96,6.63,16.31,18.13,16.12,22.92-.37,45.87,.31,68.78-.32,8.96-.24,11.19,2.68,11.03,11.27-.51,27.5-.23,55.01-.17,82.51,.04,16.33,3.54,19.99,19.7,20,123.41,.05,246.82,.06,370.23,0,15.86,0,19.88-4.15,19.94-20.06,.09-27.92,.26-55.85-.13-83.76-.11-7.51,1.81-10.11,9.72-9.93,23.34,.52,46.69-.04,70.04,.29,10.95,.16,18.2-3.37,17.78-15.36-.22-6.32,3.12-7.03,8.04-8.36,21.43-5.77,36.37-19.5,45.92-39.29,9.22-19.11,12.76-39.46,12.75-60.5-.04-50.01,.02-100.02-.35-150.02Zm-169.89,38.15c7.82-13.24,15.35-26.67,22.59-40.23,6.34-11.87,15.9-17.46,29.27-17.38,23.33,.15,46.66-.06,69.99,.08,16.72,.1,22.92,6.52,23.03,23.66,.11,18.32,.03,36.64,.03,54.97,0,19.57-.26,39.15,.14,58.71,.14,7.06-2.07,9.46-9.24,9.33-21.24-.39-42.49-.32-63.74-.02-5.88,.08-8.37-2.82-11.69-7.14-13.7-17.84-17.09-34.8,.69-52.19,3.75-3.67,6.14-8.89,8.58-13.69,3.53-6.94,2.15-13.1-4.79-17.1-6.51-3.75-12.25-1.78-16.25,4.13-7.23,10.67-14.33,21.45-20.99,32.48-5.28,8.74-12.52,12.56-22.68,12.49-32.08-.23-64.16-.12-96.23-.06-9.49,.02-17.19-3.07-16.98-13.67,.2-10.27,7.69-13.82,17.22-13.8,18.33,.04,36.66-.04,54.99-.01,15.96,.02,28.06-6.95,36.08-20.54Zm-231.85-175.36c25.82-.05,51.64-.12,77.46,.03,20.48,.12,33.54,16.49,30.38,36.78-1.01,6.52-5.06,5.45-9,5.47-20.41,.07-40.81,.03-61.22,.03-20.41,0-40.82-.23-61.22,.14-6.4,.11-8.47-1.6-8.64-8.28-.59-23.32,9.21-34.12,32.23-34.16Zm-139.26,152.79c14.4-25.78,29.01-51.45,43.2-77.35,3.17-5.79,6.76-7.98,13.61-7.96,76.71,.3,153.42,.3,230.13,0,7.31-.03,11.16,2.46,14.52,8.59,14.18,25.91,28.83,51.56,43.19,77.38,6.29,11.31,3.2,16.75-10.29,17.08-17.92,.43-35.85,.04-53.78,.16-25.95,.18-43.6,16.45-43.34,39.79,.25,22.84,17.22,38.31,43.37,38.03,37.07-.4,74.18,2.11,111.19-1.56,2.71-.27,4.82-.42,6.33,2.28,13.73,24.55,27.5,49.07,41.98,74.9H133.89c14.25-25.53,27.95-50.05,41.64-74.58,1.81-3.25,4.41-2.45,7.5-2.19,38.28,3.23,76.65,1.56,114.97,1.14,22.58-.25,39.45-18.46,38.91-39.1-.55-20.9-17.64-37.78-40.04-38.49-18.74-.59-37.52,.05-56.28-.23-15.27-.23-18.07-5.04-10.9-17.89ZM57.46,480.63c.53-19.16,.17-38.35,.17-57.52,0-18.34-.11-36.68,.03-55.03,.12-16.27,6.62-23.08,22.46-23.22,23.77-.2,47.54-.11,71.31-.03,12.74,.04,22.2,5.4,28.33,16.95,7.01,13.23,14.57,26.18,21.97,39.2,8.33,14.64,20.78,22.12,37.84,21.94,17.51-.19,35.03,.12,52.55-.09,9.96-.12,18.59,3.21,18.93,13.69,.35,10.81-8.28,14.01-18.26,13.97-31.69-.14-63.39-.23-95.08,.05-10.25,.09-17.48-3.93-22.75-12.52-6.31-10.29-12.83-20.45-19.44-30.56-4.66-7.13-11-10.98-18.91-5.48-7.11,4.96-6.4,12.16-2.36,18.85,5.81,9.62,11.74,19.19,18.21,28.37,3.77,5.35,4.38,9.44,.94,15.6-14.7,26.28-14.44,26.43-44.27,26.43-13.76,0-27.55-.48-41.28,.18-8.54,.41-10.61-2.75-10.39-10.79Zm55.49,55.6c-8.74,14.25-16.81,28.52-13.74,46.36,1.28,7.43-2.76,7.07-8.05,4.64-21.13-9.71-26.89-29.2-31.53-49.34-1.02-4.43-1-9.09-1.72-13.6-.81-5.07,.42-7.85,6.28-7.8,19.06,.17,38.12,.06,59.65,.06-4.52,8.22-7.46,14.1-10.89,19.68Zm457.03,189.78c-56.3-.39-112.59-.2-168.89-.2-55.88,0-111.76-.16-167.64,.17-8.42,.05-11.64-1.79-11.37-10.92,.67-22.49,.5-45.02,.06-67.52-.15-7.57,2.06-9.97,9.82-9.96,113.01,.23,226.03,.27,339.04-.05,9.34-.03,11.03,3.47,10.86,11.68-.45,21.67-.67,43.37,.09,65.02,.34,9.63-2.81,11.83-11.97,11.77Zm109.51-136.35c-.73,22.61-.17,22.63-23.18,22.63-172.6,0-345.21-.12-517.81,.27-11.4,.03-14.62-2.83-14.22-14.19,.76-21.57,.06-21.6,21.72-21.6,85.47,0,170.94,0,256.4,0,87.97,0,175.94,.17,263.91-.23,10.33-.05,13.52,2.64,13.18,13.11Zm32.85-2.44c-4.27,1.72-9.11,3.39-7.68-3.75,4.2-21.05-8.35-36.29-17.21-52.88-2.12-3.96-4.23-7.92-7.49-14.03,20.73,0,39.37-.03,58.02,.03,3.16,.01,6.42-.65,7.59,4.17,4.8,19.68-14.76,59.03-33.22,66.47ZM111.44,162.04c-37.64,.22-68.96,31.83-68.97,69.61-.01,37.75,31.49,69.18,69.32,69.15,37.82-.03,69.39-31.18,69.8-68.89,.42-37.73-32.07-70.09-70.15-69.87Zm.49,113.18c-23.99,.06-43.7-19.24-44.14-43.23-.44-23.91,20.2-44.86,44.14-44.8,23.78,.06,44.96,21.42,44.43,44.81-.53,23.61-20.63,43.16-44.43,43.21Zm579.01-113.19c-37.76,.35-68.82,31.89-68.71,69.77,.1,37.92,31.44,69.1,69.36,69,38.17-.09,69.09-30.93,69.25-69.06,.16-38.5-31.5-70.07-69.9-69.71Zm1.42,113.18c-24.49,.5-44.92-19.36-44.93-43.67-.01-23.62,19.71-43.8,43.33-44.35,23.96-.55,44.61,19.74,44.78,44.02,.17,24.15-18.82,43.5-43.18,44ZM406.96,48.86c-38.46-.27-69.93,31.06-69.87,69.58,.06,37.94,31.13,68.69,69.37,68.67,38.54-.02,68.82-30.27,68.87-68.78,.05-38.56-30.11-69.19-68.37-69.46Zm-.4,113.07c-24.64,.13-44.5-19.79-44.21-44.33,.29-23.94,19.99-43.48,43.86-43.49,24.71-.02,43.94,19.47,43.82,44.43-.11,24.32-19.09,43.26-43.48,43.39Z"/>
</svg>