<?xml version="1.0" encoding="UTF-8"?>
<svg id="Layer_1" data-name="Layer 1" xmlns="http://www.w3.org/2000/svg" viewBox="0 0 800 800">
  <defs>
    <style>
      .cls-1 {
        fill: #020202;
      }

      .cls-2 {
        fill: none;
      }
    </style>
  </defs>
  <rect class="cls-2" width="800" height="800"/>
  <path class="cls-1" d="M740.05,390.13c-20.01,1.19-24.57-2.67-26.69-22.23-4.13-38.29-12.84-75.37-29.01-110.51-1.62-3.52-3.47-7.45-3.35-11.14,.16-4.94,3.35-9.06,8.57-10.14,6.37-1.31,10.45,2.07,13.11,7.64,9.88,20.71,17.52,42.23,23.15,64.45,4.17,16.47,7.76,33.16,8.62,50.1,.45,8.84,3.46,10.05,11.31,9.4,18.13-1.49,29.35,6.26,33.37,21.38,2.08,7.84,.26,14.91-3.8,21.48-15.35,24.88-30.55,49.86-46.38,74.43-11.39,17.68-32.33,19.4-46.15,3.74-19.36-21.94-38.07-44.43-57.03-66.72-7.61-8.95-9.49-19.1-4.85-29.86,4.82-11.16,13.73-16.69,25.97-17.4,17.77-1.04,17.67-1.21,15.03-19.06-10.55-71.32-43.42-130.26-97.72-177.6-22.74-19.83-17.75-51.81,9.32-62.27,12.52-4.84,24.28-2.53,34.47,5.75,25.32,20.59,46.88,44.7,65.57,71.42,4.4,6.29,5.94,12.8-.98,17.63-7.33,5.12-13.3,1.53-17.94-5.25-15.95-23.3-34.88-43.93-56.09-62.53-7.18-6.29-14.61-10.89-22.49-1.99-7.85,8.87-2.59,15.82,4.67,22.07,54.11,46.57,87.28,105.33,101.33,175.02,2.41,11.97,3.73,24.23,4.53,36.43,.69,10.62-3.99,18.55-15.39,20.42-6.99,1.15-14.13,1.41-21.17,2.28-9.46,1.17-11.46,5.11-5.53,12.22,17.72,21.26,35.81,42.22,53.72,63.33,5.9,6.96,9.75,3.86,13.55-2.29,13.71-22.18,27.62-44.25,41.35-66.42,2.01-3.24,5.42-6.5,3.33-10.76-2.49-5.07-7.5-3.12-11.67-3.24-1.58-.05-3.16,.13-4.74,.21Zm-173.08,172.11c-2.29,6.84-7.97,7.8-14.36,7.78-29.68-.12-59.37-.05-89.05-.05-21.37,0-42.74,0-64.11,0-49.87,0-99.73-.02-149.6,.03-6.84,0-14.11,.65-16.97-7.43-2.61-7.36,1.28-11.78,7.97-14.71,4.34-1.9,2.37-6.26,2.39-9.5,.18-20.57-.03-41.14,.13-61.71,.12-15.41,7.99-23.13,23.46-23.28,13.45-.13,26.92-.34,40.36,.1,6.7,.22,9.08-1.88,8.86-8.71-.44-13.44-.35-26.9-.07-40.35,.38-17.99,7.49-24.77,25.66-24.9,12.66-.09,25.35-.43,37.99,.14,7.5,.34,9.5-2.39,9.24-9.5-.48-13.43-.37-26.9-.08-40.34,.36-16.71,7.47-23.64,24.16-23.88,11.47-.17,23.02-.8,34.41,.18,11.13,.96,15.63-1.96,14.55-13.95-1.14-12.56-.45-25.3-.19-37.95,.29-14.01,8.1-22.01,22.11-22.29,17.01-.33,34.04-.35,51.05,.02,13.97,.3,21.86,8.36,21.93,22.44,.19,39.95-.03,79.91,.16,119.86,.04,8.29-2.64,14.81-11.37,14.84-9.28,.03-10.75-7.37-10.73-15.2,.09-36.39-.2-72.79,.22-109.18,.1-8.29-2.25-11.25-10.63-10.59-8.65,.68-17.49,.91-26.09-.04-11.18-1.24-14.66,2.06-14.55,13.9,.63,66.85,.3,133.71,.3,200.56,0,23.34,.23,46.68-.14,70.02-.11,7.05,1.67,10,9.25,9.57,10.65-.6,21.4-.69,32.04,.02,8.31,.55,9.84-2.92,9.77-10.31-.32-32.04-.14-64.08-.14-96.13,0-3.16,.12-6.33,.02-9.49-.25-7.3,2.72-13.25,10.15-13.46,7.75-.23,11.95,5.09,11.83,13.22-.1,6.72,0,13.45,0,20.17,0,28.88-.07,57.76,.09,86.63,.02,3.49-1.91,7.72,3.62,9.96,5.7,2.31,8.46,7.22,6.36,13.49Zm-250.94-22.52c-.33-9.07-.09-18.16-.09-27.23,0-9.47-.17-18.95,.06-28.42,.14-5.62-1.11-8.93-7.8-8.72-11.84,.38-23.7,.32-35.54,.02-5.93-.15-7.35,2.54-7.3,7.87,.19,18.95,.29,37.9-.05,56.84-.11,6.37,2.28,8.19,8.31,8.01,11.44-.35,22.91-.38,34.35,0,6.38,.21,8.26-2.4,8.04-8.37Zm72.86-1.12c-.39-20.95-.14-41.91-.14-62.86,0-21.75-.21-43.5,.13-65.24,.1-6.64-1.84-9.17-8.72-8.87-11.05,.49-22.15,.37-33.22,.03-5.83-.18-8.52,1.16-8.48,7.77,.24,43.49,.22,86.98,.01,130.48-.03,6.07,1.64,8.45,8.01,8.2,11.06-.44,22.17-.56,33.21,.03,7.54,.4,9.34-2.49,9.21-9.53Zm72.98-1.04c-.46-33.2-.19-66.41-.19-99.62,0-33.6-.18-67.21,.15-100.81,.07-7.09-1.62-9.97-9.2-9.51-10.24,.62-20.59,.7-30.83-.02-8.38-.58-10.57,2.26-10.53,10.51,.32,66.41,.3,132.83,.02,199.24-.03,7.9,1.56,11.47,10.31,10.79,9.83-.77,19.8-.7,29.64-.02,8.34,.57,10.74-2.23,10.63-10.58Zm22.65-416.21c-21.92,19.37-44.15,38.4-66.82,56.89-18.98,15.48-43.37,5.2-46.68-19.04-2.67-19.53-2.7-19.73-22.06-16.73-68.59,10.63-126.03,41.87-171.85,93.99-11.89,13.52-25.02,21.59-43.58,15.42-14.31-4.76-24.04-18-24.2-33.16,.18-9.45,3.5-17.59,9.65-24.81,49.98-58.63,112.25-97.4,187.01-116.18,16.12-4.05,32.41-7.33,48.97-8.28,7.97-.46,9.72-2.61,8.62-10.45-2.41-17.26,5.69-29.48,20.65-33.88,7.83-2.31,14.96-.74,21.55,3.29,25.25,15.49,50.58,30.85,75.46,46.93,17.8,11.51,19.25,31.91,3.29,46.01Zm-17.34-28.5c-23.53-14.51-46.97-29.17-70.51-43.67-7.67-4.73-11.51-1.76-10.58,6.6,3.28,29.6-.81,33.12-32.86,36.61-1.57,.17-3.15,.29-4.72,.5-84.97,11.53-155.33,49.98-211.53,114.58-2.67,3.07-4.86,6.2-4.91,10.45-.09,6.28,2.92,10.53,8.72,12.68,8.35,3.09,13.36-2.05,18.18-7.61,51.03-58.92,115.55-92.84,192.48-103.84,34.21-4.89,39.18-.99,41.77,33.62,.26,3.44-.58,7.38,3.6,9.26,4.11,1.85,6.73-1.08,9.36-3.3,20.52-17.35,40.92-34.84,61.48-52.14,5.98-5.03,6.75-9.29-.48-13.75ZM247.3,672.1c-5.22,13.07-19.33,22.51-30.48,22.41-12.95-.3-21.19-4.4-28.6-10.85-65.97-57.4-106.48-129.02-120.52-215.42-1.14-7-2.25-14.08-2.34-21.14-.09-6.82-3.09-7.95-8.91-6.89-13.18,2.39-24.52-.81-32-12.56-7.87-12.35-4.29-23.89,3.04-35.35,14.04-21.94,27.55-44.21,41.39-66.27,13.58-21.65,33.92-23.49,50.39-4.41,17.82,20.64,35.26,41.61,53.1,62.23,8.19,9.47,11.73,19.91,6.82,31.69-4.88,11.72-14.67,16.65-27.15,17.76-17.34,1.55-17.1,1.84-14.42,18.9,11.13,71.03,43.22,130.42,97.82,177.54,14.41,12.44,18.07,26.81,11.87,42.36Zm-20.08-14.2c.28-5.69-3.87-9-7.73-12.36-60.78-52.87-95.64-119.3-104.95-199.29-3.19-27.39,1.66-33.6,29.52-35.4,1.18-.08,2.37-.05,3.55-.15,3.81-.33,8.46,.79,10.3-3.88,1.76-4.48-1.91-7.31-4.41-10.25-16.87-19.89-33.94-39.6-50.6-59.67-6.08-7.32-10.23-6.96-15.11,1.08-11.88,19.58-24.39,38.77-36.12,58.44-3.46,5.79-11.7,11.5-7.95,18.38,3.92,7.2,13.02,2.45,19.75,2.55,15.57,.23,21.87,5.35,23.14,20.48,4.61,54.81,21.15,105.68,50.36,152.35,18.16,29.01,40.36,54.58,66.37,76.85,4.9,4.2,10.19,6.36,16.27,3.41,4.91-2.38,7.97-6.4,7.61-12.54Zm463.2-67.62c.18,8.73-3.15,16.18-8.66,22.68-50.84,60.08-114.56,99.41-191.04,117.92-15.69,3.8-31.56,7.31-47.82,7.53-6.09,.08-7.55,2.61-6.77,7.95,.4,2.73,.55,5.51,.55,8.27-.05,22.34-22.17,36.57-41.48,25.45-26.68-15.37-52.75-31.87-78.49-48.77-15.25-10.02-16.75-30.86-3.1-43.08,22.96-20.54,46.31-40.7,70.38-59.92,17.63-14.08,42.51-2.26,44.96,20.33,2.21,20.41,2.15,20.04,21.91,16.88,70.25-11.24,128.39-43.84,175.19-97.37,20-22.88,51.33-17.69,62.24,9.41,1.69,4.21,1.95,8.38,2.12,12.71Zm-27.05-10.05c-7.95-7.21-15.16-3.99-21.27,3.42-1.76,2.13-3.59,4.21-5.46,6.25-50.98,55.89-113.96,89-189.01,98.56-35.86,4.57-37.2,3.02-40.69-32.8-.38-3.89,.02-8.38-4.69-9.95-3.98-1.33-6.55,1.77-9.25,4.06-19.88,16.9-39.63,33.96-59.74,50.58-7.57,6.25-7.97,10.51,.89,15.86,22.66,13.68,45,27.87,67.49,41.82,2,1.24,4.14,2.25,6.47,3.5,3.79-1.07,6.33-2.94,6.07-7.34-.27-4.74-.53-9.47-.72-14.21-.6-14.62,5.22-21.55,19.43-22.8,20.48-1.8,40.77-4.86,60.61-10.24,67.06-18.19,123.51-53.38,169.05-105.95,5.98-6.9,8.23-14.04,.82-20.76ZM376.57,259.45c-3.42,15.77-7.07,31.49-10.4,47.27-2.4,11.35-8.35,19.76-19.75,22.86-11.57,3.15-20.58-1.82-28.27-10.41-11.54-12.89-11.71-12.79-24.33-1.51-13.25,11.84-26.44,23.75-39.66,35.62-6.37,5.73-13.76,10.02-20.43,1.9-6.27-7.62-.52-13.62,5.5-18.93,15.4-13.59,30.42-27.59,45.98-40.99,4.9-4.22,6.16-7.04,1.04-11.98-9.87-9.53-18.99-19.96-13.82-35.19,5.46-16.07,19.61-17.42,33.74-18.68,13.35-1.19,26.66-2.93,36.48-4.04,26.03-2.26,38.7,12.02,33.92,34.07Zm-29.76-12.04c-15.27,1.67-30.57,3.08-45.84,4.76-6.92,.76-9.61,3.38-3.92,9.64,12.46,13.71,24.83,27.51,37.07,41.42,4.95,5.63,8.24,5.65,10.02-2.15,3.5-15.32,6.96-30.65,10.75-47.37,1.29-5.38-2.07-6.96-8.08-6.3Z"/>
</svg>