<?xml version="1.0" encoding="UTF-8"?>
<svg id="Layer_1" data-name="Layer 1" xmlns="http://www.w3.org/2000/svg" viewBox="0 0 800 800">
  <defs>
    <style>
      .cls-1 {
        fill: none;
      }

      .cls-2 {
        fill: #060707;
      }
    </style>
  </defs>
  <rect class="cls-1" width="800" height="800"/>
  <path class="cls-2" d="M586.15,74.88c-.81,1.99-1.57,4.68-2.92,7.04-8.83,15.45-17.78,30.83-26.72,46.21-3.92,6.75-9.11,11.83-17.3,7.38-8.59-4.66-7.7-11.89-3.43-19.32,9.07-15.77,18.09-31.56,27.19-47.3,3.34-5.78,8.23-8.62,14.91-6.48,5.54,1.77,8.03,6.05,8.26,12.45Zm120.66,463.52c-16.77-9.7-33.55-19.41-50.36-29.04-6.66-3.81-12.51-2.33-16.32,4.06-3.46,5.81-2.53,12.13,3.33,15.67,17.59,10.63,35.31,21.08,53.47,30.68,8.06,4.25,16.56-2.06,16.33-10.72-.04-4.84-2.39-8.31-6.44-10.65ZM388.38,85.14c.06,7.26,3.26,12.59,10.86,13.08,8.25,.53,12.67-4.88,12.85-12.46,.44-19.39,.44-38.8,0-58.18-.17-7.57-4.45-12.92-12.83-12.41-7.76,.47-10.8,5.72-10.86,12.97-.07,9.5-.02,19-.02,28.5,0,9.5-.06,19,.01,28.5Zm267.57,155.84c17.46-9.99,34.96-19.91,52.19-30.28,5.99-3.6,6.7-9.74,3.55-15.61-3.37-6.28-9.66-7.65-15.33-4.55-17.99,9.84-35.67,20.26-53.26,30.79-5.06,3.03-5.63,8.48-3.89,13.72,1.68,5.05,5.79,7.22,11.89,7.32,1.11-.3,3.21-.45,4.86-1.39ZM142.94,509.88c-16.3,8.97-32.29,18.5-48.42,27.78-6.67,3.84-10.31,9.38-6.51,16.72,4.07,7.87,10.99,8.4,18.25,4.26,16.16-9.22,32.23-18.61,48.34-27.92,4.41-2.55,7.16-6.15,7.17-11.46-.12-9.62-9.41-14.56-18.83-9.37ZM52.55,363.39c-7.8-.06-12.19,4.39-12.39,11.47-.2,7.13,4.38,12.22,11.77,12.36,19.77,.36,39.55,.38,59.32-.07,7.16-.16,11.93-4.68,11.76-12.27-.17-7.59-4.8-11.39-12.32-11.45-9.49-.08-18.98-.02-28.48-.02-9.89,0-19.78,.06-29.66-.02Zm637.98,.15c-7.75-.06-12.19,4.19-12.46,11.39-.27,7.19,4.08,12.33,11.52,12.47,19.76,.37,39.53,.33,59.3-.01,7.32-.13,11.92-4.64,11.87-12.12-.05-7.52-4.55-11.56-12.11-11.66-9.88-.13-19.77-.03-29.65-.04-9.49,0-18.98,.05-28.46-.02Zm-159.2,216.03c-17.84,11.41-26.13,25.05-24.77,45.87,.9,13.82,.05,27.74,.19,41.61,.2,19.64-7.46,34.55-25.75,42.96-4.59,2.11-5.97,5.13-6.46,10.05-3.1,30.99-26.86,52.53-58.14,53.07-9.51,.16-19.03,.07-28.54,.03-34.29-.14-56.13-17.84-62.18-51.41-1.2-6.64-3.56-9.98-9.49-13.14-14.32-7.61-22.13-20.15-22.43-36.59-.32-17.83-.25-35.68-.07-53.52,.15-15.11-5.66-26.56-18.72-34.69-61.89-38.55-99.63-93.8-112.91-165.46-2.37-12.78-3.02-25.93-3.72-38.94-.51-9.58,4.76-14.7,14.53-14.72,15.06-.03,30.13-.28,45.19,.1,7.17,.18,9.08-.68,7.13-8.97-8-33.97,10.14-66,41.47-75.24,46.89-13.83,90.49,26.89,78.93,74.39-2.13,8.74-.63,10.25,7.44,9.81,9.09-.5,18.24-.41,27.34-.02,6.37,.27,8.16-2.37,8.07-8.39-.27-18.63-.09-37.26-.1-55.9,0-6.11,.2-12.22,7-14.99,6.44-2.62,11.1,.62,15.98,4.69,17.21,14.34,38.75,13.34,53.45-2.02,13.7-14.32,13.97-37.09,.6-51.83-14.28-15.74-36.74-16.79-54.38-2.25-4.87,4.01-9.53,7.28-16.02,4.25-6.66-3.11-6.62-9.22-6.63-15.25-.01-11.89,0-23.79,0-35.68,0-11.1-.05-22.2,.01-33.3,.09-16.72,3.54-20.15,20.65-19.09,81.13,5.06,146.01,40.14,191.78,107.47,75.81,111.52,44.24,264.35-69.43,337.06Zm-119.16-224.31c-.69,8.32,2.92,9.75,10.24,9.57,17.83-.45,35.67-.04,53.51-.2,6.77-.06,12.54,1.13,15.85,7.93,3.39,6.98-1.42,11.06-5.11,15.63-13.81,17.11-12.85,39.41,2.27,53.57,14.49,13.57,37.17,13.7,51.88,.3,15.78-14.38,16.76-36.55,2.13-54.2-4.01-4.83-7.44-9.47-4.3-15.97,3.05-6.31,8.67-7.3,14.99-7.26,17.44,.13,34.91-.59,52.31,.28,10.04,.5,12.15-3.05,10.96-12.14-4.44-33.87-14.91-65.62-33.97-94.02-38.71-57.65-92.66-90.78-161.86-98.61-4.17-.47-8.93-2.26-8.77,5.23,.26,12.59,.07,25.2,.07,38.33,5.42-1.12,9.6-2.16,13.84-2.84,24.48-3.94,44.8,3.83,59.98,23.18,15.3,19.51,17.01,41.52,7.38,63.9-11.81,27.44-42.12,41.66-72,34.08-7.55-1.91-9.91-.91-9.34,7.1,.61,8.68,.7,17.48-.02,26.14Zm-94.66,271.32c-.57,6.36,1.06,9.19,8.28,8.99,17.81-.51,35.65-.5,53.46,0,7.64,.21,9.47-2.8,9.19-9.75-.45-11.07-.12-22.18-.12-33.27,0-10.69-.37-21.41,.12-32.08,.37-8.11-.77-11.18-10.32-8.55-25.04,6.9-46.49-.93-62.74-20.52-16.63-20.04-19.4-43.04-8.04-66.59,11.16-23.14,30.55-34.15,56.14-35.45,8.39-.43,19.09,8.01,23.69,1.15,4.23-6.32,1.06-17.61,1.15-26.71,.01-1.58-.21-3.2,.04-4.75,1.41-8.75-2.87-10.65-10.8-10.43-17.81,.48-35.64,.09-53.47,.18-6.13,.03-12.21-.09-15.26-6.61-2.94-6.3,.05-11.15,4.1-16.07,14.65-17.81,13.75-40.05-1.87-54.22-15.11-13.72-36.84-13.71-51.77,.02-15.71,14.45-16.55,36.52-1.9,54.32,3.6,4.38,7.5,8.55,4.82,14.77-3.01,6.97-9.04,7.88-15.81,7.82-18.22-.18-36.44,.06-54.66-.13-6.01-.06-9.13,.26-8.26,8.34,7.34,68.32,38.9,122.72,95.82,160.49,26.09,17.31,41.04,37.44,38.22,69.06Zm125.11,87.37c-13.85,.53-27.74,.14-41.61,.14-15.06,0-30.12,.15-45.18-.07-5.98-.09-7.38,1.7-5.98,7.74,3.61,15.45,15.85,26.64,31.78,27.21,12.27,.44,24.58,.42,36.85,0,14.74-.51,27.81-11.21,31.46-24.8,1.75-6.52,1.25-10.53-7.33-10.2Zm39.27-51.42c-1.93-6.09-9.01-2.91-13.7-2.93-45.45-.23-90.9-.23-136.35,.01-4.63,.03-11.53-3.31-13.65,2.71-2.17,6.15-1.33,13.33,2.81,19.3,4.5,6.49,10.94,8.51,18.52,8.47,20.16-.11,40.31-.04,60.47-.04,20.16,0,40.31-.05,60.47,.03,6.59,.02,12.49-1.37,17.16-6.45,5.69-6.2,6.5-14.06,4.27-21.09Zm123.05-273.96c-7.39,1.01-15.08,.74-22.54,.05-9.18-.84-9.06,2.65-7.19,10.16,6.08,24.44-.65,45.66-19.64,62.03-19.86,17.13-42.93,20.36-66.57,9.48-22.65-10.43-34.2-29.11-36.22-54.39-.73-9.21,8.32-21.02,0-26.14-7.19-4.43-19.24-.97-29.15-1-.4,0-.8,.06-1.19,0-8.76-1.53-10.49,2.81-10.27,10.7,.51,17.82,.15,35.66,.16,53.49,0,6.16-.74,12.01-7.06,15.17-6.47,3.25-11.35,.2-15.96-4.12-4.39-4.12-9.44-7.17-15.29-8.8-17.83-4.96-36.29,2.74-44.54,18.61-8.55,16.45-4.88,35.45,9.14,47.31,14.06,11.9,33.24,12.32,48.13,.7,5.64-4.4,10.6-10.39,18.74-6.15,7.24,3.77,6.85,10.88,6.85,17.69-.02,15.06,0,30.11,0,45.17,0,16.25,.2,32.49-.1,48.73-.11,5.96,1.47,8.43,7.95,8.29,17.82-.39,35.67-.49,53.48,.03,7.72,.22,9.56-2.89,9.04-9.77-2.3-30.45,11.27-50.86,36.94-67.48,56.36-36.49,87.36-90.01,97.08-156.2,1.42-9.69-.04-15.16-11.77-13.55Zm-235.03-211.75c-18.94,26.03-44.67,32.22-76.09,22.93,0,17.59,.07,34.47-.02,51.35-.08,13.83-3.87,17.7-17.57,17.76-23.39,.11-46.77-.08-70.16,.1-6.79,.05-12.82-.95-16-7.67-3.13-6.59,1.02-11.09,4.89-15.83,14.26-17.44,13.39-38.95-1.93-53.43-14.85-14.04-38.11-13.99-52.74,.11-14.79,14.24-15.61,36.84-1.51,53.55,4.11,4.87,7.6,9.61,4.54,15.9-2.93,6.02-8.57,7.42-15.03,7.37-24.18-.18-48.36,.05-72.53-.12-11.95-.08-16.18-4.65-15.88-16.95,3.07-122.84,93.93-215.92,200.74-233.4,12.17-1.99,24.3-3.55,36.62-3.48,12.49,.08,16.42,3.75,16.54,16.15,.17,17.02,.04,34.04,.04,52.7,32.6-10.07,58.6-2.62,77.29,24.78,13.88,20.34,13.33,48.21-1.2,68.19Zm-14.12-42.99c-5.96-28.71-38.96-39.82-62.33-20.81-5.12,4.17-9.88,8.43-16.88,5.12-7.05-3.34-6.79-9.94-6.7-16.41,.11-8.32,.03-16.65,.03-24.97,0-9.12-.57-18.28,.16-27.34,.72-8.92-2.82-10.76-10.92-9.7-30.2,3.94-59.09,12.08-85.26,27.81-63.45,38.14-100.51,93.61-108.6,167.78-.77,7.05,.67,10.28,8.58,9.64,8.27-.67,16.64-.37,24.95-.08,7.13,.24,10.44,.14,7.9-9.56-10.77-41.05,20.49-79.04,62.86-77.66,39.41,1.29,67.06,38.74,57.23,78.54-1.79,7.25-1.21,9.06,6.15,8.71,9.1-.43,18.26-.6,27.33,.05,8.14,.58,9.97-2.64,9.77-10.23-.5-19.01-.11-38.05-.18-57.07-.02-5.65,1.77-10.1,7.2-12.48,4.97-2.19,9.28-.61,13.21,2.59,1.84,1.5,3.52,3.22,5.42,4.63,12.95,9.58,29.95,10.14,43.5,1.5,13.58-8.66,19.92-23.98,16.58-40.06Z"/>
</svg>