<?xml version="1.0" encoding="UTF-8"?>
<svg id="Layer_1" data-name="Layer 1" xmlns="http://www.w3.org/2000/svg" viewBox="0 0 800 800">
  <defs>
    <style>
      .cls-1 {
        fill: #0c0c0c;
      }

      .cls-2 {
        fill: none;
      }
    </style>
  </defs>
  <rect class="cls-2" width="800" height="800"/>
  <path class="cls-1" d="M178.43,556.84c-10.89,0-21.77,.03-32.66-.01-7.71-.03-14.69-2.33-14.97-11.09-.31-9.75,7.07-11.73,15.26-11.72,22.16,.04,44.32,.11,66.48-.04,7.92-.05,14.8,2.19,14.96,10.9,.17,9.28-6.87,12.05-15.25,11.98-11.27-.09-22.55-.02-33.82-.02Zm222.76-.03c7.77-.07,14.42-2.69,14.41-11.58,0-9.05-6.75-11.22-14.55-11.21-22.54,.03-45.08,.03-67.62,0-7.83,0-14.56,2.29-14.45,11.31,.11,8.83,6.82,11.41,14.59,11.47,11.27,.08,22.54,.02,33.81,.02,11.27,0,22.54,.08,33.81-.03Zm-17.74,40.29c7.26-.14,10.81-4.84,10.81-11.19,0-5.94-3.73-10.23-10.34-10.33-10.1-.15-20.22-.24-30.31,.05-6.38,.19-10.3,4.08-10.25,10.38,.05,6.71,3.93,10.81,10.94,11.07,4.66,.17,9.33,.03,13.99,.04,5.05,0,10.11,.08,15.16-.02Zm-186.99-.15c6.53-.55,9.23-4.85,9.13-11.16-.09-5.96-3.09-9.81-8.97-10.05-10.43-.42-20.9-.41-31.33-.07-6.34,.21-10.11,4.31-10.05,10.55,.06,6.05,3.43,10.31,9.89,10.77,5.01,.36,10.06,.07,15.09,.06,5.42-.01,10.87,.35,16.24-.1Zm579.8,83.17c-.04,38.89-30.19,68.84-69.05,68.97-71.37,.23-142.73,.21-214.1,.02-39.94-.11-69.94-30.39-70.08-70.61-.2-57.74-.05-115.48-.09-173.22,0-2.25-.45-4.5-.65-6.35-32.37,3.33-64.35,1.82-96.25,1.32-20.87-.33-36.17-17.15-36.4-38.26-.37-33.55-.37-67.11,0-100.65,.24-22.2,16.5-38.12,38.68-38.34,26.13-.26,52.26-.16,78.38,.02,5,.04,9.99,1.19,16.27,1.99,0-13.17-.05-26.34,.04-39.51,.02-3.32-1.08-5.14-4.63-5-2.34,.09-4.68,0-7.02,0-116.6,0-233.21,.11-349.81-.21-9.44-.03-12.47,1.97-12.43,12.02,.41,94.41,.2,188.83,.27,283.24,.03,36.39,18.2,54.35,54.84,54.36,89.31,.04,178.61,0,267.92,.05,4.26,0,8.63-.01,12.74,.92,5.01,1.14,7.86,4.57,7.79,10.17-.07,6.01-3.02,9.63-8.67,10.74-3.4,.67-6.98,.55-10.48,.55-90.09,.02-180.17,.09-270.26-.01-47.27-.05-75.84-28.61-75.86-75.58-.04-108.85-.03-217.7,0-326.55,.01-46.12,27.01-73.17,73.48-73.23,102.95-.12,205.91-.2,308.86,.21,10.62,.04,14.18-2.49,13.48-13.38-.97-15.15-.37-30.42-.21-45.63,.38-37.96,28.61-66.97,66.33-67.13,73.7-.33,147.41-.33,221.12,0,37.4,.16,65.79,28.72,65.82,66.15,.16,187.66,.17,375.32,0,562.97ZM422.97,411.58c0-15.6,.11-31.2-.03-46.8-.12-13.32-5.83-19.84-18.85-20.05-24.55-.4-49.12-.39-73.67,0-12.2,.2-19.18,6.91-19.32,18.91-.39,31.97-.39,63.96,.01,95.93,.14,11.62,6.78,18.54,18.2,18.77,25.33,.52,50.68,.53,76,0,11.89-.25,17.43-6.78,17.6-18.8,.22-15.99,.05-31.98,.06-47.97Zm.23-164.54c-.88-12.42-.85-24.99,0-37.42,.61-9.04-2.49-10.83-11.05-10.81-104.89,.31-209.78,.16-314.67,.22-28.51,.02-46.64,17.79-48.24,46.04-.52,9.23,1.45,12.79,11.79,12.69,58.09-.53,116.2-.26,174.29-.26s117.76-.16,176.64,.18c8.29,.05,11.91-1.34,11.25-10.66Zm331.7-81.88c.03-8.15-1.16-11.41-10.54-11.38-96.31,.38-192.62,.33-288.94,.06-7.99-.02-10.49,1.78-10.48,10.21,.26,170.08,.14,340.16,.24,510.24,.02,34.28,18.5,52.64,52.92,52.72,67.85,.16,135.7,.15,203.54,0,34.46-.08,53.06-19.15,53.07-53.95,.03-83.87,.01-167.74,.01-251.61,0-85.43-.11-170.86,.17-256.29Zm.04-43.63c-.36-29.46-18.5-48.59-48.01-48.67-71.33-.18-142.66-.18-213.98,0-29.74,.08-47.46,18.66-47.99,48.48-.15,8.27,2.41,10.49,10.53,10.43,47.94-.35,95.88-.17,143.82-.17,48.33,0,96.66-.16,144.99,.16,7.9,.05,10.74-1.75,10.63-10.23ZM256.7,461.2c-.29,22.74-16.01,38.9-38.9,39.29-25.69,.43-51.4,.42-77.09,0-22.51-.36-38.62-15.47-39.13-37.96-.77-33.87-.77-67.78-.04-101.65,.5-23.12,16.8-37.81,40.13-37.94,25.31-.15,50.61-.19,75.92,.01,22.96,.19,38.82,16.02,39.1,38.92,.21,16.75,.04,33.5,.04,50.24,0,16.36,.17,32.72-.04,49.08Zm-21.6-96c-.12-14.23-6.58-20.41-21.09-20.54-23.39-.22-46.78-.26-70.16,.02-14.46,.17-20.39,6.48-20.47,20.88-.09,15.21-.02,30.42-.02,45.63,0,15.21-.05,30.42,.01,45.63,.07,15.37,5.65,21.53,20.81,21.72,23.38,.31,46.78,.3,70.16,0,14.38-.18,20.66-6.52,20.76-20.91,.23-30.81,.25-61.62,0-92.42Zm497.1-86.17c-23-23.24-46.09-46.38-69.33-69.38-4.54-4.49-10.07-4.42-14.66-.04-5.05,4.81-4.48,10.41-.41,15.7,1.41,1.84,3.21,3.38,4.86,5.03,16.76,16.82,33.31,33.85,50.42,50.31,5.01,4.81,4.43,7.32-.16,11.78-17.6,17.08-34.77,34.61-52.18,51.88-5.5,5.46-9.15,11.69-3.13,18.27,6.74,7.37,13.17,3.3,18.96-2.51,20.88-20.98,41.82-41.88,62.75-62.8,3.07-3.07,5.96-6.2,6.05-12.12-.7-1.41-1.37-4.31-3.16-6.11Zm-172.06,81.02c2.25-5.61,.35-10.43-4-14.73-16.91-16.69-33.33-33.9-50.61-50.2-6.76-6.38-7.85-9.98-.39-16.91,17.4-16.16,33.79-33.4,50.59-50.19,5.59-5.59,8.3-11.95,1.93-18.3-6.1-6.09-12.09-3.05-17.29,2.16-21.48,21.49-42.89,43.06-64.47,64.44-6.87,6.81-7.31,13.06-.28,20.03,21.84,21.68,43.54,43.5,65.29,65.27,2.53,2.53,5.34,4.55,9.34,5.01,4.4-.17,8.19-2.34,9.89-6.57Zm119.78,244.13c7.93,.04,14.4-1.87,14.68-11,.28-9.35-6.3-11.42-14.17-11.41-52.59,.03-105.17,.02-157.76,.01-7.87,0-14.48,2.14-14.12,11.47,.35,9.06,6.86,10.98,14.78,10.93,25.71-.16,51.42-.06,77.13-.06,26.49,0,52.98-.09,79.46,.06Zm-157.03-141.5c-8.23,0-15.34,1.77-14.18,12.18,.96,8.58,7.52,9.61,14.72,9.6,52.11-.08,104.23-.09,156.34,0,7.77,.01,14.55-1.36,14.83-10.69,.31-10.58-7.54-11.1-15.37-11.1-25.67,.01-51.34,0-77,0-26.45,0-52.89,0-79.34,0Zm110.12,224.81c8.41,.03,16.78-1.08,16.49-11.71-.27-9.76-8.33-10.81-16.26-10.8-36.27,.04-72.54,0-108.81,.03-7.84,0-15.75,.91-15.82,11.1-.08,10.13,7.6,11.37,15.6,11.36,18.33,0,36.66,0,54.99,0,17.94,0,35.88-.05,53.82,.02Zm-109.42-184.36c-7.75-.07-14.6,1.43-15.02,10.6-.46,10.04,6.99,11.97,14.99,12,34.58,.1,69.16,.07,103.74,.02,8.1-.01,15.49-2.16,15.08-11.98-.37-8.97-7.24-10.72-15.05-10.63-17.09,.18-34.19,.06-51.29,.06-17.48,0-34.97,.11-52.45-.05Zm55.69-159.66c6.63,2.09,11.37-.99,14.14-7.05,14.23-31.07,28.34-62.19,42.64-93.23,2.49-5.41,1.61-9.83-2.67-13.6-6.33-5.57-14-3.16-18.46,6.45-13.71,29.61-27.11,59.36-40.61,89.07-.96,2.1-1.73,4.29-2.18,5.4-.76,6.96,1.69,11.25,7.14,12.97Zm-42.68,281.1c-6.2,0-12.41-.31-18.58,.09-5.82,.37-9.12,4.05-9.47,9.84-.37,6.3,2.71,11.08,8.99,11.41,12.36,.65,24.79,.61,37.15,.12,6.3-.25,9.56-4.79,9.42-11.08-.14-6.37-3.61-10.13-10.09-10.39-5.8-.23-11.62-.05-17.43-.05,0,.02,0,.04,0,.07Zm133.98-.04c-5.04,0-10.1-.22-15.13,.06-6.38,.35-10.02,4.02-10.18,10.38-.15,6.36,3.44,10.68,9.62,11.04,10.05,.6,20.18,.56,30.23,.04,6.32-.33,9.65-4.72,9.53-11.05-.12-6.41-3.75-10.04-10.11-10.45-4.64-.3-9.31-.06-13.96-.06,0,.01,0,.03,0,.04Zm13.67-121.01c-6.48-.06-10.93,3.96-11.02,10.77-.08,6.25,3.83,10.09,9.95,10.56,6.83,.52,10.68-3.22,11.51-10.29-.22-6.6-3.81-10.97-10.45-11.03Zm-68.57,132.03c.05-6.69-3.44-11.13-10.73-10.89-6.47,.22-10.15,4.18-10.25,10.37-.1,6.84,4.08,10.51,10.65,11.16,6.72-.62,10.28-4.49,10.32-10.64ZM394.1,240.74c7.39-.2,13.29-3.27,13.41-11.39,.12-8.22-5.58-11.33-13.18-11.34-15.91-.03-31.82-.1-47.73,.06-6.87,.07-12.46,2.64-12.84,10.47-.41,8.47,5.4,11.65,12.62,12.1,8.12,.51,16.29,.12,24.44,.13,7.76,.02,15.53,.18,23.28-.03Zm165.19-126.57c6.66-.21,11.17-3.54,11.5-10.64,.33-7.28-4.16-10.99-10.76-11.13-17.11-.38-34.24-.38-51.35-.06-6.31,.12-11.48,2.82-11.48,10.44,0,7.88,4.78,11.16,11.9,11.4,8.16,.29,16.34,.07,24.52,.06,8.56,0,17.13,.2,25.68-.07Zm136.43-11.37c-.08,7.01,3.95,11.09,10.7,11.02,6.88-.07,10.67-4.71,10.38-11.42-.28-6.28-4.19-9.72-10.78-9.53-6.45,.16-10.22,3.36-10.3,9.93Z"/>
</svg>