<?xml version="1.0" encoding="UTF-8"?>
<svg id="Layer_1" data-name="Layer 1" xmlns="http://www.w3.org/2000/svg" viewBox="0 0 800 800">
  <defs>
    <style>
      .cls-1 {
        fill: none;
      }

      .cls-2 {
        fill: #010101;
      }
    </style>
  </defs>
  <rect class="cls-1" width="800" height="800"/>
  <path class="cls-2" d="M725.19,194.07c-3.9-28.99-18.76-49.64-46.24-61.02-80.7-33.43-161.37-66.9-241.87-100.79-20.15-8.48-39.32-8.27-59.38,.18-80.08,33.71-160.26,67.18-240.58,100.3-28.52,11.76-44.03,32.89-47.57,62.87-10.81,91.61-8.48,182.51,16.97,271.85,41.06,144.11,129.51,245.74,270,300.4,19.88,7.73,40.41,8.33,60.17,.83,99.43-37.74,177.25-101.39,228.83-195.18,48.07-87.4,66-182.13,65.66-291.77,.48-22.18-1.6-55-5.99-87.66Zm-19.76,83.73c.15,110.44-17.17,203.08-65.4,288.15-48.07,84.79-119.39,142.45-209.66,177.47-15.85,6.15-31.69,5.52-47.44-.72-129.12-51.2-211.24-144.97-250.19-277.45-25.84-87.89-28.27-177.49-17.33-267.81,2.32-19.16,12.36-32.7,30.99-40.4,80.69-33.38,161.19-67.23,241.68-101.11,13.45-5.66,26.32-5.44,39.65,.17,80.91,34.03,161.84,68.01,242.87,101.75,17.72,7.38,26.27,20.97,28.82,39.1,4.4,31.37,6.27,62.91,6.02,80.86Zm-35.42-73.82c-1.34-10.56-5.93-16.49-15.91-20.61-75.23-31.07-150.42-62.24-225.17-94.43-14.95-6.44-27.17-6.38-42.04,0-75.16,32.22-150.76,63.42-226.27,94.84-7.93,3.3-13.99,7.22-15.2,16.83-10.93,86.97-8.47,173.2,16.57,257.65,36.38,122.69,112.56,209.81,232.84,256.65,8.94,3.48,17.15,3.34,25.97-.1,83.75-32.65,149.55-86.49,193.93-165.22,45.01-79.86,60.16-166.99,61.05-260.77-.48-26.14-2.08-55.54-5.79-84.84Zm-75.45,329.03c-40.48,74.38-101.54,125.09-179.6,156.35-5.81,2.33-10.33,1.53-15.68-.61-109.44-43.7-178.51-123.83-211.94-235.76-22.94-76.8-26.12-155.28-18.02-234.56,.68-6.62,2.27-11.21,9.83-14.33,73.63-30.34,147.03-61.25,220.41-92.2,6.07-2.56,11.26-2.14,17.13,.33,72.63,30.55,145.28,61.08,218.1,91.19,7.41,3.06,9.99,6.97,10.92,14.79,2.95,24.66,3.25,49.42,4.19,71.24-.89,87.17-14.5,168.51-55.33,243.54Zm-64.83-134.72c-.08-15.47-3.61-31.28-15.88-40.43-14.07-10.5-15.07-23.17-14.07-37.91,.23-3.4,.05-6.84,.01-10.25-.49-47.84-34.39-85.14-83.21-91.56-43.28-5.69-87.57,25.6-99.06,69.82-4.06,15.6-2.43,31.45-2.43,47.21,0,6.99-1.88,11.71-7.55,16.19-13.73,10.84-21.57,25.35-21.71,43.07-.29,35.47-.66,70.95,.1,106.4,.6,27.54,19.59,49.67,46.33,55.55,24.9,5.48,50.23,.7,70.63,2.39,24.32,0,43.97,.16,63.61-.03,36.26-.35,62.59-25.76,63.16-61.73,.52-32.9,.24-65.81,.06-98.72Zm-158.96-143.12c21.77-14.22,44.95-15.77,67.89-3.43,22.29,11.98,34.63,31.04,35.27,56.84,.71,28.88,.63,28.88-27.97,28.88-12.8,0-25.6,0-38.41,0-18.78,0-37.57-.4-56.32,.18-8.58,.27-10.35-2.72-10.76-10.94-1.43-28.98,4.36-54.6,30.29-71.54Zm133.01,240.66c-.25,22.34-14.78,36.72-37.04,37.08-19.62,.32-39.25,.07-58.88,.07-18.77,0-37.55,.07-56.32-.02-25.77-.12-39.84-13.79-39.97-39.14-.16-31.17-.21-62.34,.02-93.51,.17-23.94,13.39-36.86,37.47-36.92,39.25-.11,78.51-.12,117.76,0,22.95,.08,36.76,13.47,36.99,36.36,.32,32.02,.34,64.05-.02,96.07Zm-86.33-102.56c-14.89-4.38-31.77,2.07-40.12,15.31-8.86,14.05-8.53,33.28,5.01,42.88,12.65,8.97,12.64,19.42,12.15,31.7-.1,2.54-.2,5.22,.46,7.63,1.95,7,6.64,10.99,14.07,10.17,6.79-.74,10.7-4.99,11.08-11.9,.28-5.1,.37-10.25,.07-15.35-.45-7.58,.58-13.28,8.41-17.87,10.1-5.92,13.97-16.67,14.68-25.91,.07-17.95-10.67-32.21-25.81-36.66Zm-9.99,43.44c-5.97-.09-9.98-3.75-9.88-9.37,.1-5.51,4-9.27,10.02-9.33,6.22-.06,8.63,4.17,10.06,8.64-1.02,6.67-4.18,10.15-10.21,10.06Z"/>
</svg>