<?xml version="1.0" encoding="UTF-8"?>
<svg id="Layer_1" data-name="Layer 1" xmlns="http://www.w3.org/2000/svg" viewBox="0 0 800 800">
  <defs>
    <style>
      .cls-1 {
        fill: none;
      }

      .cls-2 {
        fill: #010101;
      }
    </style>
  </defs>
  <rect class="cls-1" width="800" height="800"/>
  <path class="cls-2" d="M757.53,520.19c0-54.54,1.3-109.12-.41-163.61-1.36-43.51-34.78-76.93-77.78-82.49-17.88-2.31-35.83-1.11-53.73-1.01-7.85,.04-10.49-2.01-10.37-10.18,.45-30.51-.03-61.03,.25-91.54,.18-19.34-6.51-35.75-19.6-49.66-20.65-21.94-41.42-43.77-62.18-65.61-13.5-14.2-29.89-22.1-49.69-22.11-83.56-.02-167.12,0-250.68-.01-7.32,0-14.43,1.14-21.3,3.6-29.42,10.53-45.39,35.24-45.4,70.65-.05,113.67-.18,227.34,.23,341.01,.04,11.45-2.14,15.59-14.66,15.32-22.96-.49-41.03,20.43-38.34,41.81,1.12,8.95,8.85,16.46,8.98,23.87,.13,7.38-9.21,14.92-8.64,23.92,.6,9.42-3.42,11.51-11.74,13.36-47.44,10.52-80.23,55.72-75.51,102.98,5.02,50.34,44.18,89.16,93.07,89.8,67.14,.87,134.3,.46,201.45-.04,25.56-.19,44.76-26.01,35.53-49.35-4.92-12.43-6.8-21.88,.28-33.75,2.96-4.97,3.73-8.86,10.64-8.42,8.53,.55,5.87,6.59,6.03,10.86,1.89,48.16,39.24,86.31,87.2,86.81,69.82,.72,139.65,.76,209.47-.03,46.01-.52,84.85-36.79,86.38-82.57,1.83-54.48,.43-109.07,.43-163.61,.03,0,.06,0,.1,0ZM519.4,78.5c.92-.29,1.85-.57,2.77-.86,17.35,18.38,34.69,36.76,54.23,57.46-19.27,0-35.46-.04-51.65,.03-3.93,.02-5.39-1.85-5.38-5.59,.05-17.01,.02-34.03,.02-51.04ZM157.61,487.27c26.28-.07,52.56-.02,78.84-.02,25.9,0,51.8-.03,77.7,.01,14.43,.02,21.77,5.57,21.52,16.07-.24,9.95-7.84,15.89-20.98,15.91-52.18,.07-104.36,.07-156.54,0-13.19-.02-20.69-5.89-20.96-15.92-.27-10.12,7.11-16.02,20.42-16.06Zm103.44,188.81c.57-2.18,.64-4.52,.78-6.79q1.09-18.09,18.83-18.09c12.18,0,24.37-.23,36.54,.09,11.9,.32,18.54,6.25,18.5,15.72-.05,9.53-6.71,15.29-18.55,15.62-7.99,.23-15.99,.04-23.98,.05-8.76,0-17.51-.12-26.27,.05-4.85,.1-7.22-1.36-5.85-6.65Zm-7.47-53.25c-3.48-8.83-9.27-16.33-16.03-25.88,29.09,0,56.07-.19,83.03,.11,9.42,.11,14.96,5.79,14.96,15.18,0,9.3-5.31,15.15-14.81,15.34-19.77,.4-39.56,.14-59.33,.34-3.99,.04-6.38-1.42-7.82-5.08Zm62.42-49.17c-35.09,.15-70.18,.07-105.28,0-2.62,0-5.51-.05-7.83-1.08-16.88-7.54-34.7-7.85-52.7-7.55-5.09,.08-12.58,2.83-12.87-6.36-.25-7.97,3.31-14.25,11.74-15.89,4.43-.86,9.12-.44,13.69-.45,24.79-.03,49.59-.02,74.38-.01,26.32,0,52.64-.05,78.96,.02,12.94,.04,19.68,5.46,19.59,15.42-.09,9.81-7.2,15.84-19.69,15.89Zm-228.45,23.47c-3.55,14.57-8.04,18.51-21.46,17.72,6.1-8.65,12.19-14.58,21.46-17.72Zm-37.92,52.01c1.17-6.21,.73-14.76,11.32-12.73,2.94,.56,9.21-2.52,7.7,4.06-1.34,5.85,1.26,16.74-11.82,13.32-2.96-.21-8.41,1.85-7.19-4.65Zm13.3,44.35c-10.7,1.31-10.99-6.7-12.31-13.52-1.41-7.28,4.69-3.44,5.84-4.02,12.32-2.97,11.62,5.57,13.15,11.76,1.48,6-2.83,5.31-6.68,5.78Zm23.13,32.65c-.07-.02-.14-.04-.22-.07-.02-.1-.03-.18-.05-.27-7.03-1.17-7.12-1.27-13.73-8.8,9.63-3.33,11.79-1.98,13.73,8.8,.09,.02,.17,.03,.26,.04,0,0,0,0,0,0,0,.11,0,.2,0,.3,3.53,1.07,3.6,1.14,6.47,4.29-3.9,.62-6.44-.03-6.47-4.29Zm77.37,12.8c-42.18-.28-75.35-34.18-75.27-76.95,.07-41.88,34.7-76.17,76.67-75.93,40.65,.24,76.08,35.83,75.82,76.16-.27,42.74-34.75,77-77.22,76.72Zm152.26-1.67c-28.09,.07-56.17,.02-86.9,.02,8.77-9.89,16.13-17.57,20.89-27.12,1.85-3.72,4.93-4.18,8.55-4.17,19.41,.07,38.82-.18,58.22,.12,12.81,.2,19.54,6.15,19.24,15.99-.3,9.77-7.21,15.12-20.01,15.15Zm58.25-367.83c-.04,88.12,.01,176.23-.13,264.35,0,3.82,2.48,9.68-2.49,11.15-6.02,1.78-12.97,2.22-18.99-.55-3.38-1.56-3.89-4.86-1.27-8.61,10.78-15.44,11.06-31.26,.08-46.69-2.7-3.79-1.38-5.91,.65-8.97,9.87-14.9,9.95-30.06,0-44.87-2.58-3.84-2.27-6.12,.01-9.95,17.75-29.8,.05-60.94-34.7-61.1-37.77-.18-75.56-.47-113.32,.23-10.77,.2-14.14-2.14-14.02-13.52,.63-57.59,.29-115.2,.29-172.8,0-56.07-.03-112.15,0-168.22,.02-36.79,16.15-52.82,53.03-52.83,80.51,0,161.02,.19,241.53-.25,9.8-.05,11.95,2.75,11.68,12.06-.69,24.01-.3,48.06-.2,72.09,.06,14.53,2.92,17.32,17.45,17.36,22.89,.06,45.79,.3,68.68-.14,7.41-.14,10.05,2.04,9.99,9.57-.27,32.42-.34,64.85,.12,97.27,.12,8.41-4.38,7.95-10.07,7.94-38.54-.09-77.08-.27-115.61,.02-43.42,.33-77.29,25.04-89.7,64.73-3.25,10.4-3.03,21.08-3.04,31.74Zm362.24,302.8c-.08,43.63-28.35,72.36-72.2,72.58-65.63,.33-131.27,.38-196.91-.01-43.61-.26-72.04-29.41-72.06-72.94-.06-101.48-.07-202.96,0-304.43,.03-43.48,28.91-72.21,72.45-72.24,65.64-.04,131.27-.05,196.91,0,43.16,.04,71.7,28.41,71.8,71.47,.12,51.12,.03,102.24,.03,153.36,0,50.74,.07,101.48-.02,152.22ZM321.52,391.91c.09-9.82-4.67-16.72-13.31-20.79-8.58-4.05-17.54-7.3-26.11-11.37-13.78-6.54-20.55-17.79-20.1-32.96,.45-14.92,6.52-26.61,21.39-31.76,5.52-1.91,6.53-5.25,6.38-10.33-.2-6.73,3.52-11.42,10.13-11.39,6.35,.03,10.84,4.12,10.33,11.11-.46,6.35,3.05,7.43,8.12,8.32,4.42,.77,8.77,2.47,12.86,4.39,6.1,2.87,8.41,7.95,5.34,14.14-2.92,5.88-8.09,6.58-13.59,3.59-8.45-4.59-17.46-5.05-26.66-3.9-6.44,.8-11.89,3.55-13.29,10.56-1.49,7.51-.91,14.97,6.79,18.92,7.75,3.97,16,6.97,24.06,10.32,17.54,7.28,27.56,19.75,27.41,39.33-.14,18.97-7.25,33.46-26.48,39.34-5.48,1.68-4.24,5.32-4.49,8.88-.44,6.27-3.7,9.9-10.04,10.2-6.61,.31-10.52-3.78-10.25-9.69,.34-7.22-3.37-8.86-9.06-10.28-7.13-1.78-13.35-5.59-18.1-11.32-4.35-5.25-5.6-11.23-.64-16.51,5.47-5.82,10.32-2.16,14.45,2.44,7.35,8.17,16.71,10.02,27.06,8.77,11.35-1.37,17.62-8.5,17.75-20Zm34.14-188.5c-28.98,0-57.96,0-86.95,0-2.67,0-5.38,.28-8-.1-6.87-.99-11.49-4.76-11.08-12.05,.38-6.76,5.12-10.12,11.57-10.28,11.82-.28,23.64-.11,35.46-.11,48.43,0,96.86,0,145.29,0,2.67,0,5.35-.11,8.01,.05,6.88,.41,12.24,3.43,12.27,10.8,.03,7.82-5.33,11.5-12.77,11.62-12.96,.21-25.93,.07-38.9,.07-18.3,0-36.61,0-54.91,0Zm73.87,53.1c-28.98,0-57.95-.17-86.93,.11-8.3,.08-15.38-2-15.5-10.97-.13-9.27,7.32-10.96,15.42-10.95,58.33,.12,116.67,.07,175,.06,7.34,0,14.43,.9,14.71,10.25,.29,9.77-6.42,11.59-14.62,11.55-29.36-.13-58.71-.05-88.07-.05Zm-152-.11c-6.06,0-12.14,.36-18.17-.1-6.18-.47-9.63-4.71-9.75-10.58-.12-5.98,3.34-10.39,9.57-10.59,12.1-.4,24.23-.38,36.33,.02,6.11,.21,10,4.47,9.89,10.37-.12,6.35-4.2,10.47-10.84,10.86-5.66,.33-11.36,.07-17.04,.07,0-.02,0-.03,0-.05Zm230.63-53.01c-4.18,0-8.4,.33-12.54-.08-6.89-.68-11.5-4.37-11.37-11.68,.12-6.86,4.71-10.29,11.1-10.61,8.34-.42,16.74-.39,25.09-.05,6.78,.27,11.84,3.28,11.88,10.97,.04,7.59-4.89,10.71-11.63,11.38-4.14,.41-8.36,.08-12.54,.07Zm58.17,115.79c31.67,0,63.34-.11,95.01,.02,29.02,.12,42.5,13.85,42.53,42.98,.01,9.92,.07,19.84-.01,29.75-.21,23.25-14.05,38.97-36.95,39.41-38.14,.74-76.31,.29-114.47,.18-7.12-.02-13.19-2.52-13.24-10.92-.05-9.11,6.2-11.12,13.96-11.11,36.25,.06,72.5,.05,108.75,.01,15.46-.02,19.69-4.15,19.9-19.58,.14-10.68,.25-21.37-.06-32.04-.35-11.87-5.14-16.78-16.8-16.8-66.01-.12-132.02-.11-198.04-.02-11.99,.02-16.93,4.77-17.17,16.35-.26,12.2-.24,24.42,.02,36.62,.21,10.06,5.54,15.43,15.8,15.46,11.45,.03,22.9,.12,34.34-.02,7.39-.09,13.35,2.25,13.74,10.32,.43,8.88-5.95,11.64-13.64,11.74-11.83,.15-23.68,.48-35.48-.1-22.18-1.1-35.86-15.02-36.76-37.27-.48-11.81-.29-23.65-.08-35.47,.44-24.94,14.13-39.1,39.06-39.42,33.19-.41,66.39-.1,99.59-.11ZM191.63,629.75c-.37,8.11-6.86,12.26-14.76,10.12-6.06-1.64-14.68-6.54-17.36,.57-3.13,8.3,7.5,8.62,12.82,10.93,11.24,4.87,19.75,11.58,20.97,24.65,1.18,12.65-4.23,21.36-13.13,30.89-11.83,12.67-19.66,20.16-31.13,.73-1.85-3.14-7.82-4.25-10.83-7.86-4.49-5.39-5.43-11.01-.38-16.4,4.96-5.29,10.13-4.17,14.96,.51,2.51,2.43,5.2,4.44,8.89,4.68,4.52,.3,8.64-.44,10.24-5.29,1.63-4.92-1.35-8.1-5.28-10.12-4.05-2.07-8.48-3.38-12.63-5.27-21.15-9.6-24.1-33.57-5.51-47.38,3.51-2.61,4.24-5.85,5.98-9.11,3.81-7.14,11.67-9.12,15.85-3.37,4.96,6.82,11.32,10.31,17.75,14.51,2.7,1.77,3.77,4.71,3.55,7.21Zm513.11,2.04h-.08c0-19.06,.39-38.14-.12-57.18-.45-16.93-11.59-27.43-28.41-27.81-8-.18-16.02-.15-24.02-.01-17.55,.3-28.82,10.93-28.96,28.38-.3,38.12-.32,76.25,.02,114.38,.16,17.75,12.19,29.72,30.07,30.96,5.69,.4,11.44,.2,17.16,.1,21.87-.36,33.98-12.18,34.29-33.92,.26-18.3,.05-36.6,.05-54.9Zm-21.36-38.05c.12,12.93,.02,25.85,.02,38.78,0,17.49-.23,34.98,.09,52.47,.18,9.75-4.13,14.09-13.68,13.63-1.14-.05-2.28-.01-3.42,0q-21.79,.13-21.79-21.24c0-31.94,.31-63.88-.18-95.81-.15-9.9,3.09-13.51,13.06-13.42,30.55,.29,25.68-.84,25.92,25.6Zm-214.56-46.99c-4.96,0-9.92-.03-14.88,0-17.68,.14-25.9,8.07-26.26,25.71-.22,10.67-.35,21.37,.06,32.03,.59,15.41,9.1,23.9,24.4,24.4,11.05,.36,22.13,.37,33.18,0,15.97-.55,24.01-9.21,24.27-25.47,.08-5.34-.21-10.69,.06-16.02,1.77-34.82-3.98-42.6-40.84-40.65Zm-.1,60.19q-19.07,0-19.07-18.99,0-19.66,19.69-19.66,19.31,0,19.31,19.12,0,19.53-19.93,19.53Zm40.9,73.15c1.82-36.35-4.03-41.78-40.92-42.22-40.47-.49-41.69,10.86-41.21,41.24,.61,38.63,3.07,40.99,41.94,41.7,31.48,.58,42.69-3.15,40.2-40.71Zm-40.95,18.42q-19-.05-19.04-18.84-.04-19.65,19.58-19.65c19.45,0,19.58,0,19.45,19.96-.14,21.6,2.48,18.56-19.99,18.52Zm138.61-124.98c-.42-18.41-9.07-26.67-27.72-26.78-4.94-.03-9.9,.25-14.82-.05-36.81-2.2-41.65,7.82-40.04,40.22,0,4.94-.05,9.88,.01,14.82,.23,18.7,8.5,27,27.2,27.2,9.5,.1,19.01,.16,28.51-.01,17.55-.33,26.41-9.18,26.85-26.9,.24-9.5,.22-19.01,0-28.5Zm-41.22,33.41q-19.66,0-19.66-19.8,0-18.86,18.42-18.86h1.14q19.05,0,19.05,19.32t-18.94,19.34Zm.09,31.41c-5.7,0-11.41-.08-17.11,.02-15.31,.27-23.75,8.56-24.29,23.96-.2,5.7-.05,11.4-.05,17.11,0,38.19,3.05,41.19,41.77,41.19s40.86-3.96,40.86-41.49c0-37.16-3.66-40.79-41.17-40.79Zm18.83,41.3q0,18.91-19.27,18.86-19.31-.05-19.31-18.88,0-19.62,19.91-19.62,18.68,0,18.68,18.5c0,.38,0,.76,0,1.14Zm-75.38-203.64c-.16-17.89-7.8-25.28-26.06-25.39-4.96-.03-9.91,0-14.87,0-5.34,0-10.68-.05-16.02,0-15.76,.18-24.3,7.9-24.89,23.34-.45,11.8-.49,23.65,.07,35.44,.68,14.16,9.14,22.41,23.31,22.95,11.8,.45,23.65,.47,35.45-.02,14.2-.6,22.59-9.26,22.93-23.15,.27-11.05,.17-22.11,.07-33.17Zm-41.38,34.43q-18.56,0-18.56-18.25,0-20.59,20.78-20.59,18.21,0,18.21,18.86,0,19.98-20.43,19.98Zm98.12-59.83c-38.94-2.33-42.4,6.96-41.82,39.79,.7,39.47,2.77,42.08,42.32,42.08,36.28,0,40.03-4.25,40.61-40.86,.49-30.47-1.51-43.86-41.11-41.01Zm-1.15,59.83q-18.79,0-18.79-19.37,0-19.4,19.87-19.38,18.73,.02,18.73,19.29,0,19.45-19.81,19.45Zm139.32-38.25c-.58-13.8-8.82-21.22-22.91-21.56-6.1-.15-12.2-.03-18.29-.03-38.22,0-40.28,2.03-40.28,39.78,0,5.72-.11,11.43,.03,17.15,.37,16.09,8.55,24.48,24.69,24.87,11.43,.28,22.89,.43,34.3-.11,13.68-.65,21.97-8.89,22.49-22.39,.48-12.55,.51-25.16-.02-37.71Zm-40.52,38.24q-19.37,0-19.38-19.94-.01-18.9,19.31-18.9,19.49,0,19.49,19.96,0,18.88-19.41,18.88Z"/>
</svg>