<?xml version="1.0" encoding="UTF-8"?>
<svg id="Layer_1" data-name="Layer 1" xmlns="http://www.w3.org/2000/svg" viewBox="0 0 800 800">
  <defs>
    <style>
      .cls-1 {
        fill: #010201;
      }

      .cls-2 {
        fill: none;
      }
    </style>
  </defs>
  <rect class="cls-2" width="800" height="800"/>
  <path class="cls-1" d="M744.09,237c-3.59-3.13-5.42-6.02-5.72-11.08-1.51-25.63-18.8-45.06-41.92-47.98-23.64-2.98-45.22,10.89-53.6,34.81-16.72,47.75-33.5,95.49-49.73,143.41-2.92,8.61-7.17,14.51-15.18,19.06-31.75,18.03-63.09,36.76-94.67,55.1-39.64,23.03-59.25,57.38-59.06,103.22,.14,32.88,.1,65.77-.07,98.66-.02,3.99,2.26,9.03-3.99,11.33-7.43,2.73-8.14,9.21-8.12,16.05,.07,28.83-.03,57.65,.06,86.48,.04,14.76,3.69,18.28,19.01,18.34,26.39,.1,52.78,.03,79.17,.03,25.58,0,51.15,.03,76.73-.01,17.74-.03,20.07-2.45,20.08-20.6,.02-24.77,.21-49.53-.09-74.3-.12-10.38,3.89-22.72-10.56-27.93-.76-.28-1.4-2.01-1.42-3.08-.39-19.47-1.9-38.7,15.81-53.52,25.83-21.61,50.43-44.67,75.78-66.86,10.7-9.37,18.35-20.43,22-34.19,17.33-65.3,34.57-130.62,52.05-195.87,5.57-20.81-.96-37.42-16.58-51.05Zm-123.84,115.89c15.04-43.5,30.32-86.92,45.21-130.47,4.14-12.1,11.95-18.8,23.87-20.16,9.02,.16,15.56,3.71,20.18,10.53,6.35,9.37,5.3,11.85-5.65,14.76-19.19,5.1-31.54,17.3-37.57,36.16-10.08,31.55-20.24,63.08-30.42,94.6-1.87,5.78-2.8,10.8-12.1,7.38-9.47-3.48-5.18-8-3.52-12.8Zm-46.51,387c-21.1-.39-42.22-.15-63.33-.15-21.52,0-43.04-.15-64.55,.1-6.24,.07-9.67-.84-9.46-8.46,.51-18.66,.38-37.35,.05-56.02-.11-6.22,1.67-8.54,8.17-8.51,43.44,.22,86.88,.27,130.32-.05,6.9-.05,7.86,2.69,7.78,8.52-.28,18.67-.44,37.36,.07,56.02,.2,7.26-2.41,8.67-9.03,8.54Zm163.55-458.4c-17.35,64.47-34.66,128.94-51.81,193.46-2.7,10.17-7.81,18.4-15.74,25.33-24.43,21.38-48.13,43.62-73.07,64.39-21.1,17.57-28.42,39.75-26.11,65.93,.84,9.56-2.24,12.11-11.8,11.94-33.27-.62-66.57-.46-99.85-.08-7.8,.09-10.67-1.77-10.37-10.09,.65-17.84,.2-35.71,.2-57.34,1.13-17.68-1.77-39.21,1.6-60.64,4.12-26.13,17.79-46.06,40.06-59.52,35.05-21.19,70.57-41.61,106.02-62.13,14.04-8.13,27.97-5.09,35.04,7,7.14,12.21,2.62,26.81-11.27,34.99-20.62,12.14-41.35,24.1-62.17,35.89-7.97,4.52-13.8,10.45-8.43,19.43,5.44,9.11,13.51,6.23,21.22,1.7,20.63-12.12,41.52-23.8,62.11-35.99,24.32-14.4,32.23-37.01,22.24-63.47-1.7-4.49-1.94-8.34-.46-12.85,11.96-36.51,23.62-73.12,35.62-109.62,3.99-12.15,14.25-19.48,25.55-18.67,11.57,.82,18.23,7.82,21.62,18.41,1.27,3.98,.87,7.89-.23,11.94Zm-349.42,375.82c.01-5.61-.79-11.16-6.5-13.22-6.31-2.28-5.74-6.79-5.73-11.69,.05-34.1,.09-68.19,0-102.29-.11-43.44-19.04-76.25-56.3-98.39-32.43-19.26-64.91-38.44-97.63-57.22-7.15-4.1-11.59-9.17-14.23-16.96-16.37-48.27-33.04-96.43-49.7-144.6-8.19-23.69-30.05-37.86-53.62-35-22.45,2.72-40.72,22.15-42.43,46.47-.45,6.36-2.6,10.07-7.1,14.17-14.18,12.92-20.65,28.76-15.49,48.09,16.18,60.59,33.32,120.94,48.14,181.86,6.11,25.12,18.5,43.99,38.05,60.07,22.55,18.55,43.5,39.02,65.73,57.97,17.32,14.76,13.71,34.19,13.72,53.01,0,2.47-2.09,3.12-3.98,3.92-7.31,3.07-8.04,9.34-8.02,16.16,.07,28.82-.03,57.64,.06,86.46,.04,14.37,3.69,18.17,17.86,18.25,26.79,.15,53.58,.04,80.37,.04,26.79,0,53.58-.11,80.37,.05,10.88,.06,16.6-4.14,16.49-15.82-.29-30.44-.14-60.89-.07-91.33ZM90.12,214c4.42-7.52,11.24-11.38,20.35-11.74,11.23,1.08,19.65,6.64,23.51,17.7,15.85,45.36,31.37,90.84,47.33,136.17,2,5.69,1.12,7.68-4.69,9.27-5.59,1.53-9.01,3.29-11.44-4.69-9.89-32.42-20.71-64.55-31.09-96.81-6.21-19.3-18.72-32.54-38.7-36.21-11.79-2.17-9.09-7.24-5.29-13.69Zm106.25,344.1c-19.13-14.99-35.91-32.96-54.95-48.07-16.4-13.02-25.78-28.86-30.88-49.05-15.05-59.6-31.36-118.89-47.14-178.31-3.57-13.45,2.7-26.07,14.98-30.41,11.69-4.14,26.43,2.44,30.71,15.15,12.65,37.58,24.64,75.38,36.89,113.1,1.62,4.98-.09,9.35-1.85,14.05-8.6,22.83-.74,46.49,20.27,59.23,22.19,13.46,44.86,26.12,67.33,39.13,7.12,4.12,14.44,5.2,19.04-2.87,4.82-8.46,.31-14.5-7.37-18.89-20.43-11.66-40.81-23.4-61.16-35.2-16.1-9.34-21.19-23.22-13.44-36.2,7.56-12.65,21.81-15.06,37.28-6.02,33.62,19.65,67.17,39.41,100.74,59.14,29.44,17.3,44.17,43.1,44.35,77.2,.09,15.83,.01,31.66,.02,47.49,0,18.67-.27,37.35,.15,56.01,.15,6.74-1.61,8.97-8.67,8.89-34.5-.36-69.01-.47-103.5,.05-8.69,.13-10.56-3.27-9.67-10.66,3.79-31.23-8.7-54.63-33.1-73.76Zm167.16,117c-.55,19.07-.4,38.16-.05,57.24,.11,5.89-1.66,7.56-7.54,7.53-43.44-.23-86.88-.22-130.32-.02-6.18,.03-8.58-1.67-8.44-8.23,.39-18.67,.46-37.36-.03-56.02-.19-7.28,2.61-8.84,9.19-8.75,21.51,.31,43.03,.12,64.55,.12,21.11,0,42.22,.19,63.33-.12,6.23-.09,9.53,.62,9.31,8.25ZM575.75,74.81c-44.24-48.08-116.98-52.58-168.14-9.98-5.78,4.81-8.83,5.36-14.75,.13-22.17-19.56-48.68-28.5-73.88-29.43-53.21-.3-97.63,29.11-117.2,74.78-19.5,45.53-9.73,97.26,26.32,133.7,52.81,53.39,106.11,106.31,159.25,159.37,10.17,10.15,15.44,10.22,25.5,.17,53.44-53.35,107.19-106.39,160.07-160.29,46.3-47.19,47.03-120.42,2.82-168.46Zm-19.03,149.58c-49.57,50.86-100.29,100.59-150.31,151.02-4.9,4.94-7.68,4.77-12.48-.06-49.76-50.12-99.85-99.9-149.58-150.04-18.54-18.69-27.46-41.68-27.68-72.4,1.97-36.56,20.5-67.28,58.1-83.93,38.14-16.89,74.32-10.69,105.04,17.45,17.9,16.4,19.71,20.29,40.7,.11,38.28-36.81,97.97-34.77,135,2.72,36.77,37.22,37.99,97.39,1.21,135.13Zm-71.41-42.19c.28-10.28-4.89-14.91-14.8-14.94-8.12-.03-16.27-.43-24.35,.1-7.25,.48-10.37-1.59-9.76-9.41,.66-8.47,.1-17.04,.15-25.56,.05-9.04-4.69-13.62-13.42-13.75-15.02-.23-30.04-.16-45.06-.05-9.99,.07-14.8,5.36-14.73,15.29,.05,8.12-.57,16.29,.17,24.34,.73,7.93-2.47,9.67-9.63,9.16-8.08-.57-16.23-.18-24.35-.09-9.93,.1-14.92,5.14-14.91,15.13,.02,14.21,.08,28.42-.02,42.63-.08,10.68,5.31,15.54,15.74,15.6,10.53,.06,24.63-3.77,30.66,1.52,7.03,6.17,1.94,20.61,2.23,31.44,.29,10.59,5.16,15.74,15.67,15.74,12.59,0,25.17,.05,37.76,0,17.32-.06,19.84-2.57,19.9-19.57q.11-28.99,28.7-29.15c17.4-.1,19.96-2.58,20.02-19.46,.02-5.68,0-11.37,0-17.05,0-7.31-.17-14.62,.04-21.92Zm-35.8,33.94c-40.1-.67-38.17-2.42-37.16,37.41,.27,10.62-4.05,11.2-12.46,11.41-9.21,.23-13.45-1.88-12.23-11.96,.87-7.19-.02-14.58,.21-21.87,.31-10.16-4.57-15.07-14.56-15.14-8.92-.06-17.86-.43-26.75,.06-9.86,.54-7.59-6.38-7.3-11.49,.3-5.11-3.75-13.17,7.24-12.74,9.31,.36,18.65,.23,27.97-.04,8.72-.25,13.42-4.79,13.36-13.8-.06-8.51,.76-17.11-.19-25.52-1.25-10.99,5.81-9.43,12.21-9.25,5.88,.17,13.62-2.8,12.39,8.64-.9,8.42-.23,17.01-.14,25.52,.09,9.37,5,14.21,14.29,14.44,6.89,.17,13.8,.42,20.67,0,9.75-.6,17.85-.11,13.28,12.59,2.74,10.63-2.28,11.87-10.82,11.72Z"/>
</svg>