<?xml version="1.0" encoding="UTF-8"?>
<svg id="Layer_1" data-name="Layer 1" xmlns="http://www.w3.org/2000/svg" viewBox="0 0 800 800">
  <defs>
    <style>
      .cls-1 {
        fill: #121212;
      }

      .cls-2 {
        fill: none;
      }
    </style>
  </defs>
  <rect class="cls-2" width="800" height="800"/>
  <path class="cls-1" d="M147.76,569.12c-7.98-.57-11.61-5.11-11.18-12.82,.42-7.45,4.17-12.28,12.08-12.31,7.89-.03,12.25,4.71,12.05,12.16-.21,7.69-4.34,12.89-12.95,12.97Zm12.94,34.97c-.3-7.44-5.06-11.9-12.9-11.31-7.85,.59-11.21,5.74-11.24,13.16-.03,7.92,4.21,11.83,12.64,11.96,7.95-.72,11.81-6.16,11.5-13.81Zm0,48.67c-.42-7.46-5.21-11.85-13.03-11.18-7.83,.67-11.15,5.86-11.12,13.28,.04,7.94,4.36,11.76,13.68,11.83,6.78-1.01,10.9-6.18,10.46-13.93ZM648.92,145.51c.24,7.33,4.49,11.42,11.52,11.42,8.36,0,12.57-5.49,12.66-13.3,.09-7.69-4.71-11.6-12.45-12.08-8.23,.98-12,5.84-11.74,13.96Zm11.52,60.2c8.35,.06,12.51-5.48,12.67-13.29,.15-7.02-4.02-11.5-11.14-11.88-8.44-.45-12.46,4.46-13.15,11.9,.01,8.42,3.85,13.22,11.61,13.27Zm-11.54,36.73c-.06,7.3,3.84,11.69,10.9,12.06,8.37,.44,12.82-4.84,13.29-12.65,.47-7.66-4.06-11.86-11.71-12.73-8.28,.61-12.43,5.09-12.49,13.32Zm121.91,254.94c.22,32.35,3.41,29.39-29.42,36.9-14.5,3.32-22.93,24.88-14.92,37.47,17.05,26.83,18.49,22.3-4.9,45.83-25.22,25.36-19.48,23.3-47.51,5.7-12.47-7.83-34,1.2-37.3,15.77-1.34,5.91-2.41,11.88-3.89,17.75-1.89,7.48-6.13,12.93-14.58,11.06-8.15-1.81-10.62-7.92-8.94-15.89,2.32-11.07,4.54-22.16,6.83-33.24,.16-.79,.5-1.54,.78-2.3,4.26-11.61,48.29-27.41,58.81-21.09,3.13,1.88,6.71,3.36,9.2,5.9,8.86,9.01,14.92,4.61,21.5-3.13,3.24-3.82,4.07-6.57,1.07-10.47-1.23-1.6-2.05-3.54-3.38-5.04-10.7-12.07-13.21-24.59-2.38-38,.49-.61,.8-1.45,.94-2.23,3.68-20.94,15.19-32.75,37.35-33.09,7.9-.12,6.47-6.75,6.38-11.82-.09-4.93,2.01-11.52-6.36-11.74-21.88-.57-30.29-13.65-38.29-32.77-7.27-17.39-8.18-30.16,4.3-43.7,5.46-5.92,3.29-10.11-1.87-15.22-5.24-5.18-9.41-8.26-16.15-2.56-3.99,3.37-8.84,5.7-13.16,8.7-6.02,4.18-11.84,3.93-18.26,.62-7.53-3.88-15.14-8.5-23.26-10.14-12.64-2.56-17.73-9.87-18.85-21.67-.3-3.2-1.68-6.29-2.03-9.48-.54-4.92-1.56-8.58-7.88-8.26-7.38,.36-4.32,5.74-4.37,8.93-.29,18.29,.22,36.6-.32,54.87-.21,7.3,1.87,9.11,9.22,9.97,29.88,3.53,55.23,25.55,61.66,52.98,7.24,30.89-1.26,56.96-25.78,77.29-10.04,8.32-20.86,5.69-22.85-4.86-1.48-7.85,4-11.49,9.06-15.78,25.34-21.51,22.82-60.27-4.9-78.13-1.02-.66-2.07-1.29-3.14-1.87-19.01-10.22-23.1-7.95-23.1,12.83,0,77.65,.03,155.29-.01,232.94-.02,39.81-25.57,65.55-65.39,65.6-86.6,.1-173.2,.11-259.8,0-39.68-.05-65.14-25.92-65.16-65.84-.04-71.96-.2-143.91,.22-215.87,.05-9.11-2.06-11.63-11.25-11.25-18.05,.74-21.98-1.53-22.88-18.69-1.03-19.57-14.02-25.01-28.56-30.59-5.08-1.95-7.51,2.03-10.58,3.96-29.59,18.57-23.33,19.6-48.63-5.37-23.84-23.53-21.06-19.25-5.21-44.82,8.78-14.17,.58-34.94-15.71-38.73-31.18-7.24-28.38-4.06-28.13-36.66,.22-29.59-5.55-29.38,28.43-36.32,15.47-3.16,24.13-24.79,15.9-38.07-16.15-26.03-19.36-21.49,4.92-45.88,24.53-24.64,20.04-22.96,47.72-5.47,11.91,7.53,33.75-1.27,36.98-14.96,1.66-7.07,3.11-14.2,4.98-21.22,1.92-7.24,7.34-9.63,14.1-8.18,7.13,1.52,9.99,7.01,8.81,13.76-2.07,11.94-5.07,23.71-7.3,35.62-1.4,7.47-6.08,10.85-12.92,12.75-5.83,1.62-12.42,2.72-16.99,6.23-14.71,11.28-27.87,8.02-40.36-2.88-7.21-6.29-11.77-4.43-18.06,1.77-6.28,6.19-5.31,10.74-.41,16.35,11.03,12.64,14.67,25.81,2.79,40.07-.24,.29-.32,.75-.39,1.15-3.64,21.51-15.68,33.37-38.14,33.93-7.62,.19-5.61,6.54-5.66,11.06-.05,4.95-1.93,11.82,6.02,12,22.7,.51,30.59,14.47,39.02,33.67,7.65,17.41,6.72,29.6-4.6,42.63-6.01,6.91-2.45,10.96,2.61,16.08,4.89,4.94,8.91,7.6,15.04,2.13,2.99-2.67,6.91-4.27,10.1-6.75,7.94-6.17,15.54-6.95,24.46-1.24,6.39,4.09,13.73,7.73,21.1,9.05,12.39,2.21,15.82,9.93,18.46,20.72,1.6,6.55-2.33,19.82,10.07,17.9,8.74-1.36,3.36-12.17,3.77-18.53,.89-13.76-.64-27.71,.58-41.42,.91-10.2-3.09-12.43-12.08-14.01-54.15-9.47-79.06-69.19-48.02-114.17,4.43-6.41,9.92-11.76,16.09-16.49,6.63-5.08,13.51-6.79,19.22,.57,5.58,7.2,2.93,14.01-3.87,18.88-10.85,7.76-16.98,18.29-19.64,31.05-5.43,26.05,15.89,54.52,42.24,56.9,4.28,.39,6.05-.56,5.78-4.92-.18-2.83-.02-5.69-.02-8.53,0-79.27-.02-158.55,0-237.82,.01-40.16,25.12-65.43,65.12-65.48,43.5-.06,87.01-.01,130.51-.01,43.5,0,87.01-.07,130.51,.02,38.59,.08,64.17,25.54,64.21,63.92,.06,72.36,.21,144.73-.21,217.08-.06,9.54,2.29,12.37,11.94,11.96,18.04-.77,20.93,.83,22.3,19.08,1.42,18.82,13.98,24.14,28.06,29.64,5.03,1.97,7.71-1.65,10.79-3.61,29.15-18.55,23.85-19.83,49.65,5.81,22.21,22.07,20.51,18.65,4.35,44-8.98,14.08-.67,35.61,15.51,38.98,33.85,7.04,28.13,6.81,28.33,36.47ZM575.69,100.39c0-27.75-14.12-41.82-41.99-41.83-85.75-.04-171.51-.04-257.26,0-28.48,.01-42.3,13.99-42.3,42.73-.01,198.72-.01,397.44,0,596.16,0,30.07,13.87,44.03,43.81,44.04,84.54,.03,169.07,.02,253.61,0,30.03,0,44.14-13.98,44.14-43.72,.02-99.56,0-199.13,0-298.69,0-99.56,.02-199.13-.01-298.69Zm-120.52,245.15c-3.13,6.08-.99,11.04,3.28,15.36,10.83,10.97,21.6,22.01,32.8,32.59,5.02,4.74,4.92,7.87-.09,12.58-10.93,10.27-21.27,21.18-31.94,31.73-6.02,5.95-8.17,12.67-1.94,19.17,6.3,6.58,13.05,4.67,19.08-1.39,14.87-14.95,29.74-29.91,44.76-44.72,7.52-7.42,7.76-14.5,.2-21.99-14.99-14.84-29.89-29.77-44.77-44.71-2.97-2.98-6.19-5.19-12.38-5.1-3.04,.1-6.69,2.03-8.99,6.49Zm-105.46,91.31c-10.36-10.28-20.43-20.87-31.09-30.84-5.1-4.77-4.86-7.93,.05-12.59,11.18-10.59,21.97-21.6,32.78-32.58,5.59-5.68,6.94-12.39,1.01-18.28-5.85-5.81-12.69-4.78-18.37,.82-15.59,15.37-31,30.94-46.45,46.45-5.21,5.23-7.28,11.73-1.96,17.3,16.49,17.31,33.48,34.14,50.58,50.85,3.66,3.57,8.64,4.16,13.52,1.19,4.2-2.55,6.13-6.25,6.33-10.83-.3-5.02-3.19-8.32-6.4-11.51Zm41.18,23.78c7.67,1.23,12.19-3.27,14-10.45,8.03-31.7,16.07-63.4,23.9-95.15,1.78-7.2-.6-13.27-8.1-15.42-7.93-2.27-13.52,1.29-15.68,9.28-3.17,11.69-6.12,23.44-9.03,35.19-5.24,21.16-10.39,42.35-15.48,63.15,.05,7.48,3.56,12.3,10.38,13.4Zm54.21-349.64c8.48-.11,14.16-4.21,13.75-13.05-.38-8.34-6.29-11.2-14.17-11.16-22.46,.12-44.91,.11-67.37,0-8.43-.04-14.54,3.07-14.34,12.16,.2,8.94,6.47,12.12,14.76,12.1,10.83-.03,21.65,0,32.48-.01,11.63,0,23.26,.1,34.89-.04Z"/>
</svg>