<?xml version="1.0" encoding="UTF-8"?>
<svg id="Layer_1" data-name="Layer 1" xmlns="http://www.w3.org/2000/svg" viewBox="0 0 800 800">
  <defs>
    <style>
      .cls-1 {
        fill: #020202;
      }

      .cls-2 {
        fill: none;
      }
    </style>
  </defs>
  <rect class="cls-2" width="800" height="800"/>
  <path class="cls-1" d="M575.14,252.11c9.03-14.98,18.71-29.61,26.89-45.04,8.38-15.8,20.25-22.17,38.2-21.39,26.03,1.13,52.14,.34,78.21,.27,19.12-.05,26.88-7.99,27.03-27.4,.04-4.98-.26-10.01,.3-14.94,.59-5.2,4.15-8,9.34-8.46,5.16-.46,8.99,1.62,10.94,6.52,5.92,14.95-.88,43.84-13.04,54.62-8.01,7.1-17.31,10.81-28.29,10.72-27.99-.23-55.99,.35-83.97-.3-9.82-.23-15.34,3.29-20.05,11.6-11.33,19.98-23.68,39.37-35.31,59.18-5.09,8.67-11.82,13.06-21.82,10.13-9.97-2.93-13.34-10.56-13.29-20.33,.07-16.11-.25-32.23,.13-48.33,.19-8.12-2.63-11.54-11.06-12.3-21.85-1.98-37.62-18.24-38.1-40.25-.69-31.44-.75-62.92,.05-94.36,.58-22.57,18.2-39.78,40.93-39.95,61.35-.47,122.71-.52,184.05,.04,23.26,.21,39.87,18.31,40.43,41.59,.15,6.13-.04,12.28,.06,18.41,.11,7.36-2.06,13.42-10.46,13.53-8.25,.12-11.03-5.46-10.84-13.06,.14-5.37,.18-10.75-.02-16.11-.54-14.24-7.93-22.72-21.99-22.81-59.43-.35-118.87-.34-178.3-.01-14.83,.08-22.22,8.46-22.29,23.41-.13,28.39-.15,56.78,0,85.16,.08,14.18,7.21,21.87,21.27,23.69,19.04,2.47,28.26,12.71,28.6,32.12,.19,11.07,.04,22.14,.04,33.21,.79,.28,1.59,.55,2.38,.83Zm128.38-94.6c7.4,0,14.59-1.21,14.8-10.47,.22-9.94-7.14-11.39-15.09-11.38-46.03,.01-92.06,0-138.1,.02-7.72,0-15.39,.83-15.3,11.07,.1,10.32,7.97,10.74,15.58,10.76,23.02,.05,46.03,.02,69.05,.02,23.02,0,46.03,0,69.05,0Zm.49-50.61c7.63,.02,14.29-1.88,14.32-10.93,.03-9.02-6.67-11.08-14.24-11.09-29.06-.04-58.11-.08-87.17,.03-7.58,.03-14.03,2.32-13.71,11.54,.3,8.54,6.49,10.4,13.62,10.43,14.53,.05,29.06,.01,43.58,.02,14.53,0,29.06-.02,43.59,.01Zm-121.87-10.92c.15-9.6-7.33-11.27-15.27-11.12-7.75,.14-16.41-.33-17.01,10.43-.6,10.89,7.6,11.59,17.76,11.67,6.08,.2,14.35-.51,14.52-10.97Zm-.15,670.78c-5.18,1.12-10.63,1.42-15.96,1.43-82.46,.09-164.92,.06-247.38,.06-82.84,0-165.69,.03-248.53-.02-21.5-.01-34.44-9.16-38.98-26.79-2.14-8.31-1.25-16.38,3.28-23.2,4.14-6.24,5.03-12.5,4.74-19.52-1.61-39.05,.96-77.42,19.11-113.13,2.95-5.8,5.17-12.37,9.42-17.03,10.88-11.9,11.63-25.72,10.64-40.58-.66-9.86-2.1-19.98,1.13-29.7,6.3-19,23.05-30.55,45.24-30.7,35.28-.24,70.57-.05,105.86-.08,11.89-.01,16.54-4.01,17.39-16.02,.6-8.4,.04-16.88,.27-25.31,.11-3.93-1.61-6.39-4.66-8.53-28.03-19.67-45.33-46.22-50.77-80.17-.87-5.45-3.73-6.25-8.64-6.43-29.78-1.06-41.26-13.11-41.28-42.72,0-8.83,.39-17.67-.09-26.47-.8-14.83,3.08-27.44,16.04-35.84,4.64-3.01,3.52-7.17,3.71-11.22,.99-21.76-2.22-43.67,3.23-65.27,10.68-42.32,49.11-75.2,92.74-76.51,41-1.23,82.07-.78,123.1-.25,22.81,.29,39.86,16.01,44.24,39.28,.91,4.85,1.12,8.35,7.43,9.37,28.09,4.53,41.98,20.76,42.58,49.24,.3,14.57,.22,29.16-.03,43.74-.1,5.67,.85,9.89,6.04,13.56,9.35,6.61,13.34,16.51,13.37,27.89,.06,26.48,.27,52.95-.05,79.43-.3,25.61-19.03,44.96-44.52,43.85-14.29-.63-23.72,3.13-30.88,15.48-4.4,7.59-11.95,12.82-18.61,18.62-4.12,3.59-11.72,4.81-11.53,11.65,.34,12.45-3.08,25.34,3.73,37.23,3.02,5.29,7.66,5.47,12.82,5.46,34.13-.08,68.27-.07,102.41-.03,36.59,.04,54.38,19.1,51.32,55.56-1.4,16.69,.33,31.24,10.49,46.32,21.25,31.55,29.17,67.78,28.89,105.84-.13,17-.89,33.58,6.97,50.3,7.78,16.54-6,37.28-24.27,41.23Zm-25.74-66.78c20.34,2.28,21.24,1.65,21.23-18.36,0-4.58,.03-9.17-.06-13.75-.53-26.25-6.51-51.11-20.87-74.6-2.03,33.49-4.03,66.98-6.12,100.47-.27,4.38,1.46,5.76,5.82,6.25Zm-148.41-333.57c-.17-4.67-3.16-6.85-7.44-7.14-4.19-.28-8.42-.06-12.63-.06-4.6,0-9.2-.19-13.78,.05-4.75,.25-8.15,2.47-8.01,7.77,.13,5.07,3.22,7.71,8.09,7.82,8.8,.19,17.62,.26,26.42-.04,5-.17,7.54-3.39,7.37-8.4Zm65.8-30.78c-.22-2.84,.77-7.19-4.17-5.92-6.05,1.56-12.08,1.43-18.14,1.36-4.18-.05-4.91,2.3-5.23,5.69-.64,6.98-5.45,13.37-3,20.74,.19,.56,2.03,.63,3.12,.82,13.42,2.37,27.31-9.14,27.42-22.69Zm-18.8-69.52c-11.88,2.72-7.38,11.74-7.54,18.45-.19,7.86-1.81,15.95,1.22,23.69,.11,.29,.59,.45,.91,.65,7.15,4.45,22.71-1.45,23.36-10.08,1.14-14.98,.32-30.1,.32-47.66-6.46,7.24-11.17,13.34-18.26,14.97Zm-264.4,6.07c0-2.67-1.68-4.25-4-4.87-8.42-2.22-14.24-8.23-21.38-15.53,0,16.73-.12,31.71,.1,46.67,.05,3.02,1.93,5.68,4.44,7.71,6.18,5,20.26,4.56,20.6-.88,.69-11,.25-22.07,.24-33.11Zm25.23-25.8c-.2-12.27-.38-24.57,0-36.83,1.05-33.87,29.31-55.68,62.26-46.94,27.37,7.26,54.06,7.57,81.49,.24,34.15-9.13,62.42,12.79,63.55,48.16,.37,11.5-.01,23.02,.09,34.53,.02,2.45-1.07,5.57,2.12,6.98,7.41,3.28,28.44-10.4,28.5-18.76,.17-21.49,.17-42.98,.02-64.46-.11-16.29-8.69-25.44-24.92-27.08-15.51-1.57-22.22-8.2-24.13-23.85-1.89-15.52-11.02-23.87-26.86-24.02-19.18-.18-38.35-.04-57.53-.03-18.79,0-37.59-.26-56.38,.06-43.69,.76-78.57,35.48-79.47,79.14-.39,18.79,.45,37.62-.33,56.39-.43,10.39,3.66,15.8,13.19,18.26,3.69,.95,7.32,2.23,10.85,3.68,5.66,2.31,7.62,.38,7.53-5.48Zm150.28,163.15c5.98-2.86,12.11-5.72,18.07-12.08-6.27-.61-10.74-.82-15.13-1.5-13.72-2.15-24.22-13.52-25.49-27.34-1.08-11.82,7.42-26.11,20.17-28.9,17.12-3.74,35.08-5.5,51.72,2.06,6.82,3.1,7.16,1.3,8.35-4.41,3.92-18.64,1.67-37.47,2.38-56.2,.14-3.79-1.38-4.77-5.01-5.86-15.41-4.65-20.3-11.63-20.38-27.55-.05-10.74-.81-21.56,.15-32.22,2.36-26.14-16.63-37.61-41.45-30.77-13.36,3.68-26.75,6.01-40.69,6.28-16.39,.32-31.62-5.25-47.45-7.6-21.48-3.18-33.9,7.89-34.05,29.36-.09,12.66-.07,25.32,.01,37.98,.06,9.67-3.48,19.41-12.31,21.47-14.3,3.34-13.45,12.26-12.78,22.67,.39,6.12,.11,12.27,.16,18.41,.63,80.09,81.47,130.71,153.72,96.2Zm-98.07,54.06c-1.6,4.31,2.43,3.85,4.83,3.86,30.63,.08,61.26,.06,91.89,.04,3.08,0,6.87,.29,5.32-4.66-3-9.53-.19-19.58-2.36-29.25q-37.19,10.21-97.12,.54c-2.08,9.7,1.03,19.83-2.56,29.46ZM60.03,694.11c.11,4.64,2.11,5.51,6.29,5.87,21.75,1.87,21.73,2,19.92-19.75-.25-3.06-.47-6.12-.52-9.19-.11-7.02,2.61-12.08,10.18-12.79,7.89-.74,11.14,4.5,11.88,11.15,.84,7.61,.88,15.32,.89,22.99,0,5.15,1.58,7.58,7.27,7.56,51.78-.15,103.56-.17,155.34,.02,6.41,.02,6.88-2.41,5.31-7.6-3.42-11.26-10.14-20.39-17.32-29.48-28.29-35.82-19.91-87.81,17.63-111.86,6.62-4.24,13.47-6.04,20.59-2.49,7.02,3.49,8.59,10.24,8.54,17.57-.08,13.81,.2,27.63-.09,41.44-.22,10.83,7.48,8.45,13.63,8.67,6.17,.22,12.6,1.2,12.22-8.72-.51-13.03,.09-26.09-.2-39.13-.19-8.23,1.4-15.71,9.03-19.72,7.96-4.18,15.39-1.37,22.47,3.58,36.38,25.47,43.46,76.45,15.13,111.5-6.8,8.41-13.08,16.98-16.36,27.43-1.75,5.6-1.76,8.93,6.18,8.88,51.01-.33,102.03-.24,153.04-.07,5.66,.02,8.11-1.36,8.41-7.56,2.85-57.85,6.19-115.68,8.96-173.54,1.05-21.98-6.13-28.84-28.28-28.84-122.36-.01-244.72,0-367.07,0-7.67,0-15.35-.23-23.01,.12-11.27,.51-19.66,8.18-20.76,19.22-.53,5.3,.02,10.73,.32,16.09,1.62,29.48,3.3,58.97,4.98,88.45,.43,7.52-.53,14.52-9.93,14.94-9.76,.43-11.85-6.39-12.03-14.56-.15-7.16-.7-14.31-1.07-21.47-19.05,31.76-22.41,66.11-21.59,101.3Zm224.2-120.38c-23.55,21.24-26.41,52.11-8,75.27,10.67,13.42,19.58,27.4,22.94,44.33,.9,4.55,2.45,6.76,7.33,6.59,9.94-.34,20.75,1.92,29.47-1.41,4.39-1.68,4.65-13.39,7.42-20.32,3.56-8.92,8.62-17.02,14.8-24.44,3.42-4.1,6.64-8.45,9.31-13.06,11.61-20.03,6.4-54.59-13.26-65.07,0,11.89,.31,23.23-.07,34.55-.57,16.84-10.96,26.83-27.69,27.19-3.83,.08-7.66,.03-11.5,.01-21.52-.09-30.48-9.03-30.74-30.84-.12-10.22-.02-20.44-.02-32.82Zm290.88,148.3c-3.03-.38-6.12-.36-9.18-.36-164.5-.02-329-.02-493.49,0-3.44,0-6.95-.06-10.3,.58-6.5,1.24-10.21,5.57-9.9,12.13,.3,6.45,4.13,10.68,10.74,11.5,3.78,.47,7.65,.3,11.48,.3,81.67,.01,163.35,.01,245.02,.01,81.67,0,163.35,0,245.02,0,3.45,0,6.91,.08,10.34-.21,6.86-.57,10.41-4.96,10.76-11.32,.38-7-3.15-11.73-10.5-12.65Z"/>
</svg>