<svg id="Layer_1" data-name="Layer 1" xmlns="http://www.w3.org/2000/svg" viewBox="0 0 14 14"><defs><style>.cls-1{fill:none;}.cls-2{fill:#393939;}</style></defs><title>pms bye new</title><rect class="cls-1" width="14" height="14"/><path class="cls-2" d="M11.48,3.69a1.09,1.09,0,0,0-1.61-.8.15.15,0,0,1-.1,0c0-.27,0-.55,0-.83a1.07,1.07,0,0,0-1.43-.83,2.08,2.08,0,0,0-.3.13s0,0,0,0a1.15,1.15,0,0,0-2,0c0,.06,0,0-.09,0a1.21,1.21,0,0,0-1.11,0,.87.87,0,0,0-.56.8V5L4.12,5a1.09,1.09,0,0,0-1.62.81V9.4A3.12,3.12,0,0,0,3,11.16,4.88,4.88,0,0,0,9.09,12.7a3.57,3.57,0,0,0,2.38-3.28C11.51,7.51,11.48,5.6,11.48,3.69ZM11,9.32a3.31,3.31,0,0,1-2.25,3.1A4.6,4.6,0,0,1,4.37,12,3.28,3.28,0,0,1,3,9.93,2.38,2.38,0,0,1,3,9.4C3,8.19,3,7,3,5.76a.59.59,0,0,1,.76-.53.56.56,0,0,1,.49.54V8.44c0,.14,0,.14.16.14a3.17,3.17,0,0,1,1.5.32,2.45,2.45,0,0,1,1.49,2c0,.07,0,.1.11.09h.22c.08,0,.1,0,.1-.08A3,3,0,0,0,5.34,8.33a3,3,0,0,0-.6-.1c-.07,0-.09,0-.08-.08v-6a.51.51,0,0,1,.23-.47.66.66,0,0,1,.64-.08.52.52,0,0,1,.38.44V6.82s0,.08,0,.11,0,0,0,0h0a.2.2,0,0,0,.24.14.19.19,0,0,0,.19-.18.33.33,0,0,0,0-.1c0-1.71,0-3.42,0-5.14a.59.59,0,0,1,.68-.55.58.58,0,0,1,.57.5V6.85a.21.21,0,0,0,.26.23c.09,0,.16,0,.17-.14h0a.25.25,0,0,0,0-.12V2.15a.54.54,0,0,1,.49-.55A.62.62,0,0,1,9.31,2a1.09,1.09,0,0,1,0,.18V6.81s0,.07,0,.1h0a.22.22,0,0,0,.24.15.2.2,0,0,0,.2-.18V3.71a.57.57,0,0,1,.54-.55.61.61,0,0,1,.72.49v.09C11,5.6,11,7.46,11,9.32Z" transform="translate(0 0)"/></svg>