<?xml version="1.0" encoding="UTF-8"?>
<svg id="Layer_1" data-name="Layer 1" xmlns="http://www.w3.org/2000/svg" viewBox="0 0 14 14">
  <defs>
    <style>
      .cls-1 {
        fill: #393939;
      }

      .cls-2 {
        fill: none;
      }
    </style>
  </defs>
  <rect class="cls-2" width="14" height="14"/>
  <path class="cls-1" d="M2.15,7.93c-.4,0-.8,0-1.2,0-.22,0-.35-.11-.35-.28,0-.18,.12-.29,.34-.29,.81,0,1.63,0,2.44,0,.22,0,.34,.11,.33,.3,0,.18-.12,.28-.35,.28-.41,0-.81,0-1.22,0Zm1.23-1.42c.22,0,.34-.11,.34-.29,0-.18-.12-.28-.35-.28-.52,0-1.05,0-1.57,0-.21,0-.35,.12-.35,.29,0,.17,.13,.28,.35,.29,.26,0,.52,0,.78,0,.27,0,.53,0,.8,0Zm10.01,2.87c0,.76-.47,1.23-1.23,1.24-2.88,0-5.75,0-8.63,0-.77,0-1.23-.48-1.24-1.25,0-.1,0-.21,0-.31,.02-.17,.11-.28,.29-.28,.18,0,.28,.11,.29,.3,0,.13,0,.27,0,.4,0,.04-.01,.09,.03,.12,.05,.03,.08-.02,.11-.05,.98-.84,1.96-1.68,2.95-2.52,.09-.08,.08-.13,0-.2-.98-.83-1.95-1.67-2.93-2.5-.03-.03-.07-.1-.12-.05-.03,.02-.03,.08-.03,.12,0,.14,0,.28,0,.42,0,.15-.1,.25-.25,.27-.15,.02-.26-.05-.31-.2-.22-.61,.17-1.4,.78-1.59,.16-.05,.34-.05,.51-.05,1.41,0,2.82,0,4.24,0,1.41,0,2.82,.02,4.23,0,.9-.02,1.33,.64,1.32,1.32-.03,1.61,0,3.22,0,4.83Zm-5.87-1.98c.28,.24,.36,.24,.64,0,1.33-1.13,2.65-2.27,3.98-3.4,.06-.05,.14-.08,.16-.18H3.34c.1,.09,.16,.15,.23,.2,1.32,1.13,2.64,2.26,3.96,3.39Zm4.8,2.63s-.04-.06-.05-.08c-1-.86-2-1.71-2.99-2.57-.09-.08-.15-.06-.22,.01-.22,.2-.44,.39-.67,.58-.33,.27-.75,.26-1.08,0-.22-.18-.43-.36-.63-.55-.11-.11-.18-.09-.29,0-.96,.83-1.92,1.65-2.87,2.47-.04,.04-.11,.06-.11,.14H12.32Zm.49-.63c0-1.65,0-3.31,0-4.96,0-.06,0-.12,0-.19-.1,0-.14,.06-.19,.1-.94,.8-1.87,1.61-2.81,2.4-.15,.13-.17,.19,0,.33,.94,.79,1.88,1.6,2.82,2.4,.05,.04,.1,.14,.18,.09,.06-.03,.03-.12,.03-.19Z"/>
</svg>