<?xml version="1.0" encoding="UTF-8"?>
<svg id="Layer_1" data-name="Layer 1" xmlns="http://www.w3.org/2000/svg" viewBox="0 0 800 800">
  <defs>
    <style>
      .cls-1 {
        fill: none;
      }

      .cls-2 {
        fill: #010101;
      }
    </style>
  </defs>
  <rect class="cls-1" width="800" height="800"/>
  <path class="cls-2" d="M345.59,687.55c-.37-10.49-6.96-17.33-17.69-17.32-7.77,0-8.57-3.3-8.44-9.63,.34-15.67,.02-31.35,.13-47.03,.37-54.76-17.75-102.53-53.75-143.73-28.28-32.37-61.49-59.51-93.07-88.38-4.01-3.66-8.86-6.37-14.14-7.23-5.83-.95-8.09-3.93-9.63-9.43-8.69-30.89-17.74-61.68-26.84-92.45-3.35-11.34-6.48-22.83-14.49-32.14-14.92-17.33-37.91-15.74-50.19,3.61-6.91,10.89-7.63,22.8-6.3,35.34,7.22,67.65,14.65,135.28,21.05,203.01,3.65,38.68,18.48,71.32,46.73,97.98,17.52,16.53,34.54,33.59,52.27,49.89,10.42,9.58,12.24,21.39,11.97,34.42-.1,4.94-2.79,5.08-6.56,5.58-14.18,1.9-19.35,7.66-19.52,21.77-.2,16.44-.16,32.88-.03,49.32,.13,16.27,6.69,22.78,23.17,22.88,23.71,.14,47.41,.03,71.12,.03,24.47,0,48.94,.15,73.41-.07,13.06-.12,20.42-5.97,20.84-17.95,.68-19.47,.62-39-.07-58.47Zm-164.28-79.66c-16.32-14.41-31.53-30.08-47.3-45.11-23.45-22.35-35.71-49.65-38.82-81.94-6.52-67.72-13.97-135.34-21.01-203.01-.63-6.06-1.8-12.2,.87-18.09,1.75-3.87,3.65-7.98,8.65-8.1,4.37-.1,6.74,3.26,8.63,6.65,7.16,12.86,9.47,27.38,13.75,41.2,7.58,24.44,14.25,49.16,21.58,73.68,1.29,4.32,1.52,7.39-1.36,11.51-10.29,14.74-11.14,29.96,.35,43.37,26.1,30.46,53.4,59.91,80.45,89.55,4.73,5.18,11.26,5.66,16.33,.57,6.1-6.13,3.71-12.36-1.56-18.15-23.43-25.71-46.76-51.52-70.14-77.27-3.6-3.97-7.56-7.74-9.17-13-1.28-4.18-1.21-8.47,2.52-11.6,3.82-3.21,7.81-2.19,11.68,.15,.65,.4,1.38,.72,1.93,1.24,37.33,34.93,78.7,65.9,107.8,108.95,20.53,30.37,29.55,64.32,30.06,100.7,.24,17.2-.35,34.42,.27,51.61,.29,7.9-2.63,9.6-9.79,9.29-11.83-.52-23.7-.14-35.55-.14-12.24,0-24.48-.25-36.7,.1-6.06,.17-9.36-1.06-8.84-8.08,1.66-22.44-8.1-39.5-24.62-54.09Zm139.2,131.14c-6.46,6.21-23.16,1.88-35.31,2.03-11.45,.14-22.91,.03-34.37,.03-21,0-42.01-.15-63.01,.1-5.68,.07-8.22-1.27-7.92-7.58,.5-10.67,.55-21.4,0-32.06-.38-7.38,2.67-8.85,9.35-8.81,41.62,.25,83.25,.27,124.87-.02,7-.05,9.68,1.98,9.07,9.05-1.11,12.78,5.36,29.54-2.67,37.25ZM722.24,228.96c-15.35-3.32-28.92,5.15-37.41,23.52-1.59,3.45-2.92,7.06-4,10.71-8.99,30.4-17.97,60.81-26.78,91.26-2.96,10.22-4.33,21.08-18.67,22.13-3.62,.27-7.32,4.01-10.38,6.81-26.5,24.26-53.93,47.5-79.03,73.28-44.26,45.47-67.64,99.21-65.58,163.3,.45,14.13-.06,28.29,.13,42.44,.07,4.93-.81,7.27-6.73,7.75-14.2,1.16-19.46,7.14-19.72,21.47-.31,16.82-.3,33.65-.02,50.46,.27,15.61,6.89,21.84,22.93,21.93,24.09,.13,48.18,.03,72.26,.03,24.09,0,48.18,.16,72.26-.06,13.39-.12,20.93-6.61,21.24-18.88,.47-18.72,.3-37.47,.03-56.2-.13-9.48-5.27-17.85-14.37-17.97-12.57-.16-11.94-6.53-11.48-15.18,.54-10.12,4.23-18.34,11.59-25.3,17.51-16.54,34.69-33.41,52.22-49.93,28.58-26.92,43.53-59.89,47.1-99,5.83-63.94,12.87-127.77,19.38-191.65,.81-7.97,2.26-15.98,2.11-23.94-.35-18.25-12.09-33.72-27.11-36.97Zm-102.15,472.5c-.37,10.68-.45,21.39,.03,32.06,.27,6.19-1.99,7.75-7.85,7.68-21.38-.29-42.77-.11-64.15-.11-21,0-42.01-.23-63,.14-6.56,.11-8.63-1.97-8.33-8.46,.48-10.67,.37-21.38,.04-32.06-.19-5.91,1.8-7.97,7.86-7.94,42.39,.21,84.77,.24,127.16-.03,6.82-.04,8.46,2.54,8.25,8.73Zm106.22-428.64c-7.5,73-14.7,146.03-22.91,218.95-3.14,27.91-16.7,51.3-37.04,70.71-16.87,16.1-33.25,32.74-50.56,48.34-14.95,13.47-22.78,29.5-21.67,49.55,.41,7.43-1.96,10.09-9.63,9.7-12.2-.62-24.46-.17-36.7-.17-12.24,0-24.47,.01-36.71,0-3.74,0-7.87,.87-7.74-5.28,.76-38.09-3.13-76.49,9.38-113.7,9.84-29.29,26.88-53.86,47.75-76.09,24.38-25.96,51.85-48.63,77.94-72.77,4.79-4.43,10.64-9.6,16.88-3.27,6.11,6.2,2.48,13.11-2.26,18.45-17.76,20.01-35.83,39.75-53.79,59.58-7.18,7.94-14.33,15.9-21.57,23.79-5.42,5.9-7.1,12.4-.59,18.03,5.86,5.07,12.14,3.3,17.19-2.27,25.68-28.32,51.68-56.35,76.82-85.13,13.29-15.21,13.37-29.99,2.16-47.14-2.13-3.25-2.55-5.77-1.46-9.44,10.64-35.49,20.89-71.09,31.69-106.53,2.22-7.27,4.17-18.08,14.47-15.68,9.02,2.1,9.19,12.14,8.34,20.38Zm-366.42-59.85c-18.85-21.7-49.5-26.14-73.4-9.73-6.2,4.26-9.7,3.72-15.62-.23-18.36-12.25-38.08-13.12-57.48-2.69-19.08,10.26-28.04,27.29-29.43,47.94,.5,14.95,4.66,27.98,14.68,38.24,23.21,23.76,46.84,47.11,70.3,70.63,6.67,6.68,13.28,6.57,19.92-.08,23.19-23.26,46.83-46.08,69.46-69.88,19.84-20.86,19.96-53.03,1.58-74.19Zm-20.41,61.07c-18.14,18.02-36.36,35.97-54.17,54.31-4.81,4.95-7.7,5.44-12.75,.21-18.05-18.64-36.76-36.64-54.88-55.22-14-14.35-14.19-33.71-1.09-47.12,13.01-13.3,32.57-13.18,47.17,.29q14.81,13.67,30.53-.52c10.96-9.9,23.37-12.74,36.98-6.52,12.69,5.8,18.56,16.4,19.15,29.16-.34,10.6-4.1,18.63-10.93,25.41ZM478.83,71.59c-23.41-12.9-46.79-25.87-70.07-39.01-5.9-3.33-11.24-3.51-17.22-.13-23.28,13.14-46.65,26.11-70.07,38.99-6.83,3.76-11.19,8.78-7.78,16.63,3.29,7.59,10.08,7.82,16.49,4.61,7.85-3.92,7.12,1.04,7.12,5.9-.02,15.67-.14,31.34,.03,47,.18,15.98,8.66,24.82,24.68,25.32,12.6,.4,25.22,.08,37.83,.08,12.23,0,24.46,.2,36.69-.04,17.46-.35,26.01-8.96,26.16-26.2,.13-15.67,.09-31.34,0-47-.03-5.02,.23-8.5,6.85-5.19,6.4,3.2,13.18,3.25,16.66-4.21,3.59-7.71-.47-12.95-7.38-16.76Zm-48.11,76.6c-1.12-.16-2.29-.02-3.43-.02-15.67,.04-15.63,.04-15.84-15.72-.05-3.41-.06-6.93-.89-10.2-1.41-5.54-5.55-8.05-11.16-7.81-5.13,.21-8.94,2.85-9.93,7.9-.87,4.44-1.41,9.2-.76,13.62,1.52,10.42-2.69,13-12.63,12.43-17.91-1.02-15.66,2.07-15.78-16.07-.11-16.03,.18-32.07-.13-48.1-.11-5.6,1.07-9.71,6.72-11.67,.7-.24,1.3-.79,1.97-1.17,31.85-17.96,31.74-17.77,63.56,.46,5.92,3.39,7.82,7.24,7.5,13.64-.44,8.76-.11,17.56-.11,26.34,0,9.16-.4,18.35,.13,27.48,.42,7.16-2.29,9.86-9.19,8.9Zm106.56,173.28c-3.15,2.26-6.1,4.52-7.43,8.35-1.49,4.29-2.44,9.48-8.52,9.03-6-.44-7.05-5.72-9.35-10.18-5.62-10.9-14.48-18.69-25.51-23.94,0-.37,.01-.73,.04-1.11,3.58-4.9,2.52-12.24,8.36-15.95,.73-.61,1.32-1.23,1.79-1.87,5.43,.37,9.4,3.28,12,8.89,2.21,4.75,5.99,7.92,11.24,8.94,5.53,1.08,11.99,1.21,13.69-4.84,1.95-6.91-4.97-7-9.58-8.14-11.23-2.78-21.84-6.32-28.71-14.54-2.84-4.07-4.3-8.54-3.62-13.65,.52-11.12,4.73-20.01,13.74-27.25,6.01-4.82,9.66-11.37,10.65-18.96,3.26-.73,6.61-.94,9.97-.98,.25,0,.5,.02,.75,.03,.09,0,.16-.02,.24-.02,.35,8.47,3.74,15.47,11.75,20.52,9.03,5.69,14.67,13.33,12.44,24.82-.44,2.41-2.3,3.78-4.21,5.12-5.51,1.27-10.18-.98-13.84-8.53-3.39-6.99-10-5.86-16.1-4.85-2.9,.48-4.92,2.61-4.86,5.58,.15,7.48,6.81,7.28,11.53,8.91,6.08,2.11,12.36,3.64,18.57,5.37,0,.25-.01,.48,.01,.75,.36,1.51,1.16,2.79,2.07,4.02,14.6,19.64,12.96,30.07-7.11,44.47Zm-15.93-137.94c-52.22,.14-93.8,41.89-93.86,94.22-.06,52.52,41.25,94,93.69,94.1,52.38,.1,94.54-41.42,94.8-93.35,.26-52.39-42.31-95.12-94.62-94.97Zm7.2,165.04c-8.18,.43-16.74,2.09-24.49-2.57-24.38-4.05-46.61-26.17-52.05-51.81-6.27-29.59,5.12-58.88,29.43-75.31,4.07-2.75,8.11-5.76,13.21-6.52,3.52-.82,7-2.26,10.53-3.01,.41-.49,.99-.88,1.76-1.09,6.5-1.74,12.66-.36,19.21-.15,2.26-.02,4.53,.01,6.77,.02,.99,0,1.76,.35,2.33,.87,2.19,.24,4.39,.77,6.59,1.07,32.12,8.38,54.27,40.85,50.92,74.63-3.35,33.79-31.61,62.15-64.2,63.87Z"/>
</svg>