<?xml version="1.0" encoding="UTF-8"?>
<svg id="Layer_1" data-name="Layer 1" xmlns="http://www.w3.org/2000/svg" viewBox="0 0 800 800">
  <defs>
    <style>
      .cls-1 {
        fill: none;
      }

      .cls-2 {
        fill: #010101;
      }
    </style>
  </defs>
  <rect class="cls-1" width="800" height="800"/>
  <path class="cls-2" d="M748.87,76c-171.83,0-343.66,0-515.48,0-23.95,0-26.95,2.95-26.96,26.43-.07,115.5-.14,231.01-.21,346.51,10.62,8.56,21.68,6.76,32.86,1.92-.14-.12-.29-.24-.43-.35,0-68,.14-136-.19-204.01-.04-8.65,1.61-11.72,11.16-11.7,160.66,.33,321.32,.3,481.99,.06,8.2-.01,11.04,1.32,11.02,10.46-.33,149.92-.24,299.83-.21,449.75,0,5.88,1.13,10.66-8.39,10.64-154.87-.36-309.74-.26-464.61-.28-1.15,0-2.29-.25-3.45-.38,10.95-37.08,3.76-75,5.72-112.46,.24-4.6-2.89-7.84-4.73-11.59,.37-.68,.71-1.35,1.03-2.03-4.66-3.53-10.16-4.13-15.79-4.5-8.48-.56-16.96,.82-25.44-.15-48.77-.17-97.53-.1-146.3,.04-9.46,.99-18.94-.25-28.41,.23-5.97,.3-11.27,1.57-14.35,7.36-4.04,5.17-4.67,11.14-4.63,17.49,.16,22.79,.05,45.58,.06,68.38,.03,44.67,24.6,69.16,69.59,69.17,215.85,.03,431.69,.02,647.54,0,20.77,0,24.53-3.72,24.53-24.09,0-203.58,0-407.17,0-610.75,0-23.11-3-26.14-25.94-26.14Zm-361.07,119.39c.1,6.75-2.07,8.37-8.51,8.26-21.98-.37-43.98-.14-65.97-.14-21.61,0-43.21-.24-64.81,.13-7.08,.12-10.25-1.14-10.07-9.35,.55-25.85,.4-51.72,.07-77.58-.09-6.69,1.18-9.43,8.75-9.36,43.98,.37,87.96,.29,131.94,.06,6.19-.03,8.72,1.18,8.61,8.09-.4,26.63-.38,53.27,0,79.89Zm344.84,8.25c-50.56-.24-101.12-.13-151.69-.13-50.18,0-100.35-.16-150.53,.17-7.93,.05-10.58-1.95-10.41-10.22,.53-25.86,.4-51.74,.05-77.61-.09-6.56,1.78-8.46,8.4-8.45,101.9,.2,203.79,.2,305.69,0,6.51-.01,8.48,1.72,8.39,8.32-.36,26.25-.52,52.52,.07,78.77,.19,8.27-3.03,9.19-9.97,9.16ZM239.81,618.34c-.52,18.49-.05,37.01-.21,55.52-.16,18.28-11.65,31.15-29.77,31.41-38.15,.55-76.31,.57-114.46,0-18.17-.27-29.58-13.13-29.71-31.4-.13-18.51,.31-37.02-.2-55.52-.2-7.34,2.31-9.1,9.23-9.01,26.2,.35,52.41,.14,78.62,.14,25.82,0,51.65,.25,77.46-.16,7.08-.11,9.23,1.82,9.03,9.02Zm31.35-102.86c12.24-24.68-6.21-62.15-32.52-64.96-10.81-.51-21.74,1.55-32.43-1.57-4.37,2.17-9.07,1.46-13.65,1.46-35.86,.04-71.85,2-107.53-.54-34.84-2.48-67.9,37.23-43.55,74.64,2.5,3.85,2.82,6.53,.22,10.26-10.36,14.9-11.04,30.73-4.01,47.17,4.08-3.07,8.59-4.2,13.76-4.07,9.07,.23,18.15-.12,27.23-.23-8.93-3.87-15.4-9.95-12.44-20.32,2.71-9.5,10.9-11.82,20.18-11.79,43.85,.14,87.71,.15,131.56-.01,9.56-.04,18.06,1.4,20.94,12.02,2.75,10.12-3.64,15.66-11.48,20.05h0c13.09,2.15,26.78-2.84,39.52,3.39,6.01-1.04,6.32-6.23,7.05-10.54,1.57-9.24,1.69-18.83-2.95-27.08-5.47-9.72-4.91-17.81,.09-27.9Zm-49.42-2.33c-22.77,.17-45.55,.05-68.33,.05-23.16,0-46.32,.1-69.49-.04-11.85-.07-17.95-5.21-18.24-14.75-.3-10.02,6.08-15.83,18.24-15.86,45.94-.11,91.88-.11,137.81,0,11.63,.03,17.75,5.58,17.64,15.18-.11,9.77-6.16,15.32-17.64,15.41ZM645.62,139.88c15.4,0,30.79-.11,46.19,.04,12.04,.12,19.92,6.79,19.74,16.3-.17,9.13-7.79,15.9-19.11,15.98-31.17,.21-62.35,.2-93.53,.01-12.17-.08-19.45-6.74-19.27-16.68,.2-10.6,6.32-15.53,19.79-15.62,15.4-.1,30.79-.02,46.19-.02Zm-177.45,.07c8.95,.26,16.03,7.75,15.69,16.6-.31,8.17-7.77,15.55-15.74,15.57-8.68,.02-16-7.46-15.94-16.31,.06-9.48,6.77-16.13,15.99-15.86Zm79.34,15.48c.02,8.46-7.85,16.65-16.04,16.69-8.09,.04-16.47-8.43-16.3-16.47,.18-8.34,8.24-15.83,16.9-15.71,8.54,.13,15.41,7.02,15.44,15.49Zm-56.23,126.78c-105.62-.27-186.59,81.94-189.22,188,2.59,105.99,83.45,188.3,189.15,188.06,106.13-.24,187.4-83.53,187.43-188,.03-104.37-81.19-187.79-187.36-188.06Zm-1.1,344.22c-87.59-1.81-155.83-70.79-155.28-157.03,.55-86.71,69.31-154.96,155.78-155.02,87.24-.06,155.84,69.16,155.68,156.11-.16,87.31-69.27,154.84-156.18,155.94Zm2.43-280.24c-70.1-.24-125.69,54.22-125.85,123.3-.16,69.06,54.74,124.67,123.21,124.81,68.96,.14,124.72-54.93,124.85-123.33,.13-68.49-54.78-124.56-122.21-124.78Zm-15.6,215.44c-40.25-5.85-74.79-41.85-77.85-80.45-3.61-45.64,20.82-84.13,62.38-98.3,37.68-12.84,81.94,1.31,102.8,33.56-35.47,6.27-53.97,24.75-54.12,53.21-.15,29.26,17.77,47.62,53.02,54.3-10.01,22.54-47.85,43.26-86.24,37.68Zm92.86-70.22c-17.52-.11-27.39-7.58-27.57-20.88-.19-13.69,9.92-21.28,28.19-21.17,11.26,.07,12.32,1.92,12.26,21.29-.06,19.08-1.15,20.83-12.87,20.76Z"/>
</svg>