<?xml version="1.0" encoding="UTF-8"?>
<svg id="Layer_1" data-name="Layer 1" xmlns="http://www.w3.org/2000/svg" viewBox="0 0 800 800">
  <defs>
    <style>
      .cls-1 {
        fill: none;
      }

      .cls-2 {
        fill: #010101;
      }
    </style>
  </defs>
  <rect class="cls-1" width="800" height="800"/>
  <path class="cls-2" d="M358.59,557.01c25.98-.96,55.98,2.43,85.52-5.08,71.33-18.14,122.04-83.18,122.09-157.24,.05-74.07-50.62-139.66-121.82-157.33-9.22-2.29-18.78-4.83-28.11-4.58-13.17,.35-22.79-4.85-32.32-13.02-15.15-13-31.16-25-46.66-37.6-10.47-8.51-11.03-13.58-2.51-23.9,18.8-22.78,37.89-45.33,56.62-68.18,4.6-5.61,9.72-8.29,17.11-8.05,100.85,3.38,182.35,44.83,244.75,124.04,5.75,7.3,8.63,15.04-.66,21.43-8.68,5.97-14.5,.38-19.72-6.4-46.98-61.09-109.13-97.01-184.47-110.92-1.23-.23-2.47-.33-3.71-.47q-34-3.77-55.72,22.78c-8.18,9.97-16.41,19.92-24.88,29.64-3.46,3.97-3.63,6.49,.85,9.95,13.83,10.67,27.14,22.02,41.03,32.61,6.63,5.06,15.29,2.96,22.93,4.04,89.87,12.63,158.23,85.44,162.32,173.54,4.39,94.6-54.62,173.26-146.05,194.97-12.6,2.99-25.28,4.71-38.19,4.74-33.32,.06-66.63,.17-99.95-.09-6.64-.05-11.7,1.43-16.46,6.45-12.02,12.69-24.45,25.01-37.07,37.1-4.75,4.55-5.96,7.55-.46,12.73,13.34,12.54,26.19,25.62,38.91,38.8,3.85,4,7.9,5.26,13.22,5.12,11.65-.3,23.32-.1,34.98-.09,8.44,0,13.68,4.01,13.61,12.64-.07,7.97-5.24,12.11-12.91,12.23-16.24,.26-32.48,.07-48.72,.07-5.5,0-9.14-3.26-12.74-6.88-18.78-18.9-37.5-37.86-56.54-56.5-8.34-8.16-8.19-15.24,.08-23.34,19.04-18.64,37.84-37.52,56.49-56.54,4.74-4.83,9.87-6.85,16.59-6.76,19.57,.28,39.14,.1,62.57,.1Zm329.49-292.78c-4.06-8.92-8.63-19.38-20.73-13.68-12.47,5.86-6.15,15.86-2.16,24.58,49.51,108.36,27.16,236.65-56.44,320.6-58.31,58.55-129.4,86.57-211.82,86.14-9.23-.05-17.68,1.52-17.69,12.46-.01,10.83,8.33,12.75,17.61,12.72,19.97-.08,39.75-1.37,59.49-4.81,151.24-26.4,259.91-154.84,260.04-307.67,.41-45.58-9.43-88.93-28.29-130.32ZM99.09,463.15c4.59,20.67,11.39,40.72,20.18,60,3.27,7.18,9.19,11.31,17.19,7.6,7.62-3.53,9.48-9.95,5.98-17.72-1.02-2.27-1.98-4.58-2.94-6.88-22.16-53.16-29.14-108.27-17.45-164.68,21.82-105.31,83.46-177.66,183.8-216.65,9.21-3.58,18.95-5.76,28.34-8.92,7.16-2.41,11.21-7.41,9.43-15.25-1.68-7.44-7.28-9.57-14.28-8.73-2.87,.34-5.75,.8-8.53,1.57C185.53,130.76,91.65,253.77,91.52,393.86c.15,23.36,2.51,46.52,7.56,69.3Zm119.63,243.88c8.48,.04,14.29-3.95,14.57-11.98,.3-8.78-5.57-13.36-14.64-13.08-2.49,.08-4.99,.01-7.49,.01-48.69,0-97.38-.21-146.07,.2-8.48,.07-11.37-1.74-11.15-10.78,.65-26.21,.63-52.45,0-78.66-.21-8.83,2.29-11.01,10.99-10.94,50.35,.43,100.71,.09,151.06,.31,9.61,.04,17.47-2.55,17.25-13.04-.2-9.66-7.77-12.2-16.89-12.17-56.6,.22-113.19,.07-169.79,.14-13.21,.02-17.43,3.99-17.48,16.8-.14,38.71-.13,77.43,0,116.14,.04,12.95,4.2,16.92,17.33,16.97,28.3,.11,56.6,.03,84.9,.03,29.13,0,58.26-.1,87.39,.06Zm46.81-186.53c6.49,7.1,13.69,17.99,24.5,7.77,10.77-10.17,.27-17.75-6.28-24.92-54.84-60.02-56.35-152.35-3.4-214.04,17.06-19.88,37.68-34.85,61.95-44.77,8.15-3.33,12.14-9.57,8.4-17.85-3.46-7.66-10.27-8.98-17.89-5.31-1.48,.71-3.16,1.01-4.64,1.72-71.56,34.26-107.77,91.73-111.84,163.96,.68,54.86,16.38,97.52,49.2,133.44Zm434.17,186.54c6.73,.1,11.9-2.06,16.6-6.83,18.7-18.96,37.54-37.77,56.46-56.51,8.12-8.04,8.07-15.57-.05-23.61-18.34-18.14-36.52-36.45-54.69-54.75-6.21-6.26-13.23-9.82-20.59-2.92-8.36,7.85-3.36,14.79,3.09,21.18,13.9,13.77,27.41,27.93,41.62,41.36,5.47,5.17,6,8.24,.23,13.58-12.21,11.29-24.01,23.07-35.37,35.21-5.54,5.92-11.2,8.48-19.46,8.36-32.87-.48-65.75-.09-98.63-.26-9.33-.05-17.45,1.85-17.16,12.94,.27,10.14,8,12.28,16.85,12.2,18.73-.17,37.46-.05,56.18-.05,18.31,0,36.63-.18,54.93,.09Zm-170.77-313.05c.14,69.46-55.46,125.48-124.57,125.52-69.01,.04-125.46-56.25-125.41-125.07,.05-68.32,56.17-124.69,124.34-124.87,69.54-.19,125.51,55.24,125.64,124.42Zm-25.12,.81c.12-55.07-44.62-100.18-99.44-100.23-54.67-.06-100.13,45.13-100.29,99.69-.16,54.53,45.17,100.08,99.76,100.24,54.91,.16,99.85-44.66,99.98-99.7Zm-38.33-48.96c-6.31-3.08-11.21-.18-15.68,3.98-15.82,14.69-31.56,29.48-47.44,44.12-7.31,6.74-14.47,17.67-22.45,18.39-6.52,.59-14.15-11.16-21.28-17.44-.31-.27-.68-.49-.97-.78-6.01-5.85-12.52-6.83-18.53-.56-5.98,6.24-4.75,12.85,1.24,18.54,9.94,9.43,20.04,18.69,30.09,28,6.69,6.19,13.19,5.76,19.75-.38,25.47-23.84,51-47.62,76.51-71.42,3.42-3.19,6.23-6.7,6.16-11.72-.43-4.98-2.95-8.56-7.4-10.73Z"/>
</svg>