<?xml version="1.0" encoding="UTF-8"?>
<svg id="Layer_1" data-name="Layer 1" xmlns="http://www.w3.org/2000/svg" viewBox="0 0 800 800">
  <defs>
    <style>
      .cls-1 {
        fill: #0e0e0e;
      }

      .cls-2 {
        fill: none;
      }
    </style>
  </defs>
  <rect class="cls-2" width="800" height="800"/>
  <path class="cls-1" d="M483.3,57.92c0,7.22,0,14.43,0,21.65,0,7.53-3.25,12.43-11.22,12.7-7.86,.26-12.08-4.27-12.24-11.77-.31-15.23-.37-30.47,.07-45.69,.2-6.94,4.5-10.93,11.82-10.82,7.25,.11,11.23,3.87,11.44,11.08,.23,7.61,.05,15.23,.05,22.85,.02,0,.04,0,.07,0Zm-134.22,71.74c-11.59-13.76-24.16-26.62-38.12-37.93-4.53-3.67-9.98-1.57-13.84,2.87-3.98,4.59-4.31,9.85-.23,14.13,11.3,11.86,22.91,23.42,34.66,34.83,3.38,3.28,7.81,3.86,12.19,1.3,4.09-2.38,6.44-5.85,6.7-11.21-.33-1.02-.42-2.86-1.37-3.99Zm40.77-85.98c-2.75-4.54-8.2-4.52-13.02-2.26-4.82,2.27-8.31,6.37-6.48,11.48,5.93,16.53,11.94,33.13,20.71,48.42,2.13,3.72,6.52,5.99,11.49,3.65,5.03-2.37,8.77-5.64,8.33-13.61-6.76-14.79-11.69-32.23-21.03-47.68Zm250.74,51.13c-4.79-1.91-9.38-.91-13.23,2.8-9.76,9.43-19.5,18.89-29.37,28.2-6.35,5.98-9.4,12.48-2.26,19.52,6.6,6.51,13.15,3.68,18.84-1.93,9.38-9.25,18.57-18.68,27.93-27.95,2.94-2.92,5.25-6.01,5.13-8.75-.17-6.56-2.68-10.15-7.04-11.88Zm-76.52-51.41c-5.53-1.57-10.98-.67-13.44,4.79-6.72,14.93-13.13,30.02-18.92,45.33-2.02,5.34,.92,10.3,6.21,12.87,4.73,2.29,10.76,2.21,12.97-2.33,7.84-16.09,14.61-32.71,20.6-46.42-.14-8.49-1.96-12.69-7.41-14.24Zm115.79,556.38c-61.53,48.81-123.32,97.31-184.65,146.38-19.73,15.78-40.62,14.85-63.5,9.5-56.4-13.18-113.07-25.25-169.63-37.75-8.12-1.79-16.02-1-23.29,3.1-6.97,3.93-13.65,8.36-20.55,12.43-7.57,4.46-14.25,8.22-15.03,19.35-.81,11.43-10.91,17.81-23.44,18.02-16.43,.28-32.86,.19-49.29,.06-18.72-.14-27.68-9.22-27.78-28.38-.15-27.67-.04-55.34-.04-83.01,0-27.27-.09-54.54,.03-81.81,.09-20.05,8.71-28.67,28.45-28.75,16.03-.06,32.06-.11,48.09,.02,14.28,.11,22.4,5.04,25.77,18.52,2.19,8.77,5.4,5.38,9.52,2.9,17.84-10.74,36.06-20.9,53.34-32.48,14.79-9.92,30.07-10.67,45.81-5.12,55.75,19.66,111.87,38.47,166.63,60.65,15.54,6.29,24.56,3.06,36.36-4.29,30.24-18.84,60.87-37.06,91.42-55.4,20.13-12.08,41.2-15.05,63.04-4.99,30.98,14.26,35.37,49.93,8.75,71.05Zm-498.46,137.38c-.42-25.66-.16-51.34-.16-77.01,0-26.07-.23-52.15,.15-78.22,.1-7.1-1.47-10.07-9.23-9.69-12.8,.62-25.65,.38-38.47,.08-5.77-.14-7.55,2.02-7.53,7.68,.16,52.95,.21,105.9-.05,158.84-.03,7.22,2.83,8.73,9.25,8.52,12.01-.39,24.08-.61,36.07,.06,8.16,.45,10.1-2.56,9.98-10.26Zm492.07-173.21c-2.03-9.01-9.48-12.49-17.43-14.67-13.22-3.61-25.3-.21-36.73,6.65-33.65,20.22-67.25,40.51-101.05,60.47-5.64,3.33-8.37,6.33-5.7,13.21,3.02,7.78,1.56,15.75-1.14,23.55-9.08,26.2-35.92,39.64-61.83,30-32.98-12.26-65.68-25.29-98.53-37.91-7.77-2.99-14.66-7.39-11.08-16.65,3.72-9.63,11.83-9.29,20.12-5.25,2.14,1.05,4.5,1.65,6.74,2.51,29.89,11.38,59.65,23.12,89.72,33.99,14.29,5.16,27.37-1.51,32.17-14.75,4.38-12.07-1.93-25.74-15.78-30.79-56.34-20.51-112.87-40.52-169.32-60.73-8.51-3.05-16.45-1.91-24.13,2.75-22.6,13.72-45.2,27.44-67.97,40.87-5.12,3.02-7.11,6.55-6.95,12.53,.41,15.23,.14,30.48,.14,45.73,0,15.24-.08,30.49,.07,45.73,.03,3.05-1.64,7.14,1.3,8.96,3.77,2.33,6.53-1.85,9.29-3.66,15.21-10,31.29-16.42,49.83-12.44,59.76,12.84,119.68,24.99,179.09,39.3,16.71,4.02,28.77,.37,40.86-9.42,23.05-18.67,45.93-37.56,69.2-55.96,36.16-28.59,72.58-56.86,108.91-85.23,6.17-4.82,12.22-9.88,10.21-18.8Zm-101.89-160.02c-9.2,7.2-18.67,13.94-23.41,25.2-2.47,5.86-2.94,10.38,2.57,15.94,17.22,17.37,13.78,41.37-7.64,53.52-6.31,3.58-8.08,7.63-8.55,14.06-.63,8.79-2.01,17.52-3.24,26.26-1.18,8.37-5.95,12.77-14.6,12.74-14.43-.05-28.86-.01-43.29-.01-13.23,0-26.47-.43-39.67,.14-11.08,.47-16.33-4.71-17.64-15.1-.5-3.98-1.39-7.93-1.55-11.92-.48-11.84-2.57-20.79-15.36-27.64-18.85-10.09-20.53-36.46-4.89-51.76,5.62-5.49,5.34-9.74,2.57-15.67-4.57-9.79-12.23-16.52-20.73-22.85-52.36-39-74.15-103.09-57.48-168.2,15.65-61.16,70.13-111.22,130.69-120.11,73.72-10.81,144.84,28.42,173.04,95.45,28.42,67.58,8.1,143.88-50.79,189.96Zm-61.26,107.55c1.71-6.42-3.72-5.52-7.55-5.54-9.61-.06-19.22-.02-28.83-.02-10.01,0-20.02-.12-30.03,.07-3.51,.07-9.63-1.57-7.67,5.19,1.77,6.13-3.48,17.01,7.05,17.68,19.94,1.28,40.07,1.2,60.02,.05,10.95-.63,5.38-11.33,7.01-17.43Zm24.71-40.97c.02-9.88-7.14-11.03-15.05-11-32.82,.1-65.64,.11-98.46-.01-8.17-.03-14.95,1.96-14.74,11.47,.21,9.37,7.1,11.35,15.18,11.28,16.01-.13,32.02-.04,48.03-.04,16.41,0,32.82-.12,49.23,.05,8.44,.09,15.79-1.39,15.81-11.74Zm72.58-190.93c1.42-101.7-106.9-169.29-196.99-122.99-90.1,46.3-101.36,168.75-20.94,230.78,15.34,11.83,28.65,24.56,33.1,44.12,1.32,5.8,5.25,5.03,9.16,5.05,13.23,.04,26.46,.02,39.69,.02s26.46-.02,39.69,.01c4.09,.01,7.87,.26,9.03-5.32,4.12-19.81,17.71-32.18,33.13-43.94,35.31-26.93,53.51-63.12,54.13-107.72Zm-136.25-103.31c-8.3-.18-16.01,2.24-15.98,12.08,.03,9.03,7,11.3,15.09,11.68,45.73,2.16,74.94,29.95,79.2,75.54,.77,8.21,2.9,14.5,12.4,14.02,9.56-.48,11.25-7.42,11.19-13.8-2.65-55.42-44.98-98.26-101.9-99.52Z"/>
</svg>