<?xml version="1.0" encoding="UTF-8"?>
<svg id="Layer_1" data-name="Layer 1" xmlns="http://www.w3.org/2000/svg" viewBox="0 0 800 800">
  <defs>
    <style>
      .cls-1 {
        fill: #030303;
      }

      .cls-2 {
        fill: none;
      }
    </style>
  </defs>
  <rect class="cls-2" width="800" height="800"/>
  <path class="cls-1" d="M719.91,387.76c0,38.69,0,77.38,0,116.07,0,2.74,.09,5.48-.04,8.21-.34,7.66-2.61,14.87-11.57,14.55-8.45-.31-11.22-6.8-11.17-14.88,.16-25.79,.06-51.59,.06-77.38,0-53.93-.21-107.87,.21-161.8,.07-8.65-1.89-11.04-10.81-10.97-56.67,.45-113.34,.24-170.01,.22-3.51,0-7.18,.41-10.5-.43-5.5-1.4-8.63-5.56-8.18-11.25,.4-5.03,3.25-8.78,8.71-9.47,2.7-.34,5.46-.27,8.19-.27,59.8-.01,119.59-.04,179.39,.01,18.22,.02,25.55,7.08,25.65,25.46,.21,40.64,.06,81.29,.07,121.94ZM47.78,609.29c-.05-107.92-.65-215.84,.25-323.75,.32-38.28,30.49-66.82,67.01-68.09,7.55-.26,9.99,1.57,9.86,9.45-.47,28.93-.18,57.87-.19,86.8,0,7.44,2.22,13.54,10.77,13.81,8.86,.28,10.92-6.02,10.96-13.38,.07-14.08,.53-28.18-.14-42.22-.4-8.38,2.42-10.44,10.5-10.32,30.1,.46,60.22,.06,90.32,.26,8.16,.05,14.43-2.14,14.32-11.26-.1-8.63-6.35-10.38-13.92-10.32-26.2,.19-52.4,.07-78.59,.07q-22.18,0-22.46-21.62c-.03-2.34-.14-4.69-.27-7.03-.57-10.41-6.66-15.27-16.49-16.18-58.22-5.37-103.65,35.92-103.66,94.29-.02,125.91,.01,251.81,.02,377.72,0,58.3,38.31,96.45,96.91,96.45,127.47,.02,254.95,0,382.42,0,62.95,0,125.91,.04,188.86-.03,16.41-.02,24.65-6.96,25.4-22.5,.7-14.43,.34-28.93,.11-43.39-.11-6.99-3.31-12.59-10.98-12.56-7.94,.03-11.7,5.04-11.64,13.02,.1,11.34-.53,22.71,.21,34.01,.53,8.1-2.57,9.62-9.95,9.62-189.25-.18-378.51-.05-567.76-.21-40.73-.03-72.37-30.95-71.9-69.26,.46-37.75,32.13-67.58,72.2-67.99,22.59-.23,26.52-4.12,26.53-26.56,.02-68.43,.02-136.85-.01-205.28,0-3.9-.07-7.83-.54-11.7-.67-5.56-4.41-8.01-9.68-8.26-5.29-.26-9.39,2.03-10.7,7.21-.94,3.7-.79,7.73-.79,11.61-.04,63.34-.03,126.69-.03,190.03q0,19.1-18.31,21.39c-1.93,.24-3.81,.79-5.73,1.12-20.07,3.54-36.6,13.92-51.25,27.75-.96-1.52-1.66-2.12-1.66-2.71Zm370.69-140.97c55.5,0,111.01-.68,166.5,.35,20.66,.38,40.09-16.08,39.88-36.89-.22-21.77-15.55-37.16-39.22-37.45-32.05-.39-64.1-.16-96.15-.08-8.83,.02-19.22,.7-18.95-11.36,.25-10.74,9.88-11.04,18.58-10.99,31.27,.16,62.54-.01,93.8,.08,37.3,.12,64.55,25.43,64.34,59.6-.21,34.38-27.28,59.53-64.68,59.63-61.75,.15-123.51,.04-185.26,.04-48.07,0-96.17,.85-144.22-.32-29.24-.71-46.89,20.49-45.25,44.66,.13,1.94,.03,3.91-.09,5.86-.46,7.25-3.85,12.16-11.57,11.81-6.97-.32-9.89-5.18-10.59-11.76-4.31-40.31,24.6-72.98,65.2-73.12,55.89-.19,111.78-.05,167.67-.05ZM239.53,174.48c-.16,4.9-2.23,8.24-5.91,10.03-5.92,2.87-11.98,5.53-18.19,7.69-5.1,1.77-9.05-.75-11.77-5.09-2.87-4.59-2.35-9.39,1.57-12.73,6.59-5.62,14.76-9.15,23.1-10.24,6.32-.83,10.48,4.14,11.2,10.34Zm292.66-10.65c9.62-.32,26.74,11.04,26.84,17.5,.12,7.24-4.34,10.91-10.75,11.44-9.69,.8-26.98-10.65-26.64-17.43,.33-6.6,4.47-10.49,10.55-11.51Zm2.82-104.89c7.02,.54,11.11,3.86,11.66,9.31,1.07,10.57-8.57,12.57-15.08,16.88-5.17,3.42-10.64,5.32-15.89,.37-4.06-3.84-5.76-9.05-2.15-13.6,5.68-7.16,13.97-10.61,21.45-12.95Zm-296.75,29.44c-9.08-.03-24.25-11.96-23.64-18.96,.58-6.78,4.69-10.48,11.57-10.32,8.7,.2,22.98,11.69,22.97,18.18-.01,6.29-4.75,11.13-10.9,11.1Zm255.65,67.82c-8.11-.95-12.03,4.52-12.46,12.19-.91,16.33-6.61,31.08-14.55,45.1-12.87,22.71-25.85,45.37-38.68,68.1-2.66,4.72-6.25,9.5-5.3,15.18,2.1,12.66-3.43,16.6-15.19,14.68-2.67-.43-5.51-.38-8.19,0-6.93,.96-8.57-2.2-8.48-8.66,.32-22.67,.41-45.35-.04-68.01-.15-7.36,2.38-12.36,7.57-17.29,15.58-14.81,30.85-29.95,45.98-45.21,9.44-9.52,9.29-18.9,.01-28.53-5.42-5.63-11.02-11.08-16.6-16.56-7.42-7.29-15.67-8.93-23.95-1.98-4.16,3.48-6.96,3.53-11.03,.18-8.73-7.17-17.73-7.03-26.55,.17-3.23,2.64-6.02,4-10.06,.31-9.06-8.28-17.76-5.68-25.7,2.27-5.52,5.53-11.22,10.9-16.53,16.62-8.58,9.25-8.56,17.48,.29,26.68,8.12,8.44,15.97,17.37,25.14,24.55,23.2,18.14,37.05,39.57,29.04,70.34v22.28c0,23.57,0,23.18-23.32,22.99-7.8-.06-9.47-3.11-8.74-9.75,.89-8.1-1.96-15.12-5.97-22.07-13.44-23.29-26.73-46.66-39.71-70.21-15.38-27.91-18-57.33-5.89-86.71,16.55-40.14,47.67-62.17,90.9-64.69,41.48-2.42,79.71,22.28,97.21,60.76,3.49,7.68,7.13,15.35,16.91,10.94,9.67-4.36,6.8-12.55,3.26-20.06-17.97-38.16-47.38-63.01-88.69-71-51.48-9.96-94.77,6.51-125.38,49.11-30.55,42.52-31.4,88.35-6.71,134.33,12.34,22.99,25.44,45.59,38.65,68.1,4.8,8.18,6.64,19.23,2.19,24.38-11.23,13.02-7.19,27.28-8.02,41.25-.67,11.34,5.52,19.25,15.8,21.75,7.17,1.74,8.83,4.92,10.38,11.27,4.73,19.41,22.4,34.69,41.12,36.8,22.07,2.49,42.32-7.56,51.66-26.63,4.97-10.14,6.79-20.63,20.7-25.28,11.75-3.93,15.18-38.94,6.23-51.45-8.84-12.35-7.2-23.74-.43-35.71,12.08-21.37,24.08-42.78,36.31-64.06,9.26-16.13,14.63-33.39,16.42-51.88,.75-7.74-1.65-13.66-9.6-14.6Zm-156.84,6.75c-3.35-3.24-5.02-6.38-.35-9.26,3.6-2.22,5.05-10.56,11.84-4.89,8.33,6.96,16.58,5.81,24.21-.69,5.08-4.32,9.11-4.31,14.14-.05,7.68,6.51,16.04,7.81,24.21,.74,6.14-5.31,8.04,1.42,11.04,3.92,2.16,1.79,6.69,3.94,2.39,8.17-13.88,13.64-27.71,27.34-41.59,40.99-.8,.79-1.92,1.27-3.45,2.25-1.33-1.14-2.8-2.24-4.1-3.51-12.78-12.55-25.47-25.19-38.34-37.65Zm66.62,227.83c-5.87,9.35-14.8,14.23-25.38,13.48-10.96-.78-19.43-6.75-24.32-17.3-2.92-6.29-1.41-8.35,5.32-8.05,6.97,.32,13.96,.07,20.94,.07,5.82,0,11.64-.11,17.46,.04,3.02,.08,7.75-.41,8.68,1.16,2.07,3.48-.64,7.3-2.7,10.59Zm21.21-33.4c-30.02-.37-60.06-.47-90.08,.06-10.89,.19-7.94-6.84-8.18-12.49-.24-5.71-1.74-11.63,8.17-11.07,15.16,.86,30.4,.23,45.61,.23,14.82,0,29.67,.56,44.44-.2,9.34-.49,7.94,5.31,7.37,10.4-.58,5.1,4.18,13.21-7.33,13.07Zm352.1,236.02c-.05-28.87-15.99-45.06-44.82-45.07-149.72-.06-299.43,0-449.15-.11-6.45,0-12.18,1.34-17.81,4.47-22.49,12.5-45.05,24.86-67.68,37.09-6.57,3.55-11.83,8.05-11.79,15.96,.05,7.76,4.79,12.52,11.53,16.14,23.36,12.54,46.56,25.37,69.73,38.24,4.24,2.36,8.52,3.33,13.34,3.29,18.76-.16,37.53-.31,56.29,.05,8.32,.16,14.77-2.94,14.99-11.06,.23-8.41-6.46-11.41-14.64-11.27-13.68,.24-27.37-.25-41.04,.19-6.76,.22-9.8-1.12-9.54-8.86,.58-17.96,.42-35.96,.06-53.93-.12-6.06,1.59-8,7.81-7.99,106.72,.17,213.43,.17,320.15,0,6.2-.01,7.96,1.86,7.83,7.95-.37,17.19-.77,34.43,.12,51.58,.5,9.8-3.15,11.35-11.9,11.31-71.14-.33-142.29-.19-213.43-.17-3.9,0-7.88-.22-11.69,.42-5.75,.97-9.08,5.23-8.99,10.67,.09,5.39,3.53,9.6,9.14,10.72,3.39,.68,7.01,.32,10.52,.32,56.29,.01,112.58,0,168.87,0,57.07,0,114.14,.13,171.22-.07,23.55-.08,40.43-17.11,40.86-40.56,.18-9.77,.05-19.54,.03-29.32Zm-512.31,40c-16.95-9.28-32.78-17.95-50.21-27.5,17.5-9.58,33.38-18.27,50.21-27.49v54.99Zm404.47-8.87c0,17.99,.01,17.75-17.69,16.82-5.46-.29-7.62-1.92-7.56-7.48,.2-18.69,.24-37.39-.02-56.08-.08-5.81,2.39-7.02,7.65-7.28,17.64-.86,17.63-1.07,17.63,16.63,0,6.23,0,12.46,0,18.69s0,12.46,0,18.69Zm86.11-3.21c-.6,12.63-7.43,19.34-19.97,19.76-12.09,.41-24.22-.13-36.32,.21-5.8,.17-7.47-2.25-7.34-7.59,.24-9.37,.07-18.75,.06-28.12,0-8.98,.31-17.98-.11-26.94-.28-5.96,1.39-8.36,7.78-8.11,12.09,.47,24.22-.13,36.32,.26,11.99,.39,18.86,6.92,19.54,18.9,.59,10.51,.54,21.1,.03,31.62Z"/>
</svg>