<?xml version="1.0" encoding="UTF-8"?>
<svg id="Layer_1" data-name="Layer 1" xmlns="http://www.w3.org/2000/svg" viewBox="0 0 800 800">
  <defs>
    <style>
      .cls-1 {
        fill: #020202;
      }

      .cls-2 {
        fill: none;
      }
    </style>
  </defs>
  <rect class="cls-2" width="800" height="800"/>
  <path class="cls-1" d="M448.65,219.28c-4.78,14.69-9.92,30.79-15.27,46.82-18.46,55.39-37,110.76-55.51,166.14-.77,2.29-1.57,4.58-2.37,6.86-2.7,7.63-7.79,11.46-15.89,8.8-8.19-2.68-9.86-8.9-7.36-16.54,5.39-16.45,10.89-32.87,16.36-49.3,18.06-54.26,36.09-108.54,54.26-162.77,1.75-5.23,2.91-11.07,9.23-13.43,8.36-3.12,16.7,2.77,16.55,13.41Zm-139.56,57.27c6.13-5.14,8.08-11.54,2.88-18.11-5.27-6.67-12.17-6.12-18.25-1.1-23.76,19.61-47.41,39.36-70.92,59.28-7.76,6.57-7.74,14.13-.01,20.67,23.83,20.16,47.86,40.09,71.9,60,5.86,4.85,12.18,5.03,17.22-.97,5.27-6.27,4.4-12.67-1.76-18.16-1.81-1.62-3.79-3.04-5.66-4.61-18.31-15.33-36.62-30.66-55.69-46.64,20.55-17.16,40.44-33.72,60.28-50.36Zm177.04-15.09c-2.35,6.11-.2,10.98,4.66,15.01,17.75,14.76,35.28,29.78,53.28,44.22,5.8,4.66,6.83,7.16,.32,12.31-17.78,14.06-34.89,28.97-52.44,43.33-6.98,5.71-10.04,12.21-3.79,19.7,5.95,7.13,12.74,5.07,19.14-.3,22.66-18.98,45.45-37.8,68.04-56.86,10.11-8.53,10.1-15.31-.04-23.87-22.28-18.8-44.77-37.36-67.1-56.11-3.19-2.68-6.44-4.89-10.73-5.12-5.28,.36-9.41,2.61-11.36,7.68Zm279.35,25.29c0,96.58,0,193.16,0,289.74,0,28.55-13.88,42.83-42.3,42.83-215.58,.07-431.15,.07-646.73,0-27.75-.01-41.94-14.45-41.95-41.98-.02-142.84-.02-285.68,0-428.52,0-26.24,14.26-40.8,40.25-41.19,7.3-.11,14.63-.22,21.91,.29,7.13,.5,10.98,4.83,10.95,12.07-.02,7.25-3.96,11.38-11.06,12.01-5.24,.46-10.54,.25-15.82,.26-19.74,.05-21.85,2.09-21.86,21.28-.01,29.62,0,59.25,0,88.87,0,80.75,.28,161.51-.32,242.26-.08,11.22,3.31,12.87,13.41,12.84,109.61-.37,219.23-.23,328.84-.23,109.21,0,218.42-.12,327.63,.21,9.39,.03,13.01-1.17,12.96-12.04-.48-111.19-.29-222.38-.3-333.56,0-16.98-2.64-19.53-19.84-19.62-5.68-.03-11.38,.16-17.04-.19-7.64-.47-11.99-4.56-11.85-12.49,.13-7.32,4.28-11.51,11.33-11.69,10.53-.27,21.21-.71,31.58,.69,18.07,2.43,30.1,17.61,30.16,36.95,.15,47.07,.05,94.14,.05,141.22Zm-36.13,234.98c-109.58,.32-219.16,.21-328.75,.21s-220.79,.1-331.18-.19c-8.31-.02-11.28,1.72-10.77,10.47,.79,13.34,.2,26.76,.21,40.15,0,20.46,1.71,22.18,22.09,22.19,212.67,0,425.34,0,638.01,0,2.44,0,4.87-.04,7.31,0,10.05,.14,14.94-4.7,14.85-14.84-.13-15.41-.69-30.87,.21-46.23,.58-9.79-2.72-11.78-11.99-11.75Zm-61.38-60.98c-.23,7.78-4.41,12.35-12.02,12.42-7.54,.07-12.04-4.18-12.28-12.09-.1-3.24-.04-6.49-.04-9.74,0-94.15-.18-188.3,.25-282.45,.05-10.11-2.32-12.61-12.51-12.55-77.54,.48-155.09,.26-232.64,.26-77.14,0-154.28,.18-231.42-.24-9.22-.05-11.24,2.31-11.21,11.32,.36,94.96,.22,189.92,.21,284.88,0,3.65,.31,7.39-.36,10.92-1.24,6.52-5.84,9.56-12.29,9.4-5.93-.15-10.13-3.24-11.31-9.14-.71-3.53-.4-7.27-.4-10.92-.02-125.4-.02-250.79,0-376.19,0-27.72,14.12-42.08,41.76-42.09,150.63-.06,301.25-.05,451.88,0,28.42,0,42.4,14.19,42.41,42.71,.02,125.4,0,250.79,0,376.19,0,2.43,.03,4.87-.04,7.3Zm-24.12-339.85c-.87-13.33-.22-26.76-.22-40.14-.01-19.5-2.06-21.56-21.56-21.56-100.23-.01-200.47,0-300.7,0-48.7,0-97.39-.04-146.09,.02-16.19,.02-18.89,2.85-18.93,19.27-.04,14.2,.7,28.44-.25,42.57-.64,9.52,2.65,11.13,11.43,11.09,77.1-.36,154.21-.21,231.31-.21,77.91,0,155.83-.17,233.74,.23,9.11,.05,11.88-2.08,11.28-11.28Zm-106.67,644.59c-95.4,0-190.8,0-286.2,0-19.38,0-21.54-2.2-21.54-21.69,0-6.09-.38-12.21,.16-18.25,1.62-18.17,16.12-34.33,34.44-32.69,23.23,2.09,34.81-11.2,46.25-26.76,3.58-4.87,6.47-10.27,9.49-15.53,3.94-6.87,9.35-10.66,16.99-6.49,7.1,3.87,8.54,9.87,4.89,17.51-4.9,10.26-11.99,19.05-19.7,30.11h155.28c-6.25-9.74-12.19-18.58-17.68-27.68-4.45-7.37-5.43-15.01,3.4-19.78,8.99-4.86,14.21,.39,18.18,8.25,4.4,8.72,10.35,16.43,16.7,23.85,9,10.52,18.58,17.12,34.15,16.27,23.6-1.29,38.33,15.01,38.58,38.7q.36,34.17-33.38,34.17Zm9.14-33.93c-.89-11.49-4.38-14.75-18.7-14.76-85.16-.04-170.31-.02-255.47-.01-2.43,0-4.89-.09-7.28,.28-10.12,1.53-10.98,8.88-11.15,17.19-.21,10.52,7.55,6.37,12,6.39,44.6,.29,89.21,.17,133.82,.17,45.82,0,91.65-.19,137.47,.19,7.57,.06,9.9-1.93,9.32-9.44Zm-145.61-161.01c7.71,0,15.43-.02,23.14,0,8.24,.03,13.35-3.71,13.37-12.25,.01-7.82-4.7-12.04-12.31-12.16-16.24-.26-32.48-.31-48.72-.02-7.62,.13-12.37,4.8-12.35,12.3,.03,7.52,4.76,11.87,12.5,12.03,8.12,.17,16.24,.04,24.36,.04,0,.02,0,.04,0,.06ZM602.31,107.98c9.16,.06,16.84-2.23,16.58-12.9-.24-9.95-7.77-11.93-16.35-11.91-45.78,.09-91.56,.05-137.34,.03-8.94,0-16.72,1.81-16.47,12.93,.24,10.49,7.88,11.83,16.23,11.81,22.69-.04,45.38-.01,68.06-.01,23.09,0,46.19-.1,69.28,.05Zm-410.34-24.46c-6.99,.46-11.23,4.95-11.14,12.02,.1,7.66,4.71,12.17,12.34,12.03,7.71-.15,11.44-5.09,11.96-12.63-1.24-7.48-5.51-11.92-13.16-11.41Zm48.75,0c-6.98,.45-11.24,4.92-11.16,12,.09,7.66,4.69,12.18,12.32,12.05,7.71-.14,11.44-5.07,11.98-12.6-1.22-7.5-5.5-11.93-13.14-11.44Zm49.3-.02c-7.03,.15-11.45,4.39-11.71,11.45-.29,7.67,4.09,12.4,11.72,12.62,7.7,.22,11.67-4.53,12.63-12.5-1.11-6.88-4.88-11.73-12.64-11.57Z"/>
</svg>