<?xml version="1.0" encoding="UTF-8"?>
<svg id="Layer_1" data-name="Layer 1" xmlns="http://www.w3.org/2000/svg" viewBox="0 0 800 800">
  <defs>
    <style>
      .cls-1 {
        fill: #010201;
      }

      .cls-2 {
        fill: none;
      }
    </style>
  </defs>
  <rect class="cls-2" width="800" height="800"/>
  <path class="cls-1" d="M778.26,628.1c-9.11-7.82-17.95-16.02-27.57-23.15-7.14-5.29-9.51-11.18-9.49-20.12,.31-156.22,.26-312.43,.2-468.65-.02-46.3-28.64-74.77-74.85-74.77-190.59-.01-381.18,0-571.77,0-47.92,0-76.06,28.02-76.06,75.82-.02,156.22,.69,312.44-.44,468.65-.33,45.22,31.98,76.97,76.98,76.59,165.35-1.39,330.72-.55,496.09-.55,2.4,0,4.84,.27,7.2-.05,6.74-.9,9.16,1.64,8.86,8.6-.52,11.99-.05,24.03-.15,36.04-.1,11.51,4.63,19.96,15.13,25.04,10.24,4.96,19.37,2.48,27.81-4.13,5.35-4.2,10.72-8.41,15.67-13.06,4.53-4.25,7.35-5.14,9.93,1.85,2.48,6.71,5.87,13.1,9.1,19.52,9.9,19.63,28.96,26.81,48,18.2,18.18-8.22,25.32-28.69,16.76-48.63-3.61-8.41-7.6-16.65-12.04-26.31,9.79-1.87,18.36-3.7,27-5.12,10.77-1.77,18.6-7.25,21.97-17.72,3.53-11,.47-20.51-8.31-28.04ZM43.54,118.01c.91-35.44,15.91-51.11,51.58-51.12,189.81-.04,379.62,.29,569.43-.29,36.18-.11,54.87,20,51.49,58.37-.36,4.05-1.41,5.84-5.56,5.52-2.79-.21-5.6-.03-8.41-.03-107.72,0-215.44,0-323.16,0s-214.64-.13-321.96,.21c-9.83,.03-13.71-1.31-13.42-12.66Zm578.93,397.58c-11.54,5.23-15.5,14.98-15.35,27.37,.33,28.43-.14,56.88,.29,85.31,.11,7.32-1.74,9.42-9.27,9.41-169.76-.22-339.52-.12-509.28-.23-25.19-.02-43.01-17.12-44.81-42.05-.23-3.19-.17-6.4-.17-9.61,0-138.99,.1-277.97-.24-416.96-.02-9.78,2.01-12.62,12.27-12.6,216.2,.33,432.41,.26,648.61,.19,6.67,0,11.68-.94,11.65,9.26-.38,133.78-.25,267.56-.27,401.34,0,1.92-.26,3.84-.55,7.83-22.23-18.65-42.88-35.68-63.15-53.13-9.01-7.75-18.63-11.16-29.73-6.13Zm97.56,141.23c-12.97,2.71-16.13,8.57-10.92,20.31,5.5,12.4,11.27,24.67,17.04,36.94,3.06,6.51,3.78,13.11-3.38,16.64-7.38,3.64-12.99-.02-16.32-7.36-5.43-11.98-10.88-23.97-16.54-35.84-5.98-12.54-12.58-14.32-23.49-6.09-10.82,8.16-21.32,16.75-32.87,25.86v-168.57c44.32,37.37,86.26,72.72,129.98,109.58-15.96,3.12-29.76,5.67-43.49,8.54ZM154.04,87.09c19.57,0,39.13,.13,58.7-.06,8.51-.09,15.95,1.89,16.13,11.64,.19,9.8-7.29,12.14-15.72,12.14-39.53-.02-79.06,0-118.59-.02-8.2,0-16.01-1.63-16.05-11.74-.04-10.91,8.18-12.04,16.84-11.99,19.56,.11,39.13,.04,58.7,.04Zm412.37-.41c7.95,.25,12.33,3.85,12.55,11.7,.22,7.66-3.52,12.36-11.17,12.63-7.98,.28-13.07-4.23-13.16-12.21-.08-7.43,4.77-11.35,11.77-12.12Zm90.9,11.16c.53-6.95,4.64-11.06,12.23-11.02,7.59,.05,12.17,4.44,12.22,11.82,.05,8.01-4.92,12.68-12.94,12.34-7.37-.31-11.53-4.73-11.52-13.14Zm-38.71-11.19c7.56,.49,11.86,4.91,11.85,12.22,0,7.27-4.24,12.17-11.92,12.17-8.11,0-13.02-4.92-12.75-12.74,.25-7.16,5.12-11.39,12.82-11.65Zm-86.98,198.29c-84.89-.02-169.79,0-254.68,0q-18.17,0-22.67-17.42c-7.37-28.55-25.36-39.99-53.26-33.57-6.88,1.58-11.82,6.22-11.11,13.49,.63,6.39,4.93,10.83,12.18,10.92,4.8,.06,9.61,.25,14.41,.2,7.02-.07,10.73,3.1,12.59,10.1,18.51,69.81,37.41,139.51,55.89,209.33,6.93,26.16,17.84,35.28,44.71,35.3,61.27,.06,122.53,.03,183.8,0,3.6,0,7.27,.15,10.78-.47,6.4-1.12,9.51-5.42,9.62-11.81,.11-6.48-3.15-10.75-9.4-12.05-3.47-.72-7.18-.34-10.78-.34-61.67-.01-123.34-.19-185,.15-11.19,.06-17.3-4.26-19.2-15.09-.61-3.48-1.52-6.91-2.54-11.51,4.99,0,9.3,0,13.6,0,57.26,0,114.53,.04,171.79-.02,24.39-.02,42.99-14.06,49.33-37.59,8.51-31.58,16.77-63.22,24.92-94.9,7.88-30.66-3.2-44.71-34.98-44.72Zm-250.53,74.35c-6.84-4.68-7-19.25-9.94-29.49-1.74-6.08-3.16-12.25-5.01-19.48,15.49,0,30.26,.01,45.02,0,3.04,0,5.21,.43,5.62,4.35,1.42,13.52,3.05,27.03,4.93,40.5,.66,4.76-.61,6.8-5.51,6.08-.78-.11-1.6,0-2.4-.01-11.17-.26-24.98,3.35-32.71-1.94Zm44.21,78.67c-25.08,.85-25.08,1.05-31.39-23.03-.71-2.7-1.18-5.45-1.95-8.13q-6.03-20.85,14.78-20.85c20.32,0,20.2,.01,22.24,20.16,.8,7.93,1.81,15.89,3.54,23.66,1.52,6.81-1.04,7.98-7.21,8.19Zm40.98-.02c-5.68-.18-8.52-1.06-8.96-7.73-.8-11.93-2.59-23.84-4.59-35.65-1.24-7.36,1.71-9.38,8.31-8.65,1.98,.22,4,.03,6,.03q26.43,0,26.43,26.99c0,26,0,25.85-27.19,25Zm27.24-121.29c-.27,6.38-.07,12.78-.07,19.18q0,25.41-25.21,25.41c-20.88,0-20.77-.01-22.88-21.7-.73-7.54-1.9-15.05-3.34-22.49-.84-4.36-.51-6.83,4.76-6.77,13.58,.14,27.16,.17,40.74-.04,4.81-.08,6.19,1.93,6,6.41Zm66.69,74.66c-2.16,13.36-4.4,26.73-6.03,40.16-.63,5.17-2.7,7-7.57,6.36-.78-.1-1.59-.03-2.39-.01q-26.29,.5-26.29-25.77,0-26.1,26.12-26.1c3.99,0,7.98,.03,11.97,.04,3.66,0,4.77,1.73,4.19,5.32Zm7.28-55.22q-4.5,25.14-30.7,25.14-18.84,0-18.84-18.68v-4.79q0-27.47,28-27.47,26.16,0,21.54,25.79Zm56.72,56.95c-2.53,7.54-4.13,15.39-6.2,23.08-4.04,15.01-12.93,21.69-29.72,21.69-6.96,1.44-9.81-1.22-8.2-9.66,2.23-11.75,3.65-23.68,4.86-35.58,.54-5.3,3-6.74,7.75-6.66,8.8,.15,17.6,.18,26.4,0,5.53-.12,6.98,1.62,5.12,7.14Zm15.02-56.92q-7.4,25.12-34.19,25.11c-16.53,0-16.47,0-13.47-17.04,.97-5.5,1.58-11.07,2.3-16.62q2.24-17.27,19.5-17.27c2.4,0,4.79,0,7.19,0q26.27,0,18.67,25.82Zm-68.41,184.3c-16.25,.26-29.54,13.94-29.3,30.15,.24,16.02,14.43,29.64,30.37,29.14,15.58-.48,28.82-14.02,28.92-29.58,.1-15.92-14.08-29.97-29.98-29.71Zm.62,33.14c-2.76,.03-5.1-1.33-4.97-3.89,.13-2.53,2.57-3.86,5.33-3.61,2.35,.22,3.42,1.68,3.54,3.94-.3,2.28-1.49,3.53-3.9,3.56Zm-110.82-33.16c-16.17-.16-29.82,13.39-29.82,29.61,0,16.16,13.66,29.81,29.75,29.7,16.29-.11,29.17-13.54,28.96-30.22-.2-15.94-13.1-28.94-28.9-29.1Zm.8,33.13c-2.61,.22-4.79-.49-5.51-3.76,.26-1.79,1.44-3.32,3.62-3.64,2.59-.38,4.91,.22,5.21,3.36,.21,2.26-.93,3.84-3.32,4.04Z"/>
</svg>