<?xml version="1.0" encoding="UTF-8"?>
<svg id="Layer_1" data-name="Layer 1" xmlns="http://www.w3.org/2000/svg" viewBox="0 0 800 800">
  <defs>
    <style>
      .cls-1 {
        fill: #010201;
      }

      .cls-2 {
        fill: none;
      }
    </style>
  </defs>
  <rect class="cls-2" width="800" height="800"/>
  <path class="cls-1" d="M452.13,199.14c0-9.15-4.81-13.09-13.72-12.94-8.99,.15-18.01-.47-26.95,.18-7.63,.55-9.95-3.17-13.82-9.31-12.28-19.45-7.18-33.42,10.37-45.32,1.4-.95,2.45-2.39,3.72-3.52,8.86-7.86,9.1-15.46,.24-23.8-10.59-9.97-20.64-20.51-30.93-30.8-29.76-29.79-24.34-29.14-53.47,.34-6.7,6.79-11.48,6.87-20.71,4.41-20.23-5.4-25.65-17.3-22.41-36.04,.5-2.91-.05-5.99,.08-8.98,.48-10.88-5.21-15.76-15.56-15.8-22.26-.09-44.52-.1-66.77,.02-10.24,.05-16.02,4.63-15.52,15.73,.37,8.12-.54,16.32,.23,24.38,.83,8.68-3.28,11.32-10.41,15.73-19.11,11.83-32.06,6.17-43.6-10.22-1.7-2.41-4.21-4.24-6.32-6.37-6.77-6.85-13.27-6.43-19.95,.33-16.25,16.42-32.6,32.75-49.01,49.02-6.76,6.7-7.11,13.15-.22,19.93,7.01,6.91,13.77,14.09,20.91,20.85,3.53,3.34,4.57,6.35,2.82,11.22-10.1,28.02-9.97,28.06-39.69,28.08-2.57,0-5.15,.14-7.7-.02-10.2-.64-15.4,4.39-15.48,14.3-.19,23.11-.2,46.23,0,69.34,.08,9.2,4.9,14.23,14.46,14.17,9.84-.06,19.69-.02,29.53,0,3.83,.01,6.95-.05,9.28,4.63,13.65,27.38,13.83,27.29-8.18,49.23-1.82,1.81-3.6,3.66-5.45,5.44-7.23,6.98-7.37,13.71,0,20.94,16.18,15.89,32.12,32.03,48.15,48.08,3.07,3.07,6.2,5.96,10.97,5.7,4.35,.26,7.14-2.49,9.89-5.2,6.4-6.3,13.2-12.28,18.96-19.13,5.08-6.05,9.37-4.39,16.25-2.91,22.79,4.89,28.51,18.75,24.69,39.5-.46,2.48,0,5.13-.07,7.69-.24,8.93,3.84,13.63,13,13.62,23.97-.03,47.94-.02,71.91,0,8.45,0,12.67-4.33,12.81-12.6,.15-9.41,.57-18.87-.09-28.24-.54-7.7,3.23-9.95,9.41-13.73,18.78-11.5,32.66-7.57,44.44,9.78,1.65,2.43,4.21,4.25,6.31,6.38,6.76,6.83,13.34,6.44,20-.26,16.29-16.38,32.64-32.72,49.01-49.02,6.73-6.7,6.86-13.31,.13-20.03-6.05-6.05-11.74-12.54-18.27-18.03-6.56-5.51-5.68-10.16-3.82-18.35,5-21.99,18.21-26.78,37.77-23.56,3.33,.55,6.84,.13,10.26,.02,8.3-.27,12.54-4.52,12.54-12.91-.02-23.97,0-47.94-.01-71.91Zm-43.56,61.83c-23.93,0-24.07-.04-31.24,22.04-3.05,9.41-6.91,18.41-12.09,26.78-4.76,7.69-4.11,13.83,2.45,20.53,7.62,7.78,21.91,14.59,20.55,24.14-1.27,8.93-13.96,16.24-21.65,24.25-2.07,2.16-4.44,4.08-6.3,6.4-4.41,5.47-8.52,4.9-12.24-.49-15.15-21.96-31.43-25.64-56.42-11.63-28.16,15.79-30,13.07-29.96,45.2,.01,8.35-2.17,11.9-10.64,10.54-1.67-.27-3.42,0-5.13-.04-11.52-.24-25.94,3.6-33.72-1.92-7.6-5.39-1.87-20.7-2.55-31.63-.48-7.68-3.36-12.84-11.33-14.92-13.69-3.56-26.77-8.72-38.85-16.24-6.78-4.22-12.8-3.3-18.36,2.59-5.87,6.22-12.33,11.9-18.06,18.25-4.36,4.84-8.03,5.91-12.26,.19-1.01-1.36-2.4-2.43-3.61-3.65-8.41-8.53-21.76-15.98-23.91-25.87-2.39-11.01,13.69-17.28,21.11-26.13,5.21-6.22,5.78-12,1.76-18.61-7.38-12.14-12.58-25.21-16.16-38.89-2.09-7.98-6.98-11.14-14.92-10.92-7.7,.22-15.47-.57-23.1,.2-9.43,.96-12.34-3.04-10.97-11.65,.07-.42,0-.85,0-1.28,.11-11.98-3.99-26.62,1.45-35.23,6.16-9.75,21.93-2.53,33.44-3.78,7.75-.84,12.54-3.92,14.51-11.84,3.31-13.32,8.51-25.96,15.63-37.74,4.39-7.26,3.8-13.71-2.5-19.52-.63-.58-1.23-1.19-1.79-1.84-6.67-7.68-20.19-13.76-19.25-22.38,.88-8.08,12.93-14.82,19.8-22.41,4.28-4.73,8.05-9.92,12.31-15.24,4.78,4.16,7.41,6.25,9.81,8.58q23.49,22.78,53.02,10.1c3.13-1.34,6.37-2.43,9.6-3.53q22.57-7.67,22.57-32.24,0-20.69,21.17-20.69c30.53,0,30.95,0,30.5,30.24-.17,11.31,3.44,17.6,14.75,20.05,12.59,2.73,24.2,8.27,35.24,14.89,7.29,4.37,13.37,3.17,19.56-2.69,7.95-7.51,17.09-23.69,23.69-20.67,13.17,6.02,22.73,20,33.67,30.8,3.73,3.68,.35,6.08-2.02,8.46-6.32,6.39-12.55,12.88-19.08,19.05-5.89,5.57-6.77,11.57-2.56,18.36,7.25,11.72,12.52,24.3,15.79,37.64,2.21,9.01,7.7,12.83,16.62,12.49,.85-.03,1.71-.01,2.57,0q29.8,.43,29.8,31.12,0,20.77-20.72,20.77Zm374.43,271.12c.06-11.32-5.44-16.42-16.58-16.21-9.42,.18-18.84,0-28.26,.04-4.06,.01-6.93-.74-9.01-5.24-12.49-27.08-12.64-27.01,8.49-48.13,2.12-2.12,4.22-4.25,6.34-6.37,2.8-2.79,4.76-6.01,5.09-9.97-.72-5.08-3.92-8.47-7.3-11.83-14.27-14.18-28.46-28.44-42.7-42.66-13.69-13.66-16.97-14.85-28.49-.04-14.26,18.32-28.98,23.59-48.77,10.15-.34-.23-.81-.25-1.22-.37-4.69-1.34-6.75-4.08-6.54-9.32,.4-10.26,.04-20.55,.06-30.82,.02-9.06-4.47-13.21-13.49-13.17-23.12,.11-46.24,.17-69.36-.03-10.45-.09-14.7,5.29-14.76,15.04-.05,9.42-.33,18.85,.08,28.25,.27,6.12-2.74,7.96-7.71,11.08-19.41,12.19-34.35,8.8-46.67-10-1.6-2.45-4.21-4.24-6.34-6.35-5.97-5.9-11.93-5.96-17.89,0-16.96,16.94-33.88,33.92-50.89,50.82-6.42,6.38-6.41,12.49,.03,18.83,7.32,7.21,14.37,14.7,21.83,21.76,3.63,3.45,4.1,6.31,2.1,11.16-11.16,27.07-10.98,27.14-40.29,27.21-3,0-6.01-.13-8.99,.11-8.61,.67-13.14,5.08-13.1,14.07,.11,23.55,.05,47.1,.04,70.64,0,8.38,4.1,12.73,12.52,12.8,9.42,.08,18.87,.55,28.25-.05,7.64-.49,9.8,3.33,13.8,9.36,13.45,20.28,6.26,34.08-10.84,46.43-2.05,1.48-3.63,3.62-5.46,5.42-6.5,6.38-6.12,12.52,.25,18.85,16.71,16.58,33.32,33.28,49.95,49.94,6.82,6.83,13.39,6.33,19.98-.42,6.58-6.74,13.51-13.15,19.88-20.07,4.06-4.4,7.54-5.16,13.36-2.61,25.93,11.34,26.04,11.1,26.08,39.77,0,2.14,.04,4.28,0,6.42-.21,10.53,4.79,15.95,15.47,15.93,22.69-.03,45.38,.04,68.07-.03,9.24-.03,14.35-4.26,14.15-14.09-.21-9.84,.08-19.69-.05-29.54-.06-4.63,.86-7.88,5.76-10.1,27.52-12.47,27.46-12.59,49.13,9.01,1.82,1.81,3.67,3.59,5.45,5.45,6.6,6.89,13.15,6.97,19.92,.15,16.29-16.39,32.58-32.78,49.04-49,7.33-7.23,7.07-13.92-.17-20.92-6.77-6.54-13.32-13.32-20.05-19.91-3.19-3.12-5.21-5.75-3.34-11.04,10.18-28.74,9.99-28.81,40.66-28.84,2.57,0,5.14-.13,7.71,.01,10.46,.58,14.77-4.88,14.75-14.77-.02-22.26-.1-44.53,.03-66.79Zm-45.78,59.23c-22.26,0-21.96,.11-29.38,20.99-3.42,9.61-7.8,18.97-12.6,27.98-4.3,8.07-3.14,14.08,3.07,20.68,7.37,7.84,21.64,14.01,20.17,24.03-1.26,8.57-13.49,15.64-21.11,23.13-4.2,4.13-7.6,9.26-13.43,11.79-1.34-1.19-2.66-2.27-3.88-3.46-3.37-3.28-6.71-6.61-10.06-9.92-16.88-16.7-15.37-19.63-38.79-6.77-8.51,4.68-18.08,7.81-27.52,10.31-8.7,2.3-11.5,7.37-11.88,15.66-.5,10.96,4.71,28.81-2.31,31.45-13.54,5.1-30.24,1.94-45.63,1.97-5.14,.01-5.06-4.31-4.41-7.5,5.84-28.69-6.2-42.25-34.27-50.3-28.24-8.1-27.83-11.57-47.95,9.78-8.13,8.63-13.17,9.14-20.65-.1-6.43-7.94-14.23-14.81-21.7-21.86-3.92-3.7-4.4-6.4-.08-10.3,6.66-6.02,12.66-12.77,19.14-18.99,5.82-5.58,6.58-11.59,2.58-18.46-7.34-12.61-12.99-25.91-16.47-40.13-1.65-6.72-6.26-9.9-13.12-9.91-1.71,0-3.43-.03-5.14-.06q-30.01-.41-30.01-31.08c0-21.42,0-21.26,21.65-21.47,22.8-.22,22.72,4.01,30.18-21.33,2.91-9.88,7.45-19.1,12.69-27.96,4.31-7.3,3.69-13.81-2.92-19.45-.65-.55-1.21-1.21-1.76-1.87-6.5-7.69-21.93-16.27-18.92-21.82,7.24-13.35,20.73-23.37,31.96-34.48,3.21-3.18,5.32,.62,7.28,2.51,6.15,5.95,12.42,11.81,18.14,18.17,6.22,6.91,12.87,7.6,20.56,3,11.81-7.06,24.43-12.2,37.77-15.55,7.82-1.96,11.54-6.8,10.93-14.9-.1-1.28-.16-2.59,.01-3.85,1.35-9.79-4.91-25.64,3.28-28.27,13.97-4.49,30.4-1.56,45.78-1.23,4.02,.09,3.33,4.34,3.36,7.18,.11,8.56,.2,17.13,0,25.69-.19,8.53,3.44,13.51,11.96,15.53,12.94,3.07,25.18,8.1,36.53,15.1,8.18,5.04,14.79,3.8,21.68-3.08,7.4-7.38,13.73-20.81,23.07-19.92,8.01,.76,15.05,12.74,22.32,19.95q14.27,14.15,.04,28.41c-3.63,3.64-7.26,7.27-10.89,10.9-4.89,4.9-5.59,10.56-2.26,16.41,7.43,13.07,13.31,26.72,17,41.34,1.51,6,5.58,9.44,12.04,9.52,2.57,.03,5.14,.04,7.71,.05q28.84,.09,28.85,29.55,0,22.95-22.62,22.95Zm-416.96,86.44c-2.66-1.3-5.63-1.97-8.47-2.91-59.41-19.71-107.61-54.82-145-105.02-4.95-6.65-5.88-11.1-.21-18.57,14.33-18.87,12.36-43.98-3.15-61.33-15.48-17.32-40.55-21.65-60.84-10.51-19.72,10.83-29.9,34.39-24.08,55.69,6.32,23.12,26.38,37.87,51.6,37.08,8.14-3.38,12.33,2.19,17.21,8.96,39.73,55.01,91.75,93.5,156.33,114.73,3.62,1.19,7.38,2.24,11.15,2.59,4.96,.46,9.62-.77,10.95-6.51,1.36-5.84,.6-11.24-5.5-14.2Zm-166.76-154.02c-.46,14.92-12.46,25.79-27.94,25.3-14.46-.46-26.07-12.25-25.85-26.27,.23-15.05,13.32-26.93,28.78-26.14,14.18,.73,25.45,12.95,25.01,27.12Zm570.61-249.43c-1.21-27.25-26.54-49.85-53.85-46.26-8.24,1.09-11.23-1.74-15.11-7.23-36.54-51.62-84.22-89.02-143.36-111.67-8.36-3.2-16.56-7.02-25.59-7.84-5.7-.52-10.12,1.87-11.44,7.91-1.23,5.6,.39,10.27,5.8,12.86,2.67,1.27,5.66,1.87,8.48,2.82,60.16,20.19,109.12,55.61,146.43,107.11,4.05,5.59,5.36,9.55,.12,15.44-7.3,8.2-10.52,18.45-10.25,27.62-.18,30.1,22.87,52.64,50.78,51.62,28.49-1.04,49.27-23.72,48-52.38Zm-49.32,29.53c-14.39,.12-27.51-12.55-27.49-26.56,.02-14.13,12.85-26.57,27.39-26.53,14.82,.03,26.7,12.2,26.4,27.02-.29,14.16-12.18,25.95-26.3,26.07ZM235.97,137.42c-53.87-.04-98.07,44.03-98.05,97.76,.03,52.98,43.84,96.99,97.12,97.57,52.97,.57,98.34-44.67,98.22-97.93-.12-52.87-44.56-97.36-97.29-97.4Zm-1.42,172.19c-40.94-.4-73.67-33.75-73.49-74.9,.18-41.81,33.42-74.49,75.4-74.14,40.99,.34,73.85,33.67,73.66,74.72-.2,41.54-33.94,74.72-75.56,74.32Zm332.3,157.69c-52.84-.91-98.41,43.87-99.05,97.33-.63,52.69,43.42,97.23,96.69,97.78,54.36,.56,98.12-42.44,98.43-96.71,.3-53.26-42.87-97.48-96.07-98.39Zm-1.35,172.19c-40.89,.14-74.41-32.94-74.8-73.82-.39-40.73,34.03-75.4,74.94-75.48,40.72-.08,73.99,33.18,74.31,74.29,.33,42.06-32.22,74.86-74.46,75.01Z"/>
</svg>