<?xml version="1.0" encoding="UTF-8"?>
<svg id="Layer_1" data-name="Layer 1" xmlns="http://www.w3.org/2000/svg" viewBox="0 0 800 800">
  <defs>
    <style>
      .cls-1 {
        fill: none;
      }

      .cls-2 {
        fill: #010101;
      }
    </style>
  </defs>
  <rect class="cls-1" width="800" height="800"/>
  <path class="cls-2" d="M757.99,460.84c-2.06-13.43-5.86-26.59-13.75-38.13-5.38-7.87-11.81-11.64-22.05-10.01-20.54,3.28-41.3,5.12-61.9,8.01-62.4,8.78-125.22,13.07-188.1,14.71-128.69,3.35-257.03-1.46-384.44-21.83-23.15-3.7-30.91,1.23-39.14,23.61-1.69,4.6-3.28,9.31-4.28,14.1-12.63,60.57-11.66,121.36-1.82,182.11,1.97,12.2,5.77,24.31,13.13,34.8,5.67,8.08,12.33,12.19,23.07,10.35,19.75-3.38,39.73-5.31,59.6-8.01,58.66-7.98,117.61-12.17,176.77-13.8,6.84-.19,8.98,.93,5.79,8.04-6.5,14.5-12.08,29.4-18.45,43.96-4.64,10.6-5.33,20.72,2.94,29.62,8.51,9.16,19.05,10.29,30.07,5.03,4.76-2.27,7.45-2.21,9.45,3.25,4.2,11.49,12.42,18.1,24.94,17.63,12.75-.48,19.18-8.92,23.53-19.89,5.71-14.38,11.85-28.58,18.77-45.16,7.17,16.9,13.66,31.38,19.47,46.13,4.27,10.83,11.06,18.24,23.07,18.91,12.04,.67,20.15-5.6,24.48-16.55,2.08-5.26,4.32-7.09,10.05-4.27,10.96,5.4,21.52,4.14,29.97-5.09,8.21-8.96,7.31-19.17,2.79-29.72-7.13-16.62-13.94-33.38-21.2-50.84,2.77-.22,4.55-.57,6.32-.48,68.86,3.68,137.61,8.71,205.69,20.21,21.37,3.61,29.54-.37,37.78-20.6,1.99-4.88,3.65-9.98,4.76-15.13,12.98-60.13,11.97-120.53,2.7-180.97ZM71.39,643.09c-15.57-65.05-15.59-129.92-.97-196.69,16.32,26.38,18.78,152.98,.97,196.69Zm292.05-183.1c22.3,.64,44.64,.56,66.96,.2,6.45-.1,9.19,1.41,10.5,8.21,2.98,15.54,6.25,30.96,6.46,47.08-31.03-7.31-36.42-12.97-83.51,6.83-2.5-17.96-3.06-36.11-7.28-53.74-1.38-5.79-.72-8.79,6.87-8.57Zm-190.5,181.57c-22.59,1.96-45.03,5.58-67.55,8.36-2.55,.32-5.18,.04-7.35,.04,14.41-69.55,14.2-138.63,.12-209.17,14.24,1.61,28.98,3.1,43.67,4.98,40.22,5.15,80.63,8.23,121.07,10.77,19.68,1.23,39.4,2.01,59.11,2.25,5.97,.07,7.8,2.49,8.99,7.46,6.28,26.36,8.62,53.12,7.83,80.13-.28,9.67-7.02,17.39-9.3,26.6-4.22,17.1-3.61,33.89,2.88,50.2,2.82,7.07,1.43,9.11-6.27,9.11-51.24,.04-102.22,4.82-153.19,9.24Zm219.22,42.07c-7.59,17.7-14.99,35.49-22.94,54.4-7.59-8.18-6.02-21.1-16.84-24.81-10-3.43-17.2,6.14-28.07,7.44,8.75-21.26,17.12-41.67,25.54-62.06,1.57-3.81,3.75-2.6,6.07-.63,9.91,8.45,20.79,15.06,33.7,17.95,4.86,1.09,4.1,4.08,2.54,7.72Zm19.7-28.6c-33.32-.17-60.02-27.42-59.92-61.15,.1-34.05,26.29-59.87,60.68-59.81,33.71,.05,60.41,26.89,60.23,60.53-.17,33.21-27.82,60.61-60.99,60.43Zm59.69,58.44c-10.41,4.1-8.84,16.95-16.54,24.17-7.74-18.43-15.22-36.51-22.97-54.47-1.76-4.07-.95-6.31,3.18-7.27,14-3.26,25.52-10.93,37.45-21.37,4.77,11.51,9.26,22.45,13.82,33.35,4.44,10.6,8.95,21.17,13.73,32.46-10.83-.88-18.29-10.96-28.66-6.88Zm258.66-71.22c-2.11,8.81-5.33,12.17-15.18,10.62-42.25-6.64-84.73-11.57-127.38-14.78-29.1-2.19-58.24-3.66-87.37-5.46-3.37-.21-6.74-.44-11.29-.74,14.35-35.42,10.36-66.67-13.78-94.68-2.22-2.58-2.31-5.42-2.39-8.48-.64-23.15-3.64-46.02-8.46-69.19,19.59-1.38,38.89-.92,58.14-1.92,65.48-3.4,130.57-10.39,195.44-19.53,6.86-.97,9.11,.57,11.02,6.85,5.2,17.17,7.77,34.78,9.01,52.52,3.39,48.54,3.7,96.96-7.76,144.78Zm18.45-484.16c-3.15-1.27-6.33-2.46-9.52-3.6-108.3-38.7-216.63-77.31-324.86-116.2-9.84-3.54-18.74-3.44-28.55,.12-54.6,19.81-109.34,39.19-164.04,58.73-54.69,19.53-109.39,39.04-164.06,58.64-6.74,2.42-13.46,4.84-17.78,11.38-9.35,14.16-3.52,30.76,13.93,37.1,46.08,16.74,92.25,33.21,138.46,49.61,25.26,8.96,25.32,8.79,25.32,35.18v34.17c0,28.42,4.39,34.94,31.38,45.13,32.25,12.18,66.25,15.32,100.15,17.47,53.81,3.42,107.61,2.33,160.96-6.73,20.11-3.42,40.1-7.64,57.84-18.59,9.77-6.03,14.85-14.23,14.5-26.33-.6-20.87-.23-41.76-.08-62.64,.02-2.8-1.8-6.84,1.59-8.28,10.71-4.54,21.67-11.09,32.89-10.27,3.94,.29,.93,14.25,1.69,21.93,.15,1.51-.05,3.04,.08,4.55,1.05,12.35,10.35,21.95,22.82,22.63,9.46,.51,18.99,.5,28.44-.05,10.87-.63,20.55-8.56,21.15-18.82,1-17,2.22-34.22-.83-51.08-1.1-6.06,.16-7.72,5.31-9.48,17.85-6.08,35.65-12.31,53.28-19.01,10.16-3.86,15.72-11.75,15.65-22.81-.07-10.99-5.48-18.64-15.71-22.76ZM244.05,339.23c46.61-32.22,262.74-32.35,311.48-.67-41.67,31.48-255.17,33.85-311.48,.67Zm313.83-121.78c-.81,28.05-.44,56.14-.16,84.21,.07,7.27-.5,9.99-9.11,6.96-37.52-13.2-76.88-15.93-116.14-17.58-55.35-2.33-110.51-.2-164.77,12.64-3.66,.87-7.31,1.79-10.91,2.85q-14.35,4.26-14.35-10.27c0-12.9,0-25.8,0-38.7,0-14.04,.69-28.12-.25-42.1-.61-9.07,3.5-12.96,10.96-15.73,20.67-7.69,42.25-11.52,63.96-14.08,46.78-5.53,93.74-6.59,140.72-2.44,29.34,2.59,58.53,5.95,86.68,15.65,9.58,3.3,13.67,7.84,13.35,18.58Zm78.85-6.8c-8.7,4.87-14.12,14.45-25.21,16.37-7.32,1.27-14.36,4.59-21.29,7.54-7.02,2.99-8.56,.31-8.09-6.27,.4-5.67-.39-11.43,.18-17.07,1.41-14.12-5.67-23.04-17.19-29.35-17.14-9.38-35.89-13.7-54.94-16.79-68.95-11.2-138.1-10.95-207.21-2.19-21.65,2.74-43.23,6.99-63.27,16.57-15,7.17-24.47,17.41-22.27,35.51,.81,6.71,.13,13.6,.13,22.06-52.04-18.56-103.01-36.73-157.12-56.02,17.72-6.44,32.61-11.95,47.56-17.29,94.83-33.82,189.69-67.53,284.45-101.53,5.79-2.08,10.48-1.97,16.21,.1,75.21,27.07,150.47,53.99,225.87,80.52,7.24,2.55,9.2,6.1,8.8,13.12-.53,9.08,.88,18.36-.41,27.28-1.33,9.17,6.33,20.42-6.18,27.42Zm30.67,52.8c0,15.12-4.41,18.32-19.64,15.13-4.25-.89-4.38-3.31-4.37-6.46,.04-10.21-.04-20.43,.12-30.64,.12-7.37,4.7-11.23,11.44-11.5,6.88-.28,11.51,3.67,12.09,10.8,.46,5.63,.09,11.33,.09,17,.09,0,.17,0,.26,0,0,1.89,0,3.78,0,5.67Zm69.27-81.28c-22.53,8.02-45.07,16.04-69.05,24.58,0-16.05,.04-30.72-.02-45.39-.02-4.36,.83-6.16,5.92-4.28,21.02,7.76,42.19,15.1,63.3,22.59-.05,.83-.1,1.67-.15,2.5Z"/>
</svg>