<?xml version="1.0" encoding="UTF-8"?>
<svg id="Layer_1" data-name="Layer 1" xmlns="http://www.w3.org/2000/svg" viewBox="0 0 800 800">
  <defs>
    <style>
      .cls-1 {
        fill: none;
      }

      .cls-2 {
        fill: #010101;
      }
    </style>
  </defs>
  <rect class="cls-1" width="800" height="800"/>
  <path class="cls-2" d="M434.28,576.02c18.26,0,36.52,.08,54.78-.03,16.53-.09,27.46-9.84,27.18-24.01-.26-13.49-10.97-22.83-27.18-22.95-29.46-.21-58.93-.23-88.39,.02-11.85,.1-22.98-1.95-33.59-7.33-7.37-3.74-15.31-6.4-22.45-10.5-43.67-25.14-90.4-35.81-140.57-30.05-10.58,1.22-12.09-3.43-11.98-12.51,.1-8.73,.89-13.47,11.75-12.67,29.63,2.19,60.13-4.83,88.86,5.9,23.19,8.66,45.81,19.14,67.9,30.35,19.39,9.84,39.06,14.53,60.86,13.45,23.18-1.15,46.47-.54,69.7-.13,27.63,.49,43.98,14.2,48.59,41.64,1.53,9.09,3.74,9.31,11.46,5.99,41.74-17.98,83.55-35.84,125.7-52.84,42.07-16.97,87.19,3.66,103.62,45.98,3.01,7.75,1.66,11.12-6,15.15-99.94,52.58-199.93,105.1-299.28,158.79-37.93,20.5-75.71,23.13-116.01,9.25-40.63-13.99-81.74-26.54-122.59-39.9-11.82-3.87-23.9-2.37-35.82-2.09-13.04,.3-7.45-8.89-8.45-14.63-1.16-6.65,.38-9.58,8.78-10.35,32.72-3,61.55,10.39,91.39,19.67,29.58,9.2,59.06,18.75,88.61,28.06,24.96,7.87,49.39,5.64,72.28-6.42,97.32-51.28,194.35-103.1,291.68-154.37,8.12-4.28,6.3-7.45,1.83-12.6-15.3-17.63-40.89-23.04-64.86-12.99-43.45,18.23-86.79,36.73-130.17,55.13-13.31,5.65-26.58,11.41-39.93,16.98-7.3,3.04-14.86,4.84-22.91,4.82-37.35-.12-74.71-.55-112.04,.26-11.06,.24-10.56-5.09-10.54-12.66,.02-7.52-.62-13.32,10.53-12.7,19.03,1.05,38.16,.29,57.25,.29Zm178.83-249.22c-7.24-4.67-13.08-4.74-20.49-.31-14.79,8.85-30.15,16.77-47.13,26.09,4.33-18.73,7.97-35.56,12.18-52.25,2.02-7.99,1.31-14.23-5.72-19.74-6.82-5.35-12.71-11.88-19.12-17.76-1.68-1.54-3.7-4.74-6.08-2.64-4.93,4.37-10.62,8.81-13.31,14.49-2.39,5.05,4.56,7.93,8,10.58,9.65,7.45,12.21,15.04,8.23,27.53-6.22,19.56-8.82,40.25-14.25,60.11-1.95,7.11,1.15,9.47,5.32,13.13,4.38,3.85,7.79,4.2,13.06,1.15,19.68-11.41,39.87-21.92,59.53-33.37,6.46-3.76,11.27-4.03,17.78,.11,18.49,11.77,37.44,22.83,56.33,33.96,4.16,2.45,7.62,7.13,14.04,2.3,6.17-4.64,8.19-9.2,6.63-16.62-4.49-21.39-8.01-43-12.93-64.29-1.65-7.14-.67-11.21,5.01-15.89,15.99-13.18,31.28-27.2,47.04-40.66,6.04-5.15,10.56-10.53,8.12-19.12-2.61-9.19-10.87-7.71-17.3-8.61-20.5-2.87-41.05-5.41-61.65-7.39-6.34-.61-9.32-3.07-11.64-8.79-8.53-21.02-17.55-41.84-26.48-62.7-2.14-4.99-4.39-9.1-11.48-9.17-7.26-.07-10.32,3.35-12.95,9.04-9.03,19.47-18.62,38.68-27.23,58.33-3.14,7.16-6.32,12.12-15.05,11.46-3.5-.26-8.21-.04-7.32,5.72,.97,6.32-1.4,14.47,4.31,18.44,7.78,5.4,29.77-3.41,34.08-12.52,7.43-15.71,14.73-31.49,23.02-49.25,7.96,18.77,16.46,35,21.46,52.25,2.46,8.49,5.17,9.32,12.61,9.89,18.11,1.37,36.12,4.16,56.65,6.69-14.95,13.06-27,24.46-40.01,34.62-7.87,6.14-8.89,12.92-7.01,21.71,3.44,16.08,6.42,32.25,10.16,51.25-17.38-10.32-32.17-18.59-46.38-27.75ZM234.88,216.44c5.34,18.33,16.18,24.93,35.21,26.36,14.67,1.1,12.12-7.04,14.01-14.67,2.8-11.31-6.29-10.17-11.82-10.32-8.47-.23-12.05-3.85-15.03-11.44-8.12-20.73-17.42-41-25.98-61.57-2.36-5.66-5.34-8.49-12.03-7.86-5.84,.55-9.21,1.61-11.87,7.94-8.79,20.91-19.01,41.22-28.23,61.96-2.71,6.09-6.22,8.41-12.99,8.87-23.15,1.59-46.21,4.47-69.36,5.89-6.94,.43-8.93,3.71-10.64,9.07-1.8,5.65-1.11,9.43,3.99,13.85,17.22,14.93,33.47,30.96,50.51,46.11,5.18,4.6,5.86,9.31,4.41,15.38-5.27,22.04-10.15,44.18-15.76,66.14-1.39,5.43-1.99,9.2,3.36,12.72,4.99,3.28,8.66,6.01,15.3,2.06,19.55-11.64,39.82-22.05,59.53-33.42,6.02-3.47,10.5-3.76,16.63,.14,19.2,12.2,38.95,23.53,58.35,35.41,4.54,2.78,8.11,4.53,13.26,.55,5.13-3.96,7.86-7.63,6.24-14.48-3.41-14.44-7.22-28.91-8.89-43.6-1.74-15.27-14.06-33.04,7.93-44.6,4.26-2.24,1.25-6.01-1.24-8.11-4.39-3.7-6.21-12.51-13.19-10.7-14.83,3.83-25.52,24.29-22.45,39.73,2.95,14.88,5.51,29.84,8.61,46.75-16.94-10.21-32.2-19.26-47.28-28.58-6.26-3.87-11.66-4.15-18.35-.15-15.02,8.99-30.6,17.07-48.3,26.81,4.12-17.33,7.09-32.24,11.29-46.79,3.45-11.95,2.24-20.9-8.49-29.19-12.09-9.34-22.57-20.77-35.98-33.38,19.26-1.42,34.87-2.92,50.51-3.61,10.68-.48,17.38-4.53,21.53-14.99,6.04-15.22,13.68-29.81,21.46-46.4,5.81,13.8,12.09,25.58,15.75,38.12Zm-69.21,237.81c-.04-20.43-8.02-28.58-28.66-28.71-35.67-.22-71.35,.38-107.01-.33-10.62-.21-9.61,5.31-9.63,12.18-.02,6.93-.96,12.4,9.7,12.16,33.58-.76,67.2-.01,100.79-.46,8.49-.11,11.34,2,11.3,10.92-.33,78.36-.29,156.73-.05,235.09,.02,7.9-1.86,10.71-10.37,10.57-33.59-.52-67.21,.32-100.79-.52-10.93-.27-10.79,4.86-10.61,12.58,.17,7.29-.93,13.1,10.37,12.83,34.82-.84,69.68-.29,104.52-.31,22.03-.01,30.41-8.49,30.44-30.95,.05-40.63,.01-81.27,.01-121.9,0-41.05,.06-82.1-.03-123.14Zm-71.78,196.79c-9.2-.53-17.9,7.57-18.05,16.81-.15,8.71,7.47,16.87,16.21,17.36,9.36,.52,17.83-7.34,18.04-16.75,.2-8.83-7.3-16.9-16.2-17.41ZM561.72,182.49c-21.18,17.95-41.85,36.49-63.19,54.24-6.33,5.26-7.93,10.57-6.32,18.23,5.59,26.63,10.81,53.33,16.15,80.01,1.18,5.87,1.1,10.47-4.9,14.99-6.4,4.82-10.38,2.09-15.37-.92-23.38-14.11-47.01-27.81-70.06-42.44-7.06-4.48-12-4.22-19.03-.15-23.25,13.47-47.02,26.03-70.48,39.15-5.57,3.11-9.8,5.85-16.52,.66-6.74-5.21-5.11-10.52-3.74-16.43,6.04-26.08,12.01-52.18,18.53-78.15,1.92-7.65,.84-12.72-5.41-18.26-20.46-18.14-40.21-37.07-60.26-55.67-4.36-4.05-7.54-7.38-4.85-14.76,2.63-7.23,6.84-7.91,12.94-8.38,27.67-2.14,55.3-4.99,83-6.67,7.53-.46,10.74-3.48,13.58-9.73,11.58-25.54,23.67-50.85,35.39-76.33,2.39-5.2,4.57-9.92,11.42-8.05,7.66-1.65,10.1,3.11,12.53,8.97,10.74,25.9,22.01,51.58,32.66,77.52,2.49,6.07,5.6,8.89,12.47,9.61,28.39,3,56.67,6.97,85.05,10.06,5.97,.65,8.78,3.2,10.51,8.45,1.91,5.78,.72,9.97-4.11,14.06Zm-35.78-1.59c-25.25-3.04-47.68-5.96-70.16-8.32-7.79-.82-12.48-3.6-15.54-11.37-8.4-21.32-17.77-42.25-27.79-65.75-6.88,14.71-14.66,26.78-18.26,39.98-7.83,28.75-25.63,39.35-54.62,38.18-13.29-.53-27.58-.22-42.66,4.28,18.02,16.64,34.13,32.15,51,46.79,6.65,5.77,7.95,11.42,5.9,19.49-5.51,21.61-10.44,43.37-15.61,65.06,5.76,1.31,9.34-2.01,13.24-4.14,15.24-8.34,30.75-16.26,45.47-25.45,8.89-5.55,15.74-5.54,24.59,.25,18.35,12.01,37.51,22.8,58.19,35.21-4.75-24.85-8.35-47.26-13.58-69.29-2.09-8.82,.45-13.51,6.72-18.77,17.3-14.52,34.13-29.6,53.1-46.16Z"/>
</svg>