<?xml version="1.0" encoding="UTF-8"?>
<svg id="Layer_1" data-name="Layer 1" xmlns="http://www.w3.org/2000/svg" viewBox="0 0 800 800">
  <defs>
    <style>
      .cls-1 {
        fill: none;
      }
    </style>
  </defs>
  <rect class="cls-1" width="800" height="800"/>
  <path d="M412.02,747.61c8.22,.29,14.46,7.24,13.75,15.61-.75,8.88-6.3,13.22-14.67,13.48-8.02,.25-14.44-7.42-13.91-15.6,.49-7.58,7.28-13.76,14.83-13.49Zm318.15-58.28c-.02,53.02-34.78,87.72-87.99,87.8-54.33,.08-108.65,.02-162.98,0-3.14,0-6.36,.2-9.42-.35-8.35-1.49-13.68-6.24-13.47-15.16,.2-8.38,5.52-12.72,13.35-13.96,3.85-.61,7.85-.45,11.78-.45,53.54-.03,107.08,.08,160.61-.06,36.69-.1,57.98-19.53,58.49-56.06,.87-63.37,.26-126.76,.22-190.14,0-1.9-.55-3.8-.94-6.36H123.01c0,3.68,0,7.42,0,11.16,0,61.8-.06,123.61,.03,185.41,.05,34.63,20.89,55.75,55.79,55.93,54.32,.29,108.65,.08,162.98,.1,3.93,0,7.94-.21,11.77,.46,7.75,1.35,13.03,5.59,13.18,14.1,.16,9.07-5.22,13.59-13.54,15.02-3.07,.53-6.28,.33-9.42,.33-54.33,.02-108.65,.08-162.98,0-53.37-.09-88.31-35.37-88.33-89.1-.03-99.99-.62-199.99,.34-299.97,.31-32.24-3.08-63.24-13.85-93.62-4.57-12.9-7.9-26.28-11.21-39.6-10.68-43.06,12.87-85.91,55.31-98.47,89.59-26.5,179.4-52.26,269.14-78.26,61.08-17.69,122.21-35.21,183.29-52.91,45.88-13.29,89.34,8.72,104.29,54.18,9.43,28.66,17.16,57.89,25.36,86.95,3.06,10.85-1.48,17.27-14.51,21.1-32.02,9.41-64.1,18.63-96.16,27.91-122.96,35.6-245.93,71.2-368.89,106.82-1.47,.43-2.84,1.24-4.25,1.87-.02,.67-.04,1.34-.06,2.01h12.76c157.07,0,314.14,0,471.22,0,21.38,0,24.91,3.45,24.91,24.32,0,112.98,.03,225.96,0,338.94ZM508.7,74.95c.89,2.2,.99,3.09,1.49,3.57,33.11,31.91,66.18,63.86,99.54,95.5,2.3,2.18,7.18,3.52,10.21,2.74,17.05-4.37,33.9-9.51,53.76-15.24-9.07-28.79-16.26-56.91-26.93-83.63-7.67-19.22-30.97-30.93-50.81-26.57-29.34,6.46-58.08,15.59-87.26,23.63Zm-111.15,32.67c1.34,2.4,1.69,3.61,2.48,4.37,32.89,31.61,65.78,63.22,98.85,94.65,1.97,1.87,5.78,3.69,8.05,3.07,24.06-6.65,47.98-13.8,74.44-21.54-33.18-31.83-64.48-61.07-94.73-91.36-8.91-8.92-16.29-11.65-28.49-7.24-19.64,7.09-40.05,12.05-60.6,18.05Zm-112.49,32.63c35.63,34.26,69.51,67.01,103.75,99.4,2.04,1.93,7.1,1.99,10.29,1.15,17.46-4.57,34.79-9.63,52.12-14.66,5.69-1.65,11.26-3.75,18.54-6.2-35.41-34.01-69.08-66.45-102.96-98.67-1.9-1.81-5.89-3.14-8.28-2.47-23.77,6.65-47.4,13.76-73.45,21.45Zm-111.18,32.26c35.6,34.19,69.24,66.61,103.14,98.77,2.1,1.99,6.65,3.19,9.41,2.42,23.34-6.46,46.54-13.47,69.78-20.31l2.77-4.24c-3.34-2.09-7.14-3.69-9.93-6.35-25.62-24.38-52.3-47.81-76.11-73.86-14.85-16.24-28.55-20.22-48.57-11.71-15.51,6.59-32.38,9.95-50.47,15.29Zm71.39,113.17c1.07-1.47,2.14-2.95,3.21-4.42-3.4-1.97-7.35-3.35-10.12-5.98-28.18-26.77-56.17-53.75-84.22-80.66-14.33-13.75-21.54-14.39-37.64-2.28-15.54,11.69-24.87,27.9-21.11,46.95,5.49,27.78,14.28,54.9,21.96,83.4,43.84-12.68,85.88-24.84,127.92-37Zm-51.24,170.38c18.02-30.41,35.59-61.09,53.22-91.73,1.25-2.17,1.88-4.7,2.9-7.33H123.6v107.11c21.01,0,40.66,.39,60.28-.36,3.53-.13,8.09-4.23,10.14-7.7Zm136.18-34.92c12.08-20.98,24.14-41.96,37.45-65.11-25.58,0-48.97,.25-72.34-.16-6.86-.12-10.6,2.37-13.89,8.18-17.02,30.05-34.45,59.88-51.66,89.82-1.59,2.77-2.67,5.83-4.65,10.23,26.39,0,50.71,.22,75.02-.28,3-.06,6.94-3.26,8.71-6.08,7.48-11.98,14.32-24.36,21.37-36.6Zm93.37,37.92c19.7-33.4,39.06-67,59.91-103-27.05,0-51.39-.21-75.72,.26-3.09,.06-7.36,2.9-8.99,5.68-18.92,32.15-37.44,64.54-56,96.89-.68,1.19-.69,2.75-1.27,5.22,25.18,0,49.51,.16,73.84-.22,2.83-.04,6.79-2.38,8.23-4.83Zm117.43-2.63c15.15-25.69,30.01-51.55,44.91-77.38,4.04-7.01,7.93-14.11,12.92-23.02-25.26,0-48.34,.25-71.41-.15-7.2-.12-11.25,2.29-14.82,8.62-16.93,30.1-34.4,59.9-51.63,89.83-1.49,2.59-2.59,5.41-4.6,9.67,26.53,0,51.57,.23,76.59-.33,2.77-.06,6.24-4.21,8.04-7.25Zm159.9-2.29c-.18-30.26-.07-60.51-.16-90.77,0-2.17-.87-4.34-1.51-7.34-19.33,0-38.14,.31-56.94-.16-6.92-.17-10.56,2.45-13.82,8.26-12.85,22.94-26.17,45.61-39.29,68.39-5.62,9.75-11.17,19.54-17.33,30.32,3.31,.61,5.11,1.23,6.91,1.23,37.72,.06,75.45-.1,113.17,.2,7.78,.06,9.02-3.64,8.98-10.13Zm-198.42,179.89c-40.71,23.73-81.53,47.29-122.45,70.68-15.1,8.63-25.26,2.51-25.35-14.96-.13-23.59-.03-47.18-.03-70.78,0-23.2-.06-46.4,.02-69.6,.06-18.44,9.9-24.62,25.61-15.64,40.91,23.38,81.72,46.93,122.42,70.69,15.08,8.8,14.97,20.76-.22,29.61Zm-33.17-14.9c-29.4-16.92-56.58-32.56-84.84-48.83v97.7c28.62-16.48,55.62-32.04,84.84-48.87Z"/>
</svg>