<?xml version="1.0" encoding="UTF-8"?>
<svg id="Layer_1" data-name="Layer 1" xmlns="http://www.w3.org/2000/svg" viewBox="0 0 800 800">
  <defs>
    <style>
      .cls-1 {
        fill: none;
      }

      .cls-2 {
        fill: #010101;
      }
    </style>
  </defs>
  <rect class="cls-1" width="800" height="800"/>
  <path class="cls-2" d="M765.04,694.9c-.85-51.51-22.34-92.42-62.77-124.24-10.12-7.97-27.24-8.39-30.71-22.11-3.17-12.54-.63-26.51-.69-39.85-.16-36.27-24.93-61-61.37-61.13-31.38-.11-62.77-.02-96.36-.02,9.36-18.71,17.49-35.99,23-54.28,1.91-6.34,5.2-10.98,10.37-14.99,13.01-10.09,26.12-20.11,38.47-30.98,22.71-19.99,19.4-54.55-5.51-70.43-6.36-4.05-18.29-1.09-18.92-10.53-.5-7.5,4.78-15.4,7.52-23.11,.26-.73,.86-1.34,1.09-2.08,9.38-29.58,23.65-57.52,22.16-90.28-2.73-60.05-52.02-113.54-112.3-114.78-57.53-1.19-115.33-4.71-172.67,4.31-52.39,8.25-101.09,26.59-146.27,54.35-4.75,2.92-7.77,6.57-7.24,12.31,.54,5.79,4.32,8.98,9.48,10.76,8.86,3.06,17.87,5.74,26.61,9.13,17.88,6.94,24.3,21.11,18.48,39.56-5.04,15.97-4.47,31.49,3.36,46.65,8.6,16.65,16.6,33.6,25.25,50.22,2.7,5.18,3.21,7.64-3.64,9.31-17.72,4.32-28.37,16.32-31.74,33.87-3.3,17.22,2.92,31.57,16.53,42.59,11.88,9.62,23.89,19.08,35.77,28.71,3,2.43,6.91,4.23,8.2,8.17,6.76,20.71,15.42,40.66,25.59,61.54-34.39,0-67.21-.26-100.03,.08-27.3,.28-49.48,18.64-55.71,45.14-3.65,15.52-1.82,31.28-1.48,46.86,.22,9.89-2.64,14.66-11.68,19.48-45.65,24.38-73.19,62.23-81,113.89-3.6,23.83-1.26,47.77-1.77,71.65-.4,18.55,2.26,20.91,20.81,20.91,135.76,0,271.53,0,407.29,0,94.56,0,189.13,.01,283.69-.02,14.73,0,18.15-3.37,18.2-17.71,.06-17.66,.26-35.32-.03-52.97Zm-644.13,47.17c-18.02-.46-36.05-.09-54.08-.21-3.47-.02-8.38,1.83-8.29-4.85,.43-30.77-3-61.94,9.72-91.39,12.33-28.53,31.7-50.54,60.93-65.83,0,52.6-.11,103.15,.14,153.7,.03,6.55-1.64,8.75-8.43,8.58Zm454.51-433.91c2.9,7.94,.68,14.81-5.02,20.2-6.43,6.08-13.64,11.35-21.66,17.92,1.55-16.88,3.26-31.53,4.06-46.24,.34-6.22,3.54-5.96,7.57-5.09,7.39,1.6,12.42,6,15.06,13.21Zm-345.98,19.92c-5.64-5.44-7.71-12.35-4.69-20.28,2.75-7.22,7.87-11.41,15.28-12.96,4.43-.93,6.95-.32,7.26,5.51,.8,14.7,2.52,29.34,4.06,45.98-8.28-6.83-15.52-12.1-21.91-18.26Zm27.74-93.93c-5.58,3.82-7.94,3.9-10.8-2.64-4.53-10.37-10.03-20.32-15.17-30.42-3.93-7.73-4.99-16.2-2.1-23.99,12.97-34.96-5.61-63.1-34.75-74.43,36.75-19.53,74.33-32.14,113.96-38.52,56.12-9.04,112.75-5.99,169.04-4.3,64.58,1.94,106.4,69.3,84.6,131.84-2.78,7.96-6.14,15.72-9.98,25.48-3.54-20.47-10.06-37.38-20.17-52.83-8.36-12.77-16.87-25.44-25.46-38.06-7.15-10.51-12.98-11.26-23.14-3.21-7.67,6.08-15.4,12.1-22.92,18.37-18.79,15.68-40.52,23.2-64.82,23.49-23.33,.28-44.67,6.92-64.08,19.72-24.82,16.37-49.67,32.71-74.21,49.51Zm15.62,18.44c31.31-19.91,59.73-44.48,94.38-59.01,7.65-3.21,15.87-4.82,24.08-4.72,35.44,.42,66.01-11.7,91.88-35.52,6.82-6.28,9.3-4.76,14.7,2.17,24.53,31.47,35.4,66.52,31.99,106.33-.59,6.86-1.53,9.56-9.09,9.25-15.67-.63-31.39-.19-47.09-.19-15.31,0-30.62,.26-45.92-.09-10.67-.25-17.02,3.87-15.76,15.03,1.22,10.79-5.89,8.68-11.77,8.55-5.62-.12-13.25,2.86-12.06-8.23,1.18-10.96-4.6-15.45-15.48-15.35-30.61,.28-61.22,.19-91.84-.03-3.38-.02-9.01,2.78-9.86-2.77-.77-5-3.37-12.09,1.83-15.4Zm186.41,41.98c23.27,0,23.41,0,23.19,23.73-.07,7.84,3.04,18.13-7.13,21.42-11.06,3.58-23.04,3.76-34.29-.62-3.83-1.49-5.36-5.51-5.52-9.65-.14-3.51-.08-7.03-.08-10.55q-.01-24.32,23.84-24.32Zm-117.74,0c23.26,0,23.39,0,23.17,23.74-.07,7.84,3.03,18.14-7.15,21.42-11.06,3.56-23.04,3.76-34.29-.63-3.83-1.5-5.35-5.51-5.51-9.66-.13-3.51-.08-7.03-.08-10.55q-.01-24.31,23.85-24.31Zm-70.7,8.89c-.4-6.01,.27-10.75,7.58-8.7,5.56,1.56,16.22-6.51,15.77,7.75-.29,9.01-.22,18.04,0,27.06,.41,17.42,11.06,31.12,27.91,34.43,12.7,2.49,25.82,2.55,38.52-.06,17.28-3.56,28.27-17.16,27.37-35.76-.56-11.62,5.54-9.97,12.72-10.2,7.58-.25,11.81,.06,11.54,10.19-.6,22.1,14.48,36.51,36.64,37.02,7.45,.17,14.92,.31,22.35-.06,20.05-.99,34.32-15.59,34.82-35.56,.24-9.41-.2-18.83,.11-28.23,.42-12.84,10.28-4.95,15.66-6.57,5.78-1.73,8.03,1.16,7.64,7.53-3.03,49.51-16.02,96.04-40.33,139.39-2.76,4.92-6.2,5.98-11.38,5.94-26.27-.21-52.55-.1-78.82-.1-25.1,0-50.2-.26-75.29,.17-6.85,.12-10.33-2.24-13.62-8.12-23.64-42.38-35.98-87.88-39.17-136.11Zm365.36,438.69c-78.89-.42-157.78-.24-236.67-.24s-156.99-.18-235.49,.24c-9.44,.05-11.47-2.61-11.43-11.64,.37-73,.19-146,.22-219,.01-26.77,13.63-40.28,40.62-40.29,137.76-.03,275.52-.03,413.29,0,26.98,0,40.63,13.54,40.64,40.27,.04,73-.15,146,.22,219,.05,9-1.94,11.71-11.41,11.66Zm105.44-5.38c.1,4.3-1.93,5.21-5.73,5.19-19.6-.12-39.2-.15-58.8,.02-4.44,.04-6.23-1.25-6.22-5.93,.11-51.61,.07-103.22,.07-156.34,33.22,17.71,54.23,43.57,65.08,77.78,8.22,25.92,4.99,52.76,5.61,79.29Zm-211.97-196.09c-.22,5.34-2.5,8.4-5.35,11.24-13.31,13.29-26.96,26.27-39.72,40.06-7.15,7.72-9.91,.66-13.29-2.96-3.55-3.82-12.18-6.66-3.65-14.37,9.3-8.39,17.46-18.05,26.84-26.34,6.19-5.47,4.99-8.88-.34-13.82-9.2-8.51-17.53-17.96-26.78-26.41-7.84-7.16-.25-10.12,3.39-13.51,3.46-3.22,5.88-11.7,13.35-3.91,13.29,13.86,27.02,27.29,40.61,40.86,2.88,2.88,4.71,6.15,4.94,9.15Zm-193.08-39.1c-.33,3.98-2.9,5.45-4.75,7.31-8.81,8.92-17.55,17.94-26.7,26.5-4.75,4.44-5.1,7.54-.11,12.16,9.49,8.78,18.2,18.39,27.63,27.24,9.14,8.57-1.55,10.89-4.68,15.2-3.04,4.18-6.17,8.83-12.46,1.92-12.12-13.33-25.35-25.63-38.02-38.46-9.45-9.58-9.5-14.18-.22-23.61,12.09-12.29,24.24-24.54,36.62-36.55,2.44-2.37,4.47-8.19,8.9-5.09,5.33,3.73,9.5,9.12,13.77,13.39Zm107.53,1.1c-1.5,2.03-2.66,3.61-3.83,5.17-20.21,26.89-40.91,53.43-60.41,80.83-7.43,10.44-11.12,2.19-16.39-.93-5.5-3.25-9.04-5.71-3.32-13.04,20.94-26.82,41-54.32,61.53-81.45,1.57-2.07,2.85-7.03,6.86-3.88,5.34,4.2,12.18,6.9,15.56,13.3Zm-43.39,109.71c-26.32-.25-47.35,20.04-47.71,46.02-.36,26.41,20.85,48.17,47.06,48.26,25.6,.09,46.96-21.22,47.12-47,.16-26.15-20.36-47.03-46.47-47.28Zm22.86,47.61c-.47,12.83-12.23,23.73-24.72,22.9-12.41-.83-22.56-11.85-22.27-24.18,.3-13.05,11.47-23.27,24.71-22.6,12.73,.65,22.74,11.37,22.28,23.88Z"/>
</svg>