<?xml version="1.0" encoding="UTF-8"?>
<svg id="Layer_1" data-name="Layer 1" xmlns="http://www.w3.org/2000/svg" viewBox="0 0 800 800">
  <defs>
    <style>
      .cls-1 {
        fill: none;
      }
    </style>
  </defs>
  <rect class="cls-1" width="800" height="800"/>
  <path d="M171.86,630.5c35.07,0,70.15-.03,105.22,.03,6.53,.01,10.43,3.93,10.6,10.14,.17,6.22-3.56,10.24-10.05,10.76-1.16,.09-2.34,.04-3.51,.04-68.14,0-136.29,0-204.43,0-1.5,0-3.01,.06-4.51-.05-6.57-.51-10.22-4.4-10.11-10.7,.11-6.16,4.06-10.16,10.56-10.18,26.06-.06,52.11,0,78.17,0,9.35,0,18.7,0,28.05,0,0-.02,0-.03,0-.05ZM86.08,262.34c-6.68,0-13.37-.13-20.04,.09-6.99,.23-11.05,4.51-10.92,11.06,.11,5.77,4.44,9.65,11.04,9.88,1.17,.04,2.34,.02,3.51,.02,67.68,0,135.35,0,203.03,0,1.67,0,3.35,.09,5.01-.07,7.96-.77,12.2-9.16,8.13-16.04-2.43-4.1-6.3-4.98-10.76-4.97-34.42,.06-68.85,.03-103.27,.03-28.57,0-57.15,0-85.72,0Zm105.67,297.08c11.03,0,22.06-.05,33.08-.12,4.34-.03,7.75-1.56,9.53-5.91,3.29-8.07-1.56-14.98-10.8-14.99-46.12-.04-92.23-.02-138.35-.02-21.22,0-42.44-.04-63.66,.02-8.31,.03-12.72,5-11.5,12.66,.88,5.55,4.72,8.35,11.77,8.35,33.58,.03,67.17,.01,100.75,.01,23.06,0,46.12,.01,69.18,0Zm-68.76-204.99c-21.89,0-43.79,0-65.68,0-12.53,0-25.07-.1-37.6,.09-6.12,.09-9.8,4.24-9.81,10.36-.02,5.96,3.4,9.8,9.31,10.34,1.83,.17,3.67,.12,5.51,.12,65.68,0,131.37,0,197.05,0,1.34,0,2.68,.04,4.01-.08,7.18-.63,11.48-7.34,9.09-14.1-1.65-4.66-5.12-6.74-11.59-6.75-33.43-.02-66.85,0-100.28,0v.02Zm101.57,112.87c6.65-.02,10.65-3.82,10.87-9.92,.23-6.28-3.82-10.56-10.41-10.97-1.33-.08-2.67-.04-4.01-.04-50.62,0-101.23,0-151.85,.01-2,0-4.04-.03-5.99,.34-4.62,.88-7.33,3.81-7.97,8.46-1.01,7.26,3.31,12.1,11,12.12,26.23,.06,52.45,.02,78.68,.03,26.56,0,53.12,.04,79.68-.02Zm564.86,5.87c-6.71,90.62-48.65,161.17-124.27,211.35-35.27,23.41-74.49,36.8-116.57,41.13-127.35,13.13-239.36-62.15-281.48-172.89-48.82-128.37,6.92-273.53,128.92-336.04,28.08-14.39,57.67-23.82,88.98-27.75,3.21-.4,4.61-1.4,4.55-4.92-.21-11.48-.08-22.96-.08-34.82-3.97,0-7.27,.15-10.55-.04-3.65-.21-7.35-.4-10.91-1.18-4.76-1.04-7.57-4.22-7.58-9.26-.06-18.39-.15-36.77,.04-55.16,.07-6.66,4.15-10.61,10.84-10.63,32.26-.11,64.52-.11,96.78,0,7.1,.02,11.06,4.28,11.09,11.44,.07,17.72,.07,35.43,0,53.15-.03,7.12-3.95,11.11-11.2,11.35-5.65,.19-11.31,.04-17.36,.04v39.15c6.25,1.05,12.52,1.9,18.7,3.18,92.14,19.2,158.12,71.65,197.7,156.88,18.36,39.55,25.64,81.65,22.42,125.02ZM557.71,127.64v-33.8c-11.18,0-21.84,0-32.5,0-13.18,0-26.36-.01-39.53,.02-2.09,0-4.61-.55-4.61,2.9,.01,10.14,0,20.28,0,30.89h76.64Zm-44.69,21.48c-1.01,.06-2.73,1.91-2.75,2.96-.21,10.51-.19,21.03-.02,31.55,.02,1.05,1.42,2.95,2.25,2.99,5.4,.27,10.81,.14,16.37,.14v-37.78c-5.6,0-10.74-.17-15.85,.14Zm256.18,308.54c.15-137.79-111.52-250.01-248.95-250.16-137.67-.16-249.77,111.64-249.86,249.19-.1,137.41,111.61,249.43,248.91,249.61,137.43,.18,249.75-111.57,249.9-248.64Zm-24.64-.56c.24,123.45-100.31,224.54-223.5,224.7-125.63,.17-225.94-100.01-226.05-225.75-.1-123.68,100.45-223.6,225.28-223.87,123.71-.27,224.03,100.33,224.27,224.92Zm-21.1,10.19c-9.86,0-18.86,.12-27.86-.04-6.19-.11-10.05-4.16-10.16-10.14-.11-5.87,3.72-10.16,9.74-10.64,2.83-.23,5.68-.11,8.52-.12,6.45-.01,12.9,0,19.8,0-1.58-29.41-8.83-56.32-21.98-82.11-2.03,1.16-3.59,2.06-5.15,2.93-6.7,3.75-13.27,7.78-20.16,11.13-5.4,2.62-10.54,.52-13.22-4.51-2.59-4.88-1.2-10.4,3.58-13.6,2.08-1.4,4.32-2.55,6.48-3.81,5.85-3.41,11.7-6.83,17.91-10.45-16.14-24.46-35.82-44.24-60.12-60.13-1.44,2.35-2.6,4.15-3.67,6.01-3.44,5.93-6.73,11.94-10.3,17.78-3.89,6.37-11.3,7.2-16.62,2.07-3.62-3.49-4.02-8.03-1.02-13.3,4.35-7.64,8.77-15.23,13.14-22.8-.97-.72-1.33-1.09-1.77-1.31-24.19-12.18-49.81-19.08-76.8-21.12-2.99-.23-3.79,.98-3.76,3.72,.09,7.69,.02,15.38,0,23.06-.01,7.25-3.69,11.14-10.54,11.15-6.27,0-10.16-4.2-10.19-11.05-.03-7.18-.23-14.38,.03-21.55,.15-4.16-1.08-5.54-5.39-5.15-19.76,1.79-38.97,5.87-57.44,13.12-6.57,2.58-12.93,5.68-19.66,8.66,4.89,8.51,9.28,16,13.53,23.57,3.42,6.11,2.14,11.44-3.3,14.65-5.68,3.35-10.99,1.78-14.8-4.39-.88-1.42-1.68-2.89-2.52-4.33-3.58-6.14-7.17-12.28-11-18.85-24.43,16.09-44.21,35.77-59.98,59.96,1.3,.91,2.19,1.62,3.15,2.19,6.92,4.05,13.94,7.95,20.78,12.13,5.28,3.22,6.54,8.65,3.58,13.84-3.06,5.36-8.61,6.96-14.18,4.03-2.07-1.09-4.05-2.34-6.08-3.5-5.88-3.36-11.76-6.71-18.01-10.27-13.19,26.18-20.56,53.03-21.99,82.25,9.59,0,18.41-.14,27.23,.04,6.77,.14,10.78,4.31,10.72,10.63-.05,6.32-4.12,10.17-11.02,10.25-7.19,.08-14.4,.39-21.55-.11-5.09-.35-5.8,1.56-5.37,6,2,20.42,6.43,40.23,14.14,59.25,2.34,5.77,5.06,11.39,7.73,17.36,8.71-5.01,16.46-9.62,24.36-13.97,5.37-2.95,10.84-1.3,13.83,3.77,3.13,5.32,1.79,10.94-3.54,14.31-2.54,1.6-5.21,3-7.81,4.52-5.27,3.08-10.53,6.17-16.18,9.48,16.14,24.49,35.84,44.25,60.04,60.05,1.02-1.56,1.79-2.61,2.44-3.73,3.96-6.78,7.72-13.69,11.9-20.33,4.1-6.53,11.94-6.85,16.92-.96,3.24,3.83,3.13,7.84,.68,12.05-4.5,7.74-8.91,15.52-13.57,23.65,26.15,13.27,53.16,20.58,82.34,21.99,0-9.42,.03-18.09-.01-26.77-.02-4.33,1.23-7.92,5.34-9.98,7.52-3.78,15.31,.88,15.47,9.41,.16,8.98,.04,17.96,.04,27.39,29.41-1.48,56.43-8.93,82.69-22.02-4.69-7.96-9.12-15.38-13.44-22.86-3.74-6.48-2.43-12.08,3.46-15.45,5.76-3.3,11.08-1.24,14.8,5.41,4.13,7.39,8.48,14.66,13.01,22.44,24.54-16,44.29-35.9,60.35-60.38-8.35-4.82-16.2-9.2-23.9-13.84-6.77-4.08-7.29-12.09-1.26-17.22,3.84-3.27,7.92-3.01,12.08-.6,7.74,4.48,15.5,8.94,23.6,13.62,13.31-26.26,20.49-53.28,21.93-82.48Zm-155.82,70.93c-5.64,3.29-11.33,1.53-15.1-4.88-5.92-10.08-11.89-20.14-17.49-30.4-1.86-3.42-3.81-4.13-7.52-3.43-19.23,3.65-37.21-5.03-45.9-21.85-8.98-17.38-5.88-39.53,8.01-52.2,4.32-3.94,9.83-6.95,15.3-9.15,4.08-1.64,4.99-3.65,4.96-7.62-.15-24.23-.1-48.46-.05-72.68,.02-7.41,3.64-11.48,10.14-11.7,6.7-.23,10.88,3.75,10.95,10.82,.11,12.53,.03,25.06,.04,37.6,0,12.36,.11,24.73-.07,37.09-.05,3.44,.81,5.26,4.27,6.64,28.1,11.21,36.73,44.72,17.66,68.39-1.93,2.4-1.99,4.05-.49,6.59,6.22,10.48,12.27,21.07,18.31,31.66,3.64,6.37,2.46,11.92-3.03,15.12Zm-25.79-81.34c-.07-13.13-9.44-22.63-22.28-22.59-12.6,.04-21.8,9.45-21.91,22.41-.11,13.36,8.85,22.54,22.01,22.57,13.23,.03,22.25-9.07,22.18-22.39Z"/>
</svg>