<?xml version="1.0" encoding="UTF-8"?>
<svg id="Layer_1" data-name="Layer 1" xmlns="http://www.w3.org/2000/svg" viewBox="0 0 800 800">
  <defs>
    <style>
      .cls-1 {
        fill: none;
      }

      .cls-2 {
        fill: #010101;
      }
    </style>
  </defs>
  <rect class="cls-1" width="800" height="800"/>
  <path class="cls-2" d="M749.08,706.25c-2.04,0-4.12-.24-6.12,.04-8.23,1.18-11.88-1.52-11.19-10.55,.77-10.16,.83-20.47-.02-30.61-.71-8.43,2.57-11.93,10.13-15.1,32.41-13.59,44.89-51.87,26.79-81.79-3.61-5.96-4.93-11.23-4.05-18.13,2.45-19.19-4.7-34.68-21.17-44.83-16.44-10.13-33.54-9.68-49.57,1.03-16.08,10.74-22.75,26.52-19.8,45.5,.97,6.24-.32,10.56-3.45,15.6-16.51,26.6-10.44,62.76,17.17,76.73,18.34,9.28,20.37,20.8,18.79,37.2-.35,3.64-.46,7.4,.03,11.02,1.42,10.59-1.59,15.88-13.57,14.28-8.02-1.07-16.42-1.04-24.45,0-12.17,1.56-14.56-3.18-14.53-14.77,.41-160.58,.22-321.16,.43-481.74,.01-8.31-1.82-12.68-10.36-16.12-78.94-31.77-157.61-64.2-236.37-96.43-19.49-7.97-38.98-15.93-59.7-24.4v115.06c-4.44-1.81-7.01-2.86-9.59-3.91-86.73-35.32-173.45-70.63-260.18-105.95q-13.38-5.45-13.39,9.24c0,200.62,0,401.25,0,601.87,0,2.86-.24,5.74,.04,8.58,.64,6.47-2.18,8.58-8.51,8.32-10.19-.42-20.42-.2-30.62-.05-3.01,.04-6.53-1.17-8.47,2.88-5.43,11.32,1.22,21.85,13.95,21.85,240.14,0,480.29,0,720.43,0,2.86,0,5.72-.09,8.58,0,3.12,.09,3.89-1.62,4.49-4.42,3.42-15.93,.09-20.35-15.7-20.36Zm-626.25,.35c-33.14,2.81-33.12,2.96-33.12-29.99,0-11.39,.25-22.8-.1-34.18-.18-5.8,1.82-7.45,7.62-7.77,32.39-1.81,32.38-1.98,32.38,30.41,0,2.03,0,4.07,0,6.1,0,9.36-.19,18.72,.07,28.08,.14,5.08-1.46,6.89-6.85,7.35Zm58.74-62.73c-.71,8.91-.17,17.93-.17,26.9,0,6.12,0,12.23,0,18.35,0,17.25-5.16,21.09-22.38,17.2-3.55-.8-4.71-2.43-4.71-5.72,.03-19.98,.08-39.96-.05-59.94-.03-4.11,1.43-6.04,5.63-5.93,4.07,.11,8.21,.39,12.21-.17,7.55-1.06,10.06,1.64,9.45,9.31Zm-83.46-33.65c-6.28,.05-9.19-1.76-8.45-8.29,.28-2.42,.04-4.9,.04-7.35,0-156.44,0-312.88,0-469.32v-15.1c22.11,8.83,42.81,17.04,63.46,25.37,14.73,5.94,29.16,12.7,44.16,17.82,8.47,2.89,10.7,7.15,10.68,15.77-.28,142.96-.2,285.92-.2,428.88,0,1.23-.13,2.47,.02,3.67,.78,6.17-1.4,8.61-8.07,8.55-33.88-.3-67.77-.27-101.66-.02Zm133.69,81.98c-.01,12.55-11.5,19.26-23.32,13.82-2.96-1.36-2.82-3.62-2.81-5.99,.08-19.56,.37-39.13,.22-58.68-.04-5.54,2.3-6.57,7.25-6.88,18.68-1.15,18.66-1.34,18.66,17.39,0,6.11,0,12.23,0,18.34,0,7.34,0,14.67,0,22.01Zm52.17-46.21c-1.01,17.02-.82,34.16-.1,51.21,.57,13.39-8.81,8.44-14.93,8.93-6.12,.49-13.56,2.3-12.5-8.85,.84-8.86,.17-17.87,.17-26.82h.37c0-8.13,.96-16.41-.22-24.36-2.02-13.62,6.8-11.09,14.72-11.66,8.85-.64,13.09,1.07,12.47,11.54Zm56.74,60.6c-33.72,1.99-33.71,2.11-33.71-31.02v-9.81c0-34.27-.01-34.15,34.64-31.08,4.64,.41,6.4,1.56,6.35,6.33-.18,19.61-.23,39.23,.02,58.85,.07,5.61-2.36,6.44-7.3,6.73Zm-31.53-432.39c2.05,3.83,5.63,2.39,8.68,2.63,9.66,.76,22.53-4.21,28.18,1.95,6.08,6.62,1.56,19.45,1.78,29.56,.2,9.34,3.04,21.37-1.59,27.3-4.95,6.36-17.63,2.53-26.75,1.89-10.24-.71-11.06,3.92-10.9,12.14,.16,8.2,.13,13.39,11.34,13.13,27.98-.65,28.06,0,27.96,26.98-.04,10.6,3.32,23.92-1.78,31-4.97,6.89-19.1,2.17-29.14,2.02-9.2-.14-8.78,5.27-8.04,11.06,.7,5.48-4.08,14.27,7.67,13.95,8.16-.22,16.35,.25,24.5-.14,5.36-.25,7.01,1.61,6.93,6.93-.27,18.79-.28,37.59,0,56.39,.08,5.8-1.72,8.09-7.69,7.71-6.92-.44-13.96,.57-20.8-.26-10.23-1.24-11.3,3.97-10.87,12.2,.37,7.26-.7,14.13,10.37,12.87,7.26-.82,14.7,.13,22.03-.25,5.31-.27,7.06,1.53,6.97,6.89-.28,17.57-.34,35.14,.02,52.71,.13,6.23-2.44,7.35-7.95,7.31-33.49-.2-66.98-.28-100.47,.04-7.3,.07-7.6-3.54-7.71-9.09-.12-5.82,.8-9.47,7.83-8.81,4.86,.45,9.79,.09,14.7,.08,13.02-.01,18.68-8.64,14.02-21.11-.83-2.21-2.14-3.33-4.32-3.53-1.62-.15-3.26-.06-4.9-.11q-27.19-.93-27.19-28.82c0-9.4,.34-18.81-.11-28.19-.32-6.57,2.18-8.78,8.5-8.23,4.86,.42,9.88-.49,14.68,.2,10.59,1.51,14.06-2.06,13.88-13.19-.17-10.17-3.6-12.07-12.77-11.89-24.18,.48-24.18,.09-24.18-24.05,0-10.62,.3-21.26-.11-31.87-.24-6.2,1.46-9.2,8.13-8.58,4.45,.41,8.98,.08,13.47,.07,14.61,0,18.63-5.69,15.08-20.24-1.31-5.35-4.96-4.34-8.46-4.6-8.86-.65-20.51,3.87-25.92-1.93-6.29-6.74-1.33-18.71-2.17-28.36-.11-1.22-.04-2.45-.01-3.68,.26-9.75-2.9-21.9,1.76-28.57,4.62-6.62,17.52-2.28,26.71-2.09,10.72,.22,8-7.02,7.91-12.5-.09-5.33,3.2-13.5-7.68-12.46-1.21,.12-2.45,.02-3.67,.01q-25.02-.18-25.02-25.83c0-9.4,.61-18.85-.18-28.18-.72-8.53,2.77-10.67,10.39-9.85,4.44,.48,8.98,.09,13.47,.09,11.11-.02,18.06-12.22,12.6-22.16-2.06-3.74-5.73-2.35-8.8-2.45q-27.52-.93-27.48-28.35c0-4.02,0-8.05,0-13.64,28.02,11.28,54.76,22.04,81.49,32.81,3.78,1.52,7.55,3.07,11.3,4.64,24.92,10.42,26.34,13.2,23.22,40.47-.57,4.98-2.46,6.09-6.84,5.93-6.53-.23-13.07-.07-19.6-.06-11.23,.02-17.89,11.9-12.43,22.07Zm310.26,432.48c-39.95-.53-79.91-.23-119.86-.23-39.14,0-78.28-.32-117.42,.23-9.56,.13-10.31-4.01-10.22-11.63,.08-7.28,0-11.71,9.92-11.65,79.5,.45,159.01,.47,238.51-.01,10.54-.06,9.03,5.37,9.45,11.98,.51,7.98-1.15,11.43-10.37,11.31Zm-.61-47.62c-78.42-.38-156.85-.26-235.28-.14-6.73,0-11.23,.12-11.21-9.31,.3-178.18,.23-356.35,.27-534.53,0-1.14,.43-2.27,.91-4.7,27.44,11.16,54.5,22.13,81.54,33.15,55.07,22.46,110.05,45.12,165.26,67.21,7.73,3.09,10.14,6.84,10.12,15.12-.28,140.58-.3,281.16,0,421.74,.02,9.3-2.5,11.51-11.62,11.47Zm72.63-43.97c-7.97-13.5-6.41-29.87,5.67-39.98,7.91-6.62,10.43-11.49,3.92-20.82-6.28-9.01-2.81-18.27,5.08-25.06,8.07-6.93,17.44-7.25,25.93-1,9.06,6.66,11.72,16.71,6.05,26.06-5.61,9.24-4.7,14.48,3.86,20.74,7.18,5.25,9.73,13.83,10.09,21.01,.29,16.7-9.46,29.85-23.66,33.68-14.55,3.93-29.5-1.98-36.96-14.62Zm-253.58-140.61c-2.04,0-4.08,0-6.12,0-14.86,0-19.42-6.4-15.47-20.83,1.26-4.61,4.41-4.1,7.52-4.13,9.38-.11,18.78,.32,28.13-.16,7.11-.36,8.89,2.45,8.9,9.23,0,15.88,.36,15.88-15.63,15.89-2.45,0-4.89,0-7.34,0Zm124.67,0c-2.02,0-4.05,0-6.07,0-14.43,0-19.15-6.79-15.13-20.92,1.29-4.54,4.45-4,7.54-4.05,7.69-.12,15.45,.6,23.05-.21,10.36-1.1,14.27,1.88,13.78,13.11-.41,9.31-2.45,13.59-12.26,12.16-3.57-.52-7.27-.08-10.91-.08Zm-123.02,31.43c2.04,0,4.08,0,6.12,0,14.14,.01,19.45,7.73,14.96,21.19-1.49,4.47-4.78,3.75-7.86,3.79-8.97,.12-17.97-.38-26.91,.18-7.56,.47-9.98-2.27-9.62-9.75,.92-18.8-3.32-14.95,23.31-15.41Zm123.42,25.02c-2.02,.01-4.05,.01-6.07,.01-15.22,0-19.15-5.46-15.56-20.54,1.09-4.58,3.99-4.42,7.16-4.46,7.29-.1,14.57-.05,21.86-.04,14.15,0,19.36,7.55,14.91,21.05-1.19,3.61-3.62,3.92-6.51,3.95-5.26,.05-10.53,.02-15.79,.03Zm-124.38-224.74c-2.43,0-4.86,0-7.3,0-14.32,0-18.99-6.81-14.95-20.99,1.11-3.9,3.53-3.82,6.33-3.84,7.7-.06,15.4-.03,23.1-.03,14.35,0,19.03,6.75,14.93,20.83-1.08,3.71-3.35,4.02-6.31,4.02-5.27,0-10.54,0-15.81,0Zm126.11-.03c-3.67,0-6.1,0-8.53,0-13.89,0-18.99-7.6-14.71-21.17,1.24-3.92,3.83-3.55,6.55-3.58,8.09-.08,16.28,.74,24.26-.22,10.9-1.32,13.26,2.61,13.41,13.27,.29,20.53-14.98,7.75-20.99,11.7Zm-127.25,56.34c-2.03,0-4.05,0-6.08,0-14.46,0-18.86-6.43-15.02-20.87,1.29-4.87,4.56-3.73,7.48-3.77,9.72-.15,19.49,.48,29.16-.21,9.72-.69,8.17,5.83,7.48,11.02-.7,5.2,4.8,14.29-7.22,13.86-5.26-.18-10.53-.03-15.8-.03Zm125,0c-2.03,0-4.06,.01-6.08,0-14.29,0-18.96-6.84-14.96-20.99,1.14-4.02,3.67-3.66,6.38-3.69,7.3-.08,14.6-.04,21.9-.04,16.59,0,18.08,1.98,15.7,18.93-.56,3.97-1.79,5.89-5.91,5.79-5.68-.14-11.36-.03-17.03-.02Zm-124.68,55.96c-2.04,0-4.08,0-6.12,0-14.59,0-19.34-6.8-15.29-20.98,1.36-4.77,4.66-3.75,7.65-3.79,9.38-.14,18.78,.38,28.13-.19,7.29-.44,8.72,2.54,8.7,9.19-.06,15.77,.28,15.77-15.72,15.78-2.45,0-4.89,0-7.34,0Zm.99,168.28c-2.44,0-4.88,0-7.33,0-14.1,0-19.47-7.73-15-21.06,1.47-4.38,4.72-3.77,7.83-3.81,7.73-.1,15.55,.69,23.18-.21,10.82-1.27,14.44,2.47,13.43,13.39-1.3,14.06,2.19,11.41-22.11,11.68Zm123.89-168.28c-2.04,0-4.08,0-6.12,0-14.19,0-19.43-7.61-15.1-21.21,1.26-3.95,3.94-3.56,6.65-3.59,10.2-.09,20.41,.15,30.61-.09,9.24-.22,6.82,6.6,6.41,11.16-.45,5.07,4.25,13.41-6.53,13.69-5.3,.14-10.61,.02-15.92,.03Zm-.04,168.28c-2.04,0-4.07,0-6.11,0-14.07,0-19.56-7.89-15-21.1,1.25-3.63,3.79-3.76,6.65-3.78,7.33-.05,14.66-.03,21.99-.03,15.15,0,18.49,4.63,15.25,19.95-.93,4.41-3.41,4.96-6.9,4.95-5.29-.01-10.59,0-15.88,0ZM135.75,449.45c3.71,0,5.74,0,7.76,0,14.15,.01,19.52,7.73,14.96,21.04-1.46,4.25-4.58,3.93-7.77,3.95-7.7,.06-15.48-.7-23.07,.19-10.81,1.27-13.38-2.65-13.53-13.36-.29-21.78,16.07-7.12,21.64-11.83Zm-.06,56.45c2.84,0,5.73,.38,8.5-.07,11.68-1.89,15.43,2.7,14.76,14.49-.49,8.63-3.04,11.37-11.35,10.74-8.06-.61-16.22-.5-24.3-.02-7.01,.41-9.16-2.34-8.92-9.14,.69-19.65-2.52-15.52,21.32-16Zm-.85-224.53c3.35,0,5.37,0,7.4,0,17.38,0,18.34,1.38,16.43,18.43-.63,5.63-3.32,6.5-7.95,6.39-7.7-.17-15.5-.79-23.09,.13-10.84,1.32-13.2-2.61-13.52-13.27-.64-21.05,15.07-7.37,20.73-11.69Zm1.81,81.13c-2.44,0-4.88,0-7.31,0-14.06,0-18.98-7.31-14.85-21.15,1.21-4.06,3.86-3.48,6.51-3.52,8.13-.11,16.34,.68,24.36-.22,10.6-1.2,13.89,2.08,13.62,13.14-.25,9.94-3.23,13.15-12.58,11.82-3.19-.45-6.49-.07-9.74-.07Zm1.21,31.12c2.03,0,4.05,0,6.08,0,13.46,0,19.34,8.9,14.34,21.32-1.42,3.52-3.99,3.49-6.83,3.5-7.29,.02-14.58,.01-21.87,.01-14.38,0-19.15-6.9-15.09-21,1.13-3.92,3.61-3.75,6.37-3.8,5.67-.09,11.34-.03,17.01-.03Zm-1.06,193.1c-2.04,0-4.08,0-6.12,0-17.7,0-17.38,.01-16.34-17.58,.37-6.21,2.97-7.55,8.31-7.38,7.34,.23,14.69,.05,22.03,.06,12.73,.02,18.47,9.13,13.66,21.31-1.39,3.52-3.98,3.56-6.85,3.58-4.9,.03-9.79,0-14.69,.01Z"/>
</svg>