<?xml version="1.0" encoding="UTF-8"?>
<svg id="Layer_1" data-name="Layer 1" xmlns="http://www.w3.org/2000/svg" viewBox="0 0 800 800">
  <defs>
    <style>
      .cls-1 {
        fill: none;
      }

      .cls-2 {
        fill: #010101;
      }
    </style>
  </defs>
  <rect class="cls-1" width="800" height="800"/>
  <path class="cls-2" d="M772.62,243.59c.01-28.6-8.72-53.83-28.16-75.01-3.45-3.76-4.62-6.87-3.13-12.22,9.17-32.92-4.69-66.08-33.78-82.11-29.38-16.19-65.34-9.89-88.34,15.88-10.01,11.21-19.83,22.66-28.91,34.63-5.19,6.83-10.75,9.23-19.38,9.22-142.33-.3-284.67-.22-427-.21-66.41,0-112.15,45.36-112.22,111.69-.13,126.94-.12,253.89,0,380.83,.06,67.09,45.61,112.4,112.73,112.43,85.63,.04,171.26,.01,256.9,.01,86.79,0,173.58,.09,260.37-.03,64.24-.08,110.64-45.66,110.8-109.65,.31-128.49,.06-256.97,.13-385.46Zm-39.57-54.71c10.65,14.32,16.79,30.25,17.4,48.01,.56,16.13-.07,32.3,.43,48.43,.21,7-2.79,8.26-8.89,8.15-16.52-.31-33.06-.48-49.57,.06-7.6,.25-9.09-2.92-8.74-9.51,.42-8.05,.1-16.14,.1-24.22,0-5.38,1.1-11.05-.2-16.1-4.58-17.78,3.73-28.66,17.64-37.85,7.64-5.04,14.48-11.45,21.07-17.88,4.53-4.42,7.1-4.05,10.78,.89Zm-94.96-86.68c8.87-10.37,21.26-14.99,37.77-14.64,17.5,.03,35.39,11.42,42.67,30.1,7.49,19.23,5.77,38.62-9.79,52.4-37.51,33.21-76.46,64.82-114.74,97.16-3.39,2.87-5.7,2.54-8.72-.52-14.08-14.28-28.24-28.49-42.58-42.5-3.41-3.33-2.52-5.57,.08-8.67,31.77-37.78,63.23-75.82,95.3-113.33Zm23.77,186.91c-.03,4.41-3.52,4.27-6.68,4.27-17.99,0-35.98,0-53.98,0-.43-.84-.85-1.68-1.28-2.52,19.91-16.66,39.83-33.33,61.98-51.87,0,18.33,.07,34.23-.05,50.12Zm-86.16,4.71c-12.15,44.53-47.62,85.73-105.11,86.87-19.54-.75-38.05-5.35-55.1-15.09-17.88-10.22-21.36-30.14-8.64-46.17,8.61-10.86,17.22-21.8,24.85-33.34,19.86-30.05,49.5-43.94,83.04-51.91,4.89-1.16,7.92,.71,11.13,3.96,15.16,15.38,30.48,30.59,45.73,45.87,2.68,2.69,5.44,4.89,4.1,9.81Zm-522.41-12.96c.94-12.27,.16-24.66,.24-37,.33-50.63,35.22-87.71,85.99-87.97,139.16-.73,278.32-.25,417.48-.23,1.43,0,2.86,.4,6.41,.93-14.88,17.87-28.59,33.99-41.87,50.46-4.18,5.18-10.04,5.75-15.41,6.91-42.43,9.14-76.01,30.87-98.25,68.64-4.86,8.26-10.73,11.04-20.42,11.01-107.16-.38-214.33-.4-321.49,.01-10.25,.04-13.46-2.49-12.67-12.75Zm524.21,435.97c-73.25,.3-146.51,.08-219.76,.08-71.71,0-143.42,.04-215.14-.01-52.01-.04-88.97-36.69-89.04-88.7-.15-100.66,.11-201.32-.29-301.98-.04-9.75,3.29-11.24,11.9-11.22,101.78,.26,203.57,.27,305.35,0,9.24-.02,11.77,1.22,8.68,11.2-7.09,22.89,3.9,46.57,25.67,58.65,68.8,38.17,148.47,12.55,181.93-58.98,3.87-8.27,8.08-11.4,17.23-10.93,16.15,.84,32.38,.49,48.56,.12,6.67-.15,9.54,1.34,9.52,8.85-.25,103.74,.31,207.49-.47,311.23-.34,44.83-39.02,81.51-84.14,81.69Zm173.05-84.61c-.26,47.78-38.25,84.36-85.94,84.69-6.39,.04-12.78,0-19.33,0,.28-1.88,.11-2.88,.52-3.24,29.99-26.24,38.65-60.04,38.27-98.69-.95-95.99-.16-191.99-.54-287.99-.04-9.82,2.82-12.51,12.3-12.03,14.99,.77,30.06,.5,45.08,.07,7.21-.21,10.04,1.48,10.02,9.53-.29,102.55,.17,205.1-.38,307.65Zm-424.5-151.82c-.43-27.74-21.18-47.71-48.91-48.11-18.13-.26-36.26-.05-54.39-.06-16.97-.01-33.94-.1-50.92,0-31.01,.19-51.06,19.48-51.38,50.21-.37,35.11-.4,70.23,.01,105.33,.34,29.38,19.9,49.6,49.37,50.21,35.47,.74,70.98,.69,106.45,.03,28.81-.53,49.35-20.8,49.76-48.82,.54-36.26,.56-72.54,0-108.8Zm-22.22,106.52c-.09,18.45-10.26,28.63-28.5,28.79-17.73,.16-35.47,.03-53.21,.03-17.35,0-34.7,.16-52.05-.05-16.75-.2-27.63-10.7-27.75-27.37-.27-35.48-.24-70.96-.01-106.44,.11-16.7,10.69-27.57,27.52-27.74,35.47-.35,70.94-.34,106.41,0,17.55,.17,27.51,10.8,27.59,28.66,.16,34.71,.16,69.42,0,104.13Zm293.02-123.14c-5.9-14.66-17-24.55-33.13-24.97-55.46-1.43-110.95-1.24-166.42-.07-2.99,.06-6.08,.94-8.91,1.99-18.33,6.8-29.2,25.06-26.33,43.92,2.96,19.42,19.19,34.09,40.34,34.66,25.8,.7,51.63,.17,77.45,.17,0,.03,0,.06,0,.09,25.05,0,50.1-.02,75.15,0,13.28,.02,25.18-3.48,34.19-13.82,10.81-12.42,13.82-26.71,7.68-41.99Zm-40.26,33.36c-25.43,.14-50.86,.04-76.29,.04-25.05,0-50.09,.09-75.14-.04-13.59-.07-21.28-7.19-21.05-18.98,.22-11.25,7.61-17.97,20.87-18.01,50.48-.14,100.95-.14,151.43,0,13.63,.04,21.45,7.39,21.13,18.99-.3,11.15-7.95,17.93-20.95,18Zm1.73,53.5c-51.65-.24-103.31-.23-154.96-.01-23.57,.1-41.66,18.07-41.68,40.55-.01,22.64,17.98,40.44,41.5,40.61,25.83,.19,51.65,.04,77.48,.05,25.06,0,50.11,0,75.17,0,.77,0,1.54,0,2.31-.01,23.56-.36,41.62-17.88,41.73-40.47,.11-22.47-17.99-40.61-41.55-40.72Zm18.82,44.68c-2.35,10.13-9.79,14.78-19.49,14.83-51.23,.23-102.47,.31-153.7-.03-12.62-.08-20.08-8.23-19.86-19.36,.22-10.92,6.93-17.51,19.83-17.71,25.8-.39,51.62-.12,77.43-.12,25.42,0,50.85-.32,76.27,.13,14.23,.25,22.37,9.98,19.53,22.26ZM161.09,184.59c-22.2-.42-40.7,17.74-40.62,39.9,.07,21.83,17.83,39.66,39.6,39.76,21.8,.11,39.68-17.51,39.91-39.33,.23-21.91-17.13-39.93-38.89-40.34Zm-.75,57.73c-9.48,.03-17.69-7.92-18.01-17.42-.33-9.99,8.04-18.22,18.33-18.01,9.95,.2,17.41,7.87,17.28,17.76-.13,9.69-8.05,17.64-17.6,17.67Zm102.85-57.73c-22.22-.43-40.65,17.64-40.63,39.83,.02,21.81,17.73,39.68,39.48,39.83,21.77,.15,39.76-17.43,40.18-39.25,.41-21.56-17.4-39.99-39.03-40.41Zm-.94,57.74c-9.58-.03-17.35-7.9-17.46-17.69-.11-10,7.22-17.56,17.19-17.73,9.92-.17,17.92,7.23,18.24,16.87,.34,9.98-7.99,18.58-17.97,18.55Zm101.87-57.74c-21.66,.11-39.6,18.16-39.57,39.83,.03,22.25,18.49,40.31,40.72,39.84,21.8-.46,39.08-18.43,38.85-40.4-.23-21.76-18.17-39.37-40-39.26Zm1.14,57.74c-9.95,.48-18.67-7.78-18.78-17.77-.1-9.59,7.72-17.48,17.52-17.66,10.05-.19,17.74,7.04,18.04,16.97,.29,9.68-7.28,18.01-16.77,18.47Z"/>
</svg>