<?xml version="1.0" encoding="UTF-8"?>
<svg id="Layer_1" data-name="Layer 1" xmlns="http://www.w3.org/2000/svg" viewBox="0 0 800 800">
  <defs>
    <style>
      .cls-1 {
        fill: none;
      }

      .cls-2 {
        fill: #303133;
      }
    </style>
  </defs>
  <rect class="cls-1" width="800" height="800"/>
  <path class="cls-2" d="M259.55,211.24c-11.52,6.77-20.95,1.5-29.77-.88-24.9-6.7-44.18-1.76-59.66,20.56-17.12,24.67-39.26,46.16-54.31,71.89-17.2,29.4-43.01,31.53-71.77,32.86,.56-9.8,8.45-13.58,13.32-19.07,29.5-33.25,59.26-66.28,89.25-99.09,35.94-39.31,67.84-41.39,112.94-6.29Zm388.57,4.13c-5.69-6.26-11.82-12.31-18.53-17.43-24.66-18.85-69.86-11.48-90.24,14.63,10.08,4.88,19.34-.14,28.41-2.53,25.02-6.6,44.2-.65,59.4,21.48,15.52,22.59,35.29,42.42,49.55,65.69,17.76,28.98,42.12,40.37,79.19,37.46-37.14-41.16-72.35-80.32-107.77-119.3Zm125.01,196.42c-12.3,17.43-16.73,36.27-21.68,55.9-12.3,48.73-31.52,93.64-79.38,118.15-80.68,41.32-176.33,10.44-217.6-69.97-10.12-19.73-18.24-40.5-26.87-60.97-5.72-13.56-11.04-27.29-28.92-27.77-18.2-.49-23.84,13.16-29.39,26.83-11.32,27.87-23.97,55.01-38.31,81.57-45.93,85.09-212.01,96.71-263.28-6.37-12.64-25.41-21.99-51.72-27.03-79.53-2.15-11.86-6.21-22.27-14-31.76-12.34-15.02-10.66-33.13-7.73-50.59,1.67-9.95,11.26-11.74,19.81-13.22,53.53-9.3,107.3-16.46,181.75-17.15,30.01-.41,79.23,5.93,127.59,18.21,33.12,8.41,65.88,8.89,98.9,.18,103.66-27.38,207.49-20.13,311.28-1,21.19,3.91,30.66,35.14,14.88,57.51Zm-476.56-35.56c-29.34-10.64-60.09-12.15-90.92-12.59-24.24,.29-48.4,1.32-72.22,6.35-37.94,8.01-56.18,30.37-56.04,69,.03,7.84,.49,15.69,1.13,23.51,4.81,58.62,42.81,102.33,96.16,110.76,65.94,10.41,116.21-15.96,140.6-73.27,8.53-20.03,13.58-40.92,17.23-62.21,5.89-34.31-2.92-49.58-35.95-61.55Zm422.41,59.7c-.14-33.49-17.32-55.47-49.71-64.13-24.84-6.64-50.31-7.95-75.89-8.1-33.47,.32-66.9,1.61-98.43,14.38-28.55,11.56-36.06,24.98-31.65,54.97,3.43,23.33,8.5,46.28,18.05,68.05,24.17,55.1,70.67,80.62,133.52,73.07,54.3-6.52,92.11-43.8,101.63-101.1,2.03-12.19,2.53-24.75,2.48-37.13Z"/>
</svg>