<?xml version="1.0" encoding="UTF-8"?>
<svg id="Layer_1" data-name="Layer 1" xmlns="http://www.w3.org/2000/svg" viewBox="0 0 800 800">
  <defs>
    <style>
      .cls-1 {
        fill: none;
      }

      .cls-2 {
        fill: #070707;
      }
    </style>
  </defs>
  <rect class="cls-1" width="800" height="800"/>
  <path class="cls-2" d="M362.43,672.5c-12.8,3.47-9.95-5.68-10.99-13.08-1.69-12.08,5.56-10.43,13.42-11.31,12.13-1.37,10.48,5.66,11.29,13.52,1.23,11.84-5.12,12.18-13.72,10.87Zm328.14-218.05c-.36,90.29-.21,180.58-.22,270.87,0,17.15-2.9,19.97-20.57,19.97-94.34,.01-188.68,0-283.02,0-91.92,0-183.84-.05-275.76,.07-10.95,.01-21.89-.55-32.34-3.43-34.37-9.47-53.54-35.09-53.55-71.04-.06-172.92-.08-345.84,.01-518.77,.02-45.09,22.14-79.4,58.52-92.27,12.5-4.42,25.32-4.32,38.18-3.91,9.16,.29,12.2,6.23,12.16,14.65-.1,18.94,.56,37.92-.27,56.82-.45,10.19,1.71,13.39,12.85,13.36,173.76-.43,347.52-.3,521.29-.3,21.18,0,22.52,1.34,22.52,22.52,0,25.8-.61,51.62,.27,77.38,.41,12.01-7.01,8.58-13.17,9.1-7.05,.6-11.98,.53-11.56-9.51,.87-20.92-.29-41.93,.51-62.86,.37-9.78-1.83-12.62-12.2-12.59-162.88,.38-325.75,.23-488.63,.37-10.3,0-24.01-4.6-29.94,2.1-5.07,5.73-1.66,19.13-1.67,29.14-.04,135.84-.03,271.68-.03,407.52,0,17.96-2.73,20.76-21.06,20.66-11.78-.06-23.3,1.15-34.32,5.52-19.96,7.92-30.71,25.1-29.18,46.52,1.53,21.5,15.59,37.82,36.78,42.17,7.87,1.62,15.83,2.54,23.97,2.53,181.42-.11,362.84-.15,544.27,.12,9.2,.01,12.05-1.91,12.01-11.68-.43-85.05,.01-170.1-.56-255.15-.08-11.17,4.13-11.61,13.05-11.88,9.67-.29,11.71,2.72,11.67,11.97ZM49.24,155.42c.04,150.31,.02,300.63,.02,450.94v12.68c15.81-12.11,32.08-17.9,49.41-18.33,10.3-.26,11.24-4.26,11.22-12.74-.22-120.09-.15-240.18-.15-360.27,0-45.94-.25-91.88,.21-137.82,.09-9.23-2.81-10.69-11-8.93-17.24,3.7-30.03,13.21-38.82,28.17-8.38,14.25-10.9,29.98-10.89,46.31Zm711.04,160.01c-57.97,57.73-115.76,115.63-173.61,173.48-.28,.28-.62,.53-.88,.83-34.7,41.54-78.25,71.1-126.73,94.17-5.66,2.7-11.04,4.23-17.22,4.21-33.86-.11-67.72-.05-101.58-.05-33.46,0-66.91-.08-100.37,.03-19.81,.07-33.6,12.72-33.36,30.21,.24,17.52,14.03,29.93,33.85,30.05,26.2,.16,52.42,.57,78.59-.21,11.33-.34,8.37,6.68,8.4,12.43,.03,5.84,2.8,12.75-8.55,12.4-26.98-.82-54.01,0-81.01-.34-31.59-.41-55.55-24.34-55.5-54.82,.05-30.53,24.08-53.95,55.95-54.02,64.09-.14,128.18-.21,192.27,.17,8,.05,12.48-2.11,15.73-9.41,19.93-44.82,50.87-81,86.08-114.84,60.42-58.07,118.88-118.17,178.1-177.49,11.23-11.25,24.17-15.46,39.62-10.84,13.79,4.12,21.39,14.09,24.18,27.52,3.08,14.84-3.67,26.27-13.97,36.52Zm-72.86,21.21c-5.98-6.1-9.36-8.07-16.66-.66-48.89,49.68-98.07,99.1-147.87,147.88-16.62,16.28-30.68,33.85-40.83,57.68,16.17-6.68,30.08-12.7,41.01-23.58,55.11-54.86,109.84-110.09,165.22-164.67,7.61-7.5,4.91-10.74-.87-16.65Zm60.04-58.85c-6.1-6.44-12.94-5.04-18.96,.92-8.26,8.18-16.58,16.3-24.6,24.71-2.53,2.66-8.4,4.96-5.7,9.25,3.52,5.6,9.06,9.94,14.14,15.23,2.09-1.69,3.68-2.77,5.02-4.09,9.37-9.33,18.68-18.72,28.04-28.07,5.47-5.47,7.9-11.79,2.07-17.95Zm-359.53,38.35c-.02,14.2-3.64,17.84-17.69,17.95-11.68,.1-23.37,.42-35.02-.13-6.62-.31-8.18,2.11-7.87,8.2,.45,8.83,.18,17.71,.09,26.56-.09,8.79-4.83,13.63-13.43,13.66-43.48,.16-86.97,.17-130.45-.01-8.61-.04-13.31-4.99-13.31-13.77-.03-55.55-.07-111.11,.04-166.66,.02-10.59,6.77-13.22,16.13-13.16,31,.19,62.01,.07,93.01,.07,30.2,0,60.4-.04,90.59,.02,14.72,.02,17.9,3.08,17.92,17.37,.06,36.63,.06,73.27,0,109.9Zm-23.95-94.23c.18-8.14-2.93-8.97-9.72-8.87-24.98,.35-49.97,.14-74.96,.14-25.39,0-50.78,.21-76.17-.14-6.55-.09-8.95,1.27-8.89,8.44,.35,42.71,.32,85.42,.02,128.14-.05,6.87,1.94,8.83,8.77,8.72,23.77-.39,47.55-.08,71.33-.19,9.19-.04,21.42,2.98,26.77-1.69,6.37-5.56,1.33-18.15,2.13-27.65,.1-1.2,.06-2.42,0-3.63-.48-10.57,4.41-15.63,15.14-15.42,12.49,.24,25-.31,37.47,.2,6.59,.27,8.06-2.12,8-8.26-.29-26.59-.5-53.2,.1-79.78Zm132.88,193.34c.15,10.53-4.78,15.65-15.27,15.62-12.47-.03-24.96,.35-37.42-.15-6.42-.26-8.16,1.82-7.98,8.08,.43,15.68,.2,31.38,.12,47.07-.07,13.51-3.77,17.41-16.88,17.52-17.3,.14-34.61-.07-51.91,.07-11.07,.09-16.1-5.06-15.94-16.2,.27-18.9,.08-37.82,.07-56.72,0-18.51-.07-37.01,.02-55.52,.06-13.18,3.39-16.77,16.01-16.8,37.82-.1,75.65,.11,113.47-.13,11.36-.07,15.99,5.06,15.72,16.13-.33,13.67-.23,27.36-.03,41.03Zm-31.42-32.92c-27.39,.48-54.8,.3-82.2,.03-5.68-.06-7.71,1.37-7.52,7.33,.42,13.68,.13,27.39,.13,41.09,0,7.25,0,14.5,0,21.75,0,27.02,0,26.59,26.86,26.83,8.64,.08,9.77-3.15,9.57-10.43-.45-16.1-.11-32.23-.15-48.34-.02-9.42,4.56-14.09,14.04-14.05,12.89,.05,25.82-.55,38.67,.18,10.85,.62,7.85-6.83,7.56-11.99-.27-4.79,4.33-12.6-6.97-12.4Zm164.48,299.05c.04,10.56-4.89,15.58-15.34,15.56-19.32-.04-38.64-.01-57.96-.01-18.11,0-36.23,.08-54.34-.02-13.62-.08-17.43-3.75-17.54-16.87-.11-13.68,.08-27.37-.06-41.05-.1-9.95,4.43-14.89,14.55-14.78,12.88,.14,25.77-.25,38.64,.16,5.91,.19,7.61-1.84,7.44-7.55-.36-12.06-.18-24.14-.09-36.21,.1-13.17,3.39-16.7,16.04-16.79,17.71-.13,35.42,.15,53.13-.1,10.52-.15,15.59,4.34,15.54,15.06-.14,34.21-.14,68.41,0,102.62Zm-24.1-17.5c-.43-16.09-.14-32.21-.14-48.31,0-29.26,.01-29.01-29.38-27.68-6.28,.28-7.13,2.59-7,7.86,.29,12.47-.03,24.96,.13,37.44,.13,10.64-5.14,15.44-15.53,15.38-12.48-.07-25,.58-37.44-.2-9.8-.61-8.04,5.79-7.34,10.82,.7,5.05-4.97,13.92,7.19,13.53,13.68-.44,27.38-.1,41.07-.1,13.29,0,26.6-.4,39.86,.16,7.11,.3,8.76-2.26,8.59-8.89Zm-36.46-370.64c-.05,12.61-3.95,16.61-16.55,16.65-37.47,.12-74.94-.03-112.41,.09-10.96,.04-16.31-4.67-16.23-15.96,.21-29.81,.24-59.62-.02-89.42-.1-11.28,4.86-16.02,16.06-15.82,18.93,.34,37.87,.09,56.81,.09,18.53,0,37.07-.07,55.6,.02,13.18,.07,16.69,3.38,16.74,16.13,.11,29.41,.11,58.81,0,88.22Zm-24.03-72.85c.11-5.91-1.81-7.38-7.49-7.32-27.34,.27-54.68,.27-82.02,0-5.65-.05-7.64,1.34-7.52,7.29,.36,19.29,.32,38.59,.02,57.88-.09,5.75,1.63,7.67,7.48,7.5,13.26-.39,26.53-.12,39.8-.12,14.07,0,28.15-.25,42.21,.12,5.81,.16,7.6-1.69,7.51-7.47-.31-19.29-.34-38.59,.02-57.88Zm-217.81,267.36c.12,10.52-4.71,15.7-15.23,15.69-42.3-.02-84.6-.02-126.9,0-10.52,0-15.35-5.16-15.23-15.69,.2-17.72,.29-35.45-.03-53.17-.2-11.17,4.54-16.19,15.85-16.02,20.94,.32,41.9,.09,62.85,.09,20.95,0,41.9,.22,62.85-.09,11.31-.17,16.07,4.86,15.87,16.02-.31,17.72-.23,35.45-.03,53.17Zm-24.07-37.61c-.23-5.87-1.88-7.42-7.55-7.3-15.67,.35-31.35,.12-47.02,.12-9.24,0-18.49,0-27.73,0-27.6,0-27.35,0-26.92,27.6,.1,6.8,1.92,8.82,8.76,8.71,24.51-.39,49.03-.15,73.55-.15,28.28,0,28.07,0,26.92-28.98Z"/>
</svg>