<?xml version="1.0" encoding="UTF-8"?>
<svg id="Layer_1" data-name="Layer 1" xmlns="http://www.w3.org/2000/svg" viewBox="0 0 800 800">
  <defs>
    <style>
      .cls-1 {
        fill: #020202;
      }

      .cls-2 {
        fill: none;
      }
    </style>
  </defs>
  <rect class="cls-2" width="800" height="800"/>
  <path class="cls-1" d="M529.23,630.26c35.95-24.44,70.27-47.88,104.72-71.12,13.87-9.36,27.02-19.92,44.38-23.02,24.32-4.34,52.44,7.55,65.57,28.68,9.02,14.51,6.01,32.3-8.59,42.54-29.51,20.69-59.51,40.69-89.33,60.92-6.09,4.13-12.26,4.58-16.92-1.86-5.18-7.16-1.9-12.77,4.55-17.16,27.47-18.71,54.96-37.4,82.45-56.09,12.29-8.36,12.71-14.37,1.65-24.22-15.21-13.55-35.73-14.63-54.27-2.12-48.8,32.93-97.64,65.81-146,99.37-17.36,12.04-34.64,17.22-56.26,13.48-48.15-8.33-96.69-14.42-145.08-21.36-7.85-1.13-14.85-3.89-13.88-13.11,1.04-9.87,8.5-11.29,17.06-9.99,48.34,7.32,96.68,14.57,145.03,21.79,8.29,1.24,16.65,3.15,24.88-.31,11.16-4.69,18-15.79,17.15-27.66-.88-12.38-9.69-22.15-23.71-25.05-22.75-4.7-45.62-8.84-68.42-13.29-18.09-3.52-36.13-7.27-54.24-10.67-8.08-1.51-14.13-4.82-12.39-14.12,1.64-8.74,8.36-9.73,15.83-8.28,42.87,8.32,85.94,15.73,128.5,25.37,22.51,5.09,34.48,21.98,37.32,47.27Zm154.32-141.57c26.56-.02,36.82-10.48,36.84-37.34,0-14.03,.17-28.06-.04-42.08-.29-19.23-12.38-31.2-31.79-31.35-23.25-.18-46.51,0-69.76-.07-8.09-.03-16.02,.38-16.2,11.14-.2,11.59,8.31,11.95,16.75,11.95,22.45,0,44.91,.19,67.36-.1,7.56-.1,11.39,2.82,11.43,10.32,.07,14.83,.11,29.66-.03,44.49-.07,7.43-4.01,10.32-11.54,10.31-100.23-.15-200.47-.14-300.7,0-8.16,.01-11.77-3.1-11.59-11.32,.26-11.62,.06-23.24,.06-34.87q0-18.81,18.26-18.82c54.53,0,109.05,0,163.58,0,7.83,0,14.92-1.47,15.13-11.26,.2-9.61-6.18-11.84-14.41-11.84-58.14,.06-116.27-.1-174.41,.11-18.14,.07-29.93,12.1-30.3,30.22-.28,13.62-.08,27.25-.08,40.88,0,30.42,9.12,39.65,39.18,39.65,48.11,0,96.22,0,144.34,0,49.32,0,98.63,.03,147.95-.01Zm-1.36-416c15.13,0,15.87,.73,15.95,15.33,.06,10.42,.02,20.84,0,31.26-.02,18.03-.07,18.09-18.06,18.09-64.55,0-129.1,.04-193.66-.04-7.75,0-13.9,2.16-14.43,10.77-.52,8.57,5.09,12.26,12.97,12.27,68.96,.05,137.93,.29,206.88-.28,17.29-.14,28.23-13.17,28.47-30.9,.22-16.03,.21-32.06,0-48.09-.23-18.88-11.91-31.43-30.48-31.47-102.64-.21-205.28-.22-307.93,.02-18,.04-29.52,12.48-29.78,30.73-.24,16.43-.25,32.87,0,49.29,.28,17.84,11.16,29.71,28.79,30.52,15.6,.72,31.27,.3,46.9,.18,7.76-.06,13.73-3.39,13.41-11.91-.32-8.4-6.29-11.2-14.15-11.12-13.63,.14-27.27-.28-40.89,.14-8.9,.28-12.26-3.41-12.01-12.11,.37-12.81,.7-25.68-.09-38.46-.69-11.22,3.64-14.53,14.57-14.43,49.31,.45,98.63,.2,147.95,.2,48.51,0,97.03-.01,145.54,0ZM142.83,764.01c-5.73,4.21-6.79,9.95-3.03,15.77,3.96,6.12,10.04,6.54,15.81,2.92,9.14-5.74,17.91-12.09,26.83-18.19,18.54-12.67,38.93-18.14,61.39-16.39,75.88,5.94,151.77,11.68,227.65,17.66,17.85,1.41,34.29-2.41,49.11-12.31,25.62-17.13,51.01-34.59,76.55-51.83,7.11-4.8,11.76-10.83,6-18.87-5.54-7.73-12.39-4.61-18.91-.13-22.77,15.63-45.96,30.65-68.36,46.78-14.4,10.37-29.48,14.66-47.23,13.2-72.66-5.95-145.37-11.26-225.39-17.37-35.66-6.58-68.36,15.2-100.41,38.76Zm27.28-200.53c-27.36,20.21-54.46,40.77-81.67,61.17-8.97,6.72-17.89,13.5-26.92,20.13-6.9,5.07-13.44,10.98-6.67,19.63,6.79,8.68,14.22,3.51,20.84-1.67,.63-.49,1.25-1,1.89-1.48,34.9-26.16,69.81-52.3,104.71-78.47,16.04-12.02,33.88-19.15,53.9-21.57,22.48-2.71,43.71,3.63,65.28,7.6,7.94,1.46,14.04-.48,16.09-8.32,1.96-7.5-2.7-12.6-9.8-13.8-19.69-3.34-38.95-9.58-56.69-8.99-31.57-.14-57.73,8.59-80.97,25.76ZM720.35,292.57c-.23,19.51-11.67,31.18-31.31,31.91-8,.3-16.02,.06-24.04,.06-91.35,0-182.7,0-274.05,0-29.56,0-38.84-9.27-38.86-38.72,0-13.22-.11-26.43,.03-39.65,.22-20.9,11.76-32.39,32.95-32.45,50.48-.12,100.97-.04,151.45-.04,49.68,0,99.36-.04,149.04,.02,23.38,.03,34.73,11.31,34.81,34.41,.06,14.82,.15,29.64-.02,44.45Zm-37.21-55.95c-48.46,.62-96.94,.26-145.41,.26-50.07,0-100.15,.18-150.22-.16-9.81-.07-13.82,3.08-13.35,13.16,.62,13.19,.41,26.43,.06,39.63-.23,8.54,2.88,12.35,11.85,12.34,100.15-.16,200.3-.16,300.44,0,8.38,.01,11.64-3.74,11.64-11.5,0-12.81-.45-25.65,.14-38.44,.52-11.2-3.22-15.45-15.15-15.3Zm-370.06,173.7c-5.85,6.54-11.96,13.08-18.91,18.36-7.77,5.9-7.94,13-6.32,21.21,1.55,7.8,3.4,15.59,4.24,23.48,1.34,12.55-7.59,19.69-17.51,12.52-22.65-16.39-43.3-16.52-65.91,.03-9.43,6.9-18.05,.35-17.76-11.36,1.05-7.09,1.04-14.55,3.38-21.18,4.43-12.55,.6-21.24-9.52-28.82-5.4-4.04-10.13-9.12-14.6-14.21-7.58-8.64-4.19-18.2,7.14-20.32,8.25-1.55,16.62-3.42,24.94-3.41,9.68,.01,14.23-4.72,17.54-12.88,3.14-7.74,6.92-15.27,11.04-22.55,5.75-10.14,17.65-10.79,21.08-.05,8.8,27.54,26.19,39.89,55.01,39.43,10.16-.16,13.33,11.71,6.15,19.74Zm-33.53-.97c-21.39,1.74-31.7-10.05-38.65-27.67-4.45,20.76-18.07,27.53-38.06,27.28,6.19,9.31,14.59,12.79,17.05,20.77,2.5,8.1-3.16,16.15-1.2,26.58,15.51-13.93,30.91-12.44,47.4-1.14-8.34-19.32-1.22-33.15,13.45-45.84Zm33.15-162.9c-5.6,6.23-11.43,12.47-18.07,17.51-8.07,6.12-8.66,13.46-6.71,22.25,1.72,7.76,3.43,15.59,4.19,23.49,1.16,11.98-7.52,19.03-16.89,12.3-22.92-16.47-43.89-16.94-66.87-.1-9.34,6.84-17.83,.03-17.4-11.86,.95-6.29,.86-12.98,3.07-18.8,5.47-14.43-.13-24.25-11.21-32.78-4.09-3.15-7.46-7.24-11.28-10.76-4.14-3.82-6.42-8.24-4.63-13.89,1.83-5.77,6.51-7.51,12.02-8.22,7.54-.97,15.02-3.09,22.55-3.19,9.76-.12,15.21-4.33,18.56-13.24,2.8-7.42,6.57-14.53,10.43-21.49,6.02-10.88,18.09-11.69,21.69-.29,8.61,27.23,25.76,39.2,54.06,38.91,11.07-.11,14.27,11.53,6.5,20.17Zm-32.39-1.26c-21.56,2.01-32.48-8.96-38.87-27.67-5.65,19.53-17.85,28.66-38.89,28.6,19.33,10.83,20.1,26.69,15.43,45.3,16.26-13.11,31.64-12.22,48.04-.05-7.5-19.29-2.33-33.76,14.29-46.18Zm31.26-161.75c-22.31,15.04-29.45,34.62-19.66,60.21,1.83,4.78,.99,10.45-3.83,14.17-5.39,4.16-11.24,2.72-15.6-.85-20.95-17.13-40.86-15.33-62.27,.03-10.9,7.82-19.85,1.48-19.23-11.5,.92-5.89,.76-12.23,2.96-17.6,6.38-15.61-.88-25.63-12.31-34.66-3.74-2.96-6.77-6.81-10.35-10.01-4.32-3.86-6.12-8.49-4.29-13.98,1.92-5.75,6.9-7.9,12.34-7.71,26.28,.92,43.44-10.32,50.39-36.28,1.53-5.71,5.5-9.86,12.13-9.79,6.69,.07,10.5,4.63,11.88,10.17,6.61,26.63,24.86,36.21,50.53,35.88,5.52-.07,10.24,2.33,12.04,8.12,1.75,5.63-.08,10.66-4.72,13.79Zm-31.55-1.98c-20.72,.88-32.39-9.17-38.77-28.06-4.98,20.47-18.66,27.64-37.76,27.68q15.46,19.6,14.61,47.76c16.21-14.96,31.56-13.21,47.99-1.74-7.65-19.25-2.32-33.64,13.93-45.64Z"/>
</svg>