<?xml version="1.0" encoding="UTF-8"?>
<svg id="Layer_1" data-name="Layer 1" xmlns="http://www.w3.org/2000/svg" viewBox="0 0 800 800">
  <defs>
    <style>
      .cls-1 {
        fill: #020202;
      }

      .cls-2 {
        fill: none;
      }
    </style>
  </defs>
  <rect class="cls-2" width="800" height="800"/>
  <path class="cls-1" d="M599.31,383.52c6.57,8.36,7.54,16.03-.4,21.43-8.27,5.63-14.75,.68-20.64-5.61-7.15-7.62-14.66-14.93-22.21-22.17-8.04-7.71-7.71-14.89,.3-22.47,7.9-7.47,15.49-15.28,23.07-23.08,6.17-6.35,13.1-10.22,20.71-3.26,7.74,7.08,4.55,14.16-2,20.46-1.44,1.38-2.56,3.09-4.76,5.78,18.99,4.95,37.13,9.13,53.74,17.7,59.83,30.88,95.28,79.11,105.77,145.95,13.29,84.62-37.26,173.07-121,204.56-2.74,1.03-5.51,2.01-8.34,2.71-7.67,1.89-13.5-.77-15.89-8.29-2.21-6.94,.83-12.28,7.5-15.21,5.74-2.52,11.71-4.52,17.38-7.17,67.23-31.38,100.26-96.01,96.17-157.02-5.2-77.63-55.03-137.33-122.82-153.24-1.53-.36-3.11-.52-6.57-1.09Zm-192.89,104.62c17.88-48.1,51.21-81.48,99.54-99.39,8.69-3.22,16.1-7.64,12.5-18-3.99-11.51-13.5-9.31-22.05-5.82-74.07,30.21-117.1,85.22-124.14,164.63-5.98,67.43,20.42,123.12,73.29,165.71,25.18,20.28,54.54,31.75,85.72,37.93,.45,3.88-1.95,5.33-3.67,6.97-6.69,6.4-9.39,13.49-1.68,20.45,7.04,6.35,13.81,3.36,19.78-2.75,7.89-8.08,15.91-16.04,23.93-23.99,7.8-7.72,7.46-15.15-.33-22.7-7.51-7.28-14.98-14.61-22.18-22.18-6.01-6.32-12.6-10.69-20.7-4.58-7.49,5.65-5.74,12.88-.05,20.9-96.47-19.17-154.23-124.99-119.97-217.17Zm20.06-150.61c8.81,.03,16.65-2,16.91-12.31,.27-11.15-7.88-13.24-17.21-13.23-55.23,.06-110.46,.07-165.69,0-9.23-.01-17.65,1.75-17.53,12.92,.12,11.19,8.7,12.67,17.83,12.64,27.2-.1,54.39-.04,81.59-.04,28.03,0,56.07-.05,84.1,.03Zm119.04,275.93c19.26-42.49,38.51-84.99,57.8-127.47,3.62-7.98,4.84-16.14-4.36-20.47-10.05-4.73-15.37,2.18-19.14,10.57-6.48,14.44-12.99,28.86-19.53,43.27-12.75,28.06-25.65,56.06-38.26,84.19-5.17,11.53-.36,21.22,9.96,21.12,7.61,0,10.85-5.28,13.54-11.21Zm98.75-25.1c11.85-11.74,23.81-23.39,35.27-35.5,5.82-6.15,4.79-13.09-.94-18.95-10.79-11.03-21.81-21.85-32.77-32.7-5.75-5.69-12.27-7.75-18.78-1.76-7.02,6.46-5.25,13.3,.78,19.54,6.38,6.6,12.59,13.4,19.39,19.54,5.03,4.54,4.48,7.67-.23,11.98-7.07,6.47-13.79,13.36-20.28,20.41-3.49,3.79-5.07,8.26-2.55,13.71,2.28,4.9,6.04,6.53,10.87,6.98,3.44-.08,6.78-.8,9.24-3.25Zm-305.54-100.18c8.85,.07,16.53-2.16,16.76-12.47,.23-10.27-7.09-13.09-16.12-13.07-26.77,.05-53.54,.05-80.31,0-9.01-.02-16.35,2.77-16.13,13.06,.22,10.33,7.9,12.55,16.74,12.48,12.97-.1,25.93-.02,38.9-.02,13.39,0,26.77-.08,40.16,.03Zm108.53,65.79c10.87,11,21.69,22.05,32.6,33.01,5.84,5.88,12.86,7.36,18.87,1.41,6.48-6.41,4.65-13.55-1.47-19.8-7.58-7.75-20.47-15.12-21.2-23.51-.86-9.8,13.67-16.24,21.07-24.55,5.88-6.6,7.7-13.62,1.39-19.88-6.57-6.52-13.71-3.9-19.78,2.22-10,10.1-20.04,20.16-30.13,30.17-3.05,3.03-5.63,6.2-5.41,10.69-.29,4.15,1.27,7.43,4.05,10.24Zm71.72-228.12c-.48,7.71-4.31,13.05-12.23,13.15-8.62,.11-12.56-5.5-12.83-13.8-.1-2.93-.03-5.86-.03-8.79,0-81.18-.14-162.36,.2-243.53,.04-8.93-1.51-11.9-11.36-11.85-84.99,.47-169.97,.38-254.96,.09-8.07-.03-10.49,1.89-10.4,10.22,.46,39.33,.21,78.67,.2,118,0,20.69-1.96,22.59-23.21,22.6-38.94,0-77.87,.3-116.8-.22-8.88-.12-10.92,2.34-10.9,11.01,.27,151.48,.34,302.95-.1,454.43-.03,10.82,4,11.68,12.79,11.66,97.13-.24,194.26-.15,291.39-.15,4.19,0,8.37,0,12.56,0,16.77,.02,23.44,3.61,22.48,13.04-1.41,13.87-12.33,12.36-21.94,12.36-97.55,.02-195.1,.01-292.64,.01-9.63,0-19.26,.03-28.89,0-17.68-.07-20.56-2.88-20.56-20.19-.02-81.18,0-162.36,0-243.54s.13-162.36-.18-243.53c-.03-9.1,2.63-15.69,9.07-22.07,46.98-46.53,93.74-93.27,140.32-140.2,6.08-6.12,12.39-8.81,21.01-8.79,95.87,.21,191.75,.11,287.62,.16,16.41,0,19.41,3.2,19.42,20.07,.02,87.87,0,175.74,0,263.61,0,2.09,.1,4.19-.04,6.28ZM192.58,178.74c-.24-32.1-.12-64.21-.12-94.1-33.54,33.5-68.01,67.94-101.98,101.87,30.39,0,62.49-.17,94.59,.15,6.35,.06,7.55-2.17,7.5-7.92Zm24.99,147.26c-.55,27.47-23.69,49.65-51.16,49.05-27.72-.61-49.56-23.17-49.3-50.91,.26-27.58,23-49.93,50.52-49.67,28.21,.27,50.51,23.28,49.94,51.53Zm-25.17-.66c.33-13.44-10.54-24.84-24.17-25.37-13.99-.54-26,10.96-25.95,24.84,.05,13.46,11.2,24.58,24.81,24.77,13.46,.18,24.99-10.86,25.31-24.24Zm25.17,151.25c-.53,27.48-23.63,49.67-51.1,49.1-27.72-.58-49.59-23.11-49.36-50.85,.23-27.59,22.93-49.96,50.47-49.72,28.22,.24,50.54,23.22,49.99,51.47Zm-25.17-1.58c-.28-13.51-11.53-24.43-25.15-24.41-14.02,.01-25.62,12.03-24.95,25.84,.66,13.5,12.21,24.17,25.76,23.8,13.46-.36,24.61-11.93,24.34-25.23Z"/>
</svg>