<?xml version="1.0" encoding="UTF-8"?>
<svg id="Layer_1" data-name="Layer 1" xmlns="http://www.w3.org/2000/svg" viewBox="0 0 800 800">
  <defs>
    <style>
      .cls-1 {
        fill: none;
      }
    </style>
  </defs>
  <rect class="cls-1" width="800" height="800"/>
  <path d="M195.69,379.19c13.6-18.12,26.85-35.17,39.38-52.74,5.66-7.94,12.25-10.98,22-10.96,143.92,.24,287.85-.51,431.76,.61,39.77,.31,54.82-24.96,54.21-54.49-1.02-49.74-.27-99.51-.28-149.27-.01-39.04-16.5-55.7-55.16-55.7-151.9-.01-303.79,0-455.69-.02-4.17,0-8.89,1.05-12.38-.53-3.74-1.7-8.98-6.13-8.77-9.03,.29-4.02,4.45-8.5,8.11-11.27,2.22-1.68,6.6-.58,10.02-.58,153.8-.01,307.59-.03,461.39,0,46.53,0,73.58,27.02,73.6,73.42,.02,52.42,.04,104.83,0,157.25-.04,44.26-27.38,71.77-71.7,71.8-142.02,.08-284.05,.13-426.07-.18-9.47-.02-15.21,2.98-20.54,10.61-11.94,17.11-24.76,33.61-37.37,50.24-9.26,12.22-15.69,12.3-24.8,.28-13.31-17.54-26.67-35.04-39.46-52.95-4.21-5.89-8.67-8.03-15.92-8.22-15.82-.41-32.15-.05-47.29-3.9-27.57-7-45.69-32.39-45.82-60.91-.26-57.35-.32-114.71,0-172.06,.21-36,28.64-64.23,65.45-65.26,20.49-.57,41.01-.08,61.51-.15,7.73-.03,14.05,2.2,14.02,11.07-.03,9.31-7.03,10.39-14.44,10.37-18.61-.05-37.22-.15-55.82,.04-31.25,.32-49.78,18.59-49.88,49.56-.18,53.56-.18,107.11,0,160.67,.1,30.78,18.1,48.48,48.96,48.76,2.28,.02,4.56-.03,6.84,.01,45.36,.88,30.3-6.57,58.98,30.04,8.37,10.68,16.33,21.7,25.17,33.49Zm495.79,317.81c12.14,0,24.31-.31,36.43,.25,10.01,.46,15.93,6.97,15.23,16.06-.72,9.29-5.95,14.44-15.45,14.78-3.41,.12-6.83,.07-10.25,.07-62.24,0-124.49,0-186.73,0-8,0-17.37-1.21-17.37,10.71,0,11.89,9.56,10.49,17.42,10.92,.76,.04,1.52,0,2.28,0,61.86,0,123.73,.03,185.59-.05,5.29,0,10.61-.47,15.87-1.09,14.45-1.7,23.27-10.22,27.41-23.74,8.2-26.82-8.3-49.43-36.19-49.45-96.02-.07-192.05-.03-288.07-.02-2.28,0-4.57-.08-6.83,.12-17.95,1.54-31.07,16.41-31.52,35.66-.47,20.24,10.59,35.24,28.96,37.23,13.14,1.42,26.5,1.13,39.76,1.18,7.2,.03,13.26-2.98,12.73-11.19-.51-7.76-6.09-10.52-13.66-10.35-11,.25-22.03,.38-33.01-.16-8.9-.44-13.77-5.88-14.01-14.79-.23-8.81,3.98-14.48,13.01-15.69,3.74-.5,7.57-.45,11.36-.45,45.54-.03,91.09-.02,136.63-.02,36.82,0,73.63-.01,110.45,0Zm35.81-55.72c18.99-.06,31.57-10.94,34.89-29.23,2.72-15-.7-28.34-12.91-37.68-13.14-10.06-28.83-7.76-43.81-5.43-2.31,.36-5.32,6.51-5.11,9.79,.21,3.27,3.46,7.41,6.52,9.11,2.96,1.65,7.38,.84,11.16,.86,17.47,.11,25.05,5.05,24.66,16.19-.38,10.84-7.39,15.19-24.7,15.2-91.47,.01-182.93,.02-274.4-.03-4.15,0-8.41-.02-12.43-.9-11.12-2.44-16.46-15.53-8.77-23.82,3.7-3.99,11.14-6.29,16.91-6.33,70.59-.42,141.18-.31,211.78-.23,7.58,0,14.24-1.38,14.64-10.33,.37-8.22-5.37-11.02-12.77-11.01-73.25,.02-146.5-.23-219.74,.5-7.95,.08-17.1,4.19-23.48,9.23-11.69,9.23-14.47,28.21-8.22,42.97,6.17,14.55,17.59,21.21,33.18,21.21,48.58,0,97.16,0,145.74,0,48.96,0,97.92,.11,146.88-.05Zm-524.52,123.08c-89.3,3.05-164.82-65.27-167.91-151.88-3.27-91.63,65.81-165.62,157.37-168.55,86.78-2.78,161,69.33,163.25,158.6,2.12,84.16-68.46,158.97-152.71,161.84Zm76.97-61.68c-9.85-38.89-44.38-65.87-85.05-65.89-39.44-.01-73.63,26.04-84.47,63.83-2.45,8.53-.66,13.71,6.95,18.84,46.94,31.64,109.83,31.42,156.46-.69,6.37-4.38,8-8.65,6.11-16.08Zm-85.17-88.09c24.52,.1,43.2-18.42,43.23-42.84,.02-23.86-19.45-43.86-42.86-44.03-22.86-.17-43.66,20.52-43.88,43.65-.22,23.61,19.43,43.13,43.51,43.22Zm101.91-104.65c-53.56-57.12-141.43-59.57-197.8-5.35-56.11,53.97-54.07,139.59-8.85,188.82,10.96-32.95,32.12-56.49,63.44-70.62-29.38-35.81-30.28-72.08-3.1-98.05,24.45-23.36,62.73-23.92,87.82-1.3,28.45,25.66,28.13,60.52-1.5,99.41,31.29,14.23,52.45,37.75,63.21,70.64,41.85-42.82,49.42-127.42-3.21-183.55Zm460.66,6.45c-7.94,14.06-21.4,16.92-36.14,16.91-58.08-.04-116.17-.01-174.25-.01-36.45,0-72.89,.28-109.34-.1-29.95-.31-46.82-23.13-37.7-50.12,5.18-15.34,17.44-24.05,34.73-24.09,48.59-.11,97.19-.04,145.78-.04,48.21,0,96.43,.33,144.64-.12,34.66-.32,44.92,35.18,32.28,57.57Zm-16.06-24.06c-2.71-11.82-12.18-11.85-21.55-11.85-92.95,0-185.9,0-278.85,.03-3.4,0-6.86,.08-10.19,.71-8.56,1.6-13.55,9.08-11.79,17.59,2.06,9.96,8.77,12.97,18.36,12.93,47.42-.21,94.85-.09,142.27-.09,4.17,0,8.35,0,12.52,0,44.01,0,88.02,.07,132.03-.06,12.97-.04,19.82-7.83,17.2-19.26ZM479.16,181.4c-6.05,6.77-12.32,13.59-19.54,18.99-9.17,6.85-9.53,15.07-7.31,24.89,1.83,8.09,3.39,16.31,4.15,24.56,1.32,14.33-8.67,21.49-21.57,15.54-12.3-5.67-24.33-16.51-36.5-16.55-11.75-.04-23.36,11.19-35.36,16.77-11.69,5.44-21.7-1.48-21.3-15.32,1.67-9.97,4.19-21.1,5.09-32.35,.36-4.47-1.74-10.17-4.69-13.65-6.59-7.77-15.12-13.93-21.45-21.87-3.32-4.17-6.31-11.81-4.63-15.9,1.94-4.74,8.73-8.73,14.23-10.5,8.19-2.62,17.1-4.07,25.7-4.06,9.63,.02,14.2-4.47,17.56-12.61,3.31-8.02,6.78-16.23,11.78-23.2,3.3-4.6,9.3-9.64,14.33-9.91,4.36-.23,10.43,5.08,13.34,9.52,5.56,8.48,8.84,18.44,14.23,27.05,2.35,3.76,7.24,7.17,11.57,8.19,10.27,2.43,20.96,3.04,31.37,4.93,13.48,2.44,18.07,15.32,8.99,25.5Zm-26.63-5.37c-12.25-2.7-25.67-2.27-34.27-8.5-8.65-6.27-12.51-19.16-20.5-32.55-6.58,29.17-23.35,42.71-53.47,40.36,25.15,16.55,31.39,37.61,20.92,65.21,23.09-19.31,45.05-19.06,67.27,.99-1.3-14.86-5.77-27.9-2.4-38.44,3.3-10.32,14.58-18.09,22.44-27.07Zm235.63,5.01c-6.05,6.77-12.32,13.59-19.54,18.99-9.17,6.85-9.53,15.07-7.31,24.89,1.83,8.09,3.39,16.31,4.15,24.56,1.32,14.33-8.67,21.49-21.57,15.54-12.3-5.67-24.33-16.51-36.5-16.55-11.75-.04-23.36,11.19-35.36,16.77-11.69,5.44-21.7-1.48-21.3-15.32,1.67-9.97,4.19-21.1,5.09-32.35,.36-4.47-1.74-10.17-4.69-13.65-6.59-7.77-15.12-13.93-21.45-21.87-3.32-4.17-6.31-11.81-4.63-15.9,1.94-4.74,8.73-8.73,14.23-10.5,8.19-2.62,17.1-4.07,25.7-4.06,9.63,.02,14.2-4.47,17.56-12.61,3.31-8.02,6.78-16.23,11.78-23.2,3.3-4.6,9.3-9.64,14.33-9.91,4.36-.23,10.43,5.08,13.34,9.52,5.56,8.48,8.84,18.44,14.23,27.05,2.35,3.76,7.24,7.17,11.57,8.19,10.27,2.43,20.96,3.04,31.37,4.93,13.48,2.44,18.07,15.32,8.99,25.5Zm-26.63-5.37c-12.25-2.7-25.67-2.27-34.27-8.5-8.65-6.27-12.51-19.16-20.5-32.55-6.58,29.17-23.35,42.71-53.47,40.36,25.15,16.55,31.39,37.61,20.92,65.21,23.09-19.31,45.05-19.06,67.27,.99-1.3-14.86-5.77-27.9-2.4-38.44,3.3-10.32,14.58-18.09,22.44-27.07Zm-390.34,9.5c-2.59,2.21-4.55,5.29-7.37,7.08-17.6,11.15-19.14,26.53-13.76,45.04,2.58,8.88,7.27,19.51-3.05,27.27-10.36,7.79-19.48,.54-26.93-4.82-17.14-12.31-33.1-13.43-49.81,.08-3.16,2.56-7.31,3.96-11.12,5.64-12.31,5.43-22.47-1.42-21.8-15.09,1.73-10.36,4.26-21.13,5.02-32.01,.33-4.77-1.74-10.79-4.83-14.49-6.52-7.83-15.04-14-21.5-21.86-3.17-3.85-6.21-11.16-4.59-14.78,2.19-4.9,8.41-9.28,13.84-11.14,7.75-2.66,16.37-3.87,24.6-3.81,11.35,.07,16.8-5.55,20.49-15.36,2.92-7.76,6.95-15.15,10.97-22.44,6.89-12.49,19.54-12.66,26.81-.57,1.17,1.94,2.52,3.93,3.06,6.08,6.54,25.82,24.24,35.27,49.53,35.84,5.97,.13,13.93,4.76,17.2,9.78,4.72,7.24-.55,14.28-6.78,19.57Zm-22.81-11.79c-29.43,4.64-45.12-10.38-53.74-37.4-7.49,28.73-25.17,41.1-54.52,39.75,24.85,15.91,30.84,36.79,19.94,63.97,14.02-6.1,24.69-14.44,35.26-14.32,10.79,.13,21.48,8.57,32.66,13.58-1.24-12.63-5.89-25.34-2.52-35.37,3.5-10.43,14.74-18.25,22.6-27.21,.11-1,.22-2,.32-3Z"/>
</svg>