<?xml version="1.0" encoding="UTF-8"?>
<svg id="Layer_1" data-name="Layer 1" xmlns="http://www.w3.org/2000/svg" viewBox="0 0 800 800">
  <defs>
    <style>
      .cls-1 {
        fill: #030303;
      }

      .cls-2 {
        fill: none;
      }
    </style>
  </defs>
  <rect class="cls-2" width="800" height="800"/>
  <path class="cls-1" d="M331.38,362.83c4.87-.58,8.6,2.04,11.87,5.72,13.04,14.67,26.26,29.18,39.08,44.03,8.56,9.92,8.73,19.6,.16,29.69-12.96,15.25-26.35,30.15-39.85,44.92-6.37,6.97-14.2,8.75-21.73,1.98-7.45-6.7-7.04-14.41-.56-21.8,9.58-10.92,18.75-22.25,29.04-32.46,6.04-5.99,5.02-9.45-.29-14.92-10.1-10.42-19.51-21.51-29.1-32.42-4.53-5.16-5.98-10.96-2.56-17.37,2.9-5.43,7.5-7.79,13.94-7.37Zm-216.5,81.23c12.26,13.76,24.44,27.58,36.79,41.26,8.17,9.05,16.24,10.33,23.33,4.03,7.01-6.23,6.74-14.97-.98-23.81-9.29-10.62-18.33-21.51-28.25-31.51-5.31-5.35-4.1-8.47,.38-13.19,9.72-10.23,18.96-20.92,28.31-31.48,6.52-7.36,8.12-15.31,1-23.03-5.83-6.33-16.15-4.77-23.56,3.38-12.92,14.21-25.63,28.61-38.38,42.98-3.71,4.18-6.68,8.76-5.92,14.8-.93,6.97,3.05,11.82,7.28,16.57Zm116.69,60.13c9.77,1.33,14.94-5.41,17.06-14.26,9.29-38.78,18.48-77.58,27.63-116.4,2.78-11.81-.75-19.73-9.5-21.95-9.56-2.43-16.69,2.76-19.67,15.01-6.39,26.23-12.5,52.53-18.76,78.8-3.44,14.44-6.94,28.87-10,41.58-.12,10.87,5.39,16.16,13.24,17.22Zm14.75,83.6c-9.03-.09-14.23,6.02-15.21,14.69-.87,7.66,8.07,16.23,15.85,15.3,8.7-1.04,14.03-6.03,14.44-15.83-.97-8.63-6.26-14.07-15.07-14.16Zm531.54-4.56c-.3,18.37-11.01,32.03-29.11,34.06-8.14,.91-10.68,3.83-13.61,10.78-4.26,10.12-6.96,17.58,1.75,27.89,9.3,11,5.99,27.56-4.28,38.85-6.08,6.68-12.53,13.03-19.12,19.22-13.9,13.05-31.12,14.44-45.56,2.12-6.04-5.16-10.61-4.2-15.53-.93-6.63,4.39-18.22,1.91-18.31,15.75-.1,15.88-12.41,27.77-28.49,29.25-10.91,1.01-22.02,1-32.95,.25-17.75-1.21-29.67-13.04-31.02-30.92-.47-6.23-2.96-8.39-8.23-10.71-10.72-4.72-19.49-9.1-31.09,.87-10.22,8.78-24.13,6.59-34.77-2.14-9.36-7.68-18.09-16.37-25.94-25.61-9.93-11.7-10.02-28.37,.07-40.09,5.28-6.14,4.07-10.28,2.2-17.29-3.9-14.61-12.06-17.43-26.01-16.97-33.37,1.11-66.8,.4-100.21,.34-13.03-.02-21.16-6.1-21-15.44,.15-9.22,8.28-14.95,21.46-14.98,22.4-.04,44.84-.76,67.19,.3,11.4,.54,14.19-3.52,12.91-13.68-.63-5.03-.18-10.21-.09-15.32,.33-18.91,11.68-32.75,30.19-34.4,7.29-.65,9.77-3.65,12.13-9.45,4.08-10.02,8.56-18.17-1.52-29.03-9.49-10.22-6.36-26.56,3.56-37.88,6.72-7.66,13.97-14.94,21.6-21.69,13.3-11.76,29.69-11.88,44.13-1.01,9.32,7.01,30.95-2.12,32.64-13.78,2.58-17.84,12.98-28.36,30.74-30.19,11.33-1.16,22.77-1.31,34.1,.27,16.08,2.24,27.15,13.47,28.29,29.64,.42,5.93,2.13,8.75,7.81,11,11.6,4.6,22.66,10.4,33.2-1.88,1.11-1.29,3.67-2.14,5.43-1.96,15.53,1.53,14.26-8.46,14.16-19.03-.37-38.92-.15-77.85-.15-116.78q0-15.39-14.83-15.39c-101.8,0-203.59,0-305.39,0s-205.95,.14-308.93-.23c-9.85-.04-12.37,2.65-12.33,12.38,.38,84.93,.32,169.86,.12,254.79-.03,14.27,3.07,27.26,11.92,38.48,7.36,9.35,16.66,15,29.21,14.87,25.94-.27,51.88-.08,77.82-.06,15.47,0,23.17,5.22,22.96,15.52-.21,10.39-7.34,14.92-23.54,14.93-22.01,0-44.09-1.15-66.02,.23-54.18,3.4-82.5-39.8-82.49-82.13,.02-53.47,0-106.95,0-160.42,0-83.75,.01-167.5,0-251.25,0-21.47,5.45-41.15,19.19-57.99,15.25-18.68,35.26-25.69,59.13-25.64,137.96,.32,275.91,.16,413.87,.16,43.63,0,87.29,1.13,130.87-.3,51.13-1.68,76.16,39.75,77.82,74.18,.85,17.66,.44,35.38,.44,53.07,.03,86.11,.1,172.22-.13,258.33-.02,7.92,1.63,13.87,7.51,19.79,13.3,13.38,13.67,30.95,1.36,45.5-4.03,4.76-3.49,7.93-1.42,13.28,4.29,11.08,7.93,19.94,22.77,21.44,14.09,1.43,22.89,15.17,23.42,29.89,.33,9.03,.2,18.09,.06,27.13Zm-83.21-356.97c-.82-12.14,.01-24.37-.24-36.56-.55-26.32,1.97-52.74-1.35-78.95-3.2-25.26-20.51-40.1-45.35-40.1-182.79-.02-365.57-.02-548.36,.04-4.28,0-8.69,.18-12.82,1.17-18.72,4.5-32.84,23.71-33.12,46.25-.44,34.99,.29,70.01-.48,104.99-.25,11.37,1.89,15.12,14.44,15.04,101.81-.62,203.62-.35,305.43-.35h56.6c84.51,0,169.03-.15,253.54,.22,9.34,.04,12.34-2.37,11.71-11.75Zm53.67,341.81c1.93-11.42-2.72-15.45-14.1-14.06-12.33,1.5-19.96-3.88-22.5-16.78-1.73-8.79-5.46-17.09-9.66-25.12-10.43-19.97-10.58-20.24,4.94-36.06,5.09-5.19,5.57-8.68-.22-13.1-2.47-1.89-4.45-4.42-6.67-6.65-10.57-10.59-10.85-10.85-21.5,.22-7.95,8.26-15.7,10.34-25.83,3.66-10.5-6.93-22.34-11.27-34.58-14.13-7.3-1.71-12.18-5.44-13.18-12.99-.61-4.65-.58-9.4-.49-14.1,.12-5.74-1.8-8.98-8.18-8.4-3.51,.32-7.06,.05-10.6,.06-14.98,0-15.38,.02-15.03,15.47,.26,11.55-3.9,18.29-15.73,20.92-11.45,2.54-22.39,7.18-32.24,13.69-9.57,6.32-17.28,4.58-24.96-3.38-11.73-12.16-9.4-13.23-23.12,.59-.83,.84-1.57,1.8-2.52,2.47-9,6.29-8.36,11.71-.21,19.04,12.15,10.92,12.12,14.89,3.98,29.57-4.97,8.95-9.33,18.23-11.36,28.24-2.58,12.68-10.02,18.45-22.5,16.82-11.61-1.52-15.78,3-13.86,14.2,.33,1.91,.32,3.97,0,5.88-1.75,10.68,2.26,14.35,13.31,13.68,15.72-.94,18.49,2.15,23.2,17.22,2.56,8.19,5.54,16.35,9.32,24.03,9.96,20.27,10.33,20.3-5.3,37.05-4.03,4.32-5.15,7.44-.21,11.52,2.72,2.24,5.5,4.62,7.5,7.46,7.37,10.5,14.11,9.71,21.75,.05,7.13-9.02,15.62-10.17,25.9-3.87,7.93,4.86,16.71,8.65,25.54,11.65,20.81,7.08,21.2,6.77,21.82,29.02,.2,7.29,2.81,10,9.8,9.28,2.72-.28,5.49-.05,8.24-.05,15.96,0,16.49-.02,15.97-15.74-.39-11.87,4.43-18.47,15.85-20.91,11.19-2.38,21.75-6.72,31.28-12.89,10.45-6.76,18.75-5.33,26.95,3.7,3.15,3.46,6.8,10.98,11.68,7.65,7.88-5.37,13.9-13.48,21.55-21.29-3.1-3.3-5.97-6.94-9.41-9.92-9.12-7.91-10.97-16.41-4.03-26.88,6.1-9.19,9.67-19.64,12.84-30.16,4.51-14.96,7.44-17.94,23.3-16.94,11.31,.72,14.84-3.4,13.25-13.85-.29-1.92-.32-3.97,0-5.88Zm-123.78-371.6c-9.08,5.96-19.21,8.51-29.99,8.53-21.19,.05-42.38,.02-68.28,.02-21.08-1.71-47.11,3.16-72.7-2.28-22.43-4.77-39.08-26.31-38.59-48.61,.53-23.77,18.57-44.87,41.99-48.31,19.5-2.86,39.19-.99,58.78-1.2,26.29-.28,52.59-.41,78.88,.04,25.49,.44,44.32,14.26,50.73,36.14,6.02,20.57-2.59,43.71-20.83,55.67Zm-7.25-41.36c.26-11.16-8.67-20.33-21.24-20.4-43.12-.26-86.25-.27-129.37,.02-12.86,.09-21.36,8.85-21.22,20.28,.15,11.69,8.49,19.39,21.71,19.48,21.56,.16,43.12,.04,64.68,.05,21.17,0,42.34,.1,63.51-.03,12.86-.08,21.66-8.02,21.93-19.39Zm-406.09-.67c.19,27.23-22.84,50.53-49.96,50.53-27.29,0-50.05-23-49.96-50.46,.1-27.58,22.97-50.16,50.41-49.77,27.11,.38,49.31,22.68,49.51,49.7Zm-30.09,1.21c.51-10.9-8.51-20.67-19.36-20.98-10.7-.31-20.55,9.11-20.73,19.79-.17,10.45,8.42,19.5,18.98,20.01,11.37,.55,20.58-7.66,21.11-18.82Zm159.04-.82c-.06,27.64-22.93,50.52-50.1,50.15-27.33-.38-50.02-23.62-49.65-50.86,.36-26.97,22.73-49.15,49.81-49.39,27.56-.24,50.01,22.27,49.94,50.1Zm-29.6,.07c.13-10.67-9.58-20.38-20.26-20.26-10.37,.11-19.42,9-19.77,19.41-.37,11.22,8.22,20.22,19.49,20.43,11.13,.21,20.41-8.64,20.54-19.59Zm368.18,415.3c.16,50.57-40.58,91.91-90.52,91.85-49.32-.05-91.03-41.43-91.21-90.47-.19-50.35,40.29-90.94,90.96-91.22,50.17-.27,90.62,39.76,90.77,89.84Zm-29.62,.37c-.25-33.13-27.87-60.92-60.67-61.04-33.59-.12-61,27.57-60.91,61.56,.08,33.58,26.81,60.55,60.25,60.8,33.58,.25,61.58-27.75,61.33-61.32Z"/>
</svg>