<?xml version="1.0" encoding="UTF-8"?>
<svg id="Layer_1" data-name="Layer 1" xmlns="http://www.w3.org/2000/svg" viewBox="0 0 800 800">
  <defs>
    <style>
      .cls-1 {
        fill: #020202;
      }

      .cls-2 {
        fill: none;
      }
    </style>
  </defs>
  <rect class="cls-2" width="800" height="800"/>
  <path class="cls-1" d="M149.9,685.44c.83,11.01,1.69,19.69,2.08,28.4,.36,7.89-3.25,13.56-11.52,13.69-8.25,.13-11.78-5.61-12.27-13.3-1.15-18.31-2.25-36.63-3.28-54.95-.55-9.76,3.84-15.11,13.98-15.06,18.37,.09,36.74,.07,55.11,.31,7.68,.1,13.34,3.32,13.46,11.89,.12,8.7-5.38,11.73-13.27,11.73-7.91,0-15.81,0-23.81,0-.81,4.83,3.2,5.54,5.37,7.24,133.51,104.64,329.45,90.69,449.9-31.92,3.07-3.13,5.98-6.49,9.44-9.14,4.77-3.65,9.78-3.06,14.08,1.1,4.17,4.04,5.52,8.9,2.17,14-2.17,3.3-4.91,6.29-7.73,9.08-87.86,86.81-192.97,122.76-315.56,106.17-63.15-8.54-119.35-33.84-169.58-72.75-2.15-1.66-4.34-3.28-8.57-6.47ZM251.24,64.6c-2.49,1.27-5.01,2.49-7.59,3.56-70.8,29.14-126.74,76.2-168.14,140.37C27.63,282.73,10.74,364.22,20.68,451.45c2.29,20.07,6.73,39.93,12.82,59.3,1.63,5.18,4.16,9.57,10.4,10.07,4.74,.38,9.03-.79,11.2-5.21,2.6-5.31,1.1-10.71-.45-16.23-14.27-50.58-17.52-101.82-7.95-153.59,18.99-102.7,74.22-180.43,163.01-234.71,15.49-9.47,31.69-17.71,51.75-24.14-5.02,8.68-8.53,15.17-12.46,21.4-4.4,6.98-5.53,14.01,2.03,18.83,8.5,5.42,14.11-.01,18.37-7.23,8.89-15.1,17.73-30.23,26.71-45.27,5.4-9.05,3.53-15.96-5.84-20.65-16.4-8.21-32.8-16.43-49.34-24.35-6.84-3.28-13.46-3.1-17.23,4.82-3.76,7.89,.32,12.86,7.09,16.38,7.38,3.83,14.81,7.57,22.39,11.44-1,1.21-1.36,2-1.96,2.31Zm452.54,369.85c-3.67-5.91-9.1-8.17-15.32-4.57-6.45,3.73-8.24,9.62-4.46,16.37,9.53,17.02,19.04,34.04,28.91,50.86,4.33,7.39,10.55,9.24,18.16,4.12,15.54-10.47,31.17-20.81,46.71-31.27,6.37-4.29,9.77-9.92,4.98-17.15-5.14-7.76-11.8-6.56-18.63-1.93-6.85,4.64-13.82,9.1-21.89,14.4,.16-3.58,.05-5.5,.36-7.35,7.39-44.18,6.51-88.51-4.37-131.66-36.37-144.27-126.88-236.36-270.71-275.71-8.11-2.22-15.79-2.37-18.22,7.47-2.35,9.55,3.84,13.49,12.34,15.39,23.83,5.33,46.71,13.49,68.67,24.14,135.83,65.88,212.84,211.87,188.03,361.43-5.69-9.64-9.98-17.18-14.55-24.55Zm-96.07-73.76c-13.81,57.87-27.9,115.68-42.3,173.41-4.45,17.82-11.32,22.41-29.91,22.43-53.9,.04-107.81,.01-161.71,.01-53.9,0-107.81,.02-161.71-.01-15.77,0-18.89-3.07-18.9-18.86-.04-88.6-.06-177.2,.01-265.8,.02-21.96,9.61-31.57,31.13-31.61,32.34-.05,64.69,.38,97.02-.19,14.6-.25,27.34,3.45,36.16,14.91,16.4,21.29,37.15,27.38,63.63,25.81,37-2.2,74.23-.6,111.37-.54,20.31,.03,29.69,9.54,29.86,30.05,.03,3.19,.34,6.43-.06,9.57-.96,7.36,1.96,10.26,9.34,9.45,3.94-.44,7.99-.24,11.97-.04,18.28,.94,28.38,13.5,24.1,31.41Zm-389.18,81.8c7.1-28.78,14.23-57.56,21.29-86.35,5.33-21.7,11.77-26.89,33.93-26.89,84.58-.02,169.16-.22,253.74,.26,10.76,.06,12.07-3.88,12.14-13.07,.07-9.6-2.16-13.05-12.52-12.85-35.1,.67-70.35-1.69-105.28,.81-33.4,2.39-60.34-5.74-80.75-32.88-4.01-5.33-9.66-7.83-16.66-7.8-33.11,.16-66.23,.18-99.34-.03-6.02-.04-8.38,1.57-8.36,8.04,.22,57.01,.13,114.02,.13,171.04,.56-.09,1.12-.19,1.68-.28Zm357.61-89.77c-50.28,.22-100.56,.11-150.85,.11-49.88,0-99.77,.18-149.65-.2-7.58-.06-11.09,1.61-12.97,9.43-12.87,53.57-25.95,107.09-39.71,160.43-2.42,9.39-.16,10.69,8.35,10.63,47.09-.29,94.18-.14,141.27-.14,52.68,0,105.35,.04,158.03-.06,5.16,0,10.44,1.81,12.51-6.85,13.06-54.76,26.59-109.42,40.74-163.91,2.37-9.13-.3-9.5-7.71-9.46Zm-217.13,131.25c-8.57-.03-15.48,2.25-15.22,12.33,.24,9.33,6.93,11.49,14.95,11.48,44.63-.03,89.27-.06,133.9,.02,8.65,.02,15.44-2.38,15.16-12.39-.26-9.21-6.69-11.53-14.89-11.47-22.32,.16-44.63,.05-66.95,.05-22.32,0-44.63,.05-66.95-.03Zm52.02-52.44c-8.21-.04-14.59,2.45-14.42,11.82,.15,8.52,6.21,11.5,13.82,11.52,33.51,.09,67.02,.13,100.53-.03,7.62-.04,13.2-3.1,13-12.05-.2-9.03-5.86-11.28-13.59-11.25-16.36,.06-32.71,.02-49.07,.02-16.76,0-33.51,.06-50.27-.03Z"/>
</svg>