<?xml version="1.0" encoding="UTF-8"?>
<svg id="Layer_1" data-name="Layer 1" xmlns="http://www.w3.org/2000/svg" viewBox="0 0 800 800">
  <defs>
    <style>
      .cls-1 {
        fill: #010201;
      }

      .cls-2 {
        fill: none;
      }
    </style>
  </defs>
  <rect class="cls-2" width="800" height="800"/>
  <path class="cls-1" d="M781.96,335.25c-.02-16.37-6.65-22.98-23.18-22.99-78.68-.07-157.36-.06-236.04,0-17.36,.01-24.37,7.11-24.42,24.64-.08,28.61,0,57.21-.04,85.82,0,4.52,1.55,10.23-6.53,9.19-5.59-.71-11.73,2.62-13.38-7.89-10.2-64.86-21.71-129.52-31.84-194.39-1.7-10.91-5.68-13.83-15.87-13.72-38.54,.4-77.09-.18-115.63,.4-9.62,.14-12.9-1.81-12.61-12.13,.78-28.59,.37-57.21,.23-85.81-.08-16.46-6.74-23.06-23.08-23.07-79.47-.04-158.95-.05-238.42,0-16.05,.01-22.11,6.15-22.12,22.41-.04,115.62-.04,231.24,0,346.86,0,16.96,6.88,24.14,23.58,24.16,78.68,.09,157.36,.09,236.04,0,16.21-.02,23.9-7.89,24.01-24.2,.14-20.66,.03-41.32,.04-61.98,0-4.61-1.38-10.15,6.61-9.03,5.51,.77,11.69-2.8,13.35,7.78,10.18,64.86,21.7,129.52,31.83,194.39,1.7,10.89,5.66,13.83,15.86,13.72,38.94-.4,77.89,.08,116.82-.35,8.48-.09,11.78,1.4,11.39,10.87-.84,20.23-.31,40.52-.24,60.78,.06,18.33,6.74,25,25.11,25.01,77.88,.03,155.77,.03,233.65,0,19.18,0,24.88-5.7,24.89-24.79,.03-57.21,0-114.43,0-171.64,0-58.01,.04-116.02-.03-174.03ZM33.24,160.74c.75-13.44,.46-26.97,.09-40.44-.2-7.46,2.12-10.68,10.13-10.66,78.14,.2,156.29,.19,234.43,0,6.74-.02,9.17,2.31,9.04,8.93-.28,14.27-.54,28.58,.1,42.83,.38,8.38-2.38,10.69-10.67,10.6-38.87-.41-77.75-.18-116.62-.18-38.48,0-76.96-.31-115.43,.23-9.09,.13-11.57-2.49-11.08-11.31Zm240.59,313.02c-75.5-.42-151-.43-226.5,0-10.96,.06-14.21-3.02-14.16-14.14,.44-87.01,.39-174.03,.02-261.04-.04-9,2.23-11.15,11.14-11.1,77.09,.38,154.18,.39,231.27,0,9.47-.05,11.83,2.55,11.72,11.85-.5,43.7-.22,87.41-.22,131.12s-.31,86.62,.22,129.92c.13,10.5-3.01,13.47-13.5,13.41Zm28.7-156.81c-1.57-31.74-1.75-31.73,29.32-31.73,5.56,0,11.12,0,16.67,0,12.7,0,25.41,.18,38.11-.08,5.68-.12,8.2,1.37,9.21,7.68,10.07,62.81,20.69,125.53,30.85,188.32,3.21,19.85,2.89,20,22.55,20.01,13.89,0,27.8,.24,41.68-.11,5.63-.14,7.78,1.49,7.49,7.31-.42,8.31-.52,16.69,.02,24.99,.45,6.76-2.59,7.73-8.4,7.67-25.01-.26-50.02-.29-75.03,.01-6.38,.08-8.79-1.79-9.84-8.41-10.09-63.2-20.65-126.33-30.97-189.49-3.07-18.79-3.11-18.96-22.46-18.96-13.89,0-27.8-.24-41.68,.12-5.65,.14-7.24-1.59-7.52-7.31Zm167.51,276.89c-12.31,0-24.62,0-36.92,0-18.26,0-36.55-.53-54.78,.25-7.57,.32-9.73-3.1-10.69-9.07-5.73-35.51-11.37-71.03-17.12-106.53-4.92-30.42-9.99-60.81-14.88-91.24-1.23-7.67-6.08-8.87-12.83-8.93-20.13-.17-20.13-.38-20.13-20.64q0-18.67,18.53-18.67h13.1c24.12,0,24.02,.02,27.83,23.71,9.59,59.7,19.31,119.37,28.89,179.07,1.51,9.44,5.27,14.33,16.29,13.99,26.97-.84,54,.13,80.98-.5,8.67-.2,10.3,2.51,10.2,10.58-.35,27.96-.02,27.97-28.47,27.97Zm-.5-107.77c-27.97,0-27.04-.14-31.17-27.96-6.66-44.93-14.7-89.66-22.11-134.48-2.19-13.24-4.4-26.49-6.25-39.79-1.33-9.56-5.05-14.51-16.07-14.21-27.36,.75-54.76-.02-82.13,.42-7.28,.12-9.29-1.75-9.33-9.16-.17-29.53-.46-29.53,29.19-29.53,11.9,0,23.81,0,35.71,0,18.25,0,36.53,.56,54.75-.26,8.03-.36,10.33,3.3,11.37,9.69,7.24,44.45,14.44,88.9,21.68,133.35,3.36,20.65,6.88,41.28,10.1,61.95,1.14,7.31,4.15,11.7,12.32,10.98,3.94-.35,7.99,.37,11.89-.14,7.55-.98,9.17,2.2,9.23,9.36,.24,29.78,.5,29.77-29.19,29.77Zm44.55-108.47c.7-13.46,.43-26.99,.08-40.47-.18-6.93,1.83-9.97,9.36-9.95,77.8,.19,155.61,.21,233.41,0,8.63-.02,10.92,3.6,10.67,11.5-.42,13.48-.61,27.01,.06,40.47,.43,8.57-2.72,10.61-10.83,10.53-38.5-.37-77.01-.17-115.51-.17-38.5,0-77.01-.34-115.51,.23-9.72,.14-12.21-3.02-11.74-12.15Zm240.88,313.91c-76.25-.39-152.5-.42-228.75,.03-10.52,.06-12.57-3.81-12.49-13.16,.36-44.08,.16-88.16,.16-132.23,0-43.68,.17-87.36-.17-131.04-.06-7.54,1.62-10,9.66-9.97,78.24,.32,156.48,.32,234.71,0,8.03-.03,9.67,2.42,9.64,9.96-.25,87.76-.28,175.52,0,263.28,.03,9.65-2.53,13.19-12.77,13.13Zm-114.84-229.99c25.42,0,50.84-.03,76.25,.02,5.13,.01,11.37-.63,11.54,6.83,.17,7.48-5.47,8.55-11.59,8.54-51.63-.05-103.26-.05-154.89,0-6.13,0-11.73-1.09-11.52-8.59,.21-7.5,6.47-6.77,11.57-6.78,26.21-.06,52.43-.03,78.64-.03Zm-1.2,107.28c25.42,0,50.84-.07,76.25,.05,5.3,.02,12.46-1.47,12.7,6.8,.24,8.35-6.43,8.55-12.72,8.55-50.84-.04-101.67-.04-152.51,0-6.29,0-12.95-.2-12.68-8.57,.26-8.3,7.43-6.74,12.71-6.77,25.42-.13,50.84-.06,76.25-.06Zm.02-39.06c-25.78,0-51.55,0-77.33,0-5.16,0-11.27,.76-11.61-6.68-.36-7.93,5.62-8.2,11.54-8.2,51.55,.04,103.1,.04,154.65,0,5.89,0,11.92,.17,11.61,8.13-.29,7.45-6.36,6.74-11.54,6.74-25.78,0-51.55,0-77.33,0Zm.41,107.28c-25.78,0-51.55,.01-77.33,0-5.54,0-12.21,.88-12-7.45,.21-7.96,6.67-7.41,12.31-7.41,51.15,0,102.31,.01,153.46,0,5.72,0,12.08-.29,11.99,7.72-.09,8.33-6.87,7.12-12.31,7.13-25.38,.04-50.76,.02-76.14,.02Zm-54.06-187.01c-8.32,0-16.64,.05-24.96,0-5.67-.04-10.64-1.54-10.42-8.42,.2-6.19,4.84-7.47,10.06-7.47,17.83,0,35.65,.05,53.48-.03,5.91-.03,10.83,2.15,10.66,8.33-.15,5.41-4.92,7.62-10.3,7.61-9.51-.02-19.01,0-28.52,0Zm2.45,91.37c8.32,0,16.64,.14,24.95-.05,5.77-.13,11.08,1.49,11.38,7.62,.31,6.28-4.92,8.34-10.69,8.34-17.83,0-35.65,.02-53.48-.02-5.25,0-9.88-1.64-10.03-7.67-.17-6.82,4.77-8.28,10.53-8.24,9.11,.06,18.22,.02,27.33,.01Zm0-52.73c9.11,0,18.23,.12,27.34-.05,5.12-.1,9.05,1.93,9,7.04-.06,4.88-3.75,7.48-8.92,7.46-19.02-.05-38.04-.01-57.07-.03-5.24,0-8.37-2.54-8.18-7.91,.17-4.98,3.51-6.57,8.11-6.53,9.91,.08,19.81,.02,29.72,.02Zm0,107.28c9.11,0,18.23,.12,27.34-.05,5.12-.1,9.05,1.91,9,7.03-.05,4.89-3.74,7.48-8.91,7.47-19.02-.04-38.04,0-57.07-.03-5.24,0-8.37-2.53-8.19-7.9,.17-4.98,3.5-6.57,8.1-6.54,9.91,.08,19.81,.02,29.72,.02ZM158.44,259.27c-24.99,0-49.97-.04-74.96,.03-6.2,.02-13.61-.06-13.79-7.63-.21-8.62,7.6-8.32,14.14-8.31,50.37,.05,100.74,0,151.11,.05,5.89,0,13.08-.91,12.89,8.02-.18,8.79-7.4,7.79-13.24,7.81-25.38,.08-50.77,.04-76.15,.04Zm1.3,91.4c24.99,0,49.97-.04,74.96,.03,5.82,.02,13.08-1.15,13.13,7.78,.05,8.84-7.11,8.03-13.01,8.04-50.37,.05-100.74,.02-151.11,.04-6.52,0-14.34,.17-13.98-8.53,.31-7.63,7.71-7.42,13.86-7.4,25.38,.09,50.77,.04,76.15,.04Zm.52,54.53c25.4,0,50.8-.05,76.2,.05,4.89,.02,11.2-1.52,11.43,6.53,.24,8.44-6.05,7.86-11.68,7.86-51.6,.01-103.19-.03-154.79,.06-6.15,.01-12.2-.99-11.8-8.17,.37-6.66,6.71-6.38,12.05-6.37,26.19,.09,52.39,.04,78.58,.04Zm-1.01-107.28c25.4,0,50.8-.09,76.2,.08,5.07,.03,12.31-2.26,12.39,6.68,.09,9.39-7.36,7.63-13,7.64-50.8,.09-101.6,.02-152.4,.09-5.82,0-12.42,.04-12.75-7.18-.36-7.81,6.5-7.33,12.16-7.32,25.8,.04,51.6,.02,77.39,.02Zm-51.64-27.14c8.7,0,17.41,0,26.11,0,5.06,0,10.09,.6,10.14,7.08,.04,5.8-3.91,8.29-9.41,8.3-18.59,.03-37.19,.1-55.78-.05-5.44-.05-9.42-3.18-9.1-8.66,.3-5.16,4.69-6.7,9.56-6.67,9.49,.07,18.99,.02,28.48,.01Zm-.4,107.32c9.49,.01,18.99-.02,28.48,.03,4.44,.02,7.92,1.63,8.15,6.62,.24,5.25-2.88,8.47-7.82,8.53-19.38,.26-38.77,.24-58.15,.02-4.93-.05-8.52-3.44-8.38-8.21,.15-5.08,4.24-7.07,9.24-7.03,9.49,.07,18.99,.02,28.48,.03Zm-.27-146.38c-9.13,0-18.26-.15-27.39,.07-5.52,.13-9.98-1.66-9.94-7.44,.03-4.81,3.89-7.47,8.99-7.47,19.05,0,38.11-.05,57.16,.05,5.23,.03,8.26,2.89,7.95,8.21-.28,4.89-3.6,6.62-8.2,6.59-9.53-.06-19.05-.02-28.58,0Zm.17,107.28c-9.53,0-19.06-.11-28.58,.05-5.23,.09-8.93-2.31-8.92-7.26,0-4.86,3.74-7.61,8.84-7.61,19.05-.02,38.11-.05,57.16,.02,5.18,.02,8.35,2.68,8.12,8.05-.21,4.87-3.38,6.78-8.03,6.75-9.53-.05-19.05-.01-28.58,0Zm-.11-205.64c9.08,0,18.16,.03,27.24,0,5.41-.02,9.66,1.76,9.55,7.85-.11,6.32-4.78,7.22-10,7.2-18.16-.08-36.32-.11-54.48,0-5.49,.04-9.94-1.81-9.71-7.6,.23-5.56,4.74-7.56,10.16-7.48,9.08,.12,18.16,.03,27.24,.03Zm479.38,233.47c-9.11-.01-18.21,.08-27.32-.05-5.41-.08-9.58-2.63-9.51-8.36,.08-5.79,4.33-7.93,9.78-7.93,18.21,.01,36.42,.03,54.63,0,5.41-.01,9.95,2.13,10.14,7.67,.21,6.27-4.55,8.66-10.42,8.68-9.11,.03-18.21,0-27.32,0Z"/>
</svg>