<?xml version="1.0" encoding="UTF-8"?>
<svg id="Layer_1" data-name="Layer 1" xmlns="http://www.w3.org/2000/svg" viewBox="0 0 800 800">
  <defs>
    <style>
      .cls-1 {
        fill: #020202;
      }

      .cls-2 {
        fill: none;
      }
    </style>
  </defs>
  <rect class="cls-2" width="800" height="800"/>
  <path class="cls-1" d="M179.49,706.46c-3.83-4.71-6.48-7.09-8-10.04-2.52-4.88-1.79-9.71,2.48-13.53,4.28-3.84,9.23-4.49,13.44-.52,9.74,9.18,19.36,18.53,28.47,28.33,5.09,5.48,3.28,11.3-1.87,16.18-7.51,7.12-15.08,14.17-22.52,21.36-5.64,5.45-12.07,7.81-18.16,1.91-5.8-5.61-3.69-11.8,1.62-17.1,.71-.7,.95-1.87,1.98-4.03-24.85,0-48.85,.23-72.84-.06-24.47-.29-42.38-11.23-52.52-33.91-2.7-6.04-3.42-12.48-3.42-19.05,0-32.96,.05-65.91-.12-98.87-.04-7.72,1.62-14.6,10.45-14.72,9.64-.13,11.03,7.11,10.97,15.26-.21,30.27-.13,60.55-.07,90.82,.05,25.57,12.48,37.94,38.06,37.97,23.28,.03,46.55,0,72.04,0ZM692.86,95.75c26.35,.05,38.68,12.3,38.73,38.53,.06,30.26,.11,60.52-.05,90.78-.04,7.61,1.03,14.4,10.28,14.66,9.1,.26,11.15-6.03,11.11-13.91-.15-33.32-.14-66.65-.14-99.97,0-6.59-.9-12.98-3.67-18.99-9.49-20.54-25.21-32.57-48.15-33.06-25.81-.56-51.63-.13-77.15-.13-.71-3.85,1.3-4.81,2.51-6.1,5.62-5.97,6.66-12.22,.27-18-6.51-5.89-11.97-1.94-16.9,2.97-7.6,7.56-15.17,15.15-22.72,22.77-4.84,4.89-7.18,10.67-1.99,16.24,9.12,9.79,18.74,19.13,28.47,28.32,4.22,3.99,9.34,3.41,13.5-.36,4.5-4.08,5.3-9.17,1.87-14.44-1.64-2.52-3.64-4.81-7.1-9.32,25.36,0,48.23-.04,71.11,0Zm62.14,548.67c0,5.91-.52,10.94-5.2,15.57-30.78,30.4-62.73,59.61-92.05,91.47-3.08,3.35-7.1,3.93-11.51,3.93-63.24-.08-126.48,.09-189.72-.16-19.29-.08-33.03-14.95-33.07-35.04-.11-62.06-.04-124.12-.04-186.18,0-60.91-.03-121.82,.01-182.73,.02-24.36,13.2-37.69,37.38-37.7,85.08-.05,170.17-.06,255.25,0,25.45,.02,38.87,13.56,38.88,38.94,.01,97.3-.02,194.61,.07,291.91Zm-42.75,16.43c-12.07,0-25.44-.14-38.81,.05-8.17,.11-12.8,4.54-12.92,12.77-.2,13.3-.05,26.6-.05,40.21,18-18.43,35.12-35.97,51.79-53.04Zm20.1-33.26c-.33-90.4-.2-180.81-.2-271.22,0-19.19-1.19-20.42-20.02-20.42-82.4-.01-164.8-.01-247.2,0-17.4,0-19.64,2.26-19.64,20.05-.02,59.76,0,119.52,0,179.28,0,60.14-.04,120.29,.03,180.43,.02,13.32,3,16.93,14.47,16.95,56.72,.12,113.44-.06,170.16,.21,6.76,.03,8.26-2.25,8.11-8.49-.38-16.08-.34-32.18-.07-48.26,.39-23.4,13.92-36.97,37.22-37.37,15.33-.26,30.69-.64,45.98,.18,9.22,.5,11.2-2.53,11.16-11.34Zm-354.64-248.24c.02,7.54-2.29,12.91-7.64,18.11-29.13,28.28-58.05,56.77-86.83,85.41-4.16,4.14-8.43,5.68-14.19,5.66-62.87-.16-125.74-.03-188.61-.16-20.27-.04-34.33-14.32-34.37-34.84-.1-61.69-.04-123.38-.04-185.08,0-61.31-.03-122.62,.01-183.93,.01-23.58,14.23-37.83,37.82-37.84,85.1-.04,170.21-.04,255.31,0,24.47,.01,38.36,13.92,38.37,38.37,.03,98.09-.06,196.19,.16,294.28Zm-39.45,15.21c-14.86,0-28.87-.1-42.88,.05-6.07,.06-11.23,3.51-11.54,9.18-.8,14.92-.27,29.91-.27,47.09,19.1-19.67,36.31-37.4,54.69-56.32Zm17.65-32.49c-.35-91.61-.19-183.21-.24-274.82,0-14.79-2.93-17.71-17.32-17.71-84.36-.03-168.73-.03-253.09,0-14.72,0-16.4,1.72-16.41,16.74-.03,60.56-.01,121.12-.01,181.68,0,60.56-.01,121.12,.01,181.68,0,13.82,2.99,16.98,16.63,17,55.22,.07,110.44-.16,165.66,.23,8.49,.06,10.21-2.94,9.97-10.58-.5-16.08-.53-32.2-.05-48.29,.66-22.04,14.48-35.36,36.45-35.61,15.72-.18,31.46-.41,47.16,.22,8.21,.33,11.29-1.43,11.25-10.54Zm27.05,284.12c9.07,13.6,8.97,14.82-2.28,26.14-3.24,3.26-6.69,6.33-9.69,9.79-7.17,8.28-14.33,8.35-22.87,1.63-8.55-6.74-17.72-3.01-18.35,7.77-.7,12.14-6.7,16.06-17.82,15.23-4.57-.34-9.19-.05-13.79-.06q-16.34-.02-19.81-16.64c-1.81-8.73-10.56-12.47-17.72-6.73-9.38,7.51-17.06,7.03-24.58-2.31-2.62-3.26-5.74-6.2-8.98-8.87-9.19-7.61-11.28-15.2-2.75-25.26,6.51-7.67,2.22-16.82-8.16-17.46-12.76-.78-16.35-7.68-15.75-18.93,.24-4.58,.26-9.2,0-13.78-.64-11.3,3.13-18.03,15.75-19.04,11.06-.88,14.45-9.4,7.39-18.34-6.89-8.72-6.01-15.74,1.81-22.88,2.82-2.57,5.22-5.59,7.85-8.38q11.91-12.67,26.43-3.61c7.64,4.77,14.94,1.59,16.57-7.21,2.84-15.35,4.99-17.19,20.13-17.24,4.21-.01,8.47,.39,12.63-.08,11.69-1.3,17.73,3.82,19.83,15.28,2.24,12.24,8.8,14.95,18.61,7.51,8.35-6.33,14.95-5.95,21.72,2.07,4.18,4.95,9.04,9.36,13.81,13.78,3.01,2.79,4.58,6.01,4.63,11.1,.13,3.98-3.42,7.26-5.78,11.12-4.7,7.69-1.47,15.08,7.34,16.95q16.34,3.46,16.38,20.09c0,3.83,0,7.66,0,11.49q-.03,16.78-16.29,20.03c-9.14,1.82-11.71,8.72-6.28,16.85Zm.68-42.57c-.17-4.17-2.67-5-6.1-5.03-9.12-.09-13.67-5.37-15.77-13.67-.84-3.31-1.74-6.81-3.55-9.63-4.65-7.26-5.52-14.04,.58-20.91,2.11-2.37,3.68-5.01,.4-7.88-3.29-2.87-5.48-.66-7.87,1.37-6,5.11-12.12,5.45-18.83,1-3.11-2.06-6.83-3.61-10.48-4.38-8.47-1.78-13.86-5.71-14.1-15.16-.08-3.28-.87-7.08-5.93-6.64-4.26,.36-4.76,3.54-4.79,6.57-.09,9.46-5.56,13.46-14.07,15.19-3.29,.67-6.61,2.09-9.46,3.89-6.85,4.35-13.33,5.48-19.82-.49-2.01-1.85-4.27-3.85-6.99-1.53-3.28,2.8-1.2,5.55,.85,7.84,6.01,6.71,5.82,13.42,1.01,20.76-2.04,3.12-3.6,6.88-4.24,10.54-1.52,8.61-6.7,12.43-14.92,13.09-2.97,.24-6.07-.28-6.48,4.4-.46,5.32,3.12,5.48,6.44,5.74,8.9,.7,13.82,5.16,15.19,14.11,.51,3.28,2.15,6.59,3.98,9.43,4.68,7.27,5.29,14.07-.93,20.77-2.16,2.33-3.61,4.51-.5,7.67,3.45,3.51,5.68,.78,7.7-1.03,6.52-5.85,12.97-4.96,19.93-.9,3.26,1.9,6.9,3.68,10.56,4.24,8.66,1.32,12.55,6.41,13.56,14.57,.34,2.77-.78,6.19,4.16,6.58,5,.39,5.6-2.57,6.17-6.14,.98-6.17,2.1-12.71,9.6-13.96,12.45-2.06,24.36-16.39,37.68-1.99,.25,.27,.62,.44,.94,.66,3.07,.04,5.36-5.02,3.77-8.33-9.11-18.95-1.38-39.51,17.33-45.79,2.64-.89,5.16-1.21,5-4.95Zm216.9-396.74c.33,10.33-3.14,16.38-14.77,17.4-11.91,1.04-14.87,8.61-7.38,18.22,7.04,9.04,6.93,16.32-2.05,23.59-3.25,2.64-5.93,5.98-8.92,8.94-11.84,11.74-12.29,11.78-26.02,3-7.99-5.11-15.39-1.84-16.58,7.91-1.4,11.43-6.64,17.47-18.82,16.16-4.17-.45-8.43-.07-12.64-.07-16.81-.01-17.86-.85-21.4-17.03-1.96-8.97-8.71-11.88-16.34-7.03-13.94,8.86-14.31,8.83-26.06-2.8-3.54-3.5-6.89-7.21-10.57-10.55-6.88-6.24-7.15-12.63-1.85-20.19,7.87-11.22,4.81-18.85-8.64-20.31-9.73-1.06-13.59-5.56-13.08-14.9,.23-4.2,.04-8.43,.04-12.64q0-18.83,18.48-23.94c6.74-1.86,9.29-9.68,5.39-16.48q-8.61-14.99,3.47-27.09c14.85-14.87,16.04-15.79,20.39-15.81,4.59,.02,7.67,3.12,11.14,5.45,8.82,5.9,15.22,3.3,17.05-6.9,2.74-15.31,3.81-16.23,19.02-16.29,3.83-.02,7.67,0,11.5,0q17.12,.02,20.76,17.02c1.76,8.28,9.96,11.68,17.16,7.1,14.08-8.96,14.26-8.95,25.97,2.71,2.99,2.97,5.78,6.18,9,8.88,8.51,7.13,10.02,14.22,2.42,23.48-7.17,8.74-3.33,17.44,7.76,18.08,12.01,.69,15.95,7.12,15.59,18-.18,5.36-.17,10.73,0,16.09Zm-22.61-8.03c.04-5.35-3.51-5.09-6.88-5.38-8.33-.7-13.26-4.72-14.66-13.31-.6-3.66-2.31-7.35-4.3-10.54-4.32-6.94-5.14-13.33,.84-19.77,2.04-2.19,4.06-4.56,1.11-7.93-3.72-4.25-6.24-.63-8.57,1.22-5.85,4.64-11.52,5.05-17.94,1.15-3.56-2.17-7.51-4.49-11.51-5-9.34-1.18-13.37-6.45-14.09-15.17-.25-3.06,.08-6.07-4.64-6.21-4.42-.14-4.57,2.54-5.45,5.62-5.04,17.5-27.82,27.13-43.45,18.32-2.6-1.47-4.4-2.64-6.83,.03-1.81,2-2.58,4-.53,5.96,9.59,9.16,3.63,17.71-.05,27.08-3.73,9.49-5.91,19.3-19.03,18.96-3.42-.09-4.57,2.1-4.59,5.24-.02,3.76,2.59,4.01,5.37,4.49,3.74,.64,7.65,.83,10.84,3.34,7.51,5.92,13.04,32.93,8.22,41.3-1.7,2.94-2.86,5.27,.23,7.99,2.97,2.62,4.82,.44,6.9-1.19,5.06-3.96,10.23-6.66,16.8-3.04,4,2.21,8.14,4.69,12.51,5.58,9.04,1.83,14.64,5.94,14.86,15.85,.07,3.01,1.06,6.14,5.32,6.1,4.92-.05,5.31-3.52,5.51-7.08,.32-5.75,1.99-11.51,8.05-12.51,12.74-2.08,24.59-17.91,38.63-3,.25,.26,.67,.36,1.21,.65,3.54-1.08,7.25-3.99,4.27-7.09-10.59-11.02-2.58-21.06-.1-31.82,2.11-9.16,6.47-14.32,15.89-15.03,2.99-.23,6.02-.07,6.06-4.8Zm110.38,197.33c7.8,.06,14.09-1.82,14.28-10.87,.19-8.77-5.62-11.89-13.53-11.9-40.17-.04-80.33-.06-120.5,.01-7.73,.01-13.84,2.84-13.76,11.71,.08,9.08,6.39,11.07,14.15,11.03,19.89-.09,39.78-.03,59.67-.03,19.89,0,39.78-.1,59.67,.05Zm-199.52,36.7c-7.7-.11-13.3,2.6-13.78,10.38-.55,8.85,5.93,11.71,13.66,11.72,38.68,.09,77.35,.11,116.03,0,7.38-.02,14.42-1.83,14.26-11.1-.16-9.81-7.21-11.08-15.29-10.98-18.76,.22-37.53,.07-56.29,.07-19.53,0-39.06,.19-58.59-.1Zm201.59,82.52c7.68-.02,14.15-2.23,13.96-11.34-.18-8.88-6.46-11.17-14.23-11.16-34.1,.04-68.19,.08-102.29-.03-8.09-.03-14.14,3.09-14.11,11.43,.04,8.51,6.49,11.19,14.37,11.14,16.86-.11,33.71-.03,50.57-.03,17.24,0,34.48,.02,51.72-.01Zm-200.03,96.97c-8.27-.16-15.13,1.9-15.33,11.18-.19,8.89,6.79,11.03,14.31,11.04,30.17,.06,60.35,.12,90.52-.03,7.31-.04,14.22-1.82,14.06-11.18-.16-9.11-6.46-11.01-14.18-10.95-14.9,.11-29.79,.03-44.69,.03-14.9,0-29.8,.21-44.69-.08Zm199.48,22.17c7.19-.16,13.1-2.59,12.83-11.24-.27-8.29-5.5-10.94-13.13-10.9-21.09,.12-42.19,.11-63.28,0-7.81-.04-13.96,1.88-13.97,11.14-.01,9.56,7,10.85,14.28,11.01,10.35,.23,20.71,.06,31.06,.05,10.74-.01,21.48,.16,32.21-.07Zm-202.21-141.6c-7.68,.07-12.71,4.02-12.61,11.69,.09,7.22,5.26,10.69,12.31,10.72,19.08,.1,38.16,.16,57.23-.02,7.38-.07,12.72-3.21,12.38-11.6-.34-8.32-5.9-10.79-13.22-10.81-9.16-.03-18.31,0-27.47,0-9.54,0-19.08-.07-28.62,.03Zm138.5,82.77c7.25-.05,11.63-3.44,11.73-11.01,.1-7.57-4.65-11.47-11.44-11.64-17.19-.43-34.41-.5-51.6,.07-6.62,.22-11.48,4.2-11.21,11.87,.27,7.71,5,10.63,12.05,10.71,8.41,.09,16.82,.02,25.23,.02,8.41,0,16.82,.05,25.23-.01Zm-96.06,.06c7.47,.22,12.03-4.02,12.56-10.56,.55-6.81-4.29-11.82-11.14-12.07-15.22-.56-30.5-.62-45.71,.05-6.72,.3-11.43,5.14-10.75,12.29,.59,6.3,4.75,10.21,11.6,10.22,7.62,.02,15.24,0,22.87,.01,6.86,0,13.72-.15,20.58,.05Zm118.23-142.84c-7.24-.22-12.11,2.85-12.71,10.1-.68,8.25,4.91,11.69,12.2,11.85,14.48,.31,28.99,.24,43.47-.05,6.98-.14,11.8-3.57,11.43-11.27-.35-7.4-4.69-10.76-12.06-10.61-7.24,.14-14.49,.03-21.74,.03-6.87,0-13.74,.17-20.6-.04Zm-122.67-36.92c5.98-.27,10.12-3.24,10.84-9.64,.79-6.98-3.19-11.93-9.22-12.34-14.07-.95-28.28-.93-42.37-.18-6.15,.33-10.52,5.27-9.87,11.93,.63,6.41,4.81,10.23,11.62,10.31,6.12,.07,12.24,.01,18.36,0,6.88-.01,13.78,.22,20.65-.09Zm-1.04,298.97c6.98-.26,11.84-3.33,11.88-11.02,.04-7.54-4.76-11.26-11.56-11.51-12.61-.46-25.25-.32-37.87-.07-7.08,.14-11.96,4.22-12.01,11.24-.05,7.73,5.07,11.47,12.82,11.42,6.12-.04,12.24,0,18.37-.01,6.12,0,12.25,.18,18.36-.05Zm163.18-119.23c8.2,.49,14.93-1.59,14.86-11.25-.07-9.44-6.81-11.74-14.9-11.65-1.9,.02-3.81,0-5.71,0-15.37,0-22.6,3.86-21.41,12.26,1.88,13.38,12.73,10.21,21.46,10.63,1.91,0,3.82-.1,5.71,0Zm-92.81,114.54c3.26-4.92,2.92-10.21-1.52-14.58-4.82-4.76-25.1-5.02-30.4-.45-4.76,4.11-5.26,9.36-2.36,14.43,3.66,6.4,10.31,5.43,17.95,5.29,4.76-.29,11.97,1.88,16.33-4.69ZM311.8,129.72c8.04,.07,14.15-2.88,14.16-11.29,.01-8.57-6.32-11.12-14.28-11.1-39.83,.12-79.65,.12-119.48,0-7.79-.02-14.44,2.07-14.69,10.7-.28,9.35,6.55,11.73,14.82,11.67,19.53-.13,39.06-.04,58.59-.04,20.3,0,40.59-.11,60.89,.05Zm-83.75,59.82c7.18,.04,13.31-1.19,13.66-10.03,.36-9.32-5.63-11.56-13.49-11.55-38.72,.02-77.44,.06-116.16-.03-7.96-.02-13.92,2.28-13.68,11.41,.22,8.59,6.09,10.31,13.52,10.24,19.55-.19,39.1-.06,58.65-.06,19.17,0,38.34-.07,57.5,.03Zm84,59.62c8,.02,15.04-1.5,14.95-11.46-.09-9.89-7.04-11.36-15.1-11.34-33.35,.09-66.7,.18-100.05-.06-8.54-.06-15.33,2.85-15.29,11.53,.05,8.7,6.99,11.56,15.44,11.41,16.48-.3,32.97-.09,49.45-.09,16.87,0,33.74-.03,50.6,.01Zm-107.62,119.9c7.18,.06,12.09-2.43,12.29-10.21,.2-7.56-4.23-11.26-11.46-11.29-31.74-.11-63.49-.08-95.23-.05-7.29,0-11.74,3.57-11.68,11.07,.06,7.62,4.6,10.58,12,10.49,15.68-.19,31.36-.06,47.04-.06,15.68,0,31.36-.1,47.04,.04Zm109.92,0c7.03,.14,11.25-3.31,11.59-9.85,.37-7.11-3.86-11.57-11.23-11.61-22.93-.15-45.86-.19-68.79,.05-7.27,.08-11.51,4.52-11,11.76,.47,6.73,4.96,9.75,11.78,9.64,11.08-.17,22.17-.04,33.25-.05,11.47,0,22.93-.17,34.39,.06Zm-147.18-119.98c7.24-.18,12.74-2.9,12.69-11.34-.05-8.36-5.33-11.27-12.72-11.31-18.7-.11-37.4-.03-56.1-.04-7.65,0-12.67,3.32-12.68,11.39-.02,8.14,5.19,11.3,12.72,11.35,9.16,.06,18.32,.01,27.48,.01,9.54,0,19.09,.18,28.62-.06Zm81.9,59.93c7.36,0,11.68-3.51,11.71-11.02,.02-6.93-3.91-10.62-10.8-10.66-17.61-.1-35.23-.17-52.84,.06-6.76,.09-10.66,3.96-10.61,10.9,.05,6.99,4.06,10.51,10.84,10.66,8.42,.19,16.85,.05,25.27,.06,8.81,.01,17.62,.02,26.42,0Zm68.21-119.63c6.52-.15,9.7-3.96,9.79-10.31,.08-6.28-2.91-10.64-9.36-10.77-16.09-.31-32.2-.35-48.29,.05-6.33,.16-9.45,4.57-9.3,10.86,.15,6.39,3.61,9.98,10.01,10.15,7.66,.2,15.33,.05,23,.05,8.05,0,16.11,.15,24.15-.04Zm-163.49,119.61c7.27-.09,11.75-3.82,11.62-11.12-.12-6.61-4.25-10.5-11.02-10.55-15.24-.12-30.48-.09-45.72,.05-7.09,.07-10.43,4.41-10.32,11.02,.11,6.72,3.93,10.52,10.86,10.59,7.62,.08,15.24,.02,22.86,.03,7.24,0,14.48,.08,21.72-.01Zm-44.32,97.26c-7.33,.23-11.35,4.3-11.17,11.6,.17,6.79,4.35,10.51,10.97,10.65,12.94,.26,25.89,.28,38.83,0,6.46-.14,10.98-3.57,11.23-10.45,.26-7.3-3.78-11.4-11.03-11.76-6.08-.3-12.18-.06-18.27-.07-6.85,0-13.71-.17-20.56,.04Zm39.73-276.77c6.06-.43,9.95-4.06,10.11-10.4,.16-6.74-3.27-11.2-10.16-11.39-13.4-.35-26.81-.27-40.21-.09-6.93,.09-10.62,4.21-10.61,10.97,.02,6.76,3.85,10.7,10.66,10.99,6.5,.28,13.02,.06,19.53,.05,6.9-.01,13.82,.36,20.68-.12Zm145.15,157.83c-6.74,.28-10.8,4.07-10.94,10.62-.14,6.6,3.93,10.46,10.57,11.01,3.77,.31,7.59,.16,11.39,.1,8.91-.13,20.59,2.2,20.39-11.33-.19-12.74-11.56-10.21-17.91-10.42-5.9,0-9.71-.13-13.5,.03Zm-93.07,118.69c-3.42,.16-6.92-.07-10.24,.57-6.01,1.17-9.23,5.14-9.15,11.3,.08,5.77,3.71,9.59,8.9,10.25,6.74,.85,13.74,.83,20.49,0,5.47-.67,8.66-5.25,8.54-10.62-.12-5.71-2.95-10.33-9.42-11.04-3.01-.33-6.08-.06-9.12-.06,0-.14,0-.28,0-.42Zm102.02,237.27c-21.6,0-38.72-16.9-38.85-38.35-.13-21.89,17.43-40.01,38.78-40.02,20.78,0,38.66,17.65,39.26,38.78,.61,21.37-17.42,39.59-39.19,39.59Zm1.1-55.93c-9.1-.67-17.01,6.45-17.63,15.85-.61,9.26,6.33,17.4,15.4,18.09,8.79,.67,17.24-6.87,17.79-15.86,.55-9-6.7-17.43-15.56-18.08Zm232.1-388.83c-.11,20.98-17.51,38.57-38.45,38.88-21.03,.31-39.56-18.06-39.6-39.26-.04-21.46,17.88-39.25,39.43-39.15,21.84,.1,38.73,17.38,38.61,39.52Zm-22.28-.04c.21-9.15-7.22-17.22-16.11-17.49-8.79-.27-16.85,7.53-17.13,16.55-.29,9.19,7.03,16.94,16.22,17.18,9.46,.24,16.81-6.77,17.02-16.24Z"/>
</svg>