<?xml version="1.0" encoding="UTF-8"?>
<svg id="Layer_1" data-name="Layer 1" xmlns="http://www.w3.org/2000/svg" viewBox="0 0 800 800">
  <defs>
    <style>
      .cls-1 {
        fill: none;
      }

      .cls-2 {
        fill: #010101;
      }
    </style>
  </defs>
  <rect class="cls-1" width="800" height="800"/>
  <path class="cls-2" d="M702.28,198.35c-54.5-53.93-108.71-108.14-162.74-162.54-6.57-6.61-13.36-9.33-22.62-9.31-110.61,.24-221.23,.15-331.84,.15-2.73,0-5.47-.17-8.17,.1-8.07,.81-12.91,4.76-12.85,13.46,.07,9.34-.36,18.7,.08,28.02,.29,6.11-1.7,8.15-7.86,7.99-14.79-.37-29.6-.13-44.4-.12-20.13,.01-22.87,2.71-22.87,22.78-.01,108.61,0,217.22,0,325.84s0,218,0,327c0,21.42,1.33,22.77,22.18,22.77,80.62,0,161.25,0,241.87,0,88.8,0,177.6,.02,266.41-.02,14.42,0,17.27-2.81,17.36-16.87,.11-16.35,.41-32.71-.15-49.04-.25-7.39,2.19-9.3,9.27-9.07,15.17,.5,30.37,.16,45.56,.15,18.27-.02,20.34-1.94,20.34-19.86,.03-152.6-.04-305.2,.15-457.81,.01-9.61-2.74-16.73-9.72-23.64Zm-164.08-124.88c42.85,42.61,85.21,84.74,128.57,127.86-14.3,0-28.09,0-41.88,0-26.1,0-52.21,0-78.31,0-4.26,0-8.51,.92-8.47-6.01,.2-40.77,.1-81.55,.1-121.85Zm74.76,638.54c-1.04,9.62-.51,19.46-.11,29.18,.24,5.92-1.47,8.86-7.78,8.14-2.31-.26-4.67-.04-7.01-.04-156.62,0-313.24,.02-469.86-.03-16.7,0-14.63,1.94-14.63-15.16-.05-102.8-.02-205.61-.02-308.41s.13-207.95-.22-311.92c-.03-9.67,2.4-13.09,12.25-12.25,10.06,.86,20.25,.46,30.37,.09,5.88-.21,8.91,1.39,8.14,7.78-.32,2.69-.05,5.45-.05,8.17,0,186.53,0,373.06,0,559.59,0,21.78,.72,22.5,22.21,22.5,137.92,0,275.84,.11,413.76-.23,9.93-.02,14.14,1.79,12.97,12.58Zm62.96-37.01c-158.92-.29-317.83-.31-476.75,.04-9.91,.02-11.24-3.48-11.22-12.04,.26-100.05,.16-200.1,.16-300.15s.13-198.55-.21-297.82c-.03-9.72,1.49-13.19,12.47-13.14,100.1,.51,200.2,.45,300.3,.07,9.72-.04,12.21,2.41,12.1,12.1-.53,47.49-.25,94.99-.23,142.48,0,16.35,3.43,19.94,19.69,19.97,47.91,.08,95.82,.3,143.72-.2,9.53-.1,11.56,2.9,11.55,11.86-.26,141.71-.27,283.42,.02,425.12,.02,9.15-2.29,11.73-11.61,11.71Zm-201.31-162.27c-47.85,0-95.7-.05-143.54,.04-8.8,.02-17.19-.69-17.37-12.05-.17-11.14,7.94-12.87,16.84-12.87,96.47,0,192.95-.01,289.42,.01,8.82,0,16.86,1.47,16.66,12.91-.21,11.72-8.65,11.99-17.29,11.98-48.24-.04-96.47-.02-144.71-.02Zm.67-224.08c-47.08,0-94.16,.01-141.24-.02-3.88,0-7.93,.29-11.58-.71-5.17-1.41-8.62-4.98-8.91-10.87-.28-5.71,2.13-9.67,7.23-12.11,4.76-2.28,9.84-1.9,14.9-1.9,92.99,0,185.98,0,278.98,0,2.33,0,4.69-.2,7,.05,8.39,.9,15.55,3.37,14.99,13.86-.53,9.84-7.37,11.7-15.45,11.71-22.18,.02-44.36,0-66.53,0-26.46,0-52.92,0-79.37,0Zm.03,74.79c-47.46,0-94.92,.01-142.38-.02-3.49,0-7.18,.35-10.42-.64-5.65-1.72-9.06-5.75-8.96-12.09,.08-5.75,2.74-9.85,8.31-11.13,4.48-1.03,9.2-1.4,13.82-1.41,92.98-.08,185.96-.06,278.93-.06,2.33,0,4.68-.16,7,.04,8.4,.73,15.68,2.92,15.05,13.58-.58,9.79-7.3,11.72-15.45,11.71-48.63-.01-97.26,0-145.89,0Zm.05,224.13c-48.24,0-96.48-.03-144.72,.04-7.37,.01-14.59-.42-16.69-9.09-1.8-7.45,1.3-13.19,8.96-15.17,4.05-1.05,8.46-.97,12.71-.98,92.98-.05,185.96-.04,278.93-.04,2.33,0,4.67-.09,7,.03,8.68,.45,15.49,3.18,15.08,13.58-.39,9.97-7.26,11.64-15.39,11.64-48.63-.03-97.26-.01-145.89-.01Zm-1.45-149.54c-46.68,0-93.36,0-140.03,0-3.11,0-6.25,.19-9.33-.17-6.7-.78-10.52-4.72-10.92-11.46-.41-6.75,2.78-11.23,9.54-12.44,3.79-.68,7.73-.79,11.6-.79,93.74-.04,187.49-.04,281.23-.02,15.92,0,20.61,2.88,20.68,12.43,.07,9.62-4.53,12.44-20.4,12.45-47.46,0-94.91,0-142.37,0Zm-210.77-149.61c-4.64,0-9.37,.59-13.89-.15-5.7-.93-9.87-4.24-10.39-10.65-.54-6.65,2.14-11.43,8.7-13.16,9.85-2.6,19.93-2.11,29.83-.5,6.82,1.11,11.27,5.77,10.68,12.96-.63,7.62-5.73,11.42-13.32,11.68-3.86,.13-7.74,.02-11.6,.02,0-.07,0-.14,0-.2Zm-.15,224.12c-4.67,0-9.4,.45-14-.11-6.1-.75-9.75-4.45-10.13-10.86-.4-6.72,2.38-11.72,9.11-12.86,10-1.7,20.21-1.58,30.24-.1,6.69,.99,10.15,6.01,9.84,12.47-.31,6.49-4.28,10.82-11.04,11.43-4.64,.41-9.34,.08-14.01,.08,0-.02,0-.03,0-.05Zm.48-149.27c-4.64,0-9.35,.53-13.89-.13-6.33-.91-10.44-4.62-10.75-11.53-.31-6.8,2.82-11.13,9.46-12.46,9.55-1.92,19.21-1.59,28.78-.32,7.03,.94,11.45,5.4,10.97,12.57-.5,7.49-5.3,11.68-12.98,11.98-3.86,.15-7.73,.03-11.59,.03,0-.05,0-.09,0-.14Zm-.61,224.2c-4.25,0-8.53,.32-12.74-.07-6.51-.6-10.73-4.03-11.27-10.94-.52-6.69,2.41-11.67,8.89-13.01,10.25-2.12,20.78-2.12,31.03-.01,6.34,1.3,9.89,6.33,9.3,12.85-.58,6.44-4.68,10.53-11.31,11.1-4.6,.4-9.27,.08-13.9,.08Zm.1-149.51c-4.28-.02-8.6,.29-12.85-.09-7.29-.65-11.21-4.82-11.26-12.26-.05-6.94,3.57-11.32,10.32-11.74,9.29-.57,18.66-.59,27.95-.08,7.4,.41,11.33,5.56,10.89,12.57-.44,6.9-4.78,11.31-12.19,11.58-4.28,.16-8.57,.03-12.85,.01Zm74.76-284.92c-.02-9.56-5.18-14.27-14.51-14.31-23.32-.1-46.65-.16-69.98,.03-9.89,.08-14.76,5.35-14.58,15.45,.21,11.65,.05,23.31,.05,34.97,0,11.66,.12,23.32-.03,34.97-.13,9.59,4.72,14.74,13.97,14.85,23.71,.29,47.43,.24,71.14,.02,8.66-.08,13.88-4.64,13.91-13.71,.09-24.09,.08-48.18,.03-72.27Zm-50.37,60.55q-24.56,0-24.56-24.54t24.66-24.62q25.84,0,25.84,23.56,0,25.59-25.93,25.59Z"/>
</svg>