<?xml version="1.0" encoding="UTF-8"?>
<svg id="Layer_1" data-name="Layer 1" xmlns="http://www.w3.org/2000/svg" viewBox="0 0 800 800">
  <defs>
    <style>
      .cls-1 {
        fill: #020202;
      }

      .cls-2 {
        fill: none;
      }
    </style>
  </defs>
  <rect class="cls-2" width="800" height="800"/>
  <path class="cls-1" d="M515.72,180.18c.42,21.63-4.8,42.02-13.94,61.45-5.73,12.19-14.5,16.99-23.07,12.19-11.05-6.18-8.58-15.13-4.32-24.66,18.79-41.98,15.58-82.27-13.21-118.36-28.81-36.12-67.48-48.33-112.44-38.77-66.91,14.22-103.93,90.23-75.5,154,7.09,15.91,6.24,24.02-2.95,28.07-9.89,4.36-17.62-.8-24.5-16.36-23.66-53.45-12.74-114.81,27.82-156.34,40.04-41,101.04-53.74,154.24-32.2,52.94,21.43,87.9,73.55,87.86,130.99ZM243.08,389.29c13.55,9.64,22.37,10.34,28.37,2.2,6.18-8.39,2.94-16.45-10.49-26.22-18.98-13.81-36.77-29.05-50.13-48.49-43.71-63.62-53.36-132.76-31.75-206.46,2.98-10.15,2.54-18.69-8.35-22.24-10.66-3.48-16.8,2.36-20.08,12.71-8.29,26.19-12.76,52.9-12.73,80.52,2.67,85.65,33.61,157.05,105.15,207.98ZM586.01,87.02c-3.98-8.42-9.72-13.6-19.42-10-9.55,3.55-11.08,11.21-8.63,20.21,.45,1.66,1.11,3.27,1.65,4.92,26.91,82.14,15.37,157.71-38.78,225.89-6.5,8.19-10.65,16.39-1.89,25.19,7.14,7.17,16.08,4.93,25.13-6.05,39.44-47.91,58.88-103.03,59.19-164.99-.03-33.39-7.57-74.7-17.24-95.16Zm76.76,640.58c-.02,26.82-12.03,38.79-38.82,38.81-45.91,.04-91.81,.01-137.72,.01-46.34,0-92.68,.04-139.02-.01-26.44-.03-41.02-12.64-38.12-39.1,3.42-31.15-6.01-53.25-33.09-68.5-5.58-3.14-10.24-7.96-15.15-12.21-38.61-33.37-43.15-86.16-10.44-125.28,16.11-19.26,32.7-38.14,49.53-56.78,6.16-6.82,8.89-13.69,8.83-23.12-.41-70.18-.47-140.36-.13-210.54,.21-43.56,32.83-72.88,74.94-68.29,32.22,3.51,56.63,31.59,57.02,66.72,.44,39.42,.37,78.85-.08,118.27-.1,8.85,2.39,13.74,10.51,18,59.75,31.33,119.07,63.47,178.8,94.83,22.71,11.92,33.37,29.44,33.15,55.34-.6,70.61-.17,141.23-.23,211.84Zm-29.74-2.14c-.36-71.01-.3-142.02-.1-213.03,.03-11.29-4.62-18.85-14.36-24.02-56.11-29.79-112.25-59.53-168.17-89.68-8.74-4.71-9.93-2.17-9.77,6.26,.37,20.34,.23,40.7,.08,61.05-.1,13.16-5.62,20.35-15.38,19.65-11.57-.83-14.99-8.55-14.53-18.98,.13-3.02,.02-6.06,.02-9.09,0-64.08,0-128.16,0-192.24,0-12.99,.46-26.01-.23-38.96-1.03-19.25-15.75-33.66-34.08-34.38-19.32-.75-35.01,12.46-37.64,32.04-.63,4.69-.39,9.51-.39,14.26-.02,100.89,0,201.77-.03,302.66,0,14.88-4.57,21.7-14.35,21.93-10.18,.23-15.37-7.16-15.51-22.42-.11-11.94-.02-23.87-.02-35.81-1.05-.31-2.1-.61-3.15-.92-10.49,12.04-21.19,23.9-31.44,36.15-23.1,27.61-19.95,61.98,7.69,84.99,15.63,13.01,31.25,26.06,47.29,38.56,6.69,5.21,10.16,10.64,9.64,19.55-.81,13.81,.35,27.73-.4,41.54-.54,9.91,3.16,12.52,12.66,12.49,90.03-.29,180.06-.26,270.09-.02,8.7,.02,12.15-2.07,12.1-11.57Z"/>
</svg>