<?xml version="1.0" encoding="UTF-8"?>
<svg id="Layer_1" data-name="Layer 1" xmlns="http://www.w3.org/2000/svg" viewBox="0 0 800 800">
  <defs>
    <style>
      .cls-1 {
        fill: #040504;
      }

      .cls-2 {
        fill: none;
      }
    </style>
  </defs>
  <rect class="cls-2" width="800" height="800"/>
  <path class="cls-1" d="M272.93,81.63c4.97-.09,8.37,2.92,11.53,6.05,14.76,14.62,29.54,29.23,44.06,44.09,7.17,7.33,7.7,16.08,1.4,21.55-7.14,6.2-14.44,4.92-20.84-1.38-15.33-15.11-30.64-30.25-45.63-45.7-4.14-4.27-7.1-9.52-3.65-16.07,2.86-5.43,6.92-8.53,13.12-8.54Zm215.93,73.48c18.37-16.73,36.33-33.93,52.52-52.79,4.83-5.63,2.5-12.06-2.55-16.88-5.25-5.02-11.93-5.93-17.1-.98-17.39,16.67-34.37,33.79-51.14,51.09-3.85,3.98-3.58,9.47-.88,14.55,2.53,4.76,6.56,6.83,13.06,7.03,1.29-.4,4.37-.46,6.08-2.02Zm-74.43-99.9c-.53-7.97-5.57-12.08-13.13-12.23-7.56-.14-13.13,3.79-13.54,11.71-.58,11.08-.51,22.23-.06,33.33,.32,7.84,5.43,12.17,13.08,12.24,8.19,.07,13.17-4.41,13.68-12.83,.31-5.17,.06-10.37,.05-15.56,0-5.56,.29-11.13-.08-16.67Zm344.43,680.71c-.01,18.52-3.6,22.14-22.23,22.14-143.47,.02-286.94,0-430.41,0-80.12,0-160.24,0-240.36,0-19.24,0-22.97-3.47-22.56-22.86,.64-30.49-2.48-61.1,1.72-91.47,6.48-46.9,32.06-80.78,73.33-102.81,8.02-4.28,7.63-5.79,1.73-11.57-26.91-26.34-33.97-65.11-18.57-98.44,14.63-31.67,48.87-52.47,82.84-50.33,37.62,2.37,69.36,26.92,79.23,63.29,8.88,32.73,.63,61.83-23.52,85.78-5.52,5.48-6.63,7.42,1.48,10.99,13.7,6.03,25.31,15.49,36.95,26.58,11.69-20.08,25.47-37.78,44.79-50.27,7.46-4.83,19.9-7.79,21.67-14,1.88-6.56-10.36-12.56-15.32-19.84-20.02-29.41-20.45-67.77-.63-97.47,20.24-30.33,55.28-43.88,92.85-35.9,32.05,6.81,58.34,35.55,64.36,69.44,5.23,29.45-4.05,54.03-23.61,75.6-2.42,2.67-6.3,4.14-7.24,8.81,28.09,12.87,49.72,31.64,64.28,57.88,3.44,6.2,5.65,4.61,9.47,.88,9.4-9.17,20.06-16.83,32.07-22.01,8.12-3.5,5.79-5.66,1.07-10.37-36.44-36.33-36.01-92.09,.71-126.15,34.54-32.04,88.14-30.72,120.95,2.97,32.98,33.87,32.94,87.94-.88,121.43-7.43,7.36-6.09,8.95,2.27,13.59,47.95,26.58,72.58,67.68,73.48,122.57,.39,23.83,.08,47.68,.06,71.52ZM180.91,525.51c32.33-.41,57.87-26.37,57.63-58.58-.25-32.28-26.08-57.81-58.44-57.76-32.17,.05-58.42,26.06-58.53,58.02-.11,32.32,26.76,58.73,59.35,58.32Zm82.29,67.14c-28.4-32.03-64.23-44.6-105.61-35.79-43.28,9.21-71.48,36.81-82.74,79.85-7.15,27.32-2.25,55.55-3.66,83.32-.4,7.78,2.06,10.14,9.93,10.01,29.04-.45,58.08-.18,87.13-.18,27.55,0,55.13-.62,82.65,.3,11.33,.38,13.89-2.67,13.99-13.92,.32-37.88-3.07-75.86,2.02-113.64,.56-4.17-1.13-7.06-3.7-9.96Zm137.75-100.69c32.01,.05,57.91-25.14,58.24-56.66,.35-33.49-24.49-59.27-57.49-59.65-32.43-.37-58.6,25.09-58.81,57.22-.22,33.32,25.04,59.03,58.05,59.08Zm109.75,227.32c-.45-28.65-.16-57.31-.18-85.97,0-12.34-1.78-24.49-5.57-36.17-17.05-52.57-67.35-83.43-121.89-75.07-51.43,7.89-90.43,53.76-91.37,108.24-.52,30.14,.13,60.29-.29,90.43-.1,7.4,2.09,9.42,9.37,9.29,24.19-.43,48.4-.16,72.6-.16s48.41-.23,72.6,.15c6.76,.11,9.18-1.59,8.84-8.66-.57-11.88-.3-23.81-.06-35.72,.17-8.57,5.51-13.23,13.48-13.29,7.94-.06,13.37,4.26,13.5,13.06,.13,8.56,.15,17.12,.16,25.68,.02,18.97,.03,18.41,18.67,19.02,8.94,.29,10.27-2.95,10.15-10.83Zm111.89-193.79c32.19-.38,58.26-26.75,57.93-58.6-.33-32.01-26.65-57.85-58.81-57.74-32.33,.12-58.1,25.84-58.17,58.06-.07,32.64,26.29,58.66,59.05,58.27Zm108.35,196.03c-.56-21.57,.48-43.22-.79-64.73-2.59-43.63-24.7-75.49-64.17-92.97-39.98-17.7-78.61-11.94-113.3,15.27-11.22,8.8-22.05,18.08-15.54,35.24,1.49,3.93,.41,8.85,.42,13.32,.02,30.52,.42,61.05-.22,91.55-.19,9.21,2.8,11,11.26,10.85,28.29-.5,56.59-.19,84.89-.19,29.42,0,58.83-.16,88.24,.12,6.42,.06,9.4-1.17,9.21-8.47ZM469.07,265.45c3.08,13.72,5.26,27.65,7.59,41.53,1.42,8.44-1.76,15.45-8.25,20.67-6.75,5.43-14.47,5.75-22.05,1.92-12.62-6.37-25.16-12.9-37.51-19.77-5.32-2.97-9.68-3.42-15.27-.2-12.24,7.05-24.78,13.64-37.5,19.77-14.87,7.18-30.97-2.76-30.98-18.2,2.59-15.43,4.6-30.52,7.87-45.33,1.44-6.52-.28-10.37-4.8-14.56-9.83-9.11-19.28-18.63-28.85-28.02-6.22-6.1-10.02-13.33-7.14-22.05,3.07-9.29,9.99-14.19,19.93-15.38,12.93-1.55,25.74-4.24,38.7-5.44,7.44-.69,10.97-4.49,13.79-10.65,5.26-11.47,10.93-22.76,16.51-34.09,4.04-8.2,9.93-13.86,19.77-13.94,9.84-.09,15.89,5.41,20,13.59,6.16,12.28,12.38,24.54,18.1,37.02,2.09,4.56,4.74,6.84,9.78,7.49,13.66,1.76,27.22,4.31,40.89,5.96,9.88,1.19,17.01,5.77,20.2,15.06,3.15,9.18-1,16.59-7.55,22.94-9.62,9.34-19.05,18.88-28.87,27.99-4.27,3.96-5.68,7.69-4.33,13.67Zm4.25-53.37c-14.23-2.22-26.57-4.47-39-5.95-7.94-.95-12.66-4.93-15.93-11.98-5.23-11.26-11.01-22.26-17.34-34.96-5.63,11.25-10.89,20.55-15.01,30.33-4.53,10.76-12.11,16.32-23.55,17.63-10.63,1.23-21.19,3.04-33.84,4.9,9.24,9.25,16.59,17.09,24.48,24.34,8.14,7.48,11.29,15.88,8.73,26.95-2.48,10.74-3.73,21.76-5.78,34.2,11.45-5.95,21.72-10.99,31.69-16.57,8.95-5.02,17.44-5.1,26.41-.08,10.01,5.59,20.31,10.65,31.86,16.66-2.12-12.7-3.63-24-5.99-35.12-2.15-10.14,.59-18.1,8.01-25.12,8.23-7.79,16.06-15.99,25.27-25.22Zm-4.93,405.71c-7.91-.01-14.15,6.31-13.65,14.25,.52,8.32,5.3,12.85,13.55,13.19,8.14,.34,13.67-5.74,13.42-14.19-.23-7.84-5.66-13.25-13.32-13.26Z"/>
</svg>