<?xml version="1.0" encoding="UTF-8"?>
<svg id="Layer_1" data-name="Layer 1" xmlns="http://www.w3.org/2000/svg" viewBox="0 0 800 800">
  <defs>
    <style>
      .cls-1 {
        fill: none;
      }

      .cls-2 {
        fill: #030403;
      }
    </style>
  </defs>
  <rect class="cls-1" width="800" height="800"/>
  <path class="cls-2" d="M643.54,56.4c-.49,5.41-2.73,9.13-6.04,12.43-15.93,15.87-31.77,31.84-47.71,47.71-6.55,6.52-13.81,9.32-21.71,2.32-6.98-6.19-6.48-14.48,1.49-22.52,16.09-16.25,32.46-32.22,48.54-48.49,5.25-5.32,11.28-5.79,17.54-3.41,5.44,2.07,7.26,7.16,7.89,11.96ZM233.21,115.08c3.25-6.78,1.65-13.01-3.74-18.36-15.97-15.85-31.8-31.83-47.83-47.62-7.59-7.47-17.13-8.17-22.75-1.76-6.9,7.87-4.45,14.95,2.28,21.63,15.97,15.85,31.81,31.82,47.75,47.7,3.21,3.2,6.62,6.14,10.63,6.08,6.8,.1,11.26-2.66,13.66-7.68Zm151.58-1.04c.27,9.97,6.47,16.82,14.55,16.73,8.09-.09,14.26-6.94,14.39-16.94,.24-19.49,.25-38.99,0-58.48-.13-10.35-5.9-16.38-14.6-16.31-8.66,.07-14.11,6.12-14.35,16.53-.23,9.74-.05,19.49-.05,29.24,0,9.75-.21,19.5,.06,29.24ZM138.32,644.91c-8.72,.09-13.02,5.21-13.82,13.22-.79,7.99,5.6,14.49,13.73,14.5,9.15,0,13.41-5.29,14.58-13.95-1.16-8.45-5.18-13.86-14.48-13.77Zm607.38-51.87c-50.41,50.95-101.12,101.6-152.16,151.92-19.25,18.98-47.14,18.27-66.78-.44-8.42-8.02-16.59-16.31-24.65-24.69-13.74-14.28-17.52-31.16-11.03-49.71,2.01-5.73,.85-8.79-3.06-12.6-13.72-13.35-27.46-26.69-40.58-40.61-7.34-7.78-14.45-14.27-24.14-10.32-16.93-.77-31.92-1.46-46.9-2.13-8.74-.39-15.76,2.68-21.97,9.14-14.3,14.87-29.01,29.36-43.81,43.74-3.41,3.32-4.3,5.78-2.28,10.45,9.07,20.96,4.51,39.4-11.48,55.32-7.98,7.94-15.73,16.13-23.99,23.77-19.05,17.62-46.17,17.54-65.05-.25-10.37-9.77-20.33-19.99-30.27-30.21-7.15-7.35-7.61-15.88-1.63-21.87,6.21-6.22,13.82-5.79,21.74,1.82,9.47,9.1,18.48,18.68,27.97,27.76,10.27,9.84,19.29,9.87,29.51,.16,7.89-7.49,15.67-15.13,23.07-23.1,8.41-9.06,7.93-18.64-.87-27.5-47.06-47.37-94.13-94.73-141.24-142.05-3.16-3.18-6.59-6.11-10.05-8.95-9.66-7.94-17.6-7.82-26.77,.82-7.92,7.46-15.67,15.13-23.12,23.05-9.25,9.83-9.22,18.63,.25,28.62,9.03,9.53,18.66,18.49,27.81,27.91,7.58,7.8,8.18,16.95,1.53,22.7-7.97,6.89-15.01,4.25-21.65-2.52-9.2-9.38-18.69-18.46-27.85-27.87-20.26-20.79-20.33-48.34-.21-69.11,7.57-7.81,15.31-15.46,23.07-23.09,13.39-13.15,29.26-17.81,47.44-12.82,4.69,1.29,8.11,2.01,12.01-2.05,12.22-12.72,24.71-25.18,37.44-37.39,3.89-3.73,3.64-5.87,.46-10.07-21.06-27.79-15.07-57.8,15.31-76.05,4.5-2.71,4.19-4.13,2.44-8.34-12.38-29.68-2.12-55.37,27.23-67.94,4.81-2.06,5.57-4.39,5.34-9.12-1.28-27.34,7.5-41.96,32.11-53.08,4.23-1.91,5.06-3.39,4.71-8.08-2.77-37.5,22.92-60.81,60.35-55.26,2.15,.32,4.49,1.86,6.47,.13,14.35-12.57,30.89-9.03,47.11-6.14,28.36,5.07,56.62,10.66,84.94,15.97,3.29,.62,6.65,1.1,9.98,1.18,30.53,.74,50.87,21.25,49.76,51.41-.31,8.29,1.45,12.07,9.66,15.41,19.71,8.02,30.71,29.68,27.42,51.55-.7,4.65-.13,6.09,4.45,7.98,23.78,9.81,34.13,26.12,32.77,51.58-.33,6.12,.81,8.99,6.91,11.5,30.87,12.73,40.56,49.08,20.04,75.39-4.44,5.69-4.74,8.66,.58,13.64,12.06,11.27,23.6,23.11,35.11,34.95,3.54,3.65,6.44,4.67,11.69,2.78,19.55-7.06,36.83-2.43,51.57,12.02,7.77,7.62,15.61,15.18,23.11,23.06,18.98,19.96,19.55,48.05,.18,67.63ZM350.6,183.21c7.17,22.06,21.86,35.82,39.32,47.29,2.4,1.57,4.53,2.26,6.92-.16,10.85-10.99,21.77-21.9,34.21-34.38-28.25-3.84-53.12-11.97-80.45-12.75Zm-51.09,44.09c20.19,20.07,40.35,40.17,60.47,60.3,2.97,2.97,6.29,5.19,10.27,6.6,9.39,3.32,21.07-1.96,24.96-11.42,4.15-10.11,.59-18.01-9.85-22.88-26.03-12.16-46.07-30.9-57.75-57.13-4.26-9.57-9.14-13.9-19.17-12.23-9.54,1.59-16.19,9.81-16.29,20.62-.6,6.22,2.65,11.46,7.36,16.14Zm-37.99,60.84c16.58,16.77,33.15,33.56,50.11,49.94,9.59,9.26,21.46,8.96,29.97,.21,7.87-8.1,7.5-21.02-1.45-30.14-16-16.3-32.31-32.3-48.45-48.47-4.7-4.71-10.2-7.48-16.47-7.73-8.88,.82-15.47,4.67-18.89,12.6-3.86,8.93-1.4,16.95,5.17,23.59Zm-39.93,58.04c13.87,15.11,28.53,29.55,43.44,43.66,6.27,5.93,14.65,5.57,22.04,1.72,7.12-3.7,10.86-10.07,10.48-15.92-.27-6.63-.43-10.9-3.53-14.01-14.48-14.55-28.71-29.38-43.78-43.3-7.57-6.99-19.3-5.55-26.51,1.4-7.04,6.79-8.94,19.05-2.14,26.45Zm-26.28,71.73c5.32,9.63,13.38,17.35,22.65,22.95,13.39,8.09,30.29-2.35,30.3-17.96,0-12.95-22.28-34.81-35.23-34.54-15.27,.31-25.08,16.22-17.72,29.56Zm323.25,218.34c39.42-39.67,78.93-79.24,118.75-118.52,5.3-5.23,4.27-7.98-.39-12.42-11.13-10.61-22.14-21.38-32.6-32.64-5.29-5.69-8.59-5.8-13.98,.03-8.2,8.86-15.85,9.29-22.41,2.82-6.64-6.56-5.65-14.52,3.08-23.41,9.73-9.9,19.9-19.4,29.22-29.67,7.53-8.3,7.04-19.95-.03-27.58-7.4-7.99-19.39-8.92-28.47-1.72-4.39,3.48-8.08,7.82-12.2,11.65-7.99,7.4-15.72,8.03-21.68,1.43-6.94-7.67-5.18-14.85,1.78-21.66,7.77-7.61,15.64-15.16,22.89-23.25,7.81-8.71,7.61-20.94,.3-28.51-8.08-8.38-19.87-8.78-29.3-.65-4.54,3.91-8.5,8.48-12.89,12.57-7.57,7.05-15.99,7.53-21.88,1.43-5.81-6.02-5.15-14.39,2.08-21.86,7.56-7.83,15.54-15.26,23.02-23.16,9.58-10.12,9.9-22.57,1.17-30.95-8.43-8.1-20.4-7.55-30.17,1.52-3.85,3.57-7.38,7.49-11.21,11.08-8.04,7.51-15.48,8.05-21.71,1.74-6.27-6.34-5.85-14.14,1.54-21.77,7.57-7.81,15.53-15.25,23.08-23.08,9.66-10,10.27-22.47,1.82-30.96-8.65-8.7-20.83-8.3-30.99,1.43-9.22,8.82-17.54,18.66-27.31,26.8-8.83,7.36-12.37,14.44-6.29,25.22,1.88,3.33,1.41,7.98,1.54,8.86,.04,28.45-17.04,48.52-42.19,51.83-5.86,.77-6.81,2.98-7.63,8.28-3.43,22.19-19.26,37.84-41.43,41.26-5.22,.81-7.24,2.03-8.18,7.86-3.76,23.27-18.74,37.92-42.12,41.85-4.83,.81-6.55,1.96-7.46,7.22-5.83,33.79-36.4,51.19-67.99,38.75-4.89-1.93-7.68-2.12-11.47,1.85-11.41,11.93-23.04,23.68-35.08,34.97-5.21,4.89-4.6,7.69,.23,12.46,39.8,39.3,79.4,78.8,118.81,118.48,4.46,4.49,6.81,4.71,11.26,.08,14.57-15.15,29.68-29.77,44.5-44.68,8.22-8.27,17.82-12.68,29.59-14.34,20.36-2.87,40.41,1.98,60.67,.79,12.6-.74,23.43-4.17,32.05-13.68,3.01-3.32,6.25-6.5,9.72-9.35,6.5-5.35,13.24-5.17,19.12,.84,5.87,6,5.87,12.89,.44,19.12-4.92,5.64-10.08,11.28-15.99,15.8-5.73,4.39-4.39,6.99-.03,11.17,11.91,11.43,23.69,23.03,35.02,35.04,4.63,4.91,7.16,3.9,11.41-.37Zm206.34-90.97c-7.43-7.92-15.13-15.62-23.03-23.07-8.98-8.47-20.13-8.52-28.97,.26-49.94,49.66-99.69,99.49-149.56,149.21-4.22,4.21-6.6,9.09-6.51,14.97,.16,11.18,32.21,43.4,44.52,43.72,4.37-1.03,9.53-2.8,13.72-6.99,49.82-49.84,99.76-99.56,149.47-149.5,9.6-9.64,9.48-18.89,.37-28.6Zm-188.6-23.61c.67-8.85-4.26-14.04-12.83-15.21-7.46-1.02-14.69,5.47-15.02,13.08-.38,8.91,4.53,13.61,12.77,15.44,8.69-.45,14.42-4.45,15.08-13.31Z"/>
</svg>