<?xml version="1.0" encoding="UTF-8"?>
<svg id="Layer_1" data-name="Layer 1" xmlns="http://www.w3.org/2000/svg" viewBox="0 0 800 800">
  <defs>
    <style>
      .cls-1 {
        fill: none;
      }

      .cls-2 {
        fill: #010101;
      }
    </style>
  </defs>
  <rect class="cls-1" width="800" height="800"/>
  <path class="cls-2" d="M723.98,341.84c.01-18.01-7.39-32.42-22.39-41.72-8.02-4.97-7.55-7.82-2.71-14.91,19.25-28.2,16.89-64.8-4.98-90.99-21.64-25.93-58-34.35-89.16-20.67-27.71,12.17-46.79,40.82-45.49,70.71,1.42,32.55,17.13,56.52,47.48,69.13,10.27,4.27,9.63,6.5,2.48,13.38-20.62,19.83-40.8,40.12-60.71,60.66-5.47,5.65-11.05,7.72-18.8,7.57-23.34-.46-46.69-.19-70.04-.16-34.33,.04-49.62,17.72-44.15,51.39h-30.26c6.56-31.8-9.48-51.27-41.92-51.38-24.85-.08-49.71-.01-74.57-.02-4.09,0-8.12,.48-11.55-2.96-24.2-24.21-48.52-48.3-73.9-73.52,4.87-2.05,7.59-3.26,10.36-4.36,35.01-13.92,53.94-49.72,46.43-87.83-6.61-33.52-40.12-60.18-75.7-59.12-29.4,.87-52.19,14.52-66,40.46-14.21,26.71-12.49,53.67,4.57,78.8,4.49,6.61,4.06,8.96-2.71,13.22-16.16,10.19-23.33,25.49-23.26,44.77,.25,67.38,0,134.77,.14,202.15,.06,28.04,16.94,44.61,45.16,44.73,28.24,.11,56.5,.43,84.73-.19,9.78-.21,13.37,1.68,13.14,12.55-.79,36.87-.38,73.78-.27,110.67,.08,26.8,17.99,45.88,42.44,45.52,24.18-.35,41.19-19.02,41.22-45.48,.06-53.83,.03-107.66-.01-161.49,0-4.85,.42-9.73-1.67-14.44-3.07-6.89,.45-8.06,6.68-7.99,23.72,.25,47.46,.48,71.17-.11,8.24-.21,9.79,2.54,9.74,10.15-.33,49.31-.63,98.63,.15,147.94,.19,12.08-3.34,14.74-14.75,14.34-22.37-.78-33.02,10.62-33.07,33.05,0,3.39,.14,6.78-.03,10.16-.47,9.61,4.52,13.88,13.63,13.9,30.13,.06,60.26,.02,90.38,.03,5.2,0,9.8-1.32,12.43-6.22,7.08-13.21-.55-40.32-13.29-47.45-7.6-4.26-15.98-4.25-24.23-3.63-6.68,.5-9.03-1.21-8.98-8.49,.34-51.57,.36-103.15-.02-154.72-.06-7.96,2.87-9.12,9.73-8.98,19.2,.4,38.41,.08,57.62,.17,6.74,.03,14.97-1.88,19.8,1.27,4.79,3.11-1.48,10.61-1.45,16.56,.36,56.84,.09,113.68,.3,170.53,.06,15.48,7.47,27.41,20.74,35.2,28.3,16.62,62.33-3.66,62.73-37.68,.45-38.02,.36-76.04-.08-114.06-.1-8.52,1.65-11.52,10.91-11.31,29.74,.66,59.5,.52,89.25,.16,25.49-.31,42.61-17.37,42.68-42.6,.19-68.89,.02-137.78,.07-206.67Zm-142.13-98.64c.08-28.89,24.25-53.2,53.16-53.46,29.47-.27,54.2,24.13,54.22,53.49,.01,28.97-23.93,53.05-53.12,53.44-29.4,.39-54.34-24.18-54.26-53.47Zm-144.97,187.57c1.49-10.16,8.71-13.12,17.98-13.1,27.48,.05,54.97-.28,82.45,.18,8.99,.15,15.6-2.53,21.91-8.95,26.11-26.57,52.63-52.73,79.04-79,9.03-8.98,19.24-15.71,32.53-16.13,17.56-.55,30.27,11.24,30.44,28.89,.25,25.97,.06,51.94,.08,77.9,.01,25.97-.28,51.94,.2,77.9,.14,7.63-2.33,9.42-9.54,9.24-18.81-.47-37.66-.56-56.47,.03-7.77,.24-9.3-2.48-9.19-9.59,.4-24.83,.34-49.68,.03-74.51-.08-6.14,1.48-10.72,6.12-14.82,5.64-4.96,10.64-10.64,16.08-15.83,6.11-5.83,11.78-12.44,4.27-20.12-8.16-8.35-14.75-1.76-20.87,4.39-20.45,20.54-41.08,40.89-61.46,61.5-5.07,5.13-10.68,8.02-17.92,8.01-32.76-.06-65.51,.12-98.27-.1-11.65-.08-18.75-6.72-17.41-15.89Zm167,69.01c.08,5.7-1.46,7.69-7.54,7.95-30.66,1.31-30.4,1.5-30.72-28.88-.08-7.35,1.76-11.34,8.78-14.58,11.28-5.22,17.87-16.66,29.37-25.61,0,22.07-.17,41.6,.11,61.13ZM166.11,189.73c28.92,.25,53.16,24.58,53.23,53.43,.07,29.29-24.86,53.87-54.27,53.5-29.2-.36-53.16-24.44-53.16-53.41,0-29.38,24.71-53.78,54.2-53.52ZM99.65,496.36c.5-25.58,.18-51.18,.19-76.77,0-25.22-.14-50.43,.05-75.65,.16-21.86,18.18-35.08,39.23-28.96,9.25,2.69,16.91,8.01,23.68,14.78,26.62,26.59,53.39,53.03,79.84,79.79,5.7,5.76,11.69,8.4,19.91,8.27,26.35-.42,52.71-.16,79.06-.15,3.01,0,6.05-.1,9.02,.25,8.14,.97,13.36,5.46,13.63,13.8,.27,8.35-4.72,14.33-12.75,14.43-36.12,.47-72.26,.24-108.38-.02-5.59-.04-9.32-4.38-13.09-8.15-20.73-20.78-41.57-41.46-62.28-62.27-5.84-5.87-12.31-10.18-19.34-3-6.97,7.13-3.26,14.37,3.41,19.21,19.5,14.16,26.06,32.63,23.24,56.42-1.94,16.33-.85,33.09-.17,49.63,.34,8.29-2.58,9.96-10.21,9.73-18.06-.55-36.17-.78-54.2,.07-9.47,.45-10.99-3.06-10.83-11.43Zm107.6,11.39c-7.91,.04-10.3-2.11-10.06-10.07,.57-18.79,.18-37.61,.18-58.78,13.37,10.21,21.83,23.21,36.03,29.34,4.13,1.78,1.82,7.61,1.85,11.54,.2,28.14,.13,27.83-28.01,27.96Zm73.61,207.06c-.05,13.34-7.5,21.83-18.86,21.93-11.3,.1-19.28-8.39-19.34-21.71-.2-42.87-.06-85.73-.09-128.6-.01-15.97-2.14-18.07-18.36-18.09-33.48-.03-66.96,.06-100.44-.04-19.84-.06-30.64-16.14-23.87-34.88,1.32-3.66,3.82-2.99,6.26-2.99,51.54-.03,103.07-.19,154.61,.12,13.46,.08,20.03,7.77,20.09,21.82,.11,27.07,.03,54.15,.03,81.22,0,27.07,.07,54.15-.03,81.22Zm148.56,10.29c5.05,.1,7.5,2.78,7.32,7.89-.2,5.65-4.53,3.95-7.48,4.01-9.78,.2-19.56,.07-29.34,.07-9.4,0-18.81,.1-28.21-.06-3.01-.05-7.25,1.44-7.34-4.18-.08-5.16,2.5-7.71,7.5-7.74,12.79-.08,25.58-.05,38.36-.05,6.39,0,12.79-.06,19.18,.06Zm86.92-217.56c-38.77,0-77.55,0-116.32,0-44.04,0-88.09-.2-132.13,.19-7.84,.07-10.12-1.88-10.06-9.89,.19-28.36-.14-28.36,28.66-28.36,81.69,0,163.38,.17,245.07-.23,9.32-.05,12,2.17,11.79,11.63-.6,26.65-.15,26.66-27,26.66Zm156.25,60.79c-32.35,0-64.7-.05-97.05,.02-14.57,.03-16.95,2.47-16.96,17.21-.04,41.36-.01,82.72-.02,124.09,0,3.01,.19,6.05-.19,9.01-1.39,11.03-9.33,18.29-19.48,18.07-10.65-.24-18.48-8.24-18.56-19.9-.21-27.82-.07-55.65-.07-83.48,0-26.7-.06-53.4,.01-80.09,.05-15.74,6.79-22.75,22.61-22.8,50.03-.15,100.06,.03,150.09-.18,6.06-.03,8.4,1.18,8.53,7.92,.49,24.57-4.52,30.13-28.91,30.13Zm-121.43-498.5c-.42-21.09-12.8-33.08-33.29-33.22-41.41-.29-82.83-.28-124.25,0-20.18,.14-32.25,11.74-33.26,32-.32,6.44-2.13,8.16-8.39,8.06-21.83-.35-43.67-.19-65.51-.12-23.93,.07-36.3,12.07-36.69,35.85-.25,15.05-.05,30.11-.05,45.16,0,16.18-.2,32.37,.05,48.55,.29,18.41,8.33,32.27,23.67,33.65,15.5,1.39,17.27,8.65,15.49,20.78-.27,1.84-.05,3.76-.03,5.64,.06,5.42,.47,10.83,6.43,13.22,5.46,2.19,10.03,.28,14.51-3.33,14.33-11.54,27.36-27.19,43.8-32.93,16.48-5.74,36.45-1.22,54.88-1.67,18.59-.45,30.88-12.5,32.45-30.87,.27-3.14-1.79-7.46,1.97-9.17,4.45-2.04,7.65,1.71,10.86,4.28,12.91,10.35,25.64,20.96,38.82,30.96,9.83,7.46,18.63,3.28,19.41-8.87,.39-6,.36-12.05,.04-18.06-.31-5.83,.94-8.57,7.85-8.98,19.79-1.17,30.81-12.37,31.21-32.71,.65-32.73,.65-65.49,0-98.22Zm-147.26,149c-14.65-.53-29.36,.39-43.99-.31-10.39-.5-18.94,1.83-26.59,9.15-6.11,5.86-13.21,10.68-20.39,16.36-.61-2.2-1.08-3.2-1.14-4.22-1.19-20.52-1.74-21.07-21.49-21.11-16.56-.04-17.77-1.24-17.78-18.11-.02-27.82-.03-55.64,0-83.46,.02-15.94,1.75-17.71,17.09-17.72,37.99-.01,75.98,.23,113.96-.16,10.68-.11,14.93,3.83,14.81,14.51-.34,30.07-.34,60.16,0,90.23,.12,10.44-3.55,15.24-14.48,14.85Zm124.69-57.94c-.02,16.16-1.14,17.22-17.24,17.25-19.66,.03-21.21,1.52-21.99,20.89-.04,1.1-.37,2.19-.89,5.08-9.42-7.49-17.6-13.98-25.76-20.49-3.24-2.58-6.42-6.01-10.83-5.3-10.32,1.66-11.34-3.59-11.07-12.1,.58-18.42,.33-36.87,.14-55.3-.22-21.38-13.16-34.07-34.69-34.36-4.89-.07-9.79,.14-14.68-.06-3.76-.16-8.94,1.68-8.72-5.29,.16-5.17,.96-10.01,7.04-11.26,2.91-.6,5.98-.52,8.98-.52,38.02-.03,76.03-.05,114.05,0,13.62,.02,15.59,1.93,15.64,15.69,.1,28.6,.06,57.19,.02,85.79Zm-182.73,5.13c13.17,0,26.33,.01,39.5,0,7.29,0,12.8,2.53,13.06,10.66,.27,8.48-4.92,12.15-12.86,12.18-26.71,.09-53.42,.05-80.12,.03-7.97,0-13.35-3.62-13.13-11.98,.2-7.77,5.43-10.94,12.93-10.91,13.54,.07,27.08,.02,40.63,.02Zm13.07-13.92c-8.66,0-17.32,.06-25.98-.03-7.04-.07-11.64-3.35-11.86-10.71-.24-7.85,4.42-11.94,11.86-12.06,17.69-.28,35.39-.26,53.08-.03,7.24,.1,12.39,3.53,12.44,11.54,.05,8.13-5.03,11.2-12.44,11.27-9.03,.09-18.07,.02-27.11,.02Zm-56.21-23.01c7.22,1.2,11.91,4.78,11.83,11.82-.08,7-4.38,11.16-11.59,11-6.65-.15-10.48-4.08-10.75-10.67-.3-7.34,4.47-10.57,10.5-12.16Z"/>
</svg>