<?xml version="1.0" encoding="UTF-8"?>
<svg id="Layer_1" data-name="Layer 1" xmlns="http://www.w3.org/2000/svg" viewBox="0 0 800 800">
  <defs>
    <style>
      .cls-1 {
        fill: #020202;
      }

      .cls-2 {
        fill: none;
      }
    </style>
  </defs>
  <rect class="cls-2" width="800" height="800"/>
  <path class="cls-1" d="M577.98,252.87c8.96-14.9,18.64-29.43,26.69-44.81,8.54-16.34,20.99-22.58,39.18-21.9,26.02,.98,52.11,.35,78.17,.21,18.37-.09,25.79-7.59,26.04-25.79,.07-5.36-.32-10.79,.37-16.07,.74-5.61,4.79-8.81,10.38-8.87,5.01-.06,9.6,2.51,10.07,7.67,1.61,17.59,3.41,35.44-9.72,50.22-8.65,9.74-19.56,14.25-32.62,14.18-27.98-.15-55.96,.26-83.93-.21-8.78-.15-14.04,2.83-18.39,10.47-11.37,19.97-23.62,39.43-35.28,59.23-5.19,8.82-11.93,14.29-22.55,11.16-10.58-3.12-13.32-11.5-13.2-21.6,.18-15.33-.2-30.67,.14-45.99,.19-8.29-2.31-12.46-11.39-13.48-23.22-2.63-37.89-19.16-38.17-42.68-.35-29.51-.38-59.03,0-88.53,.33-25.23,17.65-42.95,42.74-43.1,60.17-.35,120.34-.34,180.51,0,24.34,.14,41.07,16.65,42.55,40.8,.44,7.25,.37,14.57-.02,21.83-.35,6.57-4.04,11.12-10.85,10.98-6.68-.14-10.37-4.47-10.57-11.23-.2-6.51,.17-13.04-.19-19.54-.71-12.93-8.21-21.13-21.03-21.19-60.17-.28-120.34-.29-180.51,.03-12.85,.07-20.3,8.29-20.42,21.49-.27,29.51-.27,59.02,0,88.53,.12,12.78,6.43,19.3,19.38,21.59,22.56,3.98,29.99,12.74,30.06,35.55,.03,10.12,0,20.25,0,30.37l2.54,.69Zm-10.96-116.3c-7.63-.02-14.43,1.62-14.49,10.77-.06,9.14,6.64,10.9,14.34,10.89,46.39-.05,92.79-.07,139.18,.01,8.09,.01,15.45-1.63,15.14-11.31-.28-8.87-7.38-10.41-14.99-10.37-23,.11-46.01,.04-69.01,.04-23.39,0-46.78,.04-70.16-.02Zm140.65-28.96c7.55,.07,13.38-2.68,13.56-10.66,.18-8.08-5.79-11.12-13.18-11.14-29.52-.07-59.05-.06-88.57-.02-7.28,0-13.34,2.31-13.37,10.77-.03,9.15,6.33,11.12,14.14,11.05,14.19-.14,28.37-.04,42.56-.04,14.95,0,29.91-.1,44.86,.04Zm-122.8-10.48c.35-10.57-7.89-11.44-16.05-11.42-8.08,.02-16.34,.64-16.28,11.23,.05,9.8,7.63,10.99,15.7,10.64,7.8,.32,16.28,.13,16.63-10.45Zm-4.37,670.77c-4.17,.46-8.42,.34-12.63,.34-82.04,.02-164.08,.01-246.12,.01-83.57,0-167.15,.07-250.72-.04-25.89-.03-44.81-20.16-35.85-41.96,8.37-20.36,6.33-40.31,6.91-60.6,1.11-38.66,12.6-73.83,34.38-105.57,4.21-6.13,6-11.94,5.23-19.18-.76-7.23-.68-14.55-.94-21.83-1.14-32.49,16.58-50.81,49.43-50.89,34.12-.09,68.24,0,102.36-.03,13.59-.01,17.6-3.89,18.32-17.53,.06-1.15-.08-2.31,.05-3.45,2-16.5-1.88-28.72-16.96-39.65-21.4-15.52-32.61-39.36-37.55-65.31-1.49-7.82-3.5-10.81-12.06-10.82-25.17-.03-38.17-13.54-38.36-38.4-.1-12.65,0-25.3,.06-37.95,.04-10.65,4.07-19.87,12.65-25.85,6.04-4.21,6.68-9.08,6.86-15.52,.59-21.37-2.31-42.86,3.36-64.07,11.63-43.6,51.46-75.78,96.76-76.44,38.71-.57,77.44-.34,116.16-.07,23.67,.16,41.46,14.75,46.49,38.33,1.48,6.95,3.55,9.97,11.19,10.93,22.49,2.82,38.11,21.41,38.97,45.63,.55,15.7,.34,31.44,.06,47.15-.1,5.78,1.08,9.93,6.18,13.57,9.74,6.96,13.62,17.36,13.7,29.04,.17,25.69,.38,51.38-.04,77.06-.44,26.98-18.95,45.48-46.13,44.93-12.6-.25-21.67,1.92-28.32,13.78-5.43,9.69-14.52,16.9-23.87,22.94-6.02,3.89-7.47,8.49-7.54,15.22-.42,42.08,4.04,36.63,35.56,36.53,28.75-.09,57.5-.11,86.26,0,32.4,.13,51.8,19.48,48.68,51.39-1.99,20.34,1.41,37.22,12.88,54.69,18.22,27.73,24.93,59.78,26.47,92.88,.93,19.92-1.87,39.63,6.76,59.55,7.99,18.43-8.29,38.97-28.64,41.18Zm-18.17-67.48c3.4-.39,6.89-.26,10.31-.02,5.15,.36,7.45-1.27,7.63-6.99,1-33.2-1.48-65.73-16.52-96.14-1.55-1.34-3.07-1.34-4.56,.1-1.82,31.29-3.49,62.6-5.59,93.87-.47,7.04,1.53,10.01,8.73,9.19Zm-151.4-332.81c0-5-3.27-7.57-8.18-7.62-8.78-.09-17.57-.09-26.36,.05-4.43,.08-7.29,2.55-7.53,7.01-.27,5.04,2.78,7.89,7.56,8.31,4.55,.4,9.16,.09,13.74,.09v.04c4.2,0,8.42,.2,12.6-.05,4.77-.29,8.16-2.84,8.16-7.83Zm62.31-37.13c-7.18,.17-14.7-.09-21.4,2-5.18,1.61-2.61,8.84-4.72,13.18-.81,1.67-.69,3.77-1.38,5.52-2.61,6.66,.58,8.12,5.71,7.4,14.6-.05,25.06-9.55,24.84-22.03-.04-2.44,1.01-6.16-3.05-6.07Zm-18.68-62.39c-1.9,.58-3.83,1.45-3.85,3.62-.1,11.79-.07,23.59,.07,35.38,.01,.84,1.1,1.94,1.97,2.45,8.12,4.73,22.7-2.06,23.21-11.6,.77-14.25,.2-28.58,.2-46.15-7.68,8.75-13.71,13.89-21.61,16.3Zm-261.45,29.93c.62-7.21,.17-14.51,.17-21.77,0-3.44,.37-6.87-4.14-8.29-7.76-2.45-14.01-7.31-21.61-12.71,0,11.73-.07,23.46,.04,35.19,.03,3.41-.02,7.02,1.03,10.18,3.28,9.82,11.7,9.98,19.87,9.18,8.2-.8,4.27-7.62,4.63-11.79Zm25.42-51.22c-.25-11.49-.24-23-.07-34.49,.52-35.25,28.83-58.1,62.78-49.01,27.49,7.36,54.06,7.37,81.51-.02,33.75-9.09,62.4,13.82,63.04,48.98,.21,11.5-.02,23,.05,34.5,.01,2.51-.9,5.62,2.77,6.64,9.33,2.59,28.21-11.11,28.27-20.73,.13-20.7,.19-41.4-.02-62.09-.17-16.66-8.91-25.85-25.84-27.85-15.1-1.78-21.85-8.39-23.6-23.13-1.95-16.43-10.57-24.18-27.5-24.3-19.16-.14-38.33-.03-57.49-.03,0,.08,0,.17,0,.25-20.31,0-40.66-.78-60.93,.17-37.33,1.75-70.36,33.25-73.06,70.43-1.66,22.89-.7,45.96-.98,68.95-.07,6.16,2.72,10.14,8.54,12.1,5.08,1.71,10.19,3.36,15.19,5.3,5.79,2.25,7.49,.08,7.36-5.65Zm93.06,173.54c27.19,3.32,51.76-4.65,73.03-22.59-4.55-.42-9.18-.45-13.65-1.32-13.58-2.65-23.23-13.54-24.31-26.96-1.04-12.9,7.21-26.68,20.66-29.61,16.75-3.65,34.29-5.36,50.57,2.31,6.36,3,7.41,1.81,8.69-4.27,3.91-18.62,1.94-37.42,2.5-56.13,.14-4.61-2.68-5.14-6.39-6.15-13.09-3.57-18.78-11.24-19.02-25.04-.2-11.87,0-23.75-.06-35.62-.12-23.75-14.42-36.61-36.95-30.31-30.1,8.41-59.25,8.43-89.34,0-22.46-6.29-37.09,6.67-37.3,30.24-.11,12.64,.02,25.28-.04,37.92-.04,9.25-3.86,18.55-12.35,20.12-14.87,2.74-12.18,12.56-12.24,22.03-.03,5.74,.04,11.49,.09,17.24,.52,58.79,37.61,101.01,96.1,108.16Zm59.8,19.21c.09-4.71-1.5-5.94-6.23-4.31-28.47,9.8-57.09,9.97-85.57,.12-5.76-1.99-6.52,.22-6.62,5.03-.15,6.87,.07,13.9-1.38,20.53-1.31,5.98,.16,7.42,5.82,7.34,14.55-.22,29.1-.07,43.64-.07,11.49,0,22.97,0,34.46,0q16.71,0,15.97-16.01c-.18-4.2-.17-8.42-.09-12.63ZM63.4,694.29c.08,2.71,.2,4.99,3.73,6.07,15.47,4.76,23.16-.88,22.34-16.71-.22-4.21-.41-8.42-.49-12.64-.14-7.14,2.77-12,10.44-12.36,7.14-.33,10.46,4.21,11.17,10.6,.8,7.23,1.36,14.53,1.27,21.8-.08,6.57,1.53,9.51,9.02,9.46,50.6-.31,101.2-.29,151.8-.04,8.55,.04,8.49-3.39,6.25-9.81-3.75-10.74-10.55-19.39-17.39-28.21-27.43-35.41-18.73-87.35,18.31-111.03,6.54-4.18,13.22-6.36,20.52-2.45,6.98,3.74,8.54,10.24,8.46,17.58-.13,12.65,.55,25.34-.22,37.94-.63,10.25,3.97,12.22,12.95,11.99,8.16-.21,14.2-.29,13.41-11.3-.84-11.82-.02-23.76-.25-35.64-.16-8.48,.86-16.43,9.21-20.74,8.81-4.55,16.23-.36,23.31,4.83,35.29,25.85,41.85,75.53,14.28,110.03-6.25,7.83-12.16,15.69-15.83,25.15-3.24,8.35-2.53,11.87,8.11,11.75,48.68-.54,97.37-.5,146.05,0,9.41,.1,12.43-2.52,12.85-11.93,2.55-56.29,5.79-112.54,8.55-168.82,1.07-21.89-6.25-29.43-27.85-29.43-127.65-.03-255.3-.03-382.95,0-21.59,0-29.15,8.19-27.91,29.46,1.86,31.76,3.54,63.53,5.33,95.29,.41,7.35-1.62,13.47-9.83,14.18-8.92,.77-11.91-5.33-12.36-13.14-.42-7.44-.72-14.88-1.06-22.24-3.76,.04-3.92,2.32-4.66,3.87-14.74,30.57-17.5,63.2-16.57,96.47Zm223.81-119.52c-23.33,18.71-26.49,51.28-8.15,74.48,10.61,13.42,19.57,27.35,23.09,44.28,.84,4.06,2.03,7.58,7.21,6.8,10.56-1.6,21.78,3.64,31.79-3.13,.47-.32,.44-1.42,.56-2.18,2.94-18.01,12.71-32.31,23.72-46.38,17.84-22.79,14.55-54.68-8.42-73.81,0,11.25,.01,20.3,0,29.35-.04,25.2-8.34,33.39-33.88,33.42-1.91,0-3.83,.01-5.74,0-21-.17-29.98-9.07-30.16-30.01-.09-10.44-.02-20.88-.02-32.81Zm283.57,147.16c-1.15-.01-2.3,0-3.45,0-163.67,0-327.34,0-491,.01-3.45,0-6.96-.26-10.32,.31-6.37,1.08-10.59,5.01-10.77,11.57-.2,7.15,4.13,11.36,11,12.53,3.36,.57,6.88,.3,10.32,.3,81.64,.01,163.28,0,244.93,0,22.23,0,44.46,0,66.69,0,60.94,0,121.89-.05,182.83,.05,8.83,.01,16.53-1.34,17.53-11.99,.79-8.43-5.44-12.67-17.76-12.8Z"/>
</svg>