<?xml version="1.0" encoding="UTF-8"?>
<svg id="Layer_1" data-name="Layer 1" xmlns="http://www.w3.org/2000/svg" viewBox="0 0 800 800">
  <defs>
    <style>
      .cls-1 {
        fill: none;
      }

      .cls-2 {
        fill: #010101;
      }
    </style>
  </defs>
  <rect class="cls-1" width="800" height="800"/>
  <path class="cls-2" d="M36.58,403.78c.19-167.87,120.9-317.28,283.81-352.87,188.95-41.27,373.25,67.68,428.4,254.3,18.53,62.71,18.78,126.28,1.66,189.72-2.57,9.51-7.16,15.24-17.43,13.76-8.56-1.23-13.12-10.25-10.31-20.82,5.06-19.06,7.31-38.54,9.69-58.03,.91-7.47-1.01-11.3-9.18-9.76-.41,.08-.84,.01-1.26,0-16.69-.23-24.2-5.19-23.78-15.71,.39-9.72,7.32-14.37,23.97-13.55,10.54,.52,12.14-2.77,11.24-12.74-6.36-71.01-33.17-133.26-78.1-188.26-6.81-8.34-11.78-10.86-18.59-.88-1.39,2.04-3.48,3.64-5.41,5.24-6.85,5.68-13.94,5.83-20.28-.43-6.4-6.32-6.01-13.14-.4-20.19,4.28-5.38,13.93-9.24,12.05-15.94-1.62-5.74-9.71-9.86-15.28-14.27-53.74-42.57-114.93-65.96-183.19-71.59-8.56-.71-10.21,2.15-9.51,9.49,.43,4.57,.44,9.28-.14,13.83-.98,7.79-6.55,12.24-13.65,12.44-7.03,.19-12.8-3.69-14.31-11.57-.24-1.23-.44-2.48-.57-3.73-2.23-21.12-2.27-21.53-22.85-19.1-68.41,8.09-128.94,34.38-181.57,78.99-6.13,5.19-6.61,8.62-.29,13.31,2,1.48,3.54,3.58,5.37,5.3,7.5,7.03,10.08,15.43,2.24,22.94-7.67,7.35-15.95,4.45-23.28-2.49-12.05-11.42-12.27-11.37-22.57,1.26-44.29,54.33-70.37,116.09-76.47,186.19-.86,9.93,1.68,14.03,11.82,12.34,2.45-.41,5.04-.17,7.55,0,9.07,.59,15.84,5,15.95,14.33,.12,9.83-6.3,14.73-16.25,15.3-21.63,1.22-21.55,1.72-17.68,23.6,3.13,17.69,5.7,35.45,10.59,52.78,2.46,8.7,.72,16.61-8.58,19.46-9.57,2.94-16.12-1.29-18.5-11.54-2.07-8.93-5.24-17.63-6.99-26.61-4.89-25.1-8.73-50.35-7.91-74.48ZM350.71,183.8c-132.47,27.24-212.42,174.36-163.5,301.01,3.72,9.62,8.63,16.81,20.15,13.86,9.33-2.39,12.32-11.92,7.57-23.98-11.95-30.37-15.14-62.04-11.06-93.91,15.83-123.44,136.9-200.48,255.95-163.58,12.44,3.86,20.64,1.22,22.8-7.81,2.79-11.66-4.09-16.94-14-19.94-22.58-6.84-45.54-11.27-67.31-10.77-18.36-.15-34.49,1.8-50.6,5.12Zm59.47,111.19c9.47,.67,15.86-3.47,16.78-12.88,.93-9.58-4.93-14.72-14.24-15.52-6.66-.57-13.43-1.25-20.04-.65-72.25,6.51-122.26,54.21-130.94,126.04-3.56,29.46,3.74,57.25,18.58,83.01,3.26,5.65,7.76,9.14,14.29,7.58,6.43-1.54,11.36-5.24,12.08-12.69,.57-5.79-2.19-10.32-4.64-15.27-36.99-74.44,16.38-160.2,99.34-159.64,2.93,0,5.88-.17,8.8,.03Zm105.57,351.11c-10.38,9.14-20.66,18.44-31.55,26.94-6.67,5.2-7.83,10.86-5.71,18.5,3.58,12.85,6.22,25.97,10.02,38.75,3.85,12.95,.07,23.14-9.87,31.27-9.96,8.14-21.09,7.56-31.8,1.84-12.54-6.69-25.12-13.5-36.83-21.5-7.93-5.41-13.73-4.52-21.15,.56-10.69,7.31-22.28,13.27-33.28,20.13-11.5,7.17-22.88,7.95-33.91-.37-11.11-8.39-12.87-19.99-9.77-32.76,3.34-13.77,6.11-27.75,10.58-41.15,2.55-7.66,.17-11.45-5.4-15.71-10.99-8.39-21.51-17.39-32.38-25.93-10.42-8.18-14.07-18.94-10.59-31.27,3.4-12.07,12.52-18.35,25.02-19.49,14.19-1.29,28.37-3.24,42.58-3.57,8.48-.2,12.54-2.99,15.42-11.02,4.92-13.71,11.24-26.93,17.14-40.29,5.06-11.48,13.62-17.76,25.38-17.13,13.07-.02,20.86,6.1,25.65,16.48,6.47,14.03,13.17,27.97,19,42.26,2.79,6.83,6.6,9.39,13.98,9.61,13.81,.42,27.58,2,41.36,3.23,13.34,1.19,22.93,7.39,26.92,20.76,3.76,12.61-1.79,21.95-10.79,29.88Zm-17.76-23.37c-14.37-.89-26.43-2.9-38.31-2.11-22.4,1.47-36.68-6.76-43.55-28.83-3.69-11.84-10.13-22.83-16.49-36.75-7.18,16.46-13.76,30.32-19.29,44.59-5.18,13.35-14.35,19.29-28.44,20.7-16.13,1.61-32.6,.76-50.12,5.53,11.94,9.31,22.28,18.46,33.68,26,16.77,11.08,19.4,25.7,14.4,43.75-3.83,13.83-6.58,27.96-10.23,43.81,15.11-9.7,28.65-18.02,41.79-26.93,11.72-7.94,22.66-8.59,34.9-.54,13.74,9.03,28.38,16.71,45.15,26.44-4.51-17.85-7.76-32.87-12.17-47.55-4.1-13.65-1.33-24.41,9.63-33.64,12.69-10.68,24.9-21.93,39.06-34.48Zm-277.52,56.14c-5.38,4.67-10.36,10-16.34,13.71-9.7,6.03-10.35,13.78-7.33,23.59,2.08,6.75,2.67,13.94,4.46,20.8,2.92,11.15-.86,19.89-9.61,26.38-8.55,6.34-18.83,7.71-26.76,.45-20.5-18.77-38.91-17.66-60.8-.8-16.7,12.86-37.85-.05-37.54-22.69,1.62-7.61,2.75-17.72,6.07-27.06,3.17-8.93,.37-14.01-6.55-19-6.44-4.64-12.27-10.13-18.36-15.26-8.31-7-10.44-16.21-7.9-26.16,2.38-9.34,9.41-14.88,18.73-16.53,9.47-1.67,19.09-3.15,28.67-3.29,8.18-.11,11.82-3.85,14.34-10.9,2.8-7.84,6.54-15.34,9.76-23.04,4.43-10.59,12.56-15.09,23.74-14.84,10.72,.24,20.07,4.91,22.29,15.07,5.92,27.18,21.41,38.69,49.12,36.26,10.22-.9,18.6,5.43,21.59,15.93,2.96,10.37,.98,19.95-7.6,27.39Zm-27.5-16.79c-33.8,5.55-50.57-10.76-56.23-42.49-9.43,13.15-9.56,28.3-20.5,36.93-10.96,8.65-26.29,2.98-40.62,10.08,30.61,14.9,34.74,37.53,23.02,67.09,24.69-24.44,47.83-21.06,71.59,1.5-.52-16.39-7.13-28.76-4.57-41.71,2.81-14.23,19.01-17.64,27.32-31.4Zm558.16,16.44c-22.67,14.01-29.68,31.95-18.98,57.22,4.39,10.37,.88,20.84-8.72,27.94-9.73,7.19-20.64,7.13-28.98-.73-20.01-18.85-38.56-17.48-58.51-.04-8.61,7.53-19.48,7.99-28.97,.41-8.91-7.1-12.48-16.1-8.72-27.78,2.68-8.31,2.94-17.45,6.04-25.55,2.56-6.7,.49-9.89-4.43-13.57-6.38-4.77-12.12-10.39-18.46-15.21-9.37-7.12-13.11-16.38-10.29-27.61,2.79-11.11,11.36-16.13,22.08-17.67,9.13-1.31,18.32-2.57,27.52-2.97,6-.26,8.94-2.78,10.95-8.11,3.24-8.6,6.91-17.04,10.67-25.43,4.34-9.69,11.91-14.81,23.18-15.16,10.5,.29,20.69,4.53,22.99,15.32,5.85,27.41,21.7,38.39,49.17,36.35,10.05-.75,18.99,4.82,21.87,15.61,2.78,10.42,1.38,20.93-8.38,26.97Zm-27.72-16.57c-34.65,6.2-50.24-11.6-57.9-42.14-6.46,32.61-25.21,46.76-58.45,44.3,27.19,17.03,37.09,37.95,21.58,68.32,25.62-21.75,49.3-20.4,72.63,2.34,.41-15.92-8.36-28.12-4.96-41.76,3.44-13.82,19.24-17.23,27.1-31.05Zm-173.79-399c-20.73,24.76-41.61,49.4-62.44,74.07-12.45,14.74-24.86,29.52-37.39,44.19-3.39,3.97-4.59,7.2-3.12,13.23,7.43,30.32-9.61,56.97-38.72,62.34-27.98,5.16-53.08-13.16-57.93-42.3-4.75-28.52,19.31-54.94,51.03-54.63,2.92,.25,8.06-.82,11.1,1.23,12.38,8.37,17.61-.77,24.01-8.43,29.03-34.77,58.17-69.44,87.27-104.15,1.35-1.61,2.64-3.27,4.09-4.78,6.7-7.05,14.49-9.22,21.97-2.15,6.83,6.46,5.98,14.39,.13,21.38Zm-130.06,144.69c-.35-10.66-8.94-19.34-19.13-19.32-10.56,.03-19.68,9.53-19.53,20.35,.16,11,9.18,19.94,19.9,19.72,10.8-.22,19.12-9.43,18.76-20.75Z"/>
</svg>