<?xml version="1.0" encoding="UTF-8"?>
<svg id="Layer_1" data-name="Layer 1" xmlns="http://www.w3.org/2000/svg" viewBox="0 0 800 800">
  <defs>
    <style>
      .cls-1 {
        fill: none;
      }

      .cls-2 {
        fill: #050505;
      }
    </style>
  </defs>
  <rect class="cls-1" width="800" height="800"/>
  <path class="cls-2" d="M128.64,341.48c-8.01,.05-14.73-6.63-14.64-14.55,.08-7.64,6.7-14.24,14.36-14.31,7.82-.08,14.28,6.2,14.45,14.04,.18,8.26-6.05,14.78-14.17,14.83Zm640.36-63.62c-.72,.77-.72,1.54,0,2.3v8.06c-1.3,3.66-.25,7.44-.58,11.15,.3,2.42-.65,4.93,.58,7.27v9.21c-1.58,8.24-1.37,16.67-2.91,24.95-9.08,48.5-29.93,91.18-62.88,127.89-38.97,43.42-87.29,70.55-144.38,82.09-5.57,1.13-7.86,3.58-8.97,9.14-11.4,57.14-38.72,105.55-81.72,144.73-32.78,29.87-71.16,49.77-114.27,60.41-2.05,.51-4.18,.5-6.24,.99-3.14,.11-6.27,.28-9.31,1.21h-93.28c-2.29-1.34-4.83-1.1-7.33-1.17-17.86-3.15-34.79-9.25-51.31-16.51-34.39-15.12-63.81-37.17-89-64.89-13.97-15.38-25.68-32.41-35.52-50.73-13.63-25.38-23.03-52.16-27.6-80.64-1.18-7.34-.85-14.82-2.29-22.12v-6.91c.93-2.3,.93-4.61,0-6.91v-3.45c1.24-2.57,.29-5.3,.58-7.94-.3-2.33,.65-4.77-.58-7.03v-4.61c.72-.77,.72-1.54,0-2.3v-4.61c2.26-.57,1.31-2.49,1.45-3.8,4.61-40.42,17.28-78.03,39.02-112.53,3.86-6.13,8.89-9.39,16.29-8.18,10.17,1.67,14.9,12.99,9.02,22.48-9.43,15.21-17.76,30.97-23.3,47.98-25.65,78.76-14.47,151.91,35.54,218.08,34.43,45.55,80.59,74.38,136.56,85.16,78.39,15.11,147.63-5.17,205.97-59.79,37.61-35.22,60.39-79.1,68.39-129.93,8.82-56-1.43-108.7-30.87-157.47-2.75-4.56-4.11-4.28-7.4-.49-31.45,36.21-63.08,72.28-94.69,108.36-13.09,14.94-27.29,16.34-42.89,4.33-9.43-7.25-18.86-14.5-28.27-21.78-15.37-11.89-17.16-28.29-4.57-42.95,33.51-39,66.99-78.03,100.72-116.83,3.89-4.48,2.77-6.05-1.62-8.54-69.91-39.61-141.68-43.35-215.36-11.45-2.11,.91-4.15,2-6.26,2.91-8.51,3.69-16.53,1.17-20.14-6.29-3.73-7.73-.54-15.83,7.84-20.01,21.94-10.94,45-18.53,69.12-22.73,3.84-.67,4.92-2.28,5.56-5.78,12.99-70.07,48.61-125.87,106.45-167.36,33.31-23.9,70.68-38.12,111.02-44.78,2.39-1.09,5.11-.4,7.51-1.41,1.25-.67,2.85,.16,4.01-.92h5.76c1.15,.85,2.3,.85,3.45,0h24.18c3.07,.95,6.14,.95,9.21,0h10.36c15.39,1.18,30.55,3.72,45.44,7.79,30.05,8.38,57.55,22.1,82.75,40.36,42.46,30.78,72.61,71.03,91.39,119.9,6.84,17.79,11.49,36.13,13.89,55.04,.74,5.84,.35,11.77,1.45,17.58v3.45Zm-215.78-13.43c5.75-6.56,11.91-8.53,18.24-5.8,6.9,2.98,9.01,8.68,8.97,15.85-.09,17.26,.22,34.53,.12,51.79-.02,4.1,.9,5.94,5.42,5.67,6.5-.38,13.05-.43,19.56-.09,4.69,.25,5.76-1.51,5.72-5.94-.41-45.27-.6-90.54-.9-135.81-.06-9.81-3.89-13.31-13.83-13.29-22.82,.05-45.65,.02-68.47,.02,0,.76,0,1.53,0,2.29-23.4,0-46.79,.14-70.19-.12-4.79-.05-5.82,1.59-5.55,5.91,.39,6.31,.5,12.67,.23,18.98-.2,4.61,1.39,5.9,5.95,5.77,18.02-.52,36.06-.56,54.08-1,6.93-.17,12.6,1.69,15.76,8.2,3.29,6.79,.92,12.52-3.72,17.89-25.33,29.32-50.56,58.71-75.84,88.07-37.04,43.02-74.05,86.07-111.18,129-2.92,3.38-3.12,5.29,.7,8.03,7.64,5.47,15.09,11.22,22.35,17.18,3.15,2.58,4.86,2.2,7.33-.86,5.06-6.26,10.56-12.16,15.86-18.22,56.46-64.51,112.92-129.03,169.4-193.52Zm184.3-.96c-5.7-44.93-22.94-85.24-53.01-119.03-62.29-69.99-140.33-97.05-231.39-74.53-91.15,22.55-147.44,82.81-170.68,173.85-1.39,5.43,.08,6.38,5.32,6.27,51.82-1.01,99.77,12.24,143.58,39.96,4.1,2.6,5.88,1.89,8.69-1.45,12.98-15.4,26.23-30.58,39.35-45.86,.93-1.08,2.45-1.96,2.07-3.91-9.36,0-18.71,0-28.05,0-17.52,0-29.32-11.46-29.68-28.98-.22-10.36-.28-20.72-.27-31.09,.01-16.18,11.48-28.19,27.6-28.49,48.92-.93,97.84-1.8,146.76-2.45,24.37-.32,41.28,16.54,41.59,40.97,.21,17.08,.22,34.16,.33,51.23,.19,30.13,.42,60.25,.55,90.38,.08,18.85-11.12,30.21-29.84,30.4-9.98,.1-19.96,.27-29.93,.17-16.86-.16-28.55-11.79-28.86-28.6-.12-6.7-.02-13.4-.02-21.94-15.06,17.2-28.86,33.09-42.84,48.82-2.65,2.98-.67,4.8,.77,6.97,29.85,45.15,44.17,94.83,43.27,148.89-.07,4.53,.94,5.62,5.45,4.6,20.13-4.56,39.39-11.43,57.58-21.14,86.49-46.19,133.99-137.79,121.65-235.06Z"/>
</svg>