<?xml version="1.0" encoding="UTF-8"?>
<svg id="Layer_1" data-name="Layer 1" xmlns="http://www.w3.org/2000/svg" viewBox="0 0 800 800">
  <defs>
    <style>
      .cls-1 {
        fill: none;
      }

      .cls-2 {
        fill: #010101;
      }
    </style>
  </defs>
  <rect class="cls-1" width="800" height="800"/>
  <path class="cls-2" d="M760.96,221.19c-.02-25.99-11.64-44.58-35.87-54.74-4.29-1.8-7.61-3.64-9.33-8.68-5.57-16.29-16.96-27.32-33.04-33.28-4.59-1.7-6.91-4.1-8.69-8.96-5.73-15.62-16.77-26.54-32.44-32.58-3.4-1.31-6.61-2.01-8.27-6.52-10.15-27.67-30.84-38.82-59.67-38.68-78.01,.39-156.02,.38-234.03-.02-23.24-.12-42.34,7.2-58.63,24.03-26.99,27.88-54.5,55.29-82.32,82.34-16.42,15.97-23.93,34.68-23.78,57.53,.42,64.06,.1,128.13,.2,192.2,.01,6.88-1.28,13.11-3.86,19.62-19.38,48.95-16.97,96.98,7,143.95,1.97,3.85,8.25,8.03,2.57,12.61-6.21,5.01-8.87,15.42-20.38,13.15-11.48-2.27-21.73,1.74-29.94,9.87-26.24,25.99-52.5,51.95-78.29,78.38-14.24,14.59-14.07,33.8-.14,48.66,10.04,10.72,20.48,21.1,31.15,31.19,14.79,13.98,34.87,13.99,49.75-.05,11.78-11.11,23.01-22.8,34.47-34.25,5.4-5.39,8.16-11.36,1.59-17.52-6.14-5.76-11.68-2.68-16.7,2.35-10.91,10.93-21.9,21.78-32.8,32.73-7.53,7.56-15.09,7.69-22.66,.21-9.38-9.27-18.73-18.57-27.95-28-6.98-7.14-7.16-14.68-.07-21.82,24.97-25.13,50.02-50.17,75.1-75.18,7.03-7.01,14.63-7.6,21.91-.62,9.79,9.38,19.32,19.04,28.79,28.75,7.08,7.25,6.65,14.65-.29,21.86-3.66,3.8-7.61,7.37-10.83,11.51-3.46,4.43-2.89,9.17,1.08,13.23,3.56,3.64,8.29,5.18,12.23,1.95,11.98-9.82,25.65-19.98,23.37-37.46-1.67-12.78,5.95-18.22,12.7-25.45,2.91-3.11,5.3-2.95,8.78-.81,15.9,9.75,33.49,15.36,51.41,19.93,5.23,1.33,8.25,3.83,10.31,8.93,10.19,25.27,29.35,36.84,56.41,36.81,113.81-.14,227.62,0,341.43-.08,36.9-.02,59.67-23.04,59.7-60.09,.05-67.46,.01-134.92,.01-202.38,0-68.21,.04-136.42-.02-204.64Zm-124.21,277.47c-.94-126.6-.34-253.21-.34-379.82v-14.13c11.52,5.03,16.9,13.33,19.16,23.9,.93,4.36,.74,8.99,.75,13.5,.03,133.39,.03,266.78,.02,400.17,0,29.02-12.11,41.22-41.11,41.25-51.94,.05-103.89,.02-157.04,.02,5.88-15.21,14.54-21.21,30.29-20.34,27.42,1.52,55.06-.8,82.48,.71,39.92,2.2,66.09-24.79,65.79-65.25ZM216.46,161.07c27.39-27.42,54.9-54.94,82-82.06,0,16.17,.83,33.78-.23,51.27-1.11,18.32-14.34,30.36-32.66,30.95-15.81,.51-31.65,.16-47.47,.15-1.02,0-2.05-.38-1.64-.3Zm-20.2,49.74c.03-19.64,7.92-27.57,27.21-27.66,13.94-.07,27.9,.28,41.83-.13,31.22-.9,54.41-24.72,54.76-55.98,.16-14.7-.14-29.4,.11-44.09,.24-14.4,8.85-23.56,23.22-23.6,79.14-.2,158.28-.27,237.42,.05,19.72,.08,33.43,14.16,33.45,33.8,.16,138.31,.16,276.61,0,414.92-.02,19.84-13.53,33.28-33.44,33.53-30.14,.39-60.3-.04-90.44,.24-7.72,.07-8.5-1.86-6.1-9.11,30.95-93.53-19.24-190.72-113.66-216.44-60.85-16.57-115.54-1.75-161.88,41.72-3.29,3.09-6.4,6.37-9.62,9.54-.24,.24-.7,.26-2.87,1.02,0-3.17,0-5.31,0-7.46,0-50.12-.04-100.24,.02-150.36Zm12.98,405.96c-3.2,3.5-5.25,.01-7.27-1.94-4.32-4.17-8.6-8.38-12.76-12.7-1.94-2.02-5.34-4.07-2.23-7.42,2.97-3.19,5.44-7.11,10.36-8.75,6.75,6.92,14.4,13.21,19.78,21.07,2.01,2.94-4.94,6.55-7.88,9.75Zm-29.42-139.59c.24-80.88,66.5-146.37,147.37-145.66,80.95,.71,144.84,65.66,144.52,146.91-.33,81.67-65.33,146.11-146.89,145.61-80.38-.49-145.24-66.18-145-146.85Zm559.69,147.32c0,30.67-11.56,42.18-42.35,42.18-111.53,.01-223.07-.02-334.6,.04-11.14,0-22-.59-30.35-9.28-2.47-2.57-6.96-5.09-5.25-9.02,1.45-3.33,6.07-1.55,9.25-1.55,46.72-.1,93.45-.07,140.17-.07,60.67,0,121.33,.03,182-.01,38.24-.03,61.23-22.89,61.26-61.17,.09-97.59,.03-195.19,.02-292.78,0-3.01,.23-6.11-.43-9-1.28-5.66-4.69-9.72-10.95-9.4-6.05,.31-9.5,4.34-10.5,10.06-.58,3.3-.23,6.76-.23,10.15,0,97.22,0,194.43-.02,291.65,0,26.25-12.4,38.78-38.59,38.8-79.51,.06-159.01,.02-238.52,.02-2.92,0-5.85,0-10.35,0,15.2-15.78,31.36-21.02,51.68-20.45,51.58,1.45,103.23,.53,154.85,.46,38.64-.05,60.99-22.34,61.01-61.02,.06-128.49,0-256.98,.16-385.47,0-3.67-2.84-9.41,2.2-10.84,3.91-1.11,7.02,3.72,9.7,6.79,5.39,6.18,7.96,13.4,7.9,21.74-.16,20.35,.09,40.7-.1,61.04-.07,7.99,1.71,15.28,10.75,15.56,10.1,.31,11.49-7.69,11.45-15.88-.07-15.81-.02-31.63-.02-48.82,10.92,4.1,16.11,11.87,18.48,21.52,1.33,5.4,1.33,11.21,1.33,16.84,.07,132.64,.06,265.27,.05,397.91ZM316.73,237.29c0-8.27-.1-16.54,.03-24.81,.11-7.15,3.65-11.49,11.05-11.3,6.9,.18,10.06,4.71,10.15,11.13,.21,14.28,.35,28.57,.01,42.85-.23,9.68,3.73,15.32,13.54,15.39,9.54,.07,14.26-4.78,13.95-14.85-.43-13.52-.06-27.06-.11-40.6-.03-7.61,2.06-13.82,10.97-13.89,9.19-.07,10.78,6.79,10.86,14.01,.18,14.28,.48,28.59-.08,42.85-.82,20.88-16.23,34.98-36.74,34.42-19.78-.53-33.4-15.08-33.66-36.03-.08-6.39-.01-12.78-.01-19.17,.01,0,.03,0,.04,0Zm222.44,16.27c0-5.64-.16-11.28,.04-16.91,.29-8.31,1.52-16.53-11.52-15.75-4.84,.29-7.42-4.65-7.27-9.78,.17-5.7,3.31-9.63,8.88-9.8,13.89-.44,27.8-.43,41.69-.07,5.54,.14,8.87,3.86,9.1,9.58,.26,6.27-3.17,10.98-9.13,10.53-10.79-.8-9.99,5.6-9.89,12.69,.21,14.28,.11,28.57,.04,42.85-.04,7.6-1.22,15.29-10.83,15.3-9.25,0-11.32-6.94-11.15-14.96,.16-7.89,.04-15.79,.04-23.68Zm-56.62-7.54c0-10.89,.02-21.79,0-32.68-.02-7.03,3-11.7,10.33-12.19,7.67-.52,11.07,4.38,11.14,11.19,.24,22.91,.26,45.82-.03,68.73-.09,6.77-3.73,11.83-11.23,11.22-7.13-.58-10.21-5.5-10.2-12.46,.01-11.27,0-22.54,0-33.81Zm-16.65-22.64c-7.53-18-22.53-24.15-39.5-22.47-5.54,0-9.3,0-13.06,0-8.28,.01-12.51,4.05-12.49,12.44,.06,22.17,.12,44.34,.09,66.51,0,5.43,1.98,9.61,6.98,11.81,13.45,5.89,42.02-.44,51.27-12.02,13.72-17.18,14.95-36.58,6.71-56.26Zm-17.43,29.72c-1.43,9.04-5.23,16.38-15.88,17.55-7.15,.79-11.73-.37-10.64-9.23,.63-5.17,.12-10.48,.12-15.73h-.04c0-4.12-.01-8.25,0-12.37,.04-11.61,4.04-14.37,14.93-10.29,9.41,3.52,13.93,14.71,11.5,30.07Zm-142.21,23.13c-7.74-21.48-15.96-42.78-23.92-64.18-2.22-5.96-5.14-10.88-12.49-11.01-7.88-.14-11.06,5.07-13.44,11.4-6.85,18.23-13.76,36.44-20.64,54.65-1.71,4.54-3.4,9.08-4.63,12.38-.21,6.99,2.3,10.92,7.61,12.49,6.05,1.78,10.81-1.01,12.64-6.49,2.44-7.29,5.68-11.38,14.27-10.46,8.84,.95,19.13-2.84,21.95,10.82,.96,4.67,5.5,6.98,10.62,6.53,7.32-.65,11.11-7.54,8.02-16.13Zm-37-22.23c-3.19,.15-4.89-1.14-4.06-4.77,.08-2.56,.5-5.06,4.22-4.5,3.79,.57,4.22,3.98,4.55,6.57,.41,3.21-2.68,2.6-4.71,2.7Zm57.46,102.13c-67.05-.21-122.12,53.94-122.44,120.38-.32,67.82,53.28,122.25,121,122.88,67.34,.63,122.26-53.83,122.46-121.45,.19-66.83-54.22-121.6-121.02-121.81Zm-.59,222.12c-55.34,.04-100.74-45.58-100.37-100.87,.36-55.28,44.83-99.57,100.14-99.75,55.73-.18,100.26,44.57,100.15,100.64-.1,55.16-44.86,99.94-99.92,99.97Zm51.24-166.55c-14.78-5.42-30.68-.28-39.24,13.64-8.81,14.33-16.81,29.16-25.61,44.54-2.49-2.7-4.27-4.49-5.88-6.42-13.62-16.32-33.73-19.2-48.67-6.95-15.05,12.34-16.4,30.98-3.28,48.14,10.96,14.34,22,28.61,33.2,42.76,18.59,23.5,44.64,21.72,59.44-4.12,15.29-26.72,30.32-53.6,45.49-80.4,2.97-5.25,5.7-10.58,6.3-16.7,1.49-15.23-7.35-29.22-21.74-34.5Zm-3.03,40.32c-15.42,27.12-30.55,54.4-46.05,81.47-6.1,10.66-14.74,11.51-22.39,2.06-11.83-14.61-23.15-29.65-34.68-44.5-2.11-2.72-3.95-5.54-3.5-9.13-.33-5.37,2.68-8.57,7.01-10.64,5.17-2.47,9.77-.69,13.18,3.3,5.36,6.29,10.14,13.08,15.41,19.46,7.74,9.36,15.03,8.87,21.17-1.67,10.02-17.21,19.83-34.55,29.44-51.99,4.29-7.78,10.33-11.92,18.33-7.14,7.7,4.6,6.05,11.81,2.08,18.78Z"/>
</svg>