<?xml version="1.0" encoding="UTF-8"?>
<svg id="Layer_1" data-name="Layer 1" xmlns="http://www.w3.org/2000/svg" viewBox="0 0 800 800">
  <defs>
    <style>
      .cls-1 {
        fill: none;
      }

      .cls-2 {
        fill: #010101;
      }
    </style>
  </defs>
  <rect class="cls-1" width="800" height="800"/>
  <path class="cls-2" d="M751.41,227.17c-14.28-22.56-25.22-47.15-35.93-71.66-3.95-9.04-8.68-17.88-8.98-28.19-.14-4.95,.05-8.28,6.2-10.06,12.17-3.54,17.57-12.7,17.45-25.28-.1-11.12,.18-22.24-.07-33.36-.36-15.9-9.3-25.21-24.98-25.27-57.16-.18-114.32-.04-171.48-.09-7.33,0-13.49,2.3-18.37,7.85-8.65,9.83-9.58,60.85,.42,68.98,7.99,6.5,5.75,11.32,2.16,17.88-19.84,36.25-37.84,72.97-29,116.38,1.52,7.49-4.15,5.7-7.89,5.7-47.82,.08-95.64,0-143.45,.12-5.6,.01-8.57-.94-10.41-7.43-8.73-30.76-35.28-50.69-66.11-50.75-30.7-.05-57.11,19.62-66.39,50.5-1.84,6.13-4.23,7.82-10.14,7.71-16.87-.31-33.76-.21-50.64-.08-16.79,.13-23.83,6.83-24.27,23.6-.36,13.79-.64,27.64,.13,41.4,.49,8.69-2.61,14.13-9.34,19.27-12.18,9.29-23.54,19.63-35.43,29.31-11.34,9.23-16.96,21.18-18.55,35.53-3.05,27.37-4.44,55.12-10.13,81.94-8.28,39.06,.53,73.32,22.02,105.53,3.47,5.2,7.98,8.73,14.47,5.33,6.6-3.46,7.94-9.07,4.6-15.54-4.56-8.83-9.44-17.5-14.14-26.26-6.07-11.33-10.06-23.44-8.74-36.28,3.33-32.33,8.08-64.52,10.89-96.88,1.73-19.97,8.07-36.1,25.82-46.93,5.81-3.55,10.61-8.76,16.63-13.86,2.76,4.63,1.62,8.5,1.64,12.16,.12,24.92,.15,49.85,.04,74.77-.1,21.33,6.53,39.58,22.54,54.41,12.65,11.72,24.82,24.01,36.58,36.62,11.35,12.17,24.61,13,38.95,7.92,15.06-5.34,22.49-16.83,22.87-32.49,.42-17.63,.33-35.28,.04-52.91-.18-10.87,1.51-21.36,5.05-31.52,6.23-17.85,13.98-34.98,29.37-47.01,11.63-9.09,20.52-5.12,21.93,9.27,.37,3.8,.35,7.66,.34,11.49-.1,29.91-.55,59.82-.28,89.73,.19,20.65,.57,41.3,3.56,61.87,3.58,24.69,6.18,49.53-5.68,73.16-8.74,17.42-17.47,34.84-25.8,52.46-2.28,4.83-4.95,6.64-10.39,6.61-40.66-.24-81.33-.34-121.99,.07-7.51,.08-8.45-2.55-8.77-9.15-.93-18.78-9.93-35.05-17.94-51.5-2.57-5.27-7.62-6.35-12.83-4.59-5.61,1.9-7.54,6.66-6.22,12.02,1.27,5.13,3.64,10,5.63,14.94,3.83,9.52,9.09,18.53,9.42,29.23,.15,4.97-.15,8.18-6.27,10-12.09,3.59-17.53,12.75-17.37,25.36,.15,11.5-.27,23.02,.12,34.51,.49,14.51,9.52,23.86,23.94,23.92,57.54,.24,115.09,.08,172.63,.13,6.88,0,12.79-2.1,17.57-7.09,9.83-10.24,10.21-61.68-.68-70.73-6.55-5.44-5.2-9.11-2.1-14.94,19.32-36.3,38.7-72.66,29.98-116.2-1.33-6.62,2.88-6.48,7.45-6.48,48.27,.06,96.54,.07,144.81-.02,4.72,0,7.41,.9,9.08,6.22,10.64,33.72,34.89,52.17,67.23,51.89,31.31-.28,56.03-19.08,65.79-50.98,1.73-5.67,4.01-7.24,9.43-7.16,16.49,.25,32.99,.11,49.49,.08,19.61-.04,25.83-6.29,25.98-26.27,.1-13.8,.37-27.62-.12-41.41-.26-7.17,1.76-12.08,7.6-16.59,12.42-9.6,24.04-20.24,36.3-30.06,11.76-9.42,17.64-21.54,19.37-36.31,3.38-28.86,6.65-57.74,10.95-86.47,4.69-31.26,1.95-60.39-15.56-88.05ZM242.3,746.14c-19.95,0-39.9,0-59.85,0-26.09,0-52.19-.33-78.27,.19-8.32,.17-10.84-2.68-10.09-10.5,.94-9.83-4.06-22.54,2.03-28.85,6.12-6.34,18.87-1.93,28.69-1.98,45.27-.22,90.55,.16,135.82-.31,9.16-.1,11.65,2.46,11.53,11.55-.39,29.9-.02,29.91-29.86,29.91Zm138.62-215.2c-20.32-.38-40.66-.59-60.97,.07-8.87,.29-11.14-2.94-11.09-11.16,.26-41.02,.12-82.03,.04-123.05,0-4.97,0-10.02-.82-14.89-4.82-28.22-28.87-38.81-53.15-23.22-17.85,11.46-27.74,29.2-35.76,48.06-7.86,18.5-11.74,37.84-11.41,58.03,.25,14.95-.06,29.9,.1,44.85,.06,5.58-1.75,9.72-7.09,11.83-5.27,2.07-10.94,2.85-15.19-1.36-15.77-15.65-31.53-31.34-46.59-47.67-5.74-6.23-7.55-14.75-7.5-23.51,.16-27.6,.06-55.2,.05-82.8-.01-28.37,.21-56.74-.17-85.1-.09-6.98,1.65-9.25,8.9-9.01,16.86,.56,33.74,.27,50.62,.15,14.27-.1,20.81-5.64,23.76-19.7,4.93-23.43,22.9-38.28,46.26-38.23,23.38,.05,40.99,14.71,46.1,38.37,3.02,14.01,9.57,19.45,23.91,19.57,13.42,.11,26.85,.03,40.27,.03q18.88,0,18.88,19.44c0,9.58-.62,19.22,.18,28.74,.76,9.01-1.93,13.16-11.13,16.05-26.01,8.18-41.63,26.93-46.19,53.52-4.39,25.64,4.09,47.52,23.99,64.63,7.37,6.34,15.79,11.12,25.23,13.14,6,1.29,8.23,3.52,8.05,9.8-.44,14.94-.57,29.91,.04,44.84,.31,7.61-2.74,8.75-9.35,8.62Zm279.79,.05c-17.62-.61-35.27-.21-52.91-.18-16,.02-17.82,1.58-19.92,16.92-2.76,20.11-15.35,34.51-34.85,39.46-20.02,5.08-36.22-1.53-49.04-17.03-5.17-6.26-8.03-13.62-9.03-21.92-1.97-16.4-3.49-17.42-20.44-17.44-18.02-.01-36.05-.29-54.06,.14-6.62,.16-8.5-1.94-8.37-8.41,.38-18.77,.21-37.56,.11-56.34-.07-14.08-2.43-16.58-16.2-17.95-23.17-2.31-41.57-21.77-42.77-45.23-1.12-21.8,15.28-42.72,37.28-47.56q21.71-4.78,21.71-27.23c0-15.71,.32-31.44-.15-47.14-.2-6.88,1.49-9.29,8.86-9.1,20.69,.54,41.42,.55,62.11,0,8.14-.22,10.49,2.49,10.44,10.37-.28,41.01-.15,82.02-.06,123.03,.01,4.95,.17,9.99,1.08,14.84,5.13,27.36,29.37,37.72,52.83,22.35,17.69-11.59,27.64-29.28,35.79-48.1,9.61-22.19,12.32-45.54,11.45-69.52-.4-11.1,.08-22.23-.12-33.34-.1-5.55,1.54-9.83,6.91-11.94,5.64-2.21,11.39-2.77,16.1,1.92,14.93,14.88,30.01,29.63,44.42,45,6.39,6.82,8.97,15.74,8.93,25.35-.13,28.36-.05,56.72-.05,85.09h.03c0,27.98-.33,55.96,.2,83.93,.16,8.23-2.32,10.3-10.27,10.02Zm86.25-236.23c-4.67,34.09-8.13,68.34-12.03,102.53-1.18,10.33-5.04,18.87-13.72,25.35-9.1,6.8-17.58,14.43-28.33,23.35,0-29.99-.4-57.2,.12-84.39,.45-23.94-6.6-44.15-24.8-60.46-11.69-10.48-22.69-21.79-33.41-33.28-11.42-12.23-24.91-14.53-39.84-9.18-16.03,5.74-22.88,18.34-23.05,34.83-.19,18.41,.36,36.83-.22,55.22-.81,25.36-10.75,47.41-26.5,66.96-3.61,4.48-7.91,8.39-13.47,10.49-8.68,3.27-14.21,.25-15.61-9.03-.8-5.27-.83-10.69-.84-16.05-.14-43.71,1.65-87.44-1.21-131.11-.97-14.86-3.32-29.63-4.68-44.47-1.8-19.58,2.39-37.93,11.61-55.32,6.8-12.83,12.96-26.01,19.4-39.03,3.3-6.66,5.19-14.16,15.58-13.73,4.73,.2,7.67-5.17,7.75-10.05,.08-4.95-2.91-8.76-7.67-10.38-2.46-.83-5.28-.75-7.94-.81q-17.7-.41-17.7-18.77,0-22.56,22.01-22.56c48.34,0,96.68,.23,145.02-.21,8.71-.08,10.99,2.37,10.94,10.94-.16,30.57,.17,30.57-30.06,30.57-23.4,0-46.81,.12-70.21-.06-8.22-.07-15.48,1.99-15.48,11.2,0,9.21,7.24,11.24,15.48,11.16,22.63-.21,45.27,.13,67.9-.2,6.27-.09,8.58,1.39,8.56,8.13-.06,14.49,6.3,27.38,12.03,40.28,12.42,27.96,26.52,55.09,41.25,81.89,7.97,14.51,11.44,29.38,9.14,46.2Z"/>
</svg>