<svg xmlns="http://www.w3.org/2000/svg" xmlns:xlink="http://www.w3.org/1999/xlink" width="800" zoomAndPan="magnify" viewBox="0 0 600 299.999988" height="400" preserveAspectRatio="xMidYMid meet" version="1.0"><defs><clipPath id="11e907517e"><path d="M 112 113 L 224 113 L 224 222.371094 L 112 222.371094 Z M 112 113 " clip-rule="nonzero"/></clipPath><clipPath id="b60e6891bf"><path d="M 398 113 L 509 113 L 509 222.371094 L 398 222.371094 Z M 398 113 " clip-rule="nonzero"/></clipPath><clipPath id="72d6619771"><path d="M 497 113 L 577.5 113 L 577.5 222.371094 L 497 222.371094 Z M 497 113 " clip-rule="nonzero"/></clipPath><clipPath id="662a9e08b4"><path d="M 338 77.621094 L 405 77.621094 L 405 220 L 338 220 Z M 338 77.621094 " clip-rule="nonzero"/></clipPath></defs><path fill="#d20a11" d="M 119.964844 114.738281 L 88.882812 114.738281 L 55.941406 147.46875 L 55.941406 79.128906 L 30 79.128906 L 30 219.914062 L 55.941406 219.914062 L 55.941406 180.597656 L 61.910156 174.425781 L 93.003906 219.914062 L 123.878906 219.914062 L 80.847656 154.871094 Z M 119.964844 114.738281 " fill-opacity="1" fill-rule="nonzero"/><g clip-path="url(#11e907517e)"><path fill="#d20a11" d="M 168.152344 113.71875 C 137.480469 113.71875 112.976562 137.585938 112.976562 167.851562 C 112.976562 197.6875 137.480469 222.1875 168.152344 222.1875 C 198.820312 222.1875 223.277344 197.6875 223.277344 167.851562 C 223.277344 137.585938 198.820312 113.71875 168.152344 113.71875 Z M 168.152344 198.101562 C 167.160156 198.089844 166.171875 198.035156 165.1875 197.929688 C 164.199219 197.824219 163.222656 197.671875 162.25 197.476562 C 161.28125 197.277344 160.320312 197.03125 159.375 196.738281 C 158.425781 196.445312 157.496094 196.109375 156.582031 195.730469 C 155.667969 195.347656 154.773438 194.921875 153.898438 194.453125 C 153.027344 193.984375 152.175781 193.476562 151.351562 192.925781 C 150.527344 192.375 149.730469 191.789062 148.964844 191.160156 C 148.199219 190.535156 147.460938 189.871094 146.757812 189.171875 C 146.054688 188.476562 145.386719 187.746094 144.753906 186.980469 C 144.121094 186.21875 143.527344 185.429688 142.972656 184.609375 C 142.414062 183.789062 141.898438 182.941406 141.425781 182.074219 C 140.949219 181.203125 140.519531 180.3125 140.132812 179.398438 C 139.742188 178.488281 139.398438 177.558594 139.101562 176.613281 C 138.800781 175.671875 138.550781 174.714844 138.34375 173.742188 C 138.136719 172.773438 137.980469 171.796875 137.867188 170.8125 C 137.757812 169.828125 137.691406 168.839844 137.675781 167.851562 C 137.695312 166.863281 137.761719 165.882812 137.878906 164.90625 C 137.992188 163.925781 138.15625 162.957031 138.363281 161.992188 C 138.574219 161.03125 138.828125 160.078125 139.128906 159.140625 C 139.429688 158.203125 139.777344 157.28125 140.167969 156.378906 C 140.558594 155.472656 140.992188 154.589844 141.46875 153.726562 C 141.945312 152.863281 142.460938 152.027344 143.019531 151.214844 C 143.578125 150.402344 144.171875 149.621094 144.804688 148.867188 C 145.441406 148.109375 146.109375 147.390625 146.8125 146.699219 C 147.515625 146.007812 148.25 145.355469 149.019531 144.738281 C 149.785156 144.117188 150.582031 143.539062 151.40625 142.996094 C 152.226562 142.457031 153.074219 141.957031 153.949219 141.496094 C 154.820312 141.039062 155.710938 140.625 156.625 140.25 C 157.535156 139.878906 158.464844 139.550781 159.40625 139.269531 C 160.351562 138.984375 161.308594 138.75 162.273438 138.558594 C 163.242188 138.371094 164.214844 138.226562 165.195312 138.132812 C 166.175781 138.035156 167.160156 137.988281 168.144531 137.988281 C 169.128906 137.988281 170.113281 138.035156 171.09375 138.132812 C 172.074219 138.226562 173.050781 138.371094 174.015625 138.558594 C 174.984375 138.75 175.9375 138.984375 176.882812 139.269531 C 177.828125 139.550781 178.753906 139.878906 179.667969 140.25 C 180.578125 140.625 181.472656 141.039062 182.34375 141.496094 C 183.214844 141.957031 184.0625 142.457031 184.886719 142.996094 C 185.710938 143.539062 186.503906 144.117188 187.273438 144.738281 C 188.039062 145.355469 188.773438 146.007812 189.476562 146.699219 C 190.183594 147.390625 190.851562 148.109375 191.484375 148.867188 C 192.117188 149.621094 192.714844 150.402344 193.269531 151.214844 C 193.828125 152.027344 194.34375 152.863281 194.820312 153.726562 C 195.296875 154.589844 195.730469 155.472656 196.121094 156.378906 C 196.511719 157.28125 196.859375 158.203125 197.160156 159.140625 C 197.460938 160.078125 197.71875 161.03125 197.925781 161.992188 C 198.136719 162.957031 198.296875 163.925781 198.410156 164.90625 C 198.527344 165.882812 198.59375 166.863281 198.613281 167.851562 C 198.597656 168.839844 198.535156 169.828125 198.425781 170.8125 C 198.316406 171.800781 198.15625 172.777344 197.953125 173.746094 C 197.746094 174.714844 197.496094 175.675781 197.199219 176.621094 C 196.902344 177.566406 196.558594 178.492188 196.171875 179.40625 C 195.78125 180.320312 195.351562 181.210938 194.878906 182.082031 C 194.402344 182.953125 193.890625 183.796875 193.332031 184.617188 C 192.777344 185.4375 192.183594 186.230469 191.550781 186.996094 C 190.917969 187.757812 190.25 188.488281 189.546875 189.1875 C 188.84375 189.886719 188.109375 190.550781 187.34375 191.179688 C 186.574219 191.804688 185.777344 192.394531 184.953125 192.945312 C 184.128906 193.496094 183.28125 194.003906 182.40625 194.472656 C 181.535156 194.941406 180.640625 195.367188 179.726562 195.75 C 178.808594 196.132812 177.878906 196.46875 176.929688 196.761719 C 175.984375 197.054688 175.023438 197.300781 174.054688 197.5 C 173.082031 197.699219 172.101562 197.847656 171.117188 197.953125 C 170.132812 198.058594 169.144531 198.113281 168.152344 198.125 Z M 168.152344 198.101562 " fill-opacity="1" fill-rule="nonzero"/></g><g clip-path="url(#b60e6891bf)"><path fill="#d20a11" d="M 453.414062 113.71875 C 422.742188 113.71875 398.238281 137.585938 398.238281 167.851562 C 398.238281 197.6875 422.742188 222.1875 453.414062 222.1875 C 484.082031 222.1875 508.589844 197.6875 508.589844 167.851562 C 508.589844 137.585938 484.082031 113.71875 453.414062 113.71875 Z M 453.414062 198.101562 C 452.421875 198.089844 451.433594 198.035156 450.449219 197.929688 C 449.460938 197.824219 448.484375 197.671875 447.511719 197.476562 C 446.542969 197.277344 445.582031 197.03125 444.636719 196.738281 C 443.6875 196.445312 442.757812 196.109375 441.84375 195.730469 C 440.929688 195.347656 440.035156 194.921875 439.160156 194.453125 C 438.289062 193.984375 437.4375 193.476562 436.613281 192.925781 C 435.789062 192.375 434.992188 191.789062 434.226562 191.160156 C 433.460938 190.535156 432.722656 189.871094 432.019531 189.171875 C 431.316406 188.476562 430.648438 187.746094 430.015625 186.980469 C 429.382812 186.21875 428.789062 185.429688 428.234375 184.609375 C 427.675781 183.789062 427.160156 182.941406 426.6875 182.074219 C 426.210938 181.203125 425.78125 180.3125 425.394531 179.398438 C 425.003906 178.488281 424.660156 177.558594 424.363281 176.613281 C 424.0625 175.671875 423.8125 174.714844 423.605469 173.742188 C 423.398438 172.773438 423.242188 171.796875 423.128906 170.8125 C 423.019531 169.828125 422.953125 168.839844 422.9375 167.851562 C 422.9375 166.851562 422.988281 165.855469 423.085938 164.863281 C 423.183594 163.871094 423.328125 162.882812 423.523438 161.90625 C 423.71875 160.925781 423.960938 159.960938 424.25 159.003906 C 424.539062 158.050781 424.875 157.113281 425.257812 156.191406 C 425.640625 155.269531 426.066406 154.367188 426.535156 153.488281 C 427.007812 152.605469 427.519531 151.75 428.074219 150.921875 C 428.628906 150.09375 429.222656 149.292969 429.855469 148.519531 C 430.488281 147.75 431.160156 147.011719 431.863281 146.304688 C 432.570312 145.597656 433.308594 144.929688 434.078125 144.296875 C 434.851562 143.664062 435.652344 143.070312 436.480469 142.515625 C 437.3125 141.960938 438.167969 141.449219 439.046875 140.980469 C 439.925781 140.507812 440.828125 140.082031 441.75 139.699219 C 442.671875 139.316406 443.613281 138.984375 444.566406 138.691406 C 445.523438 138.402344 446.488281 138.160156 447.46875 137.964844 C 448.445312 137.773438 449.433594 137.625 450.425781 137.527344 C 451.417969 137.429688 452.414062 137.378906 453.414062 137.378906 C 454.410156 137.378906 455.40625 137.429688 456.398438 137.527344 C 457.394531 137.625 458.378906 137.773438 459.359375 137.964844 C 460.335938 138.160156 461.304688 138.402344 462.257812 138.691406 C 463.214844 138.984375 464.152344 139.316406 465.074219 139.699219 C 465.996094 140.082031 466.898438 140.507812 467.777344 140.980469 C 468.660156 141.449219 469.515625 141.960938 470.34375 142.515625 C 471.171875 143.070312 471.972656 143.664062 472.746094 144.296875 C 473.515625 144.929688 474.257812 145.597656 474.960938 146.304688 C 475.667969 147.011719 476.335938 147.75 476.96875 148.519531 C 477.601562 149.292969 478.195312 150.09375 478.75 150.921875 C 479.304688 151.75 479.820312 152.605469 480.289062 153.488281 C 480.761719 154.367188 481.1875 155.269531 481.566406 156.191406 C 481.949219 157.113281 482.285156 158.050781 482.574219 159.003906 C 482.863281 159.960938 483.109375 160.925781 483.300781 161.90625 C 483.496094 162.882812 483.644531 163.871094 483.742188 164.863281 C 483.839844 165.855469 483.886719 166.851562 483.886719 167.851562 C 483.871094 168.839844 483.808594 169.828125 483.699219 170.8125 C 483.585938 171.800781 483.429688 172.777344 483.222656 173.746094 C 483.019531 174.71875 482.765625 175.675781 482.46875 176.621094 C 482.171875 177.566406 481.828125 178.496094 481.441406 179.40625 C 481.050781 180.320312 480.621094 181.210938 480.148438 182.082031 C 479.671875 182.953125 479.15625 183.796875 478.601562 184.621094 C 478.046875 185.441406 477.449219 186.230469 476.816406 186.996094 C 476.183594 187.757812 475.515625 188.488281 474.8125 189.1875 C 474.109375 189.886719 473.375 190.550781 472.605469 191.179688 C 471.839844 191.804688 471.042969 192.394531 470.21875 192.945312 C 469.394531 193.496094 468.546875 194.007812 467.671875 194.476562 C 466.796875 194.945312 465.902344 195.367188 464.988281 195.75 C 464.074219 196.132812 463.140625 196.46875 462.195312 196.761719 C 461.246094 197.054688 460.285156 197.300781 459.316406 197.5 C 458.34375 197.699219 457.367188 197.847656 456.378906 197.953125 C 455.394531 198.058594 454.40625 198.113281 453.414062 198.125 Z M 453.414062 198.101562 " fill-opacity="1" fill-rule="nonzero"/></g><path fill="#d20a11" d="M 286.488281 113.71875 C 274.964844 113.71875 265.082031 117.207031 258.082031 123.171875 L 258.082031 114.738281 L 232.394531 114.738281 L 232.394531 219.914062 L 258.128906 219.914062 L 258.128906 161.664062 C 258.128906 146.640625 266.773438 137.585938 281.226562 137.585938 C 300.785156 137.585938 304.078125 149.109375 304.078125 171.351562 L 304.078125 219.964844 L 329.8125 219.964844 L 329.8125 164.75 C 329.777344 133.710938 318.09375 113.71875 286.488281 113.71875 Z M 286.488281 113.71875 " fill-opacity="1" fill-rule="nonzero"/><g clip-path="url(#72d6619771)"><path fill="#d20a11" d="M 522.3125 113.71875 C 518.125 113.707031 513.988281 114.160156 509.902344 115.074219 C 505.816406 115.984375 501.882812 117.335938 498.097656 119.125 C 504.453125 124.75 509.488281 131.371094 513.207031 138.996094 C 516.171875 138.03125 519.210938 137.550781 522.324219 137.550781 C 523.316406 137.558594 524.304688 137.617188 525.289062 137.722656 C 526.273438 137.828125 527.253906 137.980469 528.222656 138.179688 C 529.195312 138.378906 530.152344 138.625 531.101562 138.914062 C 532.046875 139.207031 532.980469 139.542969 533.894531 139.925781 C 534.808594 140.308594 535.703125 140.734375 536.574219 141.203125 C 537.449219 141.671875 538.296875 142.179688 539.121094 142.730469 C 539.945312 143.28125 540.742188 143.871094 541.507812 144.496094 C 542.273438 145.125 543.011719 145.789062 543.714844 146.484375 C 544.417969 147.183594 545.085938 147.914062 545.714844 148.679688 C 546.347656 149.441406 546.941406 150.234375 547.5 151.054688 C 548.054688 151.875 548.570312 152.71875 549.042969 153.589844 C 549.519531 154.460938 549.949219 155.351562 550.335938 156.261719 C 550.726562 157.175781 551.066406 158.101562 551.367188 159.046875 C 551.664062 159.992188 551.917969 160.949219 552.121094 161.917969 C 552.328125 162.886719 552.484375 163.867188 552.597656 164.851562 C 552.707031 165.835938 552.769531 166.824219 552.785156 167.8125 C 552.773438 168.804688 552.710938 169.792969 552.601562 170.78125 C 552.492188 171.765625 552.335938 172.746094 552.128906 173.714844 C 551.925781 174.6875 551.675781 175.644531 551.375 176.59375 C 551.078125 177.539062 550.738281 178.46875 550.347656 179.382812 C 549.960938 180.296875 549.53125 181.1875 549.058594 182.058594 C 548.582031 182.929688 548.070312 183.777344 547.511719 184.601562 C 546.957031 185.421875 546.363281 186.214844 545.730469 186.980469 C 545.097656 187.742188 544.429688 188.476562 543.726562 189.175781 C 543.023438 189.875 542.285156 190.539062 541.519531 191.167969 C 540.75 191.796875 539.953125 192.386719 539.128906 192.9375 C 538.304688 193.488281 537.453125 194 536.582031 194.46875 C 535.707031 194.9375 534.8125 195.363281 533.894531 195.746094 C 532.980469 196.128906 532.046875 196.46875 531.101562 196.757812 C 530.152344 197.050781 529.191406 197.296875 528.21875 197.496094 C 527.246094 197.695312 526.269531 197.847656 525.28125 197.953125 C 524.292969 198.058594 523.304688 198.113281 522.3125 198.125 C 519.136719 198.121094 516.042969 197.621094 513.023438 196.628906 C 509.238281 204.238281 504.167969 210.871094 497.816406 216.523438 C 501.632812 218.390625 505.605469 219.800781 509.742188 220.757812 C 513.878906 221.714844 518.066406 222.191406 522.3125 222.1875 C 552.992188 222.1875 577.488281 197.6875 577.488281 167.851562 C 577.5 137.585938 553.007812 113.71875 522.3125 113.71875 Z M 522.3125 113.71875 " fill-opacity="1" fill-rule="nonzero"/></g><g clip-path="url(#662a9e08b4)"><path fill="#d20a11" d="M 375.226562 126.273438 L 375.226562 121.738281 C 375.226562 107.53125 378.328125 103.011719 402.820312 103.011719 L 404.714844 77.890625 C 367.035156 76.675781 349.347656 88.183594 349.347656 121.738281 L 349.347656 126.273438 L 338.84375 126.273438 L 338.84375 150.140625 L 349.347656 150.140625 L 349.347656 219.914062 L 375.226562 219.914062 L 375.226562 150.140625 L 389.363281 150.140625 C 390.558594 145.773438 392.195312 141.574219 394.28125 137.550781 C 396.363281 133.527344 398.84375 129.769531 401.726562 126.273438 Z M 375.226562 126.273438 " fill-opacity="1" fill-rule="nonzero"/></g></svg>