<svg xmlns="http://www.w3.org/2000/svg" xmlns:xlink="http://www.w3.org/1999/xlink" width="800" zoomAndPan="magnify" viewBox="0 0 600 299.999988" height="400" preserveAspectRatio="xMidYMid meet" version="1.0"><defs><clipPath id="d4d7fcb4ea"><path d="M 24.382812 183 L 116 183 L 116 259 L 24.382812 259 Z M 24.382812 183 " clip-rule="nonzero"/></clipPath><clipPath id="5f02a116ce"><path d="M 244 182 L 300 182 L 300 259.699219 L 244 259.699219 Z M 244 182 " clip-rule="nonzero"/></clipPath><clipPath id="8d62f7aad9"><path d="M 528 182 L 575.632812 182 L 575.632812 259.699219 L 528 259.699219 Z M 528 182 " clip-rule="nonzero"/></clipPath></defs><g clip-path="url(#d4d7fcb4ea)"><path fill="#29415d" d="M 87.15625 258.246094 L 87.15625 253.898438 L 87.527344 253.898438 C 88.550781 253.90625 89.570312 253.828125 90.582031 253.664062 C 91.425781 253.539062 92.199219 253.226562 92.894531 252.734375 C 93.582031 252.226562 94.089844 251.582031 94.410156 250.792969 C 94.84375 249.679688 95.074219 248.527344 95.09375 247.335938 L 95.09375 191.324219 L 71.054688 250.460938 L 65.222656 250.460938 L 40.796875 191.515625 L 40.796875 246.328125 C 40.757812 247.648438 40.933594 248.945312 41.320312 250.210938 C 41.59375 251.121094 42.097656 251.878906 42.835938 252.480469 C 43.546875 253.050781 44.347656 253.402344 45.25 253.53125 C 46.296875 253.71875 47.355469 253.808594 48.417969 253.800781 L 48.730469 253.800781 L 48.730469 258.1875 L 24.382812 258.1875 L 24.382812 253.898438 L 25.722656 253.898438 C 26.832031 253.902344 27.933594 253.824219 29.03125 253.664062 C 30.015625 253.535156 30.9375 253.21875 31.792969 252.714844 C 32.652344 252.203125 33.300781 251.496094 33.738281 250.597656 C 34.238281 249.410156 34.464844 248.175781 34.417969 246.890625 L 34.417969 194.992188 C 34.464844 193.707031 34.238281 192.46875 33.738281 191.285156 C 33.289062 190.378906 32.640625 189.65625 31.792969 189.109375 C 30.941406 188.582031 30.023438 188.253906 29.03125 188.121094 C 27.933594 187.960938 26.832031 187.882812 25.722656 187.886719 L 24.382812 187.886719 L 24.382812 183.5 L 48.417969 183.5 L 70.238281 235.570312 L 90.25 183.5 L 115.199219 183.5 L 115.199219 187.886719 L 113.839844 187.886719 C 112.710938 187.886719 111.589844 187.972656 110.476562 188.140625 C 109.484375 188.289062 108.570312 188.636719 107.734375 189.1875 C 106.863281 189.761719 106.214844 190.527344 105.789062 191.476562 C 105.296875 192.726562 105.074219 194.019531 105.128906 195.363281 L 105.128906 246.328125 C 105.078125 247.667969 105.300781 248.960938 105.789062 250.210938 C 106.207031 251.160156 106.855469 251.917969 107.734375 252.480469 C 108.5625 253.046875 109.476562 253.398438 110.476562 253.53125 C 111.585938 253.746094 112.707031 253.867188 113.839844 253.898438 L 115.179688 253.898438 L 115.179688 258.285156 Z M 87.15625 258.246094 " fill-opacity="1" fill-rule="nonzero"/></g><path fill="#29415d" d="M 143.730469 252.871094 L 164.050781 252.871094 C 165.527344 252.90625 166.957031 252.679688 168.351562 252.191406 C 169.476562 251.746094 170.46875 251.097656 171.324219 250.25 C 172.144531 249.457031 172.792969 248.546875 173.269531 247.511719 C 173.726562 246.453125 174.03125 245.351562 174.183594 244.210938 L 174.902344 239.707031 L 180.425781 239.707031 L 180.425781 258.015625 L 123.097656 258.015625 L 123.097656 253.605469 L 124.4375 253.605469 C 125.550781 253.617188 126.660156 253.546875 127.765625 253.394531 C 128.742188 253.265625 129.65625 252.949219 130.503906 252.441406 C 131.363281 251.929688 132.011719 251.222656 132.449219 250.324219 C 132.96875 249.144531 133.203125 247.90625 133.152344 246.617188 L 133.152344 195.246094 C 133.191406 193.902344 132.964844 192.609375 132.46875 191.363281 C 132.0625 190.4375 131.445312 189.679688 130.621094 189.089844 C 129.777344 188.542969 128.855469 188.195312 127.859375 188.042969 C 126.746094 187.875 125.625 187.789062 124.496094 187.789062 L 123.15625 187.789062 L 123.15625 183.34375 L 180.289062 183.34375 L 180.289062 201.652344 L 174.84375 201.652344 L 174.320312 197.148438 C 174.191406 196.015625 173.925781 194.914062 173.523438 193.847656 C 173.144531 192.792969 172.566406 191.867188 171.785156 191.0625 C 171.003906 190.261719 170.09375 189.65625 169.050781 189.246094 C 167.75 188.742188 166.398438 188.511719 165.003906 188.546875 L 143.730469 188.546875 L 143.730469 216.425781 L 164.675781 216.425781 L 164.675781 221.53125 L 143.730469 221.53125 Z M 143.730469 252.871094 " fill-opacity="1" fill-rule="nonzero"/><path fill="#29415d" d="M 188.769531 258.09375 L 188.769531 253.683594 L 190.09375 253.683594 C 191.226562 253.695312 192.355469 253.609375 193.476562 253.433594 C 194.472656 253.296875 195.386719 252.949219 196.21875 252.382812 C 197.101562 251.828125 197.75 251.070312 198.164062 250.113281 C 198.660156 248.863281 198.886719 247.570312 198.84375 246.230469 L 198.84375 195.246094 C 198.886719 193.902344 198.660156 192.609375 198.164062 191.363281 C 197.738281 190.414062 197.089844 189.65625 196.21875 189.089844 C 195.414062 188.535156 194.53125 188.167969 193.574219 187.984375 C 192.453125 187.816406 191.324219 187.730469 190.1875 187.730469 L 188.867188 187.730469 L 188.867188 183.34375 L 219.4375 183.34375 L 219.4375 187.730469 L 218.039062 187.730469 C 216.921875 187.726562 215.816406 187.804688 214.710938 187.964844 C 213.726562 188.097656 212.8125 188.425781 211.96875 188.953125 C 211.121094 189.5 210.472656 190.222656 210.023438 191.128906 C 209.523438 192.316406 209.296875 193.550781 209.34375 194.835938 L 209.34375 252.871094 L 224.164062 252.871094 C 225.574219 252.914062 226.914062 252.636719 228.1875 252.035156 C 229.269531 251.507812 230.191406 250.773438 230.949219 249.839844 C 231.679688 248.917969 232.238281 247.902344 232.621094 246.792969 C 233.007812 245.695312 233.273438 244.570312 233.421875 243.414062 L 234.449219 235.648438 L 239.953125 235.648438 L 239.234375 258.152344 Z M 188.769531 258.09375 " fill-opacity="1" fill-rule="nonzero"/><g clip-path="url(#5f02a116ce)"><path fill="#29415d" d="M 278.675781 182.257812 C 281.832031 182.21875 284.957031 182.515625 288.046875 183.148438 C 290.394531 183.632812 292.609375 184.460938 294.699219 185.632812 C 296.300781 186.558594 297.597656 187.800781 298.585938 189.363281 C 299.472656 190.789062 299.914062 192.34375 299.910156 194.023438 C 299.925781 195.09375 299.691406 196.109375 299.210938 197.070312 C 298.734375 197.980469 298.085938 198.742188 297.265625 199.359375 C 296.390625 200.03125 295.425781 200.515625 294.367188 200.816406 C 293.183594 201.175781 291.96875 201.351562 290.730469 201.339844 C 290.730469 199.6875 290.515625 198.0625 290.089844 196.46875 C 289.675781 194.886719 288.96875 193.453125 287.96875 192.15625 C 286.914062 190.820312 285.617188 189.777344 284.082031 189.03125 C 282.230469 188.164062 280.289062 187.761719 278.246094 187.828125 C 274.691406 187.726562 271.3125 188.453125 268.113281 190.003906 C 265.265625 191.5 262.996094 193.613281 261.308594 196.351562 C 259.363281 199.53125 258.066406 202.953125 257.417969 206.621094 C 256.574219 211.25 256.179688 215.917969 256.230469 220.621094 C 256.199219 224.941406 256.605469 229.21875 257.457031 233.453125 C 258.15625 237.011719 259.453125 240.339844 261.347656 243.433594 C 263.066406 246.179688 265.339844 248.339844 268.171875 249.917969 C 271.292969 251.546875 274.609375 252.3125 278.128906 252.210938 C 280.433594 252.234375 282.710938 251.992188 284.957031 251.472656 C 286.773438 251.042969 288.511719 250.394531 290.167969 249.53125 C 291.585938 248.742188 292.882812 247.792969 294.054688 246.675781 C 295.171875 245.648438 296.199219 244.535156 297.128906 243.335938 C 297.730469 243.734375 298.210938 244.246094 298.570312 244.871094 C 298.984375 245.675781 299.171875 246.527344 299.132812 247.433594 C 299.082031 248.921875 298.628906 250.273438 297.769531 251.492188 C 296.671875 253.050781 295.292969 254.300781 293.628906 255.238281 C 291.410156 256.511719 289.058594 257.441406 286.570312 258.035156 C 283.238281 258.828125 279.863281 259.199219 276.4375 259.140625 C 271.617188 259.238281 267 258.3125 262.589844 256.363281 C 258.632812 254.582031 255.300781 251.992188 252.59375 248.597656 C 249.738281 244.957031 247.703125 240.90625 246.488281 236.445312 C 245.054688 231.292969 244.367188 226.042969 244.425781 220.699219 C 244.371094 215.414062 245.089844 210.234375 246.585938 205.167969 C 247.894531 200.691406 250.035156 196.652344 253.003906 193.050781 C 255.90625 189.597656 259.425781 186.96875 263.5625 185.167969 C 268.386719 183.097656 273.425781 182.128906 278.675781 182.257812 Z M 278.675781 182.257812 " fill-opacity="1" fill-rule="nonzero"/></g><path fill="#29415d" d="M 351.71875 258.09375 L 351.71875 253.683594 L 353.039062 253.683594 C 354.175781 253.695312 355.304688 253.609375 356.421875 253.433594 C 357.414062 253.296875 358.320312 252.949219 359.144531 252.382812 C 360.011719 251.8125 360.660156 251.054688 361.089844 250.113281 C 361.605469 248.867188 361.839844 247.574219 361.792969 246.230469 L 361.792969 221.628906 L 327.488281 221.628906 L 327.488281 246.132812 C 327.445312 247.472656 327.671875 248.769531 328.167969 250.015625 C 328.597656 250.957031 329.246094 251.714844 330.113281 252.285156 C 330.941406 252.859375 331.855469 253.207031 332.855469 253.335938 C 333.960938 253.511719 335.078125 253.59375 336.199219 253.585938 L 337.480469 253.585938 L 337.480469 257.996094 L 306.851562 257.996094 L 306.851562 253.585938 L 308.175781 253.585938 C 309.308594 253.597656 310.4375 253.511719 311.558594 253.335938 C 312.558594 253.203125 313.472656 252.855469 314.300781 252.285156 C 315.175781 251.722656 315.824219 250.96875 316.246094 250.015625 C 316.726562 248.765625 316.945312 247.472656 316.90625 246.132812 L 316.90625 194.835938 C 316.957031 193.546875 316.726562 192.3125 316.207031 191.128906 C 315.757812 190.226562 315.109375 189.503906 314.261719 188.953125 C 313.414062 188.425781 312.492188 188.097656 311.5 187.964844 C 310.398438 187.804688 309.289062 187.726562 308.175781 187.730469 L 306.851562 187.730469 L 306.851562 183.34375 L 337.480469 183.34375 L 337.480469 187.730469 L 336.082031 187.730469 C 334.960938 187.734375 333.847656 187.820312 332.738281 187.984375 C 331.746094 188.128906 330.832031 188.476562 329.996094 189.03125 C 329.144531 189.617188 328.496094 190.375 328.050781 191.304688 C 327.554688 192.550781 327.328125 193.84375 327.371094 195.1875 L 327.371094 216.425781 L 361.636719 216.425781 L 361.636719 195.246094 C 361.679688 193.898438 361.449219 192.605469 360.933594 191.363281 C 360.492188 190.429688 359.84375 189.671875 358.992188 189.089844 C 358.160156 188.542969 357.25 188.195312 356.269531 188.042969 C 355.144531 187.875 354.019531 187.789062 352.882812 187.789062 L 351.503906 187.789062 L 351.503906 183.34375 L 382.171875 183.34375 L 382.171875 187.730469 L 380.828125 187.730469 C 379.703125 187.730469 378.582031 187.816406 377.464844 187.984375 C 376.46875 188.136719 375.550781 188.484375 374.703125 189.03125 C 373.878906 189.621094 373.265625 190.378906 372.855469 191.304688 C 372.367188 192.550781 372.148438 193.847656 372.195312 195.1875 L 372.195312 246.636719 C 372.148438 247.921875 372.375 249.160156 372.875 250.34375 C 373.3125 251.242188 373.960938 251.949219 374.820312 252.460938 C 375.667969 252.96875 376.582031 253.285156 377.5625 253.414062 C 378.667969 253.566406 379.773438 253.636719 380.886719 253.625 L 382.230469 253.625 L 382.230469 258.035156 Z M 351.71875 258.09375 " fill-opacity="1" fill-rule="nonzero"/><path fill="#29415d" d="M 411.050781 252.871094 L 431.375 252.871094 C 432.847656 252.902344 434.28125 252.675781 435.671875 252.191406 C 436.757812 251.792969 437.722656 251.195312 438.558594 250.394531 C 439.394531 249.59375 440.03125 248.65625 440.472656 247.589844 C 440.925781 246.527344 441.238281 245.429688 441.40625 244.289062 L 442.128906 239.785156 L 447.632812 239.785156 L 447.632812 258.09375 L 390.417969 258.09375 L 390.417969 253.683594 L 391.757812 253.683594 C 392.867188 253.695312 393.96875 253.625 395.066406 253.472656 C 396.050781 253.34375 396.972656 253.027344 397.828125 252.519531 C 398.6875 252.007812 399.335938 251.304688 399.773438 250.402344 C 400.289062 249.222656 400.523438 247.984375 400.472656 246.695312 L 400.472656 195.246094 C 400.519531 193.90625 400.300781 192.609375 399.808594 191.363281 C 399.378906 190.417969 398.730469 189.660156 397.867188 189.089844 C 397.027344 188.539062 396.113281 188.191406 395.125 188.042969 C 394.007812 187.875 392.886719 187.792969 391.757812 187.789062 L 390.417969 187.789062 L 390.417969 183.34375 L 447.613281 183.34375 L 447.613281 201.652344 L 442.148438 201.652344 L 441.640625 197.148438 C 441.511719 196.015625 441.246094 194.914062 440.84375 193.847656 C 440.457031 192.820312 439.886719 191.910156 439.132812 191.109375 C 438.351562 190.253906 437.421875 189.609375 436.351562 189.167969 C 435.058594 188.664062 433.714844 188.433594 432.324219 188.46875 L 411.128906 188.46875 L 411.128906 216.425781 L 432.054688 216.425781 L 432.054688 221.53125 L 411.050781 221.53125 Z M 411.050781 252.871094 " fill-opacity="1" fill-rule="nonzero"/><path fill="#29415d" d="M 508.460938 243.375 C 507.160156 240.800781 506.027344 238.152344 505.058594 235.433594 C 502.394531 228.851562 503.699219 226.019531 498.972656 222.988281 C 498.972656 222.988281 498.5625 222.816406 497.882812 222.601562 C 499.792969 221.945312 501.636719 221.128906 503.40625 220.15625 C 505.265625 219.109375 506.929688 217.816406 508.402344 216.273438 C 510.042969 214.554688 511.292969 212.589844 512.148438 210.375 C 513.003906 208.160156 513.402344 205.867188 513.34375 203.496094 C 513.34375 196.738281 511.113281 191.683594 506.652344 188.332031 C 502.195312 184.980469 495.398438 183.304688 486.273438 183.304688 L 455.914062 183.304688 L 455.914062 187.691406 L 457.257812 187.691406 C 458.367188 187.6875 459.46875 187.765625 460.5625 187.925781 C 461.554688 188.058594 462.476562 188.386719 463.324219 188.914062 C 464.175781 189.460938 464.824219 190.183594 465.269531 191.089844 C 465.769531 192.277344 465.996094 193.511719 465.949219 194.796875 L 465.949219 246.65625 C 465.996094 247.941406 465.769531 249.179688 465.269531 250.363281 C 464.832031 251.261719 464.183594 251.96875 463.324219 252.480469 C 462.46875 252.988281 461.550781 253.304688 460.5625 253.433594 C 459.464844 253.585938 458.363281 253.65625 457.257812 253.644531 L 454.960938 253.644531 L 454.960938 258.054688 L 489.5 258.054688 L 489.5 253.644531 L 485.28125 253.644531 C 484.167969 253.65625 483.058594 253.585938 481.957031 253.433594 C 480.96875 253.304688 480.050781 252.988281 479.195312 252.480469 C 478.332031 251.96875 477.683594 251.265625 477.25 250.363281 C 476.730469 249.183594 476.496094 247.945312 476.550781 246.65625 L 476.550781 188.351562 L 485.707031 188.351562 C 488.273438 188.300781 490.800781 188.578125 493.292969 189.1875 C 495.214844 189.664062 496.90625 190.570312 498.367188 191.90625 C 499.742188 193.25 500.679688 194.847656 501.1875 196.699219 C 501.820312 199.039062 502.113281 201.421875 502.0625 203.847656 C 502.097656 206.261719 501.832031 208.640625 501.265625 210.992188 C 500.8125 212.917969 499.929688 214.628906 498.621094 216.117188 C 497.246094 217.574219 495.601562 218.597656 493.683594 219.183594 C 491.144531 219.941406 488.550781 220.28125 485.902344 220.214844 L 482.871094 220.214844 L 482.871094 225.105469 L 488.003906 225.105469 C 491.210938 225.667969 492.652344 227.453125 494.167969 231.960938 C 495.332031 235.582031 496.679688 239.136719 498.214844 242.617188 C 501.5 249.703125 504.785156 256.714844 514.042969 257.859375 C 517.277344 258.171875 520.519531 258.308594 523.765625 258.265625 L 523.765625 251.257812 C 517.875 251.023438 511.960938 250.8125 508.460938 243.375 Z M 508.460938 243.375 " fill-opacity="1" fill-rule="nonzero"/><g clip-path="url(#8d62f7aad9)"><path fill="#29415d" d="M 549.710938 259.316406 C 546.636719 259.355469 543.609375 259 540.628906 258.246094 C 538.253906 257.640625 536.054688 256.644531 534.035156 255.257812 C 532.3125 254.039062 530.984375 252.488281 530.046875 250.597656 C 529.132812 248.695312 528.6875 246.6875 528.707031 244.578125 C 528.660156 243.628906 528.808594 242.710938 529.148438 241.824219 C 529.484375 240.9375 529.988281 240.152344 530.652344 239.472656 C 531.425781 238.789062 532.300781 238.277344 533.277344 237.941406 C 534.253906 237.605469 535.257812 237.46875 536.289062 237.53125 C 536.378906 239.667969 536.714844 241.765625 537.300781 243.820312 C 537.816406 245.75 538.660156 247.523438 539.832031 249.140625 C 540.992188 250.699219 542.4375 251.921875 544.167969 252.8125 C 546.15625 253.808594 548.261719 254.273438 550.488281 254.210938 C 552.480469 254.328125 554.433594 254.09375 556.339844 253.507812 C 558.25 252.917969 559.992188 252.015625 561.570312 250.792969 C 562.25 250.183594 562.847656 249.507812 563.371094 248.765625 C 563.894531 248.023438 564.328125 247.234375 564.675781 246.390625 C 565.019531 245.550781 565.265625 244.683594 565.417969 243.789062 C 565.566406 242.890625 565.613281 241.992188 565.558594 241.085938 C 565.589844 239.347656 565.316406 237.65625 564.742188 236.015625 C 564.136719 234.460938 563.230469 233.109375 562.019531 231.960938 C 560.515625 230.535156 558.839844 229.34375 557.003906 228.386719 C 554.476562 227.035156 551.886719 225.832031 549.222656 224.777344 C 546.25 223.59375 543.398438 222.167969 540.667969 220.503906 C 538.386719 219.121094 536.367188 217.429688 534.597656 215.4375 C 532.992188 213.601562 531.792969 211.53125 531 209.222656 C 530.164062 206.703125 529.765625 204.113281 529.816406 201.457031 C 529.765625 198.644531 530.34375 195.964844 531.546875 193.417969 C 532.6875 191.0625 534.289062 189.078125 536.347656 187.460938 C 538.554688 185.765625 540.992188 184.527344 543.660156 183.75 C 546.535156 182.960938 549.460938 182.542969 552.441406 182.492188 C 555.421875 182.445312 558.363281 182.765625 561.261719 183.460938 C 563.453125 184 565.511719 184.867188 567.425781 186.0625 C 569.011719 187.019531 570.308594 188.277344 571.316406 189.828125 C 572.167969 191.171875 572.605469 192.640625 572.617188 194.234375 C 572.6875 195.214844 572.523438 196.15625 572.128906 197.054688 C 571.730469 197.953125 571.148438 198.710938 570.382812 199.320312 C 568.5625 200.585938 566.546875 201.164062 564.332031 201.050781 C 564.335938 199.414062 564.140625 197.804688 563.75 196.214844 C 563.378906 194.671875 562.730469 193.253906 561.804688 191.964844 C 560.816406 190.675781 559.597656 189.65625 558.148438 188.914062 C 556.371094 188.074219 554.496094 187.6875 552.53125 187.75 C 550.671875 187.71875 548.863281 187.996094 547.105469 188.585938 C 545.589844 189.101562 544.25 189.90625 543.078125 190.992188 C 541.953125 192.058594 541.109375 193.3125 540.550781 194.757812 C 539.941406 196.339844 539.648438 197.976562 539.675781 199.671875 C 539.640625 201.546875 539.914062 203.378906 540.492188 205.167969 C 541.078125 206.808594 542 208.238281 543.253906 209.457031 C 544.769531 210.902344 546.453125 212.113281 548.308594 213.085938 C 550.832031 214.421875 553.425781 215.609375 556.089844 216.640625 C 558.933594 217.746094 561.6875 219.042969 564.351562 220.523438 C 566.613281 221.804688 568.664062 223.363281 570.5 225.203125 C 572.171875 226.890625 573.46875 228.832031 574.386719 231.027344 C 575.316406 233.351562 575.757812 235.765625 575.710938 238.269531 C 575.761719 241.355469 575.160156 244.304688 573.902344 247.121094 C 572.675781 249.742188 570.933594 251.957031 568.671875 253.761719 C 566.210938 255.667969 563.480469 257.039062 560.484375 257.878906 C 556.960938 258.875 553.371094 259.355469 549.710938 259.316406 Z M 549.710938 259.316406 " fill-opacity="1" fill-rule="nonzero"/></g><path fill="#29415d" d="M 225.640625 147.40625 C 225.246094 147.78125 225.046875 148.242188 225.039062 148.785156 C 225.03125 149.351562 225.226562 149.835938 225.621094 150.238281 C 225.804688 150.4375 226.023438 150.59375 226.269531 150.703125 C 226.519531 150.8125 226.78125 150.867188 227.050781 150.867188 C 227.324219 150.867188 227.582031 150.8125 227.832031 150.703125 C 228.082031 150.59375 228.296875 150.4375 228.480469 150.238281 C 228.890625 149.847656 229.09375 149.371094 229.082031 148.804688 C 229.074219 148.257812 228.875 147.800781 228.480469 147.425781 C 228.289062 147.246094 228.070312 147.109375 227.824219 147.011719 C 227.582031 146.914062 227.328125 146.867188 227.066406 146.863281 C 226.800781 146.863281 226.546875 146.90625 226.300781 147 C 226.054688 147.09375 225.835938 147.230469 225.640625 147.40625 Z M 225.640625 147.40625 " fill-opacity="1" fill-rule="nonzero"/><path fill="#29415d" d="M 179.066406 142.027344 L 182.507812 142.027344 L 182.992188 144.589844 L 184.742188 144.339844 L 185.25 138.144531 L 183.363281 138.398438 L 182.761719 140.105469 L 179.066406 140.105469 L 179.066406 133.796875 L 185.347656 133.796875 L 185.949219 136.863281 L 187.679688 137.136719 L 188.207031 131.894531 L 173.25 131.894531 L 173.035156 133.503906 L 175.679688 134.105469 L 175.679688 148.203125 L 173.308594 148.882812 L 173.132812 150.453125 L 188.378906 150.453125 L 188.867188 145.40625 L 187.175781 145.152344 L 185.753906 148.511719 L 179.066406 148.511719 Z M 179.066406 142.027344 " fill-opacity="1" fill-rule="nonzero"/><path fill="#29415d" d="M 202.789062 141.96875 C 202.4375 141.582031 202.046875 141.230469 201.625 140.921875 C 201.1875 140.601562 200.734375 140.308594 200.261719 140.046875 L 198.863281 139.347656 C 198.414062 139.113281 197.96875 138.863281 197.558594 138.609375 C 197.175781 138.371094 196.8125 138.109375 196.46875 137.8125 C 196.167969 137.558594 195.929688 137.253906 195.75 136.902344 C 195.574219 136.5625 195.492188 136.199219 195.5 135.816406 C 195.441406 135.109375 195.652344 134.503906 196.140625 133.988281 C 196.625 133.550781 197.195312 133.34375 197.851562 133.367188 C 198.347656 133.367188 198.800781 133.503906 199.210938 133.777344 C 199.523438 133.960938 199.78125 134.199219 199.992188 134.496094 L 200.378906 137.40625 L 202.324219 137.621094 L 202.675781 133.097656 L 202.558594 133.097656 C 201.339844 132.070312 199.929688 131.566406 198.335938 131.582031 C 197.351562 131.570312 196.414062 131.773438 195.519531 132.183594 C 194.601562 132.625 193.871094 133.273438 193.320312 134.125 C 192.714844 135.003906 192.425781 135.972656 192.445312 137.039062 C 192.433594 137.785156 192.59375 138.488281 192.929688 139.152344 C 193.234375 139.785156 193.65625 140.320312 194.195312 140.765625 C 194.714844 141.199219 195.265625 141.589844 195.847656 141.929688 C 196.453125 142.300781 197.054688 142.648438 197.617188 142.941406 C 198.183594 143.230469 198.726562 143.5625 199.210938 143.871094 C 199.644531 144.148438 200.011719 144.492188 200.320312 144.902344 C 200.589844 145.273438 200.71875 145.6875 200.710938 146.144531 C 200.722656 146.582031 200.632812 146.996094 200.4375 147.386719 C 200.265625 147.734375 200.019531 148.019531 199.699219 148.242188 C 199.378906 148.449219 199.035156 148.613281 198.667969 148.726562 C 197.722656 149.03125 196.816406 148.945312 195.945312 148.472656 C 195.519531 148.234375 195.164062 147.914062 194.875 147.523438 L 194.292969 144.6875 L 192.347656 144.394531 L 192.113281 148.6875 C 192.707031 149.394531 193.425781 149.933594 194.273438 150.296875 C 195.128906 150.679688 196.027344 150.894531 196.964844 150.933594 C 197.902344 150.972656 198.8125 150.839844 199.699219 150.53125 C 200.472656 150.273438 201.179688 149.890625 201.820312 149.386719 C 202.457031 148.886719 202.960938 148.277344 203.335938 147.5625 C 203.714844 146.808594 203.902344 146.011719 203.898438 145.171875 C 203.90625 144.582031 203.804688 144.011719 203.589844 143.464844 C 203.417969 142.914062 203.152344 142.414062 202.789062 141.96875 Z M 202.789062 141.96875 " fill-opacity="1" fill-rule="nonzero"/><path fill="#29415d" d="M 208.878906 137.328125 L 209.636719 133.796875 L 213.390625 133.796875 L 213.390625 148.203125 L 210.976562 148.882812 L 210.804688 150.453125 L 219.164062 150.453125 L 219.4375 148.765625 L 216.714844 148.296875 L 216.714844 133.796875 L 220.605469 133.796875 L 221.148438 137.097656 L 223.015625 137.386719 L 223.5625 131.894531 L 206.914062 131.894531 L 207.050781 137.078125 Z M 208.878906 137.328125 " fill-opacity="1" fill-rule="nonzero"/><path fill="#29415d" d="M 378.089844 132.261719 L 377.308594 132.261719 L 371.007812 133.445312 L 370.855469 135.15625 L 374.917969 135.15625 L 374.917969 148.203125 L 370.699219 148.902344 L 370.5625 150.570312 L 381.996094 150.53125 L 382.230469 148.785156 L 378.089844 148.296875 Z M 378.089844 132.261719 " fill-opacity="1" fill-rule="nonzero"/><path fill="#29415d" d="M 394.5 140.511719 L 394.230469 140.339844 L 394.5 140.183594 C 395.128906 139.820312 395.640625 139.335938 396.039062 138.726562 C 396.613281 137.914062 396.90625 137.007812 396.914062 136.007812 C 396.921875 135.410156 396.804688 134.835938 396.5625 134.285156 C 396.320312 133.738281 395.980469 133.265625 395.53125 132.863281 C 394.503906 131.953125 393.304688 131.527344 391.933594 131.582031 C 391.199219 131.574219 390.492188 131.71875 389.816406 132.007812 C 389.175781 132.257812 388.609375 132.617188 388.109375 133.089844 C 387.613281 133.558594 387.222656 134.105469 386.9375 134.726562 C 386.65625 135.34375 386.515625 135.992188 386.507812 136.667969 C 386.511719 137.203125 386.625 137.714844 386.839844 138.203125 C 387.035156 138.683594 387.308594 139.117188 387.65625 139.503906 C 387.964844 139.839844 388.296875 140.160156 388.648438 140.453125 L 389.054688 140.785156 L 389.289062 140.960938 L 389.054688 141.113281 C 388.167969 141.550781 387.4375 142.171875 386.863281 142.976562 C 386.289062 143.78125 385.945312 144.675781 385.828125 145.65625 C 385.804688 146.335938 385.925781 146.984375 386.195312 147.609375 C 386.464844 148.230469 386.851562 148.765625 387.363281 149.210938 C 388.4375 150.132812 389.683594 150.574219 391.097656 150.53125 C 392.035156 150.542969 392.949219 150.40625 393.839844 150.125 C 394.613281 149.890625 395.304688 149.515625 395.921875 148.996094 C 396.46875 148.523438 396.894531 147.960938 397.203125 147.308594 C 397.566406 146.640625 397.753906 145.929688 397.769531 145.171875 C 397.738281 144.136719 397.394531 143.21875 396.738281 142.414062 C 396.085938 141.671875 395.339844 141.039062 394.5 140.511719 Z M 389.988281 134.007812 C 390.417969 133.519531 390.957031 133.300781 391.605469 133.347656 C 392.351562 133.339844 392.953125 133.632812 393.414062 134.222656 C 393.957031 134.902344 394.210938 135.679688 394.171875 136.550781 C 394.203125 137.1875 394.078125 137.789062 393.800781 138.359375 C 393.558594 138.75 393.242188 139.066406 392.847656 139.308594 L 392.730469 139.308594 C 391.863281 138.808594 391.070312 138.207031 390.359375 137.503906 C 389.808594 136.972656 389.523438 136.324219 389.503906 135.5625 C 389.472656 134.984375 389.632812 134.464844 389.988281 134.007812 Z M 394.074219 147.929688 C 393.417969 148.433594 392.679688 148.644531 391.855469 148.570312 C 391.054688 148.53125 390.40625 148.195312 389.910156 147.5625 C 389.296875 146.941406 388.988281 146.199219 388.976562 145.328125 C 388.96875 145.140625 388.96875 144.953125 388.976562 144.765625 C 388.96875 144.601562 388.96875 144.441406 388.976562 144.28125 C 389 144.140625 389.046875 144.011719 389.113281 143.890625 C 389.113281 143.714844 389.25 143.582031 389.289062 143.464844 C 389.347656 143.363281 389.410156 143.265625 389.484375 143.171875 L 389.738281 142.824219 C 389.808594 142.742188 389.886719 142.664062 389.96875 142.589844 L 390.261719 142.300781 L 390.554688 142.046875 L 390.652344 141.890625 L 390.804688 142.007812 L 391.777344 142.628906 C 392.109375 142.84375 392.480469 143.09375 392.90625 143.425781 C 393.25 143.6875 393.574219 143.972656 393.878906 144.28125 C 394.109375 144.515625 394.296875 144.78125 394.441406 145.074219 C 394.59375 145.328125 394.671875 145.597656 394.675781 145.890625 C 394.75 146.660156 394.539062 147.339844 394.035156 147.929688 Z M 394.074219 147.929688 " fill-opacity="1" fill-rule="nonzero"/><path fill="#29415d" d="M 407.238281 131.582031 C 406.332031 131.585938 405.488281 131.816406 404.710938 132.28125 C 403.875 132.78125 403.175781 133.429688 402.609375 134.222656 C 401.960938 135.144531 401.488281 136.148438 401.191406 137.230469 C 400.828125 138.5 400.652344 139.796875 400.667969 141.113281 C 400.648438 142.511719 400.824219 143.882812 401.191406 145.230469 C 401.472656 146.320312 401.953125 147.320312 402.628906 148.222656 C 403.207031 148.957031 403.914062 149.539062 404.75 149.96875 C 405.515625 150.375 406.332031 150.578125 407.199219 150.578125 C 408.066406 150.578125 408.886719 150.375 409.652344 149.96875 C 410.414062 149.496094 411.0625 148.902344 411.59375 148.183594 C 412.277344 147.277344 412.769531 146.28125 413.074219 145.191406 C 413.445312 143.863281 413.628906 142.511719 413.617188 141.132812 C 413.738281 138.660156 413.148438 136.371094 411.847656 134.261719 C 411.363281 133.449219 410.710938 132.804688 409.890625 132.328125 C 409.070312 131.851562 408.1875 131.601562 407.238281 131.582031 Z M 409.765625 146.84375 C 409.574219 147.34375 409.253906 147.742188 408.800781 148.035156 C 408.347656 148.328125 407.855469 148.460938 407.316406 148.433594 C 405.042969 148.433594 403.894531 145.96875 403.894531 141.113281 C 403.800781 139.171875 404.074219 137.28125 404.710938 135.445312 C 404.800781 135.183594 404.929688 134.941406 405.101562 134.71875 C 405.269531 134.496094 405.464844 134.304688 405.695312 134.148438 C 405.925781 133.988281 406.171875 133.867188 406.441406 133.789062 C 406.707031 133.707031 406.980469 133.671875 407.257812 133.679688 C 407.8125 133.6875 408.3125 133.859375 408.757812 134.191406 C 409.203125 134.523438 409.507812 134.953125 409.671875 135.484375 C 410.34375 137.289062 410.636719 139.152344 410.546875 141.074219 C 410.65625 143.054688 410.394531 144.984375 409.765625 146.863281 Z M 409.765625 146.84375 " fill-opacity="1" fill-rule="nonzero"/><path fill="#29415d" d="M 428.164062 141.871094 C 428.023438 141.566406 427.851562 141.28125 427.652344 141.011719 C 427.453125 140.738281 427.230469 140.492188 426.980469 140.265625 C 426.734375 140.039062 426.464844 139.839844 426.179688 139.664062 C 425.890625 139.492188 425.589844 139.347656 425.273438 139.234375 C 424.957031 139.121094 424.628906 139.039062 424.296875 138.988281 C 423.964844 138.9375 423.632812 138.921875 423.296875 138.9375 C 422.960938 138.957031 422.628906 139.003906 422.300781 139.085938 C 421.976562 139.167969 421.660156 139.28125 421.359375 139.425781 L 420.695312 139.757812 L 420.230469 140.007812 L 420.40625 139.503906 C 420.835938 138.335938 421.433594 137.261719 422.195312 136.28125 C 423.359375 134.773438 424.8125 133.625 426.550781 132.84375 L 426.863281 132.6875 L 426.003906 131.347656 L 425.773438 131.347656 C 424.082031 131.933594 422.578125 132.824219 421.261719 134.027344 C 419.839844 135.285156 418.691406 136.753906 417.820312 138.4375 C 416.980469 140.023438 416.546875 141.710938 416.515625 143.503906 C 416.511719 144.382812 416.621094 145.25 416.847656 146.105469 C 417.066406 146.898438 417.417969 147.628906 417.894531 148.296875 C 418.40625 148.992188 419.054688 149.507812 419.839844 149.851562 C 420.707031 150.242188 421.613281 150.429688 422.5625 150.414062 C 423.679688 150.429688 424.722656 150.164062 425.695312 149.617188 C 426.65625 149.109375 427.421875 148.390625 427.988281 147.464844 C 428.558594 146.5625 428.84375 145.578125 428.84375 144.511719 C 428.820312 143.582031 428.59375 142.699219 428.164062 141.871094 Z M 424.800781 147.695312 C 424.542969 148.027344 424.21875 148.277344 423.832031 148.441406 C 423.445312 148.609375 423.042969 148.671875 422.621094 148.628906 C 422.058594 148.621094 421.605469 148.394531 421.261719 147.949219 C 420.789062 147.414062 420.453125 146.804688 420.25 146.125 C 420.011719 145.359375 419.894531 144.574219 419.898438 143.773438 C 419.898438 143.269531 419.898438 142.726562 419.996094 142.144531 C 420.265625 141.871094 420.585938 141.679688 420.949219 141.5625 C 421.386719 141.332031 421.855469 141.21875 422.351562 141.21875 C 422.84375 141.21875 423.3125 141.332031 423.75 141.5625 C 424.132812 141.765625 424.4375 142.050781 424.664062 142.414062 C 424.910156 142.808594 425.089844 143.230469 425.207031 143.679688 C 425.34375 144.148438 425.40625 144.625 425.402344 145.113281 C 425.453125 146.039062 425.253906 146.90625 424.800781 147.714844 Z M 424.800781 147.695312 " fill-opacity="1" fill-rule="nonzero"/><path fill="#9e845a" d="M 258.195312 127.875 L 258.039062 98.246094 L 297.617188 140.398438 C 297.699219 140.507812 297.796875 140.609375 297.902344 140.699219 C 298.011719 140.789062 298.128906 140.867188 298.253906 140.929688 C 298.378906 140.992188 298.511719 141.039062 298.648438 141.074219 C 298.785156 141.105469 298.921875 141.121094 299.0625 141.121094 C 299.203125 141.121094 299.34375 141.105469 299.480469 141.074219 C 299.617188 141.039062 299.75 140.992188 299.875 140.929688 C 300 140.867188 300.117188 140.789062 300.226562 140.699219 C 300.332031 140.609375 300.429688 140.507812 300.511719 140.398438 L 339.894531 97.859375 L 341.390625 96.246094 L 341.390625 140.027344 C 341.359375 141.089844 341.171875 142.128906 340.828125 143.132812 C 340.570312 143.890625 340.132812 144.523438 339.515625 145.03125 C 338.898438 145.542969 338.195312 145.855469 337.40625 145.96875 C 336.496094 146.132812 335.582031 146.210938 334.664062 146.203125 L 334.351562 146.203125 L 334.351562 150.472656 L 359.398438 150.472656 L 359.398438 146.203125 L 358.214844 146.203125 C 357.203125 146.199219 356.195312 146.117188 355.199219 145.949219 C 354.300781 145.796875 353.484375 145.453125 352.75 144.921875 C 351.972656 144.34375 351.417969 143.609375 351.074219 142.707031 C 350.636719 141.449219 350.441406 140.15625 350.492188 138.824219 L 350.492188 86.421875 L 358.679688 77.570312 C 359.070312 77.261719 359.261719 76.859375 359.261719 76.363281 L 359.261719 67.804688 C 359.269531 67.519531 359.199219 67.257812 359.054688 67.015625 C 358.90625 66.773438 358.707031 66.585938 358.453125 66.457031 C 358.203125 66.328125 357.933594 66.277344 357.652344 66.304688 C 357.371094 66.328125 357.117188 66.425781 356.890625 66.597656 L 325.464844 100.207031 L 300.53125 127.175781 C 300.449219 127.289062 300.351562 127.386719 300.246094 127.480469 C 300.136719 127.570312 300.019531 127.644531 299.894531 127.707031 C 299.769531 127.769531 299.636719 127.820312 299.5 127.851562 C 299.363281 127.882812 299.222656 127.898438 299.082031 127.898438 C 298.941406 127.898438 298.804688 127.882812 298.667969 127.851562 C 298.53125 127.820312 298.398438 127.769531 298.273438 127.707031 C 298.148438 127.644531 298.03125 127.570312 297.921875 127.480469 C 297.816406 127.386719 297.71875 127.289062 297.636719 127.175781 L 274.394531 102.460938 L 257.980469 85.355469 L 257.980469 72.09375 L 297.617188 114.457031 C 297.789062 114.683594 298.003906 114.855469 298.257812 114.980469 C 298.511719 115.105469 298.78125 115.171875 299.0625 115.171875 C 299.347656 115.171875 299.617188 115.105469 299.871094 114.980469 C 300.125 114.855469 300.339844 114.683594 300.511719 114.457031 L 358.582031 51.609375 C 358.972656 51.304688 359.167969 50.902344 359.164062 50.40625 L 359.164062 41.84375 C 359.171875 41.5625 359.101562 41.296875 358.957031 41.054688 C 358.808594 40.8125 358.609375 40.628906 358.359375 40.5 C 358.105469 40.371094 357.835938 40.320312 357.554688 40.34375 C 357.273438 40.371094 357.019531 40.46875 356.792969 40.640625 L 325.464844 74.25 L 300.53125 101.214844 C 300.449219 101.328125 300.351562 101.429688 300.246094 101.519531 C 300.136719 101.609375 300.019531 101.6875 299.894531 101.75 C 299.769531 101.8125 299.636719 101.859375 299.5 101.894531 C 299.363281 101.925781 299.222656 101.941406 299.082031 101.941406 C 298.941406 101.941406 298.804688 101.925781 298.667969 101.894531 C 298.53125 101.859375 298.398438 101.8125 298.273438 101.75 C 298.148438 101.6875 298.03125 101.609375 297.921875 101.519531 C 297.816406 101.429688 297.71875 101.328125 297.636719 101.214844 L 274.394531 76.558594 L 251.757812 53.085938 C 251.480469 52.898438 251.171875 52.804688 250.839844 52.796875 C 250.503906 52.789062 250.191406 52.871094 249.90625 53.042969 C 249.617188 53.214844 249.398438 53.449219 249.25 53.75 C 249.097656 54.046875 249.042969 54.363281 249.074219 54.699219 L 249.230469 127.953125 L 249.230469 138.785156 C 249.277344 140.070312 249.082031 141.320312 248.648438 142.53125 C 248.300781 143.421875 247.75 144.160156 246.996094 144.746094 C 246.25 145.277344 245.425781 145.621094 244.523438 145.773438 C 243.527344 145.933594 242.523438 146.011719 241.511719 146.007812 L 240.246094 146.007812 L 240.246094 150.296875 L 265.332031 150.296875 L 265.332031 146.007812 L 265.023438 146.007812 C 264.101562 146.023438 263.1875 145.949219 262.28125 145.792969 C 261.488281 145.679688 260.785156 145.367188 260.167969 144.859375 C 259.554688 144.347656 259.117188 143.714844 258.855469 142.960938 C 258.484375 141.890625 258.289062 140.789062 258.273438 139.660156 Z M 258.195312 127.875 " fill-opacity="1" fill-rule="nonzero"/></svg>