<svg xmlns="http://www.w3.org/2000/svg" xmlns:xlink="http://www.w3.org/1999/xlink" width="800" zoomAndPan="magnify" viewBox="0 0 600 299.999988" height="400" preserveAspectRatio="xMidYMid meet" version="1.0"><defs><clipPath id="7786abe6b7"><path d="M 30 98.542969 L 124 98.542969 L 124 200 L 30 200 Z M 30 98.542969 " clip-rule="nonzero"/></clipPath><clipPath id="882bbb9872"><path d="M 86 98.542969 L 139 98.542969 L 139 200 L 86 200 Z M 86 98.542969 " clip-rule="nonzero"/></clipPath></defs><path fill="#c3996b" d="M 483.15625 103.609375 L 476.167969 116.027344 L 476.167969 124.175781 L 479.316406 124.65625 L 479.316406 126.269531 L 468.25 126.269531 L 468.25 124.65625 L 471.398438 124.175781 L 471.398438 116.59375 L 464.050781 103.53125 L 461.710938 103.042969 L 461.710938 101.429688 L 472.570312 101.429688 L 472.570312 103.042969 L 469.34375 103.53125 L 474.917969 113.894531 L 480.570312 103.609375 L 477.34375 103.042969 L 477.34375 101.429688 L 485.582031 101.429688 L 485.582031 103.042969 Z M 483.15625 103.609375 " fill-opacity="1" fill-rule="nonzero"/><path fill="#c3996b" d="M 502.167969 126.917969 C 494.820312 126.917969 489.449219 121.917969 489.449219 114.054688 C 489.449219 106.1875 495.0625 100.785156 502.414062 100.785156 C 509.800781 100.785156 515.132812 105.78125 515.132812 113.644531 C 515.132812 121.511719 509.605469 126.917969 502.167969 126.917969 Z M 502.167969 102.878906 C 497.6875 102.878906 494.574219 106.707031 494.574219 113.644531 C 494.574219 120.460938 497.929688 124.820312 502.414062 124.820312 C 506.894531 124.820312 510.003906 120.984375 510.003906 114.054688 C 510.003906 107.476562 506.652344 102.878906 502.167969 102.878906 Z M 502.167969 102.878906 " fill-opacity="1" fill-rule="nonzero"/><path fill="#c3996b" d="M 534.640625 126.917969 C 527.289062 126.917969 521.917969 121.917969 521.917969 114.054688 C 521.917969 106.1875 527.53125 100.785156 534.882812 100.785156 C 542.273438 100.785156 547.605469 105.78125 547.605469 113.644531 C 547.605469 121.511719 542.074219 126.917969 534.640625 126.917969 Z M 534.640625 102.878906 C 530.15625 102.878906 527.046875 106.707031 527.046875 113.644531 C 527.046875 120.460938 530.398438 124.820312 534.882812 124.820312 C 539.367188 124.820312 542.476562 120.984375 542.476562 114.054688 C 542.476562 107.476562 539.125 102.878906 534.640625 102.878906 Z M 534.640625 102.878906 " fill-opacity="1" fill-rule="nonzero"/><path fill="#c3996b" d="M 472.371094 162.589844 C 470.03125 162.589844 468.210938 162.304688 466.152344 161.253906 L 465.667969 162.589844 L 463.890625 162.589844 L 463.65625 153.878906 L 465.429688 153.757812 L 466.277344 157.632812 C 467.574219 159.28125 469.589844 160.414062 471.769531 160.414062 C 474.515625 160.414062 476.652344 158.804688 476.652344 156.21875 C 476.652344 153.878906 475.160156 152.996094 470.558594 150.816406 C 466.558594 148.921875 464.179688 147.148438 464.179688 143.03125 C 464.179688 138.835938 467.691406 136.460938 471.890625 136.460938 C 473.910156 136.460938 475.644531 136.78125 477.46875 137.589844 L 477.949219 136.460938 L 479.722656 136.460938 L 479.519531 144.238281 L 477.742188 144.238281 L 477.054688 140.6875 C 475.921875 139.121094 474.1875 138.554688 472.25 138.554688 C 470.066406 138.554688 468.210938 139.800781 468.210938 141.980469 C 468.210938 144.160156 469.261719 144.929688 474.109375 147.226562 C 478.144531 149.164062 480.894531 150.816406 480.894531 155.007812 C 480.894531 159.6875 477.054688 162.589844 472.371094 162.589844 Z M 472.371094 162.589844 " fill-opacity="1" fill-rule="nonzero"/><path fill="#c3996b" d="M 504.113281 161.945312 L 504.113281 160.328125 L 507.425781 159.851562 L 507.425781 150.050781 L 496.121094 150.050781 L 496.121094 159.851562 L 499.433594 160.328125 L 499.433594 161.945312 L 488.203125 161.945312 L 488.203125 160.328125 L 491.351562 159.851562 L 491.351562 139.199219 L 488.203125 138.714844 L 488.203125 137.097656 L 499.433594 137.097656 L 499.433594 138.714844 L 496.121094 139.199219 L 496.121094 147.949219 L 507.425781 147.949219 L 507.425781 139.199219 L 504.113281 138.714844 L 504.113281 137.097656 L 515.34375 137.097656 L 515.34375 138.714844 L 512.195312 139.199219 L 512.195312 159.84375 L 515.34375 160.324219 L 515.34375 161.9375 L 504.113281 161.9375 Z M 504.113281 161.945312 " fill-opacity="1" fill-rule="nonzero"/><path fill="#c3996b" d="M 522.445312 161.945312 L 522.445312 160.328125 L 525.59375 159.851562 L 525.59375 139.199219 L 522.445312 138.714844 L 522.445312 137.097656 L 541.667969 137.097656 L 541.667969 143.230469 L 539.648438 143.230469 L 539.082031 139.199219 L 530.359375 139.199219 L 530.359375 148.027344 L 536.296875 148.027344 L 536.699219 145.246094 L 538.472656 145.246094 L 538.472656 152.910156 L 536.699219 152.910156 L 536.296875 150.128906 L 530.359375 150.128906 L 530.359375 159.765625 L 539.609375 159.765625 L 540.175781 155.40625 L 542.273438 155.40625 L 542.273438 161.9375 L 522.445312 161.9375 Z M 522.445312 161.945312 " fill-opacity="1" fill-rule="nonzero"/><path fill="#c3996b" d="M 549.582031 161.945312 L 549.582031 160.328125 L 552.734375 159.851562 L 552.734375 139.199219 L 549.582031 138.714844 L 549.582031 137.097656 L 568.808594 137.097656 L 568.808594 143.230469 L 566.789062 143.230469 L 566.222656 139.199219 L 557.5 139.199219 L 557.5 148.027344 L 563.4375 148.027344 L 563.835938 145.246094 L 565.613281 145.246094 L 565.613281 152.910156 L 563.835938 152.910156 L 563.4375 150.128906 L 557.5 150.128906 L 557.5 159.765625 L 566.75 159.765625 L 567.3125 155.40625 L 569.410156 155.40625 L 569.410156 161.9375 L 549.582031 161.9375 Z M 549.582031 161.945312 " fill-opacity="1" fill-rule="nonzero"/><path fill="#c3996b" d="M 484.96875 179.710938 L 482.867188 179.710938 L 482.300781 174.875 L 476.042969 174.875 L 476.042969 195.519531 L 479.191406 196 L 479.191406 197.613281 L 468.125 197.613281 L 468.125 196 L 471.277344 195.519531 L 471.277344 174.875 L 465.015625 174.875 L 464.453125 179.710938 L 462.355469 179.710938 L 462.355469 172.773438 L 484.96875 172.773438 Z M 484.96875 179.710938 " fill-opacity="1" fill-rule="nonzero"/><path fill="#c3996b" d="M 491.269531 197.613281 L 491.269531 196 L 494.417969 195.519531 L 494.417969 174.875 L 491.269531 174.386719 L 491.269531 172.773438 L 510.492188 172.773438 L 510.492188 178.902344 L 508.472656 178.902344 L 507.90625 174.875 L 499.183594 174.875 L 499.183594 183.703125 L 505.121094 183.703125 L 505.523438 180.917969 L 507.296875 180.917969 L 507.296875 188.582031 L 505.523438 188.582031 L 505.121094 185.796875 L 499.183594 185.796875 L 499.183594 195.433594 L 508.433594 195.433594 L 509 191.074219 L 511.097656 191.074219 L 511.097656 197.609375 L 491.269531 197.609375 Z M 491.269531 197.613281 " fill-opacity="1" fill-rule="nonzero"/><path fill="#c3996b" d="M 531.773438 197.613281 L 531.773438 196 L 534.882812 195.519531 L 532.785156 190.117188 L 523.898438 190.117188 L 521.878906 195.441406 L 524.902344 196.003906 L 524.902344 197.621094 L 516.625 197.621094 L 516.625 196.003906 L 519.296875 195.441406 L 528.339844 172.773438 L 530.886719 172.773438 L 540.011719 195.519531 L 542.59375 196 L 542.59375 197.613281 Z M 528.339844 178.582031 L 524.707031 188.015625 L 531.976562 188.015625 Z M 528.339844 178.582031 " fill-opacity="1" fill-rule="nonzero"/><path fill="#c3996b" d="M 341.070312 138.867188 L 342.191406 135.816406 C 342.195312 135.792969 342.207031 135.773438 342.210938 135.753906 C 343.410156 132.507812 346.746094 130.542969 350.214844 130.542969 L 399.296875 130.542969 C 402.761719 130.542969 406.097656 132.507812 407.296875 135.753906 C 407.300781 135.777344 407.3125 135.800781 407.316406 135.816406 L 408.4375 138.867188 C 410.015625 143.253906 414.855469 146.808594 419.246094 146.808594 L 429.03125 146.808594 C 425.253906 146.808594 421.097656 143.753906 419.738281 139.984375 L 418.621094 136.933594 C 417.042969 132.546875 412.203125 128.992188 407.808594 128.992188 L 396.519531 128.992188 C 399.675781 127.722656 402.535156 125 403.675781 121.828125 L 406.378906 114.429688 C 407.738281 110.660156 411.898438 107.605469 415.667969 107.605469 L 405.886719 107.605469 C 401.496094 107.605469 396.65625 111.164062 395.078125 115.550781 L 392.375 122.945312 C 391.769531 124.621094 390.605469 126.152344 389.167969 127.332031 C 387.839844 128.421875 386.15625 128.992188 384.4375 128.992188 L 365.066406 128.992188 C 363.347656 128.992188 361.664062 128.421875 360.332031 127.332031 C 358.898438 126.152344 357.734375 124.621094 357.128906 122.945312 L 354.425781 115.550781 C 352.847656 111.164062 348.007812 107.605469 343.613281 107.605469 L 333.832031 107.605469 C 337.609375 107.605469 341.765625 110.660156 343.121094 114.429688 L 345.824219 121.828125 C 346.96875 125.003906 349.828125 127.722656 352.984375 128.992188 L 341.699219 128.992188 C 337.304688 128.992188 332.464844 132.546875 330.886719 136.933594 L 329.769531 139.984375 C 328.410156 143.753906 324.25 146.808594 320.480469 146.808594 L 330.261719 146.808594 C 334.652344 146.808594 339.492188 143.253906 341.070312 138.867188 Z M 341.070312 138.867188 " fill-opacity="1" fill-rule="nonzero"/><path fill="#c3996b" d="M 380.203125 179.925781 L 416.019531 179.925781 L 416.019531 178.375 L 380.203125 178.375 L 380.203125 175.066406 C 380.203125 170.679688 376.640625 167.121094 372.246094 167.121094 L 364.800781 167.121094 C 361.023438 167.121094 357.964844 164.066406 357.964844 160.296875 L 357.957031 146.972656 C 357.957031 146.949219 357.957031 146.925781 357.957031 146.910156 C 357.988281 143.957031 360.660156 141.699219 363.617188 141.699219 L 385.882812 141.699219 C 388.839844 141.699219 391.515625 143.957031 391.542969 146.910156 C 391.542969 146.933594 391.542969 146.957031 391.542969 146.972656 L 391.550781 160.296875 C 391.550781 164.066406 388.492188 167.121094 384.714844 167.121094 L 394.496094 167.121094 C 398.886719 167.121094 402.449219 163.566406 402.449219 159.179688 L 402.449219 157.519531 L 402.445312 148.085938 C 402.4375 143.699219 398.875 140.140625 394.484375 140.140625 L 355.023438 140.140625 C 350.632812 140.140625 347.070312 143.699219 347.070312 148.085938 L 347.070312 149.746094 L 347.074219 159.179688 C 347.082031 163.566406 350.644531 167.121094 355.035156 167.121094 L 362.472656 167.121094 C 366.246094 167.121094 369.304688 170.175781 369.304688 173.945312 L 369.316406 178.367188 L 335.652344 178.367188 L 335.652344 179.921875 L 369.324219 179.921875 L 369.351562 191.085938 C 369.351562 193.894531 371.628906 196.164062 374.433594 196.164062 L 325.644531 196.164062 C 325.535156 195.152344 325.125 193.496094 323.703125 192.78125 C 323.011719 192.425781 322.164062 192.480469 321.484375 192.894531 C 320.851562 193.285156 320.484375 193.914062 320.484375 194.628906 C 320.484375 195.472656 320.789062 196.195312 321.367188 196.722656 C 322.320312 197.585938 323.765625 197.710938 324.503906 197.710938 C 324.605469 197.710938 324.742188 197.710938 324.867188 197.710938 L 429.039062 197.710938 L 429.039062 196.15625 L 380.214844 196.15625 L 380.214844 179.925781 Z M 380.203125 179.925781 " fill-opacity="1" fill-rule="nonzero"/><path fill="#c3996b" d="M 369.304688 107.503906 L 369.304688 123.914062 C 369.304688 126.722656 371.585938 128.992188 374.390625 128.992188 L 380.160156 128.992188 L 380.207031 108.617188 C 380.207031 104.230469 376.644531 100.671875 372.253906 100.671875 L 362.472656 100.671875 C 366.246094 100.679688 369.304688 103.734375 369.304688 107.503906 Z M 369.304688 107.503906 " fill-opacity="1" fill-rule="nonzero"/><path fill="#c3996b" d="M 233.238281 105.160156 C 233.875 107.070312 234.289062 112.058594 235.917969 114.121094 C 238.921875 117.921875 242.058594 114.511719 242.566406 112.675781 C 244.347656 106.226562 233.582031 102.570312 231.746094 101.933594 C 231.746094 101.933594 229.109375 101.125 228.789062 101.53125 C 228.464844 101.9375 232.578125 103.191406 233.238281 105.160156 Z M 233.238281 105.160156 " fill-opacity="1" fill-rule="nonzero"/><path fill="#c3996b" d="M 204.222656 116.734375 L 190.460938 116.734375 L 190.460938 117.507812 L 195.039062 117.507812 C 198.511719 117.507812 201.320312 120.320312 201.320312 123.78125 L 201.320312 147.214844 L 189.578125 147.214844 L 189.578125 121.351562 C 189.578125 116.964844 186.015625 113.410156 181.621094 113.410156 L 171.839844 113.410156 C 175.617188 113.410156 178.675781 116.464844 178.675781 120.234375 L 178.722656 120.234375 L 178.722656 169.109375 C 178.722656 173.496094 182.285156 177.050781 186.675781 177.050781 L 196.457031 177.050781 C 192.683594 177.050781 189.625 173.996094 189.625 170.226562 L 189.582031 170.226562 L 189.582031 148.773438 L 201.328125 148.773438 L 201.328125 175.878906 L 201.289062 179.503906 C 201.289062 183.273438 198.226562 186.328125 194.453125 186.328125 L 204.234375 186.328125 C 208.625 186.328125 212.1875 182.769531 212.1875 178.382812 L 212.1875 124.679688 C 212.1875 124 212.074219 123.351562 211.917969 122.722656 C 211.027344 119.285156 207.9375 116.734375 204.222656 116.734375 Z M 204.222656 116.734375 " fill-opacity="1" fill-rule="nonzero"/><path fill="#c3996b" d="M 264.375 145.804688 C 264.109375 146.136719 267.484375 147.164062 268.027344 148.777344 C 268.550781 150.34375 268.890625 154.441406 270.226562 156.128906 C 272.691406 159.25 275.265625 156.453125 275.683594 154.945312 C 277.140625 149.652344 268.308594 146.652344 266.804688 146.132812 C 266.800781 146.136719 264.640625 145.476562 264.375 145.804688 Z M 264.375 145.804688 " fill-opacity="1" fill-rule="nonzero"/><path fill="#c3996b" d="M 227.796875 173.34375 C 226.4375 173.34375 225.925781 172.238281 226.664062 170.875 L 229.679688 165.355469 C 230.539062 163.769531 229.945312 162.480469 228.359375 162.480469 L 224.824219 162.480469 C 226.1875 162.480469 226.695312 163.585938 225.960938 164.949219 L 222.941406 170.46875 C 222.082031 172.054688 222.675781 173.34375 224.257812 173.34375 Z M 227.796875 173.34375 " fill-opacity="1" fill-rule="nonzero"/><path fill="#c3996b" d="M 246.859375 162.488281 L 243.324219 162.488281 C 241.734375 162.488281 241.140625 163.773438 242 165.359375 L 245.019531 170.882812 C 245.761719 172.242188 245.253906 173.347656 243.882812 173.347656 L 247.417969 173.347656 C 249.007812 173.347656 249.601562 172.0625 248.742188 170.476562 L 245.722656 164.953125 C 244.988281 163.59375 245.496094 162.488281 246.859375 162.488281 Z M 246.859375 162.488281 " fill-opacity="1" fill-rule="nonzero"/><path fill="#c3996b" d="M 285.808594 196.429688 C 285.691406 195.886719 285.632812 195.078125 285.609375 194.371094 C 285.59375 193.640625 285.597656 192.898438 285.65625 192.152344 C 285.761719 190.664062 286.011719 189.167969 286.40625 187.683594 L 284.796875 187.011719 C 283.988281 188.4375 283.304688 189.957031 282.765625 191.550781 C 282.507812 192.3125 282.292969 193.097656 282.097656 193.898438 C 278.785156 192.835938 275.777344 191.398438 273.320312 189.207031 C 271.199219 187.441406 269.484375 185.199219 268.089844 182.71875 C 269.351562 181.183594 270.558594 179.605469 271.691406 177.960938 C 272.796875 176.328125 274.167969 174.089844 275.386719 171.933594 C 276.605469 169.785156 278.265625 168.523438 280.730469 168.675781 L 283.335938 168.792969 C 283.335938 168.792969 278.621094 166 276.695312 165.054688 C 274.765625 164.113281 271.65625 165.472656 270.882812 167.757812 C 270.101562 170.050781 269.113281 172.460938 267.570312 175.5 C 267.089844 176.4375 266.546875 177.347656 266.023438 178.261719 C 264.742188 174.90625 263.820312 171.351562 263.300781 167.703125 C 263.007812 165.636719 262.800781 163.546875 262.699219 161.488281 C 262.679688 161.070312 262.671875 160.625 262.671875 160.167969 L 283.15625 160.167969 C 285.453125 160.167969 287.324219 158.296875 287.324219 156.003906 C 287.324219 153.714844 285.453125 151.84375 283.15625 151.84375 L 280.515625 151.84375 C 282.589844 151.84375 284.277344 153.527344 284.277344 155.597656 C 284.277344 157.671875 282.589844 158.613281 280.515625 158.613281 L 262.683594 158.613281 C 262.710938 157.394531 262.761719 156.117188 262.773438 154.886719 L 262.773438 152.273438 C 262.773438 148.585938 259.785156 145.59375 256.085938 145.59375 L 249.855469 145.59375 C 249.402344 145.59375 248.785156 145.59375 248.117188 145.59375 C 245.597656 145.59375 242.152344 145.59375 242.152344 145.59375 C 240.753906 145.59375 239.445312 146.019531 238.484375 146.785156 C 231.875 152.070312 217.367188 151.089844 214.917969 155.773438 C 214.917969 155.773438 214.671875 156.164062 214.671875 156.519531 C 214.671875 156.875 214.917969 157.265625 214.917969 157.265625 C 216.445312 159.769531 222.675781 160.160156 224.871094 160.160156 L 233.273438 160.160156 L 233.289062 173.652344 C 233.289062 174.96875 234.355469 176.035156 235.675781 176.035156 L 238.382812 176.035156 L 238.382812 160.160156 L 254.023438 160.160156 C 254.042969 160.78125 254.050781 161.375 254.101562 162.035156 C 254.292969 164.445312 254.636719 166.800781 255.136719 169.144531 C 256.121094 173.8125 257.550781 178.457031 259.84375 182.804688 C 260.296875 183.675781 260.816406 184.527344 261.34375 185.375 C 259.527344 187.808594 257.53125 190.097656 255.339844 192.222656 C 252.863281 194.707031 249.984375 196.738281 247.015625 198.675781 L 247.28125 199.1875 C 250.503906 197.648438 253.734375 195.953125 256.613281 193.746094 C 258.941406 192.03125 261.125 190.097656 263.191406 188.042969 C 264.945312 190.363281 266.980469 192.503906 269.40625 194.226562 C 271.480469 195.699219 273.792969 196.839844 276.183594 197.613281 C 278.605469 198.3125 281.074219 198.648438 283.5 198.601562 L 287.210938 198.539062 Z M 238.394531 158.621094 L 238.394531 158.613281 C 238.394531 156.558594 236.726562 154.886719 234.664062 154.886719 L 230.078125 154.886719 C 231.847656 154.886719 233.28125 156.320312 233.28125 158.089844 L 233.28125 158.621094 L 224.882812 158.621094 C 224.882812 158.621094 218.113281 158.875 218.113281 156.523438 C 218.113281 154.183594 225.097656 154.824219 225.148438 154.824219 C 225.332031 154.832031 226.480469 154.886719 228.195312 154.894531 C 233.050781 154.90625 237.632812 154.46875 242.207031 151.027344 C 244.722656 149.132812 245.652344 146.132812 249.023438 145.683594 C 251.773438 146.113281 253.875 148.46875 253.875 151.332031 L 253.902344 155.046875 C 253.941406 156.214844 253.949219 157.394531 253.964844 158.613281 L 238.394531 158.613281 Z M 238.394531 158.621094 " fill-opacity="1" fill-rule="nonzero"/><path fill="#c3996b" d="M 251.082031 183.023438 C 249.867188 181.625 246.800781 182.421875 244.09375 183.121094 C 242.878906 183.4375 239.933594 183.921875 239.65625 183.65625 C 239.503906 183.257812 241.238281 181.585938 242.171875 180.6875 C 244.144531 178.792969 246.445312 177.578125 246.089844 176.695312 C 245.824219 176.046875 244.867188 176.046875 244.558594 176.046875 L 223.980469 176.046875 L 223.980469 177.601562 C 223.980469 177.601562 231.859375 177.601562 235.007812 177.601562 C 238.15625 177.601562 235.113281 180.371094 234.101562 181.640625 C 232.28125 183.917969 230.964844 185.566406 231.789062 186.332031 C 232.34375 186.851562 233.554688 186.566406 235.828125 185.972656 C 238.066406 185.386719 242.589844 184.589844 243.5 185.640625 C 243.996094 186.203125 243.894531 187.351562 243.199219 189.039062 C 241.707031 192.65625 238.609375 197.894531 231.75 197.308594 C 229.660156 197.128906 228.003906 194.492188 227.636719 193.914062 L 226.984375 194.316406 C 227.425781 195.054688 227.933594 195.6875 228.496094 196.214844 C 230.128906 197.832031 232.164062 198.664062 234.492188 198.664062 C 234.785156 198.664062 235.082031 198.652344 235.378906 198.625 C 241.898438 198.054688 249.183594 191.414062 250.914062 187.21875 C 251.730469 185.210938 251.792969 183.839844 251.082031 183.023438 Z M 251.082031 183.023438 " fill-opacity="1" fill-rule="nonzero"/><path fill="#c3996b" d="M 285.289062 143.195312 L 285.289062 141.644531 L 256.023438 141.644531 L 256.023438 130.480469 L 277.125 130.480469 L 277.125 128.933594 L 256.023438 128.933594 L 256.023438 126.75 C 256.023438 122.363281 252.460938 118.804688 248.066406 118.804688 L 287.265625 118.804688 L 287.265625 117.253906 L 254.960938 117.253906 C 261.152344 112.832031 265.339844 109.304688 267.992188 106.683594 C 267.992188 106.683594 270.351562 103.878906 272.480469 103.8125 C 273.730469 103.773438 276.101562 104.742188 276.101562 104.742188 L 266.046875 99.746094 L 265.429688 99.441406 C 262.644531 98.058594 259.890625 103.316406 259.890625 103.316406 C 258.414062 105.828125 254.988281 113.28125 251.484375 117.257812 L 219.453125 117.257812 C 219.339844 116.25 218.933594 114.59375 217.507812 113.878906 C 216.820312 113.523438 215.96875 113.578125 215.292969 113.992188 C 214.660156 114.378906 214.292969 115.011719 214.292969 115.722656 C 214.292969 116.570312 214.597656 117.292969 215.171875 117.820312 C 216.128906 118.683594 217.570312 118.804688 218.3125 118.804688 C 218.414062 118.804688 218.546875 118.804688 218.671875 118.804688 L 238.285156 118.804688 C 242.0625 118.804688 245.121094 121.859375 245.121094 125.632812 L 245.132812 128.933594 L 222.460938 128.933594 L 222.460938 130.480469 L 245.140625 130.480469 L 245.160156 136.957031 C 245.160156 139.074219 246.460938 140.886719 248.304688 141.648438 L 214.296875 141.648438 L 214.296875 143.203125 L 285.289062 143.203125 Z M 285.289062 143.195312 " fill-opacity="1" fill-rule="nonzero"/><g clip-path="url(#7786abe6b7)"><path fill="#c3996b" d="M 123.332031 149.980469 C 120.761719 140.492188 106.140625 148.925781 101.507812 149.980469 C 96.347656 151.15625 99.011719 147.667969 100.4375 146.246094 C 119.65625 127.054688 115.800781 123.78125 111.40625 123.78125 L 82.636719 123.78125 L 82.636719 110.535156 C 82.636719 106.148438 79.078125 102.59375 74.683594 102.59375 L 35.292969 102.59375 C 35.179688 101.585938 34.773438 99.933594 33.351562 99.210938 C 32.664062 98.855469 31.816406 98.910156 31.136719 99.324219 C 30.496094 99.71875 30.136719 100.351562 30.136719 101.0625 C 30.136719 101.910156 30.441406 102.632812 31.019531 103.15625 C 31.96875 104.019531 33.410156 104.144531 34.148438 104.144531 C 34.25 104.144531 34.386719 104.144531 34.511719 104.144531 L 66.574219 104.144531 C 68.125 104.144531 69.683594 104.753906 70.59375 106.003906 C 71.34375 107.023438 71.78125 108.277344 71.78125 109.644531 L 71.78125 123.78125 L 39.796875 123.78125 C 39.683594 122.769531 39.277344 121.117188 37.851562 120.398438 C 37.164062 120.042969 36.316406 120.097656 35.636719 120.511719 C 35.003906 120.902344 34.636719 121.535156 34.636719 122.246094 C 34.636719 123.089844 34.941406 123.8125 35.519531 124.339844 C 36.472656 125.203125 37.914062 125.328125 38.65625 125.328125 C 38.757812 125.328125 38.894531 125.328125 39.019531 125.328125 L 39.1875 125.328125 C 39.222656 125.328125 39.300781 125.328125 39.355469 125.328125 C 39.542969 125.328125 39.789062 125.328125 39.789062 125.328125 L 46.113281 125.328125 C 46.832031 125.328125 47.5625 125.574219 48.019531 126.125 C 49.914062 128.394531 49.792969 133.699219 42.058594 145.472656 C 42.058594 145.472656 38.078125 150.21875 42.640625 151.769531 C 47.207031 153.324219 52.933594 148.960938 52.933594 148.960938 C 56.792969 146.238281 61.277344 150.296875 56.382812 162.125 C 52.039062 172.609375 34.949219 183.882812 34.949219 183.882812 C 59.609375 175.207031 70.378906 161.4375 67.28125 149.988281 C 64.714844 140.496094 50.101562 148.929688 45.457031 149.988281 C 40.300781 151.160156 42.964844 147.671875 44.390625 146.25 C 58.59375 132.066406 60.179688 127.007812 58.277344 125.328125 L 71.777344 125.328125 L 71.777344 192.589844 L 71.738281 192.589844 C 71.738281 196.359375 68.679688 199.414062 64.902344 199.414062 L 74.683594 199.414062 C 79.078125 199.414062 82.636719 195.859375 82.636719 191.472656 L 82.636719 125.332031 L 102.230469 125.332031 C 102.925781 125.34375 103.625 125.585938 104.066406 126.117188 C 105.96875 128.386719 105.847656 133.695312 98.113281 145.472656 C 98.113281 145.472656 94.132812 150.21875 98.695312 151.769531 C 103.257812 153.324219 108.984375 148.960938 108.984375 148.960938 C 112.847656 146.238281 117.335938 150.296875 112.433594 162.125 C 108.09375 172.609375 91 183.882812 91 183.882812 C 115.65625 175.199219 126.429688 161.429688 123.332031 149.980469 Z M 123.332031 149.980469 " fill-opacity="1" fill-rule="nonzero"/></g><g clip-path="url(#882bbb9872)"><path fill="#c3996b" d="M 130.730469 102.597656 L 91.339844 102.597656 C 91.226562 101.585938 90.820312 99.933594 89.394531 99.214844 C 88.707031 98.859375 87.855469 98.917969 87.179688 99.328125 C 86.546875 99.71875 86.179688 100.351562 86.179688 101.0625 C 86.179688 101.910156 86.484375 102.632812 87.058594 103.15625 C 88.015625 104.019531 89.457031 104.144531 90.199219 104.144531 C 90.300781 104.144531 90.433594 104.144531 90.558594 104.144531 L 122.625 104.144531 C 124.171875 104.144531 125.734375 104.753906 126.644531 106.003906 C 127.390625 107.023438 127.832031 108.277344 127.832031 109.644531 L 127.832031 192.59375 L 127.792969 192.59375 C 127.792969 196.367188 124.734375 199.421875 120.957031 199.421875 L 130.738281 199.421875 C 135.128906 199.421875 138.691406 195.863281 138.691406 191.476562 L 138.691406 110.535156 C 138.6875 106.148438 135.125 102.597656 130.730469 102.597656 Z M 130.730469 102.597656 " fill-opacity="1" fill-rule="nonzero"/></g></svg>