<svg id="Layer_1" data-name="Layer 1" xmlns="http://www.w3.org/2000/svg" viewBox="0 0 35 35"><defs><style>.cls-1{fill:none;}.cls-2,.cls-3{fill:#573285;}.cls-3{opacity:0.4;}</style></defs><title>11 Popup Animations</title><rect class="cls-1" width="35" height="35"/><path class="cls-2" d="M25.76,15.84c-.13.15-.25.32-.39.46L10.68,31a2.71,2.71,0,0,1-4.24,0c-.61-.6-1.21-1.19-1.8-1.8a2.62,2.62,0,0,1,0-3.67q7.62-7.65,15.28-15.27a1,1,0,0,1,.2-.14c.29-.08.42.17.58.33.6.58,1.18,1.18,1.78,1.77.4.42.82.82,1.23,1.23l1.78,1.78C25.59,15.41,25.84,15.54,25.76,15.84Z"/><path class="cls-3" d="M32.25,9.5c-2.1,2.12-4.25,4.19-6.39,6.29,0,0-.07,0-.1.05-.74-.76-1.47-1.53-2.2-2.29.27,0,.41-.24.57-.4l4.5-4.49c1.05-1,1-1-.05-2-.27-.24-.42-.23-.68,0-1.37,1.39-2.77,2.75-4.13,4.14a5.91,5.91,0,0,0-1.42,1.53l-2.28-2.2A25.29,25.29,0,0,1,22.16,8c1.37-1.4,2.76-2.78,4.15-4.16a2.63,2.63,0,0,1,3.88,0l2,2A2.65,2.65,0,0,1,32.25,9.5Zm-19.88.06c-.83-.32-1.65-.65-2.49-.92a1.11,1.11,0,0,1-.78-.75c-.28-.82-.6-1.62-.9-2.44-.13-.37-.3-.65-.75-.66s-.57.29-.69.63c-.3.84-.61,1.67-.9,2.5a1,1,0,0,1-.69.69c-.88.3-1.75.64-2.62.94a.71.71,0,0,0-.52.67.68.68,0,0,0,.47.65c.12.06.26.1.39.15a7.84,7.84,0,0,1,2.7,1.12,7.43,7.43,0,0,1,1.1,2.71c.15.42.31.84.83.83s.62-.46.75-.84c.27-.71.53-1.44.77-2.16a1.2,1.2,0,0,1,.83-.86c.81-.25,1.6-.57,2.39-.85.34-.12.64-.27.65-.73S12.69,9.68,12.37,9.56ZM32.42,24.14l-2.49-.92a1.09,1.09,0,0,1-.8-.73c-.29-.88-.64-1.74-1-2.61-.11-.29-.28-.54-.65-.52a.72.72,0,0,0-.65.55c-.31.83-.66,1.65-.94,2.49a1.2,1.2,0,0,1-.86.83c-.82.28-1.63.6-2.43.92a.67.67,0,0,0-.52.66.65.65,0,0,0,.53.64c.84.31,1.66.65,2.49.94a1.11,1.11,0,0,1,.77.76c.27.81.6,1.59.88,2.38.13.37.3.7.73.71s.63-.37.76-.74c.31-.83.61-1.66.91-2.5a.79.79,0,0,1,.52-.53c.93-.33,1.85-.69,2.78-1a.59.59,0,0,0,.45-.65C33,24.43,32.72,24.25,32.42,24.14ZM16.14,3.39c-.18.51-.4,1-.56,1.53a1,1,0,0,1-.75.71c-.48.15-.95.32-1.43.49-.21.08-.4.18-.4.46s.16.39.38.47a5.51,5.51,0,0,0,.74.27A1.9,1.9,0,0,1,15.84,9a4.23,4.23,0,0,0,.24.68c.1.24.17.55.49.54s.46-.29.5-.54a2.94,2.94,0,0,1,2.66-2.6c.23,0,.47-.17.45-.48s-.25-.39-.49-.47c-.48-.17-.94-.37-1.42-.51A.9.9,0,0,1,17.61,5c-.16-.5-.34-1-.53-1.49C17,3.26,16.89,3,16.61,3A.52.52,0,0,0,16.14,3.39Z"/></svg>