<svg id="Layer_1" data-name="Layer 1" xmlns="http://www.w3.org/2000/svg" viewBox="0 0 35 35"><defs><style>.cls-1{fill:none;}.cls-2,.cls-3{fill:#573285;}.cls-3{opacity:0.4;}</style></defs><title>3 Login Page</title><rect class="cls-1" width="35" height="35"/><path class="cls-2" d="M16.3,15.42c0-.26-.25-.36-.4-.5-1.26-1.26-2.52-2.5-3.79-3.75a2.09,2.09,0,0,1-.73-1.3,1.88,1.88,0,0,1,.95-2.09,2.15,2.15,0,0,1,2.46.41q3.93,3.89,7.82,7.81a2.06,2.06,0,0,1,0,3q-3.88,3.93-7.82,7.81a2.09,2.09,0,0,1-2.89.11A2.14,2.14,0,0,1,12,24c1.28-1.3,2.59-2.57,3.88-3.85.15-.15.29-.31.45-.48-.23-.22-.49-.13-.71-.13H4.53A9.82,9.82,0,0,1,3,19.42a1.86,1.86,0,0,1-1.68-1.76,1.89,1.89,0,0,1,1.37-2,3.84,3.84,0,0,1,1.12-.11H15.6C15.83,15.51,16.08,15.6,16.3,15.42Z"/><path class="cls-3" d="M33.26,17.55v7.86a6,6,0,0,1-6.12,6.09c-1.25,0-2.49,0-3.73,0a2.05,2.05,0,0,1-2.14-2.06,1.94,1.94,0,0,1,2.11-1.92c1.26,0,2.53,0,3.79,0a1.93,1.93,0,0,0,2.1-2.13q0-7.89,0-15.79a1.86,1.86,0,0,0-2.06-2.07c-1.26,0-2.53,0-3.8,0a2,2,0,0,1-2-2.7A1.62,1.62,0,0,1,23,3.57a30.08,30.08,0,0,1,5.45.1,5.85,5.85,0,0,1,4.85,5.69C33.27,12.09,33.26,14.82,33.26,17.55Z"/></svg>