<svg id="Layer_1" data-name="Layer 1" xmlns="http://www.w3.org/2000/svg" viewBox="0 0 35 35"><defs><style>.cls-1{fill:none;}.cls-2,.cls-3{fill:#573285;}.cls-2{opacity:0.4;}</style></defs><title>3 Different style for font icons.</title><rect class="cls-1" width="35" height="35"/><path class="cls-2" d="M17.54,3.64H30c2.19,0,3.36,1.16,3.36,3.32q0,10.56,0,21.12A3,3,0,0,1,30,31.37H5a3.11,3.11,0,0,1-3.29-3.3q.08-10.59,0-21.18A3.08,3.08,0,0,1,5,3.63C9.17,3.67,13.35,3.64,17.54,3.64Z"/><path class="cls-3" d="M29.34,26.61a1.24,1.24,0,0,1-1.3.8q-10.5,0-21,0a1.11,1.11,0,0,1-1.11-.55,1.06,1.06,0,0,1,.19-1.22c1.36-1.85,2.7-3.7,4.05-5.55.61-.82,1.17-.81,1.78,0l1.43,2c.46.63.46.63.89,0l5.25-7.76c.71-1.06,1.24-1.05,2,0L29.3,26.11C29.47,26.27,29.42,26.44,29.34,26.61ZM8.46,13.54a3,3,0,0,0,3-2.89A2.92,2.92,0,0,0,8.64,7.6a2.88,2.88,0,0,0-3.1,2.87A2.94,2.94,0,0,0,8.46,13.54Z"/></svg>