<svg id="Layer_1" data-name="Layer 1" xmlns="http://www.w3.org/2000/svg" viewBox="0 0 35 35"><defs><style>.cls-1{fill:none;}.cls-2,.cls-3{fill:#573285;}.cls-2{opacity:0.4;}</style></defs><title>3 Different style for app icons</title><rect class="cls-1" width="35" height="35"/><path class="cls-2" d="M8.63,18.54c1.27,0,2.55,0,3.82,0a2.86,2.86,0,0,1,3,3c0,2.28,0,4.57,0,6.85a2.9,2.9,0,0,1-3,3c-2.61,0-5.23,0-7.84,0a2.9,2.9,0,0,1-2.95-3c0-2.26,0-4.53,0-6.79a2.91,2.91,0,0,1,3-3C6,18.52,7.33,18.54,8.63,18.54Zm21.55,2.91h.13a2.93,2.93,0,0,0,3-3c0-.6,0-1.19,0-1.78a3,3,0,0,0-3.13-3.16c-3.17,0-6.33,0-9.5,0a3,3,0,0,0-3.11,3.18v1.45a3,3,0,0,0,3.27,3.27h9.36Z"/><path class="cls-3" d="M8.6,3.66c1.21,0,2.42,0,3.62,0A3,3,0,0,1,15.49,6.9v6.39a2.87,2.87,0,0,1-3,3.18c-2.7.1-5.4.12-8.1,0a2.79,2.79,0,0,1-2.73-2.84c0-2.35,0-4.7,0-7a3,3,0,0,1,3.12-2.9C6.09,3.64,7.35,3.66,8.6,3.66Zm21.61,7.9a3,3,0,0,0,3.1-3.06q0-.86,0-1.71a3,3,0,0,0-3.12-3.12c-3.18,0-6.37,0-9.55,0a3,3,0,0,0-3.1,3.14V8.32a3,3,0,0,0,3.25,3.24H25.4C27,11.56,28.61,11.58,30.21,11.56Zm0,19.79a3,3,0,0,0,3.13-3.1c0-.55,0-1.1,0-1.65a3,3,0,0,0-3.15-3.15c-3.17,0-6.33,0-9.5,0a3,3,0,0,0-3.12,3.18v1.52a3,3,0,0,0,3.22,3.2h9.42Z"/></svg>