<svg id="Layer_1" data-name="Layer 1" xmlns="http://www.w3.org/2000/svg" viewBox="0 0 35 35"><defs><style>.cls-1{fill:none;}.cls-2,.cls-3{fill:#573285;}.cls-3{opacity:0.4;}</style></defs><title>Custom Google Fonts</title><rect class="cls-1" width="35" height="35"/><path class="cls-2" d="M19.35,27c-.9-2.46-1.83-4.92-2.75-7.37q-2.4-6.42-4.81-12.84a1.51,1.51,0,0,0-1.5-1.14,1.58,1.58,0,0,0-1.56,1,9.68,9.68,0,0,0-.57,1.39c-.43,1.46-1.07,2.84-1.57,4.27-.74,2.12-1.57,4.2-2.36,6.3C3.16,21.52,2.09,24.41,1,27.29A1,1,0,0,0,1,28c.34.91.82,1.3,1.62,1.31A1.69,1.69,0,0,0,4.28,28c.39-1,.8-2.1,1.16-3.16a.76.76,0,0,1,.84-.61q4,0,8,0c.45,0,.61.17.75.57.39,1.14.82,2.27,1.28,3.39a1.63,1.63,0,0,0,2.15,1A1.53,1.53,0,0,0,19.35,27ZM13,20.89c-1.84,0-3.69,0-5.53,0-.22,0-.6.14-.41-.38,1-2.73,2.05-5.47,3.12-8.33a11.77,11.77,0,0,1,.91,2.16c.77,2,1.5,4,2.26,6C13.53,20.73,13.52,20.89,13,20.89Z"/><path class="cls-3" d="M33.9,14a1.5,1.5,0,0,0-1-1.52A1.7,1.7,0,0,0,31,13c-.25.36-.44.3-.77.14a6.73,6.73,0,0,0-9.6,4.5,18.76,18.76,0,0,0-.14,5.6A6.31,6.31,0,0,0,23.19,28a6.53,6.53,0,0,0,7.07.5c.24-.11.36-.17.56.07a1.79,1.79,0,0,0,2.06.61c.74-.28,1-.78,1-1.81q0-3.27,0-6.54h0C33.9,18.57,33.91,16.3,33.9,14Zm-3.57,9.65A3.44,3.44,0,0,1,27.14,26a3.26,3.26,0,0,1-3.21-2.52,13.19,13.19,0,0,1,0-5.2,3.15,3.15,0,0,1,3-2.4,3.49,3.49,0,0,1,3.36,2.09,10.17,10.17,0,0,1,.24,3A12,12,0,0,1,30.33,23.68Z"/></svg>