<svg id="Layer_1" data-name="Layer 1" xmlns="http://www.w3.org/2000/svg" viewBox="0 0 35 35"><defs><style>.cls-1{fill:none;}.cls-2,.cls-3{fill:#573285;}.cls-2{opacity:0.4;}</style></defs><title>Dynamic Drawer Style</title><rect class="cls-1" width="35" height="35"/><path class="cls-2" d="M33.71,15.46c0,4.08,0,8.17,0,12.25a4,4,0,0,1-4,4q-12.15,0-24.3,0a4,4,0,0,1-4-4.11q0-6.06,0-12.12a1.23,1.23,0,0,1,.89-.22H32.81A1.27,1.27,0,0,1,33.71,15.46ZM9.46,9.4c0-1.28-.86-2.06-2.32-2.06a1.93,1.93,0,0,0-1.86,2,1.93,1.93,0,0,0,2,2.08A2,2,0,0,0,9.46,9.4Z"/><path class="cls-3" d="M33.71,7.27a4,4,0,0,0-4.13-4q-12.07,0-24.16,0a4,4,0,0,0-4.06,3.6c-.15,2.85-.1,5.72,0,8.58H33.71C33.71,12.73,33.76,10,33.71,7.27ZM7.32,11.41a1.93,1.93,0,0,1-2-2.08,1.93,1.93,0,0,1,1.86-2c1.46,0,2.33.78,2.32,2.06A2,2,0,0,1,7.32,11.41ZM29.57,10a1.41,1.41,0,0,1-1.39.88H13.11a1.52,1.52,0,0,1-1.54-2.21,1.55,1.55,0,0,1,1.57-.83h7.43c2.5,0,5,0,7.5,0A1.5,1.5,0,0,1,29.57,10ZM10.49,23.27a3.13,3.13,0,1,1-3.12-3.13A3.12,3.12,0,0,1,10.49,23.27Zm10.16.22a3.13,3.13,0,1,1-3.12-3.13A3.12,3.12,0,0,1,20.65,23.49Zm10.26,0a3.13,3.13,0,1,1-3.13-3.13A3.13,3.13,0,0,1,30.91,23.49Z"/></svg>