<svg id="Layer_1" data-name="Layer 1" xmlns="http://www.w3.org/2000/svg" viewBox="0 0 35 35"><defs><style>.cls-1{fill:none;}.cls-2,.cls-3{fill:#573285;}.cls-2{opacity:0.41;}</style></defs><title>Language Selector</title><rect class="cls-1" width="35" height="35"/><path class="cls-2" d="M17.5,1.25a12.2,12.2,0,0,1,6,1.06,16.48,16.48,0,0,1,8,6.73c.16.26.27.55.41.83A22.69,22.69,0,0,1,29.24,11a2.06,2.06,0,0,0-1.4,2.72c.33,1.31.81,2.58,1.25,3.85A2.3,2.3,0,0,0,30.76,19a14.2,14.2,0,0,1,2.84,1A15.69,15.69,0,0,1,30,28a15.61,15.61,0,0,1-9.49,5.53A15.94,15.94,0,0,1,6,29.21,16.11,16.11,0,0,1,1.1,15.92a12.9,12.9,0,0,1,1-4.34A29.78,29.78,0,0,0,4,14.44,4.18,4.18,0,0,0,6.28,16c1.45.43,2.92.8,4.34,1.3a2.9,2.9,0,0,1,2.24,3.23A22.64,22.64,0,0,0,13,23.27,2.33,2.33,0,0,0,14.11,25a2.12,2.12,0,0,1,1.09,2V29a4.08,4.08,0,0,0,.22,1.3,1.36,1.36,0,0,0,1.86.93,2.92,2.92,0,0,0,2.12-2.29,5.51,5.51,0,0,1,2.86-4,3.46,3.46,0,0,0,1.92-3.25,3.74,3.74,0,0,0-2.74-3.82c-.19-.06-.41-.08-.53-.29a24.12,24.12,0,0,0-3.8,0,2.74,2.74,0,0,1-2-.43c-.76-.4-1.5-.82-2.22-1.29-1.06-.68-1.43-1.51-1.08-2.39a2.54,2.54,0,0,1,2.67-1.31c.51.11,1,.34,1.5.43s1.34.36,1.77-.34,0-1.28-.46-1.82c-.16-.2-.36-.37-.52-.58a2.49,2.49,0,0,1-.13-3.17c.39-.58.88-1.09,1.28-1.67A2.19,2.19,0,0,0,18,2.58C17.82,2.16,17.39,1.81,17.5,1.25Z"/><path class="cls-3" d="M20.9,17.53a6,6,0,0,1,2.28,1.1C25,20.2,24.8,23.92,22.57,25a4.86,4.86,0,0,0-2.8,3.27,5.48,5.48,0,0,1-.48,1.55A3.37,3.37,0,0,1,17,31.54a1.59,1.59,0,0,1-1.81-1.34,12.75,12.75,0,0,1-.11-3,2.06,2.06,0,0,0-1.15-2.11,2.35,2.35,0,0,1-1.18-2.3c0-.6,0-1.2,0-1.8,0-2.34-.64-3.19-2.87-3.79-1.22-.33-2.46-.65-3.67-1A4.22,4.22,0,0,1,3.9,14.64c-.52-.72-1-1.46-1.53-2.18a1.45,1.45,0,0,1-.22-.88,16.74,16.74,0,0,1,8.69-9A15.43,15.43,0,0,1,16.1,1.23a3,3,0,0,1,1.4,0h0a1.32,1.32,0,0,0,.12.2C19,3.67,19,4.16,17.31,6.2,16,7.84,16,8.75,17.41,10.35a4,4,0,0,1,.57.73A1.26,1.26,0,0,1,16.75,13a11.46,11.46,0,0,1-2.25-.59,2.33,2.33,0,0,0-2.31.82A1.3,1.3,0,0,0,12,14.84a.88.88,0,0,0,.25.39,16.68,16.68,0,0,0,4.14,2.27,2.14,2.14,0,0,0,.62,0A16.7,16.7,0,0,1,20.9,17.53Zm12.77,1.62a15.45,15.45,0,0,0-1.8-9.28,13.81,13.81,0,0,0-2.85,1,2.18,2.18,0,0,0-1.41,2.82c.4,1.34.86,2.67,1.29,4a1.65,1.65,0,0,0,.88,1.05A17.61,17.61,0,0,0,33.6,20C33.62,19.72,33.63,19.43,33.67,19.15Z"/></svg>