<svg id="Layer_1" data-name="Layer 1" xmlns="http://www.w3.org/2000/svg" viewBox="0 0 35 35"><defs><style>.cls-1{fill:none;}.cls-2,.cls-3{fill:#573285;}.cls-2{opacity:0.4;}</style></defs><title>Login Page with Quotes</title><rect class="cls-1" width="35" height="35"/><path class="cls-2" d="M33.71,15.52c0,4.08,0,8.17,0,12.25a4,4,0,0,1-4,4q-12.15,0-24.3,0a4,4,0,0,1-4-4.11q0-6.06,0-12.12a1.23,1.23,0,0,1,.89-.22H32.81A1.27,1.27,0,0,1,33.71,15.52ZM9.46,9.46c0-1.28-.86-2.05-2.32-2.06a1.93,1.93,0,0,0-1.86,2,1.92,1.92,0,0,0,2,2.07A2,2,0,0,0,9.46,9.46Z"/><path class="cls-3" d="M33.71,7.33a4,4,0,0,0-4.13-4q-12.07,0-24.16,0A4,4,0,0,0,1.36,7c-.15,2.85-.1,5.72,0,8.58H33.71C33.71,12.79,33.76,10.06,33.71,7.33ZM7.32,11.47a1.92,1.92,0,0,1-2-2.07,1.93,1.93,0,0,1,1.86-2c1.46,0,2.33.78,2.32,2.06A2,2,0,0,1,7.32,11.47Zm22.25-1.4a1.41,1.41,0,0,1-1.39.88c-.75,0-1.49,0-2.23,0-4.28,0-8.56,0-12.84,0a1.52,1.52,0,0,1-1.54-2.21,1.55,1.55,0,0,1,1.57-.83H28.07A1.5,1.5,0,0,1,29.57,10.07ZM16.64,23.27a15.9,15.9,0,0,1-.05,1.78,3.47,3.47,0,0,1-2.75,2.7c-.17,0-.35.05-.53.06a.81.81,0,0,1-.89-.8.8.8,0,0,1,.84-.9A1.74,1.74,0,0,0,15,24.59c0-.3,0-.33-.28-.27a2.55,2.55,0,1,1,2-2.57C16.65,22.21,16.64,22.68,16.64,23.27Zm6.85,0a13.91,13.91,0,0,1,0,1.56,3.43,3.43,0,0,1-3.26,3,.85.85,0,1,1-.07-1.7,1.72,1.72,0,0,0,1.67-1.56c0-.3,0-.31-.26-.23a2.55,2.55,0,1,1,1.95-2.48Z"/></svg>