<svg id="Layer_1" data-name="Layer 1" xmlns="http://www.w3.org/2000/svg" viewBox="0 0 35 35"><defs><style>.cls-1{fill:none;}.cls-2,.cls-3{fill:#573285;}.cls-3{opacity:0.4;}</style></defs><title>Night Mode</title><rect class="cls-1" width="35" height="35"/><path class="cls-2" d="M15.11,33.24c-7.28,0-12-3.8-13.12-9.53A11.86,11.86,0,0,1,15.24,9.76c.33.05.74.06.85.48s-.25.6-.54.79a9,9,0,0,0-4.19,6.1,9.25,9.25,0,0,0,7.56,11,8.79,8.79,0,0,0,2.94,0c.32-.06.68-.11.88.25s0,.63-.26.87C20.13,31.8,17.22,33.21,15.11,33.24Z"/><path class="cls-3" d="M27.34,9.64c.32,0,.43.18.54.45.42,1,.86,2,1.28,3a1.29,1.29,0,0,0,.79.74c.95.37,1.9.78,2.85,1.17.22.1.45.19.44.5a.62.62,0,0,1-.46.57c-.93.38-1.84.81-2.79,1.14a1.48,1.48,0,0,0-.95,1c-.36.89-.72,1.78-1.1,2.67-.11.25-.2.58-.56.56s-.46-.3-.57-.57c-.37-.89-.74-1.78-1.1-2.67a1.49,1.49,0,0,0-1-1c-.94-.33-1.86-.76-2.78-1.16-.25-.1-.47-.22-.46-.56s.25-.39.46-.48c1-.4,1.9-.8,2.85-1.18a1.3,1.3,0,0,0,.84-.84c.34-1,.75-1.91,1.15-2.86C26.91,9.91,27,9.63,27.34,9.64ZM22.86,4.27a2.52,2.52,0,0,1-2-2,.14.14,0,0,0,0-.06c-.11-.18-.14-.45-.43-.42s-.31.23-.36.41a2.56,2.56,0,0,1-2,2.09c-.22,0-.51.14-.51.44s.31.35.52.4A2.14,2.14,0,0,1,20,6.88a.31.31,0,0,0,0,.12c.07.23.13.51.43.5s.33-.3.37-.49A2.52,2.52,0,0,1,23,5a.78.78,0,0,0,.29-.14.59.59,0,0,0,.11-.17C23.33,4.51,23.28,4.39,22.86,4.27Z"/></svg>