<svg id="Layer_1" data-name="Layer 1" xmlns="http://www.w3.org/2000/svg" viewBox="0 0 35 35"><defs><style>.cls-1{fill:none;}.cls-2,.cls-3{fill:#573285;}.cls-2{opacity:0.4;}</style></defs><title>Progressive Web App (PWA)</title><rect class="cls-1" width="35" height="35"/><path class="cls-2" d="M13.47,8.55a1.45,1.45,0,0,0-.54-1.76C12,6,11.34,5.19,11.71,4a3.1,3.1,0,0,1,2.57-2.14,4.68,4.68,0,0,1,4.24.89,2.27,2.27,0,0,1,.13,3.62c-.14.14-.3.26-.45.39a1.63,1.63,0,0,0-.6,1.82,1.47,1.47,0,0,0,1.2,1l0,.05H12.17A1.6,1.6,0,0,0,13.47,8.55Zm18.87,7.83a2.33,2.33,0,0,0-3.64-.06,5.86,5.86,0,0,1-.6.62,1.5,1.5,0,0,1-2.32-.09,1.87,1.87,0,0,1-.32-1.19v0l-.16,0c0,1.92,0,3.83,0,5.75,0,.36,0,.72,0,1.08l.19,0a1.33,1.33,0,0,1,.93-1,1.62,1.62,0,0,1,1.88.6c.08.1.16.21.25.31a2.38,2.38,0,0,0,3.79,0A5,5,0,0,0,32.34,16.38Z"/><path class="cls-3" d="M25.53,22.55c0-.12,0-.24,0-.37,0-.7,0-1.41,0-2.11,0-1.47-.06-2.93-.06-4.39a1.58,1.58,0,0,1,0-.38c0-1.18,0-2.37,0-3.55,0-1.47-.69-2.16-2.14-2.16s-2.75,0-4.12,0H19c-.93.07-1.86,0-2.8.06-1.38,0-2.76,0-4.13,0H3.78A1.94,1.94,0,0,0,1.7,11c-.14,1.38,0,2.76-.05,4.14a3.18,3.18,0,0,0,.07,1.3,1.54,1.54,0,0,0,2.74.16,2.48,2.48,0,0,1,4.15-.17,5.1,5.1,0,0,1,0,6,2.71,2.71,0,0,1-2.16,1c-1,0-1.48-.69-2.06-1.29a1.47,1.47,0,0,0-2.64.4.78.78,0,0,0-.07.45v8.51a.77.77,0,0,0,.07.45A1.77,1.77,0,0,0,3.4,33.33c2.89,0,5.79,0,8.68,0A1.4,1.4,0,0,0,13.51,32a1.77,1.77,0,0,0-.76-1.4,2.44,2.44,0,0,1-1.11-2.75A2.89,2.89,0,0,1,13.25,26a4.93,4.93,0,0,1,4.59,0c1.88.93,2.44,3.31.48,4.56a1.62,1.62,0,0,0-.66,1.81c.23.7.7,1,1.6,1h3.85c1.72,0,2.35-.63,2.35-2.35V23.17A2.86,2.86,0,0,1,25.53,22.55Z"/></svg>