<svg id="Layer_1" data-name="Layer 1" xmlns="http://www.w3.org/2000/svg" viewBox="0 0 35 35"><defs><style>.cls-1{fill:none;}.cls-2,.cls-3{fill:#573285;}.cls-3{opacity:0.4;}</style></defs><title>Quick Bookmark</title><rect class="cls-1" width="35" height="35"/><path class="cls-2" d="M29.64,10.89c0-2.1,0-4.19,0-6.29a3,3,0,0,0-3-3.27c-1,0-1.93,0-2.9,0a1.68,1.68,0,0,0-.1.86q0,9.56,0,19.11c0,.51.06,1.05-.49,1.3a1.45,1.45,0,0,1-1.46-.25c-1.21-.82-2.45-1.59-3.65-2.43a.78.78,0,0,0-1,0c-1.23.83-2.48,1.64-3.7,2.47a1.34,1.34,0,0,1-1.4.2c-.47-.22-.47-.71-.47-1.18V2.17a1.24,1.24,0,0,0-.15-.84h0c-.93,0-1.85,0-2.77,0A3,3,0,0,0,5.36,4.45q0,13.72,0,27.44a1.58,1.58,0,0,0,.78,1.61A1.72,1.72,0,0,0,8,33.24c2.94-2.08,5.9-4.13,8.83-6.22a.91.91,0,0,1,1.25,0c2.8,2,5.63,4,8.45,5.95.69.49,1.36,1,2.27.54s.8-1.33.81-2.13Z"/><path class="cls-3" d="M23.69,1.34a1.68,1.68,0,0,0-.1.86q0,9.56,0,19.11c0,.51.06,1.05-.49,1.3a1.45,1.45,0,0,1-1.46-.25c-1.21-.82-2.45-1.59-3.65-2.43a.78.78,0,0,0-1,0c-1.23.83-2.48,1.64-3.7,2.47a1.34,1.34,0,0,1-1.4.2c-.47-.22-.47-.71-.47-1.18V2.17a1.24,1.24,0,0,0-.15-.84Z"/></svg>