<svg id="Layer_1" data-name="Layer 1" xmlns="http://www.w3.org/2000/svg" viewBox="0 0 35 35"><defs><style>.cls-1{fill:none;}.cls-2,.cls-3{fill:#573285;}.cls-2{opacity:0.4;}</style></defs><title>Refresh Page</title><rect class="cls-1" width="35" height="35"/><path class="cls-2" d="M1.3,26.94c0-1.84,0-3.3,0-4.76a2.26,2.26,0,0,1,2.51-2.56c2.68,0,5.37,0,8,0a2.12,2.12,0,0,1,2.39,2.32,2,2,0,0,1-2,2c-.78,0-1.58,0-2.37,0-.18,0-.41-.09-.52.12s.09.35.21.49a9.47,9.47,0,0,0,6.82,3.66A10.15,10.15,0,0,0,25.94,24a11.07,11.07,0,0,0,1.42-2.73,2.14,2.14,0,0,1,2.85-1.41,2.08,2.08,0,0,1,1.14,2.8c-2,5.5-5.83,8.85-11.62,9.77A14.09,14.09,0,0,1,6.83,28c-.23-.24-.42-.52-.65-.77s-.23-.37-.44-.3-.13.33-.14.51v4.1a2,2,0,0,1-2,2.18,2.08,2.08,0,0,1-2.22-1.8C1.2,30.11,1.38,28.34,1.3,26.94Z"/><path class="cls-3" d="M33.7,8.36c0,1.51,0,3,0,4.53a2.11,2.11,0,0,1-2.38,2.4c-2.74,0-5.47,0-8.21,0a2.13,2.13,0,1,1,0-4.24c.69,0,1.39,0,2.09,0,.18,0,.42.07.53-.11s-.1-.35-.21-.49a9.83,9.83,0,0,0-7.39-3.75,10.24,10.24,0,0,0-10.4,7.05,2.16,2.16,0,0,1-2.19,1.54,2,2,0,0,1-1.95-1.8,2.26,2.26,0,0,1,.14-1.13A14.47,14.47,0,0,1,18.83,2.48,14.29,14.29,0,0,1,28.89,7.83c.13.16.23.45.47.35s.12-.38.12-.59c0-1.36,0-2.73,0-4.1a2,2,0,0,1,2-2.17,2,2,0,0,1,2.2,2.08c0,1.65,0,3.31,0,5Z"/></svg>