<svg id="Layer_1" data-name="Layer 1" xmlns="http://www.w3.org/2000/svg" viewBox="0 0 35 35"><defs><style>.cls-1{fill:none;}.cls-2,.cls-3{fill:#573285;}.cls-2{opacity:0.4;}</style></defs><title>RTL Support</title><rect class="cls-1" width="35" height="35"/><path class="cls-2" d="M21.54,13c0-2.25,0-4.5,0-6.75,0-.5-.15-.65-.65-.65-1.4,0-1.4,0-1.4,1.38q0,6,0,12.08a5.44,5.44,0,0,1-.11,1.14,1.92,1.92,0,0,1-2.12,1.54A1.74,1.74,0,0,1,15.58,20c0-1.17,0-2.34,0-3.51,0-.56-.16-.8-.77-.79a7,7,0,0,1-6.17-3.1,6.94,6.94,0,0,1,3-10.42,7.83,7.83,0,0,1,2.95-.54c3.63,0,7.25,0,10.87,0a1.91,1.91,0,0,1,2.11,1.82A1.88,1.88,0,0,1,26.06,5.5c-.51.13-.48.43-.48.8q0,6.62,0,13.22A2.07,2.07,0,0,1,22,21a1.81,1.81,0,0,1-.42-1.3C21.55,17.49,21.54,15.26,21.54,13Z"/><path class="cls-3" d="M20.94,25.91c2.16,0,4.32.05,6.48,0a2,2,0,0,1,2.21,1.92c0,1.29-.82,2.05-2.24,2.05-4.36,0-8.73,0-13.09,0-.87,0-.87,0-.87.89,0,.67,0,1.35,0,2a1,1,0,0,1-.54,1,1,1,0,0,1-1.17-.21L5.8,28.64a.89.89,0,0,1,0-1.5c2-1.68,4-3.36,6-5a1,1,0,0,1,1.63.75,23.21,23.21,0,0,1,0,2.36c0,.56.19.68.7.68C16.39,25.9,18.67,25.91,20.94,25.91Z"/></svg>