<svg id="Layer_1" data-name="Layer 1" xmlns="http://www.w3.org/2000/svg" viewBox="0 0 35 35"><defs><style>.cls-1{fill:none;}.cls-2,.cls-3{fill:#573285;}.cls-2{opacity:0.4;}</style></defs><title>To Do List</title><rect class="cls-1" width="35" height="35"/><path class="cls-2" d="M22.73,26.27h9.05a1.89,1.89,0,0,1,2.14,2,2,2,0,0,1-2.12,2.09H13.49a2,2,0,0,1-2.11-2.13,1.83,1.83,0,0,1,2.09-2Zm9-16.46A2.06,2.06,0,0,0,33.8,7,1.86,1.86,0,0,0,32,5.7H21.8c-1.46,0-2.92,0-4.38,0a1.84,1.84,0,0,0-1.9,1.46,2.06,2.06,0,0,0,2.19,2.65H31.77ZM17.42,16a1.89,1.89,0,0,0-1.9,1.39,2.05,2.05,0,0,0,.93,2.43,3.53,3.53,0,0,0,1.6.29H31.37a3.44,3.44,0,0,0,1.46-.26,2,2,0,0,0,1.05-2.37A2,2,0,0,0,32,16c-2.42,0-4.85,0-7.27,0S19.85,16,17.42,16Z"/><path class="cls-3" d="M5.13,22a1.17,1.17,0,0,1-1.08-.42c-.78-.81-1.59-1.58-2.37-2.38s-.83-1.6-.2-2.24a1.62,1.62,0,0,1,2.32.14c.43.39.73,1.13,1.31,1.08S5.9,17.43,6.29,17c.78-.83,1.51-1.71,2.31-2.52a1.48,1.48,0,0,1,2.62.64,1.41,1.41,0,0,1-.36,1.33c-1.53,1.72-3.07,3.43-4.61,5.15A1.21,1.21,0,0,1,5.13,22ZM6.39,11.18c.85-1,1.74-1.93,2.62-2.9.59-.66,1.21-1.3,1.77-2A1.5,1.5,0,0,0,10,3.68a1.52,1.52,0,0,0-1.44.62c-1,1.14-2.09,2.29-3.12,3.45-.26.3-.44.31-.7,0a13.9,13.9,0,0,0-1-1,1.49,1.49,0,0,0-2.2,0A1.44,1.44,0,0,0,1.6,8.82c.84.87,1.69,1.73,2.54,2.58a1.15,1.15,0,0,0,.86.36A1.66,1.66,0,0,0,6.39,11.18ZM1.06,28.28a3.07,3.07,0,0,0,3,3.06,3,3,0,0,0,3-3,3,3,0,0,0-3-3A3,3,0,0,0,1.06,28.28Z"/></svg>