<?xml version="1.0" encoding="UTF-8"?>
<svg id="Layer_1" data-name="Layer 1" xmlns="http://www.w3.org/2000/svg" viewBox="0 0 800 800">
  <defs>
    <style>
      .cls-1 {
        fill: none;
      }

      .cls-2 {
        fill: #010101;
      }
    </style>
  </defs>
  <rect class="cls-1" width="800" height="800"/>
  <path class="cls-2" d="M711.11,317.23c-6.13-4.63-7.93-8.78-6.23-16.09,4.18-18.03,4.05-36.26,.36-54.42-13.97-68.67-72.36-114.5-143.46-112.55-5.74,.16-10.01,.64-13.53-6.48-29.92-60.53-78.96-93.67-146.59-93.61-67.61,.06-116.49,33.29-146.56,93.78-2.33,4.69-4.49,7.42-10.15,6.51-3.72-.6-7.61-.11-11.43-.11-87.06,.69-151.95,80.44-135.01,166.05,1.49,7.53,.63,12.04-6.16,17.15-59.02,44.41-61.29,132.09-4.93,179.93,22.09,18.75,47.75,27.93,76.85,27.68,19.95-.17,19.95,.07,19.95,20.39,0,8.78-.27,17.57,.09,26.33,.56,13.68,8.95,27.65,20.8,27.98,15.38,.43,18.25,9.97,21.96,20.68,1.24,3.58,2.53,7.27,4.53,10.44,3.74,5.94,3.27,10.29-1.53,16.01-9.91,11.8-9.43,27.33,.95,38.58,11.11,12.05,22.78,23.64,34.82,34.77,9.17,8.48,25.19,11.07,33.78,3.13,9.95-9.2,17.59-5.96,26.91-1.08,5.03,2.63,10.57,4.37,16,6.11,4.44,1.43,6.46,3.44,6.85,8.71,1.31,17.65,11.98,28.5,29.03,29.25,15.62,.68,31.31,.56,46.94,0,13.51-.48,25.81-7.45,26.72-20.53,1.1-16,11.22-18.29,22.02-22.27,4.28-1.58,8.66-3.24,12.48-5.67,4.29-2.73,6.91-2.05,10.83,1.2,14.78,12.21,30.2,11.32,43.95-2,8.77-8.5,17.35-17.19,25.95-25.86,16.31-16.43,17.3-28.3,4.05-47.3-3.56-5.1,10-40.79,16.04-42.14,1.1-.25,2.29-.09,3.42-.22,17.66-2.12,28-13.34,28.53-31.18,.22-7.24,.04-14.5,.04-21.75q0-23.16,23.63-23.66c49.6-1.05,92.73-32.71,107.97-79.26,15.62-47.71,.2-98.25-39.89-128.51Zm-120.68,216.04c-.46,10.66-.32,21.36-.04,32.04,.15,5.56-1.15,7.96-7.52,8.15-21.4,.65-21.31,.98-27.58,21.68-3.64,12.03-8.71,23.47-14.93,34.41-8.01,14.08-8.06,16.73,3.67,27.53,6.89,6.34,7.51,10.65,.09,16.85-7.29,6.09-13.91,13.06-20.3,20.12-3.91,4.32-6.34,4.75-10.87,.44-15.82-15.05-15.99-14.8-35.01-4.51-11.1,6-22.7,10.79-35.01,13.78-14.18,3.45-17.36,6.5-16.4,21.28,.72,11.25-3.64,13.71-13.65,12.88-9.1-.76-18.32-.43-27.46-.07-5.89,.23-8.65-1.81-8-7.82,1.93-18.09-1.5-23.32-21.85-27.71-11.87-2.57-22.88-8.28-33.53-14.37-14.46-8.27-17.4-8.17-28.62,3.85-5.92,6.34-9.91,7.54-15.87,.21-5.51-6.77-11.79-13.1-18.58-18.57-7.59-6.12-5.82-10.2,.38-16.05,12.02-11.34,11.92-13.51,3.52-28.46-6.72-11.97-12.07-24.5-15.63-37.79-4.39-16.38-6.2-18.24-22.64-17.64-8.82,.33-12.32-1.86-11.47-11.22,.86-9.46,.63-19.08,.05-28.59-.44-7.28,2.3-9.29,9.19-8.8,7.98,.56,16.02,.13,24.04,.13,0,.06,0,.11,0,.17,9.92,0,22.25-3.61,29.11,.97,7.47,4.99,1.86,18.05,2.06,27.53,1.25,58.54,46.08,109.17,105.79,118.77,56.63,9.11,115-25.37,135.11-79.48,7.2-19.37,8.63-39.31,6.9-59.56-.54-6.35,.44-8.76,7.42-8.56,16.4,.47,32.83,.44,49.23,.01,6.55-.17,8.71,1.89,8.43,8.4Zm135.69-105.01c-10.91,41.52-44.17,67.92-86.33,68.22-27.86,.2-55.72,.04-83.58,.04-28.24,0-56.48-.04-84.72,.02-13.76,.03-19.15,4-19.32,13.88-.18,10.31,5.49,14.49,19.83,14.59,1.53,.01,3.05,0,4.58,0,20.01,0,20.69,0,21.1,20.59,1,50.1-34.74,94.09-89.49,99.07-47.35,4.31-93.3-32.23-100.59-79.56-1.71-11.14-1.65-21.78,.02-32.83,.93-6.15,3.39-7.56,8.83-7.33,6.86,.28,13.74,.23,20.6-.03,9.03-.33,14.32-4.96,14.29-14.26-.03-9.35-5.42-13.97-14.46-14.03-25.95-.16-51.9-.09-77.85-.1-30.53,0-61.06,.03-91.59,0-43.4-.05-78.05-24.99-88.63-63.72-11.07-40.53,4.95-77.99,43.52-100.47,9.81-5.71,11.33-12.88,8.15-23.03-19.18-61.33,11.19-121.25,71.84-141.46,16.46-5.49,33.46-7.13,50.8-3.74,14.44,2.83,18.16,.47,23.32-13.12,20.65-54.43,68.84-88.48,125.26-88.5,56.5-.02,104.58,33.89,125.3,88.37,5.08,13.37,8.97,15.76,22.14,13.61,83.13-13.51,149.47,62.92,124.72,143.71-4.5,14.69-3.42,17.56,9.34,24.94,34.37,19.87,52.26,59.55,42.91,95.15Zm-158.88-107.18c0,22.12,.06,44.24-.02,66.36-.05,12.91-4.85,19.08-14.42,18.94-9.23-.13-13.88-6-13.9-18.29-.08-44.24-.08-88.48,0-132.72,.02-12.32,4.6-18.16,13.81-18.33,9.67-.18,14.46,5.89,14.51,18.82,.08,21.74,.02,43.48,.02,65.21Zm-164.64,204.03c-9.07-.82-14.58-4.76-14.64-14.2-.06-8.62,4.29-13.71,12.83-14.15,8.92-.46,14.37,3.91,14.85,13.25,.48,9.34-4.64,13.78-13.04,15.1Zm-62.61-132.24c0,.07,.15-1.96-.5-3.69-17.8-47.2-35.62-94.39-53.59-141.52-2.71-7.11-8.38-10.69-16.05-10.7-8.17,0-13.82,3.99-16.7,11.53-17.96,47.14-35.8,94.32-53.75,141.45-3.25,8.54,.61,14.22,7.58,17.82,7.8,4.03,14.37,.87,18.21-6.42,3.16-5.99,5.35-12.55,7.41-19.04,2.05-6.44,5.73-8.72,12.6-8.37,12.18,.61,24.41,.17,36.62,.17q21.03,0,28.51,19.26c1.23,3.16,2.37,6.47,4.23,9.26,3.73,5.59,9.11,8.3,15.78,5.99,6.3-2.18,10.12-6.64,9.66-15.75Zm-85.9-47.93c-5.3,.05-6.49-1.26-4.29-6.68,6.62-16.4,12.57-33.08,19.83-52.44,7.9,20.81,14.81,39.02,22.43,59.08-13.76,0-25.86-.08-37.96,.04Zm240.94-54.7c-1.4-28.95-23.53-51.44-52.75-53.09-11.41-.64-22.87-.32-34.31-.33-20.51-.01-23.44,2.86-23.47,22.93-.03,20.96,0,41.93,0,62.89,.01,23.25-.18,46.51,.1,69.75,.13,10.59,6.21,17.13,14.57,16.95,8.41-.18,13.91-6.8,14.05-17.4,.16-12.2,.5-24.42-.13-36.58-.38-7.36,2.32-9.13,9.12-8.82,7.97,.37,16.07,.31,23.97-.72,28.6-3.73,50.17-28.54,48.85-55.6Zm-57.35,27.66q-24.33,.97-24.37-26.42c0-1.14-.43-2.54,.07-3.39,4.17-7.19-10.01-22.29,9.38-22.74,29.13-.67,42.67,7.65,43.08,25.69,.34,14.86-11.54,26.19-28.16,26.86Z"/>
</svg>