<?xml version="1.0" encoding="UTF-8"?>
<svg id="Layer_1" data-name="Layer 1" xmlns="http://www.w3.org/2000/svg" viewBox="0 0 800 800">
  <defs>
    <style>
      .cls-1 {
        fill: none;
      }

      .cls-2 {
        fill: #010101;
      }
    </style>
  </defs>
  <rect class="cls-1" width="800" height="800"/>
  <path class="cls-2" d="M773.72,194.02c0-41.57-25.67-67.17-67.31-67.18-101.98-.02-203.96,0-305.94,0s-203.96-.02-305.94,0c-41.62,.01-67.23,25.63-67.23,67.27-.02,137.62-.02,275.24,0,412.86,0,41.52,25.73,67.2,67.32,67.2,203.96,.02,407.93,.02,611.89,0,41.56,0,67.22-25.69,67.22-67.29,.03-137.62,.03-275.24,0-412.86ZM51.99,212.98c.84-7.78-.02-15.73,.22-23.6,.67-21.77,16.09-36.99,37.96-37.66,2.48-.08,4.97-.02,7.46-.02,201.82,0,403.63,0,605.45,0,32.26,0,45.75,13.6,45.77,46.09q.01,28.54-28.7,28.54H400.64c-111.89,0-223.78-.22-335.67,.33-11.51,.06-14.1-3.35-12.99-13.69Zm696.85,392.26c0,29.82-14.25,44.04-44.1,44.05-202.68,.01-405.37,.01-608.05,0-30.57,0-44.52-14.07-44.52-44.86-.01-113.56,.15-227.12-.26-340.68-.04-10.22,2.2-12.84,12.65-12.8,112.32,.43,224.65,.27,336.98,.27s223,.13,334.49-.22c9.69-.03,13.17,1.32,13.12,12.32-.49,113.97-.29,227.95-.31,341.92Zm-197.8-428.66c46.02,0,92.05,.47,138.05-.33,11.56-.2,10.05,5.74,10.05,12.78,0,7.05,1.46,12.83-10.06,12.75-92.86-.57-185.73-.57-278.59,0-11.53,.07-10.04-5.73-10.05-12.77,0-7.05-1.48-12.96,10.06-12.77,46.83,.8,93.69,.33,140.54,.33Zm-437.79,24.6c-13.15,4-10.58-5.17-11.59-13.05-1.54-12.03,5.03-11.15,13.59-11.91,12.04-1.07,11.23,5.13,11.89,13.7,.92,11.79-4.74,12.95-13.89,11.26Zm63-11.5c3.65,12.29-3.93,11.39-12.67,12.14-11.5,.98-11.75-4.16-12.31-13.34-.7-11.48,4.18-11.93,13.42-12.27,10.97-.4,13.93,3.58,11.57,13.47Zm36.85,11.48c-12.55,3.77-11.14-4.3-11.99-12.78-1.17-11.7,4.45-11.55,13.42-12.2,11.69-.84,11.71,4.48,12.16,13.5,.56,11.22-3.93,13.64-13.6,11.48Zm228.4,277.39c-5.55-3.61-14.79-6.39-14.54-13.9,.58-17.48-4.59-38.02,19.07-46.58,6.78-2.45,6.75-7.57,3.75-13.96-5.58-11.91-10.13-24.29-15.19-36.44-6.89-16.57-8.42-17.42-26.71-13.65-4.84,1-11.14,4.24-14.15,.55-9.78-12.03-29.62-18.94-20.95-41.15,3.83-9.81,.53-17.56-11.87-20.79-11.41-2.97-22.29-8.47-32.93-13.79-10.29-5.15-17.49-4.97-23.82,6.29-3.13,5.56-6.02,14.42-13.99,14.34-17.76-.19-37.75,3.74-46.46-19.36-2.14-5.68-6.57-6.91-12.92-3.84-12.57,6.07-25.32,12.34-38.68,16.06-13.32,3.7-16.36,11.82-12.63,22.72,4.39,12.83,.12,21.18-9.9,28.36-2.31,1.66-4.39,3.9-5.97,6.28-4.06,6.12-9.44,7.07-16.13,5.38-4.37-1.1-9-1.14-13.42-2.1-7.32-1.6-11.17,.97-13.83,8.19-5.4,14.65-11.6,29.03-17.97,43.29-2.54,5.69-3.01,10.1,3.11,13.21,16.04,8.15,23.35,20.54,19.34,38.71-.34,1.55-.09,3.37,.36,4.93,1.2,4.16-.2,6.81-3.55,9.54-7.29,5.96-19.81,9.78-20.72,18.16-.93,8.58,6.55,18.06,10.27,27.18,2.17,5.33,4.06,10.78,6.26,16.1,7.19,17.39,8.47,18.03,27.52,14.12,5.1-1.05,10.65-4.18,15.03,.76,10.56,11.9,28.53,20.58,19.14,41.71-.25,.57-.12,1.3-.06,.93-.69,12.48-.59,12.52,9.47,16.72,12.15,5.07,24.61,9.53,36.33,15.44,10.13,5.11,16.66,4.16,22.81-6.11,3.38-5.64,6.67-15.15,13.8-14.64,16.73,1.2,37.53-5.67,45.93,17.77,.14,.38,.49,.67,.68,1.03,3.29,6.09,7.39,7.29,14.02,4.15,12.25-5.8,24.61-11.89,37.58-15.5,13.75-3.83,16.88-12.61,12.98-23.72-4.66-13.26,2.05-19.95,10.17-28.44,8.43-8.81,15.79-14,28.61-9.64,10.89,3.7,19.23,.72,22.76-12.62,3.02-11.41,8.15-22.5,13.86-32.91,5.81-10.6,2.99-16.63-6.47-22.77Zm-19.85,18.66c-1.52,7.89-4.48,16.67-9.79,22.29-3.9,4.12-12.59,.73-18.72-.66-7.78-1.76-12.07,.57-16.38,6.87-7.04,10.3-16.01,19.05-26.35,26.09-5.51,3.75-7.01,7.59-5.82,14.44,3.56,20.46,3,20.21-15.81,27.97-5.82,2.4-9.04,1.46-11.69-3.64-7.15-13.75-17.28-19.91-33.09-14.36-4.07,1.43-9.4,1.45-13.53,.15-16.73-5.26-28.74-.43-36.21,15.35-3.34,7.05-8.06,3.65-11.99,1.5-6.03-3.31-15.24-2.68-17.67-11.92,8.29-17.77,1.29-29.44-13.54-38.29-2.76-1.65-5.52-4.17-7-6.97-8.61-16.27-21.81-20.61-38.71-15.35-4.52,1.41-5.95-.9-7.34-4.16-1.13-2.64-2.07-5.4-3.51-7.85-5.06-8.61-5.09-15.77,5.22-20.4,12.65-5.68,13.56-15.5,10.76-27.61-1.45-6.29-1.94-13.66-.09-19.69,4.37-14.28-.24-23.7-12.7-30.4-6.01-3.23-10.11-7.46-4.63-14.1,4.81-5.82,1.12-20.32,16.15-15.99,13.62,3.92,24.65,1.4,31.69-12.42,1.98-3.88,5.6-7.66,9.42-9.74,16.14-8.79,20.71-21.8,15.35-38.75-1.42-4.5,.86-5.97,4.16-7.33,2.27-.94,4.73-1.58,6.79-2.86,9.4-5.89,17.09-5.86,22.24,5.51,5.24,11.56,14.45,12.34,25.6,10.07,6.77-1.37,14.5-2.23,20.91-.32,14.34,4.28,23.71-.35,30.39-12.77,3.27-6.08,7.48-10.1,14.14-4.67,5.86,4.78,20.35,1.19,15.97,16.21-3.99,13.67-1.3,24.63,12.45,31.69,3.88,1.99,7.66,5.6,9.75,9.41,8.81,16.08,21.75,20.84,38.75,15.36,4.51-1.45,5.97,.89,7.35,4.15,.96,2.26,1.59,4.72,2.87,6.78,5.85,9.4,5.91,17.11-5.54,22.26-11.58,5.21-12.63,14.49-9.97,25.58,1.85,7.69,1.88,15.76-.04,23.44-2.8,11.2-1.01,19.78,10.01,25.76,3.98,2.16,11.05,4.65,10.14,9.38Zm263.73-183.87c-4.51,.46-9.11,.08-13.67,.08-21.83,0-22.12,0-22.27-21.16-.08-11.58-5.21-16.59-16.63-16.22-9.93,.32-19.89,.07-29.83,.07-27.83,0-28.16,0-28.08,27.97,.02,7.67-1.85,9.69-9.56,9.55-27.34-.51-54.71,.31-82.03-.45-11.07-.31-8.35,6.6-7.96,12.02,.38,5.32-4.51,13.73,7.91,13.32,22.77-.75,45.57-.21,68.36-.21,22.33,0,22.58,0,22.97,21.73,.2,10.95,5.12,15.8,15.94,15.64,14.5-.21,29.01-.15,43.51-.02,10.2,.09,15.02-4.61,15.39-14.92,.8-22.43,.99-22.43,23.53-22.43h1.24c4.14,0,8.38-.55,12.41,.11,10.33,1.68,12.48-2.28,13.02-12.51,.66-12.45-4.75-13.53-14.23-12.56Zm-60.94,13.47c0,3.73-.59,7.57,.11,11.16,2.26,11.67-3.34,13.35-13.51,13.11-8.63-.21-12.8-1.25-11.72-11.28,1.07-9.82,0-19.86,.36-29.79,.12-3.38-2.76-9.46,4.56-8.89,6.69,.52,14.65-3.28,19.69,2.42,2.28,2.58,.48,8.77,.51,13.33,.02,3.31,0,6.63,0,9.94Zm74.64,122.63c.68-7.04,.89-12.17-9.56-11.91-31.06,.79-62.15,.28-93.23,.28q-21.19,0-21.62-20.69c-.27-12.93-3.91-16.5-17.28-16.61-12.43-.1-24.86-.04-37.29-.02-17.16,.03-20.03,2.9-20.07,20.04-.04,16.82-.07,17.63-16.32,17-11.83-.46-8.26,7.17-8.47,12.89-.23,6.11-2.63,14.5,8.81,12.22,13.97-2.78,18.53,3.27,16.01,16.43-.23,1.2-.05,2.48-.03,3.72,.2,13.34,3.7,17.02,16.71,17.18,9.53,.12,19.06,.02,28.59,.02,28.8,0,29.19,0,29.09-28.21-.03-8.12,2.58-9.49,9.83-9.28,17.39,.51,34.8,.16,52.21,.16,17.82,0,35.69-.81,53.44,.27,12.7,.78,8.58-7.42,9.18-13.53Zm-149.08-13.06c-1,8.16-.2,16.54-.2,24.82,0,12.57-10.11,18.78-22.18,13.91-3.28-1.32-2.64-3.7-2.67-5.98-.09-6.63-.03-13.25-.03-19.88,0-3.31,.41-6.69-.08-9.93-1.62-10.75,1.67-15.11,13.55-14.35,8.67,.55,12.82,1.53,11.61,11.41Zm149.25,132.7c-.21-5.37-1.54-7.11-7.02-6.98-14.91,.35-29.83,.12-44.75,.12-22.29,0-22.54,0-22.94-21.75-.2-10.95-5.15-15.85-15.96-15.61-9.94,.21-19.89,.03-29.83,.05-21.8,.05-31.02-5.3-28.85,28.55,.45,7.01-1.7,9.11-8.8,8.93-19.46-.48-38.96,.3-58.42-.34-11.55-.38-7.32,7.62-7.28,12.57,.04,4.91-4.41,13.12,7.2,12.64,15.3-.64,30.66-.16,45.99-.16,20.66,0,20.96,0,21.08,21.11,.07,11.57,5.15,16.65,16.58,16.27,8.69-.29,17.4-.06,26.1-.06,30.14,0,30.31,0,31.92-30.45,.28-5.34,1.5-7.22,7-6.99,9.93,.42,19.88,.12,29.83,.12,7.04,0,14.09,0,21.13,0,17.99,0,17.72,.01,17-18.02Zm-113.27,30.88c-8.95-.42-12.66-1.94-11.48-11.53,.9-7.34,.18-14.89,.18-22.34,0-17.1,0-16.81,17.29-16.47,5.79,.11,8.22,1.37,7.7,7.54-.52,6.17-.11,12.41-.11,18.63,0,3.31-.43,6.7,.08,9.93,1.75,11-2.06,14.79-13.66,14.25Zm-310.45-224.33c-41.19,.13-74.23,33.65-74.07,75.16,.16,41.24,33.65,74.26,75.17,74.1,41.23-.15,74.34-33.73,74.11-75.14-.23-41.25-33.71-74.25-75.2-74.12Zm.62,124.36c-27.12,.1-49.76-22.49-49.8-49.67-.04-27.2,22.44-49.76,49.65-49.81,27.16-.05,49.83,22.54,49.83,49.65,0,27.17-22.5,49.74-49.68,49.83Z"/>
</svg>