<?xml version="1.0" encoding="UTF-8"?>
<svg id="Layer_1" data-name="Layer 1" xmlns="http://www.w3.org/2000/svg" viewBox="0 0 800 800">
  <defs>
    <style>
      .cls-1 {
        fill: #010201;
      }

      .cls-2 {
        fill: none;
      }
    </style>
  </defs>
  <rect class="cls-2" width="800" height="800"/>
  <path class="cls-1" d="M583.52,636.32c-3.56-3-7.78-3.29-11.77-.82-4.02,2.49-5.13,6.31-4.26,10.9,.38,1.99,2.52,4.07-.15,6.36-6.7,0-13.66-.64-20.46,.15-9.72,1.14-12.09-2.5-12.03-11.99,.4-68.18,.22-136.36,.22-204.54,0-27.81,0-27.69,27.76-26.03,5.02,.3,7.04,.98,4.92,6.48-1.9,4.94,.32,8.99,4.8,11.6,4.79,2.8,8.83,.85,12.53-2.37,6.07-5.27,12.12-10.57,18.17-15.86,7.43-6.5,7.03-12.95-.18-19.32-4.59-4.05-9.21-8.07-13.82-12.11-4.9-4.3-9.73-9.73-17.06-5.76-7.51,4.06-4.7,10.98-2.91,17.75-7.97,0-15.27-.64-22.41,.16-9.7,1.09-12.04-2.6-11.99-12,.39-68.56,.21-137.13,.21-205.69q0-25.36,25.45-24.66c4.62,.12,9.72-1.05,6.99,6.94-1.46,4.28,.58,8.07,4.82,10.56,4.4,2.58,8.33,1.32,11.66-1.41,7.11-5.82,14.04-11.87,20.71-18.18,5.36-5.07,5.43-10.89,.05-16.02-6.37-6.07-13.07-11.8-19.75-17.54-3.64-3.12-7.69-5.09-12.52-2.3-4.58,2.65-6.54,6.69-4.76,11.59,2.21,6.08-1.01,6.22-5.47,6.14-8.81-.15-17.63-.05-26.44-.04-20.57,0-20.89,.3-20.89,20.36,0,73.93,0,147.85,0,221.78,0,20.38-.01,19.96-20.52,20.51-8.66,.23-11.66-1.62-11.55-11.09,.54-48.64,.3-97.29,.23-145.93-.03-22.01-11.99-33.99-34-34.06-31.42-.1-62.85-.05-94.27-.02-25.89,.02-36.94,11.07-36.95,36.9-.02,47.88-.26,95.76,.22,143.64,.09,8.85-2.51,11.79-10.9,10.43-2.24-.36-4.64-.38-6.88,0-11.27,1.89-14.71-1.94-14.61-13.98,.65-76.6,.34-153.21,.32-229.82,0-17.61-1.13-18.68-19.11-18.71-9.2-.01-18.4-.12-27.59,.05-4.81,.09-8.53,.19-5.96-6.65,1.62-4.32-.36-8.27-4.34-10.82-4.09-2.62-8.21-1.95-11.68,.96-7.33,6.15-14.61,12.38-21.51,19.01-4.91,4.71-4.95,10.39,0,15.15,6.62,6.37,13.58,12.39,20.61,18.3,3.69,3.1,7.96,4.5,12.63,1.54,4.1-2.61,5.2-6.34,4.38-10.89-.33-1.81-.59-3.64-1.03-6.35,7.84,0,15.15,.63,22.3-.16,9.32-1.02,11.42,2.62,11.38,11.51-.36,66.65-.12,133.3-.27,199.94-.02,9.86,4.3,22.87-1.85,28.78-6.61,6.36-19.66,1.46-29.89,2-.6,.03-1.23-.56-2.33-1.1,2.07-5.76,4.12-12.21-2.41-16.27-7.06-4.38-12.2,.59-17.16,5-5.15,4.58-10.51,8.92-15.5,13.68-5.14,4.9-6.46,10.8-1.02,16.09,7.12,6.93,14.53,13.69,22.51,19.58,6.78,5,17.16-.23,15.22-7.86-2.89-11.37,3.68-9.32,9.83-9.32,3.83,0,7.74,.47,11.48-.09,9.43-1.42,11.41,2.8,11.37,11.56-.32,66.65-.18,133.3-.18,199.95q0,31.69-31.82,30.74c-.55-.02-1.07-.75-1.8-1.29,1.28-5.79,3.61-12.15-3.51-16.04-6.89-3.76-11.54,.85-16.18,4.95-5.17,4.56-10.37,9.09-15.44,13.76-6.24,5.74-6.74,11.71-.19,17.59,6.26,5.63,12.52,11.27,18.96,16.69,3.59,3.02,7.49,5.34,12.46,2.34,4.57-2.75,6.58-6.62,4.84-11.58-2.34-6.69,2.07-5.78,5.88-5.79,8.05-.01,16.09,0,24.14,0,22.51,0,22.79-.27,22.79-22.12,0-73.16,0-146.32,0-219.48,0-21.33,.02-20.75,20.94-21.43,9.6-.31,11.13,3.2,11.07,11.7-.36,48.26-.21,96.52-.16,144.79,.02,22.89,11.66,34.63,34.57,34.71,31.81,.12,63.61,.1,95.42,0,23.71-.07,35.21-11.61,35.23-35.22,.04-45.58,.01-91.16,.01-136.74,0-19.05,.03-18.42,19.42-19.24,10.3-.44,12.7,2.68,12.65,12.75-.44,76.99-.25,153.98-.24,230.97,0,18.06,1.29,19.3,19.82,19.32,11.05,.01,22.1,0,33.88,0-1.3,7.04-3.48,13.85,4.4,17.56,7.9,3.72,11.87-2.72,16.68-6.66,5.03-4.12,9.85-8.51,14.66-12.89,5.52-5.04,5.98-10.79,.67-15.95-6.85-6.66-14.21-12.82-21.53-18.98Zm-120.87-236.21c0,54.72,0,109.45,0,164.17,0,14.63-2.53,17.17-17.37,17.2-30.25,.05-60.49,.07-90.74-.01-13.3-.04-16.19-2.96-16.2-16.05-.02-109.83-.02-219.66,0-329.49,0-13.27,2.63-15.95,16.21-15.99,30.63-.11,61.26-.11,91.89,0,13.56,.05,16.18,2.74,16.19,16.01,.03,54.72,.01,109.45,.01,164.17Zm-283.93-61.5c-.28-18.03-11.54-27.67-29.7-27.76-25.3-.12-50.59-.15-75.89,0-18.44,.12-29,10.85-29.09,29.36-.1,19.92-.02,39.84-.02,59.76,0,20.3-.07,40.61,.02,60.91,.08,18.83,10.22,29.13,28.95,29.23,25.68,.13,51.36,.15,77.04,0,17.46-.1,28.45-9.79,28.7-27.39,.6-41.37,.63-82.75-.01-124.12Zm-29.52,130.96c-25.29-.23-50.59-.27-75.89,.02-7.55,.09-8.81-3.58-8.73-9.96,.25-19.92,.09-39.84,.09-59.76,0-19.16,.24-38.32-.12-57.46-.14-7.54,1.68-11.21,10.18-11.07,24.52,.42,49.06,.32,73.59,.04,7.48-.09,10.37,2.96,10.35,10.17-.09,39.46-.1,78.92,.01,118.38,.02,6.66-2.44,9.71-9.48,9.65Zm607.76-68.21c0-20.3,.07-40.61-.02-60.91-.09-19.09-10.65-29.52-30.01-29.6-24.53-.1-49.06-.07-73.59-.01-20.16,.05-31.02,9.93-31.21,29.84-.38,40.22-.4,80.45,.02,120.67,.2,18.88,10.91,28.7,29.72,28.78,25.3,.1,50.59,.11,75.89,0,18.87-.09,29.09-10.27,29.18-29,.1-19.92,.02-39.84,.02-59.76Zm-31.37,68.3c-24.13-.51-48.29-.4-72.43-.05-7.91,.12-10.95-2.65-10.91-10.61,.22-38.69,.22-77.38,0-116.07-.04-8.15,2.6-11.75,11.32-11.6,24.14,.42,48.29,.41,72.43,0,8.25-.14,10.58,3.05,10.42,10.84-.39,19.53-.13,39.07-.13,58.61,0,19.15-.34,38.32,.16,57.46,.21,8.27-2,11.61-10.87,11.42ZM178.89,78.62c-.39-19.76-10.46-29.52-30.03-29.63-24.9-.15-49.79-.13-74.69,0-20.38,.1-30.11,9.95-30.13,30.29-.05,39.43-.04,78.87,0,118.3,.02,20.23,9.82,30.1,30.21,30.21,24.51,.13,49.03,.11,73.54,0,21.04-.09,30.89-9.77,31.14-30.88,.23-19.52,.05-39.05,.05-58.57,0-19.91,.3-39.82-.09-59.72Zm-20.17,117.85c.04,7.6-2.3,11.03-10.55,10.89-24.47-.4-48.95-.44-73.42,.02-8.39,.16-10.38-3.1-10.21-10.8,.42-19.49,.14-38.99,.14-58.48,0-19.49,.32-39-.15-58.48-.2-8.17,2.79-10.55,10.68-10.42,24.09,.4,48.19,.46,72.27-.02,8.79-.18,11.29,3.38,11.24,11.46-.2,38.61-.19,77.21,0,115.82Zm598.24-57.24c0-20.29,.07-40.58-.02-60.87-.08-18.98-9.92-29.18-28.75-29.34-25.66-.22-51.33-.21-76.99,0-18.25,.14-28.79,9.82-29.02,28.23-.5,40.96-.53,81.93,.02,122.89,.24,17.86,10.71,27.43,28.45,27.61,26.04,.26,52.09,.28,78.14,0,18.21-.2,28.05-10.5,28.14-28.79,.1-19.91,.02-39.82,.02-59.72Zm-20.65-1.07c0,19.5-.29,39,.14,58.48,.17,7.77-1.95,10.9-10.27,10.74-24.47-.46-48.95-.42-73.42-.02-8.31,.14-10.53-3.39-10.49-10.94,.19-38.61,.2-77.22,0-115.82-.04-8.15,2.56-11.59,11.29-11.41,24.08,.48,48.19,.43,72.27,.02,7.95-.13,10.82,2.36,10.63,10.47-.46,19.48-.15,38.99-.15,58.48ZM178.65,600.08c-.29-16.8-10.41-26.18-27.08-26.52-26.8-.54-53.62-.57-80.42,0-17.58,.37-27.01,10.94-27.11,28.65-.11,20.29-.03,40.58-.03,60.87,0,19.91-.05,39.81,.02,59.72,.07,19.16,9.79,29.16,28.67,29.25,25.66,.12,51.32,.11,76.98,0,17.95-.08,28.75-9.13,29.02-26.8,.64-41.72,.65-83.46-.06-125.17Zm-30.61,131.74c-24.53-.28-49.06-.32-73.59,.02-7.5,.11-10.07-2.39-9.91-9.94,.41-19.91,.14-39.84,.14-59.76,0-19.16,.26-38.32-.13-57.47-.15-7.6,1.73-11.18,10.18-11.03,24.52,.41,49.06,.32,73.59,.04,7.46-.09,10.37,2.91,10.36,10.14-.1,39.46-.13,78.92,.03,118.38,.03,7.68-3.57,9.7-10.66,9.62Zm608.92-68.45c0-20.29,.08-40.58-.02-60.87-.09-18.37-9.6-28.68-27.96-29.01-26.04-.47-52.09-.41-78.13-.02-18.04,.27-28.34,9.61-28.6,27.44-.61,41.34-.6,82.69,0,124.03,.25,17.7,10.99,27.01,28.75,27.09,26.04,.12,52.09,.15,78.13-.01,17.62-.11,27.68-10.22,27.81-27.78,.15-20.29,.03-40.58,.03-60.87Zm-20.5-58.29c-.47,19.48-.15,38.98-.15,58.47,0,19.49-.29,38.99,.14,58.47,.17,7.63-2.61,9.92-9.99,9.82-24.46-.33-48.94-.36-73.4,.01-7.99,.12-10.84-2.79-10.8-10.63,.21-38.98,.18-77.96,.02-116.94-.03-7.87,3.15-10.73,11.02-10.62,24.08,.34,48.18,.44,72.26-.04,8.84-.18,11.09,3.23,10.89,11.47ZM400.82,328.33c9.96-.01,19.91,.06,29.87-.04,7.19-.07,12.32,2.71,12.13,10.38-.17,6.88-4.9,9.81-11.65,9.79-20.29-.05-40.59-.06-60.88,.01-7.2,.02-12.21-2.84-12.1-10.46,.1-7.03,4.92-9.74,11.62-9.69,10.34,.07,20.68,.02,31.02,0Zm.06,82.97c9.95,0,19.9,.13,29.85-.04,7.41-.13,12.16,3.25,12.13,10.57-.03,7.01-5.4,9.76-11.78,9.8-20.28,.15-40.57,.17-60.85,0-6.81-.05-12.45-2.8-12.06-10.59,.38-7.58,5.77-9.96,12.86-9.81,9.95,.21,19.9,.05,29.85,.06Zm-.81,83.06c10.34,0,20.68,.16,31.02-.06,7-.15,11.32,3.15,11.68,9.8,.38,6.87-4.12,10.47-10.86,10.51-21.06,.12-42.13,.1-63.19-.01-6.27-.03-10.61-3.57-10.6-9.71,0-6.4,3.69-10.62,10.93-10.55,10.34,.11,20.68,.03,31.02,.02Zm-.35-187.68c-10.33,0-20.66-.07-30.98,.02-6.54,.06-10.36-3.37-10.53-9.51-.18-6.74,3.69-10.35,10.83-10.31,21.04,.11,42.08,.09,63.12,.02,6.51-.02,10.39,3.2,10.56,9.45,.18,6.84-3.81,10.4-10.85,10.35-10.71-.07-21.42-.02-32.13-.02Zm20.78,229.33c4.21,0,8.42-.06,12.63,.03,6.07,.13,9.31,3.94,9.64,9.37,.38,6.09-3.04,10.42-9.4,10.72-8.78,.41-17.62,.44-26.4-.06-5.61-.32-9-3.74-8.94-9.86,.07-6.55,3.43-9.89,9.83-10.17,4.2-.18,8.42-.03,12.63-.03Zm-.32-166.11c4.2-.01,8.41-.1,12.61,0,6.52,.16,10.01,4.01,10.08,10.1,.06,5.62-3.44,9.5-9.18,9.78-8.76,.42-17.58,.53-26.32,.01-6.04-.36-9.7-3.82-9.34-10.61,.34-6.23,3.98-8.81,9.55-9.22,4.18-.3,8.4-.06,12.6-.07Zm.08,83.02c4.59,0,9.2-.29,13.76,.07,6.03,.48,8.77,4.89,8.85,10.18,.08,4.93-2.78,9.07-8.2,9.35-9.13,.48-18.31,.72-27.43,.24-6.03-.32-9.81-3.81-9.17-10.64,.62-6.61,4.55-9.22,10.73-9.29,3.82-.05,7.65,0,11.47,0,0,.03,0,.07,0,.1Zm.58-188c-4.57,0-9.16,.17-13.72-.04-5.91-.27-8.94-3.51-9.03-9.49-.09-5.93,2.77-9.69,8.63-9.93,9.12-.38,18.29-.3,27.42,.02,6.13,.22,8.74,4.66,8.59,10.07-.15,5.48-3.08,9.34-9.3,9.37-4.19,.01-8.39,0-12.58,0Zm-47.84,104.96c8.16-.57,15.15,1.05,15.03,10.15-.12,9.1-7.46,10.19-14.85,10.21-7.34,.02-14.88-.92-15.05-9.97-.19-9.84,7.44-11.1,14.86-10.39Zm-.47,186.41c-8.14,.61-14.75-1.87-14.34-10.69,.47-9.94,8.6-9.62,16.2-9.77,7.57-.15,13.77,2.14,13.61,10.12-.2,9.49-7.7,11.09-15.48,10.34Zm.41-83.01c-7.32-.01-14.87-1.08-14.8-10.18,.07-9.69,7.69-10.44,15.63-10.47,7.87-.03,14.44,1.82,14.22,10.64-.22,9.11-7.81,9.95-15.05,10.01Zm-.67-208.4c-7.74,.9-14.4-.89-14.06-10.13,.34-9.28,7.7-9.65,15-9.72,7.52-.07,14.69,1.07,14.74,10.08,.05,10.18-7.96,10.4-15.68,9.77Z"/>
</svg>