<?xml version="1.0" encoding="UTF-8"?>
<svg id="Layer_1" data-name="Layer 1" xmlns="http://www.w3.org/2000/svg" viewBox="0 0 800 800">
  <defs>
    <style>
      .cls-1 {
        fill: none;
      }

      .cls-2 {
        fill: #010101;
      }
    </style>
  </defs>
  <rect class="cls-1" width="800" height="800"/>
  <path class="cls-2" d="M756.86,698.33c-11.12,1.97-13.98-2.43-13.94-13.63,.42-136.72,.3-273.44,.25-410.16-.01-27.08-14.5-41.43-41.58-41.48-31.03-.06-62.06-.27-93.08,.15-8.61,.11-12.16-1.05-12.99-11.37-7.39-92.89-71.8-165.37-160.65-181.98-115.66-21.62-224.93,65.4-230.45,183.87-.36,7.63-2.47,9.57-9.85,9.48-31.43-.38-62.87-.18-94.31-.16-29.9,.02-43.1,13.24-43.1,43.23-.01,135.49,0,270.99,0,406.48,0,2.86-.22,5.73,.04,8.57,.49,5.36-1.88,6.79-7.08,7.11-17.48,1.09-17.46,1.32-17.46,19.29,0,3.26,0,6.53,0,9.79,.03,31.06,13.45,44.36,44.86,44.37,107.37,.01,214.75,0,322.12,0,11.84,0,23.68,0,35.52,0,96.76,0,193.52,.03,290.28-.02,27.48-.02,42.11-14.85,42.24-42.45,.03-6.94-.62-13.95,.16-20.8,1.03-9.03-2.84-11.74-10.98-10.3ZM491.04,127.15c1.17-3.43,2.44-6.93,4.32-9.99,9.67-15.67,14.93-16.29,27.27-3.42,32.23,33.61,47.98,73.92,48.97,121.39-.89,16.4-3.04,33.71-8.76,50.42-6.21,18.12-30.81,30.66-49.02,24.97-33.54-10.48-42.68-41.95-19.91-68.6,19.08-22.34,21.57-48.42,6.85-74.75-6.99-12.5-14.95-24.65-9.73-40.02Zm-2.75-39.4c-18.79,17.25-27.28,38.05-21.81,63.61,2.27,10.61,8.28,19.39,13.26,28.7,8.96,16.77,8.09,31.3-4.37,45.16-19.37,21.54-25.7,45.79-12.95,72,13.1,26.93,36.37,39.62,66.53,39.12,1.55-.03,3.1,.14,6.41,.3-15.97,21.68-35.51,36.85-57.94,48.7-4.34,2.29-5.44-.19-6.91-3.56-13.55-30.99-36.87-51.55-67.11-66.26-23.97-11.66-37-32.9-39.53-59.46-6.76-71.08-35.36-103.02-105.24-116.46,38.53-71.77,151.74-104.59,229.67-51.85ZM228.68,238.55c.17-25.32,3.62-43.94,9.55-62.35,2.63-8.17,6.95-10.67,14.84-11.07,43.2-2.16,83.89,35.73,85.51,81.68,1.6,45.39,22.64,76.84,63.39,96.05,19.89,9.37,33.95,24.86,43.96,44.3,3.53,6.84,2.92,10.04-5.51,12.25-87.81,22.97-184.16-33.99-205.99-122.18-3.63-14.67-5.97-29.52-5.76-38.67Zm-5.49,78.1c38.11,74.42,99.51,114,183.02,111.62,78.24-2.23,135.29-42.21,170.72-112.04,3.7-7.29,7.36-10.04,15.55-9.81,22.43,.62,44.89,.44,67.33,.08,6.89-.11,9.98,.88,9.96,9.09-.3,108.11-.35,216.22,.04,324.32,.04,10.51-5.41,9.48-12.18,9.47-85.7-.08-171.41-.05-257.11-.05s-172.22-.13-258.33,.2c-8.8,.03-11.69-1.62-11.66-11.17,.38-107.29,.33-214.58,.06-321.88-.02-7.99,2.03-10.25,10.05-10.05,22.02,.56,44.08,.57,66.1,0,8.42-.22,12.45,2.4,16.45,10.2Zm-141.4-39.4c0-17.34,2.28-19.57,19.85-19.58,31.84-.02,63.67-.06,95.51,.08,3.25,.01,8.54-1.91,8.89,3.51,.41,6.51,5.07,12.62,2.65,19.02-1.25,3.31-5.86,1.68-8.95,1.69-27.75,.1-55.52,.45-83.26-.17-8.86-.2-10.54,2.56-10.52,10.88,.28,123.63,.29,247.26-.02,370.88-.02,8.83,2.62,10.58,10.95,10.57,188.57-.24,377.15-.28,565.72,.07,10.27,.02,11.78-3.39,11.76-12.45-.27-122.81-.28-245.62,.03-368.43,.02-8.99-1.89-11.78-11.28-11.54-27.33,.69-54.7-.3-82.03,.52-10.65,.32-10.38-3.19-9.21-11.88,1.45-10.75,5.88-13.26,16.21-13.02,31,.74,62.04,.2,93.06,.3,13.61,.04,17.38,3.77,17.38,17.46,.05,137.5-.1,275,.29,412.5,.03,10.25-4.05,10.81-12.19,10.79-102.04-.22-204.08-.14-306.12-.14-102.04,0-204.08-.15-306.12,.24-9.98,.04-12.88-2.11-12.85-12.47,.37-136.28,.24-272.55,.25-408.83Zm647.36,469.97c-2.03,.15-4.08,.07-6.12,.07-215.39,0-430.78,0-646.17,0-15.77,0-20.93-5.31-19.72-18.99,.38-4.33,1.78-5.7,5.82-5.41,2.84,.21,5.71,.04,8.56,.04,109.73,0,219.47,0,329.2,0s219.47-.07,329.2,.23c4.6,.01,13.18-5.01,13.22,6.43,.03,9.87-3,16.8-14,17.64ZM404.56,463.96c-5.72-6.73-8.18-.98-11.07,2.38-29.76,34.6-59.42,69.28-89.11,103.94-1.33,1.55-2.78,3.07-.71,5.73,13.02,0,26.43,.23,39.84-.11,5.73-.14,7.97,1.48,7.73,7.53-.44,10.99,.31,22.03-.27,33-.38,7.22,2.32,8.78,9.06,8.69,26.5-.36,53.01-.51,79.5,.06,8.58,.18,10.27-3.02,9.85-10.6-.56-10.16,.23-20.39-.27-30.55-.32-6.4,1.68-8.41,8.14-8.18,13.3,.48,26.63,.14,43.21,.14-33.43-39.03-64.75-75.46-95.88-112.05Zm20.04,106.84q0,29.56-29.73,29.56-19.14,0-19.14-19.15v-9.79q0-19.47-22.13-20.59c10.67-12.47,20.25-23.72,29.9-34.91q16.5-19.13,33.04,.12c9.02,10.52,18.01,21.08,26.95,31.67,.41,.49,.21,1.49,.42,3.31q-19.3,.79-19.3,19.77Z"/>
</svg>