<?xml version="1.0" encoding="UTF-8"?>
<svg id="Layer_1" data-name="Layer 1" xmlns="http://www.w3.org/2000/svg" viewBox="0 0 800 800">
  <defs>
    <style>
      .cls-1 {
        fill: none;
      }

      .cls-2 {
        fill: #040505;
      }
    </style>
  </defs>
  <rect class="cls-1" width="800" height="800"/>
  <path class="cls-2" d="M310.46,589.83H80.73q-31.96,0-31.95,15.33,.01,15.1,32.81,15.1c24.1,0,48.2,0,72.3,0,7.77,0,15.55,.36,15.73,10.85,.19,11.22-8.02,11.63-16.2,11.63-32.26,0-64.53,.12-96.79-.04-19.38-.1-29.29-10.19-29.3-29.58-.04-87.03-.02-174.06-.02-261.09,0-1.55-.05-3.11,.03-4.66,.36-6.74,3.51-11.29,10.59-11.39,7.78-.11,10.88,4.61,10.86,12.03-.06,21.76,0,43.52,0,65.27,0,46.62-.04,93.25,.02,139.87,.02,16.91-2.14,15.1,14.63,15.11,164.03,.04,328.07,0,492.1,.09,8.5,0,20.48-2.88,20.78,10.26,.33,14.19-12.14,11.16-20.98,11.17-81.63,.12-163.26,.07-244.89,.07ZM593.7,250.93c-.74,11.89,8.57,11.69,17.05,11.87,12.49,.26,24.67,2.67,36.65,6.04,22.77,6.4,43.06,17.48,60.74,33.18,4.87,4.33,10.1,6.32,15.75,2.46,3.53-2.41,5.97-6.23,4.6-11.06-1.36-4.76-5.13-7.66-8.71-10.64-31.19-25.89-67.03-39.92-107.56-42.03-8.14-.16-17.78-1.58-18.52,10.17Zm-398.05-10.3c-45.21,.84-85.01,15.88-118.8,46.14-5.34,4.78-6.76,10.59-1.3,16.24,4.84,5.02,10.55,4.76,15.59,.35,30.11-26.35,65.06-40.03,105.11-40.75,6.78-.12,10.84-3.62,11.38-10.59-.24-7.82-4.87-11.52-11.97-11.39Zm164.8,170.18c-6.11,3.34-5.94,9.54-6.1,15.32-.88,31.45-10.83,59.85-28.92,85.43-4.48,6.33-7.43,12.79-.18,18.26,7.75,5.84,13.5,1.27,18.31-5.54,20.87-29.57,31.65-62.49,33.15-98.56,.44-12.89-7.14-19.89-16.25-14.91Zm63.85,13.6c1.43,36.82,12.09,70.58,33.8,100.65,4.72,6.54,10.38,10.14,17.57,4.87,6.67-4.9,5.21-11.17,.72-17.27-8.3-11.27-14.81-23.53-19.8-36.62-6.4-16.78-9.59-34.11-10-52.05-.17-7.44-1.96-14.08-10.6-14.38-8.01,.16-12.06,5.17-11.69,14.8Zm349.44-208.69c0,131.72,0,263.43,0,395.15,0,22.52-9.24,31.82-31.77,31.84-68.8,.04-137.61,.01-206.41,.02h-14.35c10.6,19.8,20.3,37.73,29.79,55.77,2.16,4.11,5.63,3.34,9,3.36,10.88,.05,21.78-.25,32.65,.13,12.22,.43,19.38,7.56,19.83,19.84,.4,10.86,.44,21.77-.03,32.63-.5,11.72-7.42,18.3-19.22,19.21-2.71,.21-5.44,.08-8.16,.08-124,0-248,0-372,0-22.75,0-27.46-4.66-27.48-27.06,0-8.16-.15-16.32,.05-24.48,.33-13.08,7.04-19.91,20.25-20.26,11.65-.31,23.32-.11,34.98-.06,3.9,.02,7.4,.28,9.74-4.2,8.41-16.15,17.21-32.09,25.82-48.14,.87-1.62,1.4-3.42,2.76-6.82-20.83,0-40.48,.04-60.13-.03-3.86-.01-7.89,.17-11.55-.82-5.47-1.49-8.1-5.51-7.67-11.46,.39-5.51,3.53-8.69,8.5-9.61,4.15-.77,8.51-.52,12.77-.52,172.2-.02,344.41,0,516.61-.14,4.64,0,11.63,2.96,13.51-3.13,2.47-8.03,2.23-16.99,.02-25.19-1-3.72-6.23-1.92-9.53-1.93-38.48-.11-76.97-.07-115.45-.07-2.72,0-5.44-.01-8.16-.02-7.37-.03-12.2-3.52-12.13-11.03,.07-6.91,4.72-10.25,11.54-10.42,3.11-.08,6.22-.07,9.33-.07,38.09,0,76.19-.22,114.28,.17,8.2,.08,11.4-1.37,11.37-10.65-.34-113.45-.33-226.91-.04-340.36,.03-9.8-3.04-12.64-12.7-12.58-55.58,.39-111.17,.26-166.76,.1-6.83-.02-11.27-.08-11.73,9.28-.53,10.73-8.91,15.85-19.22,16.52-5.97,.39-11.48-.19-12.84,7.88-1.22,7.21-9.24,13.24-.03,21.62,9.66,8.79,8.98,19.3,.08,28.76-9.31,9.9-18.96,19.51-28.84,28.84-10.19,9.62-19.33,9.63-29.74-.02-4.05-3.76-7.55-7.03-12.9-2.98-5.76,4.35-16.41,1.84-16.4,14.49,.01,14.93-7.98,21.54-22.94,21.86-12.43,.27-24.88,.33-37.31-.03-14.05-.41-21.8-7.65-22.09-21.59-.13-6.58-1.94-10.39-8.31-11.53-6.77-1.21-12.37-9.57-20.71-.78-10.25,10.8-19.78,10.07-30.44-.13-9.26-8.86-18.3-17.96-27.18-27.21-9.95-10.37-10.23-20.33-.56-30.75,3.75-4.05,6.88-7.32,2.73-12.81-4.29-5.67-1.6-16.41-14.3-15.97-12.94,.45-19.82-6.06-20.86-18.44-.69-8.13-5.44-6.93-10.37-6.93-34.21-.01-68.41,0-102.62,0-22.16,0-44.32,.35-66.47-.17-8.9-.21-11.43,3.15-11.3,11.57,.38,25.25,.05,50.51,.19,75.76,.04,7.34-1.3,13.74-10.04,14.02-9.2,.3-11.54-5.94-11.51-13.96,.09-26.03,.01-52.06,.04-78.1,.02-21.5,8.84-30.67,30.21-30.72,55.59-.13,111.18-.32,166.76,.19,10.97,.1,16.08-1.39,15.09-14.19-1.12-14.46,6.03-20.99,21.11-21.53,5.85-.21,9.57-1.2,10.62-7.53,1.17-7.1,10.2-12.9,1.06-21.58-10.49-9.98-9.71-20.1,.36-30.56,8.89-9.24,17.95-18.32,27.22-27.18,10.54-10.08,19.86-10.3,30.6-.24,4.21,3.94,7.86,6.2,12.94,2.59,5.88-4.18,16.35-2.04,16.08-14.72-.31-14.36,7.56-20.89,22.1-21.26,12.43-.31,24.88-.27,37.31-.03,15.34,.3,22.44,6.56,23.02,21.69,.26,6.72,2.48,10.07,8.7,11.38,6.75,1.42,12.39,9.14,20.52,.4,9.7-10.44,19.89-9.51,30.47,.63,8.98,8.6,17.78,17.39,26.42,26.33,10.63,11,11,20.4,.71,31.54-3.98,4.31-6.01,7.83-2.18,13.01,4.22,5.71,1.54,16.3,14.3,15.99,14.73-.36,21.86,7.25,20.82,21.72-.87,12.09,3.86,13.66,14.43,13.56,55.19-.51,110.39-.28,165.59-.22,23.88,.03,32.17,8.43,32.17,32.29Zm-238.91-45.8c-15.78,2.74-22.71-5.1-25.14-19.7-.8-4.79-3.32-9.61-6.11-13.7-7.17-10.52-6.53-19.41,4.02-27.08,5.1-3.7,4.2-6.88-.07-11.01-7.26-6.99-13.9-14.63-20.91-22.13-3.05,2.87-5.3,4.51-6.93,6.62-7.18,9.31-14.87,10.38-25.13,4.02-7.46-4.62-16.24-7.37-24.72-10-6.61-2.05-10.99-6.47-10.02-12.41,2.71-16.48-7.03-16.21-18.21-15.22-3.47,.31-7.04,.43-10.48-.03-7.58-1.01-10.58,1.73-9.64,9.53,1.26,10.38-3.04,16.9-13.82,19.25-9.13,1.99-17.61,6.07-25.66,10.83-5.24,3.1-9.86,3.47-14.99-.54-4.32-3.38-6.98-11.35-12.72-9.71-4.93,1.41-8.49,7.58-12.65,11.66-2.22,2.18-4.16,4.73-6.66,6.51-7.03,5.02-6.13,9.47,.19,14.33,8.08,6.23,9.2,13.35,3.5,22.29-4.77,7.48-7.85,15.94-10.09,24.63-1.52,5.87-4.06,10.69-11.21,11.62-5.49,.71-13.02-3.27-16.01,2.44-2.41,4.62-.71,11.39-.8,17.21-.04,2.33,.32,4.72-.06,6.98-1.59,9.45,1.68,13.67,11.7,12.02,8.03-1.32,13.85,2.11,15.9,10.09,2.72,10.6,7,20.49,12.35,29.96,2.8,4.96,2.4,9.38-.88,14.08-3.16,4.54-11.48,6.87-9.41,13.09,1.66,4.98,7.78,8.38,11.63,12.73,4.1,4.64,7.87,9.57,11.78,14.36,3.63-3.41,5.59-4.81,6.99-6.63,7.35-9.61,15.46-11.55,25.98-4.33,7.02,4.82,15.35,7.51,23.69,9.46,6.06,1.41,9.1,4.98,10.61,10.88,1.39,5.43-3.08,13.21,3.01,15.96,5.2,2.34,12.19,.72,18.39,.81,3.11,.05,6.26-.3,9.32,.07,6.25,.77,8.47-1.87,7.7-7.89-1.55-12.1,3.33-19.22,15.84-21.09,4.12-.62,8.43-2.29,11.87-4.62,14.73-9.98,27.93-11.71,38.47,8.34,7.61-8.29,13.45-15.63,20.31-21.83,6-5.41,6.75-9.39,.02-14.46-8.7-6.57-8.99-14.1-3.17-23.29,4.73-7.47,7.66-16.01,9.87-24.71,1.54-6.06,4.94-10.18,11.89-10.94,16.04-1.75,16.02-1.92,16.02-18.14,0-4.66-.16-9.33,.04-13.99,.17-4.09-.68-7.19-5.6-6.34ZM219.6,723.98c-12.28-.06-12.32,5.14-12.59,14.27-.3,9.96,1.56,13.94,13.02,13.81,59.4-.67,118.82-.31,178.23-.31s117.27,0,175.9,0c15.66,0,15.05-.03,15.81-16.2,.44-9.35-2.55-11.45-11.58-11.43-119.6,.3-239.19,.42-358.79-.13Zm250.16-22.59c-41.56-31.5-113.59-24.3-135.85,0h135.85Zm29.17-53.65c-2.49-4.85-6.07-5.06-10.5-5.06-58.61,.06-117.21,.03-175.82,.04-3.42,0-7.3-.8-9.34,3-9.77,18.23-19.42,36.53-29.29,55.14,12.89,2.88,21.55-.41,30.75-8.24,54.6-46.45,136.79-46.45,191.56,0,9.19,7.8,17.85,11.16,30.87,8.22-9.82-18.36-19.27-35.6-28.24-53.08Zm-175.61-208.23c-.04,9.89-4.51,15.27-14.97,14.66-5.09-.3-9.34-.49-11.58,6.41-1.95,5.98-2.33,9.73,2.75,14.04,8.22,6.99,7.63,14.24-.25,21.64-8.77,8.24-16.99,17.05-25.54,25.52-9.57,9.49-13.05,9.47-23.34,.27-1.92-1.72-3.13-4.61-6.61-4.19-5.85,2.77-14.09,2.88-12.97,13.16,1.27,11.65-4.84,15.95-16.08,15.51-12.41-.49-24.86-.32-37.29-.05-10.31,.22-15.41-4.62-14.73-14.72,.43-6.34-1.55-9.66-7.64-12.25-6.15-2.61-9.27-.12-12.88,3.84-6.89,7.56-13.7,7.39-20.84-.09-8.85-9.26-17.96-18.28-27.21-27.14-7.17-6.87-8.66-13.5-.61-20.67,4.2-3.74,7.15-7.09,3.91-13.85-2.88-5.99-6.09-7.93-12.3-7.36-9.75,.89-14.25-3.74-13.99-13.73,.35-13.58,.28-27.18,.02-40.77-.18-9.31,3.94-13.99,13.25-13.3,6.44,.48,10.19-1.12,13.15-7.8,3.15-7.11-.68-10-4.58-13.68-7.3-6.88-6.2-13.35,.55-19.92,9.45-9.21,18.81-18.53,28.06-27.94,6.78-6.9,13.43-7.12,20.03-.04,3.88,4.16,7.09,6.63,13.75,3.84,6.59-2.76,7.5-6.58,7.19-12.45-.51-9.6,4.25-14.44,13.91-14.43,13.6,.02,27.19,0,40.79,.02,9.05,.01,13.9,4.36,13.36,13.6-.37,6.38,.91,10.4,7.85,13.34,6.91,2.92,9.91-.44,13.63-4.28,6.9-7.12,13.42-6.24,20.05,.51,9.24,9.43,18.59,18.75,28.02,27.99,6.95,6.81,7.05,13.69-.16,19.96-5.15,4.49-5.53,8.37-3.2,14.94,2.48,7.02,6.91,6.3,11.76,6.07,10.62-.51,14.72,5.14,14.75,14.9,.04,12.81,.05,25.63,0,38.44Zm-29.18-31.66c-5.65-.02-12.14-.48-12.86-7.23-1.55-14.61-22.44-27.43-4.35-43.91,.23-.21,.19-.71,.28-1.07l2.38-2.31c-5.32-4.39-10.38-9.15-16.03-13.04-4.2-2.89-5.66,2.39-8.06,4.19-8.31,6.22-44.32-6.82-46.36-17-.15-.75-.25-1.58-.11-2.32,1.72-9.37-4.53-9.11-10.59-8.53-6.02,.58-14.49-3.8-14.36,8.78,.1,9.76-35.13,26.17-43.61,21.12-.98-.58-1.93-1.4-2.59-2.32-4.41-6.09-8.81-5.5-12.44,.45-3.06,5.02-15,6.95-5.04,16.9,7.69,7.67-5.5,43.7-16.1,46.22-1.12,.27-2.32,.42-3.47,.33-14.16-1.07-6.78,9.65-8.08,15.27-1.37,5.92-.22,9.86,8.04,9.7,10.63-.21,29.09,35.54,21.74,43-10.99,11.16-1.22,15.23,4.46,21.58,3.09,3.46,5.81,5.05,9.21,.63,6.06-7.86,12.89-6.79,20.5-2.23,4.29,2.57,9,4.91,13.83,6,9.09,2.04,13.9,6.11,14.62,16.32,.77,10.9,10.28,4.09,15.72,5.41,4.01,.98,8.94,1.01,8.26-5.91-.9-9.07,3.99-13.13,12.34-15.34,6.29-1.67,12.36-4.66,18.1-7.82,6.37-3.51,12.04-3.58,16.68,2.11,4.46,5.47,8.48,4.93,11.49-.56,2.82-5.12,15.98-7,5.67-16.76-5.3-5.01-4.6-10.87-1.65-17.06,2.82-5.91,5.44-11.98,7.42-18.21,2.37-7.45,6.11-12.54,14.75-11.73,9.77,.91,7.14-6.61,6.51-10.98-.7-4.81,5.31-13.63-6.27-13.66Zm435.47,33c.26,9.44-3.91,13.91-13.12,13.39-6.36-.36-10.35,.91-13.27,7.75-2.96,6.94,.36,10.07,4.38,13.78,6.77,6.26,6.77,12.53,.29,18.99-9.9,9.86-19.73,19.8-29.66,29.64-6.54,6.48-13.1,6.06-19.16-.59-3.89-4.27-7.23-6.88-13.87-4.1-6.6,2.76-6.94,6.97-6.96,12.7-.03,9.3-4.63,14.25-14.47,14.05-13.2-.26-26.42-.29-39.62,.01-9.78,.22-14.79-4.18-14.29-13.84,.34-6.63-1.59-10.41-8.13-13.34-7.08-3.17-9.9,1.25-13.6,4.89-5.57,5.47-11.54,6.68-17.41,1.03-10.9-10.5-21.45-21.36-32.19-32.02-2.43-2.42-2.9-5.37-2.83-8.98-.35-3.98,2.25-6.95,5.28-9.42,4.95-4.02,5.22-7.89,3-14.1-2.39-6.67-6.36-6.83-11.55-6.55-11.18,.61-15.2-5.28-14.99-15.72,.25-12.42,.17-24.85,.03-37.27-.11-9.97,4.04-15.37,14.58-14.98,4.86,.18,9.37,1.01,11.86-6.01,2.32-6.54,1.99-10.49-3.19-15.04-7.16-6.29-6.97-13.2-.06-19.98,9.42-9.25,18.76-18.58,28-28.01,6.66-6.8,13.23-7.43,20.06-.38,3.73,3.84,6.65,7.22,13.58,4.24,6.97-2.99,8.11-7.1,7.8-13.44-.44-9.2,4.37-13.55,13.45-13.54,13.6,.02,27.19,0,40.79,0,9.69-.01,14.34,5.05,14,14.49-.21,5.85,.5,9.71,7.17,12.41,6.71,2.73,9.86,.08,13.75-4.02,6.71-7.08,13.38-6.47,20.07,.35,9.24,9.42,18.61,18.73,28.04,27.97,6.78,6.64,7.62,13.13,.25,19.88-4.06,3.72-7.29,6.82-4.32,13.8,2.98,7.01,7.21,7.85,13.42,7.55,9.42-.46,13.12,4.42,12.88,13.65-.35,13.58-.37,27.18,0,40.76Zm-21.78-30.37c-1.26-5.07-7.42-1.49-11.28-2.56-8.05-2.23-24.18-37.69-18.33-43.24,12.09-11.45,.52-15.74-4.96-22.32-3.02-3.63-5.64-3.41-8.42,.03-6.13,7.56-12.82,6.94-20.52,2.16-4.55-2.82-9.75-5.06-14.96-6.28-8.82-2.07-13.03-6.52-13.51-15.98-.53-10.46-9.39-4.56-14.43-5.48-3.83-.7-10.18-2.45-9.51,5.7,.74,9.02-3.87,13.25-12.3,15.37-5.94,1.5-11.79,4.12-17.09,7.24-7.08,4.16-12.97,4.16-18.74-2.02-1.82-1.96-3.69-5.98-7.33-2.35-4.39,4.36-9.47,8.43-12.46,13.65-2.25,3.93,4.26,5.7,5.64,9.17,.83,2.1,1.38,4.31,2.14,6.78-3.67,9.27-7.59,18.46-10.93,27.85-2.22,6.25-5.87,10.24-12.7,9.55-10.88-1.1-8.23,6.68-8.04,12.23,.18,5.28-3.52,12.72,7.66,12.79,10.97,.07,27.45,33.96,22.02,43.74-.74,1.33-1.81,2.57-2.97,3.56-8.95,7.68,1.09,10.33,4.21,14.08,3.09,3.72,5.93,10.55,13.24,3.11,7.99-8.13,44.37,4.31,47.31,15.46,.1,.37,.23,.79,.16,1.15-1.85,9.58,3.38,10.82,11.23,10.24,6.83-.5,13.73,1.81,13.42-9.89-.23-8.87,37.22-26.16,43.06-19.84,11.38,12.31,15.7,1.08,22.19-4.57,3.21-2.8,4.16-5.4,.35-8.45-8.07-6.46-6.87-13.51-1.96-21.45,2.81-4.53,4.82-9.78,6.12-14.97,2.08-8.35,6.31-12.95,15.42-12.28,2.32,.17,6.28,1.51,6.57-2.52,.47-6.56,1.21-13.46-.34-19.68ZM334.09,186.23c2.79-32.71,24.67-57.24,55.88-62.65,29.33-5.08,57.86,10.88,71.4,40.24,3.43,7.45,7.79,13.49,16.7,9.43,9.12-4.16,6.67-11.72,3.58-18.92-19.01-44.17-69.86-64.98-114.74-46.93-43.72,17.59-65.94,68.17-49.48,112.62,12.4,33.48,45.97,57.28,81.46,57.75,36.07,.48,69.91-21.87,83.24-54.97,4.12-10.23,1.07-18.01-7.47-18.83-8.61-.83-10.74,5.74-13.6,11.79-12.12,25.56-32.54,38.52-54.69,39.5-43.79-.09-75.34-32.96-72.27-69.01Zm-71.37,233.55c.26,36.08-29.4,65.95-65.66,66.13-36.23,.18-66.08-29.57-65.97-65.74,.11-35.87,29.13-65.07,65-65.43,36.37-.37,66.37,28.91,66.63,65.04Zm-22.78,1.01c.17-24.6-18.41-43.84-42.64-44.15-23.92-.31-43.81,19.23-43.95,43.16-.14,24.2,19.04,43.93,42.96,44.22,24.08,.28,43.46-18.92,43.63-43.22Zm429.45-.88c.21,36.55-28.94,65.96-65.4,65.99-35.79,.03-65.49-29.18-65.77-64.69-.29-36.53,28.67-66.12,65.06-66.45,36.6-.34,65.9,28.53,66.12,65.15Zm-21.78,.22c-.07-23.88-19.88-43.56-43.78-43.49-24.03,.07-43.41,19.69-43.29,43.83,.12,24.12,19.71,43.68,43.63,43.54,23.81-.14,43.52-20.03,43.45-43.88Z"/>
</svg>