<?xml version="1.0" encoding="UTF-8"?>
<svg id="Layer_1" data-name="Layer 1" xmlns="http://www.w3.org/2000/svg" viewBox="0 0 800 800">
  <defs>
    <style>
      .cls-1 {
        fill: #020202;
      }

      .cls-2 {
        fill: none;
      }
    </style>
  </defs>
  <rect class="cls-2" width="800" height="800"/>
  <path class="cls-1" d="M355.9,716.51c-6.4,0-12.91-.76-19.17,.17-11.45,1.7-13.82-3.21-13.44-13.7,.3-7.99,1.57-11.54,10.4-10.71,8.72,.82,17.73-.86,26.34,.44,11.64,1.76,14.92-3.62,16.18-13.74,1.87-15.04,4.93-29.93,7.02-44.95,1.34-9.61,6.2-14.11,15.96-13.78,8.39,.28,16.81,.41,25.19-.02,13.14-.69,6.25,9.08,7.38,14.23,1.23,5.61,1.08,10.37-7.93,10.19-18.42-.37-18.3,.3-20.91,18.9-1.83,13.03-4.3,25.97-6.11,39.01-1.4,10.1-6.61,14.68-16.93,14.07-7.97-.47-15.99-.09-23.99-.09Zm391.82-71.9c9.49,.45,9.79-4.37,8.74-10.71-.89-5.36,4.88-14.02-8-13.83-38.83,.59-77.67,.52-116.5,.03-11.95-.15-7.11,7.88-7.6,13.06-.52,5.56-2.32,11.89,8.08,11.42,19.18-.86,38.42-.25,57.64-.25,19.22,0,38.47-.63,57.64,.27Zm-159.07-24.67c-9.16,.09-13.42,1.09-12.96,11.99,.39,9.32,1.54,13.44,12.2,12.77,8.76-.55,15.45-.43,11.96-12.4,3.12-9.88-1.19-12.46-11.19-12.37Zm-288.56,85.24c-.49-8.63-.35-14.01-11.71-13.1-8.49,.68-14.24,.23-13.17,11.72,.78,8.34-.3,15.88,11.67,12.43,9.2,1.98,13.82-.08,13.2-11.06Zm253.04-161.84c-9.77,1.91-19.66,3.8-29.56,4.33-6.76,.37-8.04,3.05-7.51,8.8,.37,3.97,.06,8.01,.07,12.02,.04,8.41-2.8,18.55,.9,24.79,4.28,7.21,15.29,1.89,23.3,2.93,7.49,.98,11.79,4.82,11.8,12.46,.04,37.67,.78,75.36-.39,113-.76,24.37-23.01,43.07-47.74,42.93-25.53-.14-47.09-19.76-47.79-45.83-.96-36.04-.33-72.13-.29-108.19,.01-10.74,6.12-14.42,16.27-14.46,19.77-.07,19.93-.33,19.7-19.87-.11-9.12,3.94-21.24-1.72-26.52-5.41-5.03-17.41-2.6-26.36-4.26-63.28-11.75-116.11-41.57-156.39-92.2-5.37-6.75-9.15-8.36-16.18-3.33-5.82,4.16-12.23,7.57-18.57,10.95-12.1,6.45-20.6,1.68-21.11-11.9-.31-8.4-.45-16.85,.06-25.24,.38-6.22-1.45-8-7.89-8.13-28.31-.6-28.31-.85-28.31-29.82,0-22.04,0-44.08,0-66.12,0-26.45-.08-52.9,.03-79.35,.06-13.24,4.05-18.36,17.21-16.61,21.69,2.89,30.91-4.89,39.8-25.92,36.38-86.1,103.17-137.36,195-151.87,133.25-21.05,259.48,69.61,284.3,201.16,26.17,138.68-61.48,269.45-198.66,296.25Zm-219.31-145.53c7.12-4.25,14.21-6.28,22.55-6.18,30.01,.35,60.03-.18,90.03,.35,8.16,.15,9.72-2.48,9.66-10.02-.35-41.63-.39-83.27,.02-124.9,.08-7.91-2.11-9.84-9.88-9.8-65.63,.32-131.25,.32-196.88,0-7.88-.04-9.99,2.08-9.9,9.94,.41,37.63,.19,75.26,.19,112.89,0,21.13,0,21.43,20.59,21.57,11.3,.07,16.02,5.12,15.53,16.15-.32,7.07-.06,14.17-.06,23.36,20.85-11.9,39.67-22.33,58.14-33.34Zm146.23-.12c-.01,15.2-2.95,18.1-18.21,18.12-29.61,.04-59.22,.01-90.58,.01,47.44,59.5,142.58,77.03,214.4,40.78,76.57-38.65,115.18-126.69,92.05-209.92-22.56-81.18-100.64-136.83-184.24-131.3-67.3,4.45-145.28,59.7-151.97,107.99,40.1,0,80.16-.02,120.21,.01,15.35,.01,18.32,2.89,18.33,17.99,.04,52.1,.04,104.21,0,156.31Zm6.91,222.52c-4.95-.11-7.05,1.16-7,6.63,.24,29.57-.16,59.15,.25,88.72,.21,14.8,11.57,25.51,25.01,24.95,13.25-.55,22.53-10.84,22.77-25.75,.22-13.98,.05-27.97,.05-41.96,0-15.19-.14-30.37,.09-45.56,.07-4.8-.75-7.27-6.41-7.07-11.57,.4-23.17,.29-34.75,.04Zm238.08-382.12c-25.85-92.47-87.6-150.22-181.67-167.18-85.62-15.43-158.35,13.56-215.24,79.9-18.03,21.02-31.25,45.01-39.59,71.86q23.05,1.84,32.13-16.6c41.71-84.75,133.41-129.48,225.94-110.23,130.62,27.18,200.23,170.96,140.73,290.64-42.07,84.62-134.51,128.96-226.34,108.86-45.37-9.93-83.07-32.54-112.84-67.98-9.85-11.72-15.67-.13-21.72,3.26-8.05,4.5,.62,8.6,3.13,11.43,59.16,66.79,132.82,93.59,220.67,76.94,127.07-24.08,209.66-156.25,174.81-280.91ZM226.73,738.99c-29.58,22.66-63.83,27.96-99.89,24.74-19.24-1.72-37.68-6.79-54.41-16.73-20.94-12.43-37.24-28.82-37.04-54.95,.2-26.08,16.8-42,37.62-54.65,5.28-3.21,14.47-3.1,15.29-9.9,1.08-8.93-1.12-18.29-2.11-27.44-.62-5.73-5.28-3.62-8.43-3.76-15.84-.71-18.59-3.42-18.6-19.33-.03-43.29-.03-86.58,0-129.86,.01-16.36,3.01-19.23,19.81-19.25,16.42-.02,32.85,0,52.46,0-36.01-14.29-52.83-40.39-47.19-69.87,5.79-30.2,29.82-50.5,59.69-50.4,28.74,.09,53.06,20.26,58.71,48.68,6.1,30.71-10.53,57.12-46.5,71.59,19.78,0,37.67,.23,55.56-.09,11.08-.2,16.04,4.43,15.99,15.72-.22,45.69-.22,91.39,0,137.08,.05,11.26-4.94,16.91-15.94,15.5-9.31-1.2-12.02,2.87-11.98,11.1,.02,3.58-.46,7.21-1.15,10.73-1.74,8.81,1.75,13.15,10.06,17.03,21.03,9.83,37.99,24.49,42.22,48.77,4.05,23.27-6.15,41.5-24.15,55.3Zm-83.99-335.26c19.42,.65,36.09-15.24,36.58-34.88,.5-19.87-14.75-36.36-34.35-37.16-19.65-.8-37.13,15.73-37.53,35.5-.39,19.1,15.83,35.89,35.3,36.54Zm-49.63,168.66c12.6-.38,15.73,3.61,16.71,16.22,2.46,31.91,5.29,63.78,7.85,95.68,.44,5.44,1.57,8.71,8.39,8.34,11.98-.64,24.01-.37,36.02-.09,5.08,.12,6.93-1.65,7.31-6.77,2.35-31.52,5.18-63,7.49-94.52,1.18-16.08,3.02-18.81,19.18-18.84,7.15-.01,7.51-3.08,7.44-8.53-.21-17.22-.08-34.44-.08-51.66,0-16.82-.36-33.65,.16-50.46,.23-7.48-1.36-10.21-9.61-10.08-33.62,.52-67.25,.46-100.88,.03-7.8-.1-10.08,1.92-9.97,9.89,.46,33.63,.46,67.28,0,100.92-.11,7.99,2.18,10.1,9.99,9.86Zm113.17,88.73c-2.63-1.72-5.5-3.07-9.55-5.3-4.52,16.07-2.55,31.49-4.71,46.52-1.52,10.6-6.4,14.4-16.54,14.26-21.2-.3-42.42-.38-63.62,.02-11.73,.22-16.65-5.06-17.03-16.44-.4-11.99-1.9-23.94-2.4-35.92-.34-8.27-3.62-7.95-9.51-4.6-30.18,17.17-31.94,46.42-2,63.84,41.06,23.89,83.98,24.03,125.11,.18,29.29-16.98,28.57-43.99,.24-62.57Zm429.88-378.39c-6.19-63.11-57.56-114.11-120.96-119.06-3.84-.3-12.37-4.48-10.9,5.24,1.01,6.67-7.6,17.42,9.01,19.01,53.35,5.13,93.11,44.57,98.14,96.49,.89,9.22,2.91,13.4,12.5,10.82,11.25,2.91,13.2-2.3,12.2-12.51Zm-11.45,36.51c-9.14,.19-13.42,1.11-12.96,12.01,.39,9.32,1.54,13.44,12.2,12.77,8.76-.55,15.45-.43,12.11-11.9,2.55-9.98-1.12-13.09-11.34-12.88Zm-200.94-23.45c8.96,.42,9.29-4.4,8-10.11-1.16-5.15,5.78-14.47-7.37-14.32-34.83,.39-69.67,.54-104.48-.08-12.64-.22-7.41,8.22-8.22,13.74-.94,6.45-.58,11.26,8.81,10.77,16.77-.87,33.62-.24,50.43-.24,17.62,0,35.26-.58,52.83,.24Zm-.66,72.19c9.5,.52,9.78-4.36,8.74-10.7-.88-5.37,4.87-14.05-8-13.82-34.82,.61-69.66,.55-104.48,.02-11.95-.18-7.11,7.88-7.6,13.06-.52,5.56-2.33,11.96,8.08,11.42,17.17-.89,34.42-.24,51.63-.24s34.47-.67,51.63,.26Zm-147.12-96.85c-9.29,.1-13.26,1.34-12.9,12.09,.32,9.47,1.76,13.27,12.27,12.7,8.9-.48,15.32-.67,12.03-11.99,2.67-10.14-1.36-12.91-11.41-12.8Zm-.06,72.17c-9.41,.03-13.13,1.52-12.84,12.14,.26,9.59,1.94,13.16,12.34,12.65,8.99-.44,15.22-.85,11.98-12.11,2.74-10.23-1.57-12.71-11.48-12.68Z"/>
</svg>