<?xml version="1.0" encoding="UTF-8"?>
<svg id="Layer_1" data-name="Layer 1" xmlns="http://www.w3.org/2000/svg" viewBox="0 0 800 800">
  <defs>
    <style>
      .cls-1 {
        fill: none;
      }

      .cls-2 {
        fill: #010101;
      }
    </style>
  </defs>
  <rect class="cls-1" width="800" height="800"/>
  <path class="cls-2" d="M765.92,650.57c-11.36-31.31-22.99-62.51-34.55-93.75-2.97-8.02-7.4-16.47-15.97-17.51-11.08-1.35-13.71-8.25-16.43-16.59-2.28-6.99-4.76-13.94-7.64-20.69-1.81-4.25-2.29-7.25,2.85-9.29,9.59-3.82,10.01-10.65,6.19-19.11-2.48-5.51-3.68-11.64-6.49-16.94-3.94-7.43-1.92-11.78,4.04-17.49,39.54-37.83,57.49-83.79,49.52-138.63-11.65-80.14-78.76-137.28-159.5-135.44-9.36,.21-12.73-1.97-11.19-11.1,2.87-17.06-4.3-29.18-16.68-40.89-29.7-28.09-58.32-57.34-86.86-86.62-7.31-7.5-14.91-10.25-25.25-10.22-114.46,.31-228.93,.19-343.39,.19-24.46,0-24.77,.31-24.77,24.69q0,28.42-28.37,28.52c-18.31,.06-19.66,1.45-19.66,20.36,0,100.05,0,200.09,0,300.14,0,101.35-.01,202.7,.01,304.06,0,15.4,2.07,17.53,17.14,17.56,33.08,.07,66.16,.15,99.23-.07,7.96-.05,12.01,.97,6.98,9.99-2.92,5.23-3.86,11.54-6.56,16.92-2.66,5.29-1.25,9.32,2.39,12.88,3.52,3.45,7.73,3.16,12.11,1.2,9.52-4.26,19.47-7.71,28.6-12.65,8.45-4.57,12.12-2.03,15.34,6.12,3.65,9.24,8.45,18.04,12.88,26.96,2.71,5.44,5.3,11.83,12.75,11.18,7.36-.64,9.11-6.98,10.63-13.07,4.18-16.78,8.88-33.44,12.49-50.33,1.47-6.9,4.14-9.43,11.19-9.24,16.09,.43,32.21,.48,48.3-.01,7.62-.23,10.49,2.54,12.05,9.94,3.66,17.33,8.52,34.4,12.7,51.62,1.33,5.5,3.78,10.19,9.59,11.05,6.04,.89,9.41-3.43,11.82-8.42,5.1-10.54,10.49-20.95,15.2-31.66,2.84-6.46,6.18-8.21,12.84-4.94,10.13,4.98,20.66,9.12,30.99,13.71,4.48,1.99,8.66,1.65,11.94-1.97,3.05-3.37,4.2-7.17,1.99-11.89-2.93-6.25-4.92-12.94-7.72-19.26-2.81-6.35-1.07-8.24,5.77-8.16,23.93,.29,47.87,.11,71.81,.11q23.95,0,23.95-23.66,0-29.03,28.97-29.13c17.19-.06,19.58-2.35,19.6-19.47,.05-47.85,.01-95.7,.02-143.55,0-16.62,0-16.36,16.07-15.53,5.19,.27,7.64,1.89,9.19,6.9,2.42,7.84,5.92,15.34,8.68,23.08,2.42,6.81,7.03,10.7,13.87,7.78,7.59-3.24,8.92,1.1,10.68,6.39,1.77,5.34,3.49,10.73,5.86,15.81,4.51,9.66,7.98,18.74-.92,28.24-4.04,4.32-3.85,10.87-1.89,16.21,12.52,34.12,25.04,68.25,38.35,102.07,4.96,12.62,17.26,17.71,30.15,13.48,15.27-5.01,30.45-10.46,45.26-16.68,14.22-5.97,19.2-18.54,13.88-33.2ZM469.12,56.44c22.65,22.53,45.1,44.85,68.14,67.77-20.38,0-40.67-.07-60.95,.05-4.77,.03-7.27-1.45-7.24-6.63,.11-20.67,.04-41.33,.04-61.2ZM145.1,690.69c-25.67,0-51.36-.69-76.99,.3-12.15,.47-15.93-2.12-15.84-15.21,.66-95.21,.35-190.43,.35-285.65s.22-191.3-.3-286.95c-.06-11.26,3.2-13.46,13.68-13.3,10.11,.15,14.11,1.61,14.08,13.25-.42,177.39-.29,354.78-.29,532.16,0,23.01,.7,23.73,23.08,23.74,22.19,0,44.37,.19,66.56-.1,7.67-.1,11.32,.28,7.47,9.79-8.82,21.76-8.32,21.97-31.8,21.97Zm102.48-20.78c-6.24,23.51-12.03,47.14-18.77,73.78-4.11-8.35-7.24-13.9-9.65-19.74-4.48-10.89-11.05-14.89-22.28-8.61-5.55,3.1-11.71,5.12-20.3,8.79,8.89-22,16.91-41.76,24.85-61.56,.85-2.12,1.72-4.65,4.3-3,11.22,7.14,23.73,2.6,35.53,4.27,3.66,.52,8.17-.88,6.32,6.08Zm66.8,20.84c-15.14,.29-30.29,.06-45.43,.14-4.11,.02-5.54-1.96-4.54-5.68,1-3.72,2.33-7.35,4.12-12.91,14.19,11.42,27.38,13.83,42.16,3.34,7.09-5.02,4.92,4.16,6.55,6.98,1.94,3.34,4.03,7.99-2.86,8.12Zm-13.67-33.39c-6.01,4.02-11.5,4.72-17.73,.39-16.6-11.53-34.97-17.13-55.29-15.12-6.57,.65-10.62-2.11-13.2-7.92-8.09-18.23-21.53-31.18-39.61-39.34-5.4-2.44-8.15-5.99-7.38-12.13,2.53-20.33-3.24-38.57-14.55-55.23-4.19-6.17-4.11-11.67,0-17.92,10.74-16.33,17.41-33.94,14.51-53.95-1.05-7.28,2.38-11.44,8.52-14.14,17.88-7.88,30.44-21.06,38.57-38.64,2.58-5.59,6.13-9.17,12.98-8.43,20.74,2.25,39.43-3.48,56.59-14.94,2.14-1.43,4.56-2.47,7.11-3.83,3.56,1.75,7.28,3.09,10.45,5.24,15.68,10.6,32.82,15.5,51.71,13.49,7.49-.8,12.29,2,15.35,8.91,7.68,17.35,20.17,30.07,37.59,37.8,6.65,2.95,10.34,7.35,9.2,15.15-2.85,19.53,3.68,36.78,14.09,52.71,4.39,6.71,4.64,12.3,.16,19-10.87,16.28-17.02,33.99-14.3,53.94,.89,6.55-1.89,10.62-7.84,13.28-18.15,8.13-31.42,21.26-39.35,39.55-2.66,6.14-7.21,8.04-13.5,7.4-19.91-2.04-37.74,3.83-54.09,14.76Zm84.44,57.7c-9.92-5.38-16.29-2.69-20.65,7.25-2.74,6.24-5.91,12.28-10.39,21.5-6.86-26.91-12.94-50.69-18.97-74.48-1.4-5.53,2.55-5.07,6.07-5.49,11.85-1.43,24.09,2.1,35.68-3.74,5.15-2.6,4.91,3.74,5.94,6.19,7.68,18.24,14.93,36.67,23.39,57.72-8.63-3.61-15.14-5.74-21.06-8.95Zm99.41-24.34c-19.09,0-38.21-.48-57.28,.21-9.13,.33-14.63-1.87-16.96-11.32-1.61-6.51-4.78-12.64-7.92-20.62,33.76,0,66.15,.08,98.54-.08,5.44-.03,6.05,2.63,6.41,7.18,1.96,24.64,2.09,24.63-22.79,24.63Zm71.92-64.86c.13,10.13-3.06,12.23-12.54,12.14-46.55-.47-93.11-.16-139.66-.32-3.53-.01-8.91,2.34-10.26-2.51-1.21-4.35,2.56-8.2,6.15-10.59,7.97-5.27,16.04-10.48,24.5-14.89,8.38-4.37,12.6-10.87,11.53-19.96-2.61-22.26,4.04-41.87,16.18-60.02,4.97-7.43,4.59-14.49-.18-21.7-12.07-18.22-18.53-37.87-16-60.06,1.05-9.22-3.36-15.88-11.87-19.66-19.47-8.63-33.47-22.75-42.2-42.1-3.63-8.03-9.4-12.05-18.46-11.24-22.53,2.01-42.9-4.29-61.46-16.74-7.48-5.02-14.41-4.79-21.73,.21-18.55,12.68-39.09,18.24-61.52,16.54-8.39-.64-14.13,2.7-17.65,10.36-9.01,19.61-22.95,34.38-42.91,43.15-8.68,3.81-12.54,10.78-11.45,19.86,2.68,22.29-4.33,41.84-16.27,60.03-4.9,7.46-4.75,14.3,.13,21.65,12.08,18.18,18.76,37.83,16.13,60.08-1.09,9.24,3.5,15.47,11.73,19.83,8.43,4.46,16.57,9.56,24.46,14.94,3.45,2.35,7.27,5.98,5.3,10.77-1.63,3.96-6.17,2.05-9.38,2.07-22.19,.15-44.39-.41-66.56,.31-9.79,.32-12.44-2.52-12.4-12.36,.38-96.1,.23-192.2,.23-288.3,0-95.67,.15-191.33-.23-287-.04-10.2,2.49-13.16,12.97-13.12,107.9,.4,215.8,.4,323.7,0,10.6-.04,13.04,3.16,12.77,13.18-.68,26.07,.26,52.19-.44,78.26-.34,12.8,4.97,16.82,17.01,16.6,26.1-.47,52.21-.29,78.31,0,4.35,.05,12.01-3.27,11.6,5.61-.36,7.62,4.69,17.01-8.66,20.94-50.98,14.98-85.64,48.25-104.1,97.84-30.94,83.08,16.02,177.49,100.92,203.26,8.61,2.61,12.53,5.92,12.38,15.98-.68,45.65-.62,91.32-.04,136.97Zm34.47-166.13c-73.36,.58-137.4-61.22-136.44-138.38,.93-75.12,62.23-136.08,137.93-135.8,75.88,.28,136.74,62.09,136.46,138.6-.27,75.11-61.99,135.76-137.95,135.57Zm43.69,33.41c-8,3.33-9.05-1.41-11.48-7.12-3.16-7.42,.09-8.56,6.24-10.03,11.84-2.82,23.21-7.21,34.15-12.64,8.01-3.98,14.93,.75,14.75,9.72,.58,4.85-3.5,4.71-5.93,5.67-12.53,4.93-25.31,9.23-37.72,14.4Zm31.29,10.02c4.62-.41,4.99,2.66,6.02,5.59,2.85,8.11,5.75,16.23,9.2,24.1,3.17,7.23,3.69,11.29-5.78,14.86-10.27,3.87-10.47-2.12-12.55-8.23-2.35-6.91-5.18-13.66-7.68-20.52-3.5-9.57,1.13-16.02,10.8-15.81Zm73.98,163.43c-11.8,4.4-23.67,8.62-35.39,13.23-5.66,2.22-8.84,.88-10.96-4.89-11.2-30.42-22.57-60.77-33.93-91.13-1.13-3.02-2.19-6.92,.92-8.22,14.77-6.22,29.81-11.8,42.53-16.74,7.28-.8,8.14,3.21,9.27,6.24,11.24,29.95,22.14,60.04,33.58,89.92,2.68,7.01-.54,9.55-6.02,11.6ZM272.54,264.01c-32.19,0-64.38-.09-96.57,.06-8,.04-16.09-.69-15.82-10.66,.23-8.69,7.58-10.2,15.29-10.18,65.25,.11,130.5,.11,195.75,.01,7.68-.01,15.01,1.39,15.13,10.29,.14,10.08-7.94,10.58-15.9,10.54-32.62-.15-65.25-.06-97.88-.06Zm-34.47-132.17c-20.82,0-41.65-.05-62.47,.03-8.13,.03-15.84-1.75-15.47-11.37,.34-8.95,8-9.72,15.5-9.7,42.08,.12,84.16,.08,126.25,.05,7.37,0,14.65,.37,14.56,10.31-.09,9.59-7.15,10.66-14.58,10.67-21.26,.03-42.52,.01-63.77,.01Zm43.49,45.09c18.71,0,37.41,.05,56.12-.03,7.37-.03,13.31,1.9,13.25,10.56-.06,8.52-5.81,10.64-13.28,10.62-37.85-.08-75.7-.09-113.55,.01-7.59,.02-13.44-2.61-13.45-10.66-.01-8.13,5.96-10.61,13.48-10.55,19.14,.14,38.28,.05,57.43,.04Zm-101.89,20.93c-3.44,0-6.94,.42-10.3-.09-5.81-.89-9.5-4.83-9.39-10.52,.11-5.69,3.91-9.59,9.81-10.1,5.56-.48,11.18-.27,16.77-.23,6.78,.06,12.07,2.38,12.25,10.12,.19,8.42-5.29,10.98-12.68,11.03-2.15,.02-4.3,0-6.46,0v-.22Zm110.95,222.97c-53.41,.34-97.22,44.88-97.1,98.69,.12,53.8,44.04,97.31,98.12,97.2,54.13-.11,97.73-43.62,97.79-97.58,.06-54.2-44.62-98.66-98.81-98.32Zm.95,175.36c-42.69,.07-76.95-34.06-77.03-76.74-.08-42.98,33.64-77.34,76.17-77.58,43.29-.25,77.91,34.15,77.85,77.37-.05,42.59-34.36,76.89-76.99,76.96ZM590.64,207.99c-62.34,.07-114.4,52.44-114.27,114.93,.14,62.47,52.08,114.6,114.47,114.86,63.77,.27,115.32-50.76,115.61-114.46,.29-64.64-50.69-115.41-115.81-115.34Zm-34.41,201.63c-25.78-10.41-42.17-27.67-51.86-51.47-17.97-44.17-.12-94.75,41.38-117.47,3.44-1.88,9.23-8.7,10.43,2.2,.28,2.57,.05,5.2,.05,7.8,0,52.36,0,104.73,0,158.95Zm31.66,7.29c-9.18-.43-11.47-3.74-11.3-12.49,.53-27.36,.19-54.73,.19-82.1,0-27.8,.19-55.61-.13-83.41-.08-6.99,1.66-9.72,9.25-10.23,53.58-3.63,99.23,38.88,100.11,93.75,.85,53.11-44.99,96.98-98.12,94.47Zm-237.55,78.29c-.06,4.39-2.88,7.05-5.91,9.62-17.2,14.62-34.49,29.14-51.53,43.96-6.23,5.42-11.98,6.01-18.6,.9-11.68-9.02-23.57-17.77-35.33-26.69-5.79-4.39-9.34-9.78-3.98-16.49,4.84-6.05,10.61-4.41,16.06-.27,7.26,5.51,14.9,10.59,21.7,16.61,6.95,6.15,12.19,6.74,19.48-.21,12.55-11.97,26.29-22.7,39.43-34.05,3.95-3.42,8.22-5.06,13.13-2.87,3.9,1.74,5.68,5.16,5.53,9.48Z"/>
</svg>