<?xml version="1.0" encoding="UTF-8"?>
<svg id="Layer_1" data-name="Layer 1" xmlns="http://www.w3.org/2000/svg" viewBox="0 0 14 14">
  <defs>
    <style>
      .cls-1 {
        fill: #393939;
      }

      .cls-2 {
        fill: none;
      }
    </style>
  </defs>
  <rect class="cls-2" width="14" height="14"/>
  <path class="cls-1" d="M13.45,11.71c0-.36-.21-.57-.57-.57-.31,0-.63,0-.94,0-.08,0-.11-.03-.1-.11,0-.21,0-.43,0-.64,0-.45-.25-.7-.7-.7-1.26,0-2.52,0-3.78,0h-.14v-1.3c.12,0,.24,0,.35,0,1.04,0,2.09,0,3.13,0,.42,0,.74-.22,.87-.58,.04-.11,.05-.22,.07-.34,.1-.65,.19-1.29,.28-1.94,.11-.74,.22-1.48,.32-2.22,.05-.33-.16-.62-.49-.69-.08-.02-.11-.05-.11-.13,0-.53,0-1.06,0-1.59,0-.39-.25-.64-.63-.64-.51,0-1.02,0-1.54,0-.22,0-.4,.08-.53,.27-.08,.11-.1,.24-.1,.38,0,.21,.03,.19-.19,.19-1.87,0-3.75,0-5.62,0-.42,0-.66,.24-.66,.66,0,.25,0,.49,0,.74,0,.08-.02,.12-.11,.14-.32,.07-.53,.35-.49,.68,.01,.11,.03,.23,.05,.34,.17,1.19,.34,2.37,.52,3.56,.02,.14,.04,.27,.06,.41,.08,.49,.42,.78,.92,.78,1.12,0,2.24,0,3.36,0,.1,0,.13,.02,.13,.13,0,.36,0,.71,0,1.07,0,.03,0,.06,0,.11-.05,0-.1,0-.14,0-1.27,0-2.54,0-3.81,0-.4,0-.66,.26-.67,.66,0,.22,0,.45,0,.67,0,.08-.02,.11-.11,.11-.31,0-.62,0-.93,0-.37,0-.57,.21-.57,.57,0,.41,0,.82,0,1.23,0,.35,.21,.56,.56,.56,.84,0,1.68,0,2.52,0,.35,0,.56-.21,.56-.56,0-.41,0-.82,0-1.23,0-.36-.21-.57-.57-.57-.31,0-.62,0-.93,0-.08,0-.11-.02-.11-.1,0-.21,0-.43,0-.64,0-.23,.06-.29,.29-.29,1.26,0,2.52,0,3.78,0,.04,0,.08,0,.13,0,0,.04,0,.07,0,.11,0,.27,0,.53,0,.8,0,.09-.03,.12-.12,.12-.32,0-.64,0-.95,0-.33,0-.54,.21-.54,.54,0,.42,0,.84,0,1.27,0,.34,.21,.55,.55,.55,.85,0,1.7,0,2.54,0,.34,0,.55-.21,.55-.56,0-.41,0-.82,0-1.23,0-.36-.21-.57-.57-.57-.31,0-.63,0-.94,0-.08,0-.1-.02-.1-.1,0-.28,0-.56,0-.83,0-.08,.03-.1,.1-.1,1.28,0,2.57,0,3.85,0,.18,0,.25,.07,.25,.25,0,.22,0,.45,0,.67,0,.09-.03,.11-.11,.11-.31,0-.63,0-.94,0-.34,0-.55,.21-.56,.55,0,.42,0,.84,0,1.27,0,.34,.22,.54,.56,.54,.84,0,1.68,0,2.52,0,.36,0,.57-.21,.57-.57,0-.41,0-.82,0-1.22Zm-9.84-.15c.14,0,.16,.03,.16,.17,0,.4,0,.79,0,1.19,0,.14-.03,.17-.17,.17-.41,0-.83,0-1.24,0-.41,0-.81,0-1.22,0-.15,0-.17-.02-.17-.18,0-.4,0-.79,0-1.19,0-.13,.03-.16,.16-.16,.83,0,1.66,0,2.49,0ZM2.78,1.68c0-.09,.06-.15,.15-.17,.05,0,.09,0,.14,0,1.89,0,3.79,0,5.68,0,.04,0,.08,0,.12,0,.22-.01,.36-.16,.37-.38,0-.09,0-.17,0-.26,0-.13,.07-.2,.2-.2,.52,0,1.05,0,1.57,0,.13,0,.2,.07,.2,.2,0,.54,0,1.09,0,1.63,0,.1-.06,.09-.12,.09-.84,0-1.68,0-2.52,0-1.87,0-3.74,0-5.61,0h-.2c0-.32,0-.62,0-.92Zm5.45,9.87c.14,0,.17,.03,.17,.17,0,.4,0,.79,0,1.19,0,.13-.03,.16-.16,.16-.83,0-1.67,0-2.5,0-.13,0-.16-.03-.16-.16,0-.4,0-.81,0-1.21,0-.13,.03-.15,.15-.15,.41,0,.83,0,1.24,0h0c.41,0,.83,0,1.24,0ZM3.33,7.96c-.09,0-.18,0-.26-.04-.15-.06-.24-.18-.26-.34-.12-.81-.23-1.61-.35-2.42-.09-.6-.17-1.19-.26-1.79,0-.04-.01-.07-.01-.11,0-.15,.07-.24,.22-.24,.23,0,.45,0,.68,0,1.31,0,2.61,0,3.92,0,1.47,0,2.94,0,4.41,0,.05,0,.11,0,.16,0,.18,0,.26,.09,.24,.28-.04,.27-.08,.54-.12,.81-.16,1.1-.32,2.2-.48,3.3,0,.04-.01,.09-.02,.13-.04,.27-.21,.42-.49,.42-.71,0-1.42,0-2.13,0-1.75,0-3.5,0-5.25,0Zm9.71,4.95c0,.14-.03,.17-.17,.17-.82,0-1.65,0-2.47,0-.15,0-.17-.02-.17-.17,0-.4,0-.79,0-1.19,0-.14,.03-.16,.17-.16,.41,0,.83,0,1.24,0,.41,0,.82,0,1.23,0,.14,0,.17,.03,.17,.16,0,.4,0,.79,0,1.19Z"/>
</svg>