<?xml version="1.0" encoding="UTF-8"?>
<svg id="Layer_1" data-name="Layer 1" xmlns="http://www.w3.org/2000/svg" viewBox="0 0 14 14">
  <defs>
    <style>
      .cls-1 {
        fill: #393939;
      }

      .cls-2 {
        fill: none;
      }
    </style>
  </defs>
  <rect class="cls-2" width="14" height="14"/>
  <path class="cls-1" d="M12.15,7.15c-.08-.08-.18-.07-.27,0-.07,.06-.13,.12-.2,.18-.06-.07-.03-.14-.03-.2,0-.34,0-.67,0-1.01,0-.34-.04-.37-.37-.37-1.28,0-2.56,0-3.84,0-.05,0-.11,0-.16,0-.06,0-.09-.03-.08-.09,0-.05-.04-.14,.04-.15,.21-.03,.23-.18,.28-.34,.06-.18,.42-.32,.59-.23q.3,.14,.52-.08s.09-.09,.14-.14q.21-.21,.07-.49c-.1-.2,.04-.54,.25-.61q.3-.1,.3-.42s0-.09,0-.14c0-.34,.03-.38-.33-.48-.16-.05-.31-.41-.24-.55,.15-.29,.2-.29-.1-.58-.05-.05-.1-.09-.14-.14-.12-.15-.25-.15-.42-.06-.27,.14-.58,0-.66-.29-.05-.17-.15-.25-.33-.24-.08,0-.16,0-.24,0q-.33,0-.44,.32c-.07,.19-.4,.33-.58,.24q-.3-.15-.54,.09s-.09,.1-.14,.14c-.16,.13-.2,.27-.08,.46,.14,.22-.01,.58-.26,.64-.2,.05-.3,.15-.27,.36,0,.06,0,.13,0,.2q0,.35,.32,.46c.16,.06,.31,.4,.25,.55q-.15,.34,.12,.61s.08,.07,.11,.11c.12,.16,.26,.17,.43,.07,.25-.14,.57,0,.66,.28,.03,.1,.06,.21,.16,.23,.15,.02,.14,.11,.13,.21-.02,.13-.13,.06-.19,.06-1.3,0-2.6,0-3.9,0-.3,0-.34,.05-.34,.34,0,.41,0,.82,0,1.23-.02,.01-.04,.03-.06,.04-.05-.07-.1-.14-.16-.2-.09-.09-.2-.11-.29,0-.09,.09-.07,.2,.01,.28,.18,.18,.36,.36,.54,.55,.09,.09,.2,.11,.3,.01,.19-.18,.38-.37,.56-.56,.08-.09,.1-.19,0-.28-.1-.1-.2-.07-.3,.01-.06,.05-.1,.13-.21,.17,0-.35,0-.68,0-1.01,0-.16,.05-.18,.19-.18,.55,0,1.09,0,1.64,0,.68,0,1.36,0,2.04,0,.06,0,.17-.05,.17,.07,0,.37,0,.74,0,1.11-.11-.05-.17-.13-.23-.19-.09-.08-.2-.08-.28,.02-.07,.09-.07,.19,.01,.27,.18,.19,.37,.38,.56,.56,.1,.09,.2,.1,.3,0,.18-.18,.37-.36,.54-.55,.09-.09,.11-.2,0-.3-.1-.1-.2-.06-.3,.02-.06,.06-.11,.13-.21,.17,0-.38,0-.74,0-1.1,0-.1,.07-.1,.13-.1,1.26,0,2.52,0,3.78,0,.12,0,.14,.06,.14,.16,0,.31,0,.62,0,.93,0,.04,.02,.08-.07,.11-.04-.05-.09-.12-.15-.18-.09-.09-.19-.09-.28,0-.09,.09-.08,.19,0,.28,.18,.19,.37,.38,.56,.56,.08,.08,.18,.1,.27,.02,.21-.2,.41-.39,.6-.6,.08-.08,.07-.19-.02-.27Zm-5.14-2.04c-.08,0-.15-.01-.16-.11-.03-.22-.16-.33-.37-.37-.08-.01-.15-.05-.22-.09-.15-.1-.29-.1-.44,0-.08,.05-.14,.06-.22-.02-.08-.08-.07-.14-.02-.22,.1-.15,.1-.29,0-.44-.04-.06-.08-.14-.09-.22-.03-.22-.15-.34-.37-.37-.1-.01-.09-.09-.1-.16,0-.09,.03-.14,.11-.15,.2-.03,.31-.14,.34-.35,0-.07,.04-.14,.08-.2,.12-.17,.13-.33,.01-.51-.06-.09,.04-.26,.14-.26,.01,0,.03,0,.04,.02,.36,.29,.63-.09,.95-.14,.11-.02,.12-.16,.15-.26,.02-.1,.07-.12,.17-.13,.1,0,.15,.03,.16,.13,.03,.19,.14,.3,.34,.33,.08,.01,.15,.04,.22,.09,.17,.11,.33,.13,.49,0,.08-.06,.14-.03,.2,.03,.07,.07,.08,.12,.02,.2-.11,.16-.11,.31,0,.47,.05,.07,.08,.15,.1,.24,.03,.19,.13,.29,.32,.33,.09,.01,.14,.05,.13,.16,0,.1-.03,.16-.13,.18-.18,.03-.29,.13-.32,.32-.01,.08-.04,.16-.09,.22-.12,.17-.13,.34,0,.51,.07,.09,0,.14-.05,.2-.06,.07-.12,.07-.19,.02-.17-.12-.33-.11-.49,0-.06,.04-.13,.07-.2,.08-.21,.03-.33,.15-.36,.36-.01,.09-.07,.11-.15,.11Zm1.88,6.71c-.03-.69-.59-1.26-1.28-1.29-.4-.01-.8-.01-1.2,0-.57,.02-1.06,.4-1.23,.95-.11,.34-.06,.69-.07,1.04,0,.49,.27,.76,.76,.76,.38,0,.75,0,1.13,0,.4,0,.79,0,1.19,0,.43,0,.7-.29,.71-.71,0-.25,0-.5,0-.75Zm-.4,.73c0,.22-.1,.33-.33,.33-.39,0-.78,0-1.17,0-.38,0-.75,0-1.13,0-.27,0-.36-.09-.37-.37,0-.24,0-.47,.01-.71,.04-.49,.42-.85,.91-.87,.38-.01,.76-.01,1.14,0,.51,.02,.9,.42,.92,.93,0,.23,0,.46,0,.69Zm4.84-.68c-.01-.72-.57-1.31-1.29-1.34-.39-.02-.79-.01-1.19,0-.62,.02-1.12,.44-1.26,1.05-.07,.31-.04,.63-.04,.94,0,.47,.28,.74,.75,.75,.38,0,.75,0,1.13,0,.39,0,.78,0,1.17,0,.01,0,.03,0,.04,0,.43-.02,.69-.29,.7-.72,0-.23,0-.46,0-.69Zm-.4,.7c0,.21-.1,.31-.32,.31-.39,0-.79,0-1.18,0-.37,0-.74,0-1.11,0-.27,0-.37-.1-.37-.37,0-.24,0-.47,0-.71,.04-.48,.42-.85,.91-.87,.38-.01,.76-.01,1.14,0,.49,.02,.88,.4,.91,.89,.01,.25,0,.5,0,.75Zm-8.47-.67c-.03-.77-.57-1.33-1.33-1.36-.39-.02-.78-.01-1.17,0-.63,.02-1.15,.5-1.26,1.13-.05,.28-.02,.57-.03,.85,0,.5,.27,.77,.77,.77,.38,0,.75,0,1.13,0,.4,0,.79,0,1.19,0,.42,0,.7-.29,.71-.71,0-.22,0-.45,0-.67Zm-.4,.66c0,.22-.11,.32-.33,.33-.39,0-.78,0-1.17,0-.38,0-.75,0-1.13,0-.27,0-.37-.1-.37-.37,0-.27-.03-.54,.03-.81,.09-.44,.45-.76,.9-.77,.36-.01,.72-.01,1.09,0,.56,.02,.95,.4,.98,.96,.01,.22,0,.45,0,.67Zm7.41-4.14c-.56-.02-1.05,.44-1.07,1-.02,.56,.46,1.1,1.03,1.09,.56-.02,1.02-.41,1.04-1.03,.02-.57-.42-1.03-1-1.06Zm-.02,1.67c-.35,0-.65-.29-.65-.63,0-.34,.3-.64,.64-.64,.35,0,.62,.27,.63,.62,0,.36-.27,.64-.62,.65Zm-8.88-1.67c-.57,0-1.03,.45-1.03,1.02,0,.57,.48,1.09,1.03,1.06,.61-.03,1.02-.46,1.04-1.04,.02-.57-.46-1.05-1.03-1.05Zm0,1.67c-.36,0-.64-.28-.64-.63,0-.36,.28-.64,.64-.63,.34,0,.63,.28,.63,.62,0,.35-.28,.64-.63,.64Zm4.43-1.67c-.57,0-1.03,.46-1.03,1.03,0,.56,.5,1.07,1.04,1.06,.55-.01,1.02-.49,1.02-1.05,0-.59-.46-1.05-1.03-1.04Zm0,1.67c-.35,0-.63-.28-.63-.62,0-.36,.28-.64,.63-.64,.35,0,.63,.28,.63,.63,0,.36-.27,.64-.63,.64Zm0-8.19c-.68,0-1.23,.55-1.23,1.23,0,.68,.55,1.23,1.23,1.24,.68,0,1.23-.55,1.23-1.24,0-.69-.54-1.23-1.23-1.22Zm0,2.07c-.46,0-.84-.38-.83-.85,0-.46,.37-.82,.83-.82,.47,0,.83,.36,.83,.84,0,.46-.37,.83-.83,.83Z"/>
</svg>