<?xml version="1.0" encoding="UTF-8"?>
<svg id="Layer_1" data-name="Layer 1" xmlns="http://www.w3.org/2000/svg" viewBox="0 0 800 800">
  <defs>
    <style>
      .cls-1 {
        fill: none;
      }

      .cls-2 {
        fill: #010101;
      }
    </style>
  </defs>
  <rect class="cls-1" width="800" height="800"/>
  <path class="cls-2" d="M537.41,402.9c-4.15-1.87-4,1.17-4.72,3.82-3.57,13.22-7.4,26.37-10.98,39.58-1.9,6.99-5.73,11.81-13.43,11.64-7.12-.16-10.56-4.72-12.45-11.3-4.51-15.72-9.39-31.33-14.49-48.19-4.79,8.1-4,16.58-6,24.26-2.01,7.71-3.18,15.66-4.42,23.56-1.11,7.08-4.74,11.5-12.11,10.78-7.83-.76-9.94-6.47-8.74-13.31,5.12-29.24,10.52-58.44,15.71-87.67,1.23-6.95,5.02-11.16,12.1-11.42,7.12-.26,11.24,4.07,13.19,10.52,4.63,15.3,9.18,30.62,13.62,45.97,.95,3.3,1.32,6.77,4.97,9.58,4.91-17.44,9.71-34.6,14.56-51.74,2.04-7.22,4.58-14.39,13.78-14.31,9.69,.09,12.16,6.95,13.65,15.23,4.95,27.33,10.34,54.59,15.63,81.86,1.39,7.17,.51,13.55-7.76,15.08-8.79,1.63-11.92-3.99-13.22-11.87-1.6-9.72-4.03-19.31-6.1-28.96-3.6-3.8,.77-9.31-2.79-13.12Zm-302.62,17.51c12.91,36.71,61.58,50.36,87.6,24.52,4.82-4.79,8.94-10.24,3.29-16.84-5.28-6.17-10.94-4.97-16.91-.07-13.96,11.45-29.22,11.62-42.55,.97-12.81-10.23-16.83-28.34-9.61-43.3,8.83-18.3,29.26-24.6,49.59-14.89,7.12,3.4,13.59,4.3,17.54-3.55,3.76-7.5-1.32-12.12-7.38-15.55-8.8-4.97-18.31-7.33-28.43-7.24-39.19,.37-66.16,38.92-53.14,75.95Zm531.08,240.54c-2.47,52.13-42.57,97.33-92.48,104.79-55.61,8.31-105.99-21.02-124.57-72.53-.39-1.08-.74-2.17-1.19-3.22-3.25-7.5-.56-18.73-7.78-22.57-6.29-3.35-15.63-.99-23.63-1.08-31.56-.36-53.1-21.49-53.45-53.24-.36-32.8-.32-65.61,.09-98.41,.1-7.87-1.9-10.47-10.1-10.37-35.46,.43-70.94,.38-106.4,.03-7.47-.07-9.82,2.05-9.73,9.64,.38,32.42,.28,64.85,.13,97.27-.16,33.92-21.22,54.88-54.97,55.08q-22.79,.13-29.2,21.84c-14.82,50.21-65.46,84.08-117.69,78.71-54.64-5.62-97.15-48.99-100.87-102.91-3.71-53.86,30.83-102.68,82.21-116.19,63.85-16.79,126.32,22.35,139.29,87.87,1.47,7.42,3.92,8.9,10.84,9.21,36.49,1.6,51.11-4.97,49.12-48.6-1.25-27.41-.51-54.92-.06-82.38,.13-7.68-2.28-9.66-9.71-9.54-25.93,.42-51.87,.26-77.8,.14-28.36-.14-43.54-15.51-43.68-44.03-.07-14.11,.11-28.23-.06-42.34-.09-7.52,2.42-13.4,10.56-13.28,7.91,.12,10.8,5.89,10.76,13.4-.08,14.11-.12,28.23,0,42.34,.14,15.97,6.38,22.5,22.03,22.51,114.8,.07,229.6,.07,344.4,0,15.63,0,22.35-6.69,22.41-22.35,.15-39.67,.15-79.34,0-119.01-.06-15.56-6.84-22.19-22.53-22.2-114.8-.07-229.6-.07-344.4,0-15.2,0-21.61,6.49-21.9,21.48-.14,7.24,0,14.49-.05,21.74-.06,7.5-3.29,13.1-11.23,12.93-7.42-.16-10.12-5.62-10-12.68,.13-8.01-.09-16.02,.05-24.03,.41-24.61,16.2-40.51,41.11-40.79,26.31-.3,52.64-.36,78.94,.1,8.04,.14,11.34-1.29,11.17-10.44-.6-32.41-.14-64.84-.27-97.27-.09-21.1-11.33-32.21-32.56-32.64q-23.4-.47-30.24,22.07c-16.51,54.39-75.39,89.32-129.32,76.71-62.04-14.51-98.48-69.98-87.09-132.58,9.99-54.91,64.75-94.7,121.47-88.26,49.75,5.65,88.67,41.57,98.09,91.63,1.46,7.75,4.39,9.27,11.08,8.85,6.46-.41,12.97-.22,19.44-.04,28.28,.79,50.01,21.87,50.5,50.16,.58,33.18,.51,66.37,0,99.55-.14,9.21,1.94,12.47,11.78,12.3,34.31-.6,68.65-.51,102.97-.04,8.76,.12,11.77-1.92,11.59-11.24-.61-31.27-.3-62.55-.21-93.83,.1-36.21,20.69-56.86,56.64-56.95,21.71-.06,21.42-.14,27.66-21.13,2.37-7.97,6.2-15.54,9.79-23.09,3.22-6.75,8.17-12.09,16.2-7.67,7.78,4.28,6.54,11.12,2.67,17.8-11.66,20.1-13.72,41.68-9.81,64.15,.39,2.23,1.17,4.39,2.53,9.33,10.49-11.86,21.89-20.24,33.98-27.75,3.3-2.05,1.14-6.41,.75-9.68-2.63-21.81,5.05-39.25,23.43-50.91,18.44-11.7,38-11.54,56.04,.76,18.15,12.37,26.41,30.04,22.33,52.33-.76,4.13-.95,7.32,3.42,9.57,11.59,5.97,20.98,14.88,31.47,24.85,9.1-29.12,5.01-55.13-11.27-78.92-25.48-37.23-72.83-49.57-113.59-30.42-1.38,.65-2.71,1.4-4.08,2.08-6.21,3.11-12.19,3.26-15.84-3.43-3.97-7.27-.22-12.38,6.32-15.82,25.38-13.34,52.3-17.09,79.88-9.76,59.43,15.78,93.88,71.33,82.52,131.55-10.42,55.2-64.33,93.73-123.07,87.95-46.96-4.62-86.83-41.76-96.36-90.8-1.55-7.97-4.72-9.22-11.9-9.54-35.42-1.59-49.98,4.97-48.03,47.16,1.27,27.41,.68,54.93,0,82.38-.23,9.35,2.85,11.21,11.46,11.03,25.16-.55,50.34-.28,75.51-.17,28.46,.12,44.06,15.55,44.12,43.65,.08,39.67,.08,79.34,0,119.01-.06,28.05-15.72,43.58-44.08,43.71-25.93,.12-51.87,.24-77.8-.11-6.67-.09-9.24,1.22-9.15,8.64,.42,33.94,.03,67.9,.26,101.84,.12,17.35,11.08,28.53,28.22,29.74,.76,.05,1.52,.08,2.29,.07,8.37-.13,17.89,2.15,24.81-1.1,7.08-3.32,4.92-14.17,7.22-21.59,19.31-62.36,90.67-95.34,150.52-69.38,1.4,.61,2.72,1.37,4.1,2.02,6.1,2.89,10.54,7.05,7.58,14.31-3.16,7.75-9.75,8.14-16.29,5.1-18.29-8.52-37.24-10.35-56.95-7-51.07,8.65-86.32,68.39-67.09,115.84,10.09-9.69,20.09-18.93,32.28-25.25,4.08-2.12,2.47-6.08,1.93-9.25-5.69-33.4,19.84-57.11,44.22-60.07,27.88-3.39,52.42,14.97,58.11,44.69,.5,2.6,1.5,5.71,.59,7.87-5.56,13.26,2.76,18.56,12.29,24.48,7.58,4.71,13.96,11.36,21.49,17.66,8.22-26.21,4.89-50.19-7.98-73.17-1.85-3.3-4.17-6.55-5.03-10.13-1.35-5.58,1.65-9.67,6.8-11.72,6.23-2.48,10.28,1.24,13.39,5.86,13.61,20.28,19.83,42.81,18.68,67.11ZM623.76,131.01c-.05,16.8,13.8,30.65,30.49,30.49,16.87-.16,30.11-13.8,29.94-30.85-.16-17.14-13.53-29.97-30.89-29.65-16.59,.3-29.49,13.41-29.54,30.02Zm-38.6,74.59c18.61,20.71,41.58,31.41,66.52,31.66,20.02-.22,36.57-3.77,50.36-13.96,33.64-24.86,33.83-26.66-.44-52.48-5.81-4.38-9.94-3.81-15.76,.82-17.68,14.07-42.7,16.33-59.26,2.6-11.57-9.59-18.65-5.51-27.15,1.61-4.94,4.14-9.36,8.88-14.12,13.25-6,5.5-5.54,10.48-.14,16.5Zm-392.12-34.76c-5.71-4.3-9.9-4.01-15.79,.78-17.39,14.15-42.56,16.34-59.27,2.6-11.54-9.48-18.67-5.62-27.19,1.64-4.91,4.18-9.36,8.9-14.11,13.28-5.83,5.37-5.87,10.08-.31,16.27,18.64,20.73,41.53,31.56,67.42,31.85,19.1-.21,35.66-3.71,49.51-13.86,33.9-24.86,33.8-26.89-.27-52.56Zm-47.46-9.33c16.66-.07,30.56-14.11,30.4-30.71-.16-16.36-13.35-29.5-29.89-29.79-17.39-.3-30.51,12.5-30.62,29.86-.11,17.16,13.22,30.71,30.11,30.64Zm46.87-91.62c-34.61-21.17-77.88-16.69-108.04,10.5-27.17,24.49-36.83,69.21-23.32,93.41,9.19-9.28,18.78-17.92,30.34-23.93,4.32-2.25,4.45-5.25,3.24-9.49-3.21-11.26-.43-21.98,4.48-32.07,10.93-22.47,35.85-33.79,59.31-27.37,25.11,6.87,40.56,29.14,38.49,55.02-.36,4.54-3.78,10.12,2.16,13.48,11.61,6.57,21.68,15.11,32.05,25.7,12.17-43.14-3.31-83.6-38.7-105.25Zm-.51,608.83c-5.34-3.18-8.74-3.17-13.91,.98-18.32,14.7-40.7,15.88-59.65,4.15-15.19-9.39-15.35-9.52-29.49,2.27-4.95,4.12-9.16,9.12-13.8,13.62-4.41,4.28-3.95,7.94,.01,12.64,18.58,22.04,42.24,33.06,70,33.87,17.59-.57,33.23-4.77,47.53-13.57,32-19.71,31.72-34.67-.7-53.97Zm-46.59-8.57c16.74,.05,30.69-13.84,30.64-30.5-.05-16.64-14.13-30.5-30.82-30.35-16.93,.16-29.95,13.81-29.68,31.11,.26,16.72,13.29,29.69,29.86,29.74Zm84.51-47.12c-17.45-45.66-69.69-69.19-115.73-52.11-45.3,16.8-69.95,67.42-53.82,112.44,9.49-9.7,18.41-18.09,29.3-23.73,5.59-2.9,6.03-5.93,4.84-11.78-5.07-24.87,12.45-51.75,37.06-57.95,36.69-9.23,69.08,18.44,64.98,56.05-.82,7.49,.4,11.93,7.48,15.37,8.24,4.01,15.13,10.26,21.41,16.97,4.62,4.94,6.89,4.94,8.26-2.4,3.37-18.01,2.82-35.62-3.77-52.86Zm393.92,16.4c-.16,16.92,13.46,30.73,30.28,30.7,17.02-.03,30.24-13.47,30.15-30.66-.09-16.98-13.76-30.43-30.67-30.17-16.31,.25-29.6,13.71-29.76,30.13Zm77.75,39.79c-6.18-3.88-10.07-3.3-15.8,1.22-17.66,13.93-40.55,14.85-58.78,3.48-14.9-9.29-15.74-9.36-29.51,2.14-4.65,3.88-8.6,8.6-13.02,12.78-5.32,5.02-4.42,9.42,.14,14.65,18.31,21.04,41.37,31.7,66.22,32.67,18.86,.09,36.49-4.93,50.59-13.58,31.59-19.36,31.51-33.7,.16-53.37Zm-280.61-239.64c4.29,4.98,5.35,10.37,.21,15.22-5.42,5.11-11.23,4.32-16.07-1-9.44-10.36-18.62-20.96-30.3-34.17,0,10.72-.03,17.91,0,25.09,.05,7.55-3.09,12.9-11.04,13.13-7.66,.22-10.74-5.27-10.78-12.08-.16-29.73-.15-59.47,.06-89.21,.05-7.61,4.21-12.07,12.18-12.09,8.77-.02,17.57-.42,26.29,.25,16.39,1.26,28.79,12.24,32.3,27.76,3.19,14.07-3.2,28.91-17.51,36.36-7.62,3.97-7.41,6.44-1.97,11.86,5.92,5.9,11.14,12.52,16.61,18.88Zm-18.47-60.14c.64-8.74-6.45-13.02-18.38-13.98-11.8-.95-9.12,6.75-9.34,13.54,.36,6.21-2.97,14.81,9.76,13.46,9.01-.96,17.14-1.88,17.96-13.03Z"/>
</svg>