<?xml version="1.0" encoding="UTF-8"?>
<svg id="Layer_1" data-name="Layer 1" xmlns="http://www.w3.org/2000/svg" viewBox="0 0 800 800">
  <defs>
    <style>
      .cls-1 {
        fill: none;
      }
    </style>
  </defs>
  <rect class="cls-1" width="800" height="800"/>
  <path d="M670.42,433.82c0-51.73,.02-103.45,0-155.18-.02-31.45-13.83-45.43-44.85-45.48-15.67-.03-31.35,.07-47.02-.03-7.38-.05-13.96,1.35-13.8,10.37,.16,8.94,6.95,10.21,14.17,10.21,15.67-.01,31.35-.05,47.02,.03,18.63,.1,23.4,4.96,23.41,23.92,.02,80.33,.02,160.67-.01,241,0,3.81-.37,7.61-.59,11.89H151.57c-.34-2.52-.73-4.06-.73-5.59-.04-81.51-.14-163.02,.04-244.52,.03-15.81,10.66-26.14,26.79-26.58,14.88-.41,29.78-.12,44.67-.18,7.02-.03,12.93-2.32,13.01-10.29,.08-8.05-5.72-10.26-12.85-10.23-13.32,.07-26.65-.02-39.97,0-34.24,.08-52.77,18.69-52.79,53.27-.05,95.62-.05,191.23,0,286.85,.02,34.46,18.48,53.06,52.86,53.18,39.97,.14,79.94,.04,119.91,.04,6.17,0,12.34,0,21.35,0-3.44,19-5.17,35.83-9.7,51.87-6.16,21.82-2.92,17.84-24.36,18.22-4.7,.08-9.46-.25-14.09,.36-18.28,2.41-31.26,17.27-30.41,34.42,.87,17.63,14.87,31.3,33.22,31.34,81.12,.16,162.23,.17,243.35-.02,17.23-.04,30.58-12.63,32.63-29.48,1.9-15.65-8.49-31.06-25.18-34.73-9.4-2.07-19.44-1.06-29.13-2.05-3.46-.35-8.83-1.68-9.75-3.99-8.29-20.7-13.33-42.17-13.21-65.93,5.4,0,9.62,0,13.85,0,41.93,0,83.86,.09,125.79-.03,34.9-.1,53.47-18.86,53.53-53.92,.07-46.24,.02-92.48,.02-138.72Zm-158.45,283.88c3.52,0,7.86-1.13,10.38,.5,4.45,2.88,10.66,7.39,10.78,11.38,.12,4.06-5.76,8.87-9.91,12.25-1.98,1.61-6.03,.85-9.15,.85-75.95,.04-151.9,.03-227.85,.03-1.57,0-3.13,.01-4.7-.04-8.43-.27-15.16-3.6-15.12-12.77,.04-9.32,6.89-12.22,15.36-12.21,39.15,.04,78.3,.02,117.45,.01,37.58,0,75.17-.01,112.75,0Zm-179.4-22.06c4.08-23.01,8.07-45.51,12.26-69.09,34.9,0,70.02-.11,105.13,.27,2.19,.02,5.84,3.62,6.27,6.01,3.73,20.62,6.87,41.34,10.31,62.81h-133.97Zm316.13-111.17c-1.16,10.97-10.97,19.57-22.32,21.01-5.02,.64-10.16,.52-15.25,.52-140.24,.02-280.49,.02-420.73,.02-33.15,0-39.73-6.63-39.63-39.88,.01-3.85,0-7.69,0-12.37h498.15c0,10.59,.83,20.74-.22,30.7Zm-301.22-204.67c-9.56-2.68-10.73-7.63-6.74-15.64,6.85-13.76,5.96-16-7.89-30.12-8.33-8.49-16.46-12.8-27.68-4.69-7.23,5.23-12.2,2.08-15.16-5.94-1.69-4.58-3.34-10.79-6.92-12.7-7.09-3.79-7.32-8.98-7.31-15.47,.11-53.3,.08-106.6,.05-159.9,0-16.75-2.31-19.11-18.88-19.13-48.2-.04-96.41-.08-144.61,.06-6.24,.02-10.47-.99-14.27-7.2-8.26-13.5-23.41-18.4-37.82-14.01-14,4.25-23.03,16.83-22.94,31.94,.09,14.95,9.38,27.51,23.4,31.63,14.48,4.26,29.54-.83,37.53-14.58,3.74-6.44,8.03-7.17,14.2-7.15,43.5,.13,87,.06,130.5,.1,3.44,0,6.88,.38,11.97,.68v14.19c0,45.85,.02,91.7-.02,137.56,0,8.74,2,18.03-9.21,22.81-2.62,1.12-3.8,6.48-4.92,10.11-3.03,9.78-7.37,11.96-16.21,6.29-9.28-5.94-16.9-4.41-24.16,2.99-3.3,3.35-8.28,6.17-9.52,10.16-2.01,6.42-3.9,14.53-1.66,20.3,4.8,12.35,5.17,13.72-7.76,17.96-11.64,3.82-14.09,8.85-13.88,27.42,.13,10.72,2.8,19.09,15,21.8,11.13,2.47,12.73,6.58,6.71,16.37-7.26,11.82-1.33,19.64,6.88,27.56,13.12,12.67,16.42,13.73,28.18,7.16,9.22-5.16,14.23-3.64,16.17,6.23,2.56,13.06,11.13,15.4,22.46,15.31,20.44-.16,22.68-1.1,26.92-15.33,2.57-8.62,7.43-12.41,15.47-6.66,10.68,7.64,18.69,3.95,26.83-4.2,14.53-14.55,15.39-16.88,8.43-30.97-3.97-8.04-2.66-13.8,7-15.5,11.4-2.01,15.24-9.14,15.28-20.05,.08-22.33-.87-25.29-15.41-29.37ZM84.42,129.75c-4.93,3.14-9.6,8.29-14.84,8.95-7.62,.96-13.01-5.59-11.35-12.58,1.08-4.59,7.65-10.78,11.94-10.92,4.7-.15,9.6,5.83,14.41,9.15-.05,1.8-.1,3.6-.15,5.4Zm250.41,281.28c-15.25,8.17-20.53,21.46-15.42,38.6,.85,2.86,.75,6.72-.6,9.18-.63,1.14-5.54,.66-8.17-.17-17.43-5.49-30.15-.21-39.11,16.2-1.31,2.39-4.03,5.6-6.05,5.57-2.12-.03-4.82-3.15-6.19-5.53-9.88-17.16-20.87-21.5-40.26-15.83-2.28,.67-6.42,.89-7.14-.26-1.33-2.16-1.6-5.71-.88-8.28,5.61-19.85,1.32-29.92-17.35-40.4-2.01-1.13-4.53-3.58-4.55-5.44-.02-1.93,2.31-4.59,4.3-5.74,19.47-11.31,22.76-19.19,17.24-41.25-.57-2.27-.34-5.83,1.07-7.19,1.33-1.28,4.87-1.07,7.14-.44,20.11,5.58,30.57,1.24,40.75-16.77,1.29-2.29,4.03-4.59,6.45-5.08,1.36-.27,4,2.9,5.14,5.01,9.74,18,20.33,22.28,40.67,16.85,3.01-.81,6.67,.8,10.76,1.4-1.92,4.9-2.9,7.03-3.59,9.24-4.87,15.7,1.24,29.62,15.94,37.43,2.72,1.44,4.68,4.3,6.99,6.5-2.36,2.17-4.4,4.94-7.14,6.41ZM740.05,95.22c-14.44-4.64-29.82,.08-37.94,13.46-4.02,6.62-8.55,7.64-15.23,7.61-47.39-.19-94.78-.11-142.18-.09-19.05,0-20.48,1.47-20.48,20.95-.01,52.88,.09,105.75-.18,158.63-.02,4.13-1.97,8.55-4.02,12.29-2.84,5.17-7.54,9.43-9.79,14.78-3.46,8.24-8.02,11.94-15.96,6.25-12.04-8.63-20.11-2.3-28.46,6.1-8.19,8.23-15.29,16.12-7.14,28.43,5.43,8.21,3.67,13.94-6.62,16.08-10.36,2.16-15.38,8.55-14.82,19.26,.21,3.91,.1,7.83,.03,11.75-.18,9.97,4.14,16.1,14.22,18.5,10.96,2.6,12.31,6.4,6.95,16.65-6.15,11.74-4.84,15.56,8.6,29.17,7.83,7.93,15.49,12.83,26.68,5.42,8.7-5.76,13.3-3.55,16.42,6.28,4.49,14.15,6.51,15.04,26.96,15.17,11.39,.08,20.08-2.43,22.3-15.47,1.61-9.47,7.13-11.24,15.35-6.71,13.34,7.36,15.64,6.49,29.94-7.42,8.43-8.2,13.32-16.34,5.27-27.62-5.7-8-2.56-12.69,6.24-15.57,4.57-1.5,9.98-3.64,12.62-7.25,10.46-14.29,2.89-36.61-13.85-42.53-7.58-2.68-10.47-7.47-5.52-14.21,8.51-11.59,4.02-20.04-4.88-28.63-13.88-13.4-16.35-14.33-30.11-6.97-7.71,4.12-12.32,2.36-15.11-6.09-1.53-4.61-3.43-10.71-7.04-12.68-6.98-3.81-7.43-8.92-7.41-15.47,.13-48.57,.06-97.13,.09-145.7,0-3.83,.35-7.66,.54-11.58,2.43-.43,3.93-.93,5.43-.94,46.61-.05,93.22-.21,139.82,.23,3.52,.03,8.02,3.63,10.32,6.83,9.36,13.05,23.1,18.7,37.82,14.57,13.95-3.91,23.62-16.62,23.81-31.32,.19-14.99-8.75-27.68-22.66-32.14Zm-159.83,255.16c2.59-.75,6.74-1.13,8.13,.3,1.45,1.5,1.18,5.6,.4,8.19-5.59,18.46-.51,30.5,16.76,39.7,2.37,1.26,5.44,4.06,5.42,6.11-.02,1.98-3.31,4.52-5.71,5.78-16.88,8.86-21.77,21.08-16.41,39.97,.89,3.15-.89,7.05-1.56,11.41-4.79-2-6.55-2.89-8.4-3.49-15.32-5.01-29.2,.46-37.1,14.17-1.78,3.09-4.68,5.54-7.06,8.29-2.41-2.61-5.44-4.87-7.12-7.89-7.9-14.22-21.83-19.51-38.06-14.49-2.86,.89-6.27,0-9.43-.08,.08-2.84-.47-5.87,.34-8.48,5.47-17.71,.14-30.62-16.04-39.19-2.64-1.4-4.41-4.43-6.59-6.7,2.14-1.94,3.99-4.43,6.47-5.72,16.17-8.41,21.63-21.56,16.22-39.08-.81-2.63-.35-5.66-.48-8.51,3.14-.05,6.51-.87,9.37-.01,17.33,5.21,30.35-.32,39.01-16.65,1.29-2.43,3.77-5.7,5.85-5.81,2.02-.11,4.92,2.97,6.24,5.31,9.85,17.52,21.05,22.28,39.76,16.85Zm149.26-211.68c-7.62,1.23-13.07-5.06-11.49-12.22,1.02-4.61,7.2-11.01,11.33-11.22,4.72-.23,9.74,5.52,14.63,8.66,.01,1.78,.03,3.55,.04,5.33-4.81,3.3-9.31,8.59-14.52,9.44Zm-248.63,80.25c-9.39-1.8-12.34-6.96-6.95-14.95,7.75-11.49,2.76-19.52-5.62-27.64-13.16-12.76-15.89-13.73-29.23-6.71-7.91,4.17-12.16,2.06-14.83-6.41-1.43-4.55-4.93-8.43-7.32-12.71-2.4-4.31-5.71-8.52-6.59-13.17-1.14-6.05,.06-12.5-.36-18.73-.66-9.76,.91-16.74,10.61-23.13,16.06-10.57,16.92-33.33,4.08-47.52-12.3-13.59-34.13-14.5-47.47-1.99-13.83,12.97-15.08,36.56,.18,47.71,11.74,8.57,14.68,17.76,12.91,26.2-.98,15.05,3.23,27.23-10.56,33.77-2.36,1.12-3.33,5.98-4.17,9.31-2.4,9.5-7.64,11.33-15.46,6.02-10.94-7.44-18.8-2.41-26.71,5.51-8.13,8.15-15.73,16.04-8,28.38,5.27,8.41,4.04,13.97-6.4,16.03-12.06,2.39-14.91,10.87-14.89,21.79,.03,18.31,2.26,23.97,14.41,26.92,11.21,2.72,12.15,7.62,6.55,16.61-6.09,9.77-2.01,17.62,5.52,24.89,8.02,7.74,15.13,16.4,28.18,9.42,11.31-6.05,13.63-5.06,17.17,7.23,3.9,13.54,14.33,13.31,25.28,13.4,10.6,.08,19.43-1.61,22.85-13.58,3.45-12.08,5.6-12.97,17.2-6.93,13.75,7.17,20.8-2.71,28.97-10.53,7.33-7.02,10.61-14.74,4.61-23.95-5.84-8.98-4.51-13.84,6.55-16.6,12.25-3.06,14.47-8.63,14.45-26.9-.02-10.93-2.94-19.41-14.99-21.72Zm-92.49-148.94c.02-4.76,6.09-9.49,9.53-14.24l5.25,.24c3.05,5.01,8.13,9.81,8.66,15.07,.76,7.53-5.58,13.03-12.78,11-4.58-1.29-10.66-7.88-10.65-12.07Zm81.61,178.63c-18.01,9.93-22.35,19.89-17.23,39.35,.68,2.6,.52,6.05-.74,8.26-.6,1.05-4.84,.64-7.18-.01-19.27-5.41-29.56-1.02-39.47,16.95-1.14,2.07-2.99,3.75-5.91,7.31-2.51-4-4.15-6.25-5.42-8.69-8.12-15.65-21.06-20.97-38.17-15.92-1.65,.49-3.45,.48-5.26,.42-.72-.02-1.45-.05-2.17-.06-.36,0-.72,0-1.07,.01h0c-.02-.72-.08-1.44-.15-2.17-.21-2.19-.49-4.4,.05-6.38,5.05-18.48,.18-29.86-16.53-38.76-2.31-1.23-4.56-3.85-5.25-6.28-.31-1.12,2.96-3.84,5.07-4.95,16.69-8.72,21.79-20.52,16.82-38.72-.73-2.67-.06-5.73-.04-8.6,2.86,.09,5.91-.43,8.56,.37,16.93,5.11,29.8-.23,38.1-15.83,1.29-2.43,3.78-4.24,5.71-6.33,2.19,2.28,5.03,4.22,6.47,6.91,7.91,14.79,21.16,20.26,37.33,15.42,2.91-.87,6.32-.08,9.51-.06-.17,2.89,.17,5.93-.59,8.66-4.96,17.74,.28,29.23,17.46,38.37,2.08,1.1,4.83,3.49,4.82,5.27-.01,1.86-2.64,4.32-4.7,5.46Zm-69.17,320.79c6.24-.01,12.8-1.2,18.6,.38,4.21,1.15,9.46,5.5,10.36,9.33,.63,2.65-5.15,9.65-8.43,9.9-14.31,1.11-28.81,1.08-43.12-.06-3.1-.25-7.97-6.89-7.84-10.43,.12-3.15,5.64-7.9,9.47-8.72,6.71-1.43,13.94-.4,20.96-.41Zm-135.8-216.87c-28.75,.15-51.3,22.73-51.42,51.5-.12,29.31,22.73,52.63,51.6,52.67,28.65,.04,52.47-23.7,52.45-52.28-.01-28.83-23.56-52.04-52.64-51.89Zm.2,83.33c-17.1-.05-31.52-14.48-31.45-31.48,.07-17.16,14.38-31.19,31.72-31.08,17.67,.11,31.22,13.76,31.12,31.36-.1,17.51-13.93,31.26-31.39,31.21Zm269.67-83.33c-29.16-.2-52.38,22.85-52.36,51.96,.02,28.87,23.56,52.36,52.32,52.21,28.9-.15,51.71-23.48,51.58-52.75-.12-28.63-22.78-51.23-51.54-51.43Zm-.44,83.32c-17.5-.02-30.88-13.66-30.88-31.47,0-17.83,13.4-31.18,31.17-31.05,17.4,.12,31.55,14.23,31.42,31.34-.12,17.02-14.55,31.21-31.71,31.19Zm-134.37-243.59c-28.13-.09-51.02,22.31-51.45,50.35-.43,28.18,22.95,51.84,51.26,51.87,28.25,.03,51.96-23.72,51.61-51.68-.35-27.86-23.32-50.45-51.41-50.54Zm30.32,51.73c-.45,17.02-14.14,29.82-31.46,29.41-17.16-.41-29.74-13.98-29.17-31.48,.54-16.51,14.09-29.34,30.65-29.04,16.97,.31,30.42,14.27,29.97,31.11Z"/>
</svg>