<?xml version="1.0" encoding="UTF-8"?>
<svg id="Layer_1" data-name="Layer 1" xmlns="http://www.w3.org/2000/svg" viewBox="0 0 800 800">
  <defs>
    <style>
      .cls-1 {
        fill: none;
      }

      .cls-2 {
        fill: #010101;
      }
    </style>
  </defs>
  <rect class="cls-1" width="800" height="800"/>
  <path class="cls-2" d="M749.45,390.01c.04,168.07-110.89,307.61-270.16,344.14-79.35,18.2-155.84,8.83-229.11-26.38-7.47-3.59-13.93-4.15-21.84-1.96-51.23,14.18-102.56,28.02-153.93,41.71-17.52,4.67-25.33-3.25-20.55-20.36,14.33-51.26,28.72-102.51,43.22-153.72,1.48-5.24,.93-9.41-1.73-14.4-32.99-61.99-46.1-128.25-39.5-197.98,5.61-59.22,25.54-113.66,59.48-162.73,7.49-10.83,14.92-13.71,22.39-8.82,7.41,4.85,7.69,13.49,.4,24.01-28.79,41.56-46.93,87.51-53.53,137.46-9.31,70.52,2.91,137.52,37.64,199.91,4.4,7.91,5.57,14.86,2.97,23.73-12.59,43.04-24.56,86.26-36.52,129.48-.89,3.23-4.12,7.47-1,10.07,2.71,2.25,6.8-.45,10.29-1.4,45.67-12.46,91.39-24.76,137.06-37.22,6.51-1.77,12.02-.05,17.73,2.99,56.74,30.18,117.58,42.16,181.04,35.38,94.54-10.11,170.87-54.19,227.32-130.99,42.99-58.49,63.04-124.82,61.07-197.21-4.16-153.04-117.96-283.17-268.98-306.98-81.84-12.9-158.18,3.5-227.82,49.1-3.36,2.2-6.58,4.63-10.02,6.68-7.61,4.54-14.12,2.76-19.03-4.27-5-7.15-2.45-13.47,3.76-18.14,15.5-11.66,32.23-21.38,49.67-29.83,201.86-97.73,440.9,16.75,491.39,235.47,5.85,25.33,9.07,51.08,8.27,72.26Zm-67.29-80.72c-52.55-164.75-227.02-250.2-386.97-186.47-108.07,43.05-169.8,125.98-184.28,241.51-8.14,64.96,6.57,126.42,40.76,182.64,4.7,7.74,5.91,14.4,3.08,23.43-8.18,26.09-15.06,52.58-22.36,78.94-1.68,6.06-3.02,12.22,2.09,17.54,5.41,5.64,11.96,4.58,18.41,2.86,26.75-7.1,53.63-13.81,80.12-21.81,9.93-3,17.47-1.82,26.57,2.95,99.75,52.28,198.61,50.21,296.12-6.33,14.07-8.16,17.74-15.47,13.05-23.67-5.01-8.76-12.91-8.6-27.37,.24-55.1,33.69-114.66,45.31-178.51,36.43-36.36-5.06-69.75-18.01-101.07-36.67-7.77-4.63-15.03-5.54-23.86-2.92-21.64,6.44-43.64,11.63-65.34,17.87-6.45,1.86-8.84,2.45-6.35-5.65,5.46-17.77,9.25-36.11,15.5-53.58,5.54-15.47,3.33-27.84-5.32-41.9-35.67-58.01-47.74-121.01-35.18-188.19,29.94-160.04,194.54-255.38,348.66-202.15,134.38,46.41,208.66,195.36,165.16,330.58-7.55,23.47-18.02,45.37-31.16,66.12-4.71,7.43-4.83,14.89,3.18,20.05,7.89,5.09,14.61,2.26,19.69-5.11,1.45-2.1,2.78-4.29,4.12-6.47,29-47.17,43.77-98.4,43.81-161.39,.7-21.96-3.63-50.89-12.54-78.84Zm-69.12,283.4c-.29-7.99-4.88-12.73-12.68-13.7-7.35-.91-14.18,5.48-14.54,12.95-.36,7.52,5.73,14.1,13.25,14.32,7.45,.22,14.24-6.1,13.97-13.57ZM166.64,145.29c-7.75-.43-14.25,5.58-14.37,13.29-.12,7.77,6.12,14.32,13.82,13.85,8.07-.5,12.48-5.16,13.03-11.64,.19-9.31-5.04-15.08-12.48-15.49Zm342.59,423.96c-5.08,.51-10.21,.53-13.09,.67-33.66,.25-62.48-9.87-90.4-22.86-81.41-37.89-141.36-97.72-177.29-179.9-17.62-40.3-12.55-80.33,15.77-115.27,17.14-21.14,40.4-26.19,66.3-20.11,8.58,2.01,15.23,7.26,18.85,15.4,9.75,21.99,19.45,44.01,28.71,66.21,6.76,16.22,2.87,30.27-9.05,43.17-16.49,17.85-16.18,18.22-.97,37.51,22.06,27.98,49.34,49.48,80.94,65.83,9.88,5.11,17.19,5.54,23.48-5.23,4.02-6.87,9.29-13.14,14.7-19.04,12.11-13.22,24.41-16.16,40.37-8.78,20.51,9.47,40.71,19.65,60.83,29.93,10.62,5.43,15.45,14.84,16.32,26.68,4.11,55.99-36.63,81.86-75.47,85.79Zm48.5-81.34c-.23-4.76-2.27-7.18-6.32-9.09-10.22-4.81-20.29-9.95-30.43-14.95q-29.58-14.6-50.25,11.62c-13.56,17.21-23.59,21.2-43.71,12.75-49.96-20.98-89.15-55.04-116.82-101.76-6.32-10.68-4.68-21.87,3.49-31.58,4.23-5.03,8.38-10.21,13.15-14.69,7.15-6.72,7.99-13.41,3.62-22.36-7.35-15.06-13.5-30.71-20.13-46.12-6.28-14.6-19.16-18.94-33.73-11.39-9.5,4.93-15.97,12.79-20.46,22.18-12,25.07-13.58,50.94-1.81,76.23,31.33,67.31,79.11,119.53,144.99,154.51,29.5,15.66,60.04,28.22,94,29.8,10.03,.35,19.75-1.56,29.18-4.43,23.23-7.07,36.39-26.55,35.23-50.7Z"/>
</svg>