<?xml version="1.0" encoding="UTF-8"?>
<svg id="Layer_1" data-name="Layer 1" xmlns="http://www.w3.org/2000/svg" viewBox="0 0 800 800">
  <defs>
    <style>
      .cls-1 {
        fill: none;
      }

      .cls-2 {
        fill: #010101;
      }
    </style>
  </defs>
  <rect class="cls-1" width="800" height="800"/>
  <path class="cls-2" d="M764.61,566.51c-18.91-27.18-54.26-37.4-85.04-23.51-34.36,15.5-68.4,31.73-102.33,48.16-6.56,3.18-9.65,2.61-13.75-3.53-14.47-21.68-35.02-34.06-60.87-37.69-21.1-2.97-42.34-1.68-63.51-1.97-39.08-.54-76.4-4.57-112.7-23.26-44.55-22.93-92.26-20.72-138.84-2.22-14.56,5.78-14.48,6-14.17-9.41,.33-16.29-3.55-20.31-20.16-20.73-32.37-.82-64.74-1.7-97.11-2.34-16.72-.33-20.18,3.03-20.26,20.23-.18,37.78-.06,75.56-.06,113.35-2.02,0-4.03,0-6.05,0,0,38.17,.04,76.34-.02,114.51-.02,13,3.82,18.21,14.99,18.62,34.67,1.26,69.35,2.38,104.03,3.36,11.98,.34,17.84-4.51,17.8-16.08-.03-7.53,3.19-11.02,9.32-13.84,6.63-3.05,12.91-6.87,19.39-10.26,11.42-5.97,23.58-7.44,35.87-4.04,55.18,15.29,110.15,31.31,165.43,46.21,43.07,11.61,86.22,8.61,124.01-14.71,80.64-49.77,159.52-102.4,239.05-153.95,12.22-7.92,13.31-14.92,4.97-26.9Zm-623.83,58.87h-4.75c0,29.06-.19,58.12,.13,87.17,.08,7.26-1.95,9.62-9.5,9.19-18.52-1.04-37.09-1.32-55.64-1.51-6.36-.06-9.2-1.42-8.97-8.78,1.82-58.82,3.3-117.64,4.61-176.47,.14-6.12,2.19-7.75,8.01-7.49,19.58,.86,39.18,1.45,58.78,1.76,5.8,.09,7.57,1.85,7.5,7.89-.36,29.41-.16,58.83-.16,88.24Zm585.08-43.31c-48.09,31.31-96.3,62.43-144.48,93.59-19.4,12.55-39.17,24.57-58.13,37.76-41,28.53-84.94,32.48-131.97,18.67-49.36-14.49-99.03-27.94-148.54-41.95-22.58-6.39-44.21-4.73-64.48,7.53-8.21,4.96-10.74,4.04-10.35-6.28,1.51-39.68,2.55-79.39,3.07-119.09,.11-8.31,3.49-12.5,10.15-16.04,44.22-23.54,90.62-28.52,135.24-5.74,37.6,19.21,76.21,24.69,117.02,25.04,23.06,.2,46.28-1.59,69.19,2.66,21.44,3.97,35.66,16.92,44.39,36.53,3.1,6.97,2.69,10.26-6.55,9.93-43.51-1.54-87.05-2.51-130.58-3.69-2.31-.06-4.62-.34-6.93-.28-8.92,.22-15.36,4.24-15.34,13.6,.02,9.05,5.74,13.76,14.98,13.98,23.12,.55,46.23,1.22,69.35,1.81,3.85,.1,7.7,.01,9.71,.01,27.23,2.44,52.68,2.11,78.11,2.42,14.99,.18,20.49-4.53,18.95-18.98-1.07-9.95,2.61-14.11,11.01-17.94,32.54-14.85,64.82-30.29,97.08-45.74,12.49-5.98,24.91-7.63,37.78-1.68,3.48,1.61,8.36,2.89,9.04,6.54,.84,4.5-4.74,5.4-7.7,7.32Zm-10.34-350.98c-6.52-10.48-9.63-21.48-9.43-33.91,.53-33.54-14.38-58.54-43.77-74.44-11.93-6.46-21.01-15.06-27.86-26.75-16.14-27.52-40.57-41.62-72.39-41.54-15.51,.04-29.29-3.57-42.86-11.11-27.63-15.35-56.05-15.35-83.67,.1-13.56,7.59-27.4,11.06-42.9,11-31.38-.12-55.67,13.79-71.74,40.69-7.39,12.37-16.89,21.42-29.46,28.33-28.46,15.65-42.84,40.22-42.64,72.77,.08,12.75-2.77,24.14-9.53,35.06-17.68,28.55-17.71,57.57-.11,86.18,6.48,10.54,9.82,21.49,9.63,33.87-.53,34.04,14.53,59.25,44.36,75.31,11.59,6.24,20.37,14.66,27.03,26,16.6,28.28,41.54,42.7,74.41,42.15,14.33-.24,27.22,3.16,39.62,10.18,28.84,16.33,57.97,16.17,86.78-.1,12.04-6.8,24.52-11,40.37-9.71,31.3-.16,56.77-14,73.56-42.8,6.42-11,14.89-19.22,26.16-25.25,30.22-16.19,45.76-41.53,45.04-76.09-.25-12.03,2.89-22.68,9.22-32.8,18.08-28.93,18.24-58.14,.2-87.14Zm-31.41,71.33c-9.1,14.2-13.49,29.51-12.98,46.43,.67,22.2-9.18,38.6-28.78,48.89-14.49,7.6-26.53,17.68-34.53,32.14-11.72,21.2-29.38,31.77-53.82,30.37-16.39-.53-31.64,3.57-45.64,11.95-20.76,12.42-41.23,12.39-61.97-.09-13.98-8.41-29.27-12.65-45.66-11.79-24.51,1.28-41.9-9.45-53.71-30.58-7.42-13.29-18.06-23.53-31.72-30.38-21.82-10.94-32.41-28.24-31.53-52.93,.54-15.16-3.6-29.42-11.98-42.25-12.95-19.84-12.95-39.62,.04-59.46,8.61-13.15,12.38-27.79,12.02-43.37-.54-23.62,9.39-40.59,30.64-51.11,14.38-7.12,25.48-17.96,33.17-32.01,11.34-20.7,29.03-30.16,52.14-29.55,17.21,.45,33.03-3.45,47.78-12.26,19.56-11.68,39.36-11.95,59.02-.37,15.12,8.91,31.2,13.12,48.81,12.64,22.65-.61,40.2,8.62,51.41,28.85,7.96,14.38,19.23,25.37,33.89,32.83,20.96,10.66,31.4,27.55,30.47,51.25-.64,16.13,3.9,30.82,12.59,44.29,12.11,18.77,12.4,37.67,.35,56.49Zm-111.41-161.12c.21,6.68-2.14,10.21-4.4,13.83-52.78,84.59-105.52,169.21-158.33,253.78-6.31,10.11-14.59,13.07-21.82,7.65-8.73-6.54-6.89-14.17-1.8-22.31,53.02-84.86,105.92-169.79,158.86-254.7,4.13-6.63,9.16-11.45,17.9-8.86,6.39,1.9,9.33,6.33,9.59,10.61Zm32.75,169.26c-10.78-21.89-27.67-35.64-52.32-36.51-6.19,.59-11.48,.49-16.78,2.19-48.1,15.48-61.69,83.31-23.91,119.95,23.26,22.55,56.78,22.21,79.57-.82,21.29-21.51,27.2-56.87,13.45-84.81Zm-53.83,70.05c-16.12-.12-30.61-19.41-29.17-39.38,.36-5.03,1.56-10.16,3.33-14.88,4.42-11.84,15.34-19.85,26.04-19.82,11.32,.03,22.3,8.79,26.64,21.9,1.59,4.79,2.02,9.96,2.53,12.6-.14,22.39-13.81,39.69-29.37,39.58Zm-87.7-174.8c.31-16.35-4.33-31.22-13.97-44.38-24.94-34.01-70.47-33.37-94.6,1.23-17.59,25.21-17.33,61.97,.6,86.98,24.79,34.58,71.64,33.98,95.29-1.32,8.58-12.8,13.09-26.96,12.68-42.52Zm-60.32,34.89c-15.61,.21-27.91-14.92-28.08-34.53-.16-19.61,11.81-35.25,27.23-35.58,15.57-.34,28.47,16,28.23,35.72-.23,19-12.33,34.19-27.39,34.39Z"/>
</svg>