<?xml version="1.0" encoding="UTF-8"?>
<svg id="Layer_1" data-name="Layer 1" xmlns="http://www.w3.org/2000/svg" viewBox="0 0 800 800">
  <defs>
    <style>
      .cls-1 {
        fill: none;
      }
    </style>
  </defs>
  <rect class="cls-1" width="800" height="800"/>
  <path d="M650.65,317.08c-4.71-.7-8.52-2.44-11.78-5.79-8.97-9.2-18.31-18.06-27.22-27.32-7.37-7.66-7.78-16.25-1.61-22.38,5.99-5.95,15.05-5.2,22.56,1.65,6.17,5.64,11.3,16.58,18.28,15.92,6.58-.62,12.37-10.34,18.35-16.22,10.21-10.06,20.22-20.33,30.47-30.35,8.27-8.08,16.69-8.63,23.15-1.84,5.84,6.13,5.25,14.96-2.17,22.47-19.13,19.35-38.48,38.46-57.7,57.71-3.51,3.52-7.53,5.77-12.32,6.14Zm67.09-207.84c-6.38-3.17-11.56-.82-16,3.48-10.84,10.5-21.41,21.28-32.13,31.91-6,5.96-11.52,15.76-18.26,16.7-7.23,1.02-12.06-10.3-18.46-15.65-.28-.24-.53-.51-.8-.76-8.05-7.31-16.5-7.99-22.31-1.12-6.22,7.36-5.33,14.84,1.39,21.61,9.34,9.41,18.57,18.93,28.17,28.07,8.11,7.72,14.92,7.7,23.05-.3,19.69-19.36,39.12-38.99,58.64-58.53,3.17-3.17,5.94-6.58,5.58-10.94,.2-7.2-3-11.57-8.87-14.47Zm-132.23,545.58c22.26,0,22,0,21.53-22-.13-5.91-1.95-7.2-7.55-7.3-21.14-.39-21.3-.6-21.66-21.31-.09-5.17-.57-7.72-6.96-7.88-21.71-.55-22.09-.87-22.1,21.24,0,7.37-2.75,8.49-9.02,8.22-9.93-.43-19.89-.12-29.84-.12-21.36,0-21.08,0-20.9,21.39,.06,6.32,1.87,8.05,8.06,7.9,16.94-.4,33.89-.14,50.84-.14,12.53,0,25.05,0,37.58,0ZM95.35,94.52c-19.74,0-19.36,0-19.71,19.47-.14,7.66,1.93,9.99,9.75,9.87,29.44-.45,58.89-.18,88.34-.18,21.55,0,21.32,0,20.78-21.81-.14-5.79-1.73-7.58-7.51-7.46-17.29,.33-34.6,.12-51.9,.12-13.25,0-26.5,0-39.75,0Zm79.46,88.53c19.76,0,19.39,0,19.73-19.44,.13-7.62-1.85-10.03-9.72-9.9-29.44,.46-58.89,.18-88.34,.18-21.56,0-21.33,0-20.81,21.79,.14,5.75,1.66,7.61,7.48,7.5,16.93-.34,33.86-.12,50.79-.12,13.62,0,27.24,0,40.86,0Zm-79.72,88.52c-19.53,0-19.1,0-19.46,19.74-.15,8.05,2.62,9.68,10.03,9.58,29.44-.39,58.89-.16,88.34-.16,20.92,0,20.54,0,20.56-20.97,0-7.23-2.54-8.47-8.93-8.32-16.55,.39-33.13,.13-49.69,.13-13.62,0-27.24,0-40.86,0Zm79.78,88.53c19.72,0,19.33,0,19.68-19.5,.14-7.69-2-9.96-9.78-9.84-29.44,.45-58.89,.18-88.34,.18-21.55,0-21.3,0-20.76,21.84,.15,5.82,1.8,7.54,7.54,7.44,17.29-.32,34.6-.12,51.9-.12,13.25,0,26.5,0,39.75,0Zm-24.51,384.08c.27,8.83,5.5,13.79,13.9,14.04,8.52,.26,14.38-4.98,14.79-13.31,.75-15.43,.69-30.95,.03-46.39-.36-8.39-5.76-13.47-14.58-13.32-8.74,.15-13.72,4.93-14.13,13.68-.34,7.35-.07,14.73-.07,22.1,0,7.73-.19,15.47,.05,23.2Zm500.54-45.99c-.46-8.24-5.46-12.61-13.63-12.99-8.28-.39-14.29,4.11-14.75,11.83-.96,16.15-.96,32.42-.06,48.57,.46,8.27,6.8,13.24,15.33,12.61,7.83-.57,12.88-5.3,13.18-13.62,.26-7.36,.05-14.73,.04-22.1-.02-8.1,.34-16.22-.11-24.3Zm-248.06-43.64c-19.31,1.61-17.15-1.92-17.14,13.48,.01,19.29-2.54,16.88,14.44,16.9,17.76,.02,15.34,2.29,15.61-16.89,1.09-7.47,1.09-14.65-12.92-13.48Zm13.21-41.65c-1.5-16.28-.35-16.5-14.16-16.36-18.87,.19-16.02-2.38-16.2,13.96-.17,15.19-.04,15.19,16.83,15.19,7.65,1.16,14.82,1.15,13.53-12.79Zm-.16,117.83c-1.37-8.23,3.39-18.42-12.65-16.92-17.46,1.64-17.58,.36-17.58,13.96q0,15.6,16.74,15.6c7.04,.71,15.88,1.73,13.49-12.64Zm338.84,10.56c-.06,10.45-6.15,17.17-14.75,17.14-8.79-.03-14.01-6.29-14.34-17.29-.84-27.98,1.25-55.98-1.63-83.98-4.64-45.13-40.17-89.47-84.08-102.82-36.5-11.1-73.2-21.53-109.76-32.44-6.23-1.86-8.29-.57-7.92,6.21,.55,10.3-.12,20.66,.25,30.97,.2,5.52-1,7.67-7.2,7.53-28.02-.65-56.06-1.12-84.08-.81-10.51,.12-14.98-7.55-20.05-13.58-7.39-8.78-13.13-10.12-19.8-.11-7.91,11.88-18.96,15.17-33,14.79-22.46-.61-44.98,.52-67.46,1.34-6.25,.23-8.32-1.62-8.06-7.94,.47-11.41-.09-22.87,.22-34.29,.15-5.64-1.29-6.89-6.92-5.25-39.46,11.49-79.42,21.41-118.42,34.26-48.4,15.94-81.21,64.9-81.96,118.54-.31,22.12,.02,44.26-.09,66.39-.06,11.99-5.13,18.39-14.22,18.49-8.95,.1-15.08-6.85-14.82-18.14,.67-29.83-1.6-59.67,1.73-89.5,6.32-56.65,53.82-111.89,108.76-126.8,48.49-13.16,96.7-27.36,145.1-40.87,5.99-1.67,8.04-4.38,7.87-10.71-.48-18.06-.31-36.14-.07-54.21,.06-4.8-1.22-8.18-4.88-11.48-33.5-30.17-50.91-68.22-51.86-112.99-.78-36.83-2.06-73.73,1.09-110.55,5.12-59.76,49.17-111.96,107.64-127.54,85.74-22.86,169.87,31.27,185.11,118.77,4.16,23.88,.72,47.84,2.5,72.03-2.01,23.53,1.72,47.42-2.53,71.34-6.09,34.22-21.63,63-46.55,86.73-5.62,5.35-7.82,10.54-7.58,18.13,.53,16.58,.44,33.2,.02,49.78-.15,6.09,1.47,9.13,7.64,10.88,47.28,13.44,94.4,27.43,141.69,40.81,63.33,17.92,110.18,77,112.25,143.08,.77,24.69,.31,49.42,.16,74.13ZM282.88,202.67c0,6.26-.07,12.53,.04,18.79,.04,2.36-.87,5.98,3.13,5.67,9.41-.72,18.94,2.85,27.74-5.82,15.48-15.25,40.08-16.43,58.05-4.17,5.19,3.54,8.7,5.3,15.3,1.99,9.47-4.74,20.06-4.15,29.68,1.19,3.76,2.09,6.08,1.39,9.63-1.05,21.92-15.07,44.01-13.58,63.51,3.71,3.73,3.3,24.18,6.22,28.23,4.15,2.61-1.33,2.02-3.67,1.97-5.72-.37-14.68,.34-29.3-2.05-44.03-10.62-65.3-78.62-110.14-143.08-94.91-49.24,11.63-94.47,57.2-92.14,120.2Zm172.67,35.73c-10.28,.25-17.73,8.09-17.66,18.59,.07,10.19,8.09,18.43,18.01,18.5,10.35,.08,18.51-8.64,18.17-19.41-.33-10.37-8.25-17.94-18.52-17.69Zm-110.02,0c-10.7-.11-18.58,8.1-18.28,19.04,.28,10.19,8.56,18.3,18.45,18.05,9.96-.25,17.79-8.53,17.74-18.76-.05-10.47-7.62-18.22-17.91-18.33Zm147.45,275.88c-.39-5.57-6.03-4.5-9.51-5.56-18.61-5.66-20.32-7.74-20.33-26.91,0-16.47,0-32.94,0-50.7-22.94,10.3-45.41,16.41-69.38,15.86-8.92-.2-14.15-4.7-14.93-13-.85-9.04,4.72-14.22,13.28-16.21,1.41-.33,2.94-.08,4.41-.14,53-1.86,96.71-33.44,115.38-83.03,8.37-22.22,8.78-45.29,8.23-68.5-.1-4.22,2.33-10.04-6.13-9.8-6.03,.17-10.82,.2-11.29,8.05-.23,3.94-1.35,8.03-2.94,11.66-8.42,19.25-29.14,31.13-49.1,28.47-22.51-3-37.81-18.61-42.09-41.88-1.12-6.07,2.35-16.51-8.1-16.5-9.59,.02-6.62,9.87-7.63,15.75-4.31,25.09-22.09,41.95-45.85,42.85-24.1,.91-43.37-14.95-48.41-40.73-1.33-6.81-4.57-7.85-10.53-7.65-6.95,.23-4.99,5.02-5.13,8.62-.23,6.26,.11,12.54-.09,18.8-1.42,43.82,14.66,79.63,49,107.01,5.4,4.31,7.33,9.51,7.28,16.28-.21,26.91-.29,53.82,.02,80.73,.12,10.36-3.48,17.31-14.19,18.8-10.81,1.51-14.92,7.23-12.87,17.84,.41,2.13,.34,4.46,0,6.62-.97,6.27,2.34,6.53,7.54,7.12,30.45,3.47,56.49-3,74-30.57,.58-.92,1.55-1.59,2.2-2.48,3.26-4.45,6.13-3.71,9.67,.01,8.39,8.8,17.18,17.21,25.64,25.94,3.23,3.33,6.56,5.38,11.48,5.36,14.37-.05,28.75,.39,43.13,.54,2.46,.03,6.53,1,6.87-1.75,.86-6.89,.86-13.98,.37-20.92Z"/>
</svg>