<?xml version="1.0" encoding="UTF-8"?>
<svg id="Layer_1" data-name="Layer 1" xmlns="http://www.w3.org/2000/svg" viewBox="0 0 800 800">
  <defs>
    <style>
      .cls-1 {
        fill: #010201;
      }

      .cls-2 {
        fill: none;
      }
    </style>
  </defs>
  <rect class="cls-2" width="800" height="800"/>
  <path class="cls-1" d="M737.85,485.96c-14.94-3.38-22.27-21.94-14.25-35.28,6.42-10.68,15.54-20.25,15.02-34.02-.06-9.74-1.88-13.05-13.55-24.77-31.06-31.2-32.59-31.38-70.16-8.27-12.58,7.74-31.31-.52-34.49-15.15-1.47-6.76-2.86-13.55-4.77-20.19-4.66-16.14-14.3-22.61-34.41-22.22-20.01,.38-43.33-6.14-51.6,21.99-1.49,5.07-2.8,10.21-3.88,15.39-4.72,22.66-20.88,29.51-40.51,17.1-4.47-2.83-8.85-5.86-13.53-8.3-14.87-7.75-25.43-6.12-37.63,5.67-6.44,6.22-12.82,12.52-18.99,19.01-9.46,9.96-11.29,22.44-5.08,34.84,2.36,4.72,4.84,9.57,8.21,13.55,7.96,9.39,9.06,18.3,3.11,29.71-3.44,6.61-6.61,10-13.85,11.11-7.99,1.22-15.99,3.28-23.59,6.06-14.21,5.21-20.28,13.87-19.62,30.16,.78,19.33-7.39,42.47,18.29,53.05,8.19,3.38,17.09,5.36,25.85,6.92,6.8,1.21,9.2,5.1,12.86,10.59,8.94,13.42,1.62,22.51-4.98,32.81-14.94,23.34-13.77,32.91,5.59,52.27,29.22,29.22,31.52,29.58,67.24,7.04,6.39-4.03,11.41-4.61,19-2.09,11.91,3.97,15.91,11.27,18.05,22.78,4.57,24.66,9.48,37.39,43.86,37.06,35.34-.34,42.85-4.12,49.95-41.66,1.62-8.56,5.45-12.96,13.42-16.63,9.72-4.47,17.35-4.54,25.55,2.41,4.29,3.64,9.43,6.42,14.48,9.03,15.08,7.79,25.28,6.17,37.56-5.74,6.43-6.24,12.81-12.53,18.99-19.01,9.68-10.14,11.53-22.13,5.1-34.73-3.13-6.15-6.54-12.29-10.75-17.71-5.63-7.23-4.7-13.47-2.29-22.15,4.13-14.88,15.85-14.5,26.3-16.91,26.33-6.09,32.62-13.43,32.64-40.01,.03-41.76-2.1-44.41-43.15-53.7Zm18.48,38.39c-.95,34.7,5.65,26.73-26.78,33.85-15.18,3.33-22,10.58-29.11,24.49-10.81,21.14-8.37,37.5,6.13,53.97,8.84,10.04,8.17,18.43-2.88,26.18-2.96,2.07-5.6,4.82-7.79,7.71-4.48,5.91-9.21,5.7-14.51,1.4-.31-.25-.78-.33-1.05-.61-21.99-22.63-45.58-17.99-70.09-4.6-5.45,2.98-9.28,6.28-10.59,12.33-1.03,4.77-2.09,9.53-3.2,14.29-6.07,25.97-9.09,27.91-36.07,24.31-3.7-.49-6.15-1.66-7.23-5.24-.7-2.33-2.04-4.72-1.93-7.02,1.65-34.31-24.22-42.69-48.94-52.16-1.12-.43-2.36-.54-3.48-.78-6.67,.2-11.07,4.95-16.38,7.77-1.43,.76-2.74,1.76-4.11,2.63-23.41,14.71-23.23,14.54-42.02-5.1-4.86-5.08-5.57-9.21-1.69-14.89,4.82-7.05,9.2-14.39,13.75-21.62,1.3-2.06,2.75-4.08,3.72-6.3,4.93-11.36-14.06-50.71-26-53.82-7.87-2.05-15.73-4.81-23.74-5.48-11.98-1.01-14.07-7.29-13.71-17.91,.93-26.76-2.99-20.46,22.04-27.1,3.53-.94,7.12-1.8,10.74-2.24,11.38-1.39,18.89-6.78,20.5-18.78,.16-1.17,.73-2.38,1.42-3.36,14.08-20.14,10-38.49-5.42-55.75-8.16-9.13-6.8-16.3,2.56-24.48,18.43-16.1,10.61-17.36,33.64-3.28,3.12,1.91,6.5,3.53,9.27,5.88,9.3,7.89,18.73,8.91,28.77,1.51,1.28-.94,2.86-1.81,4.4-2.03,24.19-3.45,31.9-20,34.05-41.66,.56-5.59,.07-14.09,7.47-15.1,10.31-1.41,21.24-2.52,31.33,.89,4,1.35,4.48,7.71,4.74,11.94,1.47,23.97,12.04,38.26,36.49,45.82,13.75,4.25,23.54,5.61,34.29-3.39,.62-.52,1.34-.92,2.03-1.36,24.12-15.31,23.99-15.19,42.9,6.17,3.97,4.49,4.41,8.1,1.2,12.92-4.96,7.45-9.59,15.11-14.35,22.69-.87,1.38-1.8,2.72-2.56,4.16-6.09,11.46,11.19,52.14,23.74,55.46,9.82,2.6,19.73,4.98,29.7,6.92,6.33,1.23,8.91,4.3,8.73,10.8ZM408.72,242.78c-.25-15.61-6.31-23.97-21.21-28.84-5-1.63-10.29-2.38-15.4-3.7-18.75-4.85-24.34-18.7-14.15-34.89,2.38-3.79,4.86-7.52,7.03-11.43,8.7-15.69,7.33-25.5-5.2-38.41q-30.85-31.78-69.8-9.46c-9.48,5.43-26.1-2.05-28.54-12.82-1.53-6.74-2.83-13.56-4.78-20.18-3.97-13.5-13.09-21.76-26.34-21.24-19.26,.76-42.29-7.92-53.47,17.4-2.76,6.24-3.91,13.25-5.36,20-3.7,17.13-18.51,23.65-33.28,14.47-3.8-2.36-7.57-4.77-11.38-7.12-10.78-6.64-23.26-10.37-32.88-1.24-13.29,12.61-33.06,21.7-31.89,44.66,.24,4.64,2.81,9.27,4.86,13.66,1.71,3.66,4.21,6.95,6.37,10.4,11.39,18.12,5.76,31.72-15.24,36.83-5.52,1.34-11.18,2.32-16.49,4.27-11.93,4.39-19.04,13.09-18.19,25.99,1.18,17.79-7.21,38.53,13.71,50.93,6.34,3.76,13.67,4.99,20.9,6.41,20.34,4,26.67,18.5,15.84,35.77-2.59,4.14-5.32,8.21-7.63,12.5-6.11,11.37-7.55,23.41,2.37,32.7,13.83,12.96,23.43,34.83,48.5,27.8,6.47-1.82,12.32-6.16,18.17-9.79,18.68-11.58,31.97-6.17,36.72,15.08,.98,4.37,2.15,8.69,3.39,12.99,4.61,15.9,14.04,22.27,33.18,22.32,19.4,.05,40.52,3.66,48.23-21.92,1.64-5.45,2.91-11.02,4.11-16.58,3.44-15.93,18.57-22.42,32.47-14.1,9.65,5.78,18.36,13.94,30.98,13.25,7.3,.5,13.26-2.76,18.4-7.75,6.13-5.95,12.26-11.92,18.17-18.08,10.71-11.16,12.34-20.67,5.66-34.39-2.48-5.1-5.71-9.85-8.73-14.67-10.08-16.09-3.86-30.88,14.67-34.92,5.16-1.12,10.41-2.02,15.39-3.7,15.07-5.09,20.62-12.96,20.86-29.01,.11-7.73,.12-15.47,0-23.2Zm-34.82,30.68c-35.84,7.33-37.12,8.9-48.55,44.64-1.51,4.71-.76,8.8,1.65,12.81,2.73,4.53,5.52,9.02,8.33,13.5,10.86,17.32,8.51,27.41-8.81,37.55-1.33,.78-2.86,1.24-4.66,2-8.07-5.06-16.29-9.59-23.8-15.09-8.54-6.27-15.95-4.77-25.9-2.02-24.48,6.76-36.64,21.28-37.72,46.2-.35,7.99-5.02,10.67-13.07,10.24-23-1.22-21.4,5.31-25.92-21.37-2.73-16.12-10.75-23.62-25.51-31.17-20.25-10.36-34.88-5.72-49.46,7.05-13.35,11.7-18.5-.94-26.61-7.1-9.12-6.93-7.16-14.06-.74-20.27,22.82-22.09,8.92-43.6-.4-65.19-1.92-4.44-6.65-5.71-11.09-6.76-6.34-1.49-12.63-3.88-19.03-4.24-11.96-.67-15.73-5.98-15.02-17.9,1.07-17.9,.29-17.86,19.88-22.66,8.18-2,19.05-.58,23.55-8.13,6.98-11.7,11.27-25.04,16.26-37.85,1.37-3.52-.69-7.15-2.69-10.31-2.83-4.47-5.65-8.94-8.46-13.42-10.37-16.52-7.81-26.56,9.19-36.57,2.29-1.35,4.48-1.85,6.88-.65,1.45,.72,3.1,1.32,4.2,2.43,20.33,20.66,42.12,16.44,64.78,4.38,5.87-3.13,9.85-6.73,11.05-13.4,1.22-6.8,3.31-13.47,4.24-20.3,1.36-10.04,5.46-14.53,16.69-13.94,19.68,1.03,20.26,.16,23.4,20.22,2.53,16.11,9.57,25.02,25.69,32.4,19.09,8.75,32.6,6.25,47.5-5.51,4.19-3.31,9.65-9.64,14.79-6.27,7.63,5,13.55,12.64,19.96,19.39,.68,.72,0,3.05-.49,4.48-.52,1.51-1.32,3.08-2.44,4.2-20.37,20.37-16.84,42.1-4.39,64.83,2.96,5.41,5.93,9.5,12.14,10.69,4.39,.84,8.74,1.94,13.11,2.9,21.95,4.82,21.62,4.82,21.76,27.09,.05,7.87-2.12,11.45-10.3,13.12Zm5.22,331.96c-15.66-15.99-31.78-31.53-47.38-47.57-10.21-10.5-20.36-21.28-36.77-14.45-16,6.66-15.77,21.23-14.93,35.34,.44,7.42-2.05,9.85-9.63,9.75-30.52-.39-61.04-.48-91.56,.04-8.82,.15-10.88-2.86-10.76-11.14,.44-30.11,.31-60.22,.12-90.34-.15-23.66-15.27-39.76-36.91-39.83-21.76-.07-36.93,16-37.09,39.64-.16,22.79-.03,45.58-.04,68.36,0,21.16-.02,42.32,0,63.48,.04,30.07,13.91,44.06,43.99,44.13,40.69,.09,81.39,.02,122.08,.02,19.21,0,19.48,0,19.59,18.95,.07,11.68,3.93,21.04,14.87,25.74,11.35,4.87,21.29,1.52,29.88-7.21,17.98-18.27,36.28-36.22,54.27-54.48,13.46-13.65,13.57-26.85,.25-40.45Zm-18.1,23.36c-17.92,18.02-35.8,36.1-56.37,56.86,0-12.68,.13-21.45-.03-30.21-.25-13.94-3.83-17.36-18.83-17.39-48.41-.09-96.81-.02-145.22-.04-19.55,0-21.66-2.13-21.66-21.78-.01-42.3,.04-84.61-.04-126.91-.02-7.81,.7-15,10.07-16.93,8.91-1.83,14.5,4.18,14.54,15.99,.12,34.58,.03,69.15,.06,103.73,.02,18.37,2.62,20.93,21.36,20.95,39.86,.03,79.73,.05,119.59,0,16.99-.02,20.07-3.1,20.17-19.73,.05-7.91,0-15.82,0-23.73,1.03-.47,2.06-.95,3.09-1.42,17.54,17.82,35.06,35.65,52.63,53.44,2.29,2.32,3.39,4.41,.63,7.18ZM693.5,228.65c0-21.98,.04-43.95,0-65.93-.06-28.51-14.2-42.69-42.83-42.75-41.11-.09-82.21-.02-123.32-.02-18.85,0-19.03,0-19.44-19.03-.26-12.05-4.3-21.78-16.08-26.22-11.09-4.18-20.52-.55-28.73,7.79-17.99,18.27-36.32,36.19-54.34,54.42-13.34,13.5-13.4,26.96-.12,40.48,15.68,15.97,31.73,31.57,47.41,47.54,9.86,10.05,19.48,20.99,35.59,14.86,16.83-6.4,16.99-21.27,16.08-35.86-.47-7.62,2.15-9.74,9.61-9.65,30.52,.37,61.05,.47,91.57-.05,8.83-.15,10.86,2.88,10.75,11.15-.43,30.52-.35,61.05-.1,91.57,.18,22.72,15.56,38.45,36.91,38.44,21.42-.01,36.78-15.74,37-38.38,.22-22.79,.05-45.58,.05-68.37Zm-24.77,65.33c-.02,12.07-5.12,17.91-14.12,16.43-9.51-1.57-10.47-8.68-10.45-16.54,.08-34.58,.06-69.16,.02-103.73-.02-17.78-2.63-20.37-20.67-20.39-39.87-.04-79.73-.03-119.6,0-18.45,.01-20.78,2.46-20.83,21.43-.02,7.24,0,14.48,0,23.17-6.74-2.47-9.77-7.43-13.57-11.14-13.38-13.08-26.53-26.39-39.73-39.66-3.05-3.06-7.63-5.92-2.03-10.72,1.54-1.32,2.9-2.84,4.33-4.29,15.94-16.19,31.89-32.38,47.83-48.56,1.06,.47,2.12,.94,3.17,1.41,0,8.4-.1,16.81,.02,25.21,.21,14.57,3.53,18.02,18.07,18.04,48.82,.09,97.63,.02,146.45,.04,18.43,0,21.13,2.73,21.14,21.16,.02,42.71,.06,85.43-.03,128.14Zm-95.47,160.84c-43.57-.53-79.63,34.72-80.04,78.25-.41,44.25,35.18,80.34,79.25,80.35,43.52,.01,79.38-35.57,79.59-78.97,.21-43.53-34.99-79.1-78.81-79.64Zm-.75,133.84c-29.91-.02-54.35-24.24-54.54-54.05-.2-30.58,24.14-55.1,54.66-55.08,29.92,.02,54.42,24.21,54.7,53.98,.28,30.25-24.49,55.16-54.82,55.14ZM216.38,180.4c-41.07-.2-74.34,33.19-74.21,74.48,.12,40.84,32.77,73.64,73.54,73.88,40.93,.24,74.48-33.32,74.41-74.43-.06-40.41-33.3-73.73-73.74-73.93Zm-.17,123.6c-27.48,.15-49.5-22.13-49.28-49.86,.22-27.1,22.03-48.93,48.97-49,27.25-.08,49.67,22.55,49.48,49.92-.19,26.92-22.16,48.79-49.17,48.94Z"/>
</svg>