<?xml version="1.0" encoding="UTF-8"?>
<svg id="Layer_1" data-name="Layer 1" xmlns="http://www.w3.org/2000/svg" viewBox="0 0 800 800">
  <defs>
    <style>
      .cls-1 {
        fill: none;
      }

      .cls-2 {
        fill: #050505;
      }
    </style>
  </defs>
  <rect class="cls-1" width="800" height="800"/>
  <path class="cls-2" d="M216.88,140.62c33.01,0,66.01-.1,99.02,.07,8.89,.05,21-2.36,20.73,11.51-.24,12.41-11.32,11.15-20.22,11.06-3.22-.03-6.44,0-9.66,0-62.79,0-125.58-.02-188.37,.04-4.4,0-8.99-.19-13.15,.96-11.77,3.25-17.67,12.24-17.69,26.78-.1,57.56,0,115.12-.09,172.67-.01,9.06,1.85,21.06-11.41,21.19-14.14,.14-12.07-12.2-12.07-21.7-.04-56.75-.05-113.51,0-170.26,.03-32.46,19.01-51.94,51.49-52.24,33.81-.32,67.62-.07,101.43-.07Zm282.55,0c-8.05,0-16.1-.01-24.14,.16-6.97,.15-12.18,3.72-12.13,10.69,.05,7.31,5.01,11.52,12.66,11.72,3.22,.08,6.44,.05,9.66,.05,64.8,0,129.61,0,194.41,0,25.36,0,33.11,7.71,33.12,33.06,.02,55.95,0,111.9,.03,167.84,0,4.01-.1,8.1,.56,12.03,1,5.99,5.27,9.09,11.08,9.07,5.92-.02,9.74-3.66,10.94-9.37,.65-3.1,.33-6.41,.33-9.63,.01-57.56,.04-115.12,0-172.67-.03-34.18-18.58-52.78-52.96-52.93-33-.14-66.01-.03-99.02-.03-28.18,0-56.35-.01-84.53,0Zm-193.74,341.88c9.21,0,18.43-.03,27.64,0,7.88,.03,13.5-2.64,13.34-11.6-.15-8.31-5.41-10.7-12.85-10.66-18.83,.11-37.66,.13-56.49,0-7.13-.05-11.96,3.02-12.37,10.12-.45,7.69,4.28,11.84,11.88,12.02,9.61,.23,19.23,.05,28.84,.05,0,.02,0,.03,0,.05Zm481,133.25c-.55,9.63,.18,19.29-4.18,28.36-10.16,21.15-27.91,28.62-50.21,28.6-110.75-.08-221.5-.04-332.25-.04-109.54,0-219.09,0-328.63,0-40.11,0-58.2-18.13-58.21-58.25,0-1.21,0-2.42,0-3.62,0-33.66,4.79-38.88,38.31-38.32,9.92,.17,12.82-2.25,12.68-12.44-.59-43.89-.26-87.79-.25-131.69,0-3.22-.31-6.5,.2-9.65,1.01-6.26,4.9-10.3,11.28-10.59,6.64-.3,10.4,3.93,11.58,10.1,.67,3.51,.44,7.22,.45,10.83,.02,43.9,.11,87.8-.08,131.69-.03,7.14-.08,11.9,9.77,11.88,9.61-.02,9.96-4.33,9.95-11.71-.16-108.74,.61-217.48-.55-326.21-.35-33,19.16-45.89,45.57-45.09,45.87,1.39,91.81,.39,137.72,.39,2.82,0,5.64-.01,8.46,.02,7.56,.08,12.4,3.21,12.4,11.42,0,8.45-5.43,10.94-12.71,11.16-3.22,.1-6.44,.04-9.66,.04-45.91,0-91.82-.03-137.73,.02-17.66,.02-21.36,3.71-21.36,20.97,0,108.74,.13,217.47-.24,326.21-.03,10.01,2.57,12.64,12.58,12.62,172.37-.31,344.74-.33,517.11,.04,10.56,.02,12.21-3.27,12.18-12.84-.34-108.74-.21-217.47-.22-326.21,0-17.61-3.22-20.79-21.28-20.8-46.72-.04-93.43,0-140.15-.05-4.01,0-8.1-.03-12.01-.79-5.51-1.07-7.96-5.16-8.03-10.55-.07-5.51,2.81-9.36,8.04-10.64,3.45-.85,7.19-.61,10.81-.61,47.52-.03,95.05-.04,142.57-.02,29.95,.01,42.59,12.4,42.62,42.38,.09,109.14,.06,218.28-.02,327.42,0,7.24-.7,13.15,10.15,12.81,8.56-.27,9.85-3.4,9.8-10.73-.24-43.9-.12-87.79-.11-131.69,0-3.62-.08-7.26,.18-10.87,.51-7.16,4.69-11.41,11.67-11.16,6.96,.25,10.73,4.84,11.02,11.92,.11,2.82,.05,5.64,.05,8.46,0,44.3,.09,88.6-.09,132.9-.03,6.82,.18,11.65,9.32,10.91,34.26-2.75,43.75,4.77,41.54,43.4Zm-453.04-14.75c.3,6.43,4.94,6.33,9.49,6.33,18.88,.01,37.76,0,56.64,0,18.88,0,37.76,0,56.64,0,4.88,0,10.16,.57,10.4-6.64,.26-7.69-5.69-5.3-9.45-5.32-38.16-.16-76.32-.14-114.48-.04-3.97,.01-9.58-1.8-9.23,5.66Zm430.84,3.47c-.17-7.76-2.7-9.25-9.76-9.24-84.94,.21-169.89,.2-254.83,.02-7.15-.02-10.51,.9-10.79,9.57-.49,15.23-11.62,24.95-26.9,25.01-41.46,.17-82.93,.17-124.4-.02-14.45-.07-26.67-9.78-26.87-23.93-.16-11.38-5.65-10.61-13.31-10.6-80.11,.13-160.23,.08-240.34,.08q-21.57,0-21.42,21.54c.17,23.92,8.76,32.42,32.88,32.42,110.71,.01,221.42,0,332.13,0,106.68,0,213.38-.87,320.04,.43,42.81,.52,44.25-14.19,43.55-45.29Zm-170.52-149.83c-.38,11.67-.22,23.36-.08,35.03,.11,9.28-4.43,15.24-12.75,18.47-21.32,8.29-42.6,16.72-64.09,24.55-13.55,4.94-23.49,1.92-30.65-11.39-6.67-12.4-15.16-16.41-28.83-15.18-14.78,1.33-29.78,.42-44.67,.24-5.37-.06-8.66,.21-8.8,7.46-.24,12.99-6.24,23.37-18.94,28.21-12.15,4.63-23.02,1.63-31.79-7.84-3.62-3.91-7.92-3.23-12.25-3.25-27.38-.1-54.78,.42-82.15-.38-23.31-.68-43.99-18-50.31-40.29-6.75-23.78,1.38-48.38,20.66-62.2,6.71-4.81,14.3-10.21,21.06-1.45,6.67,8.63,.57,14.28-6.71,19.53-13.13,9.47-17.71,24.1-12.94,38.28,4.84,14.39,18.02,24.05,34.04,24.17,29.4,.21,58.8,.14,88.19,0,6.3-.03,12.23,.13,15.41,6.76,1.69,3.53,3.89,6.58,8.24,5.17,4.09-1.33,4.61-5.19,4.62-8.94,.03-13.69,.01-27.38,.01-41.08,0-13.29,.04-26.58-.03-39.87-.02-4.17-.46-8.45-5.92-8.85-4.6-.34-6.13,2.87-6.82,6.8-1.43,8.24-6.81,11.09-14.69,11.04-20.94-.13-41.88-.06-62.82-.04-8.1,0-14.88-2.07-14.64-11.81,.24-9.79,7.26-11.19,15.25-11.06,10.87,.17,21.75-.07,32.62,.07,12.19,.16,23.58,1.37,32.58-11.26,6.42-9.01,18.74-8.58,29.09-4.81,11.27,4.11,17.67,13.36,17.96,24.93,.24,9.56,3.98,11.03,12.28,10.73,16.89-.59,33.83-.52,50.73,0,6.85,.21,10.78-2.06,14.48-7.79,15.34-23.7,19.64-24.83,46.36-14.55,17.24,6.63,34.44,13.38,51.79,19.7,10.01,3.64,14.84,10.08,14.49,20.89Zm-22.59,9.91c.07-7.32-2.27-10.67-9.11-12.97-13.29-4.46-26.67-9.03-39.22-15.18-12.06-5.92-19.83-4.59-25.21,8.3-4.56,10.93-13.07,14.73-25.08,14.2-19.65-.87-39.4,.39-59.05-.47-11.74-.51-9.18,6.82-9.3,13.25-.12,6.74-1.72,13.9,9.68,12.88,10.76-.97,21.68-.21,32.53-.2,10.85,0,21.7,0,32.55,0,.4,0,.81,.04,1.21,.01,5.2-.38,9.15,1.57,12.56,5.62,5.78,6.84,7.5,19.51,16.8,20.17,8.33,.59,17.15-5.71,25.75-9.01,5.23-2.01,10.44-4.07,15.66-6.14,20.38-8.07,20.02-8.08,20.24-30.44Zm-87.84-92.84c-27.77,.22-55.55,.04-83.33,.04-27.78,0-55.55,.18-83.33-.04-39.32-.32-60.02-35.62-40.66-69.62,27.43-48.19,55.07-96.27,82.99-144.18,20.16-34.58,61.41-34.77,81.57-.3,27.99,47.88,55.63,95.98,83.02,144.21,19.39,34.13-1.16,69.58-40.26,69.89Zm19.8-59.85c-27.11-47.42-54.41-94.72-81.81-141.96-11.82-20.37-31.22-20.17-43.15,.43-27.16,46.89-54.21,93.85-81.13,140.87-12.14,21.2-2.67,37.67,21.59,37.8,26.95,.14,53.89,.03,80.84,.03,27.35,0,54.7,.12,82.05-.04,23.75-.13,33.4-16.53,21.63-37.13Zm-91.82-103.4c-.19-6.87-3.5-11.72-10.88-11.91-7.95-.21-11.8,4.58-11.87,12.12-.18,18.49-.2,36.99,.04,55.49,.09,6.8,3.62,11.89,10.84,12.11,7.85,.23,11.61-4.96,11.87-12.31,.33-9.24,.08-18.49,.08-27.74,0-9.25,.19-18.5-.07-27.74Zm-10.71,114.41c7.17-.38,10.7-5.51,10.63-12.27-.09-7.4-3.86-12.29-11.96-11.92-7.51,.34-10.19,5.35-10.74,11.99,.75,7.44,4.17,12.62,12.08,12.21Z"/>
</svg>