<?xml version="1.0" encoding="UTF-8"?>
<svg id="Layer_1" data-name="Layer 1" xmlns="http://www.w3.org/2000/svg" viewBox="0 0 800 800">
  <defs>
    <style>
      .cls-1 {
        fill: #020202;
      }

      .cls-2 {
        fill: none;
      }
    </style>
  </defs>
  <rect class="cls-2" width="800" height="800"/>
  <path class="cls-1" d="M566.64,140.34c19.67-12.29,38.23-23.9,58.59-36.62-18.98-11.91-36.74-23.13-54.6-34.19-4.28-2.65-4.76,.22-5.23,3.83-2.38,18.63-2.57,18.72-20.72,18.72-126.03,0-252.06,0-378.09,0-11.39,0-17.51-10.27-12.52-20.77,1.25-2.63,3.36-2.63,5.6-2.68,3.04-.06,6.07-.03,9.11-.03,120.34,0,240.67-.16,361.01,.28,10.42,.04,13.53-2.92,12.09-12.63-.55-3.71-.38-7.61,.05-11.36,1.15-10.02,9.43-15.01,17.95-9.82,31.37,19.12,62.54,38.58,93.46,58.43,8.63,5.54,8.48,14.98-.2,20.52-30.68,19.6-61.56,38.89-92.66,57.82-9.67,5.89-17.73,.63-18.72-10.92-.6-7.07,3.39-16.93-1.86-20.5-5.26-3.57-14.56-1.38-22.08-1.39-109.33-.04-218.66,0-327.98-.14-4.14,0-10.56,2.56-11.97-2.89-1.55-6-1.3-13.03,.26-19.07,1.01-3.89,6.76-1.94,10.35-1.94,69.85-.1,139.7-.07,209.54-.07,47.07,0,94.14,0,141.21,0q24.25,0,27.39,25.41ZM261.29,679.87c55.44,0,110.87,0,166.31,0,61.89,0,123.78,.04,185.67-.1,3.44,0,9.04,2.33,10.03-2.16,1.35-6.14,1.7-13.27-.21-19.1-1.53-4.68-8.12-2.07-12.38-2.07-108.97-.13-217.94-.06-326.92-.2-7.82-.01-17.48,3.41-23-1.84-4.67-4.44-.98-13.72-1.51-20.83-.85-11.47-8.9-16.17-18.81-10.09-30.69,18.83-61.25,37.9-91.61,57.26-9.16,5.84-9.38,15.55-.39,21.27,30.67,19.53,61.53,38.78,92.61,57.65,9.32,5.66,17.41,.66,18.17-10.1,.13-1.89,.03-3.79,.04-5.69q.06-17.08,17.69-17.08c105.93,0,211.87,0,317.8,0,14.81,0,29.62,.05,44.42-.05,2.84-.02,6.11,1.06,8.09-2.44,5.44-9.61-1.03-21.43-11.82-21.43-126.44,0-252.88,0-379.31,0-2.66,0-5.35-.22-7.97,.11-7.29,.93-11.86,4.75-12.16,12.5-.14,3.67-.02,7.34-.02,13.29-20.5-12.81-39.29-24.55-59.73-37.31,20.12-12.57,38.89-24.3,59.03-36.88q1.73,25.3,25.98,25.3ZM142.86,114.61c-7.82,.74-14.78-.69-13.67,11.28,.76,8.14-.14,14.87,11.58,13.42,7.57-.94,16.27,1.28,13.09-11.26,1.55-8.73,.37-14.52-11-13.44Zm-47.93-.13c-9.27,.29-12.11,2.46-11.99,11.95,.11,9.26,1.43,13.53,12.19,13,9.04-.45,13.91-1.99,11.28-11.98,2.01-9.51-.85-13.3-11.47-12.97ZM707.16,655.95c-8.84,.35-13.41,.95-13.15,11.97,.24,9.98,2.75,12.66,12.6,12.35,8.93-.28,13.89-1.76,11.29-11.72,1.8-8.85-.52-13.01-10.74-12.6Zm-47.41-.03c-9.73,.14-12.83,2.34-12.67,12.47,.14,9.33,2.45,12.33,11.91,11.76,8.21-.5,15.63,.25,12.32-11.49,2.29-9.92-1.33-12.9-11.55-12.75Zm-294.24-137c.19,13.28,.23,26.57,0,39.85-.43,24.8-14.4,38.67-39.1,38.73-41.77,.11-83.54,.03-125.31,.03-41.39,0-82.78,.05-124.18-.02-27.26-.04-40.96-13.97-41.02-41.51-.03-12.91-.15-25.81,.03-38.72,.26-18.6,8.98-31.56,26.99-35.93,10.07-2.44,8.32-8.34,8.75-14.94,.43-6.65-1.31-9.56-8.62-11.38-17.62-4.37-26.86-17.51-27.11-35.93-.19-14.04-.15-28.09-.01-42.13,.19-19.72,9.32-32.4,28.4-37.25,7.26-1.84,7.98-5.71,7.17-11.27-.75-5.15,3.28-11.39-6.62-13.93-20.57-5.29-28.87-17.73-28.96-39.13-.05-12.91-.1-25.81,0-38.72,.2-24.89,14.48-39.05,40.02-39.11,59.24-.15,118.48-.05,177.72-.05,23.92,0,47.85-.12,71.77,.03,26.27,.17,39.81,13.76,40.11,40.08,.14,12.9,.17,25.81,0,38.72-.29,21.05-8.33,32.91-28.63,38.17-9.84,2.55-5.91,8.75-6.65,13.93-.8,5.59,0,9.4,7.19,11.27,18.85,4.9,27.56,16.67,28.04,36.28,.36,14.41,.36,28.85,0,43.27-.49,19.44-9.33,31.6-28.21,36.2-7.81,1.9-7.35,6.06-7.03,11.31,.33,5.42-2.48,11.28,6.79,13.86,20.55,5.73,28.2,16.96,28.5,38.26ZM79.73,291.92c53.46,.03,106.93,.01,160.39,.01,28.06,0,56.12,.08,84.18-.03,13.85-.06,17.19-3.58,17.26-17.57,.06-12.13,.08-24.26,0-36.38-.11-14.05-2.49-16.42-16.81-16.44-41.33-.05-82.66-.02-123.99-.02-41.71,0-83.42-.06-125.13,.03-12.56,.03-15.44,2.86-15.7,15.43-.24,11.74-.09,23.5-.05,35.25,.06,17.25,2.49,19.7,19.86,19.71Zm217.76,23.27c-32.22,.73-64.47,.27-96.71,.27-31.86,0-63.73,.52-95.57-.29-10.76-.28-10,5.06-10.31,12.36-.33,7.83,.96,11.23,10.21,11.17,64.1-.45,128.2-.5,192.3,.04,10.2,.09,9.62-4.84,9.53-11.66-.09-6.64,.94-12.11-9.44-11.88Zm-217.81,117.82c46.26,.03,92.52,.01,138.77,.01,35.26,0,70.52,.06,105.79-.03,13.94-.04,17.25-3.52,17.32-17.51,.06-11.75,.05-23.5,0-35.25-.07-15.3-2.51-17.82-17.92-17.85-40.95-.06-81.9-.02-122.85-.02-41.33,0-82.66-.07-123.99,.04-13.96,.04-16.7,2.85-16.9,16.73-.16,11.37-.07,22.74-.03,34.11,.06,17.16,2.62,19.75,19.8,19.77Zm15.35,35.66c-.48,6.78-.13,11.1,9.12,10.92,31.84-.61,63.7-.23,95.56-.23,32.99,0,65.99-.41,98.97,.24,10.56,.2,8.08-6.14,8.11-11.73,.04-5.72,2.04-11.7-8.34-11.62-64.84,.48-129.69,.49-194.54,0-11.02-.08-8.46,6.35-8.89,12.42Zm246.63,89.75c-.37-12.13-.06-24.29-.09-36.43-.05-15.99-2.48-18.51-18.46-18.54-40.63-.06-81.26-.02-121.89-.02-41.39,0-82.78-.07-124.17,.04-13.98,.04-16.96,3.01-17.14,16.59-.17,12.9,.1,25.81-.08,38.71-.15,10.53,4.93,15.16,15.29,15.15,83.92-.07,167.83-.06,251.75-.02,10.5,0,15.1-4.97,14.79-15.49Zm423.46,2.09c-.23,22.46-14.47,36.85-37.16,36.96-42.52,.21-85.03,.06-127.55,.06-41.38,0-82.76,.06-124.13-.02-26.36-.05-39.92-13.51-40.12-39.73-.11-14.04-.22-28.08,.08-42.12,.38-17.7,8.83-29.71,25.9-34.2,8.4-2.21,9.02-6.48,9.08-13.52,.06-7.15-.88-11.13-9.18-13.22-16.45-4.15-25.36-16.39-25.74-33.13-.36-15.93-.37-31.88-.01-47.8,.39-17.23,9.62-29.5,26.62-33.69,7.5-1.85,8.76-5.4,8.14-11.74-.57-5.85,2.19-11.87-7.67-14.3-18.57-4.59-26.88-16.58-27.17-35.5-.23-15.55-.34-31.12,.13-46.67,.56-18.54,13.38-31.95,31.82-33.96,3.76-.41,7.58-.38,11.37-.38,80.86-.02,161.71-.03,242.57,0,30.19,0,43.04,12.76,43.05,42.6,0,12.14,.04,24.28-.01,36.43-.09,20.45-8.13,32.79-27.54,37.67-10.04,2.53-6.8,8.78-7.5,14.5-.72,5.96,.68,9.26,7.56,11.08,18.73,4.97,27.33,17.09,27.47,36.6,.1,14.04,.09,28.08,0,42.12-.12,19.52-8.72,32.17-27.31,36.71-8.08,1.97-7.99,6.13-7.72,11.99,.26,5.7-1.66,11.15,7.31,13.62,19.91,5.49,27.63,17.02,27.73,37.53,.06,14.04,.13,28.08-.02,42.12ZM474.72,291.87c83.83,.09,167.66,.12,251.49-.02,11.71-.02,15.28-4.08,15.45-16.15,.17-12.51,.14-25.02,0-37.54-.14-13.39-3.44-16.64-16.9-16.66-41.35-.05-82.69-.02-124.04-.02-41.73,0-83.45-.05-125.18,.03-12.49,.03-15.75,3.22-15.87,15.23-.13,13.27,.3,26.55-.13,39.81-.35,10.88,5.31,15.29,15.16,15.3Zm222.46,23.34c-64.46,.5-128.94,.48-193.4,.01-10.18-.07-9.37,5.15-9.6,11.93-.25,7.36,.17,11.75,9.9,11.55,32.22-.66,64.46-.25,96.7-.25,32.23,0,64.48-.41,96.7,.25,9.82,.2,8.92-4.99,8.71-11.21-.21-6.19,1.86-12.37-9-12.28Zm-217.88,117.8c40.59,.04,81.18,.01,121.76,.01,40.97,0,81.93,.05,122.9-.03,14.13-.03,17.58-3.5,17.71-17.36,.11-11.37,.05-22.75,.01-34.12-.06-16.34-2.79-19.11-19.2-19.13-46.28-.04-92.56-.01-138.83-.01-35.28,0-70.55-.05-105.83,.02-15.32,.03-18.1,2.85-18.15,17.77-.04,11-.02,21.99,0,32.99,.02,16.88,2.9,19.85,19.64,19.87Zm226.79,35.1c-.06-5.59,2.43-11.91-8.14-11.84-64.83,.44-129.67,.46-194.5-.02-10.6-.08-8.96,5.83-9.21,12.21-.26,6.59-.43,11.31,9.02,11.13,31.84-.6,63.69-.23,95.54-.23,32.99,0,65.98-.45,98.95,.26,10.43,.22,8.4-5.81,8.33-11.51Zm35.59,53.72c-.08-15.41-3.05-18.36-18.85-18.38-43.23-.05-86.47-.02-129.7-.02-38.68,0-77.37-.07-116.05,.04-14.44,.04-17.35,3.12-17.41,17.38-.05,11.37-.02,22.75,0,34.12,.02,16.3,2.59,18.89,19.27,18.91,40.2,.04,80.4,.01,120.6,.01,41.72,0,83.44,.06,125.15-.04,13.5-.03,16.84-3.42,16.98-16.77,.13-11.75,.08-23.5,.01-35.25Z"/>
</svg>