<?xml version="1.0" encoding="UTF-8"?>
<svg id="Layer_1" data-name="Layer 1" xmlns="http://www.w3.org/2000/svg" viewBox="0 0 800 800">
  <defs>
    <style>
      .cls-1 {
        fill: none;
      }

      .cls-2 {
        fill: #010101;
      }
    </style>
  </defs>
  <rect class="cls-1" width="800" height="800"/>
  <path class="cls-2" d="M744.77,399.02c-.04-15.21-5.36-20.54-20.84-20.75-13.94-.19-27.93-.66-41.82,.17-9.66,.58-12.75-1.84-12.68-12.15,.51-67.33,.44-134.67,.05-202-.05-9.21,2.09-13.12,11.68-11.69,6.64,1,12.63-.41,16.26-7.09,3.8-6.99,1.58-12.77-2.67-18.68-23.89-33.23-47.52-66.64-71.47-99.81-8.4-11.63-18.54-11.63-26.92-.06-23.76,32.83-47.25,65.85-70.88,98.77-4.34,6.04-7.59,12.03-3.44,19.69,3.96,7.31,10.48,8.04,17.4,7.18,8.28-1.03,10.77,1.84,10.64,10.34-.5,33.86-.21,67.73-.21,101.6,0,34.66-.24,69.33,.18,103.99,.1,7.97-2.38,10.03-10.06,9.87-23.1-.46-46.22-.55-69.32,.04-8.2,.21-10.66-1.77-10.57-10.3,.46-43.03,.44-86.06,.02-129.09-.08-8.49,1.32-12.65,10.84-11.33,6.99,.97,13.74-.67,17.38-7.68,3.81-7.34,.92-13.66-3.53-19.83-23.25-32.23-46.35-64.57-69.55-96.84-10.06-13.99-19.5-13.89-29.66,.27-22.7,31.64-45.33,63.34-68.1,94.94-4.54,6.31-8.89,12.51-5.1,20.67,3.88,8.36,11.47,9.3,19.27,8.49,7.44-.77,9.34,1.88,9.28,9.25-.35,44.22-.3,88.45-.04,132.68,.04,6.54-1.45,8.86-8.44,8.73-23.9-.44-47.82-.54-71.71,.03-8.29,.2-9.85-2.86-9.67-10.26,.45-18.32,.44-36.66,0-54.98-.17-7.22,.94-11.23,9.46-10.13,8.06,1.04,14.96-1.5,18.91-9.36,3.92-7.79-.28-13.6-4.55-19.56-22.68-31.65-45.29-63.35-67.9-95.05-10.6-14.87-20.75-14.76-31.48,.3-22.14,31.07-44.29,62.12-66.51,93.12-4.66,6.5-10.28,12.59-5.71,21.48,4.33,8.43,11.95,9.93,20.28,9.11,6.38-.63,8.07,1.77,7.95,7.99-.38,19.52-.41,39.05,0,58.56,.14,6.8-1.94,8.91-8.74,8.72-15.92-.45-31.87-.38-47.8-.05-12.33,.26-18.46,5.63-18.58,16.86-.32,29.88-.3,59.77,0,89.64,.1,10.01,5.31,16.33,15.94,17.08,9.93,.7,19.84,1.83,29.78,2.04,6.97,.14,10.49,2.14,12.15,9.69,3.65,16.62,9.47,32.69,16.75,48.09,5.74,12.14,17.45,24.08,17.06,35.78-.41,11.95-15.65,20.83-23.9,31.45-5.52,7.1-6.01,14.74,.71,21.52,21.59,21.76,43.26,43.44,65.03,65.01,6.6,6.54,14.01,6.96,21.29,1.04,8.65-7.02,17.33-14.02,25.52-21.56,4.12-3.79,6.99-4.6,12.12-1.37,21.56,13.56,44.63,24.35,69.41,30.08,13.24,3.07,20.09,7.91,18.51,22.37-.72,6.58,1.17,13.41,1.62,20.15,.8,12.08,5.86,17.49,17.75,17.56,29.48,.17,58.97,.16,88.45,0,12.04-.06,17.22-5.36,18.07-17.24,.73-10.31,2.04-20.59,2.36-30.91,.16-5.39,2.29-7.93,7.23-9.02,28.49-6.3,54.9-17.77,79.78-32.77,4.76-2.87,7.75-3.31,12.14,.91,7.72,7.43,16.4,13.86,24.54,20.85,8,6.87,15.63,6.69,23.09-.74,21.14-21.08,42.28-42.16,63.41-63.25,7.47-7.45,7.62-15.36,1.07-23.33-6.57-7.99-13.13-16.02-20.25-23.51-4.68-4.91-4.65-8.74-1.07-14.43,11.86-18.87,22.07-38.95,26.91-60.57,4.21-18.82,11.32-29.89,32.37-26.58,3.8,.6,7.89-.79,11.86-1.13,13.83-1.18,18.62-6.29,18.66-20.57,.09-27.49,.08-54.98,0-82.47ZM609.72,59.52c15.15,21.13,29.75,41.5,45.04,62.83-12.85,2.89-15.33,11.41-15.28,22.79,.32,74.02,.03,148.04,.36,222.06,.04,8.47-1.33,12.02-10.81,11.26-12.26-.98-24.7-.92-36.97-.02-9.73,.72-12.53-1.82-12.46-12.06,.51-74.42,.19-148.84,.37-223.26,.02-10.35-2.67-17.96-15.5-20.23,15.35-21.5,29.84-41.79,45.25-63.38Zm-214.13,81.38c3.85-5.57,5.85-5.95,9.87-.13,13.05,18.91,26.59,37.48,40.17,56.52-12.78,2.5-15.49,10.94-15.43,22.15,.26,48.94-.21,97.89,.37,146.83,.12,10.27-2.96,12.84-12.65,12.16-12.28-.85-24.69-.77-36.98-.01-8.74,.54-10.38-2.77-10.33-10.8,.35-49.74,.07-99.48,.26-149.22,.04-10.84-3.03-18.78-15.5-20.98,14.02-19.63,27.35-37.91,40.21-56.52ZM237.64,417.74c1.08-7.76,3.62-9.63,11.08-9.58,50.95,.32,101.9,.17,152.86,.17s99.52,.15,149.27-.16c7.98-.05,11.3,1.09,12.64,10.45,11.63,80.87-41.7,164.81-130.82,182.68-100.01,20.05-182.86-52.52-194.89-138.54-2.12-15.14-2.25-29.89-.14-45.02Zm-46.34-208.77c15.08,21.04,29.56,41.26,44.58,62.22-12.8,3.98-15.18,13.15-14.85,24.99,.67,24.24-.04,48.52,.35,72.77,.11,6.91-1.04,9.89-8.91,9.49-13.88-.72-27.86-.78-41.73,.01-8.48,.48-9.53-3-9.42-10.17,.37-24.25,.15-48.52,.14-72.78,0-16.06-.07-16.15-14.38-24.63,14.53-20.33,29.03-40.63,44.22-61.9ZM713.91,466.19c.07,4.76-.73,7.19-6.28,7.3-9.13,.18-18.24,1.3-27.37,1.91-10.85,.72-17.09,5.51-19.34,17-6.38,32.55-18.54,62.93-36.75,90.8-9.86,15.08-9.49,19.04,1.78,32.44,6.35,7.55,17.51,15.6,17.16,22.98-.36,7.49-12.15,14.49-19.06,21.58-6.67,6.85-13.66,13.39-20.17,20.39-3.48,3.74-6.15,3.8-9.91,.41-7.39-6.65-15.25-12.78-22.69-19.38-6.99-6.21-14.36-6.55-21.79-1.56-29.94,20.11-62.46,33.88-97.94,40.64-9.9,1.89-14.96,7.77-15.26,18.17-.28,9.53-1.87,19.02-2.1,28.55-.14,5.57-2.6,6.49-7.32,6.45-17.53-.16-35.06-.28-52.58,.05-5.93,.11-7.25-2.19-7.4-7.64-.26-9.53-1.61-19.02-2.17-28.55-.54-9.18-4.98-14.88-14-16.65-36.19-7.13-69.49-21.06-100.14-41.59-6.96-4.66-14.19-3.76-20.74,2.12-7.4,6.64-15.31,12.72-22.68,19.4-3.82,3.46-6.43,3.16-9.92-.44-12.22-12.56-24.5-25.07-37.18-37.17-4.48-4.28-3.24-6.82,.28-10.61,6.22-6.71,11.87-13.93,17.9-20.82,6.99-7.99,7.26-15.88,1.28-24.8-19.86-29.63-33.26-61.97-39.75-97.13-1.79-9.69-8.52-13.82-17.75-14.58-9.12-.75-18.25-1.83-27.37-1.83-6.68,0-7.57-3.02-7.46-8.66,.3-16.33,.26-32.67,.02-49-.08-5.13,.47-7.84,6.87-7.79,37.8,.3,75.61,.15,113.92,.15-9.01,89.53,22.98,159.48,101.63,202.67,67.94,37.32,137.61,32.92,201.2-11.7,65.16-45.73,91.15-110.71,82-190.97,38.64,0,76.45,.08,114.26-.1,5.02-.02,6.98,1.14,6.87,6.57-.33,17.12-.26,34.26-.03,51.39Z"/>
</svg>