<?xml version="1.0" encoding="UTF-8"?>
<svg id="Layer_1" data-name="Layer 1" xmlns="http://www.w3.org/2000/svg" viewBox="0 0 800 800">
  <defs>
    <style>
      .cls-1 {
        fill: #020202;
      }

      .cls-2 {
        fill: none;
      }
    </style>
  </defs>
  <rect class="cls-2" width="800" height="800"/>
  <path class="cls-1" d="M168.85,727.72c17.65-18.02,36-35.41,52.69-54.28,10.91-12.33,23.04-16.06,39.07-16.01,147.4,.49,294.8,.28,442.2,.31,7.84,0,15.83,.29,23.07-2.93,14.91-6.63,19-19.51,18.99-34.62-.05-69.62-.02-139.25-.02-208.87,0-71.19,0-142.38,0-213.56,0-30.09-10.81-40.84-41.02-40.85-21.5-.01-43.01,.13-64.51-.06-12.52-.11-19.32-5.82-19.39-15.53-.07-9.63,6.91-15.41,19.35-15.47,24.63-.12,49.27-.35,73.89,.05,35.95,.58,62.54,26.45,62.62,62.27,.32,145.89,.32,291.79,.02,437.68-.08,37.55-27.52,63.21-66.68,63.31-78.2,.2-156.39,.06-234.59,.06-70.77,0-141.53,.12-212.3-.17-8.02-.03-13.8,2.01-19.5,7.85-25.12,25.75-50.71,51.03-76.15,76.46-6.21,6.21-12.46,12.32-22.45,7.83-9.37-4.21-9.29-12.5-9.28-20.89,.05-26.99-.04-53.98,.04-80.97,.05-14.8,4.99-21.22,15.85-21.09,10.71,.13,15.16,6.42,15.2,21.65,.04,15.23,0,30.45,0,45.68,.97,.71,1.94,1.42,2.91,2.13ZM25.1,621.75c.1,36.64,21.51,61.79,56.06,66.69,12.23,1.73,20-2.72,21.47-12.29,1.6-10.39-2.92-15.72-15.84-18.65-22.44-5.1-30.18-14.26-30.2-37.38-.11-141.92-.11-283.85,0-425.77,.02-25.56,11.98-37.26,37.36-37.4,21.88-.12,43.77,.03,65.66-.05,14.37-.05,21.83-5.33,22.07-15.36,.24-9.98-7.51-15.68-21.62-15.72-21.1-.05-42.21-.02-63.31-.01-46.89,.02-71.69,24.68-71.71,71.34-.02,69.98,0,139.97,0,209.95,0,71.55-.13,143.1,.06,214.64ZM263.49,175.77c-12.82,21.96-18.59,46.2-19.06,71.63-.21,11.21,5.55,18.9,14.77,18.97,10.55,.08,15.01-6.83,16.56-16.27,.32-1.92,.25-3.9,.35-5.85,2.84-56.34,44.54-105.17,98.93-115.84,57.35-11.25,113.21,16.55,138.23,68.51,7.94,16.5,11.07,33.86,12.31,51.98,.84,12.22,8.51,18.67,17.74,17.42,8.85-1.2,14.12-8.85,13.78-20.03-2.53-84.61-71.66-151.64-164.02-151.62-53.15,1.56-99.01,28.71-129.59,81.1Zm139.8,262.13c-20.42,1.79-18.59-2.41-18.61,15.18-.02,18.77-2.28,17.25,15.2,17.2,18.93-.06,16.58,2.2,16.82-18.15,.63-7,1.95-15.57-13.41-14.23Zm57.94,32.35c18.91-.06,17.63,3.11,17.63-14.5,0-20.29,1.89-17.3-14.57-17.45-16.99-.15-16.99-.04-16.99,14.98,.24,18.82-2.43,17.02,13.93,16.97Zm-120.23-31.96c-18.48-.02-18.59-.02-18.46,13.73,.19,20.39-2.73,18.1,15.24,18.25,15.87,.13,15.87,.03,15.87-16.2q0-15.77-12.65-15.78Zm340.88-75.27c-1.36,30.7-23.13,54.81-53.48,58.69-7.66,.98-9.54,4.26-9.75,11.28-2.57,85.67-77.57,167.99-184.81,162.3-9.8-.52-15.79-5.28-17.52-15.49-1.37-8.13-4.85-15.07-14.83-15.18-8.01-.08-13.67,3.2-15.27,11.46-1.51,7.78,.98,13.93,8.62,17.17,2.48,1.05,5.21,1.61,7.88,2.14,9.09,1.81,13.95,7.75,13.14,16.52-.86,9.35-6.87,14.26-16.8,14.23-22.67-.07-42.33-18.5-45.16-42.71-2.46-21.06,13.29-43.93,33.75-48.99,22.61-5.59,42.18,2.15,53.96,22.39,3.09,5.32,6.08,6.76,11.94,6.45,75.46-3.95,132.94-62.9,134.43-138.56,.48-24.24,.08-48.49,.17-72.74,.01-3.49,.03-7.1,.84-10.46,2.03-8.45,7.76-12.32,16.38-11.73,8.25,.56,13.17,5.1,13.52,13.31,.57,13.27,.84,26.57,.58,39.84-.16,8.28,3.28,9.37,10.01,6.82,10.14-3.86,17.29-10.43,19.73-21.33,3.2-14.31,2.64-28.85,.9-43.14-1.91-15.71-10.99-24.07-26.59-26.83-3.43-.61-6.99-.67-10.49-.71-21.03-.25-24.95-4.22-24.91-25.73,.04-21.49-.09-42.88-4.94-64.08-17.81-77.9-86.01-136.25-165.55-143.55-95.66-8.78-183.75,56.33-201.69,153.79-6.39,34.74-2.37,70.25-3.08,100.68,0,30.93,.07,57.14-.03,83.34-.06,15.38-4.97,20.41-20.1,21.1-45.6,2.08-73.82-24.97-73.78-70.94,0-10.92-.7-21.85,1.18-32.77,4.7-27.37,24.08-47.86,51.53-51.83,8.87-1.28,10.22-4.43,10.32-12.42,1.19-93.03,42.99-161.5,126.47-202.61,112.6-55.46,254.22,2.89,297.22,121.01,9.76,26.81,13.91,54.36,13.81,82.66-.03,6.86,1.1,9.96,9.15,11.15,31.79,4.71,52.63,29.22,53.38,61.44,.26,11.33,.38,22.7-.12,34.02Zm-502.82-64.02c-5.55-1.85-12.09,1.8-16.98,6.03-5.42,4.69-9.53,10.22-10.49,17.65-1.92,14.77-2.21,29.58,.15,44.28,1.83,11.42,9.23,18.47,19.75,22.62,6.98,2.75,10.89,2.27,10.44-6.97-.61-12.46-.15-24.96-.15-37.45,0-10.53,.41-21.09-.18-31.59-.28-5,3.59-12.52-2.55-14.57Z"/>
</svg>