<?xml version="1.0" encoding="UTF-8"?>
<svg id="Layer_1" data-name="Layer 1" xmlns="http://www.w3.org/2000/svg" viewBox="0 0 800 800">
  <defs>
    <style>
      .cls-1 {
        fill: none;
      }

      .cls-2 {
        fill: #030403;
      }
    </style>
  </defs>
  <rect class="cls-1" width="800" height="800"/>
  <path class="cls-2" d="M464.8,154.33c43.47,0,86.94,.08,130.42-.06,10.44-.03,20.19,1.17,19.92,14.42-.26,12.77-9.76,14.56-20.26,14.55-86.47-.08-172.93,0-259.4-.08-16.11-.01-24.52-8.45-20.08-19.61,3.52-8.84,10.99-9.28,18.98-9.26,43.47,.1,86.94,.05,130.42,.05Zm-22.22,172.16c-10.33-.04-20.28,1.01-20.19,14.22,.08,12.76,9.64,14.74,20.12,14.73,70.2-.06,140.4-.07,210.61,.01,10.79,.01,19.7-2.73,19.42-15.39-.27-12.21-9.39-13.63-19.35-13.58-34.86,.17-69.72,.07-104.59,.07-35.34,0-70.68,.08-106.02-.05Zm12.02-114.81c-10.48-.05-20.13,1.46-19.76,14.59,.36,12.77,10.06,14.37,20.45,14.36,65.36-.08,130.72-.09,196.09,.01,10.9,.02,21.16-1.32,21.13-15.06-.03-13.27-10.15-13.95-20.39-13.91-32.44,.15-64.88,.06-97.33,.06-33.4,0-66.79,.09-100.19-.05Zm15.53,57.4c-10.02-.05-18.99,1.67-19.23,13.82-.23,11.73,8.03,15.11,18.33,15.1,61.63,0,123.26-.03,184.89,.02,10.34,0,18.49-3.22,18.43-14.96-.06-12.22-8.87-14.05-18.96-13.99-30.58,.18-61.15,.06-91.73,.06-30.58,0-61.15,.1-91.73-.06Zm274.56,50.35c-8.21-.09-13.83,4.96-14.23,13.05-.43,8.61,4.33,14.6,13.52,15.12,9.3,.53,13.75-4.93,14.98-13.45-.51-9.28-5.34-14.61-14.27-14.71Zm-488.47,258.35c-8.21,.33-13.53,5.68-13.47,13.79,.06,8.61,5.1,14.35,14.32,14.38,9.34,.02,13.39-5.76,14.22-14.4-1.02-9.13-6.19-14.13-15.07-13.77Zm502.76-180.99c-.34,16.26,.01,32.53-.11,48.79-.21,28.22-17.31,45.69-45.45,45.75-78.88,.17-157.77,.46-236.65-.31-14.3-.14-17.37,4.1-16.93,17.59,1.03,32.02,.83,64.1,.05,96.13-.26,10.74,3.34,17.49,11.29,24.28,37.45,31.96,74.41,64.49,111.5,96.88,4.28,3.73,9.19,7.04,10.71,13.07,1.58,6.27-.46,11.37-5.49,15.12-6.36,4.74-12.65,3.54-18.31-1.33-16.3-14.03-32.48-28.21-48.71-42.32-19.36-16.84-38.72-33.67-60.72-52.8,0,14.8-.01,26.45,0,38.09,.01,9.81-3.81,17.76-14.22,18.01-11.38,.27-15.16-7.71-14.82-18.4,.36-11.36,.08-22.74,.08-35.84-12.04,6.1-19.81,15.08-28.57,22.58-26.52,22.68-52.56,45.92-79.01,68.68-10.16,8.74-20.59,7.78-25.19-1.85-4.39-9.17,.67-15.18,7.3-20.92,37.21-32.24,73.99-64.99,111.59-96.75,9.97-8.42,14.65-16.75,14.21-30.17-1.05-32.49-.68-65.05-.13-97.57,.16-9.29-2.24-12.41-11.88-12.32-45.89,.45-91.79,.35-137.69,.06-7.82-.05-11.32,1.89-10.79,10.39,.65,10.48,.24,21.04,.1,31.56-.12,8.84-4.13,15-13.48,15.26-9.99,.28-15.1-6.06-15.14-15.36-.25-55.96-.12-111.93-.15-167.89,0-9.54,7.02-12.65,14.09-15.94,38.47-17.9,76.91-35.86,115.36-53.81,3.89-1.82,7.65-3.91,11.61-5.56,8.91-3.73,11.05-10.57,7.46-18.67-3.98-8.97-10.81-10.79-20.03-6.43-30.17,14.27-61.04,27.14-90.69,42.4-26.37,13.57-52.21,21.6-82.88,16.81-31.25-4.89-62.82,.2-93.29,9.76-21.94,6.89-33.39,21.31-33.52,44.26-.26,46.88-.01,93.75-.13,140.63-.03,10.61,3.25,18.06,15.26,17.79,11.68-.27,13.43-8.16,13.39-17.82-.17-40.66,0-81.32-.12-121.97-.03-9.45,1.97-17.39,12.6-19.48,9.74-1.91,16.22,5.24,16.25,18.14,.12,48.79,.05,97.58,.05,146.37,0,53.1-.06,106.19,.03,159.29,.03,17.04,5.48,24.08,18.85,25.22,16.21,1.38,23.87-5.49,23.92-22.54,.17-55.49,.07-110.97,.07-166.46,0-3.35-.04-6.7,.02-10.04,.16-9.73,3.27-17.01,14.65-17.05,11.6-.03,14.21,7.33,14.2,17.14-.06,57.88-.09,115.76,0,173.64,.03,18.53,7.03,26,23.05,25.44,12.73-.44,19.47-7.07,19.68-19.7,.28-17.22,.28-34.44,.05-51.66-.14-10.9,3-20.03,15.23-19.78,11.54,.23,13.99,9.21,13.76,19.49-.36,16.73,.02,33.48-.12,50.22-.34,40.73-40.26,64.22-75.79,44.03-7.63-4.33-12.34-4.33-19.97,0-35.43,20.09-75.99-3.33-76.39-43.91-.42-42.57-.33-85.14,.09-127.71,.09-9.16-.56-12.98-11.9-12.19-27.41,1.92-45.42-15.8-45.58-43.35-.28-48.31-.28-96.62-.01-144.93,.19-34.07,19.87-60.23,52.55-70.43,9.92-3.1,20.08-5.43,31.05-8.36-6.16-10.53-13.9-19.03-18.06-29.73-17.43-44.9,6.13-94.49,53.47-110.19,8.03-2.66,10.67-5.54,10.18-13.58-.65-10.48-.33-21.04-.12-31.56,.52-26.83,18.41-44.64,45.39-44.69,72.67-.14,145.34-.19,218.01,.11,10.64,.04,18.7,.2,16.99-14.49-1.04-8.94,5.2-14.16,14.28-14.16,8.58,0,14.53,5.67,13.73,13.4-1.58,15.2,6.51,15.32,17.78,15.27,71.23-.35,142.47-.2,213.7-.16,32,.02,48.3,16.4,48.32,48.53,.03,49.75,.03,99.49-.01,149.24-.01,10.96,1.82,24.33-14.67,23.89-14.77-.4-14.17-12.65-14.16-23.46,.04-49.27,.05-98.54,0-147.81-.02-18.39-3.2-21.54-21.81-21.54-162.07-.03-324.14-.03-486.2,0-18.68,0-22.42,3.86-22.53,22.66,0,1.43,.14,2.89-.02,4.3-2.22,18.99,.97,31.08,22.9,40.04,42.54,17.39,57.94,68.47,37.98,110.08-1.43,2.98-2.64,6.06-5.41,12.47,37.15-17.29,71.08-33.35,105.25-48.9,18.78-8.55,35.63-5.31,48.52,8.23,13.07,13.72,16.5,34.19,8.6,50.46-5.35,11.02-14.86,17.04-25.46,21.96-36.78,17.03-73.43,34.34-110.35,51.07-7.44,3.37-10.8,7.14-10.52,15.82,.71,21.5,.75,43.06,0,64.56-.35,10.13,2.85,12.82,12.83,12.77,75.54-.39,151.07-.21,226.61-.21,65.98,0,131.95,.03,197.93-.02,18.61-.02,21.6-3.08,21.69-21.71,.07-14.35,.22-28.7-.05-43.05-.2-10.59,1.96-20.34,14.28-20.71,12.57-.38,14.95,9.1,14.72,19.89ZM239.94,239.45c.54-31-23.68-56.12-54.24-56.24-29.9-.12-55.08,24.49-55.26,54-.18,30.21,23.77,54.78,53.77,55.17,30.7,.39,55.2-22.88,55.73-52.93Z"/>
</svg>