<?xml version="1.0" encoding="UTF-8"?>
<svg id="Layer_1" data-name="Layer 1" xmlns="http://www.w3.org/2000/svg" viewBox="0 0 800 800">
  <defs>
    <style>
      .cls-1 {
        fill: none;
      }

      .cls-2 {
        fill: #010101;
      }
    </style>
  </defs>
  <rect class="cls-1" width="800" height="800"/>
  <path class="cls-2" d="M116.48,383.53c-9.57,0-19.14-.1-28.7,.06-3.56,.06-7.3,.13-10.63,1.2-14.38,4.64-20.68,21.22-17.06,44.01,2.22,14.02,11.73,22.57,26.26,22.78,19.13,.28,38.27,.02,57.41,.1,15.95,.07,21.05,3.43,24.74,18.49,6.03,24.62,15.44,47.73,29.05,69.08,6.43,10.08,4.89,18.63-3.38,26.78-13.64,13.43-27.17,26.96-40.6,40.59-13.96,14.17-13.85,27.24,.1,41.57,2.78,2.86,5.57,5.72,8.47,8.44,12.24,11.49,26.14,11.79,38.22,.18,14.08-13.54,27.62-27.62,41.54-41.33,10.41-10.25,16.16-10.89,28.61-3.74,1.73,.99,3.26,2.63,5.1,3.08,23.5,5.72,24.07,23.28,22.68,42.45-.49,6.71-2.7,7.45-8.01,4.96-3.24-1.52-6.61-2.79-9.87-4.28q-20.54-9.44-36.91,6.91c-6.2,6.2-12.3,12.52-18.68,18.53-25.69,24.19-61.3,24.09-87.16-.18-3.78-3.55-7.45-7.22-11.03-10.95-26.05-27.12-26.09-62.89-.03-89.75,9.16-9.44,18.33-18.89,27.97-27.83,4.88-4.53,5.93-8.21,2.41-14.28-8.22-14.17-14.22-29.43-18.72-45.15-1.64-5.72-4.24-7.61-9.99-7.5-14.74,.3-29.51,.36-44.25-.05-29.19-.82-52.59-20.32-58.55-48.84-3.13-14.99-3.05-30.13,.54-45.08,6.26-26.04,29.04-45.13,55.74-46.23,14.73-.61,29.5-.49,44.25-.16,6.81,.15,10.65-1.06,12.71-8.77,4.11-15.39,10.28-30.21,18.32-44.02,3.54-6.08,2.4-9.73-2.48-14.27-9.92-9.21-19.43-18.9-28.78-28.71-24.96-26.18-24.86-61.78,.13-88,4.4-4.62,8.91-9.14,13.63-13.43,24.42-22.22,59.11-22.41,83.56-.1,10.59,9.66,20.75,19.85,30.47,30.39,4.91,5.33,8.82,6.35,15.27,2.6,13.46-7.83,27.9-13.95,42.93-17.82,8.21-2.12,9.6-6.18,9.36-13.47-.44-13.54-.35-27.11-.03-40.66,.7-30.38,20.57-53.76,50.4-59.72,37.9-7.58,69.14,4.88,83.66,32.98,6.72,13.01,6.47,26.88,6.41,40.86-.05,11.56-3.36,24.8,1.17,34.21,4.72,9.8,20.35,8.25,30.38,13.68,3.49,1.89,7.31,3.17,10.91,4.88q18.36,8.75,33.09-5.98c7.62-7.6,14.98-15.5,23.03-22.61,24.1-21.27,57.71-21.35,81.76-.11,15.65,13.83,30.71,28.32,32.43,51.06,.36,4.74,.07,9.53-.02,14.29-.11,6.27-2.69,8.85-9,5.98-2.17-.99-4.45-2.07-6.77-2.31-12.1-1.26-20.37-3.27-22.44-19.54-1.6-12.61-14.66-22.35-27.65-27.65-10.53-4.29-19.51,.27-27.05,7.7-13.35,13.15-26.48,26.52-39.79,39.71-11.6,11.49-17.02,12.39-30.42,4.25-20.6-12.52-42.44-21.76-65.9-27.45-16.42-3.99-19.87-8.97-19.92-26.09-.05-18.34,.15-36.68-.07-55.02-.21-17.48-9.9-27.31-27.29-28.05-5.17-.22-10.39-.31-15.54,.09-15.46,1.18-24.96,10.91-25.21,26.34-.31,19.13-.04,38.27-.11,57.41-.06,15.86-3.57,21.22-18.42,24.84-24.64,6-47.72,15.45-69.1,29.01-10.03,6.37-18.65,4.97-26.82-3.3-13.44-13.62-26.96-27.17-40.6-40.59-14.2-13.97-27.32-13.88-41.58,.01-2,1.95-3.96,3.93-5.92,5.92-15.15,15.32-15.3,28.14-.34,43.27,12.61,12.76,25.39,25.35,38,38.11,11.45,11.59,12.28,16.93,4.08,30.41-12.53,20.59-21.75,42.44-27.44,65.91-3.96,16.34-9.06,19.81-26.17,19.89-8.77,.04-17.54,0-26.31,0Zm117.56-21.7c-23.74,67.34-2.32,141.44,53.78,186.07,20.82,16.56,20.44,16.23,37.46-2.98,7.12-8.04,6.62-11.14-2.74-17.18-46.21-29.77-67.11-73.03-60.28-127.35,6.4-50.89,35.35-86.85,83.36-104.65,49.41-18.32,94.71-8.31,134.57,26.42,5.81,5.07,9.59,16.29,16.77,14.65,6.24-1.42,10.22-11.5,15.9-17.03,6.32-6.15,5.62-10.6-.44-16.71-33.62-33.93-73.84-51.92-121.81-51.92-70.41,.2-133.29,44.64-156.57,110.67Zm525.52,42.13c-85.81,101.19-170.51,203.32-254.89,305.7-10.78,13.08-23.74,17.45-38.74,20.41-37.51,7.38-74.96,15.01-112.46,22.46-13.97,2.77-23.7-4.52-23.98-18.81-.43-22.7-.12-45.42-.12-68.13h-2.76c0-20.72,.33-41.44-.15-62.15-.22-9.31,2.19-16.86,8.2-24.05,87.39-104.55,174.59-209.26,261.91-313.86,19.83-23.75,44.97-28.84,70.88-11.03,32.15,22.1,61.9,47.69,90.02,74.71,18.84,18.1,25.69,46.91,2.08,74.75Zm-322.66,290.67c-23.7-19.42-47.39-38.85-71.84-58.88,0,24.01,.36,45.79-.17,67.55-.22,8.9,3.14,9.7,10.62,8.03,19.36-4.32,38.85-8.02,58.29-11.97,1.98-.96,4.21-1.75,3.1-4.73Zm232.33-240.48c-2.65-2.46-4.85-4.7-7.25-6.7-30.87-25.79-61.98-51.29-92.51-77.48-6.92-5.94-9.91-3.92-14.79,1.95-59.26,71.42-118.67,142.72-178.31,213.82-5.09,6.06-4.83,8.93,1.36,13.89,31.39,25.15,62.52,50.64,93.36,76.46,6.22,5.21,9.51,5.62,14.98-.98,59.2-71.47,118.71-142.68,178.11-213.99,1.73-2.07,3.18-4.37,5.05-6.96Zm57.93-104.47c-23.85-20.45-48.14-40.38-72.3-60.46-5.27-4.38-11.22-7.51-19.88-8.59-3.46-.6-6.31,2.74-9.17,6.18-11.95,14.37-23.74,28.89-36.02,42.97-4.24,4.87-3.54,7.53,1.16,11.4,31.9,26.32,63.73,52.73,95.24,79.51,5.89,5.01,8.87,3.95,13.2-1.55,9.84-12.49,20.3-24.49,30.44-36.75,11.47-13.87,11.25-20.76-2.69-32.71Z"/>
</svg>