<?xml version="1.0" encoding="UTF-8"?>
<svg id="Layer_1" data-name="Layer 1" xmlns="http://www.w3.org/2000/svg" viewBox="0 0 800 800">
  <defs>
    <style>
      .cls-1 {
        fill: #030303;
      }

      .cls-2 {
        fill: none;
      }
    </style>
  </defs>
  <rect class="cls-2" width="800" height="800"/>
  <path class="cls-1" d="M353.42,72.63c83.48,0,166.96,.69,250.42-.31,38.78-.47,58.62,24.83,54.09,65.75-.15,1.35-.59,3.54-1.4,3.81-6.36,2.07-13.12,1.76-19.39,.49-4.55-.92-2.2-6.21-2.49-9.57-.34-4,.13-8.06-.15-12.07-1.1-15.36-8.62-23.23-23.86-25.01-2.89-.34-5.85-.19-8.78-.19-165.85,0-331.7-.02-497.56,.05-4.71,0-9.52,.43-14.1,1.45-10.95,2.44-16.72,9.69-17.59,20.79-.26,3.28-.17,6.59-.17,9.88,0,150.84,.24,301.67-.29,452.51-.08,21.65,9.61,33.23,31.66,31.02,2.54-.25,5.16,.25,7.68-.09,6.36-.87,7.93,1.82,7.93,7.96,0,16.24,.32,16.24-16.18,16.2-36.06-.07-54.51-18.58-54.52-54.75,0-152.3-.02-304.6,.01-456.9,0-25.94,11.91-42.62,34.7-49.63,6.14-1.89,12.31-1.33,18.46-1.34,83.84-.08,167.68-.06,251.52-.06ZM108.54,118.9c-7.71,.86-15.47-1.42-13.81,11.26,.98,7.52-.69,14.58,11.03,13.03,7.58-1,16.75,1.82,13.21-11.07,1.43-8.46,.95-14.51-10.43-13.23Zm33.28,11.3c.74,7.72-.35,13.97,11.09,13.13,8.69-.64,14.21-.68,13.22-12.07-.72-8.33-.51-14.83-11.4-11.84-8.72-1.56-13.95-.09-12.9,10.79Zm47.23,.23c.74,7.68-.47,13.79,11.07,12.94,9.06-.67,13.62-1.45,13.04-12.33-.48-8.89-1.43-14.3-11.79-11.59-9.18-1.97-13.31,.66-12.32,10.98ZM752.24,674.93c.12,29.86-19.07,54.15-53.67,53.69-83.83-1.11-167.68-.36-251.52-.36-83.48,0-166.96-.83-250.42,.38-37.08,.54-54.85-24.2-54.73-54.7,.6-151.2,.35-302.4,.18-453.6-.03-22.32,7.06-40.11,28.14-50.13,8.05-3.83,16.98-4.3,25.73-4.3,167.32-.08,334.63-.12,501.95-.01,35.49,.02,54.04,18.94,54.05,54.34,.02,151.57-.32,303.14,.29,454.7Zm-24.3-454.97c0-22.7-7.6-30.4-30.02-30.4-83.47-.01-166.95,0-250.42,0-83.84,0-167.68,0-251.52,0-21.91,0-30.24,8.39-30.24,30.6-.02,151.56-.02,303.13,0,454.69,0,21.83,8.85,30.75,30.44,30.76,167.31,.02,334.63,.02,501.94,0,21.12,0,29.81-8.76,29.81-29.85,.01-151.93,0-303.86,0-455.79Zm-528.16,39.75c-3.18,0-8.05-1.7-9.26,1.13-2.74,6.39-1.97,13.78-.6,20.35,1.04,4.97,6.87,2.46,10.44,2.46,164.27,.13,328.54,.01,492.82,.35,10.16,.02,12.62-2.71,12.68-12.63,.06-9.77-2.54-12.01-12.17-11.96-82.32,.42-164.64,.24-246.96,.24-82.32,0-164.64-.01-246.96,.06Zm75.53,82.26c11.07,.54,7.51-7.11,7.94-12.57,.46-5.93,1.25-11.3-8.29-11.04-23.4,.66-46.82,.21-70.23,.21-15.91,0-15.53,0-15.55,15.6,0,6.52,2.27,7.94,8.22,7.77,13.16-.38,26.34-.12,39.51-.12,12.8,0,25.63-.48,38.41,.15Zm420.89,339.76c8.01,.64,10.49-2.43,9.29-9.82-.95-5.88,3.77-14.52-8.75-14.03-17.82,.7-35.71,.76-53.51-.04-10.42-.47-8.84,5.88-8.6,11.86,.22,5.46-3.01,13.09,8.08,12.03,8.66-.83,17.46-.17,26.2-.17,9.1,0,18.25-.56,27.3,.17ZM243.18,389.06c18.04,0,18.33-.48,16.62-18.13-.4-4.14-1.62-5.8-5.83-5.78-19.75,.12-39.54-.66-59.25,.33-11.22,.56-3.52,10.3-5.18,15.58-1.8,5.73,1.06,8.49,7.55,8.12,9.12-.51,18.28-.13,27.43-.13,6.22,0,12.44,0,18.66,0Zm-42.17-152.09c9.84,.12,11.96-2.85,12.2-12.35,.25-10.26-3.35-11.61-12.41-11.88-9.89-.29-13.49,2.55-11.19,12.2-2.56,10.02,2.01,11.92,11.41,12.03Zm34.5-12.58c.43,8.69,1.15,13,11.63,12.58,9.31-.37,13.15-1.78,13-12.4-.14-9.85-2.81-13.31-12.23-11.17-9.07-1.9-12.91,.68-12.39,11Zm58.52,12.5c8.12-.59,13.95-.12,12.76-11.4-.83-7.91,.07-14.13-11.27-12.64-7.51,.99-15.61-.9-12.28,11.03-1.71,8.79-.03,13.79,10.79,13.01Zm340.71,288.65c-.17,11.84-4.27,15.4-16.14,15.56-3.29,.04-6.67,.47-9.87-.07-12.25-2.08-19.14,2.3-22.97,14.68-2.13,6.87-1.05,10.27,3.67,14.76,24.46,23.28,24.7,22.75,.24,46.35-10.53,10.16-20.61,20.78-31.02,31.06-10.26,10.13-14.09,10.02-24.65-.27-1.83-1.79-3.6-3.64-5.42-5.45-13.46-13.48-13.36-13.27-30.44-4.8-3.95,1.96-4.06,4.58-4.09,7.88-.06,8.05,.14,16.11-.21,24.15-.34,7.79-4.6,12.12-12.6,12.14-22.69,.04-45.39,.03-68.08,.02-8.59,0-12.68-4.57-12.85-12.93-.09-4.39-.68-8.9,.1-13.15,2.2-12.02-2.53-18.3-14.09-22.22-7.19-2.44-11.05-1.14-15.93,3.88-22.42,23.11-21.49,25.26-45.65,.32-9.93-10.25-20.18-20.18-30.25-30.29-11.28-11.33-11.21-15.51,.3-27.12,2.32-2.34,4.44-4.94,7.05-6.91,7.7-5.8,9.28-11.64,4.83-21.21-3.82-8.22-7.56-12.1-16.63-10.92-5.4,.7-10.97,.08-16.46,.13-9.53,.09-14.06-4.82-14.08-14.12-.04-21.6,.21-43.2-.11-64.79-.16-10.39,5.38-14.49,14.62-15.24,4.36-.35,8.86-.62,13.16,.03,11.55,1.74,17.62-2.4,21.12-14.1,2.08-6.98,.99-10.48-3.66-14.94-24.94-23.88-24.57-22.35-.18-46.27,10.71-10.5,21.15-21.27,31.8-31.83,3.09-3.07,6.11-6.52,9.64-6.09,5.85-.06,9.16,1.93,12.05,5.01,2.75,2.93,5.7,5.68,8.54,8.53,11.08,11.08,18.74,11.58,31.48,2.87,2.95-2.02,2.24-4.26,2.29-6.57,.14-7.68,.18-15.37,.03-23.06-.16-8.48,4.02-13.6,12.26-13.73,23.05-.36,46.12-.32,69.17,.05,7.63,.12,11.97,4.9,12.24,12.75,.16,4.75,.71,9.61,0,14.25-1.78,11.48,2.17,17.48,13.77,21.33,7.4,2.46,10.87,1.43,15.69-3.62,23.15-24.24,22.77-24.17,46.56,.26,10.47,10.75,21.29,21.14,31.77,31.87,8.25,8.45,8.08,13.78-.17,22.47-2.02,2.12-4.11,4.17-6.18,6.24-12.97,12.97-12.88,12.93-5.85,28.96,1.67,3.8,3.71,5.79,8.13,5.59,6.94-.32,13.92-.31,20.86-.02,11.7,.48,16.09,4.55,16.25,16,.3,20.86,.3,41.73,0,62.59Zm-23.71-30.48c0-23.89,0-24.27-23.51-24.04-9.8,.09-14.77-4.12-17.45-12.93-1.9-6.25-4.15-12.45-6.92-18.36-9.07-19.36-9.19-19.3,5.81-34.39,2.06-2.08,4.14-4.14,6.16-6.26,1.23-1.29,2.35-2.69,3.74-4.29-1.43-1.61-2.57-3.01-3.82-4.29-3.85-3.92-7.74-7.79-11.61-11.68-16.65-16.7-16.85-16.9-33.43-.44-6.77,6.72-13.18,8-21.49,3.18-7.88-4.57-16.3-8.15-25.21-10.37-9.68-2.42-13.1-8.4-12.87-18.5,.53-22.69,.07-22.76-22.35-22.67-7.64,.03-17.43-2.37-22.31,1.41-5.17,4.01-1.74,14.29-1.66,21.79,.1,9.43-3.6,15.19-12.85,17.6-9.2,2.39-18.03,5.98-26.18,10.81-8.4,4.97-14.72,3.15-21.37-3.52-16.19-16.24-16.43-16.08-32.62,.22-5.38,5.41-14.72,11.17-14.6,16.59,.13,5.63,9.33,11.26,14.92,16.5,6.21,5.82,7.69,12.22,3.59,19.69-5.11,9.32-9.07,19.08-12.03,29.29-2.09,7.2-6.85,10.56-14.61,10.55-7.96,0-18.36-3.55-23.27,1.46-5.35,5.46-1.64,15.98-1.74,24.28-.26,20.45-.08,20.83,20.15,20.55,11.59-.16,18.73,4.04,21.26,15.7,1.71,7.89,5.26,15.17,9.27,22.12,5.23,9.05,3.51,16.1-3.97,23.34-15.68,15.18-15.42,15.46,.06,30.92,16.94,16.92,17.08,17.07,34.44,.28,6.11-5.91,11.88-7.09,19.63-3.21,8.75,4.38,17.85,8.33,27.18,11.23,9.28,2.88,12.64,8.45,12.71,17.77,.16,22.69,.39,22.68,23.64,22.68s23.12,0,22.75-22.56c-.16-9.98,3.14-15.49,13.13-18.19,8.34-2.26,16.35-6.17,24.07-10.18,9.11-4.73,16.1-3.68,23.43,3.9,15.17,15.69,15.48,15.42,30.8,.05,5.42-5.44,14.32-10.47,15.19-16.6,1.05-7.35-9.06-12.06-14.61-17.55-6.48-6.41-7.69-12.69-3.15-20.5,4.59-7.9,8.43-16.2,10.51-25.12,2.4-10.3,8.82-13.99,19.04-14.05,22.14-.13,22.14-.41,22.14-22.22Zm-81.52,.29c-1.4,46.97-39.37,82.15-87.16,80.74-44.37-1.31-78.42-39.62-77.14-86.79,1.15-42.24,39.7-78.17,82.64-77.02,45.86,1.22,82.98,38.98,81.66,83.07Zm-24.05-.71c.3-31.67-26.53-58.89-58.25-59.09-31.77-.2-58.53,26.72-58.45,58.8,.08,32.57,25.87,58.01,58.67,57.88,32-.13,57.73-25.67,58.03-57.59Z"/>
</svg>