<?xml version="1.0" encoding="UTF-8"?>
<svg id="Layer_1" data-name="Layer 1" xmlns="http://www.w3.org/2000/svg" viewBox="0 0 800 800">
  <defs>
    <style>
      .cls-1 {
        fill: #131313;
      }

      .cls-2 {
        fill: none;
      }
    </style>
  </defs>
  <rect class="cls-2" width="800" height="800"/>
  <path class="cls-1" d="M399.91,782.03c-7.96-1.01-12.73-5.32-12.43-13.76,.28-7.79,4.98-12.23,12.53-12.34,8.21-.12,13.47,4.83,13.49,12.92,.02,8.09-5.22,12.55-13.59,13.19Zm316.31-236.3c-38.44,121.69-120.7,197.46-244.24,228.63-5.09,1.28-10.36,1.83-15.57,2.59-7.89,1.15-14.29-.99-16.1-9.51-1.89-8.92,2.63-14.6,11.21-16.27,18.97-3.68,37.64-8.33,55.75-15.16,18.94-7.14,36.82-16.33,54.23-26.62,6.53-3.86,9.14-8.18,7.96-15.89-9.79-64.2-44.15-110.15-103.78-135.24-103.7-43.62-222.08,25.39-234.48,135.25-.91,8.07,1.49,11.94,7.79,15.78,32.15,19.58,66.34,33.75,103.54,40.26,5.2,.91,10.58,1.8,14.5,5.63,4.08,3.99,5.53,8.92,2.88,14.4-3.44,7.12-9.39,8.35-16.57,7.26-27.96-4.24-54.89-12.28-80.25-24.5-102.52-49.4-165.28-129.71-186.66-241.98-6.56-34.44-6.16-68.9-2.16-103.46,.59-5.1,2.01-10.52,4.61-14.86,3.35-5.59,9.51-6.28,15.19-3.68,6.96,3.19,8.37,9.13,7.31,16.5-4.2,29.23-5.09,58.57-1.02,87.9,10.55,76.03,44.76,139.25,104.33,191.64,16.52-77.4,60.52-129.84,135.7-157.22-33.19-26.23-49.29-59.48-44.5-100.97,3.2-27.75,16.31-50.74,38.09-68.29,44.27-35.68,106.86-30.38,144.89,11.5,33.85,37.28,43.56,107.12-18.18,157.91,74.19,27.19,118.53,79.02,135.09,156.53,27.44-22.53,48.7-48.23,65.63-77.49,36.22-62.58,48.71-129.74,37.78-201.21-1.3-8.47,.66-15.37,9.52-17.43,9.56-2.22,14.74,2.98,16.39,12.35,8.66,49.26,6.1,98.16-8.89,145.61Zm-236.77-105.96c.07-42.94-35.37-78.46-78.65-78.81-43.42-.36-78.78,34.51-79.09,77.97-.31,43.69,34,78.83,77.59,79.48,43.58,.65,80.08-35.16,80.15-78.64Zm57.61-298.93c-15.35,15.05-30.33,30.55-46.46,44.73-8.52,7.49-9.96,15.24-7.96,25.47,4.11,21.05,7.44,42.25,11.44,63.32,1.31,6.89,1.71,13.13-4.47,17.87-6.29,4.82-12.36,2.49-18.42-.72-19.77-10.45-39.81-20.42-59.23-31.47-8.16-4.64-14.45-5.04-22.81-.26-20.17,11.52-40.87,22.12-61.61,32.59-12.14,6.13-21.74,.31-21.6-13.59,3.84-21.64,7.53-44.55,12.1-67.29,2.07-10.3,.96-18.01-7.56-25.56-16.41-14.53-31.65-30.37-47.43-45.61-4.95-4.78-9.04-9.92-6.67-17.3,2.38-7.42,8.75-9.1,15.55-10.04,23.03-3.17,46.02-6.67,69.09-9.48,6.83-.83,10.95-3.27,13.97-9.71,9.85-21.02,20.38-41.71,30.58-62.57,3.19-6.52,6.54-12.48,15.29-12.13,7.95,.31,11.15,5.69,14.15,11.86,10.18,20.87,20.78,41.53,30.69,62.52,2.96,6.28,6.65,9.13,13.67,9.96,22.65,2.67,45.19,6.17,67.79,9.28,7.14,.98,14.06,2.23,17.18,9.98,3.33,8.29-2.23,13.22-7.23,18.13Zm-34.47-4.35c-21.31-3.17-39.84-6.15-58.44-8.59-8.72-1.14-14.03-5.33-17.74-13.34-7.84-16.94-16.48-33.5-26.08-52.79-9.52,19.22-17.98,35.53-25.66,52.19-3.89,8.44-9.54,12.91-18.77,14.05-15.64,1.93-31.21,4.43-46.77,6.89-2.72,.43-6.69-1.22-7.85,2.79-1.09,3.76,2.71,5.13,4.74,7.14,10.88,10.81,21.74,21.63,32.94,32.1,6.96,6.5,9.86,13.12,7.61,23.22-4.03,18.14-6.24,36.68-9.54,57.15,17.42-9.13,33.21-16.64,48.18-25.52,10.76-6.38,19.97-6.02,30.57,.17,15.04,8.77,30.77,16.36,48.39,25.6-2.75-15.43-4.29-28.79-7.61-41.7-4.98-19.37-3.5-35.35,14.48-48.35,11.29-8.16,20.19-19.63,31.56-31.01Zm-229.54,91.14c-11.28,11.04-22.08,22.65-34.08,32.85-7.63,6.48-8.26,13.47-6.69,22.12,3.13,17.21,6.22,34.43,8.79,51.73,1.41,9.46-3.17,15.02-10.88,15.71-7.2,.14-11.24-2.77-15.47-4.97-14.39-7.47-28.87-14.78-42.95-22.79-6.13-3.48-11.01-3.21-17.03,.13-15.32,8.49-31.05,16.25-46.5,24.53-5.75,3.08-11.55,5.03-17.29,1.05-6.27-4.34-6.28-10.67-4.87-17.69,3.18-15.86,5.63-31.86,8.64-47.75,1.66-8.76,.29-15.65-7.07-22.05-12.22-10.63-23.31-22.55-35-33.79-4.95-4.75-9.25-9.71-7.03-17.15,2.24-7.54,8.46-9,15.39-9.94,16.5-2.24,32.86-5.74,49.41-7.24,9.34-.84,13.68-5.03,17.26-13.02,6.78-15.17,14.7-29.82,21.94-44.79,2.89-5.97,6.63-10.19,13.86-10.09,7.19,.1,10.92,4.39,13.8,10.32,7.65,15.75,15.83,31.25,23.12,47.16,2.89,6.31,6.46,9.17,13.54,9.99,16.97,1.95,33.78,5.17,50.71,7.52,7.27,1.01,14.11,2.23,16.66,10.32,2.62,8.3-3.25,12.96-8.25,17.86Zm-32.05-4.53c-15.45-2.31-26.56-4.53-37.78-5.49-11.18-.96-18.48-5.62-23.11-16.18-4.81-10.97-9.25-22.34-17.44-32.91-5.61,11.35-11.27,21.29-15.51,31.79-4.72,11.72-12.94,16.57-25.12,17.48-10.71,.8-21.3,3.06-36.07,5.31,11.97,11.25,21.35,20.19,30.86,28.98,5.99,5.53,8.07,11.61,6.15,20.01-2.86,12.6-4.31,25.51-6.69,40.4,12.43-6.46,23.28-11.26,33.22-17.49,9.84-6.18,18.29-5.6,28.06,.18,9.84,5.82,19.75,12.06,32.6,15.36-2.01-12.59-3.05-23.9-5.77-34.8-2.79-11.15-.33-19.48,8.44-26.82,8.9-7.46,17.17-15.68,28.16-25.82Zm465.18,58.98c3.48,18.03,6.5,36.15,9.33,52.09-.33,14-9.83,19.28-21.62,13.45-15.31-7.57-30.55-15.37-45.27-24.01-8.27-4.86-14.97-4.39-23,.26-13.64,7.9-27.85,14.79-41.76,22.24-6.38,3.42-12.83,6.58-19.55,1.4-6.11-4.71-5.45-11.13-4.08-17.98,3.08-15.43,5.44-31,8.39-46.46,1.77-9.25,.25-16.47-7.52-23.16-12.27-10.56-23.33-22.53-35.05-33.75-5.06-4.84-8.8-10.1-6.23-17.36,2.37-6.71,8.16-8.24,14.65-9.13,17.37-2.37,34.62-5.61,52.02-7.67,6.96-.82,10.92-3.46,13.83-9.8,6.93-15.11,14.56-29.89,21.87-44.83,3.12-6.39,6-12.81,14.75-12.95,9.36-.15,12.51,6.6,15.85,13.42,7.3,14.94,14.95,29.72,21.91,44.82,2.7,5.85,6.19,8.39,12.7,9.18,18.26,2.23,36.39,5.52,54.62,8.08,6.22,.87,10.81,3.42,13.12,9.34,2.48,6.34-.71,11.08-4.91,15.23-12.17,12.01-24.03,24.39-36.88,35.63-7.29,6.38-8.88,13.07-7.17,21.95Zm7.07-59.24c-14.85-2.21-27.2-4.26-39.62-5.83-8.57-1.08-14.36-4.79-18.01-13.05-5.22-11.8-11.52-23.13-18.31-36.53-6.35,12.7-12.2,22.92-16.66,33.73-4.41,10.69-11.78,15.47-22.99,16.37-11.41,.91-22.89,2.09-34.63,6.33,9.55,9.68,17.93,18.54,26.71,26.98,6.52,6.26,9.43,12.69,7.04,22.22-3.05,12.2-4.24,24.86-6.59,39.53,13.45-7.04,25.17-12.84,36.55-19.26,7.24-4.08,13.76-4.16,21.01-.09,11.01,6.19,22.35,11.79,36.77,19.33-2.4-14.8-3.61-26.49-6.34-37.81-2.58-10.74,.32-18.51,8.39-25.65,8.71-7.72,16.65-16.32,26.68-26.28Z"/>
</svg>