<?xml version="1.0" encoding="UTF-8"?>
<svg id="Layer_1" data-name="Layer 1" xmlns="http://www.w3.org/2000/svg" viewBox="0 0 800 800">
  <defs>
    <style>
      .cls-1 {
        fill: none;
      }

      .cls-2 {
        fill: #010101;
      }
    </style>
  </defs>
  <rect class="cls-1" width="800" height="800"/>
  <path class="cls-2" d="M714.11,460.61c11.5-55.67,22.19-107.35,33.22-160.72-35.01,10.32-68.07,20.06-101.12,29.79-12.69,3.73-25.37,7.51-38.09,11.1-6.26,1.77-9.22,3.81-2.75,9.48,5.84,5.12,11.01,11,16.63,16.39,7.29,7.01,7.53,13.89,.3,21.11-58.63,58.57-117.2,117.21-175.9,175.71-8.47,8.44-13.37,7.98-22.69-1.3-33.08-32.96-66.05-66.02-99.11-98.99-20.46-20.4-39.4-19.92-59.1,1.3-70.97,76.46-141.96,152.9-212.95,229.34-2.11,2.28-4.1,4.76-6.54,6.63-5.34,4.09-11.06,4.12-15.85-.66-4.34-4.33-4.74-9.68-1.12-14.87,1.55-2.22,3.44-4.2,5.29-6.19,70.71-76.16,141.41-152.34,212.18-228.45,31.21-33.56,64.61-34.1,96.77-1.83,28.3,28.39,56.88,56.5,84.82,85.23,6.32,6.5,9.5,5.77,15.46-.24,49.3-49.77,98.86-99.29,148.6-148.62,5.7-5.65,6.47-9.26,.08-14.71-7.08-6.04-13.4-13-19.95-19.67-12.06-12.29-9.88-20.73,6.89-25.72,36.16-10.76,72.4-21.27,108.58-31.95,21.26-6.27,42.49-12.65,63.73-18.99,18.96-5.66,25.01-.54,21.13,18.6-12.76,62.97-25.76,125.9-38.67,188.85-1.13,5.49-2.83,10.74-8.8,12.77-6.66,2.27-10.97-1.73-15.21-6.05-6.8-6.95-14.41-13.22-20.53-20.72-5.93-7.27-9.31-5.41-15.07,.38-63.4,63.78-127.12,127.25-190.71,190.85-31.77,31.77-63.8,31.97-95.43,.41-28.39-28.32-56.89-56.53-84.93-85.19-5.76-5.89-8.56-5.78-13.97,.42-54.06,61.83-108.44,123.37-162.73,185-1.8,2.04-3.71,4-5.4,6.14-5.64,7.12-12.5,12.21-20.58,4.8-7.57-6.94-2.98-13.79,2.67-20.18,45.87-51.92,91.61-103.97,137.4-155.97,13.63-15.48,27.28-30.95,40.94-46.41,11.41-12.92,15.34-13.12,27.26-1.23,32.79,32.72,65.5,65.52,98.32,98.21,19.18,19.1,37.83,19.2,56.9,.17,68.05-67.92,136.02-135.92,204.03-203.89,11.98-11.98,15.99-12.08,27.76-.13,5.6,5.68,10.77,11.78,18.24,20.01Zm-149.86-229.77c0,20.62,.02,41.25,0,61.87,0,7.74,3.33,13.1,11.42,13.26,8.04,.16,11.79-4.91,11.93-12.74,.05-2.72,.02-5.45,.02-8.17,0-74.71,.23-149.43-.27-224.14-.07-10.13,2.92-11.93,12.25-11.74,30.74,.62,61.52,.83,92.25-.08,11.25-.33,12.92,3.52,12.85,13.51-.44,59.92-.17,119.85-.28,179.78-.01,8.46,.89,16.54,11.39,16.8,10.41,.26,12.12-7.37,12.1-16.09-.11-66.93-.03-133.86-.08-200.79-.01-13.06-3.4-16.48-16.67-16.51-43.21-.1-86.43-.09-129.64,0-14.03,.03-17.24,3.27-17.25,17.1-.05,40.86-.02,81.72-.02,122.58,0,21.79,0,43.58,0,65.37Zm-81.82,45.55c-.03-13.4-3.24-16.93-16.2-16.97-43.59-.12-87.19-.11-130.78,0-13.24,.03-16.55,3.44-16.57,16.59-.07,39.3,.05,78.59-.08,117.89-.03,8.91,.9,17.41,12.19,17.14,10.47-.26,11.33-8.46,11.3-16.89-.14-33.46,.23-66.92-.26-100.38-.12-8.39,1.51-11.18,10.62-10.99,31.9,.66,63.84,.58,95.74,.04,8.52-.14,11.01,1.68,10.94,10.67-.48,56.8-.19,113.61-.3,170.41-.02,8.88,.81,17.43,12.11,17.22,10.47-.2,11.42-8.35,11.38-16.81-.14-31.12-.06-62.25-.06-93.38,0-31.51,.04-63.03-.02-94.54ZM73.43,584.37c0,5.92,1.63,10.74,7.67,13,4.43,1.66,8.56,.77,11.96-2.29,4.22-3.79,3.78-9.04,3.78-14.12-.03-49.01,.19-98.02-.22-147.02-.07-8.36,1.47-11.2,10.6-11,31.12,.67,62.26,.47,93.38,.12,8.68-.1,14.97-.16,13.41,11.79-.93,7.12,4.46,11.54,11.82,11.32,6.79-.2,10.69-4.44,11.08-11.19,.36-6.2,.17-12.44,.12-18.66-.12-13.28-3.28-16.71-16.43-16.74-43.58-.11-87.16-.11-130.75,0-13.13,.03-16.36,3.47-16.39,16.76-.07,27.62-.02,55.23-.02,82.85,0,28.39,.03,56.79-.02,85.18Zm654.42-21c0-10.89-.07-21.78,.02-32.67,.07-8.2-3.14-14.07-11.92-13.93-8.82,.14-11.75,6.25-11.48,14.35,.08,2.33,.01,4.67,.01,7,0,54.84,0,109.69,0,164.53,0,18.67,.09,37.34-.04,56.01-.06,8.04,2.51,14.34,11.35,14.51,9.55,.18,12.39-6.4,12.08-14.93-.09-2.33-.01-4.67-.01-7,0-35.4,0-70.79,0-106.19,0-27.23,0-54.46,0-81.68Zm-140.17,39.67c.06-8.69-1.6-16.29-12.03-16.16-9.63,.12-11.48,7.24-11.46,15.55,.11,51.71,.11,103.43,0,155.14-.02,8.29,1.8,15.45,11.43,15.58,10.41,.15,12.12-7.43,12.06-16.13-.17-25.27-.06-50.55-.06-75.82s-.11-52.1,.06-78.16Zm-268.88,155.11c-.07,8.49,2.42,15.14,11.99,15.03,8.81-.1,11.49-6.32,11.47-14.38-.08-40.82-.08-81.63,0-122.45,.02-8.04-2.58-14.3-11.41-14.44-9.56-.15-12.12,6.45-12.05,14.96,.16,19.82,.05,39.65,.05,59.47s.11,41.21-.05,61.81Zm-105.14,1.21c-.07,8.22,3.23,13.95,11.98,13.84,8.06-.11,11.41-5.52,11.41-13.24-.01-22.14-.01-44.28,0-66.42,0-7.72-3.33-13.14-11.39-13.25-8.75-.12-12.06,5.59-12,13.82,.09,10.87,.02,21.75,.02,32.63,0,10.88,.06,21.75-.02,32.63Zm268.74-55.01c-.13-7.85-4.21-12.68-12.2-12.4-7.38,.26-11.05,5.09-11.08,12.36-.09,18.64-.05,37.28-.03,55.91,0,7.78,3.61,12.97,11.65,12.98,8.04,0,11.66-5.17,11.69-12.94,.04-8.93,0-17.86,0-26.79,0-9.71,.12-19.42-.04-29.12Z"/>
</svg>