<?xml version="1.0" encoding="UTF-8"?>
<svg id="Layer_1" data-name="Layer 1" xmlns="http://www.w3.org/2000/svg" viewBox="0 0 800 800">
  <defs>
    <style>
      .cls-1 {
        fill: none;
      }

      .cls-2 {
        fill: #060606;
      }
    </style>
  </defs>
  <rect class="cls-1" width="800" height="800"/>
  <path class="cls-2" d="M225.9,242.38c-5.8-.3-11.31,.02-16.55-1-7.48-1.46-12-6.1-11.88-14.35,.11-7.64,4.03-12.48,11.24-13.69,11.39-1.92,22.98-1.85,34.37-.05,7.15,1.13,11.23,5.9,11.38,13.58,.16,8.22-4.2,13-11.74,14.43-5.6,1.07-11.46,.78-16.82,1.07Zm360.99,141.44c-1.44-7.6-6.33-11.81-14.5-11.64-7.7,.17-12.56,4.36-13.49,11.47-1.54,11.73-2.21,23.64,.46,35.37,1.59,6.98,6.42,10.08,13.4,10.11,6.94,.02,11.3-3.12,13.68-9.89,2.13-6.08,.67-12.17,1.54-19.42-.27-4.55-.02-10.4-1.08-16Zm-.27,85.56c-2.15-6.72-6.26-10.28-13.28-10.45-7.47-.18-12.78,3.1-14.12,10.57-2.15,12.08-2.35,24.3,.19,36.36,1.48,7,6.51,10.01,13.47,9.99,6.96-.02,11.25-3.25,13.58-10.01,2.1-6.09,.62-12.17,1.36-18.21-.73-6.05,.74-12.15-1.21-18.24Zm-117.23-256.26c-7.53,1.43-11.92,6.21-11.75,14.42,.15,7.66,4.19,12.45,11.36,13.6,11.39,1.82,22.98,1.88,34.37-.04,7.2-1.22,11.13-6.02,11.26-13.67,.14-8.26-4.38-12.89-11.86-14.36-5.24-1.03-10.75-.7-16.48-.99-5.44,.29-11.3-.02-16.9,1.04Zm117.9,361.08c0-5.4,.72-10.92-.17-16.17-1.26-7.37-5.59-12.28-13.92-12.41-8.22-.13-13.27,4.18-14.43,11.73-1.7,11.04-1.65,22.34-.05,33.38,1.09,7.49,6.04,11.96,14.31,11.89,8.33-.07,12.74-4.88,14.04-12.26,.92-5.24,.18-10.77,.18-16.17,.01,0,.03,0,.04,0ZM416.15,241.31c7.53-1.43,11.91-6.2,11.75-14.42-.15-7.68-4.21-12.45-11.37-13.59-11.39-1.81-22.98-1.87-34.37,.04-7.21,1.2-11.14,6.04-11.25,13.68-.12,8.24,4.38,12.89,11.87,14.36,5.24,1.03,10.75,.71,16.49,1.01,5.42-.29,11.28,0,16.88-1.07Zm-86.64-.03c7.57-1.44,11.84-6.28,11.67-14.48-.17-7.7-4.32-12.55-11.45-13.51-11.73-1.57-23.64-2.2-35.37,.43-6.98,1.57-10.1,6.41-10.13,13.38-.04,6.93,3.1,11.33,9.86,13.71,6.08,2.14,12.17,.68,19.43,1.53,4.54-.26,10.39,0,15.99-1.07Zm257.48,56.05c-1.41-7.49-6.09-11.99-14.34-11.88-7.65,.11-12.48,4.04-13.69,11.24-1.91,11.39-1.85,22.98-.04,34.37,1.13,7.15,5.9,11.23,13.59,11.38,8.22,.16,12.95-4.21,14.43-11.74,1.03-5.24,.76-10.74,1.07-16.14-.29-5.76,.05-11.63-1.01-17.24ZM211.71,82.24c5.06,0,10.12,.12,15.17-.03,8.97-.26,13.38-6.27,13.47-13.97,.09-7.82-4.83-13.81-13.32-14.28-10.09-.56-20.25-.56-30.34-.03-8.85,.46-14.13,5.84-13.89,14.74,.22,8.29,5.05,13.28,13.74,13.57,5.05,.16,10.11,.03,15.17,.03,0-.01,0-.02,0-.04Zm72.49-28.4c-8.89,.4-14.48,5.19-14.68,14.06-.2,8.84,4.83,14.16,14.03,14.36,9.75,.21,19.51,.1,29.26,.04,9.45-.06,14.37-6.12,14.25-14.33-.12-8.25-5.55-13.87-14.68-14.15-4.33-.13-8.67-.02-13.01-.02-5.06,0-10.13-.19-15.17,.04Zm86.68,0c-8.89,.43-14.46,5.23-14.64,14.1-.18,8.85,4.88,14.14,14.07,14.33,9.75,.2,19.51,.1,29.26,.03,9.46-.07,14.36-6.16,14.22-14.37-.14-8.25-5.59-13.86-14.73-14.11-4.69-.13-9.39-.02-14.09-.02s-9.4-.19-14.09,.04Zm115.99,28.4c8.95-.2,13.44-6.09,13.63-13.82,.19-7.86-4.68-13.92-13.13-14.42-10.44-.62-20.99-.72-31.41,.03-8.23,.59-13.23,6.08-13.01,14.48,.22,8.28,4.88,13.38,13.59,13.72,5.05,.2,10.11,.04,15.17,.03,5.06,0,10.12,.09,15.17-.02Zm86.7,0c8.95-.19,13.45-6.07,13.65-13.8,.2-7.86-4.66-13.93-13.11-14.44-10.44-.63-20.99-.73-31.41,.02-8.23,.59-13.25,6.06-13.03,14.47,.21,8.28,4.86,13.39,13.57,13.74,4.69,.19,9.39,.03,14.09,.03,5.42,0,10.84,.09,16.25-.02Zm86.74,0c8.95-.2,13.44-6.09,13.64-13.81,.2-7.86-4.68-13.92-13.13-14.43-10.44-.63-20.99-.73-31.41,.03-8.22,.59-13.24,6.07-13.02,14.48,.22,8.28,4.87,13.39,13.58,13.73,5.05,.2,10.11,.04,15.17,.03,5.06,0,10.12,.09,15.17-.02Zm85.82,56.99c-.88-8.44-6.65-13.3-14.5-13.1-7.74,.2-13.66,4.73-13.78,13.67-.13,10.11-.22,20.23,.03,30.34,.21,8.7,5.45,13.37,13.73,13.56,8.39,.2,13.46-4.85,14.52-13.06,.64-4.97,.12-10.1,.11-15.16,0-5.42,.45-10.89-.11-16.25Zm.11,189.79c0-5.42,.43-10.88-.1-16.25-.83-8.46-6.59-13.35-14.42-13.2-7.72,.14-13.72,4.62-13.86,13.58-.16,10.11-.22,20.23,0,30.34,.19,8.69,5.36,13.5,13.64,13.64,8.89,.16,13.94-5.18,14.69-14.02,.4-4.66,.07-9.39,.07-14.08-.01,0-.02,0-.03,0Zm-.04,71.02c-.57-8.57-6.2-13.66-13.94-13.75-8.24-.1-14.36,4.66-14.45,14.12-.1,9.75-.17,19.51,0,29.26,.17,9.16,5.37,14.31,14.23,14.19,8.85-.13,13.71-5.66,14.2-14.55,.26-4.68,.05-9.39,.03-14.09-.01-5.06,.26-10.13-.07-15.17Zm-28.33-143.15c.37,8.7,5.5,13.36,13.77,13.53,8.39,.18,13.85-4.87,14.43-13.09,.74-10.42,.66-20.97,0-31.41-.53-8.44-6.63-13.29-14.48-13.07-7.74,.22-13.58,4.76-13.76,13.7-.1,5.05-.02,10.11-.01,15.17,0,5.06-.17,10.12,.04,15.17Zm.01,260.28c.4,8.72,5.61,13.31,13.87,13.43,8.38,.12,13.79-4.95,14.34-13.2,.7-10.43,.68-20.98-.02-31.41-.56-8.41-6.69-13.24-14.57-12.96-7.77,.28-13.52,4.87-13.67,13.8-.08,5.06-.02,10.11,0,15.17,.01,5.06-.18,10.12,.06,15.17Zm-.02,86.58c.36,8.7,5.46,13.37,13.74,13.57,8.39,.2,13.87-4.84,14.46-13.06,.75-10.42,.66-20.97,.02-31.41-.52-8.44-6.6-13.31-14.45-13.11-7.74,.2-13.6,4.72-13.79,13.66-.11,5.05-.02,10.11-.02,15.17,0,5.06-.17,10.12,.04,15.17Zm20.51-547.94c-9.54-3.66-19.85-4.09-29.21,.84-5.11,2.69-6.93,8.14-6.04,14.03,.76,4.97,21.39,25.55,26.34,26.29,5.9,.88,10.62-1.37,14.15-6.04,3.57-4.72,2.61-10.3,2.67-16.8,.34-6.6,.75-15-7.93-18.32Zm-158.24,159.19c-9.72-4.46-20.28-4.56-30.04,.62-4.4,2.34-5.89,6.93-5.72,11.99,.27,8.14,19.7,27.81,27.87,28.08,10.54,.35,15.47-6.3,15.52-20.92,.03-7.62,.39-16.1-7.62-19.78Zm-94.11,475.29c-.23,17.35-13.17,28.62-32.47,28.74-33.59,.21-67.18,.06-100.77,.06-78.38,0-156.75,.01-235.13,0-25.62,0-36.62-11.11-36.64-36.94-.02-24.56-.06-49.12,.01-73.68,.06-19.37,6.42-28.46,24.92-33.9,4.35-1.28,4.8-3.08,4.7-6.59-.14-5.05-.52-10.17,.09-15.15,.7-5.68-2.19-7.45-6.85-8.8-15.36-4.47-22.57-13.47-22.78-29.81-.35-27.45-.41-54.9,0-82.35,.3-19.84,12.36-31.14,32.24-31.16,57.07-.05,114.13-.02,171.2-.02,55.98,0,111.96-.01,167.95,0,22.61,0,33.61,11.06,33.63,33.75,.02,26,.03,52.01,0,78.01-.03,17.93-5.86,26.1-22.99,31.66-4.06,1.32-6,3.16-5.57,7.62,.38,3.94,.51,8-.02,11.9-.96,7.11,1.22,10.5,8.76,12.45,12.5,3.24,19.62,13.32,19.74,26.44,.26,29.25,.36,58.51-.02,87.76ZM118.5,516.02c110.1-.17,220.2-.2,330.29,.05,7.35,.02,9-2.25,8.87-9.15-.4-22.37-.6-44.77,.07-67.13,.26-8.8-2.52-10.72-10.89-10.67-54.14,.37-108.29,.19-162.44,.19-54.87,0-109.74,.11-164.61-.14-6.78-.03-9.4,1.32-9.24,8.79,.51,23.45,.41,46.93,.04,70.39-.1,6.27,1.93,7.68,7.89,7.68Zm298.24,29.42c-86.33,.33-172.67,.2-259,.2-18.55,0-17.95,.03-18.74,18.43-.39,9.08,2.94,10.29,10.84,10.23,44.43-.35,88.86-.17,133.29-.17h126.79c18.03,0,17.38-.03,18.25-17.84,.46-9.56-2.88-10.88-11.43-10.85Zm40.96,134.5c-.5-22.73-.45-45.48-.02-68.22,.13-7.12-1.92-9.13-9.08-9.12-109.74,.22-219.47,.23-329.21-.03-7.53-.02-8.88,2.51-8.77,9.26,.37,22.74,.48,45.49-.05,68.22-.18,7.59,1.81,9.54,9.45,9.49,54.87-.36,109.74-.19,164.6-.19,54.51,0,109.02-.15,163.52,.17,7.58,.04,9.73-1.99,9.56-9.58ZM195.73,146.43c-4.18,8.3-11.65,9.41-19.16,8.91-7.5-.49-8.92,2.21-8.85,9.06,.33,31.76,.15,63.52,.15,95.28,0,31.04,.07,62.08-.03,93.12-.05,14.61-4.75,19.24-19.49,19.36-15.52,.12-31.04,.1-46.56,0-15.67-.1-20.73-5.09-20.74-20.78-.06-61.36-.15-122.71,.12-184.07,.04-8.27-.18-13.73-11.06-12.21-6.47,.9-12.69-1.75-15.69-8.86-2.75-6.53-.65-11.75,3.46-16.85,17.86-22.16,35.52-44.47,53.47-66.55,8.86-10.89,17.91-11.11,26.69-.42,17.59,21.44,34.96,43.07,52.11,64.86,4.24,5.39,9.85,10.7,5.59,19.15Zm-47.02-25.13c-8.38-9.22-14.5-20.36-24.15-28.5-8.02,9.69-16.02,19.4-24.08,29.06-1.88,2.26-3.07,4.03,.84,5.52,8.74,3.33,9.4,10.92,9.41,18.7,.03,31.05,.01,62.09,.01,93.14,0,28.52,0,57.04,0,85.56,0,17.72,.02,17.22,18.2,17.89,8.58,.32,10.55-2.21,10.5-10.59-.37-62.09-.15-124.18-.27-186.27-.01-7.6,.53-14.79,8.45-18.18,4.55-1.94,3.21-3.98,1.08-6.32ZM737.17,689.58c-21.46,17.57-43.24,34.75-64.92,52.06-5.47,4.37-11,8.13-18.61,4.49-7.39-3.53-9.49-10.27-8.86-17.01,.86-9.2-2.97-10.29-10.79-10.2-32.47,.39-64.96,.19-97.43,.15-17.1-.02-21.88-4.79-21.93-21.78-.05-15.52-.16-31.04,.04-46.55,.17-13.46,4.99-18.35,18.16-18.47,17.32-.16,34.64-.04,51.97-.04,16.96,0,33.93-.28,50.88,.14,6.76,.17,9.88-1.22,9.19-8.8-.7-7.67,.32-15.16,8.72-19.14,8.58-4.05,14.18,1.03,20.16,5.85,21.3,17.2,42.93,33.99,63.99,51.48,12.58,10.45,12.31,17.28-.56,27.81Zm-28.65-14.27c-9.34-7.47-18.24-14.1-26.55-21.41-4.91-4.32-7.69-6.02-11.46,1.41-2.84,5.62-9.41,5.62-15.4,5.6-30.68-.13-61.35-.06-92.03-.06-18.88,0-18.47,.01-18.93,19.25-.18,7.67,1.94,9.54,9.5,9.44,33.2-.44,66.4-.21,99.61-.18,8.08,0,16.1,.31,19.57,9.71,1.58,4.26,3.66,1.9,5.59,.35,9.82-7.85,19.62-15.72,30.09-24.11ZM183.23,487.3c8.55-.58,13.66-6.17,13.76-13.93,.1-8.25-4.66-14.36-14.11-14.46-9.75-.11-19.51-.16-29.26,0-9.18,.16-14.3,5.36-14.18,14.22,.11,8.87,5.67,13.7,14.54,14.21,4.68,.27,9.39,.05,14.09,.03,5.06-.01,10.13,.26,15.17-.07Zm230.83-28.4c-8.4-.1-14.5,5.65-14.63,13.81-.13,7.79,6.34,14.51,14.14,14.69,8.14,.18,14.21-5.79,14.37-14.12,.15-8.51-5.41-14.28-13.87-14.38Zm-261.54,173.55c-8.21,.38-12.61,5.35-13.1,13.07-.54,8.43,4.3,14.25,12.43,14.98,10.75,.96,21.7,.89,32.47,.06,8.29-.63,13.06-6.85,12.63-14.83-.39-7.25-4.59-12.97-13.02-13.27-5.41-.19-10.83-.04-16.25-.05-5.06,0-10.12-.2-15.16,.03Zm261.22-.13c-8.35,.05-14.38,6-14.32,14.15,.05,7.81,6.66,14.37,14.46,14.36,8.15,0,14.02-6.05,14.03-14.43,0-8.5-5.66-14.13-14.17-14.08Z"/>
</svg>