<?xml version="1.0" encoding="UTF-8"?>
<svg id="Layer_1" data-name="Layer 1" xmlns="http://www.w3.org/2000/svg" viewBox="0 0 800 800">
  <defs>
    <style>
      .cls-1 {
        fill: none;
      }

      .cls-2 {
        fill: #010202;
      }
    </style>
  </defs>
  <rect class="cls-1" width="800" height="800"/>
  <path class="cls-2" d="M401.02,20.02c58.62,0,117.24-.03,175.86,.01,20.61,.01,29.31,7.3,33.29,27.61,9.2,46.86,47.01,84.14,94.7,93.36,39.33,7.6,41.2,9.82,41.13,50.36-.07,39.99-.16,79.98-.51,119.97-.08,8.67-1.41,17.33-1.97,26.01-.46,7.17-4.15,11.23-11.25,10.88-8-.39-10.63-5.97-10.26-13.16,.53-10.26,1.89-20.5,1.95-30.76,.26-41.97-.08-83.94,.36-125.91,.1-9.54-2.96-12.65-12.58-13.96-63.22-8.6-110.59-52.44-122.7-113.42-1.93-9.74-7.69-9.31-14.61-9.3-61.39,.04-122.78,.02-184.17,.02-53.47,0-106.94,.27-160.41-.23-10.9-.1-15.45,2.26-17.99,14.12-12.43,57.95-60.39,100.5-121.7,108.81-9.62,1.3-12.68,4.41-12.58,13.95,.45,43.15,.16,86.32,.39,129.48,.05,8.67,1.18,17.34,1.9,26,.63,7.56-1.23,14.11-9.73,14.87-8.37,.75-11.14-4.78-11.94-12.72-4.34-43.07-1.45-86.24-2.27-129.36-.22-11.48-.27-22.97,.08-34.45,.49-16.16,9.97-26.11,26.02-28.52,48.78-7.32,85.78-30.61,104.62-78.01,2.31-5.81,3.77-12.03,5.03-18.19,4.14-20.18,12.75-27.43,33.47-27.45,58.62-.04,117.24-.01,175.86-.01Zm13.95,756.59c79.05-38.56,149.8-88.12,206.84-155.93,53.71-63.86,91.35-135.85,110.87-217.13,1.73-7.2,3.31-14.99-6.2-17.46-9.42-2.44-12.8,3.36-14.91,12.11-3.97,16.42-8.58,32.79-14.35,48.66-47.26,129.99-134.92,224.75-255.14,290.78-13.44,7.38-26.88,20.14-41.04,19.39-14.05-.75-27.78-11.96-41.19-19.4-136.81-75.83-230.3-186.17-269.56-339.41-2.09-8.17-4.57-15.09-14.2-13.12-10.48,2.15-8.73,10.58-6.94,18.12,9.72,40.78,24.23,79.76,43.57,116.97,61.36,118.03,156.88,199.52,274.96,256.83,4.16,2.02,9.01,2.64,13.72,3.96,4.65-1.47,9.4-2.35,13.57-4.39ZM693.37,227.28c-1.53,30.41,.67,60.91-1.89,91.37-6.93,82.41-34.4,157.38-81.05,225.39-49.3,71.88-113.63,126.9-190.27,167.97-12.11,6.49-24.01,7.75-36.14,1.2-121-65.34-208.71-159.78-253.04-291.46-15.32-45.52-22.34-92.69-22.19-140.82,.06-20.58,.08-41.17,0-61.75-.07-16.92,7.65-28.55,23.25-35.03,45.17-18.76,79.62-49.22,101.62-93.23,7.29-14.58,19.08-21.22,35.35-21.14,43.95,.2,87.9,.07,131.86,.07,43.56,0,87.11,.28,130.67-.14,17.86-.17,29.97,7.26,37.86,23.06,20.43,40.89,52.16,70.45,93.95,88.13,21.69,9.18,31.21,22.95,30.03,46.39Zm-21.61-8.36c.06-9.01-5.83-12.66-13.3-15.9-47.71-20.69-84.72-53.21-108.27-100.02-4.09-8.12-9.55-11.44-18.64-11.38-43.56,.3-87.12,.14-130.67,.14-43.16,0-86.33,.12-129.49-.1-8.66-.05-14.89,1.9-19.16,10.46-23.59,47.25-60.69,80.33-108.94,100.91-10.07,4.29-13.74,10.41-13.25,20.82,.54,11.46,.29,22.96,.09,34.43-.89,52.45,4.49,104.05,20.93,154.11,41.18,125.38,123.8,215.41,237.87,278.71,8.63,4.79,15.68,4.65,24.24-.02,60.82-33.15,113.79-75.76,157.24-129.8,53.35-66.35,86.57-141.41,97.46-226.19,4.97-38.65,3.64-77.41,3.88-116.16Zm-111.76,114.88c-.79,45.5-.21,91.02-.23,136.53-.02,30.65-12.7,43.5-42.92,43.52-38.4,.02-76.8,0-115.2,0s-77.61-.83-116.38,.32c-22.43,.66-42.61-11.95-41.76-40.96,1.4-48.24,1.22-96.57,0-144.83-.55-21.75,14.64-40.54,37.85-37.88,12.2,1.4,15.15-2.82,14.99-14.81-.28-20.83-2.71-41.83,2.35-62.56,11.63-47.58,55.04-81.44,103.99-80.8,49.13,.64,93.28,36.57,102.45,84.4,4.04,21.06,2.48,42.62,2.07,63.95-.15,8.02,2.44,10.48,10.11,9.73,31.48-3.07,43.1,18.47,42.66,43.38Zm-242.55-53.3c-.5,7.63,1.7,10.22,9.74,10.04,24.53-.54,49.07-.2,73.61-.2,25.33,0,50.66-.07,75.99,.05,5.27,.03,9.4-.2,9.08-7.3-.85-18.94,1.2-37.94-1.54-56.87-5.88-40.64-39.63-70.49-81.67-71.91-38.84-1.31-74.55,27.01-82.99,65.88-4.33,19.97-.93,40.23-2.24,60.3Zm220.16,49.34c-.04-14.91-3.29-17.98-18.38-18-39.17-.06-78.34-.02-117.51-.02-39.17,0-78.34-.03-117.51,.01-15.9,.02-18.92,2.97-18.93,18.47-.04,47.47-.03,94.93,0,142.4,.01,15.6,4.08,19.87,19.35,19.88,77.94,.06,155.89,.06,233.83,0,14.54-.01,19.13-4.57,19.16-19.14,.1-47.86,.11-95.72,0-143.58Zm-130.15,35.61c-10.54-2.69-22.1,2.01-27.7,11.28-5.89,9.74-5.34,23.08,3.43,30.38,7.13,5.94,8.48,12.41,7.84,20.6-.37,4.72,.08,9.49-.08,14.23-.24,6.87,2.33,11.94,9.55,12.49,7.93,.59,11.13-4.81,11.91-11.85,.35-3.13,.12-6.32,.11-9.48-.04-10.44-1.76-20.98,9.16-28.45,4.27-2.93,5.48-9.41,5.3-15.19-.24-11.13-8.4-21.17-19.51-24.01Z"/>
</svg>