<?xml version="1.0" encoding="UTF-8"?>
<svg id="Layer_1" data-name="Layer 1" xmlns="http://www.w3.org/2000/svg" viewBox="0 0 800 800">
  <defs>
    <style>
      .cls-1 {
        fill: #020202;
      }

      .cls-2 {
        fill: none;
      }
    </style>
  </defs>
  <rect class="cls-2" width="800" height="800"/>
  <path class="cls-1" d="M278.63,744.25c3.6,5.23,6.41,9.17,9.07,13.21,3.93,5.97,3.34,11.64-2.21,16.12-5.51,4.45-12.19,4.48-16.29-.99-12.84-17.11-25.47-34.44-36.92-52.5-5.01-7.9-.67-15.38,8.34-17.75,17.53-4.61,35.25-8.52,52.97-12.39,7.6-1.66,12.93,2.42,14.73,9.37,1.91,7.39-2.42,11.89-9.39,14.43-4.44,1.62-9.73,.86-14.49,5.46,18.48,7.45,36.91,12.39,55.79,15.1,102.75,14.76,192.61-12.31,268.52-83.75,6.31-5.94,13.05-9.21,20.04-2.27,7.22,7.17,3.43,13.81-2.78,19.79-52.21,50.2-113.84,81.03-185.74,91.42-51.67,7.46-102.19,3.28-151.84-12.62-2.65-.85-5.38-1.45-9.8-2.62Zm441.14-385.04c-18.47-85.59-63.84-153.58-134.65-204.66-31.74-22.9-66.78-39.06-104.62-49.29-7.7-2.08-13.16,.03-15.66,6.87-2.7,7.37-.33,13.55,8.08,16.05,2.31,.69,4.54,1.65,6.85,2.37,92.25,28.65,157.84,87.49,197.56,175.22,10.1,22.3,17.02,45.72,20.81,70.66-5.77-1.57-7.79-5.91-10.87-8.93-5.57-5.47-11.66-8.13-18.08-2.27-6.08,5.56-5.56,12.46-.3,18.3,11.91,13.23,23.96,26.34,36.44,39.02,6.61,6.71,15.05,6.66,19.43-1.7,9.72-18.55,18.24-37.75,26.58-56.98,2.89-6.66,.49-12.85-6.77-15.95-7.72-3.29-12.17,1.08-15.61,7.2-1.94,3.46-3.65,7.04-5.47,10.59-2.85-1.72-3.2-4.11-3.72-6.52ZM167.4,179.66c-83.7,79.12-119.42,176.11-107.74,290.49,1.47,14.37,5.41,28.5,8.42,42.69,1.66,7.82,6.53,12.47,14.76,10.63,8.08-1.81,10.76-7.75,9-15.74-.43-1.97-.65-3.99-1.11-5.96-20.93-89.83-5.07-172.95,45.88-249.49,15.83-23.78,34.84-44.8,59.17-64.02-1.59,6.68-2.25,11.05-3.68,15.15-2.75,7.89-.63,14.03,7.15,16.49,7.61,2.41,13.35-.94,15.79-9,5.14-16.96,10.54-33.84,15.46-50.86,2.72-9.41-2.19-16.56-10.94-16.23-21.34,.81-42.63,3.44-63.87,5.9-7.22,.83-9.97,6.4-9.22,13.35,.82,7.52,6.28,10.03,12.82,10.2,4.36,.12,8.75-.96,13.75-1.59-.79,4.95-3.69,6.11-5.66,7.97Zm406.84,232.57c-1.02,11.23-.65,22.65-.08,33.95,.47,9.4-2.35,16.38-12.06,17.9-23.36,3.64-22.89,25.53-30.84,40.52-2.66,5.01,3.5,11.95,6.37,17.56,4.57,8.96,3.31,15.82-4.16,22.57-8.39,7.58-16.43,15.62-24,24.02-7.29,8.08-14.91,10.75-24.41,4.29-18.92-12.86-33.4,2.8-49,8.55-3.95,1.46-5.83,10.19-7.44,15.93-2.79,10-9.38,13.31-18.97,13.16-11.32-.18-22.66-.34-33.97,.05-10.76,.37-16.92-3.99-20.66-14.42-7.98-22.25-34.43-33.34-55.67-23.04-10.2,4.94-17.24,3.67-24.53-4.47-7.27-8.12-14.98-15.94-23.15-23.15-8.32-7.34-10.55-15.47-4.24-24.51,13.3-19.07-3.38-33.24-8.37-48.9-1.37-4.29-11.62-6.15-18.07-8.33-8.13-2.76-11.44-8.11-11.31-16.41,.18-10.92,.81-21.91-.15-32.74-1.16-13.07,4.12-20.14,16.3-24.37,19.69-6.83,31.5-34.37,22.11-52.89-6.09-12.03-3.96-20.21,5.75-28.55,8.26-7.09,15.58-15.28,23.23-23.07,3.21-3.27,6.55-6.05,13.26-5.56,.25,.05,2.74-.18,4.12,.94,18.51,15.08,34.66,1.2,51.44-4.1,7.03-2.22,7.11-9.6,8.66-14.91,3.51-12.05,10.27-17.18,22.95-16.11,10.44,.88,21.04,.57,31.53,.07,10.28-.49,17.74,2.67,19.61,13.47,3.94,22.73,25.52,21.75,40.23,29.42,5.02,2.61,11.87-3.73,17.62-6.41,8.45-3.93,15.22-3.22,21.74,3.82,8.24,8.89,16.8,17.52,25.7,25.75,6.93,6.41,9.56,13.58,3.88,21.36-13.94,19.08,1.7,34,6.88,50.12,1.63,5.08,9.48,5.46,14.79,7.15,10.56,3.36,15.99,9.36,14.91,21.35Zm-24.6,19.22c-1.04-8.48,3.71-18.92-10.34-21.9-8.12-1.72-16.4-5-18.42-15.19-2.37-12.01-7.64-22.92-13.73-33.4-3.08-5.31-3.56-10.27-1.23-16.09,8.01-20.03,7.77-19.98-7.94-33.83-3.53-3.11-6.65-4.49-10.7-1.74-13.49,9.16-26.28,7.11-39.07-1.76-3.56-2.47-7.97-4.2-12.23-5.05-13.79-2.75-23.08-9.5-26.5-24.05-3.12-13.3-14.58-5.94-22.34-7.48-5.95-1.18-10.96-.09-12.48,7.56-2.73,13.72-11.3,21.44-25.34,23.61-4.65,.72-9.48,2.74-13.38,5.41-12.83,8.78-25.6,10.86-39.11,1.78-1.31-.88-2.94-1.28-3.97-1.71-3.64,.1-21.76,17.38-21.76,20.48,0,1.11,.67,2.33,1.34,3.3,10.38,15.09,6.94,29.21-2.22,43.5-3.18,4.97-5.08,11.08-6.25,16.93-1.82,9.04-7.1,13.48-15.41,16.71-5.53,2.15-14.85,1.06-14.43,11.47,.28,6.86,.03,13.74,.29,20.61,.12,3.04,3.29,3.82,5.29,4.18,17.24,3.1,24.49,14.76,27.87,30.6,1.15,5.4,3.66,10.88,6.86,15.39,6.71,9.46,6.86,18.61,.63,27.99-5.15,7.75-3.71,13.55,3.55,19.32,6.92,5.5,11.69,15.31,22.95,7.33,9.76-6.92,19.09-5.35,29.08,.97,7.01,4.44,15.35,7.18,23.45,9.36,9.43,2.54,16.47,6.93,18.2,16.97,2.14,12.39,9.98,15.16,20.92,13.33,5.46-.91,13.55,3.26,15.29-5.44,3.57-17.83,16.09-24.24,31.81-28.3,6.89-1.78,13.26-5.81,19.62-9.27,5.38-2.92,10.17-3.09,16-.65,19.61,8.2,19.62,7.88,33.86-8.76,2.71-3.16,4.2-5.88,1.63-9.57-9.6-13.8-7.22-26.85,1.61-40.12,3.28-4.93,6-10.92,6.72-16.71,1.49-12.05,8.77-17.85,19.34-20.23,8.95-2.01,11.56-7.06,10.51-15.55Zm-337.17,252.99c-27.91,.14-55.82,.04-83.74,.04-27.51,0-55.02,.1-82.52-.03-16.86-.08-21.64-8.86-12.63-23.41,27.46-44.31,55.03-88.55,82.67-132.75,8.65-13.83,17.7-13.75,26.5,.31,27.65,44.16,55.18,88.38,82.62,132.67,8.89,14.35,3.99,23.09-12.91,23.17Zm-17.15-25.16c-22.18-35.56-43.57-69.86-65.92-105.69-22.42,35.97-43.82,70.3-65.88,105.69H195.32Zm578.32-47.03c-.05,12.74-3.78,16.1-17.03,16.18-18.99,.11-37.99,.03-56.98,.03-19.4,0-38.8-.18-58.19,.07-11.19,.15-16.27-4.92-16.23-16.06,.12-38.79,.11-77.59,.01-116.39-.03-10.91,4.66-16.42,16-16.38,38.8,.16,77.59,.19,116.39-.02,11.3-.06,16.17,5.15,16.14,16.18-.11,38.79,.06,77.59-.1,116.39Zm-24.31-98.38c.09-7.12-1.47-9.92-9.29-9.78-27.05,.47-54.12,.48-81.16,0-7.91-.14-9.49,2.8-9.24,9.86,.47,13.31,.14,26.65,.14,39.97,0,13.73,.32,27.47-.14,41.19-.22,6.72,1.64,9.13,8.72,9.04,27.46-.37,54.92-.39,82.38,0,7.23,.1,8.66-2.56,8.59-9.12-.31-27.05-.34-54.11,.01-81.16ZM423.24,99.27c-.07,41.03-34.79,75.24-76.22,75.11-41.9-.13-74.48-33.44-74.31-75.99,.17-41.26,33.58-74.72,74.61-74.72,41.13,0,75.99,34.72,75.92,75.59Zm-24.46-.43c-.34-27.16-24.43-50.86-51.59-50.75-27.84,.11-50.13,22.96-50.07,51.32,.06,28.42,22.44,50.75,50.64,50.54,27.58-.21,51.36-24.03,51.02-51.11Zm-18.61,341.49c5.93,2.55,13.14,2.03,19.48,7.23-10.94,5.06-16.31-.27-21.02-7.27-2.93-3.74-7.29-3.19-11.28-3.75-13.01,5.32-15.28,11.06-9,23,3.07,5.84,7.42,10.59,13.32,13.57,4.36,2.2,7.44,4.87,10,9.44,5.53,9.9,15.79,9.26,21.65-.85,1.38-2.38,1.95-4.71,4.83-6.33,26.71-15.07,28.67-34.38,5.69-53.58-6.24-8.22-18.63-5.62-25.87-13.71,7.22-3.58,11.01,.36,14.44,4.3,6.6,7.58,13.57,7.73,21.16,1.73,5.51-11.51,1.93-21.94-10.92-30.12-4.4-2.8-7.93-5.28-10.44-10.52-4.24-8.84-14.9-8.37-20.42,.05-2.12,3.23-3.26,6.61-7.18,9.05-21.32,13.27-22.75,33.3-4.19,50.85,2.42,3.47,6.57,4.51,9.76,6.91Zm104.24-11.5c-.1,50.38-41.26,91.57-91.87,91.93-50.71,.37-92.94-41.56-92.98-92.3-.04-50.97,41.55-92.35,92.73-92.25,51.36,.1,92.23,41.18,92.13,92.62Zm-24.53-1.13c-.14-37.41-30.51-67.15-68.37-66.93-37.45,.22-67.89,30.99-67.44,68.18,.45,37.3,31.65,67.81,68.69,67.19,37.81-.64,67.24-30.66,67.11-68.44Z"/>
</svg>