<?xml version="1.0" encoding="UTF-8"?>
<svg id="Layer_1" data-name="Layer 1" xmlns="http://www.w3.org/2000/svg" viewBox="0 0 800 800">
  <defs>
    <style>
      .cls-1 {
        fill: #010201;
      }

      .cls-2 {
        fill: none;
      }
    </style>
  </defs>
  <rect class="cls-2" width="800" height="800"/>
  <path class="cls-1" d="M98.39,323.55c9.57-5.74,17.36-9.39,23.91-14.59,9.38-7.46,11.39,.08,14.98,5.93,3.46,5.64,7.76,9.84-1.87,14.99-18.73,10.01-36.73,21.41-54.74,32.71-5.67,3.56-8.57,4.25-12.42-2.59-10.8-19.21-22.26-38.07-34.04-56.7-3.5-5.53-2.1-7.67,2.72-10.71,14-8.85,13.87-9.02,22.54,5.39,4.27,7.1,8.63,14.14,14.26,23.37,7.26-27.36,15.36-51.85,27.55-74.66,54.73-102.39,139-163.67,254.11-180.99,45.63-6.86,90.96-4.09,135.53,8.64,5.3,1.51,11.93,1.43,7.77,9.7-3.02,6.01-.03,18.13-13.94,13.86-32.13-9.85-65.18-13.07-98.59-11.2-82.31,4.61-152.45,36.58-209.92,95.7-37.95,39.03-63.34,85.26-77.88,141.15Zm649.69-14.85c7.73,5.91,10.27,.75,12.42-4.64,2.03-5.09,12.07-9.84,.51-16.3-18.89-10.57-37.35-21.92-55.68-33.44-6.62-4.16-9.59-2.68-13.23,3.81-9.46,16.87-18.94,33.83-29.91,49.72-7.04,10.19-5.53,14.98,5.15,20.24,6.6,3.25,9.9,3.73,13.52-3.38,4.4-8.63,9.96-16.67,15.76-26.18,10.99,31.1,16.31,61.6,16.71,92.65,.94,72.81-19.78,138.95-64.43,196.88-9.32,12.09,3.84,12.52,7.66,17.56,5.41,7.13,8.85,1.47,12.1-2.84,13.79-18.29,25.86-37.65,35.61-58.4,27.64-58.84,38.44-120.37,30.73-185.21-2.6-21.9-7.87-43.09-14.13-66.87,10.82,6.42,19.62,10.62,27.19,16.41Zm-123.77,366.99c-77.16-.14-154.33-.09-231.49-.09h-12.74c-.52,.82-1.04,1.63-1.56,2.45,5.72,4.5,11.44,9,17.75,13.97-23.83,21.63-45.16,42.59-68.17,61.51-31.28,25.71-78.02,24.19-107.27-4.34-56.88-55.5-113.1-111.72-168.57-168.63-28.82-29.57-29.5-78.12-2.36-109.32,17.01-19.55,36.44-36.97,54.49-55.64,4.04-4.18,6.2-2.5,9.3,.61,26.53,26.66,53.01,53.35,79.82,79.72,4.58,4.5,2.66,6.7-.76,10.06-12.99,12.77-25.86,25.68-38.66,38.64-9.02,9.12-9.11,14.75-.44,23.52,10.09,10.2,20.62,19.98,30.35,30.5,6.1,6.6,8.02,5.59,10.66-2.68,10.66-33.36,32.68-54.3,67.86-60.54,23.54-4.17,46.97-8.92,70.46-13.39,2.91-.56,6.75,.48,7.97-3.31,1.46-4.56-2.73-5.89-5.47-7.71-25.6-16.98-42.52-40.28-50.38-69.95-1.47-5.54-4.39-7.82-9.53-9.95-19.27-8.01-30.13-22.66-30.38-43.84-.35-29.87-.59-59.75,.06-89.61,1.85-84.8,73.01-152.68,157.89-151.13,74.71,1.36,136.99,53.04,151.52,126.1,1.88,9.45,2.77,19.24,2.82,28.88,.29,47.33,.29,94.66,.09,141.99-.1,24.33-15.03,39.62-39.09,38.71-14.09-.53-25.12,2.02-33.94,14.15-4.61,6.34-12.24,10.55-18.73,15.44-2.27,1.71-4.63,3.05-3.97,6.29,.7,3.47,3.75,3.29,6.38,3.78,25.02,4.65,50.09,9.07,75.04,14.09,30.56,6.15,51.38,24.56,62.15,53.42,9.58,25.66,17.43,51.97,26.45,77.84,3,8.6-1.26,8.45-7.59,8.44Zm-91.63-246.3c-11.54,3.91-19.91,15.63-19.85,25.82,.01,2.39,.71,3.13,2.99,3.72,7.75,1.98,15.91-3.13,16.75-11.39,.58-5.69,.11-11.48,.11-18.14Zm-11.31-62.8v38.89c15.29-9.23,15.55-26.36,0-38.89Zm-241.26,.24c-15.07,14.29-14.71,27.23,0,38.37v-38.37Zm111.87-84.6c7.5-8.13,11.74-7.26,18.71,.26,26.5,28.61,59.39,43.64,98.61,43.88,6.89,.04,13.32-.81,11.67,9.68-.84,5.33,4.51,5.56,7.93,6.54,4.27,1.22,3.97-2.31,3.96-4.94-.01-19.37,1.6-38.95-1.66-58.05-9.87-57.89-57.36-101.89-115.98-108.64-57.55-6.63-113.52,27.22-136.41,81.8-12.3,29.33-9.54,59.92-9.58,90.47,10.38-2.21,11.07-2.2,11.23-10.66,.13-6.88,4.07-6.19,8.36-6.11,41.05,.8,75.51-14.25,103.16-44.23Zm25.04,223.04c16.75-2.3,32.12-9.08,46.62-22.78-19.66,0-36.94-.62-54.15,.23-10.8,.53-8.36-6.23-8.29-11.95,.07-5.59-2.74-12.59,8.12-12.11,17.4,.77,34.86,.21,52.29,.21,26.02,0,26.66-.51,32.84-25.9,.18-.75,.29-1.52,.43-2.28,4.51-25.01,1.11-50.26,2.23-75.37,.22-5.02-2.68-5.15-6.52-5.68-31.3-4.36-59.58-15.87-83.37-37.05-4.89-4.36-7.58-3.75-12.24,.34-23.59,20.66-51.41,32.39-82.3,36.55-6.04,.81-7.83,2.63-7.74,8.43,.28,17.83-.53,35.69,.27,53.48,2.74,61.17,51.44,102.19,111.81,93.89Zm16.67,21.03c-21.71,6.71-43.5,5.26-68.54-.19,12.36,12.25,22.28,21.91,31.96,31.8,2.72,2.77,4.56,3.16,7.5,.29,10.14-9.89,20.5-19.54,30.78-29.28-.57-.87-1.14-1.75-1.7-2.62Zm-333.46-63.13c15.61,14.96,30.67,30.5,46.02,45.73,1.67,1.66,2.96,5.16,6.44,2.49,3.95-3.04,7.91-6.08,11.91-9.15-2.76-3.26-3.65-4.48-4.7-5.53-15.55-15.59-31.24-31.05-46.63-46.8-5.5-5.62-7.96-.58-11.06,2.44-3.12,3.04-7.71,5.34-1.98,10.84Zm220.53,254.4c-14.98-14.6-29.77-29.42-44.44-44.34-3.44-3.5-5.51-4.42-10.4-1.26-17.03,11.01-33.71,8.89-48.29-5.58-27.78-27.56-55.46-55.22-82.95-83.06-14.21-14.39-15.98-30.45-5.29-47.36,2.64-4.17,3.73-6.38-.44-10.38-15.09-14.49-29.9-29.29-44.39-44.38-4.97-5.17-7.81-3.76-12.04,.71-11.41,12.07-17.93,25.94-17.68,43.11-.35,16.5,6.1,30.6,17.79,42.32,53.89,54.02,107.65,108.18,161.94,161.8,25.05,24.75,60.77,23.66,86.27-.8,4.73-4.54,4-6.79-.08-10.77Zm38.26-24.58c-1.34-1.91-1.88-2.96-2.67-3.76-16.15-16.2-31.85-32.9-48.72-48.31-7.17-6.55-9.36,4.67-14.18,7.06-5.58,2.77-2.51,5.88,.44,8.82,15.11,15.03,30.14,30.16,45.28,45.17,1.95,1.94,3.68,5.75,7.45,2.32,4.15-3.78,8.31-7.57,12.4-11.29Zm238.74-50.72c-5.57-15.22-9.74-30.96-15.64-46.03-7.71-19.71-22.42-32.37-43.22-36.68-24.91-5.16-50.01-9.34-74.99-14.17-7.44-1.44-12.96,.11-18.4,6-12.09,13.08-25.37,25.06-37.49,38.11-5.47,5.9-8.66,5.18-13.76-.21-12.25-12.95-25.37-25.07-37.55-38.08-5.09-5.44-10.16-7.31-17.36-5.92-25.74,4.96-51.74,8.73-77.28,14.54-31.17,7.09-43.52,31.69-49.43,59.73-3.11,14.75,13.4,18.7,20.65,27.69,8.36,10.37,13.33,9.89,23.3,1.06,13.92-12.34,27.86-24.67,41.23-37.59,5.66-5.46,9.27-6.02,14.87,.06,10.48,11.4,21.97,21.87,32.6,33.14,4.62,4.89,9.43,6.84,16.19,6.79,37.98-.3,75.96-.15,113.95-.15,38.76,0,77.52-.14,116.27,.13,7.11,.05,8.58-1.54,6.06-8.42Zm175.78-484.26c-.42,21.84-15.51,37.2-37.12,35.75-22.55-1.52-40.95,5.14-59.28,17.7-27.7,18.99-56.84,35.88-88.27,55.47,3.73-21.69,6.89-40.33,10.15-58.94,2.41-13.81,2.46-13.8-11.1-13.81-5.43,0-10.86,.06-16.29-.01-22.23-.3-37.58-13.16-38.3-35.05-1.07-32.55-1.06-65.18-.03-97.74,.7-21.89,16.23-35.24,38.17-35.28,54.67-.1,109.35-.1,164.02,0,22.45,.04,37.66,14.14,38.07,36.48,.58,31.8,.6,63.63-.02,95.43Zm-24.48-91.65c-.04-12.48-3.36-16.2-15.6-16.24-53.45-.16-106.89-.08-160.34-.05-10.2,0-15.69,4.33-15.57,15.47,.33,29.83,.23,59.67,.05,89.51-.07,10.8,5.01,15.52,15.54,15.43,15.88-.13,31.78,.41,47.63-.21,8.33-.33,9.49,2.28,7.75,9.82-2.68,11.61-4.16,23.51-6.55,37.59,16.05-9.96,30.5-17.56,43.39-27.24,20.28-15.24,41.75-23.46,67.58-20.29,12.07,1.48,16.06-3.43,16.11-15.44,.13-29.45,.1-58.9,.01-88.35Zm-32.09,32.11c11.8,.47,8.08-7.11,8.58-12.88,.56-6.47,1-11.47-8.89-11.33-42.21,.6-84.44,.61-126.65,.02-11.39-.16-8.39,6.79-8.82,12.81-.47,6.68-.61,11.75,9.14,11.38,20.5-.77,41.05-.23,61.58-.23,21.69,0,43.41-.61,65.06,.24Zm-126.79,22.94c-9.96-.66-9.51,5.02-8.95,11.48,.53,6.12-3.43,14.34,8.99,13.96,23.57-.72,47.17-.21,70.76-.21,17.67,0,17.44,.01,16.57-17.84-.26-5.39-1.66-7.45-7.34-7.3-13.52,.37-27.06,.12-40.6,.12-13.15,0-26.34,.65-39.43-.21Zm123.51-.23c-9.18,.41-12.99,1.95-12.27,11.97,.59,8.23-.46,14.6,11.7,13.95,9.71-.52,14.94-1.94,12.19-12.67,2.01-9.66-.61-13.73-11.62-13.25Z"/>
</svg>