<?xml version="1.0" encoding="UTF-8"?>
<svg id="Layer_1" data-name="Layer 1" xmlns="http://www.w3.org/2000/svg" viewBox="0 0 14 14">
  <defs>
    <style>
      .cls-1 {
        fill: #393939;
      }

      .cls-2 {
        fill: none;
      }
    </style>
  </defs>
  <rect class="cls-2" width="14" height="14"/>
  <path class="cls-1" d="M7.23,13.32c0,.14-.08,.24-.22,.24-.14,0-.23-.08-.23-.22,0-.13,.07-.21,.21-.22,.14-.01,.22,.07,.25,.21Zm5.32-5.13c-.12,1.66-.82,3.02-2.12,4.05-.71,.56-1.51,.91-2.4,1.08-.15,.03-.31,.04-.35-.16-.04-.19,.1-.25,.26-.28,.64-.11,1.23-.35,1.78-.69,.11-.07,.15-.13,.13-.27-.09-1.07-.99-2.13-2.08-2.4-1.67-.42-3.22,.52-3.61,2.2-.08,.33-.06,.37,.23,.53,.5,.29,1.03,.5,1.6,.61,.05,0,.1,.02,.15,.03,.13,.04,.21,.12,.18,.26-.03,.14-.13,.19-.27,.17-.4-.06-.8-.16-1.17-.33-1.85-.81-2.98-2.19-3.36-4.18-.11-.57-.1-1.15-.04-1.72,0-.06,.03-.11,.04-.17,.03-.15,.13-.2,.26-.17,.13,.03,.19,.13,.17,.27-.14,.83-.07,1.65,.19,2.45,.3,.9,.81,1.65,1.55,2.29,.28-1.31,1.02-2.19,2.29-2.65-.55-.45-.85-1.02-.75-1.74,.07-.48,.3-.86,.68-1.15,.74-.56,1.76-.47,2.39,.21,.7,.76,.61,1.68-.28,2.68,1.25,.45,1.99,1.33,2.27,2.64,.82-.71,1.36-1.55,1.63-2.56,.19-.72,.23-1.44,.11-2.17-.02-.14,.03-.24,.17-.27,.13-.03,.23,.02,.26,.17,.09,.42,.11,.84,.08,1.26Zm-4.19-.49c.01-.74-.58-1.36-1.32-1.38-.76-.01-1.38,.58-1.39,1.33-.01,.75,.6,1.37,1.35,1.38,.73,0,1.36-.6,1.37-1.34Zm.06-3.93c.08,.39,.14,.78,.21,1.16,0,.23-.18,.32-.38,.22-.35-.18-.71-.36-1.06-.56-.13-.07-.24-.08-.37,0-.34,.19-.69,.37-1.03,.55-.1,.05-.2,.1-.31,.02-.11-.09-.1-.2-.08-.33,.07-.38,.14-.75,.2-1.13,.03-.14,0-.25-.12-.36-.29-.26-.55-.53-.83-.8-.08-.08-.16-.17-.12-.29,.04-.13,.16-.16,.29-.18,.41-.05,.82-.12,1.23-.17,.1-.01,.14-.07,.18-.15,.17-.35,.35-.7,.52-1.05,.06-.12,.11-.26,.28-.25,.16,0,.21,.13,.26,.24,.17,.34,.34,.68,.5,1.03,.05,.11,.11,.17,.25,.18,.4,.04,.8,.11,1.21,.17,.11,.02,.21,.06,.25,.17,.04,.12-.02,.2-.1,.28-.28,.27-.54,.55-.83,.8-.15,.14-.17,.28-.13,.46Zm.35-1.3c-.32-.05-.59-.09-.87-.12-.23-.02-.41-.09-.5-.34-.11-.27-.26-.53-.4-.83-.15,.3-.3,.55-.4,.82-.09,.24-.27,.32-.5,.34-.27,.03-.55,.07-.83,.11,.25,.26,.47,.49,.69,.72,.11,.11,.14,.21,.11,.36-.07,.32-.11,.64-.17,1,.31-.16,.6-.3,.87-.46,.15-.09,.29-.09,.44,0,.28,.16,.56,.3,.88,.46-.05-.27-.08-.5-.13-.73-.08-.32-.06-.59,.24-.81,.2-.14,.36-.34,.57-.54Zm-4.65,2.57c.06,.29,.1,.58,.15,.85,0,.21-.18,.3-.37,.21-.28-.14-.56-.29-.84-.44-.1-.05-.17-.06-.27,0-.27,.15-.54,.29-.82,.43-.1,.05-.2,.09-.3,.02-.09-.07-.11-.16-.09-.28,.05-.24,.05-.48,.12-.71,.07-.26,.03-.44-.18-.61-.19-.15-.36-.34-.54-.52-.08-.08-.14-.17-.09-.28,.04-.1,.12-.13,.23-.15,.31-.04,.62-.1,.94-.13,.11-.01,.16-.06,.2-.15,.13-.28,.27-.55,.41-.83,.05-.11,.12-.19,.25-.19,.12,0,.18,.08,.23,.18,.13,.28,.27,.55,.41,.83,.04,.09,.09,.14,.2,.15,.31,.04,.62,.1,.94,.13,.12,.01,.2,.05,.24,.16,.04,.12-.03,.2-.1,.28-.19,.19-.38,.39-.59,.56-.16,.14-.18,.29-.14,.48Zm.08-1.1c-.23-.04-.44-.07-.66-.1-.14-.02-.23-.08-.29-.21-.1-.21-.2-.41-.32-.64-.11,.22-.2,.39-.28,.58-.08,.17-.18,.28-.39,.29-.2,.01-.4,.06-.67,.1,.21,.19,.37,.34,.53,.49,.11,.1,.15,.21,.11,.36-.05,.21-.07,.43-.12,.69,.2-.1,.37-.18,.53-.28,.2-.13,.38-.13,.58,0,.15,.1,.33,.17,.52,.27-.03-.16-.04-.29-.07-.41-.09-.32-.07-.6,.24-.81,.11-.08,.24-.17,.29-.33Zm8.07,1.07c.05,.27,.09,.55,.15,.82,.02,.11,0,.19-.08,.26-.1,.08-.2,.05-.29,0-.27-.14-.54-.27-.8-.42-.12-.07-.21-.06-.33,0-.27,.15-.54,.29-.82,.43-.19,.09-.36-.01-.36-.22,.05-.28,.1-.57,.16-.85,.04-.18,.02-.33-.13-.46-.21-.18-.4-.39-.6-.58-.08-.08-.14-.16-.09-.28,.04-.11,.13-.14,.25-.16,.31-.04,.62-.1,.94-.13,.11-.01,.15-.08,.19-.16,.13-.27,.27-.54,.4-.81,.05-.11,.11-.2,.25-.2,.13,0,.19,.09,.25,.2,.13,.26,.26,.52,.39,.79,.05,.12,.12,.17,.25,.18,.31,.03,.61,.09,.92,.13,.11,.01,.19,.06,.23,.16,.04,.11,0,.19-.08,.26-.2,.2-.4,.41-.62,.6-.15,.13-.17,.27-.14,.44Zm.09-1.07c-.19-.03-.37-.06-.55-.07-.23-.02-.37-.11-.46-.33-.07-.18-.17-.34-.27-.54-.1,.2-.2,.36-.26,.53-.08,.23-.24,.33-.47,.34-.18,.01-.35,.05-.61,.08,.21,.19,.37,.34,.54,.49,.11,.1,.15,.21,.11,.36-.05,.21-.07,.43-.12,.69,.21-.11,.39-.18,.55-.29,.19-.12,.35-.11,.54,0,.16,.1,.34,.18,.54,.28-.03-.16-.04-.29-.07-.41-.09-.32-.07-.6,.24-.81,.11-.08,.24-.17,.3-.33Z"/>
</svg>