<?xml version="1.0" encoding="UTF-8"?>
<svg id="Layer_1" data-name="Layer 1" xmlns="http://www.w3.org/2000/svg" viewBox="0 0 14 14">
  <defs>
    <style>
      .cls-1 {
        fill: #393939;
      }

      .cls-2 {
        fill: none;
      }
    </style>
  </defs>
  <rect class="cls-2" width="14" height="14"/>
  <path class="cls-1" d="M12.66,11.1c-.06-.01-.13-.01-.2-.01-.6,0-1.19,0-1.79,0-.14,0-.19-.04-.23-.17-.24-.75-.86-1.2-1.64-1.2-.79,0-1.4,.43-1.65,1.19-.05,.15-.11,.18-.25,.18-.9,0-1.79,0-2.69,0s-1.79,0-2.69,0c-.09,0-.18,0-.26,.03-.16,.06-.24,.19-.22,.35,.02,.16,.11,.27,.29,.29,.08,0,.16,0,.25,0,1.76,0,3.52,0,5.28,0,.17,0,.24,.05,.29,.21,.24,.73,.85,1.17,1.61,1.18,.77,0,1.41-.43,1.65-1.16,.06-.19,.15-.23,.33-.22,.62,0,1.24,0,1.86,0,.2,0,.34-.14,.34-.31,0-.19-.11-.3-.29-.35Zm-3.86,1.38c-.58,0-1.06-.47-1.06-1.04,0-.6,.44-1.04,1.04-1.05,.62,0,1.06,.44,1.06,1.05,0,.57-.47,1.03-1.04,1.04Zm3.81-5.82c-.07,0-.13,0-.2,0-1.77,0-3.54,0-5.31,0-.14,0-.22-.02-.27-.18-.24-.76-.86-1.19-1.65-1.19-.79,0-1.41,.45-1.64,1.2-.04,.13-.1,.17-.23,.17-.61,0-1.22,0-1.84,0-.28,0-.44,.13-.44,.34,0,.21,.16,.34,.43,.34,.61,0,1.22,0,1.84,0,.12,0,.19,.02,.24,.16,.24,.77,.85,1.21,1.63,1.22,.8,0,1.42-.43,1.66-1.2,.05-.16,.13-.18,.27-.18,.9,0,1.81,0,2.71,0,.24,0,.48,0,.72,0,.69,0,1.37,0,2.06,0,.21,0,.35-.14,.36-.32,0-.18-.13-.33-.34-.35Zm-7.41,1.37c-.6,0-1.07-.44-1.06-1.03,.02-.65,.46-1.04,1.05-1.04,.61,0,1.05,.43,1.05,1.03,0,.6-.44,1.04-1.04,1.04ZM12.9,2.4c-.09-.16-.25-.17-.41-.17-.6,0-1.19,0-1.79,0-.15,0-.21-.03-.26-.19-.23-.74-.85-1.19-1.63-1.2-.78,0-1.41,.44-1.65,1.19-.05,.16-.13,.2-.28,.19-.9,0-1.79,0-2.69,0-.22,0-.45,0-.67,0-.69,0-1.37,0-2.06,0-.26,0-.42,.14-.41,.34,0,.2,.16,.33,.42,.33,.05,0,.1,0,.16,0,1.75,0,3.49,0,5.24,0,.18,0,.25,.06,.31,.22,.21,.66,.79,1.11,1.43,1.15,.79,.05,1.47-.27,1.72-.94,.15-.41,.37-.46,.73-.44,.5,.03,1,.01,1.5,0,.32,0,.49-.26,.35-.5Zm-4.11,1.2c-.61,0-1.06-.46-1.05-1.06,0-.56,.49-1.03,1.05-1.03,.57,0,1.04,.46,1.05,1.03,0,.61-.44,1.06-1.05,1.06Z"/>
</svg>