<?xml version="1.0" encoding="UTF-8"?>
<svg id="Layer_1" data-name="Layer 1" xmlns="http://www.w3.org/2000/svg" viewBox="0 0 14 14">
  <defs>
    <style>
      .cls-1 {
        fill: #393939;
      }

      .cls-2 {
        fill: none;
      }
    </style>
  </defs>
  <rect class="cls-2" width="14" height="14"/>
  <path class="cls-1" d="M13.28,1.66c0-.73-.22-.95-.96-.95-2.7,0-5.39,0-8.09,0-.75,0-.96,.22-.96,.98,0,1.82,0,3.65,0,5.47,0,.28-.05,.4-.36,.37-.45-.03-.89-.01-1.34,0-.58,0-.86,.28-.86,.86,0,1.34,0,2.69,0,4.03,0,.62,.25,.87,.87,.88,1.33,0,2.66,0,4,0,.61,0,.89-.29,.89-.91,0-.45,.02-.9,0-1.34-.01-.25,.06-.32,.31-.32,1.85,.01,3.71,0,5.56,0,.7,0,.93-.23,.93-.94,0-1.35,0-2.71,0-4.06,0-1.35,0-2.71,0-4.06ZM3.92,9.15c0-.26,0-.51,0-.77,0-.16,.04-.22,.21-.22,.48,.01,.96,.01,1.44,0,.22,0,.28,.09,.27,.29,0,.47-.01,.94,0,1.4,0,.19-.07,.24-.24,.23-.24-.01-.49,0-.78,0-.25-.03-.64,.14-.84-.07-.18-.19-.04-.57-.05-.86Zm1.92,3.19c0,.25-.09,.31-.32,.3-.64-.01-1.28,0-1.92,0-.66,0-1.32,0-1.98,0-.19,0-.26-.05-.26-.25,0-1.32,0-2.64,0-3.97,0-.19,.05-.27,.25-.27,.48,.01,.96,.01,1.44,0,.19,0,.24,.06,.23,.24,0,.51,0,1.02,0,1.54,0,.52,.28,.78,.8,.79,.5,0,1,0,1.5,0,.19,0,.27,.04,.26,.24-.01,.46-.02,.92,0,1.38Zm6.8-2.55c0,.22-.05,.29-.28,.29-1.88,0-3.75,0-5.63,0-.23,0-.25-.08-.26-.28,0-.56,.06-1.13-.04-1.69-.01-.09,.03-.14,.09-.19,1.16-1.17,2.33-2.34,3.56-3.57,0,.34,0,.59,0,.83,0,.23,.08,.41,.34,.41,.26,0,.3-.18,.3-.4,0-.51,0-1.02,0-1.54,0-.27-.12-.39-.38-.39-.52,0-1.05,0-1.57,0-.2,0-.36,.07-.36,.31,0,.25,.15,.33,.37,.34,.25,0,.5,0,.76,0,0,.13-.09,.17-.14,.23-1.08,1.08-2.16,2.16-3.23,3.24-.13,.13-.24,.18-.43,.16-.52-.04-1.04-.02-1.57,0-.2,0-.25-.05-.25-.25,0-1.89,0-3.78,0-5.66,0-.22,.08-.26,.28-.26,2.72,0,5.44,0,8.16,0,.22,0,.29,.06,.29,.28,0,2.72,0,5.44,0,8.16Z"/>
</svg>