<?xml version="1.0" encoding="UTF-8"?>
<svg id="Layer_1" data-name="Layer 1" xmlns="http://www.w3.org/2000/svg" viewBox="0 0 14 14">
  <defs>
    <style>
      .cls-1 {
        fill: #393939;
      }

      .cls-2 {
        fill: none;
      }
    </style>
  </defs>
  <rect class="cls-2" width="14" height="14"/>
  <path class="cls-1" d="M12.45,8.77c-.24-.21-.38-.44-.43-.75-.08-.42-.37-.63-.79-.64-.1,0-.2,0-.3-.01-.13,0-.17-.07-.14-.2,.08-.34,.09-.69,.09-1.04,0-1.15,0-2.3,0-3.45,0-.22-.07-.33-.28-.42-1.44-.61-2.88-1.23-4.32-1.85-.14-.06-.26-.06-.41,0-1.44,.62-2.88,1.24-4.32,1.85-.21,.09-.28,.22-.28,.44,.01,.66,0,1.33,0,2.13,.03,.71-.07,1.58,.11,2.42,.46,2.16,1.76,3.58,3.84,4.28,.3,.1,.62,.21,.94,.17,.39-.05,.77-.14,1.13-.3,.22-.1,.4-.13,.63,.01,.13,.09,.16,.13,.09,.27-.17,.32-.31,.65-.46,.99-.12,.28,0,.45,.3,.42,.06,0,.11-.02,.17-.03q.35-.08,.53,.22c.03,.06,.06,.11,.1,.17,.06,.1,.14,.19,.27,.18,.14,0,.21-.1,.26-.22,.16-.34,.33-.68,.47-1.03,.06-.15,.18-.17,.31-.17,.13,0,.25,.02,.31,.17,.15,.35,.32,.7,.48,1.05,.05,.11,.13,.2,.25,.2,.12,0,.21-.06,.25-.17,.14-.38,.38-.55,.79-.38,.11,.05,.24,.02,.32-.1,.08-.12,.04-.23-.01-.34-.15-.33-.3-.66-.46-.99-.06-.12-.05-.17,.08-.23,.39-.18,.54-.43,.48-.85-.05-.31,0-.58,.16-.86,.19-.35,.14-.68-.17-.95Zm-5.13,2.16c-.38,.16-.78,.29-1.19,.34-.25,.03-.49-.06-.73-.14-2.26-.69-3.66-2.59-3.69-4.97-.01-1.11,0-2.21,0-3.32,0-.12,.03-.19,.15-.24,1.35-.57,2.7-1.15,4.05-1.73,.12-.05,.22-.05,.34,0,1.34,.58,2.68,1.15,4.03,1.72,.12,.05,.17,.12,.17,.25,0,1.14,0,2.29,0,3.43,0,.24-.03,.48-.06,.72-.02,0-.02,0-.03,0-.32-.09-.31-.09-.3-.41,0-1.16,.01-2.33,.02-3.49,0-.16-.07-.24-.21-.3-1.2-.51-2.39-1.02-3.59-1.54-.14-.06-.26-.05-.39,0-1.19,.51-2.38,1.03-3.57,1.53-.13,.06-.22,.12-.22,.28,.01,1.18-.07,2.36,.03,3.53,.17,1.82,1.13,3.13,2.77,3.92,.32,.16,.66,.26,1.01,.33,.31,.06,.59-.06,.87-.14,.22-.07,.44-.16,.66-.25,0,.13,0,.24,0,.35,0,.09-.07,.1-.12,.13Zm.26-2.27c-.44,.42-.49,.62-.23,1.17,.06,.11,.03,.16-.07,.21-.35,.18-.72,.31-1.11,.38-.24,.04-.47-.05-.69-.13-1.58-.57-2.56-1.67-2.9-3.33-.05-.25-.07-.51-.07-.77,0-.95,0-1.9,0-2.85,0-.14,.04-.2,.17-.25,1.08-.46,2.16-.92,3.24-1.39,.11-.05,.19-.05,.3,0,1.08,.47,2.17,.94,3.26,1.4,.12,.05,.16,.11,.15,.24,0,.54,0,1.09,0,1.63,0,0-.01,0-.02,0,0,.56,0,1.11,0,1.67,0,.38-.32,.71-.68,.74-.85,.08-.9,.11-1.1,.93-.04,.16-.15,.25-.26,.36Zm1.56,3.81c-.08,.16-.16,.33-.25,.52q-.3-.43-.83-.39c.13-.28,.25-.55,.37-.81,.1,.04,.12,.13,.17,.2,.11,.17,.26,.3,.46,.36,.07,.02,.12,.03,.08,.12Zm2.7,.17c-.4-.19-.66-.06-.78,.34-.1-.06-.1-.14-.13-.2-.06-.11-.15-.23-.15-.35,0-.14,.19-.1,.29-.18,.13-.1,.23-.23,.32-.37,.05-.08,.09-.14,.15,0,.1,.23,.21,.46,.32,.69,0,.02,0,.04-.01,.06Zm.36-3.06c-.18,.32-.28,.64-.18,.93,.03,.37,0,.45-.28,.54-.34,.12-.59,.33-.77,.64-.14,.26-.24,.29-.51,.19-.35-.13-.69-.13-1.04,0-.22,.09-.38,.02-.48-.18-.17-.34-.44-.55-.79-.67-.26-.09-.31-.2-.27-.46,.06-.35,.03-.67-.16-.99-.17-.28-.15-.37,.09-.57,.27-.23,.43-.5,.49-.85,.05-.31,.14-.37,.45-.37,.35,0,.64-.11,.9-.33,.26-.21,.34-.22,.6,0,.28,.23,.58,.34,.94,.33,.25,0,.36,.08,.4,.32,.06,.37,.21,.67,.51,.91,.22,.18,.24,.29,.1,.54Zm-3.67-2.66c-.17-.83-.64-1.43-1.41-1.8-.15-.07-.2-.1-.06-.25,.4-.41,.48-1,.24-1.51-.29-.61-.99-.93-1.63-.74-.66,.2-1.05,.83-.96,1.5,.05,.36,.23,.64,.48,.88-.04,.07-.11,.07-.17,.1-.79,.39-1.28,1.01-1.42,1.88-.05,.29,.02,.36,.31,.36,1.42,0,2.84,0,4.26,0,.34,0,.42-.09,.35-.43Zm-3.4-2.97c0-.52,.42-.93,.94-.93,.53,0,.94,.41,.93,.94,0,.51-.44,.94-.95,.93-.5,0-.92-.43-.93-.94Zm2.77,2.97c-.61,0-1.23,0-1.84,0s-1.21,0-1.82,0c-.18,0-.18-.06-.14-.2,.26-.83,1.08-1.41,1.99-1.4,.88,0,1.68,.6,1.93,1.42,.05,.15,.02,.18-.13,.18Zm2.04,1.1c-.91,0-1.62,.72-1.62,1.63,0,.89,.73,1.61,1.62,1.62,.89,0,1.64-.74,1.64-1.63,0-.89-.74-1.62-1.64-1.62Zm0,2.81c-.67,0-1.2-.54-1.2-1.21,0-.66,.54-1.17,1.21-1.17,.65,0,1.18,.54,1.19,1.18,0,.65-.55,1.19-1.2,1.19Zm.79-1.61c0,.11-.03,.17-.08,.22-.26,.24-.53,.48-.79,.72-.11,.1-.23,.1-.34,0-.1-.1-.2-.2-.3-.3-.1-.1-.12-.22-.02-.32,.11-.11,.23-.09,.32,.02,.14,.19,.24,.14,.38,0,.15-.15,.31-.29,.47-.43,.07-.06,.15-.08,.24-.04,.07,.03,.13,.09,.12,.15Z"/>
</svg>