<?xml version="1.0" encoding="UTF-8"?>
<svg id="Layer_1" data-name="Layer 1" xmlns="http://www.w3.org/2000/svg" viewBox="0 0 14 14">
  <defs>
    <style>
      .cls-1 {
        fill: #393939;
      }

      .cls-2 {
        fill: none;
      }
    </style>
  </defs>
  <rect class="cls-2" width="14" height="14"/>
  <path class="cls-1" d="M1.7,5.17c-.72,1.51-.58,2.98,.15,4.4,.94,1.81,2.46,2.85,4.49,3.15,.3,.04,.59,.04,.89,.04,.15,0,.29,.01,.3,.2,0,.19-.14,.21-.29,.22-2.71,.07-5.18-1.6-6.09-4.18-.25-.72-.37-1.47-.32-2.23,.03-.51,.2-1,.37-1.48,.02-.06,.07-.13,.05-.22-.11,.05-.2,.09-.3,.14-.11,.05-.19,0-.25-.09-.06-.1-.04-.21,.06-.26,.28-.15,.57-.3,.86-.43,.11-.05,.19,.02,.24,.12,.13,.27,.25,.55,.38,.82,.05,.12,.02,.22-.11,.28-.13,.06-.22,0-.27-.12-.05-.11-.1-.21-.16-.34ZM12.05,3.12c-1.2-1.32-2.69-2.1-4.47-2.27-1.43-.14-2.76,.21-3.97,1-.55,.35-1.02,.79-1.43,1.29-.09,.11-.18,.24-.03,.36,.14,.11,.26,.04,.35-.09,.02-.02,.03-.04,.05-.06C3.96,1.73,5.73,1.02,7.84,1.29c1.57,.2,2.87,.95,3.93,2.12,.06,.07,.11,.14,.19,.23-.21,0-.37,0-.53,0-.13,0-.22,.06-.22,.2,0,.13,.08,.21,.21,.21,.31,0,.62,0,.93,0,.14,0,.23-.09,.23-.22,0-.3,0-.59-.02-.89,0-.12-.08-.18-.2-.18-.12,0-.19,.07-.21,.2,0,.07,0,.14,0,.26-.05-.06-.07-.08-.1-.1Zm-2.8,9.03c.1-.12,.12-.24-.02-.34-.13-.09-.23-.02-.31,.1-.15,.23-.3,.45-.44,.68-.1,.15-.07,.25,.1,.33,.26,.12,.51,.23,.77,.35,.12,.05,.22,.02,.28-.1,.06-.12,0-.21-.11-.28-.1-.05-.21-.07-.3-.16,.03-.01,.05-.02,.07-.03,2.27-1.05,3.74-2.71,4.01-5.27,.1-.9-.06-1.77-.38-2.61-.04-.12-.12-.2-.26-.15-.14,.04-.17,.15-.13,.28,.01,.04,.03,.09,.04,.13,.36,1.01,.46,2.04,.19,3.08-.5,1.97-1.77,3.28-3.6,4.1,.02-.04,.04-.08,.07-.11Zm1.84-5.09c0,.13,0,.25,0,.38-.01,.29-.2,.51-.49,.48-.3-.03-.44,.08-.49,.36-.03,.13-.1,.26-.17,.37-.08,.12-.05,.18,.04,.26,.11,.1,.24,.2,.27,.36,.04,.17,0,.33-.12,.46-.16,.16-.32,.33-.5,.48-.22,.19-.47,.18-.69-.03q-.26-.25-.58-.1s-.03,.02-.05,.03c-.35,.08-.59,.21-.54,.65,.03,.24-.2,.38-.46,.39-.23,0-.46,0-.69,0-.28,0-.47-.17-.44-.44,.03-.33-.1-.47-.39-.54-.13-.03-.25-.09-.36-.16-.12-.08-.18-.04-.26,.04-.12,.13-.23,.27-.43,.29-.34,.03-1.02-.65-1-.99,.01-.18,.12-.31,.25-.41,.14-.11,.19-.22,.07-.39-.09-.15-.16-.32-.2-.49-.04-.16-.12-.2-.27-.19-.15,.01-.3,.02-.44-.07-.13-.09-.21-.2-.21-.36,0-.25,0-.5,0-.75,0-.26,.2-.43,.46-.44,.13,0,.28,.04,.37-.02,.08-.06,.09-.22,.14-.33,0-.02,.02-.05,.03-.07,.2-.29,.25-.54-.08-.79-.16-.12-.12-.42,.04-.59,.16-.17,.33-.34,.51-.5,.21-.18,.49-.19,.67,.03,.2,.24,.37,.26,.62,.1,.12-.08,.26-.12,.4-.15,.11-.03,.15-.08,.14-.19,0-.09,0-.19,0-.28,.02-.27,.21-.45,.48-.46,.23,0,.46,0,.69,0,.26,.01,.46,.2,.44,.46-.03,.31,.05,.5,.38,.54,.01,0,.03,0,.04,.01,.29,.17,.55,.28,.81-.08,.11-.16,.38-.13,.56,.02,.21,.17,.39,.37,.56,.58,.06,.08,.09,.17,.08,.27,.02,.23-.13,.36-.27,.48-.11,.1-.14,.18-.05,.31,.11,.18,.19,.39,.24,.6,.02,.1,.07,.13,.16,.12,0,0,.01,0,.02,0,.61-.05,.77,.17,.74,.77Zm-.41,.28c0-.16,0-.32,0-.47,0-.13-.05-.17-.17-.17-.14,0-.29,0-.44,0-.14,0-.23-.07-.25-.2-.06-.36-.2-.68-.39-.98-.08-.13-.06-.23,.04-.34,.13-.14,.37-.25,.36-.42-.01-.17-.25-.29-.38-.44-.01-.01-.03-.03-.04-.04-.06-.07-.12-.07-.18,0-.1,.1-.21,.2-.31,.31-.09,.09-.19,.13-.3,.05-.31-.21-.65-.34-1.01-.43-.13-.03-.18-.11-.18-.24,0-.14,0-.29,0-.44,0-.12-.04-.16-.16-.16-.16,0-.33,0-.49,0-.1,0-.14,.04-.14,.14,0,.15,0,.3,0,.46,0,.15-.07,.25-.23,.27-.34,.06-.65,.2-.95,.38-.13,.08-.24,.08-.35-.04-.1-.11-.21-.22-.32-.32-.04-.03-.07-.09-.13-.03-.17,.17-.41,.29-.48,.51-.04,.12,.21,.24,.32,.37,0,0,0,0,.01,.01,.13,.11,.13,.23,.04,.37-.19,.29-.32,.6-.4,.94-.03,.14-.11,.2-.25,.2-.14,0-.28,0-.42,0-.12,0-.17,.03-.16,.16,0,.16,0,.33,0,.49,0,.12,.03,.17,.16,.16,.12,0,.25,0,.38,0,.2-.02,.3,.07,.33,.26,.05,.32,.19,.62,.36,.89,.1,.16,.09,.28-.05,.4-.05,.04-.09,.08-.13,.12-.29,.3-.29,.21,0,.51,.31,.33,.32,.33,.65,0,.07-.07,.13-.16,.27-.16,.02,0,.07,.01,.1,.04,.31,.21,.65,.34,1.01,.43,.13,.03,.18,.12,.18,.25,0,.15,0,.29,0,.44,0,.06,0,.13,.08,.13,.23,0,.48,.05,.68-.03,.12-.05,.04-.32,.04-.48,0-.2,.08-.31,.28-.34,.24-.03,.46-.12,.67-.24,.49-.27,.39-.28,.8,.13,.19,.19,.19,.19,.38,0,.12-.12,.32-.23,.34-.37,.02-.16-.21-.26-.33-.39-.11-.12-.14-.22-.04-.37,.19-.29,.32-.6,.4-.94,.04-.16,.13-.22,.28-.22,.13,0,.26,0,.4,0,.12,0,.16-.04,.16-.16Zm-5.48,.12c.18,.83,.98,1.45,1.89,1.42,1.28-.04,2.15-1.4,1.6-2.56-.06-.13-.15-.24-.3-.17-.16,.07-.14,.2-.08,.33,.14,.28,.16,.59,.1,.89-.14,.67-.83,1.16-1.53,1.1-.69-.06-1.28-.65-1.3-1.29-.03-.76,.45-1.36,1.2-1.48,.12-.02,.24-.02,.35-.04,.11-.01,.19-.06,.19-.19,0-.12-.07-.18-.18-.2-.05-.01-.1-.01-.16-.01-1,0-1.81,.81-1.82,1.87,0,.07,.01,.2,.04,.33Zm2.78-1.48c.13,0,.19-.08,.2-.2,.01-.12-.24-.33-.39-.33-.13,0-.19,.07-.2,.17,0,.15,.24,.35,.39,.35Z"/>
</svg>