<?xml version="1.0" encoding="UTF-8"?>
<svg id="Layer_1" data-name="Layer 1" xmlns="http://www.w3.org/2000/svg" viewBox="0 0 14 14">
  <defs>
    <style>
      .cls-1 {
        fill: #393939;
      }

      .cls-2 {
        fill: none;
      }
    </style>
  </defs>
  <rect class="cls-2" width="14" height="14"/>
  <path class="cls-1" d="M13.21,7.98c0-.19-.07-.31-.24-.4-.86-.49-1.71-.99-2.57-1.48-.13-.07-.17-.16-.17-.31,0-1,0-2,0-3,0-.17-.06-.28-.21-.36-.94-.54-1.87-1.08-2.81-1.62-.15-.09-.28-.09-.43,0-.93,.55-1.87,1.09-2.81,1.62-.15,.08-.21,.19-.21,.36,0,1.01,0,2.01,0,3.02,0,.14-.04,.22-.17,.29-.87,.5-1.74,1-2.61,1.5-.15,.08-.21,.19-.21,.36,0,.54,0,1.08,0,1.63,0,.54,0,1.07,0,1.61,0,.19,.06,.3,.22,.39,.93,.53,1.85,1.06,2.77,1.6,.17,.1,.3,.1,.47,0,.86-.5,1.72-1,2.58-1.5,.12-.07,.21-.07,.33,0,.86,.5,1.72,1,2.58,1.5,.16,.09,.29,.1,.45,0,.92-.54,1.85-1.07,2.77-1.6,.17-.1,.24-.22,.24-.41,0-1.06,0-2.13,0-3.19Zm-3.14-1.51c.29,.17,.58,.34,.87,.5,0,.07-.06,.08-.09,.1-.74,.43-1.48,.85-2.21,1.28-.1,.06-.18,.07-.29,0-.27-.17-.55-.32-.86-.5,.82-.47,1.61-.93,2.39-1.38,.06-.04,.12-.04,.18,0Zm-.34-3.33c0,.93,0,1.83,0,2.74,0,.07-.02,.12-.09,.16-.77,.44-1.55,.89-2.32,1.34-.02,.01-.05,.01-.09,.03v-.79c0-.63,0-1.27,0-1.9,0-.09,0-.16,.09-.21,.77-.44,1.55-.89,2.32-1.34,.02,0,.04-.01,.08-.02Zm-4.99-.58c.71-.41,1.42-.82,2.13-1.23,.1-.06,.17-.06,.27,0,.28,.17,.56,.33,.87,.5-.81,.47-1.59,.91-2.36,1.36-.09,.05-.16,.06-.25,0-.28-.17-.56-.33-.85-.49,.05-.08,.13-.1,.2-.14ZM2.42,7.35c.48-.28,.97-.56,1.45-.84,.1-.06,.18-.07,.28,0,.27,.17,.56,.33,.86,.5-.55,.32-1.09,.63-1.62,.94-.25,.14-.5,.28-.74,.43-.06,.04-.12,.07-.2,.03-.3-.17-.59-.35-.92-.53,.31-.18,.6-.34,.89-.51Zm1.35,5.2c-.07,.03-.12-.02-.16-.05-.73-.42-1.45-.84-2.18-1.26-.09-.05-.15-.1-.15-.22,0-.88,0-1.76,0-2.64,0-.02,0-.04,.01-.08,.33,.19,.64,.37,.95,.55,.46,.27,.92,.53,1.39,.8,.07,.04,.14,.07,.14,.18,0,.91,0,1.81,0,2.72Zm.4-3.34c-.11,.07-.19,.07-.3,0-.26-.16-.54-.31-.84-.49,.82-.47,1.61-.93,2.39-1.38,.07-.04,.13-.03,.2,0,.28,.17,.57,.33,.86,.5-.02,.07-.08,.08-.13,.11-.73,.42-1.45,.84-2.17,1.26Zm2.49,2c-.76,.43-1.51,.87-2.26,1.31-.12,.07-.14,.03-.14-.09,0-.86,0-1.72,0-2.58,0-.09,.03-.14,.1-.19,.77-.44,1.54-.89,2.32-1.33,.02,0,.03-.01,.08-.03,0,.93,0,1.83,0,2.74,0,.08-.03,.13-.1,.17Zm.09-3.87s0,.04-.02,.08c-.39-.22-.76-.44-1.14-.66-.41-.23-.81-.47-1.22-.7-.09-.05-.12-.11-.12-.22,0-.85,0-1.7,0-2.55,0-.15,.03-.17,.16-.09,.74,.43,1.49,.86,2.23,1.29,.07,.04,.11,.09,.11,.18,0,.89,0,1.78,0,2.66Zm.38-3.29c-.09,.05-.17,.07-.26,0-.28-.17-.56-.33-.86-.5,.15-.09,.28-.17,.42-.24,.64-.37,1.29-.74,1.93-1.12,.11-.06,.18-.06,.28,0,.27,.17,.55,.32,.85,.49-.33,.19-.64,.37-.94,.55-.47,.27-.94,.54-1.4,.81Zm2.59,8.45s0,.03-.01,.05c-.07,0-.11-.04-.16-.07-.73-.42-1.45-.84-2.18-1.26-.08-.05-.14-.09-.14-.2,0-.89,0-1.79,0-2.68,0-.01,0-.02,.02-.05,.32,.18,.64,.37,.96,.55,.46,.27,.92,.53,1.39,.8,.08,.04,.13,.09,.13,.19,0,.89,0,1.78,0,2.66Zm.42-3.31c-.13,.08-.23,.08-.35,0-.25-.16-.52-.3-.81-.47,.61-.35,1.19-.69,1.77-1.02,.2-.12,.41-.23,.61-.35,.07-.04,.12-.06,.2-.01,.29,.17,.58,.34,.88,.5-.03,.07-.09,.08-.14,.11-.72,.41-1.43,.82-2.15,1.24Zm2.46,2.02c-.75,.43-1.5,.86-2.25,1.3-.09,.05-.13,.06-.13-.07,0-.88,0-1.75,0-2.63,0-.07,.03-.12,.09-.16,.77-.44,1.55-.89,2.32-1.33,.02,0,.04-.01,.08-.02,0,.93,0,1.83,0,2.74,0,.09-.04,.13-.1,.17Zm-1.83,.61c-.12,0-.2-.04-.24-.15-.05-.11-.03-.22,.07-.28,.32-.19,.63-.38,.96-.56,.1-.06,.22-.01,.29,.1,.06,.1,.07,.22-.03,.29-.31,.23-.66,.41-1.01,.59-.02,0-.04,0-.05,0Zm1.48-.83c-.12-.02-.21-.08-.21-.23,0-.15,.09-.26,.23-.25,.15,0,.23,.09,.24,.23,.01,.13-.11,.25-.26,.26Z"/>
</svg>