<?xml version="1.0" encoding="UTF-8"?>
<svg id="Layer_1" data-name="Layer 1" xmlns="http://www.w3.org/2000/svg" viewBox="0 0 14 14">
  <defs>
    <style>
      .cls-1 {
        fill: #393939;
      }

      .cls-2 {
        fill: none;
      }
    </style>
  </defs>
  <rect class="cls-2" width="14" height="14"/>
  <path class="cls-1" d="M7,3.98c.56,0,1.13,0,1.69,0,.43,0,.7-.27,.7-.7,0-.45,0-.9,0-1.34,0-.42-.26-.68-.68-.7-.18,0-.35,0-.53,0-.17,0-.29-.07-.29-.26,0-.16,.1-.26,.3-.25,.28,0,.56-.03,.83,.04,.52,.13,.86,.56,.87,1.09,0,.48,0,.96,0,1.45,0,.7-.47,1.19-1.17,1.2-1.17,.02-2.34,.02-3.5,0-.69-.01-1.16-.52-1.16-1.21,0-.46,0-.91,0-1.37,0-.71,.5-1.2,1.21-1.2,.2,0,.39,0,.59,0,.15,0,.27,.07,.28,.23,.02,.18-.09,.27-.25,.28-.2,.01-.39,0-.59,0-.48,0-.71,.24-.71,.71,0,.45,0,.9,0,1.34,0,.43,.26,.68,.69,.68,.58,0,1.15,0,1.73,0Zm4.39,7.67s.06,0,.1,0c.97-.02,1.74-.62,1.97-1.55,.12-.5,.09-1.02,.04-1.52-.08-.86-.56-1.43-1.37-1.73-.45-.17-.93-.07-1.39-.09-.17,0-.28,.07-.28,.25,0,.18,.11,.25,.28,.25,.25,0,.5,0,.75,0,.67,.01,1.29,.44,1.44,1.06,.14,.58,.14,1.18,0,1.75-.16,.68-.89,1.14-1.61,1.02,.11-.09,.19-.14,.26-.22,.11-.11,.12-.25,.01-.36-.11-.12-.25-.12-.36,0-.23,.23-.46,.46-.69,.69-.1,.11-.12,.24-.02,.35,.23,.25,.48,.5,.73,.73,.11,.1,.24,.08,.34-.03,.09-.1,.1-.23,0-.33-.07-.08-.16-.14-.25-.21,.01-.02,.03-.04,.04-.06ZM1.05,5.71c-.13-.47-.09-.96-.06-1.44,.05-.73,.61-1.28,1.34-1.35,.3-.03,.6-.01,.9-.02,.19,0,.3-.1,.3-.26,0-.15-.11-.25-.31-.25-.28,0-.56,0-.84,0-.92,.02-1.73,.74-1.89,1.64-.07,.42-.03,.84-.03,1.26,0,.96,.69,1.77,1.64,1.95,.16,.03,.33,.02,.51,.08-.06,.08-.14,.14-.21,.2-.12,.12-.13,.26-.01,.38,.11,.12,.25,.1,.36,0,.23-.23,.46-.46,.69-.69,.11-.12,.11-.25,0-.36-.23-.23-.46-.46-.69-.69-.11-.11-.25-.12-.36,0-.11,.12-.1,.25,0,.36,.07,.07,.15,.12,.27,.21-.69,.15-1.43-.35-1.62-1.02Zm.86,5.94s.09,0,.14,0c.4,0,.8,0,1.2,0,.16,0,.28-.08,.29-.25,0-.18-.11-.25-.27-.27-.07,0-.15,0-.22,0-.38,0-.75,0-1.17,0,.1-.11,.17-.18,.24-.25,.11-.12,.12-.24,0-.36-.11-.11-.25-.12-.36,0-.23,.23-.46,.46-.69,.69-.1,.11-.12,.24-.02,.35,.24,.25,.48,.5,.73,.74,.1,.1,.23,.09,.33-.01,.11-.1,.13-.23,.02-.34-.07-.08-.16-.14-.25-.21,.01-.02,.02-.04,.03-.06ZM12.62,2.73c.26,0,.38-.08,.38-.26,0-.17-.12-.25-.39-.25-.37,0-.73,0-1.1,0-.05,0-.11,.03-.17-.08,.06-.05,.15-.1,.21-.16,.12-.12,.14-.25,.02-.38-.11-.11-.25-.1-.36,0-.24,.23-.47,.46-.69,.69-.1,.11-.11,.24,0,.35,.23,.25,.47,.49,.72,.72,.11,.1,.24,.09,.35-.02,.1-.11,.1-.23,0-.35-.07-.08-.15-.15-.26-.27,.47,0,.88,0,1.3,0Zm-4.26,.14c.17,0,.29-.08,.3-.26,0-.15-.11-.25-.3-.25-.91,0-1.82,0-2.72,0-.15,0-.25,.05-.3,.19-.06,.17,.08,.32,.31,.33,.45,0,.89,0,1.34,0,.46,0,.92,0,1.38,0ZM7.03,.73c-.15,0-.24,.09-.25,.24-.01,.14,.1,.26,.24,.27,.14,0,.26-.11,.27-.27-.01-.13-.1-.23-.25-.23Zm2.86,11.41c0,.64-.51,1.14-1.16,1.15-.58,0-1.17,0-1.75,0-.56,0-1.13,0-1.69,0-.73,0-1.23-.5-1.23-1.22,0-.45,0-.9,0-1.34,0-.72,.5-1.22,1.22-1.22,1.13,0,2.27,0,3.4,0,.73,0,1.21,.49,1.22,1.21,0,.48,0,.95,0,1.43Zm-.5-1.42c0-.42-.27-.69-.69-.69-.57,0-1.14,0-1.71,0s-1.17,0-1.75,0c-.41,0-.66,.25-.66,.66,0,.47,0,.94,0,1.41,0,.41,.25,.67,.66,.67,1.16,0,2.32,0,3.48,0,.4,0,.67-.28,.67-.68,0-.45,0-.91,0-1.36Zm.5-2.95c0,.63-.49,1.12-1.12,1.13-1.17,0-2.34,0-3.51,0-.65,0-1.13-.38-1.18-1.02-.05-.61-.07-1.24,.02-1.85,.08-.49,.55-.88,1.05-.89,.61,0,1.22,0,1.83,0h0c.58,0,1.17,0,1.75,0,.66,0,1.14,.48,1.15,1.14,0,.5,0,.99,0,1.49Zm-.5-1.42c0-.43-.28-.71-.7-.71-1.15,0-2.3,0-3.44,0-.41,0-.67,.27-.67,.68,0,.46,0,.92,0,1.39,0,.43,.27,.69,.71,.69,.56,0,1.11,0,1.67,0s1.14,0,1.71,0c.44,0,.72-.28,.73-.73,0-.44,0-.88,0-1.32Zm-1.07,5.32c.22,0,.34-.09,.34-.25,0-.16-.11-.26-.32-.26-.9,0-1.8,0-2.7,0-.21,0-.32,.11-.31,.26,0,.16,.13,.25,.33,.25,.45,0,.89,0,1.34,0,.44,0,.88,0,1.32,0Zm-2.71-4.9c-.17,0-.28,.08-.28,.25,0,.17,.11,.25,.28,.25,.55,0,1.1,0,1.65,0,.18,0,.31-.12,.29-.26-.02-.16-.12-.24-.3-.24-.27,0-.54,0-.81,0-.28,0-.56,0-.83,0Zm2.56,.26c0,.15,.08,.24,.24,.24,.16,0,.25-.09,.26-.25,0-.16-.09-.24-.25-.25-.17,0-.25,.09-.25,.26Z"/>
</svg>