<?xml version="1.0" encoding="UTF-8"?>
<svg id="Layer_1" data-name="Layer 1" xmlns="http://www.w3.org/2000/svg" viewBox="0 0 14 14">
  <defs>
    <style>
      .cls-1 {
        fill: #393939;
      }

      .cls-2 {
        fill: none;
      }
    </style>
  </defs>
  <rect class="cls-2" width="14" height="14"/>
  <path class="cls-1" d="M13.36,6.57c0-.44-.08-.86-.29-1.26-.28-.53-.69-.92-1.25-1.2,.48-.36,.77-.81,.83-1.39,.06-.57-.1-1.09-.49-1.52-.7-.77-1.84-.87-2.66-.22-.41,.33-.65,.76-.71,1.28-.08,.74,.21,1.33,.78,1.81-.7,.29-1.22,.74-1.59,1.37-.12,.2-.31,.31-.55,.3-.25,0-.5-.01-.74,0-.36,.03-.59-.13-.77-.43-.32-.54-.79-.92-1.35-1.18-.05-.02-.1-.02-.13-.08,1.09-.92,.9-2.24,.22-2.93-.72-.73-1.91-.78-2.67-.1-.37,.33-.6,.74-.65,1.23-.08,.76,.21,1.37,.82,1.84-.06,.03-.1,.05-.14,.08-.83,.49-1.33,1.2-1.37,2.17-.03,.76-.02,1.51-.02,2.27,0,.42,.19,.74,.56,.92,.12,.06,.14,.12,.14,.23,0,.95,0,1.9,0,2.85,0,.46,.3,.78,.76,.79,.78,.01,1.57,0,2.35,0,.28,0,.5-.12,.66-.36,.11-.17,.13-.36,.13-.56,0-1.68,0-3.36,0-5.04,0-.07,0-.14,0-.2,1.19,.6,2.36,.59,3.54,0,0,.08,0,.15,0,.22,0,1.69,0,3.39,0,5.08,0,.56,.31,.87,.87,.87,.71,0,1.42,0,2.13,0,.59,0,.89-.3,.89-.89,0-.92,0-1.85,0-2.77,0-.08-.02-.15,.08-.2,.43-.19,.61-.53,.61-.99,0-.67,0-1.34,0-2.01ZM1.91,2.52c0-.75,.61-1.37,1.36-1.38,.75,0,1.37,.61,1.37,1.36,0,.76-.6,1.37-1.35,1.37-.76,0-1.37-.6-1.38-1.35ZM6.95,7.1c-.64,.04-1.21-.14-1.69-.59-.04-.04-.08-.09-.13-.13-.2-.16-.44-.08-.49,.17-.01,.06,0,.13,0,.2,0,.96,0,1.93,0,2.89,0,.97,0,1.94,0,2.91,0,.24-.05,.29-.29,.3-.17,0-.33,0-.5,0-.23,0-.28-.05-.28-.29,0-.86,0-1.71,0-2.57,0-.31-.09-.46-.29-.45-.19,0-.28,.15-.28,.45,0,.85,0,1.7,0,2.55,0,.27-.04,.31-.32,.31-.15,0-.31,0-.46,0-.25,0-.3-.06-.3-.31,0-1,0-1.99,0-2.99,0-.37,0-.39-.36-.48-.22-.06-.33-.2-.33-.44,0-.72,0-1.43,0-2.15,.02-1.13,.96-2.04,2.09-2.01,.91,.02,1.63,.41,2.11,1.18,.32,.5,.74,.75,1.33,.71,.06,0,.12,0,.18,0,.22,0,.38,.15,.38,.35,0,.21-.14,.38-.37,.39Zm2.42-4.59c0-.76,.6-1.37,1.35-1.37,.74,0,1.37,.62,1.38,1.37,0,.74-.62,1.37-1.37,1.37-.76,0-1.36-.59-1.36-1.36Zm3.42,6.09c0,.28-.12,.42-.38,.48-.27,.06-.3,.1-.3,.38,0,1.01,0,2.02,0,3.03,0,.31-.05,.36-.36,.36-.15,0-.31,0-.46,0-.19,0-.26-.07-.26-.26,0-.84,0-1.67,0-2.51,0-.05,0-.11,0-.16,0-.24-.12-.38-.3-.38-.18,0-.28,.14-.28,.39,0,.87,0,1.74,0,2.61,0,.28-.04,.31-.31,.32-.15,0-.29,0-.44,0-.28,0-.32-.04-.32-.33,0-1.84,0-3.68,0-5.52,0-.13,0-.25,0-.38,0-.13-.06-.25-.19-.3-.14-.05-.25,0-.34,.1-.26,.27-.56,.47-.95,.59,.03-.23,.04-.44-.05-.64-.03-.06,.01-.09,.06-.1,.35-.13,.54-.42,.74-.71,.57-.86,1.73-1.29,2.71-1,.82,.24,1.44,1.05,1.44,1.9,0,.72,0,1.43,0,2.15Z"/>
</svg>