<?xml version="1.0" encoding="UTF-8"?>
<svg id="Layer_1" data-name="Layer 1" xmlns="http://www.w3.org/2000/svg" viewBox="0 0 14 14">
  <defs>
    <style>
      .cls-1 {
        fill: #393939;
      }

      .cls-2 {
        fill: none;
      }
    </style>
  </defs>
  <rect class="cls-2" width="14" height="14"/>
  <path class="cls-1" d="M13.37,9.66c-.11-.13-.24-.25-.36-.37-.09-.09-.19-.1-.28,0-.09,.09-.07,.19,.01,.28,.09,.1,.19,.19,.29,.29,.14,.15,.14,.21,0,.36-.12,.13-.25,.25-.38,.38-.12,.12-.22,.12-.35,0-.62-.63-1.24-1.25-1.87-1.87-.07-.07-.07-.11,0-.17,.19-.18,.37-.36,.55-.55,.08-.09,.13-.08,.2,0,.29,.3,.58,.59,.87,.88,.1,.1,.21,.15,.32,.04,.1-.11,.05-.21-.04-.31-.33-.33-.65-.65-.98-.98-.08-.08-.18-.15-.28-.11-.24,.1-.34-.07-.47-.2-.09-.09-.18-.19-.28-.27-.07-.06-.06-.11-.02-.18,.49-.82,.59-1.68,.32-2.59-.35-1.17-1.51-2.09-2.73-2.16-.46-.03-.9,.03-1.34,.18-.05-.44-.08-.47-.52-.47-1.49,0-2.99,0-4.48,0-.28,0-.38,.1-.38,.38,0,.51,0,1.01,0,1.52,0,.3,.09,.39,.4,.39,1.04,0,2.07,0,3.12,0,0,.03,0,.04,0,.05-.01,.04-.02,.08-.04,.12-.19,.59-.2,1.19-.02,1.78,.33,1.08,1.04,1.79,2.11,2.14,.08,.03,.14,.05,.14,.15,0,1.1,0,2.2,0,3.29,0,.04,.02,.1-.04,.11-.12,0-.24,.02-.35,0-.07-.02-.03-.13-.03-.2,0-.87,0-1.74,0-2.61,0-.28-.09-.37-.36-.37-.23,0-.47,0-.7,0-.34,0-.41,.07-.41,.41,0,.88,0,1.75,0,2.63,0,.13-.03,.18-.16,.16-.04,0-.07,0-.11,0-.13,.02-.17-.03-.16-.16,0-.39,0-.79,0-1.18,0-.14-.02-.26-.19-.26-.16,0-.19,.12-.19,.26,0,.4,0,.8,0,1.2,0,.11-.02,.16-.14,.15-.12-.01-.25-.01-.37,0-.16,.02-.21-.03-.2-.2,0-1.25,0-2.49,0-3.74,0-.17-.08-.4,.03-.49,.1-.09,.33-.02,.5-.03,.14-.01,.18,.03,.17,.17,0,.64,0,1.28,0,1.93,0,.14,.05,.24,.19,.24,.14,0,.19-.09,.19-.22,0-.73,0-1.47,0-2.2,0-.19-.1-.29-.29-.29-.3,0-.59,0-.89,0-.19,0-.28,.1-.29,.29,0,.06,0,.12,0,.18,0,1.39,0,2.79,0,4.18,0,.06,.03,.15-.03,.17-.12,.02-.25,.03-.37,0-.07-.02-.03-.13-.03-.2,0-2.04,0-4.07,0-6.11,0-.29-.09-.38-.38-.38-.23,0-.46,0-.68,0-.32,0-.42,.09-.42,.42,0,1.98,0,3.96,0,5.94q0,.34-.34,.34c-.25,0-.35,.06-.36,.19,0,.14,.1,.2,.35,.2,2.63,0,5.27,0,7.9,0,.03,0,.06,0,.09,0,.13,0,.24-.04,.24-.19,0-.16-.11-.2-.25-.2-.1,0-.21,0-.31,0-.12,.01-.14-.03-.14-.14,0-1.08,0-2.16,0-3.24,0-.1,.03-.14,.12-.17,.29-.08,.56-.19,.81-.35,.08-.05,.13-.04,.19,.03,.14,.15,.28,.29,.43,.43,.06,.06,.09,.11,.06,.21-.04,.13,0,.25,.1,.36,.67,.67,1.33,1.34,2,2,.24,.24,.57,.23,.81,0,.16-.15,.32-.31,.47-.47,.21-.23,.22-.55,.03-.77Zm-11.09,1.43c0,.19,0,.37,0,.56,0,.09-.01,.14-.12,.13-.19-.01-.43,.06-.55-.03-.12-.09-.03-.34-.03-.53,0-.87,0-1.74,0-2.61,0-.99,0-1.97,0-2.96,0-.15,.04-.19,.18-.18,.12,.01,.24,.01,.35,0,.15-.02,.18,.04,.18,.18,0,1.81,0,3.63,0,5.44Zm3.64,.69c-.15-.01-.3,0-.44,0-.1,0-.12-.03-.12-.13,0-.86,0-1.71,0-2.57,0-.1,.03-.13,.13-.12,.15,0,.31,0,.46,0,.1,0,.12,.04,.12,.13,0,.43,0,.86,0,1.29,0,.42,0,.84,0,1.26,0,.11-.03,.15-.14,.14ZM3.86,3.72c-.71,0-1.42,0-2.13,0-.13,0-.17-.04-.16-.17,0-.4,0-.8,0-1.2,0-.1,.02-.14,.13-.14,1.44,0,2.87,0,4.31,0,.11,0,.13,.03,.13,.13,0,.41,0,.81,0,1.22,0,.13-.04,.15-.16,.15-.71,0-1.42,0-2.13,0Zm3.94,8.06c-.17-.02-.4,.05-.5-.03-.11-.1-.03-.33-.03-.51,0-.39,0-.79,0-1.18,0-.52,0-1.05,0-1.57,0-.12,.03-.17,.15-.15,.07,.01,.15,0,.22,0q.34,0,.34,.35c0,.97,0,1.94,0,2.9,0,.13-.02,.21-.18,.19Zm.08-3.83c-1.28,.12-2.49-.7-2.86-1.94-.18-.6-.15-1.19,.06-1.78,.03-.09,.07-.14,.17-.13,.1,0,.19,0,.31,0-.13,.3-.22,.58-.26,.88-.17,1.38,1.03,2.65,2.42,2.57,1.1-.06,1.92-.74,2.2-1.81,.04-.13,.03-.24-.11-.28-.15-.05-.22,.04-.26,.18-.26,.96-1.02,1.54-2,1.53-1.15-.02-2.07-1.17-1.85-2.3,.05-.23,.12-.45,.24-.65,.05-.08,.1-.12,.2-.12,.31,0,.39-.08,.39-.38,0-.1,.03-.15,.12-.2,1.1-.66,2.56-.05,2.89,1.2,.04,.14,.09,.25,.26,.21,.16-.04,.15-.16,.12-.29-.38-1.43-1.9-2.16-3.26-1.55-.03,.01-.07,.03-.11,.05-.01-.51-.1-.42,.38-.55,1.84-.51,3.62,.99,3.44,2.89-.12,1.33-1.15,2.36-2.48,2.49Zm2.25,.07c-.12-.11-.23-.24-.36-.35-.07-.06-.08-.1,0-.17,.24-.23,.24-.23,.47,0,.09,.09,.18,.17,.26,.26,.02,.02,.05,.05,.09,.1-.1,.1-.19,.2-.29,.27-.08,.06-.12-.06-.16-.1ZM4.48,3.15c-.33,0-.66,0-1,0-.13,0-.22-.04-.22-.18,0-.14,.09-.19,.22-.19,.66,0,1.33,0,1.99,0,.13,0,.22,.05,.23,.19,0,.13-.09,.19-.22,.19-.33,0-.66,0-1,0Zm-1.95,0c-.1,0-.21,0-.31,0-.11,0-.17-.06-.18-.17,0-.12,.06-.19,.17-.2,.22,0,.44,0,.67,0,.12,0,.18,.08,.17,.2,0,.11-.07,.17-.18,.17-.11,0-.22,0-.33,0Zm5.12,.59c-.82,0-1.5,.66-1.5,1.48,0,.81,.68,1.49,1.49,1.49,.82,0,1.5-.67,1.5-1.48,0-.82-.67-1.49-1.49-1.49Zm1.05,1.16c.04,.13,0,.14-.11,.14-.25,0-.5,0-.76,0-.06,0-.11,0-.15-.04-.22-.22-.44-.44-.67-.67,.67-.41,1.46-.13,1.68,.58Zm-.89,1.42c-.45,.07-.82-.1-1.07-.47-.26-.38-.27-.78-.04-1.18,.01-.02,.03-.04,.06-.08,.23,.24,.46,.47,.69,.71,.08,.09,.17,.13,.29,.12,.3,0,.59,0,.89,0,.08,0,.13,0,.09,.11-.15,.44-.44,.72-.9,.79Z"/>
</svg>