<?xml version="1.0" encoding="UTF-8"?>
<svg id="Layer_1" data-name="Layer 1" xmlns="http://www.w3.org/2000/svg" viewBox="0 0 14 14">
  <defs>
    <style>
      .cls-1 {
        fill: #393939;
      }

      .cls-2 {
        fill: none;
      }
    </style>
  </defs>
  <rect class="cls-2" width="14" height="14"/>
  <path class="cls-1" d="M13.39,6.29c-.77-1.16-1.54-2.31-2.32-3.46-.21-.32-.54-.37-.87-.16-.23,.14-.45,.29-.68,.44-.33,.22-.41,.56-.2,.9,.05,.09,.13,.16,.15,.27-.35,.03-.68-.02-.98-.16-.59-.27-1.16-.25-1.75-.04-.08,.03-.14,.03-.21-.02-.33-.24-.7-.42-1.08-.57-.1-.04-.11-.07-.08-.18,.11-.31,.03-.55-.24-.75-.22-.16-.44-.31-.66-.46-.31-.21-.67-.16-.9,.14-.95,1.29-1.89,2.58-2.83,3.87-.21,.28-.15,.63,.12,.85,.24,.19,.48,.37,.73,.54,.2,.14,.44,.17,.64,.02,.15-.11,.22-.06,.32,.05,.14,.17,.44,.27,.44,.46,0,.18-.21,.37-.34,.55-.23,.32-.27,.66-.07,1.01,.2,.34,.51,.47,.9,.43,.1-.01,.14,0,.17,.11,.15,.49,.45,.69,.96,.65,.1,0,.14,.01,.17,.12,.13,.46,.46,.69,.93,.65,.12-.01,.17,0,.21,.14,.11,.35,.36,.57,.73,.63,.37,.06,.67-.07,.88-.38,.07-.1,.14-.21,.19-.32,.04-.1,.08-.08,.15-.04,.54,.3,1.03,.1,1.2-.48,.03-.1,.06-.15,.18-.16,.43-.03,.72-.34,.71-.76,0-.13,.02-.19,.16-.23,.27-.09,.46-.29,.5-.58,.02-.12,.06-.12,.15-.13,.61-.05,.91-.59,.64-1.14-.04-.08-.05-.14,0-.23,.07-.12,.13-.24,.19-.38,.34,.33,.56,.35,.95,.1,.21-.14,.43-.28,.64-.42,.32-.22,.41-.56,.19-.88Zm-11.22,.77c-.06,.08-.12,.15-.23,.15-.12,0-.87-.56-.9-.67-.02-.08,.01-.15,.06-.21,.93-1.27,1.85-2.55,2.78-3.82,.11-.15,.23-.18,.38-.06,.19,.15,.39,.29,.58,.43,.21,.15,.22,.22,.07,.42-.7,.95-1.39,1.91-2.09,2.86-.22,.3-.43,.59-.65,.89Zm1.59,2.37c-.14,.2-.36,.27-.58,.2-.19-.06-.31-.23-.31-.46-.01-.11,.04-.21,.1-.31,.3-.43,.59-.86,.9-1.29,.17-.24,.49-.31,.71-.15,.22,.16,.26,.45,.09,.69-.3,.44-.6,.88-.91,1.31Zm1.16,.75c-.18,.25-.48,.31-.71,.16-.23-.15-.27-.45-.09-.71,.2-.29,.4-.58,.6-.87,.13-.18,.37-.24,.58-.15,.2,.08,.28,.23,.3,.43,0,.11-.04,.21-.11,.31-.19,.28-.38,.56-.58,.84Zm.78,1c-.18,.02-.33-.04-.43-.19-.11-.16-.13-.34-.03-.51,.12-.18,.24-.35,.38-.51,.14-.16,.33-.18,.51-.1,.19,.08,.31,.22,.32,.4,0,.35-.45,.87-.76,.91Zm1.62,.36c-.13,.2-.26,.4-.54,.39-.18,0-.33-.07-.43-.23-.1-.16-.09-.33,.01-.49,.05-.08,.11-.16,.17-.24,.16-.2,.44-.23,.67-.07,.22,.16,.27,.4,.12,.63Zm3.75-2.84c-.13,.17-.34,.21-.54,.08-.43-.3-.86-.6-1.29-.9-.05-.03-.09-.07-.14-.09-.11-.06-.21-.06-.29,.05-.07,.11-.03,.2,.06,.27,.08,.07,.18,.13,.27,.2,.31,.22,.61,.43,.92,.65,.2,.14,.24,.34,.12,.52-.13,.19-.33,.22-.54,.08-.34-.23-.67-.47-1-.71-.12-.08-.25-.17-.36,0-.11,.16,0,.25,.13,.34,.33,.24,.67,.47,1,.71,.14,.1,.2,.25,.16,.42-.03,.15-.14,.22-.27,.26-.13,.04-.24-.02-.35-.09-.33-.22-.67-.45-1-.67-.11-.07-.23-.09-.31,.04-.08,.12-.04,.22,.08,.3,.02,.02,.05,.03,.07,.05,.22,.15,.44,.29,.66,.44,.1,.07,.21,.14,.24,.27,.07,.26-.17,.52-.43,.44-.22-.07-.42-.19-.53-.4-.16-.32-.42-.49-.76-.54-.1-.01-.13-.03-.14-.14-.04-.46-.29-.74-.75-.84-.1-.02-.09-.05-.08-.13,.11-.59-.16-.99-.76-1.11-.11-.02-.08-.07-.07-.14,.08-.6-.31-1.08-.88-1.08-.37,0-.62,.19-.81,.49-.18,.29-.19,.28-.45,.05-.39-.36-.39-.36-.09-.77,.67-.92,1.35-1.84,2.02-2.76,.08-.11,.15-.13,.27-.08,.29,.12,.57,.25,.84,.4,.1,.06,.13,.1,0,.16-.09,.05-.18,.11-.26,.17-.12,.08-.24,.16-.33,.28-.23,.28-.38,.59-.22,.95,.16,.35,.49,.48,.85,.48,.45,0,.86-.11,1.19-.44,.03-.03,.07-.07,.11-.1,.28-.23,.34-.23,.62,0,.98,.8,1.97,1.6,2.95,2.39,.18,.14,.21,.35,.09,.51Zm.2-1.6s0,.1-.01,.14c-.04,.16-.06,.37-.2,.43-.11,.05-.22-.13-.32-.22-.81-.66-1.62-1.32-2.4-2.01-.42-.36-.81-.35-1.22,.06-.29,.29-.62,.4-1.01,.38-.19-.01-.37-.05-.45-.24-.08-.19,0-.35,.12-.5,.51-.64,1.72-.98,2.47-.69,.45,.17,.92,.27,1.4,.2,.1-.01,.15,.03,.2,.1,.45,.67,.9,1.35,1.35,2.02,.07,.1,.09,.2,.08,.31Zm1.72-.27c-.23,.16-.46,.3-.69,.46-.14,.09-.24,.06-.33-.07-.75-1.13-1.5-2.26-2.25-3.39-.04-.05-.07-.11-.06-.17,0-.09,.04-.14,.11-.18,.23-.15,.46-.3,.69-.46,.15-.1,.27-.06,.37,.09,.75,1.12,1.49,2.23,2.24,3.34,.11,.16,.08,.29-.07,.39Z"/>
</svg>