<?xml version="1.0" encoding="UTF-8"?>
<svg id="Layer_1" data-name="Layer 1" xmlns="http://www.w3.org/2000/svg" viewBox="0 0 14 14">
  <defs>
    <style>
      .cls-1 {
        fill: #393939;
      }

      .cls-2 {
        fill: none;
      }
    </style>
  </defs>
  <rect class="cls-2" width="14" height="14"/>
  <path class="cls-1" d="M6.11,5.65s.08,.02,.12,.02c.69,0,1.37,0,2.06,0,.19,0,.28,.06,.28,.19,0,.13-.1,.2-.29,.2-.68,0-1.37,0-2.05,0-.04,0-.07-.01-.13,.02,.11,.1,.21,.2,.31,.3,.05,.04,.09,.09,.14,.14,.08,.09,.08,.2,0,.28-.08,.08-.19,.08-.28,0-.2-.19-.39-.38-.58-.58-.07-.07-.14-.13-.2-.2-.09-.09-.09-.2,0-.29,.26-.26,.52-.52,.78-.78,.1-.1,.21-.09,.29-.01,.08,.08,.07,.19-.02,.29-.14,.14-.28,.28-.43,.42Zm1.77,2.28s-.07,0-.11,0c-.68,0-1.37,0-2.05,0-.04,0-.09,0-.13,0-.1,.02-.15,.08-.15,.18,0,.09,.04,.16,.13,.19,.05,.02,.1,.02,.15,.02,.69,0,1.38,0,2.07,0,.03,0,.07-.01,.12,.02-.04,.04-.08,.06-.11,.1-.11,.11-.22,.22-.33,.33-.11,.12-.07,.29,.07,.33,.09,.03,.16-.01,.23-.08,.25-.25,.5-.49,.74-.74,.11-.11,.11-.21,0-.33-.22-.22-.44-.44-.66-.66-.05-.05-.09-.1-.14-.13-.07-.04-.14-.04-.21,0-.06,.05-.09,.11-.08,.19,0,.06,.05,.1,.09,.14,.14,.13,.27,.27,.41,.4,0,0,0,.02-.01,.03Zm-2.67-.45c0,.34-.15,.57-.46,.69-.14,.06-.29,.06-.44,0-.11-.04-.11-.04-.11,.08-.04,1.28-.08,2.56-.11,3.84-.01,.38-.21,.65-.56,.73-.22,.05-.43,0-.61-.14-.05-.05-.08-.05-.14,0-.23,.18-.49,.22-.76,.1-.29-.13-.42-.38-.42-.69-.02-.72-.04-1.44-.06-2.16-.02-.56-.03-1.13-.05-1.69,0-.07,0-.11-.09-.07-.35,.15-.75-.04-.88-.4-.01-.03,0-.08-.04-.1v-.08s0-.07,0-.11c0-.91,0-1.83,0-2.74,0-.05,0-.1,0-.16,.07-.51,.52-.95,1.12-.94,.14,0,.27,0,.41,0,.09,0,.16,.03,.23,.09,.18,.18,.36,.35,.54,.53,.05,.05,.08,.05,.13,0,.18-.17,.36-.33,.53-.51,.08-.08,.17-.12,.29-.12,.16,0,.33,0,.49,.01,.53,.04,.98,.52,.99,1.06,0,.93,0,1.85,0,2.78Zm-1.48,.02c-.6,0-1.19,0-1.79,0-.08,0-.1,.02-.1,.1,.04,1.23,.07,2.45,.11,3.68,0,.3,0,.59,.03,.89,.03,.24,.3,.36,.5,.23,.12-.08,.16-.2,.16-.34,0-1.27,0-2.53,0-3.8,0-.04,0-.09,0-.13,.02-.09,.09-.16,.18-.16,.09,0,.16,.05,.19,.14,.01,.05,.01,.09,.01,.14,0,.9,0,1.8,0,2.7,0,.39,0,.78,0,1.17,0,.16,.12,.29,.27,.32,.15,.03,.3-.05,.36-.2,.04-.09,.03-.18,.03-.27,.02-.71,.04-1.42,.05-1.79,.03-1.08,.06-1.83,.08-2.57,0-.08-.01-.11-.1-.11Zm1.09-1.39s0,0,0,0c0-.45,0-.9,0-1.35,0-.34-.2-.61-.54-.71-.16-.05-.33-.01-.5-.03-.05,0-.09,.02-.13,.05-.21,.2-.43,.4-.65,.61-.13,.12-.23,.12-.36,0-.13-.13-.28-.24-.39-.39-.19-.24-.42-.29-.7-.27-.41,.03-.71,.33-.71,.73,0,.9,0,1.8,0,2.69,0,.05,0,.1,.02,.15,.04,.19,.27,.28,.43,.17,.11-.08,.13-.18,.13-.3,0-.55,0-1.1,0-1.65,0-.18,.07-.28,.2-.27,.13,0,.19,.09,.19,.27,0,.4,0,.8,0,1.2,0,.08,.02,.1,.1,.1,.61,0,1.21,0,1.82,0,.08,0,.1-.02,.1-.1,0-.28,0-.55,0-.83,0-.16,0-.32,0-.48,0-.1,.08-.17,.17-.18,.1-.01,.18,.04,.21,.14,.01,.04,.01,.08,.01,.12,0,.31,0,.62,0,.93,0,.27,0,.53,0,.8,0,.13,.06,.23,.18,.27,.11,.04,.21,.03,.3-.05,.08-.08,.1-.18,.1-.28,0-.45,0-.9,0-1.36Zm8.71,1.48v.1s-.05,.08-.07,.13c-.14,.32-.52,.48-.84,.35-.09-.04-.1,0-.1,.07-.03,.97-.06,1.94-.08,2.91,0,.33-.01,.65-.03,.98-.01,.3-.15,.53-.43,.65-.27,.12-.53,.08-.76-.11-.04-.04-.07-.04-.11,0-.23,.19-.49,.23-.76,.11-.28-.12-.42-.36-.43-.66-.02-.66-.04-1.33-.06-1.99-.02-.64-.04-1.27-.06-1.91,0-.07-.01-.09-.09-.06-.41,.18-.86-.11-.92-.53,0-.05,0-.09,0-.14,0-.93,0-1.86,0-2.79,0-.52,.45-1.01,.97-1.05,.2-.02,.41,0,.61-.01,.08,0,.13,.04,.19,.09,.18,.17,.36,.34,.53,.52,.05,.05,.08,.06,.14,0,.18-.18,.37-.35,.56-.53,.07-.07,.14-.1,.24-.09,.16,0,.33,0,.49,0,.5,.03,.93,.43,1,.93,.02,.05,0,.1,0,.16,0,.91,0,1.83,0,2.74,0,.04,0,.07,0,.11Zm-1.48-.08c-.59,0-1.18,0-1.78,0-.09,0-.11,.02-.11,.11,.03,.74,.05,1.49,.07,2.09,.02,.8,.04,1.45,.06,2.11,0,.12,0,.23,.02,.35,.03,.26,.31,.38,.52,.23,.11-.08,.14-.2,.14-.33,0-1.21,0-2.43,0-3.64q0-.25,.25-.25t.14,.14c0,1.25,0,2.49,0,3.74,0,.08,0,.16,.03,.23,.07,.14,.22,.21,.36,.18,.16-.04,.26-.17,.26-.35,.04-1.5,.09-2.99,.13-4.49,0-.08-.02-.1-.1-.1Zm1.09-2.75c0-.33-.21-.6-.52-.7-.17-.05-.34-.02-.51-.03-.05,0-.09,.02-.13,.05-.22,.21-.44,.42-.66,.62-.11,.11-.22,.1-.33,0-.14-.13-.27-.27-.41-.4q-.29-.28-.69-.27c-.42,.01-.72,.32-.72,.74,0,.44,0,.88,0,1.33h0c0,.45,0,.9,0,1.35,0,.06,0,.12,.02,.17,.04,.13,.18,.22,.31,.2,.16-.03,.25-.14,.25-.33,0-.56,0-1.12,0-1.68,0-.05,0-.1,.02-.14,.04-.09,.11-.13,.2-.12,.09,.01,.15,.07,.16,.16,0,.04,0,.07,0,.11,0,.4,0,.81,0,1.21,0,.07,.02,.09,.09,.09,.62,0,1.23,0,1.85,0,.07,0,.09-.02,.09-.09,0-.29,0-.58,0-.87,0-.15,0-.3,0-.45,0-.1,.08-.17,.18-.17,.1,0,.17,.06,.19,.16,0,.04,0,.08,0,.12,0,.54,0,1.09,0,1.63,0,.05,0,.11,.02,.16,.04,.14,.17,.22,.31,.2,.17-.03,.25-.14,.25-.35,0-.9,0-1.81,0-2.71Zm-1.2-1.48c-.51,.6-1.52,.45-1.79-.29-.16-.43-.17-.89,.07-1.31,.22-.38,.57-.55,1-.51,.45,.04,.75,.28,.91,.7,.07,.17,.07,.35,.07,.6,.01,.25-.05,.55-.27,.8Zm-.13-.87c0-.08,0-.17,0-.25-.04-.34-.3-.58-.64-.6-.32-.02-.62,.2-.7,.52-.05,.2-.04,.42,0,.62,.04,.28,.22,.47,.5,.54,.27,.07,.5,0,.69-.22,.16-.18,.17-.39,.16-.61Zm-8,.54c-.11,.35-.5,.65-.85,.69-.69,.09-1.26-.45-1.23-1.15,0-.03,0-.05,0-.11,0-.23,.02-.47,.15-.7,.26-.46,.91-.66,1.38-.42,.39,.2,.59,.52,.61,.96,.01,.24,.01,.49-.07,.73Zm-.33-.54c0-.08,0-.16,0-.23-.03-.36-.31-.62-.67-.63-.34,0-.64,.24-.68,.59-.02,.19-.03,.37,0,.56,.04,.27,.26,.5,.52,.55,.29,.06,.57-.06,.72-.31,.1-.16,.11-.35,.1-.53Z"/>
</svg>