<?xml version="1.0" encoding="UTF-8"?>
<svg id="Layer_1" data-name="Layer 1" xmlns="http://www.w3.org/2000/svg" viewBox="0 0 14 14">
  <defs>
    <style>
      .cls-1 {
        fill: #393939;
      }

      .cls-2 {
        fill: none;
      }
    </style>
  </defs>
  <rect class="cls-2" width="14" height="14"/>
  <path class="cls-1" d="M13.08,1.85c0-.63-.29-.93-.91-.93-3.44,0-6.88,0-10.32,0-.62,0-.91,.29-.91,.91,0,3.44,0,6.88,0,10.32,0,.63,.29,.92,.92,.92,3.43,0,6.87,0,10.3,0,.63,0,.92-.29,.92-.92,0-1.72,0-3.43,0-5.15,0-1.72,0-3.43,0-5.15ZM1.45,3.11c.01-.44,0-.88,0-1.33,0-.24,.09-.32,.32-.32,3.48,0,6.96,0,10.44,0,.22,0,.33,.09,.33,.3,0,.47,0,.94,0,1.41,0,.14-.08,.14-.17,.14-.77,0-1.53,0-2.3,0h-3.09c-1.78,0-3.55,0-5.33,0-.16,0-.21-.03-.21-.2ZM12.55,12.14c0,.33-.08,.41-.41,.41-3.43,0-6.85,0-10.28,0-.33,0-.4-.07-.4-.41,0-2.7,0-5.4,0-8.1,0-.16,.03-.21,.2-.21,1.78,0,3.57,0,5.35,0s3.57,0,5.35,0c.17,0,.2,.05,.2,.21,0,2.7,0,5.4,0,8.1Zm-2.77-2.5c.51,0,1.03,0,1.54,0,.06,0,.12,0,.18,0,.16,.01,.25,.1,.25,.25,0,.15-.09,.24-.24,.27-.08,.01-.16,0-.24,0-1.02,0-2.04,0-3.07,0-.06,0-.12,0-.18,0-.15-.03-.24-.11-.24-.27,0-.16,.09-.24,.25-.25,.17,0,.34,0,.51,0,.41,0,.82,0,1.23,0Zm-.27,1.32c.46,0,.92,0,1.39,0,.21,0,.33,.1,.33,.26,0,.16-.12,.26-.33,.26-.93,0-1.86,0-2.79,0-.21,0-.32-.1-.31-.27,0-.16,.11-.25,.31-.25,.47,0,.94,0,1.41,0Zm-.53-2.65c.28,0,.57,0,.85,0,.21,0,.33,.1,.34,.26,0,.16-.12,.28-.33,.28-.57,0-1.15,0-1.72,0-.21,0-.32-.1-.32-.27,0-.17,.11-.27,.34-.27,.28,0,.57,0,.85,0ZM4.36,2.4c-.01,.23-.2,.38-.43,.37-.21-.02-.38-.21-.36-.42,.02-.21,.21-.38,.41-.37,.22,.01,.39,.2,.38,.42Zm-1.71,.37c-.22,0-.39-.16-.39-.38,0-.22,.17-.41,.39-.41,.21,0,.39,.18,.4,.39,0,.22-.17,.4-.4,.4Zm2.64,0c-.22,0-.39-.16-.39-.38,0-.23,.17-.41,.39-.41,.21,0,.39,.18,.4,.39,0,.22-.18,.4-.4,.4Zm6.46,2.88c-.1-.62-.57-1.02-1.19-1.03-1.18,0-2.36,0-3.55,0-1.17,0-2.34,0-3.51,0-.16,0-.31,.01-.47,.07-.54,.2-.87,.74-.78,1.3,.09,.59,.58,1.01,1.19,1.01,2.37,0,4.74,0,7.11,0,.13,0,.26-.02,.39-.07,.55-.2,.89-.74,.8-1.29Zm-1.05,.8c-.1,.02-.2,.02-.3,.02-1.14,0-2.27,0-3.41,0-1.15,0-2.3,0-3.45,0-.39,0-.64-.16-.73-.45-.13-.43,.14-.83,.61-.87,.04,0,.08,0,.12,0,2.31,0,4.62,0,6.93,0,.43,0,.7,.21,.75,.58,.05,.35-.18,.66-.52,.72Zm-3.42,2.18c0-.37-.21-.57-.58-.57-1.29,0-2.57,0-3.86,0-.39,0-.58,.2-.58,.59,0,.83,0,1.66,0,2.49,0,.4,.2,.61,.61,.61,.63,0,1.27,0,1.9,0s1.27,0,1.9,0c.39,0,.61-.21,.61-.59,0-.84,0-1.69,0-2.53Zm-.53,2.43c0,.13-.04,.17-.17,.17-1.21,0-2.41,0-3.62,0-.14,0-.18-.04-.18-.18,0-.76,0-1.53,0-2.29,0-.14,.04-.17,.18-.17,.61,0,1.21,0,1.82,0s1.2,0,1.8,0c.13,0,.17,.03,.17,.16,0,.77,0,1.54,0,2.31Z"/>
</svg>