<?xml version="1.0" encoding="UTF-8"?>
<svg id="Layer_1" data-name="Layer 1" xmlns="http://www.w3.org/2000/svg" viewBox="0 0 14 14">
  <defs>
    <style>
      .cls-1 {
        fill: #393939;
      }

      .cls-2 {
        fill: none;
      }
    </style>
  </defs>
  <rect class="cls-2" width="14" height="14"/>
  <path class="cls-1" d="M5.12,3.7c.67,0,1.22,.22,1.7,.64,.04,.03,.08,.07,.11,.11,.08,.12,.07,.23-.04,.32-.12,.1-.24,.07-.34-.03-.26-.25-.57-.43-.92-.51-.71-.17-1.34,0-1.89,.49-.15,.13-.28,.14-.38,.03-.1-.1-.08-.25,.05-.38,.02-.02,.04-.04,.06-.05,.48-.41,1.03-.63,1.65-.63Zm1.01,1.53c-.52-.55-1.42-.57-1.98,0-.1,.1-.09,.23,0,.33,.1,.1,.21,.1,.33,.02,.51-.37,.79-.37,1.32,0,.08,.06,.17,.07,.25,.03,.08-.04,.14-.11,.13-.21,0-.06-.01-.12-.06-.16ZM1.36,6.76c-.15,0-.22,.09-.23,.22,0,.14,.07,.24,.23,.24,.16,0,.22-.09,.24-.23-.02-.14-.09-.23-.25-.23Zm9.63,6.23c-.73,.21-1.45,.15-2.15-.13-.14-.06-.25-.07-.38,.05-.16,.15-.38,.2-.6,.2-1.91,0-3.81,0-5.72,0-.58,0-1.01-.44-1.01-1.01,0-1.31,0-2.63,0-3.94,0-.22,.07-.32,.23-.32,.16,0,.25,.1,.25,.33,0,.91,0,1.82,0,2.73,0,.18,.05,.21,.21,.2,1.39,0,2.78,0,4.17,0,.12,0,.18-.02,.24-.15,.16-.4,.57-.61,.99-.52,.17,.03,.34,.08,.52,.12,0-.01,.01-.02,.02-.04-.61-.61-1.23-1.22-1.84-1.83-.41-.41-.82-.82-1.23-1.23-.39-.39-.41-.92-.05-1.27,.35-.35,.87-.33,1.26,.05,.41,.4,.81,.81,1.22,1.22,.08,.08,.12,.11,.18-.02,.13-.26,.35-.4,.63-.43,.11-.01,.13-.05,.14-.15,.02-.19,.11-.37,.26-.49,.06-.06,.08-.11,.08-.2,0-1.05,0-2.09,0-3.14,0-.12-.03-.15-.15-.15-2.16,0-4.32,0-6.48,0-.14,0-.16,.05-.16,.18,0,.91,0,1.81,0,2.72,0,.06,0,.13-.01,.19-.03,.12-.1,.19-.23,.19-.14,0-.21-.08-.24-.2-.01-.05,0-.1,0-.15,0-1.28,0-2.56,0-3.84,0-.67,.42-1.08,1.08-1.08,1.85,0,3.71,0,5.56,0,.68,0,1.1,.41,1.1,1.09,0,1.31,0,2.63,0,3.94,0,.07-.04,.17,.04,.21,.11,.05,.24,.06,.37,.08,.01,0,.04-.06,.06-.09,.3-.58,.95-.68,1.41-.23,.56,.56,1.13,1.11,1.68,1.68,1.74,1.79,.96,4.75-1.44,5.44ZM8.39,2.03c0-.5-.18-.68-.67-.68-1.81,0-3.63,0-5.44,0-.06,0-.11,0-.17,0-.28,.02-.48,.22-.49,.5,0,.13,0,.26,0,.38-.01,.14,.04,.16,.17,.16,1.08,0,2.15,0,3.23,0h3.02q.37,0,.37-.37Zm-.35,10.56c-.46-.16-.89-.32-1.32-.47-.21-.07-.37-.21-.46-.4-.06-.12-.12-.14-.25-.14-1.34,0-2.68,0-4.01,0q-.4,0-.4,.41c0,.46,.18,.64,.65,.64,1.83,0,3.66,0,5.48,0,.09,0,.19,0,.3-.04Zm4.84-2.85c0-.59-.21-1.22-.69-1.72-.58-.62-1.2-1.22-1.8-1.82-.17-.17-.38-.17-.54,0-.15,.15-.15,.37,.02,.54,.26,.26,.52,.52,.78,.78,.21,.21,.24,.32,.11,.45-.11,.12-.26,.08-.45-.11-.38-.38-.76-.76-1.13-1.14-.12-.12-.25-.14-.4-.09-.15,.05-.23,.16-.24,.31-.02,.14,.05,.25,.15,.35,.39,.39,.78,.78,1.17,1.18,.07,.07,.12,.14,.08,.25-.03,.09-.1,.15-.19,.17-.12,.03-.19-.04-.26-.12-.38-.38-.76-.77-1.15-1.15-.19-.18-.42-.2-.57-.04-.16,.15-.14,.39,.04,.57,.35,.35,.7,.7,1.05,1.05,.04,.04,.07,.07,.1,.11,.07,.11,.07,.22-.02,.31-.1,.1-.21,.1-.33,.01-.04-.04-.08-.08-.12-.12-.96-.96-1.93-1.93-2.89-2.89-.25-.25-.46-.28-.64-.1-.18,.18-.14,.39,.11,.64,1.19,1.19,2.38,2.38,3.57,3.57,.11,.11,.24,.21,.13,.39-.1,.16-.25,.11-.39,.08-.4-.1-.8-.19-1.2-.29-.26-.06-.48,.05-.54,.26-.07,.23,.05,.43,.32,.52,.72,.26,1.44,.51,2.17,.76,.48,.17,.96,.21,1.46,.12,1.34-.24,2.29-1.37,2.29-2.84Zm-7.65,2.37c0-.15-.09-.24-.24-.24-.14,0-.23,.08-.23,.22,0,.15,.08,.23,.21,.25,.15,0,.26-.1,.26-.24Z"/>
</svg>