<?xml version="1.0" encoding="UTF-8"?>
<svg id="Layer_1" data-name="Layer 1" xmlns="http://www.w3.org/2000/svg" viewBox="0 0 14 14">
  <defs>
    <style>
      .cls-1 {
        fill: #393939;
      }

      .cls-2 {
        fill: none;
      }
    </style>
  </defs>
  <rect class="cls-2" width="14" height="14"/>
  <path class="cls-1" d="M13.59,2.31c0-.37-.06-.43-.43-.43-2.05,0-4.11,0-6.16,0-2.07,0-4.14,0-6.2,0-.36,0-.41,.05-.41,.4,0,3.16,0,6.32,0,9.48,0,.38,.05,.43,.43,.43,4.11,0,8.21,0,12.32,0,.39,0,.45-.06,.45-.46,0-3.14,0-6.27,0-9.41Zm-.52,9.14c0,.17-.05,.21-.22,.21-3.91,0-7.81,0-11.72,0-.18,0-.23-.04-.23-.23,0-2.38,0-4.76,0-7.14,0-.18,.06-.21,.22-.21,1.95,0,3.9,0,5.85,0s3.91,0,5.87,0c.18,0,.23,.04,.23,.22,0,2.38,0,4.76,0,7.14Zm0-8.83c-.02,.25-.02,.5,0,.75,0,.16-.03,.21-.2,.21-1.09,0-2.18,0-3.28,0h-2.59c-1.93,0-3.87,0-5.8,0q-.29,0-.29-.3c0-.25,0-.5,0-.75,0-.1,.03-.15,.14-.14,.04,0,.07,0,.11,0,3.89,0,7.78,0,11.68,0,.19,0,.26,.04,.24,.24ZM3.26,8.58c-.34,0-.67,0-1.01,0-.17,0-.31-.05-.32-.25,0-.2,.14-.27,.3-.27,.69,0,1.38,0,2.07,0,.17,0,.31,.09,.3,.28,0,.17-.13,.25-.31,.24-.34,0-.69,0-1.03,0Zm7.43,0c-.33,0-.66,0-.99,0-.18,0-.31-.05-.33-.25-.02-.16,.11-.27,.32-.28,.67,0,1.35,0,2.02,0,.21,0,.35,.12,.33,.27-.02,.2-.16,.25-.35,.25-.34,0-.67,0-1.01,0Zm-3.71,0c-.34,0-.67,0-1.01,0-.18,0-.31-.07-.32-.25,0-.19,.13-.27,.3-.27,.69,0,1.38,0,2.07,0,.17,0,.31,.07,.3,.27-.01,.2-.15,.25-.32,.25-.34,0-.67,0-1.01,0Zm3.72,.52c.34,0,.69,0,1.03,0,.17,0,.29,.07,.3,.24,0,.18-.12,.27-.28,.28-.7,0-1.41,0-2.11,0-.16,0-.29-.09-.28-.27,0-.18,.13-.25,.3-.25,.34,0,.69,0,1.03,0Zm0,1.55c-.33,0-.66,0-.99,0-.18,0-.33-.04-.35-.25-.02-.16,.11-.27,.33-.27,.67,0,1.35,0,2.02,0,.22,0,.35,.11,.33,.27-.03,.2-.17,.25-.35,.25-.33,0-.66,0-.99,0Zm-7.44-1.55c.34,0,.67,0,1.01,0,.18,0,.31,.07,.32,.25,0,.19-.14,.27-.31,.27-.68,0-1.36,0-2.05,0-.22,0-.33-.11-.31-.28,.02-.2,.16-.24,.33-.24,.34,0,.67,0,1.01,0Zm3.74,0c.33,0,.66,0,.99,0,.18,0,.31,.05,.31,.25,0,.2-.14,.27-.3,.27-.68,0-1.36,0-2.04,0-.21,0-.34-.13-.32-.28,.03-.19,.16-.24,.33-.24,.34,0,.69,0,1.03,0Zm-3.77,1.55c-.33,0-.66,0-.99,0-.17,0-.31-.05-.32-.25,0-.2,.13-.27,.3-.27,.69,0,1.38,0,2.07,0,.17,0,.31,.08,.3,.27-.01,.18-.15,.25-.33,.25-.34,0-.69,0-1.03,0Zm3.73,0c-.34,0-.67,0-1.01,0-.18,0-.31-.08-.31-.26,0-.18,.13-.25,.3-.25,.7,0,1.39,0,2.09,0,.16,0,.29,.07,.28,.26,0,.2-.14,.25-.31,.25-.34,0-.69,0-1.03,0ZM3.77,3.26c-.32,0-.64,0-.97,0-.18,0-.3-.07-.33-.25-.02-.16,.11-.27,.33-.27,.64,0,1.27,0,1.91,0,.22,0,.34,.1,.34,.26,0,.16-.13,.26-.34,.26-.31,0-.63,0-.94,0Zm-2.07-.51c.16,0,.26,.1,.26,.24,0,.15-.09,.27-.25,.26-.16,0-.26-.1-.25-.26,0-.15,.1-.23,.24-.24Zm5.3,2.36c-.68,0-1.24,.56-1.23,1.25,0,.68,.55,1.23,1.22,1.24,.67,0,1.24-.57,1.24-1.25,0-.67-.56-1.23-1.23-1.24Zm0,1.97c-.39,0-.72-.33-.72-.73,0-.39,.31-.71,.7-.72,.4,0,.72,.32,.72,.72,0,.39-.31,.72-.7,.72Zm-3.73-1.97c-.67,0-1.25,.58-1.24,1.25,0,.67,.56,1.23,1.23,1.24,.68,0,1.24-.56,1.24-1.25,0-.68-.55-1.23-1.22-1.24Zm0,1.97c-.39,0-.72-.33-.72-.73,0-.39,.32-.71,.71-.72,.39,0,.74,.34,.73,.72,0,.38-.34,.72-.72,.72Zm7.43-1.97c-.68,.03-1.22,.49-1.22,1.23,0,.73,.53,1.23,1.23,1.25,.67,.02,1.24-.57,1.24-1.24,0-.67-.58-1.26-1.25-1.23Zm0,1.96c-.38-.01-.71-.35-.71-.73,0-.39,.35-.72,.74-.72,.38,0,.71,.34,.71,.72,0,.39-.36,.73-.74,.72Z"/>
</svg>