<?xml version="1.0" encoding="UTF-8"?>
<svg id="Layer_1" data-name="Layer 1" xmlns="http://www.w3.org/2000/svg" viewBox="0 0 14 14">
  <defs>
    <style>
      .cls-1 {
        fill: #393939;
      }

      .cls-2 {
        fill: none;
      }
    </style>
  </defs>
  <rect class="cls-2" width="14" height="14"/>
  <path class="cls-1" d="M10.71,6.05s-.08-.02-.12-.02c-.13,.02-.16-.04-.16-.16,0-.99,0-1.97,0-2.96,0-.13,.03-.18,.17-.17,.4,0,.81,0,1.21,0,.18,0,.26-.08,.26-.26,0-.21,0-.41,0-.62,0-.77-.41-1.18-1.17-1.18-2.64,0-5.28,0-7.91,0-.8,0-1.2,.4-1.2,1.2,0,1.77,0,3.55,0,5.32,0,1.82,0,3.65,0,5.47,0,.31,.04,.35,.34,.35,2.65,0,5.3,0,7.95,0,.3,0,.34-.04,.34-.34,0-.96,0-1.92,0-2.88,0-.13,.04-.23,.14-.32,.41-.4,.81-.8,1.21-1.2,.26-.26,.36-.58,.27-.94-.09-.39-.94-1.2-1.34-1.28Zm-.27-4.37c.02-.33,.29-.58,.61-.58,.32,0,.58,.25,.61,.58q.07,.65-.62,.65c-.16,0-.33,0-.49,0-.09,0-.12-.03-.11-.12,0-.18,0-.36,0-.53Zm-.54,10.93c-.29,0-.58,0-.86,0-2.2,0-4.4,0-6.6,0-.17,0-.23-.02-.23-.22,0-3.52,0-7.03,0-10.55,0-.52,.23-.75,.75-.75,2.34,0,4.69,0,7.03,0h.22c-.28,.43-.19,.9-.19,1.35,0,1.19,0,2.37,0,3.56,0,.12-.04,.19-.12,.28-1.02,1.01-2.04,2.03-3.05,3.05-.27,.27-.39,.62-.49,.98-.12,.44-.24,.89-.35,1.33-.03,.1-.07,.14-.18,.14-.71,0-1.41,0-2.12,0-.14,0-.25-.05-.25-.2,0-.16,.11-.21,.25-.2,.68,.04,.55-.09,.56-.6,0-.16,0-.32,0-.47,0-.12,.03-.17,.16-.16,.14,.01,.29,0,.43,0,.15,0,.23-.08,.23-.23,0-.53,0-1.07,0-1.6,0-.15-.09-.22-.24-.23-.12,0-.25-.02-.37,0-.19,.03-.23-.06-.22-.23,.02-.19-.06-.43,.04-.56,.09-.12,.35-.03,.53-.04,.17,0,.26-.08,.26-.25,0-.02,0-.04,0-.06,.02-.17-.07-.44,.04-.48,.21-.08,.47-.03,.71-.03,.08,0,.07,.07,.07,.12,0,.15,0,.3,0,.45,0,.15,.07,.25,.24,.25,.53,0,1.06,0,1.58,0,.16,0,.24-.08,.24-.24,0-.52,0-1.04,0-1.56,0-.18-.1-.26-.27-.26-.51,0-1.01,0-1.52,0-.18,0-.27,.08-.27,.26,0,.03,0,.07,0,.1q0,.46-.47,.46t-.35-.36c0-.07,0-.14,0-.21,0-.18-.09-.27-.27-.26,0,0-.01,0-.02,0-.18-.01-.47,.07-.5-.03-.08-.21-.03-.47-.03-.71,0-.08,.06-.08,.12-.08,.15,0,.3,0,.45,0,.16,0,.25-.07,.25-.23,0-.53,0-1.06,0-1.58,0-.17-.09-.25-.26-.25-.51,0-1.03,0-1.54,0-.17,0-.26,.08-.26,.25,0,.52,0,1.04,0,1.56,0,.17,.09,.25,.26,.24,.03,0,.07,0,.1,0q.46,0,.46,.47,0,.35-.36,.35c-.06,0-.12,0-.19,0-.19,0-.28,.08-.28,.27,0,.51,0,1.03,0,1.54,0,.17,.08,.25,.25,.25,.14,0,.29,0,.43,0,.11,0,.15,.04,.14,.14,0,.01,0,.03,0,.04,0,.2,.07,.44-.02,.58-.1,.15-.36,.04-.55,.05-.16,.01-.24,.09-.24,.24,0,.53,0,1.06,0,1.58,0,.16,.09,.24,.25,.23,.14,0,.27,0,.41,0,.12,0,.18,.03,.17,.16-.01,.15-.01,.3,0,.45,.02,.16-.03,.23-.21,.22-.25,0-.45,.12-.56,.35-.1,.21-.09,.42,.04,.61,.12,.18,.29,.27,.5,.27,.82,0,1.63,0,2.45,0,.26,0,.5-.12,.75-.18,.38-.1,.75-.21,1.13-.31,.35-.09,.65-.27,.91-.53,.36-.37,.73-.74,1.09-1.11,.02,0,.03,.02,.05,.03,0,.8,0,1.6,0,2.4,0,.1-.04,.11-.12,.11Zm-3.15-1.92s-.05-.07-.03-.11c.07-.25,.12-.51,.26-.73,.05-.08,.09-.11,.17-.03,.38,.38,.76,.76,1.14,1.15,.02,.02,.04,.05,.06,.07,0,.06-.05,.07-.08,.09-.23,.15-.5,.19-.75,.27-.05,.01-.08-.01-.11-.04-.22-.22-.44-.45-.67-.67Zm.2,.85c-.12,.07-.28,.08-.44,.13-.09,.03-.09-.02-.08-.09,.04-.15,.09-.3,.13-.44,.13,.14,.26,.27,.38,.4Zm1.33-1.39s-.07,.06-.13,.11c-.09-.1-.19-.19-.26-.3-.05-.08,.05-.11,.09-.16,.6-.61,1.21-1.21,1.81-1.82,.12-.13,.19-.08,.27,.02,.07,.09,.24,.13,.07,.3-.62,.61-1.23,1.23-1.85,1.84Zm1.23-2.46c-.61,.62-1.23,1.23-1.84,1.85-.09,.09-.14,.09-.23,0-.09-.09-.08-.14,0-.23,.62-.61,1.23-1.23,1.85-1.84,.04-.04,.07-.12,.15-.07,.07,.04,.12,.1,.19,.16-.06,.06-.09,.1-.12,.13Zm-6.06,1.42c0-.16,0-.32,0-.47,0-.11,.04-.14,.14-.14,.32,0,.63,0,.95,0,.11,0,.14,.03,.14,.14,0,.32,0,.64,0,.97,0,.12-.05,.13-.15,.13-.16,0-.32,0-.47,0,0,0,0-.01,0-.02-.2,0-.47,.08-.57-.02-.13-.11-.03-.39-.04-.59Zm0-3.36c0-.1,.03-.13,.13-.13,.32,0,.64,0,.97,0,.11,0,.14,.04,.14,.15,0,.16,0,.32,0,.47,0,0,0,0-.01,0,0,.2,.08,.47-.02,.58-.11,.13-.39,.03-.59,.04-.16,0-.33,0-.49,0-.09,0-.12-.03-.12-.12,0-.33,0-.66,0-.99Zm0-2.87c0-.11,.04-.14,.14-.14,.32,0,.63,0,.95,0,.11,0,.15,.03,.14,.14,0,.17,0,.34,0,.55-.02,.16,.08,.41-.04,.52-.11,.09-.35,.03-.54,.03-.17,0-.34,0-.51,0-.1,0-.15-.02-.14-.13,0-.32,0-.64,0-.97Zm2.88,3.38c0-.17,0-.34,0-.51,0-.09,.03-.12,.12-.12,.33,0,.66,0,.99,0,.09,0,.12,.02,.12,.12,0,.34,0,.67,0,1.01,0,.1-.04,.11-.12,.11-.33,0-.66,0-.99,0-.1,0-.13-.03-.12-.13,0-.16,0-.32,0-.47Zm4.34,2.55c-.62,.63-1.25,1.25-1.87,1.88-.09,.09-.14,.08-.21,0-.07-.07-.12-.11-.02-.21,.63-.62,1.25-1.25,1.88-1.87,.03-.03,.06-.11,.13-.06,.07,.04,.13,.1,.2,.16-.05,.06-.07,.09-.1,.12Zm.42-.43c-.06,.04-.09-.02-.12-.04-.17-.17-.34-.34-.51-.51-.23-.23-.45-.45-.68-.68-.04-.04-.09-.07-.03-.13,.06-.07,.1-.03,.15,.02,.4,.4,.79,.79,1.19,1.19,.02,.02,.04,.05,.07,.08-.03,.03-.05,.06-.07,.08Zm.55-.64c-.07,.25-.16,.28-.34,.1-.36-.36-.71-.72-1.07-1.07-.11-.11-.08-.16,.03-.23,.2-.13,.45-.13,.64,.05,.22,.2,.43,.42,.64,.64,.1,.1,.13,.22,.14,.38,0,.03-.01,.09-.03,.14ZM7.53,3.56c-.44,0-.89,0-1.33,0-.15,0-.29-.02-.28-.21,0-.17,.13-.2,.27-.2,.91,0,1.82,0,2.73,0,.15,0,.27,.04,.27,.21,0,.17-.12,.21-.26,.21-.47,0-.93,0-1.4,0Zm.03,.82c-.46,0-.92,0-1.37,0-.15,0-.27-.03-.27-.2,0-.17,.12-.21,.27-.21,.92,0,1.83,0,2.75,0,.15,0,.27,.05,.26,.22,0,.17-.13,.2-.28,.2-.45,0-.9,0-1.35,0Zm-.63-1.65c-.13,0-.26,0-.39,0-.13,0-.21-.06-.22-.19,0-.13,.07-.21,.2-.22,.28,0,.56,0,.84,0,.12,0,.2,.09,.19,.22,0,.12-.09,.18-.21,.18-.14,0-.27,0-.41,0Zm1.63,0c-.13,0-.26,0-.39,0-.13,0-.21-.07-.21-.2,0-.13,.08-.2,.21-.21,.27,0,.55,0,.82,0,.13,0,.2,.09,.2,.21,0,.13-.09,.19-.22,.19-.14,0-.27,0-.41,0Z"/>
</svg>