<?xml version="1.0" encoding="UTF-8"?>
<svg id="Layer_1" data-name="Layer 1" xmlns="http://www.w3.org/2000/svg" viewBox="0 0 14 14">
  <defs>
    <style>
      .cls-1 {
        fill: #393939;
      }

      .cls-2 {
        fill: none;
      }
    </style>
  </defs>
  <rect class="cls-2" width="14" height="14"/>
  <path class="cls-1" d="M13.36,7.55c-.08-.49-.5-.75-1.11-.74-.18,0-.24-.04-.23-.23,.02-.6-.04-1.19-.22-1.76-.64-2.07-2.05-3.25-4.19-3.53-1.57-.2-2.97,.22-4.13,1.31-1.1,1.04-1.53,2.37-1.55,3.86,0,.34,0,.34-.33,.34-.63,.01-1.04,.43-1.04,1.06,0,.37,0,.73,0,1.1,0,.44,.25,.79,.65,.93,.18,.06,.36,.07,.54,.06,.14-.01,.19,.03,.18,.18-.01,.27,0,.55,0,.82,0,.83,.49,1.32,1.32,1.33,.57,0,1.15,0,1.72,0,.12,0,.21,.02,.28,.14,.13,.23,.34,.34,.61,.34,.31,0,.61,0,.92,0,.43,0,.7-.29,.7-.7,0-.42-.27-.71-.69-.72-.3,0-.6,0-.89,0-.29,0-.52,.11-.67,.37-.03,.06-.06,.12-.15,.12-.69-.01-1.37,.03-2.06-.02-.33-.03-.58-.29-.62-.61-.02-.19,0-.39,0-.6,.09,.03,.15,.05,.22,.07,.66,.22,1.34-.25,1.34-.95,0-.89,0-1.77,0-2.66,0-.49-.33-.88-.81-.97-.25-.05-.5,0-.76,.12,.1-1.72,.82-3.05,2.3-3.89,1.67-.95,3.35-.85,4.94,.22,1.38,.93,1.99,2.61,1.9,3.66-.04-.02-.07-.03-.11-.05-.68-.26-1.41,.18-1.42,.89-.01,.9,0,1.8,0,2.7,0,.44,.33,.83,.76,.95,.42,.11,.9-.06,1.1-.45,.12-.23,.26-.28,.49-.27,.52,0,.92-.27,.99-.73,.08-.55,.09-1.11,0-1.66ZM1.78,9.5c-.57,0-.74-.16-.74-.72,0-.3,0-.59,0-.89,0-.46,.4-.74,.83-.61,.1,.03,.07,.1,.07,.16,0,.32,0,.64,0,.96,0,.31,0,.61,0,.92,0,.13-.02,.19-.17,.19Zm4.08,2.3c.31,0,.63,0,.94,0,.17,0,.25,.1,.24,.27,0,.16-.1,.23-.25,.23-.15,0-.31,0-.46,0-.15,0-.31,0-.46,0-.15,0-.24-.09-.25-.24,0-.15,.08-.25,.24-.25ZM2.41,7.09c0-.35,.22-.56,.55-.56,.33,0,.54,.22,.55,.57,0,.43,0,.87,0,1.3,0,.43,0,.85,0,1.28,0,.36-.2,.56-.55,.56-.35,0-.55-.2-.55-.56,0-.86,0-1.72,0-2.59Zm9.16,2.59c0,.36-.2,.56-.54,.56-.34,0-.55-.21-.55-.56,0-.86,0-1.72,0-2.59,0-.34,.22-.56,.55-.57,.33,0,.54,.21,.55,.57,0,.43,0,.87,0,1.3,0,.43,0,.85,0,1.28Zm1.37-.78c0,.46-.4,.74-.84,.6-.1-.03-.07-.1-.07-.17,0-.31,0-.63,0-.94,0-.31,0-.63,0-.94,0-.14,.04-.18,.18-.18,.54-.01,.73,.17,.73,.71,0,.31,0,.61,0,.92ZM7.75,4.43c-.9-.32-1.9-.04-2.49,.72-.59,.75-.64,1.81-.07,2.57,.22,.29,.3,.56,.27,.9,0,.04,0,.08,0,.11,0,.18,0,.35,0,.53,0,.12,0,.24,.14,.28,.12,.04,.22,0,.31-.09,.21-.22,.44-.43,.65-.65,.09-.1,.18-.14,.32-.13,.24,.03,.47,0,.7-.07,.9-.25,1.57-1.07,1.6-1.98,.04-.99-.53-1.87-1.44-2.2Zm.74,2.94c-.37,.63-.95,.91-1.68,.84-.21-.02-.35,.03-.48,.18-.11,.13-.22,.25-.33,.38-.03-.01-.05-.03-.08-.04,0-.19,0-.38,0-.57,.01-.2-.05-.34-.19-.49-.69-.71-.61-1.9,.16-2.52,.77-.62,2-.46,2.53,.36,.39,.6,.43,1.24,.07,1.86Zm-.44-.79c0,.1-.08,.19-.21,.2-.15,0-.25-.08-.25-.23,0-.15,.1-.24,.24-.24,.14,0,.22,.09,.22,.28Zm-1.64-.04c-.02,.15-.1,.23-.24,.23-.15,0-.24-.09-.23-.25,0-.14,.09-.23,.23-.23,.15,0,.23,.1,.24,.24Zm.82-.02c0,.16-.08,.25-.22,.25-.15,0-.25-.08-.25-.24,0-.15,.09-.24,.24-.24,.14,0,.21,.09,.22,.22Z"/>
</svg>