<svg id="Layer_1" data-name="Layer 1" xmlns="http://www.w3.org/2000/svg" viewBox="0 0 14 14"><defs><style>.cls-1{fill:none;}.cls-2{fill:#393939;}</style></defs><title>pms bell new</title><rect class="cls-1" width="14" height="14"/><path class="cls-2" d="M2.41,2.66v0a2,2,0,0,0-.31.41,6.23,6.23,0,0,0-.41.71.63.63,0,0,0-.14.27s0,0,0,0a.19.19,0,0,0-.05.1l0,0a2.41,2.41,0,0,0-.08.25c-.07.15-.07.32-.15.47a6.16,6.16,0,0,0-.17,1.28.4.4,0,0,1,0,.22.27.27,0,0,1-.33.12.32.32,0,0,1-.19-.31c0-.21,0-.41.05-.61s0-.3.07-.45a8.52,8.52,0,0,1,.22-.87,7.81,7.81,0,0,1,.49-1.11c.19-.31.39-.61.61-.9,0,0,.06-.07.08-.11s0,0,0,0l.28-.3a3.83,3.83,0,0,0,.29-.28h0c0-.05.09-.06.12-.11h0l.17-.13A.86.86,0,0,0,3,1.25,4.62,4.62,0,0,1,3.59.9.28.28,0,0,1,4,.93S4,1,4,1a.31.31,0,0,1-.14.44,1.37,1.37,0,0,0-.2.13c-.07.07-.16.11-.22.18a3.38,3.38,0,0,0-.55.45c-.1.11-.21.21-.31.33S2.46,2.6,2.41,2.66Zm8.67-1.31a2.78,2.78,0,0,1-.27-.21c-.14-.07-.26-.16-.39-.23a.28.28,0,0,0-.4,0,.3.3,0,0,0,0,.35s0,0,0,0l.15.12a3.05,3.05,0,0,1,.32.22l.2.14.15.12a3.17,3.17,0,0,1,.49.48h0l.08.08a1.31,1.31,0,0,0,.12.11,5.66,5.66,0,0,1,.85,1.31,5.92,5.92,0,0,1,.55,2.38c0,.26.18.37.42.26a.37.37,0,0,0,.12-.3,2.43,2.43,0,0,0,0-.38c0-.18,0-.35,0-.53s-.08-.39-.13-.58-.08-.3-.11-.45a.65.65,0,0,0,0-.13,6.08,6.08,0,0,0-.76-1.45c-.09-.1-.15-.22-.23-.32S12,2.29,12,2.22l-.09-.09a2.83,2.83,0,0,1-.24-.25h0a3.47,3.47,0,0,0-.34-.32l-.06-.06Zm-7.93,2c-.08.08-.13.18-.21.26s-.2.3-.29.46-.09.21-.15.31a4.73,4.73,0,0,0-.41,1.81.28.28,0,0,0,0,.09.29.29,0,0,0,.23.31c.14,0,.23,0,.31-.21a.07.07,0,0,0,0,0,1.46,1.46,0,0,1,0-.29V6a.78.78,0,0,1,0-.16,2.57,2.57,0,0,1,.08-.47.86.86,0,0,0,.06-.23,2.1,2.1,0,0,1,.22-.59l.07-.15,0,0a3.39,3.39,0,0,1,.65-.9c.06,0,.09-.09.15-.13l.25-.22a.41.41,0,0,1,.22-.17c.13-.09.26-.18.4-.26S5,2.46,5,2.32a.29.29,0,0,0-.29-.18h0l-.11.05,0,0c-.12.07-.23.15-.35.21a2.42,2.42,0,0,0-.36.27l-.1.09c-.09.1-.2.19-.29.29s-.1.07-.13.13v0ZM11.65,11c0,.24-.11.34-.34.34H2.68A.28.28,0,0,1,2.36,11c0-.27,0-.53,0-.8a.28.28,0,0,1,.31-.31A.7.7,0,0,0,3,9.83a1.11,1.11,0,0,0,.73-.73,1.33,1.33,0,0,0,.07-.56c0-.65,0-1.3,0-1.94a3.71,3.71,0,0,1,.15-1.15c0-.1,0-.18.07-.26A3.23,3.23,0,0,1,4.87,4a3.11,3.11,0,0,1,.82-.53c.06,0,.14,0,.21-.08a2.66,2.66,0,0,1,1-.19,3.33,3.33,0,0,1,1.66.39,1.17,1.17,0,0,1,.31.17l.1.06.35.29a3.58,3.58,0,0,1,.69,1,4.56,4.56,0,0,1,.18.52,5.23,5.23,0,0,0,.07.68v1c0,.5,0,1,0,1.51a.3.3,0,0,0,.06.24.76.76,0,0,0,.17.32.76.76,0,0,0,.4.35.79.79,0,0,0,.47.14.3.3,0,0,1,.26.11A3.79,3.79,0,0,1,11.65,11Zm-.72-.62-.16,0a1.18,1.18,0,0,1-.45-.28.38.38,0,0,0-.12-.1l-.12-.14L10,9.66a1.91,1.91,0,0,1-.16-.32,2,2,0,0,1-.07-.23,2.5,2.5,0,0,1-.07-.54V6.07a2.79,2.79,0,0,0-.45-1.18.22.22,0,0,0-.05-.08A.9.9,0,0,1,9,4.63a3.08,3.08,0,0,0-.47-.42,2.69,2.69,0,0,0-1.22-.47H6.66a3.75,3.75,0,0,0-.58.13H6a3.1,3.1,0,0,0-.7.42c-.07,0-.13.11-.2.15A.44.44,0,0,0,5,4.64l0,0A3.18,3.18,0,0,0,4.68,5a3.16,3.16,0,0,0-.27.66,2.07,2.07,0,0,0-.1.66c0,.75,0,1.49,0,2.24a1.86,1.86,0,0,1-.1.66,1,1,0,0,1-.16.38c-.06,0-.09.14-.16.2L3.7,10a2.34,2.34,0,0,1-.39.25,1.29,1.29,0,0,1-.26.08c-.16,0-.19.11-.16.33s.12.1.19.1H11a.06.06,0,0,0,.06,0A.27.27,0,0,0,10.93,10.36Zm.46-4.09c0,.23.11.31.34.25h.1a.64.64,0,0,0,.06-.31,5.65,5.65,0,0,0-.12-.92l0-.06c0-.1-.05-.19-.08-.29a2.53,2.53,0,0,0-.26-.64v0a2.65,2.65,0,0,0-.29-.52A.41.41,0,0,0,11,3.58a1,1,0,0,0-.17-.23c-.12-.18-.29-.32-.43-.49A3.17,3.17,0,0,1,10,2.57a5.94,5.94,0,0,0-.59-.38.27.27,0,0,0-.4.2c0,.08,0,.14,0,.21l.2.14A1.55,1.55,0,0,1,9.73,3a2.78,2.78,0,0,1,.34.26s.06,0,.09.06a3.48,3.48,0,0,1,.63.8,2.65,2.65,0,0,1,.35.81,1.47,1.47,0,0,1,.14.4A5.65,5.65,0,0,1,11.39,6.27ZM6.13,12.13s0-.08-.06-.11h0c0-.06,0-.14-.12-.17l0,0a.3.3,0,0,0-.26,0h0l-.08.09h0a.41.41,0,0,0,0,.29h0c0,.1.1.19.14.29a1.44,1.44,0,0,0,.49.46,1.85,1.85,0,0,0,.9.22c.13,0,.24-.07.37-.08s.2-.09.31-.12.08-.08.14-.08a2,2,0,0,0,.48-.63.27.27,0,0,0-.23-.39l-.14,0a.69.69,0,0,0-.16.22.47.47,0,0,1-.16.21,1,1,0,0,1-1.17.2.09.09,0,0,1-.08,0A.77.77,0,0,1,6.13,12.13Z" transform="translate(0 0)"/></svg>