<svg xmlns="http://www.w3.org/2000/svg" xmlns:xlink="http://www.w3.org/1999/xlink" width="800" zoomAndPan="magnify" viewBox="0 0 600 299.999988" height="400" preserveAspectRatio="xMidYMid meet" version="1.0"><defs><clipPath id="9462b7732a"><path d="M 56 83.453125 L 175 83.453125 L 175 161 L 56 161 Z M 56 83.453125 " clip-rule="nonzero"/></clipPath><clipPath id="161068f19b"><path d="M 24.441406 138 L 91 138 L 91 161 L 24.441406 161 Z M 24.441406 138 " clip-rule="nonzero"/></clipPath><clipPath id="8a6fc6525e"><path d="M 541 137 L 575.691406 137 L 575.691406 177 L 541 177 Z M 541 137 " clip-rule="nonzero"/></clipPath></defs><g clip-path="url(#9462b7732a)"><path fill="#059b9a" d="M 174.089844 149.503906 C 174.074219 143.339844 169.050781 138.355469 162.871094 138.375 L 129.386719 138.464844 C 127.242188 138.472656 125.15625 137.367188 124.007812 135.382812 C 122.859375 133.402344 122.929688 131.046875 124.003906 129.195312 L 140.746094 100.277344 C 143.835938 94.941406 142.003906 88.113281 136.652344 85.035156 C 131.300781 81.953125 124.457031 83.78125 121.367188 89.117188 L 104.625 118.039062 C 103.550781 119.890625 101.546875 121.132812 99.25 121.128906 C 96.953125 121.125 94.949219 119.878906 93.882812 118.027344 L 77.21875 89.0625 C 74.148438 83.710938 67.308594 81.871094 61.945312 84.9375 C 56.589844 88.003906 54.738281 94.824219 57.808594 100.167969 L 76.964844 133.457031 L 79.910156 133.445312 L 100.050781 133.394531 C 100.5625 133.394531 101.074219 133.441406 101.582031 133.492188 C 102.023438 133.542969 102.460938 133.613281 102.898438 133.695312 C 104.511719 134.003906 106.074219 134.550781 107.507812 135.375 C 108.941406 136.199219 110.195312 137.277344 111.269531 138.515625 C 111.269531 138.515625 111.835938 139.191406 112.101562 139.542969 C 112.402344 139.960938 115.105469 144.5625 115.105469 144.5625 L 122.980469 158.242188 L 124.441406 160.792969 L 162.929688 160.6875 C 169.109375 160.671875 174.105469 155.664062 174.089844 149.503906 " fill-opacity="1" fill-rule="nonzero"/></g><path fill="#2ed9cc" d="M 107.277344 155.035156 C 109.941406 150.4375 108.355469 144.535156 103.738281 141.878906 C 99.125 139.222656 93.207031 140.800781 90.542969 145.402344 C 87.878906 150.003906 89.464844 155.910156 94.078125 158.5625 C 98.691406 161.21875 104.613281 159.636719 107.277344 155.035156 " fill-opacity="1" fill-rule="nonzero"/><path fill="#2ed9cc" d="M 91.167969 168.105469 C 90.769531 167.410156 90.214844 166.855469 89.515625 166.453125 C 88.816406 166.050781 88.054688 165.851562 87.25 165.851562 L 76.929688 165.878906 L 57.789062 198.933594 C 54.703125 204.261719 56.527344 211.074219 61.859375 214.160156 L 61.90625 214.1875 C 67.253906 217.25 74.082031 215.417969 77.167969 210.089844 L 96.308594 177.035156 Z M 91.167969 168.105469 " fill-opacity="1" fill-rule="nonzero"/><path fill="#2ed9cc" d="M 140.722656 199.046875 L 118.613281 160.617188 L 113.632812 151.960938 C 113.402344 153.898438 112.792969 155.816406 111.753906 157.609375 C 108.296875 163.582031 101.261719 166.222656 94.890625 164.433594 C 95.171875 164.785156 95.425781 165.15625 95.648438 165.542969 L 121.316406 210.148438 C 122.332031 211.921875 123.761719 213.304688 125.414062 214.253906 C 128.753906 216.179688 133 216.328125 136.585938 214.273438 C 141.949219 211.210938 143.796875 204.390625 140.722656 199.046875 " fill-opacity="1" fill-rule="nonzero"/><g clip-path="url(#161068f19b)"><path fill="#2ed9cc" d="M 86.078125 142.824219 C 87.113281 141.035156 88.472656 139.546875 90.039062 138.378906 L 80.03125 138.40625 L 35.605469 138.527344 C 29.425781 138.542969 24.429688 143.550781 24.445312 149.714844 C 24.457031 153.835938 26.710938 157.429688 30.050781 159.351562 C 31.699219 160.304688 33.617188 160.84375 35.667969 160.839844 L 87.238281 160.703125 C 87.683594 160.703125 88.132812 160.734375 88.582031 160.800781 C 83.839844 156.191406 82.617188 148.796875 86.078125 142.824219 " fill-opacity="1" fill-rule="nonzero"/></g><path fill="#006e6d" d="M 183.007812 137.777344 L 189.628906 137.777344 L 189.628906 175.914062 L 183.007812 175.914062 Z M 183.007812 137.777344 " fill-opacity="1" fill-rule="evenodd"/><path fill="#006e6d" d="M 190.386719 130.753906 C 190.386719 133.015625 188.550781 134.851562 186.277344 134.851562 C 184.011719 134.851562 182.167969 133.015625 182.167969 130.753906 C 182.167969 128.492188 184.011719 126.660156 186.277344 126.660156 C 188.550781 126.660156 190.386719 128.492188 190.386719 130.753906 " fill-opacity="1" fill-rule="nonzero"/><path fill="#006e6d" d="M 228.328125 150.015625 C 228.328125 148.851562 227.988281 147.859375 227.316406 147.039062 C 226.648438 146.21875 225.800781 145.550781 224.785156 145.027344 C 223.769531 144.511719 222.65625 144.148438 221.441406 143.933594 C 220.230469 143.714844 219.105469 143.609375 218.066406 143.609375 C 216.984375 143.609375 215.847656 143.714844 214.660156 143.933594 C 213.464844 144.148438 212.371094 144.511719 211.378906 145.027344 C 210.382812 145.550781 209.558594 146.21875 208.914062 147.039062 C 208.265625 147.859375 207.9375 148.851562 207.9375 150.015625 L 207.9375 175.914062 L 201.316406 175.914062 L 201.316406 150.015625 C 201.316406 147.941406 201.746094 146.101562 202.617188 144.480469 C 203.480469 142.859375 204.675781 141.503906 206.195312 140.402344 C 207.710938 139.300781 209.492188 138.46875 211.527344 137.90625 C 213.5625 137.347656 215.757812 137.070312 218.101562 137.070312 C 220.484375 137.070312 222.707031 137.359375 224.765625 137.941406 C 226.828125 138.523438 228.605469 139.367188 230.097656 140.46875 C 231.597656 141.566406 232.777344 142.914062 233.644531 144.511719 C 234.511719 146.109375 234.945312 147.941406 234.945312 150.015625 L 234.945312 175.914062 L 228.328125 175.914062 Z M 228.328125 150.015625 " fill-opacity="1" fill-rule="nonzero"/><path fill="#006e6d" d="M 265.136719 169.371094 L 271.953125 169.371094 L 271.953125 175.914062 L 265.136719 175.914062 C 262.714844 175.914062 260.515625 175.632812 258.546875 175.070312 C 256.578125 174.507812 254.886719 173.6875 253.480469 172.609375 C 252.074219 171.53125 250.992188 170.203125 250.238281 168.628906 C 249.476562 167.054688 249.101562 165.25 249.101562 163.222656 L 249.101562 143.410156 L 243.972656 143.410156 L 243.972656 137.90625 L 249.101562 137.90625 L 249.101562 132.210938 L 255.722656 132.210938 L 255.722656 137.90625 L 266.046875 137.90625 L 266.046875 143.410156 L 255.722656 143.410156 L 255.722656 163.222656 C 255.722656 165.164062 256.578125 166.675781 258.285156 167.753906 C 259.996094 168.835938 262.28125 169.371094 265.136719 169.371094 " fill-opacity="1" fill-rule="nonzero"/><path fill="#006e6d" d="M 285.066406 150.078125 L 285.066406 153.441406 L 305.324219 153.441406 L 305.324219 150.078125 C 305.324219 149 305.050781 148.050781 304.515625 147.230469 C 303.96875 146.414062 303.234375 145.734375 302.304688 145.191406 C 301.375 144.652344 300.292969 144.253906 299.058594 143.992188 C 297.828125 143.734375 296.511719 143.605469 295.132812 143.605469 C 293.746094 143.605469 292.4375 143.742188 291.203125 144.027344 C 289.96875 144.308594 288.898438 144.726562 287.988281 145.289062 C 287.078125 145.851562 286.367188 146.527344 285.84375 147.328125 C 285.328125 148.125 285.066406 149.042969 285.066406 150.078125 Z M 305.0625 166.007812 L 310.972656 169.503906 C 309.414062 171.703125 307.207031 173.410156 304.351562 174.617188 C 301.492188 175.824219 298.421875 176.429688 295.132812 176.429688 C 292.925781 176.429688 290.8125 176.160156 288.800781 175.617188 C 286.789062 175.082031 285.011719 174.269531 283.480469 173.191406 C 281.9375 172.113281 280.714844 170.742188 279.808594 169.082031 C 278.898438 167.421875 278.445312 165.464844 278.445312 163.222656 L 278.445312 150.078125 C 278.445312 147.964844 278.878906 146.097656 279.746094 144.476562 C 280.613281 142.859375 281.796875 141.5 283.289062 140.398438 C 284.785156 139.300781 286.554688 138.46875 288.589844 137.90625 C 290.632812 137.347656 292.820312 137.066406 295.164062 137.066406 C 297.460938 137.066406 299.632812 137.324219 301.667969 137.84375 C 303.707031 138.359375 305.484375 139.148438 307.003906 140.207031 C 308.519531 141.261719 309.722656 142.613281 310.613281 144.253906 C 311.5 145.894531 311.945312 147.835938 311.945312 150.078125 L 311.945312 159.984375 L 285.066406 159.984375 L 285.066406 163.351562 C 285.066406 164.386719 285.335938 165.316406 285.878906 166.132812 C 286.421875 166.957031 287.144531 167.648438 288.054688 168.207031 C 288.960938 168.765625 290.023438 169.1875 291.238281 169.46875 C 292.445312 169.75 293.746094 169.886719 295.132812 169.886719 C 297.078125 169.886719 298.9375 169.570312 300.714844 168.917969 C 302.488281 168.269531 303.941406 167.300781 305.0625 166.007812 " fill-opacity="1" fill-rule="nonzero"/><path fill="#006e6d" d="M 322.917969 128.910156 L 329.542969 128.910156 L 329.542969 175.914062 L 322.917969 175.914062 Z M 322.917969 128.910156 " fill-opacity="1" fill-rule="evenodd"/><path fill="#006e6d" d="M 396.085938 175.914062 L 391.671875 175.914062 L 382.453125 148.589844 L 373.105469 175.914062 L 368.6875 175.914062 L 355.707031 137.648438 L 362.585938 137.648438 L 370.703125 163.351562 L 379.730469 137.648438 L 385.179688 137.648438 L 394.140625 163.351562 L 402.324219 137.648438 L 409.074219 137.648438 Z M 396.085938 175.914062 " fill-opacity="1" fill-rule="nonzero"/><path fill="#006e6d" d="M 441.792969 163.09375 L 441.792969 160.117188 L 427.6875 160.117188 C 426.433594 160.117188 425.421875 160.269531 424.644531 160.566406 C 423.867188 160.871094 423.242188 161.226562 422.765625 161.636719 C 422.292969 162.046875 421.96875 162.476562 421.792969 162.933594 C 421.625 163.386719 421.535156 163.765625 421.535156 164.066406 C 421.535156 165.101562 421.808594 165.988281 422.34375 166.71875 C 422.886719 167.453125 423.621094 168.058594 424.542969 168.535156 C 425.476562 169.003906 426.550781 169.351562 427.78125 169.570312 C 429.011719 169.785156 430.316406 169.890625 431.699219 169.890625 C 434.074219 169.890625 435.925781 169.621094 437.265625 169.082031 C 438.601562 168.542969 439.605469 167.90625 440.277344 167.171875 C 440.941406 166.4375 441.363281 165.695312 441.539062 164.9375 C 441.707031 164.183594 441.792969 163.566406 441.792969 163.09375 Z M 431.792969 137.066406 C 434.046875 137.066406 436.179688 137.328125 438.191406 137.84375 C 440.203125 138.359375 441.960938 139.152344 443.46875 140.207031 C 444.972656 141.265625 446.175781 142.59375 447.074219 144.1875 C 447.964844 145.785156 448.414062 147.683594 448.414062 149.886719 L 448.414062 163.09375 C 448.414062 165.425781 448.015625 167.421875 447.210938 169.082031 C 446.410156 170.746094 445.273438 172.125 443.796875 173.226562 C 442.320312 174.328125 440.554688 175.136719 438.496094 175.65625 C 436.433594 176.171875 434.171875 176.429688 431.699219 176.429688 C 429.355469 176.429688 427.164062 176.195312 425.125 175.71875 C 423.089844 175.246094 421.3125 174.503906 419.792969 173.492188 C 418.277344 172.480469 417.085938 171.203125 416.214844 169.652344 C 415.347656 168.105469 414.917969 166.25 414.917969 164.101562 C 414.917969 162.46875 415.230469 161 415.855469 159.710938 C 416.484375 158.417969 417.347656 157.324219 418.453125 156.417969 C 419.558594 155.515625 420.886719 154.816406 422.449219 154.320312 C 424.003906 153.824219 425.734375 153.574219 427.640625 153.574219 L 441.792969 153.574219 L 441.792969 149.925781 C 441.792969 148.886719 441.535156 147.972656 441.015625 147.191406 C 440.492188 146.410156 439.785156 145.757812 438.875 145.230469 C 437.964844 144.714844 436.902344 144.3125 435.691406 144.027344 C 434.476562 143.746094 433.179688 143.609375 431.792969 143.609375 C 427.46875 143.609375 424.351562 144.988281 422.449219 147.75 L 416.734375 144.382812 C 418.25 141.882812 420.28125 140.035156 422.835938 138.847656 C 425.386719 137.660156 428.375 137.066406 431.792969 137.066406 " fill-opacity="1" fill-rule="nonzero"/><path fill="#006e6d" d="M 476.007812 175.914062 L 470.75 175.914062 L 454.84375 137.648438 L 461.984375 137.648438 L 473.410156 165.363281 L 484.902344 137.648438 L 491.917969 137.648438 Z M 476.007812 175.914062 " fill-opacity="1" fill-rule="nonzero"/><path fill="#006e6d" d="M 504.707031 150.078125 L 504.707031 153.441406 L 524.960938 153.441406 L 524.960938 150.078125 C 524.960938 149 524.691406 148.050781 524.152344 147.230469 C 523.605469 146.414062 522.875 145.734375 521.941406 145.191406 C 521.011719 144.652344 519.929688 144.253906 518.691406 143.992188 C 517.464844 143.734375 516.152344 143.605469 514.769531 143.605469 C 513.382812 143.605469 512.074219 143.742188 510.839844 144.027344 C 509.605469 144.308594 508.535156 144.726562 507.628906 145.289062 C 506.71875 145.851562 506.003906 146.527344 505.484375 147.328125 C 504.964844 148.125 504.707031 149.042969 504.707031 150.078125 Z M 524.699219 166.007812 L 530.609375 169.503906 C 529.050781 171.703125 526.84375 173.410156 523.984375 174.617188 C 521.128906 175.824219 518.058594 176.429688 514.769531 176.429688 C 512.5625 176.429688 510.453125 176.160156 508.4375 175.617188 C 506.421875 175.082031 504.652344 174.269531 503.113281 173.191406 C 501.578125 172.113281 500.355469 170.742188 499.445312 169.082031 C 498.539062 167.421875 498.082031 165.464844 498.082031 163.222656 L 498.082031 150.078125 C 498.082031 147.964844 498.515625 146.097656 499.382812 144.476562 C 500.25 142.859375 501.433594 141.5 502.925781 140.398438 C 504.421875 139.300781 506.191406 138.46875 508.230469 137.90625 C 510.273438 137.347656 512.457031 137.066406 514.800781 137.066406 C 517.101562 137.066406 519.265625 137.324219 521.304688 137.84375 C 523.339844 138.359375 525.121094 139.148438 526.640625 140.207031 C 528.15625 141.261719 529.359375 142.613281 530.25 144.253906 C 531.140625 145.894531 531.585938 147.835938 531.585938 150.078125 L 531.585938 159.984375 L 504.707031 159.984375 L 504.707031 163.351562 C 504.707031 164.386719 504.976562 165.316406 505.515625 166.132812 C 506.058594 166.957031 506.78125 167.648438 507.6875 168.207031 C 508.601562 168.765625 509.660156 169.1875 510.875 169.46875 C 512.085938 169.75 513.382812 169.886719 514.769531 169.886719 C 516.71875 169.886719 518.574219 169.570312 520.351562 168.917969 C 522.125 168.269531 523.574219 167.300781 524.699219 166.007812 " fill-opacity="1" fill-rule="nonzero"/><g clip-path="url(#8a6fc6525e)"><path fill="#006e6d" d="M 558.679688 153.253906 C 561.066406 153.253906 563.277344 153.457031 565.320312 153.867188 C 567.359375 154.277344 569.125 154.9375 570.625 155.839844 C 572.121094 156.75 573.28125 157.933594 574.105469 159.402344 C 574.910156 160.839844 575.328125 162.585938 575.34375 164.644531 L 575.34375 164.90625 C 575.324219 166.925781 574.890625 168.671875 574.042969 170.148438 C 573.171875 171.660156 571.980469 172.890625 570.460938 173.839844 C 568.945312 174.792969 567.179688 175.492188 565.160156 175.945312 C 563.144531 176.398438 560.988281 176.625 558.6875 176.625 C 550.621094 176.625 545.027344 173.800781 541.90625 168.144531 L 547.554688 164.839844 C 547.902344 165.492188 548.355469 166.125 548.917969 166.75 C 549.480469 167.378906 550.207031 167.9375 551.097656 168.433594 C 551.980469 168.933594 553.042969 169.328125 554.273438 169.632812 C 555.507812 169.9375 556.96875 170.085938 558.65625 170.085938 C 560 170.085938 561.285156 169.976562 562.515625 169.761719 C 563.75 169.542969 564.824219 169.222656 565.734375 168.789062 C 566.644531 168.359375 567.367188 167.808594 567.910156 167.144531 C 568.449219 166.46875 568.71875 165.683594 568.71875 164.777344 C 568.71875 163.828125 568.449219 163.039062 567.910156 162.414062 C 567.367188 161.789062 566.644531 161.28125 565.734375 160.890625 C 564.824219 160.503906 563.75 160.234375 562.515625 160.082031 C 561.285156 159.933594 560 159.855469 558.65625 159.855469 C 556.363281 159.855469 554.207031 159.671875 552.195312 159.304688 C 550.1875 158.941406 548.421875 158.3125 546.90625 157.425781 C 545.390625 156.542969 544.203125 155.386719 543.335938 153.964844 C 542.464844 152.539062 542.035156 150.789062 542.035156 148.71875 C 542.035156 146.605469 542.457031 144.800781 543.304688 143.3125 C 544.148438 141.824219 545.3125 140.621094 546.808594 139.6875 C 548.300781 138.761719 550.0625 138.089844 552.101562 137.679688 C 554.132812 137.269531 556.320312 137.070312 558.65625 137.070312 C 562.335938 137.070312 565.386719 137.648438 567.8125 138.816406 C 570.234375 139.980469 572.3125 142.007812 574.042969 144.898438 L 568.203125 148.332031 C 567.25 146.519531 566 145.273438 564.46875 144.609375 C 562.929688 143.941406 560.992188 143.609375 558.65625 143.609375 C 557.359375 143.609375 556.105469 143.691406 554.890625 143.863281 C 553.679688 144.039062 552.597656 144.328125 551.644531 144.738281 C 550.691406 145.148438 549.9375 145.675781 549.375 146.324219 C 548.808594 146.972656 548.527344 147.773438 548.527344 148.71875 C 548.527344 149.625 548.8125 150.371094 549.375 150.957031 C 549.9375 151.535156 550.6875 151.988281 551.617188 152.3125 C 552.554688 152.636719 553.628906 152.875 554.839844 153.027344 C 556.054688 153.175781 557.335938 153.253906 558.679688 153.253906 " fill-opacity="1" fill-rule="nonzero"/></g><path fill="#006e6d" d="M 341.292969 137.777344 L 347.917969 137.777344 L 347.917969 175.914062 L 341.292969 175.914062 Z M 341.292969 137.777344 " fill-opacity="1" fill-rule="evenodd"/><path fill="#006e6d" d="M 348.667969 130.753906 C 348.667969 133.015625 346.832031 134.851562 344.5625 134.851562 C 342.292969 134.851562 340.453125 133.015625 340.453125 130.753906 C 340.453125 128.492188 342.292969 126.660156 344.5625 126.660156 C 346.832031 126.660156 348.667969 128.492188 348.667969 130.753906 " fill-opacity="1" fill-rule="nonzero"/></svg>