<?xml version="1.0" encoding="UTF-8"?>
<svg id="Layer_1" data-name="Layer 1" xmlns="http://www.w3.org/2000/svg" viewBox="0 0 800 800">
  <defs>
    <style>
      .cls-1 {
        fill: #010201;
      }

      .cls-2 {
        fill: none;
      }
    </style>
  </defs>
  <rect class="cls-2" width="800" height="800"/>
  <path class="cls-1" d="M539.77,559.06c36.2-15.34,71.44-30.49,106.85-45.21,21.42-8.91,42.24-20.44,67-16.05,31.5,5.59,52.23,23.48,63.38,53.3,2.32,6.19,.56,8.53-4.72,11.32-103.16,54.44-206.12,109.27-309.4,163.49-29.24,15.35-60.24,17.29-91.83,7.07-43.56-14.09-87.18-28-130.68-42.29-12.49-4.1-25.23-3.22-37.81-2.63-11.84,.55-8.14-7.31-8.4-13.02-.26-5.86-1.89-11.14,8.49-11.91,31.93-2.37,60.19,10.19,89.36,19.28,29.67,9.24,59.27,18.74,88.89,28.14,25.18,7.99,49.54,5.37,72.65-6.82,95.59-50.43,190.98-101.22,286.64-151.5,8.98-4.72,7.54-8.05,1.91-14.01-16.52-17.46-39.86-21.83-64.35-11.48-54.99,23.24-109.98,46.49-164.93,69.83-7.62,3.24-15.32,5.45-23.7,5.43-37.79-.09-75.58-.42-113.35,.24-9.61,.17-9.68-4.35-9.15-11.02,.5-6.3-2.96-13.9,9.3-13.68,38.18,.68,76.39,.44,114.58,.12,14.03-.12,24-10.07,24.2-22.69,.19-12.11-8.89-21.73-22.36-23.44-3.24-.41-6.56-.28-9.84-.28-26.29-.02-52.57-.19-78.86,.06-13.77,.13-26.66-2.23-39.2-8.36-20.94-10.22-42.42-19.33-63.52-29.24-15.5-7.27-31.45-11.19-48.75-10.33-14.34,.71-28.74,.15-43.12,.14-14.01,0-19.42-7.82-14.79-21.01,2.07-5.91,6.87-3.39,10.38-3.37,90.29,.34,64.19-6.39,142.88,29.99,29.17,13.48,57.8,21.32,89.76,18.9,16.74-1.27,33.66-.33,50.5-.2,28.94,.23,45.46,14.27,50.77,42.97,.43,2.33,.71,4.7,1.25,8.26ZM234.55,217.99c5.7,20.79,17.04,32.36,39.79,29.29,2.68-.36,6.82,3.01,7.72,.29,2.02-6.1,3.12-12.78,3.06-19.21-.06-6.04-6.57-4.55-9.74-4.59-10.78-.13-15.26-6.07-18.84-15.25-7.71-19.77-16.59-39.08-24.58-58.74-2.3-5.66-5.75-6.94-11.34-6.58-5.17,.34-8.67,.9-11.17,6.76-8.79,20.66-18.72,40.83-27.72,61.39-2.99,6.83-7.05,9.85-14.66,10.32-22.11,1.37-44.15,3.8-66.26,5.21-6.01,.38-9.73,1.32-11.32,7.95-1.41,5.87-2.48,9.95,3.29,14.89,16.82,14.4,32.52,30.1,49.18,44.71,5.84,5.12,6.91,10.19,5.16,17.24-5.4,21.77-10.06,43.72-15.8,65.4-1.61,6.09,.24,9.01,4.6,12.27,4.57,3.41,8.12,4.87,14.02,1.39,18.32-10.82,37.56-20.11,55.72-31.18,8.37-5.1,14.25-5.71,22.74-.06,17.71,11.78,36.39,22.09,54.64,33.06,4.11,2.47,7.41,5.74,12.87,1.24,5.18-4.27,8.39-7.86,6.59-15.19-3.5-14.26-7.02-28.61-8.88-43.14-1.95-15.28-12.75-32.79,8.39-44.15,3.64-1.96,.75-5.17-1.3-7.06-4.25-3.94-6.13-12.29-12.65-11.5-11.83,1.43-26.19,24.83-23.88,36.66,3.08,15.75,6.15,31.51,9.65,49.42-16.96-10.21-31.76-18.88-46.3-27.98-6.65-4.16-12.46-4.26-19.34-.22-14.75,8.67-29.91,16.64-47.22,26.18,4.11-17.35,7.2-32.44,11.36-47.24,3.22-11.47,1.74-19.89-8.48-27.75-12.03-9.26-22.48-20.57-35.92-33.14,19.92-1.6,36.21-3.34,52.55-4.03,8.98-.38,14.26-3.97,17.8-12.13,6.82-15.71,14.35-31.13,22.28-48.18,5.32,12.57,10.96,22.76,13.96,33.67Zm377.93,114.31c-8.25-5.44-15.08-5.85-23.61-.67-14.08,8.55-28.8,16.04-45.29,25.1,4.48-19.13,8.44-35.7,12.2-52.33,1.26-5.55,2.68-11.19-2.62-15.92-7.64-6.84-14.97-14.02-22.57-20.9-1.56-1.41-3.32-4.64-5.91-2.2-4.76,4.5-10.65,8.81-13.03,14.47-1.83,4.34,4.85,7.89,8.5,10.57,9.49,6.96,11.48,14.48,7.99,26.17-5.93,19.89-8.81,40.67-14.36,60.69-2.05,7.41,2.14,9.13,5.73,12.83,4.39,4.53,7.96,3.32,12.78,.59,20.28-11.51,40.9-22.41,61.15-33.96,4.86-2.77,8.28-2.77,13.05,.19,19.48,12.09,39.24,23.72,58.94,35.45,3.95,2.36,7.26,6.15,12.79,1.47,5.06-4.28,8.4-7.73,6.78-15.19-4.69-21.53-8.12-43.34-13.07-64.81-1.64-7.12-.47-11.23,4.99-15.8,16.67-13.95,32.79-28.56,49.37-42.62,5.46-4.63,6.58-10.01,5.26-16.48-1.38-6.78-6.82-7.11-12.17-7.79-22.35-2.84-44.67-6-67.06-8.47-5.84-.64-8.38-3.1-10.47-8.25-8.46-20.79-17.27-41.45-26.21-62.04-2.03-4.68-3.86-9.32-11.12-9.38-7.18-.05-10.27,3.22-12.86,8.83-9.08,19.64-18.58,39.1-27.34,58.88-2.95,6.67-6.29,11.06-14.23,10.8-3.24-.11-8.32-1.06-7.73,4.96,.63,6.39-1.04,14.06,3.8,18.69,5.14,4.92,29.96-3.56,33.38-10.68,7.73-16.13,15.21-32.38,23.67-50.47,7.75,18.68,15.72,35.66,21.63,53.33,1.95,5.83,3.18,7.33,9.04,7.84,18.9,1.65,37.73,4.23,59.29,6.77-14.52,12.67-26.39,23.91-39.22,33.91-8.08,6.3-9.53,13.24-7.51,22.51,3.48,15.89,6.36,31.92,9.92,50.11-16.02-9.49-30.32-17.31-43.88-26.26Zm-444.77,124.83c-.05-20.09-8.2-28.19-28.49-28.26-35.3-.12-70.6,.43-105.88-.31-10.8-.23-9.24,5.6-9.43,12.19-.21,7.02-.64,12.12,9.67,11.89,32.82-.73,65.67,.11,98.49-.5,9.74-.18,12.45,2.53,12.4,12.3-.39,76.7-.39,153.4,0,230.1,.05,9.33-2.54,11.73-11.69,11.58-33.23-.55-66.49,.25-99.72-.45-12.53-.27-8.39,7.78-9.04,13.87-.73,6.81-.2,11.12,9.23,10.95,34.87-.65,69.77-.23,104.65-.27,21.47-.02,29.79-8.17,29.83-29.43,.07-40.2,.02-80.39,.02-120.59,0-41.02,.07-82.03-.03-123.05Zm-72.58,195.27c-8.92,.31-16.3,7.84-16.33,16.65-.03,9.15,8.12,16.82,17.58,16.55,8.84-.26,16.38-7.9,16.33-16.56-.05-9.36-8.08-16.97-17.58-16.64ZM559.34,188.78c-20.96,17.75-41.55,35.95-62.61,53.57-5.77,4.83-7.54,9.88-6.06,17.03,5.48,26.36,10.65,52.78,16.03,79.16,1.29,6.31,1.37,11.11-5.05,15.84-6.61,4.87-10.44,1.32-15.17-1.52-23.52-14.09-47.13-28.05-70.44-42.49-5.56-3.45-9.63-3.74-15.47-.38-23.4,13.46-47.15,26.31-70.79,39.32-5.47,3.01-9.98,7.01-17.24,1.19-7.15-5.74-4.68-11.22-3.25-17.39,5.88-25.41,11.61-50.86,17.92-76.17,1.89-7.59,.75-12.59-5.41-18.07-19.91-17.71-39.11-36.22-58.6-54.41-4.47-4.17-8.7-7.29-5.78-15.42,2.85-7.95,7.73-8.07,14.03-8.57,26.57-2.09,53.09-4.97,79.69-6.36,9.08-.47,12.58-4.56,15.86-11.88,10.84-24.22,22.28-48.16,33.41-72.24,2.49-5.39,4.61-10.98,12.02-8.6,7.04-1.36,9.55,2.49,11.84,8.07,10.55,25.66,21.71,51.07,32.23,76.74,2.64,6.43,5.93,9.09,13.31,9.82,27.72,2.72,55.31,6.71,82.99,9.88,6.15,.7,9.38,3.45,11.2,9.19,1.9,5.98-.07,9.81-4.64,13.68Zm-38.22-2.34c-21.96-2.76-43.77-6.21-65.72-7.93-9.45-.74-13.48-4.76-16.7-12.79-8.22-20.51-17.14-40.74-26.77-63.41-10.7,22.94-20.58,43.45-29.79,64.26-3.01,6.8-6.85,9.53-14.46,10.03-22.73,1.47-45.39,3.99-70.9,6.37,18.05,16.79,33.83,32.14,50.41,46.57,7.2,6.26,8.82,12.15,6.38,21.29-5.64,21.14-10.09,42.61-15.62,66.51,21.66-12.04,41.41-22.45,60.54-33.92,7.84-4.7,13.72-4.15,21.08,.53,18.78,11.92,37.98,23.16,58.81,35.76-4.74-25.32-8.4-48.27-13.61-70.86-1.77-7.69,.95-11.11,5.92-15.32,15.33-13,30.43-26.25,45.5-39.54,2.16-1.91,6.15-2.97,4.92-7.52Z"/>
</svg>