<?xml version="1.0" encoding="UTF-8"?>
<svg id="Layer_1" data-name="Layer 1" xmlns="http://www.w3.org/2000/svg" viewBox="0 0 800 800">
  <defs>
    <style>
      .cls-1 {
        fill: #040404;
      }

      .cls-2 {
        fill: none;
      }
    </style>
  </defs>
  <rect class="cls-2" width="800" height="800"/>
  <path class="cls-1" d="M550.02,131.91c-.37,3.93-2.09,7.29-4.18,10.6-11.54,18.19-22.9,36.5-34.49,54.65-6.64,10.41-13.79,12.83-21.79,7.85-7.87-4.89-9.05-13.2-2.87-23.15,11.8-18.97,23.74-37.86,35.73-56.71,4.1-6.44,9.91-10.04,17.62-7.38,6.37,2.2,9.79,7.21,9.98,14.14Zm-298.29,4.34c13.31,22.97,26.93,45.77,42.72,67.11,3.83,5.17,10.69,5.73,16.79,1.65,5.79-3.88,9.21-9.81,6.13-15.82-12.27-23.94-27.08-46.4-42.66-68.3-3.15-4.43-9.2-5.34-14.79-2.74-5.75,2.68-9.1,6.96-8.81,14.69,.07,.41-.1,2.17,.62,3.41Zm162.58-46.58c-.15-9.77-6.23-16.87-14.23-15.86-8.53,1.07-14.01,5.86-13.98,15.38,.08,23.93-.1,47.87,.08,71.8,.07,9.34,6.77,16.93,14.53,15.92,8.46-1.11,13.95-5.75,13.7-15.43-.3-11.96-.07-23.93-.07-35.9,0-11.97,.15-23.94-.04-35.9Zm282.04,217.18c-8.64,.08-13.7,4.96-13.95,13.51-.26,9.04,4.59,14.54,13.84,14.76,9.23,.21,13.73-5.26,14.83-13.99-.95-9.01-5.46-14.36-14.72-14.27Zm55.05,157.75c-11.96,6.97-24.05,13.74-36.28,20.21-19.57,10.35-38.57,5.88-50.08-12.77-4.29-6.95-7.78-6.79-13.24-2.79-3.1,2.27-6.2,4.55-9.33,6.78-6.72,4.79-8.39,9.27-3.53,17.64,15.83,27.26,1.45,61.06-29.47,69.86-5.89,1.67-6.79,3.67-7.15,8.94-1.56,22.96-14.16,37.79-35.7,44.55-5.14,1.61-6.3,3.24-6.75,8.24-2.74,30.75-25.76,49.67-55.94,46.02-5.69-.69-8.68-.11-11.29,5.92-14.15,32.63-49.07,41.31-77.16,19.66-15.24-11.75-15.1-11.56-30.23-.03-13.34,10.18-24.61,23.5-42.13,27.43-28.27,6.33-56.71-13.34-58.78-42.05-.58-8.12-3.41-10.85-10.43-13.12-20.63-6.68-30.58-22.33-33.26-43.01-.64-4.91-.81-7.39-6.88-9.31-21.95-6.94-34.6-22.27-35.41-45.9-.17-4.89-1.86-5.84-6.34-7.15-32.71-9.57-46.2-43.18-29.09-72.55,3.16-5.42,3.25-8.76-1.66-12.41-3.39-2.53-6.53-5.39-9.88-7.97-6.45-4.96-11.05-7.02-16.72,2.66-9.57,16.31-28.43,21.29-45.34,13.02-14.84-7.26-29.36-15.32-43.39-24.05-17.36-10.8-20.95-30.96-9.77-50.79,29.88-52.98,59.89-105.89,89.84-158.83,6.26-11.06,12.4-22.19,18.77-33.19,11.9-20.54,31.23-26.32,52.02-15.36,12.58,6.63,25.05,13.52,37.33,20.69,11.87,6.92,18.36,17.26,18,33.24-7.69,15.77,6,16.2,16.84,20.03,10.14,3.58,18.22,3.56,27.51-3.38,11.24-8.4,25.52-10.29,39.3-11.8,22.59-2.48,45.33-3.75,67.83-6.78,26.84-3.62,50.68,6.21,74.98,14.54,6.9,2.36,14,4.4,20.47,7.66,17.51,8.81,32.88-1.6,49.02-4.85,3.71-.75,2.26-3.88,1.77-6.62-3.96-21.93,1.19-33.41,20.54-43.84,14.83-7.99,28.34-18.74,45.03-22.94,14.64-3.69,29.29,1.59,37.23,14.21,8.6,13.68,16.33,27.92,24.05,42.12,4.25,7.82,3.09,15.42-4.82,20.13-8.57,5.1-15.74,1.73-20.54-6.29-6.91-11.56-13.64-23.25-19.92-35.16-4.01-7.6-8.67-8.55-15.83-4.24-9.55,5.75-19.28,11.29-29.32,16.13-9.07,4.37-10.25,9.41-5.25,18.14,28.89,50.44,57.37,101.11,85.99,151.71,6.82,12.05,13.92,23.95,20.39,36.19,3.9,7.38,8.73,9.07,15.93,5,10.72-6.05,21.48-12.02,32.29-17.89,6.44-3.49,7.48-7.78,3.66-14.19-7.48-12.57-14.51-25.41-21.6-38.21-5.61-10.13-4.08-18.42,4.03-22.98,7.86-4.43,15.18-1.81,20.88,7.99,7.92,13.65,15.79,27.34,23.24,41.25,10.44,19.51,4.73,39.31-14.45,50.49ZM219.79,264.59c1.5-2.65,2.77-5.43,3.9-7.67-.86-3.95-2.87-6.16-5.68-7.72-5.71-3.18-11.41-6.4-17.16-9.51-30.04-16.21-23.59-18.04-40.14,11.06-32.74,57.53-65.09,115.28-97.93,172.75-4.91,8.6-4.48,13.74,4.96,18.2,9.71,4.59,18.92,10.26,28.24,15.66,7.61,4.42,12.73,4.08,17.66-4.73,35.12-62.83,70.73-125.38,106.16-188.04Zm-2.19,266.28c17.36-13.36,34.38-27.14,51.48-40.84,5.29-4.24,8.86-9.54,8.73-16.71-.04-7.59-3.5-13.37-9.97-17.02-7.91-4.45-15.65-3.03-22.5,2.39-17.48,13.82-34.92,27.7-52.11,41.88-9.8,8.08-11.19,19.81-4.1,28.44,7.45,9.07,17.81,10.07,28.49,1.85Zm43.12,53.24c25.07-19.73,49.94-39.72,74.83-59.67,5.27-4.23,9.11-9.39,8.93-14.48-.09-10.27-4.05-15.89-10.98-19.77-8.37-4.68-15.55-1.83-22.24,3.48-24.98,19.85-49.99,39.66-74.79,59.74-9.96,8.07-11.73,19.68-5.11,28.31,7.45,9.72,18.55,10.9,29.36,2.39Zm42.81,53.35c17.28-13.44,34.27-27.26,51.34-40.97,5.33-4.28,8.71-9.63,8.44-15.67-.11-9.33-4.46-14.93-11.38-18.45-7.75-3.94-15-1.72-21.42,3.37-17.15,13.6-34.28,27.23-51.25,41.06-10.03,8.18-11.9,19.45-5.19,28.35,7.14,9.46,18.73,10.65,29.46,2.31Zm78.61,14.63c-.28-7.55-3.78-13.41-10.41-16.69-6.92-3.43-14.2-3.28-20.57,1.62-10.34,7.95-20.7,15.89-30.61,24.37-9.13,7.81-10.18,19.23-3.32,27.58,7.04,8.57,18.17,10.01,27.67,2.88,10.12-7.6,19.82-15.75,29.64-23.73,5.04-4.1,7.79-9.38,7.59-16.02Zm224.28-152.65c-41.78-33.56-83.4-67.33-127.05-98.48-2.2-1.57-4.55-2.94-6.58-4.7-30.33-26.24-64.23-34.44-104.08-25.9-39.03,8.36-75.6-8.1-85.49-39.84-6.01-19.27-17.42-24.26-33.18-27.96-2.62-.61-5.36-1.03-7.77-2.14-6.1-2.81-9.17-.63-12.33,5.05-23.39,42.03-47.04,83.91-70.93,125.67-3.25,5.68-3.98,8.91,2.84,12.08,8.44,3.92,15.98,9.64,21.84,16.83,4.87,5.99,8.23,4.43,13.12,.3,10.61-8.94,21.39-17.74,32.59-25.91,22.43-16.36,53.95-12.29,68.07,10.74,7.3,11.9,13.03,20.21,25.55,14.29,37.98,.11,60.89,35.83,46.14,68.42-2.02,4.47-4.88,7.45,1.55,11.91,21.9,15.2,27.36,38.04,16.04,63-1.77,3.91-2.72,5.93,2.04,8.83,14.51,8.86,21.7,22.52,22.59,39.37,.2,3.82,1.29,6.5,4.32,8.8,6.75,5.12,13.09,10.81,20.03,15.65,9.82,6.84,19.71,5.44,26.74-3.11,6.98-8.5,6.36-18.72-2.29-26.85-5.61-5.27-11.93-9.77-17.89-14.67-9.77-8.03-11.74-15.19-6.27-22.62,5.72-7.77,14.48-8.02,24.18-.38,12.43,9.77,24.61,19.87,37.1,29.55,10.38,8.04,21.51,7.32,28.81-1.4,7.11-8.5,5.17-21.52-4.73-29.57-12.26-9.97-24.78-19.63-37.09-29.55-9.05-7.29-10.81-15.8-4.98-22.77,6.22-7.43,13.68-7.48,23.31,.11,12.42,9.79,24.61,19.86,37.11,29.54,11.19,8.67,21.89,7.85,29.4-1.8,7.07-9.09,5.57-19.72-4.68-28.35-10.91-9.19-22.22-17.88-33.35-26.81-9.76-7.83-11.79-16.31-5.69-23.56,6.12-7.28,14.4-6.9,24.38,1.07,11.15,8.9,22.26,17.84,33.49,26.65,6.03,4.73,12.48,7.33,20.29,3.93,15.08-6.56,16.83-24.25,2.86-35.47Zm35.17-68.6c-23.4-40.72-46.61-81.54-69.27-122.67-4.37-7.94-8.44-9.92-16.72-6.46-29.16,12.18-57.49,11.09-86.44-2.91-14.91-7.21-31.16-13.23-48.38-14.16-26.49,2.25-53.03,4.09-79.45,6.99-8.64,.95-17.42,2.3-25.81,5.7-8.96,3.63-11.69,8.52-8.27,17.82,6.96,18.93,24.44,29.21,49.55,27.3,13.78-1.05,27.42-4.15,41.21-5.06,31.67-2.08,58.21,11.1,83.23,28.94,41.77,29.79,82.38,61.07,122.11,93.5,5.91,4.83,9.63,5.64,14.82-.81,5.32-6.62,12.37-11.85,20.12-15.3,7.4-3.29,6.94-6.58,3.32-12.88Z"/>
</svg>