<?xml version="1.0" encoding="UTF-8"?>
<svg id="Layer_1" data-name="Layer 1" xmlns="http://www.w3.org/2000/svg" viewBox="0 0 800 800">
  <defs>
    <style>
      .cls-1 {
        fill: #0c0c0c;
      }

      .cls-2 {
        fill: none;
      }
    </style>
  </defs>
  <rect class="cls-2" width="800" height="800"/>
  <path class="cls-1" d="M578.91,540.95c-12.2,0-24.4-.04-36.61,.01-7.79,.03-14.62-1.77-14.53-11.14,.09-8.72,6.56-10.52,13.94-10.51,25.14,.04,50.29,.12,75.43-.04,7.68-.05,14.2,2.72,14.27,10.52,.08,8.47-6.73,11.32-14.8,11.2-12.57-.18-25.14-.05-37.71-.05Zm37.8,44.58c8.09,.12,14.84-2.78,14.7-11.27-.13-7.85-6.68-10.43-14.35-10.37-25.14,.19-50.28,.11-75.42,.05-7.43-.02-13.77,1.8-13.87,10.54-.1,8.62,6.01,11.01,13.52,11.01,12.57,0,25.14,0,37.71,0s25.14-.13,37.71,.05Zm.01,44.53c8.1,.12,14.84-2.78,14.69-11.27-.14-7.83-6.68-10.44-14.36-10.38-25.14,.19-50.28,.11-75.43,.05-7.43-.02-13.76,1.82-13.86,10.56-.09,8.64,6.02,10.99,13.53,10.99,12.57,0,25.14,0,37.71,0,12.57,0,25.14-.13,37.71,.05Zm-127.78-89.18c3.33,0,6.69,.29,9.99-.06,6.63-.7,11.34-3.81,11.07-11.23-.25-6.83-4.84-9.64-10.99-10.14-4.42-.36-8.88-.06-13.32-.16-7.93-.18-15.97,.67-15.98,10.75,0,9.96,7.91,11.13,15.9,10.93,1.11-.03,2.22,0,3.33,0,0-.03,0-.06,0-.1Zm-19.06,33.93c.23,12.96,11.8,10.58,20.39,10.63,8.3,.05,19.16,1.93,19.42-10.43,.28-13.56-11.32-10.56-19.59-11.15-8.69,.55-20.46-2.4-20.22,10.95Zm11.71,33.68c-6.83,.14-11.81,3.16-11.98,10.3-.19,7.79,5.09,10.92,12.32,11.21,2.96,.12,5.92,.08,8.89,.03,8.41-.15,19.09,1.58,18.92-10.99-.16-12.6-10.99-10.28-17.89-10.56-4.33,0-7.29-.05-10.26,0Zm275.4-34.89c0,23.68-10.23,33.8-33.79,34.11-9.19,.12-21.15-3.92-26.8,1.57-5.75,5.58-1.55,17.61-1.7,26.79-.29,17.81,.05,35.62-.13,53.43-.17,16.45-9.16,25.43-25.52,25.59-16.7,.16-33.41,.09-50.12,.02-15.89-.07-21.25-5.41-21.67-21.34q-.43-16.62-17.35-16.62c-22.27,0-44.56,.3-66.82-.17-7.54-.16-11.09,1.58-9.95,9.67,.51,3.64,.2,7.41,.04,11.12-.44,10.56-5.97,16.95-16.36,17.18-19.67,.44-39.36,.53-59.02-.02-12.64-.35-20.79-9.55-20.93-22.82-.26-24.86-.38-49.73,.08-74.58,.14-7.81-2.21-10.54-10.02-10.02-8.87,.59-17.87,.76-26.71-.03-9.64-.87-12.43,1.55-11.57,11.99,2.77,33.65-7.39,63.64-29.22,89.5-9.47,11.21-12.64,11.97-25.06,3.77-6.15-4.06-8.12,1.22-11.03,3.52-40.9,32.32-95.59,35.01-137.79,5.05-36.21-25.7-51.89-61.82-48.12-105.95,.53-6.23-.38-7.93-6.31-7.77-9.27,.25-18.57,.25-27.84,.01-18.24-.46-29.16-11.27-29.17-29.31-.09-114.66-.02-229.32-.1-343.98,0-7.82,1.26-15.05,10.69-14.76,9.4,.29,10.02,7.79,10.01,15.45-.1,111.69-.07,223.39-.06,335.08,0,16.05,.12,14.91,16.02,16.35,21.28,1.94,34.42-2.91,47.39-23.61,35.2-56.2,113.11-65.89,164.91-23.89,6.28,5.09,10.5,7.49,17.62,1.36,7.18-6.18,14.61-3.86,20.22,3.42,8.19,10.62,15.09,22.07,19.35,34.83,1.97,5.89,5.02,8.03,11.31,7.75,11.86-.53,23.78-.63,35.62,.01,8.08,.43,9.88-2.63,9.84-10.19-.28-59-.16-118-.15-177,0-23.36,6.28-29.67,29.58-29.67,76.48-.01,152.95-.02,229.43,0,21.19,0,28.8,7.61,28.82,28.67,.03,35.62,.03,71.25-.03,106.87,0,3.3,.09,6.81-.93,9.86-1.65,4.91-5.21,8.19-10.9,7.69-5.61-.5-8.76-4.02-9.44-9.33-.56-4.39-.36-8.88-.36-13.33-.02-33.03-.24-66.05,.15-99.07,.09-7.82-1.26-10.94-10.15-10.9-74.99,.38-149.98,.36-224.97,.01-8.57-.04-10.4,2.55-10.38,10.68,.28,94.25,.29,188.51-.02,282.76-.03,8.45,2.29,10.93,10.6,10.45,12.21-.7,24.49-.35,36.74-.1,5.26,.1,8.77-.76,8-7.15-3.8-31.56,8.93-31.17,32.85-30.74,27.09,.48,54.2,.05,81.3,.14,16.1,.05,21.24,5.3,21.44,21.43,.03,2.6,.3,5.24-.05,7.78-.97,6.97,1.92,8.92,8.73,8.62,12.23-.55,24.52-.6,36.74,0,7.69,.39,9.19-2.63,9.14-9.61-.29-37.84-.14-75.69-.14-113.54,0-2.6-.04-5.2,.04-7.79,.2-6.79,3.11-11.94,10.33-12.03,7.72-.1,11,5.22,11.25,12.43,.2,5.56,.28,11.14,0,16.69-.25,4.91,1.75,6.45,6.51,6.28,8.53-.3,17.08-.22,25.61-.05,6.69,.13,9.41-3.24,9.35-9.54-.02-2.23,.01-4.45,.01-6.68,0-133.22-.12-266.43,.24-399.65,.03-10.64-2.7-13.52-13.45-13.5-214.95,.32-429.9,.32-644.85,0-10.45-.02-15.3,2.08-13.42,13.18,.55,3.24,.03,6.66,.07,10,.07,7.23-3.8,11.58-10.68,11.47-6.41-.11-9.81-4.64-9.85-11.19-.05-9.65-.04-19.3-.04-28.94,0-21.52-.03-43.04,0-64.57,.04-21.92,10-32.01,31.81-32.02,108.03-.03,216.06-.02,324.1-.02,107.66,0,215.32,0,322.98,0,24,0,34.02,9.86,34.03,33.51,.02,161.79,.02,323.58,0,485.36Zm-20.79-447.18c-.65-11.09-.16-22.25-.16-33.38q-.01-17.17-17.4-17.18c-212.29,0-424.57,0-636.86,0-2.23,0-4.46,.12-6.68-.02-7.61-.47-10.7,3.07-10.54,10.63,.28,12.61,.84,25.29-.17,37.82-.83,10.3,2.98,12.07,12.45,12.04,107.63-.34,215.26-.21,322.88-.21,58.64,0,117.28,0,175.92,0,50.1,0,100.21-.13,150.31,.14,7.48,.04,10.72-1.72,10.25-9.84ZM278.77,689.07c-20.18-18.06-39.91-36.61-59.69-55.11-10.7-10.01-10.35-17.53,1.23-26.32,18.61-14.13,37.13-28.4,56.17-41.92,7.6-5.4,6.91-8.18-.14-13.32-32.89-24.01-76.82-24.3-110.27-.21-32.76,23.6-46.48,66.25-33.71,104.82,12.67,38.26,48.37,63.89,88.74,63.69,21.12-.12,39.94-6.78,56.95-19.27,5.91-4.33,6.62-7.06,.71-12.35Zm59.7-59.2c0-23.89-6.06-43.4-16.45-61.8-3.03-5.36-5.49-6.5-10.89-2.34-22.33,17.16-44.96,33.95-67.61,50.69-4.8,3.55-6.39,5.85-.96,10.76,22.56,20.37,44.83,41.07,66.9,61.98,4.77,4.52,6.95,3.03,9.99-1.44,12.39-18.29,18.85-38.37,19.03-57.84Zm-1.2-250.63c-5.41,7.75-12.03,11.13-21.51,11.01-27.09-.36-54.19-.13-81.28-.12-26.35,0-52.71-.45-79.05,.21-11.66,.29-19.39-3.76-25.98-13.31-29.22-42.36-30.74-97.91-3.26-141.52,27.75-44.04,78.47-66.48,130.47-57.74,49.45,8.31,90.39,47.2,101.82,97.05,8.71,37.95,1.01,72.62-21.21,104.42Zm-65.61-33.61c-.94-15.05-8.38-27.08-22.51-31.43-13.17-4.06-27.57-5.25-39.64,5.47-10.36,9.19-13.14,21.04-13,34.1,.2,18.07-2.1,15.44,15.02,15.66,7.42,.1,14.85,.02,22.27,.02h15.59c23.63,0,23.76,0,22.27-23.82Zm-36.85-53.82c11.8-.41,21.58-10.95,21.17-22.81-.4-11.53-10.1-20.87-21.73-20.91-12.22-.05-21.63,9.6-21.48,22.02,.14,12.21,10.19,22.11,22.04,21.7Zm105.83,12.67c.86-80.44-84.6-132.54-156.34-95.31-55.33,28.72-73.87,101.13-39.18,153.04,4.4,6.58,17.76,10.43,26.83,6.93,7.35-2.84,3.48-9.78,3.35-14.5-.52-18.75,4.09-35.51,18.06-48.37,6.04-5.56,7.64-9.02,3.09-16.96-9.18-16.01-6.77-32.22,4.67-46.64,10.84-13.67,28.35-18.84,45-13.9,26.99,8,38.98,37.85,25.31,62.63-1.65,2.99-7.07,5.69-1.41,10.08,19.55,15.16,24.41,36.16,23.53,59.47-.1,2.71-1.36,6.03,1.94,8.06,5.84,3.58,23.87-.79,27.82-6.87,11.37-17.52,17.47-36.66,17.34-57.65Zm203.96-38.11c2.69-12.29-8.54-25.32-21.11-24.59-2.58,.15-5.65,.78-7.69-.31-11.06-5.9-18.49,.59-26.46,6.71-10.3,7.9-20.89,15.42-31.53,22.86-4.59,3.21-7.21,6.73-6.87,12.78,.53,9.24,.69,18.59-.03,27.8-.63,7.97,2.91,9.07,9.7,9.04,56.79-.21,113.58-.12,170.36-.12,2.97,0,5.94-.02,8.91,.03,7.22,.13,12.67,2.77,12.38,10.91-.26,7.38-5.34,9.99-12.16,9.99-65.32-.01-130.65,0-195.97-.04-9.86,0-14.2-6.13-14.25-14.95-.23-46-.17-92-.04-138.01,.02-6.5,2.71-12,10.21-12.11,7.99-.12,10.95,5.23,10.97,12.46,.07,19.53,.03,39.06,.03,61.15,13.66-9.9,24.6-18.11,35.86-25.85,4.56-3.13,4.22-7.02,4.13-11.61-.26-12.31,5.52-21.48,16.47-26.77,10.99-5.32,21.91-3.98,31.35,3.72,9.71,7.93,13.31,18.34,10.25,30.79-2.2,8.94,9.8,23.48,18.87,23,2.59-.14,5.61-1.23,7.68-.27,16.31,7.57,24.65-5.7,35.39-12.94,4.43-2.99,3.03-7.01,2.96-10.96-.3-17.13,10.62-29.99,26.52-31.3,15.75-1.29,29.97,9.53,32.15,24.46,2.42,16.53-7.84,31.02-24.47,34.25-2.85,.55-5.95,.63-8.81,.16-18.25-2.96-34.86,9.81-36.23,28.05-1.24,16.53-16.89,29.21-33.31,26.97-17.35-2.36-28.95-18.56-25.28-35.32Zm99.01-40.66c5.27-.05,7.72-3.51,8.49-8.38-.6-5.09-3.37-8.41-8.4-8.68-5.15-.27-8.51,2.95-8.75,7.96-.27,5.52,2.81,9.16,8.66,9.1Zm-78.29,46.7c.1,5.33,3.14,8.42,8.1,8.47,5.68,.06,8.88-3.91,8.55-9.28-.3-4.8-3.62-7.82-8.95-8.04-4.81,.91-7.8,3.49-7.7,8.85Zm-36.37-60.03c-.68-4.81-3.11-8.39-8.3-8.49-5.73-.11-8.85,3.35-8.64,9.01,.19,5.17,3.51,8.19,8.55,8.07,5.06-.12,7.8-3.48,8.4-8.59Zm-195.8,262.66c-.36,13.5-5.76,18.74-19.28,18.84-26.68,.19-53.36,.06-80.05,.06-25.94,0-51.88,.09-77.82-.03-15.4-.07-20.55-5.34-20.63-20.71-.07-12.96-.17-25.93,.04-38.89,.2-12.1,6.38-18.59,18.56-18.63,53.36-.18,106.73-.17,160.1,0,12.43,.04,18.63,5.99,19.05,18.26,.46,13.69,.41,27.41,.05,41.11Zm-21.06-28.76c-.03-7.3-2.1-9.47-9.39-9.33-22.59,.43-45.19,.16-67.79,.16-17.78,0-35.56,0-53.35,0-25.3,0-24.93,0-25.19,25.73-.08,8.39,2.33,10.58,10.64,10.48,39.63-.44,79.28-.2,118.92-.2,26.56,0,26.28,0,26.17-26.84Zm319.86,26.38c-.43,12.07-6.84,18.14-19.16,18.3-21.13,.26-42.26,.07-63.39,.08-20.02,0-40.04,.13-60.06-.04-14.57-.13-19.83-5.65-19.93-20.4-.08-11.86-.19-23.72,.04-35.57,.22-11.36,5.7-17.56,16.96-17.64,42.63-.3,85.26-.3,127.9,0,10.91,.07,17.13,6.46,17.59,17.5,.53,12.58,.5,25.2,.05,37.79Zm-21.56-25.3c.1-8.46-3.24-9.55-10.41-9.47-28.87,.33-57.75,.14-86.63,.14-23.61,0-23.36,0-23.1,23.32,.07,6.68,1.83,9.09,8.77,8.92,17.39-.43,34.8-.14,52.2-.14,12.22,0,24.43,0,36.65,0,22.68,0,22.25,0,22.51-22.76ZM123.66,95.47c-2.97,0-5.94-.05-8.9,.08-6.55,.28-10.37,3.4-10.51,10.3-.13,6.41,3.5,9.5,9.36,10.32,2.92,.41,5.92,.26,8.89,.26,116.52,.01,233.05,.01,349.57-.02,3.69,0,7.47-.02,11.04-.8,4.9-1.08,7.65-4.73,7.57-9.69-.09-5.41-3.03-9.17-8.55-10.06-3.27-.52-6.66-.37-9.99-.37-58.26-.02-116.52-.01-174.79-.01-57.89,0-115.78,0-173.67,0Zm508.45,10.53c.06,8.28,5.65,10.42,12.54,10.39,6.99-.03,12.56-2.68,12.46-10.66-.11-7.97-5.66-10.33-12.73-10.32-7.09,.05-12.33,2.37-12.26,10.59Zm39.6-.23c-.13,7.48,4.63,10.47,11.46,10.63,6.94,.17,13.05-1.8,13.47-9.89,.41-7.92-4.76-11.04-12.15-11.08-7.29-.28-12.63,2.14-12.78,10.34Zm-54.2-.38c-.42-8.05-6.07-10.03-13.09-9.95-7.34,.08-12.49,3.24-12.17,10.92,.32,7.77,6.18,10.07,14.28,10.12,5.75-.64,11.41-2.94,10.99-11.09Z"/>
</svg>