<?xml version="1.0" encoding="UTF-8"?>
<svg id="Layer_1" data-name="Layer 1" xmlns="http://www.w3.org/2000/svg" viewBox="0 0 800 800">
  <defs>
    <style>
      .cls-1 {
        fill: none;
      }

      .cls-2 {
        fill: #010101;
      }
    </style>
  </defs>
  <rect class="cls-1" width="800" height="800"/>
  <path class="cls-2" d="M733.89,367.83c-5.27-.37-7.66-1.56-8.08-7.24-1.85-24.79-7.68-48.88-16.78-71.83-47.74-120.36-135.56-191.76-263.37-213.03-9.01-1.5-12.21-3.15-12.6-12.84-.64-15.74-14.39-28.1-30.18-29.7-13.74-1.39-31.32,8.33-32.58,23.12-1.64,19.19-13.08,19.85-26.6,21.14-5.8,.55-11.56,1.92-17.24,3.28C191.67,112.97,93.99,221.3,75.25,359.77c-.93,6.89-3.45,7.8-9.5,8.11-17.95,.9-31.37,14.29-32.38,31.28-1.07,17.95,13.2,33.45,32.76,34.41,6.51,.32,8.51,2.01,9.17,8.53,1.15,11.27,3.15,22.54,5.81,33.57,32.52,135.11,141.71,233.05,279.32,250.56,4.64,.59,6.61,1.5,7.12,6.75,2.16,21.93,15.42,35.63,33.39,35.41,17.94-.22,30.41-13.36,32.44-34.94,.46-4.91,1.88-6.75,6.87-7.16,25.1-2.09,49.61-7.73,72.83-17.1,121.29-48.91,193.24-137.51,212.64-267.58,.89-5.95,2.7-7.63,8.62-7.99,19.75-1.18,33.39-14.75,33.65-32.52,.27-18.02-13.55-31.8-34.1-33.27ZM433.55,129.59c-.11-7.07,.57-14.21-.17-21.21-.94-8.94,2.66-10.52,10.69-9.27,60.37,9.42,113.82,33.73,159.25,74.66,52.81,47.58,85.23,106.69,97.36,176.83,2.95,17.06,2.9,17.07-14.18,17.07-4.71,0-9.43,0-14.14,0,0,.15-.01,.3-.02,.45-9.35-.47-21.11,2.28-27.32-2.38-5.41-4.05-4.12-16.6-6.55-25.17-26.26-92.48-85.75-151.8-178.17-178.02-8.56-2.43-20.76-1.29-25.12-6.73-4.48-5.6-1.49-17.24-1.63-26.23Zm-32.42-72.03c6.43,.18,8.74,5.36,8.67,11.74-.18,17.27-.06,34.54-.06,51.81,0,16.49-.11,32.97,.05,49.46,.06,6.3-1.93,11.51-8.58,11.76-7.12,.27-10.11-4.71-10.1-11.67,.05-33.76,.06-67.51,0-101.27-.01-6.98,3.09-12.03,10.02-11.83ZM99.09,358.52c9.5-64.41,36.3-120.5,81.12-167.57,48.07-50.48,107.08-80.53,175.86-91.59,7.84-1.26,12.85-.98,11.47,9.27-.88,6.56-.17,13.34-.17,20.02-.27,0-.54,0-.8,0,0,9.37,3.35,21.06-1.03,27.39-3.72,5.39-16.5,4.14-25.04,6.61-92.62,26.74-152.43,86.22-178.18,179.44-2.27,8.24-1.28,19.91-6.51,24.09-5.36,4.28-16.5,1.37-25.12,1.48-7.85,.1-15.75-.47-23.55,.16-7.66,.62-9.14-1.97-8.06-9.3Zm-28.22,51.62c-7.01,.02-13.34-1.6-13.06-9.76,.28-8.17,6.95-9.12,13.77-9.06,16.09,.15,32.18,.05,48.27,.05,16.48,0,32.96,.1,49.44-.05,7.06-.06,13.25,1.59,13.06,9.76-.17,7.33-5.96,9.09-12.6,9.07-32.96-.11-65.92-.1-98.89-.01Zm296.69,244.73c-.95,6.14-.18,12.55-.18,18.83v8.25c0,22.42-.16,23.15-22.57,18.24-113.72-24.9-191.53-91.7-232.2-201.08-6.55-17.62-10.3-36.07-13.29-54.68-1.27-7.89-.6-11.39,8.7-10.84,13.3,.79,26.72,.7,40.03,0,7.5-.39,9.75,2.29,11.1,9.35,16.29,85.05,64.25,145.56,142.44,182.21,17.39,8.15,35.68,13.85,54.7,16.71,7.96,1.2,12.73,3.55,11.28,13Zm33.73,89c-7.66,.31-10.23-5.5-10.2-12.84,.14-32.97,.13-65.94,0-98.91-.03-7.2,2.07-13.14,9.99-12.97,7.47,.16,8.8,6.22,8.73,12.77-.18,16.48-.06,32.97-.06,49.45s-.15,32.97,.07,49.45c.09,6.58-1.34,12.75-8.54,13.05Zm27.83-131.57c-5.27-11.69-15.87-17.4-28.56-17.35-12.64,.05-23.35,5.75-28.53,17.41-3.29,7.42-6.94,7.12-13.44,5.98-85.18-14.89-159.71-88.38-175.29-173.01-1.45-7.86-1.08-12.48,7.56-17.28,21.63-12.01,21.31-43.59-.71-55-9.09-4.71-8.35-9.79-6.73-16.53,21.04-87.65,74.73-144.46,161.1-170.27,2.99-.89,6.01-1.65,9.04-2.38,8.5-2.04,14.58-2.73,20.44,7.68,11.88,21.13,42.92,20.36,54.12-1.2,4.99-9.62,10.18-8.2,17.55-6.8,85.42,16.18,158.4,90.81,172.76,176.75,.19,1.16,.43,2.32,.79,4.25,1.32,4.01-2.01,4.93-5.4,6.58-12.38,6.04-19.12,16.06-18.98,30,.14,13.42,6.54,23.61,18.72,28.85,6.08,2.61,5.83,5.8,5.01,10.84-14.02,86.87-89.22,162.6-176.04,177.59-6.67,1.15-10.17,1.09-13.41-6.1Zm272.69-166.56c-15.59,120.9-117.83,230.13-236.54,252.35-9.97,1.87-22.37,8.46-29.34,3.3-7.38-5.46-.62-19.08-2.68-27.75,1.02-10.58-3.6-22.49,2.11-28.55,5.05-5.36,16.98-3.81,25.59-6.31,92.53-26.9,152.71-86.14,177.6-179.76,6.64-24.97,5.64-25.23,32.14-25.23,6.68,0,13.44,.69,20.01-.16,10.15-1.31,12.41,2.16,11.13,12.11Zm29.63-35.6c-16.87-.13-33.74-.04-50.61-.04-16.48,0-32.96-.05-49.44,.02-6.56,.03-12.21-1.64-12.31-9.26-.1-7.62,5.44-9.51,12.05-9.51,33.35,.03,66.7,.08,100.05-.04,6.77-.03,12.37,2.21,12.47,9.29,.1,7.09-5.39,9.59-12.2,9.54Zm-203.63-116.4c-20.4-19.01-40.63-38.21-60.71-57.55-4.56-4.4-9.45-6.38-15.74-6.37-56.17,.11-112.34,0-168.51,.11-13.86,.03-17.05,3.54-17.06,17.78-.04,51.09-.02,102.17-.02,153.26,0,50.69-.02,101.39,.01,152.08,0,15,3.13,18.47,17.54,18.49,78.16,.09,156.33,.08,234.49,0,14.48-.01,17.29-2.92,17.3-17.36,.05-80.95-.04-161.91,.14-242.86,.02-7.26-2.16-12.66-7.45-17.58Zm-60.15-22.36c9.78,5.7,16.29,14.02,25.3,22.79-29.73,.14-26.5,5.32-25.3-22.79Zm43.8,268.55c.02,6.25-1.81,7.86-7.93,7.84-68.33-.21-136.66-.3-204.99,.08-8.77,.05-9.11-3.83-9.08-10.53,.19-45.58,.1-91.15,.1-136.73,0-45.18,.31-90.37-.25-135.55-.12-9.66,2.94-11.53,11.85-11.44,43.98,.43,87.97,.44,131.94-.01,8.42-.09,10.68,2.28,10.22,10.45-.71,12.53-.38,25.14-.13,37.71,.24,12.1,4.41,16.17,16.45,16.3,14.53,.15,29.06,.21,43.59-.05,5.49-.1,8.3,.54,8.27,7.41-.28,71.51-.25,143.01-.03,214.52Zm-110.76-188.33c-23.16,0-46.32-.19-69.48,.1-8.23,.1-14.69-2.42-15-11.04-.33-9.19,6.34-12.8,14.88-12.81,46.32-.05,92.64-.05,138.95,0,8.52,0,15.14,3.41,14.91,12.76-.22,8.86-6.62,11.19-14.79,11.1-23.16-.26-46.32-.09-69.48-.09Zm.69,33.86c22.35,0,44.71,0,67.06,0,8.39,0,16.71,1.22,16.5,11.93-.2,10.35-8.47,12.11-16.81,12.12-45.1,.09-90.2,.09-135.3,0-8.48-.02-16.7-2.34-16.65-12.42,.05-10.39,8.53-11.66,16.95-11.65,22.75,.04,45.49,.01,68.24,.01Zm-.15,57.04c22.76,0,45.52,.09,68.27-.05,8.44-.05,15.49,2.21,15.44,11.84-.04,9.49-7.11,12.11-15.48,12.1-45.91-.01-91.82-.01-137.73,0-8.39,0-15.54-2.75-15.53-12.09,.01-9.38,7.06-11.92,15.57-11.86,23.15,.16,46.3,.05,69.45,.05Zm-.15,57.27c22.75,0,45.5,.15,68.25-.08,8.47-.09,15.59,1.95,15.58,11.57-.01,9.25-6.79,12.21-15.33,12.2-45.89-.07-91.78-.07-137.67,0-8.49,.02-15.5-2.83-15.65-11.95-.15-9.33,6.76-11.93,15.41-11.83,23.14,.26,46.28,.09,69.42,.09Z"/>
</svg>