<?xml version="1.0" encoding="UTF-8"?>
<svg id="Layer_1" data-name="Layer 1" xmlns="http://www.w3.org/2000/svg" viewBox="0 0 800 800">
  <defs>
    <style>
      .cls-1 {
        fill: none;
      }

      .cls-2 {
        fill: #010101;
      }
    </style>
  </defs>
  <rect class="cls-1" width="800" height="800"/>
  <path class="cls-2" d="M160.36,596.28c0-31.45,.09-62.9-.03-94.35-.08-21.08-13.41-34.44-34.32-34.64-11.5-.11-23-.05-34.51-.02-25.17,.06-37.91,12.76-38.01,38.25-.13,31.83,.02,63.67-.07,95.5-.02,8.61,1.95,20-11.08,19.66-11.5-.3-10.71-10.71-10.69-19.33,.08-32.6-.07-65.2,.06-97.8,.14-34.3,22.14-57.12,56.2-58.08,14.17-.4,28.4-.58,42.54,.28,24.85,1.52,43.53,16.46,49.68,40.39,1.96,7.61,5.43,8.41,11.84,8.39,48.31-.18,96.62,.21,144.93-.26,17.21-.17,31.02,5.48,42.99,17.7,24.4,24.9,49.27,49.35,73.9,74.04,2.97,2.98,7.08,5.84,8.16,9.49,4.37,14.81,13.93,11.91,24.81,9.12,76.73-19.7,153.54-39.11,230.36-58.5,18.63-4.7,40.38,7.82,47.74,27.1,7.21,18.89-1.45,43.1-18.47,51.83-6.2,3.18-11.92,3.26-16.05-3.04-4.34-6.61-1.08-11.25,4.41-15.5,10.73-8.3,13.36-17.57,8.39-27.78-4.67-9.6-13.79-13.25-26.4-10.08-79.81,20.01-159.59,40.13-239.4,60.12-5.23,1.31-7.96,3.97-10,9.27-12,31.25-50,39.96-74.29,16.69-23.79-22.8-46.69-46.53-70.07-69.77-5.64-5.61-8.27-11.47-1.66-17.78,6.17-5.89,11.64-3.05,16.85,2.19,22.16,22.27,44.49,44.37,66.63,66.67,6.51,6.56,13.75,11.06,23.3,9.62,9.5-1.43,16.56-6.87,19.19-16.02,2.79-9.72,.77-18.82-6.88-26.39-19.9-19.67-40.98-38.37-58.99-59.66-18.52-21.91-39.73-29.99-68.21-28.46-40.14,2.16-80.49,.77-120.74,.36-8.17-.08-10.22,2.38-10.14,10.31,.39,38.73,.33,77.48,.03,116.21-.05,6.53,1.37,9.43,8.4,10.16,74.21,7.77,137.19,44.63,200.91,79.03,32.81,17.71,63.79,18.13,96.89,.79,67.31-35.25,135.35-69.1,203.07-103.57,7.09-3.61,14.32-5.66,18.61,3.16,4.38,9.01-2.37,13.18-9.2,16.64-65.73,33.32-131.65,66.29-197.11,100.12-20.33,10.51-40.56,18.82-64.02,18.66-20.98-.15-39.63-6.36-57.6-16.45-38.31-21.5-77.96-40.32-118.03-58.25-22.93-10.27-47.73-12.92-71.98-17.83-8.42-1.7-10.02,1.63-9.99,9.56,.11,32.33-13.12,53.52-39.21,59.9-23.6,5.77-48.05,5.55-71.71,.11-22.94-5.27-38.21-25.38-39.49-49.29-.7-13-.15-26.07-.22-39.11-.04-7.73,3.58-13,11.34-12.94,7.28,.05,10.47,5.25,10.42,12.47-.08,11.12-.16,22.25,.05,33.37,.44,23.22,13.56,36.23,36.45,36.35,9.97,.05,20.01-.78,29.89,.16,27.36,2.59,42.08-16.89,40.92-40.18-1.48-29.46-.36-59.05-.36-88.58h-.04Zm-41.17,105.42c13.17-4.18,23.72-18.1,24.92-32.91,1.05-12.93-7.52-27.83-19.41-34.05-6.07-3.18-12.04-3.98-16.18,2.34-4.04,6.15-2,11.64,4.06,15.67,1.9,1.26,3.98,2.41,5.51,4.04,5.58,5.97,4.97,16.43-1.55,21.47-7.1,5.49-14.38,4.78-20.45-1.67-3.77-4.01-5.29-8.89-3.51-14.83,1.96-6.52-1.11-11.34-7.65-12.99-6.73-1.69-11.13,1.73-13.03,8.1-.97,3.25-1.14,6.75-1.37,8.21,.1,27.25,24.17,44.39,48.66,36.62ZM765.66,332.89c-4.95,14.03-10.1,28-15.32,41.94-5.85,15.64-16.72,20.73-32.78,15.19-14.39-4.98-28.83-9.91-42.91-15.69-5.32-2.18-7.72-.64-10.21,3.41-2.73,4.44-9.23,7.13-4.61,14.49,8.13,12.94,15.64,26.27,23.13,39.6,8.14,14.49,5.32,25.62-8.66,34.05-13.41,8.09-26.93,16.02-40.61,23.64-13.22,7.37-25.47,4-33.28-9.04-7.66-12.79-15.09-25.73-22.36-38.75-2.66-4.77-5.16-8.3-11.52-5.91-5.26,1.98-11.81,.47-12.64,9.72-1.23,13.66-4.53,27.12-6.71,40.7-3.12,19.36-12.43,26.14-31.9,22.89-14.67-2.45-29.34-4.89-44-7.42-13.94-2.4-21.69-12.96-19.54-27.3,2.33-15.5,4.66-31.04,8-46.34,1.95-8.92-5.06-9.57-9.37-13.23-5.19-4.41-8.25-.64-11.72,2.27-11.45,9.6-22.77,19.36-34.38,28.77-12.07,9.78-24.07,8.74-34.23-2.99-10.53-12.16-20.9-24.46-30.97-37.01-9.52-11.87-8.33-23.32,3.13-33.16,11.63-9.98,23.27-19.97,35.28-29.48,4.8-3.8,5.69-7.09,2.9-12.53-2.51-4.89-2.33-10.84-10.88-10.36-14.9,.83-29.89,.39-44.83,.18-16.76-.23-25.43-8.78-25.73-25.5-.26-14.95-.29-29.91,0-44.86,.32-16.36,8.85-24.66,24.88-24.82,7.28-.07,14.57-.01,21.85-.01,6.13,0,12.35-.64,18.38,.15,9.55,1.25,14.4-2.23,17.01-11.61,1.54-5.5,.48-8.21-3.58-11.5-11.61-9.41-22.99-19.1-34.32-28.85-12.82-11.02-13.9-21.67-3.38-34.73,9.61-11.92,19.42-23.69,29.38-35.33,11-12.85,23.01-13.84,35.93-3.13,10.92,9.05,21.68,18.27,32.55,27.38,4.01,3.36,7.31,6.88,13.68,2.63,5.87-3.93,9.93-6.93,8.21-15-3.11-14.58-5.54-29.31-7.77-44.06-2.21-14.61,4.94-24.55,19.4-27.35,16.47-3.18,33-6.11,49.52-9.02,10.48-1.85,21.46,4.87,24.2,16.38,3.8,15.96,7.02,32.14,8.94,48.41,1.05,8.86,7.1,8.4,12.49,10.22,5.94,2.01,8.95-1,11.69-6,7.17-13.07,14.67-25.98,22.33-38.77,7.97-13.32,19.63-16.57,33.23-9.07,14.05,7.75,27.95,15.81,41.67,24.13,12.67,7.68,15.64,19.33,8.37,32.46-7.4,13.37-14.82,26.78-23.06,39.64-3.92,6.12-1.55,9.39,2.29,13.72,3.67,4.14,6.04,7.87,13.07,4.87,13.99-5.98,28.51-10.78,42.91-15.78,14.76-5.13,25.52-.14,31.08,14.48,5.56,14.62,10.91,29.33,16.01,44.12,5.36,15.55,.34,26.13-14.97,31.88-14.26,5.36-28.49,10.88-43.02,15.41-7.29,2.27-6.37,7.12-6.6,12.44-.24,5.33,.14,8.98,6.63,10.96,14.19,4.34,28.05,9.78,41.98,14.94,16.44,6.09,21.57,16.98,15.73,33.54Zm-27.31-14.62c-15.87-5.39-31.58-11.24-47.39-16.79-8.64-3.03-13.23-7.86-11.51-18.03,1.2-7.07,1.03-14.63,0-21.75-1.36-9.4,2.29-14.41,10.8-17.36,15.84-5.49,31.48-11.58,47.38-16.88,6.58-2.19,9.32-4.31,5.95-11.84-4.83-10.77-8.68-22.05-12.1-33.37-1.98-6.53-4.96-7.19-10.69-4.98-15.99,6.19-32.15,11.95-48.2,18.02-8.29,3.14-14.37,1.39-19.57-6.25-4.71-6.92-10.53-13.15-16.28-19.28-4.92-5.24-5.61-10.12-1.8-16.43,9.08-15.07,17.47-30.56,26.6-45.6,3.41-5.62,3.89-8.87-2.85-12.26-10.57-5.33-20.78-11.42-30.81-17.73-5.33-3.36-8.28-3.29-11.49,2.75-6.81,12.82-14.37,25.25-21.61,37.85-9.71,16.89-9.69,16.81-29.52,12.97-5.63-1.09-11.36-1.82-17.08-2.22-7.59-.52-11.7-3.93-12.95-11.75-2.79-17.37-6.45-34.59-9.15-51.97-1.09-7-4-8.92-10.69-7.48-11.55,2.49-23.15,4.97-34.86,6.45-6.29,.8-7.7,3-6.53,8.83,2.85,14.25,5.68,28.52,7.8,42.89,3.31,22.46,3.53,21.51-13.67,29.48-5.17,2.4-10.11,5.54-14.65,9.01-7.12,5.43-13.06,4.16-19.44-1.37-13.31-11.55-27.08-22.57-40.34-34.18-4.21-3.69-6.46-3.48-9.89,.91-7.79,9.96-15.89,19.7-24.38,29.07-4.14,4.57-3.59,7.11,.99,10.8,13.72,11.06,26.98,22.69,40.68,33.78,6.02,4.87,7.14,10.47,4.62,17.31-3.16,8.59-6.66,17.06-9.45,25.77-2.19,6.86-6.16,9.86-13.45,9.69-14.18-.32-28.37-.09-42.56-.09-18.8,0-18.9,0-18.76,18.27,.08,11.05-3.69,25.79,1.91,32.18,6.52,7.46,21.64,1.15,31.11,2.36,10.67,0,19.5,.25,28.31-.08,7.31-.28,11.19,3.03,13.38,9.8,2.82,8.7,6.27,17.19,9.47,25.77,2.56,6.85,1.46,12.51-4.5,17.36-13.67,11.12-26.99,22.68-40.71,33.74-4.55,3.67-5.29,6.26-1.06,10.91,8.5,9.35,16.58,19.12,24.39,29.06,3.48,4.44,5.87,4.45,9.98,.82,10.62-9.39,21.63-18.34,32.47-27.48,20.52-17.3,16.91-14.13,34.91-2.99,4.21,2.6,8.67,4.83,13.15,6.93,7.03,3.3,10.48,7.86,8.84,16.29-3.36,17.26-5.71,34.71-8.97,52-1.18,6.27,.09,9.08,6.81,10,11.33,1.55,22.6,3.7,33.78,6.15,7.04,1.54,10.39-.13,11.41-7.76,1.92-14.4,4.74-28.69,7.07-43.04,1.89-11.63,4.51-21.74,20.2-20.51,6.19,.49,12.7-2.21,18.97-3.84,8.67-2.25,14.35,.21,18.72,8.49,7.85,14.87,17.1,28.99,24.96,43.86,3.51,6.64,6.59,6.54,12.22,3.01,10.36-6.5,20.95-12.67,31.75-18.39,5.13-2.72,5.12-5.14,2.38-9.66-7.35-12.09-14.27-24.43-21.32-36.7-12.7-22.12-12.37-18.15,2.98-34.77,3.37-3.65,6.64-7.52,9.21-11.74,4.91-8.06,11.28-9.12,19.61-5.93,16.01,6.13,32.3,11.52,48.19,17.91,6.35,2.55,8.46,.91,10.35-5.11,3.56-11.28,7.36-22.57,12.16-33.36,3.07-6.89,.99-9.36-5.27-11.49Zm-221.1,17.89c37.64-37.69,75.32-75.33,112.98-113,1.89-1.89,3.84-3.76,5.55-5.82,3.94-4.73,4.54-9.74,.1-14.41-4.75-5-10.2-4.69-15.39-.76-2.73,2.06-4.98,4.75-7.42,7.18-35.77,35.74-71.68,71.33-107.14,107.37-5.68,5.77-8.84,6.05-14.4,.17-13.43-14.2-27.53-27.75-41.32-41.61-5.34-5.36-11.17-9.02-17.75-2.52-6.46,6.39-3.52,12.25,2.07,17.79,16.05,15.91,31.97,31.96,47.9,47.99,4.49,4.52,9.52,7.69,16.34,7.17,8.1,.85,13.25-4.31,18.47-9.54Z"/>
</svg>