<?xml version="1.0" encoding="UTF-8"?>
<svg id="Layer_1" data-name="Layer 1" xmlns="http://www.w3.org/2000/svg" viewBox="0 0 800 800">
  <defs>
    <style>
      .cls-1 {
        fill: none;
      }

      .cls-2 {
        fill: #030403;
      }
    </style>
  </defs>
  <rect class="cls-1" width="800" height="800"/>
  <path class="cls-2" d="M226.02,610.29c-25.66,0-51.32,.04-76.99-.01-13.46-.02-21.01-5.44-20.9-14.81,.11-9.06,7.21-14.1,20.21-14.11,51.7-.03,103.39-.01,155.09-.01,1.12,0,2.23-.01,3.35,.01,9.32,.2,16.04,3.91,16.82,13.98,.66,8.47-6.58,14.79-17.25,14.88-26.78,.22-53.56,.07-80.33,.08ZM56.88,358.23c-7.84,.74-13.11,5.09-13.68,13.47-.52,7.53,6.23,14.84,13.53,15.07,7.06,.22,14.25-6.99,14.33-14.37,.07-7.56-6.79-14.86-14.17-14.16Zm700.75,197.52c-1.8,99.26-70.21,182.34-164.61,200.94-12.37,2.44-23.48-2.58-34.57-6.2-27.16-8.87-51.66-22.83-72.56-42.46-5.12-4.81-10.3-6.15-16.95-6.14-125.4,.13-250.81,.1-376.21,.09-33.82,0-49.76-15.97-49.78-49.93-.03-69.22,0-138.44,0-207.66,0-2.23-.07-4.47,.03-6.7,.49-10.31,5.98-16.78,14.12-16.74,8.07,.04,13.92,6.75,13.96,16.83,.14,28.65,.05,57.31,.06,85.96,0,43.91-.05,87.83,.03,131.74,.03,13.63,4.4,18.04,18.06,18.04,119.45,.06,238.9,.03,358.35,.02,1.47,0,2.95-.21,6.49-.49-10.66-17.11-19.6-33.29-25.63-50.86-8.66-25.27-12.73-51.29-11.24-77.94,.53-9.5-1.63-12.49-11.92-12.42-84.1,.5-168.2,.28-252.29,.28-16.9,0-24.52-4.38-24.87-14.28-.35-10.04,7.25-14.65,24.16-14.66,84.47,0,168.94-.17,253.41,.23,9.5,.04,12.23-2.68,11.51-11.83-.79-9.99-.49-20.1-.06-30.12,.25-5.89-1.72-7.75-7.56-7.62-14.5,.34-29.02,.11-43.54,.11-71.45,0-142.89,0-214.34-.02-3.71,0-7.56,.3-11.09-.57-7.61-1.87-12.84-6.74-12.26-14.99,.57-8.14,6.11-12.39,14.06-13.26,2.94-.32,5.95-.1,8.92-.1,84.47,0,168.94-.01,253.41,.02,6.21,0,12.36,1.29,14.38-7.73,1.07-4.79,6.6-6.43,11.4-7.91,31.54-9.7,62.96-19.77,94.56-29.25,6.82-2.05,9.22-5.08,9.18-12.36-.32-54.7-.39-109.41,.04-164.11,.07-8.94-3.14-10.34-10.97-10.19-23.06,.46-46.14,.3-69.21,.12-26.2-.2-42.41-16.16-42.77-42.4-.32-23.44-.35-46.89,.07-70.33,.13-7.49-1.62-10.25-9.76-10.23-103.82,.27-207.64,.15-311.46,.21-14.87,0-19.04,4.39-19.05,19.5-.04,69.96-.01,139.93-.03,209.89,0,3.72,.28,7.51-.32,11.14-1.27,7.64-6.35,12-13.85,12.03-7,.03-11.93-4.05-13.37-11.18-.66-3.24-.6-6.66-.61-9.99-.03-70.71-.09-141.41,0-212.12,.04-31.1,16.36-47.05,47.78-47.06,109.03-.02,218.06,.1,327.09-.19,9.74-.03,16.72,2.88,23.53,9.79,37.09,37.63,74.49,74.97,112.06,112.13,6.28,6.22,9.11,12.66,9.06,21.6-.32,56.94-.04,113.88-.3,170.82-.04,8.15,.93,12.39,10.14,7.85,10.31-5.07,20.55-3.38,31.18,.04,46.59,14.98,93.27,29.72,140.08,44.01,10.34,3.16,14.36,8.95,14.31,19.37-.23,42.42,.49,84.86-.27,127.27ZM507.89,165.86c-22.48-22.72-45.88-46.36-68.35-69.08,0,17.08-.04,36.34,.02,55.61,.02,8.63,4.92,13.22,13.11,13.36,19.52,.33,39.04,.11,55.23,.11Zm221.9,277.26c.12-6.64-1.74-9.49-8.49-11.54-41.86-12.69-83.52-26.02-125.23-39.2-5.06-1.6-9.95-2.28-15.21-.62-42.77,13.49-85.54,26.98-128.42,40.13-5.77,1.77-7.39,4.52-7.36,10.24,.24,38.67-1.23,77.41,.5,116.01,3.46,77.24,41.91,131.37,112.69,162.22,10.7,4.66,22.16,11.02,34.11,7.81,65.73-17.64,109.33-59,130.12-124,10.32-32.27,6.36-65.61,7.14-95.7,0-23.71-.24-44.54,.14-65.36Zm-316.65-129.49c-.14,11.45-5.73,17.03-17.2,17.42-10.04,.34-20.12,.53-30.13-.07-7.17-.42-8.89,2.3-8.55,8.96,.52,10.02,.36,20.1,.05,30.13-.34,10.79-5.81,16.57-16.7,16.76-20.46,.37-40.93,.34-61.4,.02-11.39-.18-16.93-6-17.29-17.46-.31-9.67-.49-19.37,.06-29.02,.4-7.01-1.29-9.99-9-9.42-9.62,.71-19.34,.38-29.01,.11-12-.34-17.72-5.97-17.87-18.03-.26-20.09-.26-40.19,0-60.29,.15-12.18,5.66-17.32,18.04-17.52,10.04-.16,20.11-.33,30.14,.08,5.88,.24,7.86-1.82,7.66-7.62-.35-10.41-.33-20.84-.02-31.25,.34-11.59,5.73-16.78,17.42-17.02,10.42-.21,20.84-.04,31.26-.04,10.05,0,20.1-.21,30.14,.06,11.08,.3,16.28,5.5,16.59,16.57,.28,10.04,.52,20.12-.08,30.13-.45,7.56,2.34,9.65,9.57,9.21,9.64-.59,19.34-.31,29.02-.1,11.8,.25,17.18,5.35,17.32,16.98,.24,20.47,.24,40.94,0,61.4Zm-28.3-42.45c-.21-6.26-2.51-7.3-7.87-7.14-10.03,.31-20.08,.3-30.11,.03-12.04-.32-17.64-5.92-17.97-17.93-.27-10.03-.29-20.08,.03-30.11,.17-5.35-.73-8.27-7.11-7.85-8.14,.53-16.36,.39-24.53,.04-5.39-.23-7.15,1.73-6.98,7.06,.33,10.4,.28,20.82,.04,31.23-.27,11.5-5.68,17.08-17.07,17.55-8.17,.34-16.45,.87-24.51-.11-11.72-1.43-14.94,2.75-14.47,14.39,.96,23.84,.29,23.86,23.86,23.86,32.12,0,32.25,.13,32.26,32.25,0,5.95,.04,11.9,0,17.85-.03,3.38,.81,5.91,4.91,5.71,10.69-.52,23.26,3.85,31.5-1.78,6.18-4.23,1.19-16.7,2.01-25.46,.07-.74,0-1.49,0-2.23,0-23.4,2.9-26.33,26.05-26.33,31.24,0,31.02,0,29.96-31.02Zm316.78,288.34c-2.46,64.94-43.17,118.08-104.51,138.57-6.71,2.24-12.77,2.22-19.45-.01-63.27-21.2-104.4-77.62-104.8-144.15-.07-12.27-.01-24.54-.01-36.81,0-15.99,.34-31.99-.13-47.97-.3-10.19,4.03-15.91,13.57-18.82,30.47-9.3,60.9-18.77,91.29-28.35,6.64-2.09,13.01-2.15,19.64-.07,30.4,9.55,60.82,19.06,91.29,28.38,9,2.75,13.62,8.08,13.55,17.77-.22,30.49,.72,61.02-.43,91.47Zm-27.8-35.45c0-13.76-.31-27.52,.14-41.26,.2-6.03-2.22-8.39-7.63-10.01-23.42-7.03-46.77-14.33-70.06-21.76-5.92-1.89-11.44-1.98-17.38-.09-23.65,7.56-47.35,14.93-71.1,22.17-4.4,1.34-6.94,3-6.87,8.26,.41,27.87-1.28,55.91,1.1,83.6,4.21,49.06,30.98,83.05,75.62,103.28,6.5,2.94,12.61,3,19.27,.14,29.99-12.86,51.86-33.88,65.87-63.39,12.3-25.89,11.52-53.39,11.03-80.93Zm-36.01-8.77c-5.55-2.48-11.02-1.66-15.47,2.7-10.36,10.16-20.6,20.44-30.86,30.7q-16.51,16.5-32.64,.41c-1.58-1.58-3.13-3.19-4.75-4.73-6.54-6.2-13.61-7.75-20.84-1.45-6.52,5.67-6.1,13.86,1.2,21.48,9.27,9.66,18.77,19.11,28.37,28.44,9.15,8.88,14.82,9.04,23.86,.17,18.06-17.72,35.83-35.72,53.73-53.6,3.27-3.26,5.58-6.96,5.48-11.77-.12-5.81-2.98-10.07-8.09-12.36Z"/>
</svg>