<?xml version="1.0" encoding="UTF-8"?>
<svg id="Layer_1" data-name="Layer 1" xmlns="http://www.w3.org/2000/svg" viewBox="0 0 800 800">
  <defs>
    <style>
      .cls-1 {
        fill: none;
      }

      .cls-2 {
        fill: #010101;
      }
    </style>
  </defs>
  <rect class="cls-1" width="800" height="800"/>
  <path class="cls-2" d="M742.78,571.03c-5.83-6.53-7.1-14.07-7.02-22.7,.36-40.43-.02-80.87,.27-121.31,.09-12.15-2.91-22.95-10.78-32.09-3.75-4.35-4.31-7.01-.03-11.88,11.18-12.72,13.63-28.02,8.76-43.99-6.18-20.3-20.5-31.58-41.48-34-18.76-2.16-38.04,8-46.39,25.19-9.08,18.69-7.73,36.88,5.63,53.46,2.3,2.85,5.46,4.82,1.28,8.97-6.96,6.93-10.13,16.06-12.77,26.74-5.33-7.81-9.47-14.92-14.64-21.18-7.57-9.18-9.66-19.22-9.47-31.02,.63-40.05,.11-80.12,.32-120.18,.06-11.73-2.89-22.49-10.61-31.02-5.02-5.55-3.72-8.37,.32-13.58,21.89-28.22,6.32-69.93-28.12-76.32-20.39-3.78-39.72,4.52-50.3,21.6-10.71,17.28-9.61,37.62,2.49,54.62,1.85,2.6,7.76,4.83,4.02,8.97-7.54,8.36-11.71,18.16-14.08,30.58-7.2-10.63-13.24-19.67-25.62-20.84-7.24-.69-17.13,3.78-21.04-2.31-3.42-5.33-.84-14.51-.89-21.99-.02-3-.01-5.99,0-8.99,.05-25.23-9.63-45.93-30.17-60.6-6.22-4.44-5.24-6.82-1.67-11.95,8.72-12.51,9.55-26.68,5.14-40.71-6.07-19.3-20.1-30.56-39.99-32.84-19.44-2.23-35.38,5.36-45.77,22.2-10.54,17.09-10.27,34.91,.53,51.71,3.82,5.93,3.23,7.82-2.3,11.79-14.75,10.57-24.07,24.89-27.97,43.05-3.13,14.55-1.25,29.06-1.74,43.57-.17,5.01-.94,7.75-6.7,7.13-17.25-1.84-32.22,1.48-40.84,19.79-1.82-10.59-5.2-19.26-11.73-26.18-4.03-4.27-3.37-6.73,.1-11,12.03-14.83,14.75-31.68,7.24-49.27-7.91-18.53-22.65-28.68-42.8-29.24-19.18-.54-34.02,8.15-43.23,25.06-9.68,17.77-8.39,35.6,3.88,51.45,4.95,6.39,5.03,9.43-.17,15.41-6.96,8.02-9.76,18.15-9.71,29.09,.17,43.06,.09,86.12,.02,129.17,0,3.66,1,7.54-1.3,10.94-7.29,10.76-14.6,21.5-22.5,33.14-2.56-9.99-5.2-18.63-11.53-25.23-3.97-4.13-3.38-6.54,.12-10.84,16.34-20.1,14.33-48.84-4.06-65.88-18.24-16.9-47.22-16.85-65.26,.11-18.6,17.48-20.56,45.39-4.08,65.72,3.47,4.28,4.18,6.65,.29,10.99-8.32,9.28-11.39,20.46-11.29,33.03,.32,41.56,.04,83.12,.21,124.68,.02,5.83-.58,11.22-4.59,15.57-17.39,18.87-22.89,41.2-19.9,66.21,.53,4.43,.07,8.98,.08,13.47,.04,20.35,7.88,28.99,27.94,29.37,6.53,.12,8.18,2.16,8.04,8.34-.36,16.84-.27,33.7-.08,50.54,.17,14.81,9.71,24.53,24.47,24.81,14.6,.28,29.22,.12,43.82,.05,18.72-.09,28.04-9.4,28.21-28.37,.15-16.1,.21-32.2-.07-48.3-.09-5.33,1.55-7.03,6.98-7,35.21,.22,70.42,.22,105.63,0,5.43-.03,7.08,1.63,6.96,6.98-.32,13.47-.26,26.96-.06,40.43,.31,21.12,14.93,36.09,36.03,36.19,47.95,.23,95.89,.25,143.84,0,20.94-.11,35.46-15.26,35.75-36.48,.17-12.73,.34-25.47-.09-38.19-.22-6.45,.97-9.11,8.41-9.01,34.08,.45,68.18,.47,102.26-.01,7.95-.11,9.14,2.82,8.96,9.65-.42,15.71-.34,31.45-.08,47.17,.29,17.5,9.87,26.81,27.35,26.94,14.61,.1,29.22,.18,43.83-.03,15.51-.22,25.14-9.78,25.31-25.14,.18-15.72,.42-31.46-.11-47.17-.28-8.12,1.02-11.79,10.64-11.53,16.09,.44,25.15-9.78,25.35-26.2,.09-7.49-.74-15.07,.16-22.45,2.64-21.71-3.09-40.59-17.6-56.85Zm-54.63-242.07c12.6-.1,24.65,11.97,24.43,24.47-.22,12.46-11.25,23.06-24.08,23.15-13.16,.09-23.81-9.97-24.13-22.81-.33-12.96,10.93-24.7,23.79-24.81Zm-19.44,83.15c4.8-9.38,14.26-12.84,24.94-10.22,11.57,2.84,18.76,11.48,18.93,24.6,.4,32.03,.13,64.06,.13,96.09-.7,.28-1.39,.56-2.09,.85-14.64-21.55-31.03-42.17-43.27-65.01-7.44-13.87-6.22-31.47,1.36-46.31Zm-100.06-262.89c12.51,.16,23.17,11.03,23.35,23.81,.18,13.43-9.4,23.44-22.78,23.8-13.84,.37-24.59-9.75-24.64-23.2-.05-13.15,11.21-24.57,24.07-24.4Zm-19.79,83.26c3.95-9.22,13.61-12.75,23.75-10.63,10.82,2.26,18.83,9.03,19.03,20.43,.6,34.2,.22,68.42,.22,105.8-15.71-23.18-30.85-42.79-42.87-64.15-9.02-16.03-7.29-34.7-.11-51.45ZM399.67,65.89c13.41-.34,24.78,10.17,25.13,23.23,.33,12.25-10.67,23.65-23.33,24.18-12.99,.54-24.96-10.64-25.13-23.47-.16-12.47,10.7-23.61,23.33-23.93Zm-46.6,147.08c.48-9.7,.02-19.45,.22-29.17,.55-26.25,21.27-46.27,47.62-46.16,25.69,.1,46.34,20.15,46.92,45.73,.23,10.09-.22,20.21,.24,30.29,.27,5.83-1.48,7.72-7.44,7.53-13.46-.43-26.94-.14-40.41-.14-13.1,0-26.21-.37-39.29,.15-6.62,.26-8.18-2.11-7.88-8.23Zm-119.75-63.75c12.53,.4,23.19,11.44,23.25,24.11,.07,13.5-10.53,23.72-24.38,23.51-13.36-.2-23.13-10.16-23.06-23.51,.08-13.32,11.31-24.52,24.19-24.11Zm-24.02,94.92c.17-13.31,11.45-23.32,24.03-22.93,12.26,.39,22.28,10.35,23.26,22.96,1.62,20.85-.34,40.09-15.19,57.23-11.58,13.37-20.28,29.22-32.24,46.9,0-37.03-.28-70.6,.14-104.17Zm-96.7,84.82c12.83-.19,24.3,11.38,24.19,24.4-.11,12.85-10.63,23.12-23.77,23.21-12.85,.09-23.98-10.27-24.46-22.75-.47-12.41,11.39-24.67,24.04-24.86Zm-23.84,95.81c.32-14.19,12.14-24.3,24.82-23.81,13.11,.5,22.14,10.62,23.39,25.31,1.54,18.01-1.15,34.08-13.27,48.94-12.32,15.09-22.23,32.14-33.19,48.33-.66-.23-1.32-.47-1.98-.71,0-32.69-.5-65.38,.23-98.05Zm52.92,311.49c-11.21-.5-22.47-.42-33.69-.02-5.62,.2-7.01-1.95-6.78-7.12,.35-7.84,.09-15.72,.09-25.29,.92-7.51-4.07-19.51,1.85-25.27,5.85-5.69,17.78-1.52,27.03-1.66,18.54-.28,18.54-.08,18.54,18.8,0,10.85-.23,21.72,.1,32.56,.16,5.37-.66,8.29-7.14,8Zm140.84-83.47c-34.82-.51-69.66-.21-104.49-.21-34.46,0-68.93-.59-103.36,.33-11.63,.31-9.1-6.2-9.32-12.52-.24-6.9-1.33-12.49,9.75-12.39,69.28,.6,138.58,.65,207.86,0,13.34-.12,8.85,7.97,9.86,14.46,1.33,8.55-2,10.45-10.3,10.33Zm187,83.52c-6.86,.14-8.84-1.68-8.74-8.68,.41-29.57,.17-59.16,.17-88.74,0-3,.29-6.03-.12-8.98-1-7.24-4.07-13.58-12.37-13.25-8.48,.34-12.08,6.11-12.05,14.48,.09,31.45-.22,62.91,.2,94.35,.11,7.85-1.1,11.27-10.14,10.85-17.57-.81-35.21-.65-52.8-.05-7.75,.26-9.18-2.54-9.1-9.56,.34-31.07,.01-62.15,.23-93.23,.06-8.89-2.08-16.52-12-16.77-10.17-.25-12.54,7.86-12.57,16.4-.09,30.7,.09,61.41-.18,92.11-.04,4.18,3.62,11.27-6.05,10.94-7.8-.26-15.42-.09-16.87-10.32-.26-1.84-.21-3.74-.21-5.61,0-43.06-.38-86.12,.15-129.17,.58-46.58,39.18-83.3,85.66-82.42,43.09,.82,80.15,37.04,81.25,80.03,.56,21.7,.1,43.43,.1,65.15,.04,0,.08,0,.12,0,0,22.47-.17,44.93,.08,67.4,.11,10.36-4.34,14.84-14.78,15.05Zm-116.26-299.48c.01-26.89,20.7-47.64,47.44-47.6,26.7,.05,47.21,20.83,47.21,47.84,0,26.88-20.82,47.77-47.46,47.64-26.78-.14-47.22-20.87-47.2-47.88Zm91.95,57.13c19.34-17.19,29.56-38.43,27.05-64.16-1.88-19.25-10.51-35.67-25.56-48.26-29.17-24.4-72.72-21.74-98.51,5.95-24.95,26.78-29.77,72.4,7.87,106.69-34.94,17.71-55.99,45.05-62.2,83.19-.96,5.87-1.49,11.99-.95,17.87,.74,8.03-2.12,9.87-9.92,9.8-62.18-.51-124.36-.54-186.54-.72-9.64-.03-19.28,0-29.14,0-.14-5.55,3.34-8.29,5.51-11.49,76.27-112.66,152.73-225.21,228.81-338,4.81-7.14,9.69-9.51,18.09-9.45,55.06,.4,110.13,.28,165.19,.15,5.61-.01,9.3,1.09,12.79,6.29,77.6,115.36,155.47,230.54,233.27,345.77,1.2,1.78,2.13,3.75,3.09,5.48-2.02,2.87-4.47,1.72-6.47,1.72-69.67,.08-139.35,.08-209.02,.03-4.77,0-10.47,2.19-10.3-6.92,.85-47.23-20.84-81.25-63.06-103.94Zm252.61,240.58c-5.37,4.7-17.79,1.5-27.08,1.55-18.29,.1-18.29,.03-18.29-17.92,0-11.23,.26-22.47-.11-33.68-.18-5.64,1.19-8.07,7.4-7.81,11.21,.47,22.47,.34,33.69,.04,4.86-.13,6.7,1.4,6.51,6.34-.3,7.85-.08,15.72-.08,25.33-1.03,7.83,4.33,20.57-2.04,26.15Zm28.26-81.68c-34.82-.72-69.66-.29-104.49-.29s-69.67-.49-104.49,.29c-10.96,.24-8.74-5.96-8.64-11.93,.1-6.19-2.65-13,9.04-12.9,69.66,.54,139.33,.55,208.99,0,12.62-.1,8.61,7.63,9.35,13.89,.87,7.45-.3,11.13-9.75,10.94Z"/>
</svg>