<?xml version="1.0" encoding="UTF-8"?>
<svg id="Layer_1" data-name="Layer 1" xmlns="http://www.w3.org/2000/svg" viewBox="0 0 800 800">
  <defs>
    <style>
      .cls-1 {
        fill: none;
      }

      .cls-2 {
        fill: #010101;
      }
    </style>
  </defs>
  <rect class="cls-1" width="800" height="800"/>
  <path class="cls-2" d="M757.95,162.63c0-22.01-8.56-40.21-25.13-54.78-17.41-15.31-38.3-18.69-60.33-17.68-7.47,.34-10.92-1.34-10.08-9.58,.72-7,.01-14.14,.18-21.2,.21-8.7-1.67-16.28-12.1-16.23-9.89,.05-11.59,7.38-11.42,15.63,.17,8.19-.14,16.39,.1,24.57,.13,4.46-.73,6.91-6.01,6.78-11.91-.3-23.83-.25-35.74-.02-4.77,.09-6.61-1.46-6.45-6.38,.3-8.92,.1-17.87,.06-26.8-.04-8.19-3.32-14.04-12.26-13.82-8.31,.21-11.34,5.92-11.37,13.59-.04,8.93-.21,17.88,.05,26.8,.14,4.66-1.16,6.73-6.21,6.62-11.91-.27-23.83-.26-35.74,0-4.96,.11-6.4-1.78-6.26-6.53,.28-9.3,.06-18.61,.03-27.92-.02-7.44-3.48-12.37-11.1-12.55-8.12-.19-12.12,4.72-12.23,12.68-.12,9.31-.27,18.62,.02,27.92,.15,4.89-1.63,6.49-6.42,6.4-11.91-.24-23.83-.27-35.74,.01-5,.12-6.37-1.78-6.22-6.53,.3-9.3-.05-18.61,.09-27.92,.12-7.66-3.55-12.36-11.02-12.53-7.97-.18-12.14,4.46-12.04,12.7,.11,8.93-.16,17.87,.08,26.8,.13,4.74-.42,7.7-6.41,7.5-11.9-.39-23.83-.28-35.73-.03-4.83,.1-6.53-1.54-6.36-6.42,.31-9.3,0-18.61,.1-27.92,.08-8.25-4.16-12.84-12.11-12.63-7.47,.2-11.08,4.94-10.95,12.59,.16,9.3-.21,18.62,.1,27.92,.16,4.82-1.37,6.57-6.29,6.46-11.91-.27-23.83-.26-35.74,0-4.87,.1-6.5-1.65-6.36-6.46,.28-9.3,.14-18.61,0-27.92-.12-7.98-4.19-12.85-12.29-12.61-7.61,.22-11.04,5.17-11.04,12.62,0,9.31-.25,18.62,.05,27.92,.15,4.83-1.45,6.57-6.33,6.46-11.53-.26-23.09-.4-34.62,.05-6.23,.24-7.53-2.3-7.28-7.85,.38-8.55,.13-17.12,.07-25.68-.05-7.66-3.13-13.36-11.45-13.52-8.94-.17-12.17,5.71-12.19,13.89-.02,8.56-.36,17.14,.1,25.68,.33,6.04-1.96,7.66-7.67,7.46-10.78-.38-21.6-.43-32.38,.02-6.2,.26-8.61-1.44-8.25-8,.5-9.28,.18-18.61-.06-27.91-.18-7.13-4.35-11.07-11.26-11.16-6.87-.08-11.2,3.77-11.75,10.78-.43,5.55-.23,11.16-.24,16.74q-.02,19.31-18.93,19.42c-46.02,.25-76.49,30.93-76.49,77.12-.02,171.63-.02,343.26,0,514.88,0,45.79,30.17,75.89,76.07,75.9,93.81,.03,187.63,0,281.44,0,94.93,0,189.86,.08,284.79-.04,41.34-.05,72.61-31.27,72.63-72.58,.09-174.23,.06-348.47,0-522.7Zm-24.36,524.76c-.02,26.4-20.13,46.14-46.84,46.18-95.69,.15-191.38,.06-287.07,.07-93.45,.01-186.92-.79-280.36,.48-29.35,.4-52.66-22.24-52.49-52.82,.97-172.02,.57-344.04,.4-516.07-.04-41.57,32.56-54.59,67.45-50.69,4.55,.51,3.83,3.89,3.68,6.68-.45,8.7,1.52,16.61,11.58,16.85,10.18,.24,12.72-7.56,11.85-16.33-.62-6.27,2.24-7.51,7.76-7.3,9.29,.35,18.65,.6,27.91-.05,8.88-.62,14.27,.67,12.7,11.6-.9,6.3,3.35,10.49,9.41,11.97,5.94,1.45,10.22-1.83,12.81-6.63,1.31-2.42,1.38-5.85,1.09-8.74-.63-6.34,1.67-8.52,8.11-8.19,9.65,.51,19.39,.66,29.02-.03,8.42-.6,12.4,1.5,11.18,10.75-.91,6.85,2.88,11.41,9.6,12.9,5.43,1.21,9.57-1.63,12.09-6.03,1.36-2.38,1.81-5.78,1.45-8.57-.98-7.74,2.48-9.47,9.51-9.04,9.27,.56,18.65,.69,27.9-.03,8.5-.66,12.41,1.64,11.05,10.76-.95,6.37,2.22,10.74,8.4,12.62,5.35,1.63,9.27-.76,12.65-4.76,2.48-2.92,2.16-6.42,1.74-9.56-1.04-7.77,2.48-9.45,9.47-9.03,8.9,.54,17.91,.72,26.79-.03,9.25-.79,14.07,1.2,12.39,11.79-1.05,6.59,3.36,10.43,9.38,11.8,5.87,1.34,10.28-1.73,12.7-6.75,1.2-2.49,1.05-5.9,.7-8.8-.78-6.5,1.95-8.3,8.15-8,9.66,.46,19.39,.61,29.03-.03,8.25-.55,12.57,1.2,11.29,10.66-.92,6.84,2.99,11.42,9.62,12.93,5.89,1.35,10.24-1.8,12.68-6.79,1.22-2.5,1.22-5.89,.88-8.78-.77-6.6,2.06-8.31,8.24-7.99,8.91,.46,17.9,.58,26.79-.01,9.07-.6,14.76,.53,13.47,12.03-.83,7.39,4.73,11.91,11.93,11.69,6.59-.2,10.79-4.48,11.24-11.54,.09-1.48,.29-3,.11-4.46-.72-5.68,1.28-7.97,7.37-7.72,11.15,.45,22.35,.46,33.5,0,6.22-.26,7.75,2.26,7.25,7.81-.75,8.39,1.82,15.72,11.25,15.85,10,.14,12.94-7.32,12.08-16.21-.59-6.09,1.96-7.77,7.66-7.42,7.42,.47,14.96-.36,22.31,.49,23.4,2.7,41.12,22.5,41.13,46.33,.11,175.37,.12,350.75-.01,526.12Zm-67.51-525.71c-88.62-.01-177.24,0-265.86,0s-177.24-.01-265.86,0c-30.24,0-44.25,14.07-44.25,44.37,0,153.42,0,306.83,0,460.25,0,30.25,14.19,44.54,44.24,44.54,177.24,0,354.48,0,531.72,0,30.88,0,44.82-14.02,44.82-45.09,0-153.04,0-306.09,0-459.13,0-31.12-13.78-44.94-44.8-44.95Zm2.23,524.65c-178.35,.01-356.7,.01-535.05,0-15.94,0-18.66-2.76-18.66-18.94,0-154.15,0-308.3,0-462.46,0-16.31,2.54-18.89,18.61-18.89,89.36,0,178.72,0,268.08,0,88.99,0,177.98,0,266.96,0,15.11,0,18.11,3.02,18.11,18.28,.01,154.52,.01,309.05,0,463.57,0,15.36-2.99,18.42-18.06,18.42Zm-243.53-297.43c.09-9.44,9.26-14.93,17.19-10.62,1.29,.7,2.43,1.69,3.56,2.64q13.54,11.35,23.56-3.59c9.07-13.55,18.03-27.16,27.16-40.67,4.29-6.34,9.57-10.87,17.48-5.64,8.15,5.39,6.65,12.51,2.19,19.3-14.64,22.29-29.38,44.52-44.34,66.59-6.42,9.47-13.04,10.24-21.21,2.66-7.35-6.82-14.23-14.14-21.33-21.23-2.73-2.72-4.7-5.75-4.27-9.43Zm175.46,6.03c13.42-20.12,25.44-38.28,37.62-56.35,4.45-6.59,9.19-13.32,18.68-7.67,7.39,4.4,7.83,11.04,1.32,20.89-14.28,21.6-28.6,43.18-43.07,64.66-6.7,9.95-13.42,10.83-21.92,2.83-7.02-6.61-13.62-13.66-20.38-20.54-5.74-5.84-7.28-12.34-1.13-18.52,6.45-6.49,12.82-3.94,18.25,1.95,3.46,3.75,6.56,7.83,10.64,12.75Zm-285.45-.79c12.92-19.37,24.95-37.53,37.12-55.61,4.47-6.64,9.26-13.23,18.7-7.56,7.38,4.43,7.76,11.12,1.2,20.97-14.15,21.25-28.33,42.47-42.61,63.63-7.62,11.28-13.53,11.97-23.13,2.75-6.69-6.42-13.22-13.02-19.69-19.66-5.72-5.87-6.95-12.5-.87-18.59,5.92-5.92,12.08-4.1,17.45,1.46,3.61,3.73,7.11,7.58,11.82,12.61Zm300.63-184.2c-26.9-.19-48,20.78-47.92,47.64,.07,26.38,20.77,47.19,47.1,47.35,26.89,.16,47.95-20.79,47.89-47.64-.06-26.42-20.68-47.16-47.07-47.35Zm-.82,71.46c-12.54-.3-23.26-11.22-23.38-23.8-.12-12.67,10.3-23.49,23.06-23.93,12.96-.45,24.56,10.66,24.68,23.62,.12,12.77-11.66,24.42-24.36,24.12ZM186.1,567.46c-26.85-.07-47.79,21.02-47.61,47.94,.18,26.29,21.05,47.02,47.38,47.05,26.87,.04,47.82-21.06,47.62-47.93-.2-26.39-20.95-46.99-47.39-47.06Zm23.65,48.14c-.42,12.62-11.44,23.39-23.86,23.32-12.76-.07-24.38-12.03-23.89-24.6,.49-12.58,11.5-23.17,24.04-23.14,13.13,.04,24.14,11.38,23.7,24.41Zm405.91-48.14c-26.9-.3-48.12,20.58-48.16,47.4-.04,26.41,20.56,47.33,46.86,47.59,26.94,.26,48.09-20.57,48.13-47.4,.04-26.46-20.46-47.3-46.83-47.59Zm-1.37,71.46c-12.59-.55-23.15-11.59-23.07-24.12,.09-13.14,11.46-24.1,24.49-23.62,12.63,.47,23.37,11.53,23.25,23.93-.13,12.79-12.11,24.35-24.67,23.8ZM328.93,209.93c-26.62,.02-47.13,20.59-47.22,47.33-.09,26.72,20.34,47.5,46.87,47.69,26.63,.18,47.54-20.31,47.71-46.77,.17-27.42-20.29-48.27-47.35-48.25Zm-.06,71.49c-12.84-.1-24.15-11.87-23.71-24.69,.44-12.71,11.34-23.18,24.01-23.07,12.45,.12,23.68,11.05,24,23.37,.32,12.39-11.73,24.48-24.3,24.38Zm142.84-71.49c-26.6,.13-47.01,20.73-47.02,47.47,0,26.71,20.43,47.41,46.94,47.55,26.68,.13,47.41-20.28,47.63-46.9,.22-27.34-20.44-48.24-47.55-48.11Zm0,71.49c-12.2-.19-23.65-11.52-23.91-23.66-.27-12.53,11.57-24.24,24.39-24.11,12.68,.13,23.43,10.79,23.63,23.46,.2,12.82-11.39,24.51-24.1,24.31Zm-141.97,286.02c-27.13-.37-48.06,20.39-48.02,47.64,.04,26.66,20.61,47.32,47.18,47.37,26.59,.06,47.3-20.51,47.39-47.08,.1-26.89-19.98-47.57-46.55-47.94Zm-.94,71.49c-12.41-.15-23.43-11.16-23.64-23.64-.21-12.64,10.18-23.55,22.96-24.11,12.72-.55,24.78,10.72,25.05,23.44,.27,12.41-11.81,24.46-24.37,24.32Zm143.26-71.49c-26.62-.05-47.28,20.51-47.37,47.12-.09,26.85,20.12,47.63,46.59,47.9,27.19,.28,48.05-20.45,47.98-47.67-.07-26.78-20.53-47.3-47.2-47.34Zm-.43,71.49c-12.21-.25-23.63-11.62-23.84-23.73-.21-12.57,11.64-24.21,24.46-24.04,12.69,.18,23.4,10.87,23.56,23.54,.16,12.83-11.47,24.49-24.18,24.23Zm.65-191.32c-26.07-.33-47.64,21.6-47.59,48.38,.04,26.8,21.25,47.78,48.05,47.53,25.94-.24,46.62-21.56,46.54-47.99-.08-26.28-20.97-47.59-46.99-47.92Zm-.28,71.49c-13.33,.02-24.66-11.15-24.21-23.85,.45-12.61,11.36-23.11,24.08-23.17,13.32-.06,24.21,10.91,23.94,24.1-.27,12.85-10.71,22.9-23.81,22.92Zm-142.91-71.49c-25.76-.09-47.14,21.34-47.39,47.51-.25,26.93,20.69,48.39,47.23,48.41,26.14,.02,47.21-20.96,47.35-47.12,.14-26.99-20.85-48.7-47.19-48.79Zm.23,71.49c-13.56,.14-24.42-10.48-24.19-23.66,.22-12.79,10.75-23.22,23.59-23.36,13.17-.14,24.66,11.09,24.46,23.91-.2,12.48-11.04,22.98-23.86,23.11Zm-142.85-71.48c-25.84-.54-48,21.72-48,48.2,0,26.14,21.09,47.54,46.97,47.7,26.66,.16,48.05-21.12,48.04-47.81,0-25.99-21.09-47.56-47.02-48.1Zm-.28,71.48c-13.46,.09-24.51-10.71-24.24-23.68,.27-12.6,11.06-23.2,23.76-23.34,13.33-.14,24.2,10.69,24.03,23.94-.17,12.91-10.46,22.99-23.55,23.07Zm1.21-190.22c-26.68-.6-48.55,20.34-48.91,46.84-.37,26.67,20.82,48.7,47.14,48.99,25.65,.29,47.44-21.21,47.84-47.21,.4-26.3-20.2-48.04-46.06-48.62Zm-1.35,71.53c-12.63,.05-23.49-10.38-24.05-23.1-.55-12.46,10-23.54,22.75-23.9,13.97-.39,24.6,9.24,24.98,22.63,.37,13.13-10.5,24.31-23.68,24.37Zm428.86,47.21c-25.7,.06-47.2,21.66-47.45,47.65-.25,26.19,20.69,47.93,46.48,48.25,26.71,.34,48.34-20.72,48.52-47.26,.19-26.63-21.39-48.71-47.56-48.65Zm-.13,71.48c-13.09-.07-23.38-10.12-23.59-23.03-.21-13.23,10.67-24.11,23.99-23.98,12.73,.12,23.49,10.66,23.79,23.29,.3,12.98-10.72,23.79-24.19,23.72Z"/>
</svg>