<?xml version="1.0" encoding="UTF-8"?>
<svg id="Layer_1" data-name="Layer 1" xmlns="http://www.w3.org/2000/svg" viewBox="0 0 800 800">
  <defs>
    <style>
      .cls-1 {
        fill: none;
      }

      .cls-2 {
        fill: #010101;
      }
    </style>
  </defs>
  <rect class="cls-1" width="800" height="800"/>
  <path class="cls-2" d="M744.54,635.08c-9.08-9.33-18.39-18.44-27.61-27.65-35.28-35.23-70.58-70.44-105.82-105.71-2-2-5.3-3.62-4.41-7.17,.64-2.56,3.15-2.88,5.5-2.56,10.93,1.51,18.17-4.6,25.14-11.73,10.65-10.92,21.71-21.45,32.3-32.43,11.87-12.31,12-25.03-.01-37.16-32.21-32.5-64.57-64.86-97.09-97.05-11.48-11.37-24.72-11.05-36.37,.13-5.44,5.22-10.73,10.6-17.78,17.57,0-6.59,0-10.24,0-13.89,0-66.6,.25-133.21-.1-199.81-.24-44.83-30.37-74.38-75.26-74.42-108.69-.09-217.39-.12-326.08,.01-44.3,.06-74.76,30.85-74.78,75.17-.05,80.37-.02,160.74,0,241.11,0,21.05,8.48,29.38,29.96,29.42,25.68,.05,51.39,.61,77.04-.28,10.35-.36,11.96,3,11.91,12.38-.39,73.67-.36,147.34-.16,221.02,.12,45.54,29.61,75.43,75.08,76.13,27.54,.42,55.09,.27,82.63-.05,6.97-.08,10.16,1.4,9.5,9.17-.72,8.5-.31,17.1-.13,25.66,.31,14.83,9.61,24.71,24.23,24.76,55.46,.2,110.93,.2,166.39-.01,14.05-.05,23.57-9.94,23.94-23.9,.24-8.92,.47-17.88-.08-26.78-.42-6.78,1.63-9.17,8.65-8.92,12.24,.44,24.75,1.13,36.52-2.99,29.35-10.28,45.98-31.16,50.32-65.43,19.78,20.05,37.58,38.4,55.74,56.39,15.71,15.56,38.53,16.07,52.87,1.67,14.56-14.63,13.78-36.38-2.07-52.66ZM152.31,364.97c-25.66-.41-51.33-.48-76.98,.03-7.61,.15-9.08-2.39-9.02-9.38,.3-40.89,.15-81.79,.15-122.69,0-38.66,.83-77.35-.26-115.99-.85-29.99,26.01-50.05,46.48-49.56,26.9,.64,47.93,20.84,48.04,49.24,.31,79.93,.04,159.86,.32,239.79,.02,7.01-1.94,8.66-8.72,8.55Zm368.11-1.75c10.02-9.42,19.67-19.26,29.21-29.18,3.54-3.68,5.77-4.02,9.67-.08,29.83,30.16,59.92,60.06,89.91,90.06,1.53,1.53,2.9,3.21,4.69,5.21-1.78,2-3.14,3.69-4.67,5.22-9.73,9.74-19.66,19.29-29.17,29.25-3.66,3.84-5.79,3.95-9.65,.04-29.83-30.16-59.84-60.14-89.99-89.99-4.06-4.02-4.32-6.48-.01-10.53Zm-18.71,35.56c3.63-3.72,5.95-4.22,9.84-.3,24.57,24.84,49.35,49.48,74.03,74.2,1.29,1.29,2.33,2.83,3.58,4.37-1.42,1.6-2.57,3.04-3.87,4.34-14.96,15-30.03,29.89-44.86,45.01-3.55,3.62-5.76,4.32-9.8,.22-24.5-24.88-49.23-49.53-74.11-74.03-3.7-3.65-3.04-5.68,.23-8.89,15.12-14.84,30.15-29.76,44.96-44.91Zm23.6,156.79c0,3.23-2.02,4.54-3.54,6.08-9.65,9.8-19.61,19.3-28.92,29.4-4.33,4.7-6.82,3.25-10.5-.46-29.6-29.77-59.25-59.51-89.14-88.99-4.55-4.48-4.54-7.06,.1-11.37,9.79-9.1,19.08-18.74,28.45-28.28,3.18-3.24,5.38-5.19,9.76-.75,29.98,30.41,60.27,60.51,90.46,90.73,1.27,1.27,2.43,2.65,3.33,3.64Zm-246.34,79.65c-4.02,23.23-26.59,41.03-49.56,39.15-24.48-2-44-22.05-44.08-46.38-.24-69.56-.1-139.13-.1-208.7,0-97.47-.23-194.93,.18-292.4,.09-21.16-3.95-40.45-17.16-57.29,2.16-3.67,5.47-1.93,8.05-1.93,89.32-.11,178.65,.45,267.96-.46,23.86-.24,51.03,17.26,50.8,51.34-.37,53.19-.1,106.39-.09,159.59,0,19.34-.85,38.74,.3,58.02,.77,12.89-4.01,24.77-4.07,37.33-.02,3.32-3.07,4.91-5.12,6.97-13.39,13.43-26.81,26.82-40.2,40.24-6.69,6.71-12.42,14.53-23.98,13.04-4.72-.61-8.91,3.12-12.41,6.62-12.62,12.63-25.43,25.07-37.86,37.88-10.95,11.29-10.94,24.09,.11,35.57,8.98,9.33,18.52,18.11,27.82,27.14-.4,.82-.79,1.65-1.19,2.47-29.69,0-59.38-.03-89.07,.01-20.28,.03-28.08,8.06-28.62,28.33-.56,21.15,1.97,42.39-1.67,63.45Zm231.11,98.58c-24.91-.3-49.82-.13-74.74-.13-24.54,0-49.09-.23-73.62,.15-6.87,.1-9.91-1.11-9.45-8.91,.72-12.22,.31-24.52,.17-36.78-.11-9.38,4.46-13.43,13.67-13.42,46.11,.08,92.21,.09,138.32,0,9.26-.02,13.8,4.2,13.8,13.42,0,12.64-.37,25.29,.18,37.9,.29,6.74-2.34,7.85-8.33,7.77Zm102.52-96.79c-4.53,22.15-22.72,36.44-45.28,37.44-4.08,.18-8.23-.33-12.26,.15-9.14,1.09-15.43-1.07-20.63-10-5.67-9.72-16.21-13.9-27.69-13.91-47.6-.08-95.19-.11-142.79,.02-13.26,.03-23.93,5.82-30.37,17.37-3.1,5.56-6.73,6.74-12.41,6.55-10.77-.36-21.55-.1-35.65-.1,25.35-29.76,17.67-63.42,18.36-95.5,.2-9.21,2.47-11.83,11.73-11.68,33.46,.55,66.93,.43,100.4,.04,6.97-.08,11.74,2.03,16.43,6.97,11.78,12.38,23.96,24.4,36.2,36.34,12.64,12.33,25.38,12.29,38.14-.07,10.41-10.08,20.43-20.58,30.84-30.67,7.66-7.43,14.49-15,13.05-26.85-.18-1.51,.83-3.87,2.06-4.7,2.43-1.64,3.99,.86,5.48,2.34,17.64,17.57,36.16,34.39,52.47,53.12,7.77,8.92,4.16,22.23,1.93,33.15Zm120.02,25.05c-.17,9.64-9.47,15.05-17.5,10.48-2.84-1.62-5.17-4.2-7.53-6.55-43.13-43.07-86.04-86.35-129.51-129.07-6.98-6.86-5.11-10.26,.93-15.41,5.21-4.44,8.01-10.47,16.25-2.06,42.91,43.81,86.59,86.85,129.98,130.19,3.63,3.62,8.11,6.88,7.39,12.42ZM340.37,114.77c33.88,0,67.75,.15,101.63-.11,8.86-.07,15.83,1.9,17.1,11.7,1.02,7.86-5.68,12.5-17.27,12.5-68.12,.03-136.25-.03-204.37,.08-7.79,.01-14.32-1.49-16.34-10.02-1.89-8.03,4.7-14.09,15.4-14.12,34.62-.1,69.24-.04,103.86-.04Zm0,71.41c33.88,0,67.76,.17,101.63-.12,8.91-.08,15.81,1.92,17.08,11.7,1.03,7.89-5.6,12.54-17.25,12.55-68.13,.04-136.25,.05-204.38-.01-11.65-.01-18.44-6.03-16.29-14.37,2-7.74,7.73-9.88,15.33-9.83,34.62,.21,69.24,.09,103.87,.09Zm-.12,71.28c34.93,0,69.87,.07,104.8-.04,8.65-.03,13.83,4.51,13.93,12.49,.1,7.73-5.64,11.59-13.33,11.96-2.22,.11-4.46,.04-6.69,.04-17.84,0-35.68,0-53.51,0-47.57,0-95.14,0-142.7,0-2.6,0-5.21,.13-7.8-.04-7.88-.52-14.25-3.62-13.86-12.5,.37-8.42,6-12.01,14.36-11.95,18.95,.14,37.91,.04,56.86,.04,15.98,0,31.96,0,47.94,0Zm-.32,71.4c33.08,0,66.16,0,99.24,0,2.23,0,4.46-.01,6.69,.01,8.09,.09,12.98,4.83,13.14,12.21,.17,7.64-5.27,12.06-13,12.29-10.4,.3-20.81,.1-31.22,.1-57.61,0-115.22,0-172.83,0-2.97,0-6,.29-8.91-.14-6.92-1.03-12.2-4.5-12.01-12.13,.2-7.9,5.14-12.06,12.97-12.27,8.17-.22,16.35-.06,24.53-.06,27.13,0,54.27,0,81.4,0Zm-36.41,95.99c-21.9,0-43.81-.11-65.71,.05-8.67,.06-15.86-1.82-16.81-11.9-.76-8.09,5.55-12.54,17.15-12.55,44.18-.04,88.35,.07,132.53-.09,8.77-.03,15.79,1.93,16.78,11.91,.81,8.14-5.42,12.53-17.12,12.56-22.27,.06-44.55,.02-66.82,.02Zm-28.72,71.29c-12.99,0-25.97-.06-38.96,.02-8.64,.05-15.03-3.24-14.74-12.58,.27-8.63,6.45-11.63,14.61-11.6,25.97,.11,51.94,.07,77.91,.02,8.23-.02,14.12,3.32,14.19,12.01,.07,8.75-5.87,12.13-14.06,12.13-12.99,0-25.97,0-38.96,0Z"/>
</svg>