<?xml version="1.0" encoding="UTF-8"?>
<svg id="Layer_1" data-name="Layer 1" xmlns="http://www.w3.org/2000/svg" viewBox="0 0 14 14">
  <defs>
    <style>
      .cls-1 {
        fill: #393939;
      }

      .cls-2 {
        fill: none;
      }
    </style>
  </defs>
  <rect class="cls-2" width="14" height="14"/>
  <path class="cls-1" d="M9.43,10.94c-1.08-.02-2.01-.4-2.78-1.15-.73-.72-1.46-1.45-2.18-2.18-.39-.39-.5-.86-.35-1.38,.15-.48,.49-.79,.99-.9,.48-.1,.91,.02,1.27,.37,.65,.65,1.29,1.29,1.94,1.94,.19,.2,.42,.29,.69,.19,.41-.15,.54-.66,.24-.97-.78-.79-1.54-1.59-2.36-2.35-1.02-.95-2.54-1.07-3.77-.38-1.18,.67-1.82,2.07-1.56,3.4,.26,1.36,1.36,2.42,2.72,2.62,.48,.07,.94,.02,1.41-.09,.21-.06,.39,.06,.45,.26,.05,.19-.05,.37-.24,.45-.07,.03-.15,.05-.23,.07-1.23,.27-2.36,.03-3.34-.74-1.18-.93-1.7-2.17-1.51-3.66,.19-1.53,1.04-2.63,2.48-3.19,1.54-.6,2.98-.32,4.2,.81,.78,.72,1.51,1.49,2.26,2.25,.54,.55,.54,1.39,0,1.92-.53,.53-1.37,.52-1.92-.03-.66-.65-1.31-1.31-1.97-1.97-.18-.18-.4-.24-.64-.16-.23,.08-.36,.24-.4,.48-.04,.23,.07,.41,.23,.57,.7,.7,1.4,1.4,2.1,2.1,.47,.47,1.03,.78,1.68,.91,1.44,.3,2.96-.46,3.58-1.81,.64-1.39,.25-3.03-.94-3.93-.86-.65-1.82-.83-2.86-.57-.18,.05-.35,.04-.47-.12-.09-.12-.1-.26-.03-.4,.06-.12,.17-.17,.29-.2,2.35-.67,4.77,.96,5.04,3.4,.26,2.38-1.61,4.45-3.98,4.44Z"/>
</svg>