<?xml version="1.0" encoding="UTF-8"?>
<svg id="Layer_1" data-name="Layer 1" xmlns="http://www.w3.org/2000/svg" viewBox="0 0 14 14">
  <defs>
    <style>
      .cls-1 {
        fill: #393939;
      }

      .cls-2 {
        fill: none;
      }
    </style>
  </defs>
  <rect class="cls-2" width="14" height="14"/>
  <path class="cls-1" d="M13.47,4.07c-.11-.15-.29-.2-.46-.13-.09,.03-.15,.1-.21,.17-.76,.76-1.53,1.53-2.29,2.29-.58,.58-1.15,1.15-1.73,1.73-.19,.19-.39,.39-.58,.58-.06,.07-.14,.12-.19,.2h0s-.09,.08-.13,.12c-.7,.7-1.41,1.41-2.11,2.11-.08,.08-.16,.17-.26,.24-.36-.36-.72-.72-1.08-1.08-.33-.33-.65-.65-.98-.97,0,0-.01,0-.01,0,0-.02-.01-.03-.02-.05-.05-.05-.11-.11-.16-.16-.01-.01-.02-.03-.04-.04-.59-.59-1.17-1.18-1.76-1.76-.05-.05-.05-.07,0-.12,.34-.33,.67-.67,1.01-1.01,.21-.2,.4-.42,.62-.61,0,0,0,0,0,0,0,0,0,0,0,0,.69,.69,1.39,1.38,2.08,2.08,.07,.06,.13,.15,.23,.18,.21,.07,.36-.02,.49-.18,.01,0,.03-.02,.04-.03,.59-.59,1.18-1.17,1.76-1.76,.3-.3,.59-.6,.89-.9h0s.09-.09,.14-.13c.02-.02,.03-.04,.03-.06,0,0,.01,0,.02,0,.34-.34,.68-.68,1.02-1.02,.36-.36,.72-.72,1.07-1.08,.06-.06,.09-.07,.15,0,.14,.15,.29,.29,.44,.44,.04,.04,.05,.07,0,.12-.31,.3-.62,.61-.92,.92-.57,.57-1.13,1.14-1.7,1.7-.21,.21-.43,.43-.64,.65-.05,.05-.11,.09-.15,.15-.76,.76-1.52,1.52-2.29,2.28-.08,.08-.14,.16-.24,.22-.17-.17-.34-.35-.51-.52-.55-.55-1.1-1.1-1.65-1.65-.16-.16-.4-.15-.55,.02-.14,.15-.13,.38,.03,.54,.59,.59,1.19,1.19,1.78,1.78,.19,.19,.38,.38,.57,.56,.21,.26,.47,.27,.68,.01,.01-.01,.03-.02,.04-.04,.57-.57,1.15-1.15,1.72-1.72,.33-.33,.65-.66,.98-.98,.06-.04,.11-.1,.15-.16,.04,0,.06-.04,.08-.06,.81-.81,1.61-1.61,2.42-2.42,.34-.34,.68-.68,1.02-1.02,.21-.21,.21-.42,0-.63-.34-.35-.69-.69-1.03-1.03-.19-.19-.42-.19-.61,0-.65,.65-1.3,1.3-1.95,1.95-.17,.17-.34,.33-.5,.51-.06,.05-.12,.1-.17,.17h0s-.04,.03-.06,.05c-.66,.66-1.31,1.31-1.97,1.97-.15,.15-.29,.31-.46,.45,0,0,0,0,0,.01,0,0,0,0,0,0,0,0,0,0,0,0h0s0,0,0-.01c-.5-.5-1-1-1.5-1.49-.2-.2-.41-.4-.61-.6-.06-.08-.13-.15-.23-.18-.2-.05-.35,.03-.46,.19,0,0-.02,0-.02,.01-.7,.7-1.4,1.4-2.1,2.11-.17,.17-.17,.4,0,.57,.32,.32,.63,.63,.95,.95,.4,.4,.8,.79,1.2,1.19h0c.04,.05,.09,.09,.14,.14h0s.06,.07,.1,.1c.73,.73,1.46,1.46,2.19,2.19,.02,.02,.04,.04,.06,.06,.21,.2,.45,.19,.64-.04,.01-.01,.03-.02,.04-.04,.66-.66,1.32-1.32,1.98-1.98,.24-.24,.47-.47,.71-.71,.05-.04,.09-.08,.13-.13,.01-.02,.03-.04,.03-.06,0,0,.01,0,.02,0,.03-.03,.05-.05,.08-.08,.45-.45,.9-.9,1.35-1.35,.77-.77,1.54-1.54,2.31-2.31,.31-.31,.63-.63,.94-.94,.12-.12,.13-.34,.03-.47Z"/>
</svg>