<?xml version="1.0" encoding="UTF-8"?>
<svg id="Layer_1" data-name="Layer 1" xmlns="http://www.w3.org/2000/svg" viewBox="0 0 14 14">
  <defs>
    <style>
      .cls-1 {
        fill: #393939;
      }

      .cls-2 {
        fill: none;
      }
    </style>
  </defs>
  <rect class="cls-2" width="14" height="14"/>
  <path class="cls-1" d="M9.71,9.59c-.85-.85-1.69-1.7-2.54-2.54-.04-.04-.04-.06,0-.1,.27-.27,.54-.54,.81-.81,.8-.8,1.61-1.61,2.41-2.41,.17-.17,.17-.4,0-.57-.09-.09-.19-.19-.28-.28-.55-.55-1.11-1.1-1.66-1.66-.3-.31-.67-.48-1.1-.5-.48-.02-.9,.13-1.25,.47-.71,.7-1.4,1.41-2.11,2.11-1.09,1.09-2.18,2.18-3.26,3.27-.11,.11-.22,.2-.28,.35v.18c.04,.07,.06,.14,.12,.19,.19,.19,.38,.38,.57,.57,.7,.7,1.39,1.4,2.09,2.1,.95,.95,1.89,1.89,2.84,2.84,.28,.28,.63,.45,1.03,.49,.51,.04,.96-.11,1.32-.47,.66-.65,1.31-1.31,1.97-1.97,.16-.16,.16-.4,0-.56-.23-.23-.46-.46-.68-.69Zm-.17,1.02c-.55,.55-1.1,1.1-1.65,1.65-.34,.34-.91,.34-1.25,0-.67-.67-1.33-1.33-2-2-.7-.7-1.4-1.4-2.09-2.1-.37-.37-.74-.74-1.11-1.12-.04-.04-.04-.06,0-.09,0,0,0,0,0,0,1.32-1.32,2.64-2.64,3.95-3.96,.41-.41,.83-.83,1.24-1.24,.18-.18,.39-.26,.63-.27,.24,0,.45,.08,.62,.25,.56,.55,1.11,1.11,1.67,1.67,.03,.03,.03,.05,0,.08-.01,0-.02,.02-.03,.03-1.06,1.06-2.12,2.13-3.19,3.19-.16,.16-.18,.35-.07,.52,.02,.02,.04,.04,.05,.06,.52,.52,1.03,1.03,1.55,1.55,.56,.56,1.11,1.12,1.67,1.68,.04,.04,.04,.06,0,.1Zm3.99-3.79c-.04-.36-.17-.67-.42-.93-.45-.46-.9-.91-1.36-1.37-.15-.15-.38-.14-.53,0-.07,.06-.13,.13-.19,.19-.66,.66-1.33,1.33-1.99,1.99-.17,.17-.17,.4,0,.58,.72,.72,1.43,1.43,2.15,2.15,.2,.2,.42,.2,.62,0,.42-.42,.84-.84,1.26-1.27,.22-.22,.36-.48,.44-.77,.02-.07,.02-.15,.05-.22v-.34s-.01-.01-.01-.02Zm-1.03,.83c-.33,.32-.65,.65-.97,.98-.03,.03-.05,.03-.08,0-.53-.53-1.05-1.05-1.58-1.58-.04-.04-.02-.06,0-.08,.5-.5,1-1,1.5-1.5q.11-.11,.22,0c.32,.32,.63,.63,.95,.95,.16,.17,.23,.37,.23,.6,0,.26-.1,.47-.27,.65Z"/>
</svg>