<?xml version="1.0" encoding="UTF-8"?>
<svg id="Layer_1" data-name="Layer 1" xmlns="http://www.w3.org/2000/svg" viewBox="0 0 14 14">
  <defs>
    <style>
      .cls-1 {
        fill: #393939;
      }

      .cls-2 {
        fill: none;
      }
    </style>
  </defs>
  <rect class="cls-2" width="14" height="14"/>
  <path class="cls-1" d="M12.47,6.32c0-.71,0-1.42,0-2.14,0,0,0,0,0,0,.02-.23-.05-.34-.27-.44,0,0,0,0,0,0-.02-.01-.03-.02-.05-.03-1.61-.93-3.22-1.86-4.82-2.79-.17-.1-.32-.08-.49,.01-1.06,.62-2.12,1.22-3.18,1.84-.56,.32-1.11,.65-1.66,.97,0,0,0,0,0,0-.23,.1-.29,.2-.27,.46,0,.05,0,.1,0,.14,0,1.81,0,3.62,0,5.43,0,.22,.08,.36,.27,.47,.84,.48,1.68,.97,2.51,1.45,.77,.44,1.54,.89,2.31,1.33,0,0,0,0,0,0,.2,.17,.44,.14,.57-.02,.04,0,.07-.02,.1-.04,1.58-.91,3.15-1.82,4.73-2.73,.18-.11,.25-.24,.25-.45,0-1.16,0-2.32,0-3.47ZM6.96,1.72c.1-.05,.17-.06,.27,0,1.31,.76,2.63,1.52,3.95,2.28,.06,.03,.11,.07,.17,.09-.1,.07-.21,.12-.32,.19-.65,.38-1.31,.76-1.96,1.13,0,0,0,0-.01,0-.6-.35-1.19-.69-1.79-1.04-.12-.07-.24-.06-.36,0-.1,.06-.21,.12-.31,.18-.49,.28-.97,.57-1.46,.85,0,0,0,0-.01,0-.76-.43-1.52-.87-2.28-1.31,.04-.01,.07-.04,.1-.06,1.34-.77,2.67-1.55,4.01-2.32Zm1.75,4.93c0,.35,0,.7,0,1.04,0,.17-.06,.28-.21,.35-.29,.16-.58,.33-.87,.5-.05,.03-.11,.06-.16,.1,0-.41,0-.83,0-1.24,0-.13,.04-.22,.16-.28,.36-.2,.72-.41,1.08-.62-.01,.05-.01,.1-.01,.14Zm-2.01,2.03c-.4-.23-.79-.46-1.19-.68-.07-.04-.08-.08-.08-.15,0-.45,0-.9,0-1.36,0,0,0,0,0,0,.36,.22,.74,.42,1.11,.64,.12,.07,.16,.15,.16,.28,0,.42,0,.85,0,1.27Zm-4.19,1.06c-.07-.04-.1-.08-.09-.16,0-1.61,0-3.22,0-4.83,0,0,.01,0,.02,0,.76,.44,1.52,.87,2.27,1.31,0,0,.02,0,.03,.01,0,.69,0,1.38,0,2.07,0,.14,.07,.24,.18,.31,.59,.34,1.19,.68,1.78,1.02,0,0,0,.02,0,.02,0,.88,0,1.76,0,2.64,0,0,0,0,0,0-1.4-.81-2.79-1.61-4.19-2.42Zm4.74-3.29c-.11,.07-.21,.07-.32,0-.36-.21-.72-.42-1.09-.63,.07-.02,.13-.06,.19-.1,.32-.18,.63-.36,.94-.54,.08-.05,.15-.05,.23,0,.22,.14,.46,.27,.69,.4,.15,.08,.28,.19,.45,.24-.36,.21-.73,.41-1.09,.63Zm4.31,3.3c-1.33,.77-2.65,1.53-3.98,2.3-.04,.02-.07,.04-.1,.07,0-.87,0-1.74,0-2.61,0,0,0-.02,0-.02,.59-.34,1.19-.68,1.78-1.02,.12-.07,.18-.18,.18-.32,0-.69,0-1.37,0-2.06,0,0,.01,0,.02-.01,.1-.06,.21-.12,.31-.18,.65-.38,1.31-.76,1.96-1.13,0,.05,0,.11,0,.16,0,1.51,0,3.02,0,4.54,0,.14-.05,.23-.17,.3Z"/>
</svg>