<?xml version="1.0" encoding="UTF-8"?>
<svg id="Layer_1" data-name="Layer 1" xmlns="http://www.w3.org/2000/svg" viewBox="0 0 14 14">
  <defs>
    <style>
      .cls-1 {
        fill: #393939;
      }

      .cls-2 {
        fill: none;
      }
    </style>
  </defs>
  <rect class="cls-2" width="14" height="14"/>
  <path class="cls-1" d="M1.2,8.01c-.06,.08-.11,.15-.17,.22-.1,.11-.22,.13-.34,.05-.12-.08-.15-.21-.07-.33,.18-.27,.36-.53,.55-.79,.08-.12,.21-.15,.33-.07,.27,.17,.54,.35,.8,.53,.13,.09,.16,.22,.06,.35-.09,.12-.21,.15-.35,.06-.09-.06-.18-.12-.29-.19,.07,.48,.2,.91,.4,1.31,.83,1.7,2.17,2.74,4.04,3.07,.11,.02,.23,.04,.29,.15,.05,.09,.04,.18-.02,.26-.08,.11-.19,.11-.31,.09-.48-.08-.95-.2-1.39-.4-1.82-.82-2.99-2.2-3.46-4.15-.01-.06-.02-.12-.07-.18Zm7.1,4.65c1.79-.42,3.1-1.45,3.97-3.06,.31-.57,.5-1.19,.58-1.83,.02-.17-.03-.3-.22-.32-.16-.01-.25,.09-.27,.25-.03,.18-.07,.35-.11,.53-.48,2.02-2.22,3.64-4.29,3.98,.07-.11,.13-.19,.19-.29,.08-.13,.06-.26-.07-.35-.13-.08-.26-.05-.35,.08-.18,.26-.35,.52-.52,.78-.08,.12-.06,.24,.05,.32,.27,.19,.54,.37,.82,.54,.12,.07,.25,.05,.33-.09,.08-.13,.05-.25-.07-.34-.07-.05-.14-.1-.22-.15,.07-.02,.13-.04,.19-.06Zm4.43-7.24c-.58-2.06-1.89-3.43-3.9-4.13-.32-.11-.65-.19-.99-.21-.15,0-.25,.07-.27,.21-.02,.15,.06,.25,.22,.28,.06,0,.12,.03,.18,.04,2.18,.45,3.59,1.75,4.25,3.87,.02,.05,.04,.11,0,.17-.07-.05-.13-.09-.2-.14-.14-.1-.27-.08-.37,.05-.1,.14-.05,.27,.08,.36,.25,.18,.5,.35,.76,.52,.14,.09,.27,.08,.37-.06,.18-.25,.35-.5,.51-.76,.08-.12,.06-.25-.07-.33-.13-.09-.25-.06-.35,.06-.05,.07-.1,.14-.17,.23-.03-.07-.04-.12-.06-.16ZM5.57,1.19c-1.13,.28-2.08,.86-2.87,1.71-.83,.89-1.32,1.94-1.51,3.14-.03,.16,.04,.28,.2,.32,.17,.03,.26-.07,.3-.23,.02-.1,.04-.21,.06-.31,.42-1.89,1.54-3.19,3.32-3.94,.21-.09,.43-.17,.7-.21-.06,.09-.1,.15-.14,.21-.1,.13-.1,.26,.03,.37,.12,.1,.27,.07,.38-.07,.17-.24,.35-.47,.51-.72,.09-.13,.1-.27-.04-.37-.25-.18-.51-.36-.78-.53-.12-.07-.25-.05-.33,.07-.08,.13-.05,.26,.07,.35,.06,.05,.13,.09,.22,.15-.05,.02-.08,.04-.11,.05Zm5.06,6.26c.26,.28,.31,.64,.12,.98-.16,.27-.32,.54-.48,.8-.23,.37-.55,.5-.97,.41-.14-.03-.27-.07-.41-.1-.23-.05-.38,.04-.44,.27-.04,.14-.08,.28-.13,.42-.12,.33-.41,.54-.76,.55-.35,0-.71,0-1.06,0-.37,0-.68-.24-.79-.6-.04-.12-.07-.24-.11-.36-.08-.25-.21-.32-.47-.27-.17,.04-.34,.1-.53,.11-.35,.03-.62-.11-.81-.41-.17-.27-.33-.55-.49-.82-.2-.35-.16-.7,.12-.99,.1-.11,.21-.2,.31-.31,.14-.14,.14-.3,0-.44-.1-.11-.22-.21-.32-.33-.27-.29-.31-.64-.11-.97,.16-.28,.33-.56,.5-.84,.16-.26,.4-.4,.71-.4,.21,0,.41,.07,.6,.12,.25,.06,.39-.01,.47-.26,.04-.12,.07-.24,.11-.36,.11-.36,.42-.6,.8-.6,.34,0,.68,0,1.02,0,.38,0,.67,.21,.79,.56,.04,.13,.08,.25,.12,.38,.08,.27,.22,.35,.5,.28,.19-.05,.38-.11,.59-.11,.3,0,.54,.12,.71,.38,.19,.29,.36,.59,.53,.89,.18,.31,.12,.68-.13,.94-.11,.11-.22,.21-.32,.33-.15,.16-.14,.3,0,.45,.1,.11,.21,.21,.31,.31Zm-.36,.35c-.11-.11-.22-.21-.33-.33-.32-.34-.32-.8,0-1.13,.1-.11,.21-.21,.31-.31,.06-.06,.11-.13,.11-.24,0-.06-.03-.12-.07-.17-.09-.16-.18-.31-.28-.46-.32-.53-.26-.59-.95-.4-.56,.15-.95-.09-1.11-.64-.03-.11-.07-.22-.1-.32-.05-.15-.15-.23-.31-.23-.35,0-.69,0-1.04,0-.17,0-.27,.09-.32,.25-.04,.14-.08,.28-.13,.42-.11,.31-.32,.49-.65,.55-.27,.05-.51-.06-.76-.11-.19-.04-.33,0-.43,.16-.16,.27-.32,.54-.48,.81-.09,.15-.07,.28,.05,.4,.1,.1,.21,.21,.31,.31,.32,.34,.32,.79,0,1.13-.1,.11-.21,.21-.31,.31-.12,.12-.14,.25-.05,.4,.16,.27,.32,.54,.48,.81,.1,.16,.24,.22,.43,.16,.15-.05,.31-.08,.47-.11,.41-.08,.78,.13,.92,.52,.06,.15,.1,.3,.14,.46,.04,.15,.14,.25,.3,.25,.36,0,.72,0,1.08,0,.14,0,.24-.08,.28-.22,.04-.14,.08-.28,.13-.42,.14-.44,.53-.67,.98-.58,.15,.03,.3,.06,.45,.1,.19,.06,.33,0,.43-.16,.16-.27,.32-.54,.48-.81,.08-.14,.07-.27-.04-.38Zm-3.25,1.04c.61,0,1.11-.25,1.5-.72,.11-.13,.11-.26-.02-.37-.12-.1-.25-.07-.36,.03-.03,.03-.06,.07-.09,.11-.46,.49-1.19,.59-1.75,.24-.6-.37-.85-1.09-.6-1.72,.38-.97,1.64-1.28,2.4-.43,.14,.16,.28,.18,.4,.07,.12-.1,.11-.26-.02-.41-.38-.44-.88-.67-1.46-.68-1.04,0-1.92,.9-1.92,1.94,0,1.05,.87,1.93,1.92,1.93Zm.76-2.52c-.1-.05-.2-.04-.28,.04-.15,.15-.3,.3-.46,.45-.25,.25-.26,.26-.53,.02-.12-.11-.25-.13-.37,0-.12,.12-.09,.25,.02,.37,.13,.13,.26,.27,.4,.4,.16,.15,.26,.15,.41,0,.28-.27,.56-.55,.83-.83,.06-.06,.11-.12,.1-.18,0-.13-.05-.21-.14-.25Zm.67,.59c-.02,.12,.13,.26,.25,.26,.12,0,.26-.12,.26-.25,0-.13-.12-.26-.26-.26-.14,.02-.24,.1-.26,.25Z"/>
</svg>