<?xml version="1.0" encoding="UTF-8"?>
<svg id="Layer_1" data-name="Layer 1" xmlns="http://www.w3.org/2000/svg" viewBox="0 0 14 14">
  <defs>
    <style>
      .cls-1 {
        fill: #393939;
      }

      .cls-2 {
        fill: none;
      }
    </style>
  </defs>
  <rect class="cls-2" width="14" height="14"/>
  <path class="cls-1" d="M13.25,12.61c0-.58-.21-.8-.8-.8-.12,0-.19-.03-.23-.15-.2-.58-.59-1-1.14-1.26-.11-.06-.13-.08-.03-.18,.36-.35,.47-.78,.37-1.27-.14-.7-.88-1.16-1.63-1-.67,.14-1.14,.89-1,1.56,.07,.33,.24,.59,.49,.81-.15,.09-.29,.15-.41,.24-.11,.08-.16,.05-.24-.04-.18-.22-.4-.39-.66-.51-.17-.07-.14-.12-.03-.23,.48-.49,.5-1.26,.07-1.78-.44-.53-1.19-.64-1.77-.27-.72,.46-.82,1.44-.22,2.08,.04,.04,.19,.09,.02,.17-.3,.13-.55,.33-.77,.58-.05,.06-.09,.08-.16,.03-.14-.1-.3-.18-.44-.27,.63-.77,.65-1.52,.05-2.07-.53-.48-1.35-.45-1.85,.05-.45,.45-.63,1.31,.11,2.02-.07,.04-.13,.06-.18,.09-.47,.25-.83,.6-1.03,1.1-.09,.23-.19,.31-.43,.3-.39-.02-.65,.27-.66,.66,0,.16,0,.32,0,.48,0,.47,.1,.57,.57,.57,3.82,0,7.64,0,11.45,0,.06,0,.11,0,.17,0,.24-.02,.37-.16,.38-.39,0-.18,0-.35,0-.53Zm-4.06-3.35c0-.5,.42-.92,.92-.92,.51,0,.93,.42,.92,.92,0,.5-.42,.91-.91,.91-.5,0-.93-.42-.93-.92Zm-.72,2.39c.35-.67,.89-1.04,1.65-1.04,.76,0,1.3,.37,1.64,1.04,.07,.14,.03,.16-.11,.16-.5,0-1.01,0-1.51,0-.52,0-1.04,0-1.56,0-.14,0-.18-.03-.11-.16Zm-2.43-2.79c0-.5,.43-.91,.94-.91,.51,0,.92,.43,.91,.93-.01,.5-.42,.9-.92,.9-.51,0-.93-.43-.93-.92Zm-.44,1.98c.67-.82,2.09-.82,2.75,0,.06,.08,.07,.13,0,.22-.15,.19-.27,.39-.34,.62-.04,.12-.1,.14-.21,.14-.28,0-.56,0-.84,0-.27,0-.55,0-.82,0-.12,0-.18-.03-.21-.14-.07-.22-.18-.43-.33-.61-.07-.09-.07-.14,0-.23Zm-2.7-1.58c0-.5,.43-.92,.93-.91,.51,0,.91,.42,.91,.93,0,.51-.44,.92-.94,.9-.5-.01-.91-.44-.9-.92Zm-.72,2.39c.35-.66,.89-1.02,1.63-1.03,.75,0,1.29,.36,1.64,1.02,.08,.14,.06,.19-.12,.19-.51,0-1.02,0-1.53,0-.5,0-1.01,0-1.51,0-.17,0-.18-.05-.11-.18Zm10.17,1.47c-1.79,0-3.58,0-5.37,0-1.88,0-3.76,0-5.64,0-.18,0-.26-.04-.23-.23,.02-.12,0-.24,0-.36,0-.22,.07-.28,.29-.29,.04,0,.07,0,.11,0,3.64,0,7.28,0,10.93,0,.36,0,.39,.03,.39,.4q0,.47-.48,.47Zm.91-8.09c-.03-1.07,0-2.15,0-3.22,0-.13,0-.27-.03-.4-.17-.59-.62-.92-1.27-.93-2.16,0-4.32,0-6.48,0-.09,0-.18,0-.27,.02-.53,.08-.95,.5-1.01,1.03-.05,.41-.02,.83-.02,1.24,0,.56,0,.56-.5,.81-.11,.05-.16,.05-.21-.06-.09-.19-.22-.36-.4-.48-.13-.09-.15-.14-.02-.26,.32-.3,.42-.69,.34-1.12-.1-.53-.53-.93-1.06-1-.52-.07-1.03,.21-1.27,.68-.24,.48-.16,1.05,.24,1.43,.12,.11,.12,.15-.01,.25-.38,.29-.58,.68-.58,1.16,0,1.02,0,2.05,0,3.07,0,.39,.19,.58,.58,.58,.58,0,1.15,0,1.73,0,.46,0,.63-.18,.63-.64,0-.62,0-1.23,0-1.85,0-.08-.03-.17,.07-.22,.14-.07,.28-.15,.44-.23,0,.06,.01,.1,.02,.15,.04,.85,.52,1.31,1.37,1.31,2.13,0,4.25-.02,6.38,0,.81,0,1.38-.59,1.36-1.35ZM1.32,1.9c0-.45,.38-.83,.84-.82,.45,0,.81,.37,.8,.82,0,.45-.36,.81-.82,.81-.45,0-.82-.37-.82-.81Zm1.42,3.24c-.27,.14-.44,.03-.45-.26,0-.15-.05-.26-.21-.26-.16,0-.21,.1-.22,.25-.04,.57,.51,.92,1.04,.67q.3-.14,.3,.19c0,.49,0,.98,0,1.47,0,.17-.05,.22-.22,.22-.55,0-1.11,0-1.66,0-.17,0-.22-.05-.21-.22,.01-.51,0-1.02,0-1.54,0-.49,0-.98,0-1.47,0-.55,.39-.97,.94-1.04,.51-.06,.99,.28,1.12,.79q.08,.32,.38,.16c.33-.17,.66-.34,.99-.51,.2-.1,.32-.07,.41,.09,.09,.16,.04,.29-.15,.39-.68,.36-1.37,.71-2.05,1.06Zm9.19,.79c-1.07,0-2.15,0-3.22,0-1.06,0-2.12-.01-3.18,0-.81,.01-1-.54-.95-1.19,0-.08,.06-.1,.12-.13,.13-.07,.26-.13,.39-.21,.2-.13,.33-.31,.31-.56,0-.12,.04-.21,.11-.3,.4-.46,.79-.93,1.19-1.39,.1-.12,.14-.24,0-.35-.12-.1-.24-.04-.33,.07-.04,.05-.08,.1-.12,.14-.32,.38-.65,.75-.97,1.14-.08,.1-.14,.13-.25,.04-.06-.05-.16-.09-.23-.08-.23,.02-.24-.1-.23-.28,0-.35,0-.7,0-1.05,0-.57,.32-.89,.89-.89,2.16,0,4.32,0,6.48,0,.56,0,.87,.32,.87,.88,0,1.09,0,2.17,0,3.26,0,.59-.31,.89-.9,.89Zm-2.76-2.88c-.59,0-1.18,0-1.77,0-.16,0-.32-.01-.31-.22,0-.2,.16-.21,.32-.21,1.19,0,2.39,0,3.58,0,.14,0,.28,0,.31,.18,.03,.15-.07,.25-.28,.25-.62,0-1.23,0-1.85,0Zm.48,1.88c.46,0,.93,0,1.39,0,.16,0,.29,.05,.29,.22,0,.16-.13,.21-.29,.21-.93,0-1.85,0-2.78,0-.15,0-.29-.02-.29-.21,0-.19,.14-.21,.29-.21,.46,0,.93,0,1.39,0Zm-1.41-1.15c.37,0,.74,0,1.11,0,.15,0,.3,.03,.3,.21,0,.18-.14,.21-.3,.21-.75,0-1.5,0-2.25,0-.16,0-.32-.03-.31-.23,0-.18,.16-.2,.31-.2,.38,0,.76,0,1.13,0Zm.14-2.3c.29,0,.59,0,.88,0,.14,0,.26,.03,.27,.2,0,.17-.11,.23-.26,.23-.6,0-1.21,0-1.81,0-.14,0-.25-.05-.26-.21,0-.17,.11-.21,.25-.21,.31,0,.62,0,.93,0Zm2.33,0c.13,0,.25,0,.38,0,.14,0,.24,.07,.24,.21,0,.13-.09,.21-.22,.21-.27,0-.55,0-.82,0-.13,0-.22-.08-.21-.23,.01-.14,.11-.19,.23-.19,.13,0,.27,0,.4,0Zm-3.88,3.87c-.13,0-.27,0-.4,0-.13,0-.21-.08-.21-.21,0-.13,.08-.21,.21-.21,.27,0,.53,0,.8,0,.14,0,.21,.08,.21,.21,0,.13-.08,.21-.21,.21-.13,0-.27,0-.4,0Zm3.89-1.57c.12,0,.24,0,.36,0,.13,0,.22,.06,.22,.2,0,.14-.08,.21-.2,.22-.26,0-.52,0-.78,0-.13,0-.21-.08-.2-.22,0-.12,.09-.19,.21-.2,.13,0,.27,0,.4,0,0,0,0,0,0,0Z"/>
</svg>