<?xml version="1.0" encoding="UTF-8"?><svg id="Layer_1" xmlns="http://www.w3.org/2000/svg" viewBox="0 0 800 800"><defs><style>.cls-1{fill:none;}.cls-2{fill:#010101;}</style></defs><rect class="cls-1" width="800" height="800"/><path class="cls-2" d="M324.2,360.79c11.26-2.56,17.52,6.72,24.45,13.89,8.9,9.21,28.68,30.02,35.11,39.83,4.61,7.03,4.98,14.51,1.12,21.96-3.34,6.46-38.64,46.41-45.2,52.22-13.68,12.13-35.11-3.27-22.56-21.07,4.53-6.42,36.53-37.78,35.83-41.74l-38.08-44.43c-4.58-7.39,1.11-18.8,9.32-20.67ZM173.61,470.27c-12.09-14.81-26.44-27.99-37.62-43.36-.37-4.37,34.43-37.97,38.08-45.36,5.2-16.6-11.91-27.99-24.69-17.21-5.83,4.92-42.42,46.35-45.38,52.05-6.4,12.31-1.12,19.35,6.34,28.73,11.98,15.07,27.7,28.92,39.67,44.26,5.44,4.55,16.17,4.49,21.21-.53,4.65-4.64,4.48-12.6,2.39-18.57ZM244.45,360.49c-13.84,38.25-17.03,87.78-30.43,127.07-1.38,17.5,23.28,24.1,29.36,6.75,7.42-40.41,24.41-84.18,30.1-124.36,1.65-11.67-2.81-23.16-16.65-21.16-6.45.93-10.29,5.92-12.38,11.71ZM245.56,619.44c18.77-3.1,15.29-33.79-6.77-29.31-18.65,3.79-12.76,32.53,6.77,29.31ZM783.26,589.05c-2.18,20.19-20.73,32.87-40.33,30.86,1,7.74-9.93,21.2-10.4,26.36-.24,2.67,6.59,7.46,8.51,10.46,15.75,24.5-6.51,47.19-24.45,61.99-12.13,10-27.83,13.18-41.76,4.22-2.89-1.86-7.8-8.75-10.46-8.51-1.69.15-15.96,7.38-19.71,8.83-1.65.64-6.42,1.31-6.65,1.57-.59.67.03,9.31-.5,12.25-2.64,14.54-15.74,26.51-30.36,28.09-17.61,1.9-44.64,2.47-56.84-12.12-7.5-8.96-7.58-27.01-8.55-28.18-.89-1.08-22.96-7.04-26.07-10.27-26.2,26.12-51.07,9.61-70.44-13.87-10.4-12.6-15.29-24.91-7.82-40.83,2.01-4.29,10.01-11.56,10.06-13.85.09-4.38-10.77-19.44-10.67-26.06l-130.59-.55c-10.29-2.73-14.52-11.76-10.44-21.75.86-2.1,6.9-7.88,8.6-7.88h92.18v-33.72c0-11.22,14-28.2,25.07-30.39,4.9-.97,12.24,1.53,15.27-2.71.83-1.16,10.64-23.8,10.38-25.14-.33-1.72-5.39-5.37-7.01-7.96-6.27-10.02-8.1-19.75-4.82-31.3,2.74-9.64,30.11-36.36,39.51-39.92,13.08-4.95,21.76-2.25,33,5.03,2.08,1.35,4.14,4.4,5.55,5.05,4.45,2.04,21.85-9.59,28.23-9.99-.37-26.11,13.16-38.5,38.36-40.33,20.48-1.49,47.39.2,55.1,22.96,1.35,3.97,1.98,15.9,2.92,17.31.78,1.18,23.06,7.66,26.26,10.51,10-7.88,19.79-15.06,33.44-13.24v-152.88H48.1c-.16,0-2.25,2.09-2.25,2.25v278.77c7.38,69.78,86.76,38.5,132.56,45.8,15.94,2.54,16.66,27.2-1.55,29.75-18.8,2.64-80.64,2.2-99.61-.54-35.83-5.17-60.14-41.86-61.45-76.44V109.38c2.77-37.38,27.71-71.9,66.71-75.68l581.4.24c34.06,3.98,57.3,33.07,63.51,65.39,4.79,112.75-.32,226.31,2.65,339.07,19.35,16.05,22.36,42,2.63,59.21,3.64,3.67,9.54,25.74,11.52,27.06,2.21,1.48,10.85.46,15.14,1.35,26.36,5.48,26.16,42.2,23.9,63.04ZM697.82,233.08V103.44c0-14.36-21.93-40.43-38.21-39.73-194.12,1.29-388.87-2.54-582.62,1.93-16.03,4.36-31.14,27.9-31.14,43.8v123.65h651.97ZM752.63,556.73c-10.77-4.15-22.81,2.95-31.62-7.35-4.85-5.68-8.71-23.88-12.43-32.53-2.66-6.18-9.16-13.84-10.16-19.95-2.28-14,18.9-22.61,17.24-28.96-.94-3.6-18.42-17.64-21.78-21.92-4.34-.76-13.95,19.18-28.09,17.81-6.28-.61-19.33-9.78-26.44-12.64-7.37-2.97-25.2-6.04-29.17-11.29-.67-.88-3.77-7.76-3.77-8.22v-21.73h-32.22c-.16,0-2.25,2.09-2.25,2.25v22.48c0,9.35-27.26,14.87-35.48,18.47-12.25,5.37-20.07,16.1-33.96,7.5-6.57-4.07-11.73-16.64-19.82-11.82-2.23,1.33-18.71,18.72-18.71,20.31,3.82,8.15,16.04,13.76,17.76,22.86,1.59,8.43-7.52,19.34-10.91,27.39-3.13,7.43-8.2,28.66-12.82,32.15-.88.67-7.76,3.77-8.22,3.77h-21.73v32.22c0,.16,2.09,2.25,2.25,2.25h22.48c9.15,0,13.75,24.62,16.51,31.45,6.99,17.25,20.51,24.15,5.99,42.01-2.59,3.19-12.4,9.95-10.6,13.46.71,1.38,19.93,20.46,21.37,20.84,5.75,1.5,15.42-17.92,26.68-17.91,5.31,0,23.84,11.52,30.75,14.3,11.09,4.45,26.33,3.42,29.31,17.16,1.22,5.62-1.17,22.47,3.1,23.87,3.22,1.05,27.64.65,29.91-1.14,5.86-4.62-2.7-22.43,6.53-30.94,4.85-4.48,23.51-8.57,31.5-11.97,6.42-2.73,17.61-10.87,23.41-11.1,11.76-.47,20.34,19.36,26.55,17.73,1.96-.51,22.09-21.24,22.09-23.07-4.1-8.53-17.83-14.58-17.83-25.48,0-5.48,9.77-19.66,12.51-26.26,3.05-7.36,5.67-22.4,9.74-27.73,8.19-10.74,28.6-.68,32.26-8.2,1.24-2.55,1.35-28.26.09-30.08ZM603.97,199.93c-45.67-2.37-95.59,3.79-140.76.24-62.96-4.95-64.8-93.38-2.53-101.55,45.02,1.93,94.51-4,139.02-.47,65.23,5.17,67.39,92.84,4.26,101.79ZM597.96,128.36c-41.52,2.99-90.65-4.85-131.28.23-29.78,3.73-27.92,38.05-1.75,41.37,42.53-3.19,92.96,4.93,134.55,0,28.67-3.39,26.18-40.13-1.52-41.61ZM172.56,197.17c-71.59,24.18-95.12-91.56-20.63-98.56,58.24-5.47,77.02,79.51,20.63,98.56ZM156.01,128.99c-22.22,0-27.93,30.03-8.26,38.9,29.75,13.42,41.21-38.9,8.26-38.9ZM290.88,200.09c-65.52,4.12-73.48-95.22-8.55-101.47,67.75-6.52,75.95,97.23,8.55,101.47ZM296.74,131.33c-22.11-10.35-39.09,17.41-24.07,32.29,22.85,22.62,52.23-19.11,24.07-32.29ZM523.97,637c-84.49-85.41,45.29-215.86,131.36-130.61,86.84,86.01-44.81,218.11-131.36,130.61ZM580.56,510.75c-82.2,11.28-60.06,141.95,24.41,121.84,74.11-17.65,55.52-132.8-24.41-121.84Z"/></svg>