<?xml version="1.0" encoding="UTF-8"?><svg id="Layer_1" xmlns="http://www.w3.org/2000/svg" viewBox="0 0 800 800"><defs><style>.cls-1{fill:none;}.cls-2{fill:#010201;}</style></defs><rect class="cls-1" width="800" height="800"/><path class="cls-2" d="M531.54,83.92h116.43c28.57,0,59.07,24.49,62.25,53.45,2.46,22.46,2.14,73.92.06,96.73-1.54,16.84-22.73,17.09-24.97-2.99-3.05-27.36,2.47-60.1.06-87.93-1.25-14.47-12.13-28.47-26.32-32.26-1.39-.37-10.39-2.1-11.08-2.1h-117.89c6.45,10.46,36.08,30.38,34.52,42.53-1.85,14.41-15.2,12.29-24.28,5.08-11.26-8.94-38.61-36.33-47.59-47.6-7.3-9.15-7.42-14.18,0-23.46,9.25-11.57,35.28-37.47,46.84-46.88,3.14-2.56,8.03-6.65,12.11-7.03,5.66-.52,12.53,5.46,13.26,11.05,1.56,11.79-27.19,31.39-33.4,41.4ZM147.11,694.61c-12.68,0-29.76-15.34-32.3-27.74-4.52-21.99,1.41-56.16-.6-79.95-1.87-22.16-23.16-21.51-24.98-5.84-2.13,18.39-1.97,66.41.02,84.98,2.7,25.29,30.49,53.44,56.39,53.44h123.75c-5.77,10.01-31.5,27.48-34.22,36.91-2.87,9.93,7.09,18.53,16.73,15.16l57.04-55.73c3.61-4.1,4.28-11.43,1.54-16.19-11.98-8.04-49.59-55.13-59.7-57.45-9.07-2.08-17.65,4.65-15.58,13.99,2.52,11.38,27.57,27.58,34.2,38.42h-122.28ZM760.06,714.45c-3.88,30.92-28.74,52.26-59.4,54.83-90.07-5.05-187.63,6.8-276.82.08-20.8-1.57-41.29-11.68-52.22-29.79-2.09-3.45-8.5-17.62-8.5-20.79v-173.54H95.85c-25.12,0-54.54-28.22-56.39-53.44V75.86c4.83-29.36,28.07-50.92,57.88-53.42l231.06.29c36.57,31.71,69.21,68.58,104.33,102.16,1.46,1.56,5.08,8.14,5.08,9.56v112.03h214.55c35.76,32.34,68.58,68.15,103.28,101.75l4.05,6.2.37,360.02ZM660.41,332.15c0,4.49,6.22,13.91,10.98,13.91h46.13l-57.11-55.65v41.74ZM338.22,113.94c0,2.27,7.86,8.05,9.52,8.05h46.13l-55.65-55.65v47.6ZM411.45,247.94v-101.05h-68.1c-6.22,0-20.23-10.13-23.92-15.62-1.05-1.56-6.1-12.04-6.1-12.93V47.31H94.39c-.56,0-9.15,3.44-10.52,4.13-10.33,5.16-17.66,16.01-19.51,27.35l-.05,408.65c-1.02,13.72,19.06,32.89,31.55,32.89h265.07c.16,0,2.2-2.04,2.2-2.2v-221.14c0-3.25,6.4-17.25,8.5-20.79,8.51-14.31,23.63-24.71,39.82-28.27ZM735.1,370.96h-68.1c-5.33,0-19.14-9.28-22.69-13.92-3.56-4.65-8.79-17.89-8.79-23.43v-62.24h-217.48c-.62,0-9.99,3.87-11.46,4.65-10.26,5.46-16.7,15.47-18.57,26.83l-.05,408.65c2.19,20,18.15,31.43,37.35,32.94,87.55,6.9,184.02-5.32,272.5,0,12.99,1.87,37.29-15.99,37.29-28.61v-344.89ZM450.22,445.68h222.67c16.16-.78,17.32-23.1,1.46-24.96l-228.18.35c-13.4,5.1-10.84,23.7,4.05,24.62ZM450.22,520.37h222.67c16.16-.78,17.32-23.1,1.46-24.96l-228.18.35c-13.4,5.1-10.84,23.7,4.05,24.62ZM450.22,595.06h222.67c16.16-.78,17.32-23.1,1.46-24.96l-228.18.35c-13.4,5.1-10.84,23.7,4.05,24.62ZM450.22,669.75h197.77c16.16-.78,17.32-23.1,1.46-24.96l-203.28.35c-13.4,5.1-10.84,23.7,4.05,24.62ZM448.89,370.87c39.11-3.27,86.28,4.69,124.42.13,17.25-2.06,15.88-22.8,2.81-24.84l-129.94.23c-12.75,4.65-11.24,22.54,2.71,24.49ZM683.06,690.16c-9.78,11.66-45.53-5.52-46.78,15.97-1,17.27,29.52,14.52,40.82,13.21,15.11-1.75,30.86-14.41,32.98-29.99.87-6.37.98-34.82-1.5-39.25-2.64-4.71-8.39-6.12-13.42-5.01-17.4,3.83-4.88,36.45-12.1,45.06ZM126.57,221.62l222.63-.04c16.4-.19,17.68-23.05,1.5-24.93l-228.18.35c-13.4,5.1-10.84,23.7,4.05,24.62ZM126.57,296.31l197.74-.04c16.4-.19,17.68-23.05,1.5-24.93l-203.28.35c-13.4,5.1-10.84,23.7,4.05,24.62ZM126.57,371h197.77c17.57-2.1,16.67-23.2,1.46-24.96l-203.28.35c-13.4,5.1-10.84,23.7,4.05,24.62ZM126.57,445.68h197.77c17.57-2.1,16.67-23.2,1.46-24.96l-203.28.35c-13.4,5.1-10.84,23.7,4.05,24.62ZM126.57,146.93l125.89-.12c13.96-2.18,13.28-23.85-1.35-24.84l-128.59.35c-13.4,5.1-10.84,23.7,4.05,24.62Z"/></svg>