<?xml version="1.0" encoding="UTF-8"?><svg id="Layer_1" xmlns="http://www.w3.org/2000/svg" viewBox="0 0 800 800"><defs><style>.cls-1{fill:none;}.cls-2{fill:#010101;}</style></defs><rect class="cls-1" width="800" height="800"/><path class="cls-2" d="M218.38,303.12l11.12-14.93c14.49-11.48,31.1,3.79,21.37,21.37-2.77,5.01-27.84,40.99-30.44,42.55-5.22,3.15-11.06,2.74-16.51.46-6.99-2.92-36.38-20.24-42.08-24.96-14.06-11.66-4.27-30.92,12.26-27.16,2.74.62,12.93,8.82,14.46,7.14C164.64,177.75,255.97,48.71,386.39,29.39c222.85-33.02,367.15,233.65,215.65,395.93-8.15,8.73-16.99,19.91-29.62,11.7-17.67-11.5,6.96-30.28,13.91-39.32,118.39-154.06-5.77-368.47-196.94-338.48-113.53,17.81-192.84,130.84-171.01,243.9ZM530.11,474.19c19.02-2.32,17.21-34.66-6.74-29.2-15.48,3.53-11.55,31.43,6.74,29.2ZM277.31,694.9c24.37,3.88,23.34-29.56,3.15-29.23-17.2.27-19.94,26.56-3.15,29.23ZM741.3,719.53c-33.93,13.78-90.23,24.28-127.48,33.43-26.13,6.42-57.11,16.53-83.34,19.46-68.84,7.7-128.58-32.01-191.42-52.88-15.45-7.49-10.72-29.07,6.51-29,59.15,17.39,119.66,60.03,183.26,51.92,64.89-8.27,136.24-38.3,201.36-50.44,36.62-17.75,23.76-69.96-17.97-67.13-85.74,12.99-168.02,56.85-254.74,28.38-48.86-16.04-97.31-39.84-146.26-56.37-17.83-6.58-14.09-29.37,4.56-30.03l108.14,41c43.48,10.31,67.3-49.3,27.89-71.1-44.19-24.45-103.95-37.76-149.25-62.32h-140.8v166.87h58.85c9.91,0,16.89,12.51,13.02,21.97-.86,2.09-6.86,7.83-8.55,7.83h-63.32c.53,12.15,1.5,25.89-12.75,29.71H31.47c-6.02-1.29-10.2-4.38-12.05-10.31-.9-90.58-1.73-181.83.42-272.31,3.28-5.4,8-9.05,14.52-9.32,35.49,2.47,75.36-3.3,110.31-.06,3.79.35,7.2.68,10.4,3.01,1.58,1.14,6.67,8.61,6.67,9.72v23.09h146.76c48,23.39,101.33,39.36,149.25,62.31,19.47,9.33,33.5,20.23,40.29,41.66,9.33,29.42-.3,57.67-24.1,76.34-1.35,1.06-.64,1.44.71,2.18,5.14,2.83,24.16,6.19,30.55,6.7,61.25,4.93,138.5-31.29,200.04-38.3,80.57-9.17,104.85,96.03,36.06,123.97ZM131.95,438.71H48.51v232.43h83.44v-232.43ZM578.11,309.02c-9.15,13.31-26.53-1.69-40.8,8.36-10.93,7.7-11.87,22.2-4.94,33.03,5.04,7.87,13.16,9.49,8.94,21.55-5.46,15.61-62.61,48.88-78.68,46.72-15.45-2.08-11.55-18.64-20.72-26.98-9.51-8.65-24.59-8.33-33.44.96-8.61,9.03-3.34,24.65-20.03,25.83-17.1,1.22-61.41-25.77-73.3-38.59-18.33-19.76,8.98-25.13,8.99-43.27,0-8.98-7.57-20.08-16.33-22.39-12.79-3.38-27.65,7.56-35.15-6.57-8.41-15.86-9.3-72.9.15-87.93,9.04-14.36,19.67-2.89,31.13-4.61,11.54-1.73,21.23-14.23,20.14-25.81-1.34-14.23-18.9-19.04-14.16-33.79,5.01-15.59,64.28-48.37,80.42-46.05,11.52,1.65,11.12,15.25,16,22.8,7.93,12.25,26.36,13.61,36.5,3.47,9.54-9.53,3.24-28.87,24.96-26.19,16.68,2.06,60.8,27.32,70.92,40.83,12.73,17-6.76,22.16-9.74,33.49-4.02,15.25,6.18,31.4,22.39,31.45,8.76.02,20.33-8.12,27.39,3.79,8.65,14.59,8.94,75.97-.63,89.9ZM555.09,245.01c-36.65,1.43-61.9-28.24-56.27-64.45.67-4.28,7.13-16.52,6.85-18.02-.7-3.77-27.97-19.77-31.56-18.71-1.02.3-9.89,13.14-13.68,16.22-26.41,21.42-66.4,14.41-81.27-16.26-2.85-2.07-29.77,13.8-33.5,17.74,21.91,38.55-3.66,84.32-48.18,83.63-2.86,12.56-2.09,25.9-.08,38.51,42.97-3.57,71.45,45.43,47.86,81.29,8.64,9.35,20.79,14.05,31.81,19.75,22.35-37.63,74.47-39.74,96.01-.29,3.11,1.91,29.02-14.44,32.72-18.14-15.23-27.44-7.32-63.92,21.91-77.88,9.53-4.55,17.07-4.11,26.73-6.05l.66-37.35ZM432.14,328.43c-88.51,6.97-94.62-125.35-9.93-129.19,84.85-3.85,90.73,122.84,9.93,129.19ZM400.66,239.59c-33.64,33.55,22.93,85.1,53.1,44.91,25.25-33.64-22.28-75.65-53.1-44.91Z"/></svg>