<?xml version="1.0" encoding="UTF-8"?><svg id="Layer_1" xmlns="http://www.w3.org/2000/svg" viewBox="0 0 800 800"><defs><style>.cls-1{fill:none;}.cls-2{fill:#010101;}</style></defs><rect class="cls-1" width="800" height="800"/><path class="cls-2" d="M186.6,351.69c-20.38-20.65-16.08-49.11,4.69-67.4,24.09-21.21,56.3-38.29,81.17-59.19,15.49-9.56,30.91,8.16,19.3,22.25-24.06,22.06-59.28,38.98-82.77,60.54-5.87,5.39-6.65,11.29-4.06,18.82,26.85,23.97,58.5,42.88,86.85,65.32,10.28,12.21-.84,30.13-16.65,24.03l-88.54-64.38ZM609.34,284.29c-24.05-21.18-56.27-38.38-81.17-59.19-15.41-9.6-30.9,8.16-19.3,22.25l83.57,61.22c7.76,8.19,5.61,17.37-2.3,24.4-23.67,21.03-56.94,37.98-81.3,59.07-10.28,12.21.84,30.13,16.65,24.03l88.54-64.38c19.33-22.25,17.26-48.07-4.69-67.4ZM428.07,228.51l-81.72,169.46c-4.92,18.1,20.78,27.35,28.59,9.38,21.61-53,54.61-104.95,75.88-157.57,1.18-2.92,3.81-8.07,4.14-10.74,1.19-9.79-8.29-18.44-18.07-16.54-3.02.59-7.4,3.16-8.81,6.01ZM622.74,98.03c-14.3-12.76-34.16,8.49-20.96,21.69,13.95,13.95,35.92-8.34,20.96-21.69ZM778.55,574.56c-1.64,23.32-26.15,46.56-49.48,46.56h-241.57c12.63,24.27,27.92,47.7,7.35,73.1-10.48,12.95-23.04,16.09-39.05,17.1-32.09,2.02-80.44,2.21-112.42-.01-17.82-1.24-32.7-6.98-41.76-23.25-14.23-25.55.45-44.2,11.53-66.94H71.58c-23.45,0-47.84-22.95-49.48-46.56l-.07-432.95c2.53-29.38,26.94-47.72,55.39-48.04l464.06.02c19.42-.75,26.51,23.16,7.41,29.68l-471.38-.05c-9.2-.56-25.88,8.45-25.88,18.44v373.07h697.38V141.67c0-1.06-3.38-7.44-4.42-8.88-13.09-18-52.81-4.68-71.01-10.25-13.95-4.27-11.84-26.45,6.9-28.72,38.23-4.64,91-2.16,97.92,45.05l.14,435.69ZM475.37,665.06c-1.04-10.89-17.73-31.79-20.62-43.7h-108.87c-6.31,20.83-41.9,57.1.45,60.39,29.01,2.26,78.96,2.27,107.96,0,10.09-.79,22.3-3.75,21.07-16.69ZM749.01,546.5c0-.16-2.06-2.22-2.22-2.22H53.85c-.49.75-2.22,1.81-2.22,2.22v26.6c0,11.04,18.85,19.78,28.74,18.54h641.36c9.75.93,27.28-7.83,27.28-18.54v-26.6Z"/></svg>