<?xml version="1.0" encoding="UTF-8"?>
<svg id="Layer_1" data-name="Layer 1" xmlns="http://www.w3.org/2000/svg" viewBox="0 0 500 500">
  <defs>
    <style>
      .cls-1 {
        fill: none;
      }

      .cls-2 {
        fill: #010101;
      }
    </style>
  </defs>
  <rect class="cls-1" width="500" height="500"/>
  <path class="cls-2" d="M471.51,128.66c0-5.38-.94-9.9-5.04-13.97-27.84-27.6-55.52-55.37-83.17-83.16-3.37-3.39-7.04-4.9-11.87-4.89-72.29,.1-144.58,.03-216.88,.1-17.15,.01-27.63,10.22-28.26,27.36-.25,6.8-.22,13.62,0,20.43,.12,3.87-.88,5.45-5.13,5.05-8.96-.83-17.83,.56-26.5,2.62-48.56,11.53-79.34,57.49-72.91,108.57,5.87,46.56,49.26,83.46,97.4,82.37,6.05-.14,7.23,1.38,7.21,7.15-.23,55.18-.15,110.36-.13,165.55,0,21.81,10.06,31.83,31.86,31.83,93.65,0,187.3,0,280.95,0,22.7,0,32.4-9.79,32.41-32.7,.01-52.13,0-104.26,0-156.39,0-53.3-.03-106.61,.05-159.91Zm-88.08-68.6c17.92,18.02,36.1,36.31,54.13,54.45-16.01,0-33.47-.01-50.94,.01-3.08,0-3.2-2-3.2-4.27,.02-17.06,0-34.11,0-50.19Zm-250.01,38.77c29.96,7.13,50.25,25.19,59.68,54.64,4.48,13.98,4.01,14.13-10.48,14.13-7.27,0-14.53,0-21.8,0-9.85,0-19.69-.13-29.53,.07-3.57,.07-4.96-.92-4.94-4.7,.14-20.17,.21-40.34-.02-60.5-.08-6.78,4.46-4.27,7.09-3.64Zm-22.67,156.48c-35.77-2.4-67.95-33.2-71.99-70.44-4.21-38.86,20.51-74.64,58.66-84.9,.9-.24,1.74-.7,2.65-.92,8.04-2.01,8.56-1.58,8.56,6.94,0,11.02,0,22.05,0,33.07,0,11.26-.05,22.52,.01,33.78,.05,9.44,2.76,12.24,12.09,12.26,22.98,.07,45.96,.22,68.93-.11,5.96-.09,6.55,2.07,5.48,7.02-8.27,38.22-42.7,66.1-84.4,63.3Zm342.94,191.46c0,10.48-2.41,12.94-12.78,12.95-47.4,.03-94.79,.01-142.19,.01-46.93,0-93.85,0-140.78,0-11.86,0-13.93-2.08-13.94-13.91,0-56.57,.05-113.14-.11-169.71-.01-4.66,1.12-6.91,5.79-8.54,38.37-13.43,64.28-49.75,64.7-90.14,.43-40.69-24.33-77.12-62.68-91.45-5.99-2.24-8.53-4.91-7.85-11.46,.68-6.5,.04-13.13,.19-19.7,.16-7.17,3.13-10.11,10.32-10.57,1.17-.08,2.35-.03,3.52-.03,66.87,0,133.74,.08,200.61-.14,5.99-.02,7.39,1.75,7.3,7.48-.32,22.53-.16,45.07-.11,67.6,.02,10.55,2.81,13.27,13.41,13.29,22.52,.03,45.05,.14,67.57-.1,5.11-.05,7.2,.71,7.19,6.69-.21,102.58-.15,205.16-.16,307.74Zm-111.19-279.17c22.04,0,44.09,0,66.13,0,5.07,0,8.68,2.12,9.72,7.28,.85,4.22-1.28,7.41-4.88,9.24-1.77,.9-4.09,.96-6.17,.96-42.92,.05-85.83,.06-128.75,.01-7.26,0-11.18-3.22-11.22-8.72-.04-5.58,3.83-8.73,11.14-8.75,21.34-.06,42.68-.02,64.02-.02Zm.78,35.22c21.11,0,42.21-.02,63.32,.01,7.82,.01,11.96,3.12,11.91,8.74-.06,5.6-4.2,8.74-11.98,8.75-42.45,.04-84.89,.04-127.34,0-8.91,0-13.66-4.91-11.38-11.57,1.76-5.14,5.96-5.98,10.75-5.96,21.58,.07,43.15,.03,64.73,.03Zm-50.24-123.53c14.54,0,29.08-.08,43.62,.03,7.12,.05,11.34,3.44,11.44,8.73,.11,5.53-4.33,9.13-11.74,9.15-29.08,.06-58.16,0-87.25,.04-4.16,0-8.06-.57-10.46-4.43-4-6.44,.6-13.32,9.35-13.45,15.01-.23,30.02-.06,45.03-.07Zm-.54,53.16c-13.84,0-27.68,0-41.51,0-1.64,0-3.31,.12-4.92-.11-5.3-.76-8.73-3.53-8.56-9.25,.15-5.43,3.71-8.09,8.65-8.38,6.78-.4,13.6-.19,20.4-.19,22.05-.01,44.09,0,66.14,0,1.64,0,3.29-.07,4.92,.03,6.51,.37,10.54,3.85,10.5,8.98-.04,5.13-4.13,8.81-10.59,8.87-15.01,.15-30.02,.05-45.03,.05Zm-42.95,43.47c-.22,5.57-4.46,9.46-9.4,9-5.28-.5-7.92-3.75-7.99-8.89-.07-4.99,4.28-8.87,9.26-8.32,5.18,.57,7.8,3.73,8.13,8.21Zm-8.67,26.89c5.01,.59,8.24,3.15,8.6,8.41,.34,4.88-3.8,8.97-8.74,8.97-4.98,0-8.96-4.05-8.6-9.03,.39-5.26,3.54-7.87,8.74-8.35Zm-184.87-23.77c-.23-7.02,2.92-11.44,8.49-11.31,6.41,.15,8.89,4.15,9.16,10.13,1.02,22.94,19.55,41.26,41.79,42.3,7.29,.34,10.99,3.89,10.71,9.39-.29,5.75-4.86,8.9-12.22,8.44-31.53-1.99-56.89-27.81-57.91-58.94Zm361.71,84.15c-9.79-4.51-21.89-2.34-29.21,5.41-7.54,7.98-10.32,17.53-5.85,27.85,2.09,4.83,.92,7.4-2.31,10.82-15.99,16.86-31.72,33.97-47.57,50.96-4.62,4.96-8.36,11.7-17.19,8.29-1.29-.5-3.23,.34-4.76,.89-3.61,1.29-6.02,.28-8.38-2.83-6.25-8.22-12.7-16.3-19.42-24.13-3.16-3.68-4.19-6.81-2.8-11.86,3.08-11.22-1.7-22.25-10.98-28.2-9.59-6.14-21.13-5.73-30.31,1.08-8.78,6.52-12.53,17.64-9.09,28.83,1.04,3.38-.02,5.22-2.06,7.4-8.33,8.92-16.65,17.85-24.78,26.95-2.61,2.93-5.05,3.97-9.1,2.93-11.92-3.05-23.43,2.24-29.12,12.8-5.66,10.53-3.62,23.49,5,31.68,8.62,8.19,21.65,9.59,31.8,3.42,10.18-6.18,15.16-18.41,11.55-29.81-1.11-3.51-.48-5.57,1.88-8.04,6.97-7.3,13.87-14.68,20.49-22.29,4.74-5.45,9.07-10.78,17.45-6.48,2.6,1.34,5.62-.11,8.23-.94,3.2-1.01,5.12-.27,7.16,2.35,7.07,9.07,14.26,18.05,21.67,26.84,2.34,2.78,2.16,5.23,1.31,8.38-3.19,11.88,1.03,23.24,10.69,29.56,9.43,6.17,22.03,5.55,30.84-1.51,9.31-7.46,12.67-19.54,7.73-31.07-1.65-3.85-.9-5.8,1.6-8.47,18.17-19.32,36.24-38.74,54.29-58.17,1.86-2.01,3.51-3.05,6.62-2.59,16.38,2.44,30.33-9.81,30.24-27.31-.25-10.1-5.52-18.12-15.62-22.77Zm-229.73,138.28c-4.91,.19-9.12-4.1-8.62-8.95,.52-5.12,3.54-7.89,8.93-7.95,5.25,.32,8.15,3.31,8.05,8.49-.09,5.13-3.08,8.21-8.36,8.41Zm65.78-70.44c-4.4-.56-7.27-3.48-7.42-8.66-.15-5.06,3.91-8.6,9.16-8.18,5.35,.43,7.91,3.69,7.87,8.81-.03,4.62-4.22,8.21-9.62,8.02Zm62.56,70.43c-5.22-.26-8.16-3.26-8.23-8.45-.07-5.25,2.86-8.08,7.88-8.42,5.52,.09,8.52,2.73,8.87,7.99,.34,5.03-3.58,9.14-8.52,8.89Zm99.36-113.95c-.45,5.07-3.42,7.95-8.51,8.39-5.37-.41-8.47-3.47-8.55-8.48-.08-4.99,2.72-8.3,8.18-8.47,5.1-.16,9.3,3.71,8.87,8.56Z"/>
</svg>