<?xml version="1.0" encoding="UTF-8"?>
<svg id="Layer_1" data-name="Layer 1" xmlns="http://www.w3.org/2000/svg" viewBox="0 0 500 500">
  <defs>
    <style>
      .cls-1 {
        fill: none;
      }

      .cls-2 {
        fill: #010101;
      }
    </style>
  </defs>
  <rect class="cls-1" width="500" height="500"/>
  <path class="cls-2" d="M414.29,221.81c0-6.72-.22-13.45,.08-20.15,.18-3.99-1.38-6.32-4.9-7.69-1.11-.43-2.18-1.18-3.32-1.32-23.95-3.02-28.05-23.07-34.63-40.73-2.14-5.74,1.01-11.16,3.48-16.41,9.33-19.82,8.72-14.45-4.83-28.82-5.26-5.58-10.89-10.8-16.27-16.26-2.87-2.91-6-3.97-9.56-1.51-15.18,10.5-30.08,9.78-46.38,1.46-9.43-4.81-15.88-10.2-19.24-20.36-5.14-15.53-2.07-15.88-21.84-15.66-7.67,.09-15.35,.01-23.02,.06-4.8,.03-8.58,1.91-9.39,6.96-3.02,18.74-15.45,27.51-32.34,33.17-9.56,3.21-17.69,3.75-26.7-1.02-14.55-7.7-14.74-7.42-26.37,4.1-5.79,5.73-11.42,11.63-17.23,17.33-2.99,2.93-3.56,6.05-1.61,9.71,.22,.42,.22,.98,.5,1.34,14.4,18.39,5.25,35.42-2.87,52.6-3.62,7.67-10.9,9.68-17.86,12.03-14.14,4.76-14.19,4.61-14.09,19.14,.07,10.56,.02,21.11,.24,31.67,.11,5.64-1.88,9.49-7.84,9.89-6.13,.42-8.99-2.86-9.73-8.95-1.97-16.29-1.46-32.54,.26-48.78,.55-5.2,3.24-9.53,7.76-12.36,2.82-1.77,5.75-3.94,8.89-4.52,12.61-2.34,19.58-9.79,23.08-21.92,1.42-4.93,1.91-8.67-.45-13.47-11.73-23.94-11.03-27.29,7.81-46.23,6.26-6.29,12.59-12.51,18.93-18.71,7.94-7.77,17-9.16,27.05-4.62,.43,.2,.86,.44,1.24,.73,11.72,8.81,23.31,6.09,34.98-.2,2.66-1.43,4.52-2.97,5.51-6.01,1.83-5.66,4.06-11.2,6.38-16.68,3.42-8.09,9.85-12.45,18.46-12.66,14.38-.35,28.78-.33,43.17-.04,8.62,.17,14.99,4.48,18.6,12.49,.78,1.73,1.8,3.45,2.16,5.28,2.44,12.11,9.52,19.18,21.57,22.5,5.1,1.41,9,2.01,13.94-.38,23.65-11.46,27.3-10.72,45.79,7.65,6.12,6.09,12.2,12.23,18.26,18.38,8.07,8.18,10.47,17.43,5.14,28.08-.32,.64-.53,1.35-.94,1.93-7.07,10.01-6.61,19.83-.89,30.58,2.67,5.01,5.2,8.35,10.68,10.16,23.91,7.91,26.58,11.57,26.78,36.43,.09,11.01,.74,22.03-1.03,33.03-.92,5.74-3.85,8.82-9.47,8.58-5.82-.25-8.29-3.87-8.13-9.66,.18-6.71,.04-13.43,.04-20.15,.06,0,.13,0,.19,0Zm-230.67-50.42c-7.13,9.56-11.35,20.44-13.86,31.97-1.18,5.39,1.06,9.76,6.4,11.3,5.42,1.56,9.3-.93,10.93-6.47,.47-1.59,.9-3.2,1.29-4.82,9.3-38.39,52.9-59.18,88.57-42.08,18.62,8.92,30.4,23.49,35.1,43.71,1.78,7.64,6.09,11.22,11.54,9.93,5.15-1.22,7.96-6.45,6.72-12.49-7.7-37.69-41.08-64.96-79.64-65.15-27.98,.25-50.32,11.66-67.05,34.1ZM443.7,462.76c-42.46,.15-84.92,.06-127.39,.06-22.07,0-44.14,0-66.21,0-62.61,0-125.23,0-187.84,0-3.12,0-6.25,.1-9.35-.16-12.84-1.08-18.53-8.99-14.71-21.23,4.42-14.12,10.07-27.78,16.51-41.13,8.2-16.99,22.67-22.96,40.3-23.88,18.94-.98,37.89-1.06,56.83-.45,3.02,.1,5.49,.04,7.4-2.89,9.36-14.34,23.83-19.75,39.82-20.96,34-2.59,68.08-2.58,102.08,0,16.01,1.21,30.45,6.65,39.81,20.98,1.91,2.92,4.37,2.98,7.4,2.88,18.23-.6,36.45-.2,54.68,.25,21.88,.53,37.58,9.56,45.6,30.51,4.01,10.46,8.41,20.78,12.26,31.3,5.84,15.97-.15,24.67-17.21,24.73Zm-296.35-68.84c-19.23,.26-37.87-.8-56.5,1.11-8.77,.9-15.29,4.65-19.54,12.58-5.22,9.72-8.64,20.16-12.84,30.29-2.18,5.25-1.88,7.05,4.46,6.91,17.02-.36,34.05-.12,51.08-.12q14.28,0,19.01-12.77c4.65-12.47,9.39-24.91,14.32-38Zm203.51,45.29c-5.77-14.37-11.23-28.86-17.13-43.19-7.39-17.95-20.69-26.02-39.47-26.69-29.47-1.05-58.95-1.23-88.41,.05-16.64,.72-30.08,6.58-37.51,22.87-6.74,14.77-12.21,30.02-18.24,45.06-2.54,6.34-1.21,7.52,5.15,7.48,31.64-.23,63.28-.1,94.91-.1,6.23,0,12.46,0,18.7,0,25.65,0,51.29,0,76.94-.02,3.55,0,7.54,.73,5.06-5.46Zm91.89,1.15c-4.59-11-8.12-22.43-13.92-32.95-4.35-7.88-10.89-11.51-19.66-12.41-18.43-1.9-36.89-.72-55.8-1.12,.07,1.21-.01,1.71,.14,2.13,5.51,15.23,12.82,29.81,16.47,45.71,.5,2.19,1.94,2.99,4.21,2.99,21.83-.05,43.65-.09,65.48,.02,3.62,.02,4.25-1.61,3.09-4.38Zm-134.14-160.4c-.38,32.52-26.44,58.23-58.82,58.05-32.38-.19-58.74-26.77-58.18-58.68,.57-32.38,27.11-58.32,59.18-57.84,31.96,.48,58.19,27.01,57.82,58.48Zm-18.27-.45c-.05-22.03-18.19-39.95-40.38-39.91-22.11,.04-40.09,18.08-40.09,40.2,0,22.03,18.17,40.4,40,40.44,22.23,.04,40.52-18.37,40.47-40.73Zm127.7,34.65c-.5,25.16-20.94,45.22-45.71,44.89-25.2-.34-44.73-20.86-44.47-46.73,.24-23.86,20.95-43.93,45.19-43.79,24.83,.14,45.49,21.08,45,45.62Zm-18.17-.9c-.14-14.78-12.21-26.4-27.31-26.28-14.79,.11-27.09,12.44-26.92,26.97,.17,14.73,12.42,26.75,27.23,26.73,15.27-.02,27.14-12.08,26.99-27.43Zm-227.03,.37c.23,24.74-19.58,45.11-44.19,45.43-24.69,.32-45.42-19.68-45.6-44-.19-25.87,19.38-46.33,44.51-46.51,24.88-.18,45.04,19.89,45.28,45.09Zm-17.78,.03c-.02-14.77-12.06-26.67-27.02-26.7-14.9-.02-27.18,11.88-27.43,26.56-.24,14.38,12.26,27,26.92,27.15,15.26,.16,27.55-11.91,27.53-27.02Z"/>
</svg>