<?xml version="1.0" encoding="UTF-8"?>
<svg id="Layer_1" data-name="Layer 1" xmlns="http://www.w3.org/2000/svg" viewBox="0 0 500 500">
  <defs>
    <style>
      .cls-1 {
        fill: #010201;
      }

      .cls-2 {
        fill: none;
      }
    </style>
  </defs>
  <rect class="cls-2" width="500" height="500"/>
  <path class="cls-1" d="M428.42,74.22c0-32.21-18.47-50.76-50.61-50.77-84.94-.03-169.89-.03-254.83,0-31.89,.01-50.21,18.36-50.22,50.16-.01,58.52,0,117.04,0,175.57,0,58.26,.67,116.53-.26,174.77-.53,33.14,22.9,52.3,51.43,51.99,84.4-.91,168.83-.88,253.24-.02,28.35,.29,51.54-18.65,51.43-51.36-.42-116.78-.15-233.56-.17-350.34Zm-16,350.85c0,22.53-11.8,34.45-34.06,34.45-85.46,.02-170.92,.02-256.38,0-21.42,0-33.21-11.87-33.22-33.47-.02-94.79,.05-189.58-.15-284.36-.01-6.23,1.54-7.89,7.83-7.86,51.33,.27,102.66,.15,153.99,.15s102.13,.11,153.19-.14c6.55-.03,9.03,1,9,8.46-.29,94.26-.18,188.52-.2,282.77Zm-8.4-306.96c-51.33-.36-102.67-.19-154.01-.19-51.07,0-102.14-.13-153.21,.16-6.64,.04-8.48-1.7-8.21-8.28,.54-12.95,.07-25.95,.18-38.92,.17-19.16,12.12-31.33,31.22-31.35,86.8-.09,173.59-.08,260.39,0,19.86,.02,31.85,12.27,32.03,32.35,.11,12.44-.38,24.91,.18,37.33,.31,6.8-1.29,8.95-8.56,8.9Zm-159.88-45.3c5.01,0,10.03-.16,15.03,.05,4.45,.18,6.74,3.2,6.9,7.26,.17,4.12-2.17,7.4-6.35,7.87-10.23,1.14-20.55,1.22-30.78-.04-4.13-.51-6.38-3.89-6.13-8.04,.25-4.15,2.66-6.93,7.07-7.1,4.74-.18,9.5-.04,14.25-.04,0,.02,0,.03,0,.05Zm-112.47-.03c4.75,0,9.51-.16,14.25,.05,4.42,.2,6.79,3.14,6.96,7.24,.17,4.12-2.13,7.45-6.31,7.92-10.24,1.15-20.56,1.21-30.79-.04-4.17-.51-6.47-3.95-6.22-7.98,.25-3.98,2.61-7,7.07-7.15,5.01-.17,10.03-.04,15.04-.03Zm54.75-.02c4.74,0,9.5-.19,14.23,.06,4.25,.22,6.86,2.65,7.09,7.02,.23,4.25-1.84,7.52-6.01,8.07-10.21,1.35-20.52,1.2-30.74,.1-4.08-.44-6.42-3.5-6.33-7.83,.1-4.83,2.99-7.22,7.52-7.46,4.73-.25,9.49-.06,14.24-.06v.1Zm64.02,91.19c-74.51-.02-136.02,61.55-135.92,136.04,.11,74.69,61.35,135.89,135.97,135.86,74.78-.03,135.73-61.05,135.75-135.91,.01-74.69-61.18-135.97-135.79-135.99Zm-.41,255.9c-65.57-.09-119.37-54.09-119.44-119.87-.07-65.82,54.63-120.36,120.35-119.98,65.75,.37,119.35,54.35,119.24,120.08-.11,66.26-53.88,119.87-120.15,119.78ZM369.68,57.48c-15.07-.21-30.16-.19-45.23,0-13.78,.17-23.41,9.62-23.53,22.63-.12,13.1,9.26,22.62,23.05,23.08,7.4,.25,14.81,.04,22.22,.04,7.94,0,15.88,.22,23.8-.05,13.52-.46,23.54-10.45,23.43-23-.11-12.64-10.22-22.51-23.75-22.7Zm-.45,29.72c-14.74,.05-29.48,.05-44.22,0-4.5-.01-7.87-1.78-7.89-6.8-.02-4.95,3.15-6.91,7.75-6.93,7.37-.03,14.74,0,22.11,0,7.37,0,14.74,0,22.11,0,4.63,0,7.97,2.26,8.06,6.82,.09,4.66-3.36,6.9-7.92,6.92Zm-118.91,104.06c-59.8,.11-108.16,48.72-108.11,108.69,.05,60.13,48.24,108.64,108,108.71,60.07,.07,108.8-48.85,108.65-109.07-.15-59.83-48.85-108.44-108.55-108.33Zm-91.04,92.6c5.18-38.1,41.8-72.44,80.16-75.63,41.11-3.42,71.8,12.74,92.57,48.18,1.44,2.46,2.5,5.15,4.35,8.99-33.44-1.01-59.16,14.04-83.09,33.25-13.85,11.12-29.23,16.93-47.06,14.5-17.35-2.37-31.68-11.12-44.8-22.19-2.35-1.98-2.51-4.24-2.12-7.1Zm121.41,103.78c-54.11,18.97-113.64-17.2-121.7-73.97-.11-.77-.01-1.57-.01-3.71,12.09,8.17,23.93,14.53,37.18,17.58,25.19,5.79,47.53-.27,67.38-16.57,14.18-11.65,29.39-21.51,47.24-26.77,7.44-2.19,14.96-2.82,22.67-2.94,6.51-.1,8.54,2.83,9.15,8.89,4.29,42.73-21.33,83.25-61.91,97.48Z"/>
</svg>