<?xml version="1.0" encoding="UTF-8"?>
<svg id="Layer_1" data-name="Layer 1" xmlns="http://www.w3.org/2000/svg" viewBox="0 0 500 500">
  <defs>
    <style>
      .cls-1 {
        fill: #0e0e0e;
      }

      .cls-2 {
        fill: none;
      }
    </style>
  </defs>
  <rect class="cls-2" width="500" height="500"/>
  <path class="cls-1" d="M115.29,201.83c-5.93,0-11.87-.04-17.8,0-4.6,.04-7.99-1.93-8.29-6.59-.34-5.21,3.33-7.58,8.07-7.66,11.86-.19,23.73-.2,35.6,.02,4.74,.09,8.24,2.39,7.81,7.78-.4,4.92-3.82,6.48-8.32,6.45-5.69-.03-11.37,0-17.06-.01Zm60.01-6.82c0-20.79,.17-41.58-.06-62.36-.16-15.06-10.8-25.7-25.84-25.78-35.4-.17-70.8-.15-106.2-.01-14.95,.06-25.85,10.67-26.34,25.51-.31,9.39-.09,18.81-.07,28.21,0,5.09,1.79,9,7.59,8.77,5.39-.21,6.79-4.07,6.76-8.8-.04-8.41-.06-16.83,0-25.24,.08-10.16,4.25-14.69,14.26-14.73,33.91-.12,67.83-.13,101.75,0,9.7,.04,14.08,4.51,14.11,14.22,.1,40.09,.11,80.18,0,120.27-.03,9.46-4.29,13.49-13.76,13.5-34.16,.06-68.33,.06-102.49,0-9.86-.02-13.81-4.03-13.85-14.03-.08-18.56-.06-37.12,0-55.68,.02-5.37-.62-10.54-7.45-10.37-6.29,.15-6.96,5.11-6.95,10.18,.04,18.81-.07,37.62,.04,56.42,.1,16.49,10.09,27.32,26.6,27.5,35.15,.38,70.31,.38,105.46,0,16.69-.18,26.36-10.7,26.45-27.46,.11-20.04,.02-40.09,.02-60.13h-.03Zm-79.42,243.13c-17.34,0-34.67,.07-52.01-.02-16.27-.08-26.95-10.64-27.06-26.99-.15-22.53-.15-45.06,.01-67.58,.1-14.14,8.34-23.93,22.16-26.56,7.59-1.44,15.32-.83,22.96-.38,3.96,.24,6.99,2.76,6.78,7.37-.2,4.58-3.21,6.56-7.37,6.72-5.69,.22-11.39,0-17.08,.12-8.69,.17-13.02,4.11-13.07,12.55-.15,22.77-.14,45.55,0,68.33,.05,7.96,4.41,12.58,12.41,12.62,34.92,.18,69.84,.17,104.75,.02,8.37-.04,12.8-4.56,12.87-13.04,.19-22.53,.2-45.06,0-67.58-.08-8.91-4.45-12.83-13.59-12.88-16.34-.09-32.69-.05-49.03-.02-5.18,0-10.74-.06-10.85-6.96-.11-6.72,5.19-7.5,10.5-7.5,16.34,0,32.69-.13,49.03,.04,17.51,.18,27.96,10.85,28.02,28.47,.08,21.78,.08,43.57,0,65.36-.07,17.99-10.1,27.88-28.16,27.92-17.09,.04-34.18,0-51.26,0ZM250.5,75.72c-73.31,0-146.61,0-219.92,0-1.98,0-3.96-.07-5.94,0-4.45,.14-7.42-2.06-7.57-6.36-.16-4.66,2.83-7.14,7.57-7.24,1.73-.04,3.47-.03,5.2-.03,147.11,0,294.22,0,441.33,0,5.64,0,12.88-1.1,12.64,7.26-.23,7.93-7.39,6.34-12.64,6.34-73.55,.04-147.11,.03-220.66,.03ZM96.36,384.65c-9.63,0-19.26-.01-28.89,0-5.02,0-9.08-1.57-9.06-7.3,.02-5.35,3.98-7.03,8.62-7.05,19.51-.07,39.01-.06,58.52,0,4.8,.02,8.48,2.18,8.35,7.35-.13,5.13-3.81,7.02-8.65,7-9.63-.03-19.26,0-28.89,0Zm18.55-145.68c-5.93,0-11.87,.03-17.8-.01-4.63-.03-7.82-2.31-7.94-6.97-.12-4.77,3.27-7.17,7.73-7.24,12.11-.18,24.23-.21,36.34,.01,4.45,.08,7.68,2.45,7.46,7.39-.22,4.86-3.42,6.8-7.99,6.82-5.93,.02-11.87,0-17.8,0Zm.32-74.27c-5.93,0-11.85-.05-17.78,.01-4.62,.05-7.97-1.96-8.23-6.62-.29-5.2,3.33-7.44,8.14-7.48,11.85-.11,23.7-.11,35.56,.01,4.45,.05,7.83,2.02,7.77,7.01-.06,5.34-3.55,7.12-8.42,7.08-5.68-.04-11.36-.01-17.04-.01Zm-55.07,59.91c4.67,.27,8.95,1.47,8.88,7.36-.07,5.28-3.63,6.98-8.45,7.04-5.09,.06-9.1-1.68-9.15-7.19-.05-5.15,3.96-6.86,8.72-7.2Zm.34-37.13c4.41,.4,8.47,1.57,8.53,7.04,.06,5.77-3.74,7.33-8.84,7.35-4.85,.02-8.59-1.85-8.76-6.84-.18-5.58,4.1-7.25,9.07-7.56Zm-.02-22.75c-5.11,.18-9.09-1.7-9.03-7.22,.05-5.12,4.01-6.91,8.69-6.94,4.94-.02,9.03,1.48,8.89,7.32-.13,5.29-3.78,6.96-8.55,6.84Zm423.72-29c0-18.61-10.37-28.89-29.01-28.9-73.78-.02-147.57-.02-221.35,0-19.33,0-29.18,9.88-29.19,29.28-.02,45.29,0,90.59,0,135.88,0,46.04-.03,92.07,.02,138.11,.02,17.94,10.14,28.03,28.08,28.04,74.28,.03,148.56,.02,222.84,0,18.3,0,28.61-10.18,28.62-28.42,.04-91.33,.03-182.66,0-273.99Zm-14.35,272.28c0,12.72-3.63,16.41-16.2,16.41-72.81,.01-145.62,.01-218.43,0-12.77,0-16.42-3.58-16.42-16.24-.02-90.36-.02-180.72,0-271.08,0-12.62,3.85-16.55,16.25-16.55,72.81-.02,145.62-.02,218.43,0,12.47,0,16.37,3.93,16.38,16.38,.02,45.3,0,90.61,0,135.91,0,45.06,0,90.11,0,135.17Zm-125.24-104.45c-32.68-.51-59.15-19.56-69.65-49.55-.65-1.86-1.21-3.79-1.49-5.73-.57-3.92,.82-6.93,4.86-7.97,3.89-1.01,6.83,.49,8.36,4.24,1.49,3.66,2.54,7.51,4.21,11.09,11.86,25.49,39.17,38.59,67.31,32.4,26.17-5.75,45.3-30.42,45.06-58.08-.25-27.69-20.05-51.97-46.92-57.54-28.54-5.91-58,10.75-67.66,38.29-.66,1.87-1.15,3.8-1.88,5.64-1.46,3.69-4.21,5.68-8.15,4.71-4.28-1.05-6-4.25-5.13-8.51,1.5-7.35,4.61-14.1,8.54-20.44,17.51-28.22,51.6-41.22,83.22-31.8,31.66,9.44,53.24,39.57,52.29,73-.92,32.35-24.02,60.24-56.2,68.33-5.87,1.47-11.73,1.52-16.78,1.93Zm59.29,28.88c-19.81-.12-39.63-.03-59.44-.03-19.81,0-39.63-.08-59.44,.02-17.41,.09-30.35,12.48-30.35,28.82,0,16.18,13.11,28.92,30.43,28.98,39.63,.14,79.26,.17,118.88-.01,17.3-.08,30.07-13,29.79-29.42-.28-16.38-12.66-28.26-29.86-28.36Zm9.47,40.89c-3.35,2.71-7.38,2.53-11.34,2.54-19.31,.02-38.61,0-57.92,0s-38.61,.06-57.92-.02c-11.03-.05-17.35-5.66-17.17-14.94,.17-9.1,6.9-14.87,17.62-14.88,38.61-.04,77.22-.04,115.83,0,8.57,0,14.43,3.87,16.62,10.96,2.09,6.77-.44,12.08-5.72,16.34Z"/>
</svg>