<?xml version="1.0" encoding="UTF-8"?>
<svg id="Layer_1" data-name="Layer 1" xmlns="http://www.w3.org/2000/svg" viewBox="0 0 800 800">
  <defs>
    <style>
      .cls-1 {
        fill: none;
      }
    </style>
  </defs>
  <rect class="cls-1" width="800" height="800"/>
  <path d="M357.81,77.53c99.43,0,198.85-.04,298.28,.06,8.65,0,20.31-2.35,20.31,11.15,0,13.3-11.5,11.39-20.27,11.39-195.72,.07-391.45,.05-587.17,.05q-22.68,0-22.68,23.25c0,33.27,0,66.55,0,99.82,0,2.74-.04,5.48,0,8.22,.09,8.06-1.2,15.82-11.36,15.61-10.19-.21-10.86-8.32-10.9-16.16-.02-3.91-.01-7.83-.01-11.74,0-34.45-.03-68.89,.01-103.34,.03-28.45,9.74-38.29,37.85-38.3,98.64-.02,197.29,0,295.93,0Zm-52.72,195.51c3.87-.54,7.78-.87,11.59-1.67,15.68-3.3,25.87-12.46,29.18-28.42,3.2-15.43-3.19-30.84-17.1-39.44-8.62-5.33-18.32-8.93-26.9-14.3-3.41-2.13-5.15-6.96-7.64-10.56,3.9-2.63,7.63-7.07,11.75-7.48,6.34-.63,13.27,.61,19.37,2.72,7.35,2.54,13.13,2.93,16.5-5.13,3.42-8.16,.12-13.98-7.7-16.76-17.31-6.15-34.6-6.43-51.08,2.68-9.13,5.05-14.04,13.09-15.09,23.73-1.51,15.39,4.58,26.71,17.64,34.31,9.12,5.31,19.04,9.36,27.67,15.33,3.36,2.32,6.13,8.67,5.5,12.59-.51,3.15-6.77,7.87-10.1,7.57-7.78-.7-15.88-2.93-22.83-6.52-6.91-3.58-12.74-7.01-18.28,.86-5.65,8.03-3.35,15.97,4.43,20.07,10.12,5.32,21.39,8.44,32.17,12.51l.92-2.09Zm120.93-101.38c7.83,.08,11.55-3.67,11.61-11.36,.05-7.6-3.41-11.71-11.3-11.69-17.98,.05-35.97,0-53.95,.05-9.08,.03-13.4,4.25-13.32,13.75,.26,31.67,.25,63.34,0,95-.07,8.81,3.61,13.37,12.28,13.44,18.76,.16,37.56,.6,56.27-.39,3.5-.19,8.69-6.06,9.58-10.09,1.77-7.95-3.1-12.2-11.5-12.11-13.08,.14-26.16,.04-38.99,.04v-28.81c8.26,0,15.8,.96,22.88-.43,3.25-.64,7.77-5.86,7.78-9.02,.01-3.36-4.01-8.49-7.38-9.69-4.89-1.74-10.98,.17-16.19-1.06-3.03-.72-7.1-4.2-7.61-7-1.14-6.31-.36-12.96-.36-20.68,14.55,0,27.38-.1,40.21,.04Zm263.72,48.04c6.87,.02,14.12,.28,14.25-9.43,.13-9.99-6.92-10.6-14.55-10.69-18.57-.21-18.22-.32-17.8-18.72,.17-7.29,2.89-9.55,9.79-9.3,10.15,.37,20.32-.05,30.48,.1,7.72,.12,11.73-3.42,11.85-11.15,.11-7.47-3.14-11.9-11.11-11.89-18.37,.02-36.74-.09-55.1,.1-8.66,.09-12.43,4.86-12.39,13.52,.16,31.66,.22,63.31-.03,94.97-.07,9.51,4.3,13.7,13.35,13.73,17.98,.06,35.95,0,53.93,.06,7.8,.03,11.46-3.81,11.37-11.54-.09-7.85-4.17-11.29-11.8-11.19-5.47,.08-10.94-.02-16.41-.02q-26.17,0-22.59-28.57c5.99,0,11.37-.01,16.75,0Zm-461.39-.05c6.68,.03,11.48-3.45,9.86-9.79-1.02-3.98-6.38-6.98-10.1-10.05-.94-.78-3.04-.16-4.6-.18-17.9-.27-17.52-.27-17.43-18.05,.04-7.75,2.73-10.4,10.29-10.04,9.76,.46,19.57-.12,29.35,.15,8.18,.23,12.76-3.16,12.79-11.51,.03-8.33-4.49-11.75-12.68-11.65-17.22,.21-34.44,.14-51.66,.06-9.56-.05-14.45,4.01-14.39,14.1,.2,31.31,.25,62.62-.04,93.93-.09,10.01,4.33,14.41,14.01,14.39,16.83-.03,33.66-.12,50.49,.09,8,.1,14.23-1.58,14.32-11.16,.09-10.25-6.53-11.92-14.98-11.73-12.01,.27-24.03,.07-36.66,.07v-28.63c7.57,0,14.5-.03,21.44,0Zm357.65,13.29c-1.24-4.02-2.59-8.02-3.7-12.08-5.67-20.74-11.36-41.47-16.88-62.25-2.29-8.61-7.62-11.53-15.84-8.87-7.49,2.42-12.31,6.69-9.49,15.72,9.77,31.35,19.51,62.71,29,94.15,2.94,9.75,10.08,12.43,18.9,12.27,8.44-.15,14.97-3.31,17.67-12.42,9.21-31.11,18.47-62.21,28.24-93.15,3.04-9.64-.98-14.09-9.23-16.62-9.13-2.79-13.58,1.16-15.91,10.18-6.31,24.55-13.29,48.93-20,73.38-.91-.11-1.83-.21-2.74-.32Zm189.97,88.12c-.01,29-9.57,38.42-38.9,38.42-100.6,.02-201.19,0-301.79,0h-15.98v98.66c15.84,0,31.36-.77,46.78,.22,15.08,.96,30.84,1.39,44.92,6.15,33.63,11.36,54.7,42.58,55.49,78.15,.29,12.91-.24,25.84,.18,38.75,.79,24.62-6.66,45.99-22.72,64.84-3.95,4.64-5.92,11.78-6.77,18.04-1.15,8.46-.07,17.2-.42,25.79-.92,22.2-13.25,34.72-35.57,35.13-26.61,.49-53.23,.16-79.85,.16-19.96,0-39.93,.28-59.88-.1-23.7-.46-37.78-13.88-36.63-37.64,.96-19.64-4.33-34.19-18.42-48.77-20.31-21.02-37.47-45.14-55.34-68.41-5.64-7.34-10.3-15.83-13.64-24.47-7.91-20.53-3.44-39.8,10.98-52.78,15.27-13.75,38.16-16.8,57.06-7.61,15.32,7.45,16.87,6.5,16.89-10.67,.04-34.05-.45-68.12,.27-102.16,.24-11.2-3.61-13.55-14.04-13.51-82.2,.38-164.4,.23-246.6,.2-28.26,0-37.92-9.76-37.99-38.17-.03-12.13-.03-24.27,.04-36.4,.05-7.83,2.43-14.67,11.56-14.46,8.4,.19,10.64,6.67,10.64,14.09,0,13.7,.2,27.4,0,41.1-.12,7.94,3.36,11.27,11.29,11.25,86.5-.13,173.01-.12,259.51-.19,1.12,0,2.24-.49,4.68-1.07,.37-4.77,.65-9.04,1.04-13.3,2.25-24.66,22.45-43.59,46.88-43.98,24.04-.38,46.7,18.51,47.7,42.79,.58,14.17,5.89,16.01,18.15,15.96,100.2-.45,200.41-.25,300.61-.26,17.48,0,17.58-.12,17.59-17.79,.01-67.72,.02-135.43-.01-203.15,0-15.09-.67-15.65-16.08-15.73-8.61-.05-17.54,1.26-25.71-.67-4.65-1.1-8.05-7.48-12.01-11.48,4.04-3.47,7.82-9.46,12.18-9.92,12.38-1.32,25.03-.95,37.51-.17,13.3,.82,23.3,10.46,25.57,23.59,.79,4.59,.79,9.35,.79,14.03,.05,68.5,.05,137,.02,205.5Zm-379.85,135.42c-.17-27.8-.04-55.6-.06-83.4-.01-15.27,.47-30.57-.29-45.8-.91-18.21-15.58-29.65-31.64-25.66-12.09,3-19.62,13.37-19.78,28.54-.26,25.45-.07,50.9-.07,76.35-.09,0-.18,0-.27,0,0,26.62,.73,53.27-.23,79.86-.79,22.04-21.79,33.11-41.49,23.06-3.48-1.77-6.87-3.85-10.54-5.09-11.02-3.72-20.94-1.36-29.21,6.73-8.13,7.95-7.58,17.74-4.1,27.34,2.11,5.81,5.09,11.6,8.88,16.45,19.08,24.34,36.84,50.07,58.45,71.96,16.51,16.73,23.03,34.03,21.57,56.55-1.1,16.97,2.68,20,19.47,20.03,39.55,.06,79.09,.02,118.64,.02,29.4,0,30.08-.02,29.15-29.41-.59-18.57,3.84-33.94,16.02-48.56,6.79-8.15,10.92-20.15,12.19-30.89,2.07-17.38,1.78-35.21,.73-52.74-2.17-36.43-27.87-60.32-64.51-60.92-19.57-.33-39.16,0-58.73-.12-17.26-.1-24.09-6.85-24.2-24.28Zm129.56-187.04c-8.01,4.55-14.11,2.42-18.29-5.87-5.8-11.52-11.46-23.15-17.97-34.27-1.73-2.96-6.35-4.22-9.64-6.26-1.35,3.22-3.63,6.38-3.86,9.68-.57,8.17-.47,16.42-.14,24.62,.38,9.73-4.73,13.51-13.62,13.4-8.23-.1-13.16-3.51-13.1-12.73,.19-32.46-.22-64.93,.46-97.37,.08-4,5.23-11.16,8.28-11.29,15.94-.72,32.06-.64,47.91,1.11,13.35,1.47,23.26,9.2,25.91,23.46,2.93,15.78,1.89,30.52-12.49,41.12-1.53,1.13-2.98,2.37-5.53,4.4,6.13,11.21,11.4,21.69,17.47,31.68,5.19,8.55,2.1,14.07-5.39,18.32Zm-18.81-82.48c-.09-11.17-5.65-14.72-19.85-15.62-12.46-.79-11.91,6.53-11.29,13.02q-.03,18.36,11.57,18.35c14.07-.02,19.66-4.52,19.58-15.74Zm-348.7,82.84c-8.42,4.45-14.03,1.16-18-6.82-5.57-11.2-11.03-22.48-17.32-33.27-1.79-3.08-6.28-4.58-9.53-6.8-1.6,3.4-4.29,6.71-4.57,10.21-.68,8.55-.37,17.19-.23,25.78,.15,8.75-5.01,11.7-12.64,11.82-8.13,.13-13.55-2.8-13.52-12.18,.12-32.84-.25-65.69,.45-98.51,.08-3.83,5.54-10.62,8.8-10.8,15.16-.83,30.51-.77,45.6,.81,14.31,1.5,24.98,9.43,27.82,24.54,2.98,15.84,1.22,30.5-13.33,40.8-1.26,.89-2.42,1.91-4.98,3.95,5.93,10.88,11.19,21.29,17.17,31.28,5.31,8.88,2.56,14.81-5.71,19.18Zm-21.29-91.86c-7.09-4.94-17-5.83-27.5-8.86v35.92c10.33-2.88,20.26-3.68,27.4-8.55,3.13-2.14,3.2-16.34,.1-18.51Z"/>
</svg>