<?xml version="1.0" encoding="UTF-8"?>
<svg id="Layer_1" data-name="Layer 1" xmlns="http://www.w3.org/2000/svg" viewBox="0 0 800 800">
  <defs>
    <style>
      .cls-1 {
        fill: none;
      }
    </style>
  </defs>
  <rect class="cls-1" width="800" height="800"/>
  <path d="M760.75,411.49c-1.85,17.16-3.53,33.15-5.33,49.12-.87,7.7-4.83,13.03-13.04,12.36-8.98-.74-11.23-7.17-10.85-15.31,1.33-28.73,2.63-57.46,3.6-86.2,.25-7.36,2.55-12.93,10.26-13.53,7.94-.62,12.57,3.86,13.03,12.06,.8,14.18,1.59,28.37,2.32,41.5Zm-695.48-11.25c0-9.36-.2-18.72,.06-28.07,.22-7.76-2.19-13.89-10.57-14.35-8.72-.48-12.97,5.12-12.75,13.57,.74,27.97,1.65,55.93,2.63,83.89,.32,9.11,1.76,17.98,13.83,17.6,8.53-.27,11.12-7.04,9.67-21.22-1.75-17.08-3.02-34.22-4.49-51.33,.54-.03,1.08-.06,1.62-.09Zm374.44,360.27c8.03-.55,14.5-4.34,13.98-12.88-.57-9.19-7.57-11.45-16.23-11.32-24.67,.36-49.35,.38-74.02,0-8.5-.13-15.84,1.51-16.73,10.75-.91,9.32,6.04,12.91,14.46,13.48,13.08,.88,26.17,1.6,39.18,2.39,13.2-.8,26.29-1.51,39.37-2.41ZM367.11,68.12c7.24-1.3,11.88-5.21,11.16-12.89-.77-8.32-6.55-11.6-14.27-10.67-12.25,1.47-24.5,3.2-36.61,5.55-9.89,1.92-20.07,3.82-29.14,7.89-4.03,1.81-7.88,9.05-7.71,13.67,.15,3.82,6.33,7.4,7.72,8.86,25.43-4.58,47.13-8.51,68.84-12.4Zm55.34-13.34c-.99,8.33,4.07,12.03,11.72,13.51,20.55,3.97,40.97,8.72,61.64,11.81,4.43,.66,11.99-3.16,14.09-7.08,3.66-6.81-.22-13.7-7.96-15.58-21.4-5.2-42.99-9.64-64.51-14.39-7.94,1-13.98,3.33-14.99,11.73Zm169.73,460.75c-.03,22.72-7.2,30.12-29.94,31.37-1.46,.08-2.91,.41-6.27,.9,0,14.78,0,29.58,0,44.39,0,3,.74,6.25-.16,8.95-1.86,5.57-3.37,13.8-7.3,15.43-4.07,1.69-12.26-1.65-16.2-5.37-19.62-18.52-38.14-38.21-57.75-56.74-4.33-4.09-11.45-7.18-17.36-7.3-33.35-.69-66.73-.27-100.09-.37-19.6-.06-28.87-9.39-28.99-28.95-.08-13.84-.02-27.68-.02-45.03-5.76,3.55-9.96,5.23-12.95,8.14-15.58,15.17-30.31,31.25-46.44,45.79-8.5,7.66-14.26,24.6-28.97,18.06-14.13-6.28-6.33-22.12-7.4-33.74-1.05-11.46-.23-23.09-.23-35.62-4.8-.27-7.78-.4-10.75-.62-15.12-1.1-25.09-10.02-25.22-24.89-.44-47.61-.48-95.23,.02-142.84,.16-15.65,10.61-24.32,27.69-24.42,39.36-.23,78.73-.08,118.1-.09,29.62,0,59.24-.11,88.85,.04,20.71,.11,29.43,8.8,29.7,29.39,.18,13.77,.03,27.53,.03,42.15,5.27,.25,9.28,.59,13.28,.59,29.24,.05,58.49-.03,87.73,.05,22.78,.06,30.58,7.72,30.62,30.24,.09,43.49,.07,86.98,0,130.47Zm-237.84-160.81c14.61-.39,29.23-.12,43.85-.13,12.23,0,24.47,0,37.02,0v-47.32H221.12v142.99c5.99,0,11.18-.06,16.36,.01,14.98,.21,18.65,3.84,18.73,18.54,.06,11.29,.01,22.58,.01,37.24,14.48-14.67,26.27-26.68,38.13-38.61,9.16-9.21,17.13-20.55,33.63-17,0-5.51,0-9.18,0-12.84,0-18.74-.15-37.48,.06-56.22,.2-17.35,8.83-26.19,26.3-26.66Zm214.03,157.13c-.48-26.22-.15-52.45-.14-78.67,0-17.54,0-35.09,0-53.65h-214.62v142.87c4.91,0,8.97,0,13.02,0,31.1,.02,62.2,.51,93.28-.18,12.26-.27,21.37,3.16,29.59,12.35,12.84,14.36,26.74,27.77,40.2,41.58,.98-.56,1.96-1.12,2.94-1.67,0-11.82-.11-23.63,.03-35.45,.15-12.61,3.49-16.02,15.82-16.54,2.99-.13,6.04-.36,8.98,.02,8.33,1.07,11.06-2.17,10.91-10.67Zm-280.56,221.09c-4.88,9.52-12.57,7.38-20.34,4.31-3.05-1.21-6.17-2.25-10.32-3.75-.38,3.75-.85,6.52-.9,9.3-.33,17.26-2.89,19.82-20.6,19.84-43.44,.04-86.88,.01-130.32,.01-16.1,0-32.21,.14-48.31-.06-12.91-.16-16.58-3.97-16.75-16.91-.13-9.73,.44-19.5-.11-29.2-1.83-32.19,8.61-57.35,38.85-70.21,0-16.42-3.99-33.32,1.03-46.87,5.98-16.14,3.9-27.99-4.22-41.2-4.39-7.15-4.84-14.92,3.93-19.12,8.72-4.17,14,1.2,17.65,8.78,2.08,4.34,4.41,8.56,6.83,13.23,29.16-18.68,58.5-20.93,86.4-.14,28.48,21.23,35.34,50.42,25.05,84.53,20.11,8.48,35.82,22.23,38.17,43.76,1.74,15.93,9.99,21.18,22.49,25.73,11.45,4.17,15.19,10.68,11.46,17.96Zm-187-114.01c.15,25.75,21.41,47.05,47.11,47.21,26.16,.16,47.89-21.44,47.88-47.6,0-26.59-21.27-47.88-47.7-47.76-26.4,.11-47.45,21.55-47.3,48.16Zm130.25,76.77c-1.4-13.27-10.35-22.21-22.85-26.68-2.8-1-7.84-.28-9.82,1.69-26.49,26.27-72.38,26.83-99.9,.41-2.21-2.12-7.62-2.77-10.75-1.73-11.4,3.79-20.17,12.16-21.68,23.71-1.9,14.51-.46,29.46-.46,44.52H231.38c0-14.47,1.11-28.33-.32-41.92Zm529.12,51.18c-.16,11.5-4.12,15.65-15.71,15.68-61.49,.15-122.98,.15-184.47,0-11.66-.03-15.37-4.14-15.69-15.65-.11-4.03-.02-8.07-.02-13.65-6.24,2.22-11.02,4.05-15.9,5.61-6.96,2.23-12.81,.82-15.85-6.36-3.13-7.36,.35-13.81,6.87-15.44,18.15-4.52,25.65-15.39,28.95-33.67,3.37-18.72,18.24-30.29,36.43-37.66-10.42-34.86-3.18-64.71,26.54-85.89,27.49-19.58,56.29-17.24,84.93,1.35,3.14-6.13,5.56-11.2,8.28-16.09,3.56-6.4,8.98-9.33,15.98-6.19,7.09,3.18,9.58,10.36,5.47,15.9-12.64,17.03-9.4,33.39-3.38,51.93,3.69,11.34,.68,24.86,.68,37.4-1.12,.21-2.24,.42-3.35,.63,2.12,1.31,4.17,2.76,6.38,3.91,21.55,11.21,32.77,29.14,33.74,53.19,.61,14.97,.33,29.99,.13,44.99Zm-155.49-128.22c.03,25.67,21.25,47.17,46.88,47.48,26.23,.32,48.02-21.11,48.12-47.33,.1-26.57-21.06-48.01-47.43-48.04-26.44-.03-47.6,21.27-47.57,47.88Zm130.21,78.74c-1.88-8.94-8.87-17.6-15.52-24.51-5.98-6.22-13.05-6.48-21.38,.69-26.97,23.22-65.07,23.31-91.36,.28-8.6-7.54-15.7-6.97-22.26-.54-6.14,6.02-13.1,13.7-14.45,21.55-2.35,13.68-.65,28.05-.65,42.52h166.29c0-14.02,1.97-27.49-.66-40Zm25.34-458.86c-.03,17.03-2.58,19.62-19.26,20.03-2.9,.07-5.79,.44-10.15,.78,2.42,6.42,5.89,11.38,5.65,16.16-.25,5.08-2.89,12.62-6.58,14.2-3.57,1.53-9.85-3.05-14.84-5.18-.79-.34-1.33-1.87-1.5-2.93-3.43-21.32-17.14-24.23-36.26-23.49-38.17,1.47-76.44,.48-114.67,.41-15.22-.03-18.28-3.21-18.34-18.57-.05-11.99,.19-23.99-.05-35.98-.54-27.39,10.82-47.61,35.5-60.03,1.26-.64,2.44-1.45,3.62-2.23,1.56-18.57-8.23-28.15-23.21-34.57-7.75-3.32-13.85-9.19-8.63-18.52,5.21-9.3,12.87-6.79,20.34-2.47,3.53,2.04,7.21,3.82,11.64,6.15,8.88-22.38,23.77-38.37,46.42-46.01,15.39-5.19,30.99-5.1,46.28,.63,37.68,14.11,53.15,46.97,43.97,94.26,3.56,2.02,7.48,4.02,11.17,6.38,18.85,12.02,28.25,29.47,28.81,51.64,.33,13.11,.12,26.23,.09,39.35Zm-155.52-124.2c-.13,26.47,21.07,47.64,47.64,47.56,26.17-.07,47.12-20.77,47.33-46.75,.21-26.76-20.57-48.03-47.08-48.19-26.6-.16-47.76,20.77-47.89,47.38Zm-21.12,27.2c.19-.16,.27-.35,0,0h0Zm151.25,51.36c-1.86-8.89-9.2-17.39-15.92-24.27-5.81-5.94-12.9-5.76-20.62,.89-27.19,23.41-64.12,23.81-91.33,.62-9.57-8.16-17.31-6.65-24.3,.43-5.76,5.84-11.77,13.64-12.97,21.3-2.09,13.43-.58,27.41-.58,41.92h166.41c0-14.23,2-28.05-.69-40.89Zm-478.52,18.63c-.62,10.08,0,20.23-.13,30.35-.16,13.02-3.64,16.58-16.89,16.61-43.48,.11-86.96,.36-130.43-.2-9.42-.12-14.66,2.71-17.24,11.55-1.25,4.29-3.09,8.44-5,12.5-3.2,6.77-8.1,11.38-16.02,8.09-7.5-3.11-9.2-9.24-6.36-16.74,1.67-4.43,3.23-8.9,5.5-15.2-6.12,0-10.84,.03-15.56,0-9.27-.06-13.81-5.06-13.88-14.02-.12-16.11-.62-32.27,.25-48.34,1.42-26.14,15.73-43.69,40.26-54.77-8.18-24.13-5.97-47.16,8.83-68.19,9.84-13.99,23.27-23.42,39.61-28.02,35.71-10.06,66.45,6.32,88.28,46.82,5.25-2.75,10.31-7.04,15.85-7.81,4.91-.68,12.86,1.09,14.87,4.49,2.02,3.41-1.39,10.27-3.01,15.43-.42,1.35-2.91,2.27-4.61,2.98-14.84,6.21-25.37,15.53-23.48,35.03,29.88,12.99,41.1,37.37,39.13,69.42ZM100.8,114.48c-.08,26.47,21.21,47.6,47.79,47.43,26.15-.17,47.15-21.03,47.2-46.89,.05-26.8-20.7-47.92-47.22-48.05-26.63-.13-47.69,20.82-47.77,47.51Zm130.04,78.41c-1.86-8.9-9.16-17.44-15.9-24.31-5.79-5.91-12.88-5.61-20.61,.99-27.72,23.67-64.7,23.62-92.23-.11-7.81-6.73-14.53-6.32-20.7-.74-6.16,5.56-13.78,12.61-14.94,19.93-2.33,14.72-.69,30.06-.69,45.48H231.53c0-14.58,2-28.4-.69-41.24Zm298.51,293.82c8.17-.01,14.44-3.38,14.61-12.02,.18-8.98-6.58-11.96-14.5-12.01-22.08-.14-44.17-.07-66.25-.05-8.12,0-14.71,3.26-14.62,11.96,.09,8.37,6.1,12.23,14.51,12.16,10.85-.1,21.71-.02,32.57-.02,11.23,0,22.46,.01,33.69,0Zm-71.14-48.22c7.87,0,13.48-3.63,13.72-11.61,.25-8.13-5.43-12.07-13.18-12.13-22.82-.18-45.64-.11-68.46-.04-7.74,.02-13.66,3.51-13.7,11.62-.05,8.68,5.95,12.22,14.28,12.18,10.85-.06,21.7-.01,32.55-.02,11.6,0,23.2,0,34.79,0Zm-57.95,48.15c3.72,0,8.23,1.33,11-.29,4.87-2.86,11.22-6.94,12.32-11.59,1.63-6.91-4.33-11.52-11.63-11.85-8.17-.37-16.7-1.35-24.42,.58-4.41,1.1-10.56,7.61-10.38,11.41,.2,4.05,6.41,8.74,11.02,11.33,3.11,1.75,8,.33,12.1,.33,0,.03,0,.06,0,.09Zm119.68-48.56c4.83,0,10.46,1.55,14.28-.42,4.18-2.16,8.88-7.39,9.23-11.63,.27-3.34-5.3-9.75-8.98-10.32-9.41-1.47-19.38-1.43-28.78,.11-3.51,.57-8.76,7.28-8.38,10.63,.48,4.2,5.28,9.06,9.46,11.34,3.45,1.87,8.72,.38,13.18,.38,0-.03,0-.06,0-.09Z"/>
</svg>