<?xml version="1.0" encoding="UTF-8"?>
<svg id="Layer_1" data-name="Layer 1" xmlns="http://www.w3.org/2000/svg" viewBox="0 0 800 800">
  <defs>
    <style>
      .cls-1 {
        fill: none;
      }

      .cls-2 {
        fill: #010101;
      }
    </style>
  </defs>
  <rect class="cls-1" width="800" height="800"/>
  <path class="cls-2" d="M787.75,375.83c-9.11-25.03-19.13-49.73-29.06-74.46-2.39-5.96-7.57-8.79-13.83-6.72-6.3,2.08-8.32,7.37-7.02,13.69,.65,3.13,1.83,6.18,3,9.17,7.33,18.81,14.37,37.74,22.27,56.31,2.8,6.57,1.49,9.05-4.89,11.37-15.92,5.8-31.76,11.89-47.32,18.57-5.85,2.51-8,2.04-10.44-4.22-23.85-61.33-47.93-122.58-72.4-183.66-2.53-6.32-1.31-8.44,4.4-10.57,15.5-5.8,31.08-11.48,46.18-18.2,7.4-3.29,10.26-2.24,13.08,5.43,8.08,21.97,17.03,43.63,25.62,65.41,2.7,6.85,7.28,11.25,14.9,8.49,8.04-2.92,9.27-9.13,6.22-16.79-9.85-24.75-19.24-49.7-29.43-74.32-5.07-12.24-17.52-17.12-30.04-12.42-19.65,7.37-39.1,15.26-58.7,22.78-10.89,4.17-17.42,11.56-17.83,23.44-.12,3.48-.21,5.87-4.23,7.41-23.85,9.14-47.51,18.71-73.95,11.84-6.24-1.62-12.69-2.43-19.08-3.4-6.9-1.05-12.3,1.31-13.96,8.42-1.87,7.98,3.03,12.63,10.01,13.97,12.68,2.43,25.54,4.01,38.36,5.67,22.28,2.9,42.07-6.02,61.98-13.77,6.69-2.6,10.24-3.01,13.37,5.12,19.01,49.34,38.49,98.51,58.26,147.56,2.81,6.97,.9,10.04-4.82,13.45-11.11,6.63-22.2,13.4-32.66,20.99-6.48,4.7-10.87,3.65-16.84-.86-26.79-20.25-54.06-39.88-80.89-60.08-6.23-4.69-12.38-6.81-20.15-5.7-43.66,6.27-80.3-8.34-111.67-38.14-15.8-15.02-26.74-15.34-43.29-1.39-17.73,14.95-36.25,28.54-59.68,33.37-12.69,2.62-24.08-.27-34.35-7.86-7.33-5.42-7.72-10.75,.38-16.12,37.95-25.16,72-54.99,104.19-87.06,8.88-8.84,19.43-12.4,32.09-10.23,13.93,2.39,27.97,4.25,42,6.01,7.07,.89,12.2-2.44,12.88-9.66,.66-7.03-3.37-11.23-10.54-12.3-10.39-1.55-20.96-2.46-31.09-5.06-27.17-6.97-49.36,.59-67.67,21.23-3.02,3.4-5.88,6.03-11.41,4.16-20.55-6.97-42.09-6.73-63.41-8.79-23.83-2.3-48.9,3.07-71.4-9.82-4.24-2.43-7.97-3.16-7.8-9.97,.26-10.66-6.22-17.91-16.3-21.81-19.94-7.73-39.76-15.79-59.78-23.31-13.22-4.97-25.33,.11-30.58,13.31-25.85,64.88-51.5,129.84-76.94,194.89-6.03,15.41-.81,26.41,14.92,32.94,17.14,7.12,34.5,13.7,51.68,20.72,9.21,3.76,18.34,6.64,27.86,1.24,2.88-1.63,5.29-.92,7.88,.74,15.68,10.02,31.39,20.01,47.16,29.9,4.08,2.55,4.69,5.17,3.08,9.98-9.87,29.45,4.28,53.05,34.73,57.58,5.32,.79,7.77,2.24,9.02,7.28,4.76,19.24,17.97,29.33,36.93,31.62,6.07,.73,7.87,2.94,9.29,8.25,4.79,17.94,17.08,28.31,35.22,30.31,7.02,.78,8.94,3.19,10.89,9.42,9.43,30.14,43.79,39.86,67.18,19.56,5.18-4.49,8.32-14.04,14.4-13.64,6.19,.41,11.86,7.44,17.92,11.34,25.13,16.18,59.11,6.09,68.29-21.19,2.73-8.1,5.04-10.26,13.73-9.51,26.72,2.3,44.28-10.77,49.75-37.03,1.57-7.54,5.36-6.13,10.02-6.25,20.74-.53,37.16-11.88,42.86-31.3,2.3-7.83,4.38-12.7,12.43-9.9,27.3,0,50.08-20.64,45.82-45.92-3.05-18.06,4.76-24.23,17.18-30.84,4.27-2.27,8.33-5.03,12.23-7.9,6.51-4.8,12.27-8.05,20.34-1.59,4.59,3.67,11.64,2.97,17.56,.67,21.06-8.19,42.24-16.12,63.06-24.87,11.16-4.69,16.82-16.1,12.87-26.94Zm-687.37,21.64c-2.65,6.78-4.78,9.73-12.79,6.05-15.35-7.05-31.22-13.05-47.09-18.88-5.53-2.03-6.47-4.06-4.31-9.5,24.43-61.41,48.63-122.91,72.87-184.39,1.52-3.84,2.45-7.65,8.36-5.19,17.11,7.11,34.39,13.81,51.61,20.65,2.24,.89,4.73,1.43,4.85,4.55-.89,2.24-1.77,4.48-2.65,6.72-23.66,59.99-47.4,119.94-70.85,180Zm107.07,103.27c-7.73,1.11-14.7-.47-19-7.59-4.05-6.72-4.71-14.37,.16-20.55,9.98-12.65,20.52-24.91,31.48-36.73,5.47-5.9,13.15-6.09,20.24-2.67,6.7,3.23,9.79,9.31,10.58,16.58-.02,9.81-33.84,49.57-43.47,50.96Zm53.87,35.53c-2.71,3.07-6.87,4.13-10.51,3.98-7.68,.22-13.23-2.67-16.76-8.74-3.73-6.39-4.35-13.59,.21-19.39,9.96-12.69,20.21-25.25,31.39-36.86,6.99-7.26,16.33-6.81,24.2-.55,7.63,6.07,9.73,15.25,4.26,22.75-9.95,13.66-21.58,26.11-32.78,38.82Zm46.25,38.83c-3.02,3.41-7.84,3.94-12.39,3.98-13.76-.29-23.42-15.38-15.58-26.65,9.62-13.85,20.99-26.66,32.74-38.81,7.09-7.33,16.5-6.24,24.08,.49,7.3,6.49,8.57,15.65,3.14,23.05-9.76,13.31-21.01,25.56-31.99,37.94Zm79.34-1.31c-10.25,15.01-21.67,29.2-35.29,41.18-6.15,5.41-14.61,4.6-21.28-.7-7.07-5.61-10.02-13.81-5.38-21.55,9.35-15.58,21.63-29.11,34.99-41.37,5.42-4.97,12.95-4.11,19.38-.58,6.15,3.38,9.04,8.99,9.15,16.96-.35,1.46-.31,4.2-1.57,6.06Zm235.05-100.79c-1.74,9.54-8.23,14.59-16.81,17.28-8.21,2.57-15.04-1.19-21.31-5.93-14.53-10.98-29-22.04-43.43-33.16-6.73-5.18-13.76-10.54-20.67-1.11-6.34,8.65,.09,14.06,6.48,18.97,9.95,7.65,19.93,15.25,29.81,22.99,9.91,7.76,12.31,20.33,5.9,30.01-6.69,10.09-20.22,13.62-30.95,6.44-13.77-9.22-26.59-19.84-39.89-29.75-2.88-2.14-5.88-4.44-9.2-5.61-5.14-1.82-9.73,0-12.55,4.72-3.45,5.77-1.95,11.03,3.08,15.05,9.16,7.33,18.53,14.41,27.81,21.59,12.3,9.52,14.87,21.74,6.84,32.47-7.81,10.43-21.33,12.12-33.46,3.46-11.53-8.22-22.62-17.06-33.82-25.73-6.44-4.99-13.26-7.7-19.05-.04-5.8,7.67-1.26,13.49,5.27,18.29,4.89,3.59,9.69,7.31,14.46,11.07,10.24,8.07,12.59,17.21,7.14,27.48-5.14,9.69-16.18,14.39-26.9,11.06-7.49-2.33-13.06-7.94-19.27-12.4-4.24-3.05-.61-5.43,1.02-7.94,19.54-30.11,5.14-61.73-30.8-66.97-4.46-.65-6.16-2.04-7.22-6.13-5.18-19.91-18.24-31.12-38.69-32.6-5.68-.41-6.52-3.42-7.59-7.29-5.34-19.47-18.29-30.05-38.17-31.59-5.27-.41-6.64-2.4-7.66-6.91-4-17.68-15.84-28.18-32.95-31.7-16.47-3.38-29.93,3.31-40.77,15.98-15.17,17.74-15.29,17.63-35.05,5.1-11.61-7.37-23.09-14.96-34.91-21.98-5.15-3.06-6.02-5.56-3.64-11.5,20.3-50.59,40.27-101.32,59.87-152.18,3.06-7.95,6.28-8.16,13.13-4.74,15.44,7.7,31.85,10.4,49.3,10.11,25.46-.42,50.95,1.15,78.72,6.07-22.41,20.69-44.24,37.88-67.39,53.45-25.67,17.26-25.26,41.21,1.09,57.75,23.18,14.55,47.06,11.9,70.79,1.65,17.23-7.44,32.53-18.12,46.34-30.73,5.31-4.85,8.67-4.92,14.01,.23,34.8,33.57,76.35,49.05,124.78,45.07,4.71-.39,8.5,.37,12.39,3.28,27.91,20.8,56.03,41.32,83.98,62.07,8.11,6.02,11.83,14.09,9.96,24.35Z"/>
</svg>