<?xml version="1.0" encoding="UTF-8"?>
<svg id="Layer_1" data-name="Layer 1" xmlns="http://www.w3.org/2000/svg" viewBox="0 0 800 800">
  <defs>
    <style>
      .cls-1 {
        fill: none;
      }

      .cls-2 {
        fill: #010101;
      }
    </style>
  </defs>
  <rect class="cls-1" width="800" height="800"/>
  <path class="cls-2" d="M745.78,288.19c10.63-59.92,21.34-119.82,31.89-179.75,1.79-10.17-2.7-15.92-12.95-16.85-29.39-2.67-58.81-5.11-88.21-7.73-21.95-1.95-43.89-4.07-65.84-6.04-4.21-.38-7.69-.83-7.29-6.61,.81-11.67-6.38-14.84-16.45-14.83-122.11,.03-244.23,.04-366.34-.02-11.04,0-17.48,4.47-16.55,16.18,.52,6.55-1.86,8.89-8.43,9.4-14.11,1.1-28.15,3.14-42.23,4.66-39.12,4.23-78.26,8.32-117.37,12.62-11.37,1.25-15.53,6.61-13.61,17.41,7.25,40.98,14.64,81.93,21.97,122.89,8.24,45.99,16.4,92,24.8,137.96,1.01,5.52,1.09,8.99-5.17,11.83-9.88,4.48-11.92,13.55-11.1,23.82,3.15,39.61,6.19,79.23,9.02,118.87,4.4,61.63,8.46,123.27,12.93,184.89,1.61,22.17,7.07,26.76,29.73,26.76,100.05,0,200.11,0,300.16,0,100.84,0,201.68,.03,302.53-.03,17.28,0,24.64-6.85,25.59-23.78,2.74-48.73,5.29-97.46,8.01-146.19,1.62-29.08,3.41-58.15,5.14-87.23,2.9-48.72,5.81-97.44,8.73-146.15,.39-6.56-.18-13.79-5.98-16.96-8.99-4.91-7.1-11.54-5.67-18.84,1.06-5.39,1.73-10.86,2.69-16.27ZM238.65,81.22c55.14,.16,110.27,.09,165.41,.09,54.74,0,109.49,.18,164.23-.19,8.41-.06,11.3,1.43,11.24,10.77-.47,70.87-.54,141.74,.03,212.6,.09,10.98-3.36,13.01-13.32,12.71-23.61-.7-47.26-.03-70.88-.29-14.98-.17-27.43,4.68-38.25,15.24-17.18,16.77-35.03,32.84-52.4,49.41-3.96,3.77-7.97,5.39-13.53,5.37-50.8-.21-101.61-.33-152.41,.08-8.52,.07-10.38-2.67-10.36-10.68,.23-95.28,.27-190.56-.15-285.84-.04-8.93,3.62-9.3,10.4-9.28ZM66.84,225.53c-5.6-31.28-10.93-62.61-16.77-93.84-1.25-6.67-.88-9.2,7.17-10.01,46.54-4.69,93.01-10.08,139.47-15.58,6.12-.72,7.23,1.03,7.21,6.65-.18,51.54-.17,103.09-.02,154.63,.02,5.62-1.26,8-7.52,8.93-23.31,3.45-46.41,8.3-69.75,11.49-9.69,1.33-9.22,6.59-7.63,12.94,1.5,5.99-.17,14.36,11.93,11.76,23.74-5.09,47.84-8.46,72.87-12.72,0,27.38-.12,54.08,.1,80.78,.05,5.56-2.47,6.34-7.15,6.32-31.49-.14-62.97-.13-94.46-.01-4.5,.02-6.78-.73-7.71-6.09-9.02-51.79-18.47-103.51-27.74-155.26Zm662.68,125.55c-4.69,76.62-8.67,153.28-12.98,229.92-2.37,42.05-5.25,84.08-7.26,126.15-.46,9.71-3.67,12.23-13.28,12.19-97.71-.37-195.42-.23-293.13-.23s-194.63-.14-291.94,.22c-9.19,.03-11.72-2.57-12.29-11.56-4.03-63.24-8.6-126.44-13.09-189.65-2.18-30.62-4.97-61.2-6.7-91.85-1-17.81-3.07-15.19,14.13-15.21,101.65-.14,203.29-.15,304.94,.09,8.08,.02,13.89-2.25,19.7-7.95,18.26-17.92,37.21-35.14,55.78-52.77,5.97-5.67,12.44-8.83,21.05-8.8,75.25,.21,150.5,.2,225.75,0,7.23-.02,9.85,.87,9.33,9.46Zm-6.47-73.08c-1.82,10.41-4.22,20.72-6.36,31.07,.96,5.22-.41,8.06-6.53,8.03-33.38-.17-66.76-.22-100.14,.01-8.87,.06-6.26-5.99-6.51-10.55-.45-8.08,5.17-4.85,8.8-4.25,22.04,3.63,44.04,7.47,66.06,11.24,4.43-24.72,4.42-24.61-21.15-28.53-15.14-2.32-30.19-5.27-45.35-7.51-5.93-.88-8.59-2.76-8.56-9.52,.3-52.34,.29-104.67,.02-157.01-.03-6.78,1.73-8.74,8.56-8.1,44.64,4.18,89.31,8.16,133.99,11.84,6.89,.57,4.75,4.12,4.11,7.83-8.98,51.82-17.89,103.64-26.95,155.45Zm-385.58,59.68c-21.64,0-43.31-.67-64.9,.28-10.89,.48-9.88-5.49-9.62-12.29,.23-6.18-2.49-12.89,8.99-12.72,43.66,.67,87.34,.68,131,0,11.55-.18,8.72,6.59,8.94,12.7,.24,6.68,1.51,12.82-9.51,12.33-21.59-.97-43.26-.28-64.9-.28Zm171.27-203.18c12.56,0,25.13,.22,37.69-.07,10.72-.25,6.69,7.67,6.75,12.49,.05,4.87,3.76,12.51-6.89,12.39-25.52-.29-51.04-.17-76.56-.03-4.46,.02-5.97-1.5-6.45-6.02-1.9-17.75-1.21-18.76,16.02-18.76,9.82,0,19.63,0,29.45,0Zm-.07,90.96c-12.59,0-25.19-.33-37.76,.1-11.62,.4-7-8.08-7.29-13.19-.29-5.02-3.25-12.18,7.3-11.97,25.17,.49,50.35,.33,75.52,.08,10.77-.11,6.72,7.72,6.73,12.51,0,4.81,3.97,12.76-6.73,12.53-12.58-.27-25.17-.06-37.76-.06Zm6.05,270.67c-76.38-.18-152.75-.18-229.13-.01-12.42,.03-18.4,6.01-17.85,18.3,1.35,29.86,3,59.72,5.28,89.53,1.09,14.2,7.35,19.01,21.71,19.04,35.04,.06,70.08,.02,105.12,.02,35.04,0,70.08,.04,105.12-.02,14.94-.02,21.03-4.96,22.13-19.91,2.16-29.42,3.83-58.88,5.18-88.35,.56-12.37-5.34-18.56-17.55-18.59Zm-7.55,34.26c-1.87,18.76-2.6,37.64-3.34,56.49-.32,8.02-2.53,11.52-11.7,11.45-61.36-.44-122.73-.43-184.1,0-8.96,.06-11.56-3.03-11.86-11.28-.68-18.85-1.5-37.73-3.3-56.5-.77-8.07,1.28-9.96,9.1-9.87,32.65,.4,65.3,.17,97.95,.17,32.65,0,65.3,.2,97.95-.15,7.53-.08,10.13,1.3,9.29,9.69ZM416.61,125.52c.03-10.66-4.55-16.09-15.5-16.07-43.31,.08-86.62,.06-129.92,.02-10.19,0-15.19,4.73-15.17,15.1,.09,42.51-.04,85.01,.09,127.52,.04,11.9,4.55,16.27,16.48,16.35,21.26,.14,42.52,.04,63.78,.04,20.87,0,41.73,.07,62.6-.02,12.69-.06,17.5-4.43,17.54-16.6,.14-42.11-.02-84.23,.11-126.34Zm-35.55,118.44c-14.94-.61-29.92-.17-44.89-.17-15.36,0-30.73-.31-46.07,.14-6.95,.21-9.73-1.46-9.63-9.05,.39-30.7,.42-61.42-.02-92.12-.11-7.7,2.7-9,9.57-8.92,30.71,.34,61.44,.45,92.15-.06,8.18-.14,9.69,2.72,9.6,10.09-.37,29.92-.46,59.84,.04,89.75,.14,8.53-2.67,10.67-10.75,10.34Zm-199.04-14.87c-3.37-20.09-7.49-40.06-10.9-60.14-1.67-9.85-7.04-13.32-16.54-11.77-20.92,3.4-41.9,6.49-62.78,10.14-7.33,1.28-11.91,5.85-11.09,16.78,3.45,18.9,7.11,40.54,11.47,62.04,1.64,8.11,7.61,11.49,15.97,10.01,20.48-3.63,40.92-7.5,61.46-10.78,9.81-1.57,13.97-7,12.41-16.27Zm-31.78-5.15c-10.08,1.46-20.09,3.36-31.38,5.29-3.45,1.13-5.13-1.45-5.9-5.47-1.86-9.6-3.71-19.21-5.74-28.78-.94-4.45,1.77-5.45,5.12-6.04,10.42-1.84,20.85-3.6,31.26-5.5,3.74-.68,5.62,.13,6.19,4.44,1.28,9.7,2.9,19.38,4.98,28.95,.98,4.51,.24,6.43-4.53,7.12Zm559.98-58.17c-22.01-3.9-44.04-7.72-62.97-11.03-14.39-1.19-18.39,2.2-20.35,13.89-3.36,20.1-6.75,40.2-10.35,60.26-1.99,11.08,1.01,16.28,12.19,18.33,21.6,3.97,43.26,7.65,64.92,11.3,8.3,1.39,14.08-2.16,15.66-10.44,4.19-21.94,8.04-43.94,11.79-65.96,1.46-8.59-1.65-14.72-10.9-16.36Zm-16.14,27.35c-1.98,11.83-3.95,22.64-5.53,33.51-.66,4.53-2.19,5.84-6.95,4.84-10.76-2.26-21.62-4.13-32.52-5.52-5.26-.67-6.73-2.85-5.85-7.69,1.9-10.42,3.77-20.84,5.43-31.3,.79-4.96,3.27-6.52,8.12-5.64,10.82,1.96,21.69,3.64,32.54,5.45,4.31,.72,6.36,2.81,4.77,6.35Zm-292.84,354.29c21.21,0,42.43,.52,63.61-.21,11.01-.38,8.16,6.64,8.2,12.29,.04,5.76,2.57,12.46-8.33,12.33-43.19-.52-86.39-.5-129.58-.03-12.17,.13-7.59-8.03-8.18-13.62-.62-5.88-1.44-11.34,8.32-11,21.96,.78,43.97,.25,65.96,.25Z"/>
</svg>