<?xml version="1.0" encoding="UTF-8"?>
<svg id="Layer_1" data-name="Layer 1" xmlns="http://www.w3.org/2000/svg" viewBox="0 0 800 800">
  <defs>
    <style>
      .cls-1 {
        fill: none;
      }

      .cls-2 {
        fill: #010101;
      }
    </style>
  </defs>
  <rect class="cls-1" width="800" height="800"/>
  <path class="cls-2" d="M758.43,575.7c-6.97-28.88-38.35-47.26-70.1-40.75-24.24,4.97-48.39,10.37-72.58,15.54-44.63,9.54-89.26,19.07-133.9,28.54-5,1.06-9.31,3.01-7.73-6.43,4.23-25.27-5.85-44.52-28.02-57.39-15.4-8.94-30.98-17.57-46.22-26.79-35.05-21.19-72.48-38.47-104.2-65.16-12.07-10.15-27.33-13.68-43.36-14.26-28.81-1.04-56,6.22-82.92,14.99-6.45,2.1-9.7,2.46-12.65-5.49-5.61-15.13-17.9-23.07-34.06-23.74-13.54-.56-27.13-.27-40.69-.18-27.27,.19-42.44,15.29-42.51,42.45-.1,34.09-.02,68.19-.02,102.28,0,35.64-.2,71.29,.08,106.93,.18,22.06,15.07,38.33,36.16,39.25,15.86,.7,31.79,.59,47.66,.01,16.37-.6,31.01-11.23,34.16-26.67,2.42-11.86,8.53-12.33,18.09-11.22,23.97,2.78,45.36,12.52,66.43,23.29,31.7,16.21,61.49,35.97,94.06,50.58,21.59,9.68,43.38,15.36,67.48,8.8,103.7-28.26,207.56-55.9,311.32-83.91,33.87-9.14,51.41-37.95,43.51-70.69Zm-621.51,68.62c-.04,12.44-6.27,17.94-19.02,18.14-11.22,.18-22.44,.08-33.66,.03-17.05-.07-21.46-4.34-21.49-21.11-.06-34.04-.02-68.08-.02-102.11,0-33.26-.03-66.53,.01-99.79,.02-17.45,4.29-21.59,22.12-21.65,11.22-.04,22.45-.19,33.66,.05,12.07,.26,18.34,5.77,18.38,17.57,.22,69.62,.21,139.25,.01,208.87Zm598.26-43.19c-3.9,11.42-11.81,18.89-23.53,22.05-57.1,15.41-114.22,30.78-171.33,46.15-45.91,12.36-91.89,24.44-137.69,37.21-15.97,4.45-31.08,4.16-46.49-1.94-23.14-9.16-44.44-21.77-66.06-33.82-28.37-15.82-56.3-32.5-87.92-41.54-11.28-3.22-22.72-5.25-34.3-5.16-6.58,.05-7.61-2.23-7.59-7.86,.14-52.3,.12-104.6,.02-156.89,0-4.58,.3-8.25,5.54-9.91,25.82-8.15,51.45-17.09,82.61-17.21,10.86-.8,24.76,1.82,35.69,11.37,26.25,22.94,57.67,37.5,87.15,55.18,20.58,12.34,41.6,23.94,62.31,36.06,17.94,10.49,23.47,27.47,14.28,42.94-9.16,15.42-26.54,18.88-44.54,8.57-31.24-17.88-62.38-35.94-93.57-53.92-2.35-1.35-4.66-2.78-7.08-3.99-6.54-3.27-12.56-2.23-15.93,4.27-3.23,6.23-1.43,12.11,4.85,16,3.62,2.24,7.31,4.36,11,6.49,29.5,17.03,59.12,33.85,88.46,51.15,16.78,9.89,33.33,10.62,52.25,5.39,30.14-8.33,61.06-13.85,91.69-20.39,51.42-10.98,102.89-21.76,154.3-32.79,14.51-3.11,27.95-2.05,38.69,9.23,9.03,9.48,11.42,20.92,7.17,33.36Zm23.05-348.36c-1.62-10.23-8.28-18.69-18.49-17.38-18.45,2.37-26.72-5.58-29.75-22.26-.34-1.86-1.14-3.83-2.31-5.3-8-10.05-4.5-17.17,4.26-25.08,12.06-10.87,12.04-20.75,2.07-33.59-11.23-14.46-24.19-27.19-38.76-38.27-9.06-6.89-20.49-9.22-27.31-.38-12.19,15.79-24.13,13.13-37.97,4.46-.95-.6-2.17-.9-3.31-1.07-12.71-1.93-16.25-9.19-15.3-21.73,1.1-14.5-6.25-22.37-19.29-24.26-19.69-2.86-39.4-2.79-59.06,.14-9.74,1.45-18.9,7.28-17.59,16.86,3,21.86-10.22,27.16-26.43,33.79-11.6,4.75-18.61,5.35-27.16-4.9-9-10.79-19.58-11.45-29.89-3.92-16.36,11.96-30.63,26.14-42.51,42.62-6.16,8.55-7.65,19.37,.3,25.4,16.32,12.39,12.82,24.94,4.7,39.24-1.88,3.32-3.24,7.11-3.99,10.85-1.03,5.17-3.69,7.2-8.84,6.87-4.25-.27-8.53-.17-12.79,0-12.26,.48-18.94,6.68-21.02,18.87-3.44,20.06-3.24,40.07,.12,60.1,1.87,11.12,9.01,18.87,19.5,17.75,17.33-1.86,25.53,5,28.14,21.17,.36,2.21,1.51,4.5,2.88,6.31,7.33,9.69,4.43,16.53-4.21,24.23-12.55,11.19-12.47,21.27-2.04,34.56,11.3,14.39,24.22,27.16,38.82,38.19,8.34,6.3,19.61,8.61,25.47,.98,13.54-17.61,27.05-13.35,42.13-4.35,.33,.2,.71,.35,1.09,.4,12.22,1.76,15.58,8.66,14.89,20.76-.92,16.3,6.15,23.34,22.19,25.2,8.46,.98,17,1.21,27.15,1.89,8.83-.76,19.3-1.25,29.64-2.67,9.86-1.35,18.58-7.94,17.18-17.25-3.15-20.86,8.58-27.55,24.88-31.92,1.12-.3,2.34-.61,3.22-1.3,9.54-7.47,16.39-4.75,24.12,3.96,11.04,12.43,21.46,12.39,34.53,2.21,14.44-11.26,27.14-24.25,38.24-38.8,6.29-8.25,9.03-19.35,1.18-25.4-17.53-13.5-13.58-27.1-4.59-42.3,.19-.33,.38-.71,.42-1.08,1.41-12.82,9.18-15.21,20.82-14.51,14.33,.87,23.02-6.58,24.82-18.92,2.92-20.07,3.02-40.19-.15-60.2Zm-20.99,30.36c0,.39,0,.77,0,1.16-.17,24.26-.17,24.6-24.16,24.45-9.85-.06-15.01,3.6-17.09,13.23-3.22,14.85-8.98,28.89-17.2,41.64-5.68,8.82-4.38,15.19,2.89,22.37,16.39,16.18,16.14,16.44-.15,33.12-18.3,18.74-18.46,18.91-37.29,1.39-6.5-6.05-12.66-6.49-19.85-1.98-13.23,8.3-27.49,14.45-42.67,17.82-9.82,2.19-13.35,7.34-13.44,16.99-.2,23.69-.45,23.69-24.4,23.9-.39,0-.78,0-1.16,0-24.31-.03-24.5-.03-25.09-24.38-.22-9.04-3.49-14.27-12.83-16.31-14.43-3.16-28.3-8.46-40.67-16.54-9.94-6.5-17.22-5.41-25.34,3.18-14.32,15.15-14.69,14.8-29.7,.6-1.12-1.07-2.27-2.11-3.36-3.21-17.52-17.58-17.67-17.72-.38-35.71,6-6.24,7.28-12.07,2.58-19.63-8.21-13.21-14.52-27.36-17.8-42.63-2.14-9.97-7.55-13.97-17.96-13.84-23.32,.3-23.32-.1-23.47-23.9,0-1.16,0-2.32,.01-3.49,.18-23.12,.18-23.55,22.86-23.17,10.99,.18,16.4-4.41,18.63-14.7,3.15-14.48,8.87-28.1,16.8-40.54,5.58-8.75,4.59-15.21-2.77-22.45-16.46-16.21-16.21-16.47,.28-33.29,.27-.28,.51-.59,.78-.86,17.84-17.96,18.03-18.15,35.7-.94,6.67,6.49,12.9,7.35,20.7,2.47,12.88-8.06,26.74-14.22,41.6-17.35,10.87-2.28,14.42-8.33,14.38-18.84-.1-22.15,.22-22.16,22.34-22.74,1.16-.03,2.33-.07,3.49-.06,24.42,.14,24.71,.14,24.77,23.85,.03,10.2,3.86,15.66,14.09,17.78,14.1,2.92,27.49,8.38,39.58,16.15,9.45,6.07,16.53,5.5,24.46-2.77,15.2-15.84,15.53-15.52,31.52-.15,.28,.27,.57,.53,.84,.8,18.88,18.42,19.04,18.57,1.5,37.3-5.96,6.37-6.9,12.21-2.19,19.65,8.54,13.49,14.65,28.12,18.19,43.72,2.02,8.91,7.1,12.79,16.4,12.9,24.6,.31,24.6,.55,24.59,24.96ZM118.84,459.73c.04,10.49-8.36,19.15-18.8,19.41-10.86,.27-19.98-8.83-19.77-19.73,.2-10.42,9.1-19.07,19.48-18.9,10.54,.17,19.05,8.74,19.09,19.22Zm540.31-177.9c-1.21-65.14-53.33-115.66-118.33-114.69-63.9,.96-115.76,54.26-114.54,117.73,1.24,64.44,54.84,116.35,118.71,114.94,64.18-1.41,115.34-54.29,114.16-117.98Zm-118.07,94.74c-50.62-1-91.93-43.36-91.55-93.87,.38-51.23,42.88-92.98,93.98-92.32,52.01,.67,92.99,42.18,92.41,93.61-.58,52.06-43.15,93.61-94.85,92.59Zm-10.66-51.57c-7.21,.18-39.2-31.37-39.22-38.78-.01-4.71,2.47-7.96,6.42-10.3,4.25-2.52,8.36-1.9,11.83,1.11,4.97,4.3,9.9,8.73,14.23,13.64,4.39,4.98,7.23,4.92,11.6-.35,11.62-14.01,23.94-27.44,35.76-41.28,5.47-6.4,11.81-10.1,18.87-3.87,7.06,6.23,4.06,12.99-1.47,19.25-15.9,18-31.6,36.18-47.36,54.31-2.87,3.31-6,6.07-10.68,6.26Z"/>
</svg>