<?xml version="1.0" encoding="UTF-8"?>
<svg id="Layer_1" data-name="Layer 1" xmlns="http://www.w3.org/2000/svg" viewBox="0 0 800 800">
  <defs>
    <style>
      .cls-1 {
        fill: none;
      }

      .cls-2 {
        fill: #010101;
      }
    </style>
  </defs>
  <rect class="cls-1" width="800" height="800"/>
  <path class="cls-2" d="M110.28,210.88c0,44.16,.07,85.99-.13,127.81-.02,3.5,2.75,9.31-2.47,10.26-6.48,1.19-13.57,.81-20.06-.51-2.91-.6-1.3-5.74-1.3-8.77-.1-38.37-.07-76.74-.07-115.11v-12.71c-2.21,1.44-3.17,1.89-3.92,2.57-13.28,11.99-13.39,11.85-24.83-1.74-2.63-3.12-3.01-4.85-.05-7.76,10.84-10.62,21.27-21.68,32.3-32.1,5.87-5.55,12.43-4.65,18.12,.96,10.23,10.1,20.3,20.38,30.57,30.44,3.04,2.98,3.71,4.9,.44,8.68-11.63,13.46-11.42,13.64-28.61-2.04Zm528.24,127.76c-.12,9.1,2.36,10.82,11.1,11.16,11.04,.43,15.01-2.94,13.24-13.69-.51-3.11-.08-6.38-.08-9.58v-114.14c17.5,12.66,17.31,12.48,27.85,1.24,3.43-3.66,4.13-5.83,.23-9.55-10.12-9.65-19.9-19.64-29.76-29.56-6.97-7-13.75-7.01-20.71,.06-8.69,8.82-17.04,18.07-26.43,26.09-7.52,6.43-5.62,10.02,.22,16.55,7.32,8.19,12.23,7.87,18.18-.47,1.22-1.71,3.15-2.92,6.39-5.83,0,44.09,.31,85.91-.25,127.71ZM98.9,373.06c-8.71,.44-13.85,.45-13.04,11.74,.63,8.66,.48,14.09,11.78,12.96,8.18-.82,15.99,.56,12.34-11.57,2.09-9.33-.25-13.67-11.08-13.13Zm552.6,0c-8.51,.54-14.07,.15-13.12,11.63,.7,8.46,.16,14.35,11.65,13.03,7.92-.91,16.2,.97,12.46-11.41,1.89-9.11,.09-13.95-10.99-13.25Zm0,48.05c-8.51,.54-14.07,.14-13.13,11.63,.7,8.46,.17,14.35,11.66,13.03,7.92-.91,16.2,.97,12.45-11.41,1.89-9.11,.09-13.95-10.99-13.25Zm107.63,327.95c.19,12.3-7.4,8.06-13.21,8.72-6.98,.79-11.52,.55-11.36-9.37,.65-42.03,.28-84.07,.27-126.11,0-3.2,.16-6.42-.09-9.6-1.09-13.51-11.53-23.3-24.4-23.04-12.54,.25-22.48,9.63-23.39,22.73-.52,7.57-.17,15.21-.16,22.81,.01,8.43-3.53,14.39-12.46,14.17-8.24-.2-11.58-5.96-11.56-13.86,.03-10.81,.21-21.62-.06-32.43-.37-15.24-10.61-25.72-24.43-25.44-13.49,.27-23.09,10.34-23.49,25.13-.29,10.8-.08,21.62-.06,32.43,.02,8.43-3.52,14.39-12.46,14.17-8.24-.2-11.58-5.96-11.57-13.85,.02-14.41,.14-28.83-.04-43.24-.2-16.12-10.26-26.93-24.45-26.65-13.89,.28-23.29,10.63-23.52,26.32-.19,13.21-.19,26.42,.01,39.63,.14,9.16-1.03,17.96-12.5,17.72-10.65-.23-11.65-8.68-11.63-17.38,.11-58.85,.06-117.7,.06-176.55,0-2.8,.08-5.61-.02-8.41-.54-15.25-10.61-25.73-24.44-25.47-13.49,.26-23.22,10.32-23.5,25.1-.31,16.81-.08,33.63-.08,50.44,0,56.85-.04,113.7,.05,170.55,.01,7.52-.07,15.05-8.86,17.53-8.82,2.49-12.91-3.84-16.63-10.38-6.31-11.1-12.68-22.17-19.19-33.16-8.85-14.95-22.34-19.57-34.85-12.12-12.62,7.52-15.12,21.26-6.34,36.61,14.87,25.98,29.36,52.2,45.14,77.61,6.32,10.17-1.31,10.95-6.5,14.38-5.48,3.63-9.76,7.08-14.67-1.9-14.75-26.95-30.42-53.4-45.85-79.98-5.59-9.63-8.85-19.92-7.05-30.93,1.13-6.92-1.32-7.77-7.22-7.69-21.2,.27-42.41,.11-66.65,.11,28.97,36.16,18.39,76.64,20.47,115.13,.19,3.47-1.22,4.51-4.75,5.05-16.98,2.56-19.27,.83-19.27-15.78,0-2,.01-4,0-6.01-.42-69.25,4.99-50.14-30.12-108.71-5.91-9.86-6.21-17.44-.22-27.29,16.37-26.94,31.78-54.46,47.51-81.79,8.69-15.09,6.32-29.36-5.94-36.73-12.76-7.68-26.62-2.71-35.71,12.97-21.61,37.28-43.45,74.44-64.51,112.03-4.61,8.22-8.24,7.32-14.52,2.9-5.58-3.94-14.36-5.59-6.49-15.28,5.45-6.71,7.41-14.15,4.21-22.96-2.75-7.55-2.34-15.75-2.33-23.78,.06-54.81,.03-109.63,.03-165.71-5.4,4.84-6.67,10.76-9.03,15.79-12.88,27.41-25.05,55.17-38.07,82.51-8.94,18.77-13.17,38.18-13.08,59,.32,69.26-.14,138.52,.41,207.78,.08,10.28-3.65,11.45-12.15,11.23-7.89-.21-12.58,0-12.48-10.91,.63-70.06,.44-140.12,.25-210.18-.06-22.35,4.28-43.49,13.81-63.77,17.29-36.79,34.16-73.77,51.09-110.73,2.19-4.77,3.81-10.78,8.22-12.95,12.97-6.39,11.05-17.58,11.04-28.56-.06-64.46-.06-128.91-.02-193.37,.04-55.39,35.18-90.43,90.71-90.45,75.66-.04,151.32-.04,226.98,0,55.55,.03,90.64,35.04,90.66,90.51,.04,134.52,.07,269.04-.14,403.55-.01,7.88,.88,13.27,9.65,15.84,8.65,2.53,13.02,14.35,20.19,15.36,7.18,1.01,15.08-7.54,24.02-8.4,16.59-1.6,30.92,3.3,41.97,15.87,3.9,4.43,5.88,6.31,12.28,2.72,33.55-18.83,71.73,3.46,72.1,42.02,.43,44.84-.31,89.68,.39,134.51Zm-204.31-217.1c-.22-134.92-.13-269.84-.17-404.76-.01-41.83-24.39-66.07-66.41-66.09-75.66-.03-151.32-.03-226.99,0-42.81,.01-66.9,24.06-66.91,66.8-.02,135.32,0,270.64,0,405.96v11.34c15.46-22.51,28.4-45.68,42.21-68.32,11.77-19.29,34.44-27.31,55.33-20.73,21.26,6.69,34.19,26.66,32.92,49.96-.89,16.41-11.59,28.32-18.75,41.73-11.71,21.95-24.66,43.23-37.66,65.79,33.52,0,65.14,0,96.76,0,3.58,0,6.92-.08,10.24-2.33,18.51-12.5,37.03-12.2,55.88-.15,10.47,6.69,15.28,3.53,15.28-9.07,0-50.85,.04-101.69-.03-152.54-.01-8.08,.83-15.91,4.2-23.36,9.18-20.31,30.74-32.03,51.82-28.11,23.36,4.35,39.68,22.98,39.97,47.03,.41,33.6,.1,67.22,.1,101.24,11.21-.38,12.2-6.21,12.19-14.4ZM415.32,109.31c11.19,.52,6.98-7.4,6.99-12.16,0-4.76,4.19-12.4-6.98-12.18-27.2,.53-54.42,.53-81.61,0-11.18-.22-6.98,7.43-6.98,12.19,0,4.76-4.2,12.69,6.99,12.16,13.57-.64,27.2-.15,40.8-.15s27.23-.48,40.8,.15Zm-137.26-12.7c.32,8.92,.75,13.63,11.84,12.95,8.86-.55,13.83-.78,12.89-11.89-.72-8.45,.15-15.76-11.72-12.24-9.56-2.28-13.39,.59-13.01,11.17Zm216.54,205.48c-.43,66.47-54.73,119.82-121.43,119.31-65.75-.5-119.01-54.71-118.74-120.84,.27-66.3,54.67-119.74,121.45-119.32,65.6,.41,119.15,54.91,118.72,120.85Zm-24.02-.73c-.04-53.02-43.13-96.13-96.05-96.09-53.01,.04-96.05,43.05-96.08,96.01-.02,52.97,43,96.05,96.01,96.13,52.79,.08,96.16-43.26,96.12-96.06Zm-36.05,252.61c-.22,18.77-14.64,34.21-33.75,35.47-8.76,.58-17.59,.1-26.39,.11-8.4,.01-16.82,.38-25.19-.06-20.27-1.05-34.64-16.56-34.69-36.97-.05-18.62,14.59-34,34.27-34.77,17.17-.67,34.41-.68,51.58,0,19.66,.79,34.4,16.97,34.18,36.21Zm-24.25-.02c.16-8.17-5.01-12.16-12.98-12.32-7.57-.15-15.15-.03-22.72-.03s-15.15-.1-22.72,.02c-7.95,.13-13.18,3.99-13.12,12.19,.06,7.54,4.97,11.59,12.38,11.7,15.54,.21,31.09,.19,46.63,.02,7.42-.08,12.38-4.05,12.53-11.57Zm-23.76-190.29c1.59-3.69,4.71-2.21,7.11-2.88,19.49-5.46,31.18-21.61,28.69-39.94-2.54-18.67-17.45-31.15-37.72-31.49-7.6-.13-15.24,.3-22.8-.25-6.88-.5-11.08-4.82-11.07-11.8,0-6.98,4.21-11.34,11.1-11.76,8.37-.52,16.8-.16,25.2-.12,3.4,.02,7.34,1.37,8.27,4.04,4.51,12.98,15.11,6.58,23.18,7.73,5.49,.78,4.12-3.57,3.45-6.45-3.46-14.94-12.5-24.51-27.46-28.63-2.8-.77-8.63,1.36-7.76-4.65,1.29-8.91-4.13-9.07-9.91-8.05-5.6,.99-15.7-5.1-14.38,8.38,.52,5.32-4.4,3.38-6.98,4.1-19.49,5.44-31.17,21.57-28.7,39.94,2.5,18.64,17.43,31.16,37.71,31.51,7.6,.13,15.22-.12,22.81,.2,5.28,.23,8.89,3.29,10.62,8.3,1.61,4.66,.16,8.76-3.11,12.09-4.97,5.05-36.99,6.01-39.89-.03-5.19-10.81-13.62-8.07-21.87-8.63-6.81-.46-7.05,2.62-5.64,7.87,3.86,14.42,12.88,23.41,27.26,27.43,2.8,.78,8.63-1.33,7.75,4.68-1.52,10.44,5.65,7.92,11.14,8.17,8.62,.03,8.77,.1,13.02-9.75Z"/>
</svg>