<svg id="Layer_1" data-name="Layer 1" xmlns="http://www.w3.org/2000/svg" viewBox="0 0 14 14"><defs><style>.cls-1{fill:none;}.cls-2{fill:#393939;}</style></defs><title>CRM functionality</title><rect class="cls-1" width="14" height="14"/><path class="cls-2" d="M10.21,2.27a.37.37,0,0,1-.13.28l-1,1a.38.38,0,0,1-.55,0,.37.37,0,0,1,0-.56l1-1A.35.35,0,0,1,10,1.93.39.39,0,0,1,10.21,2.27ZM4,2.52c.34.35.68.7,1,1a.36.36,0,0,0,.5,0A.36.36,0,0,0,5.6,3C5.26,2.68,4.9,2.33,4.54,2a.33.33,0,0,0-.41,0,.35.35,0,0,0-.19.34A.29.29,0,0,0,4,2.52ZM7.44,1.38A.38.38,0,0,0,7.07,1a.38.38,0,0,0-.37.37V2.65A.37.37,0,0,0,7.07,3a.36.36,0,0,0,.37-.37V1.38Zm6.06,8.91c0,.31-.13.44-.44.44H11.73a.52.52,0,0,0-.39.14c-.7.59-1.41,1.17-2.1,1.77a1.14,1.14,0,0,1-1.83-.34c0-.09-.08-.08-.17-.06a1.11,1.11,0,0,1-1.47-1c0-.11-.07-.13-.15-.17A3.2,3.2,0,0,0,4.43,11a1.51,1.51,0,0,0-.3,0,.67.67,0,0,1-.58-.25A2.69,2.69,0,0,0,2.77,10a3,3,0,0,0-1,0H1a.37.37,0,0,1-.39-.41V5.64a.38.38,0,0,1,.42-.42H3.71A.39.39,0,0,0,4,5.1a2.14,2.14,0,0,1,1.61-.64H7.85A1.62,1.62,0,0,1,9,4.94l.9.88a.43.43,0,0,0,.33.14H13c.39,0,.52.12.52.52v3.81ZM4.66,10a1.12,1.12,0,0,1-.84-1.17,1.32,1.32,0,0,1,.57-.93c.65-.54,1.31-1.08,2-1.64A.87.87,0,0,1,7,6h.63a.58.58,0,0,1,.46.19l1,1c.21.2.42.21.58,0a.39.39,0,0,0,0-.57L8.53,5.51a.94.94,0,0,0-.72-.29c-.69,0-1.38,0-2.07,0a1.55,1.55,0,0,0-1.31.55.61.61,0,0,1-.5.21H1.6c-.15,0-.2,0-.2.19,0,.48,0,.95,0,1.43s0,1,0,1.48c0,.15,0,.19.18.18s.42,0,.62,0a1.48,1.48,0,0,1,1.56.65.82.82,0,0,0,.87.36c.06,0,.17,0,.17-.06S4.82,10,4.66,10Zm7.91-3.24H10.74c-.11,0-.16,0-.14.15A1.11,1.11,0,0,1,9.94,8a1.14,1.14,0,0,1-1.29-.24A10.31,10.31,0,0,1,7.92,7a.73.73,0,0,0-.73-.29c-.11,0-.22,0-.33,0C6.15,7.37,5.43,8,4.71,8.57a.38.38,0,1,0,.53.54l1-.8a.38.38,0,0,1,.63.19.4.4,0,0,1-.19.43l-.94.79a.36.36,0,0,0,0,.6.38.38,0,0,0,.47,0l.92-.77a.39.39,0,0,1,.41-.13.38.38,0,0,1,.27.3.42.42,0,0,1-.17.39l-.92.77c-.22.19-.25.39-.09.57a.38.38,0,0,0,.57,0l.9-.76c.22-.17.44-.18.59,0a.38.38,0,0,1-.09.57c-.14.12-.28.23-.41.36a.36.36,0,0,0,0,.49.35.35,0,0,0,.5.07L8.79,12l2.27-1.91a.55.55,0,0,1,.4-.14h1.13c.12,0,.15,0,.15-.16,0-.49,0-1,0-1.46s0-1,0-1.47C12.74,6.76,12.72,6.71,12.57,6.71Z" transform="translate(0 0)"/></svg>