<svg id="Layer_1" data-name="Layer 1" xmlns="http://www.w3.org/2000/svg" viewBox="0 0 14 14"><defs><style>.cls-1{fill:none;}.cls-2{fill:#393939;}</style></defs><title>multi channel customer interaction</title><rect class="cls-1" width="14" height="14"/><path class="cls-2" d="M10.23,9.49a3.08,3.08,0,0,1-.24.27.38.38,0,0,1-.54,0,.37.37,0,0,1,0-.54c.31-.33.63-.64,1-1a.36.36,0,0,1,.55,0c.32.31.64.62.94.94a.37.37,0,0,1,0,.55.38.38,0,0,1-.55,0,2.39,2.39,0,0,1-.22-.23.21.21,0,0,0-.06.2v1.65a1.29,1.29,0,0,1-1.35,1.36c-.72,0-1.45,0-2.17,0-.3,0-.47-.13-.47-.37s.16-.41.47-.41H9.8a.45.45,0,0,0,.49-.46c0-.64,0-1.29,0-1.93ZM2.48,4.31a.41.41,0,0,0-.58,0,.37.37,0,0,0,0,.55l.92.93a.36.36,0,0,0,.57,0l.94-.94a.37.37,0,0,0,0-.55.4.4,0,0,0-.56,0,2.84,2.84,0,0,0-.23.25.33.33,0,0,1,0-.24V2.73c0-.45.16-.61.62-.61H6.27c.3,0,.48-.15.47-.4s-.17-.38-.47-.38c-.73,0-1.47,0-2.21,0A1.24,1.24,0,0,0,2.75,2.66c0,.55,0,1.1,0,1.65a.32.32,0,0,1,0,.24Zm3.28,8.18a.75.75,0,0,1-.65.74,10.06,10.06,0,0,1-3.05.14,7.5,7.5,0,0,1-.93-.15.77.77,0,0,1-.62-.7A2.24,2.24,0,0,1,1.65,10.3a.18.18,0,0,0,.07-.05l0,0a2,2,0,0,1,1.49-3.4A2,2,0,0,1,5.11,9.05a1.86,1.86,0,0,1-.49,1.07c-.08.1-.08.13,0,.2A2.19,2.19,0,0,1,5.76,12.49ZM1.93,8.82A1.21,1.21,0,1,0,3.14,7.6,1.21,1.21,0,0,0,1.93,8.82Zm2,2a5.27,5.27,0,0,0-1.19,0,1.4,1.4,0,0,0-1.43,1.52c0,.11,0,.15.14.16a8.92,8.92,0,0,0,1.71.16,8.81,8.81,0,0,0,1.7-.15c.08,0,.14,0,.16-.13A1.44,1.44,0,0,0,3.91,10.85ZM13.3,6.36a.77.77,0,0,1-.66.68,9.46,9.46,0,0,1-2,.17,9.31,9.31,0,0,1-1.8-.15.83.83,0,0,1-.78-.91,2.15,2.15,0,0,1,1.12-2c.15-.09.08-.13,0-.21a2,2,0,1,1,3.11-2.45,1.94,1.94,0,0,1-.08,2.4c-.12.15-.12.2,0,.3A2.19,2.19,0,0,1,13.3,6.36ZM9.47,2.62a1.21,1.21,0,1,0,2.42,0,1.21,1.21,0,0,0-2.42,0Zm1.84,2a7.49,7.49,0,0,0-1.16,0A1.39,1.39,0,0,0,8.82,6.07c0,.14,0,.2.18.23a10.62,10.62,0,0,0,1.69.15,9.54,9.54,0,0,0,1.68-.15c.08,0,.15,0,.16-.13A1.41,1.41,0,0,0,11.31,4.62Z" transform="translate(0 0)"/></svg>