<?xml version="1.0" encoding="UTF-8"?>
<svg id="Layer_1" data-name="Layer 1" xmlns="http://www.w3.org/2000/svg" viewBox="0 0 14 14">
  <defs>
    <style>
      .cls-1 {
        fill: #393939;
      }

      .cls-2 {
        fill: none;
      }
    </style>
  </defs>
  <rect class="cls-2" width="14" height="14"/>
  <path class="cls-1" d="M9.96,5.68c0-.25,0-.5,0-.74,0-.61,0-1.22,0-1.83,0-.16-.03-.21-.2-.21-.7,.01-1.39,0-2.09,0-.15,0-.3-.01-.29-.2,0-.17,.15-.2,.3-.2,.78,0,1.57,0,2.35,0,.26,0,.33,.06,.33,.32,0,.89,0,1.78,0,2.66,0,.06,0,.13,0,.19,.02,.01,.04,.03,.05,.04,.08-.09,.15-.19,.23-.27,.09-.09,.2-.12,.3-.03,.1,.1,.08,.22-.02,.31-.2,.2-.4,.4-.6,.6-.11,.1-.22,.11-.33,0-.2-.2-.4-.4-.6-.6-.09-.09-.14-.2-.03-.31,.1-.1,.22-.08,.31,.03,.08,.09,.15,.18,.23,.27,.02-.01,.04-.03,.06-.04Zm-2.72-1.68c-.02,.74-.21,1.42-.7,1.99-.3,.35-.5,.77-.6,1.22-.06,.26-.18,.45-.44,.53-.09,.03-.08,.09-.08,.15,0,.14,.02,.28-.02,.41-.02,.1-.05,.21-.13,.26-.24,.14-.31,.4-.46,.61-.25,.36-.62,.48-1.04,.41-.39-.06-.66-.31-.8-.68-.03-.09-.07-.15-.16-.21-.25-.15-.33-.4-.31-.68,.01-.16-.01-.27-.19-.34-.2-.07-.28-.27-.32-.47-.11-.51-.37-.94-.69-1.35-.48-.61-.67-1.34-.6-2.11,.12-1.38,.83-2.36,2.13-2.87,1.9-.74,4.04,.49,4.38,2.51,.03,.2,.04,.39,.04,.59Zm-2.67,4.82h-1.21c.13,.27,.33,.39,.62,.39,.27,0,.45-.14,.59-.39Zm.31-1.04c-.62,0-1.23,0-1.85,0-.12,0-.15,.04-.14,.15,0,.05,0,.1,0,.16,0,.23,.09,.32,.32,.32,.24,0,.49,0,.73,0,.26,0,.52,0,.79,0,.2,0,.28-.09,.29-.29,0-.07,0-.13,0-.2,.01-.11-.03-.15-.14-.14Zm-.61-1.96c0-.49,0-.49-.49-.48-.13,0-.15,.05-.15,.16,0,.29,0,.58,0,.87v.55c0,.49,0,.48,.49,.48,.13,0,.15-.04,.15-.16,0-.47,0-.94,0-1.42Zm2.36-2.92c-.53-1.34-1.97-2.07-3.37-1.72-1.2,.3-2.11,1.37-2.18,2.62-.04,.66,.09,1.29,.51,1.82,.37,.47,.67,.97,.79,1.56,.03,.14,.12,.23,.28,.22,.14,0,.29,0,.43,0,.12,0,.16-.03,.15-.15,0-.53,0-1.07,0-1.6q0-.3-.29-.3c-.36,0-.65-.29-.66-.65,0-.36,.28-.67,.65-.69,.36-.02,.67,.27,.7,.64q.02,.31,.33,.31s.01,0,.02,0c.27,0,.26,0,.29-.27,.02-.29,.16-.51,.44-.62,.26-.1,.51-.05,.71,.15,.21,.2,.25,.45,.16,.73-.09,.26-.34,.41-.63,.42q-.28,0-.28,.28c0,.25,0,.5,0,.75,0,.16,0,.32,0,.47,0,.18-.08,.41,.03,.51,.12,.11,.35,.02,.53,.03,.17,0,.26-.06,.3-.24,.13-.58,.4-1.09,.8-1.54,.06-.07,.11-.15,.15-.23,.43-.81,.48-1.64,.15-2.49Zm-1.8,2.04c.27,0,.39-.08,.39-.27,0-.15-.13-.28-.27-.27-.18,0-.27,.14-.28,.37-.01,.16,.06,.19,.17,.17Zm-1.62-.37c-.05-.12-.15-.19-.28-.17-.14,.02-.22,.11-.24,.25-.02,.18,.12,.29,.35,.29,.2,0,.27-.15,.17-.37Zm10.1,5.91c0,.14-.06,.22-.2,.25-.13,.02-.25,.08-.38,.08-.24,0-.27,.18-.34,.34-.03,.07,0,.1,.03,.14,.09,.15,.19,.3,.29,.45,.07,.11,.06,.21-.03,.3-.21,.21-.43,.43-.64,.64-.1,.1-.2,.11-.32,.03-.14-.1-.29-.18-.43-.28-.07-.05-.12-.04-.19-.02-.2,.05-.27,.19-.31,.37-.11,.63-.08,.52-.64,.53-.18,0-.36,0-.53,0-.18,0-.26-.08-.29-.25-.02-.1-.06-.2-.07-.31-.02-.18-.09-.29-.28-.35-.09-.03-.15-.03-.23,.03-.14,.1-.29,.18-.43,.28-.1,.07-.2,.06-.28-.03-.22-.22-.44-.44-.66-.65-.09-.09-.1-.19-.02-.3,.08-.12,.15-.25,.24-.36,.09-.11,.09-.21,.03-.34-.05-.11-.1-.18-.23-.2-.15-.02-.29-.07-.44-.1-.14-.03-.2-.1-.2-.24,0-.14,0-.29,0-.43,0-.16,0-.32,0-.47,0-.14,.06-.21,.19-.24,.13-.03,.26-.06,.38-.08,.33-.07,.43-.3,.25-.58-.37-.59-.38-.44,.1-.93,.12-.12,.24-.24,.36-.36,.09-.09,.19-.11,.3-.03,.1,.07,.21,.13,.32,.2,.32,.2,.53,.11,.61-.25,.15-.64,.03-.55,.69-.55,.17,0,.34,0,.51,0,.15,0,.24,.04,.26,.2,.02,.13,.07,.25,.08,.38,.02,.17,.11,.26,.27,.31,.09,.03,.15,.04,.23-.02,.13-.09,.28-.17,.41-.27,.12-.08,.22-.07,.32,.03,.21,.22,.43,.43,.64,.64,.09,.09,.11,.19,.03,.3-.07,.11-.14,.22-.21,.33-.19,.3-.09,.52,.26,.6,.62,.14,.56,.03,.56,.68,0,.18,0,.36,0,.53Zm-.61-.82c-.34-.02-.56-.16-.68-.52-.07-.23-.09-.39,.06-.57,.08-.1,.14-.21,.19-.3,0-.06-.03-.08-.06-.11-.09-.09-.19-.17-.26-.27-.09-.12-.17-.11-.27-.02-.28,.24-.58,.35-.91,.1,0,0-.03,0-.04,0-.17-.04-.24-.14-.28-.31-.09-.48-.1-.48-.6-.48-.12,0-.19,.02-.2,.16-.02,.38-.17,.64-.58,.74-.18,.05-.31,.07-.47-.04-.39-.26-.39-.25-.73,.08-.11,.11-.12,.18-.02,.29,.23,.27,.35,.55,.1,.88-.01,.01-.01,.04-.02,.06-.04,.18-.15,.25-.33,.28-.46,.08-.45,.08-.46,.55,0,.15,.02,.24,.2,.25,.36,.02,.59,.18,.69,.56,.05,.19,.08,.33-.04,.5-.25,.37-.24,.37,.08,.7,.11,.11,.19,.14,.31,.04,.27-.23,.55-.35,.88-.1,.01,0,.02,.01,.04,.01,.2,.03,.27,.16,.3,.35,.07,.45,.08,.45,.52,.45,.03,0,.05,0,.08,0,.12,.01,.18-.01,.19-.15,.03-.37,.16-.64,.58-.75,.19-.05,.32-.08,.49,.04,.38,.26,.38,.25,.72-.07,.11-.11,.13-.2,.03-.31-.24-.27-.34-.55-.1-.88,0-.01,.02-.02,.02-.04,.03-.21,.17-.27,.35-.3,.45-.08,.44-.08,.45-.54,0-.17-.03-.25-.22-.26Zm-1.01,.38c0,.9-.76,1.66-1.66,1.66-.92,0-1.66-.75-1.66-1.67,0-.91,.75-1.65,1.66-1.65,.9,0,1.66,.76,1.65,1.66Zm-.4,0c0-.68-.58-1.25-1.26-1.26-.69,0-1.26,.56-1.27,1.24,0,.7,.56,1.28,1.25,1.28,.69,0,1.28-.58,1.27-1.27Z"/>
</svg>