<?xml version="1.0" encoding="UTF-8"?>
<svg id="Layer_1" data-name="Layer 1" xmlns="http://www.w3.org/2000/svg" viewBox="0 0 14 14">
  <defs>
    <style>
      .cls-1 {
        fill: #393939;
      }

      .cls-2 {
        fill: none;
      }
    </style>
  </defs>
  <rect class="cls-2" width="14" height="14"/>
  <path class="cls-1" d="M2.64,2.99c.25,0,.48,0,.7,0,.21,0,.32,.09,.31,.26-.01,.19-.13,.25-.3,.25-.41,0-.82,0-1.23,0-.21,0-.29-.08-.29-.29,0-.42,0-.83,0-1.25,0-.2,.1-.3,.25-.29,.15,0,.24,.12,.24,.31,0,.18,0,.36,0,.54,.08,.02,.1-.04,.13-.08,1.04-1.02,2.28-1.64,3.73-1.82,3.2-.39,6.05,1.54,6.96,4.45,1.13,3.58-.95,7.3-4.59,8.21-3.55,.88-6.99-1.3-7.84-4.75-.18-.75-.21-1.51-.13-2.28,.02-.2,.13-.3,.3-.28,.15,.02,.25,.15,.22,.32-.16,1.2,.03,2.34,.59,3.41,.92,1.77,2.38,2.85,4.34,3.18,2.98,.5,5.79-1.32,6.65-4.13,.93-3.06-.72-6.22-3.64-7.31-2.17-.81-4.78-.21-6.36,1.49,0,0-.01,.02-.04,.07ZM11.15,7.3c0,.41-.14,.57-.55,.62-.32,.04-.53,.24-.56,.56-.02,.17,.03,.31,.14,.45,.25,.31,.24,.55-.04,.83-.15,.15-.3,.31-.46,.45-.23,.22-.5,.24-.74,.03-.2-.18-.42-.23-.67-.14-.26,.1-.37,.31-.39,.58-.02,.31-.22,.48-.53,.48-.26,0-.51,0-.77,0-.27,0-.47-.18-.49-.45-.02-.28-.12-.5-.39-.61-.26-.1-.49-.04-.7,.15-.2,.18-.48,.17-.68-.02-.2-.18-.38-.38-.57-.57-.1-.1-.13-.21-.14-.33,0-.16,.05-.29,.16-.4,.18-.19,.21-.42,.11-.65-.09-.23-.27-.35-.53-.37-.39-.04-.54-.21-.54-.6,0-.24,0-.47,0-.71,0-.27,.2-.48,.46-.49,.27-.01,.48-.12,.59-.37,.11-.26,.05-.49-.14-.7-.18-.21-.17-.49,.02-.69,.18-.19,.37-.38,.56-.56,.2-.19,.48-.21,.69-.02,.21,.18,.43,.25,.69,.15,.27-.1,.38-.32,.39-.6,.02-.27,.22-.46,.49-.47,.27,0,.54,0,.81,0,.28,0,.48,.19,.49,.48,.02,.27,.13,.48,.38,.59,.25,.1,.48,.04,.69-.14,.22-.19,.5-.18,.71,.02,.18,.17,.35,.35,.53,.53,.21,.22,.23,.5,.03,.72-.18,.21-.24,.43-.14,.69,.11,.26,.31,.37,.59,.38,.28,.01,.47,.22,.47,.5,0,.23,0,.46,0,.68Zm-.76-.72c-.78-.15-1.12-1.1-.64-1.74,.08-.11,.09-.17-.02-.26-.11-.1-.22-.2-.31-.31-.08-.1-.14-.09-.24-.02-.7,.52-1.67,.11-1.78-.76-.01-.1-.04-.14-.14-.14-.17,0-.35,0-.52,0-.1,0-.13,.03-.15,.13-.11,.88-1.07,1.28-1.79,.76-.03-.02-.06-.05-.09-.07-.06,0-.08,.04-.1,.06-.12,.11-.22,.23-.34,.34-.1,.09-.1,.15-.02,.26,.45,.6,.18,1.47-.52,1.72-.13,.05-.32-.03-.37,.12-.05,.13-.01,.29-.01,.44,0,.03,0,.07,0,.1-.02,.13,.02,.18,.16,.2,.75,.11,1.18,.9,.87,1.57-.06,.12-.23,.22-.18,.35,.05,.13,.19,.22,.3,.32,.04,.04,.09,.08,.13,.13,.05,.06,.09,.07,.16,.01,.7-.6,1.77-.1,1.82,.75,0,.09,.04,.12,.12,.11,.17,0,.35,0,.52,0,.12,0,.15-.03,.17-.15,.09-.75,.9-1.19,1.58-.87,.12,.06,.21,.23,.35,.18,.12-.05,.2-.19,.3-.29,.02-.02,.04-.05,.07-.07,.13-.09,.12-.17,.03-.3-.45-.61-.12-1.53,.6-1.72q.32-.08,.32-.43s0-.07,0-.1c.04-.21-.03-.3-.27-.34Zm-1.5,.46c-.01,1.03-.88,1.88-1.92,1.87-1.04-.01-1.88-.89-1.87-1.92,.02-1.02,.89-1.88,1.91-1.86,1.04,.02,1.89,.89,1.88,1.92Zm-.52-.02c0-.77-.6-1.38-1.37-1.38-.77,0-1.38,.6-1.38,1.37,0,.77,.6,1.38,1.37,1.38,.77,0,1.38-.6,1.38-1.37Z"/>
</svg>