<svg id="Layer_1" data-name="Layer 1" xmlns="http://www.w3.org/2000/svg" viewBox="0 0 35 35"><defs><style>.cls-1{fill:none;}.cls-2,.cls-3{fill:#573285;}.cls-3{opacity:0.4;}</style></defs><title>6 Section Separators</title><rect class="cls-1" width="35" height="35"/><path class="cls-2" d="M19.54,26.6c.21,0,.25-.17.35-.28A2,2,0,0,1,22.7,26a2.05,2.05,0,0,1,.43,2.71,5,5,0,0,1-.51.61l-3.4,3.41a2.13,2.13,0,0,1-3.42,0c-1.19-1.29-2.47-2.5-3.72-3.74a2,2,0,0,1-.49-2.1,1.81,1.81,0,0,1,1.51-1.26,2,2,0,0,1,1.91.72c.11.11.21.3.37.25s.14-.3.14-.46c0-.87,0-1.74,0-2.61a1.84,1.84,0,0,1,1.95-1.84,1.87,1.87,0,0,1,2,1.83c0,.82,0,1.65,0,2.47C19.45,26.18,19.35,26.42,19.54,26.6Zm.35-17.87a2,2,0,0,0,2.92.14,1.94,1.94,0,0,0,0-2.91Q20.94,4,19,2.16A1.92,1.92,0,0,0,16.21,2a50.9,50.9,0,0,0-4.35,4.34,1.78,1.78,0,0,0-.18,2,1.76,1.76,0,0,0,1.7,1.07A2.05,2.05,0,0,0,15,8.72c.12-.12.24-.34.43-.25s.11.32.11.49c0,.87,0,1.74,0,2.61a1.78,1.78,0,0,0,.13.78,2,2,0,0,0,2.14,1.15,1.93,1.93,0,0,0,1.64-1.91c0-1,0-2.07,0-3.09C19.73,8.46,19.79,8.63,19.89,8.73Z"/><path class="cls-3" d="M5.43,19.43a1.94,1.94,0,0,1-2.06-2,2,2,0,0,1,2-1.95,1.8,1.8,0,0,1,2,2A1.78,1.78,0,0,1,5.43,19.43Zm16-1.94a1.92,1.92,0,0,0,2,1.94,1.78,1.78,0,0,0,2-1.86,1.8,1.8,0,0,0-1.92-2.05A1.93,1.93,0,0,0,21.46,17.49Zm10,0a2,2,0,0,0-4,0,1.84,1.84,0,0,0,2,1.92A1.81,1.81,0,0,0,31.5,17.49ZM11.43,19.43a1.78,1.78,0,0,0,2-1.92,1.81,1.81,0,0,0-1.92-2,1.82,1.82,0,0,0-2,1.93A1.81,1.81,0,0,0,11.43,19.43Zm8-1.89a1.84,1.84,0,0,0-1.9-2,1.86,1.86,0,0,0-2,1.91,1.84,1.84,0,0,0,1.91,2A1.82,1.82,0,0,0,19.44,17.54Z"/></svg>