<svg id="Layer_1" data-name="Layer 1" xmlns="http://www.w3.org/2000/svg" viewBox="0 0 35 35"><defs><style>.cls-1{fill:none;}.cls-2,.cls-3{fill:#573285;}.cls-2{opacity:0.4;}</style></defs><title>7 Beautiful Looks</title><rect class="cls-1" width="35" height="35"/><path class="cls-2" d="M16.15,25.48q7.71,0,15.41,0a1.8,1.8,0,0,1,1.82,2,1.89,1.89,0,0,1-2,2H16.79a1.19,1.19,0,0,0-.76.15c-.16-.21-.07-.42,0-.62a4.87,4.87,0,0,0,.08-2.78A.71.71,0,0,1,16.15,25.48Zm2.64-7.14c-.05-.11-.09-.23-.14-.35a1.44,1.44,0,0,1,0-1c.12-.47.49-.91.22-1.44l-3.63,0c-3.86,0-7.72,0-11.58,0a1.93,1.93,0,0,0-2.07,1.81,2,2,0,0,0,1.71,2.08c.32,0,.65.08,1,.08h9.13c1.83,0,3.66,0,5.49,0A1.94,1.94,0,0,0,18.79,18.34Zm.06-8.76H31.22a1.92,1.92,0,0,0,2.16-2c0-1.3-.74-2-2.15-2s-2.78,0-4.17,0c-3,0-5.95,0-8.93,0l.3,1.43a2,2,0,0,1,0,.93A7.86,7.86,0,0,1,18,9.72,1.25,1.25,0,0,1,18.85,9.58ZM8.62,7.68V7.39c.17-.33,0-.71.14-1A1.34,1.34,0,0,0,9,5.64c-1.83,0-3.65,0-5.48,0a1.9,1.9,0,0,0-1.9,1.9A2,2,0,0,0,3.54,9.57c1.82,0,3.65,0,5.47,0a2,2,0,0,0-.25-.83C8.58,8.39,8.78,8,8.62,7.68ZM28.33,18.42l-.27.95a11.06,11.06,0,0,0,3.72,0,1.78,1.78,0,0,0,1.6-2,1.86,1.86,0,0,0-1.75-1.81c-1.19,0-2.38,0-3.57,0,.14.69.27,1.38.4,2.06C28.32,17.87,28.51,18.18,28.33,18.42Zm-24.74,7a1.93,1.93,0,0,0-2,1.9,2,2,0,0,0,1.92,2c1.17,0,2.33,0,3.5,0-.1-.34-.19-.68-.28-1-.12-.17,0-.38-.1-.56a1,1,0,0,1,0-.92c.05-.19,0-.39.09-.57L7,25.49C5.87,25.48,4.73,25.46,3.59,25.47Z"/><path class="cls-3" d="M28.06,15.55a5.22,5.22,0,0,0-2-2.28,5,5,0,0,0-7.14,2.28c-.13.48-.25,1-.38,1.45a1.43,1.43,0,0,0,0,.65c.08.24.09.5.19.73l.25,1.1a.91.91,0,0,1,.11.16,4.62,4.62,0,0,0,4.57,2.76,4.69,4.69,0,0,0,4.44-3c.3-.24.29-.61.4-.94s.06-.55.12-.82A3.81,3.81,0,0,0,28.06,15.55Zm-4.61,3.94a2,2,0,1,1,2.06-2A1.92,1.92,0,0,1,23.45,19.49ZM18.6,7.09a2.29,2.29,0,0,0-.47-1.45,4.77,4.77,0,0,0-4.6-3A4.75,4.75,0,0,0,9,5.64a1.44,1.44,0,0,0-.39.81,5.39,5.39,0,0,1-.1.89,1.41,1.41,0,0,0,0,.41,4.41,4.41,0,0,1,.1.89,1.92,1.92,0,0,0,.4.91,5.23,5.23,0,0,0,1.59,2A5,5,0,0,0,18,9.72,2.7,2.7,0,0,0,18.6,8C18.59,7.68,18.59,7.38,18.6,7.09Zm-5,2.52a2,2,0,0,1-2-2.07,1.85,1.85,0,0,1,2-2,1.93,1.93,0,0,1,2,2A2,2,0,0,1,13.56,9.61Zm2.59,15.87a6.31,6.31,0,0,0-1.31-1.8A5,5,0,0,0,7,25.49a1.5,1.5,0,0,0-.41.91,3.07,3.07,0,0,1-.09.8,1.2,1.2,0,0,0,0,.5,2.68,2.68,0,0,1,.1.69,1.82,1.82,0,0,0,.42,1,6,6,0,0,0,1.21,1.7A5,5,0,0,0,16,29.57,5.88,5.88,0,0,0,16.15,25.48Zm-4.58,3.95a2,2,0,1,1,0-4,2,2,0,0,1,2,2A2,2,0,0,1,11.57,29.43Z"/></svg>