<svg id="Layer_1" data-name="Layer 1" xmlns="http://www.w3.org/2000/svg" viewBox="0 0 35 35"><defs><style>.cls-1{fill:none;}.cls-2,.cls-3{fill:#573285;}.cls-2{opacity:0.4;}</style></defs><title>7 Form Elements Style</title><rect class="cls-1" width="35" height="35"/><path class="cls-2" d="M17.4,33.25c-3.62,0-7.24-.09-10.86,0a4.72,4.72,0,0,1-4.8-4.79q.15-10.87,0-21.74a4.68,4.68,0,0,1,4.94-5q10.79-.09,21.58,0c3.1,0,5,2,5,5.14q0,10.68,0,21.36a4.66,4.66,0,0,1-3.65,4.91,5.89,5.89,0,0,1-1.26.08Z"/><path class="cls-3" d="M20.84,9.14c1.75,0,3.5,0,5.24,0,1.54,0,2.33,1,1.84,2.31a1.37,1.37,0,0,1-1,.9,3.78,3.78,0,0,1-.81.12c-3.49,0-7,0-10.48,0a1.71,1.71,0,0,1-1.9-1.14A1.57,1.57,0,0,1,14.8,9.27a3.73,3.73,0,0,1,1.1-.14ZM15,19.19l.3,0H26.17c1.22,0,1.91-.62,1.89-1.64S27.42,16,26.2,16H15.41a1.92,1.92,0,0,0-.88.14,1.51,1.51,0,0,0-.9,1.36,1.66,1.66,0,0,0,1.06,1.65A.29.29,0,0,0,15,19.19ZM26.29,25.9c1.12,0,1.76-.58,1.77-1.59a1.59,1.59,0,0,0-1.75-1.63q-5.47,0-10.95,0a1.62,1.62,0,1,0,.06,3.23H26.29ZM8.63,8.61A2.21,2.21,0,0,0,6.16,10.8a2.46,2.46,0,0,0,2.3,2.31,2.3,2.3,0,0,0,2.29-2.29A2.11,2.11,0,0,0,8.63,8.61Zm2.1,9A2.26,2.26,0,0,0,8.5,15.25a2.37,2.37,0,0,0-2.34,2.26,2.18,2.18,0,0,0,2.29,2.23A2,2,0,0,0,10.73,17.64ZM6.16,24.28a2.39,2.39,0,0,0,2.27,2.33,2.28,2.28,0,0,0,2.31-2.26,2.06,2.06,0,0,0-2.15-2.24A2.19,2.19,0,0,0,6.16,24.28Z"/></svg>