<svg id="Layer_1" data-name="Layer 1" xmlns="http://www.w3.org/2000/svg" viewBox="0 0 35 35"><defs><style>.cls-1{fill:none;}.cls-2,.cls-3{fill:#573285;}.cls-2{opacity:0.4;}</style></defs><title>8 Unique Sidebars</title><rect class="cls-1" width="35" height="35"/><path class="cls-2" d="M17.4,33.25c-3.62,0-7.24-.09-10.86,0a4.72,4.72,0,0,1-4.8-4.79q.15-10.87,0-21.74a4.68,4.68,0,0,1,4.94-5q10.79-.09,21.58,0c3.1,0,5,2,5,5.14q0,10.68,0,21.36a4.66,4.66,0,0,1-3.65,4.91,5.89,5.89,0,0,1-1.26.08Z"/><rect class="cls-3" x="5.29" y="4.96" width="8.49" height="25.09" rx="1.96"/></svg>