<svg id="Layer_1" data-name="Layer 1" xmlns="http://www.w3.org/2000/svg" viewBox="0 0 35 35"><defs><style>.cls-1{fill:none;}.cls-2,.cls-3{fill:#573285;}.cls-3{opacity:0.4;}</style></defs><title>Custom Theme Colors</title><rect class="cls-1" width="35" height="35"/><path class="cls-2" d="M26.53,10.1a9.46,9.46,0,0,1-.22,1,3.7,3.7,0,0,1-3.64,2.63c-5.47,0-10.94,0-16.41,0a3.76,3.76,0,0,1-3.62-2.43,2.74,2.74,0,0,1-.21-1.13c0-1.34,0-2.69,0-4a2.64,2.64,0,0,1,.34-1.4A3.85,3.85,0,0,1,6.42,2.65c5.21,0,10.42.05,15.64,0,2.41,0,4.21,1.2,4.46,3.62a1.23,1.23,0,0,1,.19.64q0,1.32,0,2.64A.92.92,0,0,1,26.53,10.1Z"/><path class="cls-3" d="M26.53,10.1V6.25a8.77,8.77,0,0,0,1.44.3,5.46,5.46,0,0,1,4.12,5.3A16.53,16.53,0,0,1,32,15a5.51,5.51,0,0,1-4.9,4.29c-2.88.2-5.76.08-8.65.08-1.11,0-1.27.78-1.18,1.57,0,.27.25.29.44.35a1.76,1.76,0,0,1,1.41,1.91c0,2.39,0,4.79,0,7.18a1.83,1.83,0,0,1-2,2H13.74c-1.26,0-2-.51-2-1.75a67.35,67.35,0,0,1,0-7.91A1.46,1.46,0,0,1,13,21.32c.45-.11.56-.34.57-.78a4.57,4.57,0,0,1,4.92-4.89h7.92a1.81,1.81,0,0,0,2-2c0-.6,0-1.2,0-1.8A1.71,1.71,0,0,0,26.53,10.1Z"/></svg>