<svg id="Layer_1" data-name="Layer 1" xmlns="http://www.w3.org/2000/svg" viewBox="0 0 35 35"><defs><style>.cls-1{fill:none;}.cls-2,.cls-3{fill:#573285;}.cls-3{opacity:0.4;}</style></defs><title>Custom List View Color</title><rect class="cls-1" width="35" height="35"/><path class="cls-2" d="M12.71,19.16a6.33,6.33,0,0,1,2.8-6.23c4.59-3.37,9.12-6.81,13.7-10.21A2.86,2.86,0,0,1,33.79,4a3.07,3.07,0,0,1-.5,2.75c-1.54,2.35-3.05,4.73-4.58,7.09l-4.85,7.54a5.83,5.83,0,0,1-4.32,2.82,2.56,2.56,0,0,1-2.42-.6c-1.21-1.17-2.58-2.18-3.85-3.28A1.34,1.34,0,0,1,12.71,19.16Z"/><path class="cls-3" d="M12.71,19.16a1.51,1.51,0,0,0,.57.93c1.34,1.11,2.69,2.21,4,3.38a2.65,2.65,0,0,0,2.29.7,1.16,1.16,0,0,1-.87.14c-.36,0-.41.09-.35.45a6.7,6.7,0,0,1-1.45,5.78A6.29,6.29,0,0,1,12,32.92c-3,.06-6,0-9,0a1.85,1.85,0,0,1-1.95-1.8,1.91,1.91,0,0,1,1.85-2.06,1.92,1.92,0,0,0,2-2.4,6.73,6.73,0,0,1,5.87-7.18,3.42,3.42,0,0,1,1.46,0C12.59,19.58,12.65,19.38,12.71,19.16Z"/></svg>