<svg id="Layer_1" data-name="Layer 1" xmlns="http://www.w3.org/2000/svg" viewBox="0 0 35 35"><defs><style>.cls-1{fill:none;}.cls-2,.cls-3{fill:#573285;}.cls-2{opacity:0.4;}</style></defs><title>discuss chatter</title><rect class="cls-1" width="35" height="35"/><path class="cls-2" d="M11.82,3.77A11.15,11.15,0,0,1,20,7.19a8.66,8.66,0,0,1-.74,12.74,11.45,11.45,0,0,1-6.46,2.66,11.81,11.81,0,0,1-6-1,.78.78,0,0,0-.77,0,10.8,10.8,0,0,1-4.16,1.1.61.61,0,0,1-.68-.27c-.14-.28.05-.51.22-.71A15.36,15.36,0,0,0,3,19.2a.43.43,0,0,0,0-.59A8.45,8.45,0,0,1,1.05,13.5,8.06,8.06,0,0,1,2.1,9.12,10.48,10.48,0,0,1,9.37,4,10.56,10.56,0,0,1,11.82,3.77Z"/><path class="cls-3" d="M33.07,31.2a9.74,9.74,0,0,1-3.64-.89,1.17,1.17,0,0,0-1.09,0,10.22,10.22,0,0,1-8.37.05,9.65,9.65,0,0,1-5.22-5.57c-.2-.53-.08-.69.43-.83a12.12,12.12,0,0,0,7.42-5.38,10.48,10.48,0,0,0,1.53-5.82c0-.32.07-.39.36-.38a9.71,9.71,0,0,1,9.2,7.28,8.83,8.83,0,0,1-1.46,7.47.83.83,0,0,0,0,1.07,20.34,20.34,0,0,0,1.32,2c.19.24.52.46.35.83S33.31,31.13,33.07,31.2Z"/></svg>