<svg id="Layer_1" data-name="Layer 1" xmlns="http://www.w3.org/2000/svg" viewBox="0 0 35 35"><defs><style>.cls-1{fill:none;}.cls-2,.cls-3{fill:#573285;}.cls-3{opacity:0.4;}</style></defs><title>Modern, Material Design</title><rect class="cls-1" width="35" height="35"/><path class="cls-2" d="M4.65,31.79a1.3,1.3,0,0,1-1.4-1.56c.56-2.09,1.19-4.17,1.8-6.25a2.6,2.6,0,0,1,.72-1.08L19.54,9.12c.33-.34.52-.4.89,0q2.71,2.79,5.49,5.5c.34.33.31.52,0,.84Q19,22.32,12.09,29.24a4.06,4.06,0,0,1-1.93,1c-1.67.46-3.32,1-5,1.44C5,31.73,4.76,31.77,4.65,31.79ZM24.58,4.11c-1,1-2,2-3,3-.24.23-.2.38,0,.59q2.88,2.87,5.74,5.74c.22.22.37.22.59,0,1-1,2.05-2,3-3.05a3.54,3.54,0,0,0,0-4.65c-.52-.57-1.08-1.12-1.64-1.64a3.45,3.45,0,0,0-2.6-.88A3,3,0,0,0,24.58,4.11Z"/><path class="cls-3" d="M27.65,31.83H24a6.18,6.18,0,0,1-6.09-4.28.88.88,0,0,1,.22-1.06c2.23-2.19,4.43-4.4,6.63-6.62a.88.88,0,0,1,1.06-.23A6.19,6.19,0,0,1,30,26a2.31,2.31,0,0,0,.18,1.34,1.7,1.7,0,0,0,1.53,1,1.79,1.79,0,1,1,0,3.57ZM3.91,3.2A3.18,3.18,0,0,0,2.35,8.61c.59.62,1.24,1.18,1.84,1.78L9,15.23c.57.57.62.56,1.17,0,1.18-1.18,2.35-2.36,3.54-3.53.26-.25.25-.42,0-.67-2.34-2.33-4.66-4.68-7-7a3.31,3.31,0,0,0-2.26-.91A4.14,4.14,0,0,0,3.91,3.2Z"/></svg>