<svg id="Layer_1" data-name="Layer 1" xmlns="http://www.w3.org/2000/svg" viewBox="0 0 35 35"><defs><style>.cls-1{fill:none;}.cls-2,.cls-3{fill:#573285;}.cls-3{opacity:0.4;}</style></defs><title>Multi Tab</title><rect class="cls-1" width="35" height="35"/><path class="cls-2" d="M27.22,29.46a6,6,0,0,0-.85,0H9.06a5.11,5.11,0,0,1-5.32-5.33V10c0-.87-.33-1.34-1-1.48a1.34,1.34,0,0,0-1.62.83,1,1,0,0,0-.07.6q0,7.38,0,14.76a1.35,1.35,0,0,0,.05.6c.06.34.11.68.2,1a7.59,7.59,0,0,0,7.56,5.79H22.47c1.54,0,3.09,0,4.63,0a1.31,1.31,0,0,0,.12-2.62Z"/><path class="cls-2" d="M33.94,6.83A3.76,3.76,0,0,0,30,2.91c-6.5,0-13,0-19.5,0A3.7,3.7,0,0,0,6.6,6.11c0,2.34,0,4.67,0,7,0,.58.16.75.75.75q13,0,26,0a1,1,0,0,0,.6-.07C33.93,11.46,33.87,9.15,33.94,6.83ZM13.81,9a1.88,1.88,0,0,1-3.65-.29,1.88,1.88,0,0,1,1.27-2.08A1.91,1.91,0,0,1,13.8,7.74,2.52,2.52,0,0,1,13.81,9Zm15,.81c-1.94,0-3.89,0-5.84,0H17.16A1.36,1.36,0,0,1,15.82,9a1.34,1.34,0,0,1,.09-1.44A1.36,1.36,0,0,1,17.12,7C21,7,25,7,28.86,7a1.38,1.38,0,0,1,1.48,1.38A1.37,1.37,0,0,1,28.84,9.77Z"/><path class="cls-3" d="M33.93,23.21a3.66,3.66,0,0,1-3.76,3.46c-3.66,0-7.32,0-11,0-2.93,0-5.85,0-8.78,0a3.72,3.72,0,0,1-3.68-2.55,4.66,4.66,0,0,1-.24-1.61l0-9a.93.93,0,0,0,.44,0c.11.17.35.18.88.18H33.15a1.49,1.49,0,0,1,.78.09C33.93,16.92,34,20.07,33.93,23.21ZM13.8,7.74a1.91,1.91,0,0,0-2.37-1.15,1.88,1.88,0,0,0-1.27,2.08A1.88,1.88,0,0,0,13.81,9,2.52,2.52,0,0,0,13.8,7.74Z"/></svg>