<svg id="Layer_1" data-name="Layer 1" xmlns="http://www.w3.org/2000/svg" viewBox="0 0 35 35"><defs><style>.cls-1{fill:none;}.cls-2,.cls-3{fill:#573285;}.cls-2{opacity:0.4;}</style></defs><title>Sticky List,Form View, Chatter</title><rect class="cls-1" width="35" height="35"/><path class="cls-2" d="M22.07,25.65h9a1.85,1.85,0,0,1,2.12,2,1.93,1.93,0,0,1-2.12,2.07q-9,0-18,0A1.93,1.93,0,0,1,11,27.62c0-1.27.75-2,2.12-2ZM31.15,9.38A1.86,1.86,0,0,0,33,8.26,2,2,0,0,0,32.78,6a1.94,1.94,0,0,0-1.67-.71H13a3.77,3.77,0,0,0-.47,0A1.87,1.87,0,0,0,11,7.15a2,2,0,0,0,2.18,2.23c3,0,6,0,8.95,0Zm-10.51,6.1c-2.6,0-5.19,0-7.78,0A1.83,1.83,0,0,0,11,17.13c-.09,1.39.45,2.11,1.66,2.32a8.94,8.94,0,0,0,1.54.11h16c.3,0,.59,0,.88,0,1.3-.11,2-.73,2.12-1.76a1.93,1.93,0,0,0-2.13-2.31H20.64Z"/><path class="cls-3" d="M4.79,24.68a2.94,2.94,0,0,1,3,3,3,3,0,0,1-3,3,3.1,3.1,0,0,1-3-3A3,3,0,0,1,4.79,24.68Zm3-7.18a3,3,0,0,0-2.93-3,3.1,3.1,0,0,0-3.09,3,3.09,3.09,0,0,0,3,3A3,3,0,0,0,7.79,17.5ZM4.86,4.34a3.05,3.05,0,0,0-3.09,3,3.09,3.09,0,0,0,3,3.05,3,3,0,0,0,.1-6Z"/></svg>