<svg id="Layer_1" data-name="Layer 1" xmlns="http://www.w3.org/2000/svg" viewBox="0 0 35 35"><defs><style>.cls-1{fill:none;}.cls-2,.cls-3{fill:#573285;}.cls-2{opacity:0.4;}</style></defs><title>Unique Loading Icon</title><rect class="cls-1" width="35" height="35"/><path class="cls-2" d="M19.45,29.57c0,.67,0,1.34,0,2a1.89,1.89,0,0,1-2,1.93,2,2,0,0,1-2-1.91q0-2,0-4.08a2,2,0,0,1,2-1.95,2,2,0,0,1,2,2C19.41,28.23,19.45,28.9,19.45,29.57ZM31.56,19.46a2,2,0,0,0,1.95-1.59A1.86,1.86,0,0,0,32,15.58a13.5,13.5,0,0,0-5,0c-1.14.25-1.53.93-1.4,2.3a1.77,1.77,0,0,0,1.81,1.54h2.14A16.83,16.83,0,0,1,31.56,19.46ZM9.05,28.8c.94-.9,1.86-1.81,2.76-2.74a2.08,2.08,0,0,0,.08-2.7,1.82,1.82,0,0,0-2.64-.29,27.78,27.78,0,0,0-3.32,3.19,1.84,1.84,0,0,0-.2,2.13,1.7,1.7,0,0,0,1.81,1A1.75,1.75,0,0,0,9.05,28.8Zm20.26-.74a2,2,0,0,0-.52-2c-.91-.89-1.8-1.8-2.7-2.69a2,2,0,1,0-2.82,2.79c.85.88,1.73,1.74,2.59,2.6a1.79,1.79,0,0,0,1.49.64A1.75,1.75,0,0,0,29.31,28.06ZM25.84,12a27,27,0,0,0,3.21-3.3,1.93,1.93,0,0,0-.22-2.5,2,2,0,0,0-2.67-.09c-1.06,1-2.08,2-3.07,3.07a1.82,1.82,0,0,0-.29,2.06,1.68,1.68,0,0,0,1.85,1.1A1.35,1.35,0,0,0,25.84,12Z"/><path class="cls-3" d="M5.41,15.56c.74,0,1.47,0,2.21,0a1.84,1.84,0,0,1,1.78,2,1.8,1.8,0,0,1-1.78,1.93,22.41,22.41,0,0,1-4.41,0,1.76,1.76,0,0,1-1.74-1.82,1.81,1.81,0,0,1,1.66-2.05,21.68,21.68,0,0,1,2.28,0ZM11.85,9.1c-1-1-2-2-3.07-3a2,2,0,0,0-2.73.15A2,2,0,0,0,6,8.88c1,1,2,2,3,3a2,2,0,0,0,2.31.29,1.75,1.75,0,0,0,1-1.69A1.75,1.75,0,0,0,11.85,9.1Zm3.66-3.23a10,10,0,0,0,.06,2.25l.13.23a1.91,1.91,0,0,0,2.2,1.07,1.84,1.84,0,0,0,1.54-2c0-1.34,0-2.67,0-4A1.82,1.82,0,0,0,19,2.11a2,2,0,0,0-3.39.79A21,21,0,0,0,15.51,5.87Z"/></svg>