<?xml version="1.0" encoding="UTF-8"?>
<svg id="Layer_1" data-name="Layer 1" xmlns="http://www.w3.org/2000/svg" viewBox="0 0 14 14">
  <defs>
    <style>
      .cls-1 {
        fill: #393939;
      }

      .cls-2 {
        fill: none;
      }
    </style>
  </defs>
  <rect class="cls-2" width="14" height="14"/>
  <path class="cls-1" d="M13.46,3.32c-2.37,0-4.75,0-7.12,0-.06,0-.11,0-.17,0-.11,0-.16,.07-.17,.17-.01,.11,.04,.19,.15,.21,.08,.01,.16,0,.24,0,2.23,0,4.46,0,6.68,0,.08,0,.17-.03,.28,.05-.95,.94-1.89,1.88-2.83,2.82-.14-.03-.06-.13-.06-.2,.04-1.11-.46-1.68-1.57-1.79-.56-.05-1.11-.03-1.67-.03-.27,0-.32,.05-.32,.33,0,.53,0,1.06,0,1.6,0,.04,.04,.12-.06,.14-.02-.04-.04-.07-.05-.11-.2-.56-.41-1.12-.61-1.68-.07-.19-.17-.29-.39-.28-.3,.02-.6,.01-.9,0-.17,0-.27,.06-.33,.22-.08,.24-.18,.48-.27,.72-.17,.44-.33,.87-.51,1.34-.33-.39-.75-.54-1.17-.68-.14-.05-.28-.09-.41-.15-.08-.04-.23-.04-.2-.16,.03-.1,.17-.07,.26-.07,.31,0,.59,.08,.86,.21,.15,.07,.28,.06,.37-.1,.13-.24,.27-.48,.4-.71,.07-.14,.05-.24-.09-.32-.99-.59-2.31-.46-3.2,.35,0-.43,.01-.83,0-1.23,0-.2,.04-.26,.25-.26,1.39,0,2.78,0,4.17,0,.08,0,.16,0,.24-.01,.1-.02,.15-.1,.14-.2,0-.09-.06-.15-.15-.17-.06,0-.13,0-.19,0-1.45,0-2.91,0-4.36,0-.16,0-.3,.02-.43,.11v6.88c.12,.03,.24,.04,.36,.04,1.19,0,2.37,0,3.56,0,.31,0,.63,0,.94,0,.14,0,.27-.03,.27-.2,0-.16-.12-.19-.26-.19-.06,0-.11,0-.17,0-1.38,0-2.76,0-4.14,0-.17,0-.23-.04-.22-.22,.01-.26,0-.52,0-.77,0-.17,.05-.19,.2-.12,.37,.17,.76,.24,1.17,.28,.49,.04,.96-.2,1.46-.08,.24,.06,.5,0,.75,0,.39,0,.4,0,.52-.38,.05-.15,.12-.19,.26-.15,.22,.05,.45,.07,.67,.01,.22-.05,.32,0,.35,.22,.03,.25,.18,.32,.42,.31,.51-.02,1.03,0,1.54,0,0,.04,0,.06,0,.07-.43,.49-.84,1.02-1.62,.83-.04,0-.08,0-.12,0-.13,0-.23,.04-.24,.18,0,.16,.1,.21,.24,.21,.23,0,.45-.02,.68,0,.3,.03,.51-.09,.72-.3,2.07-2.08,4.15-4.15,6.23-6.23v-.39c-.12-.09-.26-.11-.41-.11ZM.76,7.86s-.02,.1-.1,.12v-1.26c.43,.5,.99,.64,1.52,.83,.09,.03,.27,.03,.24,.18-.02,.13-.18,.1-.29,.11-.28,.02-.54-.05-.79-.18-.37-.19-.38-.18-.58,.2Zm7.64,.79c0-.25,0-.5,0-.75,0-.07,.04-.1,.11-.1,.28,0,.56,0,.84-.1-.33,.33-.63,.63-.95,.95Zm.73-1.3c-.23,.05-.46,.05-.7,.05-.4,0-.42,.02-.42,.43,0,.23,0,.45,0,.68,0,.13-.04,.17-.17,.17-.42,0-.84-.01-1.26,0-.15,0-.22-.06-.26-.19-.02-.08-.05-.15-.07-.23-.04-.15-.14-.21-.29-.18-.4,.1-.79,.11-1.19,0-.22-.06-.29,.08-.36,.26-.04,.11-.01,.3-.17,.32-.2,.03-.42,.01-.63,0-.07,0-.03-.07-.04-.12-.03-.22-.16-.29-.33-.17-.69,.5-1.42,.42-2.17,.16-.09-.03-.24-.05-.12-.2,.09-.11,.04-.39,.32-.25,.34,.16,.7,.2,1.06,.14,.27-.05,.48-.23,.49-.46,.02-.26-.14-.41-.35-.49-.33-.14-.68-.24-1.01-.39-.57-.25-.8-.79-.56-1.3,.14-.3,.4-.48,.71-.57,.57-.17,1.13-.1,1.69,.08,.14,.05,.14,.11,.08,.23-.1,.21-.19,.3-.45,.19-.34-.13-.71-.16-1.07-.04-.17,.05-.28,.15-.32,.33-.03,.18,.05,.31,.19,.41,.3,.23,.67,.3,1.02,.44,.39,.15,.74,.33,.85,.78,.02,.1,.09,.16,.19,.16,.13,0,.18-.1,.23-.21,.27-.72,.55-1.44,.81-2.17,.07-.19,.15-.24,.35-.24,.62,.01,.62,0,.83,.58,.28,.77,.57,1.54,.85,2.31,.05,.13,.09,.28,.28,.24,.18-.04,.15-.19,.15-.31,0-.43,0-.86,0-1.28,0-.44,0-.87,0-1.31,0-.16,.03-.23,.21-.22,.55,.02,1.1-.03,1.64,.08,.64,.13,.94,.5,.94,1.15,0,.62-.35,1.03-.96,1.16Zm-.38-1.89c-.15-.02-.31-.02-.46-.03-.19,0-.28,.08-.28,.28,0,.24,0,.48,0,.73,0,.45,.01,.46,.46,.45,.09,0,.18,0,.27-.01,.4-.05,.66-.33,.66-.71,0-.39-.25-.66-.65-.71Zm-.2,1.03c-.32-.06-.08-.33-.14-.49-.05-.14,.05-.18,.17-.16,.3,.01,.43,.12,.42,.34,0,.21-.19,.36-.45,.32Zm-2.59,.76c-.12-.4-.25-.8-.37-1.19-.03-.1-.09-.18-.2-.18-.13,0-.19,.08-.22,.18-.1,.32-.2,.64-.31,.96-.17,.48-.19,.56,.47,.64,.02,0,.03,0,.12,0,.06,0,.19-.03,.32-.05,.2-.04,.26-.17,.21-.36Zm-.47,0c-.06,.02-.15,.02-.21,0-.09-.03-.04-.11-.02-.16,.04-.09,.03-.21,.12-.3,.08,.1,.09,.2,.12,.3,.01,.05,.09,.12,0,.16Z"/>
</svg>