<?xml version="1.0" encoding="UTF-8"?>
<svg id="Layer_1" data-name="Layer 1" xmlns="http://www.w3.org/2000/svg" viewBox="0 0 14 14">
  <defs>
    <style>
      .cls-1 {
        fill: #393939;
      }

      .cls-2 {
        fill: none;
      }
    </style>
  </defs>
  <rect class="cls-2" width="14" height="14"/>
  <path class="cls-1" d="M10.06,11.73c0-.13,.12-.26,.25-.25,.14,.01,.23,.09,.25,.24,.01,.13-.11,.26-.24,.26-.13,0-.25-.12-.26-.25Zm2.77-6.48c0,.31-.21,.52-.51,.54-.12,0-.19,.04-.21,.17-.01,.09-.06,.17-.1,.26-.09,.2-.2,.36,.01,.58,.15,.16,.09,.45-.08,.63-.2,.22-.41,.43-.63,.63-.22,.2-.53,.21-.75,0-.1-.09-.17-.09-.27-.03-.07,.04-.14,.07-.21,.1-.22,.08-.42,.13-.43,.44,0,.21-.26,.37-.5,.37-.29,0-.58,0-.87,0-.32,0-.54-.21-.56-.53,0-.11-.04-.15-.15-.19-.18-.06-.35-.14-.52-.22-.07-.03-.11-.03-.17,.02-.31,.26-.57,.25-.86-.04-.18-.18-.37-.36-.54-.55-.22-.23-.23-.53-.01-.76,.08-.09,.09-.16,.03-.25-.04-.07-.07-.15-.1-.23-.08-.22-.12-.43-.45-.43-.21,0-.37-.27-.37-.52,0-.28,0-.57,0-.85,0-.32,.22-.54,.55-.55,.1,0,.15-.03,.18-.14,.02-.08,.06-.16,.09-.24,.1-.22,.21-.41,0-.66-.15-.17-.08-.42,.09-.59,.21-.22,.42-.43,.64-.64,.1-.1,.23-.15,.37-.14,.14-.01,.27,.04,.36,.14,.1,.1,.18,.09,.28,.03,.07-.04,.14-.07,.22-.09,.2-.08,.41-.11,.43-.43,.01-.25,.26-.38,.52-.39,.28,0,.55,0,.83,0,.32,0,.55,.21,.57,.53,0,.12,.05,.17,.16,.2,.09,.02,.19,.05,.28,.1,.2,.12,.36,.16,.56-.02,.18-.16,.45-.09,.65,.09,.2,.2,.41,.39,.6,.6,.22,.24,.23,.53,0,.78-.07,.07-.09,.12-.03,.22,.09,.17,.15,.35,.22,.53,.03,.09,.07,.12,.17,.13,.35,.02,.55,.23,.55,.58,0,.28,0,.55,0,.83Zm-2.5-1.18c-.13-.33-.34-.59-.66-.78,0,.47,0,.91,0,1.35-.01,.48-.44,.92-.9,.95-.47,.03-.93-.33-1.01-.81-.08-.48,0-.97-.04-1.49-.07,.05-.11,.08-.16,.11-.96,.8-.76,2.33,.38,2.84,.21,.09,.28,.21,.28,.43-.01,.53,0,1.07,0,1.6,0,.14,.03,.21,.19,.2,.2-.01,.41,0,.61,0,.14,0,.18-.04,.18-.18,0-.55,0-1.09,0-1.64,0-.21,.07-.32,.26-.4,.84-.37,1.23-1.32,.88-2.17Zm2.01,.44c0-.14-.04-.2-.18-.18-.07,0-.13,0-.2,0-.14,0-.22-.07-.25-.2-.08-.33-.2-.64-.38-.92-.09-.14-.07-.26,.04-.37,.05-.05,.09-.1,.14-.14,.09-.07,.07-.13,0-.21-.14-.13-.27-.27-.41-.4-.18-.18-.18-.18-.36,0-.11,.12-.23,.21-.39,.12-.31-.18-.63-.32-.98-.41-.13-.03-.18-.12-.19-.25,0-.07,0-.15,0-.22,.01-.11-.03-.15-.14-.15-.2,0-.4,.01-.59,0-.19-.02-.25,.05-.24,.24,.01,.28-.04,.35-.27,.4-.3,.07-.58,.19-.85,.35-.15,.09-.28,.08-.4-.05-.02-.02-.05-.04-.07-.07-.1-.15-.2-.12-.31,0-.11,.12-.23,.24-.35,.35-.23,.22-.19,.18,0,.37,.11,.11,.21,.23,.12,.38-.19,.31-.32,.64-.42,.99-.03,.12-.12,.18-.25,.18-.07,0-.13,0-.2,0-.12-.01-.17,.03-.16,.15,0,.19,0,.38,0,.57,0,.29-.02,.26,.25,.25,.2,0,.34,.04,.38,.25,.07,.32,.2,.61,.37,.89,.08,.13,.07,.25-.04,.36-.04,.04-.08,.09-.13,.12-.11,.09-.1,.16,0,.25,.14,.12,.27,.25,.39,.39,.13,.16,.22,.14,.35,0,.19-.22,.25-.21,.51-.07,.14,.08,.28,.14,.42,.21,.09,.04,.14,.03,.14-.09,0-.26,0-.51,0-.77,0-.12-.04-.17-.14-.23-.96-.54-1.37-1.63-1-2.66,.18-.5,.5-.89,.97-1.15,.36-.19,.67-.02,.68,.39,0,.05,0,.11,0,.16,0,.41,0,.83,0,1.24,0,.24,.17,.43,.4,.47,.19,.04,.4-.08,.49-.28,.04-.09,.05-.19,.05-.29,0-.41-.01-.82-.01-1.22,0-.19,.02-.39,.21-.5,.18-.1,.36-.05,.52,.05,.56,.35,.93,.85,1.02,1.5,.14,1.01-.25,1.78-1.13,2.3-.05,.03-.1,.05-.1,.13,0,.32,0,.64,0,.98,.24-.06,.43-.17,.62-.28,.14-.09,.27-.08,.39,.05,.04,.05,.1,.09,.14,.14,.06,.07,.11,.07,.18,0,.17-.18,.34-.35,.52-.52,.07-.07,.06-.12,0-.18-.05-.05-.1-.1-.15-.15-.11-.11-.13-.23-.04-.36,.18-.29,.31-.61,.39-.94,.03-.13,.12-.2,.26-.2,.07,0,.15,0,.22,0,.11,0,.15-.04,.15-.15,0-.22,0-.43,0-.65Zm-.07,6.12c-.29,.23-.59,.43-.9,.64-.13,.09-.27,.09-.36-.05-.1-.14-.05-.26,.08-.36,.26-.19,.53-.37,.79-.56,.1-.07,.2-.16,.22-.29,.03-.14,.01-.28-.11-.38-.14-.11-.29-.13-.44-.06-.25,.12-.49,.25-.74,.37-.37,.19-.75,.38-1.12,.57-.09,.05-.13,.09-.12,.21,.03,.55-.37,.97-.92,.97-.7,0-1.4,0-2.09,0-.21,0-.31-.08-.31-.24,0-.16,.1-.24,.31-.24,.68,0,1.36,0,2.03,0,.28,0,.47-.16,.48-.39,.02-.25-.14-.44-.39-.44-.42,0-.84,0-1.26,0-.26,0-.47-.07-.66-.25-.46-.44-.98-.72-1.64-.65-.26,.03-.52,.1-.76,.2-.23,.1-.48,.14-.73,.14-.11,0-.15,.02-.15,.14,0,.58,0,1.16,0,1.74,0,.08,0,.14,.11,.14,.75-.05,1.42,.27,2.12,.43,.63,.15,1.25,.33,1.88,.5,.33,.09,.63,.05,.93-.11,.24-.13,.45-.3,.67-.45,.17-.12,.32-.11,.41,.02,.09,.13,.05,.25-.12,.38-.31,.22-.61,.46-.97,.6-.34,.13-.69,.14-1.04,.05-1.12-.3-2.24-.6-3.35-.9-.2-.05-.41-.01-.61-.03-.07,0-.08,.05-.11,.09-.13,.23-.32,.35-.59,.35-.32,0-.65,0-.97,0-.4,0-.66-.26-.67-.67,0-.43,0-.86,0-1.28,0-.4,0-.8,0-1.2,0-.47,.26-.73,.73-.73,.31,0,.62,0,.93,0,.2,0,.36,.09,.5,.24,.06,.06,.05,.2,.16,.2,.15,0,.3,.03,.45-.02,.24-.08,.48-.17,.73-.24,.83-.22,1.58-.03,2.21,.53,.25,.23,.5,.3,.83,.29,.39-.01,.79-.05,1.18,.03,.09,.02,.19,.05,.25,.11,.14,.15,.26,.09,.41,.02,.57-.3,1.14-.6,1.71-.88,.58-.29,1.19-.03,1.33,.58,.08,.35-.05,.65-.33,.87Zm-9.29-1.02c0-.16-.07-.23-.22-.23-.28,0-.57,0-.85,0-.17,0-.24,.07-.23,.24,0,.41,0,.82,0,1.22,0,.41,0,.82,0,1.22,0,.16,.06,.24,.23,.24,.28,0,.57,0,.85,0,.16,0,.23-.07,.22-.23,0-.82,0-1.64,0-2.47Z"/>
</svg>