<?xml version="1.0" encoding="UTF-8"?>
<svg id="Layer_1" data-name="Layer 1" xmlns="http://www.w3.org/2000/svg" viewBox="0 0 800 800">
  <defs>
    <style>
      .cls-1 {
        fill: none;
      }

      .cls-2 {
        fill: #010101;
      }
    </style>
  </defs>
  <rect class="cls-1" width="800" height="800"/>
  <path class="cls-2" d="M762.94,751.04c-.54-8.77-.84-13.09-11.91-12.82-36.17,.9-72.39,.22-108.58,.45-6.24,.04-9.48-.95-10.1-8.22-2.16-25.5-4.86-50.96-7.73-76.39-.81-7.15,.91-10.3,8.54-12.38,33.66-9.19,58.5-39.34,59.06-73.05,.84-49.74,.23-99.5,.54-149.25,.04-6.73-2.47-8.31-8.61-8.04-9.79,.42-19.62-.29-29.4,.25-6.88,.38-9.26-1.68-8.89-8.78,.89-16.61-3.29-31.5-17.84-41.53-4.26-2.94-2.82-4.76-.22-7.73,23.26-26.49,21.73-58.09,14.76-88.82-7.76-34.2-38.94-53.83-74.08-50.94-32.02,2.64-58.78,29.41-62.14,63.09-3.84,38.38,.5,73.56,40.23,93.33,6.78,3.38,1.35,6.03-.83,8.23-17.23,17.4-34.68,34.58-51.87,52.02-3.47,3.52-7.08,4.97-11.97,4.9-16.59-.22-33.18-.28-49.77,.02-5.83,.1-8.3-1.42-9.73-7.68-4-17.44-15.01-29.17-32.32-34.45-11.49-3.5-23.07-6.74-34.66-9.93-14.96-4.13-18.87-17.18-8.33-29.1,11.13-12.59,17.75-27.03,18.21-43.86,.32-11.66,.54-23.4-.51-34.99-2.7-29.59-25.64-54.43-55.36-60.98-26.98-5.94-58.26,7.74-73.13,31.97-18.68,30.45-14.86,80.9,8.19,108.13,9.43,11.13,5.39,24.97-8.27,28.76-12.31,3.41-24.69,6.62-36.8,10.65-19.4,6.45-31.46,22.91-32.05,43.32-.35,12.05-.49,24.13,0,36.17,.27,6.66-2.16,8.36-8.37,8.03-8.65-.46-17.43,.7-25.99-.32-11.44-1.36-13.99,3.24-13.32,13.82,.93,14.64,.87,29.42,.01,44.07-.59,10.1,2.08,14.75,12.74,12.89,7.75-1.35,11.32,.82,11.25,10-.44,55.78-.33,111.56-.08,167.34,.03,7.34-2,9.61-9.56,9.49-28.65-.46-57.31-.23-85.96-.12-3.17,.01-8.26-1.73-9.02,2.19-1.21,6.16-1.66,13.09,.02,18.99,1.21,4.25,7.41,1.95,11.31,1.95,116.51,.11,233.02,.09,349.52,.09s233.77-.08,350.66,.16c8.38,.02,13-.4,12.35-10.97Zm-233.21-440.59c-.69-9.74-.58-19.59-.09-29.35,1.25-25.02,21.78-44.3,46.61-44.21,24.75,.08,44.81,19.76,45.77,44.97,.17,4.51,.02,9.04,.02,15.31,1.79,19.09-2.78,37.24-21.94,49.02-29.46,18.12-67.93-1.31-70.37-35.74Zm-27.28,241.24c8.52,.62,20.03,2.91,25-1.47,5.91-5.21,2.72-17.15,1.67-25.82-2.28-18.86,4.24-32.44,18.5-44.86,17.84-15.53,33.81-33.2,50.55-49.99,8.09-8.12,16.93-15.59,23.95-25.74v8.42c0,41.39,.06,82.78-.02,124.17-.05,24.77-13.37,38.44-38.19,38.73-27.1,.31-54.21-.29-81.3,.27-9.3,.19-9.38-4.63-9-11.21,.36-6.08-2.05-13.3,8.84-12.51Zm-13.55-92.89c7.44,.09,12.54-2.27,17.64-7.48,22.13-22.6,44.68-44.8,67-67.21,4.72-4.74,9.66-8.76,16.85-6.29,9.58,3.29,11.28,14.48,3.06,23.01-13.33,13.82-27.02,27.31-40.68,40.81-13.37,13.21-24.82,31.22-40.95,37.98-15.73,6.59-36.32,1.62-54.77,1.72-2.64,.01-5.27,0-7.91,0-18.84,0-37.67-.1-56.51,.04-8.09,.06-14.9-1.92-14.68-11.35,.21-9.02,6.69-11.48,14.9-11.45,32.02,.14,64.05-.18,96.06,.23Zm-239.6-147.31c-1-13.75-2.34-27.81,1.93-41.49,6.79-21.73,28.06-35.67,50.49-32.91,22.01,2.71,39.25,21.93,40.13,44.85,.17,4.51,.02,9.04,.02,16.08-.5,6.05,.76,14.61-2.27,23.15-7.7,21.69-26.34,33.67-50.14,31.38-20.27-1.95-38.63-19.77-40.17-41.06Zm69.71,68.84c-.29,12.02-17,23.01-29.41,18.51-8.9-3.23-17.26-8.05-17.76-19.47-.2-4.63,.45-6.8,6.37-5.07,10.98,3.21,22.33,2.78,33.58,.54,7.2-1.43,7.38-1.25,7.22,5.48Zm-128.65,92.47c.62-10.87-.06-21.82,.26-32.72,.35-12.13,5.98-20.78,18.01-24.37,14.01-4.18,28.16-7.91,42.06-12.41,4.36-1.41,6.11,.76,8.61,3.07,24.84,23.05,48.1,23.17,72.37,.29,2.83-2.67,4.81-4.74,9.58-3.15,12.79,4.24,25.95,7.38,38.87,11.28,3.89,1.17,7.85,2.87,11.11,5.25,4.28,3.11,8.71,7.73,7.16,13.04-1.35,4.64-7.3,2.01-11.1,2.3-20.23,1.51-35.28,17.79-32.85,37.88,1.02,8.43-2.26,8.2-8.22,8.16-24.84-.19-49.67-.08-74.51-.08-24.08,0-48.17-.21-72.25,.13-6.63,.09-9.51-1.34-9.09-8.66Zm-46.86,44.83c.33-8.14,.46-12.78,11.17-12.74,113.46,.42,226.93,.42,340.39,0,10.21-.04,10.65,4.29,10.62,12.04-.02,7.61-.11,12.09-10.47,11.97-56.91-.62-113.84-.3-170.76-.3s-113.09-.2-169.63,.2c-8.84,.06-11.69-2.16-11.32-11.18Zm78.72,219.61c2.46-5.18,5.05-10.07,7.14-15.16,2.14-5.23,5.53-7.16,11.29-7.14,52.38,.19,104.77,.19,157.16-.02,5.35-.02,8.48,1.62,10.32,6.49,2.08,5.5,6.43,10.11,6.78,16.39-14.42,1.43-183,1.03-192.68-.57Zm3.69-141.28c2.31,4.65,6.64,2.59,10.03,2.6,49,.14,98.01,.1,147.01,.1,26.01,0,52.02,.22,78.03-.14,7.02-.1,9.79,1.32,9.71,9.15-.4,40.69-.34,81.39-.04,122.09,.05,6.86-1.9,8.47-8.8,9.12-13.73,1.3-22.38-2.53-27.22-16.36-3.69-10.53-7.68-23.95-15.9-29.05-8.24-5.11-21.9-1.68-33.18-1.7-52.4-.07-104.8,.13-157.19-.21-7.48-.05-11.63,2.06-14.6,9.04-4.41,10.36-9.9,20.25-15,30.31-3.22,6.36-24.49,11.2-29.79,6.8-2.41-2.01-1.51-4.88-1.52-7.41-.05-41.07,.15-82.15-.21-123.22-.07-7.42,2.69-9.12,9.22-8.51,4.48,.42,9.12-.47,13.55,.19,9.92,1.49,12.79-2.07,12.68-12.19-.11-9.76-3.27-12.74-12.35-11.46-3.33,.47-6.84-.36-10.15,.16-10.32,1.6-13.27-2.34-13.2-12.79,.07-9.67,3.67-10.85,11.87-10.79,46.74,.32,93.48,.16,140.23,.16,46.37,0,92.74,.29,139.1-.24,9.73-.11,12.9,1.98,12.71,12.24-.17,9.63-3.09,11.6-12.22,11.56-73.51-.38-147.01-.22-220.52-.21-11.26,0-17.41,10.4-12.26,20.75Zm329.98,142.66c-18.42-.19-36.85-.22-55.28,0-5.51,.07-7.13-2.16-7.04-7.36,.24-13.15,.08-26.31,.08-39.47,0-12.41,.27-24.82-.11-37.21-.2-6.46,1.24-9.65,8.6-9.41,14.65,.47,29.33,.33,43.99,.05,5.79-.11,7.64,1.99,8.13,7.74,2.24,26.18,4.74,52.35,7.75,78.45,.67,5.82-.66,7.26-6.12,7.21Zm42.08-.33c-9.56,2.61-11.9-2.1-12.65-11.04-2.14-25.47-5.25-50.85-7.97-76.27-.2-1.85-.45-3.66,1.42-5.02,6.79-4.92,21.9,.76,22.7,8.69,2.44,24.33,4.42,48.7,7.3,72.98,1.09,9.19-1.44,12.79-10.8,10.66Zm-96.77-116.68c-9.74,.13-7.54-5.93-7.49-11.14,.05-5.52-2.46-12.21,7.97-11.99,26.35,.54,52.71,.22,79.07,.17,41.5-.08,64.86-23.25,65.21-65.01,.24-28.61,.49-57.22-.2-85.82-.24-9.85,2.22-12.82,12.37-12.68,9.54,.13,11.95,2.87,11.59,12.09-.74,18.79-.22,37.63-.22,60.76-1.34,19.33,2.46,43.13-1.93,66.66-4.94,26.49-26.76,46.02-53.41,46.49-37.64,.65-75.31,0-112.96,.48ZM599.45,45.55c.04-5.99-1.96-7.67-7.8-7.66-88.13,.15-176.26,.16-264.39-.01-6.28-.01-8.47,1.64-8.41,8.19,.29,33.5,.33,67.02-.02,100.52-.07,7.1,2.27,8.95,9.05,8.83,21.08-.37,42.19,.17,63.27-.3,7.25-.16,9.69,1.67,9.48,9.24-.53,19.85-.18,39.72-.18,62.59,27.65-23,53.17-44.01,78.38-65.38,5.21-4.41,10.33-6.49,17.22-6.42,31.26,.32,62.52,.05,93.78,.22,5.99,.03,9.77-.31,9.68-8.18-.39-33.88-.29-67.77-.05-101.65Zm-31.93,85.54c-25.61-.28-51.24,.14-76.84-.27-8-.13-14.34,1.66-20.42,7.13-11.75,10.57-24.12,20.44-36.36,30.46-2.45,2-4.28,5.37-9.59,4.82,0-10.72-.44-21.5,.15-32.22,.42-7.81-1.99-10.43-10.07-10.22-21.08,.55-42.19-.05-63.28,.32-6.7,.12-9.31-1.48-9.08-8.73,.53-16.93,.44-33.89,.04-50.83-.17-7.09,1.57-9.89,9.38-9.86,71.95,.28,143.9,.26,215.85,.02,7.35-.02,8.8,2.86,8.69,9.33-.31,17.32-.4,34.65,.04,51.96,.17,6.71-2.33,8.16-8.5,8.1Zm-109.33-22.88c-12.79,0-25.6-.49-38.35,.16-9.46,.48-8.11-5.55-7.71-10.98,.38-5.17-3.34-12.6,7.44-12.44,26.32,.4,52.65,.38,78.96,0,9.96-.14,7.19,6.68,7.09,11.6-.1,4.77,3.32,12.05-6.83,11.75-13.53-.4-27.07-.1-40.61-.1Zm-80.14-22.85c10.57-2.89,10.72,3.14,11.43,11.41,.94,11-4,11.51-12.76,11.79-9.59,.3-11.39-2.94-11.62-11.93-.28-10.51,3.57-13.33,12.95-11.27Zm163.29,0c10.48-2.93,11.2,2.82,11.51,11.38,.35,9.33-2.24,11.73-11.68,11.9-10.21,.18-12.34-2.86-12.34-12.57,0-9.98,3.4-12.83,12.5-10.71Z"/>
</svg>