<?xml version="1.0" encoding="UTF-8"?>
<svg id="Layer_1" data-name="Layer 1" xmlns="http://www.w3.org/2000/svg" viewBox="0 0 800 800">
  <defs>
    <style>
      .cls-1 {
        fill: none;
      }

      .cls-2 {
        fill: #010101;
      }
    </style>
  </defs>
  <rect class="cls-1" width="800" height="800"/>
  <path class="cls-2" d="M754.82,702.18c-3.41-4.54-3.09-6.98,0-11.4,10.7-15.24,10.72-32.6,.05-47.69-3.08-4.36-3.54-6.75-.19-11.37,10.86-14.95,10.88-32.59,.29-47.64-3.03-4.3-3.66-6.83-.29-11.4,9.88-13.38,10.88-28.14,3.28-42.83-7.7-14.88-20.55-21.39-37.31-21.27-33.47,.24-66.94,.12-100.42,.01-14.26-.05-19.84-5.72-19.91-20.11-.11-24.34,.11-48.67-.12-73.01-.17-17.34-7.47-31.58-20.82-42.43-19.92-16.2-43.22-8.63-50.55,16.13-13.39,45.27-26.62,90.59-40.22,135.79-8.97,29.82-24.79,40.36-55.65,38.5-4.68-.28-6.15-1.34-6.83-6.31-2.09-15.5-9.35-21.63-25.2-21.81-21.68-.25-43.36-.25-65.04,0-17.73,.2-25.55,8.27-25.67,26-.12,18.25-.42,36.52,.16,54.75,.25,7.84-1.75,10.19-9.92,10.14-55.53-.38-111.07-.15-166.6-.22-29.34-.04-42.07-16.72-34.38-45.37,12.13-45.23,38.29-80.34,77.55-105.72,36.98-23.91,78.07-29.56,121.09-27.83,56.96,2.3,105.24,23.44,144.82,64.45,2.11,2.19,4.01,4.64,6.36,6.52,4.75,3.81,9.83,4.08,14.33-.32,4.35-4.25,5.15-9.21,1.06-14.18-2.89-3.52-5.95-6.92-9.15-10.16-29.06-29.48-63.81-49.36-104.86-60.86,4.81-3.62,8.72-6.48,12.54-9.45,49.73-38.64,59.42-107.5,22.32-158.41-36.12-49.56-106.08-61.1-157.3-25.87-6.6,4.54-14.85,9.45-8.62,18.93,6.25,9.51,13.35,4.06,20.32-.71,22.73-15.53,47.62-21.09,74.75-14.79,42.15,9.78,72.26,48.11,71.6,91.06-.68,44.13-30.66,80.66-74.09,90.31-40.9,9.09-84.67-13.01-102.66-51.96-11.61-25.13-11.72-50.48-1.19-76.04,2.73-6.62,4.41-13.97-4.25-17.36-8.02-3.14-12.43,1.71-15.54,8.98-9.06,21.2-11.32,43.05-7.36,65.63,5.6,31.93,22.99,56.33,50.98,76.64-3.78,.94-5.14,1.25-6.48,1.62-75.52,20.94-125.12,68.43-147,144-11.89,41.07,11.72,72.45,54.28,72.51,54.77,.07,109.55,.25,164.32-.2,9.76-.08,13.65,1.51,13.21,12.55-.98,24.68-.42,49.42-.27,74.14,.1,17.27,8.8,26.04,25.78,26.14,21.68,.13,43.36-.15,65.04,.1,12.23,.14,20.29-5.23,24.17-16.67,1.29-3.81,2.26-6.31,7.4-6.38,33.21-.47,65.93,.7,97.06,14.89,15.84,7.22,32.89,11.43,50.53,12.56,47.5,3.04,95.05,1.3,142.57,1.65,16.08,.12,28.62-7.79,35.65-22.34,6.93-14.35,6.14-28.93-3.61-41.91Zm-350.56,28.55c.03,6.61-2.14,8.38-8.52,8.24-18.24-.39-36.52-.57-54.75,.06-8.05,.28-9.51-2.89-9.44-9.91,.28-27.37,.11-54.74,.11-82.11,0-26.99,.21-53.98-.14-80.97-.09-7.15,1.45-10.01,9.38-9.73,18.23,.63,36.5,.4,54.75,.09,5.94-.1,8.68,.81,8.64,7.83-.29,55.5-.26,111-.03,166.5Zm285.3-141.68c10.65-.05,21.3-.24,31.94,.08,11.45,.35,19.49,7.75,20,17.75,.52,10.12-7.8,19.39-19.2,20.07-10.99,.65-22.05,.29-33.07,.16-7.17-.08-11.94,2.39-11.91,10.28,.03,7.75,4.75,10.61,11.86,10.62,10.27,.02,20.54-.18,30.8,.06,12.85,.3,21.45,7.93,21.54,18.66,.09,10.94-8.02,18.42-21.13,18.87-10.26,.35-20.53-.04-30.8,.17-7.34,.15-12.74,2.94-12.25,11.49,.44,7.67,5.34,10.21,12.35,10.17,10.27-.06,20.54-.13,30.8,.03,12.32,.19,20.55,7.27,21.03,17.78,.49,10.77-7.88,19.51-20.51,19.76-22.8,.47-45.62,.13-63.74,.13-31.99-1.89-59.43,1.38-86.63-3.41-13.15-2.31-25.7-6.31-37.91-11.56-30.01-12.91-61.66-15.54-93.72-13.9-10.86,.56-13.01-3.1-12.85-13.17,.59-35.72,.47-71.47,.05-107.19-.1-8.07,1.3-11.07,10.37-11.04,40.74,.13,62.32-16.62,73.6-55.58,12.71-43.89,25.48-87.76,38.31-131.61,3.91-13.37,11.38-15.05,20.92-4.65,6.99,7.62,9.73,16.9,9.69,27.17-.09,23.57-.14,47.14,0,70.71,.15,23.95,14.32,38.34,38.1,38.5,33.84,.22,67.69,.12,101.53,.17,9.42,.01,17.01,3.06,21.26,12.24,3.33,7.19,1.2,13.27-3.26,18.94-4.1,5.21-9.92,6.71-16.22,6.75-10.27,.06-20.53,.02-30.8,.04-7.51,.02-12.69,2.83-12.36,11.25,.3,7.7,5.2,10.28,12.23,10.25ZM363.9,82.38c-24.2-3.25-40.08-14.24-50.38-36.66-6.35-13.82-24.59-13.78-30.9,.03-10.26,22.48-26.03,33.64-50.42,36.65-15.27,1.89-20.21,18.18-9.3,29.42,16.24,16.73,28.1,33.84,18.78,54.7-.27,19.79,12.46,30.07,26.07,22.22,21.15-12.2,39.97-11.89,61.05,.12,13.32,7.59,27.5-2.73,25.14-17.88-3.68-23.65,.58-42.72,19.34-59.4,11.43-10.16,5.89-27.14-9.38-29.19Zm-14.58,25.02c-6.65,8.46-17.49,14.29-18.6,26.32-.97,10.54,.33,21.14,2.36,34.7-23.27-15.1-45.47-18.35-68.9-1.03,6.51-26.97,1.69-48.52-22.05-65.19,28.24-1.8,46.56-14.33,53.84-39.94,4.91,.92,5.77,4.3,6.77,6.7,7.87,18.84,21.51,29.32,42.12,30.69,4.36,.29,10.19,.47,4.47,7.74Zm178.52-10.71c-15.77-2.48-24.53-9.88-31.62-23.27-9.64-18.2-24.5-18.33-34.12-.38-7.08,13.23-15.04,23.38-31.47,23.11-1.41-.02-2.82,1.08-4.27,1.49-16.17,4.53-20.7,16.51-9.62,28.68,11.38,12.5,22.45,24.28,14.34,40.03-.71,21.89,10,29.36,27.55,21.01,12.93-6.15,24.24-8.3,38.19-1.13,21.02,10.8,33.16,2.29,29.46-20.93-2.4-15.07,2.08-24.85,11.84-35.2,15.41-16.34,11.59-29.97-10.29-33.42Zm-22.12,69.07q-26.84-8.31-52.63-.11c3.14-18.32,2.1-35.27-14.5-45.75,.52-4.63,3.62-4.11,5.34-4.25,15.05-1.22,25.29-8.68,31.14-22.59,1.49-3.54,4.45-7.89,7.21-1.09,6.8,16.77,20,23.64,41.07,24.52-18.24,13.61-23.63,29.15-17.64,49.28ZM155.9,96.43c-15.17-2.46-23.88-9.44-30.8-22.58-10.01-18.99-24.15-18.9-34.42-.08-6.99,12.81-15.55,20.29-30.87,22.77-22.24,3.6-26.53,17.99-10.49,33.98,10.98,10.95,14.01,22.56,10.82,36.84-.33,1.48-.53,2.99-.7,4-.71,15.63,11.89,24.17,26.31,16.89,14.37-7.26,27.09-9.29,42.32-1.22,17.99,9.53,29.74,.55,27.2-19.79-1.78-14.3,.05-25.8,11.17-36.73,16.09-15.81,11.61-30.49-10.53-34.08Zm-19.99,71.99c-19.56-12.33-36.27-14.15-53.98-1.71,5.09-19.75,1.61-36.08-15.7-49.06,20.75-2.11,34.91-10.99,41.04-34.6,8.14,22.29,20.64,33.3,44.54,32.99-17.72,14.59-24.3,30.08-15.91,52.38Z"/>
</svg>