<?xml version="1.0" encoding="UTF-8"?>
<svg id="Layer_1" data-name="Layer 1" xmlns="http://www.w3.org/2000/svg" viewBox="0 0 800 800">
  <defs>
    <style>
      .cls-1 {
        fill: none;
      }

      .cls-2 {
        fill: #010101;
      }
    </style>
  </defs>
  <rect class="cls-1" width="800" height="800"/>
  <path class="cls-2" d="M589.01,531.15c-.67-25.19-24.65-46.76-49.79-47.49-28.81-.83-57.65-.78-86.47-.42-8.6,.11-10.25-2.29-7.72-10.1,5.48-16.92,10.42-34.02,15.63-51.03,11.56-37.73-4.46-75.54-39.04-92.06-28.72-13.72-55-1.63-62.29,29.36-12.29,52.26-37.52,96.9-76.97,133.34-2.58,2.38-5.18,9.3-9.87,4.41-14.44-15.04-32.66-13.77-50.94-13.6-29.91,.28-48.41,18.32-48.56,48.1-.15,30.12-.03,60.24-.03,90.36,0,30.12,0,60.24,0,90.36,0,5.94,.25,11.78,2.35,17.53,12.58,34.58,69.81,45.01,96.6,16.88,6.03-6.33,10.27-6.4,17.13-3.06,17.19,8.38,35.41,13.76,54.46,15.46,45.69,4.07,91.49,1.78,137.24,1.36,14.84-.14,29.07-5.25,42.04-12.78,36.1-20.94,52.82-55.23,62.04-93.67,9.72-40.51,5.25-81.95,4.17-122.95Zm-334.57,176.67c-.03,20.21-3.23,23.3-23.87,23.38-3.39,.01-6.79,.11-10.18-.03-12.97-.55-17.7-4.91-17.74-17.94-.17-61.12-.17-122.24,0-183.36,.03-12.05,5.92-17.46,18.08-18.07,2.54-.13,5.09-.02,7.63-.02,22.4,0,26.06,3.54,26.07,25.41,.02,28.44,0,56.88,0,85.32s.03,56.88,0,85.32Zm284.94-17.78c-15.26,27.82-38.86,42.4-70.13,42.47-40.24,.09-80.53,2.12-120.75-1.63-21.02-1.96-40.11-9.32-58.91-18.23-6.07-2.88-5.58-7.58-5.58-12.67,.04-26.73,.02-53.47,.02-80.2,0-25.88,.3-51.77-.18-77.65-.14-7.87,2.06-13.44,7.83-18.82,33.14-30.93,61.57-65.4,78.97-107.93,6.43-15.73,11.64-31.8,15.54-48.35,3.13-13.26,8.78-15.78,21.14-9.98,21.29,9.98,30.8,33.39,23.42,58.26-7.36,24.78-14.92,49.5-22.44,74.23-4.93,16.22,.94,24.36,18.15,24.43,33.93,.13,67.85-.03,101.78,.07,19.35,.06,29.83,10.2,30.34,29.5,.6,22.9,.89,45.82,1.22,68.73,.4,27.81-7.12,53.49-20.44,77.78Zm-5.81-560.1c-3.9-11.64-12.68-18.75-25.14-20.65-6.25-.95-12.49-2.1-18.77-2.79q-35.24-3.9-50.75-35.92c-2.4-4.96-4.82-9.9-7.13-14.9-6.18-13.37-16-22.12-31.19-22.26-15.19-.14-25.18,8.4-31.56,21.69-6.24,12.98-12.64,25.89-18.78,38.92-2.39,5.07-5.63,7.42-11.62,7.9-13.47,1.09-26.88,3.08-40.24,5.16-14,2.17-26.46,7.41-31.45,22.11-5.22,15.36-.38,28.07,11.48,38.86,9.4,8.55,17.74,18.28,27.26,26.68,5.86,5.17,7.24,10.18,5.63,17.73-3.35,15.74-5.61,31.72-7.74,44.19-.91,27.98,22.51,44.01,45.29,34.15,10.84-4.69,21.8-9.59,31.61-16.07,13.4-8.86,25.29-10.28,38.85-.19,8.38,6.24,18.41,10.33,27.92,14.95,11.76,5.71,23.63,6.29,34.88-1.41,11.29-7.72,15.56-18.69,13.66-32.04-2.15-15.11-4.29-30.24-7.03-45.25-1.11-6.09,.12-10.29,4.65-14.56,11.1-10.47,21.72-21.44,32.56-32.2,9.82-9.74,11.79-21.64,7.62-34.08Zm-33.53,20.13c-10.23,10.13-20.12,20.68-31.05,30.01-9.69,8.27-11.6,17.52-9.01,29.42,3.34,15.29,5.48,30.85,8.1,46.29,.41,2.42,1.89,5.17-.3,7.22-2.99,2.79-5.56-.26-7.91-1.48-15.37-7.96-30.73-15.98-45.89-24.34-7.77-4.29-14.92-4.34-22.73-.04-15.16,8.34-30.56,16.27-45.94,24.19-2.43,1.25-5.15,4.23-8.01,1.85-2.59-2.15-1.16-5.57-.67-8.43,2.91-16.69,5.54-33.43,8.98-50.01,1.95-9.42-.8-16.14-7.62-22.61-14.65-13.91-28.75-28.41-45.04-44.63,22.59-3.5,41.68-6.93,60.91-9.23,8.79-1.05,13.38-5.36,17.05-12.81,7.66-15.56,16.19-30.7,23.91-46.23,3.87-7.78,6.81-7.71,10.65-.21,7.53,14.69,15.97,28.96,22.58,44.04,4.96,11.33,12.98,15.5,24.4,16.7,14.25,1.49,28.47,3.57,42.58,6.09,4.19,.75,10.67-1.01,12.14,4.52,1.17,4.42-4.23,6.8-7.15,9.68Zm-231.89,83.78c-4.25-12.33-13.6-17.92-25.54-19.99-11.65-2.02-23.36-4.07-35.13-4.96-6.13-.46-9.04-3.12-11.4-8.1-5.09-10.72-10.13-21.49-15.78-31.91-5.9-10.88-15.02-16.69-27.92-16.43-12.32,.25-20.92,5.94-26.51,16.51-4.75,8.99-9.53,18-13.58,27.32-3.46,7.98-7.66,12.93-17.51,13.12-10.47,.2-20.91,2.74-31.34,4.4-20.62,3.28-32.26,21.69-25.31,40.08,2.8,7.41,8.36,13.06,14.43,17.48,20.61,14.99,29.69,33.23,19.27,58.36-1.42,3.42-1.23,7.51-1.72,11.3-1.54,11.97,2.11,21.83,12.23,28.75,10.02,6.84,20.71,6.63,31.32,1.72,7.67-3.55,15.5-7.12,22.39-11.93,11.87-8.3,22.21-7.59,34.52,.12,11.17,7,22.42,15.63,36.99,15.02,18.58-.24,33.64-16.04,27.71-33.96-10.76-32.53-3.52-56.47,24.51-75.93,9.91-6.88,12.64-18.58,8.37-30.97Zm-60.27,41.16c-8.97,7.63-10.99,16.25-8.89,27.15,2.63,13.64,4.62,27.41,7.27,43.48-14.9-7.69-28.11-14.04-40.83-21.23-8.68-4.91-16.4-4.71-25.04,.05-12.52,6.89-25.5,12.95-39.85,20.14,.44-15.93,4.85-29.61,7.78-43.44,1.97-9.3,.45-16.41-6.8-22.77-11.94-10.48-23.47-21.42-35.17-32.16,.86-1.14,1.71-2.27,2.57-3.41,14.47-2.03,28.91-4.27,43.41-6.03,9.15-1.11,15.45-4.97,19.5-13.75,6.31-13.67,13.67-26.85,21.56-42.1,7.25,14.56,13.93,26.79,19.49,39.51,4.56,10.44,11.47,15.6,22.99,16.68,13.78,1.29,27.41,4.27,43.73,6.95-11.55,11.38-21.06,21.83-31.73,30.92Zm533.92-59.73c-8.04-2.33-16.59-3.24-24.98-3.92-15.05-1.21-27.67-4.67-32.03-22.01-1.81-7.21-6.52-13.73-10.13-20.44-5.67-10.52-14.23-16.2-26.54-16.44-12.89-.25-21.91,5.63-27.89,16.45-4.7,8.52-9.3,17.18-12.91,26.2-3.64,9.09-8.42,14.5-19.26,14.6-10.04,.09-20.1,2.41-30.08,4.15-11.94,2.09-21.27,7.64-25.56,19.93-4.32,12.39-.43,22.38,8.1,31.26,3.82,3.97,7.44,8.27,11.81,11.55,15.53,11.63,23.96,25.22,15.57,45.24-2.24,5.34-2.26,11.61-3.3,17.45-2.13,11.9,1.29,21.98,10.72,29.46,9.94,7.88,21.15,7.95,32.27,2.97,8.47-3.79,17.03-7.75,24.65-12.96,10.78-7.37,19.91-6.69,31.09,0,11.71,7.02,23.15,16.04,38.04,15.99,18.44-.04,30.89-13.55,28.87-32.33-1.31-12.2-3.25-24.42-6.1-36.34-1.88-7.84,.67-12.58,6.16-17.56,8.78-7.97,17.41-16.19,25.31-25.02,15.57-17.41,8.63-41.75-13.8-48.25Zm-41.23,61.56c-6.81,6.53-8.69,13.37-7.33,22.76,2.11,14.5,6.56,28.76,6.12,45.35-13.42-6.93-25.92-12.84-37.87-19.72-9.33-5.37-17.56-5.94-27.23-.33-12.31,7.14-25.48,12.81-40.34,20.13,3.04-15.5,5.18-29.13,8.49-42.46,2.65-10.7,.34-18.8-8.07-25.97-11.46-9.77-22.37-20.17-33.52-30.3,.85-1.14,1.7-2.28,2.55-3.43,14.44-2.04,28.85-4.34,43.33-6.03,9.19-1.08,15.6-5.01,19.65-13.62,6.3-13.36,13.26-26.42,21.34-42.38,7.08,14.11,13.79,25.99,19.09,38.47,4.85,11.4,12.26,16.97,24.78,17.98,13.35,1.08,26.54,4.18,41.12,6.63-11.29,11.65-21.37,22.63-32.11,32.92Z"/>
</svg>