<?xml version="1.0" encoding="UTF-8"?>
<svg id="Layer_1" data-name="Layer 1" xmlns="http://www.w3.org/2000/svg" viewBox="0 0 800 800">
  <defs>
    <style>
      .cls-1 {
        fill: none;
      }

      .cls-2 {
        fill: #010101;
      }
    </style>
  </defs>
  <rect class="cls-1" width="800" height="800"/>
  <path class="cls-2" d="M688.84,501.24c-7.73-2.71-9.15-6.71-9.12-14.11,.3-57.98,.35-115.97-.05-173.95-.05-7.79,2.16-11.31,9.47-13.91,23.01-8.21,38.27-28.67,38.55-51.87,.3-24.78-10.66-43.66-33.07-54.55-22.5-10.93-43.94-7.55-63.06,8.37-4.58,3.82-7.26,5.51-13.44,1.88-51.71-30.38-103.73-60.26-155.77-90.08-5.06-2.9-6.37-5.29-4.98-11.55,5.17-23.34-4.92-47.48-24.55-59.95-21.02-13.35-42.58-13.6-63.78-.35-20.01,12.51-30.59,36.18-25.4,59.5,1.68,7.53-.63,10.01-6.11,13.16-51,29.34-101.95,58.78-152.79,88.4-5.88,3.43-9.55,3.84-15.49-1.17-19.34-16.31-41.52-19.32-64.1-7.66-21.56,11.13-32.91,30.01-31.54,54.3,1.42,25.06,14.54,43.16,38.67,51.68,7.58,2.68,9.19,6.62,9.15,14.11-.33,57.98-.36,115.97,.03,173.95,.05,7.77-2.09,11.31-9.45,13.9-23.72,8.37-36.68,26.26-38.37,50.74-1.71,24.73,9.7,44,31.77,55.29,22.15,11.33,44.08,8.63,63.13-7.28,6.25-5.22,10.06-5.28,16.49-1.51,46.16,27.05,92.44,53.88,138.83,80.54,12.38,7.12,27.85,11.84,18.41,29.48,1.01,25.35,10.93,43.33,31.99,53.96,21.43,10.81,42.48,8.81,61.56-5.56,18.87-14.21,25.74-34.14,21.6-56.9-1.36-7.5,.69-10.01,6.16-13.14,51.36-29.47,102.71-58.96,153.83-88.85,6.07-3.55,9.21-2.84,14.44,1.52,19.08,15.88,40.67,19.12,63.07,8.08,22.33-11.01,33.88-30.04,32.57-54.77-1.33-25.06-14.52-43.23-38.66-51.68Zm-19.2-292.28c20.44,.05,36.41,15.97,36.3,36.2-.1,20.19-16.33,36.19-36.63,36.11-20.38-.08-36.14-15.98-36.1-36.41,.04-20.38,15.83-35.95,36.42-35.9ZM400.47,52.99c19.39-.08,36.63,17.15,36.72,36.7,.09,19.96-16.39,36.38-36.54,36.41-20.22,.03-36.7-16.23-36.71-36.22-.01-19.58,17.05-36.81,36.53-36.89ZM95.18,244.81c.15-20.26,16.16-35.92,36.66-35.86,20.52,.07,36.14,15.77,36.08,36.26-.06,20.34-16.04,36.13-36.46,36.03-20.25-.1-36.42-16.34-36.28-36.44Zm36.26,346.91c-20.4-.06-36.36-16.03-36.24-36.28,.12-20.09,16.52-36.26,36.68-36.13,20.31,.12,36.1,16.13,36.05,36.54-.05,20.33-15.92,35.93-36.48,35.87Zm268.69,156.03c-19.6-.38-36.38-17.65-36.19-37.25,.19-19.94,16.78-35.99,37.06-35.86,20.06,.13,36.47,16.79,36.19,36.73-.28,19.57-17.79,36.75-37.06,36.38Zm213.02-237.03c-7.56-5.13-15.94-9.03-23.8-13.73-6.46-3.86-11.09-1.3-14.51,4.06-3.45,5.43-1.79,10.72,3.3,13.97,9.65,6.17,19.57,11.96,29.67,17.36,4.81,2.57,6.73,5.11,5.07,10.75-1.38,4.69-2.95,10.46-1.43,14.66,5.48,15.14-2.68,20.92-14.44,27.51-48.67,27.25-96.84,55.38-145.03,83.48-5.1,2.97-8.52,3.81-12.68-.97-4.34-4.98-10.11-9.31-16.23-10.39-11.35-2-12.21-8.74-11.55-17.94,.6-8.4,.28-16.89,.05-25.33-.19-6.83-3.14-12.48-10.53-12.72-8.09-.26-11.31,5.56-11.48,12.91-.24,10.36-.43,20.75,.06,31.09,.28,5.92-1.3,9.3-7.4,10.48-5.72,1.1-11.76,3.48-15.09,7.73-8.5,10.85-15.92,6.52-25.14,1.1-48.42-28.46-97.01-56.65-145.9-84.3-7.42-4.2-9.53-8.37-7.43-15.99,.91-3.28,2.27-7.34,1.15-10.13-6.5-16.27,2.65-23.33,15.64-28.96,5.57-2.41,10.76-5.76,15.9-9.05,5.79-3.71,8.92-8.82,4.79-15.46-3.86-6.19-9.28-7.39-15.66-3.33-3.22,2.05-6.73,3.66-9.91,5.78-13.59,9.08-24.42,15.81-42.31,2.34-11.96-9.01-16.77-14.99-16.17-29.1,1.07-25.29,.3-50.67,.3-76.01,0-29.56,.14-59.13-.11-88.69-.05-6.31,.56-10.71,8.05-12.15,8.03-1.55,14.96-6.08,20.49-12.03,4.04-4.34,7.09-3.63,11.57-.8,9.03,5.71,18.52,10.69,27.74,16.12,6.78,3.99,12.72,3.22,16.46-3.76,3.62-6.75,.01-11.79-5.85-15.27-8.86-5.27-17.71-10.62-26.87-15.34-5.18-2.67-7.15-5.44-5.69-11.55,1.22-5.07,3.43-10.68,1.35-15.86-5.22-13,1.7-18.32,12.15-24.2,49.29-27.73,98.17-56.17,147-84.71,5.48-3.2,8.99-3.96,13.62,1,5.27,5.65,12.02,9.75,19.58,11.4,6.87,1.5,7.97,5.32,7.68,11.45-.46,9.96-.24,19.96-.07,29.94,.13,7.32,3.11,13.33,11.17,13.22,8.06-.11,10.8-6.26,10.89-13.53,.13-10.36,.38-20.75-.1-31.09-.26-5.56,1.54-8.49,6.9-9.71,7.24-1.65,13.94-5.01,18.84-10.37,5.46-5.97,9.6-5.75,16.46-1.73,50.4,29.6,101.02,58.85,151.85,87.71,6.92,3.93,9.13,7.81,7.01,15.23-1.13,3.96-2.28,8.79-1.03,12.4,4.54,13.11-.68,20.2-12.49,25.17-6.98,2.94-13.36,7.36-19.83,11.4-5.56,3.48-8.03,8.62-4.55,14.65,3.56,6.17,8.91,7.87,15.53,3.96,9.87-5.83,19.97-11.27,29.72-17.29,3.88-2.39,6.53-2.65,9.67,1,4.05,4.71,9.24,9.22,15.03,10.18,14.28,2.36,14.39,11.51,14.3,22.88-.42,56.05-.35,112.11,0,168.16,.05,7.18-1.32,11.39-8.75,12.81-6.14,1.17-12.19,4.02-15.96,8.58-7.22,8.74-13.42,6.2-21.06,1.01Zm55.82,81.01c-20.36-.16-35.89-16.07-35.74-36.61,.14-20.21,16.46-36.09,36.76-35.77,20.24,.32,36.28,16.74,35.97,36.82-.32,20.24-16.42,35.73-36.98,35.56Zm-267.12-37.11c28.36,0,56.72,.1,85.07-.07,7.58-.04,14.65,1.02,14.86,10.12,.22,9.77-6.96,11.01-15.11,10.98-57.48-.16-114.96-.16-172.44,0-7.66,.02-14.57-1.09-14.85-10.1-.31-9.91,7.06-11.05,15.1-11.01,29.12,.16,58.25,.06,87.37,.06Zm73.89-20.88c-5.36,0-10.74,.25-16.08-.06-6.44-.37-10.85-3.17-11.15-10.45-.27-6.64,3.25-10.22,9.27-10.93,11.41-1.34,22.93-1.32,34.33-.02,5.8,.66,10.11,4.25,9.79,10.68-.34,6.72-4.75,10.23-11.23,10.69-4.95,.36-9.95,.07-14.93,.08Zm-154.78-9.29c-.35,4.29-3.58,8.83-10.24,9.09-6.49,.25-10.89-3.62-11.46-10.15-.61-6.95,4.1-10.71,10.29-11.12,6.34-.42,10.9,2.93,11.41,12.18Zm37.87-1.59c-1.33,5.8-4.27,10.69-11.04,10.74-6.62,.04-10.84-4.17-11.08-10.63-.25-6.7,4.18-10.59,10.71-10.77,6.66-.18,10.2,4.06,11.41,10.66Zm15.81-.06c-.29-7.47,4.4-10.74,10.72-10.59,5.7,.14,10.31,3.52,10.43,10.06,.13,6.9-4.07,10.99-10.53,11.25-6.68,.28-10.49-3.82-10.62-10.73Zm196.65-104.91c-2.07-34.36-19.08-59.73-47.85-78.63,13.57-14.04,19.92-30.29,19.75-48.51-.28-30.97-22.88-57.62-53.73-64.73-27.64-6.37-59.14,7.72-72.25,34.67-5.71,11.74-14.33,6.17-21.84,8.07-7.54,1.9-8.53-3.94-11.06-8.36-14.59-25.47-36.79-37.59-65.83-34.9-26.65,2.47-45.61,17.3-55.53,41.98-10.72,26.66-4.1,50.72,14.5,72.02-3.42,2.42-6.65,4.49-9.64,6.87-23.42,18.62-36.67,42.56-37.97,72.75-.31,7.21,1,13.31,9.73,13.87,8.44,.55,11.35-4.49,11.69-12.17,.2-4.57,.86-9.18,1.88-13.65,4.05-17.79,13.66-31.79,27.7-43.62,11.52-9.7,23.08-5.82,35.94-5.7,16.07,.15,24.33,5.98,31.68,18.83,3.42,5.97,3.02,7.19-2.14,10.91-24.98,17.98-39.47,42.1-40.73,73.41-.29,7.16-.65,14.63,9.17,15.4,10.05,.79,11.59-5.93,12.15-14.14,1.88-27.26,15.14-47.52,38.71-61.21,4.91-2.85,9.53-3.83,15.21-1.76,13.02,4.75,26.38,4.71,39.43,.08,5.64-2,10.31-1.26,15.25,1.63,23.49,13.75,36.79,34,38.8,61.2,.6,8.18,2.04,14.95,12.11,14.2,9.84-.74,9.48-8.19,9.2-15.36-1.22-31.36-16.02-55.35-40.78-73.45-5.32-3.89-5.27-5.17-1.99-10.97,7.29-12.9,15.49-21.44,31.74-18.06,3.4,.71,7.78-.71,11.04-2.42,6.11-3.2,10.91-.92,16.04,2.02,23.85,13.67,36,34.65,38.22,61.6,.65,7.87,2.54,13.89,11.84,13.22,9.6-.69,10.05-7.75,9.61-15.08Zm-237.32-88.93c-.64,7.72-3.91,8.71-10.02,8.51-24.48-.81-43.81-20.76-43.84-45.39-.02-19.84,13.15-38.11,31.28-43.39,20.65-6.01,41.8,2.09,52.68,19.87,3.2,5.23,3.87,8.41-2.37,12.58-16.83,11.25-26.07,27.82-27.73,47.83Zm66.79,51.42c-25.16,.12-45.61-19.98-45.68-44.91-.07-24.65,20.57-45.37,45.31-45.47,24.74-.1,45.41,20.3,45.69,45.1,.28,24.73-20.17,45.16-45.32,45.28Zm76.72-43.02c-4.83,.17-9.63,.99-10.17-6.99-1.44-20.99-10.96-38.11-28.56-49.75-6.28-4.16-4.46-7.27-1.76-11.8,10.67-17.92,31.7-26.05,52.49-20.19,18.13,5.11,31.5,23.4,31.56,43.17,.08,24.71-18.94,44.68-43.56,45.56Z"/>
</svg>