<?xml version="1.0" encoding="UTF-8"?>
<svg id="Layer_1" data-name="Layer 1" xmlns="http://www.w3.org/2000/svg" viewBox="0 0 800 800">
  <defs>
    <style>
      .cls-1 {
        fill: #0d0d0d;
      }

      .cls-2 {
        fill: none;
      }
    </style>
  </defs>
  <rect class="cls-2" width="800" height="800"/>
  <path class="cls-1" d="M231.33,144.98c6.34,0,12.7-.35,19.01,.09,7.23,.51,12.04,4.64,12.16,12.07,.12,7.17-4.14,12.72-11.18,13.13-13.82,.81-27.73,.7-41.57,.07-7.53-.34-10.95-6.23-10.74-13.26,.19-6.6,3.89-11.41,10.95-11.85,7.1-.44,14.25-.1,21.37-.1,0-.06,0-.11,0-.17Zm226.74,25.58c7.17,0,14.43,.7,21.49-.2,7.06-.89,11.2-5.61,11.11-13.22-.08-7.23-4.11-11.55-10.88-11.83-13.52-.56-27.09-.61-40.61-.11-7.23,.27-11.65,4.56-11.59,12.45,.06,8.39,4.8,12.38,12.55,12.98,5.94,.45,11.95,.09,17.93,.09,0-.05,0-.1,0-.16ZM363.34,29.81c-.15-7.66-4.54-11.67-11.83-12.19-7.44-.54-12.2,3.08-13,10.7-1.49,14.18-1.73,28.37,.16,42.55,.97,7.29,5.82,10.25,12.43,9.98,7.18-.3,11.91-4.17,12.21-11.83,.24-6.33,.05-12.67,.06-19.01,0-6.73,.11-13.47-.02-20.2Zm82.41,27.4c-4.71-2.86-9.42-2.29-13.2,1.31-9.49,9.03-19.01,18.06-27.81,27.73-4.97,5.46-3.89,11.88,1.51,16.97,5.09,4.8,10.89,5.12,16,.3,9.23-8.71,18.11-17.81,27.08-26.8,2.41-2.42,2.89-5.57,2.69-9.04,.34-4.78-2.27-8.05-6.26-10.46Zm-159.31,31.22c-9.4-11.86-19.85-22.82-32.06-31.75-4.73-3.46-10.09-.78-13.8,3.46-3.67,4.19-5.43,9.19-1.67,14.06,8.78,11.35,18.86,21.63,30.18,30.33,7.42,5.7,18.62-1.03,18.84-11.13-.35-1.24-.37-3.55-1.5-4.98Zm382.77,513.41c-.56,26.71-7.32,52.75-24.33,74.73-4.52,5.84-7.32,12.67-8.38,19.53-8.07,52.2-49.56,86-106.77,86.83-41.86,.61-83.78,.97-125.6-.52-37.34-1.33-68.83-16.09-89.9-48.56-13.12-20.22-15.95-43.07-14.75-66.42,.69-13.47-3.05-23.77-12.03-34.35-22.93-27.04-43.04-56.22-61.06-86.9-23.28-39.63-52.07-75.35-81.82-110.26-17.71-20.78-13.76-42.94,10.19-55.95,39.29-21.35,91.08-9.76,124.18,27.8,2.04,2.31,3.92,4.76,7.79,9.47,0-83.6,.02-164.1-.03-244.6,0-8.81,.37-17.5,3.28-25.93,9.45-27.4,35.35-43.51,63.42-39.39,26.17,3.84,47.56,28.18,48,56.15,.54,34.67,.13,69.35,.13,105.37,14.25-6.38,27.8-11.24,43-7.95,25.19,5.46,42.86,24.29,45.86,49.96,.52,4.44-.84,10.75,7.57,6.17,34.66-18.89,79.62,6.74,81.92,46.13,.14,2.32,1.01,4.6,1.68,7.52,23.14-12.29,45.37-12.22,66.29,3.74,14.14,10.79,21.64,25.6,21.73,43.23,.3,61.41,.91,122.83-.38,184.22Zm-25.68-181.29c-.04-19.92-13.35-33.2-31.61-32.92-18.11,.27-30.81,13.89-31.12,33.71-.21,13.56,.06,27.12-.13,40.67-.09,6.61-1.49,12.91-8.79,15.44-9.41,3.27-16.99-3.29-17.05-15.21-.17-31.1,.07-62.21-.13-93.31-.12-18.05-12.8-31.28-30.2-32.18-17.33-.9-30.91,11.05-33.01,29.21-.46,3.95-.46,7.96-.47,11.94-.04,27.12-.11,54.23,.02,81.35,.04,9.33-1.96,17.53-13.06,17.44-10.51-.08-12.56-7.94-12.12-16.85,.14-2.78,.02-5.58,.02-8.37,0-42.27-.04-84.54,.03-126.81,.01-8.49-.95-16.77-5.31-24.15-7.09-12.01-22.57-17.56-36.56-13.52-13.18,3.81-22.3,16.29-22.35,31.88-.17,47.06-.06,94.11-.07,141.17,0,5.58,.12,11.17-.1,16.75-.3,7.38-4.1,12.1-11.6,12.7-7.56,.6-11.97-3.7-13.48-10.79-.74-3.46-.76-7.11-.77-10.67-.06-27.91-.02-55.83-.03-83.74-.03-73.37,.05-146.75-.19-220.12-.06-16.41-11.45-29.02-27.09-31.58-13.07-2.14-26.88,6.65-33.18,20.44-2.98,6.52-2.53,13.2-2.53,19.91-.06,88.53,.14,177.06-.2,265.59-.06,15.74,.4,30.77,9.41,44.55,4.16,6.37,3.61,13.48-3.73,17.53-7.66,4.23-13.98,1.18-17.92-6.17-4.51-8.4-8.35-17.16-12.82-25.59-9.51-17.9-18.46-36.2-33.75-50.23-23.37-21.43-58.8-28.94-82.95-17.53-13.04,6.16-13.44,8.91-4.44,19.81,32.48,39.36,63.41,79.75,89.63,123.76,19.16,32.17,41.72,62.08,67.02,89.93,10.13,11.15,18.94,23.54,29.5,34.44,5.48,5.66,5.43,12.24-.3,18.07-6.08,6.19-12.12,4.53-17.87-.65-2.57-2.31-5.02-4.74-8.97-8.5,0,34.52,17.03,59.42,46.36,71.02,15.06,5.96,30.57,8.49,46.69,8.43,35.5-.13,71-.13,106.49,0,11.27,.04,22.31-1.15,33.03-4.58,23.61-7.57,40.65-21.98,48.86-46.67-2.14-.13-3.34-.47-4.41-.22-9.44,2.18-18.54,1.23-21.11-9.3-2.6-10.66,5.72-14.21,14.65-16.3,15.3-3.58,26.18-12.96,33.44-26.7,8.09-15.3,13.6-31.6,13.76-48.86,.57-61.41,.62-122.82,.5-184.23Z"/>
</svg>