<?xml version="1.0" encoding="UTF-8"?>
<svg id="Layer_1" data-name="Layer 1" xmlns="http://www.w3.org/2000/svg" viewBox="0 0 800 800">
  <defs>
    <style>
      .cls-1 {
        fill: none;
      }

      .cls-2 {
        fill: #010101;
      }
    </style>
  </defs>
  <rect class="cls-1" width="800" height="800"/>
  <path class="cls-2" d="M748.77,636.27c-21.41-33.3-51.95-52.99-89.95-62.04-4.03-1.45-3.57-2.97-.08-4.55,2.07-.87,4.11-1.81,6.2-2.6,38.06-14.43,61.28-54.6,54.56-94.41-6.85-40.54-41.87-71.07-82.89-72.26-40.42-1.17-76.42,27.42-86.1,66.85-9.07,36.93,9.65,87.67,62.23,102.76,1.07,1.18,4.89,.85,2.23,4.07-25.39,3.61-48.59,12.88-67.75,29.88-8.47,7.51-11.85,5.04-18.18-2.05-27.19-30.46-60.49-50.23-101.68-55.17-5.34-1.41-10.99-1.5-16.11-3.23,1,.08,2.06,.02,3.05,.24,1.55,.33,2.87-.43,4.08-1.34,2.95-.64,5.93-1.19,8.85-1.94,45.68-11.67,75.03-40.84,85.23-86.22,10.22-45.47-3.67-85.04-40.43-114.37-36.28-28.94-77.05-33.48-119.28-14.52-46.53,20.9-71.73,68.37-65.39,119.92,6,48.83,43.54,86.85,95.87,97.13,3.4,2.41,6.69,1.36,8.71,.51-4.62,2.44-11.39,2.06-17.62,3.86-41.18,4.95-74.51,24.7-101.73,55.14-6.32,7.07-9.71,9.59-18.19,2.06-19.16-17.01-42.37-26.28-67.77-29.89-2.66-3.22,1.16-2.89,2.23-4.07,49.83-13.93,72.99-63.37,61.46-106.11-11.99-44.42-59.28-72.4-104.6-60.95-45.43,11.47-73.96,60.12-61.84,104.92,8.5,31.41,29.29,50.77,58.98,61.81,3.48,1.58,3.96,3.1-.08,4.55-18.16,4.78-35.72,10.92-51.26,21.88-42.85,30.21-60.33,72.07-57.93,123.67,1.01,21.73,2.98,24.62,24.41,24.62,228.53,0,457.06,0,685.59,0,3.06,0,6.12,.07,9.17-.06,8.46-.35,14.11-4.66,14.61-13.13,1.97-33.19,.23-65.65-18.6-94.94ZM109.95,486.38c.23-31.09,26.03-56.71,57.14-56.74,31.52-.03,56.62,24.94,56.87,56.56,.24,31.92-25.68,57.96-57.26,57.53-31.12-.43-56.97-26.55-56.74-57.35Zm134.94,157.7c-9.57,19.83-14.95,40.8-15.39,62.81-.16,7.88-3.6,9.23-10.56,9.13-24.41-.36-48.82-.14-73.23-.14-24.41,0-48.82-.21-73.23,.13-7.1,.1-9.91-1.42-10-9.4-.46-42.42,24.35-80.6,63.93-97.14,38.51-16.09,87.82-6.76,115.9,21.57,4.16,4.2,5.11,7.79,2.58,13.04Zm70.1-214.56c-.08-47.29,38.73-86.35,85.79-86.36,47.06,0,85.89,39.05,85.82,86.33-.06,47.47-38.67,85.65-86.37,85.43-47.06-.22-85.17-38.4-85.25-85.4Zm218.34,286.56c-44.32-.44-88.65-.2-132.98-.2-43.56,0-87.13-.43-130.69,.3-11.04,.18-12.45-3.63-11.71-13.15,6.06-78.35,80.93-138.58,158.75-129.49,57.05,6.66,115.3,50.57,126.11,123.56,.39,2.64,.31,5.36,.82,7.97,1.68,8.56-1.51,11.1-10.3,11.02Zm44.32-229.28c-.1-31.64,24.8-56.94,56.24-57.15,31.69-.21,57.98,25.87,57.73,57.27-.25,31.02-26.27,56.83-57.26,56.81-31.3-.02-56.61-25.43-56.71-56.93Zm151.84,229.24c-24.79-.41-49.58-.15-74.37-.15-24.41,0-48.82-.21-73.23,.14-6.69,.1-9.58-1.63-9.74-8.76-.49-22.01-5.7-43.02-15.31-62.83-2.82-5.81-1.49-9.53,3.02-13.91,29.09-28.29,77.81-37.14,116.01-20.69,39.34,16.94,63.49,54.17,63.22,96.4-.05,7.48-1.99,9.93-9.6,9.8ZM475.11,189.12c11.82-10.23,22.58-21.68,33.84-32.56,4.77-4.61,7.1-9.95,5.06-16.53-2.08-6.71-7.33-9.31-13.83-10.24-15.85-2.26-31.64-5.05-47.56-6.71-8.08-.84-13.12-3.55-16.53-11.35-6.42-14.67-14.09-28.79-20.97-43.27-3.17-6.67-7.29-12.01-15.24-11.8-7.35,.19-11.36,5.3-14.35,11.51-7.1,14.79-14.66,29.38-21.41,44.33-3.05,6.76-7.45,9.61-14.7,10.44-16.28,1.86-32.46,4.58-48.7,6.79-6.53,.89-11.66,3.43-14.09,9.98-2.69,7.25,.66,12.5,5.59,17.3,11.77,11.46,23.22,23.26,35.39,34.28,5.58,5.05,6.81,10.16,5.46,17.17-3.02,15.74-5.3,31.63-8.24,47.39-1.28,6.84-1.14,13.01,4.74,17.65,6.42,5.06,12.81,3.08,19.23-.34,14.47-7.71,29.18-15.01,43.45-23.07,5.62-3.17,9.96-3.48,15.71-.21,14.26,8.08,28.94,15.42,43.48,23.01,3.36,1.76,6.65,3.85,10.7,3.58,9.24,.06,15.14-6.33,13.8-16.87-2.07-16.27-4.74-32.5-8.04-48.57-1.88-9.16-.11-15.6,7.19-21.92Zm-30.98-9.92c-6.87,5.89-8.92,12.75-7.26,21.41,2.07,10.79,3.72,21.67,5.98,35.04-12.14-6.3-22.51-11.29-32.48-17-7.08-4.06-13.4-3.9-20.4,.06-9.9,5.61-20.12,10.64-32.34,17.03,2.11-12.37,3.31-22.58,5.71-32.5,2.4-9.95,.43-17.63-7.29-24.63-7.82-7.1-14.73-15.22-23.11-24.02,9.06-1.47,17.42-3.67,25.85-4,14.09-.56,23.68-5.95,28.63-19.8,3.02-8.46,7.81-16.29,12.82-26.44,5.28,10.69,10.31,19.09,13.67,28.12,4.69,12.61,13.79,17.08,26.31,17.97,8.99,.64,17.89,2.53,30.1,4.35-10.11,9.47-17.87,17.26-26.2,24.4Zm-215.7,58.32c-10.55-1.53-21.07-3.36-31.66-4.54-6.3-.7-10.38-3.07-12.95-9.25-3.66-8.78-8.5-17.05-12.5-25.7-3.07-6.63-7.24-12.36-14.87-12.54-7.67-.19-12.3,5.14-15.14,11.98-.73,1.75-2.04,3.3-2.58,5.09-6.59,21.94-19.39,35.36-44.2,32.97-2.52-.24-5.16,1.49-7.78,1.62-7.61,.36-13.35,3.35-15.79,10.85-2.37,7.3,1.12,13.24,6.68,16.89,24.81,16.31,30.99,37.98,20.58,65.33-2.36,6.19-.44,12.21,4.8,16.52,5.34,4.4,11.28,3.96,17.16,.98,11.88-6.02,23.77-16.96,35.56-16.84,12.29,.13,24.45,10.93,36.7,17.01,5.5,2.73,11.09,3.1,16.2-.75,5.44-4.09,6.87-9.69,5.57-16.3-1.84-9.35-3.03-18.84-5.19-28.11-1.71-7.36-.95-12.97,5.39-18.17,7.64-6.27,14.32-13.71,21.43-20.62,3.38-3.28,5.91-6.97,6.13-13.16-1.06-6.8-5.1-12.06-13.52-13.28Zm-48,71.1c-16.61-12.59-32.06-13.08-47.59,.87-2.23-10.71,4.54-19.03,1.07-27.6-3.22-7.93-11.88-11.59-17.07-21.26,20.96,1.67,33.17-7.03,38.86-26.69,6.82,18.52,18.4,29.3,39.71,28.15-16.43,12.2-22.41,26.76-14.97,46.53Zm547.39-62.08c-2.17-6.05-7.09-8.49-13.28-9.18-6.05-.67-12.05-2.59-18.07-2.57-16.06,.06-26.47-6.57-31.01-22.47-1.65-5.77-5.27-10.98-7.9-16.48-2.85-5.96-7.44-10.28-13.97-10.35-6.5-.06-11.33,3.96-14.15,10.02-1.29,2.77-3.13,5.35-3.99,8.23-6.35,21.26-18.86,33.88-42.7,31.71-3.27-.3-6.68,1.55-10.07,1.86-6.68,.62-11.72,3.31-13.97,9.92-2.43,7.12,.53,12.55,5.58,17.38,7.72,7.39,15.2,15.04,23.04,22.31,3.44,3.19,4.6,6.32,3.66,11.07-2.28,11.6-3.9,23.33-5.66,34.16-.76,14.5,9.17,21.55,21.65,15.71,12.06-5.65,23.48-16.15,35.71-17.02,12.83-.91,24.23,11.32,36.69,16.9,13.2,5.91,23.26-1,21.84-15.44-1.04-10.62-2.61-21.26-5.07-31.63-1.66-7.01,.33-11.38,5.42-15.86,7.44-6.55,14.22-13.85,21.43-20.67,5.25-4.96,7.26-10.77,4.82-17.59Zm-60.55,61.94c-16.76-13.4-31.84-11.53-49.36,2.37,6.23-21.02,4.68-36.79-13.95-48.29,20.64-.17,33.64-8.89,39.45-28.67,6.25,19.3,18.1,29.01,38.96,27.97-15.62,12.46-22.05,26.99-15.1,46.63Zm-161.56,364.2c-.29,6.44-3.31,11.04-9.22,13.29-6.41,2.43-12.85,1.2-16.21-4.64-8.88-15.44-20.16-28.42-34.25-39.32-5.7-4.41-6.47-11.13-2.18-17.49,4.12-6.11,10.51-9.15,16.83-5.59,20.53,11.58,35.17,28.79,44.49,50.46,.44,1.01,.38,2.24,.55,3.29Zm-90.98-55.54c-.67,7.42-5.37,12.09-13.82,12.46-8.23,.36-14.55-6.18-14.04-14.46,.52-8.48,5.35-13.23,13.81-13.61,8.06-.37,14.3,6.31,14.06,15.61Z"/>
</svg>