<?xml version="1.0" encoding="UTF-8"?>
<svg id="Layer_1" data-name="Layer 1" xmlns="http://www.w3.org/2000/svg" viewBox="0 0 800 800">
  <defs>
    <style>
      .cls-1 {
        fill: none;
      }

      .cls-2 {
        fill: #1e1e1e;
      }
    </style>
  </defs>
  <rect class="cls-1" width="800" height="800"/>
  <path class="cls-2" d="M529.23,682.89c-1.2,5.98-3.85,10.56-10.89,10.59-6.82,.02-11.01-4-11.13-10.21-.12-6.18,3.8-10.4,10.66-10.68,7.11-.28,9.88,4.2,11.36,10.3Zm-244.91-10.66c-6.25,.25-10.19,3.76-10.46,9.84-.29,6.65,3.7,10.74,10.36,11.15,7.06,.43,10.07-4.16,11.08-10.49-.92-6.34-3.79-10.78-10.98-10.5Zm389.15-387.48c.17,6.58,4.51,10.08,10.17,10.17,6.29,.09,10.8-3.73,10.78-10.73-.01-6.97-4.46-10-10.61-11.11-6.51,1.35-10.53,4.69-10.35,11.67ZM119.99,506.35c-6.22-.19-10.66,3.98-10.98,10.54-.33,6.72,3.99,10.91,10.21,11.21,6.31,.3,10.52-3.46,10.61-10.43,.31-6.9-3.58-11.12-9.84-11.32ZM284.98,108.26c-6.64,.25-10.71,4.54-10.51,11.13,.19,6.06,4.06,9.63,10.45,9.74,6.97,.12,10.27-3.84,11.42-10.27-1.34-6.22-4.54-10.86-11.36-10.6Zm-154.63,175.82c-.04-6.42-3.51-11.01-10.22-11.06-6.49-.04-10.59,4.11-10.9,10.57-.33,6.78,4.26,9.91,10.51,11.14,6.25-.77,10.65-3.88,10.61-10.65Zm563.86,233.71c-.29-6.74-4.48-10.32-11.28-9.98-6.35,.32-9.78,4.26-9.72,10.38,.06,6.66,3.84,10.42,11,10.7,6.47-.65,10.29-4.42,9.99-11.11ZM518.77,108.37c-6.7-.03-10.64,4.3-10.62,10.92,.02,6.21,3.94,9.88,10.14,10.06,6.67,.2,10.57-3.38,11.46-10.24-.78-6.47-4.38-10.72-10.98-10.75Zm209.17,349.69c-31.77,11.84-67.13-4.56-78.51-37.44-2.57-7.41-5.65-9.18-12.71-8.95-14.86,.48-29.75,.45-44.61,0-6.81-.2-10.23,1.23-11.02,8.88-1.05,10.15-3.63,20.15-5.68,30.19-1.54,7.54-6.05,11.62-13.88,9.66-7.96-1.99-9.32-7.39-7.13-14.99,2.3-8.01,3.46-16.34,5.13-24.53,1.37-6.69-.54-9.78-8.15-9.23-9.1,.66-18.29,.16-27.45,.16-9.15,0-18.32,.27-27.45-.1-5.76-.23-8.11,1.42-8.06,7.61,.16,19.11-2.94,37.92-6.95,56.54-1.2,5.59-.81,8.68,4.97,11.68,9.07,4.71,17.72,10.47,25.8,16.75,5.32,4.13,8.29,3.46,11.75-1.66,2.98-4.41,6.38-8.55,9.7-12.72,4.2-5.28,9.55-6.45,15.08-2.69,5.28,3.58,5.13,9.1,2.75,14.31-1.4,3.06-3.38,6.19-5.91,8.35-9.67,8.24-6.63,14.7,1.83,21.5,5.32,4.27,10.32,9.17,14.55,14.52,11.31,14.29,21.79,20.62,42.27,12.17,28.54-11.78,62.58,10.31,71.86,41.57,9.44,31.82-8.59,65.31-40.51,75.21-31.07,9.64-65.47-7.68-75.68-38.18-5.31-15.88-5.06-31.76,3.04-46.44,4.03-7.3,2.5-11.19-3.01-16.3-11.17-10.36-21.94-21.18-32.38-32.28-4.41-4.69-7.28-4.53-12.13-.6-26.33,21.31-56.17,34.76-90.07,38.34-9.15,.96-13.92,3.86-12.96,14.62,1.21,13.61,.76,27.44,.11,41.13-.36,7.69,1.89,10.85,9.55,13.5,26.56,9.17,43.92,36.72,40.56,62.16-4.04,30.61-24.86,52.38-53.23,55.65-28.52,3.29-55.14-12.99-65.03-39.76-11.71-31.69,5.06-67.11,38.02-78.39,6.84-2.34,8.9-4.97,8.7-11.77-.45-15.23-.38-30.5-.02-45.74,.15-6.22-.85-9.62-8.16-10.44-36.06-4.02-68.37-17.35-96.32-40.67-4.04-3.37-6.47-2.02-9.56,1.13-12,12.24-23.85,24.68-36.44,36.3-5.59,5.16-1.86,8.48,.16,12.71,11.16,23.33,6.94,50.48-10.65,68.87-17.65,18.45-44.92,24-68.34,13.9-23.22-10.01-38.12-33.99-36.84-59.3,2.18-43.08,48.38-70.54,87.38-51.38,7.3,3.59,11.16,2.68,16.31-2.88,10.35-11.18,21.21-21.91,32.27-32.4,4.39-4.16,5.24-6.86,1.02-11.98-22.36-27.1-35.81-58.16-39.29-93.22-.76-7.65-3.75-10.15-11.46-9.8-14.08,.63-28.24,.67-42.31,0-8.36-.4-12.36,1.61-15.35,10.33-8.3,24.21-30.51,40.03-55.81,39.86-25.26-.17-44.68-11.64-56.03-34.67-15.05-30.55-1.36-67.58,29.76-81.75,31.28-14.25,68.18-.38,80.68,31.73,4.22,10.84,9.43,14.17,20.51,13.27,13.26-1.07,26.68-.56,40.02-.12,6.12,.2,9-1.6,9.62-7.86,3.61-36.24,17.27-68.37,40.47-96.39,3.11-3.75,3.07-6.11-.4-9.48-12.57-12.22-25.2-24.41-37.16-37.21-5.4-5.78-8.78-1-12.75,.84-28.22,13.15-61.93,3.41-78.23-22.73-16.53-26.51-10.61-60.41,14.01-80.1,1.78-1.43,3.57-2.9,5.55-4.02,6.19-3.48,12.42-4.88,16.89,2.39,4,6.51,1.27,11.64-4.55,15.5-11.09,7.36-18.13,17.11-19.01,30.83-1.24,19.25,9.72,35.39,27.95,40.79,17.91,5.3,36.91-2.74,45.63-19.31,8.7-16.54,4.88-36.67-9.66-48.57-6.76-5.53-16.2-9.85-8.64-20.7,4.54-6.53,13.12-4.44,23.74,4.98,21.26,18.85,27.11,47.92,13.89,73.74-3.11,6.06-2.28,9.07,2.25,13.36,11.61,11.01,22.84,22.43,34.01,33.89,3.61,3.7,6.1,5.53,11.16,1.33,27.35-22.7,58.77-36.23,94.24-39.87,6.77-.7,9.86-3.01,9.5-10.64-.69-14.83-.67-29.74-.01-44.58,.35-7.88-2.34-10.88-9.82-13.52-26.62-9.41-42.62-34.57-40.21-61.12,2.65-29.21,21.67-50.41,50.14-55.87,29.68-5.69,59.78,12.49,68.79,41.56,9.26,29.88-4.8,62.49-33.9,73.49-11.71,4.43-14.39,10.23-13.65,21.32,.86,12.9,.59,25.92,.04,38.86-.28,6.62,1.51,9.65,8.39,10.32,36.28,3.56,68.32,17.46,96.29,40.7,3.41,2.84,5.6,2.62,8.54-.36,12.57-12.76,25.09-25.57,38.01-37.98,5.15-4.95,.74-8.3-1.01-11.98-18.88-39.79,8.75-86.18,52.39-87.79,24.94-.92,48.36,13.75,58.38,36.55,10.24,23.33,4.85,50.5-13.56,68.39-17.91,17.4-45,22.45-67.64,11.16-8.01-3.99-12.33-3.1-18.07,3.3-9.9,11.05-20.65,21.37-31.44,31.59-4.45,4.22-5.1,7.2-.99,12.23,21.7,26.55,35.23,56.76,38.65,91.03,.94,9.4,4.53,12.76,14.32,12.04,13.65-1.01,27.45-.63,41.16-.1,7.43,.29,10.93-1.39,13.62-9.34,9.5-28.05,36.09-43.79,65.39-40.23,27.32,3.32,49.18,25.1,52.53,52.32,3.52,28.61-12.49,54.91-39.57,65Zm-149.7-272.58c.17,21.53,17.67,38.77,39.4,38.8,21.75,.03,39.14-17.13,39.34-38.82,.19-21.54-17.12-39.12-38.78-39.36-22.22-.25-40.13,17.41-39.96,39.38ZM136.09,400.75c-.11-21.41-17.88-39.16-39.26-39.19-21.89-.03-40.13,18.33-39.71,39.98,.41,21.37,18.38,38.71,39.95,38.55,21.55-.15,39.13-17.89,39.02-39.35Zm89.07,215.72c-.09-21.7-17.44-39.19-38.95-39.26-21.99-.07-39.56,17.86-39.26,40.08,.29,21.62,18,38.94,39.5,38.62,21.77-.32,38.8-17.67,38.71-39.44Zm353.07-.01c-.14,21.39,17.32,39.07,38.98,39.48,21.38,.4,39.22-16.95,39.77-38.66,.54-21.74-17.7-40.24-39.51-40.06-21.42,.17-39.1,17.85-39.24,39.25ZM402.38,135.25c21.44-.24,38.83-18.07,38.69-39.67-.13-21.51-17.9-39.3-39.23-39.26-21.76,.04-39.61,18.35-39.33,40.35,.27,21.2,18.48,38.82,39.87,38.58Zm-23.61,117.95c-13.14,12.83-20.22,29.27-26.88,45.94-1.84,4.61-.54,6.69,4.43,8.04,14.77,4.02,29.71,6.51,45.02,6.7,15.72,0,31.01-2.64,46.17-6.69,5.14-1.37,5.95-3.59,4.2-8.07-6.55-16.72-13.69-33.11-26.8-45.96-15.13-14.82-30.95-14.82-46.14,.01Zm88.6,129.25c-2.26-16.18-2.82-32.54-6.19-48.63-1.3-6.2-3.22-7.39-9.04-5.73-33.33,9.54-66.8,9.63-100.12,.05-6.74-1.94-8.58,.17-9.76,6.4-2.91,15.36-3.78,30.93-5.75,46.37-1.1,8.63,2.27,9.44,9.17,9.34,18.66-.29,37.33-.1,56-.1,19.43,0,38.86-.16,58.28,.09,5.87,.08,8.29-1.49,7.41-7.8Zm-7.7,29.22c-19.43,.4-38.87,.14-58.31,.14-19.06,0-38.11-.02-57.17,.01-4.11,0-8.56-.99-7.87,6.11,1.67,17.04,2.9,34.1,6.18,50.95,1.12,5.75,3.65,6.32,8.72,4.84,33.72-9.86,67.54-9.9,101.26-.04,5.99,1.75,7.48,.12,8.74-5.87,3.31-15.72,3.83-31.72,6.08-47.52,.91-6.39-.77-8.77-7.63-8.63Zm-157.85-133.77c7.4,6.67,15.02,11.5,22.97,15.87,2.26,1.24,4.78,3.45,6.26-.68,5.11-14.21,11.96-27.65,21.1-43.24-20.22,7.47-36.02,15.71-50.33,28.05Zm-50.29,112.32c9.13-.28,18.27-.08,27.41-.07,9.52,0,19.04-.24,28.55,.1,5.26,.18,7.28-1.31,7.48-6.93,.69-20.15,2.87-40.17,7.8-59.78,.97-3.84,.38-6.31-3.58-8.23-10.63-5.16-20.42-11.75-29.65-19.11-2.86-2.28-4.77-2.66-7.45,.41-21.58,24.81-34.01,53.62-38.37,86.1-.88,6.53,2.28,7.69,7.82,7.53Zm39.19,114.6c8.42-7.13,17.7-13.15,27.68-17.89,4.89-2.32,5.15-5.12,3.98-9.96-4.46-18.49-6.78-37.36-7.31-56.36-.19-6.71-1.65-9.54-8.95-8.97-8.69,.68-17.48,.16-26.22,.16s-18.29,.55-27.36-.16c-8.27-.65-9.77,3.08-8.66,9.98,4.94,30.62,16.57,58.18,36.74,82.02,3.43,4.06,5.84,4.79,10.11,1.18Zm61.89,46.98c-10.62-15.97-16.93-30.88-22.85-46.19-8.36,3.53-14.99,8.62-22.01,13.12-6.31,4.04-5.11,6.63,.38,10.47,12.84,8.96,26.34,16.44,44.47,22.6Zm49.96,114.39c-20.85-.44-39.67,17.75-40.04,38.71-.39,21.91,17.45,40.43,39.13,40.64,21.21,.2,39.26-17.73,39.43-39.17,.17-21.39-17.41-39.73-38.52-40.18Zm24.7-120.02c11.69-12.5,18.32-27.85,24.46-43.48,2.09-5.33,0-7.17-5.26-8.54-14.44-3.75-29.02-6.04-43.39-6.73-15.81,.45-30.78,2.75-45.56,6.75-4.85,1.31-7.94,2.71-5.69,8.38,6.33,15.95,13.06,31.69,25.24,44.3,16.59,17.18,33.71,16.95,50.19-.67Zm50.9-38.74c-2.84-1.68-4.57-1.83-5.88,1.88-4.98,14.14-11.57,27.57-21.02,42.34,12.24-3.76,21.4-7.97,30.03-13.23,7.02-4.27,19.65-8.61,18.46-14.59-1.6-8.02-13.56-11.63-21.6-16.4Zm22.49-228.5c.27-.25,.44-.61,.65-.93-12.44-12.35-34.8-24.33-48.11-25.56,3.66,6.84,6.49,13.98,10.92,19.95,5.25,7.07,2.32,21.64,13.15,21.54,8.28-.08,16.44-8.44,23.38-14.99Zm58.65,98.09c-4.92-26.12-14.35-50.25-30.44-71.58-9.53-12.64-9.52-12.57-22.05-3.71-4.34,3.07-8.54,6.7-13.38,8.61-11.54,4.55-15.17,11.2-10.33,23.37,2.72,6.84,1.96,14.99,3.56,22.38,2.39,11.01-3.15,26.62,4.68,32.17,7.56,5.36,21.91,1.16,33.28,1.16,0,.24,0,.48,0,.72,7.6,0,15.31-.76,22.79,.18,11.2,1.4,13.79-3.22,11.89-13.3Zm187.33,23.44c-.36-21.31-18.39-38.98-39.72-38.91-21.13,.06-39.42,18.11-39.65,39.12-.23,21.4,18.52,39.69,40.41,39.42,21.41-.26,39.32-18.48,38.96-39.62Z"/>
</svg>