<?xml version="1.0" encoding="UTF-8"?>
<svg id="Layer_1" data-name="Layer 1" xmlns="http://www.w3.org/2000/svg" viewBox="0 0 800 800">
  <defs>
    <style>
      .cls-1 {
        fill: #020202;
      }

      .cls-2 {
        fill: none;
      }
    </style>
  </defs>
  <rect class="cls-2" width="800" height="800"/>
  <path class="cls-1" d="M419.32,57.07c16.34,0,32.68,.31,49-.07,30.46-.71,59.02,6.09,86.17,19.87,22.92,11.63,46.33,22.3,69.23,33.98,27.14,13.84,55.69,20.61,86.16,19.85,14.28-.36,28.59-.05,42.88-.05,8.31,0,15.03,2.8,15.21,12.13,.18,9.27-6.24,12.25-14.66,12.71-56.76,3.07-111.24-2.89-161.99-32.33-25.22-14.63-51.52-28.28-79.99-36.53-12.32-3.57-24.88-4.63-37.54-4.67-37.98-.14-75.96,.02-113.94-.12-6.7-.03-12.83,1.34-18.97,3.91-28.23,11.81-56.62,23.21-84.77,35.2-5.02,2.14-13.09,1.79-12.78,10.67,.32,9.24,3.96,16.79,12.46,20.98,8.33,4.1,17.32,4.2,26.39,2.81,16.21-2.48,31.84-7.13,47.29-12.46,8.45-2.91,16.91-4.19,20.35,6.22,3.36,10.19-3.63,14.43-12.38,17.31-18.25,6.01-36.57,11.61-55.71,13.94-31.41,3.83-55.01-10.5-61.76-37.32-5.06-20.13,2.64-35.33,21.61-43.11,28.31-11.61,56.7-23.04,84.78-35.2,12.62-5.47,25.22-8.43,39.07-7.88,17.94,.7,35.93,.17,53.9,.17Zm17.02,687.06c13.44,.52,25.65-2.42,37.89-7.69,28.1-12.1,56.48-23.57,84.78-35.21,19.57-8.05,27.28-23.5,21.79-44.06-6.94-25.96-29.32-39.8-59.86-36.71-20.03,2.03-39.1,8.08-58.13,14.31-8.34,2.73-14.69,7.09-11.79,16.64,3.2,10.52,11.52,9.77,20.06,6.82,15.45-5.34,31.07-10.01,47.27-12.54,8.19-1.28,16.28-1.27,24.18,1.6,9.54,3.46,13.84,10.77,15.1,20.43,1.37,10.45-7.76,10.25-13.44,12.66-26.65,11.34-53.67,21.83-80.26,33.31-9.29,4.01-18.47,5.62-28.45,5.54-35.12-.27-70.24-.33-105.36-.03-25.02,.22-48.44-5.37-70.82-16.52-27.02-13.47-54.51-26-81.49-39.53-42.52-21.32-88.13-17.68-133.35-17.24-7.04,.07-11.46,4.76-11.48,11.91-.03,7.81,4.8,12.16,12.38,12.34,15.1,.37,30.22,.55,45.32,.16,30.89-.78,59.78,6.11,87.3,20.19,24.33,12.45,49.23,23.78,73.73,35.92,23.87,11.83,49.03,17.61,75.62,17.53,17.97-.06,35.94-.01,53.91,0,18.38,0,36.78-.53,55.13,.18Zm317.98-441.64c8.01-.09,13.72-3.88,13.68-12.39-.04-8.52-5.85-12.58-13.81-12.2-42.93,2-85.9-4.13-128.84,7.67-40.28,11.07-87.93-5.29-105.82-45.71-2.34-5.29-7.16-7.35-12.17-9.49-27.37-11.69-55.73-21.16-81.97-35.32-14.49-7.82-25.63-19.04-26.97-36.87-.98-12.99,.09-13.84,11.85-8.99,38.09,15.72,76.14,31.53,114.18,47.36,7.96,3.31,14.76,2.43,18.36-6.02,3.43-8.05-.94-13.58-8.08-16.57-45.52-19.06-91.1-37.99-136.76-56.73-8.39-3.44-14.92-.95-18.94,7.87-11.19,24.53-6.52,54.35,12.01,74.19,9.62,10.3,21.11,18.02,33.97,23.56,21.72,9.36,43.55,18.48,65.44,27.44,5.14,2.1,8.77,5.1,11.85,9.83,27.14,41.76,77.92,63.01,126.91,50.44,26.12-6.7,52-9.07,71.2-8.02,22.89,0,38.41,.12,53.92-.05ZM47.85,498.48c-8.39,.02-14.91,3.18-14.85,12.47,.06,9.3,6.7,12.61,15.03,12.25,43.35-1.86,86.59,3.14,130.03-8.15,41.64-10.82,86.25,7.43,103.38,46.11,2.13,4.82,6.25,7.25,11.02,9.04,7.25,2.72,14.5,5.51,21.55,8.71,21.51,9.79,44.51,16.36,64.71,28.96,13.73,8.57,23.44,20.01,24.08,37.43,.35,9.52-2.07,11-11.03,7.17-37.12-15.88-74.6-30.94-111.84-46.55-8.68-3.64-17.25-6.21-21.64,4.68-4.47,11.07,4.16,14.91,12.53,18.37,41.08,17.02,82.11,34.15,123.15,51.27,20.92,8.73,26,6.2,31.66-16.05,.7-2.76,1.15-5.6,1.46-8.43,3.7-33.8-13.43-60.72-50.03-77.17-21.94-9.86-44.31-18.78-66.56-27.95-4.66-1.92-8.26-4.36-11.18-8.77-28.5-43.03-78.18-64.22-127.56-51.43-26.16,6.78-52.03,8.87-71.3,8.01-22.39,0-37.5-.03-52.61,.01Zm605.66-145.8c-1.96-8.97-5.27-16.55-15.84-13.84-10.13,2.59-10,10.74-8.36,19.78,6.46,35.46,4.97,70.66-4.86,105.46-7.4,26.2-19.07,50.3-35.01,72.32-5.34,7.37-8.51,15.14,.41,21.24,8.92,6.11,15.19,.19,20.13-7.25,1.13-1.7,2.35-3.34,3.49-5.03,29.46-43.48,44.2-91.51,44.56-146.76-.74-13.54-1.01-29.85-4.52-45.93Zm-505.66,97.66c2,8.78,5.68,15.18,15.39,12.92,9.4-2.19,10.54-9.54,8.93-18.35-11.88-64.93,.59-124.75,38.47-178.99,5.08-7.28,9.26-14.85,.71-21.41-9.27-7.1-15.55-.69-20.97,6.99-31.26,44.33-46.96,93.61-47.45,150.85,.85,14.03,1.08,31.13,4.92,47.99Zm81.6-232.45c.03,7.24,4.66,11.78,11.54,11.75,8.31-.04,13.91-5.09,14.3-13.67,.36-7.84-4.82-11.56-12.81-12.84-7.18,2-13.07,5.93-13.03,14.75Zm318.78,368.28c.34,7.21,5.07,11.5,11.97,11.29,7.72-.24,13.47-4.94,13.47-12.98,0-7.51-5.04-11.62-12.88-11.83-7.86,1.06-12.95,5.07-12.55,13.53Zm-24.98-152.21c.03,10.64-5.09,15.81-15.75,15.76-16.34-.08-32.69,.31-49.02-.15-7.04-.2-9.12,2.15-8.93,9.04,.44,15.92,.31,31.87,.08,47.8-.19,13.07-3.83,16.69-17.03,16.81-21.65,.2-43.31-.06-64.96,.1-11.25,.08-16.5-5.16-16.38-16.41,.18-16.34-.23-32.69,.17-49.03,.16-6.52-2.07-8.44-8.42-8.29-15.93,.38-31.87,.26-47.8,.08-13.79-.16-17.32-3.71-17.42-17.65-.16-21.24-.19-42.49,.01-63.74,.13-13.16,3.74-16.73,16.91-16.91,15.93-.22,31.88-.38,47.8,.09,7.04,.21,9.12-2.15,8.93-9.04-.44-15.92-.3-31.87-.08-47.8,.18-13.09,3.78-16.58,17.01-16.82,10.62-.2,21.24-.04,31.87-.04,11.03,0,22.07,.14,33.09-.04,11.25-.18,16.52,5.13,16.41,16.38-.17,16.34,.23,32.69-.17,49.03-.16,6.49,2.01,8.46,8.4,8.31,16.33-.38,32.68,0,49.03-.16,11.3-.11,16.39,5.29,16.31,16.49-.17,22.06-.11,44.13-.04,66.19Zm-24.69-17.52c-.61-10.59-.61-21.26,0-31.85,.43-7.58-2.99-8.69-9.4-8.55-15.52,.35-31.05,.24-46.57,.07-14-.15-17.53-3.6-17.69-17.39-.19-15.93-.29-31.87,.07-47.8,.15-6.3-1.67-8.78-8.25-8.44-12.98,.67-29.53-4.01-37.97,2.34-8.17,6.15-2.49,23.65-2.49,36.12,0,37.02,1.25,35.37-35.66,35.3-12.16-.02-28.22-5.2-35.47,1.93-7.88,7.75-1.5,23.98-2.65,36.44-.71,7.74,1.6,10.81,9.96,10.45,15.5-.66,31.05-.34,46.57-.14,13.24,.18,16.83,3.72,17.06,16.78,.23,13.07,.05,26.15,.05,39.22,0,17.51,0,17.79,17.33,17.4,10.07-.22,23.07,4.51,29.44-2,6.34-6.48,1.01-19.44,1.97-27.73,0-10.37,.13-18.95-.03-27.53-.21-11.35,5.37-16.37,16.53-16.24,15.93,.18,31.87-.19,47.8,.15,6.41,.14,9.84-.97,9.4-8.55Z"/>
</svg>