<?xml version="1.0" encoding="UTF-8"?>
<svg id="Layer_1" data-name="Layer 1" xmlns="http://www.w3.org/2000/svg" viewBox="0 0 800 800">
  <defs>
    <style>
      .cls-1 {
        fill: #020202;
      }

      .cls-2 {
        fill: none;
      }
    </style>
  </defs>
  <rect class="cls-2" width="800" height="800"/>
  <path class="cls-1" d="M724.87,482.62c0,80.86,.2,161.71-.25,242.57-.06,10.47,2.07,15.25,13.21,13.47,4.21-.67,8.64-.24,12.95-.01,7.63,.4,12.29,4.85,12.66,12.15,.37,7.39-4.29,11.97-11.49,13.49-2.5,.53-5.16,.34-7.75,.34-39.34,.02-78.67,.01-118.01,0-2.16,0-4.34,.13-6.48-.11-8.08-.91-13-5.72-12.69-13.63,.3-7.93,5.38-12.35,13.75-12.34,22.48,.04,44.97-.39,67.43,.19,8.66,.23,11.46-2.47,10.75-10.95-.68-8.16-.84-16.49,.02-24.62,1.16-10.92-1.61-15.27-13.78-14.53-19.81,1.2-39.75,.16-59.63,.4-9.73,.12-18.25-2.23-18.44-13.28-.2-11.44,8.56-13.19,18.2-13.07,20.75,.27,41.5-.19,62.24,.22,7.83,.16,11.71-1.11,11.46-10.42-.65-24.63-.46-49.29-.06-73.93,.11-6.96-2.18-8.79-8.84-8.68-21.61,.35-43.23-.02-64.84,.2-9.76,.1-18.19-2.3-18.16-13.45,.04-11.5,8.89-12.93,18.47-12.8,20.75,.29,41.51-.25,62.24,.26,8.11,.2,11.21-1.55,11.18-10.53-.33-93.39-.31-186.79-.02-280.19,.02-8.16-2.47-10.12-10.3-10.08-67.87,.28-135.73,.34-203.6-.05-8.8-.05-11.18,2.68-10.85,11,.55,13.81,.21,27.67,.07,41.5-.08,8.24-3.2,14.8-12.37,15.25-10.17,.5-13.52-6.65-13.64-15.23-.3-21.18-.31-42.37,.03-63.56,.15-9.72,5.47-14.99,15.62-14.98,81.7,.04,163.4-.07,245.1,.13,11.97,.03,15.82,5.43,15.82,20.08,.04,81.72,.02,163.44,.02,245.16ZM102.3,254.32c0-5.28-1.93-11.07,7.64-11.02,69.15,.33,138.3,.27,207.45,.05,7.01-.02,8.85,2.5,8.69,9.05-.37,14.26-.33,28.53,0,42.79,.2,8.49,3.23,15.83,13.26,15.81,10.11-.01,12.84-7.13,12.85-15.88,.02-19.02,.09-38.04,.01-57.06-.08-18.06-2.89-20.77-21.41-20.78-77.36-.02-154.72-.02-232.08,0-19.94,0-22.5,2.52-22.5,22.21,0,156.92,.03,313.85-.09,470.77,0,8.95,3.71,19.85-1.79,26.34-4.81,5.68-15.49,1.38-23.56,1.93-8.16,.55-13.2,4.26-13.29,12.67-.08,8.33,5.01,13.18,12.9,13.23,43.22,.29,86.43,.31,129.65,.02,8.45-.06,13.94-5.17,13.38-14.12-.53-8.4-6.26-11.74-14.24-11.75-12.53-.01-25.08,.32-37.6-.12-12.81-.45-30.34,5.68-37.09-2.49-6.45-7.81-1.36-24.75-2.38-37.59-.7-8.81,3.23-9.68,10.47-9.54,20.74,.4,41.49,.05,62.23,.18,9.46,.06,18.22-1.64,18.63-13.02,.42-11.82-8.37-13.33-17.88-13.25-20.31,.15-40.64-.39-60.93,.24-9.1,.28-12.98-1.31-12.6-11.74,.86-23.74,.61-47.55,.08-71.31-.17-7.83,1.63-10.37,9.88-10.12,21.16,.65,42.35,.14,63.52,.25,9.63,.05,18-2.17,17.96-13.61-.04-10.95-8.22-12.64-17.32-12.56-20.74,.17-41.52-.59-62.22,.32-10.24,.45-11.95-3.04-11.85-12.36,.48-45.82,.22-91.64,.22-137.47,0-46.69-.02-93.38,.03-140.06Zm478.71,198.1c-.22,97.66-.09,195.31-.18,292.97-.01,15.94-3.68,19.22-20.4,19.23-53.57,.05-107.14,.02-160.7,.02-53.14,0-106.27,.02-159.41-.01-16.91-.01-20.78-3.7-20.79-20.34-.06-97.23,.04-194.45-.15-291.68-.02-9.09,3.24-15.12,10.48-20.67,52.09-39.94,104.07-80.02,155.61-120.66,10.78-8.5,18.76-8.57,29.52-.09,51.55,40.6,103.51,80.68,155.58,120.61,7.22,5.54,10.46,11.49,10.44,20.62Zm-26.12,273.72c-.47-87.72-.34-175.44-.13-263.16,.02-7.1-1.83-11.87-7.68-16.35-46.28-35.44-92.36-71.12-138.28-107.01-5.95-4.65-9.95-5.63-16.49-.5-45.86,35.99-92,71.62-138.25,107.1-6.03,4.63-8.55,9.52-8.52,17.29,.28,87.72,.34,175.44-.06,263.16-.05,9.91,2.82,12.21,12.38,12.11,47.51-.49,95.04-.22,142.56-.22s94.18-.26,141.26,.21c9.77,.1,13.27-1.87,13.22-12.62Zm110.45-370.96c.03,11.73-5.89,17.51-17.49,17.54-20.72,.04-41.45,.01-62.17,.01-19.86,0-39.72,.12-59.58-.04-13.15-.11-18.09-4.73-18.41-17.8-.37-15.11-.16-30.23-.05-45.34,.08-11.02,5.66-16.68,16.82-16.67,41.45,.02,82.9-.09,124.35,.09,10.78,.05,16.76,5.42,16.59,16.88-.21,15.11-.08,30.23-.04,45.35Zm-34.21-36.19c-14.68,.32-29.37,.08-44.05,.07-14.68,0-29.4,.56-44.05-.18-11.96-.6-9.3,7.45-9.11,13.79,.18,6.06-3.51,14.35,8.77,14.12,29.36-.54,58.74-.51,88.1,0,11.36,.2,8.64-7.41,8.21-13.11-.42-5.64,4.78-14.98-7.87-14.7Zm-338.46,37.24c-.07,11.14-5.93,16.53-17,16.51-20.71-.03-41.41,0-62.12,0-19.41,0-38.82,.07-58.24-.02-14.91-.07-19.49-4.47-19.62-18.91-.13-14.67,.23-29.35-.11-44.01-.25-10.66,4.61-16.71,15.05-16.77,42.27-.26,84.55-.22,126.82-.03,9.69,.04,15.22,5.23,15.24,15.34,.03,15.96,.08,31.93-.03,47.89Zm-26.31-25.05c.92-6.54,1.28-12.88-9.17-12.31-14.15,.78-28.38,.19-42.58,.19-14.63,0-29.3,.69-43.87-.22-11.08-.69-9.61,6.38-8.76,12.4,.82,5.78-5.55,15.67,8.16,15.5,29.25-.37,58.51-.34,87.76-.01,13.41,.15,7.62-9.56,8.46-15.54ZM607.63,96.16c-10.62,12.79-15.18,26.32-13.64,42.77,.86,9.22-3.34,15.98-14.64,16.26-1.51-.43-3.69-.77-5.61-1.66-14.91-6.93-29.43-6.23-44.78-.3-13.38,5.17-20.47,.07-19.57-14.25,1.04-16.55-3.64-29.88-14.12-42.6-9.17-11.14-6.03-20.78,8.07-24.22,15.74-3.85,26.57-12.09,35.18-25.59,7.69-12.06,17.76-11.96,25.63,.02,8.7,13.24,19.4,21.71,35.15,25.62,14.66,3.64,17.66,12.69,8.3,23.96Zm-29.97-3.23c-10.59-3.56-17.05-10.79-24.48-15.55-7.47-4.78-10.74,13.49-21.41,12.81-.41-.03-.83,.22-1.24,.34-4.18,1.22-6.02,3.31-2.4,7.08,6.77,7.06,7.16,16.2,7.74,25.98,9.35-2.97,18.06-5.04,26.9-1.18,3.27,1.43,5.4-.52,5.04-3.49-1.21-9.98,4.04-17.77,9.85-26Zm180.95,3.32c-10.58,12.73-15.23,26.21-13.47,42.62,1.01,9.4-3.53,15.75-14.28,16.38-1.75-.47-3.97-.72-5.86-1.64-15.32-7.47-30.2-6.23-45.88-.02-12.06,4.78-19.98-1.05-18.9-14.11,1.4-17.03-3.69-30.63-14.28-43.65-8.57-10.53-5.52-19.91,7.69-23.47,15.73-4.24,27.5-11.83,36.23-26.04,7.36-11.99,17.75-11.67,25.55,.53,8.62,13.48,19.75,21.31,35.19,25.41,14.45,3.83,17.37,12.73,8.01,24Zm-32.24-1.39c.19-7.61-14.53-4.84-17.77-13.6-.57-1.54-2.14-2.68-3.11-4.09-2.02-2.94-4.61-2.87-5.94-.02-4.55,9.75-15.04,11.49-23.58,16.96,9.19,8.16,10.71,18.24,10.38,29.39,4.87-1.14,8.99-2.01,13.06-3.08,4.9-1.29,9.37,.67,13.81,1.97,5.2,1.52,6.48-1.16,5.9-5.17-1.31-9.04,7.08-15.5,7.25-22.36Zm-269.78,1.28c-10.46,12.71-15.19,26.03-14.11,42.61,.92,14.15-6.59,19.71-19.56,14.59-15.81-6.25-30.47-6.26-46.03,.4-9.68,4.14-18.85,.34-18.42-10.74,.76-19.6-4.2-36.29-17.16-50.84-1.33-1.5-1.56-3.97-2.14-5.55,.51-7.94,4.78-12.94,11.67-14.14,16.93-2.96,28.27-12.47,37.29-26.77,6.73-10.68,17.42-10.89,24.09-.32,9.01,14.3,20.57,22.94,37.06,27.14,13.27,3.38,16.11,12.95,7.32,23.62Zm-30.29-2.64c-8.5-4.44-18.21-6.62-22.88-16.01-2.09-4.2-5.04-2.57-6.71,.55-4.48,8.41-16.35,8.94-19.76,14.85-3.69,6.4,8.96,14.16,6.86,24.09-1.03,4.87,1.44,7.26,6.84,4.99,7.62-3.2,16.06,1.74,22.43,.07,7.86-2.06,1.38-14.79,7.79-20.72,2.12-1.96,3.4-4.82,5.43-7.81Zm-271.83,2.63c-10.68,12.7-14.67,26.19-13.6,42.61,.88,13.6-6.9,18.62-19.93,14.95-7.43-2.09-14.74-4.61-22.55-7.07-7.65,2.36-15.38,4.94-23.23,7.13-12.73,3.54-20.21-1.12-19.23-14.09,1.28-16.94-3.4-30.67-14.14-43.68-8.63-10.46-5.58-20.06,7.51-23.56,15.75-4.22,27.46-12,36.26-26.02,7.27-11.6,17.7-11.84,24.81-.66,9.07,14.27,20.66,22.77,37.14,26.98,13.39,3.42,16.01,12.65,6.96,23.43Zm-35.24-5.34c-10-1.59-14.69-9.66-21.09-16.8-6.28,7.77-12.06,15.31-22.21,17.19-2.94,.54-4.12,3.21-1.53,5.7,7.5,7.19,7.45,16.79,8.12,26.8,9.79-3.46,19.31-1.14,28.14-1.86,10.09-.82,.12-17.31,9.67-22.62,.33-.19,.43-.75,.72-1.06,3.15-3.41,2.88-6.61-1.82-7.36Zm186.36,5.34c-10.68,12.7-14.67,26.19-13.6,42.61,.88,13.6-6.9,18.62-19.93,14.95-7.43-2.09-14.74-4.61-22.55-7.07-7.65,2.36-15.38,4.94-23.23,7.13-12.73,3.54-20.21-1.12-19.23-14.09,1.28-16.94-3.4-30.67-14.14-43.68-8.63-10.46-5.58-20.06,7.51-23.56,15.75-4.22,27.46-12,36.26-26.02,7.27-11.6,17.7-11.84,24.81-.66,9.07,14.27,20.66,22.77,37.14,26.98,13.39,3.42,16.01,12.65,6.96,23.43Zm-35.24-5.34c-10-1.59-14.69-9.66-21.09-16.8-6.28,7.77-12.06,15.31-22.21,17.19-2.94,.54-4.12,3.21-1.53,5.7,7.5,7.19,7.45,16.79,8.12,26.8,9.79-3.46,19.31-1.14,28.14-1.86,10.09-.82,.12-17.31,9.67-22.62,.33-.19,.43-.75,.72-1.06,3.15-3.41,2.88-6.61-1.82-7.36Zm211.69,387.44c9.61,.05,18.4-2.1,18.28-13.29-.12-11.19-9.19-13.15-18.62-13.14-54.41,.03-108.81,.04-163.22-.01-9.59,0-18.42,2.45-18.26,13.48,.16,10.97,8.97,13.08,18.6,13,26.77-.22,53.54-.08,80.31-.08,27.63,0,55.27-.1,82.9,.05Zm-166.59,27.43c-9.12,.02-15.64,4.45-15.23,13.73,.37,8.33,6.49,12.51,15.2,12.5,56.55-.08,113.11-.06,169.66-.04,6.6,0,11.86-2.08,14.4-8.69,3.67-9.57-2.89-17.31-15.67-17.44-27.63-.28-55.26-.09-82.89-.08-28.49,0-56.98-.03-85.48,.02Zm165.56,108.01c.11,8.01-3.17,14.24-11.13,14.99-8.1,.77-7.1,5.53-7.1,10.68,.03,22.49-.13,44.98,.08,67.46,.09,9.81-2.77,18.19-13.53,18.4-11.55,.23-12.88-8.79-12.75-18.34,.29-22.05-.39-44.12,.32-66.16,.3-9.39-2.84-11.62-11.66-11.28-17.27,.65-34.59,.56-51.87,.02-7.56-.24-9.33,2.39-9.2,9.53,.41,22.91-.05,45.84,.25,68.75,.12,9.42-2.48,17.32-12.7,17.47-11.01,.16-13.71-8.12-13.6-17.98,.25-22.48-.09-44.98,.18-67.46,.07-6.2-.08-10.38-8.13-11.21-7.44-.77-10.33-6.72-10.22-14.21,.19-13.4,.18-26.81,.02-40.22-.12-10.41,5.13-14.91,15.16-14.88,21.62,.06,43.23,.02,64.85,.01,20.75,0,41.5-.08,62.26,.02,14.91,.07,18.58,3.64,18.72,18.07,.11,12.11-.1,24.22,.06,36.32Zm-25.86-19.78c-.06-7.07-2.59-8.69-9.07-8.64-30.6,.24-61.2,.33-91.8-.05-7.23-.09-8.38,2.75-8.41,9.06-.03,6.64,1.84,9.04,8.8,8.8,15.07-.52,30.16-.16,45.25-.16s30.18-.3,45.25,.13c6.96,.2,10.04-1.35,9.97-9.14Z"/>
</svg>