<?xml version="1.0" encoding="UTF-8"?>
<svg id="Layer_1" data-name="Layer 1" xmlns="http://www.w3.org/2000/svg" viewBox="0 0 800 800">
  <defs>
    <style>
      .cls-1 {
        fill: #0e0e0e;
      }

      .cls-2 {
        fill: none;
      }
    </style>
  </defs>
  <rect class="cls-2" width="800" height="800"/>
  <path class="cls-1" d="M479.79,69.05c-.02,7.43,.08,14.86-.04,22.29-.12,6.97-3.72,11.06-10.75,11.33-7.64,.29-11.86-4.02-12.04-11.36-.35-14.46-.3-28.94-.08-43.41,.11-7.24,3.7-11.86,11.55-11.83,7.79,.04,11.3,4.38,11.37,11.85,.07,7.04,.01,14.08,0,21.12Zm-183.48,38.77c-2.26,4.97-.44,9.16,3.09,12.74,9.85,9.99,19.78,19.91,29.69,29.86,5.36,5.38,11.2,7.43,17.31,1.47,6.08-5.93,4.45-11.92-.96-17.37-9.89-9.96-19.87-19.84-29.81-29.75-2.59-2.58-5.66-4.06-9.04-4.15-4.92,.63-8.35,2.97-10.27,7.2Zm74.01-40.5c5.17,13.48,10.8,26.8,16.78,39.93,2.67,5.86,6.83,10.98,14.63,7.41,7.36-3.37,9.25-8.95,6.14-16.39-5.27-12.6-10.45-25.24-15.73-37.83-2.1-5.02-5.48-8.52-11.34-8.73-8.08,.13-13.55,7.63-10.49,15.61Zm231.5,89.39c14.07-10.53,26.08-23.25,37.13-36.76,3.01-3.68,1.55-9.07-2.47-12.66-4.34-3.88-9.72-4.62-13.82-.94-11.86,10.66-23.26,21.83-34.54,33.11-3.24,3.25-3.46,7.64-1.05,11.93,2.3,4.1,5.87,6.02,10.67,6.78,1.2-.41,2.9-.58,4.08-1.46Zm-42.72-101.55c-5.81-1.87-11.31-.83-13.94,5.08-6.34,14.24-12.41,28.61-18.02,43.15-2.05,5.31,.54,10.22,5.52,12.84,4.9,2.58,11.08,2.52,13.54-2.57,7.43-15.39,13.79-31.29,19.5-44.5,.2-8.04-1.36-12.31-6.6-14Zm112.05,542.97c-57.29,45.4-115.03,90.26-171.7,136.43-20.88,17.01-41.87,22.37-68.25,15.92-55.26-13.52-111.01-25.01-166.55-37.34-8.33-1.85-16.4-1.13-23.83,3.16-7.78,4.49-15.17,9.65-23.05,13.95-6.22,3.39-9.67,7.35-10.53,15.07-1.29,11.5-10.18,18.92-21.71,19.21-17.97,.46-35.97,.48-53.94,.02-13.34-.34-22.8-9.64-22.89-23.4-.34-56.72-.37-113.45,.06-170.17,.11-14.13,10.04-22.55,24.56-22.77,14.46-.21,28.93-.05,43.39-.05,22.32,0,26.96,3.25,34.37,24.68,19.49-11.69,39.28-22.62,58.03-35.12,14.83-9.88,29.94-10.74,45.75-5.14,54,19.11,108.32,37.46,161.47,58.73,15.17,6.07,24.53,3.41,36.52-4.16,29.06-18.33,58.75-35.69,88.16-53.47,19.2-11.61,39.27-14.9,60.4-5.96,31.71,13.42,36.61,49.12,9.74,70.41Zm-485.81-17.95c.12-7.26-1.98-9.57-9.22-9.24-12.1,.55-24.24,.36-36.36,.06-5.71-.14-8.39,1.15-8.36,7.69,.23,51.65,.2,103.31,.03,154.96-.02,6.02,1.79,8.32,8.01,8.11,12.11-.4,24.27-.64,36.35,.07,8.3,.49,9.62-3,9.51-10.22-.36-25.04-.14-50.09-.14-75.13,0-25.44-.26-50.88,.17-76.3Zm480.07-17.13c-1.59-7.81-7.7-11.49-14.6-13.81-13.14-4.42-25.51-1.84-37.08,5.06-33.56,20.01-66.99,40.26-100.61,60.16-5.27,3.12-6.31,6.09-4.87,12.21,7.53,31.85-23.01,63.47-54.14,53.79-36.42-11.33-71.69-26.41-107.34-40.15-6.09-2.35-9.33-7.67-6.93-14.23,2.53-6.91,8.27-9.06,15.27-7.11,3.36,.94,6.57,2.42,9.84,3.67,29.12,11.2,58.14,22.68,87.41,33.48,14.63,5.4,27.74-.7,32.67-13.91,4.53-12.12-1.97-25.47-16.17-30.62-54.62-19.81-109.38-39.22-164.08-58.8-8.29-2.97-16.04-2.05-23.56,2.51-22.05,13.37-44.06,26.82-66.33,39.83-5.57,3.26-7.11,7.22-6.95,13.31,.38,14.86,.12,29.74,.12,44.61,0,14.48-.06,28.96,.05,43.44,.02,3.02-.48,7.38,1.2,8.76,3.41,2.79,6.29-1.46,8.96-3.23,14.8-9.8,30.5-16.22,48.57-12.31,55.23,11.97,110.64,23.22,165.47,36.79,22.37,5.54,39.87,2.69,56.71-13.04,14.54-13.58,30.62-25.55,46.27-37.91,40.2-31.75,80.53-63.34,120.82-94.97,5.73-4.5,10.93-9.4,9.28-17.54Zm-99.11-156.58c-8.62,6.78-17.68,12.95-22.5,23.38-2.98,6.44-3.88,11.37,2.33,17.56,15.87,15.83,12.86,39.55-6.61,50.8-7.34,4.24-8.99,9.03-9.9,16.47-4.95,40.41-.91,36.06-40.23,36.13-6.26,.01-12.51,0-18.77,0-13.68,0-27.37-.18-41.05,.06-8.52,.16-13.15-3.97-14.74-11.95-.84-4.21-1.64-8.48-1.9-12.76-.74-12.15-2.24-21.86-15.7-29.08-17.97-9.65-19.39-35.19-4.49-49.63,5.97-5.78,5.37-10.22,2.43-16.29-4.22-8.72-10.91-15.01-18.59-20.69-52.1-38.52-73.53-100.12-57.47-164.61,14.78-59.36,67.71-108.27,127.18-117.51,70.94-11.02,139.69,26.35,168.53,91.61,28.82,65.23,9.13,141.12-48.52,186.51Zm-60.11,105.05c1.62-6.36-3.84-5.24-7.48-5.28-9.37-.09-18.75-.03-28.12-.03-9.76,0-19.53-.1-29.29,.05-3.51,.05-9.34-1.3-7.36,5.19,1.81,5.94-3.49,16.53,6.99,17.16,19.46,1.17,39.09,1.19,58.55,0,10.53-.65,5.2-11.11,6.72-17.09Zm24.11-40.18c-.18-8.83-6.43-10.46-13.84-10.4-16.01,.12-32.02,.04-48.03,.03-16.4,0-32.8,.1-49.2-.05-7.45-.06-13.73,1.76-14.03,10.35-.32,9.11,5.85,11.83,13.94,11.81,32.41-.04,64.82-.07,97.22,.02,8.17,.02,14.12-2.6,13.93-11.76Zm70.79-186.37c.97-83.8-78.57-149.97-158.46-131.36-54.93,12.79-90.66,47.4-103.34,101.99-13.07,56.29,7.36,102.24,52.36,137.35,13.7,10.69,24.87,22.76,28.92,39.94,1.46,6.21,5.31,5.65,9.59,5.65,12.51,0,25.03,0,37.54,0,13.3,0,26.59-.08,39.89,.04,4.26,.04,7.41-.44,8.51-5.63,3.9-18.39,16.1-30.45,30.66-41.31,35.52-26.48,53.82-62.24,54.33-106.67Zm-133.24-100.35c-8.15-.15-15.56,2.48-15.25,12.11,.28,8.8,7.22,10.75,15.05,11.08,44.13,1.86,72.65,29.23,76.95,74.02,.78,8.15,3.21,13.93,12.41,13.33,8.6-.57,10.51-6.78,10.58-12.92-2.05-54-43.62-96.59-99.73-97.61Z"/>
</svg>