<?xml version="1.0" encoding="UTF-8"?>
<svg id="Layer_1" data-name="Layer 1" xmlns="http://www.w3.org/2000/svg" viewBox="0 0 800 800">
  <defs>
    <style>
      .cls-1 {
        fill: none;
      }

      .cls-2 {
        fill: #010101;
      }
    </style>
  </defs>
  <rect class="cls-1" width="800" height="800"/>
  <path class="cls-2" d="M767.9,243.81c-.03-34.32-24.15-59.22-58.25-59.4-75.21-.41-150.42-.2-225.63-.11-13.79,.02-18.15,4.39-18.26,17.94-.17,22.3,.29,44.61-.18,66.9-.27,12.62,5.26,18.02,17.58,19.36,24.95,2.72,42.11,21.16,42.97,44.91,.88,24.39-14.25,43.81-38.38,49.23-22.04,4.96-21.7,4.97-22.17,28.29-.27,13.37,6.04,31.65-2.77,38.74-8.33,6.71-25.89,1.64-39.35,2.44-6.99,.42-9.66-2.33-11.82-8.72-10.97-32.58-38.22-52.62-70.6-52.63-32.21-.01-59.96,19.96-70.96,52.36-2.53,7.45-5.99,9.2-13.06,8.99-14.85-.44-29.73-.16-44.6-.13-19.84,.04-22.8,2.96-22.81,22.75-.03,71.27-.04,142.55,0,213.82,.03,43.63,22.52,66.04,66.3,66.07,74.34,.04,148.67,.01,223.01,0,76.09,0,152.17,.19,228.26-.09,36.55-.13,60.68-23.89,60.71-59.47,.12-150.42,.12-300.84,0-451.26Zm-255.31,157.11c30.27-12.48,42.94-39.92,39.9-72.8-2.73-29.57-18.65-50.94-46.37-61.06-11.94-4.36-15.28-9.96-14.1-21.42,.85-8.22,.72-16.64,.01-24.88-.73-8.49,2.85-10.2,10.57-10.13,34.53,.35,69.06,.15,103.59,.15,33.22,0,66.44-.11,99.65,.04,23.39,.11,35.66,12.26,35.7,35.44,.11,64.69-.23,129.37,.31,194.06,.09,10.42-3.36,12.28-12.63,11.85-15.7-.73-31.46-.22-47.2-.18-10.19,.03-15.91,4.13-17.14,15.28-3.08,27.87-22.43,45.47-48.43,45.24-25.25-.22-44.49-17.99-47.38-44.97-1.18-10.97-6.45-15.56-16.85-15.56-17.05-.01-34.1-.26-51.14,.11-6.8,.15-9.82-2-8.94-8.95,.27-2.15,.27-4.39,0-6.55-2.14-17.05,.94-27.64,20.44-35.68Zm-46.7,288.03c-.79,9.99-.53,20.12-.06,30.15,.31,6.73-1.8,9.14-8.8,9.12-69.53-.22-139.05,.08-208.58-.29-20.26-.11-32.03-12.81-32.2-33.51-.27-33.67-.07-67.34-.08-101.01s.6-67.35-.33-101c-.33-12.13,3.61-14.83,14.79-14.14,15.24,.95,30.6,.14,45.9,.26,10.7,.09,15.68-4.94,16.69-15.68,2.45-26.13,20.95-44.11,45.79-45.38,24.2-1.24,44.53,15.89,49.4,41.63,3.59,18.97,4.08,19.38,23.75,19.4,14.87,.02,29.74,.28,44.6-.12,6.78-.18,9.75,1.95,9.02,8.94-.4,3.89-.51,7.92,0,11.79,2.5,18.97-.68,31.32-22.3,40.15-28.12,11.49-40.47,37.9-38.57,68.56,2.01,32.42,19.53,54.74,49.93,65.63,8.74,3.13,11.76,6.57,11.05,15.49Zm275.68,1.54c-.02,26.45-11,37.51-37.4,37.59-32.8,.1-65.59,.02-98.39,.02-33.67,0-67.35-.47-101.01,.27-10.75,.24-13.32-3.23-12.79-13.26,.8-15.26,.08-30.6,.25-45.9,.12-10.9-4-16.78-15.78-18.03-27.6-2.92-45.85-22.93-45.43-48.43,.42-25.3,18.1-43.85,45.5-46.85,10.73-1.17,15.7-6.37,15.66-16.92-.04-14.43,.29-28.87-.13-43.29-.2-6.8,1.99-9.71,8.92-9.05,3.9,.37,7.93,.53,11.79-.02,19.15-2.71,30.96,1.28,39.98,22.45,12.59,29.56,40.18,41.67,72.49,38.28,30.68-3.22,51.87-20.3,61.52-49.49,3.25-9.85,7.96-11.8,16.78-11.26,12.13,.74,28.38-3.86,35.41,2.31,8.17,7.18,2.45,23.81,2.52,36.3,.31,55.1,.17,110.19,.12,165.29ZM343.8,126.61c-6.97-2.31-8.41-5.84-8.28-12.31,.34-16.16,.22-32.33,.08-48.49-.14-16.14-3.17-19.24-19.22-19.29-37.57-.11-75.15-.04-112.72-.02-37.14,.01-74.28-.4-111.41,.13-34.39,.49-58.82,24.73-58.99,58.76-.37,75.15-.18,150.29-.08,225.44,.02,13.62,4.49,18.11,18.05,18.25,21.41,.23,42.83-.33,64.22,.21,13.01,.33,19.87-3.44,21.57-17.92,3.13-26.61,23.64-43.4,49.25-42.76,24.73,.61,43.41,18.45,45.93,44.79,1.04,10.89,6.56,15.66,16.88,15.7,23.16,.1,46.31-.08,69.47,.09,12.24,.09,17.33-5.89,17.14-17.8-.27-16.6,.28-33.21-.22-49.8-.22-7.31,2.15-10.69,9.22-13.12,32.63-11.23,52.5-38.32,52.65-70.61,.15-32.46-20.33-60.22-53.54-71.25Zm-18.4,118.55c-11.43,1.27-16.25,7.07-16.24,17.96,0,16.61-.3,33.24,.13,49.84,.19,7.26-1.84,10.73-9.55,9.7-3.01-.4-6.14-.33-9.17-.02-19.39,1.99-32.94,.28-42.55-22.99-12.22-29.6-40.86-40.94-73.03-36.95-29.94,3.71-50.65,20.85-60.48,49.31-3.1,8.97-7.12,11.4-15.73,10.73-8.69-.68-17.53-.74-26.21,0-9.93,.86-13.62-1.81-13.37-12.74,.79-33.65,.29-67.32,.29-100.99,0-33.23-.1-66.46,.03-99.69,.1-24.03,12.22-36.22,36.42-36.27,67.33-.14,134.67,.15,202-.28,9.45-.06,11.83,2.76,11.4,11.76-.72,15.27-.04,30.6-.25,45.9-.16,11.89,4.07,18.33,17.17,19.66,26.17,2.66,43.22,22.12,43.32,47.36,.1,25.98-16.83,44.67-44.19,47.7Z"/>
</svg>