<?xml version="1.0" encoding="UTF-8"?>
<svg id="Layer_1" data-name="Layer 1" xmlns="http://www.w3.org/2000/svg" viewBox="0 0 800 800">
  <defs>
    <style>
      .cls-1 {
        fill: none;
      }

      .cls-2 {
        fill: #010101;
      }
    </style>
  </defs>
  <rect class="cls-1" width="800" height="800"/>
  <path class="cls-2" d="M714.23,416.22q-17.64-6.52-17.97-33.25c-1.45-38.81-12.51-83.23-35.2-124.29-5.16-9.33-5.83-16.35-1.26-26.15,14.66-31.44,17.52-64.56,7.67-97.83-16.64-56.18-53.98-92.22-111.59-102.72-61.03-11.12-110.18,11.22-145.88,62.05-3.58,5.09-7.01,6.89-13.03,6.91-40.85,.08-80.1,8.3-117.45,24.83-6.77,3-10.55,1.63-15.87-3.09-25.18-22.36-54.37-28.34-85.78-16.35-51.55,19.67-69.67,80.4-38.51,126.12,2.8,4.11,7.25,7.1,3.13,13.88-23.97,39.4-37.64,82.32-41,128.3-.76,10.37-4.56,12.98-14.62,12.73-28.24-.71-34.45,6-34.45,34.41,0,72.02,0,144.03,0,216.05,0,5.7,1.11,11.24-7.16,13.23-11.71,2.82-16.98,11.93-16.64,23.31,.46,15.85-5.41,33.99,13.67,44.31,3.99,2.16,8.13,2.1,12.33,2.12,15.01,.07,30.04,.34,45.04-.11,6.21-.19,9.35,2,12.66,7.26,34.35,54.59,108.16,54.7,142.54,.2,3.62-5.75,7.41-7.49,13.81-7.44,37.73,.25,75.46,.33,113.18-.03,8.34-.08,13.39,1.77,18.37,9.57,30.24,47.39,96.99,53.15,131.65,9.04,12.92-16.44,25.39-19.36,43.11-18.67,16.56,.64,25.68-8.9,26.17-25.32,.61-20.8,.61-41.55-6.61-61.51-2.03-5.61-1.36-9.72,3.72-14.02,13.54-11.47,25.59-24.55,35.91-38.98,4.88-6.83,7.25-5.12,11.29,.48,11.03,15.29,22.74,30.1,33.73,45.41,4.08,5.69,6.22,5.95,10.55,.05,20.97-28.51,43.2-56.13,63.44-85.14,31.02-44.48,11.15-106.86-38.95-125.38ZM504.53,56.03c78.43-17.71,147.68,45.33,143.53,124.51-.27,25.93-11.03,50.35-28.56,72.41-27.53,34.64-54.83,69.47-81.86,104.5-5.8,7.52-8.76,10.07-15.96,.57-27.65-36.5-56.44-72.13-84.55-108.28-56.01-72.04-21.47-173.64,67.4-193.7ZM156.02,154.88c11.81-20.86,30.92-31.38,54.55-30.04,25.05,1.43,43.03,14.87,52.71,38.52,2.68,6.54,3.28,13.4,3.22,21.07,.73,12.52-3.29,24.39-11.03,34.9-14.13,19.19-28.62,38.12-42.76,57.3-3.35,4.54-5.39,6.81-9.84,.67-14.44-19.92-30.02-39.04-43.99-59.27-13.83-20.03-14.91-41.87-2.86-63.15ZM77.73,697.23c-4.21,0-8.49-.53-12.6,.1-10.25,1.57-12.82-2.51-12.8-12.56,.01-9.49,3.16-11.62,11.75-11.04,9.9,.68,19.88,.4,29.81,.06,5.09-.17,6.22,1.56,6.33,6.54,.38,16.9,.63,16.89-22.49,16.89Zm106.49,47.25c-32.54,.29-59.79-26.22-60.48-58.82-.67-31.73,27.06-59.73,59.45-60.03,32.77-.3,59.66,26.21,59.84,59.01,.19,33.15-25.75,59.55-58.81,59.84Zm70.56-102.52c-33.9-53.77-108.03-53.85-142.19-.44-3.87,6.06-28.66,11.11-34.11,6.88-2.54-1.97-1.67-4.94-1.67-7.53-.04-73.95,.06-147.9-.18-221.85-.02-6.96,2.55-8.23,8.74-8.16,25.79,.28,51.6,.51,77.38-.1,8.33-.2,9.23,3.11,9.12,10-.34,22.72-.19,45.45-.07,68.17,.02,3.67-1.1,7.57,1.59,12,16.12-7.97,32.43-15.45,48.13-24.04,7.38-4.04,13.09-3.75,20.28,.22,13.43,7.42,27.66,13.4,41.13,20.76,7.95,4.34,8.67,1.42,8.59-5.77-.27-23.88,.2-47.76-.28-71.64-.15-7.62,2.11-9.78,9.67-9.64,25.4,.45,50.83,.52,76.23-.03,8.09-.17,9.3,2.85,9.28,9.94-.22,72.79-.27,145.59,.05,218.39,.04,8.22-2.33,10.26-10.32,10.16-35.8-.42-71.61-.29-107.42-.08-6.26,.04-10.25-1.34-13.96-7.23Zm11.85-179.5c-9.65-4.69-18.17-8.07-25.86-12.8-6.83-4.2-12.36-3.63-18.98,.22-7.81,4.54-16.23,8.03-26,12.76,0-16.67,.05-31.57-.02-46.47-.02-5.05,3.24-5.21,6.95-5.2,19.19,.04,38.38,.09,57.56-.04,4.05-.03,6.48,.69,6.41,5.54-.19,14.84-.07,29.69-.07,45.99Zm112.41,234.85c-17.67-.32-35.34-.08-53.01-.08-17.29,0-34.59-.43-51.86,.18-8.78,.31-8.35-4.7-7.41-10.2,.88-5.18-4.84-13.62,7.5-13.46,34.95,.47,69.92,.4,104.87-.02,7.55-.09,8.71,3.36,7.11,8.86-1.51,5.19,6.21,14.97-7.2,14.73Zm90.59,47.15c-32.84-.21-59.6-27.06-59.41-59.59,.2-32.47,27.41-59.35,59.95-59.24,32.52,.11,59.57,27.37,59.35,59.79-.23,32.77-27.08,59.24-59.89,59.04Zm72.96-100.1c-24.6-45.17-86.81-57.7-127.83-21.98-.78,.68-1.97,.88-4.61,1.99,0-46.14,.09-90.69-.11-135.24-.03-6.07,2.83-6.82,7.75-6.8,34.22,.12,68.45-.06,102.67,.14,10.13,.06,17.09,9.2,16.3,19.64-.4,5.23-4,3.69-6.63,3.71-14.23,.14-28.46-.02-42.68,.09-20.58,.15-28.79,9.09-29.69,29.39-1.66,37.24,6.79,44.31,42.79,42.66,15.73-.72,31.53-.1,47.29-.14,4.33-.01,8.52-.36,9.64,5.55,1.07,5.65,2.77,11.17,4.13,16.76,3.88,15.95,7.73,31.91,11.86,48.95-8.2,0-15.47-.12-22.72,.05-3.84,.09-6.19-1.16-8.15-4.77Zm-52.99-113.84c15.75,.74,31.56,.21,47.34,.17,3.53,0,7.33-.32,8.35,4.14,1.36,5.95,2.78,11.98,3.09,18.02,.09,1.82-3.98,1.14-6.16,1.16-8.85,.09-17.71,.04-26.56,.04-8.47,0-17-.65-25.39,.17-10.11,.98-9.12-5.31-8.79-11.57,.29-5.58-2.66-12.63,8.13-12.12Zm75.36,167.09c-10.15,.12-15-2.14-11.25-12.41-3.82-12.83,4.44-10.9,11.91-11.56,9.81-.87,11.93,2.77,12.07,12.17,.15,10.29-3.75,11.68-12.73,11.79Zm54.41-136.64c-10.08,12.57-19.86,25.32-33.53,37.03-6.62-26.26-12.93-51.31-19.26-76.37-2.82-11.17-5.62-22.34-8.5-33.49-5.09-19.69-16.99-29.31-37.07-29.41-33.49-.16-66.99-.27-100.48,.11-7.91,.09-11.03-1.99-10.54-10.31,.66-11.13,.26-22.33,.14-33.5-.21-19.96-8.1-27.89-28.23-27.91-81.23-.08-162.46-.31-243.69,.27-11.92,.08-13.92-3.53-12.78-14.32,4.12-39.11,15.2-75.81,35.74-111.33,15.69,20.83,30.67,40.71,46.39,61.57,10.5-13.9,20.46-27.02,30.35-40.2,12.24-16.31,24.68-32.48,36.57-49.04,16.8-23.39,21.13-49.15,12.01-76.54-2.15-6.45-.86-8.56,4.96-11.07,30.37-13.09,62.22-19.27,95-21.73,7.24-.54,7.3,2.09,5.73,7.89-13.82,50.89-2.97,96.26,29.93,137.24,33.97,42.32,67.31,85.14,100.5,128.08,5.69,7.36,8.32,7.17,13.88-.01,31.06-40.19,62.58-80.03,93.96-119.97,2.33-2.96,4.8-5.81,8.19-9.89,9.88,15.95,15.85,32.25,21.2,48.86,8.8,27.33,12.39,55.42,12.96,84.01,.13,6.71-.94,10.43-9.09,12.83-60.14,17.72-81.22,80.95-44.49,132.35,3.97,5.55,4.67,9.22,.17,14.83Zm117-38.58c-13.83,23.37-31.98,44.17-48.1,66.2-3,4.1-5.02,3.32-7.73-.37-15.49-21.06-31.92-41.48-46.5-63.14-12.58-18.69-12.67-39.32-1.75-59.04,11.1-20.05,28.77-30.32,51.8-31.07,45.21-.4,75.34,48.47,52.28,87.42Zm-302.02-170.43c3.24,12.89-5.84,10.41-13.48,11.3-11.18,1.29-10.55-4.98-11.3-13.03-1.15-12.39,6.18-10.63,14.04-11.4,11.08-1.09,12.24,4.53,10.74,13.13Zm-96.03-.79c2.6,10.04-2.01,11.87-11.34,12.25-10.77,.44-12.22-3.55-12.51-13.11-.32-10.65,4.19-11.25,12.76-11.53,9.89-.32,13.49,2.8,11.09,12.39Zm47.93,.47c2.86,10.56-2.96,11.26-11.65,11.72-10.44,.56-12.2-3.11-12.66-12.83-.57-11.86,5.37-11.11,13.66-11.71,10.67-.77,12.42,4.08,10.65,12.82ZM529.38,77.11c-53.1,.09-95,41.94-95.07,94.97-.07,53.39,42.46,95.75,95.88,95.5,52.81-.25,94.42-42.47,94.36-95.73-.06-53.07-42.01-94.83-95.17-94.74Zm.28,166.65c-39.51,.09-71.68-32.38-71.52-72.19,.15-38.98,32.37-70.71,71.73-70.63,39.21,.08,71.09,32.14,71.01,71.41-.08,39.21-32.1,71.32-71.22,71.41Zm154.57,215c-20.07,.13-35.89,16.25-35.47,36.16,.4,19.24,16.4,35.31,35.48,35.63,19.37,.32,35.71-16.23,35.75-36.21,.04-20.4-15.35-35.7-35.76-35.57Zm-.17,47.03c-7.13-.66-11.19-4.51-10.98-11.9,.21-7.45,4.94-11.46,11.83-11.24,6.91,.22,11.4,4.7,11.19,11.97-.21,7.28-4.58,10.98-12.03,11.17ZM206.93,148.55c-19.79,.45-35.06,15.85-35.15,35.42-.09,19.92,15.87,35.92,35.84,35.94,19.98,.01,35.71-15.92,35.6-36.04-.12-20.15-16.17-35.78-36.29-35.32Zm.85,47.55c-7.19-.72-11.58-4.54-11.68-11.7-.1-7.2,3.97-11.44,11.37-11.57,7.47-.12,11.66,4.25,11.69,11.28,.03,6.96-4.27,11.12-11.37,11.98Zm-23.67,453.1c-19.52-.29-35.9,15.9-36.03,35.62-.14,20.1,15.33,35.85,35.31,35.97,19.83,.11,35.98-15.59,36.25-35.25,.27-19.42-15.98-36.04-35.54-36.33Zm-.75,47.81c-7.08-.28-11.37-5.09-11.25-12.08,.12-7.15,4.43-11.09,11.94-10.95,7.66,.15,10.8,4.57,11.4,11.35-1.16,7.23-4.89,11.96-12.09,11.68Zm286.9-47.79c-19.68-.3-35.89,15.88-35.91,35.85-.02,20.29,15.45,35.76,35.7,35.72,20.13-.04,35.66-15.88,35.38-36.09-.28-19.74-15.58-35.18-35.17-35.48Zm-.15,47.75c-6.9,.11-11.56-4.23-11.87-11.42-.32-7.43,4-11.13,10.65-11.57,7.99,.02,12.27,3.41,12.33,11.01,.06,7.36-4.11,11.87-11.11,11.98Z"/>
</svg>