<?xml version="1.0" encoding="UTF-8"?>
<svg id="Layer_1" data-name="Layer 1" xmlns="http://www.w3.org/2000/svg" viewBox="0 0 800 800">
  <defs>
    <style>
      .cls-1 {
        fill: none;
      }

      .cls-2 {
        fill: #010101;
      }
    </style>
  </defs>
  <rect class="cls-1" width="800" height="800"/>
  <path class="cls-2" d="M767.95,475.13c-.03-24.56-14.24-38.61-39.08-38.63-60.83-.06-121.65-.06-182.48,0-25.33,.03-39.06,14.08-39.1,39.79-.04,22.51-.36,45.04,.17,67.54,.19,8.25-.99,12.41-10.65,11.35-8.98-.98-18.18-.7-27.22-.06-7.64,.54-10.04-1.73-9.91-9.66,.49-29.22,.45-58.46,.02-87.68-.11-7.56,1.8-11.31,9.13-14.89,32.81-16.05,36.93-61.78,5.84-79.88-14.43-8.4-15.91-17.6-14.84-30.79,.29-3.53,0-7.11,.05-10.66,.2-12.57-4.41-29.55,1.95-36.55,7.25-7.97,24.54-2.95,37.31-2.21,40.34,2.32,58.77-9.51,55.69-56.07-.83-12.5-4.62-30.01,1.78-36.46,8.01-8.07,25.32-1.52,38.55-2.6,6.31-.51,8.06,1.88,9.9,8,11.38,37.88,50,59,87.63,48.71,35.57-9.73,59.21-47.24,48.91-83.79-4.88-17.34-.64-27.09,11.88-36.49,.94-.7,1.56-1.83,2.51-2.51,7.81-5.53,7.88-9.89,.75-17.38-7.69-8.08-12.1-7.15-18.1,.66-2.86,3.72-7,6.46-9.92,10.15-4.96,6.26-8.8,6.97-16.19,1.94-35.21-23.93-83.96-13.59-100.46,25.18-9.21,21.64-21.34,23.49-39.44,21.81-3.13-.29-6.36-.38-9.47,.03-6.72,.89-8.83-1.64-8.63-8.45,.47-16.58,.3-33.18,.12-49.76-.24-21.72-14.72-36.5-36.33-36.59-47-.2-94.01-.21-141.01,.01-20.99,.1-35.56,14.85-35.87,35.82-.24,16.19-.75,32.43,.21,48.57,.58,9.79-3.45,10.89-11.52,10.53-7.42-.34-14.64,.89-12.51-10.5,1.27-6.79-.06-11.45-8.52-13.39-30.77-7.06-30.37-7.41-14.09-34.21,3.46-5.7,3.58-9.26-1.59-13.93-9.08-8.19-17.47-17.14-26.12-25.79q-14.42-14.41-32.27-4.14c-14.03,8.07-17.56,6.49-21.58-9.66-.38-1.53-.78-3.07-.94-4.62-1.17-11.24-6.59-16.05-18.5-14.53-9.33,1.19-18.93,.24-28.41,.24q-22.17,0-28.71,22.04c-3.67,12.38-7.36,13.94-18.44,7.76-4.12-2.3-8.53-4.26-12.23-7.12-5.98-4.62-10.04-3-14.85,2.1-10.82,11.49-22.03,22.64-33.5,33.49-4.72,4.47-5.67,7.73-2.18,13.87,14.66,25.79,14.44,26.1-14.56,34.76-5.75,1.72-8.22,3.95-8.01,10.4,.52,16.57,.56,33.19-.01,49.76-.22,6.52,2.43,8.49,8.02,10.15,28.92,8.63,29.15,8.92,14.51,34.77-3.51,6.19-2.39,9.47,2.29,13.87,10.64,10.01,21.35,20.04,30.94,31.01,6.57,7.52,11.55,8.39,20.32,3.07,22.7-13.78,23.74-13.45,30,12.38,2.48,10.24,6.7,13.92,16.48,12.2,7.23-1.27,8.12,2.49,8.1,8.66-.2,57.27-.25,114.54,.05,171.81,.04,7.28-1.82,9.32-9.19,9.19-27.25-.47-54.51-.23-81.76-.17-25.61,.06-39.53,13.89-39.55,39.35-.04,60.43-.04,120.86,0,181.3,.02,25.91,14.23,40.07,40.34,40.14,33.97,.08,67.94,.02,101.91,.02,34.36,0,68.73,.11,103.09-.04,24.48-.11,38.99-14.68,39.02-39.07,.07-60.83,.05-121.65,0-182.48-.02-25.33-14.06-39.16-39.71-39.21-27.25-.06-54.51-.16-81.76,.1-6.11,.06-9.07-.76-9.03-8.09,.3-58.06,.23-116.12,.06-174.18-.02-5.41,1.16-8.59,7.05-7.25,12.48,2.85,16.37-4.37,18.15-14.69,.66-3.84,2.13-7.53,3.1-11.32,2.16-8.42,7.37-9.44,14.29-5.82,4.88,2.55,9.86,5.05,14.28,8.28,6.06,4.41,10.33,4.27,15.69-1.76,9.43-10.6,19.38-20.9,30.12-30.14,8.07-6.95,8.79-12.23,3.04-21.47-13.62-21.89-13.14-22.69,11.43-28.85,9.56-2.4,15.64-5.45,13.38-16.69-2.03-10.1,5.6-8.31,10.98-7.77,5.04,.51,13.32-4.43,12.82,7.43-.68,16.17-.24,32.38-.15,48.58,.13,23.68,14.62,38.33,38.31,38.6,16.19,.18,32.4,.29,48.58-.1,6.02-.14,8.2,1.27,8.05,7.73-.44,18.95-.29,37.92-.07,56.87,.06,5.22-1.06,8.1-6.55,10.46-18.72,8.07-28.99,22.79-28.93,43.34,.06,19.97,9.82,34.63,28,42.82,6.07,2.73,7.59,6.05,7.54,12.32-.3,37.92,.03,75.84-.31,113.75-.07,7.14,1.56,9.51,9.08,9.26,18.15-.6,36.34,.08,54.5-.34,6.32-.15,7.9,1.86,7.82,7.96-.33,23.69-.18,47.4-.12,71.09,.07,25.12,14.41,39.52,39.73,39.56,60.43,.09,120.87,.1,181.3,0,25.25-.04,39.62-14.49,39.64-39.65,.05-60.83,.06-121.65,0-182.48Zm-135.12-324.04c13.07-21.21,40.49-28.67,62.11-17.33,7.65,4.02,8.87,7.6,1.77,13.35-4.27,3.46-8.32,7.4-11.69,11.72-7.55,9.68-14.44,12.84-22.95,.76-5.36-7.61-8.17,.67-11.67,3.09-8.73,6.05-9.2,11.87-.33,18.81,6.48,5.07,12.18,11.28,17.6,17.53,4.27,4.92,6.95,4.23,11.19-.16,12.05-12.5,24.58-24.52,36.96-36.7,.2-.2,.77-.02,1.16-.02,7.3,16.89,1.43,37.79-14.11,50.19-17.23,13.75-39.15,14.38-56.97,1.65-20.53-14.67-26.13-41.66-13.05-62.89ZM293.96,727.06c-.02,13.69-3.79,17.46-17.58,17.47-67.09,.06-134.17,.05-201.26,0-14.49,0-18.1-3.65-18.12-18.12-.05-45.77,.35-91.55-.31-137.32-.14-9.74,3.35-10.56,11.38-10.47,35.91,.38,71.82,.17,107.73,.17s71.82,.23,107.73-.18c7.77-.09,10.77,1.14,10.68,9.95-.49,46.16-.19,92.34-.25,138.5Zm-17.17-195.69c5.16,0,10.51-.43,14.22,4.07,4.16,5.05,3.92,11.38,2.49,16.96-1.32,5.16-6.77,2.42-10.25,2.44-36.32,.2-72.65,.12-108.97,.12s-71.07,.13-106.6-.19c-3.66-.03-10.32,3.79-10.66-4.72-.31-7.68-.5-15.48,9-18.17,2.59-.73,5.48-.49,8.23-.49,67.51-.02,135.03-.01,202.54-.03Zm6.64-338.11c-5.51,.88-12.62,.96-15.62,6.54-4.42,8.22-8.93,16.95-10.44,25.96-.77,4.59,4.58,10.49,7.8,15.38,3.62,5.5,3.85,9.84-1.78,14.12-3.11,2.36-5.97,5.25-8.33,8.37-4.23,5.6-9.01,6.29-13.83,1.57-14.94-14.61-28.19-2.37-41.45,2.84-6.43,2.52-5.84,10.77-6.95,16.53-1.52,7.86-5,10.79-12.69,9.77-3.1-.41-6.36-.43-9.45,0-7.85,1.11-10.93-2.26-12.51-9.93-2.69-13.08-18.93-26.95-31.83-27.29-6.34-.17-11.33,5.09-16.56,8.38-5.72,3.6-9.28,2.96-14.06-1.92-13.89-14.17-14.38-14.05-4.42-31.7,2.69-4.77,3.09-8.37,.14-12.84-1.7-2.58-3.25-5.56-3.76-8.55-1.96-11.57-9.62-16.41-20.26-17.48-8.32-.83-10.94-4.66-10.66-13.11,.6-17.98,.06-18.09,17.39-23.14,6.06-1.77,10.02-4.71,11.82-11.35,1.83-6.75,5.37-13.03,8.47-20.23-2.6-4.62-5.09-10-8.46-14.76-4.29-6.04-3-10.07,2.13-15.09,13.71-13.39,13.54-13.78,30.67-4.13,4.45,2.51,7.73,2.73,12.87,.85,14.59-5.34,27.42-11.24,27.73-29.73,.06-3.43,2.91-5.2,6.74-4.98,4.33,.25,8.75,.55,13-.05,8.75-1.23,12.57,2.14,14.21,10.93,2.22,11.88,19.67,26.05,31.61,25.81,4.21-.09,8.79-3.23,12.43-6,7.95-6.05,14.6-6.31,20.52,2.52,1.08,1.61,2.57,3.07,4.17,4.17,7.05,4.84,6.48,9.89,2.33,16.88-11.64,19.65-2.66,41.78,19.61,46.43,15.36,3.21,8.39,14.03,9.97,22.09,1.67,8.53-2.41,11.83-10.55,13.13Zm91.46-100.02c2.26-.52,4.72-.28,7.08-.28,44.21-.01,88.42,0,132.64-.02,5.6,0,11.1-.06,14.45,5.76,2.99,5.2,3.04,11.12,1.17,16-1.53,4-7.09,1.72-10.8,1.74-24.08,.18-48.16,.09-72.24,.09s-47.37,.18-71.05-.18c-4-.06-11.07,3.91-11.12-5.55-.04-7.89,.26-15.35,9.87-17.57Zm6.33,165.43c-12.1-.03-16.05-4.19-16.1-16.54-.11-31.16,.16-62.32-.19-93.48-.08-6.72,1.84-8.56,8.51-8.46,24.84,.39,49.7,.15,74.55,.15,24.85,0,49.71,.22,74.55-.15,6.53-.1,8.69,1.49,8.61,8.36-.37,31.16-.09,62.32-.2,93.48-.04,12.41-3.96,16.59-16.01,16.63-44.57,.13-89.15,.13-133.72,0Zm43.15,141.69c.2-12.64,10.7-22.9,23.52-22.98,12.75-.08,23.43,10.12,23.8,22.71,.37,12.71-10.84,24.37-23.52,24.47-12.6,.1-24-11.49-23.8-24.2Zm319.88,255.91c-.02,13.1-3.87,17.13-16.71,17.14-59.98,.09-119.96,.09-179.94,0-12.78-.02-16.58-4.06-16.6-17.24-.07-46.56,.17-93.12-.22-139.68-.06-7.53,2.14-9.06,9.23-8.97,32.75,.38,65.5,.17,98.25,.17s64.72,.24,97.07-.18c7.28-.09,9.18,1.73,9.12,9.09-.37,46.56-.14,93.12-.21,139.68Zm-.5-175.04c-1.59,5.29-7.5,2.48-11.35,2.51-31.98,.24-63.96,.14-95.94,.14s-63.17,.14-94.75-.19c-3.66-.04-10.33,3.81-10.7-4.67-.34-7.67-.54-15.48,8.94-18.21,2.58-.74,5.48-.5,8.23-.5,59.62-.02,119.23-.01,178.85-.03,5.16,0,10.5-.45,14.23,4.04,4.19,5.04,4.13,11.46,2.49,16.92ZM175.45,697.16c28.81,0,57.64,.53,86.44-.27,11.13-.31,8.36,6.41,8.32,12.09-.04,5.64,2.89,12.35-8.24,12.25-57.62-.52-115.26-.53-172.88,0-11.08,.1-8.33-6.48-8.32-12.18,.01-5.65-2.87-12.44,8.25-12.15,28.79,.75,57.62,.25,86.44,.25Zm58.98-70.96c-9.07,0-18.2-.66-27.2,.17-10.19,.94-8.48-5.8-7.89-11.25,.55-5-4.6-13.31,7.3-12.92,18.52,.61,37.09,.73,55.59-.05,11.33-.48,7.74,6.98,7.95,12.38,.22,5.86,2.41,13.07-8.57,11.87-8.96-.98-18.12-.2-27.19-.2Zm-.21,47.4c-9.47,0-18.94-.26-28.39,.1-5.18,.2-6.54-1.55-6.8-6.66-.88-17.29-1.13-17.27,16.1-17.27,15.78,0,31.58,.6,47.32-.21,10.38-.54,8.09,6.13,7.67,11.39-.4,5.11,4.24,13.59-7.51,12.79-9.42-.64-18.92-.13-28.39-.13Zm403.43-23.7c-24.86,0-49.75-.54-74.59,.25-11.1,.35-8.31-6.5-8.3-12.2,0-5.66-2.81-12.26,8.27-12.13,49.72,.58,99.46,.59,149.18,0,11.11-.13,8.32,6.44,8.29,12.11-.02,5.66,2.86,12.58-8.27,12.23-24.84-.78-49.72-.24-74.59-.24Zm48.48-118.63c6.31,0,12.62,0,18.93,0,17.15,0,16.97-.01,15.65,17.71-.33,4.36-1.23,6.27-6.02,6.22-19.72-.22-39.44-.2-59.16,0-4.59,.05-5.82-1.51-6.2-6.04-1.47-17.89-1.67-17.87,16.68-17.87,6.7,0,13.41,0,20.11,0Zm-.89,47.4c7.89,0,15.87,.78,23.64-.19,10.29-1.28,11.93,2.83,12.11,12.27,.2,10.18-2.92,12.47-12.53,12-16.92-.83-33.93-.8-50.86-.05-12.57,.56-7.26-8.18-8.02-13.57-.85-6.04-1.2-11.72,8.47-10.66,8.96,.99,18.12,.21,27.19,.21ZM446.83,235.16c-16.57,0-33.18-.65-49.7,.23-11.15,.59-8.24-6.56-8.27-12.21-.02-5.67-2.82-12.35,8.29-12.11,33.92,.72,67.87,.71,101.79,0,11.09-.23,8.26,6.47,8.26,12.13,0,5.69,2.81,12.75-8.3,12.19-17.32-.88-34.71-.23-52.07-.23Zm24.07-47.4c-7.89,0-15.9-.87-23.63,.2-11.48,1.59-10.9-4.73-11.41-12.98-.61-9.84,3.12-11.58,11.86-11.24,16.93,.64,33.96,.95,50.85-.07,12.14-.73,8.14,7.15,8.7,12.95,.65,6.71,.88,12.43-9.18,11.34-8.97-.97-18.12-.2-27.19-.2Zm-58.85-12.11c3.28,11.55-2.86,11.94-11.72,12.48-10.62,.64-11.6-3.55-11.96-12.64-.42-10.47,3.29-11.96,12.58-11.91,9.71,.05,14.2,2.3,11.11,12.08Zm-236.45,433.86c.1-5.69-1.59-7.33-7.28-7.27-26.83,.28-53.66,.28-80.49,0-5.69-.06-7.38,1.59-7.28,7.28,.33,18.93,.31,37.88,.01,56.81-.09,5.59,1.47,7.55,7.27,7.38,13.4-.4,26.83-.13,40.24-.13s26.84-.27,40.24,.13c5.8,.17,7.35-1.8,7.27-7.38-.29-18.94-.32-37.88,.01-56.81Zm-35.84,40.45c-9.34-.91-18.84-.51-28.24-.08-5.77,.27-7.14-1.83-7.3-7.36-.48-16.36-.75-16.35,15.69-16.35,2.75,0,5.5,0,8.24,0,3.93,0,7.94,.51,11.76-.1,9.76-1.57,12.31,2.02,12.3,11.88-.02,9.93-2.69,12.95-12.44,12.01Zm486.12-110.7c.09-5.76-.94-8.33-7.6-8.16-18.53,.48-37.09,.52-55.62-.01-7.25-.21-8.4,2.67-8.1,8.86,.44,9.05,.11,18.14,.11,27.22,0,8.68,.38,17.38-.12,26.03-.4,6.77,.92,9.79,8.8,9.5,18.12-.66,36.29-.43,54.43-.08,5.98,.12,8.29-1.22,8.14-7.73-.43-18.53-.34-37.08-.04-55.62Zm-36.57,39.74c-11.31,.88-12.17-4.73-10.7-13.34-3.76-12.63,5.28-9.8,12.52-10.8,11.36-1.57,10.62,4.7,11.29,12.83,.95,11.41-4.97,10.67-13.11,11.3ZM176.02,104.7c-39.74-.18-71.57,31.24-71.63,70.7-.06,39.38,31.96,71.59,71.14,71.55,38.71-.03,70.69-31.76,71.03-70.46,.35-39.69-31.02-71.61-70.54-71.79Zm-.3,118.42c-25.57,.18-47.41-21.48-47.6-47.22-.19-25.97,20.97-47.24,47.12-47.35,26.19-.11,47.53,20.89,47.61,46.87,.08,25.74-21.44,47.52-47.13,47.71Z"/>
</svg>