<?xml version="1.0" encoding="UTF-8"?>
<svg id="Layer_1" data-name="Layer 1" xmlns="http://www.w3.org/2000/svg" viewBox="0 0 800 800">
  <defs>
    <style>
      .cls-1 {
        fill: none;
      }

      .cls-2 {
        fill: #010101;
      }
    </style>
  </defs>
  <rect class="cls-1" width="800" height="800"/>
  <path class="cls-2" d="M741.73,555.05c-13.52-85.78-78.23-149.56-164.54-161.28-8.86-1.2-11.03-3.57-10.99-12.33,.38-81.43-.7-162.88,.69-244.29,.53-31-12.8-50.77-38.13-65.26-28.62-16.37-59.85-25.28-91.86-31.29-81.18-15.24-162.64-15.94-244.08-2.12-38.6,6.55-76.44,15.87-110.1,37.14-20.7,13.08-31.56,30.63-31.17,56.6,1.08,72.87,.38,145.76,.38,218.65,0,74.11,.48,148.22-.29,222.31-.23,22.33,8.64,38.44,26.08,50.58,8.3,5.78,17.18,10.97,26.38,15.18,32.4,14.82,66.86,22.48,101.91,27.64,56.24,8.28,112.72,9.34,169.29,4.39,7.42-.65,11.36,1.44,15.53,7.89,44.02,68.07,106.23,99.72,187.41,90.36,104.02-11.99,179.66-111.61,163.5-214.17ZM92.42,99.15c18.02-13.13,38.7-20.77,59.9-26.38,80.91-21.39,162.95-23.91,245.68-13.38,34.38,4.38,67.99,11.59,100.07,25.01,12.44,5.2,24.41,11.27,34.15,20.84,11.98,11.77,12.09,21.66-.38,33.12-18.49,17-41.77,24.72-65.22,31.56-51.59,15.04-104.63,19.03-159.52,20.13-60.1-1.54-121.17-6.27-179.66-27.84-12.23-4.51-24-10.08-34.64-17.71-21.28-15.27-21.45-30.01-.39-45.35Zm-16.03,166c.94-32.92,.29-65.88,.29-100.5,95.9,63.91,361.05,67.73,465.11-.41,0,7.75,0,14.38,0,21.02,0,26.47-.67,52.97,.25,79.41,.54,15.41-6.21,25.51-18.09,33.51-24.05,16.17-51.27,24.46-79.11,30.62-77.2,17.08-155.1,17.67-233.12,7.36-33.85-4.47-67.2-12.07-98.37-26.88-6.59-3.13-12.94-6.84-19.16-10.68-12.39-7.63-18.24-18.08-17.8-33.45Zm290.59,381.7c-72.31,5.71-143.88,2.26-214.22-16.74-20.84-5.63-40.95-13.16-59.09-25.26-11.66-7.78-17.7-17.66-17.25-32.53,.89-29.68,.25-59.42,.29-89.13,0-3.53,.34-7.06,.6-12.13,35.66,22.78,74.32,33.05,113.99,39.95,57.6,10.02,115.65,11.76,173.87,7.28,7.2-.55,9.57-.59,6.97,7.8-11.62,37.51-11.64,75.2,.43,112.67,1.91,5.94,.68,7.59-5.59,8.08Zm14.39-154.44c-84.95,7.09-169.08,5.15-250.86-22.63-6.52-2.21-12.74-5.28-19.09-7.98-24.33-10.37-38.1-25.91-35.33-55.25,2.7-28.61,.59-57.67,.59-88.18,73.2,41.71,152.72,48.88,232.88,48.77,79.85-.11,159.11-7.15,232.23-49.58,0,23.82-.23,45.4,.14,66.96,.11,6.42-2.15,7.94-8.23,8.67-62.56,7.55-110.33,38.4-143.38,92.01-2.14,3.47-4,6.79-8.96,7.2Zm171.29,254.6c-90.75-.31-164.9-75.28-164.53-166.36,.36-90.32,74.7-163.84,165.57-163.75,91.62,.1,164.92,73.72,164.66,165.41-.25,91.37-74.34,165.01-165.69,164.7Zm-244.3-456.37c-8.92-.02-17.84,.09-26.76-.05-7.67-.13-12.52-4.23-12.68-11.83-.17-7.66,4.9-12.28,12.23-12.46,18.23-.45,36.49-.47,54.73,0,7.84,.2,13.23,4.96,12.69,13.25-.5,7.68-5.98,11.04-13.44,11.09-8.92,.06-17.84,.01-26.76,0Zm.56,153.31c-8.93,0-17.86,0-26.79-.01-7.7,0-12.82-3.95-13.14-11.42-.35-7.99,4.54-13,12.76-13.11,17.86-.25,35.72-.18,53.58-.03,8.23,.07,13.38,4.85,13.19,12.75-.19,8.09-5.86,11.93-14.02,11.85-8.52-.08-17.05-.02-25.57-.03Zm.66,129.05c8.52-.01,17.05,.09,25.57-.04,7.8-.12,12.7,3.89,13.4,11.21,.72,7.6-4.28,12.85-11.5,13.09-19.05,.62-38.15,.59-57.19-.06-6.66-.23-11.31-5.23-10.93-12.34,.4-7.43,4.72-11.85,12.65-11.84,9.34,0,18.67,0,28.01-.01Zm243.49-133.79c-77.99,.21-141.39,64.37-141.29,142.97,.1,78.54,63.79,142.01,142.18,141.69,78.03-.31,142.45-64.93,142.12-142.55-.33-77.52-65.54-142.32-143.01-142.11Zm20.56,258.38c-6.71,1.14-7.51-1.34-7.3-6.85,.33-8.72-2.97-15.93-12.56-16.18-10.16-.26-12.81,7.12-11.93,15.93,.69,6.93-2.11,8.21-8.52,7.08-48.14-8.49-87.98-48.28-95.76-95.74-.93-5.68,.06-8.63,6.49-8.12,8.57,.68,16.46-1.37,16.72-11.4,.26-10.45-7.52-13.47-16.72-13.17-4.79,.15-7.45-.42-6.66-6.62,5.79-45.44,49.8-90.15,95.12-96.23,.81-.11,1.62-.17,2.97-.31,6.7-1.64,6.57,3.16,6.3,7.91-.48,8.48,1.99,14.74,11.79,14.67,9.37-.06,13.23-6.24,12.64-14.47-.66-9.19,3.98-8.64,10.29-7.49,43.98,8.05,81.93,45.07,91.71,89.52,1.72,7.81,3.02,14.32-9.17,13.31-7.28-.61-12.32,4.17-12.39,12.1-.07,7.86,4.34,12.8,12.09,11.98,11.9-1.26,11.38,5.02,9.69,13.22-9.32,45.23-48.94,83.04-94.8,90.86Zm-7.21-148.55c0,.41,.06,.82,0,1.22-3.43,19.38,3.16,34.28,18.89,46.19,7.15,5.42,15.77,12.5,7.31,23.24-5.78,7.34-12.43,3.98-24.71-5.52-21.58-16.7-30.57-37.19-26.34-64.17,1.37-8.71,.36-17.82,.2-26.75-.14-7.91,3.88-12.65,11.36-12.96,7.54-.31,12.28,4.87,12.94,11.99,.81,8.85,.2,17.83,.2,26.76,.05,0,.1,0,.15,0Z"/>
</svg>