<?xml version="1.0" encoding="UTF-8"?>
<svg id="Layer_1" data-name="Layer 1" xmlns="http://www.w3.org/2000/svg" viewBox="0 0 800 800">
  <defs>
    <style>
      .cls-1 {
        fill: none;
      }

      .cls-2 {
        fill: #010101;
      }
    </style>
  </defs>
  <rect class="cls-1" width="800" height="800"/>
  <path class="cls-2" d="M738.71,435.53c-15.92-.19-31.86-.41-47.76,.13-7.2,.24-8.96-1.99-9.35-9.08-.55-9.97-2.06-20.16-5.04-29.67-15.74-50.3-66.17-83-116.6-76.23-55.79,7.49-94.69,49.06-96.77,104.43-.35,9.21-3.56,10.86-11.69,10.55-15.12-.58-30.29-.29-45.43-.14-24.58,.24-36.77,14.21-34.93,38.46,3.83,50.27,6.91,100.59,10.91,150.85,.81,10.12-2.28,11.91-11.79,11.88-102.91-.36-205.83-.38-308.74,.01-10.08,.04-12.95-2.12-12.9-12.64,.46-97.08,.27-194.17,.27-291.26,0-24.85-.12-49.71,.05-74.56,.1-14.75,5.91-20.87,20.16-21.09,17.08-.27,34.18,.15,51.26-.19,6.06-.12,8.29,1.73,7.96,7.92-.46,8.52-.36,17.09-.05,25.62,.54,14.7,6.32,20.43,20.71,20.75,8.15,.19,16.32,.26,24.46-.02,13.04-.45,19.07-6.59,19.33-19.55,.18-9.32,.27-18.65-.05-27.96-.17-5.08,1.66-6.73,6.66-6.72,53.59,.12,107.18,.12,160.78,0,5.44-.01,7.61,1.63,7.36,7.35-.41,9.3-.23,18.64-.07,27.96,.2,12.06,5.66,18.26,17.31,18.84,9.68,.48,19.43,.49,29.11-.01,11.42-.59,16.64-6.22,17-17.86,.3-9.7,.28-19.42,.03-29.12-.12-4.79,1.18-7.17,6.41-7.11,19.03,.2,38.07-.26,57.08,.36,10.54,.34,15.97,6.79,15.91,17.59-.08,12.81,0,25.63,0,38.45,0,8.23,.75,16.72,11.49,16.55,9.78-.15,11.04-8.12,11.08-15.95,.07-12.81,.29-25.64-.05-38.44-.64-24.74-16.53-40.26-41.35-40.53-16.31-.18-32.64-.51-48.92,.15-8.84,.36-12.01-1.71-11.81-11.33,.64-31.05,.66-62.14,.04-93.19-.82-40.98-31.47-72.04-72.48-72.59-52.42-.71-104.86-.72-157.28,.04-37.66,.54-66.5,27.78-71.51,65.08-2.55,18.97-.81,38-1.19,57-.14,7.29,1.28,14.75,10.71,14.99,10.05,.25,11.67-7.02,11.65-15.13-.03-15.92-.15-31.85,.04-47.77,.36-29.85,21.63-51.32,51.32-51.43,52.04-.18,104.08-.19,156.12,0,29.31,.11,51.28,22.27,51.38,51.68,.16,48.93-.18,97.86,.26,146.79,.08,8.66-3.01,9.93-10.63,10.02-8.14,.09-10.45-2.31-10.38-10.47,.39-44.27,.24-88.54,.16-132.81-.05-30.15-15.74-45.79-45.88-45.82-40.78-.05-81.55-.01-122.33-.01-35.38,0-50.21,14.79-50.23,50.14-.02,43.11-.19,86.21,.17,129.32,.07,7.85-2.53,9.81-9.95,9.61-6.72-.19-10.63-.59-10.25-9.16,.73-16.28,.21-32.61,.2-48.92,0-6.86-2.04-12.53-9.78-13.52-7.83-1-11.78,3.96-12.27,10.81-.43,6.05-3.2,6.65-8.17,6.58-16.7-.24-33.4-.15-50.1-.08-27.88,.12-42.86,15.26-42.87,43.29-.02,70.29,0,140.58,0,210.87,0,70.29-.02,140.58,.04,210.87,0,4.62,.01,9.39,1.05,13.85,4.62,19.81,19.35,29.8,43.79,29.81,101.75,.05,203.5,.01,305.24,.04,5.49,0,11.47-1.83,12.18,7.52,1.68,22.11,20.12,32.43,39.57,32.01,41.53-.9,83.1-.27,124.65-.27,54.76,0,109.51,.1,164.27-.06,19.88-.06,34.47-12.13,36.05-30.65,2.41-28.21,3.88-56.5,5.68-84.76,.46-7.28-2.69-12.67-10.26-12.62-8.79,.06-11.16,6.46-11.64,14.37-1.52,25.16-3.47,50.3-5.07,75.45-.66,10.45-4.61,16.46-16.34,16.43-96.7-.2-193.4-.15-290.1-.06-9.45,0-14.44-4.03-15.11-13.59-1.31-18.56-2.89-37.11-4.25-55.66-2.12-29.01-4.19-58.03-6.19-87.04-2.63-37.92-5.07-75.86-7.83-113.78-.74-10.12,3.37-14.1,13.43-13.82,15.52,.43,31.08,.5,46.59-.05,7.64-.27,9.84,2.01,9.88,9.72,.04,6.81-3.2,9.02-8.21,12.01-23.6,14.07-25.3,46.69-3.6,62.49,17.27,12.57,41.43,8.21,53.23-9.6,11.98-18.08,6.62-42.48-13.26-52.9-8.78-4.6-7.53-10.82-6.85-17.22,.87-8.21,8-4.11,12.04-4.13,50.1-.31,100.19-.21,150.29-.2,12.44,0,14.42,2.78,12.37,14.76-.98,5.69-5.92,5.61-9.09,7.83-12.7,8.88-18.4,21.04-16.47,36.04,1.93,14.98,10.44,25.86,25.09,30.52,14.92,4.74,28.45,1.63,39.34-10.07,16.54-17.77,12.66-45.22-9.31-57.43-8.73-4.85-7.18-11.26-6.45-17.53,.93-7.97,8.06-3.74,12.2-3.91,13.96-.57,27.95-.27,41.93-.2,12.92,.07,15.37,3.28,14.42,16.03-3.14,42.17-6.04,84.35-8.86,126.54-.46,6.93,2.22,12.64,10.03,13.01,7.53,.36,11.2-4.45,11.73-11.62,3.15-43.32,6.52-86.63,9.22-129.98,1.41-22.63-11.37-35.54-34.19-35.81ZM192.87,122.46c.08-12.72,6.62-19.41,19.31-19.45,44.99-.16,89.97-.15,134.96-.01,13.19,.04,20.07,6.82,20.19,20.05,.24,27.92-.13,55.85,.23,83.76,.09,6.86-2.31,8.43-8.71,8.36-26.37-.3-52.74-.13-79.11-.13-25.98,0-51.97-.26-77.95,.17-7.09,.12-9.27-1.68-9.15-8.98,.44-27.91,.07-55.84,.23-83.76Zm165.35,579.29c-95.07,0-190.14,0-285.21,0-18.7,0-24.01-5.35-24.11-24.15-.01-2.33,.3-4.7-.05-6.98-1.42-9.05,1.97-11.77,11.32-11.68,52.38,.47,104.77,.23,157.16,.23,52,0,104,.23,155.99-.23,8.41-.08,11.08,2.28,12.24,10.44,4.62,32.42,4.91,32.38-27.33,32.38Zm130.69-190.9c-1.17,9.23-5.88,15.15-14.63,15.81-8.22,.62-13.9-4.14-15.71-12.33-2.12-9.63,1.66-12.89,11.19-10.59,2.51,.6,5.97,1,7.87-.24,10.86-7.1,9.29,2.58,11.28,7.35Zm160.98-75.21c-18.21-.45-36.44-.15-54.66-.15-17.83,0-35.68-.36-53.5,.17-7.37,.22-9.43-2.22-8.99-9.23,.55-8.88,.18-17.83,.12-26.74-.06-7.79-2.75-14.57-11.45-14.48-8.7,.09-11.22,6.82-11.14,14.7,.09,8.92-.42,17.86,.15,26.74,.47,7.34-2.36,9.89-9.31,8.87-1.52-.22-3.15-.29-4.64,0-12.11,2.43-13.61-4.44-12.17-13.82,5.43-35.2,23.13-61.29,57.26-73.86,33.55-12.36,64.17-5.79,90.38,18.28,17.51,16.09,26.75,36.4,27.23,60.64,.15,7.51-2.39,9.03-9.28,8.87Zm35.91,74.43c.28,8.98-6.9,16.64-15.03,16.8-7.78,.16-16.69-7.75-15.66-15.39,.67-4.96-.02-15.33,11.12-7.96,2.11,1.39,6.7,1.28,8.9-.11,10.13-6.4,8.87,2.52,10.66,6.66Z"/>
</svg>