<?xml version="1.0" encoding="UTF-8"?>
<svg id="Layer_1" data-name="Layer 1" xmlns="http://www.w3.org/2000/svg" viewBox="0 0 800 800">
  <defs>
    <style>
      .cls-1 {
        fill: none;
      }

      .cls-2 {
        fill: #010101;
      }
    </style>
  </defs>
  <rect class="cls-1" width="800" height="800"/>
  <path class="cls-2" d="M737.69,570.98c-7.88,.74-9.22-2.37-9.19-9.54,.28-58.75,.26-117.5,.02-176.25-.03-6.55,1.19-9.63,8.49-8.96,11.42,1.05,16.13-5.12,15.99-16.11-.18-13.77-.09-27.55-.03-41.33,.05-10.5-4.83-16.15-15.56-15.29-6.67,.53-8.94-1.45-8.91-8.54,.28-59.16,.27-118.31,0-177.47-.03-6.91,1.91-9.26,8.77-8.68,10.66,.9,15.72-4.62,15.68-15.18-.04-14.18-.03-28.36,0-42.54,.02-10.62-5.2-15.41-15.83-15.18-13.36,.29-26.74,.42-40.09-.04-11.62-.4-18.08,4.19-17.15,16.19,.58,7.47-2.75,8.39-9.11,8.36-42.52-.24-85.05-.24-127.57,0-6.37,.04-9.67-.92-9.09-8.37,.92-12-5.56-16.58-17.17-16.17-12.94,.46-25.93,.46-38.87,0-11.78-.41-17.76,4.59-16.93,16.44,.45,6.4-1.68,8.17-8.11,8.13-42.93-.29-85.86-.29-128.78,0-6.75,.05-9.32-1.6-8.84-8.65,.76-11.17-4.94-16.2-16.21-15.9-13.76,.37-27.54,.29-41.3,.03-10.77-.2-15.61,4.94-15.56,15.45,.06,13.78,.16,27.55-.03,41.33-.15,11,4.56,17.16,15.97,16.12,7.27-.66,8.53,2.38,8.5,8.95-.23,58.75-.26,117.5,.02,176.25,.03,7.14-1.26,10.31-9.17,9.56-10.83-1.03-15.37,5.1-15.31,15.49,.09,14.18,0,28.36,.04,42.54,.02,9.92,4.87,15.62,14.94,14.62,14.53-1.43,7.97,9.24,9.29,15.3,1.98,9.04-3.56,9.26-10.37,9.24-62.37-.17-124.73-.1-187.1-.1-18.83,0-21.17,2.26-21.18,20.68-.02,53.89,0,107.78,0,161.67s-.02,107.78,0,161.67c0,17.99,2.6,20.66,20,20.66,100.43,.01,200.87,.01,301.3,0,16.11,0,19.14-2.97,19.17-19.06,.06-38.49,.25-76.99-.16-115.48-.09-8.4,.98-12.2,10.87-11.61,16.95,1,34.01,.66,51.01,.11,7.83-.25,11.84,.87,11.14,10.13-.76,10,5.15,14.55,15.13,14.4,13.77-.21,27.55-.33,41.3,.04,11.16,.3,17.3-4.5,16.34-15.73-.72-8.45,3.33-8.83,9.94-8.79,42.12,.24,84.24,.3,126.35-.05,7.24-.06,10.16,1.35,9.57,9.21-.79,10.51,4.79,15.54,15.49,15.34,14.17-.26,28.35-.19,42.52-.02,10.14,.12,14.95-4.86,14.99-14.77,.05-14.18-.05-28.36,.04-42.54,.07-10.37-4.45-16.54-15.29-15.51Zm-9.08-229.96c1.42,11.89-5.21,11.95-13.62,10.76-13.1,3.64-9.71-5.97-10.8-13.08-1.84-12.01,5.47-10.41,13.32-11.3,12.33-1.39,10.19,6.06,11.09,13.62Zm-12.21-281.1c9.28,.42,15.05,1.49,11.52,12.02,3.09,11.13-2.01,12.73-11.55,13.02-10.2,.31-12.39-2.73-12.41-12.55-.02-9.89,2.28-12.94,12.44-12.49Zm-217.58,.05c12.33-1.39,10.27,6.04,11.08,13.62,1.24,11.6-4.56,12.72-12.97,10.58-13.73,3.82-10.34-5.8-11.43-12.9-1.84-12.01,5.47-10.41,13.32-11.3Zm-232.1,11.28c-1.54-12.08,5.61-10.4,13.43-11.27,12.29-1.38,11.34,5.88,10.62,14.04,3.79,12.92-5.74,9.67-12.98,10.75-12.34,1.84-10.11-6.01-11.07-13.52Zm.08,267.45c-1.85-12.03,5.49-10.4,13.33-11.29,12.34-1.4,10.18,6.08,11.09,13.62,1.43,11.9-5.22,11.94-13.62,10.75-13.09,3.63-9.7-5.98-10.79-13.08Zm97.24,392.43c.02,7.73-1.72,10.11-9.84,10.09-90.63-.31-181.27-.3-271.91,0-8.01,.03-9.96-2.18-9.91-10.03,.36-49.79,.18-99.59,.18-149.38,0-48.98,.17-97.97-.17-146.95-.05-7.73,1.72-10.11,9.84-10.09,90.63,.31,181.27,.3,271.91,0,8.01-.03,9.92,2.18,9.9,10.02-.27,98.78-.26,197.56,0,296.34Zm7.17-330.57c2.03-5.4,6.29-8.07,9.63-11.41,60.05-60.19,120.19-120.3,180.29-180.45,12.81-12.82,12.73-16.65-.29-29.76-5.99-6.03-12-12.05-17.96-18.11-.47-.48-.62-1.27-1.58-3.31,28.8,0,56.91,.04,85.03-.04,3.66-.01,4.89,1.42,4.88,5.03-.1,27.83-.05,55.65-.05,83.48-1.1,.45-2.19,.9-3.29,1.35-6.32-6.76-12.47-13.69-18.99-20.25-12.03-12.12-15.92-12.08-27.92-.07-59.83,59.85-119.65,119.7-179.42,179.62-3.42,3.43-6.29,7.39-11.05,13.04-2.59-12.66-6.64-20.93-19.26-19.11Zm138.77,206.77c-.45,8.96-.91,15.41-11.81,11.68-11.4,3.2-12.6-2.35-12.86-11.71-.27-9.93,2.28-12.58,12.37-12.59,10.15-.01,12.8,2.72,12.3,12.62Zm185.25-36.41c-10.78-.82-16.14,4.97-15.28,15.37,.68,8.15-2.83,9.05-9.75,9-42.12-.29-84.24-.29-126.35,0-6.92,.05-10.4-.85-9.75-9,.9-11.33-5.45-15.87-16.51-15.55-13.35,.39-26.74,.38-40.09,0-11.23-.32-17.03,4.6-16.29,15.82,.45,6.92-1.86,8.92-8.75,8.74-18.62-.47-37.26-.4-55.88-.03-6.18,.12-8.28-1.42-8.24-7.98,.29-42.14,.25-84.28,.03-126.42-.03-5.52,2.45-8.94,6.02-12.51,64.47-64.39,128.97-128.76,193.15-193.45,6.37-6.42,9.79-5.37,15.23,.54,9.59,10.43,19.94,20.15,29.92,30.21,4.25,4.28,8.93,7.11,15.15,4.67,6.2-2.44,7.94-7.61,7.94-13.71,0-42.95,.02-85.9-.02-128.85,0-9.97-5.03-14.65-15.12-14.62-42.52,.13-85.05,.09-127.57,0-6.06-.01-11.42,.99-14.13,7.11-2.9,6.57-.13,11.56,4.64,16.21,10.72,10.47,21.03,21.36,31.89,31.68,4.43,4.21,4.96,6.74,.25,11.43-65.73,65.43-131.27,131.06-196.76,196.73-3.12,3.13-6.27,4.56-10.65,4.4-7.28-.27-14.58-.07-21.87-.07-15.47,0-14.89-.02-15.37-15.36-.25-8.03,2.65-9.57,9.7-9.07,10.18,.72,14.8-4.95,14.81-14.79,.03-14.18-.04-28.36,.03-42.55,.05-10.46-4.72-16.42-15.46-15.33-8.17,.83-9.01-2.86-8.98-9.72,.24-58.35,.29-116.7-.04-175.05-.04-7.84,1.84-10.69,9.94-10.04,10.25,.82,15.08-5.34,14.37-15.02-.56-7.69,2.06-9.38,9.47-9.31,42.52,.37,85.05,.34,127.57,.03,6.86-.05,9.22,1.79,8.76,8.73-.74,11.22,5.09,16.13,16.3,15.82,13.35-.37,26.74-.38,40.09,0,11.06,.31,17.41-4.25,16.51-15.57-.65-8.19,2.9-9.02,9.78-8.97,42.12,.29,84.24,.29,126.36,0,6.96-.05,10.39,.92,9.73,9.03-.86,10.43,4.6,16.37,15.31,15.28,8.24-.84,9.02,2.96,8.94,9.77-.32,29.17-.14,58.35-.13,87.52,0,28.77-.21,57.54,.14,86.31,.09,7.5-.29,12.24-9.95,11.25-10.25-1.05-14.51,5.28-14.49,15.01,.02,13.78,.15,27.56-.05,41.33-.16,10.91,4.29,17.27,15.81,16.29,7-.59,8.71,1.97,8.69,8.77-.26,59.16-.28,118.32,.02,177.48,.04,7.23-2.47,8.95-9.01,8.45Zm21.14,48.98c-10.12,0-12.83-2.68-12.31-12.61,.46-8.93,.87-15.44,11.8-11.69,11.38-3.19,12.63,2.31,12.87,11.7,.26,9.9-2.24,12.6-12.36,12.6Zm-459.9-162.84c-42.19-18.32-91.51-4.08-118.18,34.13-26.71,38.26-22.5,89.44,10.91,123.5,10.32,10.52,10.31,23.23,9.27,35.65-1.06,12.57-2.04,25.04-.02,37.39,2.69,16.47,17.04,28.21,34.19,28.91,8.49,.35,17,.06,25.5,.06,8.5,0,17.01,.28,25.5-.06,18.58-.75,33.25-13.89,34.88-32.37,1.02-11.57,.19-23.23-.74-34.95-.93-11.68-1.45-24.72,9.37-34.53,13.87-12.56,22.22-28.87,26.09-47.05,9.81-46.12-13.99-92.1-56.77-110.68Zm-11.03,234.4c-17.98,1.55-36.28,1.52-54.27,.06-9.62-.78-9.68-10.52-9.17-18.39,.59-9.24,7.86-4.42,11.96-4.8,8.39-.78,16.91-.23,25.37-.23s16.17-.5,24.16,.22c3.77,.34,10.56-4.12,10.97,4.61,.37,7.86,.52,17.72-9.02,18.54Zm-39.1-144.72h22.79c-3.05,5.89-5.83,13.12-11.09,13.32-4.62,.18-7.2-7.41-11.7-13.32Zm67.25,46.45c-10.52,11.86-19.43,23.09-19.76,40.05-.19,9.94-9.15,10.62-17.37,10.62-9.7,0-5.18-7.13-5.87-11.34-5.12-31.62,3.66-58.74,26.61-81.25,2.57-2.52,4.69-5.6,6.61-8.67,6.47-10.35,1.77-19.79-10.43-20.27-11.73-.46-23.48-.1-35.23-.1-11.34,0-22.68,.1-34.02-.04-5.69-.07-10.47,1.4-13.15,6.76-2.68,5.35-1.1,10.2,2.3,14.71,6.58,8.72,12.46,18.08,19.85,26.05,10.66,11.51,14.7,24.37,12.92,39.8-.88,7.6,.36,15.43-.37,23.06-.37,3.85,4.04,10.66-4.58,11.16-7.87,.45-17.97,.53-18.16-9.33-.38-18.96-11.66-30.69-22.39-44.09-23.89-29.82-18.77-73.14,10.21-98.49,28.93-25.3,71.59-23.91,98.85,3.23,26.57,26.45,28.88,70.04,3.96,98.15Z"/>
</svg>