<svg id="Layer_1" data-name="Layer 1" xmlns="http://www.w3.org/2000/svg" viewBox="0 0 35 35"><defs><style>.cls-1{fill:none;}.cls-2,.cls-3{fill:#573285;}.cls-2{opacity:0.4;}</style></defs><title>Fully Configurable</title><rect class="cls-1" width="35" height="35"/><path class="cls-2" d="M19,19.56a2.11,2.11,0,0,0-.93-.11c-4.88,0-9.77,0-14.65,0a2,2,0,0,1-1.73-3,1.89,1.89,0,0,1,1.87-.94H18a2.27,2.27,0,0,0,.93-.11A.61.61,0,0,1,19,16a4.84,4.84,0,0,0,0,3A.61.61,0,0,1,19,19.56Zm-2.92,6.69a5.88,5.88,0,0,1,0,2.64.62.62,0,0,0,.07.63q7.83,0,15.65,0a1.82,1.82,0,0,0,1.85-2,1.82,1.82,0,0,0-1.85-2q-7.83,0-15.65,0A.62.62,0,0,0,16.05,26.25ZM31.77,9.36a1.83,1.83,0,0,0,1.85-2,1.82,1.82,0,0,0-1.85-2q-6.81,0-13.63,0a6.65,6.65,0,0,1,0,3.9Q25,9.36,31.77,9.36ZM8,5.43H3.39a1.81,1.81,0,0,0-2,2,1.8,1.8,0,0,0,2,2c1.54,0,3.08,0,4.63,0a2.1,2.1,0,0,1,.86.1,5.9,5.9,0,0,1,0-4.14A2.1,2.1,0,0,1,8,5.43ZM6.07,25.6c-1,0-1.93,0-2.89,0a1.76,1.76,0,0,0-1.66,1.23,2,2,0,0,0,1.86,2.7,22.45,22.45,0,0,1,3.48.1,5.9,5.9,0,0,1,0-4.14A2,2,0,0,1,6.07,25.6Zm25.71-6.15a1.84,1.84,0,0,0,1.84-2,1.84,1.84,0,0,0-1.84-2c-1.18,0-2.37,0-3.55,0a6.68,6.68,0,0,1,0,3.91C29.41,19.44,30.6,19.47,31.78,19.45Z"/><path class="cls-3" d="M18.14,5.45a6.51,6.51,0,0,0-1.33-1.84A5.1,5.1,0,0,0,8.88,5.33a3.91,3.91,0,0,0,0,4.14,4.86,4.86,0,0,0,2.32,2.41c2.64,1.28,5.37.28,6.94-2.53A4.14,4.14,0,0,0,18.14,5.45Zm-4.66,4a2,2,0,0,1-2.06-2,2,2,0,0,1,2-2,2,2,0,0,1,2.1,2A2,2,0,0,1,13.48,9.43Zm14.75,6.1A6.46,6.46,0,0,0,26.9,13.7,5.1,5.1,0,0,0,19,15.41a5.93,5.93,0,0,0,0,4.15A5,5,0,0,0,21.29,22c2.64,1.27,5.37.28,6.94-2.53A4.16,4.16,0,0,0,28.23,15.53Zm-4.64,4a2,2,0,1,1,2-2A2,2,0,0,1,23.59,19.52Zm-7.47,6.1a6.51,6.51,0,0,0-1.33-1.84A5.1,5.1,0,0,0,6.86,25.5a3.91,3.91,0,0,0,0,4.14,5,5,0,0,0,2.32,2.42c2.64,1.27,5.37.27,6.94-2.54A6.65,6.65,0,0,0,16.12,25.62Zm-4.64,4a2,2,0,0,1-.09-4.06,2,2,0,1,1,.09,4.06Z"/></svg>