<svg id="Layer_1" data-name="Layer 1" xmlns="http://www.w3.org/2000/svg" viewBox="0 0 35 35"><defs><style>.cls-1{fill:none;}.cls-2,.cls-3{fill:#573285;}.cls-2{opacity:0.4;}</style></defs><title>Light Weighted</title><rect class="cls-1" width="35" height="35"/><path class="cls-2" d="M15.81,20.69V12.22c0-.79-.46-1.13-1.23-.88L7.93,13.51a1.58,1.58,0,0,1-1.78-.46,1.82,1.82,0,0,1-.13-2,1.68,1.68,0,0,1,1-.68c1.92-.63,3.83-1.28,5.75-1.9.41-.13.6-.23.61-.76a4.06,4.06,0,0,1,2.78-3.88,4.17,4.17,0,0,1,4.7,1.46.55.55,0,0,0,.74.21l5.49-1.8a1.49,1.49,0,0,1,1.69.4,1.64,1.64,0,0,1,.34,1.82,1.57,1.57,0,0,1-1,.89C26,7.5,24,8.21,21.94,8.91a1,1,0,0,0-.67.6,3.81,3.81,0,0,1-1.76,1.89.59.59,0,0,0-.35.62c0,4.86,0,9.72,0,14.57,0,.47.17.57.6.57q3.49,0,7,0a2.4,2.4,0,0,1,2.41,2.48.74.74,0,0,1-.7.79,3.38,3.38,0,0,1-.45,0H17c-.89,0-1.16-.26-1.16-1.17Z"/><path class="cls-3" d="M13.73,25q-2-4.12-4.12-8.22a2.36,2.36,0,0,0-2.19-1.4A2.31,2.31,0,0,0,5.2,16.72C3.76,19.59,2.35,22.48.93,25.36a1.93,1.93,0,0,0-.18,1.09,3.63,3.63,0,0,0,1.88,2.76,9.42,9.42,0,0,0,4.88,1.26c.38,0,.87-.06,1.35-.13A7.35,7.35,0,0,0,13,28.57,2.84,2.84,0,0,0,13.73,25Zm-3,.46H4c-.33,0-.4-.08-.24-.38l3.51-6.94c0-.05.07-.08.16-.18,1.22,2.42,2.41,4.78,3.61,7.14C11.22,25.44,11,25.44,10.77,25.44Zm23.3-6.77c-1.33-3-2.82-5.89-4.36-8.77a2.37,2.37,0,0,0-4.27,0c-1.48,2.85-2.94,5.7-4.31,8.61a2.58,2.58,0,0,0,.24,2.55,3.91,3.91,0,0,0,1.41,1.33,9.45,9.45,0,0,0,4.86,1.23c.29,0,.61,0,.92-.05a7.41,7.41,0,0,0,4.72-1.94A2.63,2.63,0,0,0,34.07,18.67Zm-3.19,0H24.15c-.28,0-.43,0-.26-.37,1.19-2.33,2.36-4.66,3.54-7l.14-.16c.68,1.34,1.33,2.62,2,3.9.53,1,1.05,2.1,1.59,3.14C31.3,18.57,31.35,18.73,30.88,18.72Z"/></svg>