<svg id="Layer_1" data-name="Layer 1" xmlns="http://www.w3.org/2000/svg" viewBox="0 0 14 14"><defs><style>.cls-1{fill:none;}.cls-2{fill:#393939;}</style></defs><title>AI Powered Enhancement</title><rect class="cls-1" width="14" height="14"/><path class="cls-2" d="M12.21,8.14h.72c.27,0,.44-.14.44-.37s-.18-.38-.45-.38h-.7c-.1,0-.13,0-.13-.13a3.53,3.53,0,0,0,0-.46c0-.11,0-.15.14-.15H13a.39.39,0,0,0,.4-.39A.36.36,0,0,0,13,5.91h-.72c-.13,0-.16,0-.15-.15a3.53,3.53,0,0,0,0-.46c0-.11,0-.15.14-.15h.7c.27,0,.44-.14.44-.37s-.18-.38-.45-.38h-.71c-.09,0-.12,0-.12-.11a3.53,3.53,0,0,0,0-.46c0-.12,0-.17.16-.16s.48,0,.72,0a.39.39,0,0,0,.4-.39A.37.37,0,0,0,13,2.92h-.74c-.1,0-.13,0-.13-.13a4.17,4.17,0,0,0,0-.5.34.34,0,0,0-.36-.36,2.57,2.57,0,0,0-.48,0c-.13,0-.16-.05-.16-.17s0-.47,0-.7a.37.37,0,0,0-.36-.41.38.38,0,0,0-.39.41c0,.13,0,.26,0,.4,0,.46,0,.45-.48.47-.21,0-.28-.05-.26-.26a4.42,4.42,0,0,0,0-.63A.37.37,0,0,0,9.22.65a.36.36,0,0,0-.35.4c0,.09,0,.18,0,.27s.09.47,0,.57-.38,0-.57,0-.15,0-.14-.15V1.06A.37.37,0,0,0,7.75.65a.38.38,0,0,0-.39.41c0,.13,0,.26,0,.4,0,.46,0,.45-.48.47-.2,0-.28-.05-.26-.26a4.42,4.42,0,0,0,0-.63.39.39,0,0,0-.4-.39.36.36,0,0,0-.35.4v.27c0,.2.08.47,0,.57s-.38,0-.58,0-.15,0-.14-.15V1A.37.37,0,0,0,4.78.65.38.38,0,0,0,4.37,1c0,.12,0,.24,0,.36s.08.42,0,.53-.35,0-.54,0-.16,0-.15-.16,0-.47,0-.71a.39.39,0,0,0-.4-.41.36.36,0,0,0-.35.41c0,.25,0,.5,0,.74s0,.13-.12.13H2.35c-.34,0-.46.12-.46.45v.42c0,.11,0,.14-.13.13H1A.34.34,0,0,0,.76,3a.37.37,0,0,0-.13.39A.38.38,0,0,0,1,3.67h.76c.09,0,.14,0,.13.13a3.68,3.68,0,0,0,0,.47c0,.11,0,.14-.13.13H1a.38.38,0,0,0-.4.38.37.37,0,0,0,.4.37h.74c.09,0,.14,0,.13.13s0,.33,0,.5,0,.14-.13.13H1a.35.35,0,0,0-.38.34.38.38,0,0,0,.34.4h.36c.18,0,.44-.07.53,0s0,.37,0,.57,0,.13-.13.13H1a.38.38,0,0,0-.4.38.37.37,0,0,0,.4.37H1.3c.19,0,.45-.06.55,0s0,.38,0,.57,0,.17-.15.16H1a.36.36,0,0,0-.39.34.37.37,0,0,0,.36.4h.33c.19,0,.45-.09.55,0s0,.36,0,.56,0,.13-.13.13-.46,0-.7,0-.44.15-.44.37.16.38.43.38h.72c.1,0,.13,0,.12.12v.5a.36.36,0,0,0,.38.38h.45c.13,0,.18,0,.17.15s0,.48,0,.72a.37.37,0,0,0,.35.4.38.38,0,0,0,.39-.35c0-.12,0-.24,0-.36s-.08-.43,0-.53.35,0,.53,0,.16,0,.16.16,0,.47,0,.7a.39.39,0,0,0,.4.41A.37.37,0,0,0,5.12,13c0-.23,0-.46,0-.7s0-.17.14-.15h.46c.12,0,.17,0,.16.14s0,.46,0,.68.14.45.36.45A.41.41,0,0,0,6.63,13c0-.22,0-.44,0-.66s0-.19.17-.17h.38c.14,0,.2,0,.19.18a5.3,5.3,0,0,0,0,.69.38.38,0,0,0,.38.4A.38.38,0,0,0,8.11,13v-.38c0-.13-.08-.35,0-.45s.32,0,.48,0H8.7c.13,0,.18,0,.17.16s0,.47,0,.71a.37.37,0,0,0,.35.4.39.39,0,0,0,.39-.35c0-.12,0-.24,0-.36s-.08-.43,0-.53.36,0,.54,0,.16,0,.16.17,0,.46,0,.69a.38.38,0,0,0,.39.41c.22,0,.35-.17.36-.42s0-.44,0-.66,0-.21.19-.2a3.23,3.23,0,0,0,.44,0,.35.35,0,0,0,.37-.38,4.17,4.17,0,0,0,0-.5c0-.1,0-.12.12-.12H13a.37.37,0,0,0,.4-.36.38.38,0,0,0-.39-.39c-.11,0-.23,0-.34,0s-.41.07-.52,0,0-.34,0-.51,0-.2.18-.19a5.45,5.45,0,0,0,.7,0,.38.38,0,0,0,.4-.38A.37.37,0,0,0,13,8.9H12.7c-.2,0-.48.09-.57,0s0-.39,0-.6S12.12,8.14,12.21,8.14Zm-.86,3c0,.17,0,.21-.21.21q-4.16,0-8.29,0c-.16,0-.21,0-.21-.2V2.87c0-.17,0-.2.21-.2,1.38,0,2.76,0,4.14,0s2.76,0,4.14,0c.16,0,.22,0,.22.2Q11.34,7,11.35,11.17Zm-.74-7.26c0-.37-.14-.51-.5-.51H3.88c-.37,0-.51.14-.51.51v6.22c0,.37.14.51.52.51H10.1c.38,0,.51-.14.51-.51V3.91Zm-.92,6H4.3c-.14,0-.18,0-.18-.17V4.33c0-.14,0-.18.17-.18h5.4c.16,0,.18.06.17.19V9.72C9.87,9.86,9.84,9.9,9.69,9.9ZM8.42,7V5.57a.39.39,0,0,1,.36-.42.38.38,0,0,1,.39.41c0,1,0,2,0,2.92a.39.39,0,0,1-.39.42.4.4,0,0,1-.36-.44ZM7.88,8.36c-.36-1-.72-1.94-1.09-2.91a.45.45,0,0,0-.84,0l-.34.91C5.36,7,5.12,7.65,4.87,8.3c-.11.28,0,.48.2.57s.39,0,.49-.3c0-.1.09-.19.12-.29a.16.16,0,0,1,.17-.13h1a.17.17,0,0,1,.18.14c.06.14.1.28.16.4a.34.34,0,0,0,.4.19.36.36,0,0,0,.29-.4A.35.35,0,0,0,7.88,8.36ZM6.6,7.41h0c-.59,0-.59,0-.38-.51l.17-.43.31.82C6.72,7.39,6.69,7.41,6.6,7.41Z" transform="translate(0 0)"/></svg>