<svg id="Layer_1" data-name="Layer 1" xmlns="http://www.w3.org/2000/svg" viewBox="0 0 14 14"><defs><style>.cls-1{fill:none;}.cls-2{fill:#393939;}</style></defs><title>automation and efficiency</title><rect class="cls-1" width="14" height="14"/><path class="cls-2" d="M13.06,8.43,12,7.67c-.08-.06-.12-.11-.1-.21a2.62,2.62,0,0,0,0-.79.18.18,0,0,1,.1-.21l1.11-.78a.4.4,0,0,0,.13-.6L11.83,2.69a.4.4,0,0,0-.56-.17L10,3.08a.2.2,0,0,1-.23,0,3.63,3.63,0,0,0-.72-.41c-.09,0-.12-.09-.13-.19,0-.46-.09-.91-.15-1.37A.39.39,0,0,0,8.39.72H5.52a.38.38,0,0,0-.39.35c0,.4-.09.79-.12,1.18,0,.22,0,.4-.31.48a2.66,2.66,0,0,0-.56.33.19.19,0,0,1-.24,0L2.75,2.56a.65.65,0,0,0-.3-.09.46.46,0,0,0-.39.26L.7,5.05a.42.42,0,0,0,.14.64c.36.26.72.52,1.08.76A.2.2,0,0,1,2,6.68a2.49,2.49,0,0,0,0,.77.19.19,0,0,1-.1.22L.81,8.46A.4.4,0,0,0,.68,9l1.4,2.39a.39.39,0,0,0,.57.18l1.19-.53a.29.29,0,0,1,.35,0,2.8,2.8,0,0,0,.65.37.2.2,0,0,1,.14.19c0,.46.09.93.15,1.39a.38.38,0,0,0,.4.36H8.38a.38.38,0,0,0,.4-.36q.09-.69.15-1.38a.2.2,0,0,1,.15-.2,4.86,4.86,0,0,0,.7-.4.2.2,0,0,1,.23,0c.4.19.81.37,1.22.54a.41.41,0,0,0,.62-.2l1.35-2.3A.42.42,0,0,0,13.06,8.43Zm-.78.62c-.31.51-.61,1-.91,1.56-.06.1-.09.12-.2.07-.37-.18-.75-.33-1.11-.5a.48.48,0,0,0-.54.06,3.66,3.66,0,0,1-1,.6.47.47,0,0,0-.32.44c0,.38-.09.77-.11,1.16,0,.14-.07.15-.18.15H6.07c-.13,0-.19,0-.2-.17,0-.38-.07-.76-.11-1.14a.48.48,0,0,0-.31-.44,3.72,3.72,0,0,1-1.08-.61.44.44,0,0,0-.51-.05c-.37.17-.75.32-1.12.5-.1.05-.14,0-.19-.07L1.63,9.05c-.06-.1,0-.14,0-.2.33-.23.64-.46,1-.68a.48.48,0,0,0,.23-.54,3.57,3.57,0,0,1,0-1.13A.49.49,0,0,0,2.64,6c-.33-.22-.64-.45-1-.68-.08-.06-.1-.1,0-.2.31-.51.61-1,.92-1.56.05-.1.09-.12.19-.07l1.1.49a.47.47,0,0,0,.55,0,3.59,3.59,0,0,1,1.06-.6.48.48,0,0,0,.31-.44c0-.39.09-.78.12-1.18,0-.1,0-.13.13-.13H7.9c.1,0,.12,0,.13.13,0,.4.08.79.12,1.18a.47.47,0,0,0,.32.44,3.66,3.66,0,0,1,1,.6.48.48,0,0,0,.54.06c.36-.17.74-.32,1.11-.5.1-.05.14,0,.2.07.3.52.6,1.05.91,1.56.06.1.05.14,0,.2-.32.22-.63.46-1,.67a.5.5,0,0,0-.25.57,3.32,3.32,0,0,1,0,1.09.5.5,0,0,0,.25.57c.32.21.63.45,1,.67C12.32,8.91,12.34,9,12.28,9.05ZM9,7.36l-.36.22c-.07,0-.11,0-.15,0h0c-.11-.2-.33-.4-.31-.58s.33-.23.51-.35.3-.19.45-.28a.43.43,0,0,1,.59,0l.82.68c.07,0,.11.09,0,.17a4.35,4.35,0,0,0-.34.41c-.08.12-.15.13-.24,0l-.17-.13a2.89,2.89,0,0,1-.64,1.41A3,3,0,0,1,6.7,10c-.24,0-.25,0-.2-.27a1.81,1.81,0,0,0,0-.31c0-.21.08-.27.3-.25A2.1,2.1,0,0,0,9,7.36ZM4.87,6.77l.07,0c.13-.06.26-.24.38-.19s.17.23.25.36c.18.29.18.29-.12.47l-.72.45a.43.43,0,0,1-.57,0L3.24,7V7c.13-.16.27-.31.38-.47s.18-.14.29,0l.14.11a2.71,2.71,0,0,1,.46-1.17A3,3,0,0,1,7.16,4.13c.12,0,.17,0,.14.16a4.43,4.43,0,0,0-.06.51c0,.12,0,.17-.18.15A2.13,2.13,0,0,0,4.87,6.77ZM8.21,4.41l.06,0A3,3,0,0,1,9.06,5c.06.06,0,.1,0,.15s-.29.25-.43.39-.11.08-.18,0a1.55,1.55,0,0,0-.51-.37s-.1-.06-.06-.14l.27-.59S8.17,4.41,8.21,4.41Zm-2.9,4a2.29,2.29,0,0,0,.47.42c.07,0,.09.07,0,.15s-.2.34-.29.51-.1.09-.18,0A3.24,3.24,0,0,1,4.76,9c-.07-.06-.07-.1,0-.16Z" transform="translate(0 0)"/></svg>