<svg id="Layer_1" data-name="Layer 1" xmlns="http://www.w3.org/2000/svg" viewBox="0 0 14 14"><defs><style>.cls-1{fill:none;}.cls-2{fill:#393939;}</style></defs><title>helpdesk integration</title><rect class="cls-1" width="14" height="14"/><path class="cls-2" d="M12.16,3.93a.55.55,0,0,0-.08-.38A2.71,2.71,0,0,0,9.63,1.83H9a.3.3,0,0,1-.32-.31A.31.31,0,0,1,9,1.18,3.46,3.46,0,0,1,12.56,3a2.72,2.72,0,0,1,.19.47,4.07,4.07,0,0,1,.13.5c.08,0,.12-.07.18-.1a.32.32,0,0,1,.39.06.27.27,0,0,1,0,.41A5.37,5.37,0,0,1,12.7,5,.25.25,0,0,1,12.4,5l-.63-.52A.33.33,0,0,1,11.7,4C11.79,3.85,12,3.83,12.16,3.93ZM10.87,5.71a.35.35,0,0,0-.34-.33.31.31,0,0,0-.31.31.32.32,0,0,0,.31.34A.36.36,0,0,0,10.87,5.71Zm-.65,1.22a.33.33,0,0,0,.29.34.35.35,0,0,0,.35-.34.32.32,0,0,0-.32-.3A.31.31,0,0,0,10.22,6.93ZM9.34,4.31a1.61,1.61,0,0,0,0,.22h0c0,.18,0,.36,0,.54a1.11,1.11,0,0,1-.76,1,1.12,1.12,0,0,1-1.21-.23c-.1-.08-.13-.09-.22,0a2.46,2.46,0,0,1-4,0c-.09-.11-.13-.12-.24,0a1.1,1.1,0,0,1-1.22.21A1.08,1.08,0,0,1,.91,5c0-.35,0-.69,0-1a1.11,1.11,0,0,1,.56-.92.43.43,0,0,0,.19-.21A3.75,3.75,0,0,1,5.74.69,3.74,3.74,0,0,1,8.57,2.87.31.31,0,0,0,8.7,3,1.27,1.27,0,0,1,9.34,4.31ZM2.6,4a.49.49,0,0,0-.53-.44A.52.52,0,0,0,1.56,4c0,.17,0,.33,0,.5s0,.34,0,.52a.51.51,0,0,0,.51.46.51.51,0,0,0,.54-.43A4.78,4.78,0,0,0,2.6,4Zm4.34.4A1.83,1.83,0,1,0,5.12,6.25,1.81,1.81,0,0,0,6.94,4.4ZM7.67,3h0c.18,0,.16-.12.07-.25A3.11,3.11,0,0,0,5.25,1.28,3.22,3.22,0,0,0,2.49,2.7c-.11.15-.16.27.09.32a.32.32,0,0,1,.16.09c.13.13.2.1.3,0a2.48,2.48,0,0,1,4-.21c.08.11.14.29.25.34S7.53,3.05,7.67,3Zm1,1a.5.5,0,0,0-.53-.43A.52.52,0,0,0,7.62,4c0,.15,0,.31,0,.49a2.26,2.26,0,0,0,0,.52.51.51,0,0,0,.51.46.49.49,0,0,0,.53-.43A3.91,3.91,0,0,0,8.66,4Zm4.75,6c-.16.84-.34,1.67-.51,2.51a1.17,1.17,0,0,1-1.15.9H4.92a.39.39,0,0,1-.34-.11.31.31,0,0,1-.06-.34.3.3,0,0,1,.31-.19H6.28c.07,0,.1,0,.07-.09a2.27,2.27,0,0,1,.07-1.34c.11-.61.24-1.21.37-1.81A1.2,1.2,0,0,1,8,8.49h4.15A1.19,1.19,0,0,1,13.41,10Zm-1.22-.83H8a.56.56,0,0,0-.6.49L6.94,12a.55.55,0,0,0,.6.74h4.11a.56.56,0,0,0,.65-.52c.16-.79.32-1.59.47-2.39A.53.53,0,0,0,12.19,9.14ZM7.11,8.23a.29.29,0,0,1-.35.22c-.1,0-.12.06-.15.12l-.32.54a1.38,1.38,0,0,1-2.35,0c-.11-.18-.22-.37-.32-.56s-.09-.09-.18,0c-.57.39-1.13.77-1.71,1.14-.26.18-.24.46-.28.72-.06.42-.11.85-.15,1.28a1,1,0,0,0,1,1.09h.87a.27.27,0,0,0,.27-.42c-.2-.53-.42-1.05-.63-1.58a.34.34,0,0,1,.07-.43.3.3,0,0,1,.38,0,.38.38,0,0,1,.14.19c.22.54.46,1.08.66,1.63a.93.93,0,0,1-.87,1.28H2.62a3.3,3.3,0,0,1-.69,0,1.65,1.65,0,0,1-1.26-2c.07-.42.12-.85.16-1.28a1.34,1.34,0,0,1,.6-1c.65-.42,1.29-.86,1.94-1.29a3.08,3.08,0,0,1,3.56,0A.34.34,0,0,1,7.11,8.23ZM6,8.06a2.51,2.51,0,0,0-1.79,0c-.09,0-.1.07,0,.16s.21.37.33.55a.73.73,0,0,0,1.23,0c.12-.18.22-.37.33-.55S6.1,8.1,6,8.06Zm5.08,2.86a1,1,0,0,1-1,.95,1,1,0,0,1-1-1,1,1,0,0,1,1-1A1,1,0,0,1,11.09,10.92Zm-.64,0a.32.32,0,0,0-.32-.33.35.35,0,0,0-.33.33.33.33,0,0,0,.33.32A.32.32,0,0,0,10.45,10.91Z" transform="translate(0 0)"/></svg>