<svg id="Layer_1" data-name="Layer 1" xmlns="http://www.w3.org/2000/svg" viewBox="0 0 14 14"><defs><style>.cls-1{fill:none;}.cls-2{fill:#393939;}</style></defs><title>reporting and analysis</title><rect class="cls-1" width="14" height="14"/><path class="cls-2" d="M13.2,11.94a1.2,1.2,0,0,0-.32-.5L11.35,9.91a.2.2,0,0,1,0-.26,2.94,2.94,0,0,0-1.61-3.8.23.23,0,0,1-.16-.26V2a1.09,1.09,0,0,0,0-.4A1,1,0,0,0,8.4.81Q5.18.8,2,.81A1.07,1.07,0,0,0,.77,2V5.29c0,1.11,0,2.22,0,3.33a1.25,1.25,0,0,0,.39,1c.5.49,1,1,1.48,1.48a1.29,1.29,0,0,0,1,.41h4a3.73,3.73,0,0,1,.47,0,3.49,3.49,0,0,0,1,0c.24,0,.48-.27.71-.16a2.44,2.44,0,0,1,.55.52l0,0L11.48,13a1,1,0,0,0,1.19.15A1.07,1.07,0,0,0,13.2,11.94ZM2.85,10.23,2,9.39h.76c.07,0,.08,0,.08.1Zm2.83.53h-2c-.15,0-.18,0-.18-.18,0-.47,0-.93,0-1.39s-.11-.49-.48-.49H1.63c-.12,0-.15,0-.15-.16V1.88a.32.32,0,0,1,.37-.37H8.48c.24,0,.37.14.37.4V5.48c0,.14,0,.14-.17.14a2.91,2.91,0,0,0-2.9,1.93,2.85,2.85,0,0,0,.59,3l.18.19Zm2.86.08a2.27,2.27,0,1,1,2.27-2.25A2.27,2.27,0,0,1,8.54,10.84Zm3.87,1.6a.33.33,0,0,1-.46,0L10.45,11c-.06-.06,0-.1,0-.14a3.18,3.18,0,0,0,.41-.41c.52.52,1,1,1.55,1.55A.33.33,0,0,1,12.41,12.44Zm-7.26-9H2.55a.35.35,0,1,1,0-.69H7.71c.28,0,.42.11.44.32s-.13.38-.39.38ZM4.59,4.7h2c.28,0,.45.19.38.43a.34.34,0,0,1-.37.26H2.57c-.31,0-.48-.22-.38-.47a.34.34,0,0,1,.37-.22Zm-.9,2H4.81c.25,0,.4.14.4.36a.35.35,0,0,1-.39.34H2.56A.36.36,0,0,1,2.16,7c0-.21.17-.35.42-.35Z" transform="translate(0 0)"/></svg>