<svg id="Layer_1" data-name="Layer 1" xmlns="http://www.w3.org/2000/svg" viewBox="0 0 14 14"><defs><style>.cls-1{fill:none;}.cls-2{fill:#393939;}</style></defs><title>security and access control</title><rect class="cls-1" width="14" height="14"/><path class="cls-2" d="M12.11,5.1V3.4a.54.54,0,0,0-.38-.58L7.12.91a.63.63,0,0,0-.52,0L2,2.82a.52.52,0,0,0-.39.59V5.67A7.45,7.45,0,0,0,1.76,7.3a8,8,0,0,0,4.87,6,.54.54,0,0,0,.45,0,8.13,8.13,0,0,0,4.81-5.65A9,9,0,0,0,12.11,5.1ZM10.84,7.76A7.15,7.15,0,0,1,7,12.23a.25.25,0,0,1-.25,0A7.14,7.14,0,0,1,2.94,8a7,7,0,0,1-.36-2.36c0-.61,0-1.22,0-1.83a.19.19,0,0,1,.14-.21l4-1.66a.3.3,0,0,1,.29,0l4,1.65a.21.21,0,0,1,.16.23c0,.43,0,.87,0,1.45A7.52,7.52,0,0,1,10.84,7.76ZM9.23,5.64A.45.45,0,0,1,9.07,6c-.79.8-1.59,1.6-2.39,2.39a.46.46,0,0,1-.72,0c-.45-.43-.89-.88-1.32-1.32a.49.49,0,1,1,.69-.68l.88.88c.09.09.14.08.22,0L8.34,5.33a.56.56,0,0,1,.4-.2A.47.47,0,0,1,9.23,5.64Z" transform="translate(0 0)"/></svg>