<svg id="Layer_1" data-name="Layer 1" xmlns="http://www.w3.org/2000/svg" viewBox="0 0 14 14"><defs><style>.cls-1{fill:none;}.cls-2{fill:#393939;}</style></defs><title>social media marketing integration</title><rect class="cls-1" width="14" height="14"/><path class="cls-2" d="M6.88,9.16H6.27c-.11,0-.14,0-.11-.14a4,4,0,0,0,.11-.5A1.23,1.23,0,0,0,5.4,7.18c-.48-.13-.68,0-.89.4-.68,1.4-.44,1.15-1.69,2h0a.38.38,0,0,1-.27.09H1.26c-.34,0-.47.12-.47.46v2.72c0,.36.12.48.49.48h4.6a1.65,1.65,0,0,0,1.55-1c.21-.44.42-.88.62-1.32A1.31,1.31,0,0,0,6.88,9.16Zm-4.6,3.43h-.6c-.11,0-.14,0-.14-.14,0-.32,0-.64,0-.95s0-.62,0-.93c0-.1,0-.16.14-.15h.61c.09,0,.13,0,.13.12q0,1,0,1.92C2.42,12.57,2.37,12.59,2.28,12.59Zm5.07-1.81L6.77,12a.94.94,0,0,1-.91.58H3.32c-.12,0-.16,0-.15-.15V10.38c0-.1,0-.17.11-.21l0,0a3.77,3.77,0,0,0,1.8-2.1c.07-.18.12-.19.26-.05a.45.45,0,0,1,.15.46c-.06.28-.12.57-.19.85s0,.59.45.59h1A.57.57,0,0,1,7.35,10.78Zm.13-8.41A2.07,2.07,0,0,0,4.27,1,.17.17,0,0,1,4,1,2,2,0,0,0,2.23.76,2,2,0,0,0,.84,2.27,1.78,1.78,0,0,0,1.4,4.09c.82.72,1.65,1.42,2.48,2.12a.36.36,0,0,0,.52,0C5.24,5.5,6.08,4.8,6.9,4.08a1.77,1.77,0,0,0,.6-1.42C7.49,2.6,7.5,2.48,7.48,2.37Zm-.78.7a1.2,1.2,0,0,1-.35.51L4.25,5.37c-.08.07-.13.06-.21,0L2,3.59a1.07,1.07,0,0,1-.42-.88,1.24,1.24,0,0,1,.8-1.19,1.27,1.27,0,0,1,1.43.26c.33.3.43.31.75,0a1.34,1.34,0,0,1,1.62-.16A1.31,1.31,0,0,1,6.7,3.07Zm3.77.82a3,3,0,0,0,0,6,3,3,0,1,0,0-6Zm0,5.25a2.25,2.25,0,1,1,0-4.5,2.25,2.25,0,1,1,0,4.5Zm0-1A1.21,1.21,0,0,1,9.26,6.94a.38.38,0,0,1,.34-.43.39.39,0,0,1,.4.38.47.47,0,0,0,.69.41.44.44,0,0,0,.24-.37c0-.28.2-.44.42-.42s.37.25.32.54A1.2,1.2,0,0,1,10.45,8.1Z" transform="translate(0 0)"/></svg>