<?xml version="1.0" encoding="UTF-8"?>
<svg id="Layer_1" data-name="Layer 1" xmlns="http://www.w3.org/2000/svg" viewBox="0 0 800 800">
  <defs>
    <style>
      .cls-1 {
        fill: #1e3050;
      }

      .cls-2 {
        fill: none;
      }
    </style>
  </defs>
  <rect class="cls-2" width="800" height="800"/>
  <path class="cls-1" d="M771.57,365.87C757.59,169.99,573.73,15.91,377.37,34.53c-109.99,10.43-198.87,58.26-265.4,146.27C1.66,326.72,16.88,536.92,148.32,662.62c97.16,92.92,213.28,123.24,344.52,94.84,148.48-32.13,267.84-169.91,278.63-320.85,2.32-23.58,2.19-47.16,.1-70.74Zm-369.35,357.43c-177.02-.1-319.62-146.83-319.49-328.75,.12-172.47,147.17-316.35,323.32-316.36,179.81-.01,323.7,144.16,323.68,324.29-.02,177.68-146.26,320.92-327.51,320.82Zm163.46-415.63c.66,8.71-4.09,14.28-9.37,19.56-58.97,58.92-117.84,117.95-177,176.68-14.24,14.14-23.74,14.28-37.86,.49-28.94-28.26-57.41-57.01-85.95-85.69-10.61-10.66-13.11-22.63-1.54-33.82,11.26-10.9,22.28-6.47,32.17,3.22,20.56,20.16,41.73,39.74,61.44,60.69,9.29,9.88,14.42,10.61,24.45,.46,50.39-51.01,101.73-101.08,152.6-151.63,10.07-10.01,20.27-16.48,33.47-5.44,4.92,4.11,7.89,9.33,7.59,15.47Z"/>
</svg>