<?xml version="1.0" encoding="UTF-8"?>
<svg id="Layer_1" data-name="Layer 1" xmlns="http://www.w3.org/2000/svg" viewBox="0 0 800 800">
  <defs>
    <style>
      .cls-1 {
        fill: #1f3051;
      }

      .cls-2 {
        fill: none;
      }
    </style>
  </defs>
  <rect class="cls-2" width="800" height="800"/>
  <path class="cls-1" d="M781.58,386.2c-.8-82.1-57.55-137.07-139.56-137.04-84.99,.03-169.98,0-254.97,.01-39.52,0-62.42,22.88-62.49,62.62-.1,50.37-.32,100.75,.21,151.11,.11,10.93-2.2,15.03-14.18,14.95-80.4-.53-160.82-.54-241.22,0-12.07,.08-14.21-4.13-14.12-14.99,.49-54.95,.23-109.9,.23-164.85,0-47.32-.06-94.64,.05-141.96,.02-8.13-1.25-15.66-9.47-19.12-6.19-2.6-13.11-3.12-19.07,.93-8.33,5.66-7.98,14.57-7.98,23.36,.05,159.77,.03,319.53,.04,479.3,0,2.54-.21,5.11,.07,7.63,1.19,10.73,5.71,18.7,17.86,18.68,12.59-.02,18.35-7.24,18.45-19.37,.11-13.74,.96-27.56-.22-41.19-1.15-13.29,4.11-15.74,16.33-15.69,109.41,.46,218.83,.27,328.25,.27,108.91,0,217.82,.39,326.72-.43,16.15-.12,20.23,4.64,18.91,19.67-1.19,13.61-.22,27.45,.35,41.16,.39,9.54,6.09,14.87,15.55,15.58,9.95,.74,16.81-3.45,18.83-13.68,.88-4.46,1.54-9.05,1.54-13.58,.09-84.46,.71-168.93-.12-253.39Zm-420.56-73.67c.07-20.22,6.42-26.95,26.31-27,85.42-.19,170.84-.09,256.26-.07,64.4,.01,103.91,46.79,100.46,103.27-1.55,25.32-.7,50.83-.04,76.23,.27,10.26-3.32,12.87-13.14,12.81-59.49-.39-118.98-.19-178.47-.19-58.98,0-117.97-.28-176.94,.24-11.14,.1-14.92-2.58-14.78-14.31,.63-50.32,.16-100.65,.32-150.98Zm384.43,221.23c-.31,12.67,.58,21.35-17.7,21.29-218.22-.69-436.45-.57-654.68-.16-13.78,.03-20.13-3.3-17.67-17.68,.42-2.47,.38-5.13,0-7.61-1.81-11.86,2.57-15.55,14.97-15.48,89.53,.55,179.06,.3,268.58,.3,20.35,0,40.69,0,61.04,0,109.37,0,218.74,.4,328.1-.43,16.64-.13,17.67,6.79,17.35,19.77ZM191.35,249.16c-52.6-.29-96.08,42.25-96.09,94,0,51.74,42.3,94.37,93.76,94.47,53.36,.1,95.75-41.37,95.74-93.67-.01-51.66-42.25-94.52-93.41-94.8Zm-1.75,152.12c-32.67-.28-57.42-25.79-56.95-58.73,.46-32.26,25.31-56.84,57.42-56.8,32.06,.04,58.55,26.39,58.38,58.08-.17,31.85-26.67,57.72-58.85,57.45Z"/>
</svg>