<?xml version="1.0" encoding="UTF-8"?>
<svg id="Layer_1" data-name="Layer 1" xmlns="http://www.w3.org/2000/svg" viewBox="0 0 800 800">
  <defs>
    <style>
      .cls-1 {
        fill: none;
      }

      .cls-2 {
        fill: #010101;
      }
    </style>
  </defs>
  <rect class="cls-1" width="800" height="800"/>
  <path class="cls-2" d="M724.86,355.75c-35.69-.07-71.39-.48-107.06,.24-11.65,.24-15.77-2-15.61-14.91,.78-63.11,.37-126.24,.34-189.36,0-15.35-4.14-19.61-19.36-19.67-25.49-.1-50.98-.03-76.47-.03h-25.76c3.78-4.8,5.91-7.51,8.03-10.22,15.74-20.08,8.12-47.81-16.56-52.8-21.18-4.28-34.74-13.81-45.26-32.96-11.86-21.58-42.64-21.59-54.32,.06-10.68,19.79-24.77,29.67-46.45,33.18-15.25,2.47-22.47,15.47-23.21,31.08-.6,12.78,7.77,20.64,15.7,31.66-35.16,0-68.03-.04-100.9,.02-16.73,.03-20.51,3.91-20.52,20.87-.02,63.12-.23,126.24,.22,189.36,.07,10.22-1.79,14.02-13.14,13.76-36.45-.82-72.94-.35-109.41-.28-16.34,.03-21.1,4.77-21.11,20.88-.02,125.46-.02,250.92,0,376.38,0,15.89,4.98,20.75,21.26,20.75,216.48,.02,432.96,.02,649.44,0,16.28,0,21.25-4.86,21.26-20.76,.03-125.46,.03-250.92,0-376.38,0-16.16-4.72-20.84-21.12-20.87ZM197.45,656.41c0,26.25-.18,52.5,.13,78.75,.07,6.38-1.36,9.28-8.37,8.81-10.86-.73-24.73,3.26-31.83-2.07-6.83-5.13-2.04-19.77-2.1-30.21-.24-44.27,.09-88.54-.29-132.81-.07-7.9,1.44-11.38,10.09-10.5,7.76,.79,15.7,.66,23.49,.03,7.43-.6,9.17,2.14,9.05,9.26-.42,26.24-.17,52.5-.17,78.74Zm.16-126.71c.05,7.2-1.8,9.53-9.15,9.23-14.08-.58-28.21-.22-42.32-.15-16.09,.08-20.82,4.71-20.85,21.18-.1,56.81-.43,113.62,.28,170.42,.15,11.83-3.41,14.07-14.34,13.74-27.04-.82-27.05-.26-27.05-27.67v-152.79c0-55.63,.26-111.27-.25-166.89-.09-9.5,2.71-11.5,11.66-11.34,30.95,.55,61.92,.43,92.87,.04,7.16-.09,9.23,1.71,9.17,9.07-.36,45.05-.34,90.11-.02,135.16ZM342.17,95.68c25.35-1.94,42.27-15,51.8-38.44,3.6-8.85,8.97-8.3,12.11,.14,9.41,25.32,28.89,36.04,54.2,38.8,9.24,1.01,8.15,4.92,3.21,10.21-.27,.29-.47,.64-.77,.88-19.01,15.85-26.02,35.26-20.84,60.09,2.68,12.83,.83,13.21-10.93,8.39-.72-.3-1.48-.55-2.14-.96-19.29-12.04-38.12-11.13-57.94-.15-12.91,7.15-13.68,6.03-13.08-9.52-.02,.13-.04-.07,.01-.3,0-.05,0-.09,0-.14,0,.05,0,.08,0,.13,0-.02,0-.04,.02-.07,6.95-23.67-2.75-41.46-19.84-56.79-7.76-6.96-6.71-11.45,4.19-12.28Zm93.32,648.31c-23.85-.39-47.71-.35-71.56-.02-6.41,.09-8.84-1.42-8.76-8.35,.36-29.71,.36-59.42,0-89.13-.08-6.92,2.32-8.5,8.75-8.41,23.85,.32,47.71,.37,71.56-.02,6.98-.12,9.69,1.48,9.37,9.02-.6,14.44-.18,28.92-.18,43.39,0,14.86-.43,29.73,.18,44.56,.31,7.56-2.43,9.08-9.37,8.96Zm125.44,.12c-25.86-.84-51.77-.6-77.65-.08-8,.16-9.94-2.45-9.84-10.01,.37-29.01,.23-58.03,.08-87.04-.03-5.36,.51-8.75,7.29-9.08,9.41-.46,14.1-6.54,13.37-15.76-.76-9.57-7.14-13.19-16.21-13.19-46.67,.03-93.35,.01-140.02,.01-5.88,0-11.77-.16-17.65,.06-8.72,.32-14.1,4.8-14.52,13.68-.41,8.68,4.03,14.65,12.82,15.1,7.27,.37,7.96,3.84,7.92,9.74-.21,28.62-.37,57.25,.08,85.87,.13,8.11-2.06,10.78-10.43,10.62-26.27-.51-52.56-.62-78.83,.04-9.31,.23-11.63-2.39-11.6-11.63,.36-93.32,.22-186.64,.22-279.95s.18-185.85-.26-278.78c-.05-10.08,2.72-12.21,12.28-11.96,26.65,.69,53.34,.39,80,.14,6.73-.06,10.12,.2,9.65,9.09-1.55,29.64,21.91,45.81,49.08,33.17,16.04-7.46,29.66-8.23,46.04-.32,27.65,13.34,50.87-2.93,49.7-33.43-.25-6.58,.81-8.67,7.78-8.58,28.23,.39,56.48,.53,84.71-.06,8.45-.18,9.29,3.18,9.23,10.15-.3,32.54-.13,65.09-.13,97.63,0,153.7-.12,307.4,.25,461.1,.03,10.69-2.54,13.81-13.38,13.46Zm84.05-10.08c.04,7.3-1.37,10.68-9.52,9.96-10.45-.92-24.19,3.16-30.64-2.1-6.85-5.59-1.95-19.82-2.15-30.26-.36-18.41-.1-36.83-.1-55.24,0-26.25,.26-52.5-.17-78.74-.12-7.15,1.67-9.81,9.07-9.25,8.18,.63,16.5,.7,24.66-.02,7.69-.67,8.89,2.46,8.86,9.33-.27,52.1-.28,104.21,0,156.32Zm59.29,9.95c-9.27-.88-21.62,2.87-27.21-1.83-6.66-5.6-2.14-18.37-2.19-27.99-.26-50.54-.1-101.08-.13-151.61-.01-19.94-3.95-23.77-24.18-23.78-12.93,0-25.88-.36-38.79,.14-6.96,.27-9.46-1.42-9.4-8.98,.37-45.05,.33-90.11,.03-135.16-.05-6.96,1.32-9.44,8.91-9.33,31.74,.46,63.49,.49,95.22-.02,8.1-.13,9.48,2.63,9.44,9.93-.28,56.41-.15,112.83-.15,169.24,0,56.02-.25,112.05,.24,168.07,.09,9.58-2.85,12.16-11.8,11.32Zm-325.4-246.14c0-17.64,.07-35.28-.02-52.93-.07-12.44-4.55-17.8-16.45-17.94-27.84-.33-55.69-.27-83.53,.01-10.28,.1-15.65,5.7-15.62,16.37,.1,36.07,.12,72.14-.02,108.2-.04,11.27,5.54,16.82,16.41,16.89,27.45,.18,54.9,.29,82.35-.03,12.04-.14,16.74-5.45,16.83-17.66,.13-17.64,.03-35.28,.03-52.93Zm-36.16,41.02c-14.48-.29-28.97-.31-43.45,0-5.77,.12-7.32-2.12-7.27-7.56,.22-22.7,.21-45.4,0-68.1-.04-5.09,1.7-6.88,6.78-6.8,14.87,.23,29.75,.23,44.63,0,5.17-.08,6.83,1.92,6.73,6.91-.24,11.34-.08,22.7-.08,34.05,0,11.35-.22,22.71,.09,34.05,.15,5.59-1.82,7.56-7.44,7.45Zm194.02-40.56c0-18.03,.13-36.07-.04-54.1-.12-11.91-4.52-17.06-15.89-17.2-27.84-.35-55.69-.35-83.53,0-11.32,.14-16.05,5.56-16.08,17.08-.1,35.68-.11,71.35,0,107.03,.04,12.01,4.93,17.19,17.16,17.33,27.06,.3,54.12,.29,81.18,.01,12.49-.13,17.01-4.89,17.16-17.22,.21-17.64,.05-35.28,.06-52.93Zm-36.82,40.57c-14.09-.34-28.19-.4-42.28,.02-6.49,.19-7.97-2.47-7.79-8.32,.35-10.95,.1-21.91,.1-32.87s.2-21.92-.09-32.87c-.15-5.6,.86-8.68,7.59-8.48,14.47,.44,28.97,.36,43.45,.03,5.93-.14,7.17,2.37,7.12,7.67-.21,22.31-.29,44.62,.04,66.92,.09,6.31-2.15,8.05-8.15,7.9Zm-121.08-276.58c-.04-12.01-4.92-17.12-17.17-17.25-27.05-.28-54.11-.27-81.17,0-12.51,.12-17.02,4.82-17.15,17.14-.19,17.64-.05,35.28-.05,52.92,0,18.03-.14,36.07,.05,54.1,.13,12.34,4.72,17.13,17.05,17.24,27.05,.24,54.11,.24,81.17,0,12.26-.11,17.23-5.18,17.27-17.13,.12-35.67,.12-71.35,0-107.02Zm-28.65,19.67c-.38,11.33-.11,22.69-.11,34.03,0,10.95-.24,21.92,.1,32.86,.18,5.98-1.68,8.38-7.98,8.21-14.08-.38-28.18-.38-42.26,0-6.29,.17-8.02-2.17-7.95-8.16,.27-22.3,.27-44.6,0-66.9-.07-5.64,1.71-7.51,7.34-7.39,14.47,.31,28.96,.29,43.43,0,5.53-.11,7.63,1.59,7.44,7.34Zm186.51-19.24c-.12-13.05-4.53-17.58-17.81-17.7-26.66-.22-53.33-.24-79.99,0-12.99,.12-17.69,5.07-17.72,17.89-.09,35.28-.09,70.56,0,105.84,.03,12.28,4.75,17.53,16.73,17.65,27.45,.28,54.9,.28,82.34,0,11.6-.12,16.26-5.05,16.4-16.68,.22-18.03,.06-36.06,.07-54.1,0-17.64,.13-35.28-.03-52.92Zm-28.62,85.77c.12,6.78-2.19,8.77-8.75,8.57-13.68-.42-27.4-.47-41.08,.01-7.07,.25-8.62-2.71-8.39-9,.38-10.55,.1-21.12,.1-31.69,0-10.56,.36-21.14-.13-31.68-.33-7.15,1.04-10.66,9.41-10.19,13.26,.74,26.61,.44,39.9,.09,6.14-.16,9.12,.94,8.96,8.17-.46,21.9-.4,43.82-.03,65.72Z"/>
</svg>