<?xml version="1.0" encoding="UTF-8"?>
<svg id="Layer_1" data-name="Layer 1" xmlns="http://www.w3.org/2000/svg" viewBox="0 0 800 800">
  <defs>
    <style>
      .cls-1 {
        fill: #020202;
      }

      .cls-2 {
        fill: none;
      }
    </style>
  </defs>
  <rect class="cls-2" width="800" height="800"/>
  <path class="cls-1" d="M479.24,242.73c23.97,0,47.94,.13,71.91-.06,9.71-.08,18.53,2.02,18.61,13.27,.08,11.5-8.93,13.12-18.56,13.09-48.38-.14-96.76-.13-145.14,0-9.54,.02-18.55-1.25-18.5-13.04,.05-11.52,8.79-13.38,18.45-13.31,24.41,.17,48.81,.06,73.22,.06Zm73.25,131.15c9.4,.07,17.37-2.48,17.3-13.06-.06-10.37-7.86-13.3-17.31-13.28-49.25,.1-98.5,.1-147.75,0-9.4-.02-17.13,2.66-17.19,13.28-.06,10.83,7.86,13.11,17.2,13.05,24.84-.16,49.69-.05,74.53-.06,24.41,0,48.82-.12,73.22,.06Zm.05,104.86c9.41,.07,17.35-2.53,17.25-13.11-.1-10.38-7.93-13.25-17.36-13.23-49.25,.1-98.5,.1-147.75,0-9.42-.02-17.11,2.72-17.14,13.32-.03,10.84,7.93,13.07,17.25,13,24.41-.16,48.81-.05,73.22-.06,24.84,0,49.69-.12,74.53,.06Zm-273.28-188.37c16.67-16.59,33.29-33.22,49.85-49.91,6.12-6.17,7.34-13.19,.94-19.56-6.43-6.4-13.39-4.98-19.56,1.11-8.06,7.95-16.05,15.97-24.1,23.93-5.26,5.2-9.82,13.15-16.04,14.81-8.17,2.17-11.5-8.55-17.38-13.12-6.26-4.88-12.59-6.79-18.73-.96-6.52,6.19-5.8,13.34,.18,19.62,7.8,8.2,15.95,16.06,23.97,24.06,2.87,2.87,6.24,4.7,10.42,4.68,4.21,.07,7.63-1.85,10.46-4.66Zm47.93,32.94c-5.91-3.17-11.13-1.71-15.55,2.51-8.52,8.12-16.73,16.56-25.09,24.85-5.26,5.21-9.78,13.08-16.04,14.89-8.37,2.42-11.52-8.46-17.41-12.98-6.28-4.83-12.55-6.91-18.75-1.09-6.58,6.16-5.92,13.31,.04,19.63,7.17,7.61,14.88,14.72,22.1,22.28,8.35,8.74,16.26,8.58,24.67,.02,15.59-15.85,31.38-31.51,47.15-47.18,3.2-3.18,5.56-6.67,6.06-11.46-.57-4.81-2.43-8.92-7.17-11.47Zm-47.82,176.69c16.68-16.62,33.33-33.26,49.91-49.97,6.12-6.17,7.34-13.26,.9-19.59-6.44-6.33-13.42-4.91-19.6,1.21-8.05,7.98-16.07,16-24.13,23.97-5.26,5.2-9.82,13.15-16.06,14.84-8.22,2.23-11.51-8.54-17.4-13.1-6.28-4.87-12.6-6.79-18.75-.92-6.52,6.23-5.77,13.35,.23,19.64,7.82,8.2,15.97,16.09,24,24.08,2.88,2.86,6.27,4.67,10.47,4.62,4.19-.02,7.59-1.94,10.43-4.77Zm396.06-74.07c0,97.85,.01,195.71,0,293.56,0,33.23-14.48,47.52-48.08,47.54-42.82,.02-85.64,.04-128.46-.01-16.64-.02-18.61-1.79-20.45-18.29-3.8-34.02-20.63-58.21-53.9-68.54-30.25-9.39-57.8-3.72-80.98,18.81-8.97,8.72-14.18,19.71-18.46,31.28-2.82,7.61-1.56,10.87,7.63,10.72,29.27-.48,58.55-.14,87.83-.2,6.76-.01,13.21,.34,16.94,7.28,4.08,7.6,.36,16.28-8.36,18.35-3.75,.89-7.81,.59-11.74,.59-82.15,.03-164.3,.04-246.45,0-31.76-.01-46.17-14.54-46.17-46.54-.02-164.69,0-329.39,0-494.08,0-3.06-.07-6.12,.09-9.17,.42-8.2,4.71-13.51,12.94-13.45,8.19,.06,12.47,5.52,13.07,13.56,.29,3.91,.12,7.86,.12,11.79,0,162.07,0,324.14,0,486.21,0,24.52,.97,25.47,26.1,25.47,2.18,0,4.41-.26,6.55,.04,13.33,1.85,21.96,.29,20.61-17.37-.91-11.91,8.7-19.08,20.13-22.8,14.86-4.85,20.26-18.89,13.51-33.4-5.69-12.23-5.02-23.79,4.8-33.8,11.93-12.16,23.87-24.32,36.11-36.17,10.68-10.34,21.19-11.63,34.72-5.07,13.81,6.7,28.1,.65,33.36-14.13,5.15-14.47,13-20.49,28.2-20.74,16.6-.28,33.21-.29,49.81,0,15.11,.27,23.09,6.41,28.23,20.78,5.36,14.96,19.31,20.8,33.41,13.97,13.32-6.45,24.01-5.03,34.69,5.32,11.92,11.55,23.64,23.32,35.18,35.25,10.85,11.22,12.09,21.4,4.99,35.73-6.17,12.45-.07,27.5,12.96,31.98,16.62,5.71,22.09,12.69,22.21,31.04,.05,7.27,1.68,10.1,9.34,9.52,8.69-.66,17.47-.34,26.21-.11,12.28,.31,17.6-5.81,17.13-17.7-.09-2.18-.01-4.37-.01-6.55,0-193.52,0-387.05,0-580.57,0-22-2.45-24.37-25.04-24.38-30.59,0-61.2,.74-91.75-.35-12.73-.45-15.92,4-14.42,15.3,.57,4.29,.41,8.77-.1,13.08-1.43,12.01-7.82,20.71-19.72,23.33-11.54,2.54-23.52,1.55-35.24,.51-6.38-.57-9.9-5.37-10.19-11.78-.3-6.41,2.96-10.9,8.97-12.96,2.4-.83,5.15-.77,7.75-.88q22.4-.89,22.4-23.9c0-15.29-.28-30.59,.13-45.87,.18-6.72-1.74-9.08-8.8-9.05-55.49,.26-110.99,.28-166.48-.02-7.36-.04-8.62,2.82-8.52,9.21,.31,20.09,.42,40.2-.05,60.28-.17,7.34,1.89,9.62,9.38,9.49,25.34-.45,50.69-.04,76.03-.24,9.64-.07,18.65,1.7,18.92,13.03,.27,11.54-8.66,13.39-18.38,13.32-27.09-.19-54.18,.02-81.27-.1-21.23-.09-30.45-9.29-30.74-30.22q-.3-22.18-22.91-22.18c-29.28,0-58.55-.04-87.83,.02-17.13,.03-20.35,3.43-20.46,20.92-.04,6.55,.35,13.16-.44,19.62-.89,7.36-5.37,12.05-13.25,11.65-7.7-.4-12.08-5.02-12.27-12.66-.26-10.47-.77-21.05,.33-31.42,2.16-20.42,18.79-34.11,41.13-34.27,34.96-.24,69.92-.33,104.87,.12,8.42,.11,12.09-1.87,10.95-10.76-.66-5.16-.33-10.48-.03-15.71,.89-15.19,10.56-25.83,25.75-25.93,61.17-.4,122.35-.42,183.52-.02,16.58,.11,26.15,11.65,26.63,29.37q.62,22.85,23.2,22.85c28.84,0,57.68-.02,86.52,0,32.94,.03,47.61,14.88,47.62,48.24,.02,97.42,0,194.84,0,292.25Zm-114.62,297.84c-17.91-6.7-36.53-38.89-28.22-54.24,8.7-16.09,1.3-23.37-8.63-32.32-5.18-4.67-10.25-9.56-14.68-14.93-5.29-6.4-9.92-6.98-17.73-3.12-16.61,8.19-53.62-3.09-58.24-19.22-4.54-15.84-13.56-17.26-26.55-16.35-8.25,.58-16.62,.52-24.86-.16-6.97-.57-9.64,2.17-11.86,8.61-6.56,19.05-36.73,37.31-54.79,29.07-17.85-8.14-24.84,1.33-34.21,11.16-4.82,5.05-9.68,10.1-14.9,14.72-4.18,3.7-4.94,6.87-2.59,12.39,11.29,26.55-.32,54.07-27.89,65.25-6.49,2.63-5.62,6.64-5.81,11.23-.27,6.65,4.81,4.86,8.27,4.89,16.15,.15,32.32-.34,48.45,.24,7.86,.28,9.89-2.73,11.52-10.08,10.34-46.68,46.22-76.7,95.44-80.8,44.22-3.68,86,22.27,103.32,63.5,3.74,8.9,1.51,22.26,10.47,26.2,8.41,3.69,19.72,.79,29.76,.79,0,.07,0,.15,0,.22,6.98,0,14.05,.63,20.93-.23,4.24-.53,10.93,4.25,12.57-4.5,1.52-8.13-3.44-9.95-9.76-12.32Z"/>
</svg>