<?xml version="1.0" encoding="UTF-8"?>
<svg id="Layer_1" data-name="Layer 1" xmlns="http://www.w3.org/2000/svg" viewBox="0 0 14 14">
  <defs>
    <style>
      .cls-1 {
        fill: #393939;
      }

      .cls-2 {
        fill: none;
      }
    </style>
  </defs>
  <rect class="cls-2" width="14" height="14"/>
  <path class="cls-1" d="M12.01,2.27c-.14,0-.26-.12-.26-.26,0-.14,.12-.25,.26-.25,.14,0,.25,.11,.25,.25,0,.14-.11,.26-.25,.26Zm-.77-.26c0,.12-.09,.24-.21,.25-.05,0-.09,0-.14,0-.75,0-1.49,0-2.24,0-.09,0-.13,.02-.15,.11-.21,.88-1.13,1.4-2.02,1.08-.5-.18-.83-.55-.96-1.07-.02-.1-.06-.12-.16-.12-.92,0-1.83,0-2.75,0-.08,0-.11,.02-.11,.11,0,.98,0,1.96,0,2.94,0,.06,.02,.11,.07,.15,.42,.42,.84,.83,1.26,1.25,.05,.05,.09,.07,.16,.07,.46,0,.92,0,1.38,0,.07,0,.1-.02,.1-.1,0-.28,0-.56,0-.84,0-.25,.1-.35,.34-.35,.81,0,1.61,0,2.42,0,.24,0,.33,.09,.33,.33,0,.81,0,1.61,0,2.42,0,.24-.09,.33-.33,.33-.81,0-1.62,0-2.43,0-.23,0-.33-.1-.33-.33,0-.28,0-.56,0-.84,0-.08-.01-.11-.1-.11-.46,0-.93,0-1.39,0-.06,0-.1,.02-.13,.06-.43,.43-.85,.85-1.28,1.28-.04,.04-.06,.08-.06,.13,0,.95,0,1.91,0,2.86,0,.05,0,.09,.07,.09,.74,0,1.48,0,2.21,0,0,0,.01,0,.04-.01-.15-.15-.3-.29-.44-.43-.08-.08-.11-.17-.08-.28,.03-.09,.1-.15,.2-.17,.1-.02,.18,.03,.26,.09,.16,.16,.32,.32,.48,.48,.05,.05,.07,.05,.11-.02,.25-.49,.67-.77,1.19-.89,.58-.13,1.14-.05,1.63,.3,.92,.67,.85,1.87-.13,2.45-.75,.45-1.81,.34-2.42-.3-.1-.1-.19-.22-.25-.35-.04-.08-.07-.1-.14-.03-.16,.17-.32,.33-.49,.49-.1,.09-.22,.11-.32,.04-.1-.06-.14-.17-.11-.28,.02-.06,.06-.11,.1-.15,.14-.14,.27-.27,.41-.42-.03-.03-.08-.02-.11-.02-.79,0-1.58,0-2.37,0-.27,0-.36-.09-.36-.36,0-1.02,0-2.04,0-3.06,0-.09-.02-.15-.09-.21-.44-.44-.88-.87-1.32-1.31-.19-.19-.19-.31,0-.49,.45-.44,.89-.89,1.34-1.33,.05-.05,.07-.1,.07-.17,0-1.06,0-2.13,0-3.19,0-.08,0-.15,.04-.22,.07-.12,.18-.13,.3-.13,.87,0,1.75,0,2.62,0,.15,0,.3,0,.45,0,.07,0,.1-.02,.12-.09,.1-.42,.33-.74,.69-.96,.46-.28,.94-.31,1.44-.1,.46,.2,.76,.56,.87,1.05,.02,.09,.07,.09,.14,.09,.75,0,1.49,0,2.24,0,.05,0,.1,0,.15,.01,.12,.02,.21,.12,.21,.24ZM5.87,12.45c.27,.4,.68,.54,1.13,.56,.41-.02,.76-.13,1.04-.42,.33-.33,.33-.88,0-1.21-.56-.56-1.51-.56-2.07,0-.29,.29-.33,.74-.1,1.07Zm.11-4.47c0,.08,.02,.1,.1,.1,.31,0,.62,0,.93,0s.62,0,.93,0c.07,0,.1-.01,.1-.09,0-.62,0-1.25,0-1.87,0-.07-.02-.09-.09-.09-.62,0-1.25,0-1.87,0-.08,0-.1,.02-.1,.1,0,.62,0,1.24,0,1.86Zm-3.67-2.05c-.05-.05-.08-.05-.13,0-.35,.35-.7,.7-1.05,1.05-.05,.05-.05,.07,0,.12,.36,.35,.71,.7,1.06,1.06,.02,.02,.03,.04,.07,.04,.02-.01,.04-.03,.05-.05,.35-.35,.7-.7,1.06-1.05,.05-.05,.05-.08,0-.13-.35-.35-.71-.7-1.05-1.05Zm5.73-3.91c0-.56-.46-1.03-1.03-1.03-.56,0-1.03,.46-1.03,1.02,0,.56,.46,1.02,1.02,1.03,.57,0,1.02-.45,1.03-1.02Zm5.55,6.24c0,.24-.1,.33-.33,.33-.41,0-.82,0-1.23,0-.4,0-.8,0-1.2,0-.24,0-.33-.09-.33-.33,0-.81,0-1.61,0-2.42,0-.24,.09-.33,.33-.33,.27,0,.54,0,.81,0,.1,0,.13-.02,.13-.12,0-.75,0-1.5,0-2.25,0-.05,0-.1,.01-.15,.03-.12,.13-.2,.24-.2,.11,0,.22,.08,.25,.2,.01,.05,.01,.09,.01,.14,0,.76,0,1.51,0,2.27,0,.09,.02,.12,.11,.12,.29,0,.58,0,.87,0,.24,0,.33,.1,.33,.33,0,.81,0,1.61,0,2.42Zm-.52-.27c0-.63,0-1.26,0-1.88,0-.06-.01-.09-.08-.09-.63,0-1.26,0-1.88,0-.07,0-.09,.02-.09,.09,0,.62,0,1.25,0,1.87,0,.08,.03,.09,.1,.09,.31,0,.62,0,.93,0,.31,0,.63,0,.94,0,.07,0,.09-.02,.09-.09Z"/>
</svg>