<?xml version="1.0" encoding="UTF-8"?>
<svg id="Layer_1" data-name="Layer 1" xmlns="http://www.w3.org/2000/svg" viewBox="0 0 14 14">
  <defs>
    <style>
      .cls-1 {
        fill: #393939;
      }

      .cls-2 {
        fill: none;
      }
    </style>
  </defs>
  <rect class="cls-2" width="14" height="14"/>
  <path class="cls-1" d="M11.94,11.02c-.19,0-.39,0-.58,0-.16,0-.32-.03-.31-.23,0-.19,.16-.23,.32-.23,.24,0,.48-.01,.71,0,.22,.01,.29-.08,.28-.29-.01-.25,0-.51,0-.76,0-.14,.06-.27,.23-.28,.17,0,.23,.13,.23,.27,0,.4,0,.8,0,1.2,0,.19-.11,.3-.31,.3-.19,0-.39,0-.58,0Zm-9.24,0c.15,0,.28-.05,.28-.22,0-.16-.11-.23-.27-.24-.22,0-.45-.02-.67,0-.28,.02-.42-.05-.38-.36,.02-.21,0-.42,0-.62,0-.16-.03-.32-.22-.33-.22,0-.24,.18-.25,.35,0,.16,0,.33,0,.49,0,1.07-.08,.92,.93,.93,.19,0,.39,0,.58,0Zm11.01-3.92c0,.81-.44,1.23-1.25,1.24-.65,0-1.31,0-1.96,0-.12,0-.32-.1-.33,.16,0,1.25-.02,2.49-.03,3.74,0,1.07-.38,1.45-1.44,1.45-1.19,0-2.38,0-3.57,0-.81,0-1.24-.43-1.25-1.24-.01-1.23-.01-2.47,0-3.7,0-.34-.09-.44-.43-.42-.58,.03-1.16,0-1.74,0-.92,0-1.23-.24-1.44-1.11,0-1.82,.03-3.65,.02-5.47,0-.69,.22-1.18,.87-1.44,1.15,0,2.31,0,3.46,0,.54,.53,1.06,1.08,1.61,1.6,.23,.22,.34,.45,.33,.78-.02,.87,.02,1.75-.02,2.63-.02,.42,.23,.34,.48,.36,.28,.02,.43-.01,.42-.37-.02-1.22-.01-2.43,0-3.65,0-.91,.43-1.34,1.34-1.34,1,0,1.99,0,2.99,0,.57,.57,1.13,1.13,1.71,1.69,.16,.16,.23,.33,.23,.55,0,1.51,0,3.03,0,4.54Zm-.85-5.06c-.28-.31-.54-.61-.88-.86-.09,.68,.21,.97,.88,.86Zm-7.14,0c-.3-.3-.54-.61-.89-.85-.08,.68,.23,.97,.89,.85Zm.03,3.63c.31,.03,.37-.1,.36-.38-.02-.79-.02-1.57,0-2.36,0-.29-.07-.38-.37-.38-1.07,0-1.4-.34-1.41-1.42,0-.32-.12-.37-.4-.36-.39,.02-.77,0-1.16,0-.4,0-.8,0-1.2,0-.54,0-.8,.25-.8,.79,0,1.86,0,3.71,0,5.57,0,.52,.25,.76,.77,.77,.67,0,1.34-.01,2.01,0,.3,0,.36-.11,.33-.36-.12-1.33,.22-2.01,1.87-1.87Zm3.93,2.62c0-.28-.06-.39-.37-.39-1.07,0-1.4-.33-1.41-1.42,0-.31-.12-.37-.39-.36-.77,.01-1.55,0-2.32,0-.6,0-.84,.24-.85,.83,0,.91,0,1.81,0,2.72,0,.92,0,1.84,0,2.76,0,.58,.24,.8,.82,.81,1.23,0,2.47,0,3.7,0,.58,0,.81-.23,.81-.81,0-1.38,0-2.76,0-4.15Zm-.46-.87c-.29-.29-.56-.56-.83-.82-.11,.59,.18,.89,.83,.82ZM13.26,2.87c0-.25-.08-.32-.33-.33-1.13-.03-1.43-.32-1.45-1.43,0-.27-.08-.36-.35-.36-.8,.02-1.6,0-2.41,0-.54,0-.79,.25-.8,.79,0,1.26,0,2.52,0,3.79,0,.11-.04,.22,.1,.31,.87,.55,1.58,1.26,2.13,2.12,.1,.16,.23,.11,.35,.11,.65,0,1.31,0,1.96,0,.55,0,.79-.24,.8-.78,0-.7,0-1.4,0-2.09,0-.71,0-1.43,0-2.14ZM4.63,.31s0,0,0,0c0,0,0,0,0,0h0Zm1.46,9.16c-.13,.02-.22,.1-.2,.24,.02,.13,.11,.22,.24,.2,.13-.01,.2-.11,.21-.27-.04-.09-.11-.19-.25-.17Zm1.14,.22c0-.14-.09-.22-.22-.23-.13,0-.23,.08-.23,.22,0,.14,.09,.21,.22,.24,.13-.02,.22-.09,.22-.23Zm.65-.22c-.13,.01-.22,.1-.21,.24,.01,.13,.1,.22,.24,.21,.13-.01,.21-.1,.21-.24-.03-.13-.11-.21-.24-.2Zm4.16-2.9c.16,0,.31-.03,.3-.24,0-.16-.13-.22-.28-.22-.55,0-1.09,0-1.64,0-.15,0-.27,.06-.28,.22,0,.2,.14,.23,.3,.23,.25,0,.5,0,.75,0,.28,0,.56,0,.84,0Zm.02-2.68c.14,0,.28-.04,.28-.21,0-.16-.1-.24-.25-.24-.56,0-1.12,0-1.68,0-.15,0-.26,.07-.26,.24,0,.17,.13,.21,.28,.21,.27,0,.53,0,.8,0,.28,0,.56,0,.84,0Zm-2.15,1.34c.27,0,.54,0,.8,0,.14,0,.28-.03,.29-.21,0-.16-.1-.24-.26-.24-.57,0-1.13,0-1.7,0-.15,0-.25,.09-.24,.26,.01,.15,.13,.19,.25,.19,.28,0,.57,0,.85,0h0Zm.39-2.68c.15,0,.27-.06,.26-.23,0-.14-.1-.22-.23-.22-.43,0-.85,0-1.28,0-.15,0-.25,.09-.23,.26,.01,.15,.13,.19,.25,.19,.21,0,.41,0,.62,0,.21,0,.41,0,.62,0Zm2.04,2.47c.01-.28-.23-.25-.42-.25-.19,0-.44-.04-.43,.24,0,.29,.26,.2,.44,.23,.17-.02,.41,.05,.42-.21Zm-2.68-1.35c0-.28-.25-.24-.44-.24-.19,0-.43-.03-.42,.25,.01,.26,.25,.19,.41,.21,.18-.02,.44,.06,.44-.23Zm-4.74,.22c.15,0,.28-.05,.27-.22,0-.16-.13-.23-.27-.23-.55,0-1.1,0-1.65,0-.15,0-.27,.07-.27,.23,0,.17,.13,.22,.27,.22,.27,0,.54,0,.8,0,.28,0,.57,0,.85,0Zm-1.33,1.34c.15,0,.27-.06,.26-.23,0-.14-.1-.22-.23-.22-.58,0-1.15,0-1.73,0-.15,0-.25,.09-.24,.26,.01,.15,.13,.19,.25,.19,.28,0,.56,0,.84,0,.28,0,.56,0,.84,0Zm-.42-2.68c.13,0,.23-.07,.23-.21,0-.14-.09-.23-.22-.23-.44,0-.88,0-1.33,0-.13,0-.21,.1-.21,.24,0,.15,.11,.2,.24,.2,.21,0,.41,0,.62,0,.22,0,.44,0,.66,0Zm-.24,3.78c0-.37-.42-.2-.66-.21-.22,0-.6-.14-.61,.22,0,.39,.39,.16,.6,.25,.22-.11,.67,.18,.66-.26Zm2.25-1.33c0-.27-.26-.23-.44-.23-.18,0-.4-.02-.41,.22-.02,.3,.24,.22,.43,.25,.16-.03,.42,.05,.42-.24ZM1.67,3.66c0,.26,.23,.23,.4,.22,.18,0,.44,.08,.46-.21,.02-.28-.23-.25-.44-.26-.17,.02-.41-.04-.42,.24Z"/>
</svg>