<?xml version="1.0" encoding="UTF-8"?>
<svg id="Layer_1" data-name="Layer 1" xmlns="http://www.w3.org/2000/svg" viewBox="0 0 14 14">
  <defs>
    <style>
      .cls-1 {
        fill: #393939;
      }

      .cls-2 {
        fill: none;
      }
    </style>
  </defs>
  <rect class="cls-2" width="14" height="14"/>
  <path class="cls-1" d="M4.86,6.26c-.66,0-1.33,0-1.99,0-.18,0-.18-.09-.17-.21,0-.11-.06-.24,.16-.24,1.33,0,2.67,0,4,0,.12,0,.14,.04,.14,.15,0,.29,0,.29-.29,.29-.62,0-1.23,0-1.85,0Zm1.97,1.29c.21,0,.16-.11,.17-.23,0-.12,.03-.22-.17-.22-1.32,.01-2.63,.01-3.95,0-.2,0-.17,.1-.17,.22,0,.13-.01,.22,.18,.22,.66-.01,1.31,0,1.97,0,.66,0,1.32,0,1.99,0Zm0,1.28c.18,0,.17-.09,.16-.21,0-.11,.05-.23-.16-.23-1.32,0-2.64,0-3.95,0-.18,0-.19,.08-.18,.22,0,.13-.01,.23,.18,.22,.66-.01,1.31,0,1.97,0,.66,0,1.32,0,1.99,0Zm0-3.85c.17,0,.19-.07,.17-.2-.01-.11,.07-.25-.16-.25-.89,.01-1.78,.01-2.66,0-.19,0-.18,.09-.18,.22,0,.12-.03,.23,.17,.23,.45-.02,.89,0,1.34,0,.44,0,.88-.01,1.32,0ZM2.88,2.82c-.16,0-.2,.06-.18,.2,.01,.11-.05,.25,.17,.25,.75-.01,1.5-.01,2.24,0,.23,0,.15-.14,.17-.25,.02-.14,0-.2-.18-.2-.36,.01-.72,0-1.08,0-.38,0-.76,0-1.14,0Zm3.41,7.28c-.2-.01-.14,.13-.15,.22,0,.1-.05,.23,.15,.22,.42-.01,.84,0,1.26,0,.3,0,.29,0,.29-.3,0-.12-.05-.14-.15-.14-.23,0-.45,0-.68,0-.24,0-.48,.01-.72,0Zm1.4,1.3c.18,.01,.15-.1,.15-.2,0-.1,.08-.25-.15-.24-.42,.01-.84,0-1.26,0-.3,0-.29,0-.29,.3,0,.12,.05,.14,.15,.14,.23,0,.47,0,.7,0,.23,0,.47-.01,.7,0ZM5.15,2.4c.19,0,.13-.13,.13-.22,0-.09,.06-.22-.13-.22-.48,0-.96,0-1.44,0-.19,0-.13,.13-.13,.22,0,.09-.06,.23,.13,.22,.23-.01,.47,0,.7,0,.25,0,.49,0,.74,0Zm-1.75,2.57c.06,0,.14,.03,.18-.05,.09-.21-.02-.38-.25-.38-.13,0-.27,.01-.4,0-.17-.02-.23,.04-.23,.22,0,.19,.06,.25,.24,.23,.07,0,.13,0,.2,0,.09,0,.17,0,.26,0Zm-.44-3c-.14,.01-.28-.03-.26,.21,.01,.15,.02,.26,.21,.23,.13-.02,.29,.03,.23-.2,.03-.14,.02-.26-.18-.24Zm7.48,7.88c-.01,.72,0,1.43,0,2.15,0,.37-.16,.58-.51,.67-.12,.03-.14,.09-.14,.19,0,.43-.25,.68-.69,.68-2.61,0-5.21,0-7.82,0-.45,0-.7-.26-.7-.72,0-1.76,0-3.52,0-5.28,0-1.75,0-3.49,0-5.24,0-.5,.21-.74,.72-.76,.11,0,.13-.05,.13-.14,.02-.47,.27-.71,.73-.71,2.01,0,4.02,0,6.03,0,.14,0,.24,.04,.33,.15,.6,.68,1.2,1.35,1.81,2.02,.07,.08,.1,.17,.1,.27,0,.42-.01,.84,0,1.26,0,.19-.1,.16-.21,.16-.1,0-.23,.05-.22-.15,.02-.3,0-.6,0-.9,.01-.2-.06-.23-.24-.23-.32,.01-.64,0-.96,0-.48,0-.73-.25-.73-.73,0-.42,0-.83,0-1.25,0-.13-.04-.17-.17-.17-1.92,0-3.84,0-5.77,0-.23,0-.29,.06-.29,.31,0,1.35,0,2.69,0,4.04,0,2.14,0,4.28,0,6.43,0,.32,.03,.36,.36,.36,2.48,0,4.96,0,7.43,0,.31,0,.35-.05,.35-.36,0-.68,0-1.35,0-2.03,0-.17,.08-.18,.2-.17,.11,0,.24-.04,.23,.16Zm-1.93-7.26c0,.11,.04,.22,.16,.22,.34,.01,.68,0,1.06,0-.41-.45-.79-.88-1.17-1.3-.01,0-.03,.01-.04,.02,0,.35,0,.7,0,1.05Zm.65,10.11c-2.3,0-4.61,0-6.91,0-.58,0-.82-.24-.82-.82,0-3.23,0-6.47,0-9.7,0-.07,.07-.2-.11-.2-.15,0-.29,0-.3,.21,0,.05,0,.11,0,.16,0,1.73,0,3.47,0,5.2,0,1.74,0,3.48,0,5.22,0,.31,.03,.34,.35,.34,2.55,0,5.1,0,7.65,0,.04,0,.08,0,.12,0,.18,0,.23-.13,.24-.29,.01-.2-.13-.13-.22-.13Zm4.28-5.58c0,.39-.28,.75-.65,.84-.41,.09-.81-.1-.98-.48-.05-.11-.1-.14-.2-.14-.63,0-1.26,0-1.89,0-.07,0-.17-.03-.18,.1,0,.13-.19,.22-.02,.39,.57,.55,1.12,1.11,1.68,1.67,.07,.07,.13,.09,.22,.05,.37-.15,.76-.04,.99,.27,.23,.3,.24,.71,.02,1.03-.22,.31-.63,.44-.98,.31-.36-.13-.59-.47-.57-.86,0-.04,0-.09,.01-.12,.15-.23,.02-.36-.14-.52-.52-.5-1.03-1.02-1.53-1.53-.08-.08-.13-.09-.23-.04-.47,.23-1.01,.09-1.32-.31-.29-.38-.29-.95,0-1.32,.31-.39,.85-.52,1.3-.3,.12,.06,.17,.03,.25-.05,.55-.55,1.1-1.1,1.65-1.65,.08-.08,.11-.13,.06-.25-.14-.34-.06-.66,.2-.92,.26-.25,.58-.3,.91-.18,.35,.13,.54,.42,.54,.77,0,.65-.59,1.02-1.15,.82-.11-.04-.17-.04-.26,.05-.55,.56-1.11,1.11-1.66,1.66-.05,.05-.14,.1-.06,.2,.08,.1,.02,.31,.25,.29,.31-.02,.63,0,.94,0,.31,0,.63,0,.94,0,.11,0,.16-.02,.21-.13,.17-.39,.56-.57,.98-.49,.37,.08,.66,.44,.66,.83Zm-2.13-3.21c0,.24,.19,.43,.43,.43,.23,0,.42-.19,.42-.42,0-.24-.19-.43-.43-.43-.23,0-.41,.19-.41,.42Zm-2.16,3.21c0-.36-.28-.63-.64-.63-.35,0-.64,.29-.65,.63,0,.35,.3,.64,.66,.64,.36,0,.62-.28,.62-.64Zm2.16,3.23c0,.24,.18,.42,.42,.42,.24,0,.43-.2,.43-.43,0-.23-.19-.42-.42-.42-.24,0-.43,.19-.42,.43Zm1.7-3.23c0-.23-.19-.42-.42-.42-.23,0-.44,.2-.43,.43,0,.23,.2,.42,.43,.42,.24,0,.43-.19,.42-.43Z"/>
</svg>