<?xml version="1.0" encoding="UTF-8"?>
<svg id="Layer_1" data-name="Layer 1" xmlns="http://www.w3.org/2000/svg" viewBox="0 0 14 14">
  <defs>
    <style>
      .cls-1 {
        fill: #393939;
      }

      .cls-2 {
        fill: none;
      }
    </style>
  </defs>
  <rect class="cls-2" width="14" height="14"/>
  <path class="cls-1" d="M3.89,13.38c-.32,0-.65-.01-.97,0-.18,0-.18-.08-.17-.2,0-.11-.05-.24,.16-.23,.61,.01,1.23,0,1.84,0,.28,0,.33-.05,.33-.34,0-.2,.01-.4,0-.59-.01-.17,.11-.14,.19-.13,.09,.01,.25-.09,.24,.12,0,.25,0,.5,0,.74-.02,.37-.28,.61-.65,.62-.32,0-.65,0-.97,0Zm7.18,0c.18,0,.19-.06,.19-.21,0-.13,.02-.23-.19-.23-.62,.02-1.24,0-1.86,0-.19,0-.29-.08-.29-.28,0-.17,0-.34,0-.51,0-.29,0-.28-.28-.28-.12,0-.16,.03-.15,.15,0,.23,0,.47,0,.7,.02,.38,.28,.63,.65,.64,.32,0,.64,0,.95,0,.32,0,.65-.01,.97,0Zm-8.95-.44c-.18,0-.22,.04-.22,.22,0,.18,.05,.22,.23,.22,.17,0,.26-.03,.21-.22,.06-.2-.05-.21-.21-.22Zm9.55,.21c0,.16,.01,.25,.21,.23,.15-.01,.25,0,.24-.21-.01-.15,0-.28-.21-.22-.16-.03-.25,0-.24,.2Zm1.63-3.2c-.54,.67-1.08,1.35-1.62,2.02-.07,.09-.15,.16-.27,.12-.13-.04-.16-.15-.16-.27,0-.2,0-.4,0-.59,0-.14-.02-.19-.18-.19-.71,0-1.43,0-2.14,0-.1,0-.17,.02-.24,.09-.12,.11-.25,.21-.36,.33-.16,.17-.32,.23-.51,.06-.03-.02-.06-.03-.11-.06-.02,.09-.04,.16-.06,.23-.03,.14-.12,.2-.26,.2-.22,0-.44,0-.66,0-.3,0-.32-.02-.39-.3,0-.03-.02-.07-.03-.1-.02,0-.04,0-.05,0-.35,.18-.37,.2-.64-.09-.26-.28-.54-.39-.93-.37-.59,.03-1.17,.01-1.76,0-.13,0-.19,.03-.18,.17,.01,.21,0,.42,0,.64,0,.12-.04,.21-.16,.25-.11,.03-.19-.02-.26-.11-.55-.69-1.1-1.37-1.64-2.05-.09-.12-.08-.23,0-.34,.55-.68,1.09-1.36,1.63-2.04,.07-.09,.16-.15,.27-.11,.12,.04,.15,.14,.14,.26,0,.21,0,.41,0,.62,0,.13,.02,.18,.17,.18,.72,0,1.44,0,2.17,0,.09,0,.16-.02,.23-.09,.12-.12,.26-.22,.37-.35,.15-.16,.31-.21,.49-.06,.03,.02,.07,.04,.11,.06,.16-.43,.04-.42,.6-.41,.13,0,.25,0,.38,0,.31,0,.33,.01,.4,.31,0,.03,.02,.07,.04,.14,.3-.35,.53-.14,.73,.09,.22,.26,.48,.33,.82,.32,.61-.03,1.22-.01,1.83,0,.13,0,.17-.03,.17-.16-.01-.21,0-.42,0-.64,0-.12,.03-.21,.15-.26,.12-.04,.2,.02,.27,.11,.54,.68,1.09,1.36,1.63,2.04,.1,.13,.09,.24,0,.36Zm-8.16-.84s.11,0,.14-.05c-.04-.14-.14-.14-.25-.14-.8,0-1.6,0-2.4,0-.23,0-.29-.06-.29-.29,0-.1,0-.2,0-.31-.42,.45-.78,.91-1.15,1.37-.07,.08-.01,.13,.03,.18,.36,.45,.71,.89,1.07,1.34h.05c0-.08,0-.16,0-.23,0-.33,.04-.37,.36-.37,.78,0,1.56,0,2.33,0,.12,0,.22-.01,.24-.15q-.39-.11-.39-.52c0-.16,0-.33,0-.49-.01-.19,.05-.31,.25-.35Zm3.28,.32c-.28-.07-.32-.2-.16-.44,.05-.08,.1-.15,.16-.24-.09-.13-.22-.22-.33-.32-.09-.08-.16,.02-.22,.06-.37,.22-.46,.19-.54-.23-.03-.18-.12-.21-.28-.19-.15,.01-.3-.05-.35,.19-.08,.41-.17,.45-.52,.24-.22-.13-.21-.13-.5,.15-.15,.15,0,.22,.06,.3,.2,.31,.16,.42-.2,.5-.17,.04-.25,.09-.24,.29,.01,.18,0,.31,.24,.36,.36,.06,.4,.19,.18,.51-.04,.06-.14,.13-.11,.2,.07,.14,.21,.23,.33,.32,.08,.06,.14-.03,.21-.07,.37-.22,.44-.19,.54,.23,.02,.07,.01,.17,.08,.18,.15,.02,.3,.03,.44,0,.09-.02,.08-.15,.1-.24,.07-.32,.19-.37,.48-.2,.05,.03,.1,.06,.15,.09,.05,.04,.1,.03,.15,0,.32-.22,.33-.27,.13-.59-.02-.02-.04-.05-.05-.07-.05-.14-.03-.25,.12-.31,.09-.03,.18-.04,.27-.07,.05-.01,.11-.03,.13-.09,.09-.26-.02-.47-.29-.54Zm4.41,.24c-.36-.45-.72-.9-1.1-1.37-.06,.1-.03,.18-.04,.25,0,.32-.04,.37-.37,.37-.78,0-1.56,0-2.33,0-.12,0-.22,.01-.24,.16q.39,.1,.39,.5c0,.12,0,.24,0,.36q0,.42-.4,.54c.03,.15,.13,.15,.25,.15,.8,0,1.6,0,2.4,0,.23,0,.29,.06,.29,.29,0,.1,0,.2,0,.3,.42-.45,.78-.91,1.16-1.37,.06-.07,.02-.11-.02-.16Zm.46-3.95c-.24,.75-.99,1.28-1.8,1.28-1.49,0-2.99,0-4.48,0-1.47,0-2.93,0-4.4,0-1.26,0-2.13-1.03-1.94-2.26,.12-.75,.79-1.42,1.54-1.52,.15-.02,.21-.08,.24-.23,.28-1.2,1.4-2.18,2.64-2.33,1.13-.14,2.07,.22,2.83,1.06,.09,.09,.14,.09,.24,.03,1.18-.68,2.59-.03,2.85,1.3,.03,.15,.11,.13,.21,.13,.5-.02,.97,.06,1.38,.37,.68,.5,.95,1.35,.68,2.18Zm-.52-1.37c-.31-.55-.98-.85-1.64-.75-.11,.02-.09,.09-.1,.15-.16,.79-.77,1.39-1.57,1.52-.34,.06-.33,.06-.31-.28,.01-.22,.19-.12,.29-.15,.61-.14,1.01-.51,1.15-1.11,.15-.62-.04-1.16-.56-1.54-.5-.37-1.04-.38-1.6-.11-.14,.07-.13,.13-.07,.26,.22,.4,.34,.84,.36,1.3,0,.07,.05,.2-.1,.16-.11-.03-.32,.13-.33-.15,0-.25-.06-.49-.14-.73-.38-1.16-1.61-2.04-2.99-1.85-1.02,.14-2.02,.96-2.27,1.95-.03,.11-.04,.16,.11,.2,.84,.22,1.4,.89,1.46,1.7,0,.05,.06,.12-.04,.16-.21,.07-.37-.02-.4-.24-.11-.71-.75-1.25-1.47-1.25-.72,0-1.35,.55-1.45,1.25-.14,.94,.54,1.72,1.5,1.73,1.47,0,2.94,0,4.42,0,1.49,0,2.97,0,4.46,0,1.16,0,1.87-1.23,1.29-2.23Zm-5.92,1.8c.06,0,.15,.04,.17-.04,.02-.11,.03-.23,0-.34-.03-.1-.15-.03-.23-.04-.06,0-.11,0-.17,0-1.33,0-2.66,0-3.99,0-.35,0-.6-.18-.68-.47-.09-.36,.09-.69,.46-.78,.27-.06,.15-.26,.14-.38,0-.15-.14-.06-.22-.04-.54,.12-.89,.6-.83,1.14,.06,.55,.5,.95,1.06,.96,.71,0,1.41,0,2.12,0,.72,0,1.44,0,2.16,0Zm1.02,3.61c0,.47-.38,.85-.84,.85-.47,0-.85-.37-.86-.84,0-.47,.38-.86,.85-.86,.47,0,.85,.38,.85,.85Zm-.43,0c0-.23-.2-.42-.42-.41-.23,0-.42,.19-.42,.42,0,.24,.2,.43,.43,.42,.23,0,.41-.21,.4-.43Z"/>
</svg>