<?xml version="1.0" encoding="UTF-8"?>
<svg id="Layer_1" data-name="Layer 1" xmlns="http://www.w3.org/2000/svg" viewBox="0 0 14 14">
  <defs>
    <style>
      .cls-1 {
        fill: #393939;
      }

      .cls-2 {
        fill: none;
      }
    </style>
  </defs>
  <rect class="cls-2" width="14" height="14"/>
  <path class="cls-1" d="M11.93,7.06c0-.12-.04-.22-.17-.24-.13-.02-.14-.09-.13-.19,0-.1,0-.2,0-.3,0-.96,0-1.92,0-2.88,0-.67-.39-1.05-1.06-1.05-.43,0-.86-.01-1.29,0-.18,0-.21-.05-.21-.22,.01-.41,0-.81,0-1.22,0-.39-.16-.55-.54-.55-.8,0-1.6,0-2.4,0-.81,0-1.63,0-2.44,0-.15,0-.26,.05-.36,.15-.27,.28-.55,.56-.83,.83-.13,.12-.18,.25-.18,.42,0,1.02,0,2.04,0,3.06,0,.11,0,.19-.13,.25-.36,.15-.53,.46-.53,.84,0,1.38-.01,2.76,0,4.14,0,.58,.36,.9,.94,.9,1.01,0,2.01,0,3.02,0,.15,0,.23,.03,.27,.19,.12,.43,.38,.77,.74,1.02,.68,.47,1.37,.93,2.05,1.39,.12,.08,.22,.08,.34,0,.69-.47,1.39-.93,2.07-1.41,.49-.34,.81-.83,.82-1.43,.02-1.24,.07-2.49,.02-3.73Zm-2.67-4.25c.46,0,.92,0,1.38,0,.35,0,.59,.23,.59,.59,0,.52,0,1.04,0,1.57,0,.52,0,1.04,0,1.57,0,.16-.05,.18-.19,.14-.61-.16-.61-.15-.64-.77-.02-.49-.36-.83-.85-.84q-.49-.02-.49-.51c0-.52,0-1.04,0-1.57,0-.15,.04-.19,.19-.19ZM3.36,1.15q.02,.33-.29,.3c.07-.13,.17-.22,.29-.3Zm-.63,.91c0-.15,.03-.21,.19-.2,.13,.01,.26,0,.39,0,.3,0,.46-.17,.47-.47,0-.02,0-.05,0-.07q0-.49,.48-.49c1.39,0,2.78,0,4.17,0,.18,0,.25,.03,.24,.23-.01,1.27,0,2.53,0,3.8,0,.17-.04,.22-.21,.21-.92,0-1.84,0-2.76,0s-1.84,0-2.76,0c-.16,0-.21-.04-.21-.2,0-.94,0-1.87,0-2.81Zm3.07,5.09c-.04,1.08,.03,2.16,.01,3.24,0,.19-.05,.24-.24,.24-.97-.01-1.93,0-2.9,0-.42,0-.58-.17-.58-.59,0-1.33,0-2.65,0-3.98,0-.44,.15-.59,.6-.59,1.13,0,2.26,0,3.38,0,1.12,0,2.24,0,3.36,0,.48,0,.71,.29,.6,.77-.02,.1-.07,.07-.13,.05-.29-.12-.57-.26-.84-.42-.13-.08-.25-.08-.38,0-.8,.48-1.66,.78-2.57,.93-.22,.04-.3,.13-.31,.36Zm5.75,3.35c0,.63-.26,1.12-.78,1.47-.58,.39-1.16,.78-1.73,1.17-.11,.08-.19,.08-.3,0-.57-.4-1.15-.78-1.73-1.17-.52-.34-.79-.82-.79-1.45,0-1.04,0-2.07-.02-3.11,0-.18,.06-.24,.24-.28,.82-.16,1.59-.44,2.32-.84,.1-.05,.16-.07,.27,0,.73,.41,1.51,.69,2.34,.85,.17,.03,.22,.11,.22,.27,0,.55,.02,1.1-.02,1.61,0,.52,0,1,0,1.48ZM5.71,3.87c.65,0,1.3,0,1.95,0,.16,0,.29,.02,.28,.21,0,.18-.14,.19-.28,.19-1.31,0-2.62,0-3.93,0-.14,0-.27-.02-.27-.2,0-.18,.13-.2,.27-.2,.66,0,1.32,0,1.98,0Zm0-.81c-.64,0-1.27,0-1.91,0-.15,0-.34,.03-.33-.2,0-.21,.18-.19,.32-.19,1.28,0,2.56,0,3.85,0,.09,0,.19-.02,.26,.06,.06,.06,.06,.14,.04,.21-.04,.13-.15,.12-.24,.12-.61,0-1.23,0-1.84,0-.05,0-.09,0-.14,0Zm4.65,6.1c0-.26-.1-.52-.37-.57-.27-.05-.27-.2-.26-.39,0-.09,0-.18,0-.28-.02-.49-.39-.84-.89-.83-.47,0-.82,.37-.83,.86,0,.15,0,.29,0,.44,0,.11-.03,.14-.13,.16-.31,.06-.49,.27-.49,.58,0,.6-.01,1.2,0,1.79,0,.35,.24,.56,.59,.57,.3,0,.6,0,.9,0h0c.28,0,.57,0,.85,0,.4,0,.63-.22,.63-.62,0-.57,0-1.14,0-1.7Zm-1.9-1.42c.13-.26,.48-.33,.7-.14,.08,.06,.14,.14,.15,.25,0,.06,.02,.12,.02,.18q.02,.51-.51,.51c-.13-.04-.38,.08-.41-.06-.06-.23-.08-.5,.05-.74Zm1.21,3.36c-.27,0-.54,0-.81,0-.27,0-.54,0-.81,0-.19,0-.28-.07-.28-.27,0-.54,0-1.07,0-1.61,0-.19,.06-.28,.27-.28,.54,0,1.09,0,1.63,0,.21,0,.27,.09,.27,.28,0,.54,0,1.07,0,1.61,0,.2-.09,.27-.28,.27Z"/>
</svg>