<?xml version="1.0" encoding="UTF-8"?>
<svg id="Layer_1" data-name="Layer 1" xmlns="http://www.w3.org/2000/svg" viewBox="0 0 14 14">
  <defs>
    <style>
      .cls-1 {
        fill: #393939;
      }

      .cls-2 {
        fill: none;
      }
    </style>
  </defs>
  <rect class="cls-2" width="14" height="14"/>
  <path class="cls-1" d="M12.43,8.27c-.3-.02-.59,.02-.87,.1-.72,.21-1.44,.43-2.17,.64-.07,.02-.17,.12-.24,0-.21-.35-.56-.43-.91-.53-.63-.17-1.27-.3-1.84-.66-.53-.33-1.12-.31-1.68-.05-.65,.3-1.3,.61-1.95,.92-.1,.05-.15,.06-.22-.07-.15-.28-.43-.36-.72-.24-.28,.12-.55,.24-.83,.36-.33,.15-.44,.44-.3,.77,.14,.33,.28,.65,.43,.98,.37,.84,.73,1.67,1.1,2.5,.14,.31,.43,.44,.72,.32,.31-.12,.61-.25,.9-.39,.27-.13,.38-.41,.28-.69-.03-.08-.07-.17-.11-.24-.05-.09-.03-.15,.07-.19,.24-.11,.47-.23,.71-.34,.16-.07,.33-.1,.5-.05,.39,.11,.79,.23,1.19,.33,.38,.1,.75,.27,1.21,.26,.2,0,.45-.04,.69-.13,1.42-.5,2.82-1.07,4.22-1.61,.32-.12,.53-.37,.65-.68,.28-.69-.11-1.27-.84-1.31ZM3.69,12.6c-.28,.13-.56,.25-.85,.37-.16,.07-.24-.02-.3-.16-.3-.7-.61-1.39-.92-2.09-.19-.43-.38-.85-.56-1.28-.1-.24-.08-.29,.15-.4,.24-.11,.49-.21,.73-.32,.15-.07,.25-.02,.31,.12,.51,1.15,1.02,2.31,1.52,3.46,.02,.04,.02,.08,.03,.1,0,.11-.05,.16-.12,.2Zm9.3-3.31c-.07,.29-.22,.53-.5,.64-1.39,.54-2.78,1.1-4.18,1.6-.21,.08-.44,.12-.67,.12-.36-.01-.69-.16-1.03-.25-.38-.1-.76-.21-1.14-.33-.29-.08-.57-.05-.84,.08-.21,.1-.42,.2-.63,.31-.11,.06-.16,.06-.22-.07-.32-.73-.64-1.46-.96-2.19-.04-.1,0-.13,.07-.17,.63-.3,1.25-.6,1.88-.89,.54-.25,1.09-.27,1.59,.06,.45,.3,.97,.41,1.47,.54,.21,.06,.43,.11,.64,.17,.36,.11,.53,.41,.44,.74-.09,.32-.39,.49-.74,.4-.66-.17-1.32-.35-1.98-.52-.14-.04-.34-.15-.41,.07-.07,.23,.15,.24,.29,.28,.66,.18,1.33,.34,1.98,.53,.61,.18,1.22-.27,1.25-.87,0-.09,.02-.13,.12-.16,.83-.23,1.66-.48,2.49-.71,.23-.06,.47-.08,.71-.01,.3,.08,.45,.32,.38,.63Zm-4.6-3.85c-.25-.01-.51-.04-.76-.05-.14,0-.17-.12-.18-.21-.01-.12,.1-.05,.15-.07,.28-.07,.56-.11,.82-.27,.24-.15,.38-.35,.35-.65-.07-.79-.49-1.3-1.21-1.59-.37-.15-.74-.15-1.11,0-.59,.23-1,.64-1.17,1.26-.16,.57,0,.89,.56,1.09,.2,.07,.41,.12,.62,.14,.1,.01,.12,.04,.08,.13-.04,.1-.09,.15-.21,.16-.24,0-.48,.03-.72,.04-.1,0-.2,.02-.23,.13-.03,.1,.03,.17,.1,.23,.18,.15,.35,.3,.54,.44,.12,.08,.13,.17,.09,.3-.06,.2-.11,.41-.16,.62-.03,.11-.06,.22,.05,.3,.11,.08,.21,0,.3-.06,.19-.12,.39-.24,.57-.37,.09-.06,.15-.06,.24,0,.2,.14,.4,.26,.61,.39,.08,.05,.17,.1,.26,.04,.11-.07,.08-.18,.06-.28-.05-.21-.1-.41-.17-.62-.05-.15-.02-.25,.12-.35,.18-.13,.34-.28,.51-.42,.08-.06,.14-.14,.1-.25-.04-.1-.13-.11-.22-.11Zm-2.54-.87c-.23-.11-.28-.2-.25-.46,.09-.69,.69-1.22,1.39-1.22,.71,0,1.31,.53,1.4,1.23,.03,.21-.04,.34-.23,.43-.25,.12-.52,.16-.79,.2-.12,.02-.13-.06-.16-.14-.04-.11-.07-.23-.23-.23-.14,0-.18,.12-.21,.22-.04,.12-.09,.16-.22,.14-.24-.04-.49-.08-.71-.19Zm1.98,1.31q-.42,.34-.28,.86s.03,.08,0,.13c-.12-.07-.24-.14-.34-.22-.14-.11-.26-.12-.41,0-.11,.08-.23,.15-.36,.23-.01-.16,.04-.3,.09-.43,.06-.17,.02-.29-.12-.39-.11-.08-.21-.17-.35-.29,.18-.02,.33-.04,.47-.04,.17,0,.25-.07,.3-.22,.05-.14,.11-.27,.18-.44,.07,.17,.13,.29,.17,.43,.05,.16,.14,.24,.31,.23,.14,0,.28,.02,.47,.04-.07,.06-.09,.08-.12,.1Zm4.53-1.85c-.1-.69-.51-1.11-1.18-1.3-.04-.03-.03-.05,0-.08,.03-.02,.06-.03,.09-.05,.33-.21,.47-.58,.35-.93-.1-.32-.43-.55-.77-.54-.36,0-.67,.27-.75,.62-.08,.35,.08,.7,.42,.88,.04,.02,.11,.02,.12,.08-.65,.15-1.07,.53-1.24,1.18-.11,.43,.03,.7,.44,.87,.24,.1,.5,.15,.76,.16,.18,.05,.36,.05,.54,0,.31-.02,.61-.08,.89-.22,.28-.15,.38-.35,.33-.66Zm-1.91-2.13c0-.23,.2-.41,.43-.41,.23,0,.43,.2,.42,.44,0,.23-.21,.43-.44,.43-.23,0-.42-.22-.41-.45Zm1.32,2.51c-.29,.12-.6,.15-.91,.15-.28,0-.56-.03-.83-.13-.3-.11-.34-.19-.27-.5,.12-.54,.62-.91,1.16-.88,.54,.03,.98,.44,1.07,.98,.03,.21-.05,.31-.23,.38Zm-7.17-.5c-.14-.63-.54-1.02-1.16-1.19-.04-.03-.03-.05,0-.08,.06-.04,.13-.07,.19-.12,.31-.25,.38-.68,.18-1.02-.21-.34-.64-.48-1-.31-.28,.13-.44,.36-.46,.67-.02,.36,.16,.61,.47,.77,.03,.03,.04,.05,0,.08-.46,.12-.83,.37-1.03,.81-.13,.28-.25,.57-.09,.88,.17,.21,.4,.32,.65,.39,.37,.1,.74,.1,1.12,.07,.41-.03,.81-.11,1.09-.46,.12-.16,.08-.34,.04-.51ZM2.7,1.9c0-.24,.2-.43,.44-.42,.23,0,.41,.2,.41,.43,0,.23-.2,.44-.43,.43-.23,0-.42-.21-.42-.44Zm1.34,2.5c-.2,.1-.59,.16-.99,.16-.24,0-.53-.04-.82-.15-.19-.07-.26-.19-.22-.4,.1-.56,.59-.98,1.16-.96,.57,.02,1.04,.48,1.09,1.04,.02,.18-.09,.24-.22,.31Zm8.13,1.51c-.03-.08-.1-.11-.18-.11-.16,0-.33-.03-.49-.03-.15,0-.22-.06-.27-.19-.07-.2-.12-.41-.26-.58-.07-.06-.13-.06-.2,0-.11,.11-.15,.25-.18,.39-.08,.29-.23,.44-.55,.4-.09-.01-.19,.01-.29,.02-.09,0-.16,.03-.19,.13-.02,.09,.01,.16,.09,.22,.12,.1,.24,.21,.37,.3,.11,.08,.16,.16,.11,.31-.06,.15-.09,.32-.13,.48-.02,.09-.01,.16,.06,.22,.08,.06,.15,.05,.23,0,.15-.09,.31-.19,.45-.29,.09-.06,.16-.07,.26,0,.14,.1,.3,.19,.45,.29,.07,.05,.15,.07,.23,0,.07-.06,.09-.13,.06-.22-.04-.17-.07-.34-.13-.5-.05-.13,0-.2,.09-.28,.14-.1,.27-.22,.4-.33,.07-.06,.1-.13,.07-.22Zm-.91,.97c-.26-.23-.51-.26-.77,0,.13-.32,.08-.56-.24-.74,.34,.02,.55-.11,.62-.46,.07,.35,.28,.48,.63,.47-.32,.17-.36,.42-.23,.73Zm-6.84-.97c-.03-.08-.1-.11-.18-.11-.18-.01-.36-.03-.53-.03-.11,0-.17-.04-.21-.15-.05-.16-.12-.32-.19-.48-.03-.09-.08-.16-.19-.16-.11,0-.16,.07-.19,.16-.06,.15-.12,.29-.17,.44-.04,.14-.13,.19-.27,.19-.16,0-.31,.02-.47,.03-.09,0-.17,.02-.2,.12-.04,.1,.01,.17,.09,.23,.13,.1,.25,.21,.38,.31,.1,.07,.14,.15,.09,.28-.06,.17-.09,.36-.14,.55,0,.07,.02,.13,.07,.17,.07,.05,.14,.05,.21,0,.16-.1,.33-.2,.49-.31,.08-.05,.14-.05,.22,0,.15,.1,.3,.19,.45,.29,.08,.05,.16,.08,.25,.01,.08-.07,.08-.15,.06-.24-.04-.17-.08-.33-.13-.5-.04-.11,0-.18,.08-.24,.14-.11,.28-.23,.41-.34,.07-.06,.1-.13,.07-.22Zm-.91,1.01c-.27-.29-.51-.28-.77-.03,.11-.31,.1-.57-.24-.74,.33,0,.55-.11,.61-.47,.08,.33,.28,.49,.63,.44q-.29,.35-.23,.8ZM7.81,1.14c-.22-.44-.75-.62-1.2-.42-.44,.2-.65,.72-.47,1.18,.1,.26,.3,.42,.54,.54,.21,.09,.41,.09,.62,0,.04-.02,.08-.05,.12-.07,.45-.24,.61-.77,.38-1.22Zm-.82,.96c-.3,0-.54-.25-.54-.55,0-.3,.25-.55,.55-.55,.3,0,.56,.26,.55,.57,0,.3-.25,.54-.56,.53Z"/>
</svg>