<?xml version="1.0" encoding="UTF-8"?>
<svg id="Layer_1" data-name="Layer 1" xmlns="http://www.w3.org/2000/svg" viewBox="0 0 14 14">
  <defs>
    <style>
      .cls-1 {
        fill: #393939;
      }

      .cls-2 {
        fill: none;
      }
    </style>
  </defs>
  <rect class="cls-2" width="14" height="14"/>
  <path class="cls-1" d="M3.94,7.44c-.27,.4-.44,.82-.51,1.27-.22,1.31,.14,2.44,1.12,3.35,1.08,1.01,2.71,1.23,4.03,.56,.05-.02,.1-.05,.15-.07,.12-.08,.26-.11,.34,.03,.08,.14,0,.25-.14,.33-1.41,.81-3.29,.64-4.55-.45-1.05-.91-1.52-2.07-1.42-3.45,.05-.63,.26-1.22,.6-1.77-.09-.02-.19,0-.25-.08-.11-.12-.06-.29,.1-.34,.22-.07,.43-.14,.66-.19,.16-.04,.27,.04,.28,.24,.02,.21,.01,.41,.02,.62,0,.12-.03,.22-.17,.25-.14,.02-.22-.06-.25-.19,0-.03-.01-.05-.02-.1Zm.78-2.91c-.3,0-.35,.05-.35,.35,0,.45,0,.9,0,1.34,0,.15,.04,.29,.22,.29,.17,0,.2-.13,.2-.28,0-.32,0-.63,0-.95,0-.33,0-.33,.32-.33,.15,0,.27-.04,.34-.18,.08-.15,0-.26-.09-.37-.39-.46-.78-.93-1.18-1.39-.21-.24-.37-.24-.58,0-.36,.42-.72,.84-1.07,1.26-.12,.15-.29,.28-.19,.5,.1,.21,.31,.19,.49,.17,.14,0,.17,.05,.17,.18,0,.37,0,.74,0,1.12,0,.15,.05,.27,.21,.27,.17,0,.21-.12,.21-.27,0-.41,0-.81,0-1.22,0-.47,.02-.5-.47-.49,0,0-.02-.01-.05-.04,.33-.39,.65-.77,1-1.17,.34,.4,.67,.79,1.03,1.22-.11,0-.16,0-.21,0Zm6.89-.89c-.05,.12-.15,.17-.28,.18-.12,0-.28-.06-.35,.04-.06,.09-.02,.24-.02,.36,0,1.17,0,2.33,0,3.5,0,.13,0,.26-.09,.37-.04,.05-.04,.1-.03,.16,.33,1.15,.17,2.24-.43,3.27,0,0,0,.01,0,.03,.06,.03,.15,0,.21,.05,.13,.11,.1,.3-.07,.36-.22,.08-.45,.14-.68,.19-.17,.04-.26-.05-.28-.24-.01-.18,0-.36-.01-.54,0-.15,0-.3,.18-.32,.18-.03,.23,.12,.25,.29,.28-.4,.44-.82,.52-1.27,.27-1.49-.36-2.95-1.64-3.73-1.09-.67-2.23-.73-3.41-.22-.07,.03-.14,.07-.21,.1-.12,.06-.23,.04-.3-.09-.07-.14,0-.22,.12-.29,.25-.14,.51-.25,.79-.31,.15-.03,.21-.1,.21-.26,0-.79,0-1.57,0-2.36,0-.16-.03-.23-.2-.21-.06,0-.12,0-.19,0-.12,0-.21-.05-.27-.16-.05-.11-.05-.23,.04-.33,.43-.51,.85-1.01,1.29-1.51,.13-.15,.32-.14,.45,0,.43,.5,.85,1,1.27,1.5,.08,.1,.1,.21,.05,.33-.05,.12-.15,.17-.28,.17-.38,.02-.37,.02-.37,.4,0,.72,0,1.45,0,2.17,0,.14,.03,.21,.18,.24,.39,.09,.74,.26,1.11,.48,0-.71,0-1.39,0-2.06,0-.1-.04-.12-.13-.11-.1,0-.19,0-.29,0-.25-.03-.37-.28-.22-.47,.42-.52,.86-1.03,1.3-1.53,.13-.15,.32-.15,.45,0,.43,.5,.85,1,1.27,1.5,.08,.1,.1,.21,.05,.33Zm-3.77-1.37s.1,.03,.13-.04c-.31-.36-.61-.72-.92-1.08-.06-.07-.09-.06-.14,0-.3,.36-.61,.72-.94,1.11,.07,0,.09,.01,.12,.01,.41,.01,.42,.03,.42,.44,0,.83,0,1.65,0,2.48,0,.14,.03,.2,.18,.18,.18-.02,.37-.02,.56,0,.17,.02,.22-.03,.22-.2,0-.83,0-1.67,0-2.5,0-.36,.03-.39,.38-.4Zm3.23,1.11c-.25-.3-.49-.58-.73-.86q-.28-.33-.57,0c-.24,.28-.48,.56-.74,.87,.08,0,.11,0,.14,0,.38,0,.41,.03,.41,.42,0,.77,0,1.55,0,2.32,0,.12,.03,.2,.12,.29,.29,.25,.52,.55,.72,.87,.02,.04,.03,.11,.11,.11V3.95q0-.51,.53-.57Zm-1.75,6.63c-.14,.03-.31,.49-.23,.62,.14,.24,.09,.43-.12,.59-.07,.05-.12,.11-.18,.17q-.24,.24-.55,.11c-.16-.07-.6,.09-.64,.26-.07,.27-.23,.37-.5,.33-.06,0-.13,0-.19,0-.28,.04-.47-.04-.55-.35-.04-.15-.49-.3-.64-.23q-.31,.13-.55-.11s-.09-.1-.15-.14c-.23-.17-.31-.37-.14-.64,.08-.13-.13-.55-.28-.61q-.32-.13-.32-.47c0-.07,0-.14,0-.21-.04-.28,.04-.47,.35-.55,.16-.04,.31-.47,.24-.63q-.13-.32,.12-.57c.05-.05,.11-.11,.16-.16,.25-.25,.25-.28,.58-.12,.15,.08,.58-.11,.64-.27q.13-.32,.48-.32c.06,0,.11,0,.17,0,.3-.04,.51,.03,.58,.36,.03,.14,.5,.31,.64,.22,.22-.13,.38-.09,.54,.1,.09,.11,.2,.21,.3,.31,.05,.05,.09,.1,.09,.22,0,0,0,.06-.03,.1-.11,.17-.08,.32,0,.5,.07,.18,.17,.28,.35,.33,.14,.04,.2,.13,.19,.28,0,.11-.01,.22,0,.33,.03,.29-.04,.49-.36,.56Zm-.24-.89c-.07-.02-.17-.04-.19-.12-.06-.35-.45-.63-.19-1.03,0-.01,.01-.02,.02-.04,0-.12-.28-.29-.38-.24-.17,.09-.32,.1-.48-.02-.07-.05-.16-.08-.25-.1-.2-.05-.35-.14-.39-.36-.03-.14-.14-.1-.23-.1-.09,0-.21-.04-.23,.1-.04,.22-.19,.32-.39,.36-.08,.02-.16,.05-.23,.09-.17,.12-.34,.14-.51,.02-.11-.08-.17,0-.22,.08-.06,.07-.2,.11-.11,.25,.12,.18,.1,.36-.02,.54-.05,.08-.08,.17-.1,.27-.04,.17-.13,.29-.3,.32-.15,.03-.15,.12-.15,.24,0,.12,0,.22,.14,.25,.19,.04,.27,.16,.31,.34,.02,.09,.05,.18,.1,.25,.12,.18,.15,.35,.03,.54-.08,.11,.01,.16,.07,.22,.07,.06,.12,.2,.25,.11,.19-.12,.36-.1,.54,.02,.07,.05,.16,.09,.25,.1,.2,.03,.31,.14,.35,.33,.03,.15,.14,.12,.24,.12,.1,0,.21,.03,.24-.12,.04-.19,.15-.3,.35-.33,.09-.01,.17-.05,.25-.1,.18-.12,.35-.15,.54-.02,.12,.08,.17-.03,.24-.1,.06-.06,.17-.11,.09-.23-.12-.18-.09-.36,.03-.54,.05-.08,.08-.18,.1-.27,.04-.16,.11-.28,.29-.31,.13-.03,.16-.1,.17-.24,0-.16-.04-.24-.19-.28Zm-.72,.29c0,.76-.62,1.36-1.38,1.36-.77,0-1.37-.61-1.36-1.39,0-.76,.61-1.37,1.37-1.37,.77,0,1.38,.62,1.37,1.4Zm-.42-.02c0-.54-.42-.96-.95-.96-.53,0-.96,.43-.96,.96,0,.54,.42,.96,.95,.96,.54,0,.96-.42,.96-.96Z"/>
</svg>