<?xml version="1.0" encoding="UTF-8"?>
<svg id="Layer_1" data-name="Layer 1" xmlns="http://www.w3.org/2000/svg" viewBox="0 0 14 14">
  <defs>
    <style>
      .cls-1 {
        fill: #393939;
      }

      .cls-2 {
        fill: none;
      }
    </style>
  </defs>
  <rect class="cls-2" width="14" height="14"/>
  <path class="cls-1" d="M12.7,3.61c-.24,0-.47,0-.76,0,.08-.08,.12-.13,.17-.18,.34-.34,.68-.67,1.01-1.01,.34-.34,.34-.69,0-1.04-.16-.16-.32-.32-.48-.48-.36-.36-.7-.36-1.07,0-.86,.86-1.72,1.72-2.59,2.59-.07,.07-.14,.12-.25,.12-1.72,0-3.45,0-5.17,0-.14,0-.18-.04-.18-.18,0-.72,0-1.43,0-2.15,0-.37-.26-.63-.63-.65-.13,0-.25,0-.38,0-1,0-1.74,.75-1.74,1.74,0,3.08,0,6.16,0,9.25,0,.96,.76,1.74,1.72,1.74,3.45,0,6.9,0,10.34,0,.41,0,.67-.26,.67-.67,0-2.8,0-5.61,0-8.41,0-.41-.26-.67-.67-.68Zm-1.03-2.18c.11-.13,.21-.28,.37-.35,.12-.05,.21,.04,.29,.12,.17,.17,.34,.34,.51,.51,.05,.05,.1,.1,.09,.18,0,.09-.28,.44-.36,.45-.04,0-.06-.03-.08-.05-.26-.26-.52-.51-.77-.77-.03-.03-.08-.06-.05-.09Zm-.43,.41s.07-.13,.15-.04c.27,.27,.54,.54,.81,.81,.02,.02,.03,.04,.05,.06-.1,.1-.18,.2-.29,.28-.05,.03-.1-.06-.14-.1-.2-.2-.4-.4-.6-.6q-.2-.2,.02-.41Zm-2.74,2.73c.71-.71,1.43-1.42,2.13-2.13,.07-.07,.11-.06,.17,0,.25,.26,.5,.51,.76,.76,.07,.07,.07,.11,0,.17-.72,.71-1.43,1.43-2.15,2.15-.02,.02-.05,.04-.08,.07-.03-.03-.06-.05-.09-.08-.25-.25-.49-.5-.75-.74-.08-.07-.07-.12,0-.19Zm.43,1.29c-.24,.02-.48,.05-.72,.07-.11,0-.15-.06-.14-.17,.02-.24,.05-.47,.07-.72,.27,.28,.52,.54,.79,.82ZM2.05,1.1c.25-.05,.5-.03,.75-.02,.11,0,.15,.1,.17,.19,.01,.06,0,.12,0,.18,0,2.72,0,5.43,0,8.15,0,.32-.05,.39-.36,.37-.58-.03-1.1,.1-1.55,.56v-.22c0-2.64,0-5.29,0-7.93,0-.66,.46-1.18,.99-1.29ZM12.67,12.94c-3.44,0-6.88,0-10.33,0-.63,0-1.19-.48-1.27-1.08-.09-.64,.29-1.22,.93-1.41,.23-.07,.46-.04,.69-.04,.3,0,.54-.12,.66-.41,.04-.1,.03-.21,.03-.31,0-1.8,0-3.61,0-5.41,0-.17,.03-.24,.22-.23,1.53,0,3.06,0,4.6,0h.17s.03,.04,.04,.07c-.09,.07-.17,.14-.26,.21-.34,.26-.47,.62-.48,1.04,0,.17-.07,.33-.04,.49,.01,.1-.05,.09-.11,.09-.21,0-.41,0-.62,0-.9,0-1.8,0-2.71,0-.06,0-.12,0-.18,0-.13,.02-.21,.09-.2,.22,0,.13,.09,.2,.22,.2,.14,0,.28,.01,.42,0,.16-.01,.2,.03,.2,.19,0,1.46,0,2.92,0,4.38,0,.36,0,.72,0,1.07,0,.12,.02,.23,.14,.28,.17,.06,.29-.04,.29-.26,0-.67,0-1.34,0-2.01,0-.25,0-.5,0-.76,0-.12,.04-.15,.15-.14,.68,0,1.37,0,2.05,0,.11,0,.15,.04,.15,.15,0,.47,0,.94,0,1.41,0,.12-.05,.14-.15,.14-.42,0-.84,0-1.25,0-.16,0-.29,.04-.3,.21,0,.18,.13,.22,.29,.22,1.37,0,2.75,0,4.12,0,.31,0,.48-.18,.48-.49,0-1.01,0-2.03,0-3.04,0-.15-.04-.29-.22-.29-.19,0-.21,.14-.21,.29,0,.27,0,.54,0,.82,0,.11-.02,.16-.15,.16-1.6,0-3.2,0-4.8,0-.13,0-.15-.04-.15-.16,0-.67,0-1.34,0-2.01,0-.15,.05-.17,.18-.17,.92,0,1.83,0,2.75,0,.34,0,.67-.06,1.01-.09,.21-.02,.38-.14,.53-.29,.61-.61,1.22-1.22,1.82-1.83,.09-.09,.17-.13,.29-.12,.33,0,.66,0,.99,0,.22,0,.27,.05,.27,.27,0,2.78,0,5.57,0,8.35,0,.23-.04,.27-.27,.27Zm-4.83-3.68c0-.11,.04-.14,.14-.14,.7,0,1.39,0,2.09,0,.1,0,.12,.03,.12,.13,0,.48,0,.97,0,1.45,0,.12-.05,.12-.14,.12-.34,0-.69,0-1.03,0-.34,0-.69,0-1.03,0-.1,0-.14-.02-.14-.13,0-.48,0-.95,0-1.43Z"/>
</svg>