<?xml version="1.0" encoding="UTF-8"?>
<svg id="Layer_1" data-name="Layer 1" xmlns="http://www.w3.org/2000/svg" viewBox="0 0 14 14">
  <defs>
    <style>
      .cls-1 {
        fill: #393939;
      }

      .cls-2 {
        fill: none;
      }
    </style>
  </defs>
  <rect class="cls-2" width="14" height="14"/>
  <path class="cls-1" d="M12.7,5.25c-.33-.34-.67-.67-1-1.01-.1-.1-.21-.15-.35-.15-.43,0-.85,0-1.28,0-.28,0-.46,.19-.46,.46,0,.51,0,1.02,0,1.53,0,.28,.2,.46,.49,.46,.38,0,.75,0,1.13,0,.38,0,.77,0,1.15,0,.17,0,.3-.06,.39-.19,.17-.23,.13-.9-.07-1.1Zm-.25,.85c-.04,.07-.11,.06-.17,.06-.36,0-.71,0-1.07,0-.34,0-.68,0-1.03,0-.13,0-.19-.04-.18-.18,0-.45,0-.89,0-1.34,0-.12,.04-.16,.16-.15,.36,0,.73,0,1.09,0,.09,0,.16,.03,.22,.09,.29,.3,.59,.59,.89,.89,.09,.09,.15,.52,.09,.63ZM1.42,2.14c.28,0,.56,0,.83,0,.14,0,.24,.04,.24,.19,0,.15-.1,.2-.24,.2-.57,0-1.14,0-1.71,0-.14,0-.23-.06-.23-.2,0-.14,.1-.18,.23-.18,.29,0,.58,0,.88,0Zm.79,2.09c.14,0,.28-.03,.28-.2,0-.18-.13-.21-.27-.21-.39,0-.78,0-1.17,0-.15,0-.28,.04-.27,.21,0,.15,.13,.2,.27,.2,.19,0,.39,0,.58,0s.39,0,.58,0Zm-.36-.86c.15,0,.29,0,.44,0,.13,0,.21-.07,.2-.21,0-.13-.09-.18-.21-.18-.28,0-.57,0-.85,0-.14,0-.22,.07-.22,.2,0,.13,.09,.2,.22,.2,.14,0,.28,0,.42,0,0,0,0,0,0,0Zm11.86,2.01c0,1.63,0,3.25,0,4.88,0,.36-.19,.55-.55,.57-.03,0-.06,0-.08,0-.22-.04-.34,.04-.47,.25-.65,1.08-2.24,1.03-2.84-.09-.07-.13-.15-.17-.29-.17-.38,0-.77,0-1.15,0-.14,0-.27-.02-.27-.19,0-.18,.13-.2,.28-.2,.36,0,.71,0,1.07,0,.13,0,.18-.03,.16-.16,0-.05,0-.11,0-.17,.01-.09-.01-.15-.12-.13-.02,0-.04,0-.06,0-1.58,0-3.15,0-4.73,0-.15,0-.22,.02-.19,.19,.02,.13-.07,.28,.19,.28,.86-.02,1.73,0,2.59,0,.09,0,.18,0,.25,.08,.09,.12,.02,.29-.15,.31-.14,.01-.28,0-.42,0-.81,0-1.62,0-2.43,0-.11,0-.17,.03-.22,.13-.32,.58-.8,.9-1.47,.9-.67,0-1.15-.32-1.47-.9-.05-.1-.1-.13-.21-.13-.63,.06-.86-.13-.82-.84,.02-.29,0-.59,0-.88,0-.14,.02-.26,.19-.26,.18,0,.2,.11,.2,.25,0,.02,0,.04,0,.06,0,.46,0,.45,.45,.44,.1,0,.14-.04,.18-.13,.31-.58,.8-.91,1.46-.91,.67,0,1.17,.32,1.49,.91,.05,.09,.1,.13,.2,.13,1.37,0,2.75,0,4.12,0,.15,0,.17-.05,.17-.18,0-.56,0-1.13,0-1.69,0-.15-.05-.18-.19-.18-1.28,0-2.55,0-3.83,0-1.26,0-2.53,0-3.79,0-.25,0-.27,.02-.27,.28,0,.1,0,.2,0,.29,0,.12-.07,.18-.18,.18-.11,0-.19-.06-.19-.15-.01-.21-.04-.42,.02-.62,.06-.22,.23-.35,.46-.36,.01,0,.03,0,.04,0,.17-.02,.41,.08,.5-.04,.09-.11,.03-.33,.03-.51,0-.43,0-.85,0-1.28,0-.39,.17-.56,.56-.56,.29,0,.57,0,.86,0,.14,0,.17-.04,.17-.18,0-.63,0-1.27,0-1.9,0-.4,.16-.56,.55-.56,.84,0,1.67,0,2.51,0,.34,0,.5,.16,.5,.5,0,.66,0,1.31,0,1.97,0,.14,.03,.18,.17,.18,.29-.01,.57,0,.86,0,.41,0,.56,.15,.56,.55,0,.55,0,1.1,0,1.65,0,.15,.04,.18,.19,.18,.49,0,.49,0,.49-.49,0-.31,0-.63,0-.94,0-.14,.01-.28,.19-.29,.19,0,.2,.14,.2,.28,0,1.21,0,2.43,0,3.64,0,.19,.06,.23,.23,.23,.2,0,.31-.04,.42-.23,.31-.54,.81-.82,1.44-.81,.63,.01,1.1,.31,1.42,.85,.04,.07,.03,.18,.14,.18,.16,0,.32,0,.48,0,.06,0,.04-.08,.04-.13,0-.36,0-.71,0-1.07,0-.12-.04-.16-.15-.16-.37,0-.74,0-1.11,0-.32,0-.44-.13-.44-.45,0-.14,0-.28,0-.42,.01-.24,.15-.37,.39-.37,.38,0,.77,0,1.15,0,.13,0,.17-.04,.16-.17,0-.47,0-.93,0-1.4,0-.15-.05-.27-.16-.37-.43-.42-.85-.85-1.27-1.27-.1-.1-.21-.15-.35-.15-.7,0-1.41,0-2.11,0-.2,0-.28,.09-.27,.28,0,.26,0,.52,0,.77,0,.13-.04,.23-.18,.23-.15,0-.2-.1-.2-.24,0-.29,0-.57,0-.86,0-.33,.21-.57,.54-.58,.78-.01,1.56,0,2.34,0,.19,0,.35,.09,.48,.23,.45,.45,.9,.9,1.35,1.35,.16,.16,.23,.34,.23,.56Zm-1.25,2.23c.04-.18-.03-.23-.22-.23-.18,0-.24,.04-.24,.23,0,.19,.04,.24,.24,.24,.19,0,.25-.06,.21-.24Zm-6.2-2.44c-.39,.03-.04,.34-.18,.47,.16-.06,.31-.08,.46,.02,.02-.5,.02-.52-.28-.49Zm-1.74-2.17c.07-.02,.15-.05,.22-.05,.07,0,.14,.03,.21,.05q.03-.47-.21-.47t-.22,.48Zm-1.59,2.54c-.03,.2,.11,.06,.17,.05,.09-.02,.16,.04,.27,.05,0-.07,0-.13,0-.2,0-.29,0-.29-.29-.28-.31,.01-.14,.25-.15,.37Zm1.61,1.51c0-.59,0-1.18,0-1.78,0-.08-.03-.1-.11-.11q-.65-.07-.66,.57s0,.03,0,.04c-.01,.33-.23,.45-.52,.29-.06-.04-.11-.05-.19-.01-.35,.19-.53,.06-.54-.33,0-.18,.08-.43-.04-.52-.12-.09-.36-.02-.55-.03-.14,0-.18,.05-.18,.18,0,.55,0,1.1,0,1.65,0,.15,.05,.17,.18,.17,.4,0,.81,0,1.21,0,.41,0,.82,0,1.23,0,.08,0,.15,0,.15-.11Zm1.44-2.27c.08,0,.15,.01,.15-.11,0-.67,0-1.34,0-2.01,0-.07-.02-.13-.1-.13-.21,0-.46-.07-.63,.03-.11,.07-.02,.31-.04,.48,0,.03,0,.07,0,.1-.02,.32-.23,.44-.51,.29-.07-.04-.12-.06-.21-.02-.32,.18-.52,.06-.53-.31,0-.19,.08-.43-.04-.54-.12-.11-.36-.02-.54-.03-.15-.01-.19,.05-.19,.19,0,.63,0,1.27,0,1.9,0,.13,.04,.16,.17,.16,.41,0,.82,0,1.23,0,.41,0,.82,0,1.23,0Zm1.74,2.22c0-.41,0-.82,0-1.23,0-.63,0-.63-.64-.61-.11,0-.15,.03-.15,.14,0,.16,0,.32,0,.48,0,.32-.22,.44-.51,.28-.07-.04-.12-.06-.2-.01-.31,.18-.51,.06-.52-.29,0-.19,.09-.45-.04-.56-.13-.12-.39-.02-.59-.04-.12,0-.16,.03-.16,.15,0,.56,0,1.13,0,1.69,0,.14,.06,.16,.18,.15,.4,0,.81,0,1.21,0s.82,0,1.23,0c.13,0,.17-.03,.17-.16ZM1.14,10.21c.04-.16,.02-.27-.19-.24-.12,.02-.28-.06-.27,.19,.01,.18,.05,.28,.26,.28,.2,0,.25-.06,.2-.23Zm2.92,0c0-.69-.55-1.24-1.25-1.25-.69,0-1.25,.53-1.26,1.23-.01,.69,.55,1.27,1.24,1.28,.68,.01,1.26-.57,1.27-1.26Zm8.4,0c0-.69-.55-1.24-1.25-1.25-.7,0-1.27,.56-1.26,1.25,0,.68,.57,1.25,1.25,1.26,.68,0,1.26-.57,1.26-1.26Zm.56-.23c-.19-.05-.18,.08-.15,.23-.06,.18,0,.24,.21,.24,.23,0,.23-.13,.24-.3,.01-.28-.19-.14-.3-.17Zm.29-2.36c.04-.18-.02-.24-.21-.24-.18,0-.26,.03-.25,.23,0,.16,.02,.25,.22,.24,.17-.01,.3,0,.24-.23ZM3.41,10.2c0,.36-.25,.62-.61,.62-.35,0-.62-.27-.62-.62,0-.34,.26-.61,.6-.61,.36,0,.62,.25,.63,.6Zm-.38,0c-.02-.14-.11-.22-.24-.22-.13,0-.22,.1-.21,.23,0,.13,.09,.22,.23,.21,.14,0,.2-.1,.22-.23Zm8.79,.02c0,.34-.27,.6-.61,.6-.35,0-.61-.26-.61-.62,0-.36,.26-.61,.62-.61,.35,0,.61,.27,.61,.62Zm-.38-.01c-.02-.14-.1-.23-.24-.22-.13,0-.22,.09-.22,.23,0,.13,.09,.22,.23,.22,.14,0,.2-.1,.22-.23Z"/>
</svg>