<?xml version="1.0" encoding="UTF-8"?>
<svg id="Layer_1" data-name="Layer 1" xmlns="http://www.w3.org/2000/svg" viewBox="0 0 14 14">
  <defs>
    <style>
      .cls-1 {
        fill: #393939;
      }

      .cls-2 {
        fill: none;
      }
    </style>
  </defs>
  <rect class="cls-2" width="14" height="14"/>
  <path class="cls-1" d="M9.16,1.49c0,.24-.16,.35-.36,.28-.6-.22-1.22-.32-1.86-.29-1.09,.04-2.05,.42-2.88,1.11-.23,.19-.37,.22-.49,.08-.11-.13-.06-.29,.15-.47,1.06-.88,2.29-1.29,3.66-1.24,.53,.02,1.05,.13,1.56,.31,.12,.05,.22,.11,.22,.21Zm.43,3.13c.13,.05,.22-.01,.3-.1,.68-.78,1.35-1.56,2.03-2.34,.12-.14,.12-.29,0-.39-.12-.1-.26-.08-.39,.07-.67,.77-1.34,1.55-2.02,2.32-.05,.06-.09,.12-.09,.16,0,.15,.05,.24,.17,.28ZM2.83,3.27c.01,.14,.09,.24,.24,.24,.14,0,.26-.11,.26-.25,0-.14-.11-.25-.26-.25-.15,0-.27,.11-.25,.25ZM12.63,12.43c-1.02,.26-2.03,.52-3.05,.78-.76,.19-1.48,.03-2.18-.26-1.11-.45-2.24-.89-3.36-1.32-.33-.13-.68-.03-1.02-.05-.09,0-.06,.07-.06,.12-.02,.31-.09,.37-.4,.37-.56,0-1.12,0-1.68,0-.26,0-.35-.09-.35-.35,0-1.43,0-2.85,0-4.28,0-.26,.08-.34,.34-.34,.28,0,.57-.01,.85,0,.19,.01,.22-.07,.18-.22-.06-.28-.04-.56-.04-.85,.02-.68,.18-1.33,.45-1.95,.08-.18,.22-.26,.37-.18,.16,.08,.18,.22,.11,.38-.25,.54-.38,1.12-.42,1.71-.02,.33,.01,.65,.05,.97,.01,.11,.05,.14,.16,.14,.3,0,.38,.08,.37,.39,0,.17,.04,.21,.21,.21,.36-.01,.36,0,.36-.36,0-.69,0-1.38,0-2.07,0-.26,.07-.34,.33-.34,.58,0,1.16,0,1.74,0,.14,0,.17-.04,.17-.17,0-.38,0-.76,0-1.13,0-.27,.09-.35,.35-.35,.7,0,1.39,0,2.09,0,.25,0,.34,.09,.34,.35,0,.8,0,1.61,0,2.41,0,.15,.03,.21,.2,.2,.56-.01,1.12,0,1.68,0,.3,0,.37,.07,.37,.37,0,.88,0,1.75,0,2.63,.4-.4,.66-.88,.85-1.41,.29-.84,.36-1.69,.17-2.57-.04-.16,.04-.28,.19-.33,.14-.04,.28,.06,.32,.24,.11,.54,.13,1.09,.07,1.63-.13,1.22-.63,2.27-1.5,3.15-.08,.08-.14,.51-.09,.59,.04,.06,.09,.03,.13,.02,.38-.09,.76-.17,1.14-.26,.63-.16,1.24,.17,1.39,.75,.17,.63-.17,1.21-.82,1.38Zm-10.2-1.05c0-.59,0-1.19,0-1.78s0-1.21,0-1.82c0-.13-.03-.17-.17-.17-.36,0-.73,0-1.09,0-.11,0-.15,.03-.15,.15,0,1.21,0,2.43,0,3.64,0,.11,.03,.15,.15,.15,.36,0,.73,0,1.09,0,.13,0,.17-.04,.17-.17Zm6.4-.45s.08,0,.12,0c.4,.01,.78-.11,1.17-.19,.14-.03,.16-.08,.16-.2,0-.6,0-1.2,0-1.8s0-1.21,0-1.82c0-.13-.02-.18-.16-.17-.48,0-.96,0-1.44,0-.13,0-.15,.04-.15,.16,0,.71,0,1.43,0,2.14,0,.06,0,.12,.03,.18,.24,.4,.21,.8,0,1.21-.14,.28-.03,.46,.27,.49ZM6.27,3.9c0,1.34,0,2.69,0,4.03,0,.06,0,.12,.07,.15,.55,.23,1.1,.45,1.66,.68,0-.02,.02-.02,.02-.03,0-1.61,0-3.23,0-4.84,0-.1-.04-.11-.12-.11-.5,0-1,0-1.5,0-.1,0-.13,.02-.13,.12Zm-2.27,3.66c0,.1,.04,.13,.13,.12,.24,0,.47,0,.71,0,.27,0,.55-.05,.81,.11,.1,.06,.11-.02,.11-.1,0-.35,0-.7,0-1.05,0-.35,0-.7,0-1.05,0-.09,0-.15-.12-.15-.51,0-1.01,0-1.52,0-.09,0-.11,.03-.11,.12,0,.67,0,1.33,0,2Zm8.96,3.64c-.07-.31-.38-.51-.72-.43-.78,.17-1.56,.35-2.34,.54-.62,.15-1.24,.18-1.85-.05-.85-.31-1.7-.64-2.54-.97-.19-.07-.27-.22-.19-.36,.08-.16,.21-.18,.38-.11,.54,.21,1.08,.42,1.62,.62,.37,.14,.73-.03,.87-.37,.13-.35-.02-.68-.39-.83-.78-.33-1.57-.65-2.35-.98-.08-.03-.15-.05-.24-.05-.7,0-1.4,0-2.11,0-.13,0-.16,.03-.16,.16,0,.42,0,.84,0,1.26v1.05c0,.38,0,.37,.37,.38,.27,0,.55-.05,.82,.06,1.26,.5,2.52,.99,3.77,1.48,.52,.2,1.05,.24,1.59,.11,1-.25,2.01-.51,3.01-.76,.33-.08,.52-.4,.45-.73Zm-.94-7.09c0,.34-.31,.65-.65,.65-.34,0-.64-.31-.63-.65,0-.35,.3-.64,.65-.63,.34,0,.63,.3,.63,.63Zm-.52,0c0-.08-.05-.12-.13-.12-.08,0-.12,.05-.12,.13,0,.08,.04,.12,.12,.12,.08,0,.12-.05,.12-.12Zm-.89-1.82c0,.35-.31,.63-.66,.62-.35-.01-.62-.3-.61-.65,0-.35,.31-.64,.66-.62,.34,.01,.63,.31,.62,.65Zm-.52,.01c0-.09-.03-.14-.11-.15-.08,0-.13,.04-.13,.12,0,.07,.04,.13,.12,.13,.08,0,.12-.04,.12-.11Z"/>
</svg>