<?xml version="1.0" encoding="UTF-8"?>
<svg id="Layer_1" data-name="Layer 1" xmlns="http://www.w3.org/2000/svg" viewBox="0 0 14 14">
  <defs>
    <style>
      .cls-1 {
        fill: #393939;
      }

      .cls-2 {
        fill: none;
      }
    </style>
  </defs>
  <rect class="cls-2" width="14" height="14"/>
  <path class="cls-1" d="M13.27,10.91c0-.29-.17-.47-.45-.48-.12,0-.13-.05-.14-.15-.01-.47-.23-.69-.71-.69-.06,0-.12,0-.18,0-.1,.01-.14-.02-.13-.13,0-.2,0-.4,0-.61,0-.3-.05-.35-.35-.35-1.19,0-2.39,0-3.58,0-.17,0-.4,.08-.51-.04-.11-.11-.01-.34-.04-.51-.02-.16,.05-.19,.2-.19,.95,0,1.91,0,2.86,0,.36,0,.54-.17,.54-.52,0-1.21,0-2.43,0-3.64,0-.32-.16-.49-.47-.51-.11,0-.14-.04-.14-.15,0-.31,0-.61,0-.92,0-.52-.33-.76-.83-.63-.09,.03-.15,.08-.15,.18,0,.1,.07,.17,.17,.18,.07,0,.14,0,.22,0,.17-.02,.22,.06,.21,.22,0,.31-.01,.61,0,.92,0,.17-.05,.2-.21,.2-1.01,0-2.02-.03-3.03,0-.46,.02-.76-.09-.92-.53,0-.01-.01-.02-.02-.03-.11-.19-.26-.28-.48-.27-.26,0-.52,0-.78,0-.05,0-.13,.03-.14-.03-.04-.13-.04-.27,0-.4,.03-.11,.14-.07,.22-.07,1.31,0,2.62,0,3.94,0,.06,0,.12,0,.18,0,.1-.01,.17-.07,.17-.18,0-.11-.07-.17-.17-.18-.06,0-.12,0-.18,0-.93,0-1.85,0-2.78,0-.42,0-.84,0-1.25,0-.34,0-.51,.19-.52,.53,0,.08,0,.16,0,.23,0,.07-.01,.1-.09,.11-.43,.06-.52,.18-.52,.62,0,.71,0,1.42,0,2.13,0,.73,0,1.46,0,2.19,0,.39,.18,.56,.56,.56,.84,0,1.68,0,2.53,0,.16,0,.37-.07,.47,.03,.11,.11,.02,.32,.04,.49,.03,.19-.06,.22-.23,.22-1.31,0-2.62,0-3.94,0-.26,0-.31,.05-.31,.31,0,.2,0,.4,0,.61,0,.14-.05,.17-.18,.17-.32,0-.64,0-.96,0-.27,0-.47,.19-.47,.45,0,.71,0,1.42,0,2.13,0,.24,.16,.42,.39,.44,.19,.02,.38,.02,.57,0,.11,0,.19-.07,.18-.19,0-.12-.08-.17-.19-.18-.14,0-.27,0-.41,0-.12,0-.18-.05-.18-.18,0-.65,0-1.3,0-1.96,0-.11,.05-.16,.16-.17,.49-.03,.49-.03,.75,.4,.02,.04,.05,.08,.07,.12,.11,.22,.29,.32,.54,.31,.38,0,.76,0,1.14,0,.15,0,.21,.04,.21,.2,0,.36,0,.72,0,1.08,0,.16-.06,.2-.21,.2-.39,0-.78,0-1.17,0-.13,0-.23,.05-.23,.18,0,.14,.1,.19,.22,.19,.43,0,.86,0,1.29,0,.28,0,.46-.2,.47-.48,0-.42,0-.83,0-1.25,0-.25-.18-.46-.41-.47-.15,0-.18-.05-.18-.19,0-.36-.22-.61-.55-.65-.16-.02-.37,.08-.45-.05-.07-.12,0-.32-.02-.48-.01-.15,.05-.18,.19-.18,1.12,0,2.23,0,3.35,0,.58,0,.57,0,.56,.57,0,.11-.04,.14-.15,.14-.33,0-.65,0-.98,0-.3,0-.49,.2-.49,.49,0,.68,0,1.37,0,2.05,0,.28,.17,.48,.45,.48,.89,.01,1.79,0,2.68,0,.27,0,.46-.2,.46-.46,0-.43,0-.86,0-1.29,0-.22-.17-.43-.37-.44-.2,0-.22-.09-.22-.26,0-.32-.24-.55-.55-.59-.16-.02-.37,.08-.45-.05-.07-.12,0-.32-.02-.48-.01-.15,.05-.18,.19-.18,1.12,0,2.24,0,3.37,0,.56,0,.56,0,.54,.57,0,.11-.03,.15-.14,.14-.32,0-.64,0-.96,0-.31,0-.51,.19-.51,.5,0,.68,0,1.37,0,2.05,0,.28,.18,.48,.46,.48,.89,0,1.79,0,2.68,0,.28,0,.46-.2,.46-.48,0-.41,0-.82,0-1.23Zm-10.15-.94c.2,0,.33,.23,.24,.41-.02,.04-.06,.04-.1,.04-.23,0-.46,0-.68,0-.07,0-.12-.03-.16-.09-.07-.11-.13-.22-.22-.37,.33,0,.62,0,.92,0Zm.72-2.56c-.19,0-.26-.04-.26-.25,0-1.43,0-2.86,0-4.28,0-.19,.05-.25,.24-.25,.41,.01,.82,0,1.23,0,.14,0,.22,.04,.28,.16,.07,.13,.15,.26,.23,.39,.11,.2,.28,.29,.51,.29,1.36,0,2.71,0,4.07,0q.26,0,.26,.26c0,1.14,0,2.28,0,3.42,0,.2-.05,.26-.25,.26-1.06,0-2.11,0-3.17,0-1.05,0-2.1,0-3.15,0Zm4.38,3.38c.16,0,.21,.06,.2,.21,0,.35-.01,.7,0,1.06,0,.18-.07,.22-.23,.22-.4,0-.81,0-1.21,0-.4,0-.81,0-1.21,0-.15,0-.21-.05-.21-.2,0-.63,0-1.26,0-1.9,0-.15,.06-.19,.21-.21,.34-.04,.57,.05,.7,.39,.13,.35,.4,.47,.78,.44,.32-.03,.65,0,.98,0Zm-.62-.82c.19,0,.31,.24,.22,.41-.03,.05-.07,.05-.12,.05-.21,0-.43,0-.64,0-.08,0-.14-.02-.18-.09-.06-.11-.13-.22-.22-.37,.34,0,.64,0,.93,0Zm4.47,0c.18,0,.31,.25,.22,.41-.02,.04-.06,.04-.1,.04-.23,0-.47,0-.7,0-.06,0-.1-.03-.13-.07-.07-.11-.14-.23-.23-.38,.34,0,.64,0,.93,0Zm.6,2.3c-.4,0-.81,0-1.21,0-.4,0-.81,0-1.21,0-.16,0-.22-.06-.21-.22,0-.63,0-1.25,0-1.88,0-.15,.04-.21,.2-.21,.47,0,.49-.01,.7,.4,.17,.32,.39,.45,.75,.43,.33-.02,.67,0,1,0,.17,0,.22,.06,.21,.22,0,.35,0,.69,0,1.04,0,.17-.06,.23-.23,.22Zm-2.63-7.96c0-.28-.2-.46-.48-.46-.51,0-1.03,0-1.54,0-.3,0-.47,.19-.48,.5,0,.37,0,.74,0,1.11,0,.36,0,.73,0,1.09,0,.3,.18,.49,.48,.5,.51,0,1.02,0,1.52,0,.29,0,.49-.19,.49-.47,0-.76,0-1.51,0-2.27Zm-.57,2.37c-.46,0-.93,0-1.39,0-.13,0-.19-.05-.19-.18,0-.7,0-1.39,0-2.09,0-.14,.06-.2,.2-.2,.46,0,.93,0,1.39,0,.13,0,.19,.06,.18,.19,0,.35,0,.7,0,1.06,0,.34,0,.68,0,1.02,0,.15-.04,.21-.2,.21Zm-3.26-2.53c-.49-.02-.99-.02-1.48,0-.3,.01-.52,.3-.5,.57,.02,.3,.25,.51,.56,.52,.23,0,.46,0,.68,0,.23,0,.46,0,.68,0,.31,0,.54-.23,.55-.52,.01-.3-.19-.56-.49-.58Zm-.13,.73c-.2,0-.4,0-.6,0-.21,0-.43,0-.64,0-.12,0-.22-.04-.22-.18,0-.15,.1-.18,.23-.18,.42,0,.83,0,1.25,0,.13,0,.24,.03,.24,.18,0,.16-.12,.18-.25,.18Zm.08,.75c-.23,0-.46,0-.68,0-.23,0-.47,0-.7,0-.3,0-.53,.24-.54,.53-.01,.28,.22,.55,.51,.56,.48,.02,.96,.02,1.44,0,.31,0,.53-.27,.52-.57-.01-.29-.24-.52-.55-.52Zm-.04,.73c-.22,0-.44,0-.67,0-.21,0-.42,0-.63,0-.12,0-.21-.03-.22-.17,0-.15,.09-.19,.22-.19,.43,0,.86,0,1.29,0,.12,0,.21,.05,.21,.18,0,.13-.09,.18-.21,.18Z"/>
</svg>