<?xml version="1.0" encoding="UTF-8"?>
<svg id="Layer_1" data-name="Layer 1" xmlns="http://www.w3.org/2000/svg" viewBox="0 0 800 800">
  <defs>
    <style>
      .cls-1 {
        fill: none;
      }

      .cls-2 {
        fill: #010101;
      }
    </style>
  </defs>
  <rect class="cls-1" width="800" height="800"/>
  <path class="cls-2" d="M732.39,730.23c-11.77-.05-23.55-.34-35.3,.12-6.39,.25-8.09-2.03-7.98-8.15,.34-18.38,.39-36.77-.02-55.14-.14-6.48,2.12-8.44,8.22-7.83,31.57,3.14,56.42-19.35,56.19-57.55-.94-157.71-.39-315.43-.4-473.15,0-48.37-28.17-76.48-76.64-76.49-184.26,0-368.51,0-552.77,0-48.55,0-76.79,28.07-76.79,76.33,0,157.72,.55,315.44-.4,473.15-.23,38.24,24.43,60.77,56.04,57.66,7.26-.71,8.5,2.42,8.37,8.83-.38,17.64-.58,35.31,.07,52.93,.3,8.21-2.82,9.79-10.11,9.43-11.01-.55-22.06-.18-33.09-.13-13.91,.05-20.97,4.91-20.7,14.13,.27,8.99,6.99,13.52,20.2,13.61,1.84,.01,3.68,0,5.52,0,108.86,0,217.72,0,326.58,0,111.07,0,222.14,0,333.2-.01,13.31,0,19.96-4.47,20.34-13.45,.39-9.27-6.67-14.22-20.53-14.28ZM134.08,78.97c180.95,1.02,361.91,.42,542.87,.45,24.95,0,40.23,9.46,46.43,29.23,3.92,12.51,1.72,25.54,2.09,38.35,.09,3.28-1.8,4.46-4.92,4.32-2.57-.12-5.15-.01-7.72-.01-104.46,0-208.91,0-313.37,0s-208.91-.18-313.37,.28c-10.22,.04-11.38-3.12-11.93-12.27-2.76-46.05,17.78-60.57,59.91-60.33Zm57.65,651.36c-15.79-.35-31.6-.3-47.4-.02-5.3,.09-6.93-1.69-6.91-6.94,.18-37.1,.17-74.21,0-111.31-.02-4.83,1.56-6.33,6.31-6.26,16.17,.23,32.35,.38,48.5-.06,6.48-.18,6.96,2.82,6.9,7.93-.21,18.37-.08,36.73-.08,55.1,0,18-.19,36,.11,54,.1,5.71-1.59,7.68-7.44,7.55Zm152.12,.05c-14.3-.58-28.66-.6-42.97,0-7.54,.32-9.04-2.41-9.03-9.35,.21-85.93,.25-171.86-.05-257.78-.03-7.92,2.33-9.89,9.88-9.57,14.3,.59,28.66,.6,42.97,0,7.45-.31,9.09,2.26,9.04,9.28-.3,43.33-.15,86.66-.15,129.99s-.2,85.2,.18,127.79c.07,7.86-2.28,9.95-9.88,9.64Zm155.71-.02c-15.4-.48-30.82-.33-46.23-.05-5.24,.09-6.96-1.59-6.94-6.88,.16-48.79,.18-97.58-.02-146.36-.02-5.45,1.79-6.8,6.93-6.71,15.77,.28,31.57,.44,47.33-.06,6.84-.22,7.57,2.73,7.51,8.38-.25,23.84-.1,47.69-.1,71.53,0,23.84-.24,47.69,.15,71.53,.11,6.74-1.83,8.84-8.61,8.63Zm171.16-324.77c-26.11-.15-52.23-.16-78.34,0-14.2,.09-18.1,4.27-18.14,18.65-.06,20.59-.1,41.18,.02,61.77,.07,11.08,4.6,16.41,13.37,16.38,8.74-.03,13.18-5.36,13.28-16.48,.13-15.07,.25-30.15-.08-45.22-.12-5.54,1.19-7.79,7.23-7.64,15.81,.39,31.63,.41,47.44,0,6.23-.16,7.09,2.41,7.09,7.77-.13,93.75-.18,187.5,.07,281.25,.02,7.32-2.73,8.42-9.01,8.26-14.33-.38-28.7-.54-43.02,.05-7.63,.31-9.93-1.84-9.86-9.68,.38-44.48,.2-88.97,.15-133.46,0-3.99,.75-8.14-1.39-11.87-3.33-5.81-8.5-8.17-14.9-6.75-6.43,1.42-10.22,5.68-10.29,12.47-.14,14.34-.11,28.68-.11,43.01-.01,32.35-.21,64.71,.15,97.06,.08,7.2-1.88,9.83-9.21,9.17-6.93-.62-14.02-.67-20.94,0-7.95,.78-9.7-2.3-9.66-9.85,.32-52.57,.18-105.15,.16-157.72,0-16.47-3.54-20.03-20.07-20.07-25.38-.07-50.76-.1-76.13,.02-14.92,.07-18.77,4.07-18.78,19.14-.04,52.57-.23,105.15,.2,157.72,.07,8.81-2.4,11.59-10.99,10.76-9.08-.87-20.95,2.73-26.66-1.82-6.14-4.9-1.92-17.24-1.94-26.3-.17-85.3-.09-170.59-.11-255.89,0-16.48-3.56-20.17-19.91-20.24-25.38-.1-50.76-.14-76.13,.02-15.06,.09-18.93,4.08-18.94,18.98-.03,90.81-.14,181.62,.18,272.43,.03,9.43-1.44,13.3-12.23,12.97-27.42-.85-27.44-.25-27.44-27.33,0-35.29,.04-70.59-.02-105.88-.02-14.63-3.52-18.13-18.15-18.17-26.48-.07-52.96-.09-79.44,0-13.82,.05-17.28,3.7-17.38,17.84-.06,8.82-.49,17.68,.14,26.46,.51,7.16-2.36,8.47-8.85,8.45-20-.06-27.57-6.95-27.57-26.86-.05-138.6,.07-277.21-.25-415.81-.02-9.14,2.98-10.73,11.25-10.71,104.82,.25,209.64,.17,314.46,.17,104.08,0,208.17,.15,312.25-.23,10.14-.04,13.64,1.71,13.6,12.91-.44,137.5-.27,275-.3,412.51,0,21.42-7.56,28.38-28.62,28.06-6.61-.1-7.84-2.49-7.78-8.4,.27-25.73,.11-51.47,.11-77.21,0-40.44,.02-80.88-.01-121.33-.01-15.19-3.81-19.31-18.51-19.39ZM156.14,252.95c-9.93,0-19.85-.06-29.78,.02-9.04,.07-15.17-3.54-15.38-13.22-.21-9.72,5.67-13.61,14.83-13.6,20.96,.02,41.91,.02,62.87,0,9.15-.01,15.04,3.88,14.83,13.6-.21,9.68-6.34,13.28-15.38,13.22-10.66-.07-21.32-.02-31.99-.02Zm1,39.39c10.66,0,21.32,0,31.99,.01,8.66,0,14.28,3.84,14.39,12.93,.11,9.56-5.52,13.82-14.74,13.83-20.96,.01-41.91,0-62.87,.01-9.17,0-14.98-4.05-14.93-13.65,.04-9.79,6.27-13.24,15.29-13.17,10.29,.08,20.59,.02,30.88,.03Zm97.84-52.93c0,8.06-5.81,13.84-13.77,13.41-8.3-.45-12.5-5.4-12.96-13.3-.45-7.76,5.89-13.54,13.92-13.32,7.63,.21,12.8,5.54,12.8,13.21Zm333.32,285c6.6,.94,11.96,4.37,12.54,12.76,.55,8.02-5.06,14.49-12.91,14.3-7.91-.19-13.04-4.13-13.6-12.52-.53-7.89,5.26-14.3,13.98-14.54Zm-80.33-395.16c-48.85,0-97.69,.02-146.54-.04-4,0-8.15-.05-11.98-1.04-6.42-1.66-9.76-6.37-9.69-13.01,.07-6.67,3.66-11.19,10.04-12.75,3.85-.94,8-.9,12.02-.9,98.06-.04,196.12-.04,294.17-.03,2.94,0,5.91-.18,8.8,.2,7.76,1.02,13.11,4.79,13.27,13.32,.17,9.12-5.38,13.11-13.65,14.12-2.9,.36-5.87,.13-8.81,.13-49.21,0-98.43,0-147.64,0Zm-359.49-15.72c-.02,9.67-6.3,16.22-13.83,15.4-7.77-.85-12.67-5.19-12.77-13.57-.1-7.84,6.18-14.27,13.81-13.52,7.86,.77,12.47,5.26,12.79,11.69Zm54.99,4.86c-.76,6.17-5.73,10.33-13.59,10.54-7.62,.21-13.41-6.68-12.78-14.58,.66-8.32,5.87-12.3,13.7-12.5,7.7-.2,13.34,6.59,12.67,16.54Zm28.76-5.12c.47-6.34,5.09-10.81,12.98-11.42,7.62-.6,13.8,5.93,13.58,13.75-.23,8.38-5.21,12.63-12.99,13.35-7.56,.69-13.69-5.94-13.58-15.67Zm445.22,156.47c-10.3-25.01-40.49-37.05-65.34-26.06-25.88,11.45-37.23,40.46-24.94,66.21,3.39,7.1,2.25,10.78-2.94,15.87-25.98,25.47-51.7,51.2-77.24,77.11-4.53,4.59-8.15,7.03-14.8,3.8-9.29-4.51-19.55-4.48-29.04-.97-7.03,2.6-11.27,1.09-16.29-4.01-27.05-27.51-54.31-54.82-81.84-81.85-4.9-4.81-5.64-8.47-3.34-15.03,7.47-21.32-.26-43.7-18.36-56.37-17.59-12.32-41.95-11.68-58.65,1.55-17.74,14.05-23.99,36.14-15.35,57.24,2.43,5.92,2.24,9.5-2.51,14.14-23.41,22.83-46.55,45.95-69.47,69.26-4.17,4.24-7.26,5.13-13.13,3.02-28.34-10.14-58.44,6.44-65.02,35.19-4.65,20.32,3.87,41.36,21.37,52.74,16.72,10.88,39.92,10.2,55.97-1.64,16.95-12.5,23.95-33.37,18.34-53.68-1.42-5.15-5.16-9.77,1.08-15.74,24.67-23.65,48.6-48.08,72.7-72.31,3.14-3.16,5.67-4.38,10.47-2.56,10.57,4.01,21.9,4.57,32.28,0,6.39-2.81,9.66-1.4,14.08,3.08,27.1,27.46,54.39,54.74,81.88,81.81,4.49,4.42,5.68,7.72,3.08,14.03-13.52,32.78,10.28,67.9,45.51,67.92,34.15,.02,57.75-32.73,46.59-65.79-2.23-6.62-.94-9.79,3.38-14.07,27.17-26.89,54.25-53.87,81.05-81.12,4.43-4.5,8.49-6.09,14.48-4.35,9.53,2.77,19,1.53,28.07-2.06,26.23-10.39,38.61-39.49,27.96-65.35ZM167.52,462.06c-12.18,.07-22.2-10.16-22.02-22.47,.18-12.41,10.31-21.97,22.78-21.52,11.94,.43,21.01,10.13,20.8,22.26-.2,11.97-9.82,21.66-21.55,21.73Zm148.31-151.19c-12.5,.39-22.7-9.42-22.74-21.88-.04-11.93,9.69-21.86,21.6-22.05,12.03-.19,21.63,9.23,21.86,21.46,.23,12.43-8.68,22.09-20.71,22.47Zm160.15,164.63c-11.13,.01-21.72-10.35-22.18-21.73-.49-11.99,9.69-22.24,22.12-22.26,12.46-.02,21.49,8.79,21.65,21.12,.17,12.61-9.5,22.86-21.59,22.87Zm155.66-164.64c-12.32-.04-22.24-10.22-21.9-22.5,.32-11.74,10.33-21.44,22.06-21.39,11.75,.05,21.68,9.81,21.9,21.56,.24,12.28-9.73,22.37-22.07,22.34Z"/>
</svg>