<?xml version="1.0" encoding="UTF-8"?>
<svg id="Layer_1" data-name="Layer 1" xmlns="http://www.w3.org/2000/svg" viewBox="0 0 800 800">
  <defs>
    <style>
      .cls-1 {
        fill: none;
      }

      .cls-2 {
        fill: #010101;
      }
    </style>
  </defs>
  <rect class="cls-1" width="800" height="800"/>
  <path class="cls-2" d="M360.45,302.71c46.54,0,93.07-.02,139.61,.01,15.51,.01,18.85,3.22,18.86,18.36,.04,84.5-.25,169,.34,253.5,.08,11.41-5.71,9.82-12.6,9.86-6.99,.04-12.62,1.36-12.53-9.94,.6-78.37,.09-156.75,.59-235.13,.07-10.36-2.63-12.49-12.64-12.43-82.05,.45-164.1,.44-246.15,0-9.43-.05-11.19,2.56-11.13,11.44,.42,57.96-.16,115.94,.55,173.89,.14,11.21-4.77,10.85-12.77,11.1-8.75,.27-12.45-1.09-12.35-11.49,.59-63.27,.28-126.54,.3-189.82,0-16.27,3.03-19.34,19.09-19.35,46.94-.03,93.89-.01,140.83-.01Zm49.06-214.22c-53.01,29.03-91.3,71.51-115.37,126.81-1.63,3.75-7.68,10.31,2.58,11.78,6.81,.97,14.23,12.38,20.32-2.54,14.58-35.73,37.47-65.65,67.46-89.97,15.36-12.46,31.7-23.39,52.77-31.95-3.77,11.73-5.71,21.35-9.89,29.87-5.94,12.1-1.96,16.65,10.06,19.41,6.3,1.44,9.02,2.26,11.25-5.2,5.91-19.83,12.67-39.42,19.6-58.93,3.77-10.61-.4-16.41-10.04-19.65-16.93-5.69-33.89-11.29-50.87-16.85-16.33-5.35-15.93-5.17-21.05,10.65-2.03,6.27-.46,8.53,5.29,10.21,9.2,2.69,18.25,5.92,29.96,9.79-5.69,3.1-8.88,4.83-12.07,6.57Zm161.32,278.92c3.23,7.17,8.39,12.84,15.5,16.7,2.9,1.57,7.2,2.53,6.09,7.62-2.07,9.46,3.94,9.78,10.49,8.9,5.99-.81,16.27,4.42,13.96-9.08-.88-5.17,3.44-5.77,6.24-7.56,25.15-16.07,24.27-47.72-1.88-62.1-6.75-3.71-13.82-6.83-20.67-10.36-4.96-2.56-9.01-6.06-7.87-12.36,.88-4.87,4.17-7.94,9.13-8.54,6-.72,11.39,.25,14.28,6.64,.89,1.96-.01,5.56,3.64,5.34,7.12-.43,16.36,3.32,20.75-1.88,3.52-4.17-1-12.27-4.35-17.96-3.4-5.77-8.26-10.06-14.17-13.06-3.03-1.54-5.88-2.84-5.05-6.99,2.18-10.92-5.53-9.11-11.71-8.94-6.18,.17-15.05-2.97-12.76,9.08,.99,5.21-3.46,5.78-6.23,7.56-25.19,16.22-24.33,47.67,1.86,62.1,7.1,3.91,14.52,7.25,21.72,10.99,4.68,2.43,7.8,6.13,6.83,11.74-.75,4.34-3.56,7.43-7.95,8.28-5.37,1.05-12.23,1.31-13.88-4.36-2.42-8.35-7.65-7.88-12.59-7.46-15.69-.03-17.38,2.36-11.36,15.71Zm-251.49,155.48c-11.52-.48-8.52,6.69-8.52,12.51,0,5.84-2.95,12.69,8.53,12.51,43.24-.67,86.5-.67,129.74,0,11.49,.18,8.51-6.7,8.52-12.52,0-5.84,2.98-12.99-8.54-12.5-21.59,.91-43.24,.26-64.86,.26s-43.28,.64-64.87-.26Zm236.19,42.01c37.45-9.56,71.46-26.01,101.32-50.74,3.83-3.17,10.45-6.12,2.89-11.55-5.44-3.92-6.6-17.65-18.95-7.12-25.98,22.14-56.24,36.52-89.26,45.18-3.55,.93-9.91-.31-9.78,4.73,.17,6.71,2.75,13.4,4.7,19.98,.55,1.85,2.79,.77,4.29,.42,1.6-.3,3.22-.5,4.79-.9ZM286.91,252.3c-10.97,.32-7.8,11.91-8.5,18.39-1.33,12.37,10.18,6.72,15.49,7.72,13.97,2.62,6.28-11.17,11.89-16.7-3.1-9.7-13.13-9.58-18.88-9.41Zm392.1,62.31c-8.44,.66-14.55-.15-13.49,11.71,.75,8.42-.12,14.89,11.73,13.37,7.75-.99,16.79,1.55,12.84-11.4,1.67-9.01,.52-14.58-11.08-13.68Zm-417.62,220.03c.55,8.68,.15,14.34,11.85,13.38,8.63-.71,14.63-.17,13.29-11.88-.93-8.07,.99-16.52-11.63-12.7-9.29-1.93-14.22-.09-13.51,11.21Zm320.37,134.32c-4.77,5.81-10.73,10.09-17.66,12.71-67.98,25.72-135.62,52.42-204.15,76.59-47.94,16.91-96.25,12.51-143.17-6.72-29.32-12.02-58.59-24.17-88.88-36.68-.47,14.75-9.63,17.12-21.96,16.66-17.93-.68-35.97-1.06-53.85,.15-11.45,.77-10.69-4.95-11.03-12.84-.38-8.94,1.31-13.01,11.6-12.23,13.8,1.05,27.74,.02,41.61,.37,5.93,.15,8.48-.9,8.43-7.83-.35-43.67-.37-87.35,.01-131.02,.07-7.52-2.76-8.53-9.16-8.35-14.68,.41-29.39-.12-44.08,.25-6.06,.15-8.39-1.13-8.38-7.9,0-16.71-.41-16.71,16.6-16.71,17.55,0,35.1,.12,52.65-.06,7.01-.07,13.28,1,15.87,8.48,2.26,6.52,7.48,3.76,11.28,3.68,37.32-.73,74.09,2.3,109.68,14.52,3.84,1.32,8.04,2.02,11.45,4.04,32.04,19.01,67.18,20.01,102.9,18.41,12.63-.57,25.3-.09,37.96-.09,33.97,0,47.87,12.01,52.95,46.72,26.8-11.31,52.46-22.5,78.41-32.96,20.39-8.22,40.78-1.98,53.06,15.25,12.04,16.88,11.15,39.38-2.15,55.57Zm-15.6-36.81c-4.54-11.56-15.41-15.88-28.07-10.7-12.77,5.22-25.2,11.33-38.09,16.22-26.54,10.07-51.15,25.68-79.31,30.76-26.14,4.72-52.92,.59-74.58,1.67-28.08,0-51.37-.76-74.58,.32-11.51,.54-9.8-5.76-9.85-12.62-.05-7-1.35-12.73,9.94-12.52,44.05,.8,88.13,.37,132.2,.3,14.57-.02,22.7-6.5,22.98-17.89,.29-11.93-8.03-18.77-23.26-18.8-29.38-.07-58.76-.06-88.14,0-13.65,.03-26.82-2.41-38.99-8.55-44.38-22.39-91.64-29.9-140.86-28.41-6.95,.21-8.76,2.02-8.69,8.85,.35,32.23,.52,64.48-.09,96.7-.16,8.54,3.03,11.92,10.39,14.86,28.66,11.44,57.09,23.45,85.56,35.36,37.87,15.85,76.81,20.68,117.01,10.99,36.07-8.69,69.55-24.77,104.24-37.42,36.6-13.35,72.93-27.45,109.25-41.56,12.61-4.9,17.43-16.09,12.92-27.57Zm129.79-161.61c-8.98,2.59-18.33,3.67-27.77,3.63-18.36-.09-36.72-.03-55.07-.02-20.4,0-40.82-.63-61.18,.25-11.55,.5-8.35-6.85-8.43-12.58-.08-5.9-2.86-12.67,8.61-12.44,37.52,.75,75.06,.21,112.59,.31,33.31,.09,59.51-13.37,75.91-42.43,16.37-29,14.62-58.36-2.88-86.76-24.76-40.2-49.54-80.39-74.07-120.72-3.04-5.01-6.11-7.51-12.34-7.44-31,.33-62.01,.39-93.01-.03-6.88-.09-9.91,2.97-13.1,8.25-15.34,25.44-31.61,50.33-46.34,76.11-5.85,10.23-10.16,6.66-17.69,2.84-9.42-4.78-7.89-9.17-3.32-16.41,16.5-26.17,32.5-52.66,48.63-79.06,8.14-13.31,6.49-46.48-2.8-58.75-6.39-8.45-12.78-16.89-19.09-25.4-13.8-18.61-11.61-38.9,6.25-54.51,16.31-14.26,34.81-16.69,54.65-8.53,6.74,2.77,13.8,5.54,19.54,9.86,13.68,10.3,26.39,8.74,39.8-.3,6.01-4.05,12.81-7.08,19.51-9.95,30.93-13.24,65.07,5.91,70.08,39.1,.95,6.32,.11,11.97-4.23,17.13-4.71,5.61-8.29,12.23-13.36,17.45-15.41,15.86-21.75,34.21-19.04,56.35,.86,7.04,2,13.23,5.76,19.31,25.29,40.83,50.51,81.71,75.45,122.75,38.71,63.69,8.45,141.39-63.07,162Zm-42.58-316.25c.79-4.93,2.73-11.25-7.31-11.02-27.73,.64-55.48,.43-83.22,.12-12.4-.14-6.15,8.82-6.94,13.79-.79,4.93-2.74,11.6,7.32,11,13.41-.8,26.91-.2,40.38-.2,14.28,0,28.56-.28,42.83,.08,12.4,.31,6.14-8.8,6.94-13.78Zm30.39-66.64c6.39-12.12,5.95-20.71-6.44-27.57-8.57-4.74-17.15-4.17-25.69,.07-11.98,5.95-24.23,11.44-35.84,18.04-8.05,4.58-14.76,4.24-22.69-.24-11.63-6.57-23.91-11.98-35.89-17.93-10.03-4.98-19.69-4.56-28.64,2.33-9.48,7.3-10.34,14.95-3.17,24.46,6.12,8.11,12.7,15.94,18.14,24.48,4.05,6.35,8.92,8.12,16.12,7.86,14.64-.53,29.31-.16,43.97-.16,5.29,0,10.73-.78,15.86,.13,29.23,5.21,50.17-4.73,64.28-31.47Zm-255.41,398.74c-23.25,0-46.49,0-69.74,0-25.28,0-50.59-.62-75.84,.28-11.36,.41-8.92-6.33-8.7-12.34,.21-5.63-3.33-13.14,8.32-12.7,16.05,.61,16.08-.18,16.08-16.72,0-21.61,.18-43.23-.07-64.84-.13-11.32,4.92-16.43,16.23-16.21,13.86,.27,27.73,.21,41.59,.02,10.62-.14,15.92,4.64,15.75,15.42-.14,8.97,.29,17.96-.14,26.91-.26,5.48,1.65,7.12,6.94,6.79,6.5-.41,13.04-.1,19.57-.1,20.88,0,22.59,1.77,22.6,23.19,0,2.04,0,4.08,0,6.12,0,18.1-.01,18.3,18.29,19.54,4.61,.31,6.01,1.39,6.36,6.19,1.34,18.46,1.57,18.45-17.24,18.45Zm-80.7-89.81c.98-10.73-6.19-8.48-11.65-7.98-5.19,.48-13.68-4.66-13.22,7.65,.71,19.14,.8,38.36-.05,57.5-.48,10.71,6.24,8.47,11.7,7.97,5.19-.47,14.07,4.64,13.17-7.65-.69-9.33-.14-18.75-.14-28.14s-.7-19.64,.19-29.35Zm35.56,40.5c-12.08-1.23-10.8,5.4-11.57,13.58-1.11,11.88,5.03,12.41,14.4,10.89,13.31,4.71,9.43-5.65,10.57-12.89,1.9-12.04-5.24-10.74-13.41-11.58Z"/>
</svg>