<?xml version="1.0" encoding="UTF-8"?>
<svg id="Layer_1" data-name="Layer 1" xmlns="http://www.w3.org/2000/svg" viewBox="0 0 800 800">
  <defs>
    <style>
      .cls-1 {
        fill: none;
      }

      .cls-2 {
        fill: #010101;
      }
    </style>
  </defs>
  <rect class="cls-1" width="800" height="800"/>
  <path class="cls-2" d="M752.25,75.29c-16.05,1.85-32.06,4.04-48.09,6.07-7.3,.93-11.58,5.41-10.85,12.37,.69,6.65,5.31,11.17,12.69,10.77,5.28-.29,10.53-1.34,16.99-2.21-1.5,2.19-2.17,3.53-3.16,4.57-40.84,42.53-81.81,84.94-122.43,127.68-4.81,5.06-8.26,3.19-12.87,.91-41.67-20.62-83.54-40.86-125-61.91-9.47-4.81-15.85-3.81-23.6,3.11-26.89,24.01-54.33,47.41-83.55,72.77,1.59-19.59,2.49-36.82-.06-53.77-11.82-78.7-80.53-137.28-161.02-137.77C87.91,57.23,9.2,151.56,29.09,252.26c12.93,65.46,67.84,119.95,131.15,130.14,71.86,11.57,138.16-19.67,173.1-81.7,2.69-4.77,5.92-8.8,10.08-12.39,33.18-28.77,66.38-57.53,99.19-86.71,5.7-5.07,9.88-5.83,16.76-2.36,40.82,20.56,82.07,40.29,122.8,61.04,11.05,5.63,18.38,4.89,27.17-4.44,40.97-43.46,82.6-86.29,124.1-129.25,2.08-2.15,3.31-6.08,8.03-5.44-.71,5.18-2.02,10.11-1.91,15.02,.15,6.69,3.01,12.1,10.73,12.56,7.4,.44,11.54-3.17,12.21-10.7,1.43-16.1,3.28-32.16,4.31-48.28,.66-10.28-4.95-15.56-14.55-14.45ZM189.24,361.49c-77.37-.48-139.73-63.48-139.54-140.99,.18-77.22,63.19-139.49,140.98-139.32,77.91,.17,140.33,62.64,140.03,140.16-.3,78.26-63.26,140.63-141.47,140.15Zm577.73-76.26c-.02-17.98-9.74-28.88-26.92-29.26-21.19-.47-42.41-.46-63.6,0-16.65,.35-27.24,11.32-27.25,27.99-.1,143.77-.11,287.55,0,431.32,.01,17.5,10.65,27.76,28.26,27.94,19.27,.19,38.55,.08,57.82,.04,22.52-.05,31.69-9.1,31.7-31.34,.02-70.92,0-141.85,0-212.77,0-71.31,.03-142.62-.02-213.93Zm-23.11,337.91c0,28.91-.29,57.82,.19,86.72,.14,8.25-2.44,10.54-10.46,10.26-16.56-.57-33.17-.7-49.71,.04-9.21,.41-11.72-2.39-11.67-11.59,.38-69.77,.21-139.53,.21-209.3s.21-138.76-.23-208.14c-.06-9.89,2.97-12.48,12.38-12.06,15.77,.71,31.63,.79,47.39-.02,9.75-.5,12.14,2.68,12.11,12.22-.33,110.62-.21,221.25-.21,331.88Zm-327.15-215.58c-1.3-18.26-11.41-27.76-29.86-27.84-18.5-.09-36.99-.04-55.49-.02-23.14,.02-32.31,8.99-32.34,31.85-.05,50.09-.02,100.19-.01,150.28,0,50.86-.09,101.73,.05,152.59,.05,18.79,9.79,28.65,28.21,28.81,20.81,.18,41.62,.23,62.43-.04,14.62-.19,23.63-8.13,26.17-22.45,.6-3.39,.86-6.88,.86-10.32,.04-99.42,.04-198.83,.03-298.25,0-1.54,.06-3.09-.04-4.62Zm-23.33,197.02c0,34.66-.26,69.33,.17,103.98,.11,8.97-2.41,12.07-11.7,11.61-16.14-.78-32.38-.86-48.5,.02-9.7,.53-11.27-3.19-11.21-11.78,.36-48.91,.17-97.82,.17-146.73s.2-98.59-.19-147.89c-.07-8.4,1.76-11.46,10.74-11.02,16.14,.79,32.37,.81,48.51,0,9.82-.49,12.27,2.83,12.21,12.32-.38,63.16-.2,126.32-.2,189.48Zm198.09-11.12c0-39.33,.03-78.67,0-118-.02-22.14-8.7-30.93-30.47-30.96-17.74-.03-35.54,.91-53.2-.23-24.39-1.57-34.16,11.99-33.95,34.16,.54,57.84,.18,115.68,.18,173.52,0,20.44-.27,40.88,.08,61.31,.35,20.44,9.91,29.88,29.72,29.99,19.28,.11,38.56,.1,57.84,0,20.38-.1,29.75-9.35,29.79-29.49,.07-40.1,.02-80.21,.02-120.31Zm-32.77,126.68c-16.56-.57-33.18-.72-49.73,.04-9.18,.42-11.86-2.45-11.76-11.53,.42-38.94,.18-77.9,.18-116.85,0-37.41,.35-74.82-.23-112.22-.15-9.9,2.99-12.41,12.42-11.98,16.55,.75,33.17,.58,49.73,.04,7.21-.23,9.1,1.96,9.04,9.06-.33,38.95-.16,77.9-.16,116.85,0,38.95-.19,77.9,.16,116.85,.07,7.52-1.95,10.01-9.65,9.74Zm-317.41-153.63c-.1-17-10.7-26.99-27.75-27.16-20.43-.2-40.87-.16-61.31-.02-18.83,.13-28.38,9.77-28.45,28.59-.09,24.29-.02,48.58-.02,72.88,0,24.68-.08,49.36,.03,74.03,.08,18.03,9.86,28.2,27.55,28.39,20.82,.22,41.65,.23,62.47,0,16.86-.19,27.4-10.39,27.5-27.49,.29-49.74,.29-99.48,0-149.22Zm-33.16,153.62c-16.55-.52-33.14-.63-49.68,.03-8.83,.35-12.08-1.75-11.76-11.31,.75-22.7,.24-45.44,.24-68.17,0-22.73,.22-45.45-.13-68.17-.11-7.02,1.07-10.4,9.28-10.12,17.7,.62,35.44,.51,53.15,.04,7.38-.2,9.05,2.65,9.02,9.44-.22,46.22-.26,92.44,.02,138.66,.05,7.77-2.69,9.83-10.14,9.6ZM158.37,180.32c-.07,15.54,8.29,21.62,18.65,24.9,10.94,3.47,22.44,5.11,33.51,8.19,29.2,8.13,44.84,32.21,38.02,58.91-4.99,19.55-20.48,28.07-38.17,32.94-5.6,1.54-8.76,2.43-8.34,9.13,.52,8.27-2.99,14.85-12.35,14.53-8.87-.3-11.39-6.79-10.69-14.63,.5-5.61-1.55-7.48-7.19-9.1-18.57-5.34-33.15-15.93-39.83-35.12-2.59-7.46-3.75-14.9,5.37-18.44,9.03-3.5,13.81,2.11,16.17,9.94,7.54,25.04,48.68,30.3,67.63,12.82,10.13-9.34,7.57-24.95-5.28-33.22-8.23-5.3-17.68-7.36-27.19-8.98-9.89-1.68-19.57-4.09-28.46-8.85-17.27-9.25-26.08-23.74-24.7-43.37,1.37-19.62,12.51-32.98,30.32-39.9,8.59-3.34,14.72-5.93,13.52-16.95-.67-6.12,4.56-9.54,10.7-9.59,7.44-.06,12.39,4.76,11.74,11.41-.95,9.87,4.55,11.99,11.87,14.43,13.8,4.59,23.46,14.33,30.25,26.94,3.87,7.2,4.51,14.67-3.83,18.85-7.61,3.82-12.7-.48-16.78-7.38-11.28-19.08-34.6-25.21-52.77-14.18-7.27,4.41-12.28,10.47-12.18,16.72Z"/>
</svg>