<?xml version="1.0" encoding="UTF-8"?>
<svg id="Layer_1" data-name="Layer 1" xmlns="http://www.w3.org/2000/svg" viewBox="0 0 800 800">
  <defs>
    <style>
      .cls-1 {
        fill: none;
      }

      .cls-2 {
        fill: #010101;
      }
    </style>
  </defs>
  <rect class="cls-1" width="800" height="800"/>
  <path class="cls-2" d="M560.15,314.42c-.01-25.89-13.36-39.4-39.06-39.44-34.56-.06-69.13-.02-103.69-.02-35.32,0-70.65-.16-105.97,.06-22.08,.14-36.28,14.45-36.31,36.43-.1,67.19-.11,134.38,0,201.57,.04,21.48,14.1,35.49,35.7,35.54,58.87,.13,117.74-.03,176.61,.15,6.57,.02,11.5-1.94,16.09-6.64,16.19-16.55,32.52-32.97,49.17-49.06,5.67-5.48,7.62-11.41,7.58-19.15-.25-53.14-.12-106.29-.14-159.44Zm-254.66-15.35c3.08-1.13,6.68-1.15,10.04-1.15,67.97-.06,135.94-.05,203.91-.04,2.28,0,4.6-.2,6.82,.16,9.69,1.58,11.26,8.41,11.18,16.81-.1,10.07-7.53,5.45-11.48,5.49-36.45,.36-72.9,.22-109.36,.22s-72.15,.14-108.22-.22c-3.4-.03-9.92,4.09-10.45-4.09-.44-6.94-.62-14.17,7.54-17.17Zm198.49,205.86c-3.09-14.4-2.81-14.71,14.6-12.41-5.3,4.5-10.51,8.93-14.6,12.41Zm33.52-43.63c.05,6.04-1.65,7.82-7.62,7.54-10.23-.48-20.5-.15-30.76-.13-15.8,.04-18.74,2.89-18.77,18.24-.02,10.63-.29,21.27,.11,31.88,.21,5.51-1.57,6.99-7.01,6.97-53.93-.19-107.85-.14-161.78-.09-9.49,0-13.8-4.63-13.79-13.98,.05-53.52,.15-107.04-.13-160.56-.04-6.98,2.72-7.86,8.64-7.82,37.22,.22,74.43,.11,111.65,.11,36.84,0,73.68,.18,110.51-.16,6.84-.06,9.07,1.44,8.99,8.68-.39,36.43-.32,72.88-.04,109.31Zm-40.7-378.57c-18.22-11.57-36.75-22.69-55.5-33.39-9.4-5.36-17.24-.36-17.91,10.63-.3,4.92-.38,9.89,.02,14.79,.49,5.89-1.26,7.47-7.51,7.08-30.1-1.85-59.75,1.43-89.14,8.29C183.57,123.54,81.28,252.76,81.25,414c.21,20.13,5.09,52.84,15.39,84.82,2.23,6.93,5.41,9.05,10.83,5.39,4.49-3.03,15.43,.81,11.05-12.82-17.16-53.37-18.59-107.4-5.53-162.26,30.96-130.1,153.32-225.99,288.53-224.99q20.87,.15,21.82,20.55c.57,12.24,8.58,17.17,19.13,11.08,18.03-10.41,35.87-21.19,53.54-32.22,9.54-5.96,10.01-14.97,.79-20.82Zm-50.31,24.02v-27.61c7.6,4.53,14.21,8.47,22.73,13.55-7.81,4.83-14.47,8.95-22.73,14.06Zm257.85,195.87c-1.99-6.69-4.59-9.7-10.73-5.56-4.59,3.09-15.53-.85-11.13,12.76,14.79,45.7,18.09,92.42,10.11,140.12-23.83,142.46-148.41,247.49-293.4,246.68q-20.32-.11-21.48-20.53c-.67-11.78-8.47-16.9-18.41-11.19-18.4,10.56-36.57,21.56-54.52,32.87-9.45,5.95-9.57,15.02-.3,20.84,17.96,11.28,36.15,22.23,54.55,32.8,10.04,5.77,17.81,.88,18.72-10.68,.56-7.05-3.43-16.69,1.91-20.46,4.79-3.38,13.84-.72,21.02-.72,.76,0,1.52,0,2.28,0,95.18-2.46,176.36-37.24,238.17-109.9,76.64-90.09,96.94-193.35,63.2-307.02Zm-349.88,419.17c-7.5-4.4-14.21-8.33-21.54-12.62,6.08-6.86,13.88-9.47,21.54-14.63v27.26ZM650.93,47.05c-56.62,.39-102.24,46.45-102.16,103.16,.07,56.67,46.03,102.18,103.06,102.05,56.82-.13,102.28-45.92,102.17-102.93-.1-56.34-46.8-102.67-103.07-102.28Zm0,182.3c-43.76-.06-79.49-35.95-79.35-79.71,.14-43.56,36.06-79.5,79.64-79.67,43.4-.17,79.8,35.97,79.95,79.37,.15,44.29-35.73,80.07-80.24,80.01ZM150.16,548.52c-56.41-.31-102.92,45.78-103.12,102.21-.2,56.91,45.41,102.94,102.09,103.01,57.12,.07,103.05-45.34,103.14-101.97,.09-56.74-45.6-102.93-102.11-103.25Zm-.24,182.27c-44,.13-79.96-35.36-80.05-78.98-.09-44.1,36.16-80.46,80.13-80.37,43.44,.08,79.43,36.26,79.45,79.86,.02,43.8-35.56,79.36-79.53,79.49Zm239.86-352.99c11.56-3.42,10.28,4.02,11.05,11.8,1.05,10.62-3.96,10.68-12.27,11.23-10.63,.71-10.85-4.01-11.18-12.36-.39-10.04,3.28-12.83,12.4-10.67Zm56.88,0c11.31-3.32,10.52,3.67,11.2,11.68,.89,10.43-3.67,10.88-12.19,11.35-10.42,.57-11.08-3.71-11.29-12.27-.23-9.78,2.92-13.11,12.28-10.77Zm67.6,11.31c2.92,10.29-2.34,11.37-11.18,11.69-9.65,.35-11.72-2.54-11.75-11.84-.03-9.47,2.39-12.03,11.88-11.8,9.14,.22,13.77,2,11.04,11.95Zm-183.41,56.69c-12.32,3.64-9.37-5.29-10.35-12.19-1.59-11.19,4.94-10.06,12.59-10.82,11.44-1.13,9.9,5.4,10.68,12.83,1.17,11.19-4.88,11.36-12.93,10.18Zm69.4-10.39c3.47,11.56-4.09,10.11-11.77,10.91-10.78,1.12-10.57-4.18-11.14-12.34-.74-10.63,4.06-10.8,12.41-11.23,10.5-.54,12.3,3.96,10.5,12.66Zm56.89-.19c3.75,12.48-4.67,10.12-11.87,11.04-11.1,1.43-10.17-4.72-10.89-12.5-1.01-11.03,4.64-10.43,12.59-10.98,10.82-.75,12.17,4.23,10.17,12.43Zm45.98,10.38c-11.36,3.32-11.21-3.07-11.73-11.35-.64-10.12,3.3-11.17,12.12-11.55,10.36-.44,11.26,3.65,11.36,12.3,.11,9.52-2.41,13.53-11.74,10.6Zm-172.15,45.77c-12.18,3.66-9.58-4.98-10.51-12.07-1.44-11.01,4.64-10.27,12.52-10.95,11.24-.98,10.12,5.09,10.81,12.75,.99,10.95-4.56,11.67-12.82,10.27Zm58.98-22.42c11.9-3.52,9.93,4.55,10.81,11.97,1.29,10.9-4.39,10.38-12.39,11.05-10.95,.92-10.51-4.46-11.01-12.49-.64-10.44,3.83-12.38,12.59-10.52Zm56.15,22.23c-11.36,3.32-11.21-3.07-11.73-11.35-.64-10.12,3.3-11.17,12.12-11.55,10.36-.44,11.26,3.65,11.36,12.3,.11,9.52-2.41,13.53-11.74,10.6Zm184.96-297.94c-3.83,.37-6.59-1.69-9.07-4.07-4.39-4.19-8.61-8.54-12.91-12.83-10.4-10.39-9.61-15.26,2.96-23.65,5.89-3.93,7.8,1.41,9.78,4.03,6.62,8.78,11.45,8.34,18.87,.05,13.13-14.66,28.03-27.73,41.46-42.13,5.84-6.26,9.16-2.93,12.16,1.54,2.83,4.23,13.25,6.23,4.63,14.65-19.53,19.07-38.73,38.47-58.04,57.75-2.75,2.75-5.66,5.08-9.84,4.64ZM172.11,634.5c-5.26-.19-10.32,1.16-13.58-4.33-1.48-2.48-4.81-1.9-7.42-1.74-4.95,.31-12.33-1.95-12.3,5.96,.03,7.27,7.11,5.26,11.61,5.17,12.7-.27,23.22,3.44,29.74,15.01,8.15,14.46,2.71,31.56-12.46,39.6-2.51,1.33-5.98,1.03-6.67,5.14-.5,2.96,2.38,7.84-2.57,8.56-5.95,.87-12.12,.22-18.19,.12-.6-.01-1.75-.96-1.68-1.25,2.83-12.34-9.7-12.32-14.76-18.25-4.78-5.59-11.28-13.75-6.77-18.36,4.15-4.24,15.09-4.53,21.86,.97,5.28,4.29,10.82,2.2,16.28,2.59,2.98,.22,5.17-1.62,5.49-4.6,.38-3.55-1.74-5.9-5.14-6.26-4.14-.44-8.35-.1-12.51-.3-13.5-.66-23.86-9.17-26.95-22.02-2.95-12.26,2.89-25.61,14.83-31.49,4.87-2.4,8.55-4.22,7.41-10.42-.64-3.45,1.39-5.25,4.59-4.43,6.99,1.79,19.84-6.76,18.51,10.31-.22,2.85,3.29,2.51,5.22,3.45,5.57,2.73,10.28,6.44,13.24,12.03,2.11,3.99,5.28,8.56,3.21,12.65-2.16,4.26-7.61,.84-10.97,1.9Z"/>
</svg>