<?xml version="1.0" encoding="UTF-8"?>
<svg id="Layer_1" data-name="Layer 1" xmlns="http://www.w3.org/2000/svg" viewBox="0 0 800 800">
  <defs>
    <style>
      .cls-1 {
        fill: none;
      }
    </style>
  </defs>
  <rect class="cls-1" width="800" height="800"/>
  <path d="M33,211.93c7.47-3.25,14.79-8.83,22.43-9.3,21.08-1.29,42.3-.45,64.58-.45v28.75H62.34c0,6.37,0,11.53,0,16.7,0,100.74-.02,201.48,.01,302.22,.01,28.94,18.92,50.2,44.3,50.02,25.44-.18,43.99-21.33,44-50.38,.03-156.28,0-312.56,.02-468.85,0-22.39,3.07-25.51,25.13-25.51,169.29-.01,338.59-.01,507.88,0,21.87,0,25.45,3.56,25.46,25.38,.02,100.74,.01,201.48,0,302.22,0,4.35,1.44,9.96-.69,12.77-3.8,5-9.61,11.02-14.99,11.45-4.11,.32-9.84-6.71-12.96-11.66-1.99-3.15-.61-8.48-.61-12.83-.01-92.57-.01-185.14-.01-277.71v-19.09H179.94c0,6.07,0,12.37,0,18.68,0,136.13,.1,272.27-.08,408.4-.04,28.99,4.56,58.76-15.21,87.33,9.13,0,14.89,0,20.64,0,68.04,0,136.09,0,204.13,.02,4.89,0,10.88-1.4,14.41,.87,4.73,3.05,10,8.85,10.41,13.85,.31,3.8-5.87,9.7-10.48,11.9-4.5,2.14-10.67,.91-16.1,.91-87.64,.03-175.28,.02-262.92,.02-54.94,0-71.22-10.57-91.73-59.54,0-118.73,0-237.46,0-356.19Zm235.96-38.11v27.37h321.79v-27.37H268.96Zm.36,58.6v27.37h321.48v-27.37H269.31Zm-.09,118.14v26.94h145.26v-26.94h-145.26Zm321.57,26.85v-27.33h-145.4v27.33h145.4Zm-176.37,58.85v-27.36h-145.4v27.36h145.4Zm-145.42,31.72v27.36h145.4v-27.36h-145.4Zm16.5,57.72h-16.19v29.29c24.83,0,48.63,0,72.42,0s48.41,0,72.66,0v-29.29h-128.89Zm229.36-116.49h-69.45v26.44c29.76,8.99,46.91-11.91,69.45-26.44Zm253.14,155.65v35.95c-2.19,8.88-4.12,17.84-6.62,26.64-20.57,72.53-89.65,121.04-166.53,117.06-72.3-3.75-136.02-62.56-147.51-136.14-13.55-86.78,45.7-171.02,129.39-183.99,93.18-14.44,173.4,42.92,188.6,134.77,.33,2,1.75,3.82,2.66,5.72Zm-50.8-53.73c-4.74-7.36-10.28-14.26-16.65-20.67-5.56-4.29-11.12-8.59-16.67-12.88,.18-.18,.36-.36,.54-.54-49.29-40.01-125.92-34.94-172.59,13.05-42.77,43.98-50.1,111.11-21,158.21,5.51,9.88,12.37,18.98,20.61,27.27,5.13,3.96,10.26,7.93,15.39,11.89-.2,.2-.4,.4-.61,.6,52.67,42,130.12,35.69,177.48-15.04,41.65-44.6,46.55-118.05,13.49-161.9Zm-33.88,14.15l-19.05-19.05-58.16,58.16-58.16-58.16-19.05,19.05c19.52,19.52,38.87,38.87,58.16,58.16l-58.16,58.16,19.05,19.05c19.42-19.42,38.77-38.77,58.16-58.16,19.39,19.39,38.74,38.74,58.16,58.16l19.05-19.05-58.16-58.16,58.16-58.16Z"/>
</svg>