<?xml version="1.0" encoding="UTF-8"?>
<svg id="Layer_1" data-name="Layer 1" xmlns="http://www.w3.org/2000/svg" viewBox="0 0 800 800">
  <defs>
    <style>
      .cls-1 {
        fill: none;
      }
    </style>
  </defs>
  <rect class="cls-1" width="800" height="800"/>
  <path d="M27,201.53c7.6-3.3,15.05-1.97,22.82-2.45,21.43-1.31,42.98-.45,65.62-.45v29.24H56.82c0,6.47,0,11.73,0,16.98,0,102.39-.02,204.77,.01,307.16,.01,29.42,19.14,50.91,45.03,50.83,25.75-.08,44.7-21.7,44.7-51.21,.03-158.28,0-316.57,.02-474.85,0-25.22,2.34-27.59,27.2-27.6,170.95,0,341.9,0,512.85,0,24.73,0,27.54,2.8,27.54,27.44,0,101.28,0,202.56-.01,303.84,0,4.97,1.61,11.19-.73,14.63-3.54,5.2-9.69,11.23-15.14,11.66-4.2,.33-10.28-6.71-13.18-11.81-2.16-3.79-.67-9.72-.67-14.7-.02-99.58-.01-199.17-.01-300.02H176.34c0,6.11,0,12.52,0,18.92,0,138.36,.1,276.72-.08,415.08-.04,29.46,4.61,59.7-15.4,88.81,9.29,0,15.15,0,21.01,0,69.15,0,138.31-.01,207.46,.02,4.97,0,10.8-1.25,14.69,.89,4.63,2.54,10.82,8.42,10.46,12.32-.46,5.04-5.87,11.09-10.75,13.82-4.28,2.39-10.79,.96-16.31,.96-89.07,.03-178.14,.02-267.21,.02-55.77,0-72.41-10.81-93.19-60.51,0-120.67,0-248.34,0-369.01Zm747,505.18h-52.57c23.22-24.72,40.28-49.88,47.18-80.67,1.67-7.46,3.59-14.86,5.39-22.29v-33.21c-1.04-3.67-2.48-7.28-3.07-11.02-13.77-87.54-100.97-149.93-188.19-134.55-72.68,12.81-125.72,67.64-136.19,145.06-7.87,58.17,20.71,129.21,89.89,163.49,22.27,11.03,45.46,18.66,71.49,16.15v-26.93c-38.88-2.61-72.16-16.47-98.21-45.54-26.56-29.65-38.02-64.56-34.21-103.81,5.66-58.42,53.16-114.85,126.62-121.25,57.18-4.98,117.6,36.33,136.04,95.4,15.83,50.74-2.53,115.43-40.42,135.63v-48.96h-26.08v102.39h102.34v-29.89ZM266.83,169.82v27.82h327.04v-27.82H266.83Zm327.09,87.37v-27.82H266.88v27.82h327.04Zm-327.04,92.03v27.76h147.78v-27.76h-147.78Zm326.82-.11h-147.05v27.98h147.05v-27.98Zm-326.82,59.89v27.77h147.78v-27.77h-147.78Zm0,59.79v27.76h147.78v-27.76h-147.78Zm.44,59.63v27.52h147.77v-27.52h-147.77Zm249.32-119.37h-70.49v26.87c30.22,9.09,47.67-12.04,70.49-26.87Z"/>
</svg>