<?xml version="1.0" encoding="UTF-8"?>
<svg id="Layer_1" data-name="Layer 1" xmlns="http://www.w3.org/2000/svg" viewBox="0 0 14 14">
  <defs>
    <style>
      .cls-1 {
        fill: #393939;
      }

      .cls-2 {
        fill: none;
      }
    </style>
  </defs>
  <rect class="cls-2" width="14" height="14"/>
  <path class="cls-1" d="M13.64,8c0-.81-.37-1.18-1.18-1.18-.18,0-.22-.04-.22-.22,.02-.71-.08-1.41-.31-2.08C10.77,1.07,6.55,.2,3.95,2.18c-1.4,1.06-1.96,2.54-1.98,4.25,0,.38,0,.38-.38,.38-.61,.01-1.01,.43-1.02,1.04,0,.4,0,.79,0,1.19,0,.43,.28,.8,.69,.93,.17,.05,.35,.05,.53,.04,.13,0,.18,.04,.17,.17,0,.3,0,.59,0,.89,0,.81,.51,1.31,1.31,1.31,.6,0,1.2,0,1.8,0,.12,0,.2,.02,.26,.14,.13,.24,.34,.35,.62,.35,.3,0,.61,0,.91,0,.46,0,.75-.28,.76-.71,0-.44-.28-.73-.75-.74-.28,0-.56,0-.84,0-.31,0-.56,.1-.71,.39-.04,.08-.09,.11-.18,.11-.65,0-1.31,0-1.96,0-.38,0-.69-.28-.72-.63-.02-.2,0-.4,0-.62,.07,.03,.13,.05,.19,.07,.69,.24,1.39-.25,1.39-.99,0-.89,0-1.77,0-2.66,0-.55-.39-.97-.92-1.03-.23-.02-.44,.03-.65,.12-.03-2.3,1.93-4.61,4.71-4.58,2.75,.04,4.62,2.35,4.59,4.57-.06,.02-.1-.02-.15-.04-.73-.26-1.42,.21-1.42,.99,0,.89,0,1.77,0,2.66,0,.46,.32,.86,.76,.98,.44,.12,.94-.05,1.14-.46,.12-.24,.27-.27,.5-.27,.64,0,1.05-.41,1.05-1.05,0-.32,0-.64,0-.96ZM1.81,9.54c-.08,0-.16,0-.23,0-.34-.01-.53-.21-.54-.54,0-.39,0-.78,0-1.16,0-.41,.48-.71,.86-.54,.08,.03,.06,.1,.06,.16,0,.32,0,.64,0,.95,0,.33,0,.65,0,.98,0,.12-.03,.17-.16,.16Zm4.17,2.34c.29,0,.59,0,.88,0,.17,0,.29,.08,.28,.27,0,.17-.12,.24-.28,.24-.15,0-.29,0-.44,0s-.29,0-.44,0c-.16,0-.27-.07-.28-.24,0-.19,.1-.27,.28-.27ZM2.99,6.52c.33,0,.56,.23,.56,.58,0,.88,0,1.75,0,2.63,0,.35-.22,.57-.57,.57-.35,0-.55-.2-.55-.57,0-.43,0-.87,0-1.3,0-.44,0-.88,0-1.33,0-.36,.21-.57,.56-.58Zm8.78,3.2c0,.36-.21,.58-.55,.58-.36,0-.57-.21-.57-.58,0-.43,0-.87,0-1.3s0-.87,0-1.3c0-.37,.22-.59,.57-.59,.33,0,.55,.23,.55,.59,0,.87,0,1.74,0,2.61Zm1.4-.78c0,.46-.41,.75-.86,.6-.1-.03-.07-.11-.07-.17,0-.33,0-.65,0-.98,0-.31,0-.62,0-.93,0-.15,.05-.18,.19-.18,.56,0,.75,.17,.75,.72,0,.31,0,.62,0,.93ZM7.95,4.42c-.91-.37-1.95-.1-2.57,.65-.63,.76-.7,1.87-.11,2.66,.22,.3,.3,.59,.27,.94,0,.02,0,.05,0,.07,0,.19,0,.39,0,.58,0,.11,.02,.22,.14,.27,.12,.05,.22,0,.31-.08,.17-.16,.34-.32,.5-.49,.18-.21,.38-.35,.68-.29,.12,.02,.25-.02,.37-.04,1-.2,1.71-.99,1.8-2.02,.09-.94-.49-1.87-1.39-2.24Zm.92,2.17c-.06,.8-.6,1.44-1.38,1.62-.21,.05-.42,.07-.62,.03-.16-.04-.27,0-.37,.12-.13,.15-.27,.3-.41,.44-.02-.01-.04-.03-.07-.04,0-.04,0-.07,0-.11,.03-.44-.04-.81-.35-1.19-.48-.58-.41-1.49,.06-2.08,.47-.59,1.33-.8,2.07-.51,.68,.27,1.13,.98,1.07,1.72Zm-2.84-.12c0-.09,.08-.18,.22-.18,.15,0,.25,.08,.25,.24,0,.16-.1,.25-.25,.24-.14,0-.22-.09-.22-.3Zm.84,.06c0-.15,.09-.24,.23-.24,.15,0,.25,.09,.25,.25,0,.16-.1,.25-.25,.24-.14,0-.22-.1-.22-.25Zm1.32,0c-.01,.17-.1,.26-.25,.25-.14,0-.22-.1-.23-.24,0-.15,.09-.24,.23-.24,.15,0,.24,.09,.25,.23Z"/>
</svg>