<?xml version="1.0" encoding="UTF-8"?>
<svg id="Layer_1" data-name="Layer 1" xmlns="http://www.w3.org/2000/svg" viewBox="0 0 14 14">
  <defs>
    <style>
      .cls-1 {
        fill: #393939;
      }

      .cls-2 {
        fill: none;
      }
    </style>
  </defs>
  <rect class="cls-2" width="14" height="14"/>
  <path class="cls-1" d="M6.41,12.75c-1.51,0-3.02,0-4.53,0-.13,0-.27,.03-.39,0-.52-.08-.85-.5-.85-1.06,0-2.57,0-5.14,0-7.71,0-.08,0-.16,.02-.24,.11-.51,.51-.84,1.03-.84,1.74,0,3.47,0,5.21,0,.15,0,.28,.02,.27,.2,0,.18-.14,.2-.28,.2-1.7,0-3.41,0-5.11,0-.52,0-.74,.23-.74,.75,0,.25,0,.5,0,.76,0,.14,.04,.17,.18,.17,1.63,0,3.26,0,4.89,0,.05,0,.09,0,.14,0,.15,0,.27,.05,.26,.22,0,.17-.12,.21-.28,.21-1.66,0-3.33,0-4.99,0-.16,0-.2,.04-.2,.2,0,2,0,4,0,6,0,.48,.24,.72,.72,.72,3.04,0,6.08,0,9.13,0,.48,0,.72-.24,.72-.72,0-1.23,0-2.46,0-3.7,0-.07,0-.13,0-.2,0-.1,.06-.16,.16-.17,.1,0,.17,.03,.2,.12,.02,.06,.03,.13,.03,.19,0,1.25,0,2.5,0,3.76,0,.54-.26,.92-.74,1.08-.15,.05-.3,.04-.45,.04-1.46,0-2.93,0-4.39,0Zm-4.19-2.74c-.14,0-.3,0-.31,.19,0,.2,.16,.21,.31,.21,.01,0,.03,0,.04,0,2.7,0,5.41,0,8.11,0,.25,0,.37-.07,.36-.21-.02-.22-.2-.19-.35-.19-1.35,0-2.7,0-4.05,0-1.37,0-2.74,0-4.11,0Zm1.75,1.31c-.6,0-1.21,0-1.81,0-.14,0-.26,.04-.25,.21,0,.15,.12,.19,.25,.19,.04,0,.08,0,.12,0,2.7,0,5.39,0,8.09,0,.16,0,.36,.02,.36-.2,0-.24-.21-.2-.36-.2-1.35,0-2.7,0-4.05,0-.78,0-1.56,0-2.34,0Zm6.5-2.23c.14,0,.26-.05,.26-.21,0-.15-.11-.2-.25-.2-1.01,0-2.03,0-3.04,0-.07,0-.13,0-.18,.06-.06,.06-.09,.13-.05,.22,.05,.11,.14,.13,.24,.13,.5,0,.99,0,1.49,0,.51,0,1.02,0,1.53,0ZM2.19,4.36c.08,0,.16,0,.24,0,.12-.01,.2-.08,.19-.21,0-.12-.08-.18-.2-.18-.16,0-.32,0-.47,0-.11,0-.16,.09-.16,.19,0,.1,.05,.16,.15,.18,.08,.01,.17,.02,.25,.03,0,0,0,0,0-.01Zm2.25-.02c.09-.04,.14-.11,.12-.2-.01-.09-.06-.15-.15-.16-.18-.02-.36-.03-.53,0-.1,.01-.15,.09-.15,.18,0,.09,.05,.16,.14,.19,.09,.03,.18,.01,.28,.02,.1,0,.2,.01,.29-.03Zm-1.01,0c.11-.02,.16-.09,.15-.2,0-.11-.06-.18-.17-.18-.16,0-.32,0-.47,0-.11,0-.17,.08-.17,.18,0,.12,.06,.19,.17,.2,.08,.01,.16,0,.26,.01,.06,0,.15,0,.23-.02Zm4.36,3.3c.05-.1,.01-.19-.08-.24-.15-.07-.31-.08-.45,.02-.08,.06-.1,.15-.04,.24,.07,.11,.18,.09,.23,.09,.17,0,.28,0,.34-.12Zm5.57-2.95c0,.34-.15,.5-.49,.54-.1,.01-.2,.03-.29,.04-.2,.03-.32,.3-.21,.47,.07,.11,.16,.21,.24,.32,.19,.28,.14,.58-.13,.78-.53,.39-.6,.39-1.11-.01-.22-.18-.46-.09-.53,.19-.03,.12-.04,.25-.06,.37-.05,.26-.22,.42-.48,.44-.14,.01-.28,0-.42,0-.25-.02-.42-.2-.46-.45-.02-.12-.04-.23-.06-.35-.05-.27-.29-.36-.51-.2-.1,.07-.19,.15-.29,.21-.23,.15-.47,.14-.67-.06-.18-.17-.4-.32-.39-.62-.01-.22,.14-.37,.26-.53,.21-.28,.12-.5-.22-.56-.09-.02-.18-.03-.27-.04-.3-.05-.47-.25-.48-.56,0-.11,0-.21,0-.32,.01-.28,.19-.47,.46-.51,.1-.01,.2-.04,.29-.05,.17,0,.25-.1,.31-.25,.04-.09,.04-.16-.02-.23-.09-.1-.16-.21-.24-.32-.13-.17-.14-.35-.05-.54,.1-.2,.26-.36,.44-.47,.18-.11,.37-.09,.54,.03,.08,.06,.15,.13,.24,.18,.09,.06,.15,.19,.31,.11,.16-.08,.29-.14,.28-.35,0-.11,.03-.23,.07-.35,.07-.23,.27-.38,.51-.39,.09,0,.19,0,.28,0,.32,0,.51,.16,.57,.47,.02,.11,.03,.22,.05,.33,.06,.29,.29,.37,.53,.19,.02-.01,.03-.02,.05-.03,.52-.38,.79-.34,1.18,.19,.13,.17,.13,.43,.01,.62-.06,.09-.12,.17-.19,.26-.18,.25-.1,.49,.21,.54,.86,.14,.73,.28,.74,.91Zm-.45-.11c.07-.23-.04-.31-.25-.3-.06,0-.12-.03-.17-.03-.26-.02-.42-.15-.54-.39-.15-.32-.13-.59,.11-.86,.06-.06,.1-.14,.16-.21,.03-.03,.05-.07,.03-.11-.08-.13-.17-.24-.3-.3-.09-.05-.15,.06-.22,.1-.16,.11-.29,.28-.5,.3-.41,.03-.74-.23-.82-.63-.02-.12-.05-.23-.06-.35-.01-.1-.06-.14-.16-.13-.07,0-.13,0-.2,0-.12,0-.17,.03-.17,.16,0,.12-.02,.24-.05,.35-.08,.48-.69,.73-1.08,.45-.11-.08-.22-.17-.33-.25-.04-.03-.07-.07-.14-.04-.25,.11-.33,.35-.16,.57,.11,.15,.27,.29,.26,.5-.02,.35-.15,.79-.74,.82-.34,.02-.33,.05-.33,.38,0,.13,.04,.2,.17,.21,.09,0,.17,.03,.25,.04,.4,.05,.73,.49,.64,.88-.04,.19-.18,.33-.3,.46-.13,.15-.12,.25,.02,.4,.15,.15,.26,.17,.41,.02,.07-.07,.15-.12,.24-.18,.13-.09,.28-.15,.43-.1,.37,.11,.67,.29,.67,.74,0,.06,.03,.12,.03,.18,0,.17,.09,.19,.24,.21,.21,.02,.32-.05,.33-.27,0-.07,.02-.14,.04-.21,.1-.56,.69-.79,1.14-.46,.06,.05,.13,.09,.19,.15,.14,.13,.24,.11,.38-.02,.16-.15,.19-.26,.02-.42-.08-.08-.14-.18-.2-.27-.09-.12-.11-.26-.09-.4,.06-.38,.26-.58,.64-.65,.07-.01,.13-.02,.2-.03,.18-.02,.29-.09,.22-.29Zm-6.77,3.78c0,.4-.26,.64-.66,.64-.94,0-1.88,0-2.82,0-.4,0-.66-.26-.66-.66,0-.55,0-1.1,0-1.65,0-.41,.27-.66,.68-.66,.46,0,.93,0,1.39,0s.93,0,1.39,0c.41,0,.67,.23,.68,.64,.01,.56,.01,1.13,0,1.69Zm-.42-.04c0-.54,0-1.07,0-1.61,0-.2-.08-.27-.27-.27-.46,0-.93,0-1.39,0s-.9,0-1.35,0c-.21,0-.28,.07-.28,.28,0,.53,0,1.06,0,1.59,0,.21,.06,.27,.27,.27,.92,0,1.84,0,2.76,0,.18,0,.27-.08,.26-.26Zm5.7-3.79c0,.75-.59,1.33-1.34,1.32-.74,0-1.32-.59-1.33-1.32,0-.73,.61-1.34,1.34-1.34,.74,0,1.33,.6,1.33,1.34Zm-.41,.02c0-.51-.4-.93-.9-.94-.51,0-.92,.4-.92,.91,0,.5,.4,.91,.9,.91,.5,0,.92-.4,.93-.89Z"/>
</svg>