<?xml version="1.0" encoding="UTF-8"?>
<svg id="Layer_1" data-name="Layer 1" xmlns="http://www.w3.org/2000/svg" viewBox="0 0 14 14">
  <defs>
    <style>
      .cls-1 {
        fill: #393939;
      }

      .cls-2 {
        fill: none;
      }
    </style>
  </defs>
  <rect class="cls-2" width="14" height="14"/>
  <path class="cls-1" d="M11.17,2.8c0-.32-.06-.38-.39-.38-.4,0-.79,0-1.19,0-.19,0-.42,.08-.55-.03-.12-.1-.03-.34-.04-.52-.01-.21-.11-.32-.33-.31-.17,0-.33-.01-.5,0-.19,.02-.27-.05-.31-.24-.1-.39-.44-.63-.85-.63-.41,0-.75,.23-.85,.62-.05,.2-.14,.27-.34,.24-.03,0-.06,0-.09,0-.63,0-.75-.12-.71,.69,0,.15-.04,.19-.18,.19-.52,0-1.04,0-1.57,0-.37,0-.43,.05-.43,.42,0,3.36,0,6.71,0,10.07,0,.37,.04,.41,.41,.41,2.5,0,5,0,7.5,0,.38,0,.41-.03,.41-.4,0-1.68,0-3.36,0-5.04,0-1.69,0-3.39,0-5.08Zm-5.47-.76c.19,0,.38,0,.57,0,.26,0,.32-.07,.33-.32,0-.03,0-.06,0-.09,.02-.27,.19-.46,.42-.45,.23,0,.38,.17,.41,.44,.04,.42,.05,.43,.46,.43,.2,0,.45-.09,.57,.04,.12,.12,.04,.37,.03,.57,0,.21,.1,.5-.04,.61-.13,.11-.41,.04-.62,.04-.28,0-.55,0-.83,0-.43,0-.87,0-1.3,0-.13,0-.18-.03-.18-.17,0-.31,0-.62,0-.92,0-.14,.05-.17,.18-.17Zm4.71,10.81c-2.27,0-4.54,0-6.81,0-.22,0-.26-.06-.26-.26,0-3.14,0-6.29,0-9.43,0-.2,.04-.25,.24-.24,.42,.02,.84,.01,1.26,0,.14,0,.19,.03,.19,.18-.03,.8,.07,.68,.69,.68,.97,0,1.95,0,2.92,0,.28,0,.36-.08,.37-.37q0-.49,.51-.49c.31,0,.62,.01,.93,0,.19-.01,.25,.04,.25,.24,0,1.58,0,3.15,0,4.73s0,3.13,0,4.7c0,.23-.07,.27-.28,.27Zm-2.22-3.33c-.47,0-.95,0-1.42,0-.17,0-.33-.04-.34-.24,0-.21,.15-.25,.33-.25,.96,0,1.91,0,2.87,0,.18,0,.33,.06,.33,.26,0,.2-.16,.24-.34,.24-.47,0-.95,0-1.42,0Zm.02-4.31c.47,0,.95,0,1.42,0,.18,0,.33,.06,.32,.25,0,.18-.15,.23-.32,.23-.96,0-1.93,0-2.89,0-.17,0-.31-.05-.31-.24,0-.19,.13-.25,.31-.24,.49,0,.98,0,1.47,0Zm-.02,2.39c-.47,0-.95,0-1.42,0-.17,0-.33-.03-.33-.24,0-.21,.15-.25,.33-.25,.95,0,1.9,0,2.84,0,.19,0,.35,.05,.35,.26,0,.2-.17,.24-.35,.23-.47,0-.95,0-1.42,0Zm-.03,3.83c-.47,0-.93,0-1.4,0-.18,0-.33-.04-.33-.25,0-.21,.15-.24,.33-.24,.95,0,1.9,0,2.84,0,.18,0,.34,.03,.35,.23,0,.21-.16,.26-.35,.26-.48,0-.96,0-1.45,0Zm-2.76-2.97c-.35,0-.69,0-1.04,0-.19,0-.29,.09-.29,.29,0,.35,0,.69,0,1.04,0,.2,.1,.3,.29,.3,.35,0,.71,0,1.07,0,.19,0,.29-.1,.28-.3,0-.17,0-.35,0-.52,0-.17,0-.33,0-.5,0-.21-.1-.31-.3-.31Zm-.52,1.13q-.33,0-.33-.34t.38-.29c.28,0,.28,0,.28,.36,0,.31,.05,.26-.33,.27Zm.81,1.05c0-.18-.09-.26-.27-.26-.18,0-.36,0-.54,0-.17,0-.35,0-.52,0-.2,0-.29,.09-.3,.28,0,.36,0,.71,0,1.07,0,.18,.1,.28,.28,.28,.36,0,.71,0,1.07,0,.18,0,.28-.09,.28-.28,0-.36,0-.73,0-1.09Zm-.84,.88c-.3,0-.28,0-.31-.4-.03-.34,.18-.24,.35-.26q.31,0,.31,.36,0,.3-.36,.3Zm.84-4.7c0-.16-.09-.26-.24-.27-.38-.01-.76-.01-1.14,0-.15,0-.25,.1-.25,.26,0,.37,0,.74,0,1.11,0,.16,.09,.25,.25,.25,.18,0,.36,0,.54,0,.19,0,.38,0,.57,0,.17,0,.26-.09,.26-.26,0-.36,0-.73,0-1.09Zm-.73,.87c-.41,0-.41,0-.41-.35,0-.35-.06-.3,.37-.3,.29,0,.26,0,.29,.39,.03,.33-.16,.26-.26,.26Zm.46-3.04c-.36,0-.73,0-1.09,0-.17,0-.27,.09-.27,.26,0,.36,0,.73,0,1.09,0,.18,.09,.27,.28,.27,.17,0,.35,0,.52,0,.18,0,.36,0,.54,0,.18,0,.28-.09,.28-.27,0-.36,0-.71,0-1.07,0-.18-.09-.28-.27-.28Zm-.5,1.14q-.38,0-.38-.36,0-.3,.38-.3c.28,0,.26,0,.29,.39,.03,.31-.14,.28-.29,.27Z"/>
</svg>