<?xml version="1.0" encoding="UTF-8"?>
<svg id="Layer_1" data-name="Layer 1" xmlns="http://www.w3.org/2000/svg" viewBox="0 0 14 14">
  <defs>
    <style>
      .cls-1 {
        fill: #393939;
      }

      .cls-2 {
        fill: none;
      }
    </style>
  </defs>
  <rect class="cls-2" width="14" height="14"/>
  <path class="cls-1" d="M10.83,4.03c-.31-.3-.7-.28-1.04,.06-.15,.15-.3,.29-.44,.44-.09,.1-.15,.12-.26,0-.21-.23-.44-.44-.65-.66-.18-.19-.39-.27-.65-.27-.52,0-1.03,0-1.55,0-.26,0-.48,.09-.66,.28-.21,.22-.44,.42-.64,.65-.11,.12-.17,.11-.27,0-.16-.17-.33-.34-.5-.5-.3-.28-.7-.28-.98,0-.28,.28-.3,.66-.01,.96,.37,.39,.76,.78,1.15,1.16,.23,.22,.52,.25,.8,.1,.17-.09,.31-.22,.45-.35,.04-.04,.07-.13,.16-.11,0,.48,0,.95,0,1.43,0,.25,.05,.31,.3,.31,.64,0,1.28,0,1.92,0,.26,0,.31-.05,.31-.32,0-.47,0-.95,0-1.48,.18,.19,.33,.34,.5,.46,.36,.24,.68,.21,.99-.09,.34-.34,.68-.68,1.02-1.02,.33-.34,.35-.74,.04-1.04Zm-4.04,.03c0-.18,.17-.03,.24-.1,.06,.07,.23-.08,.22,.12,0,.14-.04,.23-.23,.23-.21,0-.23-.12-.23-.25Zm.23,1.94c-.08,.03-.19-.18-.19-.34,.03-.3,.05-.59,.07-.89,0-.08,.03-.11,.11-.11,.09,0,.1,.05,.1,.12,.02,.29,.04,.58,.08,.86,.02,.17-.03,.29-.18,.35Zm3.52-1.21c-.35,.35-.7,.7-1.05,1.05-.17,.17-.3,.17-.5,.04-.27-.18-.46-.44-.68-.67-.08-.08-.16-.19-.3-.13-.13,.05-.11,.18-.11,.29,0,.26,0,.52,0,.79,0,.28,0,.55,0,.83,0,.12-.02,.17-.16,.17-.49,0-.98,0-1.47,0-.14,0-.17-.05-.17-.18,0-.53,0-1.06,0-1.59,0-.12,.01-.25-.13-.3-.14-.05-.21,.06-.29,.14-.19,.2-.36,.42-.58,.59-.26,.21-.4,.21-.64-.03-.33-.33-.66-.66-.99-1-.18-.18-.18-.36-.03-.5,.16-.15,.31-.14,.5,.04,.22,.21,.43,.43,.64,.64,.17,.17,.24,.17,.41,0,.28-.28,.56-.55,.83-.83,.07-.08,.16-.14,.26-.16,.16-.03,.25-.03,.33,.2,.17,.49,.05,.95,.03,1.43-.01,.33,.15,.67,.44,.83,.09,.05,.17,.03,.25-.04,.12-.12,.23-.24,.35-.35,.07-.07,.07-.16,.07-.25-.02-.23-.02-.47-.07-.7-.08-.36,.04-.69,.11-1.03,.02-.08,.06-.09,.13-.1,.17,0,.31,.03,.43,.16,.28,.29,.56,.57,.85,.85,.16,.16,.23,.16,.4,0,.22-.22,.44-.44,.66-.66,.18-.18,.35-.19,.5-.03,.14,.15,.14,.32-.03,.49Zm1.14,7.01c-.01-.61-.4-1.13-.99-1.28-.52-.13-1.05-.09-1.58-.03-.14,.02-.3,.05-.4,.15-.28,.28-.55,.23-.89,.12-.39-.13-.81-.03-1.21-.05-.27-.01-.52,.04-.76,.16-.1,.05-.15,.04-.23-.03-.19-.18-.42-.3-.69-.35-.41-.07-.83-.04-1.24-.03-.71,.03-1.37,.6-1.35,1.39,0,.33,0,.66,0,.99,0,.26,.04,.3,.3,.3,.71,0,1.42,0,2.13,0,.15,0,.22,.02,.21,.2-.01,.25,.06,.31,.3,.31,.58,0,1.16,0,1.74,0,.57,0,1.14,0,1.72,0,.28,0,.32-.03,.31-.31,0-.18,.06-.2,.21-.2,.72,0,1.45,0,2.17,0,.18,0,.26-.07,.26-.26,0-.37,0-.73,0-1.1Zm-6.45-.41c-.24,.34-.28,.73-.25,1.13,.02,.21-.05,.28-.27,.27-.29-.02-.58,0-.87,0-.33,0-.66,0-.99,0-.06,0-.16,.03-.15-.08,.01-.37-.05-.75,.04-1.11,.1-.39,.44-.7,.85-.74,.4-.05,.81-.04,1.22,0,.11,0,.2,.05,.29,.09,.31,.14,.32,.19,.13,.46Zm3.27,1.89c-.5,0-.99,0-1.49,0-.5,0-1.01,0-1.51,0-.13,0-.17-.04-.16-.16,0-.27,0-.54,0-.81,0-.64,.33-1.1,.96-1.2,.49-.08,1-.09,1.5,.02,.55,.13,.88,.56,.88,1.12,0,.28,0,.57,0,.85,0,.15-.05,.18-.19,.18Zm2.66-.5c-.33,0-.66,0-.99,0-.32,0-.63,0-.95,0-.15,0-.18-.05-.18-.19,0-.26,.03-.52-.05-.78-.06-.2-.14-.39-.29-.54-.11-.11-.06-.16,.04-.24,.2-.15,.43-.22,.67-.22,.32,0,.65-.02,.97,.01,.56,.06,.92,.46,.93,1.02,0,.25,0,.51,0,.76,0,.12-.03,.17-.16,.17ZM5.3,.66c0-.19-.08-.26-.26-.26-.41,0-.83,0-1.24,0-.41,0-.83,0-1.24,0-.13,0-.24,.03-.24,.18,0,.58,0,1.16,0,1.74,0,.14,.08,.19,.21,.19,.18,0,.36,.01,.54,0,.21-.02,.39,.04,.56,.15,.27,.17,.56,.33,.84,.49,.25,.15,.37,.08,.37-.22,0-.08,0-.15,0-.23-.02-.16,.04-.21,.19-.19,.19,.02,.27-.07,.27-.26,0-.53,0-1.06,0-1.59Zm-.37,.27c-.01,.36,0,.72,0,1.07,0,.09,0,.15-.12,.15-.32,0-.33,.03-.33,.35,0,.06,0,.12,0,.23-.29-.17-.56-.3-.8-.46-.24-.17-.5-.11-.76-.11-.19,0-.25-.05-.24-.24,.02-.32,0-.65,0-.97,0-.13,.02-.18,.17-.18,.64,0,1.28,0,1.92,0,.12,0,.17,.02,.16,.15Zm2.09-.31c-.76,0-1.37,.61-1.37,1.36,0,.77,.62,1.37,1.39,1.37,.74,0,1.33-.62,1.33-1.37,0-.76-.6-1.35-1.35-1.35Zm0,2.36c-.55,0-1.01-.45-1.01-.99,0-.54,.45-1,1-1,.56,0,1,.43,1,.99,0,.55-.44,1-.99,1Zm-.02,5.12c-.66,0-1.2,.55-1.19,1.2,0,.65,.58,1.22,1.22,1.2,.66-.01,1.18-.55,1.18-1.21,0-.68-.53-1.2-1.21-1.19Zm.02,2.03c-.45,0-.83-.37-.84-.82-.01-.45,.38-.85,.83-.85,.44,0,.83,.38,.84,.83,0,.45-.38,.85-.83,.85Zm2.83-2.06c-.61,0-1.11,.48-1.11,1.09,0,.61,.48,1.11,1.09,1.11,.61,0,1.11-.48,1.11-1.09,0-.62-.47-1.11-1.09-1.11Zm-.03,1.84c-.41-.01-.72-.33-.72-.75,0-.41,.33-.72,.75-.72,.41,0,.72,.33,.71,.75,0,.42-.33,.73-.74,.72Zm-5.62-1.84c-.61,0-1.1,.49-1.1,1.1,0,.62,.48,1.1,1.09,1.11,.61,0,1.11-.49,1.11-1.1,0-.6-.5-1.11-1.1-1.11Zm0,1.84c-.41,0-.76-.33-.75-.74,0-.4,.33-.73,.74-.73,.41,0,.73,.31,.74,.73,0,.41-.31,.74-.72,.74ZM3.28,1.45c0,.12-.07,.19-.18,.2-.11,0-.19-.07-.19-.18,0-.11,.07-.18,.18-.19,.11,0,.18,.06,.19,.17Zm.54,.2c-.11-.01-.19-.07-.19-.18,0-.11,.07-.18,.18-.19,.11,0,.18,.06,.18,.18,0,.12-.07,.17-.17,.19Zm.88-.21c0,.14-.06,.21-.17,.21-.11,0-.18-.06-.18-.18,0-.12,.06-.18,.17-.19,.11,0,.17,.07,.18,.15Z"/>
</svg>