<?xml version="1.0" encoding="UTF-8"?>
<svg id="Layer_1" data-name="Layer 1" xmlns="http://www.w3.org/2000/svg" viewBox="0 0 800 800">
  <defs>
    <style>
      .cls-1 {
        fill: #080808;
      }

      .cls-2 {
        fill: none;
      }
    </style>
  </defs>
  <rect class="cls-2" width="800" height="800"/>
  <path class="cls-1" d="M554.42,338.92c21.3,0,42.62,.56,63.89-.23,11.35-.42,8.5,6.8,8.54,12.66,.04,5.96,2.61,12.85-8.59,12.71-42.98-.54-85.97-.51-128.94-.01-11.01,.13-8.72-6.6-8.74-12.7-.02-6.14-2.18-12.99,8.8-12.64,21.66,.7,43.36,.21,65.04,.21Zm56.1,122.38c17.29,0,17,0,16.56-17.19-.15-5.94-1.93-7.87-7.86-7.84-43.36,.19-86.73,.37-130.08-.07-12.32-.13-7.86,8.15-8.53,14-.76,6.56-.53,11.61,8.97,11.31,21.28-.67,42.6-.21,63.9-.21,19.02,0,38.04,0,57.06,0Zm7.88-48.5c11.41,.39,8.31-7.03,8.45-12.82,.15-6.05,2.41-12.73-8.72-12.58-42.96,.58-85.94,.53-128.9,.03-11.16-.13-8.53,6.83-8.63,12.81-.1,6.2-2.03,12.93,8.91,12.56,21.65-.74,43.34-.22,65.02-.22,21.29,0,42.61-.52,63.88,.21Zm.04-97.82c10.38,.38,8.72-5.89,8.37-11.68-.34-5.51,3.62-13.17-8.06-13.04-42.97,.48-85.96,.52-128.94-.04-10.5-.14-9.45,5.65-9.28,12.22,.16,6.21-1.93,12.89,8.97,12.52,21.66-.74,43.35-.22,65.03-.22,21.3,0,42.62-.55,63.89,.23Zm-186.76,84.44c.56,8.28-.05,14.26,11.63,13.6,9.11-.52,14.2-1.26,12.85-12.22-.94-7.63,1.3-16.43-11.41-12.9-9.59-2.1-13.78,.89-13.06,11.52Zm12.23-60.97c-10.57-.09-12.23,3.51-12.32,12.99-.09,9.81,2.26,12.78,12.49,12.88,10.68,.11,13.53-3.63,11.56-13.16,2.29-9.93-1.55-12.62-11.74-12.71Zm1.03,97.55c-8.64,.61-14.46,.58-13.24,11.94,.84,7.81-.76,14.9,11.37,13.7,8.24-.81,15.75,.16,12.6-11.54,1.19-8.44,1.3-14.95-10.72-14.1Zm-.53-145.88c-8.05,.62-13.76,.33-12.68,11.2,.78,7.8-.84,14.9,11.3,13.75,8.27-.79,15.73,.12,12.56-11.7,1.87-9.16-.09-14.1-11.19-13.25Zm244.04,464.92c.09,9.19-2.58,11.38-11.47,11.35-89.95-.31-179.9-.19-269.84-.19-88.04,0-176.08,.04-264.13-.03-18.88-.01-16.09,1.85-16.1-16.67-.08-96.05-.17-192.09,.17-288.14,.03-9.67-1.76-13.69-12.4-12.76-12.1,1.06-24.38,.55-36.56,.1-21.67-.81-36.65-15.54-36.69-37.16-.23-113.2-.22-226.4-.02-339.59,.04-22.18,15.11-37.63,37.41-37.71,89.18-.35,178.37-.36,267.55,.02,21.95,.09,36.23,15.03,36.24,37.12,0,9.08,2.51,11.58,11.54,11.48,43.44-.45,86.9-.05,130.35-.35,7.07-.05,12.05,2.01,17.02,7.02,46.45,46.8,93.06,93.43,139.84,139.89,5.02,4.98,7.05,9.94,7.01,17.01-.27,55.65-.43,111.29,.1,166.94,.1,10.15-3.52,11.84-12.45,11.67-8.4-.16-12.91-.66-12.77-11.36,.63-49.16,.01-98.33,.5-147.5,.1-9.64-1.69-12.93-12.25-12.75-41.15,.72-82.32,.02-123.48,.51-9.09,.11-11.45-2.47-11.35-11.43,.47-41.54,.01-83.09,.39-124.63,.07-7.77-1.64-10.38-9.92-10.28-37.73,.46-75.47,.52-113.19-.02-9.34-.13-11.27,2.96-11.24,11.66,.29,95.28,.19,190.57,.17,285.85,0,31.01-12.68,43.74-43.63,43.76-58.69,.04-117.39,.2-176.08-.19-9.01-.06-12.34,1.59-12.29,11.58,.41,89.95,.36,179.9,.06,269.85-.03,8.71,1.81,11.59,11.17,11.58,163.51-.31,327.01-.31,490.52,0,9.38,.02,11.18-2.9,11.09-11.53-.42-41.54,.22-83.09-.47-124.63-.18-10.78,5.1-10.45,12.51-10.33,7.1,.11,12.89-1.02,12.74,10.09-.65,49.92-.53,99.86-.06,149.78ZM542,222.14c-.03,5.43,1.79,7.3,7.22,7.27,31.11-.17,62.23-.09,91.27-.09-32.78-32.78-66.02-66.01-98.39-98.38,0,28.91,.1,60.05-.09,91.19Zm-200.91,202.29c13.59,0,17.79-4.12,17.8-17.63,.06-110.09,.06-220.18,0-330.28,0-13.84-3.91-17.71-17.54-17.71-85.71-.04-171.42-.03-257.13,0-15.2,0-17.89,2.75-17.9,18.01-.03,54.86-.01,109.71-.01,164.57,0,54.86-.01,109.71,0,164.57,0,15.28,2.96,18.47,17.64,18.48,85.71,.05,171.42,.05,257.13,0Zm424.02,47.4c-5.16,6.54-11.46,12.19-17.38,18.12-60.84,60.88-121.8,121.65-182.47,182.7-9,9.06-18.65,16.4-30.54,21.32-15.81,6.54-31.26,13.98-46.74,21.28-5.81,2.74-11.12,2.92-15.76-1.69-4.71-4.68-4.22-10.23-1.63-15.86,9.23-20.02,18.48-40.02,27.63-60.08,1.8-3.95,4.8-6.8,7.76-9.76,67.04-67.05,134.09-134.08,201.09-201.17,8.1-8.11,17.19-13.79,29.12-13.74,14.95,.36,26.48,6.68,33.1,20.29,6.58,13.53,5.12,26.81-4.17,38.58Zm-79.78,29.29c-5.71-5.47-8.99-9.38-16.79-1.42-44.81,45.69-89.96,91.05-135.74,135.76-12.22,11.93-18.79,26.18-24.25,42.11,12.14-5.67,25.31-8.38,35.17-18.32,47.2-47.61,94.55-95.08,142.31-142.13,7.04-6.94,5.22-10.33-.7-16Zm31.99-18.1c-3.78-6.13-9.71-10.93-14.67-16.2-3.85,3.02-7.11,4.57-7.41,8.39-.18,2.21,13.67,15.94,15.56,15.29,3.57-1.21,8.42-4.4,6.52-7.47Zm31.05-32.94c-.2-7.99-4.38-11.85-11.13-12.87-4.95-.75-16.52,8.18-16.39,12.13,.07,2.17,14.18,16.38,15.72,15.45,5.84-3.53,11.21-7.7,11.8-14.7Zm-304.43,144.15c.2,68.43-54.28,123.53-121.89,123.3-67.12-.23-122.39-55.51-122.31-122.32,.08-67.23,54.78-121.6,122.45-121.73,67.17-.12,121.57,53.82,121.76,120.75Zm-24.42,2.33c1.12-52.87-42.09-97.84-94.94-98.8-54.34-.99-99.31,42.18-100.14,96.13-.82,53.49,42.49,97.79,96.31,98.51,54.18,.72,97.62-41.42,98.78-95.84Zm-142.37,37.55c5.38,9.37,13.8,15.31,23.84,18.47,5.62,1.77,9.69,3.11,9.04,10.36-.68,7.5,5.73,6.29,9.66,5.52,4.83-.95,13.32,4.61,13.93-4.19,.54-7.85,3.73-9.77,10.22-11.87,16.46-5.33,26.69-18.05,27.04-31.83,.36-14.23-8.84-26.15-25.23-33.21-7.53-3.24-15.46-3.8-23.43-4.46-6.46-.53-12.88-1.11-18.55-4.87-6.98-4.63-7.19-9.27-.4-14.16,9.51-6.85,29.73-7.86,37.7,.5,7.04,7.38,14.56,6.14,22.64,6.59,7.77,.43,8.11-3.16,5.89-9.08-4.81-12.83-14.53-20.12-27.02-24.25-4.87-1.61-9.61-2.82-8.43-9.7,.94-5.45-2.6-6.92-6.87-5.9-5.71,1.37-15.55-4.47-16.5,3.99-1.06,9.43-6.44,10.45-12.67,13.03-13.97,5.77-23.72,15.5-24.98,31.23-1.02,12.83,9.51,26.11,24.83,32.55,7.79,3.28,15.99,4.97,24.49,4.87,6.23-.08,12.16,1.09,17.53,4.3,7.48,4.48,7.7,10.3,.72,15.04-9.64,6.54-30.96,6.35-38.77-1.96-4.95-5.27-9.85-6.19-14.87-5.71-14.99,.01-16.68,2.8-9.82,14.76Zm58.91-477.71c-41.11-.33-82.22-.15-123.34-.15-40.73,0-81.47-.43-122.19,.29-10.98,.19-13.28-3.36-12.92-13.46,.74-20.91,.5-41.87,.07-62.8-.15-7.18,1.52-10,9.33-9.98,83.37,.24,166.73,.26,250.1-.03,7.96-.03,9.53,2.8,9.41,9.93-.37,22.07-.5,44.17,.05,66.23,.21,8.34-2.85,10.04-10.5,9.98Zm-13.76-50.53c.13-8.74-2.55-10.77-10.95-10.72-60.9,.34-121.8,.19-182.7,.19-26.15,0-25.81,0-25.99,26.23-.06,8.12,2.39,10.21,10.29,10.11,33.11-.42,66.23-.18,99.34-.18,28.17,0,56.33,0,84.5,0,25.55,0,25.14,0,25.51-25.63Zm8.36,295.07c-11.06,17.34-56.45,17.67-65.61-.68-7.84-15.71-7.95-33.73,.1-49.41,9.33-18.16,54.97-17.39,65.68-.04,5.01,8.12,2.6,17.05,3.35,25.41-.56,8.49,1.4,17.01-3.52,24.71Zm-20.4-25.16c0-9.15-2-12.86-11.87-12.31-8,.44-13.95,0-12.87,11.11,.78,8.05-.66,16.15,12.15,12.68,10.09,3.21,12.6-1.44,12.59-11.49Zm-102.17,36.78c-25.46-.05-32.13-7.63-32.05-36.56,0-4.57-.22-9.15,.08-13.69,.2-2.97,.57-6.19,1.87-8.8,8.15-16.42,21.22-16.24,51.2-13.62,13.15,1.15,19.88,11.99,20.1,27.57,.56,39.98-4.18,45.17-41.19,45.09Zm15.81-37.21c2.74-9.25-1.03-12.26-10.71-11.85-8.43,.35-14.16,.08-13.74,11.7,.35,9.71,2.27,13.12,12.63,12.9,9.56-.2,14.72-1.71,11.82-12.75Zm107.32-146.11c-10.39,18.18-56.87,19.12-66.21,.27-7.79-15.71-7.87-33.7,.15-49.43,9.06-17.79,55.21-17.04,65.7,0,5,8.12,2.56,17.06,3.32,25.43-.55,8.12,1.31,16.25-2.96,23.72Zm-21.01-23.87c-.61-7.9,0-13.97-11.11-12.9-7.91,.76-15.05-.66-13.57,11.44,.95,7.8-.98,16.22,11.44,12.85,9.4,1.97,14.08-.5,13.24-11.39Zm-149.16,22.27c-9.63,19.17-27.75,13.3-43.47,14.04-11.8,.56-21.49-4.27-25.25-15.62-4.62-13.91-4.74-28.69,.1-42.58,4.63-13.27,16.31-15.65,28.97-15.11,14.83,.63,31.54-3.74,39.89,14.26,3.27,7.04,1.99,14.96,2.15,22.54-.24,7.56,1.13,15.46-2.39,22.47Zm-22.2-22.32c2.42-10.11-1.53-12.97-11.76-12.99-10.08-.02-12.91,2.65-12.69,12.75,.2,9.16,2.15,12.68,11.92,12.25,8.7-.38,15.71-.3,12.53-12.01Zm108.07,20.63c-4.02,12.64-14.83,16.32-27.37,15.83-15.57-.61-32.99,3.92-41.81-15.08-3.35-7.22-1.02-15.05-1.92-22.06,.73-7.64-1.23-15.04,2.08-21.89,8.89-18.41,25.93-13.66,41.06-14.36,12.31-.57,23.56,2.15,27.82,14.99,4.61,13.89,4.57,28.67,.14,42.57Zm-23.04-21.7c3.61-10.53-2.18-11.61-11.58-11.85-9.94-.25-12.7,2.49-12.84,12.59-.15,10.55,3.51,12.17,12.98,12.44,10.21,.29,13.94-2.63,11.44-13.18Zm-65.09,198.16c-8.23,11.28-20.28,10.39-32.77,10.06-12.25,.72-26.06,1.02-32.14-12.69-7.14-16.1-7.72-33.83,.77-49.57,8.99-16.69,53.62-16.54,64.55-.8,6.36,9.15,6.07,44.13-.4,53.01Zm-19.28-26.4c-.42-8.46-1.02-13.34-11.42-12.52-8.01,.63-14.62-.43-13.65,11.43,.7,8.54,.28,15.62,11.9,12.5,9.48,2.02,13.7-.7,13.17-11.41Zm95.43-51.35c-7.04,3.6-14.98,1.72-22.52,2.17-7.54-.47-15.43,1.37-22.53-2.18-19.35-9.68-12.83-27.88-13.9-43.52-.82-11.89,3.55-21.66,15.12-25.34,13.92-4.42,28.72-4.51,42.6,.02,12,3.91,15.93,14.4,15.57,26.48-.48,15.58,4,33-14.33,42.37Zm-10.88-33.54c1.72-9.19-.11-14.05-11.25-13.27-8.74,.62-13.85,.86-13.35,12.03,.41,9.27,1.58,13.7,12.34,13.04,8.71-.53,15.44-.47,12.27-11.8Zm109.95,11.57c-.27,3.35-.67,6.9-2.01,9.93-6.15,13.97-26.82,19.16-52.43,13.47-11.8-2.62-17.97-12.76-18.89-27.69-2.58-41.4,11.45-46.12,40.31-45.18,26.6,.86,33.13,7.41,33.12,36.9-.01,4.19,.24,8.4-.09,12.56Zm-23.79-11.88c-.59-7.96-.11-13.85-11.14-12.85-8,.73-14.88-.46-13.56,11.47,.88,7.93-.74,16.11,11.5,12.85,9.47,1.94,14.01-.65,13.21-11.47Zm-148.38,19.53c-.94,9.06-8.95,14.9-18.63,15.97-5.26,.58-10.63,.1-15.95,.1,0,.08,0,.17,0,.25-4.57,0-9.14,.22-13.69-.08-2.99-.2-6.22-.56-8.84-1.85-16.34-8.04-16.9-22.71-13.98-49.96,1.53-14.3,11.94-21.1,27.8-21.34,.76-.01,1.53,.05,2.28,0,47.24-3.74,44.98,18.88,41.02,56.93Zm-22.31-19.76c-.36-8.57-1.02-13.38-11.54-12.66-8.37,.57-14.54,.04-13.59,11.76,.7,8.65,.35,15.72,12.06,12.63,9.92,2.27,13.5-1.26,13.07-11.73Z"/>
</svg>