<?xml version="1.0" encoding="UTF-8"?>
<svg id="Layer_1" data-name="Layer 1" xmlns="http://www.w3.org/2000/svg" viewBox="0 0 800 800">
  <defs>
    <style>
      .cls-1 {
        fill: #fff;
      }

      .cls-2 {
        fill: none;
      }
    </style>
  </defs>
  <rect class="cls-2" width="800" height="800"/>
  <path class="cls-1" d="M340.67,200.94c2.48-.34,5.22-1.03,7.96-1.04,35.02-.08,70.03,.07,105.05-.16,6.91-.05,10.39,1.45,10.32,9.39-.35,36.64,.37,73.3-.44,109.93-.68,30.86-25.78,55.41-57.26,57.8-31.13,2.36-62.74-18.52-64.87-48.64-2.98-42.01-.75-84.4-.75-127.27Z"/>
  <path class="cls-1" d="M622.2,199.93c28.58,0,56.56-.22,84.53,.31,3.02,.06,7.06,3.81,8.76,6.88,16.13,29.2,32.25,58.42,47.56,88.05,12.09,23.38,2.6,54.73-21.61,70.64-23.29,15.3-48.76,15.83-73.34,4.15-22.91-10.89-33.63-30.73-34.1-56.27-.19-10.55-1.38-21.1-2.64-31.59-3.06-25.44-6.45-50.83-9.66-76.25-.15-1.16,.18-2.38,.5-5.92Z"/>
  <path class="cls-1" d="M487.5,265.14c0-18.3,.31-36.62-.14-54.91-.2-8,2.59-10.61,10.54-10.52,30.1,.35,60.2-.09,90.29,.47,3.35,.06,9.15,4.28,9.53,7.14,4.71,35.85,10.21,71.71,12.28,107.75,1.86,32.21-22.42,57.67-54.16,61.5-30.31,3.66-60.49-16.2-66.29-46.98-3.49-18.52-1.56-38.06-2.04-57.14-.06-2.44,0-4.88,0-7.32Z"/>
  <path d="M179.38,199.99c-29.1,0-57.9-.22-86.69,.34-2.87,.06-6.44,4.4-8.32,7.57-5.82,9.8-10.9,20.03-16.42,30.01-3.58,6.47-8.29,12.09-16.5,8.03-8.5-4.2-8.11-11.27-3.97-18.67,.2-.36,.32-.76,.56-1.08,20.86-27.58,24.29-59,22.46-92.42-.87-15.93,.16-33.12,5.37-47.98,10.24-29.23,33.22-45.72,64.3-45.88,127.1-.67,254.2-.31,381.3-.35,7.6,0,14.46,1.66,14.91,10.65,.48,9.8-6.67,12.16-14.73,12.19-34.22,.11-68.44,.08-102.66,.08-89.21,0-178.43-.02-267.64,.01-39.45,.01-58.31,18.96-58.37,58.49-.02,13.44-.02,26.89,0,40.33q.02,15.62,16.24,15.64c35.03,.01,70.07,0,105.1,0,158.88,0,317.75,0,476.63,0q16.39,0,16.4-16.7c0-15.48,.25-30.97-.08-46.44-.64-30.28-20.58-50.55-50.8-51.21-22.39-.49-44.81-.1-67.21-.15-3.66,0-8.16,1.05-10.79-.67-4.19-2.74-9.88-7.44-9.81-11.22,.07-3.69,6.51-10.31,10.26-10.38,30.52-.58,61.26-1.97,91.55,.89,33.78,3.19,58.5,34.15,59.6,70.13,.64,20.76-.29,41.56,.46,62.31,.27,7.4,2.1,15.36,5.47,21.91,14.16,27.52,28.01,55.31,44.12,81.68,24.95,40.83,5.15,96.51-39.57,115.4-8.36,3.53-10.48,7.87-10.44,16.23,.31,56.22,.16,112.43,.15,168.65,0,3.66,1.13,8.15-.55,10.8-2.67,4.2-7.26,9.88-11.05,9.9-3.7,.01-8.25-5.79-10.84-10.02-1.65-2.69-.46-7.15-.46-10.81-.01-54.59-.29-109.18,.23-163.76,.1-10.69-2.82-13.91-13.65-13.88-26.45,.07-47.84-11.47-64.56-31.82-2.03-2.48-4.12-4.91-7.02-8.37-18.38,25.15-41.71,40.46-73.17,40.47-31.44,0-54.83-15.17-72.93-39.94-42.17,57.25-114.62,49.27-147.88,1.05-7.48,7.13-14.54,14.8-22.61,21.22-5.97,4.75-13,8.39-19.99,11.58-6.58,3-13.24,2.12-16.58-5.27-3.42-7.56,1.22-11.7,7.26-15.76,9.34-6.28,20.15-12.02,26.39-20.79,6.75-9.48,12.1-22.05,12.58-33.51,1.57-37.41,.66-74.93,.63-112.41,0-1.53-.68-3.07-1.42-6.24-13.67,0-27.41,0-41.14,0-19.96,0-39.93-.34-59.87,.33-3.55,.12-9.6,4.02-10.03,6.85-5.06,33.4-10.03,66.84-13.47,100.43-3.07,30.03,10.03,51.99,37.59,64.91,7.11,3.33,11.76,8.15,8.16,16.29-3.68,8.33-11.44,8.54-17.55,4.51-14.37-9.47-27.93-20.17-39.82-28.9-14.74,9.84-30.05,21.58-46.82,30.6-8.09,4.35-18.89,4.21-28.54,4.87-6.86,.46-10.33,1.77-10.32,9.64,.22,93.69-.14,187.39,.4,281.08,.15,26.57,19.57,45.79,46,48.3,4.85,.46,9.77,.32,14.65,.32,164.17,.01,328.34,.02,492.51,0,42.92,0,60.9-17.99,60.93-60.86,0-11.41,.04-22.81,.02-34.22-.01-7.42,2.51-13.12,10.81-13.41,9.03-.32,11.98,5.68,12,13.55,.04,16.7,.71,33.46-.4,50.09-2.6,38.8-32.72,67.55-71.67,67.62-171.91,.29-343.82,.3-515.73,0-41.35-.07-71.9-31.26-72.13-73.56-.48-86.36-.17-172.73-.18-259.09,0-2.44-.34-4.95,.05-7.32,2.77-16.62-2.75-25.95-19.07-34.42-39.11-20.29-53.48-70.96-32.45-105.97,2.61-4.34,9.04-8.52,13.95-8.84,7.9-.52,10.91,8.41,7.01,17.76-15.3,36.77-.57,71.5,35.4,83.42,39.94,13.24,80.14-6.6,89.71-44.28,.3-1.18,.58-2.38,.73-3.59,4.89-39.99,9.77-79.98,14.59-119.98,.18-1.51-.28-3.09-.58-5.99Zm161.3,.95c0,42.88-2.23,85.26,.75,127.27,2.14,30.13,33.74,51,64.87,48.64,31.48-2.39,56.58-26.94,57.26-57.8,.8-36.63,.09-73.29,.44-109.93,.08-7.93-3.4-9.43-10.32-9.39-35.01,.23-70.03,.08-105.05,.16-2.74,0-5.48,.7-7.96,1.04Zm281.53-1.02c-.32,3.54-.65,4.76-.5,5.92,3.21,25.42,6.59,50.82,9.66,76.25,1.26,10.49,2.45,21.05,2.64,31.59,.47,25.53,11.2,45.38,34.1,56.27,24.58,11.68,50.05,11.15,73.34-4.15,24.22-15.91,33.7-47.25,21.61-70.64-15.31-29.63-31.44-58.85-47.56-88.05-1.7-3.07-5.74-6.83-8.76-6.88-27.97-.53-55.95-.31-84.53-.31Zm-134.71,65.21c0,2.44-.05,4.88,0,7.32,.49,19.08-1.45,38.62,2.04,57.14,5.8,30.78,35.98,50.64,66.29,46.98,31.74-3.83,56.02-29.29,54.16-61.5-2.08-36.04-7.57-71.9-12.28-107.75-.38-2.86-6.18-7.08-9.53-7.14-30.09-.56-60.2-.12-90.29-.47-7.94-.09-10.74,2.52-10.54,10.52,.45,18.29,.14,36.61,.13,54.91Zm39.83,200.55c-78.17-.01-156.33,.1-234.5-.26-4.71-.02-11.75-2.4-13.73-5.92-14.17-25.2-31.96-34.28-60.79-28.22-4.03,.85-10.11,6.79-9.81,9.83,.43,4.27,5.24,9.37,9.5,11.6,3.9,2.04,9.54,.83,14.42,.9,17.17,.28,22.78,4.63,26.22,20.96,8.72,41.41,16.9,82.93,26.18,124.21,5.41,24.06,4.65,51.98,34.22,61.87-3.59,26.31,6.53,44.71,26.69,46.94,8.24,.91,18.05-1.32,25.36-5.37,14.38-7.96,16.25-22.99,15.12-38.37h47.14c3.04,32.12,14.71,45.94,37.06,44.62,20.81-1.23,32.77-17.49,33.41-42.83,4.29-5.18,10.28-11.27,9.76-16.74-.92-9.79-10.48-9.44-18.4-9.29-3.26,.06-6.51,0-9.77,0-48.85,0-97.71,.04-146.56-.03-19.47-.03-25.51-6.32-26.05-28.77h13.95c58.62,0,117.25,0,175.87,0,19.96,0,20.89-.7,24.84-20.24,6.79-33.5,13.42-67.03,20.21-100.52,4.2-20.75,1.26-24.37-20.36-24.37Zm-59.14,193.22c5.07,6.91,11.01,11.62,10.3,14.85-.97,4.38-7.05,7.63-10.94,11.37-3.53-3.73-9.54-7.26-9.86-11.24-.31-3.79,5.34-8.06,10.51-14.98Zm-115.7,5.18c3.36-.67,8.01,5.12,15.11,10.2-7.13,5.05-11.43,10.47-15.26,10.15-3.99-.33-7.52-6.2-11.25-9.65,3.75-3.81,7.06-9.84,11.4-10.71Zm-60.15-142.83c-2.58-10.09-4.49-20.36-7.04-32.44,18.89,0,36.19-.21,53.47,.29,1.92,.05,4.95,3.9,5.35,6.34,1.57,9.56,2.28,19.26,3.56,31.17-17.11,0-33.51,.17-49.9-.23-1.92-.05-4.9-3.01-5.44-5.12Zm18.69,66.12c-2.16-.08-5.45-3.45-6.07-5.84-2.49-9.71-4.14-19.64-6.55-31.72,16.72,0,31.28-.36,45.78,.32,2.69,.13,6.91,4.07,7.45,6.84,1.86,9.45,2.39,19.16,3.63,30.68-15.37,0-29.82,.25-44.24-.27Zm90.3,.39q-22,0-24.97-21.86c-.64-4.73-1.08-9.48-1.73-15.23h60.65q.13,37.09-33.95,37.09Zm38.22-65.91c-.43,2.1-5.33,4.62-8.23,4.69-17.44,.44-34.91,.5-52.35-.07-2.88-.09-7.61-3.5-8.11-6.04-1.93-9.83-2.5-19.93-3.67-30.9h76.82c-1.41,11.14-2.34,21.85-4.46,32.31Zm65.42,60.26c-.62,2.28-4.27,5.23-6.62,5.32-13.7,.5-27.43,.25-42.93,.25,1.59-12.41,2.77-23.16,4.55-33.81,.26-1.57,3.38-3.76,5.21-3.79,14.95-.31,29.9-.17,46.85-.17-2.51,11.89-4.34,22.17-7.06,32.21Zm12.24-60.95c-.69,2.41-5.04,5.24-7.8,5.34-14.56,.53-29.15,.25-46.37,.25,1.55-12.19,2.6-22.56,4.4-32.79,.35-1.98,3.56-4.89,5.51-4.94,16.5-.4,33.02-.23,51.42-.23-2.55,12.08-4.29,22.38-7.16,32.37ZM151.35,84.95c-18.7,.04-34.15,15.47-34.25,34.18-.09,18.56,15.43,34.45,33.92,34.73,18.84,.28,35.1-16.05,34.87-35.02-.23-18.69-15.77-33.93-34.54-33.88Zm10.24,33.74c-.84,4.35-6.78,7.71-10.53,11.5-3.45-3.68-9.29-7.13-9.67-11.1-.37-3.81,4.92-8.17,9.85-15.42,5.19,7.11,10.99,11.69,10.35,15.03Zm171.07-33.47c-19-.29-35.32,15.93-35.06,34.83,.26,18.53,16.09,34.12,34.59,34.08,18.87-.04,33.86-15.16,33.95-34.23,.09-19.15-14.63-34.4-33.49-34.68Zm.01,49.75c-5.31-6.69-11.43-11.17-10.84-14.45,.79-4.4,6.76-7.88,10.5-11.75,3.68,3.59,9.85,6.9,10.32,10.87,.44,3.78-5.07,8.26-9.98,15.33Z"/>
</svg>