<?xml version="1.0" encoding="UTF-8"?>
<svg id="Layer_1" data-name="Layer 1" xmlns="http://www.w3.org/2000/svg" viewBox="0 0 800 800">
  <defs>
    <style>
      .cls-1 {
        fill: #0c0c0c;
      }

      .cls-2 {
        fill: none;
      }
    </style>
  </defs>
  <rect class="cls-2" width="800" height="800"/>
  <path class="cls-1" d="M598.73,279.95c16.94,0,33.88,.07,50.81-.03,8.08-.05,15.44,1.66,15.38,11.29-.06,9.72-7.59,11.01-15.59,10.99-34.65-.09-69.29-.09-103.94-.01-8.08,.02-15.64-1.75-15.51-11.21,.13-9.3,7.68-11.12,15.72-11.07,17.71,.11,35.42,.03,53.12,.03Zm-54.01-54.26c-7.62-.04-14.83,1.66-14.84,10.55,0,9.19,6.88,11.47,15.28,11.42,35.03-.2,70.07-.22,105.1,.02,8.03,.05,14.33-2.13,14.66-10.74,.39-9.94-7.09-11.3-15.11-11.25-17.32,.1-34.65,.03-51.97,.03-17.71,0-35.42,.06-53.13-.03Zm69.25,130.62c7.34,.12,12.24-2.85,12.5-10.33,.26-7.53-4.34-10.86-11.82-10.83-24.27,.1-48.53,.11-72.8,0-7.48-.04-12.25,3.47-12.03,10.74,.21,7.15,5.06,10.57,12.5,10.44,11.94-.22,23.88-.06,35.82-.06,11.94,0,23.88-.15,35.82,.06Zm148.32,393.32c-.32,16.26-5.09,20.62-22.1,20.63-113.36,.02-226.72,0-340.08,0s-225.95,0-338.92,0c-19.47,0-23.5-4.07-23.6-23.79-.05-10.79-.2-21.59,.04-32.38,.35-15.46,4.95-19.93,20.17-20.01,14.27-.07,28.61-.92,42.77,.26,11.79,.98,13.66-3.45,13.56-14.11-.55-53.96-.27-107.93-.24-161.89,0-21.03,3.77-24.71,24.99-24.74q25.38-.04,25.38-25.86c0-42.02-.03-84.03,.01-126.05,.02-17.86,4.79-22.62,22.5-22.62,67.48-.02,134.95-.02,202.43,0,17.22,0,21.81,4.61,21.88,21.97,.08,21.2,0,42.4,.02,63.6,0,7.81-1.25,15.79-10.75,16.04-10.52,.28-11.47-8.29-11.49-16.41-.06-18.5-.29-37.01,.12-55.5,.15-6.71-2.1-8.56-8.59-8.36-14.25,.44-28.53,.35-42.79,.03-5.5-.13-7.49,1.55-7.29,7.16,.36,10.39,.27,20.81,.06,31.22-.27,13.24-6.01,18.93-19.08,19.03-15.42,.12-30.85,.09-46.27,0-14.24-.08-19.9-5.86-20.05-20.47-.1-9.64-.28-19.28,.08-28.91,.22-5.69-1.05-8.3-7.52-8.08-14.25,.47-28.53,.37-42.79,.04-5.71-.13-8.23,1.06-8.2,7.52,.24,46.25,.22,92.51,.02,138.76-.02,5.8,2.2,6.98,7.48,6.97,62.46-.15,124.93-.19,187.39,.05,6.52,.02,7.77-2.52,7.5-8.15-.35-7.31-.1-14.64-.07-21.97,.03-7.36,2.58-13.44,10.76-13.59,8.88-.16,11.48,6.21,11.48,14.04,0,6.55,.56,13.16-.13,19.64-.88,8.34,2.42,10.09,10.32,10.06,79.43-.29,158.86-.18,238.28-.17,23.36,0,26.49,3.15,26.49,26.73,0,54.35,.2,108.7-.2,163.05-.06,8.63,2.04,11.34,10.86,10.9,15.38-.77,30.84-.3,46.26-.19,13.96,.09,18.83,4.57,19.28,18.54,.4,12.32,.29,24.67,.05,37ZM267.23,356.65q0,19.05,20.53,19.05c3.06,0,6.19-.4,9.18,.07,10,1.6,12.04-3.01,11.83-12.2-.52-23.03-.1-23.04-23.75-23.04q-17.79,0-17.79,16.12Zm273.99,173.15c1,20.63,.28,20.67,20.55,20.67,3.85,0,7.74-.35,11.55,.08,7.14,.81,9.95-1.18,9.92-9.2-.08-25.72,.29-25.73-25.48-25.73-.77,0-1.57,.13-2.31-.02-11.9-2.37-14.78,2.74-14.23,14.21Zm-278,10.44c-.08,7.71,1.41,11.12,9.93,10.4,9.17-.78,18.5-.75,27.67-.01,8.78,.71,11.79-1.68,11.52-11.1-.66-23.89-.15-23.91-23.76-23.91-25.4,0-25.09,0-25.36,24.62Zm-127.39,143.23c-.07,8.61,2.04,10.9,10.76,10.81,46.62-.47,93.25-.22,139.88-.22s95.57,0,143.35-.01c4.76,0,9.84,1.63,9.8-6.81-.3-55.09-.22-110.18-.05-165.27,.02-5.13-1.65-6.48-6.6-6.44-30.83,.19-61.66,.21-92.48,0-5.56-.04-7.39,1.75-7.22,7.29,.33,11.16,.1,22.34-.01,33.51-.1,10.34-5.48,15.6-15.77,15.64-19.65,.08-39.31,.01-58.96,.06-10.93,.03-16.34-5.58-16.52-16.28-.17-10.4-.53-20.83,.05-31.19,.4-7.15-1.88-9.18-9.03-9.09-29.28,.38-58.58,.47-87.85-.04-7.91-.14-9.34,2.51-9.3,9.72,.29,52.78,.37,105.56-.06,158.33Zm604.83,51.05c-1.14-18.6-.3-18.65-19.05-18.65-28.54,0-57.09-.03-85.63,.02-8.06,.02-15.52-1.68-15.14-11.41,.34-8.68,7-10.9,14.95-10.49,6.54,.34,13.14-.32,19.66,.18,6.42,.49,8.6-1.45,8.57-8.22-.27-54.37-.21-108.74-.05-163.11,.02-5.28-1.1-7.5-6.93-7.35-14.65,.39-29.32,.46-43.96-.03-6.43-.21-7.75,2.16-7.51,7.95,.42,10.01,.37,20.05,.05,30.07-.41,12.83-5.88,18.32-18.43,18.47-16.58,.21-33.17,.23-49.76-.03-11.84-.19-16.77-5.18-17.03-16.91-.24-10.79-.34-21.6,.06-32.39,.2-5.53-1.48-7.29-7.09-7.15-14.26,.37-28.56,.61-42.8-.07-7.91-.37-9.43,2.45-9.38,9.74,.31,45.5,.07,91,.23,136.5,.04,10.34-4.39,23.97,1.75,30.18,6.71,6.78,20.48,1.99,31.14,2.11,28.15,.31,56.31,.17,84.47,.07,7.35-.02,12.31,3.33,12.67,10.51,.38,7.42-4.72,10.88-11.88,11.2-3.47,.15-6.94,.13-10.41,.13-163.16,0-326.32,0-489.47,0-20.21,0-19.68,.02-20.38,20.74-.32,9.47,2.09,12.2,11.88,12.17,109.54-.37,219.09-.23,328.63-.23s217.54-.19,326.31,.28c11.49,.05,15.24-2.36,14.51-14.31Zm-7.36-321.98c-.03,14.65-5.44,20.07-20.11,20.09-38.56,.06-77.12,.02-115.69,.02-38.18,0-76.35,.03-114.53-.01-16.18-.02-20.64-4.36-20.66-20.35-.05-60.52-.2-121.05,.2-181.57,.05-7.93-2.31-11.15-9.73-13.62-40.92-13.63-68.76-54.78-65.47-95.76,3.74-46.52,34.67-81.82,78.84-89.97,43.26-7.98,86.61,13.87,104.73,53.89,3.51,7.76,7.33,9.85,15.26,9.78,41.64-.36,83.29-.2,124.94-.15,17.1,.02,22.21,5.04,22.22,21.67,.02,48.19,0,96.38,0,144.56,0,2.31,.11,4.64-.06,6.94-.5,6.82-4.44,10.77-11.06,10.89-6.27,.11-9.87-3.78-10.43-10.07-.3-3.45-.33-6.93-.33-10.39-.02-43.95-.18-87.9,.15-131.84,.06-7.59-2.03-9.86-9.73-9.78-37.79,.38-75.58,.31-113.37,.04-6.4-.05-8.7,1.46-8.37,8.23,.63,13.22-2.22,26.05-7.58,38.11-2.85,6.42-1.18,7.84,5.34,7.77,23.52-.26,47.05,.04,70.57-.18,8.47-.08,16.48,.99,16.43,11.32-.05,10.6-8.65,11.01-16.77,11-28.54-.05-57.07,.11-85.61-.12-6.09-.05-10.84,1.25-15.56,5.51-15.62,14.09-34.1,22.4-55.22,23.26-7.61,.31-8.52,3.34-8.49,9.79,.21,56.67,.31,113.34-.09,170-.06,8.2,2.97,9.36,9.99,9.34,69.41-.2,138.82-.26,208.23,.06,8.36,.04,10.37-2.69,10.24-10.56-.43-25.44-.14-50.88-.17-76.33-.01-7.76,.67-15.85,10.63-15.86,10.36,0,11.4,7.92,11.34,16.4-.21,29.3-.04,58.6-.1,87.89Zm-249.7-211.61c40.93,.04,74.66-33.91,74.59-75.06-.07-41.15-34.06-75-74.97-74.66-40.53,.33-73.88,33.92-73.94,74.46-.06,41.2,33.55,75.23,74.32,75.26Zm-48.33-88.36c-1.84,4.61-.97,8.99,2.75,12.68,10.65,10.59,21.19,21.29,31.85,31.87,4.68,4.65,10.31,6.17,15.34,1.3,15.21-14.73,30.17-29.73,44.93-44.91,4.21-4.33,4.49-9.98,.14-14.55-4.66-4.91-10.34-5.07-15.38-.53-5.72,5.15-10.92,10.87-16.46,16.22-6.61,6.38-13.26,17.44-20.06,17.56-6.55,.12-13.34-11.08-19.98-17.34-3.87-3.65-7.08-8.26-13-8.79-4.73,.17-8.42,2.21-10.13,6.49Z"/>
</svg>