<?xml version="1.0" encoding="UTF-8"?>
<svg id="Layer_1" data-name="Layer 1" xmlns="http://www.w3.org/2000/svg" viewBox="0 0 800 800">
  <defs>
    <style>
      .cls-1 {
        fill: none;
      }

      .cls-2 {
        fill: #010101;
      }
    </style>
  </defs>
  <rect class="cls-1" width="800" height="800"/>
  <path class="cls-2" d="M721.27,753.04c-4.36-80.93-8.79-161.86-12.93-242.8-3.49-68.23-7.36-136.45-9.56-204.72-.92-28.58-6.43-54.59-24.43-77.34-3.8-4.8-7.11-10.21-9.52-15.83-6.35-14.8-16.11-22.98-33.13-19.87-5.45,1-7.67-.97-5.85-7.15,2.72-9.19,4.36-18.69,6.68-28.01,2.46-9.88-1.56-15.73-11.06-17.98-33.43-7.89-66.84-15.89-100.39-23.25-6.97-1.53-10.12-4.35-12.34-11.19-12.83-39.6-40.01-65.01-80.51-73.41-41.12-8.53-76.42,4.56-103.78,36.57-5.09,5.95-10.13,8.21-17.39,9.03-42.21,4.79-84.39,9.91-126.56,15.03-11.03,1.34-14.82,6.43-13.58,16.95,2.75,23.33,4.98,46.74,8.27,70,1.22,8.65,2.79,14.99-9.66,14.06-6.1-.46-8.75,5.66-11.52,10.25-10.97,18.15-21.7,36.44-32.78,54.52-2.94,4.79-4.21,9.6-4.38,15.21-.69,22.76-1.57,45.52-2.77,68.27-4.42,84.4-9.05,168.79-13.5,253.19-2.7,51.27-4.97,102.56-7.94,153.81-1.08,18.75,1.81,22.65,20.78,22.65,97.76,.01,195.51,0,293.27,0,98.53,0,197.06,.02,295.59-.02,15.02,0,19.71-4.72,18.99-17.97Zm-109.94-505.96c1.62-5.49,2.09-11.4,4.34-16.58,1.95-4.51-1.46-12.61,7.72-12.89,8.44-.26,16.41-1.2,20.86,9.27,3.96,9.31,10.18,17.66,16.47,28.21-16.12,0-29.58-.27-43.01,.12-6.58,.19-8.14-2.14-6.37-8.12Zm-129.59-114.45c37.9,8.8,75.75,17.84,113.7,26.41,7.3,1.65,10.36,3.93,8.26,12.15-6.46,25.24-12.39,50.62-18.01,76.07-1.21,5.48-2.88,7.99-8.82,7.91-19.66-.27-39.34-.26-59,0-5.18,.07-7.63-1.69-8.81-6.68-6.14-26.1-12.67-52.12-18.72-78.24-4.9-21.17-7.97-23.15-29.39-17.33-2.16,.59-4.35,1.01-7.59,1.76q3.89-27.69,28.38-22.05Zm-5.49,122.53c-28.57-.22-57.13-.1-85.7-.1-28.18,0-56.36-.23-84.54,.16-7,.1-9.81-1.88-11.68-8.91-6.67-25.14-7.1-25.32,17.99-31.47,48.69-11.93,97.48-23.44,146.16-35.37,5.62-1.38,8.12-.82,9.51,5.43,4.68,20.96,9.85,41.82,15.15,62.64,1.71,6.73-1.07,7.66-6.9,7.61Zm4.66-149.64c-8.66-.09-16.55-3.26-24.73-4.87-12.51-2.47-16.89,.27-19.91,12.64-3.09,12.66-5.63,25.46-8.94,38.07-1.06,4.05-.46,9.6-6.39,11.12-5.14,1.32-8.98,2.74-9.79-5.66-2.38-24.86-5.92-49.61-9.02-74.4-1.56-12.5-4.64-14.97-18.31-14.8-5.7,.41-11.9,4.02-16.53-2.55,43.54-23.75,101.99-3.16,113.62,40.46Zm-279.47,9.48c56.74-6.44,113.42-13.38,170.1-20.32,4.67-.57,6.93-.12,7.47,5.42,2.01,20.67,4.21,41.34,7.15,61.89,1,7.03-1.15,9.57-7.57,11.06-33.8,7.85-67.51,16.11-101.31,23.95-15.64,3.63-18.55,7.69-14.89,23.32,2.18,9.33,4.45,18.65,6.86,27.93,1.31,5.03-.15,7.07-5.54,6.86-8.09-.3-16.21-.08-24.31-.08-5.02,0-10.04,0-15.05,0-15.66,0-15.17-.06-16.87-15.32-4.26-38.22-8.9-76.4-13.69-114.56-.83-6.58,.12-9.31,7.67-10.17Zm-28.58,106.36c.91-1.48,2.74-3.32,4.2-3.37,3.22-.12,2.77,3.06,3.09,5.15,1.3,8.36,2.34,16.77,3.7,25.12,.8,4.94-.73,7.11-6.01,6.91-7.62-.29-15.27-.07-25.22-.07,7.61-12.74,13.83-23.3,20.25-33.74ZM692.53,743.46c-5.47,7.34-21.69,2.13-33.15,2.16-84.23,.2-168.46,.11-252.69,.11-91.96,0-183.91-.15-275.87,.23-9.5,.04-12.54-1.97-11.98-11.89,4.07-71.28,7.66-142.59,11.29-213.89,1.85-36.24,3.35-72.49,5.23-108.72,2.11-40.85,4.67-81.68,6.51-122.55,.33-7.34,3.55-7.77,9.29-7.75,38.25,.17,76.5,.09,114.75,.09,130.59,0,261.19,.08,391.78-.17,9.47-.02,13.84,1.01,14.28,12.51,2.14,56.3,5.41,112.57,8.43,168.84,4.41,82.08,9.04,164.15,13.36,246.23,.63,11.89,4.5,27.15-1.22,34.82Zm-161.46-422.87c-13.21-17.37-38-20.08-54.45-5.95-16.86,14.49-19.58,41.86-1.79,54.65,13.89,9.99,13.63,21.1,13.36,34.36-.16,8.1,.08,16.21-.14,24.31-1.06,39.97-32.64,74.34-71.66,78.08-42.67,4.09-79.7-22.01-88.92-62.41-3.93-17.2-1.21-34.6-2.31-51.86-.5-7.85,1.22-12.91,8.74-17.72,18.64-11.94,21.57-37.85,7.54-54.71-14.29-17.18-39.46-18.46-55.45-2.82-15.95,15.61-16.23,41.95,1.98,54.84,11.07,7.83,13.11,16.21,12.07,27.71-.35,3.83-.05,7.71-.05,11.57,0,5.02-.01,10.04,0,15.05,.19,54.62,39.26,98.01,95.31,105.85,49.88,6.98,99.85-27.34,114.32-77.68,5.91-20.58,3.18-41.36,3.57-62.06,.15-7.93,1.59-12.85,9.06-17.51,18.43-11.51,21.92-36.47,8.81-53.71Zm-211.62,25.29c-6.35-4.3-12.27-2.11-18.6,3.08-1.89-10.44,1.22-16.28,10.02-17.58,7.67-1.13,12.37,3.28,13.76,10.57,.63,3.3,.77,7.96-5.18,3.93Zm193.27,2.5c-5.64-3.55-11.04-6.15-17.43-3.95-1.88,.65-3.34,4.06-5.81,1.49-2.35-2.44-.58-5.1,.43-7.46,2.69-6.24,7.85-8.44,14.08-6.82,8.17,2.11,10.47,8,8.73,16.75Z"/>
</svg>