<?xml version="1.0" encoding="UTF-8"?>
<svg id="Layer_1" data-name="Layer 1" xmlns="http://www.w3.org/2000/svg" viewBox="0 0 800 800">
  <defs>
    <style>
      .cls-1 {
        fill: none;
      }

      .cls-2 {
        fill: #010101;
      }
    </style>
  </defs>
  <rect class="cls-1" width="800" height="800"/>
  <path class="cls-2" d="M778.93,338.52c-18.66-87.26-83.83-141.14-172.93-146.26-7.7-.44-8.88-3.21-8.69-9.78,.4-13.61,.13-27.24,.12-40.86-.03-26.11-7.67-34.33-33.55-35.09-5.86-.17-7.95-1.45-8.2-7.75-.94-23.65-8.49-31.04-32.08-31.32-7.12-.08-9.19-2.08-9.27-9.25-.28-24.17-8.56-32.06-32.54-32.07-138.21-.03-276.43-.03-414.64,0-23.95,0-32.26,8.39-32.26,32.3-.01,100.41,0,200.81,0,301.22,0,100.79-.01,201.59,0,302.38,0,22.49,8.29,31.15,30.83,31.33,7.07,.06,10.3,1.19,10.34,9.52,.11,23.39,7.93,31.11,31.74,31.49,8.09,.13,9.41,3.02,9.48,10.22,.17,19.84,9.75,29.1,29.7,29.12,110.57,.09,221.14,0,331.71,.13,7.08,0,12.61-1.9,17.7-7,31.03-31.16,62.22-62.17,93.53-93.04,5.39-5.31,7.7-11.08,7.63-18.64-.27-29.19,.44-58.39-.39-87.55-.32-11.06,2.41-14.26,13.83-14.53,27.2-.64,52.87-8.35,76.88-21.37,6.5-3.53,9.4-8.54,6.03-15.32-3.39-6.82-9.36-7.52-15.93-4.48-2.47,1.14-4.79,2.62-7.27,3.71-58.37,25.73-113.52,20.14-165.59-16.8-6.27-4.45-6.81-7.42-.96-13.17,31.66-31.08,62.99-62.51,94.16-94.08,4.76-4.82,9.17-5.93,15.52-4.22,43.18,11.64,86.38,23.25,129.72,34.31,8.13,2.08,7.4,5.57,4.96,11.45-6.48,15.58-15.22,29.73-26.03,42.64-5.03,6-5.85,12.08,.74,17.22,6.14,4.79,11.63,2.47,16.19-3.06,36.66-44.34,51.53-95.33,39.54-151.4ZM117.32,130.23c-.46,4.24-.23,8.55-.23,12.83,0,185.67-.02,371.33,.04,557,0,7.18,1.36,13.67-10.16,13.04-10.13-.55-8.72-6.38-8.72-12.54,0-86.41,0-172.82,0-259.23,0-13.23,0-26.47,0-39.7,0-99.65,.15-199.29-.23-298.94-.04-10.11,2.2-13.56,12.8-13.11,20.6,.88,41.27,.15,61.9,.31,8.27,.06,15.67-1.79,15.69-11.37,.02-9.61-7.3-11.38-15.63-11.3-22.97,.22-45.95-.08-68.92,.13-17.34,.15-27.54,10.08-27.93,27.52-.4,18.29-.11,36.59-.11,54.88,0,169.71-.08,339.42,.2,509.13,.02,9.63-2.45,13.31-12.28,12.23-5.5-.61-7.71-2.61-7.3-7.96,.18-2.32,.02-4.67,.02-7,0-197.73,.1-395.47-.26-593.2-.02-11.72,2.81-15.07,14.83-15.03,136.29,.44,272.59,.26,408.88,.38,4.81,0,11.63-2.78,12.64,6.03,.96,8.38,.16,13.34-11.07,13.26-77.49-.53-154.98-.28-232.48-.27-3.5,0-7.04-.22-10.5,.19-6.34,.76-9.73,4.63-9.76,10.99-.03,6.42,3.61,10.15,9.76,11.09,3.43,.53,6.99,.25,10.49,.26,90.73,0,181.47-.03,272.2,.11,4.53,0,10.55-2.55,12.68,4.72,2.49,8.51-.45,11.72-11.16,11.73-123.05,.02-246.11,.01-369.16,.02-3.89,0-7.8-.17-11.68,.13-13.67,1.05-23.04,10.05-24.54,23.7ZM495.81,728.11c0-13.46,.13-30.78-.07-48.1-.07-6.16,2.69-8.06,8.46-7.99,17.01,.2,34.02,.07,49.79,.07-19.56,18.84-39.52,38.06-58.18,56.03Zm69.96-178.24c7.61,1.47,9.16,4.46,9.07,11.44-.36,26.45-.47,52.92,.05,79.37,.16,7.96-2.49,9.87-9.94,9.72-21.01-.42-42.04-.27-63.06-.11-18.3,.14-27.86,9.72-28.02,28.15-.18,21.4-.32,42.81,.1,64.2,.14,7.23-2.26,9.23-9.32,9.22-105.1-.19-210.2-.26-315.3,.07-10.11,.03-10.14-5.08-10.13-12.35,.1-100,.07-199.99,.07-299.99,0-98.83,.17-197.66-.24-296.49-.05-11.01,2.57-14.42,14.05-14.39,135.85,.4,271.7,.39,407.55,.01,11.01-.03,15.12,2.4,14.29,13.96-1.03,14.32-.51,28.78-.13,43.17,.16,6.12-1.52,8.56-7.98,9.87-96.27,19.54-159.14,109.63-143.88,205.71,11.75,74.02,69.42,134.26,142.82,148.43Zm28.64-187.86c-1.65,3.68-4.12,6.49-6.88,9.25-33.02,32.99-66.15,65.87-98.88,99.15-5.68,5.77-8.2,5.14-12.99-.95-70.77-89.97-20.51-227.84,91.62-251.22,11.91-2.48,23.8-3.66,41.62-3.71,9.97-.21,25.17,2.67,40.2,7.08,6.14,1.8,6.73,4.33,4.19,9.9-19.8,43.42-39.35,86.96-58.87,130.5Zm135.9,33.45c-34.88-9.54-69.85-18.74-104.88-27.71-6.57-1.68-7.91-3.57-4.96-10.03,17.78-38.83,35.29-77.79,52.51-116.87,3.31-7.51,6.73-6.38,12.21-2.81,48.73,31.69,73.09,76.87,75.02,126.87,.12,39.04,.19,38.79-29.91,30.55ZM319.04,228.73c-32.63,0-65.27,0-97.9,0-3.11,0-6.22,0-9.31-.21-6.53-.46-10.21-4.68-10.23-10.59-.02-6.34,3.37-11.1,10.74-11.14,8.16-.04,16.32-.07,24.47-.07,59.44,0,118.88,0,178.33,0,2.72,0,5.44,.07,8.16,0,7.88-.23,14.35,1.74,14.19,11.17-.16,9.52-7.14,10.86-14.71,10.86-34.58,.01-69.15,0-103.73,0Zm-25.18,80.16c-25.63,0-51.26-.16-76.88,.09-8.4,.08-15.51-1.75-15.37-11.34,.13-8.8,6.97-10.89,14.87-10.87,52.03,.1,104.06,.05,156.09,.05,7.96,0,15.43,1.14,15.19,11.48-.25,10.52-8.1,10.62-15.85,10.61-26.02-.05-52.03-.02-78.05-.02Zm-10.83,58.09c22.15,0,44.29,.06,66.44-.03,8.27-.04,15.21,1.73,14.93,11.8-.27,9.4-7.15,10.81-14.79,10.8-44.29-.02-88.59-.08-132.88,.06-8.51,.03-15.38-2.45-15.07-11.85,.29-8.58,6.85-10.95,14.92-10.86,22.14,.26,44.29,.09,66.44,.09Zm130.72,290.7c-8.27,.05-6.98-5.23-6.98-10.19,0-28.78,0-57.57,0-86.35,0-20.57-1.3-21.79-21.68-21.93-10.43-.07-23.9,3.32-30.45-1.86-7.03-5.57-1.52-19.65-2.38-29.97-.06-.77-.03-1.56,0-2.33,.26-10.04-4.31-15.22-14.68-15.13-15.95,.14-31.91,.18-47.86-.02-10.3-.13-14.84,4.48-14.66,14.86,.32,17.89-.22,35.79,.23,53.67,.19,7.26-2.28,9.59-9.35,9.2-8.92-.5-17.89-.14-26.84-.11-16.49,.05-19.14,2.62-19.17,18.74-.04,20.62,.06,41.23-.08,61.85-.03,3.84,1.91,9.22-5.22,9.34-8.03,.13-12.6,3.96-11.82,12.3,.84,8.91,7.52,9.64,14.57,9.63,31.91-.03,63.82-.02,95.73-.02,32.69,0,65.38-.05,98.07,.03,7.07,.02,12.81-2.46,13.71-9.75,.91-7.38-3.86-11.98-11.14-11.93Zm-146.53-.09c-24.4,1.2-24.39,1.41-24.39-22.93v-12.83c0-5.05,0-10.11,0-15.16,0-17.35,0-17.41,16.84-17.33,17.61,.08,15.36-1.6,15.44,15.69,.07,14.77-.2,29.55,.12,44.32,.13,6.04-1.94,7.95-8.01,8.25Zm53.36,.04c-23.43,.24-23.42,.56-23.42-22.96,0-37.72,.22-75.43-.18-113.15-.08-7.67,2.04-9.96,9.74-9.98,22.79-.05,22.79-.38,22.79,22.37,0,17.11,0,34.22,0,51.32,0,21-.26,42,.14,62.99,.13,6.99-1.75,9.33-9.07,9.4Zm56.53-.04c-24.77,1.2-24.76,1.42-24.76-22.65,0-20.99,.34-41.98-.17-62.95-.19-7.87,1.61-10.71,10.11-10.58,22.67,.35,22.68-.08,22.68,22.64,0,8.55,0,17.1,0,25.65,0,13.21-.23,26.43,.1,39.64,.15,6-1.85,7.96-7.96,8.26Z"/>
</svg>