<?xml version="1.0" encoding="UTF-8"?>
<svg id="Layer_1" data-name="Layer 1" xmlns="http://www.w3.org/2000/svg" viewBox="0 0 14 14">
  <defs>
    <style>
      .cls-1 {
        fill: #393939;
      }

      .cls-2 {
        fill: none;
      }
    </style>
  </defs>
  <rect class="cls-2" width="14" height="14"/>
  <path class="cls-1" d="M13.08,5.95c-.07-.11-.16-.2-.29-.13-.15,.08-.11,.2-.04,.33,.26,.45,.34,.92,.2,1.43-.11,.38-.3,.69-.62,.94-.21-.51-.58-.79-1.12-.8-.5,0-.87,.23-1.09,.68-.06,.13-.1,.1-.18,.02-.83-.77-.75-2.14,.19-2.8,.65-.45,1.33-.46,2.01-.07,.12,.07,.23,.1,.31-.03,.08-.13,0-.22-.11-.29-.43-.25-.88-.37-1.38-.31-.12,.02-.18-.03-.24-.12-.37-.6-.85-1.09-1.46-1.46-.1-.06-.13-.12-.12-.24,.06-.49-.06-.95-.31-1.38-.07-.12-.17-.18-.3-.1-.12,.07-.1,.19-.03,.3,.12,.19,.2,.4,.25,.63,.13,.66-.16,1.43-.66,1.74-.21-.49-.57-.78-1.11-.78-.55,0-.93,.28-1.16,.8-.65-.54-.86-1.39-.54-2.13,.32-.75,1.1-1.19,1.91-1.09,.27,.03,.52,.13,.75,.27,.08,.05,.16,.07,.24,0,.06-.04,.08-.1,.07-.18-.01-.09-.08-.14-.15-.18-.77-.44-1.55-.45-2.29,.01-.76,.47-1.11,1.17-1.03,2.07,.01,.13-.01,.2-.13,.27-.61,.36-1.09,.86-1.46,1.46-.06,.1-.12,.13-.22,.11-.23-.05-.46-.02-.68,.03-1.29,.29-2.03,1.56-1.65,2.82,.3,.99,1.3,1.64,2.34,1.51,.12-.01,.16,.03,.22,.12,.37,.6,.85,1.1,1.46,1.46,.11,.07,.14,.14,.12,.26-.04,.26,0,.52,.06,.77,.3,1.13,1.42,1.81,2.58,1.59,1.08-.21,1.86-1.28,1.73-2.4-.01-.09,0-.15,.08-.2,.63-.37,1.14-.88,1.52-1.51,.05-.08,.11-.11,.2-.09,.47,.07,.92-.03,1.33-.26,1.08-.61,1.45-2.02,.8-3.06Zm-6.86-1.6c.13-.29,.44-.5,.76-.49,.34,.01,.59,.18,.74,.49,.06,.12,.02,.17-.1,.22-.21,.07-.42,.12-.64,.12-.23,0-.45-.04-.66-.12-.12-.04-.15-.1-.1-.22Zm-2.8,4.44c-.22,.08-.45,.13-.75,.13-.17,0-.39-.05-.61-.13-.1-.04-.11-.08-.08-.18,.11-.3,.43-.51,.76-.51,.34,0,.66,.22,.76,.52,.03,.1,0,.14-.09,.18Zm4.23,4.23c-.22,.09-.45,.12-.68,.14-.23-.02-.46-.06-.68-.14-.1-.04-.11-.09-.08-.18,.1-.29,.44-.52,.77-.51,.33,0,.65,.22,.76,.52,.03,.1,.01,.14-.08,.18Zm2.71-3.72c-.32,.48-.72,.88-1.2,1.2-.1,.07-.14,.05-.18-.06-.03-.09-.08-.17-.13-.25-.07-.12-.15-.22-.3-.12-.13,.09-.09,.19-.03,.31,.25,.43,.33,.9,.21,1.39-.1,.39-.3,.71-.62,.98-.25-.52-.62-.82-1.2-.79-.47,.02-.8,.26-1.02,.67-.06,.12-.1,.11-.18,.03-.51-.51-.69-1.13-.5-1.82,.2-.69,.67-1.13,1.37-1.28,.47-.11,.91-.02,1.33,.23,.12,.07,.23,.1,.31-.03,.09-.15-.01-.23-.13-.3-1.07-.67-2.55-.24-3.11,.91-.03,.07-.06,.13-.1,.21-.55-.33-.99-.76-1.33-1.29-.06-.09-.03-.12,.05-.15,.69-.31,1.12-.83,1.28-1.57,.12-.57,.02-1.11-.28-1.62-.07-.11-.16-.17-.28-.11-.13,.08-.11,.19-.04,.31,.44,.79,.33,1.67-.28,2.26-.04,.04-.08,.07-.13,.11-.23-.51-.6-.8-1.15-.79-.53,0-.9,.29-1.12,.8-.38-.3-.6-.68-.66-1.15-.1-.74,.16-1.35,.78-1.77,.62-.42,1.27-.43,1.93-.08,.04,.02,.07,.04,.1,.06,.1,.05,.18,.04,.25-.05,.07-.1,.05-.2-.05-.26-.14-.09-.29-.16-.44-.25,.32-.54,.75-.98,1.28-1.32,.12-.08,.13,0,.16,.07,.31,.65,.8,1.08,1.5,1.24,1.02,.25,2.05-.25,2.49-1.2,.08-.17,.13-.16,.26-.07,.45,.31,.83,.69,1.13,1.15,.08,.12,.05,.15-.06,.21-.83,.41-1.29,1.07-1.28,2.01,0,.93,.46,1.59,1.29,2,.11,.05,.14,.08,.06,.19Zm1.5-.5c-.22,.08-.44,.12-.66,.12-.24,0-.46-.04-.68-.13-.1-.04-.11-.09-.08-.18,.11-.29,.43-.5,.75-.51,.34,0,.63,.19,.76,.49,.04,.11,.04,.16-.09,.21Zm-.67-2.9c-.44,0-.78,.36-.78,.8,0,.44,.35,.79,.79,.79,.43,0,.79-.35,.79-.79,0-.44-.36-.81-.8-.8Zm0,1.2c-.23,0-.41-.18-.41-.4,0-.23,.18-.42,.42-.42,.22,0,.41,.18,.42,.4,0,.22-.19,.42-.42,.42ZM6.98,1.67c-.44,0-.81,.36-.8,.8,0,.44,.35,.78,.79,.78,.44,0,.79-.34,.79-.78,0-.43-.35-.79-.78-.8Zm0,1.21c-.23,0-.42-.18-.42-.41,0-.23,.2-.42,.42-.42,.21,0,.4,.2,.4,.42,0,.23-.18,.41-.4,.41ZM2.76,5.89c-.43,0-.81,.37-.81,.8,0,.43,.37,.79,.8,.79,.43,0,.79-.36,.79-.79,0-.43-.35-.79-.78-.8Zm0,1.2c-.23,0-.42-.18-.42-.41,0-.23,.19-.41,.43-.41,.23,0,.4,.18,.39,.41,0,.23-.17,.4-.4,.4Zm4.22,3.03c-.44,0-.79,.34-.8,.78,0,.44,.36,.81,.8,.8,.43,0,.79-.36,.79-.8,0-.44-.35-.78-.79-.79Zm0,1.2c-.22,0-.41-.19-.41-.41,0-.23,.18-.42,.41-.42,.23,0,.41,.17,.41,.4,0,.23-.19,.43-.41,.43Z"/>
</svg>