<?xml version="1.0" encoding="UTF-8"?>
<svg id="Layer_1" data-name="Layer 1" xmlns="http://www.w3.org/2000/svg" viewBox="0 0 14 14">
  <defs>
    <style>
      .cls-1 {
        fill: #393939;
      }

      .cls-2 {
        fill: none;
      }
    </style>
  </defs>
  <rect class="cls-2" width="14" height="14"/>
  <path class="cls-1" d="M13.45,3.13c-.3-1.23-1.38-2.19-2.61-2.3-1.29-.12-2.52,.58-3.04,1.75-.08,.18-.17,.22-.35,.22-1.6,0-3.21,0-4.81,0-.35,0-.4,.05-.41,.4-.01,2.35-.03,4.7-.04,7.05,0,.15-.03,.21-.2,.21-.42-.01-.84,0-1.26,0-.18,0-.26,.08-.26,.26,0,.26,.01,.52,0,.77-.06,.92,.67,1.79,1.78,1.77,1.05-.02,2.11,0,3.16,0,.53,0,1.06,0,1.59,0,.54,0,1.07-.02,1.61,0,.97,.04,1.77-.75,1.75-1.75-.03-1.49,0-2.98-.01-4.47,0-.15,.03-.21,.2-.21,1.93-.01,3.34-1.82,2.89-3.7ZM7.19,12.82c-1.65,0-3.3,0-4.95,0-.82,0-1.34-.51-1.34-1.33,0-.14,.01-.29,0-.43-.02-.17,.05-.2,.21-.2,1.43,0,2.85,0,4.28,0,.49,0,.98,0,1.47,0,.16,0,.19,.05,.19,.2,0,.28-.03,.57,.03,.85,.07,.34,.23,.63,.52,.91-.16,0-.28,0-.39,0Zm2.75-1.21c0,.67-.57,1.21-1.24,1.21-.67,0-1.24-.55-1.25-1.22,0-.29,0-.57,0-.86,0-.25-.04-.3-.3-.3-1.44,0-2.88,0-4.32,0-.18,0-.23-.04-.22-.22,.02-2.25,.04-4.5,.05-6.75,0-.21,.06-.25,.26-.25,1.47,0,2.94,0,4.41,0,.25,0,.24,0,.22,.24-.04,.44,0,.88,.14,1.31,.03,.07,.07,.15,.06,.25-.58,0-1.17,0-1.75,0-.06,0-.12,0-.18,0-.15,0-.23,.07-.23,.22,0,.14,.1,.2,.23,.2,.66,0,1.32,0,1.98,0,.15,0,.24,.04,.33,.17,.42,.58,.99,.96,1.69,1.13,.11,.03,.14,.08,.14,.18,0,1.56,0,3.13,0,4.69Zm.58-5.21c-1.42,0-2.58-1.16-2.58-2.58,0-1.41,1.18-2.59,2.58-2.58,1.42,0,2.57,1.17,2.57,2.59,0,1.43-1.16,2.58-2.58,2.57Zm-3.33,.9c-.45,0-.9,0-1.34,0-.15,0-.28-.04-.27-.23,0-.16,.12-.21,.27-.21,.9,0,1.79,0,2.69,0,.15,0,.27,.05,.27,.23,0,.17-.14,.2-.27,.21-.45,0-.9,0-1.34,0Zm0,1.42c.41,0,.83,0,1.24,0,.05,0,.1,0,.14,0,.13,0,.23,.06,.23,.21,0,.16-.1,.22-.24,.22-.39,0-.79,0-1.18,0-.47,0-.95,0-1.42,0-.16,0-.36,.05-.39-.21-.02-.17,.09-.22,.4-.22,.41,0,.81,0,1.22,0Zm3.79-4.22c0-.25-.17-.44-.44-.46-.42-.04-.73-.21-.87-.62-.15-.43,.05-.9,.47-1.09,.11-.05,.16-.09,.15-.22-.01-.14,.05-.27,.21-.26,.15,0,.23,.12,.21,.27-.01,.12,.05,.16,.15,.2,.32,.13,.5,.38,.55,.73,.02,.15-.02,.28-.19,.3-.16,.02-.22-.1-.24-.24-.04-.26-.22-.43-.46-.44-.22,0-.43,.17-.47,.4-.05,.28,.15,.52,.46,.54,.61,.04,1.01,.56,.87,1.12-.07,.28-.24,.49-.51,.6-.11,.05-.18,.09-.17,.23,.01,.15-.05,.26-.22,.26-.16,0-.22-.11-.21-.25,0-.14-.04-.2-.16-.26-.28-.12-.43-.36-.49-.66-.04-.19,.04-.34,.18-.35,.18-.01,.22,.11,.24,.26,.05,.28,.26,.45,.51,.42,.25-.03,.42-.22,.42-.47Zm-6.57,.08c-.37,0-.67,.3-.67,.66,0,.36,.31,.66,.69,.66,.37,0,.67-.3,.66-.66,0-.37-.31-.67-.69-.66Zm0,.89c-.15,0-.25-.08-.24-.24,0-.15,.11-.21,.23-.21,.17,0,.26,.09,.26,.24,0,.14-.11,.22-.25,.21Zm0,.95c-.37,0-.67,.3-.67,.65,0,.36,.31,.67,.68,.66,.37,0,.67-.29,.67-.65,0-.37-.3-.67-.68-.66Zm0,.89c-.13-.02-.24-.08-.23-.23,0-.16,.1-.23,.25-.22,.15,0,.24,.09,.24,.23,0,.16-.11,.22-.26,.23Zm0,.95c-.37,0-.67,.3-.67,.66,0,.36,.32,.66,.69,.66,.37,0,.67-.3,.66-.66,0-.37-.31-.66-.69-.65Zm.01,.88c-.15,0-.25-.07-.24-.23,0-.15,.1-.21,.24-.22,.15,0,.25,.08,.25,.24,0,.14-.11,.22-.24,.22Z"/>
</svg>