<?xml version="1.0" encoding="UTF-8"?>
<svg id="Layer_1" data-name="Layer 1" xmlns="http://www.w3.org/2000/svg" viewBox="0 0 14 14">
  <defs>
    <style>
      .cls-1 {
        fill: #393939;
      }

      .cls-2 {
        fill: none;
      }
    </style>
  </defs>
  <rect class="cls-2" width="14" height="14"/>
  <path class="cls-1" d="M13.46,6.46c0-.71-.44-1.16-1.16-1.16-.69,0-1.39,0-2.08,0-.17,0-.21-.05-.21-.21,0-1.13,0-2.26,0-3.39,0-.69-.45-1.13-1.14-1.13-2.41,0-4.81,0-7.22,0-.65,0-1.11,.46-1.11,1.1,0,.98,0,1.95,0,2.93,0,.32,.18,.5,.5,.5,.34,0,.67,.01,1.01,0,.18,0,.22,.04,.22,.22,0,1.53,.01,3.07-.01,4.6-.01,.66,.46,1.25,1.22,1.21,.67-.03,1.34,0,2.02-.01,.19,0,.22,.06,.21,.23-.01,.53,0,1.06,0,1.59,0,.41,.16,.56,.56,.56,1.11,0,2.22,0,3.33,0,1.11,0,2.22,0,3.33,0,.39,0,.54-.15,.54-.53,0-2.17,0-4.33,0-6.5ZM2.12,4.65c-.33,0-.66,0-.99,0-.14,0-.15-.05-.15-.17,0-.48,0-.97,0-1.45,0-.46,0-.91,0-1.37,0-.38,.26-.65,.62-.66,.37,0,.66,.25,.66,.63,0,.96,0,1.91,0,2.87,0,.12-.04,.15-.15,.15Zm3.41,6.04c-.43,0-.86,0-1.33,0,.19-.28,.22-.55,.22-.83,0-1.16,0-2.31,0-3.47,0-.32,.22-.58,.53-.65,.28-.06,.59,.1,.71,.38,.04,.09,.05,.19,.05,.3,0,1.36,0,2.73,0,4.09,0,.14-.03,.19-.18,.18Zm-.35-5.4c-.59,0-1.21,.39-1.2,1.2,.02,1.13,0,2.26,0,3.39,0,.5-.25,.81-.64,.81-.4,0-.65-.31-.65-.81,0-2.68,0-5.35,0-8.03,0-.28,0-.56-.21-.85h.24c2.02,0,4.05,.01,6.07,0,.55,0,.79,.35,.78,.79-.02,1.1-.01,2.21,0,3.31,0,.17-.05,.21-.21,.21-1.4,0-2.8,0-4.2-.01Zm7.63,7.76c-2.15,0-4.3,0-6.45,0-.16,0-.21-.04-.21-.21,0-2.06,0-4.12,0-6.17,0-.32,0-.63-.22-.93h1.36c1.66,0,3.32,0,4.98,0,.51,0,.75,.23,.75,.75,0,2.12,0,4.24,0,6.36,0,.17-.05,.21-.21,.21Zm-.43-1.73c0,.23-.09,.43-.29,.54-.11,.06-.15,.13-.14,.25,.01,.15-.03,.28-.21,.28-.19,0-.24-.13-.22-.29,.01-.12-.02-.2-.14-.25-.08-.03-.14-.11-.19-.18-.07-.11-.07-.21,.03-.29,.09-.08,.2-.07,.29,0,.03,.03,.05,.06,.08,.09,.07,.05,.13,.08,.22,.03,.08-.05,.12-.11,.12-.19,0-.09-.04-.16-.13-.19-.04-.02-.09-.03-.14-.03-.31-.04-.51-.21-.58-.51-.06-.26,.04-.53,.29-.67,.11-.06,.13-.13,.13-.24,0-.16,.03-.29,.22-.28,.18,0,.22,.13,.21,.28,0,.12,.02,.2,.14,.25,.05,.02,.1,.07,.14,.12,.1,.11,.15,.24,.02,.35-.12,.11-.24,.06-.33-.05-.07-.09-.16-.12-.27-.07-.09,.04-.13,.12-.12,.21,.02,.13,.11,.17,.23,.19,.41,.07,.62,.28,.62,.63Zm-2.26-4.08c-.63,0-1.26,0-1.9,0-.06,0-.12,0-.18,0-.12-.02-.18-.1-.18-.21,0-.1,.05-.18,.16-.2,.06-.01,.12-.02,.18-.02,1.28,0,2.56,0,3.83,0,.05,0,.11,0,.16,0,.12,.02,.18,.09,.18,.21,0,.13-.07,.2-.19,.21-.05,0-.11,0-.16,0-.63,0-1.26,0-1.9,0Zm0,1.08c.65,0,1.3,0,1.96,0,.15,0,.3,.01,.29,.21,0,.19-.14,.22-.29,.22-1.3,0-2.61,0-3.91,0-.24,0-.36-.14-.28-.31,.06-.11,.15-.12,.26-.12,.66,0,1.32,0,1.98,0Zm-1.4,1.5c.53,0,1.06,0,1.59,0,.06,0,.12,0,.18,.01,.1,.03,.16,.1,.17,.2,0,.11-.07,.19-.17,.22-.05,.01-.11,0-.16,0-1.07,0-2.14,0-3.2,0-.03,0-.07,0-.1,0-.14-.01-.23-.08-.23-.22,0-.15,.1-.21,.24-.22,.32,0,.63,0,.95,0,.25,0,.5,0,.75,0Zm-.01,1.94c-.54,0-1.09,0-1.63,0-.16,0-.29-.04-.29-.22,0-.18,.14-.21,.28-.21,1.1,0,2.2,0,3.3,0,.15,0,.28,.04,.28,.21,0,.18-.13,.22-.3,.22-.55,0-1.1,0-1.65,0Zm-1.62-4.52c-.11,0-.24,0-.29-.14-.05-.13,0-.24,.14-.28,.08-.02,.16-.02,.24-.02,.15,0,.25,.07,.25,.23,0,.14-.11,.21-.25,.21-.03,0-.05,0-.09,0Zm.02,1.08c.14-.02,.28,0,.32,.18,.02,.09-.03,.17-.1,.2-.14,.07-.3,.07-.44,0-.08-.04-.12-.13-.1-.22,.04-.17,.18-.17,.32-.17Zm-.44-5.6c-.63,0-1.26,0-1.89,0-.06,0-.12,0-.18,0-.11-.02-.18-.09-.18-.21,0-.11,.06-.18,.16-.2,.07-.02,.15-.02,.22-.02,1.26,0,2.51,0,3.77,0,.03,0,.05,0,.08,0,.16,0,.29,.03,.29,.23,0,.18-.14,.21-.28,.21-.55,0-1.1,0-1.65,0-.11,0-.21,0-.32,0Zm.02,1.08c.64,0,1.29,0,1.93,0,.15,0,.29,.01,.3,.21,0,.15-.09,.23-.31,.23-1.3,0-2.59,0-3.89,0-.22,0-.36-.12-.31-.27,.04-.14,.15-.17,.28-.17,.66,0,1.33,0,1.99,0Zm-3.03-1.08c-.12,0-.25,0-.31-.13-.05-.11-.01-.2,.08-.26,.1-.07,.39-.06,.48,.02,.09,.08,.09,.18,.04,.27-.06,.11-.18,.1-.28,.1Zm.01,1.08c.16-.01,.29,.02,.3,.2,.01,.15-.11,.23-.33,.23-.2,0-.33-.09-.32-.23,.02-.21,.18-.22,.34-.21Z"/>
</svg>