<?xml version="1.0" encoding="UTF-8"?>
<svg id="Layer_1" data-name="Layer 1" xmlns="http://www.w3.org/2000/svg" viewBox="0 0 14 14">
  <defs>
    <style>
      .cls-1 {
        fill: #393939;
      }

      .cls-2 {
        fill: none;
      }
    </style>
  </defs>
  <rect class="cls-2" width="14" height="14"/>
  <path class="cls-1" d="M6.62,1.93c0-.62-.4-1.02-1.01-1.02-1.24,0-2.48,0-3.72,0-.61,0-1,.4-1,1.01,0,.87,0,1.74,0,2.61,0,.87,0,1.74,0,2.61,0,.62,.39,1.01,1.01,1.01,1.23,0,2.46,0,3.7,0,.61,0,1.01-.41,1.01-1.02,0-1.73,0-3.47,0-5.2Zm-.47,5.1c0,.4-.22,.62-.63,.62-1.18,0-2.36,0-3.53,0-.41,0-.62-.21-.62-.62,0-.84,0-1.68,0-2.52s0-1.66,0-2.48c0-.41,.21-.62,.62-.62,1.18,0,2.36,0,3.53,0,.41,0,.63,.22,.63,.62,0,1.67,0,3.34,0,5Zm6.95-.14c0-.62-.4-1.02-1.01-1.02-1.24,0-2.48,0-3.72,0-.61,0-1,.4-1,1.01,0,.87,0,1.74,0,2.61,0,.87,0,1.74,0,2.61,0,.62,.39,1.01,1.01,1.01,1.23,0,2.46,0,3.7,0,.61,0,1.01-.41,1.01-1.02,0-1.73,0-3.47,0-5.2Zm-.47,5.1c0,.4-.22,.62-.63,.62-1.18,0-2.36,0-3.53,0-.41,0-.62-.21-.62-.62,0-.84,0-1.68,0-2.52s0-1.66,0-2.48c0-.41,.21-.62,.62-.62,1.18,0,2.36,0,3.53,0,.41,0,.63,.22,.63,.62,0,1.67,0,3.34,0,5Zm.46-10.03c0-.65-.39-1.04-1.04-1.04-.6,0-1.21,0-1.81,0-.62,0-1.24,0-1.87,0-.61,0-1,.4-1,1.01,0,.72,0,1.43,0,2.15,0,.64,.39,1.03,1.03,1.03,1.22,0,2.44,0,3.66,0,.64,0,1.03-.4,1.03-1.04,0-.7,0-1.41,0-2.11Zm-.46,2.08c0,.41-.22,.63-.62,.63-.59,0-1.18,0-1.77,0-.57,0-1.14,0-1.72,0-.49,0-.69-.19-.69-.68,0-.66,0-1.33,0-1.99,0-.44,.2-.65,.64-.65,1.17,0,2.35,0,3.52,0,.42,0,.64,.22,.64,.64,0,.68,0,1.36,0,2.05Zm-6.02,5.92c0-.65-.39-1.04-1.04-1.04-.6,0-1.21,0-1.81,0-.62,0-1.24,0-1.87,0-.61,0-1,.4-1,1.01,0,.72,0,1.43,0,2.15,0,.64,.39,1.03,1.03,1.03,1.22,0,2.44,0,3.66,0,.64,0,1.03-.4,1.03-1.04,0-.7,0-1.41,0-2.11Zm-.46,2.08c0,.41-.22,.63-.62,.63-.59,0-1.18,0-1.77,0-.57,0-1.14,0-1.72,0-.49,0-.69-.19-.69-.68,0-.66,0-1.33,0-1.99,0-.44,.2-.65,.64-.65,1.17,0,2.35,0,3.52,0,.42,0,.64,.22,.64,.64,0,.68,0,1.36,0,2.05Z"/>
</svg>