<?xml version="1.0" encoding="UTF-8"?>
<svg id="Layer_1" data-name="Layer 1" xmlns="http://www.w3.org/2000/svg" viewBox="0 0 14 14">
  <defs>
    <style>
      .cls-1 {
        fill: #393939;
      }

      .cls-2 {
        fill: none;
      }
    </style>
  </defs>
  <rect class="cls-2" width="14" height="14"/>
  <path class="cls-1" d="M13.26,6.39c0,.21,0,.42,0,.63-.01,.35-.27,.61-.63,.61-.19,0-.38,0-.57,0-.16,0-.26,.06-.3,.21-.02,.07-.05,.14-.08,.2-.22,.49-.25,.39,.17,.78,.51,.48,.53,.84,0,1.32-.22,.2-.42,.42-.64,.63-.3,.3-.64,.3-.95,.01-.21-.2-.42-.41-.62-.62-.1-.1-.15-.21-.04-.32,.12-.12,.24-.07,.34,.03,.19,.19,.39,.39,.58,.58,.17,.16,.25,.17,.41,0,.26-.26,.52-.51,.78-.77,.15-.15,.15-.25,0-.4-.14-.14-.28-.27-.41-.42-.19-.21-.24-.44-.12-.7,.07-.17,.15-.33,.21-.5,.11-.3,.33-.44,.64-.45,.19,0,.38,0,.57,0,.17,0,.25-.08,.25-.25,0-.39,0-.77,0-1.16,0-.18-.08-.26-.26-.26-.18,0-.37,0-.55,0-.31,0-.53-.14-.65-.44-.06-.17-.14-.34-.21-.5-.12-.27-.07-.51,.13-.72,.14-.14,.28-.28,.41-.42,.12-.12,.13-.25,0-.37-.27-.27-.54-.54-.82-.82-.12-.12-.24-.12-.36,0-.13,.13-.27,.27-.4,.4-.24,.23-.46,.27-.76,.14-.16-.07-.32-.14-.49-.2-.29-.11-.43-.32-.44-.63,0-.19,0-.38,0-.57,0-.18-.08-.26-.26-.26-.38,0-.77,0-1.15,0-.17,0-.25,.08-.25,.25,0,.19,0,.38,0,.57,0,.31-.14,.53-.45,.64-.16,.06-.31,.13-.47,.19-.32,.13-.53,.09-.78-.15-.13-.13-.26-.26-.39-.39-.12-.12-.25-.12-.37,0-.27,.27-.54,.53-.8,.8-.14,.15-.14,.23,0,.38,.19,.2,.39,.39,.58,.58,.1,.1,.17,.22,.05,.34-.12,.13-.25,.06-.35-.05-.2-.2-.41-.4-.61-.61-.28-.29-.28-.64,0-.92,.28-.29,.56-.57,.84-.84,.3-.29,.64-.28,.94,0,.14,.13,.27,.26,.4,.4,.09,.1,.19,.12,.31,.06,.16-.07,.32-.14,.48-.2,.13-.05,.18-.13,.18-.27,0-.2,0-.4,0-.61,.01-.34,.27-.61,.61-.61,.43,0,.86,0,1.29,0,.34,0,.59,.27,.6,.62,0,.2,0,.39,0,.59,0,.14,.05,.23,.19,.28,.16,.06,.33,.13,.48,.2,.12,.06,.22,.03,.31-.06,.13-.14,.26-.27,.4-.4,.3-.28,.64-.28,.94,0,.28,.27,.56,.55,.83,.83,.29,.3,.29,.65,0,.95-.13,.14-.27,.27-.4,.4-.09,.09-.11,.18-.06,.3,.08,.17,.14,.33,.21,.5,.05,.12,.13,.17,.25,.17,.2,0,.4,0,.61,0,.36,0,.61,.26,.62,.62,0,.22,0,.43,0,.65Zm-3.01-.71c-.47-1.92-2.94-2.68-4.41-1.34-.2,.18-.23,.29-.13,.4,.11,.11,.21,.09,.41-.1,.97-.88,2.55-.72,3.34,.32,.66,.87,.63,2.15-.15,2.97-.1,.1-.19,.22-.06,.35,.1,.1,.23,.08,.37-.07,.48-.52,.71-1.14,.72-1.86-.01-.22-.03-.45-.09-.68Zm-1.16,3.72c0,.51-.23,.74-.74,.73-.17,0-.27,.06-.34,.22-.09,.19-.05,.31,.09,.45,.34,.33,.34,.68,0,1.02,0,0,0,0-.01,.01-.15,.15-.3,.29-.44,.44-.34,.34-.68,.35-1.02,0-.14-.14-.26-.17-.45-.09-.16,.07-.22,.18-.22,.35,0,.53-.23,.74-.76,.74-.2,0-.4,0-.61,0-.48,0-.73-.24-.72-.72,0-.21-.07-.32-.27-.39-.15-.05-.26-.04-.37,.08-.32,.38-.75,.38-1.09,0-.13-.14-.27-.27-.4-.4-.36-.36-.37-.69,0-1.05,.13-.13,.16-.24,.09-.41-.07-.18-.18-.25-.37-.24-.49,0-.73-.24-.73-.73,0-.22,0-.43,0-.65,0-.46,.24-.7,.7-.7,.17,0,.31-.02,.39-.21,.08-.19,.06-.32-.09-.47-.34-.33-.33-.67,0-1,.17-.18,.35-.35,.53-.53,.13-.12,.28-.19,.45-.18,.22-.01,.38,.1,.51,.25,.12,.14,.25,.18,.43,.09,.17-.08,.23-.18,.23-.36,0-.49,.23-.73,.73-.73,.25,0,.51,0,.76,0,.34,.01,.55,.23,.59,.56,0,.05,.02,.11,0,.16-.03,.22,.1,.31,.28,.39,.18,.08,.28,0,.39-.12,.34-.34,.68-.34,1.02,0,.15,.15,.3,.29,.44,.44,.35,.35,.36,.69,0,1.03-.13,.13-.17,.25-.09,.43,.08,.17,.18,.25,.35,.23,.45-.04,.76,.24,.74,.74,0,.2,0,.4,0,.61Zm-.42-.58c0-.3-.05-.35-.35-.35-.38,0-.55-.13-.7-.47-.16-.35-.1-.64,.18-.9,.19-.17,.18-.26,0-.44-.12-.13-.25-.25-.37-.37-.26-.26-.3-.27-.57,0-.15,.15-.33,.25-.54,.2-.44-.09-.82-.28-.77-.87,.02-.2-.07-.27-.27-.27-.22,0-.44,0-.67,0-.25,0-.3,.06-.31,.32,0,.41-.12,.59-.48,.74-.4,.17-.58,.13-.88-.16-.02-.02-.04-.04-.06-.06-.12-.12-.24-.12-.36,0-.14,.14-.29,.29-.43,.43-.26,.26-.26,.28,0,.55,.37,.38,.2,1.1-.29,1.28-.12,.04-.24,.03-.37,.03-.2,.01-.27,.07-.27,.28,0,.21,0,.42,0,.63,0,.32,.02,.34,.35,.34,.34,0,.57,.15,.7,.46,.17,.41,.14,.6-.18,.93-.16,.17-.16,.25,0,.41,.15,.15,.3,.31,.46,.46,.18,.18,.26,.18,.44,0,.25-.27,.54-.33,.88-.18,.37,.16,.49,.34,.49,.75,0,.27,.04,.3,.31,.3,.21,0,.42,0,.63,0,.26,0,.33-.05,.31-.31-.05-.54,.39-.78,.83-.83,.23,0,.39,.12,.54,.27,.18,.18,.26,.18,.44,0,.13-.13,.27-.27,.4-.4,.23-.23,.24-.28,0-.52-.2-.2-.28-.42-.19-.69,.14-.47,.35-.63,.85-.64,.21,0,.27-.06,.27-.27,0-.21,0-.42,0-.63Zm-1.88,.28c-.02,1.17-.87,1.85-1.89,1.87-1.06,0-1.87-.83-1.87-1.89,0-1.03,.85-1.87,1.87-1.86,1.05,0,1.9,.85,1.89,1.89Zm-.42,0c0-.8-.65-1.47-1.44-1.47-.81,0-1.48,.65-1.49,1.45,0,.8,.65,1.47,1.46,1.48,.78,.01,1.46-.66,1.46-1.46Z"/>
</svg>