<?xml version="1.0" encoding="UTF-8"?>
<svg id="Layer_1" data-name="Layer 1" xmlns="http://www.w3.org/2000/svg" viewBox="0 0 800 800">
  <defs>
    <style>
      .cls-1 {
        fill: none;
      }

      .cls-2 {
        fill: #010101;
      }
    </style>
  </defs>
  <rect class="cls-1" width="800" height="800"/>
  <path class="cls-2" d="M551.69,273.89c.24-21.26-8.69-34.16-26.24-42.88-7.68-3.82-15.7-7.23-23.92-9.62-54.03-15.75-108.97-16.11-164.21-8.59-23.37,3.18-46.2,8.68-66.88,20.67-14.57,8.45-22.4,20.03-21.97,38.25,1.01,42.73,.32,85.5,.32,128.26,0,41.97,1.01,83.98-.42,125.9-.73,21.47,9.04,34.04,26.34,42.85,7.98,4.07,16.47,7.37,25.04,9.99,46.51,14.22,94.3,14.82,142.12,11.15,29.29-2.25,58.28-7.62,84.77-21.7,16.5-8.77,25.2-21.07,25.01-41.28-.83-84.33-.92-168.67,.05-253Zm-270.78-19.23c15.22-9.38,32.39-13.51,49.63-17.09,23.1-4.8,46.62-5.25,66.98-5.9,36.05,.49,68.82,2.59,100.32,13.35,6.99,2.39,13.93,5.33,20.32,9,12.62,7.25,12.41,13.32-.44,20.83-14.72,8.6-31.04,13.3-47.57,15.97-55.38,8.95-110.61,9.49-165.08-6.43-8.64-2.53-17.02-5.86-24.57-10.91-10.7-7.16-10.72-11.96,.41-18.82Zm-8.57,43.78c85.67,29.81,169.86,29.87,255.23,.13,0,18.33,.28,37.02-.15,55.7-.16,6.88-6.69,9.32-11.74,12.04-22.16,11.97-46.62,16.71-71.12,18.82-47.01,4.04-94.03,4.06-139.79-10.5-2.23-.71-4.48-1.4-6.66-2.24-25.34-9.74-25.77-10.36-25.77-37.23v-36.72Zm254.94,237.19c-.21,6.61-6.89,9.13-12,11.79-21.9,11.37-45.72,16.2-69.92,18.33-47.79,4.22-95.42,4.15-141.89-10.52-2.24-.71-4.46-1.49-6.65-2.33-23.2-8.97-24.49-10.85-24.48-35.74,0-11.75,.03-23.51,.07-35.26,0-.77,.24-1.54,.38-2.4,84.92,29.67,168.96,29.67,254.69,.08,0,18.32,.39,37.21-.21,56.06Zm-14.63-77.15c-28.29,12.89-58.47,16.92-89.09,18.66-7.81,.44-15.67,.07-23.51,.07-35.79,.24-71.24-2.34-104.97-15.69-22.29-8.82-22.74-9.81-22.74-33.28,0-10.59,.28-21.18-.1-31.76-.25-6.78,.67-8.79,8.24-6.02,75.9,27.81,152.53,27.01,229.33,4.2,18.22-5.41,17.94-6.36,17.94,12.42,0,9.41-.95,18.94,.23,28.2,1.64,12.79-5.42,18.68-15.33,23.2Zm-292.22,51.02c-9.18-1.9-18.67-2.27-27.91-3.95-7.41-1.34-14.67-2.17-18.18,5.99-3.32,7.72,.74,13.39,8.72,17.42-4.18,2.54-7.43,4.61-10.77,6.54-30.51,17.66-60.88,35.56-91.64,52.78-8.91,4.99-13.1,10.83-12.67,21.39,.77,18.8-.12,37.65,.39,56.47,.19,7.18-1.83,11.02-8.55,14.32-17.78,8.71-27.17,27.3-24.28,45.54,3.44,21.75,20.75,37.66,42.36,38.93,20.18,1.19,39.69-12.83,45.16-32.46,5.92-21.21-3.14-41.88-23.21-52.43-4.64-2.43-8.5-4.25-8.28-10.96,.56-17.63,.27-35.3,.13-52.95-.03-4.24,.77-7.39,4.84-9.72,32.26-18.47,64.42-37.11,97.48-56.2,1.23,8.38,3.48,15.84,12.61,16.24,8.99,.4,11.14-7.37,13.83-13.82,3.47-8.3,6.82-16.67,9.85-25.15,3.62-10.12,.73-15.8-9.9-17.99Zm-119.5,210.38c.03,12.13-9.58,21.85-21.31,21.53-11.14-.3-20.75-10.03-20.92-21.18-.18-11.79,9.53-21.2,21.72-21.07,12.13,.13,20.47,8.56,20.5,20.71Zm639.84-39.27c-7.11-3.54-9.44-7.44-9.19-15.15,.58-18.41-.45-36.88,.43-55.26,.53-11.01-3.72-17.15-13.03-22.35-31.11-17.37-61.8-35.49-92.7-53.22-5.16-2.96-11.19-4.74-2.2-11.02,4.06-2.84,3.5-8.6,1.34-13.09-2.05-4.26-6.2-6.46-10.67-5.91-12.42,1.51-24.86,3.13-37.1,5.67-8.35,1.73-11.49,7.7-8.36,16.02,3.3,8.79,6.75,17.53,10.31,26.21,2.67,6.51,4.95,14.11,13.79,13.96,9.33-.15,11.1-7.93,12.72-16.33,33.27,19.2,65.72,38,98.28,56.61,4.47,2.55,3.81,6.38,3.82,10.19,.04,16.86-.3,33.72,.18,50.57,.18,6.43-1.9,9.67-7.71,12.46-15.75,7.57-24.44,20.43-25.16,38.08-.94,22.88,14.23,41.63,36.96,46.1,20.61,4.05,42.48-8.5,49.73-28.56,7.69-21.24-1.02-44.84-21.42-54.99Zm-20.86,60.8c-11.26-.15-20.64-9.57-20.88-20.98-.27-12.27,8.81-21.33,21.29-21.26,11.79,.06,20.8,8.88,20.95,20.51,.15,11.84-9.73,21.89-21.36,21.74ZM755.82,52.72c-11.21-14.71-29.01-20.81-47.06-16.14-17.69,4.58-30.92,19.46-33.05,37.17-2.26,18.8,6.49,36.13,23.01,45.36,4.54,2.54,9.99,3.26,9.7,11.04-.66,18.01-.23,36.05-.19,54.08,0,3.65-.29,6.8-4.05,8.96-32.55,18.63-65.03,37.4-98.33,56.58-1.07-8.1-2.58-15.36-11.2-16.31-9.7-1.08-12.2,6.84-15.07,13.7-3.33,7.93-6.54,15.92-9.5,24-4.12,11.21-1.09,17.01,10.84,19.39,9.57,1.91,19.38,2.64,29.05,4.08,6.63,.99,12.88,.89,15.79-6.42,2.95-7.4-.27-12.79-8.38-17.37,4.74-2.9,7.99-4.99,11.32-6.92,29.48-17.05,58.77-34.44,88.56-50.91,10.45-5.78,15.58-12.41,14.8-24.94-1.1-17.57,.03-35.27-.42-52.89-.2-7.75,1.58-12.19,9.34-16.1,24.76-12.48,31.45-44.57,14.85-66.34Zm-35.99,48.16c-12.04-.18-21.21-9.88-20.8-22,.39-11.49,9.78-20.38,21.38-20.24,11.55,.14,20.73,9.31,20.86,20.83,.13,12-9.48,21.6-21.44,21.42ZM230.82,273.45c-3.37-8.77-6.68-17.56-10.27-26.24-2.67-6.45-4.79-14.15-13.81-13.82-9.39,.35-11.49,7.79-12.7,16.2-32.83-18.97-64.96-37.65-97.26-56.06-4.7-2.68-5.06-6.31-5.03-10.79,.09-16.08,.38-32.17-.12-48.23-.23-7.47,1.58-11.58,8.96-15.23,21.33-10.55,29.97-36.02,20.7-57.23-7.86-17.99-25.85-28.63-45.39-26.87-19.8,1.79-35.57,16.06-39.75,35.98-3.94,18.77,4.69,38.73,22.4,47.46,8.15,4.01,10.14,8.69,9.87,17.05-.61,18.41,.19,36.87-.35,55.28-.27,9.41,3.11,15.13,11.36,19.77,31.06,17.46,61.82,35.48,92.6,53.44,3.51,2.05,8.22,2.94,9.76,7.76-6.82,2.96-9.79,7.91-7.86,15.09,1.54,5.74,6.05,8.57,11.54,7.98,12.44-1.34,24.91-2.86,37.13-5.45,8.18-1.73,11.45-7.71,8.23-16.1ZM58.71,79.56c.08-11.72,10.19-21.3,22.09-20.92,11.67,.37,20.24,9.45,20.13,21.3-.12,11.89-8.84,20.8-20.5,20.95-11.87,.15-21.79-9.6-21.71-21.34ZM187.21,367.31c-9.56,4.6-6.66,12.66-4.14,20.1-1.28,.37-1.99,.75-2.7,.75-15.67,.05-31.35-.25-47,.23-6.7,.2-10.53-1.6-13.43-8.08-6.79-15.2-19.38-23.43-35.7-24.99-23.26-2.22-43.18,12.98-48.05,35.78-4.55,21.28,7.59,43.02,28.34,50.78,21.86,8.17,44.12-.78,55.57-22.12,1.67-3.11,1.66-7.98,7.23-7.95,18.59,.11,37.18,.04,56.66,.04-3.64,7.28-5.41,13.19,.11,18.59,3.84,3.76,9.11,4.65,12.98,1.89,11.12-7.94,21.7-16.67,32.25-25.38,1.6-1.32,2.51-4.11,2.74-6.33,1.04-10.11-35.88-37.63-44.86-33.31Zm-106.8,54.01c-11.54,.17-21.78-10.02-21.71-21.6,.07-11.69,10.25-21.38,22.09-21.02,11.59,.35,20.25,9.56,20.14,21.4-.11,11.64-9.21,21.05-20.51,21.22Zm656.16-63.1c-21.24-8.15-44.35,.22-55.77,19.83-2.14,3.68-1.64,10.06-8.11,10.11-18.55,.13-37.1,.04-56.35,.04,3.09-7.69,5.66-14.43-1.09-19.49-7.08-5.31-13.21-1.37-18.99,3.28-7.02,5.64-14.28,10.99-21.22,16.73-9.41,7.77-9.52,14.35-.31,22.07,6.6,5.54,13.56,10.64,20.29,16.01,5.58,4.45,11.27,9.63,18.86,5.26,8.27-4.76,5.53-12.39,2.94-20.26,17.19,0,33.61,.26,50.02-.13,6.54-.16,10.36,1.34,13.4,7.91,7.13,15.43,20.13,23.84,36.96,25.14,22.36,1.73,42.3-14.05,46.78-36.14,4.27-21.05-7.54-42.73-27.43-50.36Zm-16.67,63.09c-11.24-.15-20.65-9.63-20.88-21.04-.24-11.98,9.34-21.67,21.31-21.57,11.48,.09,20.77,9.35,20.93,20.85,.16,11.85-9.72,21.91-21.37,21.76Zm-295.93,261.36c-10.64-5.42-13.79-11.97-12.32-22.7,.52-3.83,.08-7.8,.08-11.98,1.54,.11,2.76-.09,3.73,.32,5.9,2.5,11.72,3.08,15.87-2.67,4.32-5.98,2.35-11.77-1.95-17.14-6.36-7.95-12.33-16.23-18.93-23.96-7.1-8.3-13.45-8.34-20.54-.16-5.89,6.8-11.08,14.2-16.75,21.19-4.8,5.93-9.97,11.92-4.55,19.81,5.07,7.38,12.18,4.36,18.83,2.19,1.68,15.35,3.63,28.53-14.59,37.93-17.26,8.9-21.65,31.38-14.85,49.79,6.74,18.26,24.65,30.44,43.62,29.68,20.1-.8,36.94-14.69,42.24-34.81,4.61-17.52-3.11-38.95-19.88-47.49Zm-24.86,58.74c-11.13-.62-20.57-10.65-20.44-21.7,.15-11.78,10.09-20.91,22.34-20.52,11.7,.37,20.54,9.63,20.29,21.26-.26,11.76-10.67,21.61-22.19,20.97Zm28.63-627.49c17.37-9.07,21.21-32.4,13.79-51.17-7-17.7-25.42-29.03-44.87-27.62-19.54,1.43-35.65,15.37-40.66,35.2-4.35,17.24,3.83,38.72,20.81,47.09,10.12,4.99,12.41,11.09,11.45,20.8-.46,4.6-.08,9.29-.08,14.63-7.81-3.18-14.97-5.44-19.91,2.03-4.89,7.4,.01,13.25,4.5,18.88,5.86,7.35,11.44,14.93,17.52,22.09,6.44,7.59,13.42,7.45,19.78-.16,6.02-7.21,11.59-14.79,17.5-22.09,4.62-5.71,8.93-11.75,4.08-19-5.12-7.65-12.39-4.27-19.25-2.15-1.92-16.45-2.56-29.18,15.35-38.53Zm-26.49-13.05c-11.87,.59-22.19-8.79-22.57-20.51-.38-11.71,9.42-21.67,21.35-21.72,11.52-.05,21,9.09,21.27,20.51,.28,11.51-8.63,21.15-20.05,21.72Zm-.66,355.53c-5.09-.02-10.29,.63-15.25-.17-6.92-1.12-11.56-5.54-10.8-12.99,.68-6.73,5.13-10.26,12.09-10.25,9.01,.01,18.03-.03,27.04,0,6.93,.02,11.29,3.49,11.85,10.39,.61,7.51-3.88,11.8-10.85,12.91-4.58,.73-9.38,.14-14.08,.12Zm-.03,90.11c-5.09-.01-10.22,.34-15.27-.1-6.86-.6-10.7-4.96-10.83-11.66-.12-6.31,3.77-10.83,9.85-11.23,10.52-.69,21.16-.71,31.68,.02,6.09,.42,9.78,5,9.57,11.4-.22,6.8-4.02,10.96-10.9,11.51-4.67,.37-9.4,.07-14.1,.06Zm-1.37-180.34c-5.08-.26-10.23-.07-15.21-.91-6.16-1.04-9.67-5.32-9.55-11.56,.12-6.27,3.75-10.61,10.07-10.94,10.15-.53,20.35-.53,30.51-.15,6.23,.23,10.21,4.06,10.56,10.47,.38,6.86-3.21,11.43-9.96,12.3-5.38,.7-10.93,.14-16.41,.14,0,.22,0,.43-.01,.65Z"/>
</svg>