<?xml version="1.0" encoding="UTF-8"?>
<svg id="Layer_1" data-name="Layer 1" xmlns="http://www.w3.org/2000/svg" viewBox="0 0 800 800">
  <defs>
    <style>
      .cls-1 {
        fill: none;
      }

      .cls-2 {
        fill: #010101;
      }
    </style>
  </defs>
  <rect class="cls-1" width="800" height="800"/>
  <path class="cls-2" d="M538.61,203.15c2.6-3.16,5.73-6.03,7.69-9.55,4.17-7.47,8-6.12,14.34-1.93,8.71,5.75,9.63,10.22,2.65,18.28-9.28,10.71-17.06,22.71-25.81,33.89-6.73,8.59-14.24,8.74-20.92,.25-9.96-12.67-19.11-25.98-29.24-38.52-4.97-6.15-1.62-9.08,3.16-11.26,4.74-2.17,8.47-12.8,15.44-2.61,1.69,2.47,3.68,4.72,7.23,9.22,4.21-22.32,1.78-41.64-5.29-60.3-18.03-47.57-65.06-77.99-114.42-74.63-51.47,3.51-94.01,39.39-105.99,89.4-10.65,44.44,7.95,92.87,45.92,119.6,39.04,27.48,90.15,28.46,129.95,2.49,9.53-6.22,19.03-2.79,22.76,8.13,1.92,5.61-3.35,6.3-5.98,8.21-46.93,34.15-112.96,33.97-160.68-.25-44.49-31.9-67.47-89.35-54.87-140.93,14.05-57.5,50.44-94.57,108.28-107,90.84-19.52,174.23,57.18,164.8,149.84-.23,2.26-.6,4.51-.9,6.77,.63,.3,1.27,.6,1.9,.9Zm-176.62,462.04c3.69,0,7.39,0,11.08,0,36.86,0,73.73-.36,110.59,.25,9.04,.15,9.26-4.17,8.44-10.31-.72-5.4,4.01-13.32-8.03-13.21-49.92,.48-99.84,.23-149.76,.18-6.19,0-11.45,1.37-14.07,7.7-2.48,6.02,.56,10.26,4.56,14.25,12.77,12.74,25.91,25.15,38.11,38.42,7.32,7.96,10.15,.97,14.29-2.78,4.59-4.16,9.96-7.96,1.91-14.24-6.62-5.16-12.57-11.19-18.82-16.83,.56-1.14,1.13-2.29,1.69-3.43Zm76.77-80.76c-37.24,.1-74.48,.37-111.71-.12-11.03-.15-7.49,7.05-7.77,12.36-.28,5.4-2.07,11.19,7.79,11.1,50.29-.47,100.58-.24,150.87-.19,5.76,0,10.85-1.15,13.23-7.03,2.33-5.74,0-10.38-4.12-14.48-13.05-12.99-26.32-25.79-38.96-39.18-7.04-7.46-9.85-.37-13.24,3.2-3.28,3.46-11.39,6.26-3.43,13.17,6.8,5.91,13.21,12.27,20.3,18.92-5.44,3.37-9.32,2.23-12.96,2.24Zm-27.17-476.84c.43-10.46-6.85-6.98-11.72-7.07-5.02-.09-12.06-2.99-11.64,7.26,.58,14.19-1.2,28.58,.44,42.61,3.02,25.9-2.53,47.48-25.23,62.63-7.44,4.96-4.08,9.3,1.01,13.16,4.37,3.32,6.5,11.96,15.12,3.76,31.61-30.03,31.88-29.75,31.88-72.8,0-2.69,0-5.38,0-8.07,0-13.83-.43-27.68,.14-41.49Zm-10.93,246.01c-8.26,.5-13.34,.5-12.67,11.28,.52,8.37,.71,13.47,11.35,12.45,7.68-.74,15.33,.72,11.87-10.94,1.7-8.61,.12-13.43-10.55-12.79Zm-12.65,58.27c-.52,10.07,3.26,11.4,12.2,11.68,9.92,.31,11.68-2.98,11.61-12.08-.07-9.31-2.13-13.8-12.06-11.12-10.62-2.91-11.3,2.87-11.75,11.53Zm23.7,47.63c-.96-7.48,1.34-14.92-11.18-13.74-8.35,.78-13.28,.86-12.5,11.45,.6,8.21,.29,14.82,10.94,11.88,7.55,.74,14.19,1.64,12.75-9.59Zm-23.71,43.74c.37,8.48,.82,13.15,11.37,12.48,8.24-.52,13.48-.43,12.4-11.19-.78-7.77,.4-15.16-11.09-12-8.91-1.95-13.13,.31-12.68,10.71Zm339.73,237.64c-29.87,15.99-62.1,18.5-95.08,15.32-21.6-2.08-42.25-7.54-60.45-20.01-14.9-10.21-22.85-23.7-22.57-42.55,.61-41.04,.92-82.12-.1-123.15-.58-23.37,9.95-38.7,29.18-49.33,28.18-15.58,58.84-18.8,90.32-16.61,20.82,1.45,40.97,5.84,59.36,16.29,19.09,10.84,30.49,25.78,29.22,49.26-1.1,20.28-.23,40.66-.23,60.99,0,19.95-.92,39.96,.24,59.84,1.39,23.98-10.1,39.36-29.88,49.95Zm6.43-71.2c-1.93,.27-3.14,.16-4.06,.61-50.09,24.55-100.33,25.05-150.66,.85-4.99-2.4-6.95-1.79-6.61,4.04,.27,4.59,.62,9.3-.05,13.81-2.47,16.56,6.45,25.85,19.92,32.56,13.57,6.76,28.02,10.4,43.01,11.8,27.96,2.61,55.3,.49,80.71-12.75,8.18-4.27,16.7-9.35,17.56-19.79,.84-10.2,.18-20.52,.18-31.14Zm-.04-69.96c-54.13,26.54-106.86,26.34-161.25-.26,0,8.07,.64,14.62-.13,21-1.85,15.35,5.72,24.54,18.47,31.15,14.2,7.36,29.35,11.23,45.12,12.66,27.56,2.49,54.53,.36,79.62-12.57,8.22-4.24,16.9-9.24,17.94-19.53,1.04-10.41,.23-21,.23-32.45Zm-15.81-57.61c-42.34-21.26-85.68-20.72-128.46-.52-8.3,3.92-16.8,9.8-16.53,20.35,.26,10.43,9.06,15.58,17.16,20.01,19.7,10.76,41.23,13.83,64.15,14.11,21.66-.42,43.65-3.28,63.51-14.72,21.37-12.31,22.02-28.27,.17-39.25Zm-445.1,157.41c-.83,14.54-.24,29.16-.12,43.75,.08,9.51-4.33,14.16-13.94,14.15-67.58-.05-135.15-.04-202.73-.02-9.59,0-14.01-4.86-13.99-14.25,.04-18.42-.48-36.86,.17-55.26,.79-22.53,13.35-36.76,34.73-44.72-15.86-24.69-15.14-44.59,1.64-59.75,15.09-13.63,37.1-14.14,52.63-1.21,17.86,14.87,18.96,34.87,3.35,60.7,.64,.4,1.35,.73,1.93,1.21,15.01,12.6,29.64,12.74,43.19-2.41-14.95-24.72-13.81-44.61,4.14-59.48,15.3-12.67,36.78-12.5,51.75,.41,17.39,14.99,18.38,35.75,2.5,60.42,26.73,9.47,36.33,29.33,34.77,56.46Zm-184.57-85.99c0,9.08,7.56,16.73,16.85,17.01,9.48,.28,17.05-6.65,17.57-16.09,.54-9.78-7.04-18.14-16.63-18.34-9.44-.2-17.78,7.97-17.79,17.42Zm57.72,113.52c-.52-12.61,.1-25.26-.24-37.88-.4-14.61-9.2-23.42-23.83-23.91-10.71-.36-21.44-.33-32.15-.01-15.09,.45-24.14,9.45-24.56,24.52-.34,12.24,.34,24.51-.24,36.73-.34,7.13,2.79,8.15,8.77,7.95,10.71-.37,21.43-.1,32.15-.1s21.45-.27,32.15,.11c5.67,.2,8.22-.97,7.95-7.4Zm46.05-113.96c-.28,9.51,7.81,17.54,17.57,17.44,9.44-.1,16.74-7.36,16.88-16.79,.14-9.32-7.08-17.17-16.21-17.62-9.4-.46-17.96,7.5-18.23,16.97Zm57.71,114.53c-.43-13,.16-26.03-.25-39.02-.44-13.89-9.31-22.77-23.23-23.3-11.08-.43-22.21-.4-33.3-.01-14.42,.51-23.49,9.52-23.96,23.92-.41,12.61,.25,25.27-.25,37.88-.27,6.61,2.72,7.5,8.18,7.35,10.71-.3,21.44-.09,32.15-.09,11.1,0,22.21-.22,33.3,.1,5.17,.15,7.55-.93,7.36-6.82Zm-51.91-194.73c-.19,22.45-18.04,40.07-40.54,40.03-22.34-.04-40.17-18.03-40.03-40.39,.14-22.25,18.24-40.27,40.4-40.22,21.98,.05,40.36,18.62,40.17,40.58Zm-23.14,.39c.25-9.5-7.85-17.9-17.25-17.86-9.5,.04-17.36,8.27-17.09,17.9,.26,9.22,7.81,16.49,17.14,16.51,9.29,.01,16.95-7.35,17.2-16.54Z"/>
</svg>