<?xml version="1.0" encoding="UTF-8"?>
<svg id="Layer_1" data-name="Layer 1" xmlns="http://www.w3.org/2000/svg" viewBox="0 0 800 800">
  <defs>
    <style>
      .cls-1 {
        fill: #020202;
      }

      .cls-2 {
        fill: none;
      }
    </style>
  </defs>
  <rect class="cls-2" width="800" height="800"/>
  <path class="cls-1" d="M366.99,742.66c-46.94,0-93.88,.02-140.82-.01-15.8-.01-18.97-3.19-19.01-18.92-.05-18.45,.78-36.94-.31-55.32-.64-10.76,4.81-10.36,12.08-10.05,6.54,.28,13.63-2.13,12.58,9.53-1.18,13.13,.33,26.48-.48,39.66-.55,8.94,1.93,11.33,11.1,11.28,79.04-.41,158.07-.23,237.11-.23,9.63,0,19.34,.77,28.87-.21,10.15-1.04,12.44,2.38,12.5,12.31,.06,10.3-3.03,12.33-12.79,12.22-46.93-.55-93.88-.25-140.82-.25Zm80.88-112.34c-.19,11.06,4.82,16.25,15.92,16.12,16.04-.18,32.11-.61,48.12,.13,12.79,.59,7.28-8.38,8.16-13.86,1.05-6.51,.52-11.52-8.85-10.61-9.93,.97-20.07-.3-30.05,.39-7.54,.52-9.5-1.94-9.34-9.33,.48-22.44-.29-44.91,.36-67.34,.35-11.98-7.86-7.11-13-7.57-5.43-.49-12.14-2.58-11.48,7.9,.88,13.98,.22,28.05,.22,42.08,0,14.03,.19,28.06-.06,42.09Zm241.03-216.8c.49-11.93-7.74-7.24-12.91-7.63-5.33-.4-11.78-2.77-11.59,7.77,.62,34.8,.59,69.63,.03,104.44-.19,11.75,7.59,7.44,12.92,7.83,5.56,.41,12.02,2.29,11.56-7.98-.76-17.17-.21-34.41-.21-51.61,0-17.61-.53-35.24,.19-52.82Zm84.08-63.74c0,17.03-2.93,19.83-20.53,19.84-57.78,.01-115.56,.25-173.34-.24-9.2-.08-11.15,2.41-11.01,11.22,.55,34.08,.25,68.18,.21,102.27-.02,15.83-3.22,19.1-18.84,19.11-50.16,.04-100.32,.33-150.47-.25-9.88-.11-11.63,3.01-11.47,11.97,.53,30.47,.27,60.96,.17,91.44-.05,13.39-3.76,17.16-17.14,17.16-108.74,.06-217.48,.05-326.22,0-14.19,0-17.75-3.58-17.76-17.75-.05-76.6-.05-153.2,0-229.81,0-13.68,3.4-17.09,16.96-17.13,34.51-.09,69.03-.5,103.52,.25,10.48,.23,12.31-3.06,12.17-12.7-.58-38.09-.28-76.2-.22-114.3,.02-14.39,3.26-17.64,17.64-17.67,33.71-.07,67.43-.68,101.11,.32,12.24,.36,14.08-3.61,13.94-14.63-.62-49.32-.3-98.66-.25-147.99,.01-15.13,3.1-18.2,18.31-18.21,74.23-.03,148.46-.02,222.7-.02,73.83,0,147.66-.01,221.49,.01,16.12,0,19.04,2.87,19.05,18.7,.02,99.46,.02,198.92,0,298.39Zm-409.14,238.76c-.33-65.74-.32-131.48,0-197.21,.04-7.83-1.97-9.93-9.85-9.87-48.92,.38-97.85,.19-146.78,.19s-97.85,.17-146.78-.17c-7.63-.05-10.04,1.63-10,9.71,.36,65.74,.33,131.48,.03,197.21-.04,7.72,1.78,10.06,9.84,10.04,97.85-.29,195.71-.28,293.56-.01,7.81,.02,10.02-1.94,9.98-9.89Zm180.68-340.12c.07-10.03-3.3-11.41-12.06-11.36-56.17,.36-112.34,.18-168.52,.18s-113.15,.17-169.72-.19c-8.43-.05-11.65,1.17-11.44,10.8,.73,32.87,.61,65.77,.06,98.64-.15,8.82,1.81,11.4,11.07,11.33,58.17-.48,116.36-.26,174.53-.23,16.59,0,19.27,2.76,19.28,19.67,.02,30.08,.32,60.16-.2,90.23-.14,8.34,1.97,10.72,10.51,10.63,44.93-.45,89.88-.54,134.81,.05,9.81,.13,11.64-2.92,11.6-12-.36-72.59-.44-145.17,.07-217.76Zm204.66-181.04c.05-9.54-2.91-10.86-11.39-10.82-68.21,.34-136.42,.19-204.63,.19s-138.03,.13-207.04-.18c-7.92-.04-10.94,1.2-10.84,10.12,.5,45.31,.57,90.64-.04,135.95-.13,9.79,3.41,10.74,11.66,10.71,74.23-.29,148.46-.19,222.69-.16,15.9,0,18.72,2.89,18.73,19.01,.03,34.09,.33,68.18-.21,102.26-.14,8.81,1.81,11.41,11.07,11.33,52.96-.5,105.93-.5,158.89,0,9.26,.09,11.09-2.52,11.06-11.32-.34-89.03-.39-178.06,.06-267.1Zm20,645.44c-4.45,8.05-9.23,15.93-14.26,23.63-7.37,11.28-16,13.81-28.89,9.01-5.96-2.22-21.56,4.52-23.99,10.36q-9.53,22.93-33.68,22.94c-1.6,0-3.21,0-5.67,0-7.07-.45-15.22,1.29-22.85-2.28-5.36-2.51-10.41-6.66-10.69-12.14-.54-10.36-7.37-13.84-14.77-18.15-4.44-2.59-7.66-2.5-12.05-.41-10.64,5.05-19.91,1.78-26.44-7.16-6.35-8.69-11.79-18.13-16.83-27.66-5.39-10.21-2.85-19.27,5.9-26.78,8.04-6.91,8.16-20.57,.44-27.37-10.16-8.95-11.7-17.69-4.87-29.78,4.33-7.65,8.83-15.23,13.63-22.59,7.32-11.24,15.93-13.85,28.9-9.24,8.58,3.05,22.39-4.69,24.69-13.81,3.45-13.71,9.62-18.88,23.48-19.17,9.62-.2,19.25-.27,28.86,.06,11.38,.39,18.56,6.15,21.24,17.5,2.8,11.85,14.97,18.13,26.66,14.43,10.81-3.42,19.92-.49,26.25,8.93,5.57,8.29,10.81,16.84,15.57,25.62,5.73,10.58,3.63,19.55-5.66,27.82-8,7.13-8.05,20.36-.1,27.44,9.74,8.68,11.46,17.35,5.12,28.81Zm-24.26-72.89c.83-.55,1.16-1.88,1.8-2.99-3.42-5.64-6.31-11.42-10.17-16.46-3.5-4.57-7.18,.43-10.65,1.23-5.42,1.23-10.49,.62-15.19-1.78-7.82-3.98-15.62-8.1-22.99-12.85-3.21-2.07-7.48-5.75-7.59-8.83-.53-15.38-11.32-11.94-20.28-11.99-3.75-.02-7.32-1.05-9.05,4.89-5.59,19.18-32.54,33.97-51.87,28.7-10.33-2.82-8.35,7.31-12.37,10.98-2.63,2.41-5.88,5.72-.45,10.75,13.18,12.2,13.17,45.23,.16,57.39-4.41,4.12-3.43,6.83-.5,9.7,4.25,4.15,2.84,14.42,13.17,12.1,20.21-4.55,46.22,9.61,51.95,28.81,2.63,8.82,9.15,4.75,13.77,4.76,4.6,0,11.1,4.05,13.7-4.83,5.62-19.19,31.6-33.25,51.98-28.64,3.02,.68,5.5,1.51,7.03-1.89,3.52-7.84,15.47-15.2,1.14-24.12-2.58-1.61-4.43-5.23-3.9-8.45,2.56-15.67-8.11-34.32,10.31-46.5ZM665,80.45c-9.23,.09-13.32,1.22-12.82,11.98,.43,9.16,1.32,13.5,12.12,12.85,8.94-.54,15.25-.84,12.08-12.07,2.64-10.08-1.36-12.86-11.38-12.75Zm47.19,24.83c8.91-.38,13.7-.84,13.05-11.9-.52-8.81-.72-13.97-11.85-12.88-8.15,.8-15.99-.59-12.36,11.53-2.05,9.35,.29,13.71,11.15,13.25ZM279.66,405.35c-9.38,0-13.15,1.45-12.75,12.06,.35,9.31,1.55,13.34,12.2,12.78,9.08-.48,15.13-1.08,12-12.16,2.75-10.25-1.61-12.67-11.46-12.67Zm35.47,11.74c.43,8.75,.59,13.8,11.82,13.12,8.9-.54,13.85-.91,12.97-11.95-.68-8.43,.14-15.73-11.68-12.26-9.35-2.1-13.63,.33-13.1,11.09Zm144.02-156.03c-11.55-1.47-10.91,4.66-11.59,13.04-.93,11.49,4.75,11.07,13.24,11.66,11.37,.78,12.58-4.61,10.96-13.51,3.78-12.59-4.97-10.22-12.6-11.19Zm49.4-.1c-9.08,.18-13.48,.99-12.88,11.91,.5,9.01,1.09,13.65,12.04,12.91,8.81-.6,15.37-.62,12.16-11.98,2.53-9.92-1.13-13.04-11.32-12.84Zm204.21,409.19c.1,26.4-21.59,48.3-47.93,48.42-26.33,.12-48.16-21.57-48.32-48.02-.17-26.54,21.29-48.12,47.91-48.19,26.7-.06,48.24,21.23,48.34,47.78Zm-24.11,.44c.15-13.48-10.8-24.31-24.39-24.12-13.04,.18-23.58,10.75-23.64,23.68-.06,13.33,11.17,24.52,24.4,24.32,12.67-.19,23.48-11.13,23.63-23.88Z"/>
</svg>