<?xml version="1.0" encoding="UTF-8"?>
<svg id="Layer_1" data-name="Layer 1" xmlns="http://www.w3.org/2000/svg" viewBox="0 0 14 14">
  <defs>
    <style>
      .cls-1 {
        fill: #393939;
      }

      .cls-2 {
        fill: none;
      }
    </style>
  </defs>
  <rect class="cls-2" width="14" height="14"/>
  <path class="cls-1" d="M.53,6.55c.06-.14,.06-.3,.1-.45,.35-1.61,1.7-2.88,3.34-3.12,1.37-.2,2.55,.19,3.54,1.17,.73,.72,1.46,1.46,2.19,2.19,.71,.71,.48,1.88-.43,2.26-.52,.22-1.11,.1-1.52-.31-.68-.68-1.35-1.35-2.03-2.03-.17-.17-.38-.23-.61-.16-.24,.07-.38,.24-.43,.48-.04,.19,0,.38,.15,.51,.82,.82,1.6,1.66,2.46,2.44,1.17,1.06,3.08,1.04,4.27,0,.63-.55,1.02-1.23,1.14-2.05,.25-1.76-.91-3.33-2.55-3.7-.56-.13-1.12-.1-1.67,.06-.27,.08-.51-.12-.49-.4,.01-.17,.12-.29,.31-.34,.47-.14,.95-.19,1.44-.15,.85,.07,1.62,.37,2.28,.92,.83,.69,1.31,1.57,1.46,2.64,0,.03-.01,.06,.03,.08v.88c-.06,.1-.05,.22-.07,.33-.32,1.67-1.68,3-3.37,3.24-1.37,.2-2.55-.19-3.54-1.17-.73-.72-1.46-1.46-2.19-2.19-.69-.7-.49-1.82,.39-2.24,.52-.24,1.14-.13,1.56,.29,.68,.67,1.35,1.35,2.03,2.03,.18,.18,.39,.24,.62,.17,.24-.07,.38-.24,.43-.48,.04-.19,0-.38-.15-.51-.81-.81-1.59-1.67-2.45-2.42-.96-.84-2.09-1.03-3.28-.59-1.18,.43-1.9,1.31-2.12,2.55-.19,1.12,.13,2.1,.93,2.89,.89,.88,1.98,1.15,3.2,.85,.16-.04,.3-.05,.43,.06,.11,.09,.15,.21,.13,.35-.03,.16-.13,.26-.28,.31-.41,.12-.83,.17-1.26,.16-1.96-.05-3.61-1.5-3.91-3.45,0-.05,0-.12-.04-.16v-.91Z"/>
</svg>