<?xml version="1.0" encoding="UTF-8"?>
<svg id="Layer_1" data-name="Layer 1" xmlns="http://www.w3.org/2000/svg" viewBox="0 0 14 14">
  <defs>
    <style>
      .cls-1 {
        fill: #393939;
      }

      .cls-2 {
        fill: none;
      }
    </style>
  </defs>
  <rect class="cls-2" width="14" height="14"/>
  <path class="cls-1" d="M7.48,7.24c-.18-.18-.22-.3,0-.51,.96-.93,1.89-1.89,2.84-2.83,.28-.28,.28-.42,0-.7-.59-.59-1.18-1.19-1.77-1.77-.33-.33-.75-.49-1.21-.47-.46,.02-.84,.22-1.17,.56-1.75,1.78-3.52,3.54-5.28,5.31v.28c.2,.2,.4,.41,.6,.61,1.58,1.58,3.16,3.17,4.74,4.75,.66,.66,1.63,.7,2.27,.08,.64-.61,1.25-1.24,1.87-1.87,.22-.22,.21-.34,0-.56-.96-.96-1.91-1.92-2.87-2.88Zm2,3.29c-.49,.47-.96,.96-1.44,1.43-.4,.4-.88,.39-1.29-.01-1.6-1.6-3.2-3.21-4.81-4.8-.14-.14-.16-.21,0-.36,1.57-1.56,3.14-3.14,4.71-4.7,.53-.54,.96-.56,1.51-.03,.48,.45,.92,.94,1.38,1.41,.14,.14,0,.19-.07,.25-.95,.95-1.9,1.91-2.85,2.86-.08,.08-.17,.14-.2,.26,.02,.09,.02,.18,0,.27,.03,.11,.12,.17,.19,.24,.96,.96,1.91,1.92,2.88,2.87,.12,.12,.14,.19,0,.32Zm3.61-4.5c-.49-.49-.98-.99-1.47-1.48-.14-.14-.3-.08-.42,.03-.71,.7-1.42,1.41-2.12,2.12-.15,.15-.16,.34,0,.5,.7,.71,1.41,1.42,2.12,2.12,.16,.16,.33,.15,.5-.03,.32-.34,.66-.68,1-1,.33-.31,.62-.63,.71-1.08v-.5c-.1-.23-.13-.49-.32-.68Zm-.41,1.12c-.22,.57-.73,.89-1.12,1.32-.08,.08-.17,.1-.28-.01-.42-.44-.86-.87-1.29-1.3-.11-.11-.15-.2,0-.33,.45-.44,.9-.89,1.34-1.34,.08-.09,.16-.13,.25-.04,.39,.42,.89,.75,1.12,1.32,.05,.13,.05,.25,0,.38Z"/>
</svg>