<?xml version="1.0" standalone="no"?>
<!DOCTYPE svg PUBLIC "-//W3C//DTD SVG 1.1//EN" "http://www.w3.org/Graphics/SVG/1.1/DTD/svg11.dtd" >
<svg xmlns="http://www.w3.org/2000/svg">
<metadata>Generated by IcoMoon</metadata>
<defs>
<font id="icomoon" horiz-adv-x="1024">
<font-face units-per-em="1024" ascent="960" descent="-64" />
<missing-glyph horiz-adv-x="1024" />
<glyph unicode="&#x20;" horiz-adv-x="512" d="" />
<glyph unicode="&#xa900;" d="M38.26 535.82q0 131.8 0 263.56c0 66.7 50.72 118.32 117.56 118.4q358 0.48 716 0c66.52 0 118-50.38 118.32-118.12q1.42-262.56 0-525.14c-0.38-70.88-51.54-120.6-124-121.56-84-1.12-168-0.54-251.86 0.52-13.24 0.16-21.060-6.72-29.66-13.12q-103.26-76.66-205.76-154.36c-10-7.56-19.82-11.9-30.88-7.4-12.3 4.98-12.66 17.3-12.66 28.78q0 56.48 0 112.96c0 31.56 0 31.56-32.6 31.58-47.6 0-95.2-0.2-142.8 0-72.24 0.34-121.62 50.1-121.64 122.26q-0.040 130.86-0.020 261.64z" />
<glyph unicode="&#xa901;" d="M558 622q0-49.5 0-98.98c0-14.3-2.84-27.8-14.6-37.36-13.42-10.94-28.7-12.94-44.68-6.64s-24.52 18.5-24.6 35.12c-0.32 72.54-0.64 145.12 0.54 217.66 0.38 23.080 17.68 36 41.44 35.76s40-13.24 40.9-36.72c1.46-36.24 0.38-72.56 0.38-108.84zM573.16 370l-5.34 10.44c-13.62 26.58-41.42 37.58-72.3 28.58-25.12-7.32-39.7-31.8-37.24-62.52 2.12-26.46 22.2-46 50.72-49.3s47.2 8.6 64.12 41.58c2.050 4.606 3.243 9.98 3.243 15.633 0 5.635-1.186 10.993-3.322 15.839l0.099-0.252z" />
<glyph unicode="&#xa902;" glyph-name="complain-management" d="M988 790c1.060 72-49.060 133.7-132.56 132.68-115.22-1.42-230.48-0.36-345.72-0.36-117.22 0-234.44 0.3-351.68-0.1-73.44-0.22-123.36-50.74-123.36-123.72q0-258 0-516c0-80.22 46.64-126.98 127.060-127.16 49.66-0.1 99.36-0.7 149 0.36 16.92 0.36 21.22-5.16 20.76-21.4-1.12-39.66-0.24-79.36-0.46-119.060-0.034-0.844-0.053-1.834-0.053-2.83 0-8.753 1.484-17.16 4.214-24.982l-0.162 0.532c5.64-15.040 17.64-19.8 31.6-12.22 6.183 3.701 11.493 7.444 16.507 11.535l-0.247-0.195c67.76 50.92 135.6 101.62 203.1 152.92 10.7 8.14 21.58 11.14 34.78 11.060 80.14-0.38 160.28-0.22 240.4-0.18 75.7 0 126 50 126 125.26 0.020 171.3-1.74 342.66 0.82 513.86zM958.84 279.86c-0.16-48.88-22.92-81.18-62-93.84-12.82-4.14-26-4.18-39.28-4.18-82.74 0-165.5-0.2-248.24 0.14-0.45 0.014-0.979 0.021-1.51 0.021-12.56 0-24.109-4.325-33.241-11.566l0.111 0.085c-65.4-49.48-131.28-98.32-197.080-147.26-4.62-3.44-9.32-10.1-15.14-7.78-7.68 3.060-4 11.6-4 17.66-0.3 42.98-1 86 0.26 128.92 0.5 16.58-5.56 20.14-20.5 20-59.58-0.58-119.16-0.36-178.72-0.2-61.34 0.16-97.78 36.28-97.82 97.18q-0.18 258.84 0 517.68c0 55.6 32 92.62 87.34 94.8 69.38 2.72 138.92 1.46 208.4 1.7 51.64 0.18 103.28 0 154.9 0 113.2 0 226.4-0.34 339.58 0.18 43.1 0.18 78-12.86 98.18-53.48 6.98-14 8.82-29.28 8.84-44.38q0.42-257.84-0.080-515.68zM522.84 597.86c0-41.56 0-83.14 0-124.7 0-10.38-0.1-22.2-13.44-22s-13.54 12.54-13.56 22.48q-0.24 124.7 0 249.42c0 9.3 0.22 20.46 12.84 20.76 13.8 0.32 14.22-10.68 14.18-21.22-0.18-41.62-0.080-83.18-0.080-124.76zM509.12 335.5c-17.72 0.14-27.28 9.74-27 26.44 0.3 17.82 12.28 24 26.9 25.66s29.16-12.72 29.12-26.34c-0.14-15.26-12.14-25.94-29.080-25.78z" />
<glyph unicode="&#xa903;" d="M906 670.44c0 9.12 0.66 18.72-10 24.28-55.58-3.12-111.22-1.020-166.84-1.28-22.76-0.1-45.68-2.26-68.42 1.72-10.18 4.22-8.58 12.68-8.58 20.44 0 64.4-0.4 128.8 0.22 193.2 0.067 2.441 0.757 4.708 1.915 6.664l-0.035-0.064c-5.16 8-13.76 8.38-22.5 8.38-133.14 0-266.28 0.62-399.42-0.26-61.16-0.42-100.96-37.52-100.98-91.52q-0.24-382.96 0-766c0-54 40-90 99.24-90q288.2-0.12 576.46 0c58.42 0 98.56 35.3 98.66 88.36q0.64 303.060 0.28 606.080zM257.64 776.98c0.72 22 7.84 28.22 33.2 28.26q66.7 0 133.36 0c22.58 0 30.24-6.5 31.6-26 1.68-23.86-5.54-34.42-28.12-35.8-23.56-1.44-47.3-0.32-70.96-0.32v-0.22c-22.22 0-44.48-0.6-66.68 0.16-25.92 0.94-33.18 9.080-32.4 33.92zM282.54 627.28c-21.020-0.4-25.020 11.36-24.94 26.96 0 16 1.38 32 24.48 32.3 49.6 0.64 99.22 0.54 148.82 0 18.86-0.18 25.24-9.48 24.98-31.66-0.2-16.42-4.6-28.36-26.68-27.7-24.42 0.74-48.88 0.16-73.32 0.18s-48.9 0.38-73.34-0.080zM695.64 330.12c-59 0.62-118 0.24-177 0.24s-118 0.34-177-0.22c-14.52-0.14-20.68 3.42-20.16 17.7 1 28.26 0.66 56.58 0.12 84.86-0.22 11.9 3 18.24 17.88 18.2q179.12-0.48 358.3 0c12.94 0 17.72-4.1 17.4-16.2-0.78-28.92-1.060-58 0-86.82 0.64-14.18-4.74-17.88-19.54-17.76z" />
<glyph unicode="&#xa904;" d="M896 694.72c-2.72-12.42-13.8-7.16-20.9-7.2-73.74-0.44-147.46-0.2-221.2-0.16-5.52 3.44-5.6 8.64-5.6 14q0 103.16 0 206.32c-0.017 0.184-0.026 0.398-0.026 0.614 0 2.559 1.321 4.81 3.318 6.108l0.028 0.017c0.17-0.041 0.366-0.064 0.567-0.064 0.84 0 1.586 0.408 2.048 1.037l0.005 0.007zM775.62 314.14c0-31.48-0.62-36.68-32.58-43.54-15.040-4.6-18.36-2.14-26.78-2.14q-197.7-0.18-395.36 0c-8.44 0-14.9-2.46-24.88 2-30 6.62-34.74 14-34.82 42.6-0.12 52 0.14 104 0 156-0.1 20 6.62 34.86 30.76 38.36 0.735 0.21 1.578 0.33 2.45 0.33s1.715-0.12 2.515-0.346l-0.065 0.016c12.14-0.46 24.3-1.32 36.46-1.32q201.52-0.14 403.060 0c31.54 0 39.3-7.16 39.32-36.12q-0.040-77.98-0.080-155.84zM715.26 347.86c-1.14 28.9-0.86 57.9 0 86.82 0.32 12.1-4.46 16.22-17.4 16.2q-179.16-0.38-358.3 0c-14.88 0-18.1-6.3-17.88-18.2 0.54-28.28 0.88-56.6-0.12-84.86-0.52-14.28 5.64-17.84 20.16-17.7 59 0.56 118 0.22 177 0.22s118 0.38 177-0.24c14.72-0.1 20.1 3.6 19.54 17.76zM584.88 100.3c5.721-3.707 12.716-5.911 20.226-5.911 0.315 0 0.628 0.004 0.941 0.012l-0.046-0.001c49.48 0.24 98.96-0.24 148.44 0.28 27.8 0.3 19.86 20.16 21.3 34.76 1.52 15.18-5.62 21.3-22.38 21.1-53.060-0.58-106.12-0.38-159.18-0.48-18.18-2.060-12.98-33.060-9.3-49.76z" />
<glyph unicode="&#xa905;" glyph-name="Payroll" d="M906 595.54c0 21.76-8.12 39.16-25.1 54.62q-137.2 124.82-273.26 250.72c-17.44 16.14-37.020 23.26-61.64 23.12-89.2-0.5-178.44-0.2-267.66-0.2-80.34 0-122.76-28.56-145.76-98.34-3.52-6.22-2-12.94-2-19.44q-0.12-357.1 0-714.14c0-6.5-1.58-13.24 2.18-19.4 21.86-68.8 63.44-97.36 141.54-97.36h492.14c84.6 0 138.9 47.74 139.22 125 0.68 165.14 0.1 330.28 0.34 495.42zM584.58 877.36c6 2.82 8.6-3.3 11.78-6.22q128.14-117.3 256-234.88c2.442-2.708 4.811-5.648 7.013-8.716l0.207-0.304c-8-0.8-12-1.56-16-1.56-68.22 0-136.44-0.32-204.66 0.24-38 0.3-56.66 17.78-56.98 52.92-0.54 62-0.24 124-0.1 186-0.1 4.22-2.7 9.98 2.74 12.52zM875.42 97.6c-0.18-58.2-41.020-95.24-104.6-95.36q-251.36-0.56-502.74 0c-66.48 0-107.28 37.76-107.48 99.16-0.34 116.22 0 232.44 0 348.64q0 169.38 0 338.74 0 108.3 118.12 108.42c82.72 0 165.44-0.5 248.14 0.36 19.84 0.22 25.86-5.42 25.58-23.62-1.080-65.36-0.5-130.74-0.4-196.12 0-48.36 33.52-79.38 86-79.5 72.64-0.16 145.3-0.32 218 0.22 14.48 0.1 20.14-3.040 20-17.56-0.64-161.16-0.040-322.28-0.62-483.38zM775.72 463.86c0 36.58-6.8 43-45.72 43h-424.7c-36 0-45-7.84-45.14-40.26q-0.3-77.2 0-154.38c0.14-32 8.86-40 43.36-40q107.8-0.22 215.58 0c70.42 0 140.86-0.12 211.28 0 39.34 0 45.36 5.8 45.36 41.2q-0.060 75.24-0.020 150.44zM746.2 315.4c0.16-12.22-4.36-15.9-17.42-15.86q-210.38 0.46-420.78 0.12c-8.24 0-16 0-19.78 8.3-5.22 22.12-2.18 44.52-2 66.74 0.24 32.12-3.14 64.36 2 96.4 4.28 9.14 12.96 8.88 21.78 8.88q208.24 0 416.46 0.18c14.86 0 20-4.14 19.82-18.18-0.82-48.84-0.68-97.72-0.080-146.58zM355.6 658c-24.4 0-48.8-0.18-73.2 0.12-10.66 0.12-21.34 2.28-20.3 14.98 0.92 11.28 10.84 12.14 20.82 12.12q73.22-0.16 146.42 0c11.020 0 21.32-1.1 21.28-13.66 0-12.92-11.66-13.38-21.82-13.5-24.4-0.34-48.8-0.060-73.2-0.060zM354.64 777.26c-23.64 0-47.3-0.14-70.94 0-10.48 0-21.4 1.34-21.6 13.88-0.2 11.7 10.16 13.14 19.82 13.18q75.2 0.24 150.44 0c10.52 0 18.96-3.44 18.42-14.52-0.5-10.48-9.88-12-18.76-12-25.78-0.28-51.58-0.1-77.38-0.1zM680.44 93.26c-23.72 0-47.44 0-71.16 0-11.36 0-23.48 0.54-23.42 14.12 0 14.18 13.2 13.28 24 13.3 47.44 0.14 94.86 0 142.3 0 10.7 0 22.24-1.020 22.6-12.94 0.4-13.18-11.56-14.62-23.14-14.56-23.76 0.060-47.46 0-71.18-0.020z" />
<glyph unicode="&#xa906;" d="M738.24 554.58c0-10.14 0.4-20.28 0-30.4-2.12-44.72-49.62-83.040-93.76-76.5-6.9 1.020-9.5 5.38-12.94 9.72-26.66 33.62-61.22 49.68-104.3 47.58-28.88-1.38-58 2.98-86-9.14-40-17.28-62.44-47.6-71.48-89.14-1.040-4.74 1.84-11.66-3.58-13.76-6.82-2.64-11.46 3.66-15.86 8-35.82 34.74-58 77.36-63.9 126.32-9.48 77.74 10.52 146.92 69.26 201.9 36.86 34.48 80.68 52.7 131.020 58 74.14 7.76 137.8-14.12 189.34-66.8 44.28-45.52 64.96-101.68 62.2-165.78z" />
<glyph unicode="&#xa907;" d="M510-8h-340.36c-41.74 0-58.92 18.44-56.58 60 7.42 131.12 120.62 224.78 235.080 222 109.58-2.68 219.28-0.58 328.94-0.58 0.194 0.001 0.424 0.001 0.653 0.001 117.81 0 214.984-88.352 228.877-202.411l0.11-1.109c0.74-6.28 2.4-12.46 2.98-18.74 3.52-37.82-15.7-59.16-53.7-59.16q-172.98 0-346 0zM224.24 573.68c1.3 7.48 2.96 14.92 3.84 22.46 22.38 191.74 228 307 402.52 224.84 121.3-57.12 176.86-172.22 166-300.2-4.7-54.96-31.9-95.16-82.28-118.7-32.68-15.28-67.84-13.040-102.6-14-11.1-0.28-15 3.56-17.58 14.24-7.060 29.34-25.6 43.4-56 44.18-17.74 0.46-35.52 0.42-53.26 0-34.72-0.8-56.8-22.22-57.42-55.12-0.66-33.84 19.28-57.22 54.4-57.4 65.88-0.34 131.84-3.82 197.66 2.34 74.84 7 147.6 66.96 164.9 140 17.72 74.78 10.22 148.88-19.52 219.38-75.86 179.88-283.060 253.64-454.26 176-134.34-60.84-208.2-188.36-200.34-337.16 0.7-13.32 4.96-23.86 18.62-27.58s25.18-1.12 31.84 12.9c5.040 17.68-1.3 36.14 3.48 53.82z" />
<glyph unicode="&#xa908;" glyph-name="Helpdesk" d="M906.78 64.5c-0.36 8.1-2.4 16.12-3.28 24.2-12.12 110.48-112 200-223.54 200q-164.82 0-329.66 0c-124.94 0-225.36-94.58-233.060-219.5-2.54-40.96 14.76-59.2 55.96-59.2h397.48q142.24 0 284.44 0c34.98 0 53.3 19.46 51.66 54.5zM850.4 35.76q-144-0.18-288.2 0h-50.86q-166.7 0-333.42 0c-30.8 0-36.36 6-34 36.8 7.709 106.481 95.769 190.006 203.435 190.46h0.045q164.86 0.48 329.66 0c110.16-0.48 201.56-91.020 203.74-201.020 0.36-18.82-7.8-26.2-30.4-26.24zM813.7 633.76c-34.98 181.26-213.9 292.24-390.040 238.72-176.8-53.8-234.5-203.14-221.88-365.78 0.54-6.84 3.76-12.64 11.1-13.040 7.86-0.42 13.060 4.64 14.22 12.28 0.379 3.587 0.595 7.749 0.595 11.961 0 2.413-0.071 4.809-0.211 7.187l0.015-0.328c-0.46 38.32-0.34 76.54 7.74 114.34 28.12 131.46 160.24 240.28 317.76 217.8 128-18.24 235.58-134.12 240.48-263.72 1.423-15.856 2.235-34.298 2.235-52.93s-0.812-37.075-2.401-55.295l0.166 2.365c-1.36-25.88-11.080-48.86-25.54-69.8-41.28-59.78-101.72-73.040-169.22-68.86-10.12 0.64-8 5.5-6.2 12.64 8.76 34.96-8.46 62-44 70.26-19.88 4.62-40.1 2.38-60.12 2.14-36.54-0.44-59.62-22.8-59.7-56.3 0-33.9 22-54.64 60.14-54.98 49.020-0.44 98-0.64 147.060 0 83.28 1.080 150.14 45.8 174 119.52 20.4 63.020 16.1 128.060 3.8 191.84zM568.88 375.26c-1.18-15.060-10.16-24.24-25.32-25.56-10.56-0.94-21.28-0.18-32-0.18s-21.38-0.86-32 0.2c-15.1 1.5-24 10.84-24.96 25.9-0.98 15.52 5.88 27.64 21.78 30.64 10.56 2.088 22.702 3.283 35.123 3.283 12.684 0 25.076-1.246 37.062-3.622l-1.205 0.199c16.080-3.080 22.76-15.34 21.52-30.86zM736.46 546.86c1.52-46.34-13.18-87.54-38.68-125.48-5.76-8.58-12-18.68-23.62-10.22-10.78 7.84-2.9 16.98 2.12 24.68 43.24 66.38 46 135.4 10.94 205.36-39.12 78.18-132.84 120.8-217.88 100.98-89.46-20.74-152.9-97.22-155.86-186.58-1.44-43.5 9.16-83.12 33.14-119.38 4-6 10.66-11.44 6.44-20.18-5-10.34-16.1-9.42-25.14 2.76-31.68 42.7-43.52 91.12-40.54 143.64 6 104 91.88 195.26 192.8 208.16 126 16.12 220.74-68.6 246.62-157 3.002-9.598 5.707-21.35 7.576-33.38l0.184-1.44c1.54-10.52 1.44-21.28 1.9-31.92z" />
<glyph unicode="&#xa909;" d="M781.24 616.44c-22 126.84-123.1 216.7-252 224.12-80.84 4.64-150.92-21.6-209.44-80.28-93.36-93.58-103.58-246.28-22-351.12 37.2-47.8 71.6-96.76 92.78-154 4.8-4.56 10.88-4.58 16.88-4.6q105.52-0.2 211 0c6.66 0 13.080 0.64 18.7 4.66 20.032 52.598 47.071 97.968 80.579 137.705l-0.579-0.705c54.94 65.36 78.72 140 64.080 224.22zM537.62 712.24c-3.32-12.82-12.7-18.18-25.54-19.3-74.58-6.42-116.34-48-121.66-121.020-1.14-15.76-10.18-24.38-25.32-24.12s-24.24 9.22-24 25.32c1.3 62.3 29.44 109.84 80.98 144 25.32 16.76 53.58 24.24 82.24 25.58 8.98-0.62 16.96 1.46 23.56-4.18 8.24-7 12.48-15.68 9.74-26.28z" />
<glyph unicode="&#xa90a;" d="M633.82 248.26c3.74-5.38 2.78-11.54 2.8-17.52 0-18.64-2-37.58 0.46-55.88 5.32-38.76-11.32-69.060-33.4-97.88-11.32-14.78-26.42-22.82-45.22-22.94-29.62-0.16-59.24 0-88.86 0-8.42 0-17.5 0.86-23.64 5.74-28 22.22-51.6 48.56-54.14 86-2.28 33.28-0.42 66.86-0.38 100.32 3.54 6.64 9.88 5.86 15.82 5.88q106.38 0.12 212.74 0c4.88-0.16 10 0.3 13.82-3.72zM83.46 785.12c-4.86-16.12 0.54-32.22 15.38-41.12q41.48-25.12 83.7-48.98c20.94-11.84 42-6.9 53.060 10.78 9.74 15.58 3.7 41.34-17.2 52.74-25.96 14.1-51.28 29.46-76.7 44.48-7.32 4.36-15.080 6.26-25.44 6.76-0.145 0.002-0.315 0.004-0.486 0.004-15.357 0-28.301-10.334-32.257-24.428l-0.057-0.236zM140.18 287.24c25.4 14.98 50.98 29.66 76.38 44.66 22.48 13.28 28.7 32.42 17.26 52.18-11.040 19.12-30 23.88-52.2 11.58-28.14-15.66-55.86-32.16-83.46-48.76-14-8.4-19.26-24-14.9-39.68s16.9-25.58 34.98-26c7.020-0.64 14.64 1.72 21.94 6.020zM943.080 306.12c5.26 16.56-0.84 33.64-17.52 43.72q-40 24.18-80.92 46.64c-20 11.040-42.2 5.86-51.84-10.92-10.8-18.78-3.88-40.82 17.060-53.080 25.46-14.92 51.16-29.42 76.66-44.3 7.28-4.24 14.82-6.96 21.4-6.7 16.66 0.1 30.66 10.52 35.16 24.64zM889.48 804.48c-26.92-14.64-53.28-30.28-79.6-46-21.66-12.9-27.44-33.16-16-52.96 10.16-17.44 30.74-22 51.76-10.24 26.36 14.72 52.36 29.72 78.36 45.020 12.4 7.36 20.38 18.12 20.78 30.14 0.18 31.56-29.1 48.3-55.3 34.040zM922 580.48c-18.62 0-37.36 1.3-55.82-0.38-17.135-1.808-30.371-16.18-30.371-33.644 0-0.512 0.011-1.022 0.034-1.528l-0.003 0.072c0.54-17.2 12.42-31.76 30-33.72 35.46-4 71.18-3.060 106.66-0.78 22.6 1.46 34.38 16.2 33.8 36.66-0.56 19.82-14 32.96-36.7 34.16-15.86 0.84-31.78 0.16-47.68 0.16zM57.26 581.38c-21.6-1.16-35.86-15.6-36.28-35.1-0.38-19.1 12-33.2 33.54-35.42 33.86-3.46 68-2.4 101.84-0.7 23.58 1.2 35.3 15.74 34.5 37.38-0.78 20.76-13.040 32.64-36.56 33.84-15.86 0.8-31.8 0.16-47.7 0.16-16.44-0.040-32.94 0.66-49.34-0.22z" />
<glyph unicode="&#xa90b;" glyph-name="idea-management" d="M782.46 569.54c0.2-66-20.94-124.52-63.62-175.040-32.46-38.44-59.26-80.1-75.1-128.28-2.7-8.18-5.58-18.62-17.66-14-10.76 4.12-6.94 13.060-4.2 21 18.301 51.289 44.414 95.52 77.352 133.696l-0.452-0.536c124.48 146.58 49.8 368-138 407.5-134.18 28.18-269.62-61.76-294.26-196-14.3-78 4.8-147.42 55.1-208.78 32.1-39.18 59.16-81.58 77.32-129.2 1.189-2.891 2.4-6.528 3.39-10.255l0.15-0.665c2-7.74 0.84-14.82-8-17.020-8.14-2-11.72 3.62-14 10.54-14.339 43.038-35.064 80.305-61.42 112.823l0.52-0.663c-23.7 29.66-46.68 59.22-61.34 94.82-61.98 150.52 30.48 327.060 189.16 364.26s314.26-69.44 334.9-234.62c1.22-9.7 0.16-19.7 0.16-29.58zM592.72 69.040c-9.28-10.8-23.14-14.46-37.24-14.62-29.040-0.32-58-0.26-87.12 0-0.322-0.007-0.701-0.011-1.082-0.011-17.542 0-33.123 8.399-42.94 21.395l-0.098 0.136c-21.82 27.9-41.4 56-36.16 94.9 2.92 21.7 7.32 29.66 29.88 30.28 30.66 0.84 61.36 0.22 92 0.22v0.14c29.040 0 58 0.3 87.12-0.1s35.22-8.52 37.24-37.66c2.78-39.48-18.32-67.54-41.6-94.68zM611.34 162.18c-0.92 10.4-3.32 14.5-14.22 14.28-28.5-0.6-57-0.2-85.48-0.2-29.060 0-58-0.32-87.14 0.16-9.82 0.16-12.1-3.26-13.66-13-4.84-29.9 14.96-48.96 28.32-71.060 6.92-11.44 17-16.3 30.16-16.22 28 0.16 55.88 0 83.84 0 7.82 0 16.26 0.28 21.3 6.68 18.42 23.48 39.82 45.48 36.88 79.36zM326.68 568c-0.6-7.88-0.4-16.62 9.68-18 10.44-1.42 12 6.6 13.060 14.88 2.56 19.52 4.4 39.3 12.68 57.52 28.36 62.42 77.9 94.16 145.36 99.48 6.78 0.54 14.32-0.5 14.38 8.84s-6.66 11.68-14.72 11.56c-2.74 0-5.48 0-8.22 0-94.9-6.88-164.9-77.58-172.22-174.28zM192.22 456.6q-56.7-28.2-113.26-56.6c-8.14-4-14.22-10-9.56-19.5s12.96-6 20-2.48q56.74 28.12 113.28 56.58c3.086 1.458 5.729 3.314 8.005 5.545l-0.005-0.005c3.36 3.54 3.14 8.14 1.36 12.34s-5.6 6.58-11.62 6.7c-3.166-0.731-5.903-1.638-8.523-2.763l0.323 0.123zM850.8 619.32c-8.42 0-16.78-1.8-16.8-11.34s8.4-11.26 16.78-11.26q68.14 0.12 136.26 0c8 0 16.58 0.38 16.46 11.040-0.12 10.16-8.12 11.54-16.44 11.52-23 0-46 0-68.96 0-22.44-0.020-44.86-0.1-67.3 0.040zM36.56 619.32c-8.68 0-18-0.84-17.76-12 0.28-10 9.26-10.54 17.3-10.54q67.48 0 134.96 0c8 0 16.52 0.5 16.72 11.1s-8 11.42-16.26 11.42q-32.9 0-65.84 0zM206.9 778.92q-61.020 30.56-122.14 60.94c-6.3 3.12-12 1.76-15.4-4.7s-0.94-12.2 5.14-15.28q60.94-30.86 122.18-61.1c8.62-4.22 14.84-0.72 16.42 8.24 0.040 5.86-2 9.72-6.2 11.84zM809.82 451.58c-2.28-8.2 3.2-12 9.36-15.080q56.5-28.26 113.040-56.48c7.7-3.86 16.26-7.76 21.18 2.48s-3.68 14.24-11.36 18c-37.36 18.24-74.64 36.64-112 54.9-3.38 1.66-7.040 2.8-9.24 3.66-6.68 0.060-9.72-2.9-10.98-7.48zM937.5 839.44c-40.32-19.88-80.5-40-120.7-60.14-6.82-3.42-10.22-8.84-6.28-16s10.28-7.16 17.040-3.78l117.66 58.86c5.14 2.58 9.36 5.82 9.020 13.6-2.080 8.26-7.88 11.82-16.74 7.46z" />
<glyph unicode="&#xa90c;" d="M512.36 922c-264.82-0.26-473.48-206.88-473.2-473.52s212.96-468.48 470.44-470.48c261.74-2 475.74 212.9 473.82 470.42 0.011 1.219 0.018 2.66 0.018 4.103 0 259.287-210.193 469.48-469.48 469.48-0.562 0-1.123-0.001-1.685-0.003h0.087zM214 391.64c-33.4 0.18-58.18 25.34-58 58.9 0.14 32.88 27.28 59.12 60.94 58.92s57.52-25.32 57.34-61.14c-0.18-36.44-21.92-56.9-60.28-56.68zM303.18 596.54c-33.72 0.34-57.14 25.7-56.82 61.54s23.5 57.1 62.2 56.6c31.014-0.364 56.016-25.59 56.016-56.656 0-0.472-0.006-0.944-0.017-1.413l0.001 0.070c-0.32-34.8-26.56-60.5-61.32-60.14zM512.18 686.44c-35.080-0.14-61.18 25.22-60.34 58.64 0.88 35.18 25.040 59.28 59.74 59.56 34.36 0.3 58-24.24 58-60.2 0.020-35.2-22.42-57.88-57.34-58zM806 391.64c-34 0-58.76 24.2-58.7 57.32-0.004 0.271-0.007 0.59-0.007 0.91 0 32.916 26.684 59.6 59.6 59.6 0.389 0 0.778-0.004 1.165-0.011l-0.058 0.001c33.14-0.16 59-26.72 58.84-60.46-0.16-34.2-24.84-57.44-60.84-57.36z" />
<glyph unicode="&#xa90d;" d="M715.24 631.1q-57.66-131.56-115.38-263.1c-2.44-5.58-4.88-11.36-0.58-16.6 14-17.040 20.28-37.32 25.8-58 2-11.84 8-33.66 2.14-45.54-5.86-12.94-8.12-17.42-14.96-30.38-21.52-40.64-70.74-67.38-114.38-60.72-54.74 8.34-93.34 46.56-102.9 96.54-9.4 49.24 22.76 114 77.66 128.88 11.76 3.2 22.82 9.54 35.52 8.6 7.34-0.54 11.1 3.74 13.1 9.58 12.58 36.64 31.5 70.52 45.9 106.46 20.6 51.32 44.46 101.36 67.82 151.54 15.6 33.52 61.48 36.52 80.2-2.1 1.47-3.758 2.321-8.109 2.321-12.66 0-4.49-0.829-8.787-2.344-12.745l0.082 0.245z" />
<glyph unicode="&#xa90e;" glyph-name="Dashboards" d="M512.34 918c-259.16 2-469.82-210.6-469.7-470.6 0.14-257.4 210.32-466.32 469.12-466.32 254-1.78 466.82 203.66 468.36 464.86 1.52 262.38-205.82 470.060-467.78 472.060zM510.46 7.68c-244.020 0.48-442.64 200.32-440.46 442.94s194 440 441.68 439.86c251.46-0.14 440.32-202.48 441.76-441.9-2.22-245.68-199.58-441.4-442.98-440.92zM724 694.76c-8.62 5.2-14.98 1.3-19.58-6.3-2.7-4.46-4.76-9.28-7.1-14-45.48-91-91.34-181.82-136-273.2-7.080-14.44-14.46-17.74-29.88-14.96-6.387 1.268-13.729 1.993-21.242 1.993-63.071 0-114.2-51.129-114.2-114.2 0-0.208 0.001-0.417 0.002-0.625v0.032c-0.12-53.2 35.32-99.7 86-112.74 8.736-2.339 18.765-3.682 29.109-3.682 43.998 0 82.319 24.307 102.267 60.225l0.304 0.597c25.26 45.32 16.96 105.12-22.54 139.56-15.62 13.62-9.5 24-3.12 36.74q55.060 110.24 110.14 220.48c10.18 20.42 19.9 41.060 30 61.52 3.84 7.54 3.26 14.040-4.16 18.56zM600.56 273.26c0.1-49-41.12-90.38-89.6-90-48 0.42-87.88 40.8-88.24 89.28 0 0.051 0 0.112 0 0.173 0 48.656 39.009 88.201 87.459 89.066l0.081 0.001c48.78 1 90.18-39.6 90.3-88.52zM833.18 479.26c0.52-16.54-10.82-28-27.78-28.26-16.4-0.18-26.78 9.56-27.68 26s10.52 29.24 26.4 29.84c0.317 0.013 0.689 0.020 1.062 0.020 15.344 0 27.806-12.343 27.998-27.642v-0.018zM510 745.3c-17.34 0.5-27.38 11.46-26.36 28.78 0.566 14.454 12.42 25.956 26.961 25.956 0.492 0 0.981-0.013 1.467-0.039l-0.068 0.003c16.54-0.34 27.84-12.24 27.3-28.8-0.58-17.42-10.78-26.44-29.3-25.9zM245.22 479.3c0.22-17.62-10-28.26-27.18-28.36s-28.64 11.44-28.28 27.84c0 0.007 0 0.016 0 0.025 0 15.049 11.872 27.325 26.762 27.973l0.059 0.002c0.492 0.032 1.066 0.050 1.644 0.050 14.934 0 27.040-12.106 27.040-27.040 0-0.172-0.002-0.344-0.005-0.516v0.026zM305.7 656c-15.48 0-26.7 11.54-26.96 27.46-0.3 17.78 9.78 28 27.54 27.88s26.36-8.76 26.54-26.4-10.4-29.14-27.12-28.94z" />
<glyph unicode="&#xa90f;" d="M510 932.98c51.5 0.48 96.98-7.16 142-19.4 17.060-4.62 17.58-10.66 5.72-22.22-24.6-24-48.78-48.44-72.94-72.9-8.18-8.3-17.24-11.42-29.080-10.18-143.52 14.92-260.080-34.56-343.7-151.88-90-126.4-86.42-301.66 6-425.62 61.18-82.14 143.64-130.5 245.76-143.28 120-14.98 223.62 20.56 308.66 105.9 57.82 58 90.62 129.18 99.54 211.38 3.22 29.64 5.58 58.82-0.3 88.24-2.12 10.68 1.12 19.22 9.32 27.1q37.2 35.7 73.16 72.68c10.74 10.98 17.56 11.080 21.84-4.88 44.82-166.9 15.3-318.46-94.92-452.5-72.44-88-166.16-142.88-277.72-163.28-148.36-27.14-283.34 5.86-400.44 102.3-101.28 83.4-158.3 191.6-173.080 322-14.68 129.56 19.68 245.7 98.18 348.24 77.84 101.8 182.58 161.32 308.34 182.84 25.66 4.48 51.94 8 73.66 5.46zM778.2 504.62c-1.18 6-2.44 11.88-8.76 14.96-25.86 12.6-55 7.020-73.12-16.12-15.4-19.66-36.84-33.28-36.1-65.7 2-89.56-96.1-160.54-183.32-137.42-67.22 17.8-121.020 76.1-116.2 160.54 4 70.48 67 139.74 137.28 139.040 30.4-0.3 48.92 12.12 70.12 30.62 22.5 19.62 24 40 18.9 65.66-2.6 13.26-8.8 20-22 21.020-56.82 4.44-113.16 4-166.1-20.94-115.7-54.74-174.34-165.3-155.060-292.92 23.8-157.54 175.28-254.14 325.88-221.12 129.62 28.42 212.74 135.44 213.14 271.58 0.82 14.9-1.2 32.92-4.76 50.8z" />
<glyph unicode="&#xa910;" d="M821.6 575.4c-29.24 4.5-58.52 8.68-87.66 13.66-12.52 2.12-21.38-1.6-30.42-10.58-52-51.7-104.78-102.8-157.22-154.16-24.3-23.76-44.3-25.82-64.86-6.52-19.26 18.12-18.28 45.22 4 67.86q76.56 77.72 154.4 154.34c10.56 10.38 15.28 19.86 11.88 35.2-5.5 24.92-8 50.46-12.36 75.66-3.42 20.14 1.7 37.36 16 51.78 31.44 31.5 62.64 63.12 94.42 94.28 19.54 19.22 39.88 15.46 51.12-10 12.24-27.7 23.74-55.78 34-84.28 5.46-15.24 13.9-24.52 29.42-29.7 26.78-8.96 52.94-19.74 79.38-29.68 30.78-11.56 36.64-35.68 13.64-59.16-29.2-29.86-58.98-59.16-88.5-88.7-13.040-13.020-28.34-20.4-47.24-20z" />
<glyph unicode="&#xa911;" glyph-name="Goal-Management" d="M487.56-40.34c-150.56 3.16-286.5 74.82-383.74 213.54-64 91.44-90.76 196.46-82.82 308.62 16 226.68 184.48 405.34 393.66 444.64 72 13.5 142.86 12.84 213.64-5.54 6.48-1.68 18.64-0.32 14.94-10.54-2.84-7.88-9.76-18.48-22.8-16-23.32 4.44-46.56 8.64-70.32 10.84-99.24 9.18-191.9-11.76-276.66-62.96-106-64.1-178.5-156-209.1-276.8-40.36-159.32-5.94-302.9 103.64-425.74 89.1-99.82 203.22-152 336.52-151.24 175.68 1.080 311 79.3 401.22 231.2 61.76 104 75.78 216 50.18 333.44-1.4 6.48-4 13.74 1.66 19.38 5.060 5.060 8.52 14.3 16.9 12.82 7.48-1.32 4.88-10.32 6.12-15.72 41.4-180-0.78-338.74-130.3-469.82-92.92-94.12-209.5-139.78-362.74-140.12zM826 428.6c-0.98 18.74 2 37.62-1.78 56.26 0.38 17.9-13.86 12-22 11.74-12.44-0.48-4.34-10.12-4-15.42 8.1-105.74-26.24-194.76-109.56-260.78-166.24-131.7-409.2-49.9-462.48 154.98-24.94 96-4.54 184.7 59.080 259.18 67.62 79.18 156 114.54 261.42 101.56 4.7-0.58 11.18-2.22 10.64 4.84-0.84 11.1 2.14 24.28-17.12 25.56-91.5 6.16-173.68-17.58-243.18-77.64-99.020-85.82-133.58-224.22-89.22-350.88 41.7-119.1 153.26-203.58 285.84-209.1 168.8-7.020 309.76 110.68 330.56 277.54 3.64 7.14 1.080 14.78 1.8 22.16zM378.36 405.78c20.7-63.5 81.18-102 146.64-93.42 67.060 8.8 115.38 60.48 119.6 128.5 0.52 8.42 4.16 21.34-3.28 24.46-9.46 4-14-9.64-21.18-15.080-6-4.54-6.18-11.86-7.32-18.4-8.44-48.92-38.52-80-86.96-89.44-59.28-11.56-113 28.6-125.16 93.56-9.86 52.82 32.16 109.5 88.12 117.18 18.1 2.48 28.48 12.72 39.46 28.46-101.88 14.98-181.080-80.3-149.92-175.82zM969.52 675.78c-30.98-31.42-62.4-62.4-93.54-93.66-14.68-14.74-32.46-21.64-55.8-22-40.12 6.28-83.12 12-125.64 20.18-19.28 3.72-32.74 0.72-46.7-14-37.86-39.86-77.4-78.1-116.3-116.96-3.84-3.82-7.7-7.68-11.88-11.12-6.34-5.22-14-7.14-20.44-1.58-7.4 6.4-5.5 14.94-0.82 22.24 2.86 4.5 7.16 8.1 11 12 40.74 40.84 81.3 81.86 122.48 122.24 9.060 8.9 12.8 17 10.42 30.28-7.48 42-13.060 84.32-19.72 126.46-4.3 27.1 1.74 50.42 22 69.88 30.36 29.1 60.1 58.86 90.34 88 23.86 23.080 46.68 16.72 55.78-15.4 10.14-35.8 20.54-71.56 29.9-107.58 3.4-13.080 8.76-20.38 23.14-24 38-9.48 75.64-20.96 113.16-32.5 28.16-8.58 33.46-31.22 12.62-52.4zM790.9 749.78c3.54 3.46 6.58 6.86 5.68 12.24-0.34 1.32-0.66 2.62-1.020 4-10.24 38.3-20.32 76.66-30.84 114.9-4.34 15.78-11.34 6-16.64 0.72-28.42-28.16-56.44-56.74-84.92-84.84-10-9.84-14.78-22-13.18-34.92 4.76-38.26 10.88-76.34 16.82-114.44 1.74-11.060 5.8-13.72 15.18-4.36 36.020 35.98 72.52 71.32 108.92 106.8zM939.8 704.56c-30.12 7.68-60.72 14.18-89.9 24.64-23.86 8.56-39.040 3.38-55.62-15.38-28.22-32-59.64-61.1-89.48-91.64-4.48-4.58-13.46-12.6 0.28-15.080 39.28-7.080 78.88-12.34 121.3-18.76 7.74 1.68 18.58 3.9 26.6 11.74 30.58 29.8 60.8 60 91.22 90 8 7.92 6.38 11.92-4.4 14.58z" />
<glyph unicode="&#xa9c7;" d="M486.32 652.48c0.12 44.5-4.64 89.3 2.14 133.42 6.2 40.4 34.84 63.22 75.78 63.36q171.36 0.66 342.74 0c46-0.16 77.88-30 78.28-75.8q1.5-174-0.12-347.84c-0.48-48.4-29.56-76.5-80.16-77.020q-170.52-1.8-341.060 0c-49.6 0.56-78 32.96-78.12 83.18 0 18.4 0.28 36.8-0.14 55.18-0.2 8.6 2.7 11.78 11.54 11.6q38.46-0.68 76.9 0c8.38 0.16 10.18-3.12 10.44-10.72 0.4-12.66-6-29.36 2.82-36.98 9.76-8.5 26.68-2.72 40.44-2.76 80.24-0.28 160.5 0.36 240.74-0.56 16-0.18 19 4.84 18.88 19.64-0.68 89.18-0.48 178.38-0.14 267.56 0 10-1.32 15.1-13.3 15.020-94.72-0.58-189.46-0.56-284.18-0.74-7.38-3.48-5.020-10.24-5.16-16-0.62-26.94 0.88-53.9-0.84-80.84-2.72-4.32-7-4.9-11.58-4.9h-74.74c-4.54 0.080-8.98 0.14-11.16 5.2z" />
<glyph unicode="&#xa9c8;" d="M623.56 646c21.1-0.14 39.060-27.78 36.58-51.78-2.72-26.54-21.78-45.16-48.84-45.32-64.62-0.4-129.24-0.7-193.84 0.24-16.88 0.26-21.76-4.42-21.68-21.48 0.66-143.2 0.48-286.38 0.3-429.58 0-39.78-36.66-62.96-71.76-45.48-21.38 10.64-28.58 29.84-28.58 52.58 0 58 0.12 115.88-0.14 173.84 0 7.76 4.62 18.92-11.060 18.72s-12.72-10.84-12.74-20c-0.1-59.060 0.18-118.12-0.14-177.18-0.24-41.6-35-65.24-71.76-48.96-20.88 9.24-28.24 26.76-28.2 48.7q0.22 161.32 0 322.6c0 5.28 1.84 10.92-3.32 18.76-13.82-22.86-26.7-44.42-39.8-65.84-18.28-30-47.68-36-75.22-15.84-19.7 14.44-25.34 40.42-12.32 62.4 31.14 52.68 62 105.56 94.6 157.32 22.84 36.3 55.12 60.7 99.28 66.1 5.26 2.68 10.92 1.4 16.38 1.42 41.66 0 83.34 0.9 124.96-0.14 61.6-1.54 123.040 4.1 184.58 3.2 20.96-0.28 41.8-3.22 62.72-4.28zM283.72 849.24c-42.96-2-74-28.34-73.7-74.46 0.38-45.36 28.22-72.76 74.96-75.14 39.32-2 74 34.46 74.14 74.74 0.040 41.62-33.94 76.88-75.4 74.86z" />
<glyph unicode="&#xa9c9;" glyph-name="training" d="M373.38 324q0 108 0 215.86c0 25.9 7.080 32.78 32.68 32.8 57.46 0 114.94 0 172.4 0 20.62 0 31.040 7.84 32.68 23.56 1.54 14.78-5.58 25-20.18 27.82-4.603 0.78-9.905 1.226-15.312 1.226-1.051 0-2.098-0.017-3.14-0.050l0.152 0.004c-102.66 0-205.32-0.5-308 0.28-47.080 0.36-78.66-20-99.68-61.9-34-67.66-70-134.28-104.96-201.4-4.18-8-9.2-15.9-19-10.86s-5.86 14-1.78 21.7c37.7 71.44 74.94 143.14 113.24 214.26 21.68 40.26 56.68 60.5 102.4 60.76 70.3 0.42 140.6 0.54 210.9-0.24 15.64-0.16 21.6 3.38 20.94 20.2-1.34 33.42-0.54 66.92-0.36 100.4 0.26 50 31.58 81.26 81.88 81.32q168.22 0.2 336.44 0c51.46 0 81.9-30.7 82-82.58q0.22-166.54 0-333.040c-0.1-54.94-27.64-84.78-82.64-85.32q-169.040-1.68-338.12 0c-50 0.46-79.26 32.26-79.54 82 0 18.96 0.48 38-0.2 56.9-0.4 11.080 5.86 10.58 13.72 11.020 9.42 0.5 9.18-4.28 9.020-11.3-0.46-19.5-0.6-39.060 0-58.56 1.080-36.86 20.74-56.7 57.6-56.86q170-0.38 339.8 0c38.28 0 56.98 18.52 57.080 56.5q0.46 170.7 0 341.42c0 37.2-19.78 56.68-57 56.74q-169.88 0.3-339.8 0c-36.8 0-57.1-20-57.72-56.84-0.6-35.14 0.14-70.28-0.28-105.42-0.14-12 3.72-17.060 16.44-16.48 20 0.88 40.16 0.38 60.26 0.2 30.24-0.26 49.6-19.4 49.64-48.8s-19.34-49.32-49.32-49.68c-56.34-0.52-112.72-0.8-169.040 0.26-16.48 0.32-19.8-4.62-20-20.46-2.52-142.76-1.74-285.52-2-428.3 0-33.78-16.82-52.52-46.66-52.64-30.44-0.12-50 19.5-50.28 52.12-0.48 55.78-0.14 111.58-0.14 167.36 0 4.46 0 8.92 0 13.38-0.12 9.36-2.5 16.84-14 16.22-11.080-0.6-13.62-7.78-13.4-17.28 0.18-6.68 0-13.38 0-20 0-53.56 0.26-107.1 0-160.66-0.2-30.54-18.44-50.28-45.8-51-31.56-0.84-51.48 18.28-51.5 50.22q-0.22 176.56 0 353.14c0 2.22 0 4.46 0 6.68 0.14 7.88 4.16 13.46 12 13.32s11.2-6 11.2-13.8c0-4 0-7.82 0-11.72v-334.74c0-3.9 0-7.8 0-11.7 0.52-18 10.12-28.58 25.84-28.36 14.72 0.2 24.28 10.52 24.38 28 0.28 53.56 0 107.12 0.12 160.66 0 7.82-0.36 15.66 0.12 23.44 1.5 23.88 17.36 38.44 40.28 37.38 21.74-1 33.48-14.6 33.52-39.2q0-82 0-164c0-4 0-7.82 0-11.72 0.52-22.38 10.7-35.28 27.42-34.82s24.4 10.98 24.48 35c0.22 72.52 0 145.060 0 217.58zM370.16 761.84c-0.22-48.62-39.64-87.58-87.58-86.52-48.36 1.060-87 40.46-85.8 88.8s36.7 85.7 87.22 84.88c53.72-0.88 86.34-38.12 86.16-87.16zM346.32 762.56c0 36-27.38 64-62.58 64.12-33.62 0.14-64-30.22-64-64 0-34.18 29.22-63 64-63.020 36.76-0.040 62.6 25.92 62.58 62.9z" />
</font>
</defs>
</svg>
