<?xml version="1.0" encoding="UTF-8"?>
<svg id="Layer_1" data-name="Layer 1" xmlns="http://www.w3.org/2000/svg" viewBox="0 0 800 800">
  <defs>
    <style>
      .cls-1 {
        fill: #fff;
      }

      .cls-2 {
        fill: none;
      }
    </style>
  </defs>
  <rect class="cls-2" width="800" height="800"/>
  <path class="cls-1" d="M340.67,200.94c2.48-.34,5.22-1.03,7.96-1.04,35.02-.08,70.03,.07,105.05-.16,6.91-.05,10.39,1.45,10.32,9.39-.35,36.64,.37,73.3-.44,109.93-.68,30.86-25.78,55.41-57.26,57.8-31.13,2.36-62.74-18.52-64.87-48.64-2.98-42.01-.75-84.4-.75-127.27Z"/>
  <path class="cls-1" d="M622.2,199.93c28.58,0,56.56-.22,84.53,.31,3.02,.06,7.06,3.81,8.76,6.88,16.13,29.2,32.25,58.42,47.56,88.05,12.09,23.38,2.6,54.73-21.61,70.64-23.29,15.3-48.76,15.83-73.34,4.15-22.91-10.89-33.63-30.73-34.1-56.27-.19-10.55-1.38-21.1-2.64-31.59-3.06-25.44-6.45-50.83-9.66-76.25-.15-1.16,.18-2.38,.5-5.92Z"/>
  <path class="cls-1" d="M487.5,265.14c0-18.3,.31-36.62-.14-54.91-.2-8,2.59-10.61,10.54-10.52,30.1,.35,60.2-.09,90.29,.47,3.35,.06,9.15,4.28,9.53,7.14,4.71,35.85,10.21,71.71,12.28,107.75,1.86,32.21-22.42,57.67-54.16,61.5-30.31,3.66-60.49-16.2-66.29-46.98-3.49-18.52-1.56-38.06-2.04-57.14-.06-2.44,0-4.88,0-7.32Z"/>
  <path d="M785.48,344.17c3.67-48.06-11.82-86.36-55.57-110.52-.3-.16-.4-.68-.59-1.03,24.61-48.3,17.79-86.5-19.41-108.41-16.99-10.01-35.34-12.37-54.23-7.79-26.01,6.3-42.58,23.75-52.56,48.68-7.38-4.67-13.75-8.71-20.06-12.71,23.25-42.55,20.45-76.22-7.9-101.2-24.99-22.03-63.35-23.76-90.39-3.92-14.32,10.5-23.71,24.42-27.78,41.79-5.47,23.36,1.28,44.01,13.64,60.54-13.8,13.43-26.39,25.88-39.26,38.02-2.06,1.95-5.37,3.54-8.15,3.6-15.43,.33-30.87,.24-46.3,.03-2.6-.04-5.94-.57-7.65-2.21-13.29-12.77-26.26-25.87-39.83-39.36,21.77-41.56,19.06-73.17-9.61-98.52-24.88-21.99-63.3-23.69-90.41-3.89-12.9,9.42-21.87,21.8-26.51,37.1-7.53,24.86-1.14,47.19,14.48,67.89-7.76,4.63-14.22,8.48-20.71,12.36-24.05-45.73-62.7-62.07-101.41-43.35-17.2,8.32-29.78,21.31-36.28,39.42-9.36,26.1-4.41,50.24,12.92,72.55-29.48,14.88-49.38,36.84-55.02,67.83-3.75,20.58-2.38,42.14-2.76,63.27-.27,14.98,2.8,17.83,17.88,17.86,44.78,.1,89.57,.04,134.35,.04,4.79,0,9.57,0,15.63,0,0,14.78-.79,27.42,.22,39.91,1.04,12.92,2.64,26.01,6,38.48,38.45,142.47,189.71,207.11,319.79,136.75,6.08-3.29,9.71-3.19,14.6,1.89,15.52,16.13,31.57,31.76,47.41,47.59,34.56,34.53,68.75,69.44,103.78,103.48,27.8,27.02,71.91,14.68,81.15-22.28,4.77-19.1-1.73-35.04-15.46-48.72-49.04-48.84-97.79-97.97-147.01-146.63-6.41-6.33-5.89-10.58-2.68-18.57,9.33-23.24,18.71-46.78,24.35-71.07,4.41-19.04,3.27-39.37,4.72-60.85,9.58,0,19.62,0,29.66,0,40.31,0,80.61-.15,120.92,.07,11.37,.06,16.56-4.75,16.04-16.17-.33-7.31-.53-14.69,.02-21.98Zm-111.7-207.03c26.5,.31,48.37,22.07,48.5,48.26,.13,26.74-22.08,48.68-49.23,48.62-27.41-.06-49.09-21.66-48.91-48.74,.18-26.87,22.43-48.45,49.64-48.14Zm-146.04-80.77c26.71,.16,48.44,21.45,48.79,47.82,.36,26.91-21.45,48.72-48.81,48.81-27.48,.09-49.46-21.33-49.45-48.2,.01-26.71,22.36-48.59,49.47-48.43Zm-18.99,116.79c13.57,2.24,27.92-.37,41.93-.59,6.58-.1,13.87-1.48,19.61,.81,16.67,6.63,30.31,16.63,35,35.92,1.95,8.03,7.4,15.21,10.92,22.12-14.78,13.37-29.6,26.77-45.45,41.1-29.34-36.23-67.92-62.03-115.63-75.56,13.89-20.95,32.35-27.31,53.62-23.8ZM272.69,56.36c26.75,.26,48.23,21.6,48.41,48.08,.18,27.14-21.43,48.6-48.91,48.56-27.46-.04-49.22-21.51-49.12-48.46,.1-26.7,22.49-48.44,49.62-48.17Zm-74.85,142.12c7.36-17.35,34.95-29.24,53.8-25.67,12.4,2.35,25.88,2.84,38.25,.66,22.43-3.95,40.51,2.28,54.62,23.38-47.1,13.55-86.24,39.03-115.74,75.85-15.5-14.15-30.3-27.67-44.73-40.84,4.26-10.33,8.93-21.9,13.79-33.38Zm-70.59-61.34c26.72,.34,47.98,21.77,48.01,48.41,.04,27.27-21.58,48.64-49.05,48.47-27.02-.17-49.5-22.52-49.17-48.9,.33-26.41,23.27-48.33,50.2-47.98Zm63.31,210.51c-2.35,10.37-7.31,12.59-16.93,12.28-2.54-.08-5.09-.15-7.63-.2-17.81-.35-35.63,0-53.45,0-21.58,0-43.17-.25-64.75,.12-7.72,.13-11.2-2.06-10.71-10.33,.72-12.18-.45-24.55,1.1-36.59,3.82-29.77,20.8-49.78,48.75-60.12,4.44-1.64,10.45-1.16,15.12,.3,15.68,4.92,30.95,4.78,46.91,.91,7.22-1.75,16.31-1.54,22.94,1.4,9.03,4,17.53,10.5,24.49,17.64,15.73,16.13,15.75,21.32,6.57,41.54-4.86,10.72-9.83,21.67-12.41,33.05Zm517.79,333.15c6.63,6.94,14.24,13.69,20.33,21.61,7.47,9.71,5.52,24.04-3.08,32.36-8.86,8.57-22.05,9.46-32.44,1.99-2.62-1.88-4.69-4.52-7.25-6.5-5.13-3.98-10.43-7.74-14.85-10.99,14.33-14.78,25.28-26.07,37.3-38.46Zm-19.58-17.52c-11.28,10.82-22.89,21.94-33.71,32.31-38.36-38.41-77.74-77.85-117.55-117.73,4.87-4.62,10.84-10.03,16.53-15.74,5.42-5.44,10.55-11.18,18.63-19.8,38.94,40.57,77.55,80.8,116.1,120.95Zm-288.63-59.85c-107.21,.21-195.31-87.55-195.56-194.81-.25-107.44,87.14-194.96,194.83-195.11,107.94-.15,195.24,86.69,195.38,194.38,.14,107.56-87.23,195.33-194.65,195.54Zm361.21-244.59c-3.54,.34-6.32,.85-9.1,.85-43.07,.05-86.15-.13-129.22,.19-7.86,.06-11.09-2.61-13.59-10.17-5.07-15.36-12.15-30.04-17.59-45.29-1.56-4.36-2.41-11.37-.04-14.32,8.98-11.22,18.59-22.26,29.56-31.45,8.82-7.38,19.63-9.63,31.88-4.65,14.4,5.86,29.41,3.48,44.26-.77,5.36-1.53,12.23-1.57,17.33,.45,26.72,10.56,43.13,30.25,46.23,59.05,1.59,14.77,.28,29.85,.28,46.11Zm-361.07-122.71c-95.05-.29-172.64,77.14-172.59,172.25,.05,94.55,77.1,171.8,171.59,172.02,95.08,.22,172.76-77.24,172.71-172.23-.05-94.5-77.14-171.75-171.71-172.04Zm76.74,299.07c-4.47,2.89-9.04,5.48-13.7,7.78-20.18,9.95-42.05,14.41-65.12,14.24-22.01-.25-42.65-5.2-62.16-14.36-4.5-2.12-8.94-4.46-13.32-7.02-6.4-3.74-9.19-8.06-8.61-15.63,1.79-23.33,11.34-42.3,30.57-55.82,11.21-7.89,22.33-11.74,37.5-7.54,12.52,3.47,27.05-.44,40.69-.83,5.86-.17,12.32-1.23,17.52,.73,26.83,10.11,44.58,35.65,44.34,64.14-.04,4.9-3.64,11.68-7.71,14.31Zm-123.99-143.66c-.28-25.69,20.35-46.63,46.23-46.93,25.97-.3,47.01,20.21,47.1,45.91,.09,25.71-20.84,46.5-46.7,46.4-25.31-.1-46.37-20.59-46.64-45.37Zm154.8,116.78c-6.82-32.51-24.45-56.6-54.57-72.01,14.13-19.78,21.81-41.18,13.3-63.59-5.11-13.45-13.96-27.12-24.81-36.4-25.07-21.46-62.49-19.29-87.64,2.19-27.85,23.77-30.87,56.2-8.42,98.09-28.97,15.02-47.29,38.71-53.99,72.54-49.62-48.33-60.71-144.3,4.44-207.85,61.23-59.72,160.75-55.25,216.62,9.77,57.15,66.51,38.97,157.97-4.93,197.25Z"/>
</svg>