<?xml version="1.0" encoding="UTF-8"?>
<svg id="Layer_1" data-name="Layer 1" xmlns="http://www.w3.org/2000/svg" viewBox="0 0 800 800">
  <defs>
    <style>
      .cls-1 {
        fill: none;
      }

      .cls-2 {
        fill: #010101;
      }
    </style>
  </defs>
  <rect class="cls-1" width="800" height="800"/>
  <path class="cls-2" d="M400.6,467.96c-35.39,0-70.77,.04-106.16-.02-19.35-.03-26.93-7.49-26.95-26.71-.06-61.47-.07-122.93,0-184.4,.02-18.91,7.12-25.89,26.13-25.92,42-.06,84,.04,125.99-.07,8.34-.02,17.05,.59,16.99,11.02-.06,9.97-8.32,11.51-16.89,11.48-39.66-.14-79.33,.15-118.99-.24-8.08-.08-11.28,1.08-11.2,10.45,.52,57.18,.42,114.37,.07,171.56-.05,8.19,2.24,10.36,10.38,10.32,66.88-.32,133.77-.33,200.65,0,8.19,.04,10.38-2.24,10.33-10.37-.34-57.57-.29-115.15-.03-172.73,.03-6.84-1.21-9.98-8.81-9.21-6.93,.7-13.99,.01-20.98,.18-8.01,.19-14.66-2.73-14.92-11.12-.27-8.63,6.3-11.52,14.4-11.34,8.94,.2,17.89,0,26.83,.05,18.23,.13,25.54,7.21,25.61,25.28,.12,31.9,.03,63.8,.03,95.7,0,29.96,.08,59.91-.03,89.87-.07,18.52-7.74,26.14-26.3,26.18-35.39,.08-70.77,.02-106.16,.02Zm-65.51-144.89c-5.74,5.2-9.51,11.1-3.06,17.94,5.81,6.16,11.69,3.57,17.43-1.14,33.19-27.19,68.52-27.23,101.5-.11,5.7,4.69,11.55,7.46,17.44,1.37,6.51-6.73,2.95-12.69-2.81-17.96-18.3-16.76-40.12-24.57-64.45-25.73-25.21,.74-47.36,8.7-66.05,25.62Zm95.59,28.27c-14.46-15.76-46.96-15.63-61.02,.32-4.51,5.11-5.07,10.55-.52,15.6,4.25,4.71,9.71,4.9,14.55,.91,11.34-9.34,22.31-9.12,33.45,.27,3.63,3.06,7.87,3.07,11.94,.83,3.72-2.05,5.05-5.65,5.47-9.67-.61-3.08-1.64-5.82-3.87-8.25Zm-31.11,27.7c-6.57,.33-9.91,4.57-9.93,10.54-.02,6.6,3.8,11.02,10.78,10.93,6.99-.09,10.1-4.61,10.68-11.22-1.09-6.52-4.43-10.61-11.53-10.25Zm186.7,108.21c-2.55,79.21-11.4,158.22-17.78,237.29-2.2,27.31-24.99,49.05-53.1,49.25-76.64,.56-153.28,.55-229.92,.02-29.07-.2-51.33-22.54-53.61-51.31-2.06-25.97-4.07-51.95-6.25-77.91-.68-8.14,.31-15.65,10.06-16.48,9.35-.79,11.18,6.45,11.77,14,1.96,24.81,4.2,49.6,5.88,74.42,1.57,23.07,14.1,35.71,37.25,35.76,73.14,.16,146.28,.16,219.42,0,23.12-.05,35.5-12.74,37.26-35.77,5.8-75.99,11.96-151.96,17.93-227.94,.4-5.04,.55-10.1,.55-15.16,.03-89.52,.03-179.03,.02-268.55,0-27.44-12.44-39.8-39.97-39.86-1.95,0-3.89,0-5.84,0-15.83,0-15.63,0-14.79,16,.25,4.75,1.13,7.2,6.53,6.78,7.48-.59,12.25,3.01,11.97,10.75-.29,7.71-5.54,10.38-12.77,10.37-73.92-.05-147.83-.03-221.75-.03-7.36,0-12.2-3.21-12.2-10.9,0-7.11,4.37-10.22,11.37-10.31,13.01-.16,5.3-10.09,6.83-15.45,1.87-6.56-2.57-7.87-8.04-7.22-.77,.09-1.56,.06-2.33,0-34.4-2.67-51.34,8.94-50.34,49.76,1.56,64.18,1.16,128.44,.19,192.64-.87,57.3,3.3,114.27,7.95,171.26,.31,3.84,.73,7.83,.08,11.57-.89,5.16-4.77,8.13-9.88,8.37-4.57,.22-8.5-1.89-9.94-6.55-1.14-3.67-1.81-7.53-2.19-11.36-7.85-79.11-8.65-158.45-7.39-217.76,0-66.79-.08-113.5,.02-160.2,.08-37.41,22.06-59.12,59.66-59.23q22.4-.06,22.4-22.23c0-24.13-.06-48.26,.02-72.39,.05-16.91,5.33-22.11,22.5-22.12,55.24-.05,110.49-.06,165.73,0,16.23,.02,21.63,5.47,21.69,21.76,.09,24.52,.02,49.04,.03,73.56,0,21.4,0,21.3,20.87,21.49,6.19,.06,12.52,.17,18.53,1.43,24.24,5.09,42.3,25.59,42.38,50.37,.34,97.3,2.35,194.67-.79,291.87Zm-102.37-309.53c-.45-39.67-.4-79.34-.03-119.01,.07-7.89-1.7-10.71-10.19-10.64-48.98,.4-97.97,.35-146.95,.04-7.44-.05-10.1,1.66-10.03,9.6,.38,40.06,.44,80.12-.03,120.18-.1,8.73,3.18,10.12,10.81,9.98,24.1-.42,48.21-.15,72.31-.15,24.49,0,48.99-.3,73.48,.17,7.87,.15,10.73-1.67,10.63-10.17Zm-138.26,443.08c-.46,16.24-6.53,22.16-22.93,22.3-8.15,.07-16.33,.38-24.46-.11-10.71-.65-17.5-6.33-18.11-17.42-.53-9.68-.57-19.42-.19-29.12,.55-14.07,6.08-19.01,20.5-19.22,4.27-.06,8.54,0,12.81-.01,31.04,0,32.39,1.37,32.39,33.09,0,3.5,.08,6.99-.02,10.49Zm-21.63-11.41c-.22-8.41-1.83-12.48-11.38-10.11-7.61-2.35-11.47-.22-11.03,9.25,.36,7.75,.19,12.81,10.74,12.27,8.66-.44,11.93-1.95,11.68-11.41Zm196.72,.53c0,.39,0,.78,0,1.17,0,29.17-2.85,32.02-31.88,32.02-31.78,0-33.93-2.12-33.93-33.46,0-31.07,1.38-32.43,33.04-32.43,31.39,0,32.77,1.38,32.77,32.71Zm-22.21,.45c1.22-7.56,.57-12.74-9.48-11.73-7.11,.72-13.8-1.03-12.39,10.26,.86,6.85-.39,12.85,9.95,11.74,7.17-.77,14.71,.86,11.91-10.27Zm-152.9-77.68c-.32,17.15-5.27,21.9-22.5,21.98-3.49,.02-6.99,0-10.48,0-31.31,0-32.79-1.48-32.79-32.7,0-3.11-.03-6.21,0-9.32,.23-18.27,5.45-23.45,23.7-23.52,7.76-.03,15.54-.24,23.29,.06,11.88,.46,17.8,5.96,18.61,17.87,.58,8.51,.33,17.08,.17,25.62Zm-22.17-9.44c1.46-8.23,.3-13.01-10.24-12.58-8.79,.36-12.34,2.02-11.67,11.53,.52,7.28,.11,12.58,10.17,11.61,7.41-.71,14.57,.4,11.74-10.56Zm197.17,11.55c-.52,14.93-5.84,19.72-21.06,19.87-3.88,.04-7.76,0-11.65,0-31.8,0-33.01-1.24-33.01-33.65,0-4.27-.21-8.56,.08-12.81,.87-13.14,6.69-18.75,19.92-19.04,9.31-.21,18.65-.31,27.95,.06,10.36,.41,16.83,5.89,17.49,16.47,.6,9.67,.62,19.41,.28,29.1Zm-22.12-12.07c2-9.01-1.11-11.98-10.67-12.07-9.76-.1-11.23,3.47-11.24,12,0,8.2,1.36,11.69,10.65,11.21,8.23-.42,13.91-.95,11.25-11.13Zm-152.88,185.28c-.36,17.02-5.34,21.74-22.68,21.81-3.49,.01-6.99,0-10.48,0-31.16,0-32.62-1.47-32.62-32.87,0-3.5-.07-6.99,.01-10.49,.38-16.65,5.92-22.07,22.7-22.18,7.76-.05,15.53-.18,23.29,.03,13.14,.36,19.03,5.99,19.7,19.23,.42,8.14,.24,16.31,.07,24.46Zm-21.61-10.35c-.11-8.75-1.88-12.06-11.41-11.82-8.47,.21-11.66,1.99-11.03,10.96,.53,7.54-.25,14.53,10.72,11.63,9.31,2.28,11.84-1.5,11.72-10.76Zm196.66,11.59c-.51,15.55-5.78,20.45-21.57,20.57-3.88,.03-7.76,0-11.65,0-31.1,0-32.54-1.46-32.54-32.95,0-3.5-.07-6.99,.02-10.49,.39-16.58,5.96-21.99,22.77-22.11,7.38-.05,14.75-.12,22.13,.02,14.52,.26,20.31,5.86,20.83,20.49,.29,8.15,.27,16.32,0,24.47Zm-22.17-11.5c2.11-9.21-1.46-11.73-10.78-11.94-10-.23-10.96,3.81-11.12,12.1-.16,8.44,1.7,11.43,10.76,11.11,8.47-.3,13.71-1.31,11.14-11.27Zm-65.41-74.39c-.32,12.15-6.33,18.96-18.2,19.6-9.65,.52-19.38,.5-29.03,.01-11.92-.6-18.12-7.38-18.36-19.43-.19-9.29-.2-18.6,0-27.89,.27-12.26,6.26-18.11,18.75-18.39,8.52-.19,17.04-.1,25.56-.03,15.99,.14,21.2,5.49,21.3,21.72,.02,3.87,0,7.75,0,11.62,0,4.26,.09,8.53-.02,12.78Zm-21.94-13.97c2.29-9.22-2.14-10.84-10.46-10.85-8.5,0-12.2,1.44-11.89,11.2,.27,8.59,2.33,11.22,11.09,11.04,8.56-.17,13.66-1.48,11.27-11.4Zm21.95-76.51c-.09,16.47-5.22,21.67-21.41,21.8-3.89,.03-7.78,0-11.67,0-4.28,0-8.56,.06-12.83-.01-13.78-.23-19.54-6.03-19.71-19.97-.11-8.95-.19-17.9,.03-26.85,.27-11.53,6.42-18.11,17.87-18.59,10.09-.43,20.24-.47,30.33,.03,10.87,.53,17,7.08,17.34,17.91,.27,8.55,.11,17.12,.06,25.68Zm-21.9-9.93c1.79-8.85-.81-12.47-10.73-12.35-9.31,.11-11.87,2.75-11.66,11.89,.19,8.11,1.27,12.03,10.71,11.4,7.84-.52,14.37-.29,11.68-10.94Zm21.9,185.67c-.11,15.59-5.5,21.05-20.83,21.2-3.89,.04-7.78,0-11.67,0-32.59,0-33.15-.56-33.14-33.41,0-4.67-.14-9.34,.05-14.01,.44-10.83,6.47-17.43,17.3-17.97,10.09-.5,20.23-.46,30.33-.04,11.51,.48,17.64,7,17.93,18.54,.22,8.55,.1,17.12,.04,25.68Zm-21.31-10.99c-.08-9.09-2.33-12.02-11.7-11.84-8.51,.16-11.69,2.08-11.22,11.08,.42,7.89,.29,14.39,11,11.65,9.26,2.13,12-1.44,11.93-10.88Z"/>
</svg>