<?xml version="1.0" encoding="UTF-8"?>
<svg id="Layer_1" data-name="Layer 1" xmlns="http://www.w3.org/2000/svg" viewBox="0 0 800 800">
  <defs>
    <style>
      .cls-1 {
        fill: #010201;
      }

      .cls-2 {
        fill: none;
      }
    </style>
  </defs>
  <rect class="cls-2" width="800" height="800"/>
  <path class="cls-1" d="M613.87,54.53c-21.3,0-42.61,.02-63.91-.02-3.44,0-7.03,.34-10.3-.46-6.32-1.55-9.97-5.89-9.25-12.59,.65-6.07,4.45-9.92,10.66-9.95,34.91-.15,69.82-.22,104.72,.04,7.26,.05,11.02,5.01,11.04,12.13,.11,33.76,.06,67.52,.05,101.28,0,7.73-3.87,12.89-11.54,12.87-7.67-.02-11.48-5.2-11.47-12.93,0-20.33,.07-40.66-.07-61-.02-3.63,1.1-7.48-1.33-11.83-26.27,24.53-52.85,48.06-80.67,70.15-78.95,62.7-163.03,116.54-258.81,150.24-40.62,14.29-82.31,23.46-125.28,26.7-8.44,.64-16.27-.49-17.25-10.43-1-10.2,6.43-12.17,15.03-12.81,88.68-6.53,168.13-40.05,243.84-84.12,71.84-41.81,137.02-92.58,198.28-148.54,2.43-2.22,5.49-3.74,8.26-5.59-.67-1.05-1.34-2.1-2.01-3.16ZM219.34,403.76c.25-10.52-4.03-15.53-14.91-15.43-28.38,.25-56.76,.27-85.14,0-10.66-.1-15.38,4.32-15.28,15.07,.25,26.46,.2,52.93,.01,79.39-.06,8.2,1.86,15.36,11.12,15.6,10,.26,12.15-7.09,12.06-15.81-.22-20.32,.31-40.66-.26-60.98-.22-7.79,1.39-10.62,9.83-10.24,16.46,.75,32.99,.65,49.46,.03,7.82-.29,10.48,1.48,10.22,9.84-.65,21.07-.15,42.18-.25,63.28-.04,8.09,3.17,13.99,11.64,13.92,8.46-.07,11.55-6.05,11.47-14.11-.14-13.42-.04-26.85-.04-40.27,0-13.42-.24-26.85,.08-40.27Zm552.71,348.02c-.06,13.35-3.52,16.8-17.14,16.81-79.08,.04-158.15,.02-237.23,.02-78.31,0-156.62,.02-234.92-.05-4.16,0-8.57,.03-12.43-1.25-5.18-1.71-7.82-6.01-7.23-11.73,.59-5.75,4.12-9.01,9.55-9.9,3.37-.55,6.89-.23,10.35-.23,151.24,0,302.48-.11,453.72,.23,9.91,.02,13.03-1.95,12.61-12.36-.9-22.28-.25-22.31-22.96-22.31-134.74,0-269.47,0-404.21,0-3.45,0-6.95,.28-10.35-.15-7.15-.9-11.26-5.37-10.79-12.41,.42-6.41,4.41-10.51,11.38-10.54,11.9-.06,23.82-.5,35.69,.12,7.52,.39,9.61-1.86,9.56-9.47-.34-51.82-.18-103.65-.18-155.47,0-52.59-.31-105.19,.28-157.77,.11-9.99-2.81-12.07-12.06-11.56-14.93,.81-29.99,1.08-44.88-.06-11.17-.86-12.74,3.45-12.65,13.28,.46,51.82,.24,103.65,.18,155.47,0,4.13,.84,8.38-1.79,12.28-2.87,4.27-6.6,6.43-11.67,5.52-5.06-.9-8.12-4.38-9.21-9.16-.67-2.93-.31-6.11-.31-9.18-.01-57.58-.02-115.16,0-172.75,0-16.05,2.35-18.33,18.75-18.34,26.1-.02,52.21-.03,78.31,0,15.48,.02,18.1,2.58,18.1,17.85,.02,109.02,.18,218.04-.26,327.06-.04,10.33,2.6,13.5,12.6,12.25,10.91-1.36,25.59,4.65,31.89-2.34,5.43-6.02,1.81-20.39,1.82-31.07,.05-124.38,.03-248.75,.04-373.13,0-17.75,1.97-19.72,19.68-19.73,26.1-.01,52.21-.04,78.31,.01,14.41,.03,17.17,2.86,17.17,17.62,.02,132.05,.12,264.11-.22,396.16-.03,9.82,1.8,13.89,12.34,12.55,7.93-1.01,16.15-.79,24.14-.04,8.3,.78,10.03-2.29,10-10.18-.3-74.47-.18-148.94-.18-223.41,0-81,0-162,0-243,0-16.34,2.38-18.79,18.29-18.81,26.49-.03,52.97-.04,79.46,0,14.61,.02,17.4,2.79,17.41,17.38,.02,155.09,.14,310.17-.27,465.26-.03,10.9,3.16,13.43,13.28,12.81,13.77-.85,27.63,.01,41.44-.28,11-.23,14.95,5.2,14.74,15.62-.32,16.12-.03,32.24-.1,48.37Zm-253.17-72.42c-.25-128.87-.24-257.74-.02-386.61,.01-6.85-2.27-8.15-8.48-8.01-16.87,.4-33.78,.76-50.61-.12-9.15-.48-10.4,2.78-10.35,10.89,.33,63.28,.18,126.57,.18,189.85s.2,128.11-.23,192.16c-.06,8.87,2.45,10.89,10.86,10.54,16.46-.69,32.98-.51,49.46-.05,6.74,.19,9.2-1.15,9.19-8.65Zm161.23-.05c-.23-151.9-.22-303.81-.02-455.71,0-6.92-2.37-8.11-8.53-7.96-16.48,.39-33.03,.87-49.46-.14-10.18-.62-11.53,3.06-11.48,12.11,.38,74.42,.21,148.83,.21,223.25v19.56c0,68.66,.12,137.33-.16,205.99-.03,8.23,.94,12.29,10.84,11.71,16.44-.97,32.98-.59,49.46-.11,6.83,.2,9.14-1.3,9.13-8.71Zm-391.75-38.28c.07,70.42-56.61,127.49-126.66,127.52-69.51,.03-126.56-56.84-126.69-126.28-.14-70.56,56.07-127,126.62-127.15,69.75-.15,126.66,56.39,126.73,125.91Zm-23.05,.99c.1-57.3-46.34-103.77-103.64-103.72-57.4,.05-103.79,46.5-103.62,103.76,.17,56.82,47.32,103.6,104.21,103.38,56.22-.22,102.96-47.11,103.05-103.41Zm-57.74,30.59c-.95,17.36-10.53,29.38-26.61,35.41-4.62,1.73-7.22,3.4-9.51,7.95-4.32,8.6-14.78,9.03-19.1,.63-2.86-5.55-6.58-6.83-11.84-8.57-12.72-4.21-21.72-12.83-24.46-26.52-1.5-7.48,0-14.35,8.54-16.23,7.55-1.66,12.63,2.14,13.94,9.92,.47,2.79,1.34,5.23,3.31,7.12,1.89,1.81,4,4.27,6.92,2.89,2.48-1.17,1.25-4.04,1.36-6.16,.18-3.44-.22-6.93,.1-10.36,.94-9.97-.24-16.71-12.31-20.76-15.41-5.18-23.61-21.87-22.17-37.99,1.5-16.87,10.73-28.46,26.33-34.45,4.47-1.72,7.4-3.05,9.69-7.88,4.26-8.99,15.31-9.07,19.75-.1,2.44,4.93,5.53,6.18,10.09,7.54,12.93,3.86,22.08,11.98,25.45,25.52,1.99,8,.46,15.26-8.24,17.56-8.29,2.19-12.9-2.82-14.1-10.94-.42-2.82-1.76-4.97-3.87-6.79-1.78-1.54-3.66-3.02-6.11-2.11-2.4,.89-1.39,3.25-1.46,4.97-.16,3.83-.05,7.67-.05,13.44-2.66,9.18,1.38,14.55,12.56,18.9,15.68,6.1,22.73,20.19,21.81,37.01Zm-58.2-74.49c-14.2,9.2-14.27,19.78,0,30.01v-30.01Zm35.17,72.23c-.06-6.71-3.04-12.08-10.82-14.67v29.97c7.67-3.22,10.88-8.51,10.82-15.3Z"/>
</svg>