<?xml version="1.0" encoding="UTF-8"?>
<svg id="Layer_1" data-name="Layer 1" xmlns="http://www.w3.org/2000/svg" viewBox="0 0 800 800">
  <defs>
    <style>
      .cls-1 {
        fill: none;
      }

      .cls-2 {
        fill: #010101;
      }
    </style>
  </defs>
  <rect class="cls-1" width="800" height="800"/>
  <path class="cls-2" d="M763.82,654.92c-16.66-32.12-55.04-52-87.66-37.03-25.24,11.58-34.49-1.04-48.09-14.7-6.12-6.14-6.02-9.53-.49-15.94,28.62-33.18,48.67-71.04,59.15-113.7,1.83-7.46,4.39-10.69,13.1-10.98,33.48-1.09,59.56-28.94,59.7-62.31,.14-33.3-25.97-61.71-59.24-62.69-9.49-.28-11.84-4.15-13.73-11.82-8.5-34.58-23.97-65.93-44.48-94.97-6.42-9.09-20.26-17.51-18.45-26.5,1.95-9.66,15.09-16.92,22.92-25.61,4.38-4.86,7.92-5.49,13.87-2.06,16.56,9.56,34.32,11.65,53.21,7.54,40.64-8.84,66.46-50.87,56.21-92.39-10.03-40.66-54.49-65.66-95.21-53.52-40,11.92-65.56,58.42-48.84,95.9,8.31,18.63,4.66,28.5-9.38,38.91-2,1.48-3.85,3.31-5.33,5.31-5.21,7.05-9.4,7.68-16.83,1.28-33.41-28.81-71.49-49.09-114.67-59.2-6.87-1.61-9.36-4.7-9.68-12.6-1.34-33.99-28.58-59.76-61.92-59.96-34.06-.21-61.75,25.51-62.97,60.14-.32,9.05-4.16,11.06-11.12,12.72-35.42,8.46-67.29,24.49-96.9,45.46-8.71,6.17-16.36,19.39-25.65,17.55-8.95-1.77-15.56-14.25-23.76-21.39-5.91-5.15-6.92-9.11-2.81-16.64,17.4-31.86,8.87-71.23-19.38-94.05-27.38-22.11-67.98-21.8-95.03,.73-27.59,22.99-35.57,62.14-19.01,93.31,17.01,32.02,55.42,50.98,88.06,36.54,22.47-9.94,33.06-2.53,44.96,12.64,.77,.98,1.69,1.9,2.71,2.61,6.7,4.73,5.87,8.74,.61,14.83-28.91,33.49-49.17,71.68-59.77,114.78-1.66,6.75-3.8,10.17-12.23,10.41-34.22,.96-60.57,29.06-60.34,62.89,.23,33.36,26.33,61.11,59.83,62.17,8.79,.28,11.18,3.72,12.98,11.11,8.64,35.44,24.26,67.67,45.9,96.99,6.17,8.35,18.34,17.29,17.38,24.59-1.15,8.7-13.86,15.6-20.81,23.91-5.85,7-10.55,7.28-18.86,2.83-27.31-14.62-60.96-9.51-83.95,11.26-23.23,20.99-31.22,53.88-20.07,82.63,11.66,30.07,38.98,48.97,70.69,48.92,50.94-.09,90.03-51.89,70.86-98.2-8.19-19.78-4.01-30.02,10.47-40.88,1.66-1.25,3.29-2.72,4.44-4.42,5.51-8.16,10.12-6.17,16.83-.44,33.21,28.39,70.93,48.48,113.62,58.59,7.6,1.8,9.92,5.31,10.31,13.4,1.63,33.86,29.09,59.4,62.53,59.37,33.42-.03,60.82-25.6,62.39-59.52,.38-8.24,2.9-11.54,10.46-13.28,35.51-8.17,67.46-24.14,96.93-45.3,8.77-6.3,18.16-18.9,25.74-17.82,9.06,1.28,16.26,14.38,24.67,21.91,5.34,4.78,6.62,8.46,2.7,15.61-17.65,32.16-9.6,70.89,18.63,94.15,27.17,22.39,67.73,22.44,95,.12,27.75-22.71,36.05-61.81,19.78-93.18ZM696.67,60.48c27.54,.03,50.22,23.01,49.99,50.65-.23,27.7-23.22,50.3-50.74,49.9-27.07-.4-49.19-22.82-49.34-50.02-.15-27.67,22.53-50.56,50.09-50.53ZM118.85,161.03c-27.53,.34-50.45-22.3-50.62-50-.17-27.67,22.51-50.57,50.07-50.55,27.55,.02,50.23,22.98,50.01,50.63-.22,27.2-22.4,49.59-49.46,49.92Zm-.14,578.59c-27.65,.29-50.26-22.09-50.48-49.97-.22-27.59,22.56-50.66,49.95-50.58,26.35,.07,49.57,23.06,50.11,49.6,.56,27.44-22.04,50.66-49.59,50.95ZM696.73,362.36c20.43,.03,37.37,17.14,37.35,37.73-.02,20.59-17.03,37.7-37.43,37.67-20.16-.03-37.51-17.52-37.5-37.79,0-20.36,17.28-37.64,37.58-37.61Zm-239.42-214.04c3.88-5.95,8.45-6.07,13.92-4.52,100.64,28.43,164.89,93.04,192.72,193.95,1.6,5.79,.15,9.03-4.83,12.36-9.59,6.43-16.96,15.28-20.45,26.34-2.82,8.94-7.22,13.52-16.81,10.71-10.23,2.16-14.27-.84-15.31-12.37-7.24-80.5-73.94-154.1-153.57-170.7-4.89-1.02-9.76-2.28-14.71-2.8-18.72-1.99-21.36-5.62-18.19-24.33,.71-4.19,2.87-4.99,6.34-6.18,12.52-4.29,23.57-11.24,30.88-22.46Zm125.95,253.48c-1.35,98.3-81.23,175.76-179.74,174.3-95.43-1.42-173.54-82.51-171.85-178.4,1.73-98.34,81.7-175.34,180.38-173.68,94.77,1.6,172.53,82.33,171.22,177.78ZM407.21,73.06c20.47-.15,37.56,16.84,37.7,37.47,.14,20.59-16.74,37.79-37.24,37.93-20.45,.14-37.55-16.86-37.69-37.47-.14-20.62,16.71-37.78,37.23-37.92ZM151.1,337.07c27.86-100.36,91.98-164.56,191.93-193.15,5.88-1.68,10.84-1.55,14.96,4.88,6.99,10.92,17.76,17.75,29.88,21.74,13.36,4.4,4.77,14.79,6.63,22.2,1.93,7.68-5.02,7.47-9.68,7.85-74.56,6.18-156.44,64.52-175.35,163.71-.63,3.29-1.53,6.67-1.31,9.94,.74,10.77-3.28,15.82-14.56,12.88-9.98,2.75-14.88-1.65-17.73-11.29-3.17-10.7-10.48-19.18-19.66-25.37-5.39-3.63-6.85-7.12-5.11-13.39Zm-32.94,100.69c-20.49-.07-37.42-17.22-37.34-37.82,.07-20.62,17.1-37.65,37.57-37.58,20.5,.07,37.42,17.2,37.35,37.81-.07,20.62-17.11,37.66-37.58,37.59Zm239.69,213.73c-3.77,5.89-8.16,6.49-13.79,4.91-101.2-28.43-165.61-93.39-193.32-194.85-1.47-5.37,.26-8.27,4.71-11.29,9.94-6.74,17.63-15.88,21.1-27.38,2.69-8.91,7.09-12.63,15.96-9.66,12.04-3.64,14.78,1.84,15.83,12.98,7.48,79.68,74.04,153.03,153.19,169.77,4.89,1.03,9.76,2.33,14.71,2.84,21.76,2.25,17.93-.97,18.57,21.42,.16,5.47-1.63,7.77-7.1,9.54-12.14,3.91-22.86,10.81-29.85,21.73Zm49.41,75.57c-20.5-.11-37.39-17.28-37.28-37.89,.11-20.63,17.16-37.62,37.64-37.52,20.5,.11,37.4,17.27,37.29,37.88-.11,20.61-17.19,37.64-37.65,37.52Zm64.07-70.71c-6.36,1.81-10.81,.44-14.76-5.46-6.18-9.24-14.86-16.38-25.54-19.37-9.64-2.7-12.75-7.89-10.56-17.13-2.16-9.5,.7-13.88,11.41-15.37,82.72-11.51,137.65-57.7,166.36-135.68,4.93-13.4,8.19-27.34,8.85-41.65,.31-6.77,2.38-8.98,9.55-9.34,11.86-.6,20.29,.6,23.67,14.68,2.33,9.7,10.15,17.36,18.74,22.92,5.02,3.25,6.49,6.55,4.9,12.34-27.8,100.9-92.03,165.52-192.63,194.06Zm225.54,83.29c-27.05,.15-49.56-21.82-50.29-49.08-.74-27.6,21.56-50.95,49.13-51.47,27.55-.51,50.57,21.95,50.94,49.68,.36,27.62-22.24,50.71-49.79,50.86Zm-176.78-408.57c-7-3.95-23.73-28.89-25.13-37.48-2.6-15.93-14.39-28.16-30.24-31.37-14.86-3.01-31.53,3.34-38.45,17.44-4.62,9.42-11.56,13.55-20.31,16.35-37.35,11.95-71.99,33.79-113.91,29.06-11.72-1.32-21.79,9.21-22.41,21.28-.97,18.8-.56,37.7-.21,56.54,.15,8.08,4.46,16.44,11.59,18.07,15.15,3.48,13.41,13.79,13.14,24.44-.18,7.12-.03,14.25-.03,21.38,.11,0,.23,0,.34,0,0,12.57-.84,25.21,.19,37.7,1.63,19.65,17.75,33.79,37.06,33.92,19.33,.13,35.41-13.81,37.6-33.38,.93-8.29,.38-16.74,.55-25.12,.26-12.53,.56-25.05,.84-37.58,12.95,1.21,23.93,8.4,36.13,11.85,8.77,2.48,14.7,7.01,19.26,15.73,8.64,16.52,28.32,22.7,45.51,15.52,20.09-8.39,25.62-25.31,23.81-45.26-.93-10.27,1.47-15.09,12.74-17.32,20.83-4.11,34.63-21.15,37.17-42.2,2.43-20.2-7.42-39.53-25.27-49.59Zm-200.81,53.85c0,14.65-6.61,19.15-21.21,15.23-4.36-1.17-3.53-3.88-3.58-6.55-.12-6.65-.04-13.31-.04-19.96,0-3.74,.49-7.57-.1-11.21-1.66-10.24,1.97-13.11,12.53-13.13,10.66-.02,13.76,3.01,12.56,13.19-.87,7.38-.17,14.95-.17,22.43Zm25.05,114.25c-.16,8.25-4.12,14.05-12.83,13.78-7.98-.24-11.75-5.86-11.8-13.55-.15-22.63,.03-45.25-.19-67.88-.05-5.02,1.82-6.39,6.58-6.38,12.58,.05,18.3,5.27,18.34,17.46,.03,8.38,0,16.76,0,25.14h-.05c0,10.48,.16,20.95-.05,31.42Zm75.53-123.2c0,15.5-.11,31,.06,46.5,.07,6.06-.31,9.82-8.23,6.68-20.12-7.99-40.43-15.54-60.81-22.85-4.88-1.75-6.67-4.36-6.15-9.16,.09-.83,0-1.67,.01-2.51,.22-15.89-4.87-34.93,2.16-46.77,7-11.8,27.64-12.66,42.28-18.38,7.37-2.88,14.96-5.23,22.13-8.53,7.03-3.23,8.77-.99,8.64,6.02-.28,16.33-.09,32.67-.09,49.01Zm38.46,86.59c-11.17,.37-13.07-8.1-13.03-17.36,.1-23.86,.03-47.71,.03-71.57s.07-46.04-.04-69.06c-.04-8.69,1.55-16.94,11.87-17.29,11.18-.38,13.05,8.1,13.03,17.35-.07,46.88-.07,93.76,0,140.63,.01,8.69-1.56,16.95-11.87,17.3Zm61.82-85.54c-.96,10.47-6.64,17.46-16.57,21.43-6.37,2.55-8.28,.75-8.02-5.64,.26-6.25,.06-12.51,.05-18.77,0-4.59-.04-9.18,0-13.77,.12-11.27,2.39-12.79,11.85-7.27,9.04,5.29,13.66,13.44,12.69,24.01Z"/>
</svg>