<?xml version="1.0" encoding="UTF-8"?>
<svg id="Layer_1" data-name="Layer 1" xmlns="http://www.w3.org/2000/svg" viewBox="0 0 14 14">
  <defs>
    <style>
      .cls-1 {
        fill: #393939;
      }

      .cls-2 {
        fill: none;
      }
    </style>
  </defs>
  <rect class="cls-2" width="14" height="14"/>
  <path class="cls-1" d="M12.02,8.16c.14,0,.26,.11,.26,.25,0,.14-.11,.27-.25,.26-.14,0-.24-.09-.25-.24-.01-.14,.1-.26,.24-.27Zm1.43,3.17c0,.17-.11,.26-.34,.26-2.05,0-4.1,0-6.15,0-2,0-3.99,0-5.99,0-.05,0-.11,0-.16,0-.17,0-.29-.06-.31-.25-.01-.16,.11-.26,.31-.26,.21,0,.42-.01,.63,0,.18,.01,.24-.04,.24-.23,0-1.2,0-2.4,0-3.6,0-.32,.07-.38,.38-.38,.48,0,.96,0,1.44,0,.3,0,.37,.07,.37,.37,0,1.21,0,2.41,0,3.62,0,.18,.05,.23,.23,.22,.4-.01,.4,0,.4-.4,0-1.68,0-3.36,0-5.04,0-.36,.05-.41,.41-.41,.46,0,.92,0,1.38,0,.34,0,.4,.06,.4,.4,0,1.74,0,3.48,0,5.22,0,.19,.05,.24,.23,.23,.39-.01,.39,0,.39-.4,0-1.15,0-2.29,0-3.44,0-.32,.07-.39,.39-.39,.48,0,.96,0,1.44,0,.28,0,.36,.08,.36,.36,0,1.21,0,2.43,0,3.64,0,.18,.05,.23,.23,.22,.4-.01,.4,0,.4-.4,0-1.92,0-3.84,0-5.76,0-.36,.05-.41,.41-.41,.48,0,.96,0,1.44,0,.25,0,.33,.08,.33,.33,0,.79,0,1.58,0,2.37,0,.2-.1,.33-.25,.33-.15,0-.25-.12-.25-.32,0-.66,0-1.32,0-1.98,0-.16-.04-.21-.2-.2-.27,.01-.54,0-.81,0-.12,0-.16,.03-.16,.16,0,1.91,0,3.83,0,5.74,0,.12,.04,.16,.16,.16,.28,0,.55,0,.83,0,.14,0,.19-.03,.18-.18,0-.42,0-.85,0-1.27,0-.1,0-.2,.1-.28,.07-.06,.16-.08,.25-.04,.12,.05,.17,.15,.16,.27,0,.43,0,.86,0,1.29,0,.16,.04,.21,.2,.2,.21-.01,.43,0,.65,0,.21,0,.32,.09,.33,.25Zm-10.09-.45c0-.55,0-1.1,0-1.66,0-.56,0-1.12,0-1.68,0-.13-.03-.18-.17-.17-.28,.01-.57,0-.85,0-.11,0-.15,.02-.15,.14,0,1.14,0,2.28,0,3.41,0,.13,.06,.14,.16,.14,.28,0,.55-.01,.83,0,.16,0,.19-.05,.19-.2Zm2.8-.02c0-.82,0-1.63,0-2.45s0-1.66,0-2.49c0-.14-.02-.21-.19-.2-.27,.01-.54,0-.81,0-.13,0-.18,.03-.18,.17,0,1.67,0,3.34,0,5.01,0,.14,.05,.17,.18,.17,.26,0,.53-.01,.79,0,.18,.01,.21-.06,.21-.22Zm2.81-3.33c0-.13-.04-.18-.17-.17-.28,0-.57,0-.85,0-.12,0-.15,.04-.15,.15,0,1.14,0,2.28,0,3.42,0,.11,.03,.15,.15,.15,.28,0,.57,0,.85,0,.14,0,.17-.04,.17-.17,0-.57,0-1.13,0-1.7,0-.56,0-1.12,0-1.68Zm2.79-4.36c-.28,.22-.61,.27-.93,.12-.13-.06-.2-.04-.29,.06-.43,.46-.86,.91-1.29,1.36-.07,.08-.1,.13-.04,.24,.19,.39,.11,.79-.19,1.07-.28,.26-.71,.32-1.05,.14-.36-.19-.55-.56-.47-.99,.03-.15-.02-.22-.12-.3-.38-.29-.76-.58-1.13-.88-.08-.06-.14-.08-.23-.02-.32,.17-.64,.15-.94-.05-.08-.06-.13-.06-.21,0-.38,.32-.75,.63-1.14,.93-.13,.1-.07,.2-.05,.3,.1,.45-.14,.89-.58,1.06-.42,.16-.91-.03-1.13-.43-.17-.33-.13-.74,.11-1.02,.25-.29,.65-.41,1.01-.26,.16,.07,.25,.03,.37-.07,.36-.31,.73-.6,1.09-.9,.1-.08,.13-.15,.12-.29-.05-.53,.36-.98,.89-.99,.53-.01,.94,.39,.94,.97-.17,.28,.1,.4,.29,.56,.31,.24,.62,.48,.92,.72,.09,.07,.15,.1,.27,.03,.2-.12,.42-.14,.64-.07,.09,.03,.15,0,.21-.06,.47-.5,.94-1,1.42-1.49,.09-.09,.07-.17,.05-.28-.11-.51,.22-1,.73-1.1,.49-.09,.98,.25,1.06,.76,.05,.35-.06,.64-.33,.86ZM3.17,5.37c0-.23-.18-.41-.41-.4-.22,0-.41,.19-.4,.41,0,.21,.19,.39,.4,.4,.22,0,.41-.18,.41-.41Zm2.81-2.2c0-.22-.21-.41-.42-.4-.22,0-.4,.21-.39,.43,0,.22,.19,.39,.41,.38,.23,0,.41-.19,.4-.41Zm2.8,2.19c0-.22-.17-.4-.39-.41-.22,0-.42,.17-.42,.39,0,.22,.18,.42,.4,.42,.22,0,.41-.18,.41-.41Zm2.81-2.91c0-.21-.18-.4-.39-.4-.22,0-.41,.17-.42,.4,0,.23,.17,.41,.4,.42,.22,0,.41-.19,.41-.41Z"/>
</svg>