<?xml version="1.0" encoding="UTF-8"?>
<svg id="Layer_1" data-name="Layer 1" xmlns="http://www.w3.org/2000/svg" viewBox="0 0 800 800">
  <defs>
    <style>
      .cls-1 {
        fill: #131313;
      }

      .cls-2 {
        fill: none;
      }
    </style>
  </defs>
  <rect class="cls-2" width="800" height="800"/>
  <path class="cls-1" d="M174.92,535.36c-1.71,2.73-3.41,5.46-5.12,8.19-2.49,.84-4.94,2.2-7.49,2.44-8.27,.76-14.02-2.88-15.69-11.16-1.54-7.62,1.64-13.46,9.07-16.03,7.99-2.76,14.12,.34,17.67,7.79,1.23,2.59,1.08,5.83,1.56,8.77Zm447.11-104.03c-.15,26.78-18.12,44.77-45.24,44.92-36.51,.21-73.03,.31-109.54-.14-8.08-.1-10.08,2.22-10.01,10.12,.38,43.72,.37,87.44,0,131.16-.07,7.66,2.32,10.33,9.61,9.18,1.11-.18,2.28-.03,3.42-.02,14.04,.08,21.64,5.27,21.5,14.66-.14,9.05-7.43,13.99-20.9,14.09-8.37,.06-16.74,.16-25.1-.03-12.66-.29-17.8-5.42-17.87-18.24-.15-25.47-.05-50.94-.05-76.41,0-25.09-.34-50.19,.19-75.27,.17-8.05-2.91-9.5-9.92-9.15-10.24,.51-20.57,.68-30.79-.05-8.18-.58-10.04,2.3-9.98,10.13,.35,48.66,.19,97.32,.17,145.98,0,18.53-4.38,22.98-22.58,23.04-8.75,.03-17.5,.18-26.24-.11-8.77-.3-14.8-4.71-14.93-13.81-.14-9.57,5.77-14.16,15.17-14.81,19.02-1.32,19.01-1.39,19.01-20.26,0-38.78-.6-77.57,.35-116.32,.3-12.21-3.63-14.14-14.57-13.92-34.22,.7-68.47-.42-102.68,.49-23.9,.63-50.04-15.54-47.98-48.11,1.29-20.45,1.19-41.1,0-61.56-1.37-23.64,17.27-45.61,46.01-45.61,36.13,0,72.27-.29,108.4,.21,8.52,.12,10.79-2,10.7-10.64-.49-42.95-.44-85.92-.03-128.87,.08-8.3-1.73-12.15-10.61-10.91-3.71,.52-7.62,.19-11.37-.28-7.94-.99-12.41-5.83-12.44-13.71-.03-7.8,4.34-13.56,12.12-14.03,12.88-.78,25.94-1.15,38.74,.11,10.8,1.07,12.96,10.1,12.95,19.58-.03,48.66,.34,97.33-.29,145.98-.14,10.54,2.74,13.73,13,12.74,9.42-.91,19.04-.73,28.49-.03,7.9,.59,9.29-2.57,9.25-9.69-.28-49.04-.16-98.08-.14-147.12,0-17.96,4.04-21.93,22.11-21.95,8.75-.01,17.5-.22,26.24,.08,9.17,.31,16.26,6.92,15.44,14.69-.93,8.84-6.46,13.05-15.33,13.71-18.9,1.4-18.89,1.54-18.89,20.43,0,39.92,.21,79.84-.19,119.75-.08,7.74,1.53,10.28,9.8,10.16,35.37-.5,70.74-.27,106.11-.19,31.35,.07,48.85,17.46,48.9,48.48,.03,20.53,.1,41.06-.02,61.59Zm-27.79-62.68c-.19-12.5-5.9-17.92-18.37-17.93-115.59-.06-231.19-.06-346.78,0-12.81,0-17.81,5.05-17.92,18.01-.17,19.76-.13,39.53-.02,59.29,.08,14.56,4.33,18.68,19.16,18.68,57.42,.03,114.83,.01,172.25,.01,57.8,0,115.59,.03,173.39-.03,13.04-.01,18.11-4.7,18.29-17.62,.29-20.14,.3-40.29,0-60.43Zm173.76-211.18c-.26,67.74-55.78,122.63-123.89,122.49-68.08-.14-122.77-55.29-122.55-123.57,.22-67.87,55.73-123.01,123.6-122.77,67.55,.24,123.1,56.24,122.84,123.85Zm-69.1,66.1c-24.3-39.55-85.06-39.3-108.75,.45-3.32,5.57-2.73,8.59,2.57,11.89,15.14,9.42,31.45,14.8,49.34,15.27,19.44,.33,37.35-4.78,53.96-14.92,5.73-3.5,6.55-6.7,2.87-12.69Zm-54.78-59.23c11.09,.21,19.59-7.88,19.76-18.82,.17-10.66-8.39-19.78-18.9-20.16-10.26-.36-19.6,8.66-19.94,19.25-.34,10.66,8.22,19.52,19.08,19.72Zm61.69-79.26c-38.41-32.86-95.93-29.4-130.49,7.61-35.55,38.07-28.46,94.29-8.62,114.45,8.15-11.12,17.15-21.56,29.47-27.99,7.32-3.82,7.95-6.91,4.4-14.57-14.2-30.63,7.8-66.31,41.02-67.77,37.61-1.65,62.09,34.78,46.8,69.52-1.3,2.96-6.13,6.45-.46,9.48,14.3,7.64,25.46,18.78,35.09,31.8,27.36-34.51,19.01-91.55-17.21-122.54Zm-422.13,72.1c-.1,67.87-55.35,122.78-123.53,122.78-68.11,0-122.79-54.93-122.73-123.27,.06-68.01,55.39-123.28,123.2-123.08,67.73,.2,123.16,55.85,123.06,123.56Zm-68.33,67.99c-12.93-20.05-31.26-31.15-54.82-31.26-23.1-.11-41.3,10.58-54.34,30.01-4.2,6.25-1.76,9.4,3.54,12.6,15.6,9.41,32.36,14.63,52.36,14.4,17.06,.28,34.11-5.26,49.91-15.1,4.17-2.6,7.07-4.89,3.35-10.65Zm-55.19-60.33c10.72,.09,19.56-8.52,19.74-19.26,.19-10.79-8.12-19.83-18.73-20.39-10.71-.56-20.48,8.95-20.49,19.96,0,10.68,8.81,19.59,19.48,19.68Zm59.39-81.41c-39.48-31.37-94.35-27.22-128.7,9.63-32.82,35.21-30.47,88.74-8.44,114.37,6.44-9.09,12.97-18.54,22.75-23.54,12.62-6.46,16.94-13.9,8.35-26.41-.97-1.42-.8-3.66-1.05-5.54-2.76-20.97,7.55-40.78,26.07-50.13,18.4-9.29,41.08-5.77,55.83,8.66,14.94,14.61,18.64,36.21,9.94,55.65-1.23,2.75-6.82,6.25-1.08,9.37,14.58,7.93,26.12,19.18,35.98,32.71,26.9-40.34,17.92-94.93-19.64-124.78ZM768,640.72c.09,67.88-55.08,123.04-123.15,123.14-68.31,.1-123.26-54.58-123.3-122.7-.04-68.12,54.85-123.28,122.84-123.46,67.62-.18,123.52,55.45,123.6,123.02Zm-68.79,67.46c-23.53-40.02-84.82-40.19-108.89-.29-3.26,5.4-3.01,8.5,2.45,11.93,15.85,9.95,33.02,15.13,51.69,15.5,17.6,.05,38.11-6.29,51.73-15.32,5.04-3.34,6.38-6.1,3.02-11.82Zm-54.72-59.46c11.26,.04,20.24-9.2,19.77-20.35-.44-10.7-9.46-19.2-20.11-18.98-10.6,.22-19.31,9.22-19.26,19.88,.05,10.62,8.9,19.41,19.6,19.45Zm64.89-76.58c-36.33-34.03-93.09-34.17-129.15-.32-33.73,31.67-40.31,87.78-13.93,119.98,8.44-11.93,18.13-22.73,31.17-29.49,6.9-3.57,6.31-6.74,3.44-12.87-7.63-16.32-6.3-32.59,3.75-47.6,14.04-20.97,41.72-27.36,63.44-15.13,22.44,12.64,31.03,39.19,20.68,62.87-1.3,2.98-7.46,6.65-.93,10.16,14.32,7.68,25.45,18.86,35.17,31.78,26.21-32.48,19.54-88.3-13.66-119.4Zm-434.49,114.78c-20.59,51.66-76.76,84.7-130.8,75.93-54.11-8.78-88.69-40.41-103.45-92.93-12.66-45.05,6.27-97.17,44.86-126.82,11.44-8.79,17.65-8.29,27.17,2.2,6.48,9.43,.52,15.97-6,21.12-22.44,17.76-34.79,40.81-37.58,69.03-1.53,15.5,2.45,30.12,8.94,44.09,2.6,5.59,6.05,5.07,9.33,.58,5.48-7.5,12.52-13.34,20.32-18.07,6.41-3.89,7.68-8.27,5.06-15.16-6.23-16.4-4.07-32.13,5.44-46.77,13.77-21.19,41-28.39,64.49-17.22,22.68,10.79,35.4,38.15,26.59,61.11-4.07,10.62-1.69,15.7,7.36,20.91,8.91,5.14,15.33,13.48,22.18,21.19,20.63-31.55,16.29-77.11-9.26-104.45-6.63-7.09-15.67-12.04-19.7-21.51-3.98-7.45-4.57-14.73,2.65-20.43,7.21-5.7,13.96-2.88,20.72,1.89,44.7,31.51,62.46,93.16,41.67,145.32Zm-134.18-58.26c-.29,10.69,8.22,19.68,18.99,20.05,11.33,.4,20.3-8.38,20.21-19.77-.09-10.83-8.63-19.45-19.37-19.56-10.66-.11-19.53,8.52-19.82,19.27Zm73.74,78.77c-24.89-38.8-82.21-39.43-107.4-1.13-4.18,6.36-4.34,10.11,2.81,14.38,15.34,9.17,31.72,14.04,49.47,14.66,17.59,.31,38.86-6.19,52.72-15.28,5.78-3.79,6.14-6.81,2.4-12.63Zm185.97-294.82c9.35,.06,15.56-3.33,16.05-13.37,.44-9.07-5.48-14.29-16.44-14.32-45.14-.1-90.28,.04-135.41-.11-9.62-.03-15.25,4.37-16.22,13.7-.88,8.48,5.83,13.96,16.6,14.01,22.38,.11,44.76,.03,67.14,.03,22.76,0,45.52-.11,68.28,.05Zm81.53-14.2c-.98-8.52-5.82-13.86-14.99-13.44-8.59,.39-13.26,5.76-13.3,13.83-.04,8.8,5.1,13.76,10.78,13.79,12.02-.16,18.43-6.2,17.52-14.18Zm46.57,.83c.45,8.45,4.94,13.22,13.75,13.27,8.67,.04,13.52-4.3,14.14-12.88,.59-8.17-5.59-14.56-13.76-14.71-8.18-.15-14.57,6.08-14.13,14.32Z"/>
</svg>