<?xml version="1.0" encoding="UTF-8"?>
<svg id="Layer_1" data-name="Layer 1" xmlns="http://www.w3.org/2000/svg" viewBox="0 0 14 14">
  <defs>
    <style>
      .cls-1 {
        fill: #393939;
      }

      .cls-2 {
        fill: none;
      }
    </style>
  </defs>
  <rect class="cls-2" width="14" height="14"/>
  <path class="cls-1" d="M11.92,10.78c-.13-.24-.25-.49-.41-.7-.51-.7-.72-1.47-.62-2.33,.03-.24,0-.48,0-.72,0-.52,0-1.04,0-1.56-.02-1.56-1.22-3.15-2.72-3.61-.11-.03-.15-.08-.16-.2-.02-.62-.43-1.05-.99-1.08-.59-.03-1.09,.37-1.15,.98-.02,.21-.11,.29-.29,.35-1.46,.54-2.68,2.13-2.62,3.82,.03,1.03,0,2.06,0,3.09,0,.14-.03,.25-.1,.37-.29,.5-.54,1.02-.86,1.5-.34,.52,.02,1.11,.62,1.08,.74-.04,1.48,0,2.22-.01,.13,0,.2,0,.24,.17,.2,.88,.97,1.5,1.84,1.5,.86,0,1.64-.6,1.84-1.47,.04-.17,.1-.2,.26-.2,.77,0,1.55,0,2.32,0,.53,0,.81-.51,.55-.98ZM6.38,1.53c.06-.25,.27-.44,.51-.46,.28-.02,.51,.12,.6,.37,.06,.16,.07,.28-.17,.22-.28-.06-.56-.02-.83,0-.15,.02-.14-.03-.12-.14Zm1.91,10.43c-.18,.56-.73,.97-1.32,.98-.6,0-1.17-.39-1.36-.95-.06-.17-.03-.23,.17-.22,.39,.01,.79,0,1.18,0s.79,0,1.18,0c.17,0,.19,.05,.14,.2Zm3.06-.7c-.07,0-.13,0-.2,0-1.4,0-2.8,0-4.2,0s-2.85,0-4.28,0c-.33,0-.37-.08-.22-.36,.29-.52,.58-1.03,.88-1.54,.1-.17,.14-.34,.14-.54,0-1.07,0-2.14,0-3.21,0-1.75,1.42-3.3,3.16-3.46,2.26-.2,3.82,1.86,3.76,3.4-.04,1.11,0,2.22,0,3.34,0,.14,.03,.27,.1,.4,.33,.57,.66,1.14,.99,1.7,.09,.15,.04,.25-.13,.26Z"/>
</svg>