<?xml version="1.0" encoding="UTF-8"?>
<svg id="Layer_1" data-name="Layer 1" xmlns="http://www.w3.org/2000/svg" viewBox="0 0 14 14">
  <defs>
    <style>
      .cls-1 {
        fill: #393939;
      }

      .cls-2 {
        fill: none;
      }
    </style>
  </defs>
  <rect class="cls-2" width="14" height="14"/>
  <path class="cls-1" d="M8.84,10.85c-1.19,0-2.38,0-3.57,0-.1,0-.21,0-.31-.04-.14-.07-.2-.18-.19-.33,.01-.13,.08-.23,.21-.28,.09-.03,.19-.03,.28-.03,2.4,0,4.8,0,7.2,0,.09,0,.19,.02,.28,.04,.14,.03,.2,.13,.21,.27,.01,.15-.05,.26-.19,.32-.11,.05-.22,.04-.34,.04-1.2,0-2.4,0-3.6,0Zm3.6-7c.09,0,.17,0,.26-.01,.15-.02,.24-.11,.26-.26,.02-.16-.04-.28-.19-.35-.11-.06-.23-.04-.34-.04-2.36,0-4.72,0-7.09,0-.1,0-.2-.01-.29,0-.17,.04-.3,.14-.29,.33,0,.19,.11,.3,.3,.32,.08,.01,.15,0,.23,0,1.19,0,2.38,0,3.57,0s2.38,0,3.57,0Zm0,2.33c.08,0,.16,.01,.23,0,.18-.04,.29-.14,.28-.34,0-.18-.1-.28-.28-.3-.09,0-.17,0-.26,0-2.37,0-4.74,0-7.11,0-.1,0-.19,0-.29,.01-.16,.03-.25,.13-.25,.3,0,.18,.09,.29,.25,.34,.07,.02,.15,0,.23,0,1.2,0,2.4,0,3.6,0s2.4,0,3.6,0Zm-.04,2.33c.1,0,.19,0,.29-.01,.16-.02,.25-.12,.26-.29,.01-.18-.09-.29-.25-.34-.06-.02-.13,0-.2,0-2.44,0-4.88,0-7.31,0-.05,0-.1,0-.14,0-.18,.04-.29,.14-.29,.33,0,.19,.11,.3,.3,.31,.08,0,.15,0,.23,0,1.19,0,2.38,0,3.57,0s2.36,0,3.54,0Zm.18-7c.23,0,.37-.1,.37-.34,0-.22-.15-.31-.36-.31-2.49,0-4.97,0-7.46,0-.11,0-.21,.01-.29,.1-.09,.1-.12,.22-.07,.35,.07,.16,.2,.2,.37,.2,1.23,0,2.46,0,3.69,0,1.25,0,2.5,0,3.74,0Zm-.04,11.66c.23,0,.41-.07,.4-.33,0-.26-.18-.32-.41-.32-2.45,0-4.9,0-7.35,0-.23,0-.4,.06-.42,.32-.02,.22,.13,.33,.43,.33,1.22,0,2.44,0,3.66,0,1.23,0,2.46,0,3.69,0ZM4,3.19c-.01,.38-.26,.63-.64,.64-.57,.02-1.13,.02-1.7,0-.4-.01-.64-.28-.64-.69,0-.26,0-.52,0-.78,0-.25,0-.5,0-.75,0-.5,.24-.75,.73-.75,.51,0,1.02,0,1.53,0,.42,0,.71,.24,.72,.65,.02,.56,.02,1.12,0,1.67Zm-.66-1.5c0-.16-.05-.19-.2-.19-.43,0-.86,0-1.29,0-.16,0-.2,.06-.19,.2,0,.21,0,.42,0,.63,.01,.27-.12,.64,.05,.8,.15,.13,.51,.03,.78,.03,0,0,0,.01,0,.02,.22,0,.44-.01,.66,0,.16,0,.19-.05,.19-.19,0-.43,0-.86,0-1.29Zm.66,6.15c-.01,.41-.26,.65-.68,.66-.55,.01-1.1,.01-1.64,0-.41,0-.66-.27-.66-.67,0-.54,0-1.08,0-1.61,0-.41,.26-.67,.66-.67,.28,0,.56,0,.84,0,.26,0,.52,0,.78,0,.42,0,.69,.24,.71,.66,.02,.55,.02,1.1,0,1.64Zm-.88-1.67c-.2,.01-.4,0-.6,0-.21,0-.42,0-.63,0-.16,0-.24,.02-.23,.21,.02,.42,.01,.84,0,1.27,0,.15,.03,.2,.19,.2,.43-.01,.86,0,1.3,0,.14,0,.2-.02,.2-.18-.01-.43-.01-.86,0-1.3,0-.18-.07-.2-.22-.2Zm.87,6.33c-.01,.42-.29,.66-.71,.66-.27,0-.54,0-.81,0h0c-.28,0-.56,0-.83,0-.37-.01-.63-.27-.63-.64,0-.57,0-1.13,0-1.7,0-.34,.25-.61,.59-.62,.59-.02,1.19-.02,1.78,0,.37,.01,.6,.26,.61,.66,.02,.55,.02,1.09,0,1.64Zm-.86-1.66c-.43,.01-.86,.01-1.29,0-.15,0-.2,.04-.19,.19,.01,.43,.01,.86,0,1.29,0,.16,.06,.19,.2,.19,.43,0,.86,0,1.29,0,.16,0,.19-.05,.19-.2,0-.22,0-.44,0-.66,0-.2,0-.4,0-.6,0-.15-.02-.22-.2-.21Z"/>
</svg>