<?xml version="1.0" encoding="UTF-8"?>
<svg id="Layer_1" data-name="Layer 1" xmlns="http://www.w3.org/2000/svg" viewBox="0 0 14 14">
  <defs>
    <style>
      .cls-1 {
        fill: #393939;
      }

      .cls-2 {
        fill: none;
      }
    </style>
  </defs>
  <rect class="cls-2" width="14" height="14"/>
  <path class="cls-1" d="M7.44,1.77c-.2-.19-.41-.38-.61-.58-.17-.17-.19-.34-.06-.48,.13-.14,.31-.13,.48,.04,.38,.37,.75,.75,1.13,1.13,.17,.17,.17,.34,0,.52-.38,.38-.76,.76-1.14,1.14-.16,.15-.34,.16-.46,.03-.13-.13-.12-.3,.04-.46,.2-.2,.41-.39,.62-.59-.07-.09-.14-.07-.19-.07-1.28,0-2.57,0-3.85,0-.99,0-1.79,.59-2.08,1.5-.43,1.38,.61,2.73,2.1,2.74,2.15,0,4.3,0,6.45,0,.08,0,.17,0,.25,.02,.14,.03,.22,.13,.22,.28,0,.16-.07,.26-.22,.3-.06,.02-.14,.02-.2,.02-2.17,0-4.34,0-6.51,0-1.28,0-2.36-.82-2.68-2C.24,3.53,1.53,1.85,3.38,1.84c1.28-.01,2.57,0,3.85,0,.06,0,.12,0,.18,0,.01-.02,.03-.04,.04-.07Zm-.76,9.78c.12,0,.24,.01,.36,0,.17-.02,.26-.14,.26-.29,0-.15-.08-.28-.25-.3-.23-.01-.47-.02-.7,0-.16,.01-.26,.13-.26,.29,0,.17,.1,.28,.28,.3,.1,.01,.21,0,.32,0,0,0,0,0,0,0Zm1.84-.6c-.11,0-.23-.01-.34,0-.17,.02-.27,.13-.27,.31,0,.16,.1,.28,.26,.29,.23,.02,.45,.01,.68,0,.18-.01,.27-.14,.27-.31,0-.15-.09-.27-.26-.29-.11-.01-.23,0-.34,0h0Zm1.81,0c-.11,0-.21,0-.32,0-.17,.02-.28,.12-.28,.3,0,.19,.11,.3,.29,.31,.21,.01,.42,0,.63,0,.18,0,.28-.13,.28-.3,0-.17-.09-.29-.27-.3-.11-.01-.23,0-.34,0,0,0,0,0,0,0Zm1.91-.35c-.18,.1-.35,.2-.53,.29-.2,.1-.22,.38-.04,.51,.21,.15,.39,0,.57-.08,.19-.1,.42-.19,.45-.44,0-.24-.25-.39-.44-.28Zm.43-3.32c-.13-.05-.24-.02-.33,.09-.09,.11-.11,.24-.03,.36,.12,.17,.24,.35,.35,.53,.08,.12,.21,.15,.34,.1,.13-.05,.19-.14,.19-.28,0-.2-.34-.72-.52-.79Zm.7,1.99c-.01-.19-.14-.34-.31-.32-.18,.02-.28,.12-.29,.31,0,.19-.03,.37-.05,.56-.01,.19,.07,.31,.26,.33,.19,.03,.31-.09,.34-.26,.03-.15,.07-.31,.05-.45,0-.07,0-.13,0-.18Zm-2.42-2.29c0,.2,.09,.3,.32,.33,.07,0,.14,.02,.2,.02,.19,0,.31-.1,.33-.28,.02-.18-.08-.3-.27-.33-.07-.01-.15-.02-.2-.02-.25,0-.38,.1-.39,.29Zm-5.58,4.49c-.08,.08-.19,.09-.3,.08-.17-.02-.24,.03-.29,.21-.25,.96-1.07,1.6-2.03,1.61-.96,.01-1.78-.61-2.07-1.57-.05-.18-.08-.37-.08-.53,0-1.05,.77-1.98,1.74-2.12,1.13-.17,2.11,.44,2.41,1.49,.06,.22,.14,.34,.39,.3,.13-.02,.25,.05,.3,.19,.05,.13,.02,.24-.07,.33Zm-1.12-.22c0-.83-.68-1.52-1.52-1.52-.83,0-1.53,.7-1.52,1.52,0,.82,.69,1.5,1.51,1.51,.83,0,1.53-.68,1.53-1.51ZM13.38,2.14c0,.84-.68,1.52-1.52,1.52-.83,0-1.53-.69-1.53-1.52,0-.83,.69-1.52,1.53-1.52,.84,0,1.52,.68,1.52,1.52Zm-.6,0c0-.49-.42-.91-.92-.91-.5,0-.89,.4-.9,.9,0,.51,.39,.91,.9,.92,.5,0,.92-.41,.92-.91Z"/>
</svg>