<?xml version="1.0" encoding="UTF-8"?>
<svg id="Layer_1" data-name="Layer 1" xmlns="http://www.w3.org/2000/svg" viewBox="0 0 800 800">
  <defs>
    <style>
      .cls-1 {
        fill: none;
      }

      .cls-2 {
        fill: #010101;
      }
    </style>
  </defs>
  <rect class="cls-1" width="800" height="800"/>
  <path class="cls-2" d="M751.45,355.79c-20.83-9.56-43.99-.18-54.01,22.24-7.93,17.74-15.53,35.64-22.95,53.6-2.18,5.28-4.04,7.13-10.08,4.23-23.71-11.38-45.4-6.9-64.78,10.1-21.58,18.92-45.62,33.83-72.2,44.59-16.77,6.79-29.91,17.89-40.48,32.4-19.73,27.06-26.36,57.64-24.56,90.5,.34,6.16-.11,10.4-7.88,12.62-12.22,3.49-17.58,13.21-17.55,25.91,.06,31.57-.08,63.14,.06,94.71,.08,17.35,10.16,27.29,27.7,27.41,22.22,.15,44.45,.04,66.68,.04,21.84,0,43.67,.09,65.51-.03,18.17-.1,27.51-9.27,27.57-27.17,.11-31.57,.04-63.14,.02-94.71,0-4.27,.68-8.87-2.05-12.47-4.74-6.24-1.75-10.19,2.88-14.75,22.5-22.15,44.69-44.6,67.12-66.82,11.46-11.35,21.33-23.87,28.06-38.53,16.72-36.38,33.32-72.82,49.57-109.42,9.83-22.14,1.67-45.13-18.61-54.43Zm-151.72,383.69c.08,6.77-1.28,9.6-8.9,9.53-39.76-.37-79.52-.34-119.27-.02-7.22,.06-9.24-2.05-9.13-9.23,.42-26.88,.48-53.77-.02-80.65-.15-8.05,2.71-9.7,10.05-9.53,19.48,.45,38.98,.15,58.46,.15,19.88,0,39.77,.33,59.63-.17,7.34-.18,9.28,2.2,9.19,9.26-.35,26.88-.33,53.77,0,80.65Zm146.38-337.26c-15.8,35.14-31.65,70.25-47.74,105.26-5.24,11.4-12.52,21.55-21.43,30.47-26.75,26.76-53.59,53.44-80.17,80.37-4.17,4.22-8.32,6.12-14.32,5.94-14.04-.43-28.09-.14-42.14-.14-14.83,0-29.66-.03-44.49,.02-4.42,.01-8.26,.48-8.49-6.24-.95-28.19,2.06-55.2,19.24-79.01,7.72-10.7,16.89-19.44,29.15-24.44,30.23-12.33,57.7-29.03,82.03-50.86,9.96-8.94,21.45-10.15,33.87-6.24,6.39,2.01,7.82,4.95,3.15,10.6-13.2,16-28.71,29.73-43.11,44.56-7.61,7.84-15.48,15.41-23.13,23.22-6.03,6.16-7.62,13.2-.95,19.49,6.19,5.83,12.94,4.12,18.65-1.64,20.89-21.04,41.98-41.88,62.5-63.27,15.96-16.64,24.25-37.87,33.04-58.69,5.75-13.62,11.43-27.27,17.37-40.8,5.06-11.52,13.08-15.73,21.74-11.83,8.08,3.64,10.2,12.17,5.21,23.25Zm-383.77,246.88c0-8.91-3.66-17.86-11.45-20.15-14.63-4.31-14.36-14.09-13.78-25.59,.35-6.97,.12-14.12-1.01-21-6.59-40.06-23.55-73.7-62.49-91.11-26.91-12.03-51.9-26.47-74.16-45.81-19.13-16.61-40.65-20.71-63.87-9.47-6.69,3.23-8.36,.6-10.61-4.9-6.91-16.91-14.16-33.68-21.54-50.39-10.59-23.98-32.41-33.93-53.82-24.78-21.85,9.34-29.86,33-19.04,57,15.66,34.73,31.51,69.38,47.31,104.05,6.52,14.32,15.37,27.04,26.5,38.18,21.22,21.23,42.23,42.68,63.76,63.61,7.72,7.51,15.81,13.89,7.33,25.78-1.15,1.62-.58,4.56-.58,6.89-.03,31.97-.15,63.94,.03,95.91,.1,16.98,9.94,26.62,27.08,26.75,22.23,.17,44.46,.04,66.69,.04,22.62,0,45.24,.18,67.86-.07,15.19-.16,25.52-9.69,25.68-24.37,.35-33.52,.13-67.06,.1-100.58Zm-190.12-60.84c-76.92-80.48-53.86-44.88-101.25-147.25-5.88-12.7-11.65-25.46-17.37-38.24-5.27-11.77-3.23-20.31,5.57-23.91,8.93-3.66,16.35,.45,21.47,12.3,8.18,18.92,16.23,37.89,24.2,56.9,8.4,20.03,20.31,37.59,35.85,52.82,17.27,16.93,34.3,34.11,51.31,51.29,6.13,6.19,12.98,10.02,20.33,3.23,8.03-7.41,4-14.61-2.45-21.09-20.36-20.45-40.75-40.88-60.88-61.55-3.09-3.17-8.57-7.06-6.57-11.41,1.99-4.33,8.2-5.24,13.41-5.75,9.8-.96,18.55,1.14,26.01,7.86,24.57,22.14,53.01,37.71,82.93,51.61,32.83,15.26,44.34,45.51,47.22,79.26,2.53,29.71,1.83,29.77-27.73,29.77h-24.58c-38.44,10.53-62.62-9.86-87.47-35.85Zm156.84,160.69c-19.87-.32-39.75-.12-59.63-.12-20.27,0-40.54-.23-60.79,.13-6.56,.12-8.71-1.76-8.62-8.53,.36-27.27,.28-54.54,.05-81.81-.05-6.05,.83-9.11,8.11-9.05,40.53,.33,81.06,.26,121.59,.05,5.73-.03,7.35,1.94,7.31,7.42-.2,28.05-.27,56.1,.05,84.14,.07,6.32-2.11,7.86-8.06,7.76ZM599.89,232.3c0-39.83-.17-73.36,.1-106.88,.08-9.77-3.47-15.72-12.77-19.73-59.25-25.6-118.35-51.58-177.4-77.64-6.97-3.08-13.09-2.91-20.02,.15-59.06,26.08-118.18,52.04-177.42,77.71-8.64,3.74-12.61,8.8-12.57,18.48,.29,64.32-.31,128.65,.35,192.97,.46,44.87,19.24,81.43,55.31,108.17,42.56,31.54,85.75,62.23,128.75,93.17,10.4,7.48,20.8,7.56,31.29,.02,43.68-31.37,87.69-62.3,130.68-94.58,31.77-23.85,49.4-56.61,52.6-96.42,2.72-33.85,.29-67.8,1.08-95.4Zm-25.37,81.81c-.23,39.24-16.43,70.74-48.33,93.84-39.15,28.35-78.52,56.41-117.54,84.96-6.27,4.59-10.45,5.22-17.12,.31-39.25-28.85-78.98-57.04-118.4-85.67-31.84-23.13-47.86-54.51-47.91-93.92-.03-26.91,0-53.82,0-80.73,0-31.2,.31-62.4-.21-93.6-.15-8.79,2.77-12.78,10.92-16.26,51.85-22.19,103.47-44.92,154.99-67.89,6.76-3.01,12.23-2.6,18.63,.22,51.94,22.94,103.89,45.85,156.03,68.3,6.85,2.95,9.24,6.4,9.2,13.76-.28,58.89,.09,117.78-.26,176.67Zm-68.07,397.65c-9.44-.1-18.47-.39-18.93-12.5-.35-9.18,6.7-12.74,21.94-12.51,9.4,.14,15.24,3.79,14.62,13.7-.73,11.69-9.89,11.02-17.62,11.31Zm-215.18-.07c-4.97-.26-13.47,.75-15.79-9.55-1.2-5.34,.21-10.45,5.2-13.02,7.9-4.07,16.6-3.36,24.65-.8,4.94,1.58,7.81,6.57,6.99,12.14-1.58,10.79-9.81,11.45-21.05,11.22ZM549.84,156.22c.04-8.56-3.26-13.62-11.12-17.03-43.53-18.86-86.94-37.99-130.34-57.13-5.72-2.52-11.05-2.57-16.8-.03-43.41,19.15-86.83,38.31-130.38,57.13-8.31,3.59-11.81,8.86-11.7,17.9,.33,27.28,.12,54.58,.12,81.86,0,24.56-.02,49.12,0,73.68,.03,30.91,12.05,55.95,37.15,74.21,34.02,24.76,68.3,49.15,102.31,73.93,7.34,5.35,13.77,5.69,21.21,.28,34.98-25.44,70.41-50.26,105.1-76.08,21.84-16.25,33.75-38.9,34.08-66.16,.65-54.18,.13-108.37,.36-162.56Zm-25.48,157.17c.05,23.2-9.35,41.18-28.25,54.66-29.84,21.27-59.52,42.76-89.05,64.46-5.23,3.85-8.71,4.1-14.17,.07-30.42-22.44-61.28-44.27-91.81-66.56-16.79-12.26-25.67-28.95-25.77-49.91-.12-24.18-.03-48.35-.04-72.53-.01-24.18,.34-48.36-.22-72.53-.18-7.82,2.19-11.81,9.41-14.88,35.42-15.09,70.69-30.56,105.86-46.24,6.52-2.91,12.09-3.3,18.74-.34,35.51,15.84,71.14,31.41,106.86,46.78,6.23,2.68,8.63,6.19,8.58,13.14-.3,47.96-.24,95.93-.13,143.89Zm-37.27-126.96c-.26,5.97-2.28,8.87-4.23,11.79-31.58,47.31-63.13,94.64-94.79,141.9-8.11,12.11-12.91,12.88-24.73,4.19-14.44-10.62-28.71-21.47-43.07-32.19-6.98-5.21-11.42-11.5-5.08-19.64,6.19-7.96,13.4-5.8,20.44-.4,9.27,7.12,19.11,13.56,27.93,21.19,6.59,5.71,9.74,4.18,14.14-2.51,27.38-41.67,55.13-83.11,82.78-124.61,3.68-5.52,7.16-11.85,15.12-11.07,7.83,.77,11.35,5.94,11.5,11.33Z"/>
</svg>