<?xml version="1.0" encoding="UTF-8"?>
<svg id="Layer_1" data-name="Layer 1" xmlns="http://www.w3.org/2000/svg" viewBox="0 0 800 800">
  <defs>
    <style>
      .cls-1 {
        fill: #020202;
      }

      .cls-2 {
        fill: none;
      }
    </style>
  </defs>
  <rect class="cls-2" width="800" height="800"/>
  <path class="cls-1" d="M751.6,124.28c-6.73-7.58-13.65-3.59-19.94,2.21-15.49,14.3-31.03,28.55-46.85,42.48-5.03,4.43-7.18,9.39-7.1,15.91,.17,14.19-.19,28.4,.16,42.58,.15,6.22-1.71,8.8-8.24,8.39-7.67-.48-15.4,.06-23.1-.15-9.47-.25-14.76,4.13-14.79,13.6-.14,43.8-.14,87.61,0,131.41,.03,9.27,4.93,14.12,14.54,13.92,8.1-.17,16.22,.17,24.32-.08,5.15-.16,7.23,1.74,7.21,7.01-.18,53.53,.35,107.08-.6,160.6-.34,19.14-16.22,32.43-34.47,32.38-20-.05-34.67-15.31-34.9-37.34-.35-34.47,.37-68.96-.32-103.42-.71-35.56-26.29-62.71-61.2-64.91-10.18-.64-12.43-4.05-12.4-13.72,.35-97.74-.67-195.5,.66-293.23,.5-37.08-23.06-57.99-57.48-57.74-119.99,.85-239.99,.31-359.98,.34-38.67,.01-57.35,18.79-57.35,57.53,0,181.3,0,362.59,0,543.89,0,11.76-.17,23.53,.08,35.28,.11,5.1-1.02,7.77-6.68,9.33-15.05,4.16-20.41,11.54-20.69,27.22-.28,15.41-.1,30.82-.06,46.24,.07,24.67,8.14,32.81,32.8,32.83,77.02,.04,154.05,.02,231.07,.02,15,0,30,0,45,0,63.65,0,127.29,.08,190.94-.05,20.28-.04,29.65-9.61,29.77-29.74,.1-17.03,.23-34.07-.06-51.1-.22-13.05-6.74-22.56-18.85-24.9-8.28-1.6-8.97-5.67-8.96-12.46,.15-78.68,.36-157.37-.18-236.05-.08-11.68,4.88-12.55,13.73-11.15,22.21,3.49,37.35,21.98,37.55,46.91,.28,34.47-.39,68.96,.32,103.42,.67,32.88,28.32,57.79,60.82,56.06,29.95-1.6,53.63-26.69,53.88-58.29,.39-49.88,.48-99.78-.13-149.66-.14-11.66,1.82-17.65,14.95-15.47,5.92,.98,12.13,.15,18.21,.14,7.82-.02,12.62-4.06,12.66-11.71,.25-45.02,.25-90.04,.1-135.05-.03-7.62-4.35-11.98-12.31-12.01-8.11-.03-16.24-.4-24.32,.08-6.71,.4-9.53-1.56-9.17-8.74,.52-10.52,.47-21.1,.01-31.62-.29-6.64,1.75-11.33,6.84-15.73,13.49-11.66,26.48-23.9,39.74-35.83,6.15-5.53,11.65-11.85,4.76-19.6ZM83.17,78.42c0-21.59,8.71-30.55,30.01-30.56,122.43-.07,244.86-.07,367.3,0,22.19,.01,30.81,8.75,30.82,31.2,.06,96.13,.03,192.26,.03,288.38,0,96.53-.16,193.07,.24,289.6,.04,10.17-2.7,12.79-12.79,12.76-134.59-.34-269.19-.33-403.78,0-9.72,.02-12.06-2.65-12.05-12.18,.28-193.07,.2-386.13,.23-579.2Zm455.79,625.75c-.8,12.92-.81,25.96,0,38.87,.59,9.51-3.07,11.34-11.82,11.31-76.95-.32-153.9-.18-230.84-.18-76.14,0-152.28-.19-228.41,.23-10.12,.06-13.47-2.67-12.74-12.82,.87-12.09,.94-24.35-.01-36.43-.84-10.63,3.36-12.5,13.05-12.47,108.54,.33,217.07,.21,325.61,.21,44.55,0,89.1,.25,133.64-.21,9.05-.09,12.1,2.26,11.53,11.5Zm176.36-445.86c6.58-.13,8.24,2.55,8.12,8.62-.3,16.17-.1,32.35-.1,48.52,0,15.77-.27,31.55,.13,47.31,.17,6.75-1.79,9.29-8.86,9.11-16.96-.44-33.95-.45-50.92,0-7.19,.19-8.81-2.59-8.76-9.21,.27-31.94,.24-63.89,.02-95.83-.04-6.18,1.78-8.64,8.24-8.52,17.37,.33,34.76,.34,52.13,0Zm-449.24,111.73c-8.55,.69-16.16-1.54-16.23-11.48-.07-10.14,7.87-11.7,16.33-11.6,8.1,.09,16.47,.38,16.77,10.98,.31,11.15-7.86,12.66-16.87,12.11Zm-125.08-22.81c8.82-.4,16.58,.98,16.47,11.47-.11,10.35-7.76,11.51-16.19,11.54-8.89,.03-17.18-1.28-16.71-12.23,.43-10.06,8.58-11.31,16.43-10.78Zm63.15,22.77c-8.45,.61-16.33-.69-16.8-10.91-.47-10.29,7.06-12.08,15.62-12.13,8.69-.05,17.48,.83,17.47,11.64,0,9.67-7.66,12.23-16.29,11.4ZM477.09,105.77c0-16.17-2.65-18.69-19.36-18.69-53.49-.02-106.98,0-160.47,0-53.89,0-107.79-.02-161.68,.01-15.2,.01-18.41,3.2-18.43,18.57-.05,62.84-.05,125.68,0,188.52,.01,15.39,3.91,19.21,19.53,19.22,106.98,.04,213.96,.04,320.93,0,15.81,0,19.45-3.61,19.46-19.1,.04-62.84,.04-125.68,0-188.52Zm-34.92,183.79c-48.63-.35-97.26-.17-145.89-.17-48.23,0-96.45-.26-144.68,.23-9.23,.09-11.56-2.51-11.49-11.54,.42-52.3,.37-104.61,.03-156.91-.05-8.29,1.99-11.11,10.75-11.09,97.67,.3,195.33,.28,293,.03,8.08-.02,10.21,2.44,10.16,10.38-.34,52.71-.45,105.42,.08,158.12,.1,9.86-3.58,11.01-11.96,10.95Zm-144.92,114.89c-65.14,.03-118.23,53.08-118.43,118.35-.19,64.47,52.75,118.64,116.55,119.26,65.38,.64,119.98-52.85,120.45-118,.47-65.51-53.19-119.65-118.58-119.62Zm.65,214.05c-52.94,.33-96.23-42.44-96.34-95.19-.1-52.01,42.97-95.34,94.94-95.52,53.23-.18,95.97,42.28,95.96,95.32-.01,52.72-41.98,95.05-94.56,95.39Zm-1.24-406.94c-16.97,.04-24.03-3.45-22.88-12.24,1.88-14.35,13.62-10.62,22.71-11.18,4.4-.27,8.87-.2,13.25,.27,6.97,.75,11.37,4.86,10.9,11.96-.45,6.81-4.79,10.88-11.92,11.16-4.02,.16-8.04,.03-12.07,.03Zm-82.97-23.45c7.39,.84,20.31-2.91,20.16,11.79-.14,14.36-12.67,11.35-21.96,11.68-3.61,.13-7.23,0-10.85,.02-8.02,.06-13.54-3.38-13.63-11.8-.1-8.76,6.12-11.42,13.77-11.67,3.61-.12,7.23-.02,12.51-.02Zm169.49,23.38c-16.98,.11-24.4-3.55-23.03-12.19,2.21-13.9,13.7-10.82,22.98-11.17,4.41-.17,8.88-.16,13.27,.3,6.34,.67,10.71,4.23,10.95,10.79,.26,7.09-4.13,11.22-10.9,12.16-4.34,.6-8.84,.11-13.27,.11Zm-39.42,310.91c-8.28-22.22-22.03-41.29-36.67-59.63-6.46-8.1-13.55-7.95-20.22,.42-14.38,18.04-27.74,36.89-36.23,58.53-12.86,32.78,11.42,67.5,46.73,67.38,34.75-.12,58.54-34.05,46.38-66.69Zm-35.46,41.41c-10.48,4.72-20.64,3.14-29.24-4.66-8.18-7.42-11.3-16.81-7.45-27.42,5.14-14.13,13.56-26.52,22.14-38.75,1.31-1.87,3.25-4.93,5.44-1.87,10.77,15.05,21.79,30.04,25.38,47.45-1.08,12.4-6.3,20.75-16.28,25.25Z"/>
</svg>