<?xml version="1.0" encoding="UTF-8"?>
<svg id="Layer_1" data-name="Layer 1" xmlns="http://www.w3.org/2000/svg" viewBox="0 0 800 800">
  <defs>
    <style>
      .cls-1 {
        fill: #101010;
      }

      .cls-2 {
        fill: none;
      }
    </style>
  </defs>
  <rect class="cls-2" width="800" height="800"/>
  <path class="cls-1" d="M652.65,216.06c-9.71,0-19.43,0-29.14,0-7.3,0-12.65-2.71-12.81-10.77-.16-7.76,5.22-10.25,11.89-10.29,19.8-.12,39.6-.13,59.4,.05,6.66,.06,11.99,2.66,11.77,10.43-.21,7.42-5.18,10.39-11.97,10.52-9.71,.18-19.43,.05-29.14,.05Zm-30.21,24.55c-7.15-.14-11.79,2.64-11.71,10.17,.07,6.65,4.14,10.3,10.75,10.34,20.53,.12,41.05,.15,61.58-.05,6.49-.07,10.68-3.72,10.67-10.45,0-6.83-4.11-9.98-10.83-9.95-10.45,.04-20.9,.01-31.35,0-9.7,0-19.41,.13-29.11-.06Zm120.53,114.55c0,16.06-2.1,18.15-18.11,18.17-30.69,.03-61.38,0-92.07,.01-5.35,0-10.69-.11-13.61-5.7-4.12-7.88,.79-15.05,11.24-15.25,19.83-.39,39.67,.02,59.5-.22,10.04-.13,22.96,4.21,29.38-1.7,7.11-6.55,2.27-19.82,2.32-30.11,.29-56.54-.07-113.08,.35-169.61,.07-8.99-2.48-11.18-11.22-11.06-37.05,.49-74.1,.5-111.15,0-8.59-.12-10.45,2.39-10.42,10.65,.3,96.22,.19,192.45,.19,288.68,0,20.85-1.21,22.05-22.35,22.16-3.31,.02-6.62,0-10.81,0,10.66,37.26,14.37,74.06,6.3,110.95-6.22,28.47-13.56,56.83-22.68,84.48-9.32,28.26-12.17,56.77-11.02,86.16,.56,14.11-2.95,17.21-16.92,17.23-37.8,.05-75.6,.02-113.4,.02-1.5,0-2.99,.02-4.49-.02-7.49-.18-12.45-3.56-12.12-11.48,.31-7.64,5.79-9.61,12.55-9.6,33.31,.04,66.63-.37,99.92,.25,10.08,.19,14.22-2.18,12.99-12.83-4.11-35.88,10.76-68.3,19.81-101.64,10.12-37.27,21.32-74.12,17.14-113.53-3.1-29.22-12.2-57-19.54-85.2-1.97-7.57-8.36-10.41-15.57-10.5-7.3-.09-13.07,3.17-15.79,10.36-.91,2.41-1.14,5.08-1.65,7.64-1.17,5.77-5.11,8.03-10.56,7.98-5.7-.06-9.1-3.21-9.89-8.76-.47-3.31-.22-6.72-.41-10.08-.65-11.09-5.72-16.42-16.51-17.45-11.92-1.14-17.97,2.87-20.79,13.82-.47,1.81-.47,3.75-1.09,5.49-1.7,4.76-5.47,7.53-10.27,7.12-5.14-.43-9.29-3.4-9.75-9.15-.42-5.21-.1-10.48-.36-15.71-.56-11.53-7.24-17.96-18.53-18.01-11.53-.05-18.11,6.07-18.91,17.6-.03,.37-.02,.75-.03,1.12-.09,8.72,.57,19.55-11.48,19.07-11.09-.44-10.03-10.94-10.02-19.25,.03-40.06,.02-80.13,0-120.19,0-4.46,.4-8.98-1.99-13.14-3.77-6.55-9.36-9.56-16.81-8.64-7.52,.93-12.33,5.43-13.9,12.7-.86,3.96-.56,8.19-.56,12.3-.03,88.74-.02,177.47-.02,266.21,0,3-.01,5.99-.03,8.99-.04,7.15-3.94,11.95-10.67,11.95s-10.46-5.25-10.57-12.14c-.17-10.48-.09-20.97-.1-31.45-.01-17.97,.19-35.95-.09-53.92-.17-11.09-6.32-18.15-15.65-18.29-10.28-.16-16.17,5.6-17.31,15.48-4.79,41.27-9.69,82.53-13.73,123.87-1.89,19.27,7.13,34.97,20.71,47.81,12.78,12.07,26.14,23.54,39.59,34.87,5.62,4.74,8.39,9.89,7.99,17.38-.52,9.71,.27,19.48-.26,29.19-.39,7.1,2.4,9.38,9.08,8.76,4.08-.38,8.23-.11,12.34,0,6.66,.16,10.83,3.63,10.88,10.25,.04,5.97-3.92,10.17-9.73,10.46-11.19,.57-22.47,.66-33.65-.02-7.85-.48-10.18-6.52-10.17-13.65,.02-12.73-.23-25.47,.1-38.19,.14-5.36-1.53-9.05-5.67-12.5-11.22-9.32-22.31-18.84-33.06-28.7-23.43-21.5-33.32-47.72-28.9-79.75,4.96-35.96,8.58-72.1,12.87-108.15,.66-5.53,1.75-11.01,2.81-17.56-8.43,0-16.92,.11-25.41-.03-11.78-.19-15.39-3.67-15.49-15.49-.17-20.59-.62-41.2,.2-61.76,.39-9.57-3.31-10.79-11.49-10.72-39.67,.36-79.34,.18-119.01,.16-16.22,0-18.39-2.11-18.4-17.88-.02-87.61-.02-175.23,0-262.84,0-14.75,1.99-16.73,17.04-16.76,40.05-.06,80.1-.33,120.13,.2,9.57,.13,12.88-2.85,11.53-12.02-.43-2.93,.02-5.98-.08-8.98-.3-9.69,3.8-14.3,14.03-14.29,118.64,.16,237.28,.14,355.92,.04,10.19,0,13.8,4.8,13.86,14.53,.14,20.49,.39,20.49,20.54,20.49,38.55,0,77.1-.04,115.65,.02,15.55,.02,17.31,1.85,17.31,17.6,.02,87.24,.02,174.48,0,261.72ZM205.84,149.1c.09-7.4-2.06-9.45-9.41-9.38-36.28,.36-72.57,.37-108.85,0-7.36-.08-9.51,1.89-9.48,9.34,.28,64.37,.27,128.74,0,193.11-.03,7.66,1.94,10.34,9.98,10.25,35.91-.4,71.82-.39,107.73,0,7.95,.09,10.11-2.45,10.02-10.19-.38-32.18-.16-64.37-.16-96.55s-.22-64.37,.17-96.55Zm-8.16-52.19c-36.97,.41-73.95,.46-110.92-.02-8.4-.11-8.85,3.69-8.62,10.05,.22,6.1-1.02,11.73,8.69,11.37,18.65-.7,37.34-.2,56.01-.2,18.3,0,36.61-.42,54.9,.16,10.34,.33,7.45-6.51,7.98-11.96,.59-6.04-.26-9.48-8.03-9.39Zm39.44,21.39c53.46-.39,106.92-.2,160.38-.2s106.92-.14,160.38,.16c7.49,.04,10.73-1.44,10.28-9.72-.69-12.68-.51-25.44-.05-38.14,.25-6.8-1.82-8.92-8.79-8.9-108.05,.21-216.09,.21-324.14-.01-7.24-.01-8.85,2.57-8.63,9.12,.41,12.33,.63,24.71-.06,37.01-.47,8.42,2.14,10.74,10.62,10.68Zm330.78,310.86c.11-93.25-.03-186.49,.28-279.74,.03-8.21-2.6-9.74-10.16-9.7-53.53,.32-107.06,.17-160.58,.17-53.53,0-107.06,.12-160.58-.14-7.32-.04-10.4,1.19-10.37,9.59,.3,93.62,.21,187.24,.15,280.86,0,5.27-.12,9.42,7.37,9.26,19.08-.41,38.18-.36,57.26-.01,6.35,.11,7.42-2.71,7.29-8.09-.27-11.23-.08-22.47-.08-33.7,0-38.2-.19-76.4,.1-114.59,.15-19.58,11.26-33.85,28.58-38.13,17.53-4.33,33.48,2.31,42.57,18.92,3.04,5.55,6.39,6.95,12.22,6.9,29.2-.25,58.4-.4,87.59,.04,17.61,.26,29.71,11.82,31.71,28.82,3.5,29.85-4.54,48.34-23.3,53.3-2.14,.57-4.45,.65-6.68,.65-18.72,.06-37.43-.07-56.15,.12-7.47,.08-12.96-2.65-13.1-10.43-.15-8.02,5.63-10.58,12.95-10.54,13.1,.07,26.2,0,39.3,0,26.11,0,26.78-.9,25.97-27.33-.27-8.87-3.81-13-12.86-12.95-28.45,.17-56.9,.19-85.34-.06-5.83-.05-7.74,1.72-7.65,7.65,.32,20.59,.34,41.2,0,61.79-.11,6.58,1.51,8.38,8.19,6.76,17.63-4.27,32.68,.57,43.8,15.11,3.33,4.36,5.94,4,10.29,2.19,11.32-4.71,23.94-5.4,33.4,1.74,11.72,8.85,21.94,9.84,36.31,7.06,20.88-4.04,35.32,9.92,41.61,36.09,2.12,8.82,7.25,8.62,13.92,8.67,8.52,.07,6.02-6.05,6.02-10.26ZM721.72,106.63c.53-5.55,.59-9.98-7.66-9.73-19.4,.59-38.83,.19-58.24,.19-19.42,0-38.84,.36-58.24-.18-7.45-.21-9.14,2.74-8.21,9.11,.75,5.16-3.06,12.33,7.61,12.23,39.2-.38,78.41-.32,117.62-.03,9.87,.07,6.66-6.64,7.13-11.58Zm-311.69,77.51c-7.46-.05-14.23,1.44-13.91,10.44,.31,8.54,6.8,10.41,14.37,10.39,34.34-.12,68.69-.12,103.03,0,7.9,.03,14.96-1.58,15.03-10.86,.07-9.05-7.12-10-14.37-9.96-17.17,.09-34.34,.03-51.51,.03-17.54,0-35.09,.08-52.63-.04Zm-267.7,10.91c-10.47,0-20.94-.11-31.41,.04-6.38,.09-11.27,3.05-11.38,9.8-.12,7.09,4.5,11,11.49,11.06,20.19,.18,40.39,.19,60.58,.02,7.06-.06,11.46-4.04,11.28-11.18-.18-6.83-5.02-9.66-11.4-9.75-9.72-.14-19.44-.04-29.17-.04,0,.02,0,.03,0,.05Zm-30.45,45.53c-7.06-.17-12.17,2.5-12.3,9.79-.12,7.04,4.56,10.75,11.65,10.77,20.17,.06,40.35,.1,60.52-.03,7.18-.05,11.42-4.1,11.06-11.21-.34-6.69-4.85-9.45-11.54-9.31-10.08,.22-20.17,.06-30.26,.05-9.71,0-19.43,.17-29.14-.06ZM341.38,79.87c-7.6,0-15.01,.88-14.98,10.7,.02,9.47,6.99,11.14,14.79,11.14,37.69-.02,75.38-.03,113.07,0,7.98,0,14.71-2.44,14.57-11.52-.13-8.73-7.01-10.34-14.38-10.33-18.66,.04-37.32,.01-55.98,.01-19.03,0-38.06,.01-57.1,0Zm23.46,135.1c.18,9.96-4.85,14.53-14.29,14.57-25.42,.12-50.84,.14-76.26-.01-9.54-.06-14.28-5.13-14.19-14.83,.13-13.84,.06-27.68,.02-41.51-.03-9.33,4.65-13.61,13.88-13.53,13.08,.12,26.17,.03,39.25,.03,12.34,0,24.68,.22,37.01-.07,10.52-.25,14.89,4.56,14.61,14.96-.36,13.45-.27,26.93-.03,40.39Zm-21.38-19.66c-.3-1.81-.24-3.74,0-5.57,.81-6.51-1.31-9.33-8.5-9.08-14.86,.52-29.76,.5-44.62,0-7.1-.23-9.36,2.44-8.58,9.04,.3,2.57,.34,5.24,0,7.8-1.03,7.58,1.57,10.86,9.67,10.09,7-.67,14.12-.14,21.18-.14,6.32,0,12.74-.69,18.94,.16,10.19,1.39,13.51-2.74,11.91-12.31Z"/>
</svg>