<?xml version="1.0" encoding="UTF-8"?>
<svg id="Layer_1" data-name="Layer 1" xmlns="http://www.w3.org/2000/svg" viewBox="0 0 14 14">
  <defs>
    <style>
      .cls-1 {
        fill: #393939;
      }

      .cls-2 {
        fill: none;
      }
    </style>
  </defs>
  <rect class="cls-2" width="14" height="14"/>
  <path class="cls-1" d="M13.22,6.24c0-.14-.06-.22-.19-.27-.22-.08-.44-.18-.67-.25-.14-.04-.19-.12-.22-.25-.1-.37-.26-.73-.45-1.07-.05-.09-.06-.16,0-.26,.11-.22,.2-.45,.3-.68,.06-.13,.05-.24-.06-.34-.36-.35-.71-.71-1.06-1.06-.1-.1-.2-.12-.32-.06-.23,.11-.46,.2-.69,.31-.09,.04-.16,.05-.24,0-.36-.21-.74-.36-1.14-.47-.09-.03-.13-.07-.16-.15-.09-.24-.18-.47-.27-.71-.05-.14-.13-.2-.28-.2-.5,0-1,0-1.5,0-.15,0-.23,.07-.28,.2-.08,.23-.18,.45-.25,.67-.04,.12-.11,.17-.22,.2-.38,.1-.74,.26-1.09,.45-.09,.05-.17,.05-.26,0-.22-.11-.45-.2-.68-.3-.13-.06-.24-.05-.34,.06-.35,.36-.71,.71-1.06,1.06-.1,.1-.12,.2-.06,.32,.11,.23,.2,.46,.31,.69,.04,.08,.05,.14,0,.22-.21,.37-.37,.75-.48,1.16-.03,.09-.07,.13-.15,.16-.24,.08-.47,.18-.71,.27-.14,.05-.2,.13-.2,.29,0,.5,0,1,0,1.5,0,.14,.05,.22,.18,.27,.23,.08,.44,.18,.67,.26,.12,.04,.19,.1,.22,.22,.1,.38,.26,.74,.45,1.09,.05,.09,.05,.17,0,.26-.1,.22-.19,.44-.3,.66-.07,.15-.05,.26,.07,.37,.35,.34,.69,.69,1.03,1.03,.11,.11,.22,.13,.36,.06,.22-.11,.45-.2,.68-.3,.08-.04,.14-.05,.22,0,.36,.21,.75,.37,1.16,.48,.08,.02,.13,.06,.16,.15,.08,.23,.18,.46,.26,.69,.05,.15,.14,.22,.31,.22,.49,0,.98,0,1.46,0,.16,0,.25-.06,.3-.21,.08-.22,.18-.43,.25-.65,.04-.12,.1-.19,.22-.22,.38-.1,.74-.26,1.09-.45,.09-.05,.17-.05,.26,0,.23,.11,.46,.2,.69,.31,.12,.06,.22,.04,.31-.05,.36-.36,.73-.73,1.09-1.09,.05-.05,.09-.1,.08-.21-.01-.03-.03-.1-.06-.16-.09-.21-.19-.43-.29-.64-.04-.08-.05-.14,0-.22,.21-.36,.37-.75,.48-1.16,.02-.09,.07-.13,.15-.16,.24-.09,.47-.18,.71-.27,.14-.05,.2-.13,.2-.28,0-.5,0-1,0-1.5Zm-.4,1.3c0,.09-.03,.14-.12,.17-.23,.08-.45,.17-.67,.25-.12,.04-.19,.12-.23,.25-.11,.46-.29,.9-.54,1.31-.06,.11-.07,.21-.02,.32,.11,.22,.2,.45,.3,.68,.03,.06,.05,.11,0,.16-.29,.28-.57,.57-.85,.85-.02,.02-.04,.03-.06,.04-.07-.03-.15-.05-.21-.09-.45-.29-.87-.34-1.33,0-.23,.17-.53,.24-.82,.3-.15,.03-.25,.11-.29,.26-.03,.1-.08,.2-.11,.3q-.18,.47-.67,.47c-.23,0-.47,0-.7,0-.11,0-.17-.02-.2-.14-.08-.23-.17-.45-.26-.67-.04-.11-.11-.17-.22-.2-.47-.12-.92-.3-1.34-.56-.1-.06-.2-.06-.3-.01-.22,.1-.45,.2-.67,.3-.08,.04-.13,.03-.19-.03-.26-.27-.53-.53-.79-.79-.06-.06-.07-.11-.03-.19,.1-.22,.19-.44,.3-.66,.06-.12,.05-.22-.02-.34-.25-.4-.42-.83-.54-1.29-.03-.14-.11-.22-.24-.27-.22-.08-.43-.17-.65-.25-.09-.03-.13-.07-.12-.17,0-.37,0-.74,0-1.1,0-.09,.02-.14,.12-.17,.22-.07,.43-.17,.65-.25,.13-.05,.21-.12,.24-.26,.11-.46,.29-.9,.54-1.31,.07-.11,.07-.21,.01-.32-.1-.22-.19-.44-.29-.66-.04-.09-.03-.14,.04-.21,.26-.26,.52-.52,.78-.78,.07-.07,.13-.07,.21-.03,.22,.1,.44,.19,.66,.29,.11,.05,.22,.05,.32-.02,.41-.25,.84-.43,1.31-.54,.13-.03,.21-.1,.25-.23,.08-.22,.17-.43,.25-.65,.03-.1,.08-.13,.18-.13,.36,0,.72,0,1.08,0,.1,0,.15,.03,.19,.13,.07,.21,.17,.42,.24,.63,.05,.14,.13,.22,.28,.25,.45,.11,.88,.28,1.27,.53,.13,.08,.25,.08,.38,.02,.21-.1,.43-.19,.64-.29,.08-.04,.13-.03,.19,.04,.26,.27,.53,.53,.79,.79,.07,.06,.06,.12,.03,.19-.1,.22-.19,.44-.29,.66-.06,.12-.05,.23,.02,.34,.24,.4,.42,.83,.54,1.29,.03,.14,.1,.22,.24,.27,.23,.08,.45,.17,.67,.26,.08,.03,.11,.07,.11,.16,0,.37,0,.74,0,1.1Zm-7.73,2.45c.46,.29,.95,.46,1.48,.53,1.76,.22,3.5-.93,3.92-2.8,.18-.83,.06-1.63-.33-2.39-.02-.04-.04-.08-.06-.12-.07-.11-.05-.21,.06-.28,.12-.07,.22-.03,.29,.08,.19,.31,.32,.64,.41,1,.51,2.11-.68,4.18-2.77,4.79-1.05,.3-2.06,.16-3.02-.36-.08-.05-.19-.18-.21,.06,0,.08-.08,.13-.17,.14-.09,0-.16-.04-.19-.12-.07-.23-.15-.47-.2-.71-.03-.15,.06-.23,.2-.24,.23-.01,.47-.01,.7-.01,.09,0,.15,.05,.17,.14,.02,.09,0,.18-.09,.22-.05,.03-.11,.04-.18,.07ZM9.12,3.63c0-.08,0-.17,.07-.23,.11-.1,.28-.05,.33,.11,.07,.21,.13,.42,.18,.63,.04,.17-.04,.26-.2,.28-.19,.02-.39,.01-.58,.02-.13,0-.27,0-.29-.17-.02-.18,.1-.23,.28-.25-.31-.23-.64-.36-.97-.45-1.89-.51-3.8,.55-4.36,2.42-.28,.93-.17,1.83,.28,2.69,.03,.06,.07,.13,.08,.2,0,.1-.06,.16-.15,.19-.11,.04-.19-.02-.25-.12-.18-.3-.31-.62-.39-.96-.54-2.12,.67-4.22,2.78-4.82,1.08-.31,2.1-.15,3.07,.4,.03,.02,.06,.03,.09,.05,0,0,.01,0,.03,0Zm.03,2.47c-.09-.04-.11-.09-.11-.18,0-.25,0-.51,0-.76,0-.39-.35-.6-.7-.41-.18,.09-.35,.19-.52,.29-.72,.44-1.47,.72-2.35,.65-.56-.05-1.02,.43-1.04,.97-.02,.59,.39,1.07,.97,1.11,.12,0,.15,.05,.14,.15,0,.23,0,.47,0,.7,0,.47,.33,.75,.8,.7,.14-.01,.22-.08,.22-.23,0-.19,0-.39,0-.58,0-.17,0-.33,0-.5-.01-.16,.03-.19,.19-.14,.55,.17,1.04,.45,1.52,.76,.17,.11,.35,.15,.53,.05,.18-.1,.25-.27,.24-.47,0-.21,0-.41,0-.62,0-.11,.01-.17,.13-.23,.25-.12,.39-.34,.39-.62,0-.29-.15-.51-.41-.63Zm-3.77,1.26c-.3-.02-.55-.32-.55-.63,0-.32,.24-.61,.55-.64,.23-.02,.45,0,.68,0,.1,0,.1,.06,.1,.13,0,.17,0,.35,0,.52s0,.35,0,.52c0,.09-.03,.12-.12,.12-.22,0-.44,0-.66,0Zm.75,1.52s-.08,0-.11-.04c-.06-.05-.08-.12-.08-.2,0-.25,0-.51,0-.76,0-.08,.01-.12,.11-.12,.1,0,.11,.05,.1,.13,0,.15,0,.29,0,.44,0,.15,0,.31,0,.46,0,.03,.01,.07-.03,.09Zm1.7-.99c-.37-.2-.76-.37-1.18-.47-.08-.02-.08-.07-.08-.13,0-.38,0-.76,0-1.14,0-.06,0-.12,.08-.14,.45-.12,.86-.34,1.31-.58,0,.82,0,1.6,0,2.38,0,.09,0,.14-.12,.08Zm.75,.42c-.1,0-.21-.05-.22-.19,0-.03,0-.07,0-.1,0-.89,0-1.77,0-2.66,0-.03,0-.07,0-.1,.01-.13,.13-.16,.21-.17,.11,0,.07,.11,.07,.17,0,.48,0,.96,0,1.44,0,.47,0,.95,0,1.42,0,.07,.04,.18-.06,.18Zm.48-1.36c-.03-.16-.02-.29,0-.45,.16,.16,.15,.29,0,.45Z"/>
</svg>