<?xml version="1.0" encoding="UTF-8"?>
<svg id="Layer_1" data-name="Layer 1" xmlns="http://www.w3.org/2000/svg" viewBox="0 0 14 14">
  <defs>
    <style>
      .cls-1 {
        fill: #393939;
      }

      .cls-2 {
        fill: none;
      }
    </style>
  </defs>
  <rect class="cls-2" width="14" height="14"/>
  <path class="cls-1" d="M8.65,13.47c-.36-.11-.6-.34-.69-.7-.02-.09-.03-.17-.03-.26,0-.69,0-1.39,0-2.08,0-.49,.3-.87,.76-.97,.08-.02,.15-.02,.23-.02,.08,0,.11-.03,.11-.11,0-.1,0-.21,0-.31,0-.12,.06-.21,.17-.25,.11-.04,.21-.02,.3,.07,.16,.18,.33,.35,.49,.53,.04,.05,.09,.07,.16,.07,.3,0,.61,0,.91,0,.16,0,.25,.13,.19,.26-.03,.08-.1,.12-.18,.12-.34,0-.68,0-1.03,0-.13,0-.23-.06-.31-.15-.1-.11-.2-.22-.3-.33-.03,.04-.02,.07-.02,.1-.03,.22-.19,.37-.41,.39-.08,0-.16,0-.24,.02-.26,.06-.44,.27-.44,.55,0,.72,0,1.44,0,2.15,0,.35,.25,.57,.61,.57,.6,0,1.21,0,1.81,0,.6,0,1.19,0,1.79,0,.32,0,.54-.17,.6-.46,0-.05,.01-.09,.01-.14,0-.7,0-1.4,0-2.09,0-.36-.24-.59-.6-.6-.22,0-.44,0-.66,0-.13,0-.2-.06-.22-.17-.01-.1,.05-.2,.15-.21,.31-.01,.63-.04,.94,.01,.4,.07,.65,.34,.75,.74,0,.02,.01,.03,.02,.05v2.48c-.06,.36-.27,.6-.6,.74-.07,.02-.14,.04-.22,.04-1.24,.02-2.48,0-3.72,.01-.08,0-.15-.02-.23,0-.03,0-.06,0-.09-.02Zm1.09-2.64s-.06,0-.09,0c-.12,0-.2,.09-.2,.19,0,.1,.08,.19,.2,.19,.71,0,1.43,0,2.15,0,.02,0,.04,0,.06-.01,.09-.03,.13-.09,.13-.18,0-.09-.05-.15-.14-.18-.04-.01-.08-.01-.12-.01-.34,0-.67,0-1.01,0-.33,0-.66,0-.99,0Zm-.06,.76c-.09,0-.17,.02-.21,.11-.06,.14,.03,.27,.2,.27,.33,0,.66,0,1,0,.37,0,.73,0,1.1,0,.12,0,.2-.05,.22-.14,.03-.13-.06-.24-.21-.24-.35,0-.7,0-1.05,0s-.7,0-1.05,0Zm-.5-5.25c.13-.09,.27-.17,.4-.26,.06-.04,.13-.08,.18-.13,.07-.06,.08-.16,.04-.24-.05-.08-.16-.12-.24-.07-.22,.13-.43,.27-.64,.41-.07,.05-.08,.13-.05,.21,.03,.08,.1,.12,.18,.12,.05,0,.09-.03,.13-.05Zm.58,1.61c-.21-.14-.41-.27-.62-.4-.09-.05-.2-.02-.25,.07-.05,.08-.04,.19,.04,.25,.21,.14,.42,.28,.63,.4,.12,.07,.27-.03,.27-.17,0-.06-.02-.12-.07-.15Zm-.13-.8c.12,0,.2-.08,.2-.19,0-.11-.08-.19-.2-.19-.19,0-.39,0-.58,0-.12,0-.2,.08-.2,.19,0,.11,.08,.19,.2,.19,.09,0,.19,0,.28,0,.09,0,.19,0,.28,0Zm-1.36,.82c0,.46-.33,.85-.78,.98-.07,.02-.08,.05-.08,.11,0,.34,0,.68,0,1.02,0,.36-.21,.56-.57,.57-.13,0-.26,0-.4,0-.23,0-.4-.12-.49-.33-.02-.05-.05-.08-.1-.1-1.07-.42-2.15-.84-3.22-1.26-.02,0-.04-.02-.06-.02-.11-.03-.14,0-.11,.11,.18,.76,.36,1.52,.54,2.28,.07,.3-.12,.54-.43,.54-.2,0-.4,0-.6,0-.25,0-.4-.12-.46-.36-.17-.76-.33-1.51-.5-2.27,0-.04-.02-.09-.03-.13-.02-.13-.06-.24-.2-.31-.13-.06-.2-.2-.25-.33,0-.02,0-.04-.03-.05v-2.97s.02-.03,.03-.05c.11-.3,.34-.46,.66-.46,.43,0,.85,0,1.28,0,.06,0,.12-.01,.18-.03,1.06-.42,2.13-.84,3.19-1.25,.05-.02,.09-.05,.11-.11,.09-.22,.25-.33,.49-.33,.14,0,.28,0,.43,0,.32,0,.54,.21,.54,.53,0,.37,0,.73,0,1.1,0,.07,.01,.11,.1,.13,.43,.11,.76,.51,.77,.96,.01,.68,.01,1.35,0,2.03Zm-7.06,.56c.37,0,.74,0,1.11,0,.08,0,.1-.03,.09-.1,0-.5,0-1,0-1.5,0-.51,0-1.02,0-1.52,0-.08-.02-.1-.1-.1-.37,0-.74,0-1.12,0-.21,0-.31,.11-.31,.31,0,.86,0,1.72,0,2.58,0,.22,.1,.32,.32,.32Zm.86,.47c-.01-.06-.04-.09-.11-.09-.18,0-.36,0-.54,0-.07,0-.09,0-.07,.08,.05,.18,.08,.36,.12,.53,.13,.61,.27,1.23,.4,1.84,.02,.07,.04,.1,.12,.1,.09,0,.18,0,.26,0,.1,0,.2,0,.29,0,.07,0,.09-.02,.07-.09-.06-.24-.11-.47-.17-.71-.13-.56-.26-1.11-.39-1.67Zm4.96,1.04c0-2.08,0-4.15,0-6.23,0-.02,0-.04,0-.06,0-.11-.05-.15-.16-.15-.14,0-.27,0-.41,0-.11,0-.16,.05-.16,.16,0,.12,0,.24,0,.37,0,.1-.07,.16-.17,.17-.09,0-.17-.04-.2-.13-.01-.04-.02-.08-.03-.13-.02,0-.04,.01-.05,.02-1,.39-2,.78-3,1.17-.06,.02-.07,.06-.07,.12,0,1.05,0,2.11,0,3.16,0,.07,.02,.1,.08,.13,.97,.38,1.95,.76,2.92,1.14,.12,.05,.12,.05,.12-.08,0-1.57,0-3.15,0-4.72,0-.04,0-.09,0-.13,.02-.1,.1-.16,.21-.15,.1,0,.16,.08,.17,.18,0,.04,0,.07,0,.11,0,1.68,0,3.37,0,5.05,0,.03,0,.07,0,.1,.01,.08,.05,.13,.14,.13,.15,0,.3,0,.45,0,.06,0,.1-.02,.12-.08,.02-.05,.01-.09,.01-.14Zm.87-4.06c0-.27-.14-.47-.38-.59-.1-.05-.1-.04-.1,.06,0,.5,0,1.01,0,1.51s0,1.01,0,1.51c0,.09,.03,.1,.1,.06,.24-.13,.39-.33,.39-.6,0-.65,0-1.31,0-1.96ZM13.51,1.29V3.79s-.02,.02-.02,.04c-.13,.47-.48,.73-.97,.73-.76,0-1.52,0-2.28,0-.13,0-.24,.03-.32,.14-.12,.15-.26,.29-.4,.44-.1,.11-.2,.14-.32,.1-.11-.04-.17-.13-.17-.28,0-.09,0-.18,0-.27,0-.09-.02-.12-.11-.12-.47,.01-.85-.28-.96-.73-.02-.1-.03-.19-.03-.29,0-.67,0-1.33,0-2,0-.51,.22-.83,.71-1,.02,0,.04-.01,.03-.04h.16s.07,0,.1,0c1.19,0,2.39,0,3.58,0,.03,0,.07,0,.1,0h.06c.07,.02,.15,.01,.22,.04,.34,.14,.56,.38,.61,.75Zm-.38,.19c0-.35-.23-.59-.58-.59-1.22,0-2.43,0-3.65,0-.34,0-.58,.24-.58,.57,0,.71,0,1.43,0,2.14,0,.34,.25,.57,.57,.57,.36,0,.48,.11,.53,.46,0,0,0,.01,.02,.03,.09-.1,.19-.2,.27-.3,.11-.13,.25-.19,.43-.19,.8,0,1.6,0,2.4,0,.35,0,.59-.24,.59-.59,0-.7,0-1.4,0-2.1Zm-2.21,.85c.29,0,.58,0,.86,0,.14,0,.23-.1,.21-.23-.02-.1-.1-.16-.23-.16-.42,0-.84,0-1.26,0-.27,0-.55,0-.82,0-.09,0-.16,.02-.2,.11-.07,.13,.02,.28,.19,.28,.35,0,.7,0,1.06,0,.06,0,.13,0,.19,0Zm-1.24,.38c-.14,0-.23,.08-.23,.19,0,.11,.09,.19,.23,.19,.01,0,.03,0,.04,0,.67,0,1.33,0,2,0,.04,0,.08,0,.12,0,.13-.03,.19-.17,.12-.28-.05-.08-.12-.1-.2-.1-.35,0-.69,0-1.04,0-.35,0-.7,0-1.05,0Z"/>
</svg>