<?xml version="1.0" encoding="UTF-8"?>
<svg id="Layer_1" data-name="Layer 1" xmlns="http://www.w3.org/2000/svg" viewBox="0 0 800 800">
  <defs>
    <style>
      .cls-1 {
        fill: none;
      }

      .cls-2 {
        fill: #010101;
      }
    </style>
  </defs>
  <rect class="cls-1" width="800" height="800"/>
  <path class="cls-2" d="M38.04,659.26c0-21.45-.04-42.91,.02-64.36,.04-13.71,1.76-15.4,15.83-15.45,19.57-.07,39.15-.19,58.72,.09,5.57,.08,10.12-1.29,14.52-4.67,12.82-9.87,26.68-18.14,40.85-25.91,6.6-3.62,12.6-3.68,16.46,3.14,3.97,7,.38,12.25-6.09,15.68-15.64,8.28-30.54,17.71-44.4,28.7-3.89,3.09-8,3.62-12.61,3.6-18.07-.08-36.14,.2-54.2-.16-6.19-.12-8.4,1.39-8.34,8.02,.32,34.62,.26,69.25,.04,103.88-.04,5.81,1.58,8.04,7.64,7.79,10.52-.43,21.08,.02,31.61-.14,49.01-.73,97.44,6.57,146.11,10.56,44.94,3.68,89.77,9.52,134.78,11.21,42.44,1.59,81.57-13.8,119.49-31.68,30.21-14.25,59.14-30.92,88.41-46.94,6.94-3.8,13.32-4.41,17.35,3.09,2.99,5.56,1.13,11.11-4.81,14.37-52.83,29-104.7,60.06-163.72,75.73-32.94,8.75-66.22,7.29-99.63,4.01-37.02-3.63-74.05-7.1-111.09-10.41-29.94-2.67-59.94-4.59-89.84-7.6-26.69-2.69-53.39-.69-80.07-1.34-15.22-.37-16.97-1.84-16.99-16.84-.03-21.45,0-42.91,0-64.36Zm659.61-248.01c-2.01,21.85-18.91,41.22-38.73,44.38-23.91,3.81-45.29-6.26-53.74-27.3-3.27-8.14-7.48-9.63-14.9-9.31-10.15,.43-20.33,.21-30.49,.08-18.29-.23-27.91-9.31-28.28-27.67-.41-20.69-.09-41.4-.1-62.11s-.24-41.41,.13-62.11c.11-6.37-1.71-8.44-8.18-8.27-15.8,.43-31.62,.1-47.43,.17-2.81,.01-6.49-1.14-7.39,3.11-3.44,16.06-16.28,18.13-29.26,19.33-7.17,.66-12.4,2.26-12.91,10.63-.13,2.15-1.15,4.39-2.26,6.3-9.63,16.52-15.74,32.8,2.39,47.92,.25,.21,.29,.68,.41,1.04,6.86,19.6-9.54,27.49-19.78,37.96-8.65,8.84-18.35,10.1-27.21,1.9-12.38-11.47-23.84-12.6-37.05-2.96-.3,.22-.66,.42-1.01,.49-15.72,2.99-25.79,10.13-25.67,28.42,.08,11.92-9.18,17.51-20.36,18.74-6.33,.7-12.8,.59-19.17,.25-14.72-.8-22.25-7.16-23.64-21.95-1.21-12.81-5-22.05-19.45-23.14-1.04-.08-2.06-.87-3.01-1.46-14.72-9.28-28.97-12.44-42.11,2.83-1.12,1.3-3.22,2-4.99,2.45-19.01,4.76-26-11.66-36.39-21.4-7.81-7.32-8.91-18.37-1.66-25.48,13.72-13.45,8.78-25.26,3.44-40.52-5.63-16.08-13.73-24.07-30.27-24.21-1.8-.01-3.8-.52-5.36-1.42-17.89-10.34-11.57-27.75-11.48-42.73,.07-11.12,8.53-18.38,19.14-18.64,15.32-.38,24.44-5.91,26.04-21.68,.04-.35,.29-.69,.5-1.01,9.5-14.67,12.49-28.89-2.82-41.92-.8-.68-1.27-1.89-1.63-2.94-6.61-19.47,9.71-27.36,19.78-38.02,7.71-8.17,19.07-9.32,26.54-2.09,13.22,12.79,24.44,9.71,39.56,3.51,15.13-6.2,24.82-12.21,25.13-30.29,.19-11.31,9.5-17.1,21.2-17.45,2.63-.08,5.28,.15,7.9-.04,30.29-2.25,33.97,10.4,35.35,31.64,.4,6.23,2.96,9.01,8.95,10.55,6.84,1.76,14.1,3.78,19.81,7.68,11.2,7.66,19.59,5.48,29.44-2.95,12.19-10.42,22.04-8.92,33.66,2.39,2.16,2.1,4.27,4.25,6.4,6.37,15.17,15.15,16.36,23.06,2.81,39.68-6.76,8.29-7.74,14.66-1.95,23.49,3.63,5.53,6.52,12.14,7.6,18.61,1.71,10.27,7.83,13.06,16.83,13.5,12.48,.61,23.01,4.31,26.34,18.25,1.11,4.63,4.81,3.9,8.14,3.9,15.06,0,30.13-.44,45.17,.18,8.2,.33,9.99-2.7,9.93-10.35-.35-38.39-.17-76.79-.16-115.18,0-27.71,6.7-34.32,34.76-34.32,3.39,0,6.82-.33,10.16,.06,14.88,1.74,25.49-.23,33.32-16.88,9.28-19.71,35.44-26.14,56.11-18.52,19.37,7.14,33.66,28.9,31.9,48.54-2.04,22.72-18.5,40.82-40.9,44.96-20.89,3.87-43.42-7.5-51.56-27.69-3.3-8.19-7.27-10.7-15.6-10.05-9.73,.76-19.57,.34-29.35,.12-5.29-.12-7.4,1.96-7.39,7.27,.1,41.78,.11,83.56-.02,125.34-.01,4.81,1.52,6.69,6.47,6.58,11.66-.25,23.35-.32,35.01,.03,5.57,.17,7.55-2.42,9.58-7.21,9.25-21.84,27.62-32.55,51.07-30.48,19.03,1.68,35.83,16.83,40.81,36.8,5.99,24.03-7.26,48.64-30.59,56.81-24.07,8.44-50.42-2.04-59.99-25.35-3.27-7.96-7.17-10.09-14.78-9.45-12.26,1.02-28.71-5.19-35.66,2.42-6.07,6.65-1.79,22.86-1.82,34.85-.09,30.49,.2,60.98-.19,91.47-.09,7.39,2.03,10.28,9.48,9.59,5.23-.48,10.55-.39,15.8-.04,13.72,.91,24.1,.5,31.56-16.01,8.94-19.77,35.52-26.13,56.14-18.48,19.7,7.31,33.75,28.62,31.93,48.43Zm-75.97-162.52c.3,15.03,12.3,26.49,27.59,26.32,15.25-.16,26.65-11.88,26.47-27.2-.18-14.97-12.53-27.09-27.32-26.83-14.67,.26-27.02,13.06-26.74,27.7Zm0-159.97c.29,14.56,12.22,26.42,26.79,26.63,15.07,.22,27.26-11.81,27.29-26.94,.03-14.87-12.47-27.59-27.06-27.54-14.46,.05-27.31,13.3-27.02,27.84Zm-174.33,158.91c-.37-8.16-2.3-11.64-10.73-11.41-4.77,.13-9.57-1.67-14.4-2.08-7.82-.65-12.41-4.33-13.65-12.3-1.39-8.93-3.39-18.29-8.56-25.36-13.47-18.44-14.39-34.97,3.56-50.79,2.93-2.58,2.93-5.1-.02-8.52-10.05-11.67-10.13-11.86-22.99-2.37-2.42,1.78-5.07,3.3-7.27,5.32-6.74,6.16-13.29,7.02-21.02,1.25-7.21-5.38-15.4-10.51-24.12-11.63-21.74-2.79-32.32-14.03-31.74-35.9,.16-6.19-2.93-7.96-9.07-8.14-9.07-.26-15.56,.56-14.49,12.22,.39,4.32-1.74,8.81-2.1,13.28-.65,7.95-4.72,12.1-12.5,13.51-10.36,1.88-21.31,4.11-29.34,10.57-16.49,13.26-30.26,10.51-43.8-3.62-4.78-4.99-8.6-4.73-13.97,.43-6.44,6.2-9.25,10.92-1.73,18.11,3.74,3.58,6.13,8.53,9.5,12.54,4.6,5.48,4.4,10.54,.3,16.27-6.15,8.58-12.52,18.08-13.57,28.14-2.31,22.35-15.05,29.56-35.14,29.51-3.24,0-6.67,.1-7.94,4.58-3.52,12.41-.11,17.82,12.72,19.62,4.07,.57,8.11,1.93,12.16,1.96,9.52,.06,12.93,5.63,14.45,13.96,1.9,10.38,4.45,21.31,10.94,29.27,12.71,15.58,9.41,28.23-3.58,40.79-.27,.26-.41,.64-.68,.9-5.35,5.03-4.8,8.93,.39,14.56,6.4,6.94,11.34,8.26,18.19,1.26,3.11-3.18,7.37-5.2,10.76-8.15,6-5.23,11.86-5.36,18.41-.97,13.21,8.85,27.73,14.67,43.34,17.74,6.26,1.23,9.87,4.93,10.79,11.33,.74,5.2,2.5,10.37,2.41,15.53-.16,9.1,2.73,13.72,12.44,11.11,8.69,2.42,11.22-2.2,11.77-9.78,.38-5.22,2-10.36,2.36-15.58,.51-7.6,4.36-11.4,11.67-12.83,9.17-1.79,18.9-3.49,26.31-9.06,18.11-13.62,34.28-13.55,49.74,3.73,1.87,2.09,4.15,3.72,7.8,1.35,11.17-7.25,12.31-11.99,4.45-22.79-1.99-2.73-3.82-5.6-6.07-8.11-6.47-7.21-6.64-14.02-1.04-22.26,8.27-12.16,13.57-25.83,16.31-40.35,1.26-6.65,4.34-10.84,11.74-11.3,5.2-.32,10.31-2.12,15.51-2.4,8.67-.47,11.91-3.79,11.48-13.12Zm203.05,133.35c-15.01-.93-28.31,11.46-28.69,26.73-.36,14.26,11.3,26.78,25.58,27.47,15.22,.74,27.79-10.52,28.4-25.45,.63-15.27-10.42-27.84-25.29-28.75Zm89.1,222.58c-33.05,18.52-66.43,36.45-99.67,54.64-6.36,3.48-12.56,4.16-16.42-3.14-4.04-7.64-.13-12.47,6.81-16.21,32.36-17.44,64.61-35.09,96.9-52.66,8.82-4.8,13.55-11.86,11.69-22.15-1.61-8.89-7.77-13.44-16.17-15.06-6.34-1.22-11.6,2.05-16.87,4.98-29.83,16.6-59.69,33.14-89.52,49.73-61.75,34.34-128.11,48.4-198.28,43.4-29.92-2.13-59.63-7.14-89.45-10.72-6.07-.73-9.86-3.54-10.3-9.77-.49-6.88,3.3-10.49,9.81-11.39,14.87-2.05,29.74-4.06,44.63-5.93,43.56-5.47,87.13-10.78,130.68-16.34,12.88-1.64,19.43-8.68,19.01-19.48-.42-10.87-7.3-16.93-20.84-17.09-25.6-.3-51.2-.48-76.8-.01-33.81,.61-67.01-.58-100.08-10.4-33.37-9.91-67.66-7.02-101.15,2.73-1.79,.52-3.55,1.28-5.37,1.56-6.54,.99-12.38,.07-13.88-7.67-1.27-6.57,2.12-10.52,8.29-12.64,19.66-6.75,39.92-10.27,60.63-10.98,26.87-.93,53.17,2.87,78.69,11.28,7.26,2.4,13.13,2.1,20.14-1.64,39.34-21.06,79.77-40.2,118.3-62.62,25.59-14.89,56.38-8.01,63.82,26.52,45.9-19.87,60.08-16.07,72.83,20.12,8.05-4.09,15.94-8.3,24.01-12.15,22.21-10.61,44.47-1.09,52.2,22.3,1.42,4.31,1.55,7.14,8.53,5.56,19.89-4.51,39.71,6.88,46.6,24.89,7.24,18.93-.13,39.88-18.76,50.32Zm-215.75-94.19c7.99-4.73,11.08-12.27,6.31-21.08-4.65-8.59-12.76-11.46-21.08-7.24-33.16,16.81-65.94,34.35-98.87,51.63,.14,.62,.29,1.24,.43,1.87,21.92,0,43.84,.02,65.76-.06,1.41,0,2.94-.61,4.21-1.31,14.46-7.85,29.09-15.43,43.24-23.81Zm14,43.65c1.92,3.13,3.68,5.16,8.02,2.79,16.78-9.17,33.95-17.63,50.61-27,7.79-4.38,10.94-11.79,6.15-20.15-4.53-7.91-11.83-10.57-20.22-6.15-20.84,10.98-41.5,22.31-63.94,34.43,8.9,4.46,15.13,9.15,19.38,16.09Zm145.24-23.58c-1.65-7.07-6.71-10.69-13.49-11.86-4.67-.8-8.77,1.61-12.71,3.68-35.47,18.62-70.85,37.39-106.35,55.96-4.64,2.43-7.2,5.71-8.97,10.66-5.09,14.27-15.78,23.22-30.4,25.43-26.3,3.97-52.8,6.58-79.22,9.75-1.29,4.41,3.23,2.06,4.31,3.71,17.33,1.13,34.62-.59,51.73-2.49,70.23-7.79,128.56-44.66,188.04-78.48,6.01-3.42,8.71-9.27,7.06-16.37ZM238.22,312.9c23.98,17.27,50.33,19.92,77.86,9,6.52-2.58,11.53-7,8.49-14.6-2.85-7.13-8.98-8.38-15.92-5.5-1.72,.71-3.4,1.55-5.17,2.13-25.12,8.21-52.9-1.47-67.35-23.43-14.48-22.01-12.4-50.9,5.11-71.02,17.06-19.59,46.1-25.22,69.73-13.5,28.18,13.98,39.93,46.97,27.11,76.68-3.21,7.43-5.82,14.79,4.06,18.68,9.18,3.61,12.65-3.61,15.66-10.22,3.59-7.88,5.64-16.14,6.51-24.87,4.43-44.39-29.76-85.46-73.14-87.48-48.03-2.23-85.98,32.86-85.95,90.58,.34,15.89,11.22,37.87,32.99,53.54Z"/>
</svg>