<?xml version="1.0" encoding="UTF-8"?><svg id="Layer_1" xmlns="http://www.w3.org/2000/svg" viewBox="0 0 800 800"><defs><style>.cls-1{fill:none;}.cls-2{fill:#010101;}</style></defs><rect class="cls-1" width="800" height="800"/><path class="cls-2" d="M613.65,202.02c-2.26,13.52-18.28,27.78-32.02,29.05l-379.74-.13c-12.96-2.34-25.83-12.74-29.64-25.47-4.09-13.65-4.29-71.11-.61-84.97,4.76-17.93,19.85-26.64,37.52-28.02,37.76-2.96,79.43,2.21,117.61.18,16.91,1.72,21.57,22.07,5.77,29.34-39.07,3.02-81.76-2.93-120.4.26-9.02.74-11.63,1.79-12.6,11.24-1.38,13.46-1.31,41.62-.06,55.17.39,4.27.87,9.02,4.51,11.88l370.27.78c7.11-.6,8.83-.78,9.62-8.23,1.4-13.2,1.76-49.87.07-62.66-.88-6.67-5.18-7.66-11.17-8.19-37.43-3.34-79.71,2.71-117.67-.01-17.81-5.43-14.25-28.72,4.38-29.71,37.76,3.05,82.04-4.15,119.02.16,12.96,1.51,25.5,9.07,31.3,20.84.67,1.37,3.86,9.03,3.86,9.54v27.56l128.73.13c16.57,3.85,27.77,16.26,29.23,33.33,4.97,58-3.81,123.03-.07,181.77,1.33,11.49-17.24,32.05-27.54,32.05h-46.92c3.24,9.63,14.51,10.74,13.33,22.91-1.28,13.21-15.27,16.57-25.28,9.15-4.32-3.2-38.65-38.2-39.52-40.91-2.32-7.2.22-12.42,4.51-18,5.44-7.07,24.93-26.4,32.04-32.01,7.22-5.7,14.23-10.26,22.9-3.5,13.18,10.27.24,24.52-7.99,32.57h40.97c.26,0,2.63-2.3,2.96-3l.03-181.72-5.9-3.04-121.48.07c-.77,6.65,1.06,15.27,0,21.6ZM77.01,194.21c-6.42,15.72,8.9,28.11,22.77,18.3,5.14-3.63,34.35-32.85,37.99-37.99,5.82-8.22,4.25-13.48-1.52-20.95-5.31-6.89-28.2-29.94-35.01-35-14.01-10.4-30.08.92-24.54,17.1,1.82,5.32,9.87,9.95,12.59,14.96H28.96c-5.31,0-10.31,11.89-9.66,17,.6,4.73,8.27,12.8,12.63,12.8h57.35c-2.35,4.91-10.35,9.07-12.28,13.79ZM483.69,633.66c-6.42,15.72,8.9,28.11,22.77,18.3,6.22-4.4,31.47-30.07,36.47-36.52,7.72-9.97,5.84-14.57-1.51-23.88-4.09-5.18-35.01-35.79-39.1-36.86-14.2-3.71-23.65,6.6-18.94,20.42,1.9,5.57,9.83,9.78,12.59,14.96h-46.92c-5.28,0-10.16,10.27-9.77,15.62.4,5.47,7.57,14.17,12.75,14.17h43.95c-2.35,4.91-10.35,9.07-12.28,13.79ZM396.82,122.24c17.45-2.78,13.45-30.3-4.18-29.23-19.16,1.17-18.67,32.87,4.18,29.23ZM613.66,419.53c-2.02,18.72-18.31,31.82-36.52,33.49l-367.99.07c-32.34-2.53-41.53-25.65-39.41-55.18l-116.33.66c-4.23.89-4.1,5.42-4.4,8.97-4.67,55.27,3.66,116.97,0,172.93-.45,3.28,1.55,9.62,5.27,9.62h36.5c-.83-6.25-10.06-9.89-12.28-15.27-6.39-15.55,10.64-26.87,24.22-16.78,4.32,3.21,38.65,38.2,39.52,40.91,2.7,8.38-1.16,13.31-6.02,19.47-4.95,6.28-34.56,35.58-40.57,36.93-8.05,1.81-17.34-4.12-18.25-12.52-1.16-10.7,7.88-15.48,13.37-22.94-12.37-1.18-27.48,1.61-39.48,0-17.69-2.37-30.59-17.57-32.08-34.95-5.02-58.46,3.85-124.05.07-183.26,2.61-19.95,16.62-31.89,36.43-33.59l114.02.06c-2.22-24.4,5.85-48.14,32.15-53.51l379.74-.13c14.15,1.6,28.46,14.21,31.37,28.22,2.61,12.55,2.17,62.93.67,76.81ZM582.02,346.13c-1.64-1.64-5.46-1.71-7.78-1.9l-367.98.1c-5.1.84-6.25,6.75-6.74,11.14-1.25,11.22-1.57,48.8.37,59.22,1.44,7.73,5.04,8.02,12.24,8.62l363.45-.14c3.64-.66,7.6-2.66,8.25-6.65-1.42-10.33,2.74-65.82-1.81-70.38ZM411.06,641.48c-1.85,16.28-16.03,29.73-32.03,32.03-56.13-3.84-119.03,5.1-174.36.06-15.52-1.41-29.32-12.97-33.04-28.03-3.58-14.48-3.67-72.36.98-86.09,4.69-13.85,18.6-22.41,32.54-24.06,52.31-6.21,114.61,3.83,167.97-.47,17.96.86,35.82,13.26,37.94,32.08,1.83,16.23,1.84,58.27,0,74.49ZM381.23,571.49c-.38-3.19-3.14-4.89-5.86-6.06l-168.82-.35c-6.09,1.18-6.65,7.06-7.09,12.28-1.14,13.6-1.44,41.88.06,55.17.35,3.09,1.54,9.02,4.45,10.45,57.89.97,116.25,1.69,173.96-.37l3.09-2.87.21-68.25ZM745.44,683.89c-65.79,55.71-167.1,11.89-171.99-73.71-2.99-52.22,38.12-103.14,90.52-109.06,103.95-11.74,160.06,116.24,81.47,182.77ZM666.92,530.88c-96.32,12.21-75.61,166.19,25.77,146.44,91.29-17.78,71.01-158.7-25.77-146.44ZM666.53,606.44c-8.04-8.23-19-21.09-31.08-11.69-6.93,5.39-6.56,14.12-2.19,21.15,1.87,3,21.9,23.29,24.52,24.64,4.91,2.53,11.14,2.6,16.01,0l48.96-49.35c5.17-11.04-3.6-23.99-15.62-21.69-10.17,1.95-37.84,36.93-40.6,36.93Z"/></svg>