<?xml version="1.0" encoding="UTF-8"?><svg id="Layer_1" xmlns="http://www.w3.org/2000/svg" viewBox="0 0 800 800"><defs><style>.cls-1{fill:none;}.cls-2{fill:#020202;}</style></defs><rect class="cls-1" width="800" height="800"/><path class="cls-2" d="M40.85,257.71c11.46-2.06,69.86-2.07,81.31,0,16.7,3.02,16.32,26.23-1.28,28.95-12.1,1.87-68.26,1.85-80.03-.27-16.3-2.93-16.3-25.75,0-28.68ZM678.37,286.67c12.34,1.97,67.84,1.9,80.31-.01,17.37-2.66,17.38-26.55,0-29.21-23.94-3.66-56.73,2.25-81.62.23-15.42,4.61-14.13,26.54,1.31,29ZM670.52,193.86c-5.79,7.32-9.75,13.21-3.15,21.76,6.97,9.03,14.46,6.98,22.55.74,3.18-2.45,22.55-21.95,23.56-24.42,2.33-5.71,2-13.17-2.47-17.64-12.61-12.59-32.7,9.71-40.49,19.56ZM713.48,352.17c-.86-2.09-22.32-24.05-25.08-26-13.81-9.76-29.18,3.06-22.33,17.7,2.34,5,17.46,20.52,22.24,24.19,6.85,5.27,15.74,8.69,22.71,1.74,4.47-4.46,4.8-11.93,2.47-17.64ZM86.99,192.26c1.8,2.86,26.59,27.28,28.96,28.31,10.99,4.78,22.16-5.8,19.41-17.85-.81-3.53-23.7-27.22-27.61-29.67-4.16-2.62-7.9-3.16-12.76-2.07-9.27,2.09-13.09,13.2-8,21.28ZM85.77,353.72c-5.46,12.62,8.34,24.57,21.09,17.98,2.46-1.27,26.74-25.82,27.66-28.06,4.71-11.45-4.03-23.51-16.26-21.02-3.56.72-30.87,27.37-32.48,31.1ZM551.24,100.9c-13.11,15.43,10.96,31.86,22.05,19.73,13.26-14.51-9.81-34.13-22.05-19.73ZM566.07,451.65c-10.38,9.69-22.77,17.4-32.49,27.88-14.82,16-25.73,36.47-32.36,57.08,41.78,21.61,38.51,80.88-7.72,94.02-.51,39.46,4.85,74.89-21.93,107.33-38.56,46.72-111.51,43.97-146.76-4.86-22.84-31.64-16.85-64.8-17.19-101.73-46.07-12.59-51.99-73.36-8.5-93.77-4.92-18.37-15.03-37.24-27.25-51.88-15.42-18.47-37.72-32.67-54.18-51.09-97.37-108.98-76.19-278.22,42.27-361.85,71.56-50.52,171.5-59.17,249.87-18.53,10.74,5.57,26.84,13.49,18.16,28.04-8.81,14.77-23.22,1.36-32.57-2.79C280.42-15.99,90.89,230.98,233.26,408.23c21.3,26.52,49.26,41.45,69.33,69.99,11.58,16.47,20.74,34.74,25.21,54.51l143.91-.52c6.47-20.66,15.68-40.65,28.68-58.01,17.48-23.35,42.14-38.2,61.06-59.69,52.37-59.5,67.48-143.49,39.82-217.93-3.39-9.12-18.81-35.81-18.17-42.05,1.11-10.76,15.64-16.72,24.67-9.34,3.9,3.19,13.79,24.29,16.29,30.15,40.75,95.6,17.65,205.76-57.98,276.3ZM462.32,693.89h-123.84c15.97,64.39,107.1,63.95,123.84,0ZM463.87,631.97h-126.94v32.51h126.94v-32.51ZM481.68,562.3l-163.96.14c-24.01,3.27-26.44,36-1.72,40.15h168.81c3.54-.25,8.66-2.82,11.04-5.2,12.04-12.04,3.36-34.76-14.18-35.09ZM521.15,324.68c-1.45-12.73-12.71-20.36-25.22-17.48-3.65.84-6.63,4.59-11.51,5.5-34.77,6.47-35.58-44.45.28-38.25,4.38.76,7.28,4.42,11.57,5.44,9.75,2.32,21.77-2.85,24.22-13.15,2.05-8.61,1.74-57.81-.4-66.39-3.05-12.28-19.35-28.15-32.22-28.15h-41.02c10.19-33.22-13.38-66.49-48.83-65.09-32.71,1.3-54.88,34.5-44.05,65.09h-41.02c-12.96,0-29.23,15.71-32.22,28.15-1.98,8.23-2.57,58.62-.73,66.73,1.38,6.09,10.01,12.7,16.1,13.37,10.21,1.13,12.49-4.77,20.04-5.98,36.27-5.82,33.42,46.27-1.32,38.27-2.96-.68-5.12-3.43-7.97-4.4-12.98-4.41-25.97,2.3-27.25,16.26-1.14,12.35-1.47,53.03,1.55,63.62,3.37,11.84,19.29,27.01,31.81,27.01h41.02c-14.45,43.58,32.03,82.12,72.28,57.58,19.49-11.88,27.49-35.98,20.6-57.58h39.48c11.58,0,27.65-13.08,32.04-23.69,4.13-9.96,4.17-54.79,2.79-66.87ZM490.97,381.19c-1.11,2.34-5.29,4.13-7.83,4.55-15.89,2.6-37.7-1.92-54.13.05-9.29,1.12-17.79,9.97-17.79,19.39,0,12.38,13.96,16.74,7.44,33.73-8.29,21.59-43.41,12.64-38.01-13.26,1.32-6.36,8.16-10.88,8.39-19.17.9-32.6-53.4-17.04-72.95-20.7-13.61-2.54-7.06-34.62-8.55-44.84,84.38,15.37,84.56-109.84,0-94.44,1.59-9.97-4.9-41,7.28-44.57,11.84-3.46,40.81,1.34,55.41-.32,10.8-1.23,19.14-9.55,18.81-20.66-.38-13.04-16.85-19.26-4.77-36.51,12-17.14,39.08-5.69,35.93,15.75-1.64,11.22-13.11,14.92-6.98,29.4,8.97,21.23,52.65,8.45,71.53,12.05,2.02.39,7,4.37,7,5.38v39.48c-82.96-15.12-82.2,109-.01,94.44-1.72,9.22,2.68,33.01-.76,40.25Z"/></svg>