<?xml version="1.0" encoding="UTF-8"?><svg id="Layer_1" xmlns="http://www.w3.org/2000/svg" viewBox="0 0 800 800"><defs><style>.cls-1{fill:none;}.cls-2{fill:#010101;}</style></defs><rect class="cls-1" width="800" height="800"/><path class="cls-2" d="M380.93,33.18c48.65-2.94,100.05,5.22,145.19,23.27,6.26,2.5,24.96,10.13,29.24,13.81,11.44,9.83,3.7,29.42-11.1,28.46-5.9-.38-29.17-12.74-37.46-15.76-72.82-26.55-151.65-24.55-223.08,5.09-10,4.15-29.77,16.64-37.3,18.65-14.09,3.77-23.87-3.88-21.48-18.62,1.21-7.47,9.76-11.01,15.67-14.46,39.14-22.85,95.18-37.71,140.34-40.44ZM553.64,135.31c-.16,8.79,17.59,28.05,26.4,29.36,13.69,2.03,23.25-10.76,17-22.76-1.76-3.38-13.16-15.73-16.48-17.94-4.83-3.22-8.7-4.58-14.63-3.36-6.58,1.35-12.17,7.95-12.29,14.71ZM642.43,95.09c2.43,15.26,26.73,16.61,30.81.84,1.28-4.94,1.38-19.91.58-25.06-1.57-10.13-10.52-15.69-20.41-13.42-13.52,3.11-12.68,26.94-10.98,37.63ZM717.26,145.74c-2.6,13.53,11,23.68,23.19,17.4,2.57-1.32,19.54-18.71,20.34-21.26,4.11-13.13-6.53-24.37-19.86-21.3-5.13,1.18-22.61,19.61-23.68,25.15ZM626.6,753.75c-.85,8.25-8.46,13.79-16.48,13.65H192.5c-8.11.13-15.66-5.5-16.48-13.65,2.61-46.1-9.07-93.21,16.1-134.62,31.83-52.37,84.51-53.68,138.95-64.79,1.77-1.24,2.22-34.37,1.06-36.35-.32-.55-3.44-1.6-4.76-3.09-15.09-16.99-28.32-37.96-30.63-61.23-.7-7.08.96-16.05-.48-22.48-.9-4.01-10.24-16.84-12.87-23-23.2-54.39-7.67-110.45,34.68-149.49,2.14-1.97,10.89-7.18,11.27-8.72.26-1.06-3.5-17.2-3.53-21.63-.8-99.17,150.55-100.25,151.65-1.21.07,6.27-3.94,18.42-2.75,22.65.83,2.97,15.14,12.83,18.41,16.12,35.71,35.94,46.48,91.37,27.96,138.42-2.74,6.96-12.24,20.66-13.31,25.43-5.63,25.32-.27,37.35-15.48,63.43-3.66,6.27-21.34,25.28-21.83,26.95-.74,2.5-.84,30.36-.11,32.52.39,1.16,1,1.84,2.24,2.07,51.49,10.05,102.46,11.79,134.47,59.23,29.3,43.43,17.1,90.39,19.53,139.79ZM358.28,235.05c28-8.79,57.28-10.04,85.26-.07,6.49-10.67-2.93-30.54-11.32-38.73-30.14-29.42-80.95-2.69-73.94,38.79ZM351.82,369.92c8.49,0,25.16-9.98,31.56-15.79,3.16-2.87,5.16-8.04,9.4-10.69,14.82-9.24,22.25,6.86,31.48,14.3,5.34,4.3,20.11,12.18,26.56,12.18h44.48c.3,0,1.65,2.15,2.14,1.43,11.91-83.11-78.93-142.36-150.24-95.02-19.58,13-39.2,40.55-42,64.17-1.14,9.58.83,21.04,0,30.85,1.55.53,3.15-1.43,3.59-1.43h43.04ZM348.24,491.15c44.61,46.01,127.68,14.15,127.68-48.77v-40.89h-27.98c-3.61,0-19.01-5.17-23.21-6.92-8.74-3.64-16.05-9.51-23.94-14.51-6.35,6.22-14.68,11.15-22.89,14.51-4.89,2-18.66,6.92-23.21,6.92h-26.54v50.93c0,8.76,13.64,32.07,20.1,38.73ZM365.45,539.23v22.24c0,2.53,32.09,31.12,36.39,35.05,3.6-4.97,35.35-32.56,35.35-35.05v-22.24c-24.06,7.66-47.62,7.31-71.74,0ZM595.01,666.2c0-2.86-4.99-17.23-6.48-20.78-22.49-53.24-81.25-49.57-129.16-61.15-13.47,12.58-26.37,25.82-39.43,38.84-4.68,4.67-6.77,11.22-14.96,12.29-14.52,1.9-15.71-5.71-23.71-13.72-12.55-12.58-25.03-25.28-38-37.41-32.83,9.41-77.37,7.62-104.77,29.59-14.49,11.62-28.77,33.59-30.88,52.34-2.44,21.63,1.81,47.49,0,69.59h387.38v-69.59ZM216.22,294.59c-4.07,4.51-12.51,7.9-14.04,14.66-5.97,26.45,11.79,60.63-22.71,77.72-12.34,6.11-51.09,6.04-65.46,4.1-17.78-2.4-33.31-18.69-35.37-36.37-1.45-12.46,2.48-37.03-.45-46.9-.91-3.07-16.24-16.22-19.75-20.42C3.77,221.96,46.11,122.12,129.85,113.52c99.81-10.25,153.64,106.5,86.37,181.07ZM170.32,325.45h-60.26v26.54c0,4.73,8.02,7.59,12.13,7.96,7.79.71,33.36,1.21,40.21-.1,2.08-.4,7.92-5.61,7.92-6.42v-27.98ZM214.62,210.12c-9.62-95.02-156.71-80.56-149.02,15.59,2.37,29.68,15.54,37.15,32.96,55.99,2.38,2.57,6.81,11.58,7.41,11.96,2.3,1.46,14.6-.58,18.43.23v-56.67c0-5.84,9.27-13.28,15.19-13.55,5.8-.27,16.38,6.43,16.38,12.12v58.11c3.82-.8,16.15,1.22,18.43-.23.35-.22,1.58-4.49,3.07-6.24,22.86-26.9,41.41-35.17,37.15-77.29ZM762.62,242.7c-5.46,7.7-30.61,25.99-32.46,32.11-2.85,9.41,8.08,37.15,6.81,49.76-.51,5.05-4.35,12.91-7.97,16.5-20.89,20.73-49.92-7.57-70.38-15.3-21.66,6.14-46.68,34.35-69.26,17.52-20.57-15.34-2.87-47.76-3.19-68.45-13.69-18.48-44.31-29.54-37.89-57.1,5.83-25.05,46.55-19.6,65.39-25,11-15.72,17.89-50.51,39.82-53.43,31.48-4.2,34.07,34.77,49.11,53.44,15.88,4.29,46.25,1.79,58.17,13.56,10.47,10.34,10.02,24.87,1.85,36.39ZM729.87,227.89c-11.19-2.12-37.8-1.81-46.66-7.15-8.8-5.3-18.36-33.28-23.66-43.07-3.35-.73-2.29.46-3.19,1.84-5.64,8.71-16.08,35.8-22.67,40.42-8.13,5.69-32.71,5.55-43.7,7.95-1.94.42-3.62-.17-4.99,2.16,6.29,6.53,31.51,26.43,33.76,33.64,3.55,11.37-6.1,36.19-6.52,48.86,1.71,1.8,37.1-19.96,45.17-20.21,9.47-.29,44.62,21.84,46.64,20.2-1.58-13.13-9.98-36.74-6.82-49.14,1.38-5.43,25.05-24.08,30.5-31.19,1.1-1.44,2.78-1.82,2.14-4.31Z"/></svg>