<?xml version="1.0" encoding="UTF-8"?><svg id="Layer_1" xmlns="http://www.w3.org/2000/svg" viewBox="0 0 800 800"><defs><style>.cls-1{fill:none;}.cls-2{fill:#010101;}</style></defs><rect class="cls-1" width="800" height="800"/><path class="cls-2" d="M740.87,601.1l-.17-490.77c-3.61-33.07-27.73-58.03-60.63-62.48-203.84,1.45-408.36-2.97-611.8,2.23-27.28,7.59-46.83,31.76-49.59,60.01l.08,495.47c1.82,30.75,32.76,62.33,63.78,62.33h524.72v53.3c0,2.52,8,11.64,10.61,13.41,21.65,14.62,37.64-7.81,53.2-20.14,9.6,13.05,11.13,31.22,24.9,41.13,27.51,19.8,63.79-4.53,55.9-37.88-1.55-6.55-14.57-29.29-13.91-32.45,14.29-7.64,35.62-1.59,45.27-17.81,18.37-30.87-28.05-46.56-42.36-66.36ZM44.26,105.65c0-.63,3.95-10.33,4.74-11.78,8.34-15.36,26.01-21.1,42.49-22.07h575.15c17.9-2.75,48.72,16.54,48.72,35.34v29.28H44.26v-30.78ZM611.77,529.03c-.84,1.11-4.51,7.07-4.51,7.5v105.84H78.04c-10.67,0-33.78-21.52-33.78-32.28V161.95h671.1v418.88l-63.84-54.02c-11.61-10.64-29.93-10.86-39.75,2.22ZM760.97,654.38c-11.5,4.25-42.15,3.9-50.18,11.2-5.47,4.98-4.89,8.69-3.01,15.16,3.63,12.46,22.65,39.06,19.28,50.64-2.03,6.97-13.79,7.49-18.38,2.5-5.88-6.39-14.64-33.24-20.09-42.99-4.87-8.71-10.93-12.52-20.27-6.23l-37.02,28.27,1.51-168.14,129.09,106.62c.19.23.62,3.31-.92,2.97ZM87.36,93.2l128.8-.32c18.3,1.41,15.75,23.06-1.5,24.02-39.03-3.2-84.91,4.29-123.11,0-16.08-1.81-18.9-17.47-4.19-23.7ZM612.82,93.2c18.35-5.46,22.74,18.83,9.53,23.03-17.77,5.66-22.12-19.28-9.53-23.03ZM561.77,93.2c18.02-5.36,22.66,18.86,9.53,23.03-17.78,5.66-22.12-19.29-9.53-23.03ZM663.86,93.2c22.95-6.86,22.11,29.95.37,23.03-10.31-3.28-9.28-20.37-.37-23.03ZM542.01,291l-282.07.13c-8.24-16.79-5.6-39.35-25.5-48.37-9.56-4.33-42.67-7.32-44.52,7.15-3.03,23.75,30.06,6.84,37.17,19.71,22.74,77.16,39.31,156.44,64.6,232.67,6.94,10.69,18.53,15.96,31.01,17.03,63.28,5.43,134.18-4.2,198.27-.02,15.92-1.88,18.24-23.55,0-25.6l-201.13-.05c-9.89-1.62-11.51-17.3-12.84-25.43h191.42c17.81,0,35.38-17.98,41.35-33.72,13.07-34.5,18.28-77.34,29.85-112.9.54-16.42-11.41-29.53-27.6-30.6ZM266.45,315.08h47.29c2.08,0,3.09,9.13,3.5,11.51,2.35,13.44,3.76,27.42,4.75,41.04h-41.29c-6.78-16.43-11.23-35.01-14.26-52.55ZM299.48,442.7l-13.51-51.05h40.54l6.01,51.05h-33.03ZM392.57,442.7h-34.53l-6.01-51.05h40.54v51.05ZM392.57,367.63h-45.04l-6.01-52.55h51.05v52.55ZM454.12,442.7h-36.03v-51.05h42.04l-6.01,51.05ZM463.13,367.63h-45.04v-52.55h52.55l-7.51,52.55ZM515.51,428.27c-1.9,4.12-11.55,14.43-15.6,14.43h-21.77l7.51-51.05h39.03c1.34,1.33-7.5,32.99-9.17,36.62ZM532.19,367.63h-43.54c2.93-15.71,3.19-33.24,6.02-48.78.23-1.26,1.15-3.77,2.24-3.77,12.06,0,32.77-1.81,43.54,0,.81.14,2.33,1.53,3.55,1.72,2.55,4.22-11.19,42.98-11.81,50.83ZM351.62,527.11c-36.64,7.49-21.15,73.13,20.51,55.04,31.06-13.49,17.75-62.86-20.51-55.04ZM363.91,558.17c-1.89,2.6-9.43.82-8.78-3.43,1.12-7.3,13.21-2.66,8.78,3.43ZM462.73,527.12c-31.99,5.89-26.7,60.69,9.94,58.1,39-2.75,36.08-66.58-9.94-58.1ZM475.03,558.19c-1.85,2.61-13.16,1.18-8.23-5.97,3.48-5.05,11.42,1.46,8.23,5.97Z"/></svg>