<?xml version="1.0" encoding="UTF-8"?><svg id="Layer_1" xmlns="http://www.w3.org/2000/svg" viewBox="0 0 800 800"><defs><style>.cls-1{fill:none;}.cls-2{fill:#030303;}</style></defs><rect class="cls-1" width="800" height="800"/><path class="cls-2" d="M453.05,744.3c14.33,12.65-5.77,34.91-19.81,21.98-13.82-12.73,5.75-34.39,19.81-21.98ZM771.71,754.82c-.09,9.02-6.29,15.17-15.25,15.25l-248.51-.04c-12.32-.62-18.3-15.81-10.06-24.65.81-.87,6.77-4.43,7.19-4.43h237.51v-424.17h-140.91c-4.15,8.76-16.38,35.42-25.75,37.49-13.34,2.95-35.75-20.99-46.29-21.52-5.24-.26-20.88,14.08-27.95,14.77-2.37,11.94,3.88,43.59-3.94,51.99-.81.87-6.77,4.43-7.19,4.43h-32.68v66.82h119.84c2.91,0,10.89,7.98,10.89,10.89v84.98h76.26c3.7,0,10.94,8.03,10.8,12.44-2.32,28.32,3.43,62.4.13,90.01-1.04,8.72-6.61,13.58-15.21,13.84-55.52-4.11-118.36,5.21-173.01,0-8.92-.85-14.12-4.66-15.21-13.84-2.15-18.01-2.15-70.67,0-88.68.61-5.09,5.7-13.77,10.93-13.77h76.26v-66.82h-232.42v66.82h76.26c3.7,0,10.94,8.03,10.8,12.44-2.32,28.32,3.43,62.4.13,90.01-1.04,8.72-6.61,13.58-15.21,13.84-55.52-4.11-118.36,5.21-173.01,0-8.92-.85-14.12-4.66-15.21-13.84-2.15-18.01-2.15-70.67,0-88.68.61-5.09,5.7-13.77,10.93-13.77h76.26v-84.98c0-2.91,7.98-10.89,10.89-10.89h119.84v-66.82h-32.68c-.42,0-6.38-3.57-7.19-4.43-7.83-8.39-1.57-40.05-3.94-51.99-7.08-.69-22.72-15.03-27.95-14.77-10.2.51-32.94,24.48-46.29,21.52-9.36-2.07-21.6-28.72-25.75-37.49h-140.91v311.59c0,3.83-7.21,9.75-11.23,10.56-15.43,3.1-27.69-2.66-44.96,4.43-48.71,20.02-37.02,93.06,16.19,97.64l274.64-.09c18.6,2.22,18.21,27.04,0,29.12l-277.47-.06c-39.48-3.91-70.45-34.99-73.44-74.73v-418.49c4.47-54.71,50.03-82.49,102.5-76.23,5.09.61,13.77,5.7,13.77,10.93v76.26h122.02c1.5-1.32-8.64-15.73-9.48-18.85-5.31-19.64,30.86-27.26,42.25-37.82-.81-10.26-1.9-20.96.4-31.09-1.62-6.98-53.01-20.97-42.19-39.67,14.51-22.78,26.27-49.85,41.27-72.02,5.29-7.82,9.24-14.89,20.09-11.95,9.6,2.6,31.68,20.77,38.59,21.12,5.24.26,20.88-14.08,27.95-14.77,4.02-17.29-10.26-54.03,15.42-56.5,20.63-1.98,65.21-1.97,85.85,0,25.69,2.46,11.39,39.32,15.42,56.5,7.93.93,19.66,13.03,25.56,14.5,13.63,3.39,39.34-35.11,56.97-14.96,10.16,11.61,28.28,46.94,36.6,62.18,4.33,7.92,12.52,17.73,8.81,26.76-4.19,10.19-41.17,24.31-42.23,28.82,2.3,10.13,1.21,20.83.4,31.09,8.63,7.46,38.94,18.57,42.29,28.99,3.46,10.75-7.61,17.99-9.52,27.68h140.18c2.78,0,9.92,6.58,10.21,10.13l.76,456.97ZM115.04,229.61c-19.99-1.78-40.17,6.67-50.55,24.26-1.98,3.35-7.55,15.5-7.55,18.59v355.17c17.23-12.07,36.75-19,58.11-17.43V229.61ZM239.96,595.68v58.11h145.26v-58.11h-145.26ZM501.44,595.68v58.11h145.26v-58.11h-145.26ZM595.86,268.86c-9.63-4.99-21.67-10.6-30.37-16.86-13.87-9.97-6.5-17.54-5.87-31.76.5-11.41-5.78-31.59,1.48-39.2,4.38-4.59,34.81-18.46,34.81-20.48l-27.66-50.07c-2.77-2.1-32.43,20.94-41.19,20.29-6.61-.49-19.14-12.22-26.09-16.18-5.76-3.28-28.58-11.13-28.58-17.91v-41.4h-58.11v41.4c0,6.7-20.28,13.44-25.67,16.46-7.38,4.13-22.47,17.13-28.99,17.64-8.32.65-38.5-22.33-41.2-20.29l-27.66,50.07c0,2.02,30.43,15.89,34.81,20.48,7.26,7.61.97,27.78,1.48,39.2.63,14.22,7.99,21.79-5.87,31.76-8.7,6.26-20.75,11.87-30.37,16.86l27.62,50.82c2.69,2.04,32.87-20.94,41.2-20.29,6.51.5,21.6,13.5,28.99,17.64,5.39,3.02,25.67,9.76,25.67,16.46v41.4h58.11v-41.4c0-6.78,22.82-14.63,28.58-17.91,6.94-3.96,19.47-15.69,26.09-16.18,8.76-.65,38.42,22.39,41.19,20.29l27.62-50.82ZM448.4,273.16c-76.29,5.72-85.22-107.36-12.65-115.78,79.62-9.24,88.38,110.1,12.65,115.78ZM438.63,186.42c-36.11,4.8-30.14,61.91,8.2,57.61,37.18-4.17,32.21-62.98-8.2-57.61Z"/></svg>