<?xml version="1.0" encoding="UTF-8"?><svg id="Layer_1" xmlns="http://www.w3.org/2000/svg" viewBox="0 0 800 800"><defs><style>.cls-1{fill:none;}.cls-2{fill:#010101;}</style></defs><rect class="cls-1" width="800" height="800"/><path class="cls-2" d="M785.82,437.59c-3.31-9.51-11.01-15.83-20.52-18.64l-142.62.25c-4.83,1.81-9.18,4.7-13.16,7.92-17.97,14.56-58.55,55.06-73.03,73.03-3.75,4.66-9.77,14.49-9.77,20.35v59.48h-77.55c-.87,0-7.23-11.79-9.72-14.37-3.87-3.99-14.41-8.17-15.13-11.98l.07-170.86c21.72.01,20.79-19.36,28.59-33.9,8.65.51,25.05-11.99,31.07-12.51,7.66-.66,18.46,14.72,35.22,9.53,2.62-.81,26.22-23.87,28.54-27.18,12.59-17.92-8.39-31.74-6.83-40.03.57-3.04,5.85-11.02,7.54-14.97,1.74-4.07,3.66-14.04,6.06-16.52,5.89-6.09,24.42-1.79,30.71-17.48,2.51-6.27,2.6-31.5,1.69-39.04-2.21-18.37-21.16-16.46-33.03-24.2-.13-7.02-13.13-27.28-13.13-31.49,0-8.87,16.27-19.11,9.22-35.39-1.78-4.11-21.39-24-25.6-27.09-19.44-14.27-31.53,8.36-41.76,5.75-5.36-5.97-26.66-9.34-30.5-13.3-6.56-6.76-2.59-23.25-16.51-30.17-8.61-4.28-37.15-4.43-45.99-.69-14.97,6.34-11.79,26.8-18.13,31.56-9.76,1.21-21.79,10.19-30.06,12.24-10.37,2.57-23.09-18.64-40.71-6.21-3.47,2.45-21.59,20.64-24.05,24.14-10.53,15.01,1.7,25.25,6.98,39.16-4.5,5.31-12.02,31.56-15.5,33.63-10.82,6.42-28.37,3.09-30.65,22.05-.76,6.34-.76,34.79,1.17,39.56,4.47,11.02,22.11,13.01,31.64,17.31.4,9.75,13.93,27.78,11.75,35.8-2.81,10.29-13.02,16.59-8.73,29.71,2.48,7.57,25.47,31.48,33.03,33.2,15.63,3.56,27.32-10.46,34.08-9.88,5.91.51,23.21,13.09,31.65,13.09,5.43,15.03,7.87,33.31,28.02,33.32l.07,170.86c-4.42,6.22-11.75,7.21-17.36,14.27-2.04,2.57-6.11,11.65-7.5,12.08h-79.06v-107.67c0-5.5-12.1-18.86-16.55-22.61-49.64-41.86-198.42-41.43-247.69.82-7.5,6.43-14.73,16.21-15.86,26.3,4.13,73.56-5.48,153.09-.06,225.95,1.02,13.78,5.8,21.78,15.92,30.76,48.62,43.12,215.33,45.23,256.67-8.27,1.86-2.4,7.57-11.18,7.57-13.52v-107.67h79.06c1.44,0,4.66,8.53,6.12,10.45,14.35,18.88,42.43,20.95,58.67,3.14,2.14-2.34,8.19-13.58,9-13.58h77.55v136.28c0,1.52,3.59,9.91,4.76,11.8,5.82,9.43,15.45,13.52,26.13,14.52,63.03,5.91,134.84-4.41,198.8.08,16.62-1.44,29.33-10.45,30.88-27.85-1.07-100.39,1.85-201.18-1.48-301.33ZM272.23,707.23c0,3.76-10.74,11.02-14.05,13.05-45.03,27.64-141.52,26.76-189.64,6.92-6.06-2.5-28.22-14.68-28.22-21.48v-39.91c40.9,24.03,94.03,28.32,140.86,25.66,31.58-1.79,62.76-10.56,91.04-24.16v39.91ZM272.23,633.44c0,4.07-11.51,11.47-15.03,13.58-44.96,26.97-140.87,26.1-188.66,6.39-6.06-2.5-28.22-14.68-28.22-21.48v-39.91c48.32,26.97,113.44,30.91,167.47,22.15,22.3-3.62,45.22-10.11,64.44-22.15v41.41ZM272.23,559.66c0,6.03-22.56,17.66-28.22,19.97-46.39,18.92-124.11,18.94-170.93,1.48-6.95-2.59-32.76-14.94-32.76-22.96v-39.91c9.57,3.37,18.21,8.7,27.83,12.07,52.85,18.51,129.46,17.86,181.85-1.91,7.7-2.91,14.84-6.63,22.22-10.16v41.41ZM247.64,503.45c-48.06,21.84-139.4,21.69-186.8-1.95-38.58-19.24-14.21-36.45,13.34-46.52,17.62-6.44,37.45-10.21,56.19-11.57,36.78-2.68,82.86-.16,116.8,14.83,33.15,14.64,33.96,30.01.48,45.22ZM393.85,337.14c-5.77-10.85-18.28-11.19-28.24-15.43-8.5-3.63-18.93-11.77-28.34-10.34-7.58,1.15-15.77,7.49-22.82,10.5-1.69.27-16.07-13.76-16.39-15.4-.61-3.21,10.92-18.36,10.36-28.34-.57-10.2-16.38-30.87-16.97-43.38-6.65-12.49-18.56-9.64-27.26-14.9-3.56-2.15-3.53-21.55-1.84-23.94,1.06-1.5,20.17-5.15,25.58-10.56l19.41-43.83c5.48-11.87-6.61-22.14-8.91-31.35-.85-3.4,12.27-16.38,15.3-16.64,4.41-.39,17.35,10.95,26.92,10.51,13.08-6.33,27.99-10.59,41.03-16.19,18.26-7.85,10.91-18.78,18.69-29.5,2.4-3.31,19.87-3.47,22.52-1.7,2.55,1.7,5.46,20.68,11.23,26.42,4.97,4.94,21.15,8.67,28.87,11.79,7.78,3.15,14.12,10.05,23.43,9.01,9.04-1.01,20.06-13.3,27.58-8.84,1.22.72,12.32,12.21,12.48,13.1.56,2.92-8.46,15.74-9.59,20.07-4.22,16.14,14.1,36.15,16.53,52.83,1.09,9.29,27.73,12.84,29.23,15.19.72,1.12.56,20.88-.48,22.44-1.78,2.66-20.72,5.22-26.44,11.63-7.3,8.18-10.22,32.66-18.84,42.47-5.34,12.47,6.83,22.06,9.24,31.67.82,3.26-13.8,17.55-15.2,17.66-3.31.26-18.22-11.37-26.89-11.11-10.85.32-33.35,16.9-46.26,18.2-10.17,4.82-9.32,19.71-13.7,26.96-2.17,3.6-22.71,3.21-23.7,2.35-.84-.73-4.59-17.7-6.52-21.33ZM402.21,602.09c-12.21-11.17,6.67-33.71,19.92-19.16,12.32,13.53-7.54,30.48-19.92,19.16ZM612.55,459.52v41.41c0,.16-2.1,2.26-2.26,2.26h-41.41l43.67-43.67ZM763.14,738.85c-.85,2.81-7.1,3.6-9.72,3.84-61.16,5.62-130.82-4.4-192.89-.01-3.32.45-9.72-1.57-9.72-5.33v-210.07h74.54c3.82,0,11.29-7.46,11.29-11.29v-73.03h124.23c.16,0,2.26,2.1,2.26,2.26v293.64ZM592.54,622.47l126.17-.32c16.34.11,17.77,22.25,1.54,24.13l-127.94-.13c-13.07-3.72-12.6-19.39.22-23.68ZM728.03,702.98c-2.62,2.4-7.24,3.25-10.74,3.57-38.72,3.54-82.78-2.83-122.09-.05-15.61-1.85-16.65-22.38-1.5-24.16,39.95,3.48,87.54-4.55,126.55,0,10.35,1.21,15.8,13.28,7.78,20.63ZM591.04,563.74l132.15-.29c14.39,6.77,9.17,23.11-5.99,24.05-38.13-2.77-81.45,3.72-118.94-.02-16.13-1.61-22.23-15.76-7.23-23.75ZM76.03,547.18c10.11-2.3,33.84,6.88,45.19,8.38,7.68,4.3,6.92,18.99-2.16,21.09-7.67,1.78-38.95-3.68-45.53-8.04-7.08-4.7-6.61-19.36,2.5-21.43ZM79.07,620.97c2.07-.2,38.12,7.29,40.67,8.34,11.38,4.71,8.38,23.06-6.38,23.08-6.06,0-35.99-6.24-40.49-9.34-7.8-5.39-4.63-21.05,6.19-22.08ZM77.56,696.22c2.57-.56,4.31-.22,6.78.08,4.4.53,35.86,7.5,37.89,8.84,8.03,5.27,4.55,21.89-7.32,22.16-6.31.14-33.72-5.68-39.51-8.45-10.31-4.92-8.56-20.3,2.17-22.62ZM401.4,125.63c-30.63,3.48-59.1,27.76-67.82,57.17-23.39,78.93,68.68,140.03,131.42,87.75,62.58-52.15,18.68-154.26-63.6-144.92ZM404.01,265.24c-64.6-6.67-66.79-106.56-1.13-115.55,86.47-11.84,90.41,124.76,1.13,115.55Z"/></svg>