<?xml version="1.0" encoding="UTF-8"?>
<svg id="Layer_1" data-name="Layer 1" xmlns="http://www.w3.org/2000/svg" viewBox="0 0 14 14">
  <defs>
    <style>
      .cls-1 {
        fill: #393939;
      }

      .cls-2 {
        fill: none;
      }
    </style>
  </defs>
  <rect class="cls-2" width="14" height="14"/>
  <path class="cls-1" d="M13.02,5.89c0-.24-.07-.41-.27-.55-.27-.19-.5-.43-.77-.61-.38-.24-.54-.53-.5-.99,.04-.47-.36-.87-.83-.92-.3-.03-.6-.01-.91-.01-.11,0-.19-.02-.28-.09-.75-.6-1.5-1.2-2.24-1.8-.15-.12-.27-.12-.42,0-.74,.6-1.5,1.2-2.24,1.8-.08,.07-.16,.09-.26,.09-.3,0-.61,0-.91,.02-.49,.04-.85,.44-.85,.93,0,.15,0,.3,0,.44,0,.1-.03,.16-.11,.23-.38,.3-.76,.62-1.15,.91-.21,.15-.28,.32-.28,.58,.01,1.99,0,3.99,0,5.98,0,.82,.45,1.28,1.28,1.28,1.58,0,3.15,0,4.73,0,1.59,0,3.18,0,4.77,0,.79,0,1.25-.46,1.25-1.24,0-.11,0-.22,0-.33,0-1.9,0-3.81,0-5.71Zm-1.53-.95c.23,.19,.44,.36,.66,.52q.28,.22,0,.44c-.21,.17-.42,.33-.66,.52v-1.49ZM6.92,1.41c.06-.05,.11-.05,.17,0,.56,.45,1.12,.9,1.72,1.38h-3.6c.6-.48,1.16-.93,1.72-1.38ZM2.98,3.86c0-.41,.18-.58,.59-.59,1.15,0,2.29,0,3.44,0,1.13,0,2.25,0,3.38,0,.41,0,.65,.22,.64,.65-.02,.91,0,1.81,0,2.72,0,.12-.03,.2-.13,.28-1.26,1-2.51,2.01-3.76,3.01-.1,.08-.16,.08-.26,0-1.26-1.01-2.52-2.02-3.78-3.03-.1-.08-.11-.16-.11-.26,0-.93,0-1.85,0-2.78Zm-1.33,1.77c.28-.22,.56-.44,.87-.69v1.47c-.13-.02-.19-.12-.28-.19-.19-.14-.37-.29-.56-.44-.05-.04-.12-.07-.03-.14Zm-.13,6.71c-.09-.24-.13-5.42-.06-6.11,.07,0,.11,.05,.16,.09,1.14,.91,2.28,1.82,3.42,2.73,.11,.09,.14,.13,.01,.24-1.14,.98-2.27,1.96-3.4,2.94-.04,.03-.08,.06-.13,.1Zm10.3,.37c-3.22,0-6.44,0-9.67,0-.08,0-.17,0-.26-.05,.04-.09,.11-.13,.17-.18,1.12-.97,2.24-1.93,3.35-2.91,.11-.09,.17-.1,.28,0,.35,.3,.73,.57,1.08,.87,.16,.14,.28,.12,.44,0,.36-.31,.74-.6,1.11-.9,.07-.06,.11-.08,.19,0,1.17,1.02,2.35,2.04,3.53,3.06,.01,.01,.02,.03,.05,.06-.09,.05-.18,.06-.27,.06Zm.64-.41c-.09,.04-.19-.13-.28-.2-1.08-.93-2.16-1.87-3.24-2.8-.1-.09-.15-.13,0-.25,1.14-.91,2.28-1.82,3.42-2.73,.05-.04,.09-.1,.16-.1,.04,.06,.02,.12,.02,.18,0,1.84,0,3.68,0,5.52,0,.13,.03,.32-.08,.37ZM7,6.83c-.75,0-1.49,0-2.24,0-.07,0-.14,0-.21-.02-.11-.05-.16-.13-.14-.25,.02-.11,.08-.19,.21-.19,.03,0,.06,0,.1,0,1.53,0,3.06,0,4.59,0,.04,0,.08,0,.12,0,.11,0,.18,.07,.2,.18,.02,.12-.03,.2-.13,.25-.07,.04-.15,.03-.23,.03-.75,0-1.5,0-2.26,0Zm0-1.39c-.74,0-1.48,0-2.22,0-.07,0-.14,0-.21-.02-.11-.03-.17-.11-.16-.23,0-.12,.08-.19,.19-.21,.04,0,.09,0,.13,0,1.52,0,3.03,0,4.55,0,.05,0,.1,0,.15,0,.11,.03,.18,.1,.18,.22,0,.1-.05,.19-.16,.22-.07,.02-.14,.02-.21,.02-.75,0-1.5,0-2.26,0Z"/>
</svg>