<?xml version="1.0" encoding="UTF-8"?>
<svg id="Layer_1" data-name="Layer 1" xmlns="http://www.w3.org/2000/svg" viewBox="0 0 14 14">
  <defs>
    <style>
      .cls-1 {
        fill: #393939;
      }

      .cls-2 {
        fill: none;
      }
    </style>
  </defs>
  <rect class="cls-2" width="14" height="14"/>
  <path class="cls-1" d="M13.38,7.48c0-.31-.03-.62-.08-.93-.4-2.35-1.67-4.08-3.77-5.19-.96-.5-1.99-.74-3.07-.75-.28,0-.37,.09-.37,.37,0,.15,0,.3,0,.46q0,.4-.38,.45c-.09,.01-.18,.03-.27,.05C2.67,2.38,.62,4.78,.62,7.59c0,.49,.06,.97,.18,1.44,.73,2.99,3.87,4.93,6.86,4.21,2.49-.6,4.24-2.61,4.47-5.16,.01-.14,.06-.18,.19-.17,.22,0,.44,0,.66,0,.32,0,.42-.1,.41-.43Zm-1.87,.69c-.27,2.48-2.29,4.4-4.84,4.58-2.41,.17-4.67-1.47-5.28-3.85-.74-2.85,1.04-5.72,3.92-6.33,.17-.04,.35-.05,.52-.08,.19-.04,.27,0,.26,.22-.02,.8,0,1.61,0,2.42,0,.79,0,1.58,0,2.37,0,.34,.08,.41,.42,.41,1.59,0,3.18,0,4.76,0,.23,0,.26,.07,.24,.27Zm1.02-.87c-.94,0-1.88,0-2.83,0-.93,0-1.87,0-2.8,0-.17,0-.22-.04-.22-.22,0-1.85,0-3.69,0-5.54,0-.3,0-.31,.29-.28,2.34,.28,4.06,1.46,5.13,3.56,.36,.7,.54,1.46,.62,2.24,.02,.17-.03,.22-.2,.22Z"/>
</svg>