<?xml version="1.0" encoding="UTF-8"?>
<svg id="Layer_1" data-name="Layer 1" xmlns="http://www.w3.org/2000/svg" viewBox="0 0 14 14">
  <defs>
    <style>
      .cls-1 {
        fill: #393939;
      }

      .cls-2 {
        fill: none;
      }
    </style>
  </defs>
  <rect class="cls-2" width="14" height="14"/>
  <path class="cls-1" d="M13.54,7c-.42-.41-.84-.81-1.26-1.22-.1-.1-.23-.14-.37-.11-.06,.01-.1,0-.14-.04-.11-.11-.23-.23-.34-.33-.06-.05-.05-.09-.02-.15,.26-.47,.35-.98,.29-1.52-.17-1.45-1.61-2.46-3.05-2.13-1.72,.4-2.5,2.39-1.52,3.85,.02,.02,.03,.04,.05,.07,0,.01,0,.03,0,.04,0,0-.03,0-.04,0-.02,0-.04-.02-.06-.03-.36-.16-.76-.06-.97,.27-.04,.06-.07,.07-.14,.05-.27-.06-.55-.12-.82-.17-.06-.01-.08-.04-.09-.09-.08-.45-.5-.73-.93-.63-.44,.1-.69,.53-.57,.97,.02,.07,0,.1-.05,.15-.37,.28-.74,.57-1.1,.86-.07,.05-.11,.06-.19,.02-.33-.19-.74-.1-.97,.2-.23,.29-.22,.71,.02,.99,.24,.27,.62,.35,.94,.18,.33-.17,.49-.53,.4-.89-.01-.05-.03-.1,.03-.14,.39-.3,.77-.59,1.15-.9,.05-.04,.08-.04,.13,0,.37,.21,.79,.11,1.04-.24,.03-.05,.07-.07,.13-.06,.26,.06,.53,.12,.79,.17,.08,.01,.11,.04,.13,.13,.09,.45,.53,.72,.97,.59,.43-.12,.66-.58,.52-1.01,0-.03-.04-.06,0-.08,.03-.02,.05,.02,.08,.04,.2,.18,.43,.32,.68,.42,.09,.03,.11,.08,.11,.17,0,1.39,0,2.78,0,4.18,0,.24,0,.49,0,.73,0,.09-.03,.11-.11,.1-.16,0-.32,0-.48,0-.1,0-.13-.02-.13-.12,0-1.02,0-2.05,0-3.07,0-.21-.07-.28-.28-.28-.39,0-.78,0-1.18,0-.21,0-.28,.07-.28,.28,0,.43,0,.85,0,1.28,0,.6,0,1.21,0,1.81,0,.08-.02,.1-.1,.1-.16,0-.31,0-.47,0-.16,0-.14,.02-.14-.15,0-1.32,0-2.64,0-3.96,0-.18-.07-.27-.23-.27-.43,0-.85,0-1.28,0-.09,0-.16,.03-.2,.11-.03,.06-.03,.12-.03,.18,0,1.32,0,2.63,0,3.95,0,.1-.02,.14-.13,.14-.16-.01-.31,0-.47,0-.09,0-.12-.02-.12-.12,0-.59,0-1.18,0-1.77,0-.18-.08-.26-.26-.26-.41,0-.81,0-1.22,0-.19,0-.26,.08-.26,.27,0,.57,0,1.13,0,1.7,0,.18,0,.18-.18,.18-.15,0-.31-.03-.45,.08v.94c.04,.08,.1,.11,.18,.12,.05,0,.1,0,.15,0,3.23,0,6.46,0,9.69,0,.04,0,.08,0,.12,0,.15-.01,.25-.11,.26-.26,0-.22,0-.44,0-.66,0-.14-.1-.23-.23-.25-.07-.01-.15,0-.22,0q-.19,0-.19-.19c0-1.57,0-3.13,0-4.7,0-.03,0-.07,0-.1,0-.05,.02-.09,.07-.11,.14-.06,.27-.13,.4-.22,.06-.04,.1-.03,.15,.02,.09,.09,.17,.17,.27,.25,.05,.04,.07,.09,.07,.17-.02,.15,.04,.28,.15,.39,.4,.4,.81,.79,1.21,1.18,.22,.22,.51,.21,.72-.02,.11-.12,.22-.23,.33-.34,.07-.06,.12-.13,.14-.22v-.37s-.06-.08-.09-.11ZM1.86,7.89c-.19,0-.35-.16-.35-.35,0-.2,.16-.36,.36-.36,.19,0,.35,.16,.35,.35,0,.2-.16,.36-.36,.36Zm2.45-1.91c-.19,0-.35-.16-.35-.35,0-.2,.16-.36,.36-.35,.19,0,.35,.16,.35,.36,0,.2-.16,.36-.36,.35Zm2.45,.51c-.19,0-.35-.16-.35-.35,0-.2,.16-.36,.36-.36,.19,0,.35,.16,.35,.35,0,.2-.16,.36-.36,.35Zm1.58-.78q0,.13-.11,.07c-.13-.07-.25-.15-.36-.25-.04-.04-.06-.06,0-.1,.11-.1,.1-.1,.22-.01,.05,.04,.1,.07,.15,.11,.1,.07,.1,.07,.1,.19Zm0-.71c.14-.12,.27-.24,.4-.36,.05-.05,.09-.02,.14,0,.34,.16,.74,.06,.96-.25,.22-.3,.19-.71-.06-.99-.25-.27-.65-.32-.96-.13-.31,.18-.45,.56-.34,.9,.03,.09,.02,.14-.05,.19-.12,.1-.24,.2-.35,.31-.05,.05-.07,.04-.11-.02-.44-.72-.09-1.75,.7-2.05,.91-.35,1.85,.21,1.98,1.18,.09,.64-.35,1.33-.97,1.52-.15,.04-.3,0-.47,.02-.17-.02-.35,.03-.52-.04-.12-.05-.23-.11-.33-.19-.04-.03-.04-.05,0-.09Zm.52-1.06c0-.19,.16-.35,.35-.35,.2,0,.36,.16,.36,.36,0,.19-.16,.35-.35,.35-.2,0-.36-.16-.36-.36Zm.8,2.03c0,1.77,0,3.55,0,5.32q0,.14-.13,.14c-.21,0-.42,0-.64,0-.1,0-.14-.02-.13-.13,0-.91,0-1.82,0-2.73,0-.9,0-1.8,0-2.71,0-.09,.02-.13,.12-.12,.23,0,.47,0,.7,0,.06,0,.09,.02,.08,.08,0,.05,0,.1,0,.15Zm-3.22,2.4c.23,0,.46,0,.69,0,.07,0,.09,.02,.09,.09,0,.96,0,1.92,0,2.87,0,.07-.02,.09-.1,.09-.24,0-.47,0-.71,0-.09,0-.1-.03-.1-.11,0-.48,0-.95,0-1.43,0-.47,0-.93,0-1.4,0-.1,.03-.13,.13-.13Zm-2.47-.9c.23,0,.46,0,.69,0,.09,0,.11,.02,.11,.11,0,.62,0,1.25,0,1.87s0,1.24,0,1.85c0,.1-.03,.12-.12,.12-.22,0-.44,0-.67,0-.09,0-.12-.02-.12-.12,0-1.08,0-2.17,0-3.25,0-.16,0-.33,0-.49,0-.09,.03-.1,.11-.1Zm-2.56,2.31c0-.06,.02-.08,.08-.08,.24,0,.49,0,.73,0,.08,0,.09,.03,.09,.1,0,.26,0,.51,0,.77,0,.25,0,.51,0,.76,0,.07-.02,.11-.1,.1-.24,0-.48,0-.72,0-.07,0-.09-.02-.09-.09,0-.52,0-1.04,0-1.56Zm8.78,2.07s.11-.03,.12,.03c.02,.07,.02,.14,0,.22,0,.02-.03,.02-.04,.02-.03,0-.06,0-.09,0-3.09,0-6.18,0-9.27,0-.05,0-.12,.03-.13-.02-.02-.07,0-.14,0-.22,0-.02,.02-.02,.04-.02,.03,0,.06,0,.09,0,1.55,0,3.1,0,4.65,0s3.1,0,4.65,0Zm0-6.06c-.09,.05-.09,.05-.1-.06,0-.1,.02-.15,.11-.21,.65-.4,.98-1.16,.85-1.92-.13-.73-.71-1.33-1.46-1.48-.72-.15-1.48,.15-1.9,.76-.44,.66-.45,1.34-.06,2.03,.05,.1,.02,.19-.08,.23-.05,.02-.05-.02-.07-.04-.21-.31-.33-.65-.35-1.02,0-.05,0-.1,0-.15,0-1.25,1.1-2.22,2.35-2.06,1.09,.14,1.89,1.1,1.81,2.2-.06,.76-.44,1.34-1.11,1.71Zm1.25,.27s-.05,0-.07-.02c-.1-.1-.2-.2-.3-.29-.05-.05-.03-.08,0-.12,.04-.04,.06-.04,.1,0,.1,.1,.2,.2,.3,.3,.01,.01,.02,.03,.03,.04-.01,.05-.05,.07-.08,.1Zm1.77,1.31c-.12,.11-.23,.23-.34,.35-.04,.04-.07,.05-.11,0-.38-.38-.77-.75-1.16-1.12-.02-.02-.05-.04-.02-.08,.13-.13,.26-.27,.39-.4,0,0,.02-.01,.04-.02,.02,.02,.04,.03,.06,.05,.38,.37,.76,.74,1.14,1.1,.05,.05,.06,.07,0,.12Z"/>
</svg>