<?xml version="1.0" encoding="UTF-8"?>
<svg id="Layer_1" data-name="Layer 1" xmlns="http://www.w3.org/2000/svg" viewBox="0 0 800 800">
  <defs>
    <style>
      .cls-1 {
        fill: #030303;
      }

      .cls-2 {
        fill: none;
      }
    </style>
  </defs>
  <rect class="cls-2" width="800" height="800"/>
  <path class="cls-1" d="M316.17,319.87c-43.6,0-87.2-.04-130.8,.04-6.94,.01-13.5-.55-17.65-7.04-4.87-7.63-1.34-18.4,7.34-21.25,3.98-1.3,8.47-1.39,12.73-1.4,85.63-.07,171.26-.06,256.88-.05,1.96,0,3.93-.08,5.89,.02,10.58,.58,18.07,6.97,16.98,15.47-1.22,9.53-7.26,14.24-17.05,14.22-39.67-.06-79.34-.02-119.01,0-5.11,0-10.21,0-15.32,0Zm62.36,107.26c14.1-.03,19.87-4.26,19.9-14.21,.04-10.07-6.08-14.85-19.43-14.86-64.82-.04-129.64-.03-194.46,.03-3.47,0-7.34-.1-10.34,1.3-6.82,3.17-9.49,9.12-8.09,16.56,1.62,8.59,7.82,11.15,15.6,11.16,33.39,.04,66.78,.02,100.17,.03,32.21,.01,64.43,.06,96.64,0Zm-194.31,186.3c-12.58,.09-18.37,4.93-18.4,14.78-.02,9.81,5.69,14.65,18.46,14.69,42.43,.13,84.86,.11,127.29,.01,12.06-.03,19.18-5.43,19.54-14.18,.37-9.14-7.26-15.25-19.61-15.31-21.21-.11-42.43-.03-63.64-.03-21.21,0-42.43-.1-63.64,.04Zm127.26-78.19c11.93-.04,19.12-5.28,19.62-14.04,.53-9.24-6.9-15.53-19.41-15.57-42.43-.15-84.86-.16-127.28,0-12.76,.05-18.48,4.97-18.52,14.78-.04,10.07,6.07,14.8,19.49,14.83,20.43,.06,40.86,.01,61.29,.01,21.61,0,43.21,.05,64.82-.02Zm232.38-262.16c-1.07,8.5,4.84,15.86,13.26,16.06,8.54,.2,14.28-3.81,15.26-12.85,.95-8.74-4.75-15.59-14.1-16.22-7.65,.31-13.3,4.16-14.41,13.01Zm55.54,495.69c-14.68,3.33-29.45,4.67-44.41,4.67-159.66,0-319.33,.01-478.99,0-17.94,0-21.96-4.04-21.97-22.38-.03-202.45-.02-404.89,0-607.34,0-19.38,4.34-23.7,23.44-23.72,25.17-.02,50.34-.24,75.5,.15,6.86,.1,9.28-1.15,9.42-8.82,.41-22.91,14.49-35.97,37.43-36.11,12.98-.08,25.97-.36,38.93,.14,5.87,.22,7.95-2.07,9.66-7.31,9.99-30.52,34.45-49.1,64.41-49.46,30.7-.37,55.28,18.15,65.97,50.36,1.77,5.32,4.5,6.41,9.39,6.33,13.37-.21,26.74-.17,40.11-.05,21.71,.2,35.75,13.23,35.99,34.82,.09,8.64,2.98,10.26,10.81,10.12,25.55-.45,51.12-.23,76.68-.15,16.35,.05,20.76,4.56,20.81,21.17,.07,22.01-.13,44.03,.08,66.04,.09,10.06-3.33,17.1-14.2,17.86-9.17,.64-14.68-6.49-14.75-18.42-.09-16.12-.24-32.24,.09-48.35,.12-5.96-1.45-8.37-7.87-8.27-21.23,.34-42.47,.35-63.7,0-6.62-.11-7.49,2.74-7.8,8.42-1.26,23.51-14.03,35.99-37.46,36.06-75.51,.21-151.01,.21-226.52,0-23.82-.06-36.85-12.69-38.11-36.88-.34-6.59-2.71-7.65-8.43-7.58-20.45,.27-40.91,.47-61.34-.08-7.62-.21-9.11,2.46-9.03,9.42,.35,29.09,.15,58.18,.15,87.27,0,161.56,.1,323.13-.23,484.69-.02,10.08,1.96,13.13,12.71,13.09,115.22-.45,230.45-.28,345.67-.28,3.48,0,6.95,0,10.43,0-24.42-20.56-45.1-43.1-59.91-71-59.6-112.26,9.29-251.69,134.76-272.42q16.58-2.74,16.58-18.89c0-12.97-.11-25.95,.04-38.92,.13-11.08,5.72-17.63,14.59-17.53,8.8,.09,14.1,6.56,14.24,17.91,.16,12.97,1.22,26.08-.28,38.88-1.56,13.32,3.93,16.91,15.96,18.67,44.94,6.58,82.18,27.99,111.8,62.13,92.94,107.13,37.74,274.4-100.64,305.77ZM204.16,165.3c36.52-.48,73.06-.2,109.59-.2,36.53,0,73.06-.29,109.59,.19,9.43,.12,12.55-2.93,12.09-12.18-.63-12.53-.58-25.14-.02-37.68,.41-9.16-3.76-11.48-12.03-11.25-14.52,.4-29.06,.11-43.6,.11q-24.47,0-28.41-23.48c-3.37-20.06-19.52-33.27-39.72-32.49-19.54,.76-35.1,16.22-36.48,36.23-1.12,16.27-4.54,19.59-20.98,19.71-17.28,.13-34.57,.28-51.85-.08-7.68-.16-10.48,2.71-10.22,10.37,.44,12.94,.68,25.94-.07,38.86-.55,9.52,2.91,12.01,12.11,11.89Zm512.3,420.54c-.04-87.03-70.81-158.15-157.78-158.55-85.83-.4-158.52,71.98-158.73,158.06-.21,87.62,71.26,159.16,158.57,158.76,87.26-.4,157.98-71.26,157.94-158.26Zm-94.47,62.54c-6.5,21.14-20.44,36.1-41.39,43.49-5.81,2.05-8.17,4.24-8.09,10.42,.11,8.73-4.6,14.11-13.62,14.41-8.84,.29-14.7-4.38-14.79-13.13-.07-7.15-3.67-8.19-9.15-9.05-11.81-1.84-22.47-6.64-32.42-13.22-8.11-5.37-11.21-12.43-5.98-21.01,5.28-8.65,12.95-8.72,21.45-4.11q25.69,13.9,25.73-15.05c0-5.89-.62-11.86,.11-17.67,2.69-21.48-1.99-36.04-23.57-48.76-34.51-20.33-26.22-73.54,11.7-90.67,6.18-2.79,12.76-3.72,12.82-13.62,.04-6.43,6.82-10.27,13.92-10.05,6.5,.2,12.43,3.45,12.94,9.84,.65,8.29,5.12,9.77,11.75,11.5,7.53,1.98,14.6,5.75,20.81,10.72,7.62,6.09,9.44,13.82,3.76,21.64-5.45,7.49-12.99,8.02-20.68,2.54-4.1-2.92-8.09-6.12-14.53-6.22,0,18.17,.05,36.11-.02,54.05-.03,7.67,6.74,6.7,10.92,8.39,33.41,13.45,48.51,42.46,38.32,75.57Zm-78.92-136.63c-10.48,5.3-14.69,13.55-14.85,23.21-.15,9.27,5.55,15.64,14.85,20.09v-43.3Zm36.21,91.43c-5.37-2.62-6.81-.95-6.62,4.52,.27,7.79,.07,15.6,.07,23.4,0,8.58,.03,17.16-.01,25.75-.02,3.51,.29,6.99,4.97,4.07,11-6.86,16.94-17.04,17.77-29.92,.73-11.26-6.64-23.16-16.17-27.82Z"/>
</svg>