<?xml version="1.0" encoding="UTF-8"?>
<svg id="Layer_1" data-name="Layer 1" xmlns="http://www.w3.org/2000/svg" viewBox="0 0 800 800">
  <defs>
    <style>
      .cls-1 {
        fill: none;
      }

      .cls-2 {
        fill: #010101;
      }
    </style>
  </defs>
  <rect class="cls-1" width="800" height="800"/>
  <path class="cls-2" d="M677,552.07c-9.6-.8-17.64,3.57-25.4,8.85-44.57,30.3-89.81,59.66-133.44,91.25-21.67,15.69-43.21,20.22-69.16,15.53-42.02-7.58-84.46-12.89-126.72-19.17-1.53-.23-3.04-.56-4.57-.74-7.34-.86-13.11-3.98-12.18-12.25,1.01-8.98,7.71-10.49,15.47-9.34,38.83,5.76,77.66,11.52,116.49,17.28,10.28,1.52,20.54,3.14,30.84,4.51,17.27,2.31,30.65-6.11,33.38-20.82,2.81-15.15-7-28.09-24.69-31.64-37.7-7.56-75.47-14.82-113.21-22.2-1.89-.37-3.8-.64-5.67-1.12-6.44-1.64-10.46-5.52-9.12-12.44,1.43-7.37,6.64-9.83,13.82-8.47,23.8,4.52,47.62,8.96,71.4,13.58,16.99,3.3,33.98,6.66,50.89,10.33,20.05,4.35,32.97,16.9,36.91,36.73,2.02,10.18,4.74,7.6,10.49,3.67,36.52-25.01,72.99-50.12,109.86-74.61,28.53-18.95,64.36-12.99,84.79,13.21,12.5,16.03,10.17,34.56-6.58,46.15-27.53,19.05-55.47,37.52-83.11,56.43-6.67,4.57-12.96,6.06-17.94-1.43-4.77-7.18-.44-12.25,5.52-16.3,26.42-17.97,52.84-35.93,79.26-53.91,11.01-7.49,11.62-12.68,2.13-21.71-8.12-7.73-17.71-12.17-29.47-11.4ZM386.26,62.56c-21.76,.05-32.71,11.09-32.84,32.69-.09,15.03-.26,30.07,.08,45.09,.37,16.49,10.9,27.65,27.33,28.36,15.01,.65,30.07,.24,45.11,.25,7.42,0,13.52-2.65,13.29-10.95-.22-7.94-5.81-10.86-13.52-10.73-13.49,.23-26.99-.12-40.49,.13-7.38,.13-10.54-3.02-10.45-10.34,.18-13.87,.29-27.76-.04-41.62-.19-8.1,3.31-10.7,11.12-10.69,96.4,.15,192.8,.18,289.2-.04,8.9-.02,11.5,3.9,11.37,11.84-.2,11.56-.03,23.13-.05,34.69-.03,15.65-.48,16.09-16.33,16.09-62.47,0-124.94,.06-187.4-.06-7.57-.01-13.4,2.17-13.82,10.35-.43,8.33,5.29,11.32,12.84,11.32,65.94,0,131.88,.18,197.81-.22,17.03-.1,27.76-11.79,28.12-28.8,.3-14.26,.1-28.52,.07-42.78-.05-23.83-10.7-34.57-34.49-34.6-47.43-.06-94.86-.02-142.29-.02-48.2,0-96.4-.08-144.6,.04Zm289.02,422.49c21.06-.06,32.19-11.24,32.34-31.99,.11-14.65,.18-29.3-.02-43.94-.26-18.82-11.67-30.26-30.25-30.37-22.75-.13-45.5,.07-68.25-.09-7.62-.05-14.36,.94-14.69,10.39-.36,10.44,7.14,11.31,15,11.3,21.21,0,42.43,.39,63.62-.17,10.26-.27,13.84,3.83,13.44,13.63-.46,11.16-.08,22.35-.11,33.53-.03,15.12-.76,15.89-15.43,15.9-38.56,.03-77.12,0-115.69,0-55.53,0-111.06-.21-166.59,.19-10.58,.08-14.68-3.26-14.02-13.97,.72-11.52,.8-23.16-.02-34.67-.81-11.31,3.51-14.74,14.61-14.65,53.6,.44,107.2,.2,160.8,.19,7.58,0,14.42-1.42,14.24-10.97-.18-9.29-6.63-10.74-14.42-10.72-55.53,.11-111.06-.01-166.59,.1-18.02,.04-29.45,11.43-29.8,29.55-.27,13.87-.09,27.75-.06,41.63,.05,24.87,10.22,35.13,34.98,35.15,47.05,.04,94.09,.01,141.14,.01,48.59,0,97.18,.09,145.76-.05Zm-375.84,253.09c57.22,4.4,114.43,8.97,171.66,13.37,16.73,1.29,31.95-3.28,45.79-12.7,23.87-16.23,47.77-32.41,71.7-48.55,6.61-4.46,12.14-9.85,6.6-17.92-5.58-8.13-12.46-4.63-19.02-.13-22.86,15.66-46.01,30.9-68.67,46.84-12.31,8.66-25.38,12.07-40.26,10.53-16.09-1.66-32.25-2.57-48.38-3.83-45.7-3.56-91.61-5.49-137.05-11.15-47.63-5.94-90.22,1.79-127.33,33.61-5.62,4.82-9.85,9.66-5.57,16.46,4.7,7.46,11.42,6.22,17.99,1.56,6.91-4.89,14.13-9.34,20.99-14.3,17.85-12.88,37.61-19.01,59.65-17.22,17.3,1.13,34.61,2.09,51.9,3.42Zm-120.59-181.32c-26.3,19.43-52.36,39.18-78.52,58.78-9.85,7.38-19.77,14.68-29.54,22.17-5.52,4.23-8.13,9.77-3.62,15.97,4.41,6.05,10.3,5.9,16.19,1.7,2.19-1.56,4.31-3.23,6.47-4.84,32.64-24.45,65.46-48.65,97.85-73.41,26.01-19.88,54.84-26.79,86.89-21.03,10.97,1.97,21.88,4.29,32.87,6.12,6.73,1.12,11.61-2.05,12.84-8.63,1.25-6.7-2.77-11.43-9.08-12.56-18.89-3.39-37.48-8.83-56.9-8.81-27.79,.07-53.08,8.03-75.44,24.55ZM707.61,296.69c-.25,17.88-10.3,28.63-28.14,30.32-3.44,.33-6.94,.15-10.41,.16-92.56,0-185.13,.01-277.69,0-28.94,0-37.96-9.06-37.97-38.03,0-12.72-.17-25.45,.04-38.17,.31-18.92,11.35-30.04,30.4-30.11,49.37-.17,98.73-.06,148.1-.06,47.44,0,94.88-.05,142.32,.02,22.71,.03,33.28,10.57,33.37,33.07,.06,14.26,.16,28.53-.03,42.79Zm-21.11-39.99c.6-11.18-3.83-14.54-14.93-14.41-46.99,.55-93.98,.23-140.97,.23-47.38,0-94.76,.26-142.13-.2-10.77-.1-14.43,3.6-13.82,14.1,.69,11.9,.53,23.88,.04,35.79-.38,9.12,2.34,13.41,12.36,13.11,19.63-.58,39.28-.17,58.93-.17,75.5,0,150.99-.18,226.48,.2,10.71,.05,14.55-3.58,14.03-14.02-.57-11.52-.61-23.12,0-34.64Zm-371.06,152.82c-21.85,16.05-28.76,35.02-20.1,61.17,3.65,11.04-7.16,18.59-16.68,11.52-21.79-16.18-41.64-15.56-63.21,.18-8.63,6.29-17.04,.47-17.16-11.03,1.4-7.87,2.73-17,4.71-25.98,1.54-7.01,.61-12.36-5.46-17.24-6.87-5.52-13.1-11.95-19.01-18.51-7.41-8.23-3.95-19.07,6.92-18.98,26.6,.21,44.04-10.35,50.95-36.76,1.22-4.67,4.94-7.79,10.23-8.02,5.88-.26,10.08,3.1,11.34,8.11,6.74,26.75,24.66,36.56,50.96,36.67,10.86,.04,15.24,12.44,6.5,18.86Zm-31.04-.35c-19.1-.24-32.05-7.37-37.4-27.06-4.79,20.19-18.48,26.3-37.23,27.49,17,10.86,20.34,25.31,14,43.82,15.94-12.51,30.97-11.59,47.13-.38-8.23-19.03-1.79-32.41,13.5-43.87Zm30.44-156.59c-4.97,5.36-9.98,10.85-15.75,15.26-8.68,6.64-9.85,14.45-6.9,24.34,1.97,6.58,2.79,13.57,3.52,20.43,1.2,11.32-7.32,18.46-16.2,12.08-22.06-15.84-42.24-16.44-64.39-.11-8.88,6.54-17.36-.35-16.73-11.62,.9-5.3,1.03-10.88,2.86-15.84,5.7-15.48-.55-25.8-12.3-35.56-6.53-5.42-17.52-10.46-13.37-21.9,3.83-10.56,15.04-7.02,23.24-8.94,4.85-1.13,9.84-2.14,14.8-2.28,5.46-.16,8.31-2.76,10.43-7.41,3.84-8.39,8.09-16.59,12.07-24.92,2.33-4.87,5.78-8.49,11.38-8.39,5.08,.1,9.22,3.38,10.34,8.01,6.55,26.91,24.81,36.34,50.9,37.07,11.64,.32,14.34,10.89,6.09,19.78Zm-30.46-1.6c-19.99,.91-31.51-8.24-37.37-26.8-5.48,19.07-17.52,27.5-37.2,27.46,17.99,10.99,19.1,26.06,13.5,43.53q23.08-9.22,48.65,.12c-8.83-18.5-3.3-32.46,12.41-44.31Zm31.16-156.95c-5.68,6.27-11.59,12.49-18.19,17.74-6.8,5.4-7.69,11.63-5.94,19.35,1.7,7.49,2.97,15.08,4.24,22.65,.79,4.7,.7,9.35-3.57,12.64-4.62,3.56-9.82,3.25-13.98-.03-20.78-16.45-40.74-15.53-62.15-.24-9.89,7.07-18.3,.68-17.54-11.27,1.58-9.09,2.93-18.22,4.84-27.24,1.24-5.87,.02-10.12-4.69-14.2-6.98-6.04-13.54-12.61-19.8-19.41-7.61-8.27-4.62-17.22,6.4-19.62,4.87-1.06,9.95-1.99,14.89-1.81,17.34,.64,25.83-9.01,31.48-24.08,2.88-7.7,4.63-18.91,16.16-18.51,10.58,.37,13.09,10.99,14.98,18.42,5.15,20.19,20.06,23.67,37.14,24.95,3.08,.23,6.21,.26,9.2,.93,10.88,2.44,13.98,11.49,6.52,19.72Zm-31.58-.9c-20.41,1.21-30.78-9.56-37.39-27.04-4.6,20.03-17.67,26.98-36.72,27.37,15.98,11.38,20.92,25.32,13.84,44.25,16.01-12.79,31.04-12.49,47.14-.16-7.98-19.16-1.88-32.68,13.13-44.43Z"/>
</svg>