<?xml version="1.0" encoding="UTF-8"?>
<svg id="Layer_1" data-name="Layer 1" xmlns="http://www.w3.org/2000/svg" viewBox="0 0 800 800">
  <defs>
    <style>
      .cls-1 {
        fill: #020202;
      }

      .cls-2 {
        fill: none;
      }
    </style>
  </defs>
  <rect class="cls-2" width="800" height="800"/>
  <path class="cls-1" d="M350.46,144.35c66.32,0,132.63,0,198.95,0,3.62,0,7.25-.11,10.84,.21,5.72,.51,8.55,4.18,8.91,9.6,.39,5.9-2.13,10.39-8.17,11.59-3.88,.77-8,.52-12.01,.52-132.63,.02-265.27,.02-397.9,.02-8.84,0-20.2,1.54-20.42-10.78-.25-13.76,11.94-11.13,20.85-11.14,66.32-.07,132.63-.04,198.95-.04Zm435.06,521.09c-.99,25.58-20.9,46.26-46.33,46.62-56.26,.8-112.54,.65-168.8-.02-20.69-.25-39.09-15.41-43.55-35.46-2.13-9.6-6.43-10.69-14.6-10.68-145.91,.18-291.82,.14-437.74,.13-41.53,0-60.5-18.89-60.5-60.21,0-124.65,0-249.29,0-373.94,0-30.57,12.37-43.47,42.94-43.27,8.94,.06,10.53-3.04,10.29-11.01-.54-18.48-.31-36.99-.13-55.48,.21-21.09,12.45-33.71,33.46-34.54,8.43-.33,16.88-.07,25.32-.07,7.97,0,15.16,1.86,14.87,11.56-.28,9.52-7.58,11.18-15.46,11.18-7.64,0-15.28,.11-22.91-.02-9.02-.15-13.39,4.28-13.4,13.17-.02,18.9,.2,37.8-.13,56.69-.11,6.2,1.72,8.6,8.16,8.4,12.85-.39,25.72,.03,38.58-.15,11.74-.16,23.3-.27,33.43,7.29,4.14,3.1,9.38,1.55,14.11,1.56,121.79,.07,243.59,.05,365.38,.06,3.62,0,7.25-.14,10.84,.17,6.11,.54,9.51,4.19,9.78,10.21,.29,6.55-3.03,10.79-9.6,11.71-3.95,.55-8.02,.34-12.04,.34-116.17,.01-232.33,.01-348.5,.01h-11.36c6.3,8.88,10.99,15.27,15.43,21.83,2.67,3.94,6.42,4.17,10.58,4.17,129.43-.04,258.86-.11,388.3,.14,8.62,.02,8.59-4.32,8.57-10.48-.12-36.19-.02-72.38-.08-108.56-.02-14.86-1.7-16.52-16.79-16.52-133.45-.03-266.9,0-400.35-.05-4.4,0-8.87-.07-13.17-.85-6.08-1.1-8.79-5.63-8.47-11.42,.29-5.31,3.42-9.04,8.94-9.84,3.55-.52,7.2-.58,10.8-.58,134.26-.03,268.51-.04,402.77,0,27.04,0,39.03,11.95,39.09,38.92,.09,36.19,.26,72.38-.16,108.56-.1,8.36,2.21,10.89,10.73,10.86,29.76-.08,42.17,12.87,42.24,42.84,.05,20.1,.26,40.21-.13,60.31-.13,6.69,1.72,9.52,8.58,11.47,47.58,13.51,71.84,46.06,71.98,95.47,.01,5.23,.2,10.46-.04,15.68-.45,9.62-1.06,18.52,10.72,23.21,6.03,2.4,8.29,9.64,8.47,16.39,.25,9.24,.2,18.49,.11,27.74-.07,7.53-3.62,12.68-11.51,12.43-7.06-.23-10.73-4.78-10.62-12.03,.01-.8,0-1.61-.03-2.41q-.78-25.56-26.89-25.56c-59.09,0-118.18,.22-177.26-.22-9.58-.07-13.06,1.73-12.91,12.23,.62,44.62,.23,89.26,.28,133.89,.03,22.06,10.45,32.78,32.21,32.82,50.65,.1,101.29,.1,151.94,0,21.62-.04,32.46-10.96,32.6-32.7,.14-20.51,.18-41.01-.04-61.52-.09-8.18,2.9-13.65,11.48-13.51,7.99,.12,10.84,5.63,10.81,13.1-.09,23.32,.58,46.67-.32,69.95Zm-121.95-208.26c-.15,0-.29-.01-.44-.02,0-9.21-.05-18.41,.02-27.62,.03-3.98-.62-6.36-5.65-7.1-35.05-5.19-48.93,6.32-48.93,41.14,0,1.2,0,2.4,0,3.6,0,22.34,0,22.56,22.77,22.24,10.27-.15,24.22,4.63,29.81-2.1,5.26-6.35,1.95-19.81,2.42-30.14Zm37.97,25.49c-.44-11.57,.19-23.19-.35-34.76-.43-9.13-4.37-16.57-15.13-21.85,0,20.11,.16,38.08-.09,56.04-.08,5.72,1.91,7.68,7.63,7.61,5.21-.06,8.2-.74,7.96-7.04Zm-45.43-101.56c-8.44,0-16.89-.29-25.31,.05-33.2,1.36-61.91,29.12-64.03,62.38-.82,12.81,.13,25.73-.45,38.57-.39,8.52,4.93,7.27,10.16,7.49,5.76,.25,10.13,.19,9.7-7.87-.6-11.22-.52-22.52,0-33.75,1.26-26.87,21.28-46.68,48.09-47.53,14.05-.45,28.14-.49,42.19,.02,26.81,.98,46.49,21.15,47.22,48.08,.31,11.25,.43,22.52,0,33.76-.29,7.39,3.97,7.69,9.18,7.19,4.61-.44,11.24,2.56,10.97-6.51-.43-14.45,.68-29.09-1.21-43.33-3.38-25.4-17.93-43.15-41.37-53.71-14.57-6.57-29.95-4.56-45.12-4.84Zm-112.3,88.65c.02-6.84-.1-13.67,.04-20.51,.88-42.84,27.45-76.49,68.87-88.16,13.48-3.8,27.07-3.18,40.68-3.01,6.87,.09,10.08-1.18,9.9-9.1-.51-21.7-.33-43.43-.12-65.14,.1-10.65-5-15.56-15.32-15.61-10.05-.05-20.1-.02-30.15-.02-133.06,0-266.12-.22-399.17,.27-17.02,.06-29.41-4.56-38.13-19.57-5.63-9.69-13.21-18.24-19.16-27.76-4.86-7.78-11.35-10.42-20.16-10.35-28.14,.25-56.28,.01-84.42,.12-16.82,.07-20.27,3.66-20.27,20.84-.02,125.46-.04,250.92,0,376.38,0,25.3,10.44,35.43,36.18,35.43,72.36,.01,144.72,0,217.07,0,73.97,0,147.93-.19,221.9,.23,9.92,.06,12.97-2.4,12.81-12.59-.6-37.79-.22-75.59-.25-113.39,0-8.68,.23-18.95,8.57-22.42,13.3-5.53,11.1-15.57,11.13-25.65Zm131.43,137.45c-7.3,3.99-9.23,8.51-8.8,16.06,.55,9.61,.19,19.27,.1,28.9-.08,8.09-2.73,15.05-12.05,14.58-8.19-.41-11.14-6.62-11.03-14.48,.14-10.04-.49-20.11,.2-30.1,.51-7.42-2.07-11.22-8.59-14.87-16-8.94-22.51-27.06-17.31-44.58,5.07-17.06,19.76-27.8,37.86-27.66,18.07,.14,31.66,10.78,36.76,28.78,4.9,17.31-1.25,34.69-17.13,43.36Zm-3.74-33c.12-8.98-6.7-16.2-15.69-16.6-9.35-.42-17.09,6.98-17.11,16.36-.01,8.66,7.2,16.43,15.67,16.86,8.91,.46,17.01-7.4,17.13-16.63Zm-383.95,4.89c-.5,18.22-8.92,26.54-26.95,26.58-53.05,.11-106.1,.12-159.14,0-17.94-.04-26.86-8.87-27.14-26.49-.2-12.46-.18-24.93,0-37.39,.25-17.49,9.27-26.38,27.05-26.49,26.92-.15,53.85-.04,80.78-.04,26.12,0,52.24-.11,78.37,.04,18.06,.1,26.57,8.38,27.04,26.41,.33,12.45,.34,24.93,0,37.38Zm-22.39-29.65c1.2-10.16-3.2-11.7-12.13-11.6-40.98,.43-81.97,.04-122.96,.29-10.71,.07-24.64-4.69-31.28,2.1-6.63,6.78-.98,20.73-2.25,31.41-1.2,10.15,3.36,11.99,12.37,11.79,23.7-.53,47.41-.18,71.12-.18,17.28,0,34.56,.28,51.84-.1,10.72-.24,24.82,4.76,31.24-2.19,6.3-6.82,.79-20.82,2.06-31.52Z"/>
</svg>