<?xml version="1.0" encoding="UTF-8"?>
<svg id="Layer_1" data-name="Layer 1" xmlns="http://www.w3.org/2000/svg" viewBox="0 0 800 800">
  <defs>
    <style>
      .cls-1 {
        fill: #030303;
      }

      .cls-2 {
        fill: none;
      }
    </style>
  </defs>
  <rect class="cls-2" width="800" height="800"/>
  <path class="cls-1" d="M250.69,304.69c5.4-.31,8.68,1.46,11.7,4.53,13,13.2,26.12,26.29,39.29,39.32,5.98,5.92,8.1,12.48,1.6,18.84-6.44,6.31-13.04,4.24-18.98-1.75-13.04-13.16-26.19-26.22-39.3-39.3-4.31-4.3-6.77-9.07-3.78-15.13,2.13-4.32,5.47-6.9,9.46-6.51Zm289.44,2.3c-14.81,14.81-29.88,29.37-44.37,44.47-4.8,5-3.94,11.29,1.06,16.16,4.64,4.53,10.84,5.2,15.34,.91,15.44-14.7,30.4-29.92,45.28-45.19,3.3-3.38,3.55-7.93,1.25-12.38-2.28-4.39-5.83-6.46-11.39-6.32-2.07,.3-4.92,.09-7.17,2.34Zm69.6,468.96c-139.82,.07-279.64,.07-419.47,0-12.97,0-17.33-5.84-14.9-19.83,15.98-92.25,67.93-154.18,156.43-185.21,1.79-.63,3.53-1.38,6.5-2.54-70.73-47.44-73.22-131.18-31.35-180.89,45.21-53.69,122.97-58.45,174.5-12.67,45.48,40.41,64.48,135.76-18.91,194.1,40,12.12,74.41,32.72,102.75,63.01,33.48,35.78,53.03,78.2,59.74,126.61,1.65,11.91-3.13,17.43-15.29,17.44Zm-210.41-215.9c53.7,.13,97.4-43.19,97.09-96.25-.31-52.98-43.22-95.56-96.33-95.59-53.13-.03-96.06,42.44-96.48,95.44-.42,52.48,43.07,96.27,95.72,96.4Zm199.29,191.24c-13.07-93.53-100.89-166.93-199.2-166.87-97.25,.05-185.23,74.02-198.02,166.87h397.22ZM305.5,164.89c2.42,76.03-64.33,140.79-139.77,141.16-72.14,.35-141.78-58.94-141.76-140.89,.02-78.18,63.21-141.25,141.55-141.12,81.8,.13,142.39,69.58,139.98,140.86Zm-24.32,1.25c2.85-57.6-45.72-117.21-115.4-117.79-64.38-.54-117.32,52.01-117.52,116.09-.2,64.13,51.56,115.61,115.27,117.02,64.88,1.43,119.22-54.25,117.65-115.32Zm494.85-1.12c.04,81.78-69.19,141.3-141.62,141.03-75.35-.28-142.33-64.99-139.9-141-2.6-71.46,58.48-141.32,141.07-141.05,77.42,.25,140.42,63.42,140.45,141.02Zm-24.28,.55c.21-64.29-52.21-117.11-116.4-117.27-64.53-.16-116.52,51.91-116.52,116.72,0,65.26,51.1,116.23,116.49,116.19,64.17-.04,116.22-51.73,116.43-115.63ZM235.49,235.97c-12.4,12.13-30.96,12.01-44.62-.33-2.7-2.44-5.2-5.08-7.77-7.66q-18.27-18.27-36.91,.45c-7.1,7.14-13.84,14.82-24.69,16.23-13.81,1.79-25.9-4.25-32.47-16.17-6.59-11.94-5.49-25.12,3.92-35.9,6.62-7.59,13.82-14.76,21.35-21.46,5.3-4.72,4.83-7.94-.16-12.36-6.04-5.34-11.56-11.28-17.21-17.06-14.93-15.29-16.01-33.79-2.81-47.15,13.3-13.47,32-12.7,47.14,2.03,6.08,5.91,12.27,11.75,17.93,18.06,4.18,4.66,7.11,4.94,11.52,.09,7.05-7.76,14.43-15.32,22.37-22.14,10.08-8.66,22.1-10.19,33.91-4.44,11.71,5.69,18.1,15.65,17.84,30.36,.27,7.45-3.48,14.42-9.2,20.43-5.29,5.56-10.27,11.63-16.38,16.13-10.13,7.46-8.35,13.23,.44,20.13,5.68,4.46,10.59,9.97,15.53,15.29,12.98,13.98,13.01,33.03,.27,45.48Zm-18.09-28.79c-10.31-10.22-20.36-20.71-30.82-30.77-7.97-7.67-8.53-14.69-.23-22.56,9.36-8.87,18.32-18.17,27.34-27.39,4.03-4.12,10.8-8.31,4.27-14.74-6.02-5.93-10.1,.52-13.93,4.23-9.55,9.26-18.95,18.69-28.28,28.19-7.42,7.56-14.28,7.44-21.66-.28-9.75-10.2-19.92-20.01-29.95-29.94-3.59-3.55-7.49-6.89-12.34-2.04-4.87,4.88-1.41,8.75,2.11,12.32,9.93,10.04,19.74,20.19,29.94,29.95,7.73,7.4,7.75,14.27,.23,21.67-9.2,9.05-18.35,18.16-27.28,27.46-3.88,4.04-11.41,8.02-5.07,14.7,6.28,6.62,10.6-.24,14.72-4.28,8.92-8.76,17.63-17.73,26.56-26.47,9.85-9.64,14.16-9.58,24.19,.31,9.19,9.06,18.18,18.32,27.39,27.37,2.5,2.45,4.6,5.86,8.92,5.45,2.72,.16,4.76-1.18,5.93-3.42,1.94-3.69,.87-6.85-2.05-9.74Zm498.06-57.85c-24.19,24.93-48.57,49.67-73.15,74.21-15.39,15.36-32.47,15.46-47.84,.56-13.63-13.21-27.13-26.55-40.28-40.23-9.8-10.2-12.55-22.37-6.67-35.6,5.46-12.29,15.17-18.33,29.88-17.81,10.19-1.07,17.73,5.49,25.02,12.77q15.74,15.7,31.7-.33c12.25-12.3,24.4-24.71,36.77-36.89,14.12-13.9,32.07-14.57,45.23-1.96,12.71,12.19,12.72,31.5-.65,45.28Zm-14.61-23.11c0-2.72-1.44-4.39-3.76-5.66-4.9-2.69-7.57,1.02-10.28,3.72-19.36,19.37-38.7,38.76-57.83,58.35-7.44,7.61-14.31,7.82-21.72,.19-7.58-7.81-15.41-15.37-23.05-23.12-3.92-3.98-8.49-7.81-13.31-2.77-4.33,4.53-.47,8.79,3.13,12.37,12.01,11.93,24.11,23.77,35.86,35.95,5.53,5.73,9.89,6.56,15.92,.35,23.28-23.99,46.94-47.6,70.42-71.39,2.19-2.22,5.16-4.11,4.6-7.98Z"/>
</svg>