<?xml version="1.0" encoding="UTF-8"?>
<svg id="Layer_1" data-name="Layer 1" xmlns="http://www.w3.org/2000/svg" viewBox="0 0 800 800">
  <defs>
    <style>
      .cls-1 {
        fill: #010201;
      }

      .cls-2 {
        fill: none;
      }
    </style>
  </defs>
  <rect class="cls-2" width="800" height="800"/>
  <path class="cls-1" d="M575.52,246.13c15.4-27.19-5.89-58-37.11-56.48-9.58,.47-17.16,4.88-26.94,11.74,0-6.14,0-9.99,0-13.84,0-30.81,.15-61.63-.05-92.44-.19-29.11-20.65-46.73-48.78-41.34-6.29,1.21-7.16-.73-8.69-5.51-5.98-18.77-19.14-28.76-37.2-28.8-17.84-.04-31.49,9.86-37.64,28.5-1.86,5.64-3.05,6.85-9.46,5.55-22.78-4.62-42.67,8.53-46.66,30.81-1.3,7.27-3.65,7.38-9.79,6.37-26.21-4.31-45.96,12.23-46.37,38.76-.35,22.51-.09,45.03-.09,67.55,0,20.15,.08,40.3-.03,60.44-.04,7.52,1.8,13.92,10.48,14.24,9.5,.36,11.6-6.42,11.6-14.36,0-2.77,.01-5.53,.01-8.3,0-33.58,0-67.16,0-100.74,0-5.93-.23-11.86,.08-17.77,.63-11.95,7.14-18.71,17.25-18.33,9.47,.35,15.52,7.23,16.01,18.36,.16,3.55,.04,7.11,.04,10.67,.01,19.36,.01,38.71,.03,58.07,0,7.35,2.98,12.39,10.95,12.52,8.11,.13,10.83-5.27,11.29-12.35,.21-3.15,.09-6.32,.09-9.48,0-31.6-.11-63.21,.06-94.81,.07-12.89,6.49-20.35,16.6-20.24,10.06,.11,16.33,7.71,16.39,20.48,.12,25.28,.03,50.57,.04,75.85,0,9.48-.09,18.96,.05,28.44,.11,7.4,3.53,12.14,11.43,12.08,7.39-.05,10.33-4.85,10.89-11.51,.27-3.14,.15-6.32,.15-9.48,0-42.27-.03-84.54,.03-126.81,.02-14.5,6.34-22.75,16.86-22.45,10.24,.3,16.13,8.2,16.16,22.01,.06,26.07,.02,52.15,.02,78.22,0,18.96,0,37.92,.01,56.89,0,7.12,2.3,12.65,10.38,13.11,8.79,.5,11.6-5.21,12.05-12.78,.19-3.15,.06-6.32,.07-9.48,0-32-.15-64,.1-96,.09-11.44,6.31-18.17,15.78-18.55,8.99-.36,16.75,6.36,16.81,16.19,.28,48.98,.36,97.97,0,146.95-.08,11.01-6.16,15.05-17.15,13.56-24.75-3.36-48.38,8.17-60,29.27-11.11,20.18-8.86,47.03,5.42,64.64,5.01,6.18,10.66,11.97,18.8,5.71,8.07-6.21,4.37-12.65-.78-19.31-11.22-14.51-11.18-31.46-.62-44.81,10.2-12.9,26.96-17.71,42.58-10.51,10.81,4.98,16.8,1.93,22.05-7.67,8.52-15.58,17.49-30.92,26.52-46.21,6.35-10.75,14.67-13.81,23.43-9.15,9.49,5.04,11.83,14.17,5.42,25.32-27.13,47.23-53.29,95.08-82.34,141.11-13.98,22.15-22.22,44.16-19.93,69.97,.74,8.3-2.15,10.67-10.46,10.56-34.35-.46-68.71-.63-103.05,.07-10.37,.21-12.64-3.31-12.02-12.75,1.33-20.09-.91-39.92-13.45-56.44-16.98-22.37-25.1-47.1-24.11-75.05,.28-7.91-2.02-14.78-11.44-14.53-8.61,.23-10.32,6.65-10.64,14.16-1.3,30.67,5.57,58.98,24.78,83.31,13.49,17.09,12.47,36.75,12.11,56.52-.04,2.05-.6,3.89-2.91,4.53-10.05,2.79-10.04,10.68-9.89,18.92,.21,11.85,.08,23.7,.04,35.55-.01,3.5,.67,7.28-2.62,9.88-5.44,4.31-4.93,10.33-4.92,16.28,.02,72.69,0,145.38,.03,218.07,0,15.85,3,18.94,18.42,18.95,58.05,.04,116.09,.04,174.14,0,15.3,0,18.27-2.82,18.28-17.7,.06-73.48,.04-146.96-.02-220.44,0-3.51,.65-8.3-1.28-10.31-7.7-8.01-5.3-17.6-5.56-26.8-.21-7.5-.16-15.01-.01-22.52,.17-8.59,.22-17.02-10.42-19.85-2.37-.63-3.04-2.37-3.08-4.38-.34-18.59-.63-36.81,10.36-53.61,33.07-50.57,61.68-103.81,91.44-156.33Zm-233.82,237.34c15.38,0,30.76,0,46.13,0,22.48,0,44.96,.23,67.42-.13,6.99-.11,9.45,1.69,9.55,9.18,.4,30.02,.68,30.02-28.86,30.02-37.46,0-74.92-.23-112.38,.18-8.15,.09-10.73-2.02-10.69-10.47,.13-28.78-.21-28.78,28.81-28.78Zm121.13,272.5c-49.33-.28-98.66-.24-147.98-.04-6.53,.03-8.96-1.82-8.94-8.7,.22-64.75,.19-129.49,.03-194.24-.01-5.62,1.67-7.51,7.35-7.49,50.51,.17,101.02,.21,151.53-.03,7.24-.04,7.12,3.8,7.1,8.94-.11,31.98-.05,63.96-.05,95.94s-.17,63.96,.13,95.94c.07,6.97-1.66,9.74-9.17,9.69Zm312.07-272.39c10.4-18.48,.17-40.9-19.87-46.37-9.51-2.59-18.66-.48-29.15,5.4,0-26.65,.11-51.1-.03-75.55-.14-22.79-12.72-35.4-35.09-34.91-4.85,.11-7.58-.21-9.72-5.51-5.37-13.27-15.72-20.55-30.25-20.49-14,.05-24.13,6.95-29.56,19.73-2.26,5.32-5,6.48-10.57,6.28-17.48-.62-26.47,5.56-33.25,22.5-1.71,4.28-3.33,5.95-8.23,6.12-25.7,.89-35.87,11.71-35.91,37.68-.07,42.63,.54,85.28-.21,127.9-.51,28.87,5.15,54.9,21.99,79.32,8.69,12.61,14.42,29.23-1.02,43.35-1.27,1.16-1.87,3.55-1.97,5.41-.92,17.84-.86,35.47-4.66,53.39-3.6,17-.85,35.36-.75,53.13,.09,14.41,2.82,17.09,17.49,17.11,43.01,.06,86.02,.03,129.03,.01,17.33,0,20.09-2.65,20.03-19.71-.11-27.28,1.34-54.6-5.62-81.52-2.94-11.39,5.15-25.69-9.26-34.11-.66-.38-.62-2.19-.67-3.35-.56-13.54,1.03-25.96,8.61-38.35,23.68-38.66,46.41-77.93,68.64-117.45Zm-84.43,263.3c.55,7.72-3,9.11-9.75,9.07-34.27-.25-68.55-.29-102.82,.03-7.18,.07-9.35-2.06-9.49-9.37-.63-32.75-.87-32.75,31.64-32.75,9.85,0,19.7,0,29.55,0,17.33,0,34.67,.23,52-.12,6.3-.12,9.4,1.18,8.88,8.33-.59,8.23-.59,16.58,0,24.81Zm-4.43-155.68c-8.26,12.73-11.75,26.59-11.32,41.56,.18,6.22,.53,11.77-8.33,12.24-6.17,.33-8.59,5.14-8.23,10.96,.37,5.98,4.09,9.15,9.78,10.15,1.54,.27,3.17,.02,4.71,.29,4.06,.69,10.44-2.38,11.75,2.33,1.72,6.22,.89,13.31,.23,19.93-.33,3.31-4.16,2.91-6.89,2.91-31.97,.01-63.94,.06-95.92-.02-12.12-.03-6.18-9.42-7.16-14.86-1-5.57-1.11-11.03,7.79-10.48,10.62,.66,21.3,.14,31.96,.15,7.79,.01,13.33-3.05,13.42-11.49,.09-8.2-5.91-10.52-12.79-10.8-7.49-.3-15.01-.4-22.49-.07-5.87,.26-9.07-1.35-8.46-7.87,1.91-20.31-4.69-37.74-16.8-53.98-8.41-11.28-11.51-24.95-11.51-39.14,0-48.57,.04-97.14-.06-145.72-.02-7.32,.96-14.47,9.69-14.75,9.79-.31,10.46,7.39,10.39,15.05-.15,15.4,.01,30.8-.06,46.2-.04,7.97,2.15,14.82,11.31,14.86,9.1,.04,11.59-6.77,11.6-14.72,.02-24.88,.05-49.76,0-74.63-.02-7.45,.06-15.57,10.11-15.21,9.62,.35,9.84,8.3,9.8,15.8-.11,24.48,.04,48.97-.08,73.45-.04,7.83,1.31,15.02,10.68,15.28,10.09,.27,11.83-7.28,11.83-15.51,0-32.78,0-65.55,0-98.33,0-4.34-.52-8.91,2.39-12.53,2.67-3.32,6.36-4.44,10.6-3.02,5.98,2,7.09,6.79,7.09,12.25,0,31.99-.12,63.97,.09,95.96,.06,8.62-2.89,20.72,10.62,20.97,14.54,.27,11.34-12.36,11.45-21.3,.27-22.9,.15-45.81,.06-68.71-.03-7.38,1.41-14.32,10.17-14.36,9.01-.03,9.97,7.27,9.96,14.46-.02,16.98,0,33.96,0,50.94,0,15.8,.02,31.59,0,47.39-.02,16.94-.04,16.88-16.73,16.83-19.59-.06-34.33,8.72-43.06,26.01-8.8,17.43-6.46,34.45,5.14,50.13,4.66,6.3,10.63,10.63,18,5.1,7.32-5.48,4.95-11.93,.15-18.54-7.64-10.5-7.57-21.7-.72-30.68,6.88-9.03,18.05-12.6,29.67-7.47,9.95,4.39,15.5,1.31,20.26-7.24,6.51-11.72,13.45-23.21,20.13-34.85,3.59-6.25,8.28-10.03,15.37-5.68,6.51,4,5.53,9.65,2.11,15.42-22.76,38.33-43.4,77.9-67.69,115.32Zm-439.01-89.01c.27-45.8,.29-91.6,.05-137.39-.1-19.92-11.6-31.56-31.51-32.16-5.17-.16-7.64-1.54-9.52-6.36-5.31-13.62-15.69-20.37-30.29-19.95-4.4,.13-7.42-.49-9.29-4.98-9.77-23.54-43.7-25.76-55.93-.04-1.78,3.75-3.65,4.93-7.87,5.11-23.22,1.02-33.44,11.77-33.56,34.84-.11,21.27-.02,42.55-.02,64.56-3.92-.96-6.94-1.59-9.89-2.45-12.83-3.76-23.52,.19-31.73,10.01-8.4,10.06-9.62,22.03-3.25,33.26,20.44,36.01,41.31,71.79,62.59,107.31,4.86,8.1,6.68,16.39,8.49,25.37,2.1,10.47-8.68,14.84-8.93,22.68-.54,17.2-3.9,34.11-4.82,51.03-1.96,35.82-.65,71.82-.57,107.75,.03,14.34,3.01,17.26,17.48,17.28,35.91,.06,71.82,.02,107.74,.02,29.41,0,29.84-.55,29.18-29.57-.18-7.9-1.9-14.92-10.9-15.33-8.94-.41-12.25,6.06-11.94,14.2,.22,5.77-1.23,8.62-7.81,8.56-31.17-.26-62.35-.25-93.53,0-6.36,.05-8.12-2.39-8.08-8.35,.2-27.24,.2-54.48,0-81.72-.04-5.83,1.33-8.47,7.88-8.41,31.17,.29,62.35,.28,93.53,0,6.35-.06,8.27,2.23,8.02,8.25-.35,8.28-.35,16.59,.05,24.86,.4,8.39,4.73,13.7,13.65,12.14,7.7-1.34,8.41-7.78,9.2-14.52,3.38-28.81-7.18-56.65-5.56-85.31,.18-3.14-1.12-6.78-4.08-8.13-5.71-2.61-4.77-7.3-5-11.96-.53-11.09,2.43-20.86,9.18-29.83,11.25-14.96,16.92-32.13,17.03-50.78Zm-46.11,133.57c-28.36-.27-56.73-.28-85.09,0-10.62,.1-6.36-7.48-7.17-12.45-1-6.13,.72-9.32,8.02-9.02,13.77,.55,27.57,.16,41.36,.16,14.18,0,28.38,.4,42.54-.15,8.38-.33,7.64,4.83,7.23,9.94-.38,4.8,2.82,11.62-6.89,11.53Zm23.42-267.86c-.05,22.9-.02,45.79-.03,68.69,0,21.32-.1,42.64,.02,63.95,.08,14.29-3.58,27.47-12.22,38.8-9.79,12.83-14.54,27.06-13.42,43.05,.55,7.78-2.15,10.25-9.99,10.05-20.51-.5-41.04-.52-61.55,0-8.1,.21-10.37-2.76-9.8-10.29,1.22-16.07-5.1-29.51-13.44-43.09-20.22-32.93-39.04-66.71-58.47-100.12-2.93-5.03-3.96-10.05,1.89-13.23,5.67-3.08,9.58,.18,12.47,5.25,6.05,10.62,12.46,21.05,18.34,31.76,4.51,8.22,10.11,11.41,19.32,7.11,10.28-4.8,19.53-2.17,26.33,6.62,6.57,8.5,6.16,17.81-.3,26.28-5.28,6.92-7.6,13.83,.72,19.21,8.48,5.48,14.14-.78,18.45-7.26,9.76-14.67,11.04-30.28,2.77-45.95-8.55-16.18-22.76-24.54-40.75-22.89-11.65,1.06-13.53-3.56-13.45-13.12,.23-30,.09-60.01,.08-90.01,0-6.49-.28-13.9,8.86-13.49,8.08,.36,7.96,7.3,7.95,13.4,0,22.11,.04,44.21-.02,66.32-.02,8.17,1.22,15.95,11.51,15.59,9.44-.33,10.47-7.8,10.45-15.48-.08-28.03-.03-56.06-.03-84.09,0-2.37-.01-4.74,0-7.11,.05-5.86,.68-11.62,8.29-11.84,7.95-.22,8.3,5.81,8.31,11.55,.06,28.42,.03,56.85,.03,85.27,0,3.16-.14,6.33,.11,9.47,.55,7.11,3.74,12.54,11.52,12.26,7.64-.27,10.8-5.52,10.8-12.87,0-21.71,.01-43.42,.02-65.14,0-2.76,.04-5.53,.02-8.29-.03-5.72,2.89-9.21,8.48-9.19,5.92,.03,7.89,4.2,7.88,9.66-.03,20.92,0,41.85,.01,62.77,0,3.55-.12,7.11,.08,10.66,.41,7.19,3.67,12.49,11.4,12.39,7.65-.09,11.11-5.3,11.19-12.57,.16-14.61,.14-29.21,.05-43.82-.03-6.17-.13-13.09,7.93-13.24,8.18-.15,8.16,6.8,8.14,12.96ZM749.26,133.48c28.68-11.17,34.47-30.91,17.24-55.24-6.31-8.9-14.33-15.9-24.13-20.4-5.27-2.42-7.59-5.14-8.18-11.19-1.63-16.68-13.04-26.99-28.69-27.2-15.55-.21-27.85,9.87-29.75,26.24-.82,7.04-3.83,9.85-9.51,12.89-32.8,17.56-44.59,57.32-27.16,89.58,5.1,9.44,13.18,16.34,20.57,24.19-26.57,9.86-32.8,28.79-18.06,52.4,6.45,10.33,15,18.39,25.94,23.53,5.2,2.45,7.33,5.31,8.07,11.29,2.12,16.99,14.69,27.82,30.18,27.4,15.27-.41,26.66-11.08,28.44-27.77,.58-5.47,2.44-8.09,7.37-10.46,14.34-6.88,24.96-17.81,31.45-32.46,13.01-29.37,5.14-57.4-23.78-82.83Zm-22.88,96.98c-10.69,3.13-15.16,8.7-13.85,19.53,.33,2.7,.2,5.59-.42,8.23-.9,3.84-3.6,6.13-7.75,5.78-3.56-.3-5.77-2.48-6.27-6.02-.33-2.33-.52-4.76-.25-7.08,1.29-11.15-2.79-17.68-14.35-20.46-12.14-2.92-20.28-11.51-25.68-22.75-2.18-4.53-2.36-8.58,2.34-11.24,5.01-2.83,7.78,.47,10.46,4.39,12.09,17.7,33.03,23.77,52.73,15.48,12.61-5.31,19.52-16.65,18.29-30.06-1.13-12.41-10.04-22.62-23.19-24.9-8.08-1.4-16.47-.96-24.71-1.52-19.62-1.34-36.27-16.25-39.24-35.01-3.26-20.61,6.2-41.16,24.86-47.32,13.98-4.61,20.8-11.12,18.54-26.05-.81-5.35,1.76-9.87,7.64-9.58,4.97,.25,7.75,4.49,6.92,9.33-2.67,15.68,4.84,22.63,19.23,26.63,9.66,2.68,16.15,11,20.5,20.26,1.86,3.96,1.81,7.89-2.32,10.39-4.19,2.53-7.97,.9-9.98-3.05-11.53-22.56-32.1-18.38-50.89-16.19-12.84,1.5-21.61,16.13-20.63,29.38,1.03,14.08,11.58,25.12,25.57,26.7,9.37,1.06,18.82-.44,28.24,1.82,20.31,4.88,34.44,21.9,34.34,42.42-.09,18.53-11.85,35.53-30.15,40.9Zm-38.89-44.68c.95-6.46,6-3.28,9.09-3.41,5.71-.23,11.55-1.07,17.22,.66,4.02,1.12,5.9,3.76,5.01,7.85-.94,4.36-4.61,4.84-8.21,4.98-9.29,.35-19.17,1.91-23.11-10.08Zm35.75-62c-8.75,0-16.54,.05-24.34-.02-4.46-.04-7.79-2.24-8.08-6.73-.31-4.82,3.39-6.4,7.59-7.13,14.15-2.45,18.96,.02,24.82,13.88Z"/>
</svg>