<?xml version="1.0" encoding="UTF-8"?>
<svg id="Layer_1" data-name="Layer 1" xmlns="http://www.w3.org/2000/svg" viewBox="0 0 800 800">
  <defs>
    <style>
      .cls-1 {
        fill: none;
      }

      .cls-2 {
        fill: #010101;
      }
    </style>
  </defs>
  <rect class="cls-1" width="800" height="800"/>
  <path class="cls-2" d="M729.99,83.34c-.03-35.02-21.51-56.5-56.64-56.53-63.54-.06-127.08-.02-190.62-.02-35.89,0-49.81,10.26-60.82,44.68-.64,2-.15,5.4-3.8,4.76-2.63-.47-3.78-2.52-3.71-5.3,.05-1.99-.23-3.98-.44-5.97-2.24-21.78-20.74-38.09-43.25-38.13-22.42-.05-41.99,16.14-43.47,37.75-.62,9.02-3.9,11.81-12.05,13.96-101.65,26.72-169.86,115.22-170.1,220.25-.11,44.75-.02,89.5-.02,134.24,0,47.94-.32,95.89,.25,143.83,.13,10.69-2.36,17.68-12.27,22.8-25.78,13.32-47.45,30.31-49.73,62.59-.28,3.89-1.86,7.71-2.93,11.53-5.24,18.66-1.2,24.1,18.13,24.11,51.95,.03,103.9,.23,155.85-.22,8.17-.07,11.71,2.48,14.73,9.84,17.43,42.48,55.17,67.59,100.65,67.7,46.59,.11,84.73-24.58,102.08-67.25,3.32-8.16,7.29-10.28,15.53-10.23,52.35,.35,104.7,.22,157.05,.16,16.68-.02,20.93-5.5,16.86-21.36-2.57-10-5.91-19.84-7.77-29.96-2.68-14.63-9.45-25.39-23.05-32.46-9.84-5.12-18.45-12.57-28.02-18.27-5.2-3.1-6.69-6.75-6.69-12.56,.14-97.09,.19-194.18-.15-291.26-.03-8.03,2.81-9,9.61-8.88,22.37,.37,44.76,.19,67.13,.13,35.67-.1,57.64-21.9,57.67-57.24,.04-47.55,.04-95.09,0-142.64ZM376.94,750.89c-39.75,1.34-72.64-18.74-84.79-52.7h156.28c-7.71,27.57-40.54,51.66-71.49,52.7Zm231.35-122.23c13.59,7.14,21.17,17.35,24.18,32.81,1.92,9.87,1.23,12.15-9.15,12.11-84.3-.37-168.6-.21-252.9-.21-83.9,0-167.8-.11-251.7,.15-9.23,.03-13.18,.23-10.25-11.89,3.67-15.15,10.18-26.67,24.29-32.54,31.48-13.08,38.35-36.13,37.37-69.06-2.57-86.2-.93-172.53-.85-258.81,.09-91.09,53.12-165.56,139.09-195.51,10.17-3.54,20.67-5.65,31.31-7.45,13.35-2.25,16.04-7.07,12.33-19.97-2.71-9.41-1.04-17.52,6.86-23.46,7.07-5.31,14.9-5.36,22.41-.66,8.81,5.52,9.87,14.11,8.03,23.22-3.06,15.15-.73,18.85,14.56,21.44q17.15,2.9,17.15,20.41c0,65.51,0,131.02,0,196.53,0,7.2-.74,14.76,7.68,18.39,8.63,3.71,13.34-2.56,18.39-7.56,12.21-12.08,24.54-24.06,36.37-36.51,4.77-5.02,9.64-7.21,16.66-7.05,19.97,.46,39.97,.74,59.91-.09,9.76-.4,11.89,2.86,11.87,12.02-.29,97.86,.03,195.73-.44,293.59-.06,11.88,3.39,19.57,13.7,25.19,8.02,4.37,15.02,10.63,23.1,14.87Zm97.53-401.52c-.04,20.12-11.64,31.59-32.22,31.64-59.49,.13-118.97,.26-178.46-.15-10.34-.07-18.4,2.09-25.04,10.38-6.63,8.28-14.16,15.83-21.3,23.71-1.14-.88-2.27-1.76-3.41-2.63,0-69.43-.15-138.85,.1-208.28,.07-19.96,11.57-30.74,31.59-30.76,65.87-.07,131.75-.08,197.62,0,19.74,.02,31.07,11.37,31.12,31.2,.11,48.3,.11,96.59,0,144.89ZM188.89,296.02c2.15-55.83,22.49-99.68,61.31-134.96,6.4-5.81,13.33-10.5,20.68-2.59,7.86,8.45,2.23,14.93-4.57,21.11-31.78,28.85-50.02,64.36-52.28,107.59-.12,2.39-.27,4.78-.48,7.17-.74,8.55-4.08,14.98-13.93,14.03-9.41-.91-10.66-8.12-10.74-12.34Zm441.77-129.19c-16.56,.13-23.62-3.58-22.4-12.53,1.83-13.45,12.56-11.92,22.11-11.87,3.97,.02,7.96-.13,11.92,.11,7.47,.44,11.98,4.51,12.05,12.01,.07,7.45-4.25,11.73-11.76,12.24-3.95,.27-7.94,.05-11.91,.05Zm-110.65-.24c-4.36,0-8.77,.46-13.05-.11-6.29-.84-9.65-4.71-9.81-11.32-.15-6.5,2.7-11.39,8.99-11.99,9.01-.86,18.23-.9,27.24-.04,6.11,.58,9.59,5.36,9.51,11.79-.09,6.41-3.52,10.51-9.82,11.51-4.28,.68-8.69,.5-13.04,.7v-.54Zm55.57,.31c-3.17,0-6.35,.09-9.52-.02-7.69-.26-13.26-3.36-13.38-11.84-.12-8.31,5.04-12.14,12.8-12.5,6.73-.32,13.49-.33,20.22,0,7.73,.38,12.76,3.9,12.6,12.51-.16,8.73-5.57,11.55-13.21,11.84-3.17,.12-6.34,.02-9.52,.02Z"/>
</svg>