<?xml version="1.0" encoding="UTF-8"?>
<svg id="Layer_1" data-name="Layer 1" xmlns="http://www.w3.org/2000/svg" viewBox="0 0 800 800">
  <defs>
    <style>
      .cls-1 {
        fill: #020303;
      }

      .cls-2 {
        fill: none;
      }
    </style>
  </defs>
  <rect class="cls-2" width="800" height="800"/>
  <path class="cls-1" d="M316.93,96c36.58,0,73.16-.05,109.74,.02,17.85,.03,24.89,7.07,24.98,24.75,.06,10.66,.24,21.34-.06,31.99-.36,12.75-8.14,20.59-20.76,20.8-15.62,.27-31.24,.02-46.87,.09-7.55,.03-12.65-2.69-12.75-11.04-.1-8.25,5.07-11.55,12.37-11.73,12.57-.3,25.16-.38,37.72,.04,5.97,.2,7.6-1.6,7.73-7.63,.56-24.7,.8-24.69-23.8-24.69-63.25,0-126.51,.22-189.76-.24-9.3-.07-11.26,2.74-11.04,11.4,.54,21.03,.12,21.04,21.59,21.04,31.63,0,63.25,0,94.88,0,2.29,0,4.58-.12,6.86,.03,7.4,.51,12.55,3.89,12.48,11.85-.07,8.18-5.36,10.99-12.93,10.97-28.58-.06-57.16-.02-85.73-.02-12.19,0-24.39,.08-36.58-.02-14.82-.13-22.68-7.58-23.02-22.13-.26-11.04-.27-22.1,0-33.14,.35-14.65,8.08-22.25,22.92-22.31,37.34-.14,74.68-.05,112.03-.05Zm-164.65,123.24c-3.05,0-6.12-.2-9.13,.13-6.75,.74-10.43,5.3-10.41,11.47,.02,6.26,3.96,10.52,10.69,11.18,2.26,.22,4.57,.09,6.85,.09,111.94,0,223.87,0,335.81,0,2.66,0,5.4,.23,7.97-.29,6.01-1.21,9.5-5.56,9.36-11.26-.14-5.6-3.56-10.05-9.63-11.08-2.97-.5-6.07-.23-9.12-.23-55.59,0-111.17,0-166.76,0-55.21,0-110.41,0-165.62,0Zm336.38,92.22c7.73,.02,14.56-1.69,14.71-10.29,.16-8.98-6.44-12.12-14.88-11.53-1.14,.08-2.28,0-3.43,0-111.21,0-222.41,0-333.62,.02-3.42,0-6.89-.08-10.25,.45-5.26,.82-7.81,4.79-8.39,9.56-.52,4.31,1.04,8.81,5.31,10.34,3.79,1.36,8.21,1.31,12.36,1.31,55.6,.07,111.21,.05,166.81,.05,57.13,0,114.25-.07,171.38,.08Zm-84.53,70.42c2.66,0,5.33,.04,7.99-.06,6.79-.24,11.15-4.45,11.48-10.47,.37-6.67-3.85-11.3-11.14-11.9-2.27-.19-4.56-.14-6.85-.15-84.88,0-169.76,0-254.65,.01-3.04,0-6.11,0-9.1,.43-6.4,.92-9.33,5.75-9.19,11.28,.14,5.63,3.71,9.95,9.96,10.66,3.01,.34,6.08,.19,9.12,.19,41.87,0,83.74,0,125.61,0,42.25,0,84.5,0,126.75,0Zm-95.12,250.65c2.09-5.68-.09-9.69-4.22-12.95-4.53-3.58-9.4-3.14-13.47,.72-2.43,2.3-4.07,5.44-6.04,8.22-14.23,20.02-33.16,23.38-53.34,9.21-5.91-4.15-11.21-9.14-17.1-13.32-31.24-22.21-76.03-10.01-90.32,24.47-3.02,7.29-4.17,14.62,4.54,18.44,8.05,3.52,12.88-1.47,15.84-8.54,4.35-10.4,11.61-17.39,22.44-21.13,16.49-5.7,29.72,.2,41.82,10.78,13.56,11.86,28.73,19.82,41.73,19.89,26.42,.74,50.85-16.07,58.11-35.79Zm-159.76-203.32c-8.56-.14-16.19,1.5-16.43,11.16-.24,9.79,7.36,11.73,15.94,11.7,42.98-.16,85.96-.13,128.93-.02,8.52,.02,16.23-1.93,15.92-11.77-.31-9.71-8.13-11.17-16.57-11.06-21.3,.28-42.6,.09-63.9,.09-21.3,0-42.6,.23-63.9-.11ZM762.22,161.01c-27.85,64.75-55.85,129.43-83.59,194.23-3.45,8.05-8.01,13.78-17.11,9.72-8.95-3.99-6.65-11.65-3.65-18.62,25.64-59.51,51.31-119.01,77.06-178.48,2.24-5.17,4.53-9.29-3.01-12.6-6.81-2.99-9.7-1.58-12.55,5.16-15.02,35.61-30.51,71.03-45.81,106.53-52.67,122.15-105.35,244.29-157.97,366.46-3.05,7.09-7.23,13.07-13,18.34-19.67,18-39.19,36.16-58.36,54.69-8.9,8.6-18.6,11.93-30.05,7.04-11.14-4.76-15-14.28-14.98-25.88,.05-28.19,.14-56.39-.13-84.58-.06-6.41,2.33-11.81,4.72-17.35,54.53-126.28,109.06-252.57,163.68-378.82,2.16-4.99,3.32-9.91,3.29-15.39-.15-32.76,0-65.53-.1-98.3-.07-22.69-13.39-36.37-36.04-36.38-144.45-.1-288.9-.1-433.35,0-22.54,.02-35.95,13.8-35.95,36.5-.05,204.59-.04,409.19,0,613.78,0,23.64,13.33,36.43,38.32,36.51,55.26,.16,110.53,.05,165.79,.05,86.9,0,173.8-.02,260.7,.03,10.46,0,20.58-.76,28.9-8.2,8.16-7.3,11.77-16.29,11.73-27.29-.18-48.77-.08-97.53-.07-146.3,0-3.04-.44-6.25,.34-9.1,1.5-5.46,4.65-9.54,11.18-9.4,6.45,.14,9.69,3.96,10.84,9.72,.59,2.94,.3,6.07,.3,9.12,.01,47.62,.06,95.25,0,142.87-.06,38.01-23.04,60.77-61.29,60.78-142.54,.02-285.09,.02-427.63,0-38.93,0-61.78-22.7-61.78-61.48-.03-202.69-.03-405.38,0-608.06,0-39.26,23.11-62.17,62.57-62.18,141.78-.02,283.57-.02,425.35,0,40.14,0,62.76,22.75,62.81,63.07,.02,14.85,0,29.7,0,44.55,.65,.12,1.3,.23,1.94,.35,6.56-15.18,13.16-30.35,19.68-45.55,2.95-6.88,6.9-13.95,14.65-14.55,10.99-.86,13.5-8.04,16.92-16.3,10.33-24.98,30.7-35.74,54.4-29.62,22.57,5.83,36.78,30.92,30.06,53.45-1.72,5.78-4.16,11.35-6.44,16.96-1.85,4.54-5.08,9.17,2.74,11.47,1.27,.37,2.93,1.95,3.09,3.15,1.86,13.66,13.74,15.04,23.27,19.38,11.36,5.18,13.25,9.52,8.52,20.51Zm-280.79,479.65c-20.63-8.86-39.53-16.98-59.48-25.55,0,25.26-.02,48.78,.04,72.31,0,1.72-.77,3.98,1.6,4.89,2.13,.82,3.52-.73,4.88-2,17.15-16.06,34.28-32.13,52.96-49.65Zm120.92-282.61c-19.15-8.27-38.47-16.14-57.41-24.86-6.23-2.87-7.67-.33-9.76,4.53-35.34,82.09-70.75,164.15-106.39,246.11-2.71,6.24-2.14,9.21,4.44,11.89,18.27,7.44,36.5,15.05,54.31,23.51,7.45,3.54,9.5,.67,12.12-5.42,34.95-81.43,70.08-162.79,105.17-244.16,.89-2.07,1.81-4.13,2.41-5.51,.43-4.42-2.54-5.08-4.88-6.09Zm97.44-227.78c-18.41-8.11-37.02-15.77-55.25-24.26-6.59-3.07-8.8-1.3-11.41,4.79-27.33,63.75-54.86,127.41-82.58,190.99-2.65,6.09-2.18,8.91,4.44,11.57,18.32,7.34,36.44,15.22,54.4,23.4,6.32,2.88,8.96,2.21,11.89-4.64,26.92-63.09,54.29-125.99,81.52-188.95,1.05-2.43,1.98-4.9,2.99-7.43,.41-4.36-3.49-4.36-6-5.47Zm10.4-47.65c.47-14.41-7.46-24.18-18.06-25.64-13.08-1.8-22.58,6.53-28.64,26.51-3.53,11.66,8.46,8.66,13.28,12.01,5.46,3.79,12.31,5.58,18.52,8.32,2.58,1.14,5.23,2.21,6.62-1.29,3.01-7.63,7.78-14.63,8.28-19.9Z"/>
</svg>