<?xml version="1.0" encoding="UTF-8"?>
<svg id="Layer_1" data-name="Layer 1" xmlns="http://www.w3.org/2000/svg" viewBox="0 0 800 800">
  <defs>
    <style>
      .cls-1 {
        fill: none;
      }
    </style>
  </defs>
  <rect class="cls-1" width="800" height="800"/>
  <path d="M727.34,150.85c19.36-11.18,28.57-27.76,28.62-49.8,.03-17.24,.11-34.49-.02-51.73-.14-19.66-9.06-28.02-28.82-28.72-30.64-1.09-61.2,2.15-91.9,.36-29.89-1.74-59.9,1-89.89-.12-27.67-1.03-55.38,.46-83.1,.27-33.85-.23-67.77-1.51-101.58-.09-26.79,1.12-53.5-1.61-80.17-.12-25.14,1.41-50.2-.87-75.27-.1-33.57,1.04-67.11-.22-100.67-.12-2.6,0-5.21-.03-7.81,.02-18.46,.35-27.44,9.26-27.62,27.85-.18,17.57-.1,35.14-.02,52.71,.09,22.05,9.42,38.61,28.84,49.65,2.91,1.66,5.84,6.31,5.85,9.59,.32,83.29,.31,166.58,.05,249.87,0,3.24-2.13,7.76-4.73,9.51-17.33,11.64-24.15,27.86-24.09,48.29,.24,82.31,.07,164.63,.11,246.94,.02,35,20.07,54.87,55.33,54.88,94.05,.03,188.11,.01,282.16,0,94.7,0,189.41,.04,284.11-.03,32.47-.03,53.16-20.6,53.21-53.08,.12-83.62,0-167.23,.08-250.85,.02-19.33-7.28-34.53-23.33-45.74-2.84-1.99-5.39-6.66-5.4-10.1-.3-82.96-.31-165.93,.03-248.89,.01-3.58,2.94-8.68,6.02-10.45Zm-137.58-102.37c.06-2.35,4.43-6.49,6.92-6.58,15.87-.61,31.78-.19,47.67-.38,5.66-.07,7.35,2.75,7.31,7.79-.09,9.73-.03,19.46-.03,29.19-.02,8.76,.25,17.52-.08,26.27-.66,17.39-13.57,30.15-30.39,30.43-16.44,.27-30.44-11.54-31.3-28.37-1-19.41-.6-38.9-.1-58.34Zm-83.42,29.15c0-9.09,.17-18.19-.06-27.27-.15-5.89,1.5-9.04,8.22-8.89,15.26,.33,30.53,.29,45.79,.01,6.39-.11,8.51,2.43,8.42,8.66-.27,18.18,.17,36.37-.2,54.55-.35,17.1-13.76,30.2-30.47,30.52-17.18,.33-30.88-12.63-31.6-30.3-.37-9.08-.06-18.18-.06-27.27-.01,0-.02,0-.04,0Zm-83.23-29.34c.06-2.3,4.54-6.32,7.1-6.41,15.89-.6,31.82-.17,47.73-.37,5.7-.07,7.33,2.72,7.27,7.8-.03,2.43-.05,4.87-.05,7.3-.03,7.31,.02,14.61,.02,21.92,0,8.44,.18,16.89-.03,25.32-.45,17.61-12.8,30.6-29.55,31.32-16.72,.72-31.38-11.21-32.38-28.47-1.13-19.42-.61-38.95-.1-58.41Zm-73.91-6.87c14.6,.46,29.23,.43,43.83,.01,7.5-.22,9.63,2.98,9.33,9.88-.05,1.09-.08,2.19-.11,3.28-.2,7.66,.02,15.34,.02,23.01,0,8.76,.21,17.54-.05,26.29-.54,18.15-14.32,31.59-31.77,31.3-17.11-.29-30.14-13.48-30.44-31.44-.3-17.52,.14-35.06-.19-52.58-.13-6.94,1.9-9.99,9.38-9.75Zm-92.78,7.86c-.04-5.24,1.83-7.8,7.34-7.75,15.91,.13,31.83,.17,47.74-.02,5.67-.07,7.36,2.66,7.29,7.76-.12,9.74-.04,19.48-.04,29.22-.01,8.77,.23,17.54-.07,26.3-.59,17.27-13.67,30.18-30.47,30.42-16.72,.23-30.97-12.5-31.54-29.43-.63-18.81-.1-37.66-.26-56.49Zm-83.02,.24c-.11-5.75,2.21-8.12,8.09-8.03,15.24,.23,30.49,.22,45.74,0,5.64-.08,8.49,1.8,8.45,7.74-.13,18.81,.45,37.64-.29,56.42-.69,17.38-14.43,29.71-31.24,29.54-17.18-.17-30.1-13.21-30.63-31.2-.26-8.75-.04-17.51-.05-26.27,0-9.4,.13-18.81-.06-28.21Zm72.99,87.19c11,11.45,24.11,19.43,40.7,19.49,16.59,.06,30.17-6.88,41.63-19.73,27.9,26.35,55.86,26.83,83.46,.68,36.38,25.88,50.12,25.89,83.98-.3,11.03,11.35,24.15,19.27,40.72,19.37,16.65,.1,30.06-7.17,41.69-19.65,27.73,26.23,55.7,26.76,81.56,2.28,12.77,6.01,24.51,11.01,35.63,17.15,2.57,1.42,4.19,6.75,4.21,10.3,.27,49.77,.18,99.55,.18,149.32,0,29.28-.11,58.56,.08,87.84,.04,6.22-1.14,9.51-8.49,9.47-49.46-.25-98.93-.13-148.39-.17-1.89,0-3.77-.49-6.86-.92,.92-23.97-4.48-45.85-22.08-63.3-17.51-17.35-39.21-23.05-63.51-21.73-.14-.8-.29-1.6-.43-2.39,2.34-1.86,4.66-3.75,7.03-5.57,20.1-15.51,30.55-35.99,30.86-61.34,.29-23.09,.17-46.2,.03-69.29-.1-16.37-8.27-24.79-24.75-24.57-24,.32-47.99,1.65-71.99,1.93-10.32,.12-20.65-1.86-30.99-1.9-15.73-.06-23.89,8.43-24,24.31-.15,22.45-.04,44.89-.04,67.34,0,26.91,10.66,48.47,32.35,64.52,1.56,1.16,3.11,2.35,4.55,3.66,.35,.32,.23,1.17,.56,3.34-3.61,0-6.99-.05-10.37,0-42.32,.65-73.99,31.73-74.64,74.16-.14,9.25-2.55,12.11-12.01,12.01-47.18-.47-94.37-.37-141.55-.06-7.85,.05-10.72-1.95-10.69-10.29,.28-79.05,.21-158.11,.08-237.16,0-5.97,1.48-8.68,7.77-11,10.7-3.95,20.55-10.22,31.6-15.96,36.75,24.41,49.79,24.38,82.13-1.83Zm111.11,92.1c-.17-6.05,2.53-7.89,8.24-7.8,3.9,.06,7.81,.09,11.71,.11,11.71,.05,23.43-.03,35.15-.03,11.72,0,23.43,.09,35.15,.03,3.9-.02,7.81-.06,11.71-.12,5.87-.09,8.24,2.06,8.08,7.96-.29,10.73,.32,21.5-.32,32.2-1.74,29.34-25.56,51.49-54.77,51.46-28.85-.04-52.49-21.72-54.53-50.63-.78-11.01-.1-22.11-.41-33.17Zm-.02-36.28c-.11-9.57,6.03-8.12,11.72-8.08,5.3,.04,11.15-1.51,11.35,7.49,.22,9.76-6.15,7.79-12.7,7.85-4.11-.29-10.26,2.03-10.36-7.25Zm43.93-.04c.82-2.96,3.6-7.59,5.62-7.66,18.19-.59,36.42-.59,54.61,.01,2.02,.07,4.8,4.76,5.6,7.74,1.17,4.36-.79,7.41-6.19,7.29-9.1-.21-18.21-.06-27.31-.06-8.78,0-17.56-.17-26.34,.06-5.56,.14-7.16-3.15-5.99-7.39Zm26.1,170.66c-.94,7.5-7.38,11.44-14.93,11.44-7.54,0-14.01-3.89-14.97-11.39-1.24-9.74-.3-19.76-.3-29.85h30.5c0,10.05,.93,20.06-.3,29.8Zm-18.44,32.3c22.11,1.77,40.16-13.97,40.3-36.52,.06-9.29,3.11-11.45,11.77-11.21,31.83,.85,54.28,23.71,54.37,55.54,.02,7.11-1.92,9.63-9.35,9.54-31.2-.37-62.42-.15-93.63-.15-23.41,0-46.81-.12-70.22-.02-7.8,.03-15.6,.08-23.4,.17-7.36,.08-9.41-2.33-9.41-9.5-.01-31.76,22.47-54.73,54.3-55.57,8.51-.22,11.89,1.65,11.87,11.11-.05,19.9,14.56,35.1,33.4,36.6ZM90.28,105.43c-.37-9.4-.07-18.82-.07-28.24-.02,0-.04,0-.06,0,0-9.09,.26-18.19-.09-27.26-.25-6.4,2.34-8.57,8.58-8.45,15.26,.28,30.52,.22,45.78,.03,5.2-.06,7.93,1.61,7.89,7.15-.13,19.47,.53,38.98-.37,58.41-.77,16.59-15.15,28.62-31.52,28.12-16.49-.5-29.48-13.13-30.13-29.76ZM729.04,469.07c.02,81.66,.03,163.31,0,244.97,0,24.82-10.17,35-34.95,35-94.04,.03-188.09,.01-282.13,.01-93.07,0-186.14,0-279.21,0-26.99,0-36.7-9.56-36.71-36.18-.02-81.33-.02-162.66,0-243.99,0-24.69,10.3-35,34.94-35.01,187.76-.02,375.53-.02,563.29,0,24.51,0,34.75,10.38,34.76,35.2Zm-24.61-333.88c-16.72,.38-30.49-12.16-31.49-29.33-.54-9.38-.1-18.82-.1-28.23-.03,0-.06,0-.09,0,0-9.41,.13-18.83-.05-28.24-.11-5.81,2.32-8.01,8.17-7.91,15.26,.26,30.52,.3,45.78-.01,6.51-.13,8.4,2.58,8.31,8.71-.26,18.17,.15,36.36-.19,54.53-.32,17.19-13.48,30.1-30.35,30.49ZM412.6,478.18c65.08,0,130.16,.12,195.23-.15,8.45-.03,14.73,2.29,20.65,8.45,16.22,16.89,33.29,32.98,49.37,49.99,3.6,3.81,6.34,10.05,6.47,15.24,.65,26.33,.64,52.7,.01,79.03-.12,5.23-2.65,11.58-6.23,15.35-17.01,17.94-34.54,35.4-52.44,52.44-3.59,3.42-9.59,6.07-14.48,6.08-132.43,.32-264.87,.33-397.3,0-4.89-.01-10.89-2.69-14.48-6.11-17.9-17.05-35.4-34.54-52.46-52.42-3.41-3.58-5.99-9.51-6.1-14.42-.59-26.66-.63-53.35,0-80.01,.12-5.19,2.88-11.42,6.48-15.23,16.32-17.24,33.56-33.61,50.07-50.68,5.44-5.62,11.25-7.74,18.98-7.71,65.4,.22,130.81,.13,196.21,.12Zm-.65,205.67c63.13,0,126.27,.11,189.4-.22,4.99-.03,11.21-1.79,14.72-5.05,14.78-13.71,28.94-28.11,42.84-42.72,2.77-2.92,4.72-7.84,4.81-11.89,.47-21.46,.5-42.95-.01-64.41-.1-4.35-2.12-9.63-5.07-12.75-13.86-14.65-28.16-28.9-42.77-42.8-2.93-2.79-7.89-4.87-11.91-4.87-127.57-.25-255.14-.26-382.71,.02-4.28,0-9.5,2.42-12.66,5.42-14.4,13.65-28.45,27.69-42.07,42.12-2.97,3.14-5.07,8.38-5.18,12.71-.53,21.13-.61,42.3,.04,63.43,.15,4.88,2.69,10.68,6.04,14.28,12.62,13.57,26.28,26.18,39.03,39.63,5.19,5.48,10.72,7.25,18.06,7.22,62.48-.23,124.97-.13,187.45-.13Zm.53-31.59c-57.59,0-115.17,0-172.76,0-3.25,0-7.24,1.03-9.59-.47-3.9-2.49-9.31-6.64-9.3-10.08,0-3.42,5.51-7.41,9.37-10.02,2.03-1.37,5.7-.38,8.62-.38,115.82,0,231.65,0,347.47,0,13.12,0,18.66,3.14,18.63,10.48-.03,7.33-5.6,10.47-18.7,10.47-57.91,0-115.82,0-173.73,0Zm.07-50.3c-57.59,0-115.17,0-172.76,0-2.93,0-5.87,.11-8.78-.13-6.33-.52-10.74-3.79-10.74-10.34,0-6.5,4.34-9.86,10.67-10.45,2.58-.24,5.2-.14,7.8-.15,115.82,0,231.65,0,347.47,0,13.04,0,18.67,3.19,18.7,10.52,.03,7.39-5.48,10.53-18.63,10.53-57.91,.01-115.82,0-173.74,0Zm-1.04-50.45c-57.9,0-115.81,0-173.71-.02-3.24,0-7.25,.86-9.55-.69-3.35-2.26-7.54-6.35-7.54-9.65,0-3.29,4.19-7.49,7.6-9.55,2.68-1.62,6.96-.74,10.53-.74,115.81-.02,231.61,0,347.42,0,13.33,0,18.65,2.98,18.64,10.35,0,7.33-5.35,10.28-18.71,10.28-58.23,0-116.46,0-174.68,0Z"/>
</svg>