<?xml version="1.0" encoding="UTF-8"?>
<svg id="Layer_1" data-name="Layer 1" xmlns="http://www.w3.org/2000/svg" viewBox="0 0 800 800">
  <defs>
    <style>
      .cls-1 {
        fill: #040404;
      }

      .cls-2 {
        fill: none;
      }
    </style>
  </defs>
  <rect class="cls-2" width="800" height="800"/>
  <path class="cls-1" d="M386.81,334.76c6.22,0,12.46,.34,18.64-.09,6.65-.47,11.33-4.4,11.06-11.13-.27-6.49-4.5-10.5-11.58-10.5-4.27,0-8.57,.1-12.82-.25-14.02-1.14-26.5-11.96-28.85-24.81-2.9-15.83,2.75-30.68,16.34-36.34,8.76-3.65,10.87-8.66,9.54-16.69-1.55-9.35,3.89-9.78,10.98-9.66,6.77,.12,13.04-.12,11.2,9.45-2.31,12.03,4.4,13.09,13.88,12.65,12.33-.57,17.06,6.88,13.14,18.8-1.41,4.3-4.61,3.5-7.51,3.53-11.27,.12-22.54,.1-33.81,.06-7.18-.02-12.59,2.69-12.56,10.46,.03,7.84,5.64,10.18,12.73,10.33,5.41,.11,10.95,.12,16.2,1.25,13.65,2.93,22.91,13.23,24.44,26.28,1.89,16.09-3.74,29.33-17.44,34.66-8.7,3.38-10.07,8.51-8.97,15.88,1.48,9.94-4.23,10.18-11.76,10.35-7.82,.18-12.12-1.79-10.45-10.23,2.48-12.53-5.07-13.06-14.07-12.19-7.99,.77-14.21,.79-13.59-10.9,.46-8.66,2.5-12.06,11.27-10.91,4.59,.6,9.31,.11,13.98,.11,0-.04,0-.08,0-.12Zm252.26,65.39c-4.66,0-9.39,.5-13.98-.11-9.22-1.22-11.53,2.29-11.89,11.5-.47,11.87,6.08,11.4,13.83,10.71,9.14-.82,16.45-.03,13.97,12.35-1.7,8.5,2.67,10.4,10.44,10.15,7.33-.24,13.61-.17,11.82-10.2-1.52-8.5,1.78-13.05,9.96-16.6,12.86-5.59,18.5-18.72,16.69-34.05-1.47-12.44-10.43-23-23.25-26.16-5.57-1.37-11.52-1.5-17.31-1.59-7.08-.12-12.8-2.24-12.97-10.06-.19-8.62,5.98-10.78,13.45-10.73,10.49,.07,21.01-.38,31.47,.15,7.25,.36,8.89-2.27,9.3-9.29,.63-10.48-2.28-15.13-13.34-13.42-9.06,1.4-16.4,.16-14.02-12.23,1.97-10.24-4.9-9.61-11.96-9.98-7.99-.42-11.31,1.89-10.48,10.29,.57,5.81,1.59,11.5-6.61,15.08-16.43,7.18-22.51,21.01-18.9,38.12,2.99,14.15,16.09,23.96,32.8,24.54,3.49,.12,7,.02,10.49,.23,6.07,.37,9.34,4.32,9.68,9.78,.38,6.11-2.92,10.65-9.4,11.13-6.56,.49-13.2,.11-19.8,.11,0,.1,0,.19,0,.29Zm-316.89,43.84c-8.95-.2-9.93,3.7-9.93,11.06,0,7.34,.91,11.14,9.88,11.07,51.97-.41,103.95-.4,155.93,0,8.9,.07,9.95-3.66,9.92-11.04-.03-7.29-.87-11.29-9.87-11.09-25.98,.57-51.97,.2-77.96,.2-25.99,0-51.98,.37-77.96-.2Zm156.49,87.57c9.83,.23,9.02-5.11,9.24-11.68,.23-6.96-.97-10.42-9.32-10.36-52.35,.37-104.7,.36-157.05,0-8.43-.06-9.4,3.57-9.24,10.43,.16,6.67-.35,11.82,9.33,11.6,25.97-.61,51.96-.21,77.94-.21,26.37,0,52.75-.41,79.1,.21Zm-.58,65.68c9.11,.21,9.9-3.91,9.84-11.17-.05-7.01-.25-11.43-9.59-11.35-52.07,.42-104.14,.41-156.21,0-8.98-.07-10.05,3.69-9.86,11.07,.17,6.91,.15,11.67,9.61,11.45,26.02-.6,52.07-.21,78.1-.21s52.08-.38,78.1,.21Zm219.94-65.8c8.25,.31,8.86-3.98,8.23-10.06-.53-5.16,2.76-12.04-7.47-11.92-31.47,.37-62.96,.39-94.43-.01-10.01-.13-7.35,6.39-7.73,11.75-.43,5.95-.22,10.52,8.15,10.23,15.53-.55,31.08-.16,46.63-.16,15.54,0,31.1-.41,46.63,.17Zm-374.08,108.41c-8.84,0-12.05,1.99-11.95,11.54,.1,9.23,2.65,11.86,11.85,11.75,8.88-.11,13.47-1.94,11.18-11.63,2.29-9.57-2.11-11.67-11.08-11.66Zm55.21,12.66c-.56-7.62-.02-13.62-10.76-12.58-7.27,.7-14-.68-12.53,10.51,.91,6.96-1.24,14.98,10.19,12.18,7.91,1.06,13.9,.78,13.1-10.11Zm240.9-65.86c-.44-8.25-1.21-12.92-11.18-12.05-7.36,.64-13.57-.42-12.6,10.62,.69,7.92,.66,14.14,10.97,11.7,8.08,1.21,13.37,.36,12.81-10.27Zm30.62,10.73c8.06-.46,12.74-.73,12.49-11.16-.23-9.4-3.01-11.63-11.96-11.67-8.77-.04-12.48,2.25-10.38,11.03-1.42,7.94,.11,12.35,9.86,11.8Zm-196.04,131.48c9.33-.05,11.42-2.85,11.6-11.8,.19-9.62-3.27-11.12-11.91-11.46-9.98-.4-10.91,4.23-9.67,11.84-1.57,8,.58,11.48,9.98,11.43Zm319.36-78.7c.02,10.34-2.55,12.88-12.83,12.81-65.29-.5-130.59-.07-195.88-.47-9.16-.06-12.13,2.27-11.63,11.57,.79,14.72-.05,29.52,.32,44.27,.18,7.08-1.2,10.64-9.53,10.29-15.91-.66-31.89-.74-47.79,.01-9.82,.47-9.16-5.02-9.32-11.64-.17-7.1,.26-12.13,9.71-11.21,8.47,.82,17.1-.15,25.63,.28,6.53,.33,8.76-1.86,8.62-8.58-.41-19.03-.14-38.07-.14-57.1,0-105.27,.07-210.54-.14-315.81-.02-8.18,.66-12.52,10.93-12.28,9.85,.22,12.15,3.23,12.12,12.67-.32,101-.01,202-.47,303-.05,10.56,2.89,12.64,12.88,12.56,57.91-.5,115.82-.41,173.73-.07,8.8,.05,11.92-1.83,11.89-11.44-.35-123.14-.32-246.29-.04-369.43,.02-8.95-1.99-11.96-11.5-11.89-58.68,.45-117.38,.44-176.06,0-9.11-.07-11.61,2.8-10.74,11.24,.63,6.15-.65,12.54,.29,18.61,1.89,12.29-4.11,14.18-14.51,13.53-6.51-.41-8.58-2.07-8.51-8.7,.33-29.91-.18-59.83,.35-89.73,.15-8.6-1.96-11.14-10.88-11.1-80.06,.37-160.13,.38-240.19-.02-9.03-.05-10.71,2.63-10.7,11.04,.25,167.43,.27,334.86-.05,502.28-.02,9.59,2.97,11.38,11.76,11.3,43.14-.42,86.28,.1,129.42-.42,9.4-.11,11.7,2.67,11.59,11.7-.1,8.41-1.88,11.3-10.94,11.22-51.3-.45-102.61-.45-153.91,0-9.04,.08-11.23-2.76-10.83-11.25,.67-13.95-.47-28,.4-41.93,.62-10-1.91-13.14-12.58-13.05-65.29,.56-130.59,.09-195.88,.49-9.11,.06-11.59-2.2-11.54-11.44,.38-83.52,.22-167.04,.22-250.56s.17-167.82-.23-251.72c-.04-9.42,2.7-11.42,11.65-11.36,64.13,.38,128.26,.26,192.39,.16,18.28-.03,15.55,2.45,15.74-16.29,.14-13.59,.28-27.2-.09-40.79-.17-6.3,1.44-8.9,8.36-8.88,96.78,.19,193.55,.18,290.33,.01,6.74-.01,8.73,2.35,8.59,8.82-.35,15.53,.45,31.1-.33,46.6-.46,9.11,2.81,10.8,11.23,10.76,65.29-.34,130.59,.1,195.88-.47,11.06-.1,13.23,3.25,13.21,13.61-.32,166.26-.33,332.52,.03,498.79ZM247.02,260.09c.06-9.36-2.03-12.57-12-12.4-36.51,.62-73.04-.21-109.54,.53-10.48,.21-9.4-5.08-9.85-11.97-.53-8,1.72-10.54,10.13-10.43,37.29,.49,74.59,.05,111.88,.35,6.99,.06,9.57-1.75,9.33-9.09-.52-15.9-.39-31.84-.05-47.75,.13-6.17-1.12-8.97-8.18-8.95-60.6,.24-121.2,.19-181.81,.05-5.71-.01-8.42,1.23-8.27,7.7,.39,16.69,.36,33.39,0,50.08-.13,6.26,2.2,8.13,8.14,7.9,9.31-.36,18.69,.46,27.95-.25,8.66-.66,10.16,3.06,10.23,10.77,.07,8.16-1.38,12.38-10.76,11.45-8.08-.79-16.35,.38-24.44-.31-8.52-.73-11.24,1.79-11.22,10.8,.31,123.86,.29,247.72,.03,371.58-.02,8.29,2.49,10.33,10.47,10.29,59.05-.31,118.1-.37,177.14,.05,9.01,.07,10.83-2.68,10.78-11.16-.36-61.73-.2-123.47-.2-185.21,0-61.35-.19-122.7,.21-184.04Zm284.33-109.27c-.71-15.9-.52-31.86-.06-47.77,.2-6.82-2.24-8.53-8.68-8.52-81.63,.17-163.26,.2-244.89-.04-7.25-.02-8.18,2.98-8.06,9,.31,15.53,.57,31.1-.09,46.61-.35,8.17,2.07,10.34,10.25,10.25,40.03-.44,80.07-.2,120.11-.2,40.43,0,80.85-.14,121.28,.13,7.12,.05,10.51-1.12,10.14-9.45Zm209.96,9.53c-29.51,.41-59.03,.16-88.55,.16-29.91,0-59.82,.19-89.72-.15-6.84-.08-9.64,1.31-9.36,8.86,.59,15.89,.5,31.84,.03,47.74-.21,7.14,2.07,9.23,9.22,9.2,59.81-.26,119.63-.29,179.44,.02,8.09,.04,9.77-3.06,9.56-10.28-.43-15.13-.62-30.3,.06-45.41,.39-8.57-2.87-10.26-10.68-10.16ZM135.08,400.02c-4.28,0-8.61,.44-12.82-.09-8.9-1.11-11.84,1.82-11.99,11.32-.16,10.16,3.96,12,12.31,10.93,10.22-1.31,17.8,.07,15.13,13.57-2.07,10.45,5.81,8.58,11.8,8.69,5.85,.11,12.62,1.22,10.78-8.41-1.87-9.8,1.99-14.98,11.3-19.18,10.18-4.58,14.54-14.62,15.07-25.88,.98-21.02-12.85-34.53-35.94-34.93-7.84-.14-17.31,.99-17.49-10.08-.19-12.05,9.87-10.63,17.99-10.67,9.33-.05,18.66-.18,27.98,.05,5.52,.14,8.4-1.02,8.58-7.62,.4-14.69,.58-15.46-14.12-14.71-10.01,.51-15.6-1.55-13.37-12.88,1.82-9.22-3.64-9.82-10.81-9.7-7.16,.12-13.65-.29-11.88,9.99,1.42,8.23-1.29,13.11-9.67,16.83-13.31,5.92-19.49,20.95-16.62,35.22,2.75,13.66,14.94,24.47,29.48,25.84,4.63,.44,9.33,.06,13.98,.41,6.33,.47,10.07,3.93,10.13,10.45,.06,6.57-3.77,10.15-10.02,10.56-6.58,.43-13.2,.1-19.81,.1,0,.07,0,.14,0,.2Zm59.51,131.44c9.55,.45,9.33-4.72,9.45-11.52,.11-6.83-.74-10.66-9.23-10.53-30.61,.46-61.24,.56-91.85-.05-9.49-.19-8.56,5.02-8.48,10.95,.08,5.73-1.43,11.62,8.27,11.16,15.47-.74,31-.2,46.5-.2,15.12,0,30.26-.52,45.34,.19Zm-33.85,54.58c.03-9.62-3.16-11.66-11.98-11.5-7.99,.14-12.06,1.2-11.64,10.7,.37,8.36,1.12,14.09,11.39,11.65,8.96,1.84,12.2-1.11,12.22-10.85Zm-44.46-1.01c.76-9.52-3.75-9.9-11.4-10.51-10.71-.85-10.23,4.79-10.66,12.35-.51,9.1,3.08,11.75,11.37,10.01,10.78,2.55,10.08-4.34,10.69-11.84ZM82.42,180.89c-8.26,.19-11.78,1.67-11.09,10.78,.56,7.42-.3,13.21,10.56,12.51,8.41-.55,13.66-1.47,11.3-11.4,2.05-9.06-1.31-12.1-10.77-11.89Zm208.25-55.09c.59,7.28-.71,13.65,10.47,12.7,7.94-.67,13.04-.69,12.41-11.11-.5-8.32-1.23-13.9-11.28-11.59-8.1-1.51-12.37,.53-11.6,10Zm54.43,12.71c7.53-.66,12.52-.63,11.64-10.44-.65-7.25,.71-13.75-10.43-12.76-7.37,.66-13.61,.19-11.04,10.11-.75,7.55-1.58,14.09,9.83,13.09Zm241.42,65.73c8.99-.25,12.16-2.43,11.84-11.76-.27-7.91-1.12-12.23-10.65-11.6-7.78,.51-14.45,.21-11.76,10.91-1.64,8.59,.42,12.74,10.57,12.45Z"/>
</svg>