<?xml version="1.0" encoding="UTF-8"?>
<svg id="Layer_1" data-name="Layer 1" xmlns="http://www.w3.org/2000/svg" viewBox="0 0 800 800">
  <defs>
    <style>
      .cls-1 {
        fill: #020202;
      }

      .cls-2 {
        fill: none;
      }
    </style>
  </defs>
  <rect class="cls-2" width="800" height="800"/>
  <path class="cls-1" d="M357.7,729.95c-84.9,0-169.81-.48-254.7,.35-19.98,.2-37.48-2.17-51.42-17.67-10.61-11.8-15.75-25.51-15.75-41.31,.02-147.75-.03-295.5,.04-443.25,.02-35.24,25.4-60.8,60.85-60.95,57.99-.25,115.98-.07,173.97-.07,40.94,0,81.87,.02,122.81-.02,5.4,0,10.83-.17,14.32,4.93,4.58,6.68,.67,15.97-7.63,17.62-3.66,.73-7.55,.37-11.33,.37-95.89,.01-191.79,0-287.68,.02-29.57,0-42.57,13.17-42.58,43.05,0,14.4,.49,28.82-.19,43.18-.38,8.03,2.08,9.9,9.97,9.87,94-.29,188-.19,282-.17,3.78,0,7.67-.3,11.33,.46,6.33,1.31,9.97,5.57,9.55,12.17-.4,6.29-3.67,10.76-10.33,11.59-3.36,.42-6.81,.15-10.22,.15-93.24,0-186.48,.13-279.72-.2-9.3-.03-12.72,1.22-12.68,11.95,.49,114.41,.29,228.82,.31,343.23,0,27.12,13.35,40.57,40.26,40.58,174.35,.02,348.71,.02,523.06,0,26.63,0,40.64-13.72,40.7-40.46,.14-70.47,.05-140.93,.06-211.4,0-3.78,.05-7.58,.3-11.35,.42-6.19,3.78-9.82,10.03-10.16,6.12-.34,10.18,2.77,11.59,8.67,.78,3.26,.99,6.72,1,10.09,.05,71.22,.15,142.45,0,213.67-.09,40.52-24.59,64.96-65.22,65.03-87.56,.14-175.11,.04-262.67,.04Zm-228.59-156.82c-3.41,0-6.83-.05-10.22,.26-6.26,.57-9.48,4.66-10.04,10.44-.59,6.14,3.02,10.04,8.75,11.56,2.86,.76,5.99,.72,9,.72,156.1,.03,312.19,.03,468.29,.02,4.15,0,8.37,.44,12.17-1.85,4.6-2.77,7.65-6.68,6.3-12.16-1.24-5.02-4.37-8.78-10.29-8.83-3.79-.03-7.57-.16-11.36-.16-76.91,0-153.82,0-230.74,0-77.29,0-154.58,0-231.87,0Zm.98,74.97c-3.78,0-7.6-.06-11.34,.38-6.12,.72-9.51,4.68-9.93,10.58-.44,6.2,3.26,9.95,9.06,11.26,3.27,.74,6.74,.76,10.12,.76,155.3,.03,310.61,.03,465.91,.04,9.02,0,19.31-.06,19.33-11.93,.02-12.57-10.9-11.08-19.51-11.09-77.27-.03-154.55-.02-231.82-.02-77.27,0-154.55,0-231.82,.01Zm467.04-127.11c8.42,.03,16.01-2,16.22-11.63,.22-9.97-7.43-11.5-15.86-11.48-56.41,.13-112.81,.13-169.22,0-8.8-.02-16.94,1.41-16.78,11.94,.15,9.88,8.15,11.21,16.43,11.18,28.01-.13,56.03-.05,84.04-.05,28.39,0,56.79-.07,85.18,.04ZM112.12,227.86c-6.06,.51-9.59,4.4-10.17,10.28-.61,6.16,2.83,10.34,8.68,11.4,10.03,1.81,20.23,1.87,30.26-.06,5.95-1.15,9.07-5.52,8.5-11.56-.55-5.85-3.88-9.77-10.15-10.12-4.13-.23-8.29-.04-12.43-.03-4.9,.01-9.83-.32-14.69,.1Zm125.81-.19c-4.53,0-9.08-.24-13.59,.06-6.6,.43-10.48,4.45-11.01,10.78-.51,6.13,3.33,10.19,9.1,11.18,9.69,1.67,19.58,1.67,29.25,.03,6.19-1.05,10.1-5.42,9.25-12.16-.74-5.89-4.38-9.51-10.55-9.81-4.14-.2-8.3-.04-12.46-.04,0-.01,0-.02,0-.04Zm-56.54-.41c-4.9,.24-9.87,.09-14.69,.83-5.62,.85-8.36,4.91-8.62,10.38-.26,5.51,2.02,9.84,7.75,10.92,10.44,1.96,21.03,2.16,31.43-.12,6.24-1.37,8.09-6.27,7.43-12.2-.64-5.73-4.09-8.85-9.68-9.26-4.51-.33-9.07-.07-13.6-.07,0-.16,0-.32-.01-.48Zm254.44,218.2c6.36-1.07,10.45-5.07,10.38-11.4-.07-6.26-3.98-10.36-10.54-11.11-2.6-.3-5.25-.17-7.87-.25-8.77-.26-16.66,1.93-16.35,12.29,.3,9.96,8.51,10.96,19.86,10.74-.71,.04,1.95,.15,4.52-.28Zm327.95-178.02c-.4,23.49-6.64,30.87-29.87,33.79-4.87,.61-9.67,1.68-14.5,2.56-13.1,2.38-18.99,17.5-11.05,28.55,4.42,6.14,9.41,11.91,13.49,18.26,9.55,14.85,6.37,31.29-7.71,42.1-30.61,23.49-34.85,23.44-65.44-.8-11.51-9.12-25.63-4.16-28.79,10.3-1.61,7.36-2.52,14.86-4,22.25-2.9,14.59-11.9,23.33-26.63,25.28-9.01,1.19-18.11,1.31-27.13-.56-12.37-2.57-21.65-11.95-23.74-24.25-1.14-6.7-2.08-13.44-3.39-20.1-3.31-16.77-16.58-21.8-30.19-11.54-.3,.23-.55,.52-.85,.75-30.34,23.2-39.75,22.39-66-5.61-11.12-11.87-12.42-26.69-3.36-40.36,2.72-4.1,5.83-7.93,8.77-11.87,12.51-16.75,7.69-29.27-12.67-32.9-.75-.13-1.5-.23-2.24-.38-37.24-7.68-42.38-14.48-40.06-52.94,.91-15.05,11.07-26.31,25.82-28.61,5.61-.88,11.22-1.71,16.81-2.68,20.02-3.48,24.92-15.98,12.73-32.38-2.94-3.95-5.87-7.9-8.74-11.89-1.32-1.83-2.67-3.67-3.72-5.66-7.82-14.83-1.8-30.36,18.74-48.54,11.69-10.35,25.68-11.17,38.39-2.06,4.3,3.09,8.1,6.92,12.56,9.75,5.22,3.31,8.55,10.86,17.39,6.42,8.78-4.41,16.77-7.85,16.13-20.13-.34-6.57,1.85-13.47,3.86-19.92,3.64-11.69,11.74-19.54,23.77-21.91,10.02-1.97,20.44-2.07,30.48,.11,15.11,3.28,22.58,14.12,25.29,34.86,.68,5.22,1.29,10.5,2.53,15.6,1.98,8.14,16.66,13.92,23.72,9.48,3.19-2.01,6.15-4.41,9.18-6.67,28.29-21.17,50.96-16.3,68.57,14.72,2.7,4.76,3.58,9.92,3.29,15.85,1.19,13.16-8.68,21.54-15.62,31.19-10.46,14.56-5.31,28.32,12.67,30.89,44.45,6.35,42.13,14.09,41.53,49.06Zm-38.03-20.93c-4.48-.2-8.99-2.42-13.37-2.11-27.39,1.94-45.49-47.16-28.57-64.43,5.25-5.36,9.14-12.05,13.78-18.02,2.62-3.36,3.16-6.21,.42-10.1-11.46-16.32-16.43-17.27-31.98-5.31-1.5,1.15-3.06,2.25-4.43,3.55-12.88,12.32-26.74,12.66-42.74,5.69-14.67-6.4-23.26-15.86-24.61-31.96-.57-6.74-2.39-13.37-3.32-20.1-.61-4.44-2.79-6.52-7.22-7.22-17.47-2.79-20.96-.49-23.87,16.52-.45,2.6-.87,5.26-.87,7.89,.01,20.42-13.65,28.69-30.27,34.73-12.95,4.7-24.4,2.79-34.95-6-4.35-3.63-9.55-6.33-13.53-10.29-6.81-6.79-11.68-5.2-17.67,1.39-12.83,14.1-14.72,10.18-1.83,27.17,3.43,4.51,6.73,9.13,9.85,13.86,5.39,8.16,5.62,17.12,2.95,26.12-5.83,19.68-16.66,33.69-39.43,34.07-4.86,.08-9.68,1.59-14.55,2.26-3.42,.47-5.24,2.08-6.08,5.57-4.17,17.33,.42,24.61,17.83,27.7,2.23,.4,4.52,.48,6.77,.74,31.45,3.68,47.26,39.19,28.84,64.83-2.87,3.99-5.44,8.31-8.88,11.75-8.58,8.57-7.32,14.99,1.24,23.58,8.32,8.35,14.28,8.91,22.46,1.01,4.31-4.16,9.48-7.54,14.58-10.76,7.15-4.51,15.38-8.81,23.5-5.51,26.74,10.86,34.82,11.24,39.1,43.14,.4,2.99,1.65,5.96,1.52,8.9-.52,11.41,6.14,13.33,13.87,12.2,15.27,.04,15.31,.05,17.95-13.59,1.08-5.56,2.04-11.15,2.84-16.75,3.58-25.11,37.58-41.03,59.09-27.38,7.33,4.65,14.05,10.26,21.04,15.45,2.74,2.03,5.74,4.93,9.11,2.42,6.35-4.73,13.13-9.82,16.29-16.98,2.6-5.89-4.46-9.64-7.4-14.21-3.06-4.76-6.62-9.22-10.03-13.75-7.32-9.71-6.99-19.93-3.52-31.15,6.5-20.99,20.81-29.58,42.08-31.13,17.07-1.25,16.25-2.51,17.19-18.96,.61-10.55-3.45-14.38-13.2-14.82Zm-374.9,233.85c-.65,22.54-15.7,36.02-38.34,36.11-53.4,.22-106.8,.24-160.2-.01-22.91-.11-37.85-14.58-38.25-37.52-.55-31.41-.51-62.84-.03-94.25,.37-24.16,15.42-38.19,39.71-38.24,26.13-.06,52.26-.01,78.4-.01,26.51,0,53.02-.05,79.53,.01,23.34,.05,38.5,13.09,39.19,36.27,.96,32.52,.94,65.12,0,97.64Zm-24.02-94.56c-.05-12.18-4.31-16.41-16.25-16.42-52.27-.06-104.54-.06-156.81,0-11.43,.01-15.49,4.1-15.53,15.72-.11,30.29-.09,60.57-.01,90.86,.03,12.75,3.29,15.97,16.15,16.01,26.14,.08,52.27,.02,78.41,.02s52.27,.07,78.41-.03c12.28-.04,15.62-3.28,15.66-15.31,.1-30.29,.12-60.57,0-90.86Zm326.21-125.91c.42,42.42-33.19,76.45-75.69,76.64-41.55,.19-75.57-33.18-76.6-75.13-1.02-41.45,33.6-76.79,75.67-77.26,42.32-.48,76.2,33.01,76.62,75.75Zm-23.68,.95c.13-28.72-24.15-53.11-52.62-52.86-28.43,.26-51.76,23.8-51.84,52.33-.09,28.63,23.12,51.89,51.89,51.98,28.59,.1,52.44-23.25,52.57-51.46Z"/>
</svg>