<?xml version="1.0" encoding="UTF-8"?>
<svg id="Layer_1" data-name="Layer 1" xmlns="http://www.w3.org/2000/svg" viewBox="0 0 800 800">
  <defs>
    <style>
      .cls-1 {
        fill: none;
      }
    </style>
  </defs>
  <rect class="cls-1" width="800" height="800"/>
  <path d="M699.76,120.21c-.01-24.01-9.31-33.34-33.26-33.34-116.57-.04-233.15-.04-349.72,0-25.54,0-34.26,8.89-34.29,34.82-.05,45.24,0,90.49-.05,135.73,0,4.68-.46,9.35-.73,14.66-6.5,0-11.37,0-16.23,0-57.47,0-114.95-.18-172.42,.08-35.6,.16-65.49,24.34-69.56,59.54-3.08,26.56-.49,53.73-2.16,80.52-1.96,31.44,19.13,53.46,50.98,45.88,.58-.14,1.35,.53,2.83,1.16,0,4.13,0,8.57,0,13,0,47.69,.12,95.38-.05,143.07-.07,19.03,6.18,34.54,23.73,43.51,17.15,8.76,32.36,3.72,45.44-8.15,7.9,4.15,13.98,8.67,20.81,10.68,25.02,7.37,49.61-12.17,50.1-40.28,.64-36.67,.25-73.37,.27-110.05,.03-50.13-.11-100.27,.28-150.4,.03-4.38,3.3-12.42,5.36-12.52,20.08-.95,40.22-.57,59.66-.57,.93,2.66,1.41,3.4,1.42,4.16,.13,19.56,.2,39.12,.3,58.68,.13,25.45,9.28,34.77,34.61,34.78,116.17,.05,232.33,.05,348.5,0,24.65-.01,34.16-9.47,34.17-33.93,.05-97.01,.05-194.02,0-291.03ZM193.35,615.35c0,3.24,.52,7.46-1.22,9.52-4.88,5.78-10.06,13.46-16.54,15.24-8.79,2.42-14.8-5.13-17.07-13.8-1.22-4.65-1.72-9.61-1.74-14.44-.15-32.6,.05-65.21-.17-97.81-.06-8.46,2.88-20.05-11.08-20.02-14.29,.03-11.9,11.74-11.94,20.8-.15,31.79-.05,63.58-.06,95.37,0,3.67,.14,7.35-.17,11-1,11.67-8.66,19.91-17.94,19.55-9.2-.36-17.34-8.94-17.51-20.22-.4-26.49-.13-52.98-.13-79.47h-.12c0-25.27,.3-50.54-.17-75.8-.16-8.54,2.57-11.35,11.15-11.19,24.44,.47,48.91,.43,73.36,.02,8.19-.14,11.65,2.04,11.6,10.87-.32,50.13-.15,100.26-.22,150.39Zm40.37-291.64c-32.89,.03-40.77,8.02-40.8,41.38-.01,17.92-.36,35.85,.14,53.75,.25,8.78-2.2,12.28-11.64,12.09-27.21-.56-54.43-.2-83.52-.2,0-23.88,0-45.8,0-67.72,0-3.66,1.27-8.19-.41-10.81-3.1-4.84-7.45-11.26-12.17-12.12-7.34-1.33-11.27,5.1-11.3,12.67-.09,19.55,0,39.1-.16,58.64-.03,4.44,.8,10.05-1.49,13.05-3.68,4.83-9.52,10.69-14.65,10.88-4.02,.15-11.84-7.51-11.96-11.87-.83-30.08-1.48-60.3,.61-90.29,1.52-21.74,22.3-37.98,45.54-38.12,66.38-.39,132.76-.17,199.14-.14,9.19,0,16.28,3.24,16.56,13.7,.3,10.95-6.41,15.02-16.46,15.03-19.14,.02-38.28,.04-57.42,.06Zm431.77,99.94c-116.11-.23-232.22-.25-348.32,.02-10.37,.02-13.52-3.98-13.26-13.75,.48-17.91,.33-35.85,.03-53.77-.11-6.68,1.52-10.8,8.01-14.48,1.79-1.01,3.42-2.09,4.91-3.22,14.37-10.95,15.33-27.23,12-44.7-6.64-6.14-13.51-12.06-19.76-18.58-2.44-2.54-4.81-6.49-4.83-9.82-.31-48.48-.08-96.96-.33-145.44-.05-9.25,3.86-11.7,12.55-11.69,116.51,.2,233.03,.24,349.54-.05,10.08-.02,12.46,4.07,12.44,13.07-.17,96.55-.18,193.11,0,289.66,.02,9.48-3.47,12.77-12.98,12.75Zm-263.56,244.47c-1.49-41.12-34.45-75.52-74.74-78.1-42.76-2.73-79.95,25.92-87.17,67.17-3.86,22.02,2.32,36.08,23.46,43.51,18.11,6.36,37.57,8.88,58.04,13.46,19.69-4.79,40.02-8.41,59.38-14.91,13.45-4.52,21.59-15.69,21.03-31.13Zm-31.85,11.73c-16.1,5.05-32.82,8.15-49.2,11.95-16.73-3.72-32.57-6.9-48.2-10.85-10.07-2.55-12.66-9.97-11.06-19.77,4.83-29.6,31.5-50.25,63.35-48.76,28.86,1.35,53.16,25.01,54.08,54.1,.14,4.51-4.84,12.04-8.97,13.34Zm220.68-16.3c-3.85-39.24-35.87-70.95-74.24-73.51-41.66-2.79-77.36,23.4-86.43,63.41-5.96,26.3,1.7,41.48,27.72,49.44,16.51,5.05,33.98,6.97,54.46,10.96,18.09-4.52,38.95-7.97,58.45-15.14,16.52-6.07,21.68-18.5,20.05-35.17Zm-30.96,16.52c-33.67,12.88-67.4,12.99-100.99-.33-6.91-2.74-9.56-7.9-8.52-15.56,4.12-30.21,28.94-51.96,59.6-51.88,29.92,.08,54.34,21.49,58.95,51.32,1.26,8.15-1.66,13.63-9.04,16.45Zm219.99-16.55c-3.53-38.33-35.21-70.36-73.27-73.44-40.86-3.3-77.79,22.75-87.11,61.45-6.68,27.72,1.08,43.35,28.28,51.67,16.16,4.94,33.28,6.73,53.58,10.62,17.95-4.45,38.75-8.11,58.45-14.97,15.28-5.32,21.62-18.52,20.08-35.33Zm-32.34,17.24c-32.66,11.83-65.28,11.93-97.89-.18-8.12-3.01-10.6-8.58-9.72-17.22,2.93-28.69,28.44-51.1,58.94-51.05,30.35,.04,56.27,22.99,58.72,51.4,.74,8.59-1.92,14.11-10.05,17.06ZM145.95,130.21c-35.68-.16-63.77,27.58-63.76,62.95,.02,35.09,28.87,63.77,63.75,63.38,34.79-.39,62.13-28.27,62.15-63.38,.03-35.44-26.98-62.79-62.15-62.95Zm-1.25,103.61c-23.11-.38-40.47-18.49-40-41.72,.47-23.2,18.2-39.82,42.06-39.44,22.39,.36,39.72,18.34,39.44,40.92-.28,23.11-18.34,40.62-41.51,40.24Zm176.08,254.02c-25.66-.24-47.6,21.72-47.47,47.5,.13,25.35,21.19,46.5,46.73,46.91,25.99,.42,46.81-20.67,46.77-47.38-.04-26.06-20.33-46.78-46.03-47.03Zm-.01,71.84c-13.75,.09-24.85-10.93-24.86-24.68,0-13.16,10.51-24.06,23.75-24.61,13.62-.57,25.03,10.33,25.27,24.15,.24,14.05-10.33,25.05-24.16,25.14Zm189.55-71.82c-25.46-.61-47.88,21.4-47.94,47.07-.05,25.39,20.77,46.62,46.38,47.31,25.49,.68,47.82-21.14,48.05-46.95,.22-24.96-21.2-46.82-46.5-47.43Zm-.59,71.82c-13.67,.08-24.91-11.11-24.86-24.76,.05-13.55,11.57-24.8,25.15-24.56,13.08,.24,23.99,11.13,24.26,24.24,.29,13.6-10.87,25-24.55,25.08Zm188.57-71.84c-25.5,.34-46.45,21.47-46.54,46.96-.09,26.25,21.18,47.67,47.14,47.47,25.55-.2,46.45-21.21,46.61-46.85,.17-26.09-21.5-47.92-47.21-47.58Zm.16,71.95c-13.51-.12-25.12-11.88-24.84-25.15,.28-12.85,11.49-23.96,24.52-24.28,13.48-.33,25.11,11.02,25.15,24.56,.04,13.7-11.24,25-24.83,24.87ZM408.6,164.53q0,39.39-39.39,39.39c-38.91,0-39.64-.72-39.64-39.42,0-39.73,.22-39.95,40.28-39.95q38.75,0,38.75,39.97Zm-56.53,17.21c10.25,0,19.11,.45,27.88-.29,2.45-.21,6.4-3.79,6.59-6.08,.76-9.13,.31-18.36,.31-27.92h-34.78v34.29Zm171.21-9.67c22.82,0,45.65,.04,68.47-.03,7.54-.02,14.5,1.08,14.64,10.53,.14,9.29-6.51,11.12-14.19,11.12-46.46-.01-92.92-.03-139.38,.02-7.9,0-14.38-2.5-14.17-11.33,.22-9.12,7.34-10.39,14.94-10.35,23.23,.12,46.46,.04,69.69,.04Zm-1.77,224.98c-22.42,0-44.85-.14-67.27,.07-8.24,.08-15.62-1.64-15.6-11.13,.02-9.84,8.04-10.76,15.91-10.75,45.25,.05,90.51,0,135.76,.03,7.59,0,15.83,.14,16.02,10.46,.2,10.95-8.07,11.39-16.33,11.36-22.83-.1-45.66-.03-68.49-.04Zm2.06-122.79c23.2,0,46.4,.03,69.6-.02,7.22-.02,13.41,1.41,13.24,10.35-.16,8.65-6.19,10.47-13.44,10.47-46.81-.01-93.61-.05-140.42,.04-7.99,.02-14.22-2.41-13.95-11.34,.27-8.72,7.1-9.56,14.14-9.54,23.61,.09,47.21,.03,70.82,.04Zm-35.32-139.02c12.58,0,25.16,.04,37.73-.01,7.09-.03,11.92,2.49,11.98,10.38,.06,7.77-4.78,10.96-11.69,11.01-25.15,.18-50.31,.2-75.46,0-7.5-.06-13.66-4.3-11.72-11.84,1.03-4,7.99-8.61,12.69-9.11,12.03-1.29,24.3-.43,36.47-.43Zm1.2,203.08c12.18,0,24.37-.04,36.55,.03,7,.04,13.2,3.06,11.46,10.48-1.03,4.41-7.12,10.68-11.15,10.84-25.14,1-50.36,1.01-75.51,.02-4.27-.17-11.03-6.29-11.81-10.55-1.44-7.85,5.21-10.84,12.67-10.83,12.59,.02,25.18,0,37.77,.01Zm-2.18-80.29c-11.82,0-23.63-.11-35.45,.04-7.65,.1-14.07-3.11-12.8-10.8,.68-4.07,7.69-9.9,12.04-10.07,24.81-.98,49.69-.62,74.54-.41,6.46,.05,12.42,1.82,12.39,10.2-.04,8.55-5.26,11.1-12.83,11.06-12.63-.07-25.26-.02-37.89-.02Zm-118.41,70.03c-6.1,.01-12.2-.14-18.29,.04-13.93,.41-20.74,7.21-20.95,21.17-.19,12.6-.27,25.21,.04,37.8,.3,12.47,7.24,19.3,19.82,19.86,6.9,.31,13.82,.09,20.73,.09q38.39,0,38.39-38.96,0-40.03-39.74-40.02Zm.8,54.83c-15.33-1.01-15.7-.57-15.72-15.95q-.02-15.39,17.55-15.4c10.99-2.73,13.9,3.09,13.92,15.31,.02,12.13-3.06,16.88-15.75,16.04Zm-40.81-89.18c.12,.07,.24,.14,.36,.21,0,.05,0,.1,0,.16,0,0-.37-.39-.36-.37Zm79.54-47.93c-.42-12.73-7.14-19.34-19.95-19.73-12.63-.38-25.28-.38-37.91,0-13.76,.4-20.7,7.73-20.93,21.59-.26,15.43-.28,30.86-.4,46.29,7.05,4.11,13.75,10.33,21.25,11.54,12.32,1.98,25.21,1.02,37.82,.41,13.64-.66,19.83-7.29,20.18-20.95,.34-13.04,.36-26.1-.06-39.13Zm-22.94,36.78h-33.14v-33.84h33.14v33.84Z"/>
</svg>