<?xml version="1.0" encoding="UTF-8"?>
<svg id="Layer_1" data-name="Layer 1" xmlns="http://www.w3.org/2000/svg" viewBox="0 0 800 800">
  <defs>
    <style>
      .cls-1 {
        fill: none;
      }

      .cls-2 {
        fill: #010101;
      }
    </style>
  </defs>
  <rect class="cls-1" width="800" height="800"/>
  <path class="cls-2" d="M631.05,701.33c-18.03-31.15-35.86-62.41-54.24-93.35-3.98-6.69-4.24-11.51,.05-18.34,28.45-45.3,36.98-95.07,27.19-146.98-18.48-98.06-103.38-167.36-207.13-167.74-4.77,.21-13.89-.06-22.81,1.13-149.19,19.92-228.2,184.64-150.22,313.44,4.13,6.82,4.32,11.59,.31,18.34-18.38,30.93-36.25,62.18-54.3,93.31-3.24,5.59-6.83,10.85-2.45,17.81,4.68,7.44,11.59,6.7,18.34,5.69,13.56-2.02,27.08-4.35,40.51-7.1,11.73-2.4,21.16-1.57,28.18,10.34,5.39,9.16,13.1,16.99,20.05,25.17,11.1,13.07,18.91,12.31,27.67-2.65,11.91-20.33,23.85-40.65,35.34-61.21,3.34-5.98,5.82-8.43,13.76-6.36,32.54,8.5,65.53,8.5,98.09,.04,7.77-2.02,10.46,.02,13.87,6.14,11.03,19.84,22.65,39.34,34.01,59,10.63,18.4,17.78,18.95,31.49,2.26,7.64-9.3,15.43-18.49,22.7-28.07,3.75-4.95,7.26-7.05,13.98-5.68,16.36,3.35,32.93,5.75,49.47,8.11,6.74,.97,13.68,1.81,18.47-5.5,4.53-6.91,.92-12.2-2.32-17.8Zm-317.02-23.14c-8.27,13.51-16.31,27.18-23.8,41.13-3.56,6.64-6.02,5.34-9.7,.51-4.95-6.5-10.76-12.4-15.17-19.23-7.13-11.06-16.32-13.34-28.78-10.68-9.94,2.13-20.02,5.03-32.4,4.07,14.17-24.64,27.86-48.42,42.14-73.25,19.96,20.42,40.77,36.81,65.32,47.97,5.23,2.38,5.22,4.84,2.38,9.47Zm84.95-15.18c-99.51-.27-179.96-82.69-179.5-183.91,.45-98.91,81.7-178.45,181.96-178.14,100.95,.32,180.44,80.91,180.04,182.53-.39,99.36-82.15,179.78-182.5,179.51Zm162.3,26.4c-10.34-1.75-18.2,.27-24.51,9.42-6.33,9.16-13.93,17.44-22,27.38-10.78-18.56-21.05-36.22-31.57-54.32,27.01-12.28,50.22-29,71.31-51.34,14.36,25.04,27.95,48.74,42.02,73.27-12.93,1.26-24.01-2.5-35.24-4.4Zm202.66-471.08c-14.76-2.66-29.67-4.59-44.56-6.37-6.15-.73-9.69-3.02-12.29-9.05-5.76-13.35-12.81-26.13-18.99-39.3-2.57-5.48-5.87-9.4-12.26-9.76-7.21-.41-11,4.21-13.74,9.82-6.39,13.07-12.7,26.19-18.68,39.45-2.31,5.13-5.18,7.73-11.22,8.36-15.34,1.62-30.67,3.7-45.8,6.64-13.8,2.68-16.82,13.19-7.01,23.24,10.52,10.76,21.4,21.18,32.42,31.44,4.51,4.2,6.1,7.88,4.5,14.51-3.72,15.37-5.89,31.12-8.74,46.96-.09,10.45,9.43,16.55,19.75,11.58,12.72-6.12,25.25-12.73,37.34-20.01,7.36-4.43,13.28-5.12,20.92-.35,11.59,7.25,24,13.18,36.04,19.7,5.2,2.82,10.37,4.09,15.71,.29,5.28-3.75,6.13-8.82,4.99-14.81-2.48-13.03-4.33-26.21-7.27-39.13-2-8.79-.94-15.3,6.51-21.5,10.56-8.78,20.34-18.56,29.9-28.45,9.73-10.05,6.29-20.78-7.52-23.27Zm-51.31,92.38c-24.89-19.43-48.8-22.54-74.24,.37,12.1-30.64,4.49-53.25-23.2-70.85,33.3,2.94,52.12-11.63,58.8-45.87,5.44,10.92,9.55,17.58,12.17,24.78,4.34,11.97,11.9,18.01,24.95,17.95,7.18-.04,14.37,1.81,21.55,2.81,1.05,.72,2.1,1.45,3.16,2.17-28.67,15.59-35.29,38.14-23.18,68.64ZM501.12,109.68c-2.53-7.77-9.77-8.91-16.69-9.84-13.61-1.83-27.21-3.9-40.88-5.11-5.49-.49-8.27-2.45-10.51-7.41-5.98-13.25-12.71-26.16-18.9-39.32-2.9-6.18-6.17-11.22-14.09-11.03-7.28,.17-10.36,4.86-13.07,10.58-5.85,12.37-12.24,24.5-17.78,37.01-2.87,6.48-6.1,10.03-14.03,10.43-13.68,.7-27.27,3.15-40.88,5.02-6.16,.84-12.13,2.79-14.39,9.24-2.42,6.93,.81,12.16,6.08,16.92,9.26,8.37,17.39,18.08,27.17,25.73,8.99,7.03,9.49,15,7.34,24.77-2.76,12.54-5.01,25.19-7.12,35.97-.85,15.88,7.8,21.96,20.34,15.87,8.85-4.3,18.19-8.2,25.87-14.15,14.74-11.42,28.05-10.1,42.38,.44,6.47,4.76,14.3,7.66,21.48,11.48,6.05,3.23,11.78,7.34,19.05,2.48,7.95-5.31,5.54-13.08,4.59-19.93-1.58-11.43-4.24-22.72-6.73-34.01-1.86-8.46-1.17-15.36,6.35-21.55,9.61-7.9,17.94-17.36,27.19-25.73,5.48-4.96,9.68-10.29,7.21-17.86Zm-63.24,84.04c-25.35-20.42-48.97-21.53-74.42,.05,12.67-30.79,4.56-53.23-23.31-70.48,33.36,2.97,52.17-12.26,59.34-44.82q20.11,38.07,62.47,45.49c-27.91,16.61-38.33,38.44-24.08,69.76Zm-211.68,33.42c-2.2-5.88-6.57-8.37-12.73-9.13-14.46-1.78-28.83-4.3-43.3-5.97-6.62-.76-10.39-3.27-13.13-9.74-5.65-13.36-12.49-26.23-18.88-39.27-2.6-5.3-6.19-9.39-12.74-9.18-6.32,.2-9.84,3.79-12.45,9.4-6.31,13.58-13.41,26.8-19.58,40.43-2.22,4.9-4.81,7.06-10.27,7.69-15.32,1.75-30.65,3.74-45.78,6.66-14.51,2.79-17.57,13.52-7.18,24.04,9.36,9.48,18.79,18.99,29.06,27.44,7.4,6.09,8.81,12.75,6.98,21.43-2.92,13.81-5.38,27.72-7.6,39.31-.62,14.81,7.7,20.99,19.01,15.6,13.11-6.25,25.97-13.16,38.41-20.65,7.19-4.32,12.85-3.91,19.84,.28,12.1,7.24,24.8,13.48,37.2,20.23,5.44,2.96,10.7,3.17,15.52-.98,4.25-3.66,5.37-8.29,4.28-13.94-2.69-13.87-4.14-28.03-7.73-41.64-1.94-7.35-1.07-11.8,4.48-16.78,10.86-9.76,21.12-20.2,31.61-30.39,4.2-4.07,7.34-8.55,4.99-14.83Zm-63.3,83.88c-24.76-19.5-48.26-23.3-71.98,.9-.46-1.09-.92-2.18-1.37-3.26,1.23-8.95,1.29-18.27,4-26.74,3.04-9.53-.42-15.6-6.74-21.51-6.54-6.11-13.01-12.28-23.32-22.01,35.02,4.31,54.41-9.33,61.55-41.84,9.6,29.33,25.23,48.31,60.21,43.24-27.01,18.18-35.37,40.69-22.35,71.22Zm237.87,43.47c-70.39,.22-126.44,56.14-127.52,126.25-1.09,70.89,58.77,128.37,125.57,128.12,71.81-.27,128.41-55.36,128.63-126.15,2.13-67.78-55.33-128.45-126.68-128.22Zm-1.56,228.3c-56.15-.23-100.01-45.36-99.73-102.61,.27-55.49,45.39-99.68,101.54-99.45,56.55,.24,100.62,44.96,100.4,101.89-.22,56.36-45.15,100.4-102.21,100.17Zm63.22-127.47c.12,5.12-2.64,8.41-5.68,11.47-23.02,23.12-45.93,46.36-69.21,69.22-8.73,8.58-16.68,7.3-23.09-3.3-7.96-13.17-15.2-26.79-23.11-39.99-4.99-8.32-3.34-15.02,4.64-19.49,7.99-4.48,13.81-.35,17.98,6.74,3.47,5.9,7.35,11.63,10.16,17.84,3.65,8.06,6.68,9.04,13.26,2.09,16.54-17.45,33.86-34.17,50.88-51.16,4.58-4.57,9.81-7.18,16.21-4.06,4.49,2.19,7.06,6.06,7.95,10.63Z"/>
</svg>