<?xml version="1.0" encoding="UTF-8"?>
<svg id="Layer_1" data-name="Layer 1" xmlns="http://www.w3.org/2000/svg" viewBox="0 0 800 800">
  <defs>
    <style>
      .cls-1 {
        fill: #010201;
      }

      .cls-2 {
        fill: none;
      }
    </style>
  </defs>
  <rect class="cls-2" width="800" height="800"/>
  <path class="cls-1" d="M735.78,375.19c-8.22-1.26-6.6-5.97-6.61-10.69-.05-80.43,.02-160.86-.15-241.29-.01-6.34,1.04-9.15,8.27-10.82,20.02-4.63,26.84-28.55,13.19-43.44-6.01-6.56-13.6-8.32-22.21-8.3-54.25,.13-108.5-.03-162.75,.19-7.3,.03-11.47-.45-13.17-9.58-2.84-15.26-15.75-25.09-30.94-25.45-17.94-.43-35.91-.46-53.85,.04-14.37,.4-28.61,10.78-30.32,24.7-1.3,10.64-6.36,10.17-13.78,10.16-54.64-.12-109.28-.15-163.92,.03-14.99,.05-25.6,9.17-27.05,22.19-1.58,14.25,5.66,27,19.1,29.27,8.97,1.51,9.01,5.76,8.99,12.55-.18,46.85-.4,93.71,.15,140.56,.12,9.98-2.93,12.13-12.4,12.05-56.59-.44-113.18-.32-169.77-.17-23.83,.06-37.71,14.11-37.83,37.9-.13,25.38-.14,50.76,0,76.14,.14,23.69,14.17,38.11,38.01,37.49,9.99-.26,11.17,3.48,11.09,11.94-.38,38.65-.24,77.31-.14,115.96,.07,28.85,18.62,47.45,47.57,47.8,11.71,.14,23.42,.03,35.13,.02,35.36-.02,52.3-16.95,52.32-52.44,.04-65.59,.29-131.19-.26-196.78-.09-10.91,2.96-13.62,13.5-13.26,23.17,.79,23,.23,22.68,23.73-.08,5.95-1.01,8.6-7.93,9.6-12.35,1.78-20.2,12.45-20.37,24.85-.23,16.7,10.66,26.75,29.7,26.78,63.62,.1,127.23,.01,190.85,.1,3.96,0,8.24-1.09,13.07,1.73-11.06,9.57-21.33,18.48-31.64,27.36-14.78,12.73-29.61,25.41-44.36,38.18-5.14,4.45-6.82,9.91-2.07,15.36,4.6,5.26,10.29,4.84,15.67,.7,2.47-1.9,4.77-4.02,7.14-6.06,25.43-21.89,51.01-43.61,76.19-65.8,5.79-5.1,9.7-5.85,15.55-.17,8.38,8.15,17.65,15.37,26.53,23,18.64,16.02,37.28,32.05,55.92,48.08,5.39,4.64,11.34,6.31,16.53,.47,5.19-5.84,3-11.52-2.49-16.24-4.15-3.56-8.27-7.15-12.41-10.71-20.66-17.78-41.31-35.55-61.97-53.33l.78-2.64c4.15,0,8.31,0,12.46,0,64.01,0,128.02,.08,192.02-.08,15.56-.04,26.12-9.37,27.42-23.15,1.36-14.49-6.61-26.27-21.45-28.54ZM461,50.25c2.28-2.32,5.13-3.4,8.43-3.39,16.75,.02,33.51,.02,50.26-.03,3.27,0,6.21,.79,8.5,3.15,2.18,2.25,4.61,4.84,3.94,8.09-.94,4.57-5.09,2.44-7.78,2.52-9.73,.26-19.48,.1-29.22,.1-10.13,0-20.26,.09-30.39-.06-2.48-.04-5.9,1.32-7.07-2.19-1.11-3.36,1.11-5.94,3.32-8.19Zm-207.34,36.27c.25-7.01,7.12-4.45,11.24-4.47,59.71-.16,119.42-.11,179.13-.11,17.17,0,34.34,0,51.51,0,75.71,0,151.42,0,227.13,0,3.12,0,6.25-.02,9.35,.22,2.67,.21,4.15,1.84,4.21,4.6,.05,2.73-1.34,4.61-3.93,4.97-3.45,.48-6.98,.62-10.47,.62-151.03,.03-302.06,.02-453.09,.02-1.17,0-2.36,.14-3.51-.03-4.59-.64-11.85,1.92-11.58-5.84Zm27.9,271.34c-2.29-12.43,1.94-17.12,15.24-16.02,12.2,1.01,22.04-5.69,26.64-17.24,2.55-6.4,6.86-8.74,12.54-10.56,21.47-6.88,42.92-13.86,64.37-20.82,2.58-.84,5.19-1.63,7.72-2.6,6.44-2.48,9.56-7.28,7.12-13.81-2.38-6.37-7.47-8.25-14.26-5.97-21.74,7.3-43.57,14.32-65.34,21.52-6.47,2.14-11.51,3.48-16.46-4.32-5.83-9.18-16.33-11.64-26.95-10.81-7.72,.6-10.87-1.31-10.79-10,.43-48,.44-96,0-144-.08-8.86,3.3-10.03,10.9-10.02,135.36,.19,270.73,.19,406.09,0,7.47-.01,9.91,1.71,9.88,9.66-.31,80.78-.36,161.56,.04,242.34,.05,9.3-3.92,9.61-11.09,9.59-67.49-.2-134.97-.12-202.46-.12s-134.2-.22-201.29,.24c-9.94,.07-13.42-2.92-11.9-12.4,.24-1.52,.27-3.16,0-4.67Zm-58.02-36.96c-18.2,0-20.34,2.07-20.35,19.87-.03,35.51,0,71.03-.01,106.54,0,36.3,.16,72.59-.07,108.89-.12,18.79-8.37,26.49-26.19,26.94-7.89,.2-9.83-2.52-9.77-10.05,.32-40.98,.08-81.96,.22-122.93,.03-7.91-.14-16.26-10.39-15.93-9.77,.31-10.42,8.57-10.41,16.5,.1,40.59-.26,81.18,.27,121.76,.12,9.31-3.14,11.19-11.46,10.6-16.13-1.14-24.26-9.43-24.28-26.64-.08-66.35-.03-132.69-.04-199.04,0-3.12,0-6.24-.03-9.37-.05-6.83-3.28-11.73-10.18-11.82-7.39-.1-11.13,4.82-11.16,12.18-.07,15.61,.29,31.23-.23,46.83-.16,4.59,4.5,12.36-6.48,12.56-13.31,.25-20.31-3.15-21.08-12.9-.65-8.15-.19-16.38-.19-24.58,0-17.95-.06-35.91,.02-53.86,.05-13.02,4.56-18.25,17.11-18.28,71.39-.17,142.78-.08,214.18-.08,7.86,0,12.5,3.05,12.39,11.78-.11,8.87-4.89,11.18-12.81,11.1-23.02-.22-46.03-.08-69.05-.07Zm507.44,84.96c-2.72,.19-5.45,.17-8.18,.17-151.72,0-303.44,0-455.15,0-1.17,0-2.36,.15-3.51-.03-4.17-.65-10.76,1.99-10.59-5.44,.17-7.31,6.74-5.03,10.85-5.04,77.22-.14,154.45-.1,231.67-.1,74.88,0,149.77,0,224.65,0,3.51,0,7.03-.07,10.52,.22,3.01,.25,5.1,1.75,5,5.23-.1,3.46-2.24,4.77-5.26,4.98Zm13.76,353.87c-1.1-17.7-5.59-34.48-14.12-50.17-13.81-25.38-34.82-42.51-61.3-53.37,22.94-35.1,22.68-62.93-.38-84.68-20.34-19.18-51.54-21-74.04-4.16-11.38,8.52-18.64,19.95-21.54,33.78-4.37,20.84,2.5,38.78,17.41,55.16-7.6,1.56-12.43,8.85-18.52,4.8-11.19-7.45-23.14-13.41-35.72-19.22,3.27-3.9,5.87-6.79,8.25-9.86,18.98-24.46,17.56-58.69-3.33-81.61-20.49-22.48-54.06-27.16-80.01-11.16-32.47,20.03-40.53,64.39-15.75,93.48,7.99,9.38,5.68,11.46-4.03,14.59-5.81,1.87-11.64,5.02-16.27,8.98-9.18,7.84-17.17,6.01-25.6-1.17,1.74-2.17,3.49-4.23,5.11-6.39,18.53-24.67,16.15-57.32-5.64-77.5-21.89-20.28-55.48-20.56-77.65-.63-22.47,20.2-25.49,53.4-6.01,78.03,6.19,7.83,2.13,8.72-3.84,11.65-41.35,20.25-63.59,53.68-67.04,99.47-.89,11.81,3.09,15.77,14.73,15.77,156.85,.07,313.71,.07,470.56,0,11.62,0,15.46-4.18,14.74-15.8Zm-114.79-182.71c19.46,.32,35.66,16.46,35.88,35.75,.23,19.71-16.29,36.21-36.3,36.25-20.17,.04-36.39-16.08-36.29-36.07,.1-19.84,16.87-36.26,36.7-35.93Zm-134.54-26.12c23.17,.29,42.08,19.79,41.71,43-.37,23.22-19.75,41.92-43.04,41.55-23.35-.37-41.73-19.34-41.56-42.92,.17-23.15,19.51-41.93,42.89-41.64Zm-135.18,26.1c19.38,.1,35.73,16.11,36.2,35.45,.47,19.6-16.07,36.41-35.99,36.56-20.25,.15-36.54-15.78-36.57-35.76-.03-19.9,16.47-36.35,36.36-36.25Zm6.41,170.07c-1.02,6.33-3.44,7.43-8.95,7.32-13.65-.29-27.3-.09-40.96-.09-12.87,0-25.81-.8-38.6,.24-11.56,.94-11.77-4.18-9.69-12.9,10.62-44.57,57.21-76.67,102.47-70.41,8.51,1.18,20.06,.86,23.85,7.01,4.1,6.66-6.75,12.97-10.63,19.63-8.97,15.41-14.71,31.85-17.49,49.22Zm226.32,7.32c-33.11-.22-66.22-.1-99.33-.1-31.55,0-63.11-.37-94.65,.22-10.09,.19-12.14-1.85-10.01-12.23,10.1-49.43,56.55-86.81,108-85.76,51.24,1.04,95.92,39.76,103.95,89.09,1.39,8.51-1.35,8.82-7.96,8.78Zm119.88,.1c-13.6-.79-27.27-.2-40.92-.2-13.25,0-26.51-.18-39.76,.09-5.33,.11-8.61-.68-9.53-7.02-3.43-23.57-12.16-45.01-27.47-63.46-3.93-4.73-1.75-6.24,2.75-8.05,49.77-20.02,112.84,14.59,123.52,67.72,1.53,7.61,.8,11.48-8.6,10.93ZM157.78,145.19c-33.52-.23-61.24,27.31-61.18,60.78,.06,33.59,27.67,60.98,61.24,60.74,32.89-.23,60.1-27.72,60.13-60.76,.03-32.98-27.28-60.54-60.19-60.77Zm-.68,100.65c-21.15-.05-39.19-18.23-39.33-39.63-.14-21.72,17.18-39.35,38.95-39.65,21.52-.3,39.57,17.09,40.18,38.71,.6,21.26-18.39,40.62-39.8,40.57Zm380.74,43.88c-1.8-3-4.08-5.77-5.23-8.96-1.57-4.34-.64-8.48,3.37-11.44,3.86-2.85,8.09-3.63,11.76-.27,10.64,9.73,20.38,20.45,28.42,32.34,3.6,5.32,.66,11.3-5.14,14.88-7.95,4.9-15.89,9.81-23.86,14.68-6.26,3.83-13.12,9.66-19.61,1.88-6.74-8.09-1.25-14.29,8.01-19.66-19.05-5.17-36.2-9.19-52.5-15.89-33.37-13.72-62.01-33.94-85.56-61.37-5.23-6.09-9.8-12.92-2.21-19.17,7.44-6.13,13.38-.58,18.59,5.57,30.62,36.16,70.01,57.35,115.87,67.32,2.59,.56,5.2,1.62,8.08,.08Zm49.39-80.31c-7.22-.04-11.05-5.55-14.99-10.12-5.33-6.18-9.19-7.74-15.3-.49-5.41,6.43-12.31,16.65-21.77,7.13-9.43-9.49,.74-16.43,7.22-21.78,7.55-6.23,5.23-9.96-.61-15.3-6.08-5.56-15.56-12.22-6.95-21.11,9.13-9.42,16.26-.06,21.87,6.58,5.67,6.72,9.56,6.9,15.4,.08,5.55-6.48,12.59-16.43,21.84-6.96,9.26,9.48-1.2,16.11-7.41,21.85-5.79,5.34-7.02,9.32-.17,14.51,3.37,2.55,6.55,5.73,8.82,9.26,4.62,7.17,.05,16.07-7.95,16.33Zm-143.28-65.13c7.31-.12,11.08,5.53,14.79,10.18,5.72,7.18,10.1,6.62,15.31-.23,2.32-3.05,5.23-5.9,8.42-8,4.62-3.04,9.69-3.12,13.79,1.2,4.1,4.33,3.79,9.11,.32,13.75-4.16,5.57-13.15,9.09-13.13,15.53,.03,6.4,8.9,9.99,13.14,15.48,3.54,4.59,3.77,9.56-.23,13.79-4.39,4.64-10.84,5.44-14.44,.57-11.04-14.95-20.53-14.43-31.3,.23-3.25,4.42-9.32,3.76-13.57-.25-4.74-4.46-4.48-9.54-.62-14.59,4.18-5.46,13.3-9.13,12.76-15.41-.45-5.19-8.12-9.71-12.5-14.61-3.11-3.48-4-7.53-2.1-11.89,1.75-4.02,5.17-5.57,9.36-5.73Zm-81.22-6.08c-21.07-.32-38.94,17.21-39.02,38.26-.08,21.12,17.48,38.83,38.5,38.86,20.85,.02,38.92-18.15,38.69-38.93-.22-20.45-17.64-37.87-38.18-38.19Zm16.75,39.54c-.74,9.23-9.21,17.08-17.94,16.65-9.45-.47-17.18-9.47-16.44-19.14,.73-9.49,8.68-16.25,18.36-15.63,9.42,.61,16.77,8.92,16.02,18.12Zm248.4,94.76c-21.16-.22-39.1,17.23-39.22,38.16-.13,21.1,17.4,38.53,38.73,38.51,21.39-.02,38.8-17.42,38.63-38.61-.16-20.52-17.53-37.85-38.14-38.07Zm-.58,55.62c-9.7-.06-17.95-8.65-17.41-18.12,.51-8.87,9.26-16.93,18.03-16.6,9.08,.34,16.91,8.69,16.68,17.8-.24,9.44-7.95,16.98-17.3,16.92Z"/>
</svg>