<?xml version="1.0" encoding="UTF-8"?>
<svg id="Layer_1" data-name="Layer 1" xmlns="http://www.w3.org/2000/svg" viewBox="0 0 800 800">
  <defs>
    <style>
      .cls-1 {
        fill: #040404;
      }

      .cls-2 {
        fill: #030303;
      }

      .cls-3 {
        fill: none;
      }
    </style>
  </defs>
  <rect class="cls-3" width="800" height="800"/>
  <path class="cls-1" d="M474.34,472.53c-26.74,.01-26.67,.01-26.27,26.38,.07,4.92,.06,8.76,6.03,11.01,6.05,2.27,7.15,8.32,5.07,14.08-2.34,6.47-7.67,8.7-14.3,7.74-10.94-1.59-19.91-11.05-20.47-22.89-.6-12.64-.7-25.36,.03-37.98,.75-13.05,10.21-21.8,23.35-22.14,15.42-.4,30.86-.07,46.29-.13,7.88-.03,13.28,3.13,13.35,11.56,.07,8.24-5.13,12.03-12.92,12.31-6.72,.24-13.45,.05-20.18,.06Zm283.27,8.18c0,8.73-2.77,15.62-12.33,15.19-9.39-.42-11.71-7.71-11.7-16.2,.09-62.29-.15-124.58,.27-186.87,.06-8.86-2.05-11.05-10.98-11.02-107.48,.35-214.95,.22-322.43,.22s-214.16,.15-321.24-.24c-10.02-.04-12.19,2.71-12.16,12.45,.37,116.64,.22,233.29,.25,349.93,0,28.23,14.19,42.51,42.3,42.52,105.89,.04,211.78,.01,317.67,.02,3.57,0,7.17-.21,10.7,.2,5.83,.68,9.32,4.19,9.98,10.05,.71,6.38-2.27,11.01-8.22,12.82-3.68,1.12-7.84,.84-11.78,.84-106.29,.04-212.58,.06-318.86,.01-40.97-.02-65.7-24.87-65.71-66-.04-154.73-.04-309.47,0-464.2,.01-40.9,24.23-65.13,64.93-65.2,14.67-.03,29.38-.56,44.01,.2,8.74,.46,10.73-2.74,10.23-10.74-.51-8.24-.59-16.55,1.49-24.82,5.86-23.3,27.29-38.35,51.79-35.89,22.69,2.28,40.54,21.42,41.88,44.53,.5,8.58-3.88,19.93,2.07,25.01,6.21,5.31,17.46,1.52,26.49,1.63,18.24,.23,36.52-.63,54.72,.34,10.45,.56,12.9-3.08,11.99-12.63-.74-7.82-.42-15.76,1.62-23.61,5.79-22.26,26.1-36.85,49.91-35.37,22.31,1.38,41.05,19.38,43.41,41.69,.13,1.18,.08,2.38,.18,3.56,.69,8.22-3.55,18.88,1.71,24.08,5.73,5.67,16.56,1.74,25.14,1.9,17.44,.33,34.9,.1,52.35,.1,15.91,0,15.81,0,15.98-16.54,.06-5.52,.15-11.15,1.24-16.53,5.09-25.04,26.82-40.77,52.22-38.17,23.63,2.41,41.24,22.2,41.8,46.98q.56,24.26,25.07,24.27c12.29,0,24.6-.24,36.88,.09,31.35,.85,56.78,25.71,56.9,57.11,.37,102.76,.13,205.52,.23,308.27Zm-190.32-318.84c.27,14.07,11.12,24.7,23.84,24.72,12.88,.02,23.05-10.53,23.42-24.85,.3-11.49,.06-23,.06-34.5,0-11.5,.2-23-.04-34.5-.31-14.95-9.51-24.75-23-24.97-13.45-.22-23.94,9.46-24.25,23.91-.51,23.39-.47,46.8-.02,70.18Zm-190.41,.19c.29,14.01,11.34,24.65,24.01,24.54,12.9-.11,22.89-10.65,23.24-25.04,.28-11.49,.06-23,.06-34.5,0-11.5,.21-23-.05-34.5-.33-14.88-9.67-24.66-23.19-24.78-13.45-.12-23.78,9.59-24.08,24.09-.48,23.39-.47,46.8,0,70.18Zm-190.3,1.44c.36,13.24,11.95,23.37,24.15,23.11,12.5-.27,22.5-10.48,22.95-24.11,.37-11.49,.08-23,.07-34.5,0-12.29,.32-24.6-.09-36.88-.44-13.43-9.63-22.73-22.19-23.32-13.01-.6-24.37,8.4-24.82,21.95-.82,24.56-.73,49.18-.07,73.74Zm547.25,85.01c-.54-24.59,.07-49.19-.3-73.79-.31-20.22-14.35-34.64-34.15-35.42-11.48-.45-23-.13-34.5-.13q-25.44,0-26.37,25.17c-.91,24.65-19.62,44.13-44.28,46.12-22.87,1.85-44.02-14.4-49.57-37.56-2.08-8.68-1.57-17.38-1.28-26.03,.22-6.43-2.01-7.93-8.07-7.83-20.22,.34-40.45,.13-60.67,.13q-25.68,0-26.55,24.98c-.86,24.71-19.4,44.18-44.1,46.3-22.83,1.96-44.12-14.26-49.71-37.36-2.01-8.29-1.74-16.59-1.3-24.84,.38-7.22-1.53-9.5-9.08-9.28-20.21,.58-40.44,.2-60.67,.2q-24.73,0-25.55,24.79c-.82,24.77-19.19,44.22-43.92,46.47-22.79,2.08-44.23-14.14-49.86-37.16-1.93-7.9-1.88-15.8-1.35-23.64,.54-7.96-1.28-11.15-10.09-10.69-15.03,.8-30.13,.15-45.2,.24-25.48,.14-39.81,14.32-39.96,39.68-.13,22.61,.52,45.25-.28,67.83-.35,9.81,2.96,11.62,12,11.6,107.07-.3,214.15-.19,321.22-.19,39.66,0,79.31,0,118.97,0,68.21,0,136.42-.12,204.63,.17,7.65,.03,10.15-1.79,9.97-9.77Zm23.72,354.55c-.11,85.88-69.25,155.26-154.64,155.17-85.23-.09-154.93-70.03-154.87-155.4,.05-85.29,69.6-154.2,155.62-154.2,85.09,0,154,69.16,153.89,154.44Zm-23.94,.88c.16-72.73-57.72-131.22-129.98-131.36-72.3-.14-131.27,58.08-131.65,129.97-.38,72.12,59.19,131.81,131.51,131.77,71.09-.04,129.96-59.03,130.11-130.39ZM233.8,400.92c-.41,13.66-9.43,22.99-23.09,23.84-8.3,.51-16.65,.09-24.98,.09v.05c-7.14,0-14.28,.21-21.41-.04-15.53-.55-25.18-9.93-25.68-25.3-.36-11.1-.35-22.22,0-33.32,.48-15.17,9.67-24.43,24.62-24.72,15.46-.3,30.94-.3,46.4,0,14.78,.27,23.74,9.09,24.15,23.7,.33,11.89,.34,23.81-.02,35.7Zm-23.59-12.21c-.67-23.32-.18-23.33-23.28-23.33-5.14,0-10.33,.45-15.4-.11-7.34-.81-9.24,1.88-9.25,9.21-.04,26.51-.35,26.51,26.42,26.51,3.16,0,6.4-.45,9.47,.08,10.32,1.8,12.31-2.82,12.04-12.36Zm166.42,11.71c-.37,14.32-9.47,23.88-23.78,24.35-15.45,.51-30.94,.45-46.4,.03-14.8-.4-24.42-10.02-24.97-24.73-.43-11.49-.45-23.02,0-34.51,.59-14.93,10.05-23.72,25.28-24.08,7.53-.18,15.07-.03,22.61-.03,7.93,0,15.87-.23,23.79,.06,14.07,.52,22.99,9.21,23.44,23.2,.39,11.89,.33,23.81,.02,35.7Zm-23.6-11.67c-.68-23.35-.19-23.37-23.24-23.37-5.14,0-10.32,.44-15.4-.11-7.28-.79-9.27,1.79-9.29,9.17-.04,26.54-.36,26.54,26.38,26.54,3.16,0,6.4-.45,9.47,.08,10.26,1.78,12.36-2.73,12.08-12.32Zm166.38,12.65c-.46,13.51-9.75,22.9-23.54,23.36-15.85,.52-31.74,.54-47.58,0-13.57-.46-23.22-9.89-23.9-23.28-.63-12.27-.6-24.61-.01-36.88,.66-13.74,10.06-22.54,23.81-23.06,7.92-.3,15.86-.05,23.79-.06,7.93,0,15.87-.23,23.79,.04,14.13,.48,23.16,9.09,23.64,23,.42,12.28,.42,24.61,0,36.89Zm-23.61-12.1c-.48-23.91-.1-23.91-23.85-23.91s-23.96,0-23.84,23.94c0,1.19,.13,2.39-.02,3.56-.78,6.04,1.44,8.55,7.87,8.23,9.46-.47,19.04-.87,28.43,.09,9.9,1.01,11.59-3.07,11.41-11.9Zm166.41,12.35c-.45,12.97-9.5,22.5-22.58,23.04-16.23,.66-32.53,.65-48.77,.05-14.03-.52-23.22-10.39-23.75-24.7-.41-11.09-.34-22.22-.03-33.32,.43-15.83,9.63-24.86,25.36-25.23,7.53-.18,15.07-.03,22.61-.03v.04c8.33,0,16.67-.35,24.98,.08,12.66,.66,21.62,9.36,22.15,21.99,.53,12.67,.47,25.4,.03,38.08Zm-23.55-12.85c-.68-23.41-.19-23.42-23.19-23.42-5.14,0-10.32,.43-15.4-.1-7.2-.76-9.33,1.65-9.35,9.11-.05,26.6-.38,26.6,26.33,26.6,3.16,0,6.4-.44,9.47,.08,10.11,1.7,12.42-2.61,12.14-12.26Zm-404.9,119.99c-.45,12.97-9.49,22.51-22.57,23.05-16.23,.67-32.53,.65-48.77,.05-14.03-.52-23.22-10.39-23.76-24.69-.41-11.09-.34-22.22-.03-33.32,.43-15.83,9.63-24.87,25.35-25.24,7.53-.18,15.07-.03,22.61-.03v.04c8.33,0,16.67-.35,24.98,.08,12.66,.65,21.63,9.35,22.16,21.98,.53,12.67,.47,25.4,.03,38.08Zm-25.51-34.48c-2.97-5.52-15.33-1.13-23.48-1.73-3.54-.26-7.17,.36-10.66-.12-8.98-1.25-12.17,1.62-11.89,11.34,.69,24.33,.15,24.34,23.89,24.34,5.93,0,11.86-.1,17.79,.03,3.59,.08,6.23-.48,6.08-4.97-.32-9.8,2.42-21.19-1.73-28.89Zm168.33,34.49c-.45,12.97-9.5,22.5-22.58,23.04-16.23,.66-32.53,.65-48.77,.05-14.03-.52-23.22-10.39-23.75-24.7-.41-11.09-.34-22.22-.03-33.32,.43-15.83,9.63-24.86,25.36-25.23,7.53-.18,15.07-.03,22.61-.03v.04c8.33,0,16.67-.35,24.98,.08,12.66,.66,21.62,9.36,22.15,21.99,.53,12.67,.47,25.4,.03,38.08Zm-23.54-12.8c-.69-23.45-.19-23.46-23.15-23.46-5.93,0-11.86-.09-17.79,.04-2.55,.06-6.42-.93-6.55,3-.34,9.86-.31,19.76,.17,29.62,.19,3.8,4.11,2.88,6.69,2.9,9.49,.1,19.05-.7,28.44,.24,10.11,1.02,12.48-2.63,12.19-12.35Zm-119.19,118.09c-.32,15.01-9.44,24.38-24.36,25.06-7.52,.34-15.07,.06-22.6,.07-7.14,0-14.28,.14-21.42-.02-16.97-.39-26.49-9.74-26.86-26.55-.23-10.31-.23-20.63,0-30.94,.37-16.52,9.51-25.68,25.9-25.9,15.07-.19,30.15-.27,45.21,.03,14.77,.29,23.69,9.11,24.11,23.75,.33,11.5,.26,23.01,.02,34.51Zm-23.66-10.42c-.51-23.97-.11-23.98-23.79-23.98s-24.02,0-23.91,23.87c0,.79,.1,1.6-.02,2.37-1.05,7.02,1.34,10.07,8.99,9.51,9.04-.65,18.25-.88,27.24,.04,9.77,1,11.67-2.86,11.48-11.82Zm166.44,11.21c-.39,14.27-9.57,23.76-23.93,24.21-15.45,.48-30.94,.46-46.4,.01-14.75-.43-24.29-10.12-24.83-24.87-.4-11.09-.34-22.22-.03-33.32,.45-15.79,9.68-24.77,25.47-25.12,7.53-.17,15.07-.03,22.61-.02,7.93,0,15.87-.24,23.79,.06,14.02,.55,22.86,9.29,23.3,23.34,.37,11.89,.33,23.81,.01,35.7Zm-23.6-11.86c-.67-23.32-.18-23.33-23.28-23.33-5.14,0-10.33,.45-15.4-.11-7.34-.81-9.24,1.88-9.25,9.21-.04,26.51-.35,26.51,26.42,26.51,3.16,0,6.4-.45,9.47,.08,10.32,1.8,12.31-2.82,12.04-12.36Z"/>
  <path class="cls-2" d="M529.47,600.99c4.95-.52,7.97,2.82,11.04,5.88,10.66,10.61,21.59,20.97,31.73,32.07,5.35,5.85,8.58,5.51,13.96,.01,26.02-26.58,52.43-52.78,78.74-79.09,2.79-2.79,5.53-5.81,8.81-7.9,4.77-3.04,9.85-2.77,14.18,1.26,4.75,4.41,5.15,9.76,1.94,15.06-1.81,2.99-4.56,5.45-7.07,7.96-29.92,29.96-59.85,59.91-89.83,89.82-11.8,11.78-15.61,11.78-27.26,.17-14.58-14.52-29.1-29.11-43.67-43.64-4.24-4.23-6.58-9.05-4.05-14.95,2.09-4.86,6.03-7.16,11.47-6.64Z"/>
</svg>