<?xml version="1.0" encoding="UTF-8"?>
<svg id="Layer_1" data-name="Layer 1" xmlns="http://www.w3.org/2000/svg" viewBox="0 0 800 800">
  <defs>
    <style>
      .cls-1 {
        fill: none;
      }

      .cls-2 {
        fill: #010101;
      }
    </style>
  </defs>
  <rect class="cls-1" width="800" height="800"/>
  <path class="cls-2" d="M752.72,704.19c-.1-10.95-5.06-19.68-13.35-26.42-7.26-5.91-15.82-9.19-25.19-7.93-11.36,1.52-17.55-1.83-21.13-13.7-4.56-15.13-14.26-27.78-25.19-39.36-12.33-13.06-27.31-22.18-43.46-29.96,42.5-41.02,30.46-89.46,6.21-113.63-27.22-27.13-71.43-29.38-100.9-4.99-15.92,13.18-25.34,30.19-27.49,50.46-2.88,27.18,8.27,49.39,28.24,67.51-9.08,5.37-17.38,9.8-25.13,15.05-4.41,2.99-6.64,1.9-9.68-1.72-12.88-15.32-28.9-26.46-47.89-34.54,34.73-40.48,37.39-79.86,8.35-111.61-25.37-27.74-67.55-32.31-98.65-10.45-15,10.55-25.13,24.86-29.68,42.65-8.05,31.55,3.46,57.24,26.4,79.33-19.51,8.33-35.11,19.34-47.9,34.19-2.64,3.07-4.63,5.92-9.56,2.55-8.05-5.51-16.71-10.11-25.11-15.1,34.45-41.7,36.76-80.95,6.62-112.2-26.83-27.82-70.26-30.76-100.72-6.76-14.1,11.11-23.32,25.49-26.93,43.06-6.21,30.25,4.33,55.14,27.19,76.19-32.11,14.3-56.01,35.54-68.22,66.97-5.03,12.94-11.01,16.82-24.31,16.31-20.95-.81-36.3,15.36-36.66,36.19-.17,9.83-.04,19.67-.04,29.5,0,24.25,6.46,30.75,30.6,30.75,214.7,0,429.39,0,644.09,0,2.75,0,5.52,.15,8.25-.08,12.9-1.06,20.91-9.13,21.24-22.13,.34-13.37,.12-26.75,0-40.12Zm-227.13-178.1c.12-28.07,24.25-51.63,52.41-51.14,28.14,.48,50.9,23.4,51,51.35,.1,28.32-23.36,51.7-51.78,51.61-28.36-.09-51.74-23.56-51.62-51.82Zm-40.48,134.61c19.29-37.73,50.13-58.45,92.29-58.44,42.16,.01,73.03,20.69,92.19,58.54,3.79,7.48,1.67,9.16-6.21,9.05-28.7-.37-57.41-.15-86.12-.15-28.71,0-57.41-.22-86.12,.14-8.02,.1-9.81-1.76-6.03-9.14Zm-136.36-156.94c.58-28.1,24.7-51.22,52.98-50.79,27.9,.42,50.77,23.7,50.66,51.58-.11,28.31-23.77,51.73-52.02,51.51-27.96-.22-52.19-24.76-51.62-52.29Zm-25.06,111.35c37.47-46.28,115.61-46.64,153.65-.67,3.72,4.5,4.97,7.67,.6,12.86-8.65,10.25-14.98,22.08-18.95,34.93-1.78,5.74-4.52,7.84-10.72,7.64-15.68-.51-31.39-.17-47.09-.17-15.7,0-31.4-.29-47.09,.14-6.3,.17-9.84-1.2-11.82-7.83-3.84-12.87-10.31-24.65-18.91-34.95-3.93-4.71-3.21-7.57,.34-11.95Zm-151.28-88.89c.21-28.34,23.97-51.48,52.38-51.02,28.33,.46,50.73,23.01,50.8,51.12,.07,28.57-22.95,51.66-51.46,51.63-28.28-.02-51.93-23.68-51.72-51.73Zm48.89,75.8c42.7-1.81,85.76,27.42,97.33,66.78H130.13c7.33-34.83,48.51-64.98,91.16-66.78Zm481,140.76c-100.64,0-201.27,0-301.91,0-105.35,0-210.71-.14-316.06,.23-9.92,.04-13.12-2.73-12.13-12.41,.8-7.78,.1-15.72,.2-23.58,.11-8.61,4.92-12.82,13.17-13.43,3.13-.23,6.29-.07,9.43-.07,204.02,0,408.05,0,612.07,0,20.28,0,21.93,1.69,21.94,22.39q.02,26.88-26.72,26.88Zm50.26-642.99c-.32-35.45-29.52-64.94-64.76-65.06-126.25-.44-252.5-.4-378.75-.02-33.03,.1-60.89,25.97-64.57,58.96-3.33,29.78-.68,59.75-1.38,89.62-.12,4.97,.99,10.05-5.37,12.91-8.57,3.85-16.71,8.65-25.06,12.99-2.9,1.5-5.65,2.69-7.57-1.63-6.88-15.53-18.82-26.75-32.38-36.43,33.95-37.2,36.32-77.95,6.65-106.82-26.73-26.01-68.61-26.55-96.04-1.25-31.71,29.25-29.95,67.61,4.95,107.79-34.26,26.49-40.74,48.55-39.96,88.65,.99,51.13,.22,102.3,.25,153.45,0,24.17,10.22,34.53,34.19,34.59,31.86,.07,63.72,.05,95.57,0,23.97-.04,34.75-10.57,34.86-34.32,.13-29.12,.03-58.23,.03-87.35q0-29.8,26.66-42.19c.32-.15,.76-.02,2.94-.02,.44,10.7,.46,21.38,3.61,31.56,9.58,30.97,35.08,48.48,71.21,48.53,90.46,.11,180.92,.07,271.38,.02,33.43-.02,66.88,.57,100.27-.56,34.96-1.18,62.97-30,63.28-65.12,.58-66.1,.58-132.21,0-198.31ZM84.45,114.55c-.23-25.02,21.57-46.72,46.69-46.45,25.07,.27,45.34,21.01,45.23,46.29-.11,25.54-20.16,45.53-45.66,45.52-25.1,0-46.03-20.53-46.26-45.36Zm79.81,181.38c-15.23,7.83-25.26,1.9-25.57-15.25-.15-8.06-3.66-13.53-11.18-13.97-8.27-.48-12.26,5.01-12.89,13.52-2.34,31.34,27.39,52,56.41,38.99q18.32-8.21,18.32,12.18c0,26.76-.27,53.52,.15,80.27,.15,9.17-2.85,12.42-12.24,12.28-31.06-.48-62.14-.49-93.21,0-9.61,.15-12.01-3.37-11.86-12.44,.49-28.72,.18-57.45,.18-86.17,0-27.54-.13-55.09,.04-82.63,.19-31.56,22.31-55.17,54.61-58.63,27-2.89,53.76,17.2,60.67,45.55q4.16,17.07,20.03,8.79c18.82-9.74,37.65-19.47,56.55-29.06,11.01-5.59,18.29-3.98,23.14,4.73,5.05,9.06,2.09,16.86-9.26,22.78-37.91,19.78-75.86,39.49-113.9,59.04Zm514.6,44.34c-60.14-1.17-120.31-.33-180.47-.33-60.55,0-121.1,.16-181.66-.06-36.66-.13-59.7-31.85-49.63-67.45,1.03-3.63,3.7-4.83,6.39-6.29,7.24-3.93,14.73-7.43,21.75-11.69,11.97-7.27,18.83-17.91,17.84-32.23-.46-6.59,2.16-10.99,6.18-15.64,22.12-25.57,43.96-51.37,66-77,5.67-6.59,9.64-13.69,1.52-20.38-7.97-6.56-14.39-1.51-19.98,5.07-19.83,23.39-39.89,46.58-59.62,70.06-4.28,5.09-7.58,8.42-14.14,2.88-4.15-3.51-9.95-5.44-15.42-5.04-9.05,.67-11.11-2.99-10.85-11.51,.62-20.44,.09-40.91,.23-61.36,.22-33.62,17.57-51.02,50.83-51.03,120.32-.03,240.64-.03,360.95,0,32.99,0,50.18,17.09,50.21,49.94,.06,60.58-.84,121.18,.42,181.73,.54,25.85-17.06,51-50.57,50.34Zm-154.72-161.6c-33.42,0-66.83-.09-100.25,.06-8.77,.04-16.6-1.69-16.38-12.13,.22-10.33,8.22-11.78,16.86-11.76,67.62,.09,135.24,.08,202.86,.01,8.67,0,16.39,1.43,16.21,12.2-.18,10.85-8.15,11.71-16.69,11.68-34.2-.12-68.4-.05-102.61-.05Zm27.21,105.62c25.93,0,51.85,.19,77.78-.1,8.54-.1,15.86,2.09,15.98,11.34,.12,9.68-7.2,12.7-16.28,12.68-51.85-.13-103.71-.07-155.56-.06-8.61,0-16.34-1.74-16.32-12.37,.02-11.1,8.24-11.55,16.63-11.52,25.93,.1,51.85,.04,77.78,.04Zm-80.35-41.03c-21.2,0-42.4,0-63.6,0-8.68,0-16.51-2.13-16.14-12.54,.34-9.72,8.29-11.32,16.22-11.33,42.79-.07,85.58-.07,128.37,0,8.13,.01,15.62,2.29,15.53,12.01-.08,9.59-7.27,11.9-15.61,11.87-21.59-.06-43.18-.02-64.78-.02Zm7.75-128.46c-16.11,0-32.21,.02-48.32,0-8.64-.02-16.16-2.14-16.2-12.62-.04-10.39,7.48-11.23,15.61-11.2,33,.12,66,.12,99,0,8.14-.03,15.69,.78,15.6,11.18-.09,10.35-7.44,12.68-16.18,12.67-16.5-.02-33,0-49.5,0Zm131.59-23.77c7.42,0,14.85,.21,22.27-.07,7.79-.29,12.08,4,12.58,10.91,.47,6.49-3.95,12.07-10.22,12.34-16.74,.73-33.57,.72-50.29-.26-6.08-.35-10.23-5.59-9.55-12.68,.68-7.06,4.87-10.25,11.78-10.24,7.81,.01,15.63,0,23.44,0Zm-217.07,193.27c7.06,0,14.13,.14,21.18-.05,8.13-.22,13.06,3.7,13.19,11.6,.12,7.19-4.44,11.93-11.77,12.11-14.9,.36-29.82,.45-44.71-.06-7.62-.26-12.63-4.87-12.03-12.98,.56-7.53,5.62-10.7,12.96-10.62,7.06,.07,14.12,.02,21.18,0Zm216.45-41.29c-7.04,0-14.11,.32-21.13-.09-6.74-.39-10.92-4.34-11.26-11.22-.35-7.14,4.19-11.46,10.58-11.75,14.84-.69,29.74-.75,44.58-.17,6.92,.27,11.61,4.56,11.07,12.44-.49,7.14-4.85,10.51-11.54,10.8-7.42,.31-14.87,.07-22.31,.07,0-.03,0-.05,0-.08Z"/>
</svg>