<?xml version="1.0" encoding="UTF-8"?>
<svg id="Layer_1" data-name="Layer 1" xmlns="http://www.w3.org/2000/svg" viewBox="0 0 800 800">
  <defs>
    <style>
      .cls-1 {
        fill: none;
      }

      .cls-2 {
        fill: #010101;
      }
    </style>
  </defs>
  <rect class="cls-1" width="800" height="800"/>
  <path class="cls-2" d="M779.87,681.22c-.07-14.24-3.19-18.31-17.23-17.15-12.26,1.01-13.71-3.83-13.68-14.53,.37-127.1,.27-254.19,.22-381.29,0-25.83-13.84-46.07-36.66-53.59-11.1-3.65-22.7-2.24-34.12-2.36-4.87-.05-7.68,.38-6.01-6.95,5.73-25.17-2.91-42.43-25.91-54.64-32.74-17.38-65.53-34.66-98.28-52.01-13.94-7.38-27.73-15.06-41.81-22.17-6.26-3.16-12.46-2.69-16.14,4.48-3.39,6.61-.47,11.33,5.14,14.93,1.99,1.27,4.14,2.29,6.23,3.4,44.23,23.48,88.41,47.07,132.74,70.37,9.59,5.04,17.37,10.69,17.55,22.85,.19,12.24-7.57,18.16-17.08,23.18-42.55,22.44-85.15,44.8-127.46,67.68-7.02,3.8-10.46,2.51-15.35-3.19-25.71-29.94-51.87-59.5-77.9-89.16-2.34-2.67-4.6-5.57-7.46-7.57-3.84-2.69-8.42-2.76-12.17,.21-3.93,3.11-5.81,7.23-4.03,12.54,1.45,4.34,4.73,7.22,7.56,10.45,24.69,28.22,49.3,56.51,74.3,84.45,5.08,5.68,5.13,8.29-1.96,11.78-15.2,7.49-29.93,15.94-45.07,23.58-16.2,8.17-32.93,8.5-48.98,.06-70.83-37.28-141.48-74.91-212.24-112.33-8.64-4.57-14.35-10.66-14.55-21.06-.22-11.02,5.96-17.43,14.87-22.15,70.04-37.1,140.09-74.2,210.13-111.29,17.35-9.19,34.74-9.31,52.12-.11,9.06,4.8,18.03,9.79,27.15,14.47,6.2,3.18,12.68,3.79,16.57-3.11,4-7.07,1.35-12.82-5.8-16.58-9.08-4.77-18.06-9.73-27.16-14.45-24.58-12.77-49.22-12.77-73.71,.17-70.08,37.04-140.1,74.17-210.16,111.25-10.82,5.73-18.97,13.7-23.54,25.38-4.54,11.6-2.92,23.02,.46,35.49-6.37,0-11.86,.38-17.29-.06-38.42-3.11-61.71,26.03-61.4,61.16,1.13,125.9,.31,251.82,.7,377.73,.03,10.36-2.32,14.27-12.88,12.8-7.77-1.08-16.89-.17-17.49,9.43-1.04,16.76-2.5,33.78,3.65,50.25,11.73,31.44,36.83,48.3,73.63,48.31,201,.07,402,.04,603.01,0,4.73,0,9.49-.22,14.18-.82,27.95-3.57,46.9-19.1,58.12-44.47,6.43-14.53,5.24-30.05,5.17-45.39ZM511.59,306.3c13.14-6.86,26.23-13.78,41.58-21.86-1.73,24.5,2.95,46.73-3.72,68.22-6.66,21.45-20.2,37.44-42.07,48.66,0-30.77,.03-59.73-.04-88.69,0-3.25,1.62-4.96,4.26-6.33Zm-15.28,165.46c5.12,8.87,9.1,16.04,13.35,23.04,3.49,5.75,4.05,11.57-1.53,15.69-7.18,5.3-15.71,4.94-23.04,.54-6.04-3.62-5.27-10.21-2.42-15.74,3.9-7.58,8.52-14.79,13.63-23.54Zm-247.61-187.22c38.81,20.51,75.85,39.68,112.49,59.59,26.52,14.41,52.44,14.73,78.83,.08,14.35-7.97,29.06-15.3,45.49-23.9,0,29.74-.03,57.52,.02,85.31,0,5.69-4.63,5.68-8.16,6.76-37.19,11.32-75.12,13.83-113.55,8.7-22.37-2.98-44.18-8.45-64.86-17.61-31.76-14.05-49.25-38.19-50.2-73.32-.39-14.55-.07-29.11-.07-45.61Zm-174.24-11.97c0-26.88,11.34-36.63,38.07-38.45,28.66-1.95,54.55,3.44,78.28,19.56,4.5,3.06,9.54,5.34,14.46,8.06-2.19,4.39-5.76,2.34-8.37,2.36-25.67,.19-51.34,.39-77,0-10.96-.17-15.75,3.83-15.73,15.18,.2,113.28,.2,226.55,0,339.83-.02,11.17,4.61,15.83,15.54,15.67,16.98-.25,33.96-.04,50.94-.08,8.06-.02,14.61-2.84,14.2-11.94-.38-8.32-6.66-10.65-14.3-10.53-11.84,.18-23.7-.21-35.54,.15-6.32,.19-9.04-1.34-9.03-8.46,.21-103.01,.2-206.03,.01-309.05-.01-6.86,2.24-8.7,8.83-8.63,27.24,.31,54.5,.44,81.73-.07,7.77-.15,9.02,2.66,8.96,9.51-.17,19.27-1.64,38.66,3.36,57.65,10.61,40.32,37.74,64.18,76.3,76.9,56.18,18.53,112.85,21.45,170.22,6.16,2.93-.78,6.65-3.19,8.85-.42,2.87,3.63,1.71,8.29-.47,12.2-6.35,11.34-12.92,22.55-19.3,33.87-10.33,18.32-8.08,35.13,6.16,46.68,13.27,10.77,39.11,10.45,52.04-.65,11.58-9.94,15.1-27.99,7.6-42.05-6.11-11.46-12.92-22.55-19.44-33.79-1.98-3.42-3.3-6.86-3.64-11.01-.81-9.77,1.39-15.73,11.55-20.84,37.58-18.9,55.22-51.21,57.19-92.54,.52-11.03,.29-22.1,0-33.15-.15-5.56,.63-8.57,7.5-8.48,28.03,.37,56.07,.33,84.11,.03,6.57-.07,7.82,2.59,7.81,8.42-.13,103.02-.22,206.03,.11,309.05,.03,9.65-5.24,8.58-11.25,8.58-78.58-.03-157.16-.02-235.74-.02-67.13,0-134.26,0-201.39,.01-3.55,0-7.14-.13-10.64,.3-6.17,.77-8.87,5.47-9.06,10.77-.17,4.89,2.5,9.4,7.88,10.48,4.2,.84,8.61,.84,12.93,.84,149.26,.04,298.53,.03,447.79,.03,19.52,0,21.12-1.56,21.12-20.57,0-110.51,0-221.03,0-331.54,0-16.81-1.55-18.35-18.21-18.37-27.42-.03-54.83,0-83.21,0,31.62-26.23,66.68-34.77,105.38-29.15,13.29,1.93,22.63,11.63,24.99,24.97,.75,4.24,.88,8.62,.88,12.94,.04,125.91-.08,251.82,.26,377.72,.03,9.99-1.85,13.36-12.76,13.34-209.29-.36-418.57-.34-627.86-.05-9.96,.01-12.38-2.75-12.36-12.51,.33-126.3,.2-252.6,.23-378.91Zm391.08,420.91c-6.13,8.56-14.52,13.28-25.09,13.33-26.43,.13-52.87,.28-79.3-.05-12.79-.16-22.24-6.23-28.7-20.21,44.57,0,87.15,.06,129.73-.06,6.87-.02,6.29,2.9,3.35,7Zm237.72,56.26c-101.06,.1-202.11,.04-303.17,.04-100.66,0-201.32,.06-301.98-.04-32.89-.03-54.74-21.83-54.87-53.67-.03-6.88,1.41-9.68,9.07-9.65,82.9,.26,165.79,.19,248.69,.1,5.27,0,8.1,1.03,10.22,6.9,8.23,22.73,25.12,35.03,49.28,35.62,26.83,.65,53.69,.64,80.52,0,23.64-.57,40.38-12.49,48.85-34.58,2.22-5.78,4.41-8.01,10.65-7.99,82.9,.18,165.8,.22,248.69-.04,7.75-.02,9.02,2.95,8.99,9.73-.18,31.88-21.99,53.57-54.94,53.6Zm-422.24-166.93c-33.56,0-67.11,0-100.67,0-2.76,0-5.53,0-8.29-.04-7.44-.14-12.67-4.03-12.56-11.25,.1-7.03,4.93-11.2,12.64-11.05,8.29,.16,16.58,0,24.87,0,61.59,0,123.17,0,184.76,0,2.76,0,5.53,.05,8.29,0,7.7-.15,13.34,2.25,13.37,11.15,.02,9.01-5.96,11.16-13.45,11.17-36.32,.04-72.64,.02-108.96,.02Zm-36.08-69.21c23.29,0,46.59,.09,69.88-.05,7.88-.05,14.84,1.42,15.08,10.83,.26,10.01-6.87,12.09-15.26,12.09-46.59-.03-93.17-.07-139.76,.04-8.1,.02-15.06-2.61-15.3-11.1-.26-9.29,6.74-12.01,15.48-11.9,23.29,.28,46.58,.09,69.88,.1Z"/>
</svg>