<?xml version="1.0" encoding="UTF-8"?>
<svg id="Layer_1" data-name="Layer 1" xmlns="http://www.w3.org/2000/svg" viewBox="0 0 800 800">
  <defs>
    <style>
      .cls-1 {
        fill: none;
      }

      .cls-2 {
        fill: #010202;
      }
    </style>
  </defs>
  <rect class="cls-1" width="800" height="800"/>
  <path class="cls-2" d="M460.51,676.96c-5.47-8.71-7.61-15.81,.71-21.26,8.05-5.28,13.22,.61,18.35,5.73,5.92,5.91,11.8,11.85,17.77,17.71,7.5,7.35,7.09,14.45-.28,21.63-6.57,6.39-12.99,12.92-19.47,19.4-5.23,5.23-11.09,8.73-17.68,2.83-6.72-6.01-5.33-12.48,.53-18.55,.99-1.02,2.71-1.92,1.54-4.79-5.48,0-11.31-.13-17.13,.03-15.46,.41-28.83-4.53-40.08-15.18-2.42-2.29-4.44-6.33-8.51-1.85-14.22,15.64-32.74,18.15-52.44,17.03-2.26-.13-4.54-.02-6.93-.02-.29,4.93,4.14,6.08,5.49,9.35,2.3,5.56,1.33,10.13-2.9,13.96-4.45,4.03-9.74,4.32-14.05,.32-9.04-8.39-17.96-16.98-26.18-26.15-5-5.58-3.38-11.84,1.77-17.03,6.45-6.5,12.96-12.94,19.4-19.45,4.92-4.98,10.14-9.93,17.5-5.03,8.13,5.41,6.79,12.46,1.68,19.46,29.43,7.83,50.37-9.54,48.49-35.77-1.85-25.77-.3-51.78-.45-77.68-.05-8.95,1.99-16.61,12.55-16.27,9.8,.31,11.47,7.84,11.42,16.21-.15,25.9,1.07,51.87-.37,77.69-1.44,25.79,16.47,39.31,37.99,37.71,3.1-.23,6.24-.03,11.29-.03Zm142.99-227.78c-3.22,36.56-32.64,65.36-69.19,66.06-45,.87-90.03,.21-135.05,.21,0,.1,0,.21,0,.31-40.64,0-81.34-1.41-121.9,.36-49.78,2.18-86.9-36.01-82.1-86.78,3.62-38.24,10.47-74.62,35.09-105.4,24.82-31.03,58.53-47.08,96.6-53.74,63.03-11.04,125.95-12.14,186.32,13.03,52.25,21.78,79.08,63.59,87.56,118.39,2.44,15.78,4.08,31.64,2.67,47.56Zm-284.87-153.87c18.83,29.81,37.05,58.7,55.31,87.56,1.53,2.42,3.47,4.22,6.69,4.2,12.76-.07,25.51-.06,38.27-.04,2.69,0,4.5-1.33,5.84-3.45,18.43-29.07,36.84-58.14,55.83-88.13-54.6-11.93-107.7-12.15-161.94-.15Zm262.44,143.22c-.11-9.13-.93-18.29-2.09-27.35-5.75-45.08-24.92-81.54-66.7-103.55-6.78-3.57-10.56-2.91-14.86,4.1-18.28,29.77-37.44,59.01-55.8,88.73-4.53,7.34-9.82,10.32-18.41,9.98-15.12-.6-30.31-.78-45.4,.05-10.06,.55-16.03-3.13-21.19-11.55-18.06-29.44-36.93-58.38-55.05-87.79-4.17-6.77-7.88-8.08-14.69-3.9-10.16,6.24-20.38,12.26-29,20.67-29.69,28.94-36.79,66.18-39.89,105.32-3.01,37.99,25.37,61.16,58.91,60.49,40.62-.82,81.27-.19,121.91-.19,42.63,0,85.26,.2,127.89-.06,32.39-.2,54.78-22.93,54.38-54.95ZM250.73,736.38c-4.16,17.85-22.59,32.25-42.31,32.48-22.33,.26-44.66,.06-66.99,.06-21.13,0-42.27,.11-63.4-.02-26.9-.17-44.87-18.26-44.74-44.81,.27-54.82,30.32-86.24,85.48-91.97,25.41-2.64,50.11-1.45,74.38,5.53,40.83,11.74,67.18,57.54,57.58,98.74Zm-58.74-74.67c-15.73-6-32.2-8.49-48.32-7.66-11.13-.18-21.35,.52-31.64,2.29-36.83,6.32-57.52,30.75-56.59,67.9,.18,7.07,2.57,13.17,8.54,17.51,3.7,2.69,7.93,4.54,12.23,3.09,5.32-1.8,2.39-6.86,2.46-10.33,.19-9-.72-19.17,12.02-18.89,11.59,.25,12.17,9.94,11.41,18.55-.75,8.55,1.29,11.87,10.79,11.32,16.29-.93,32.68-.2,49.03-.29,6.33-.03,13.91,1.7,18.65-1.14,4.84-2.91,1.06-10.98,1.93-16.73,1.08-7.19,4.7-12.3,12.35-11.91,7.36,.38,11.41,4.95,11.13,12.71-.07,1.99-.31,4.05,.06,5.97,.71,3.6-2.59,8.69,2.17,10.6,4.73,1.91,9.18-.79,13.08-3.92,4.26-3.43,6.77-7.94,7.75-13.09,4.8-25.23-12.7-56.71-37.04-66Zm573.05,74.2c-2.29,18.23-22.51,32.78-42.75,32.96-21.89,.2-43.78,.05-65.66,.05-21.49,0-42.98,.12-64.47-.03-26.64-.19-44.47-18.4-44.36-45.03,.24-54.54,30.43-86.14,85.39-91.72,24.52-2.49,48.25-1.32,71.91,5,49.95,13.35,65.1,57.72,59.94,98.77Zm-58.48-74.16c-15.71-6-32.15-8.54-49.03-7.64-5.17,.01-10.41-.52-15.51,.1-35.47,4.3-66.8,11.46-71.75,64.97-1.12,12.07,3.72,22.63,13.11,25.25,6.53,1.82,12.65,2.55,11.85-8.16-.65-8.76-2.56-20.67,11.1-20.69,13.75-.01,11.48,11.84,10.92,20.61-.48,7.51,1.93,9.47,9.26,9.22,16.31-.56,32.65-.11,48.97-.21,6.71-.04,14.6,1.63,19.77-1.31,4.59-2.61,.95-10.98,1.82-16.73,1.1-7.2,4.83-12.25,12.45-11.73,7.35,.49,11.29,5.17,10.88,12.91-.1,1.99-.34,4.05,.06,5.96,.75,3.55-2.67,8.57,2.33,10.48,4.28,1.64,8.47-.53,12.13-3.29,4.68-3.53,7.62-8.23,8.67-13.82,4.73-25.11-12.83-56.66-37.04-65.92ZM497.37,131.1c-.11,53.39-44.53,99.79-97.29,98.89-56.24-.96-96.89-42.94-97.92-99.19-.98-53.53,44.41-98.72,97.03-98.8,53.46-.08,98.29,45.17,98.18,99.1Zm-23.68-.32c-.02-41.92-32.84-75.1-74.27-75.08-41.24,.02-73.89,33.39-73.86,75.47,.03,41.71,33.32,75.58,74.25,75.52,40.84-.06,73.91-34.03,73.89-75.91ZM196.5,563.24c-.15,31.29-24,55.13-54.99,54.99-29.87-.14-53.28-24.53-53.27-55.52,.01-31.1,24.54-56.43,54.38-56.18,30.06,.25,54.03,25.48,53.88,56.71Zm-22.47-.43c.09-17.23-14.36-32.61-30.97-32.96-17.08-.37-32.3,15-32.41,32.75-.11,17.28,14.16,32.46,31.01,32.98,17.11,.53,32.28-14.82,32.37-32.76Zm536.96-.11c.02,31.45-23.64,55.59-54.44,55.53-30.6-.05-54.06-24.53-53.83-56.18,.22-30.48,24.27-55.27,53.87-55.52,29.89-.25,54.38,25.03,54.4,56.16Zm-22.43,.47c.38-17.56-14.74-33.4-31.83-33.33-16.68,.06-31.16,14.94-31.55,32.41-.39,17.59,14.75,33.49,31.8,33.39,16.7-.1,31.2-15,31.58-32.47Z"/>
</svg>