<?xml version="1.0" encoding="UTF-8"?>
<svg id="Layer_1" data-name="Layer 1" xmlns="http://www.w3.org/2000/svg" viewBox="0 0 14 14">
  <defs>
    <style>
      .cls-1 {
        fill: #393939;
      }

      .cls-2 {
        fill: none;
      }
    </style>
  </defs>
  <rect class="cls-2" width="14" height="14"/>
  <path class="cls-1" d="M12.55,4.08c0-.48,0-.97,0-1.45,0-.2-.09-.3-.27-.36-1.68-.57-3.36-1.15-5.04-1.72-.14-.05-.27-.07-.42-.02-1.71,.59-3.41,1.17-5.12,1.75-.15,.05-.24,.14-.25,.32-.02,1.62-.05,3.23,.22,4.83,.22,1.3,.72,2.48,1.57,3.5,.97,1.18,2.23,1.97,3.62,2.55,.11,.05,.21,.04,.31-.01,.5-.22,1-.45,1.47-.73,2.09-1.27,3.38-3.09,3.74-5.53,.15-1.04,.19-2.08,.18-3.13Zm-.61,2.01c-.11,1.4-.39,2.76-1.21,3.95-.83,1.21-1.96,2.05-3.27,2.68-.34,.17-.6,.15-.93,0-1.59-.77-2.9-1.84-3.7-3.46-.42-.86-.61-1.78-.71-2.71-.09-.77-.11-1.55-.11-2.33,0-.43,0-.85,0-1.28,0-.13,.04-.19,.16-.23,1.55-.53,3.1-1.06,4.65-1.6,.14-.05,.26-.04,.39,0,1.54,.53,3.08,1.06,4.63,1.59,.12,.04,.16,.11,.16,.23,.04,1.05,.02,2.11-.06,3.16Zm-1.05-2.86c-1.24-.42-2.48-.84-3.71-1.27-.13-.04-.23-.04-.35,0-1.22,.42-2.45,.84-3.67,1.26-.23,.08-.31,.2-.31,.45,0,.9,0,1.8,.1,2.7,.07,.66,.16,1.33,.4,1.96,.64,1.72,1.9,2.83,3.53,3.58,.11,.05,.2,.04,.31,0,.47-.2,.91-.46,1.33-.76,1.25-.9,2.09-2.07,2.4-3.59,.21-1.01,.27-2.04,.27-3.07,0-.28,0-.56,0-.84,0-.22-.08-.33-.28-.4Zm-.47,3.88c-.27,1.68-1.18,2.94-2.62,3.8-.96,.58-.63,.58-1.59,0-1.12-.66-1.95-1.59-2.38-2.84-.19-.56-.28-1.14-.34-1.73-.05-.48-.08-.96-.09-1.45,0-.34,0-.68,0-1.02,0-.11,.02-.16,.14-.2,1.12-.38,2.23-.76,3.34-1.15,.09-.03,.16-.03,.25,0,1.11,.38,2.21,.76,3.32,1.14,.09,.03,.15,.06,.15,.17,.01,1.09-.02,2.18-.19,3.26Zm-4.1,1.18c-.08,0-.15-.04-.21-.09-.26-.26-.52-.52-.78-.78-.14-.14-.14-.3-.02-.42,.12-.12,.27-.11,.42,.04,.14,.13,.29,.26,.41,.41,.14,.19,.23,.14,.38,0,.55-.57,1.12-1.12,1.68-1.69,.04-.04,.08-.08,.13-.12,.13-.1,.25-.1,.37,.01,.12,.11,.13,.26,.02,.37-.73,.74-1.47,1.48-2.21,2.22-.05,.05-.11,.06-.18,.06Z"/>
</svg>