<?xml version="1.0" encoding="UTF-8"?>
<svg id="Layer_1" data-name="Layer 1" xmlns="http://www.w3.org/2000/svg" viewBox="0 0 14 14">
  <defs>
    <style>
      .cls-1 {
        fill: #393939;
      }

      .cls-2 {
        fill: none;
      }
    </style>
  </defs>
  <rect class="cls-2" width="14" height="14"/>
  <path class="cls-1" d="M2.83,3.69c.28-.04,.53-.07,.76-.12,.1-.02,.14,0,.16,.1,.07,.31,.07,.3-.26,.35-.35,.05-.69,.11-1.04,.18-.11,.02-.16,.02-.19-.11-.06-.34-.13-.68-.2-1.01-.05-.27,.19-.14,.29-.2,.11-.07,.12,.04,.14,.12,.02,.07-.01,.15,.07,.22,.2-.34,.4-.68,.65-.98,.81-1,1.82-1.67,3.1-1.87,1.5-.23,2.8,.23,3.92,1.26,.44,.41,.8,.88,1.1,1.41,.05,.08,.18,.19-.02,.27-.13,.05-.23,.2-.36-.04-.57-1.04-1.39-1.83-2.52-2.25-1.64-.6-3.43-.12-4.64,1.22-.39,.43-.71,.9-.96,1.47Zm9.36,5.68c-.08,.03-.19,.15-.26-.03-.05-.13-.11-.26-.17-.42-.25,.56-.53,1.06-.89,1.51-.07,.09-.02,.21,0,.31,.09,.69-.08,1.28-.64,1.73-.37,.3-.81,.39-1.27,.35-.17-.01-.24,.03-.23,.22,.01,.21,.1,.5-.04,.62-.12,.1-.4,.03-.6,.03-1.01,0-2.03,0-3.04,0-.16,0-.21-.03-.2-.2,.02-.21,.08-.47-.02-.61-.1-.15-.38-.04-.58-.06-.97-.1-1.66-.97-1.54-1.96,.03-.25,.06-.5,.15-.74,.03-.08,.02-.14-.03-.22-.25-.4-.46-.83-.61-1.28-.04-.14-.13-.12-.23-.12-.16,0-.35,.05-.39-.2-.02-.1-.1-.05-.15-.02-.11,.07-.18,.04-.26-.05-.19-.2-.39-.4-.59-.6-.08-.08-.13-.15-.05-.26,.08-.11,.03-.17-.09-.19-.12-.02-.14-.09-.13-.2,0-.25,0-.5,0-.76,0-.15-.04-.31,.19-.33,.11-.01,.07-.11,.03-.17-.07-.11-.04-.18,.05-.26,.2-.19,.4-.39,.6-.59,.08-.08,.15-.13,.26-.05,.12,.09,.17,.01,.19-.09,.02-.11,.08-.13,.18-.13,.3,0,.6,0,.91,0,.03,0,.08,0,.08,0,.06,.36,.46,.1,.61,.33,.16,.23,.39,.4,.58,.6,.04,.04,.04,.08,.02,.12-.11,.15-.07,.25,.11,.28,.1,.02,.07,.09,.07,.15,0,.31,0,.62,0,.93,0,.1-.03,.14-.12,.16-.13,.03-.17,.09-.09,.21,.06,.09,.03,.15-.04,.22-.21,.2-.41,.4-.61,.61-.08,.08-.15,.12-.26,.05-.08-.05-.15-.06-.18,.05-.03,.14-.1,.22-.28,.15,.13,.38,.28,.7,.47,1.03,.11-.15,.21-.3,.32-.44,.59-.71,1.35-1.12,2.28-1.19,.08,0,.24,.05,.22-.12-.01-.14,.12-.34-.18-.39-.39-.07-.66-.46-.68-.87,0-.06,0-.12,0-.17,.02-.17-.01-.28-.21-.34-.33-.11-.49-.46-.41-.8,.07-.31,.16-.61,.25-.91,.03-.1,.03-.14-.08-.19-.51-.26-.72-.72-.59-1.25,.11-.47,.56-.8,1.1-.8,.64,0,1.28,0,1.92,0,1.28,0,2.33,1.06,2.34,2.33,0,.64,0,1.28,0,1.92,0,.57,.17,1.07,.57,1.49,.3,.32,.36,.71,.22,1.12-.02,.07-.07,.13,0,.2,.22,.25,.36,.54,.52,.86,.29-.39,.51-.8,.7-1.27-.2,.08-.36,.14-.51,.2-.19,.08-.16-.1-.21-.18-.05-.09-.1-.17,.06-.23,.34-.13,.68-.26,1.02-.4,.1-.04,.15-.03,.19,.08,.13,.35,.27,.69,.42,1.04,.07,.17-.07,.16-.15,.19ZM2.59,7.92c.03-.16,.2-.23,.29-.18,.28,.15,.37-.07,.53-.19,.1-.08,.1-.15,.04-.26-.08-.15-.03-.31,.11-.36,.21-.06,.22-.19,.19-.35,.02-.18,.03-.33-.21-.39-.13-.03-.18-.21-.09-.35,.07-.12,.04-.19-.06-.27-.07-.05-.12-.12-.18-.18-.06-.07-.11-.08-.2-.04-.22,.1-.34,.05-.43-.18-.03-.09-.07-.13-.17-.12-.1,0-.2,0-.3,0-.1,0-.15,.03-.18,.13-.07,.21-.21,.27-.42,.17-.1-.05-.16-.03-.22,.04-.06,.07-.12,.13-.18,.18-.09,.07-.11,.14-.05,.25,.09,.18,.03,.33-.17,.4-.11,.04-.15,.09-.14,.2,0,.09,0,.17,0,.26-.01,.11,.02,.16,.13,.2,.21,.07,.27,.22,.17,.42-.05,.1-.03,.16,.05,.22,.06,.06,.13,.12,.18,.18,.07,.09,.14,.11,.26,.05,.18-.09,.33-.03,.39,.16,.04,.14,.12,.16,.23,.15,.07,0,.14,0,.22,0,.13,.02,.2-.03,.23-.16ZM5,3.75c.38,.02,.76,0,1.14,0,.12,0,.2-.08,.21-.2,0-.14-.08-.21-.21-.22-.11,0-.22,0-.32,0-.05,0-.09,0-.11-.06-.07-.26,0-.37,.26-.37,.04,0,.07,0,.11,0,.47,0,.74,.28,.7,.75,0,.08-.01,.1,.08,.12,.55,.1,.79,.4,.79,.95,0,.14,.04,.23,.15,.33,.35,.31,.42,.88,.09,1.2-.23,.23-.25,.47-.24,.75,0,.22,.02,.43,0,.65-.02,.2,.05,.26,.25,.26,.63,.02,1.18,.25,1.69,.62,.06,.04,.11,.11,.21,.12,.05-.22,0-.42-.16-.57-.51-.52-.69-1.16-.69-1.87,0-.62,0-1.24,0-1.86-.02-.92-.7-1.72-1.6-1.84-.78-.1-1.57-.04-2.35-.03-.33,0-.58,.32-.58,.64,0,.32,.25,.62,.59,.64Zm1.03,3.25c.21,0,.42,0,.63,0,.04,0,.12-.03,.12,.05,0,.11,.03,.24,0,.34-.03,.09-.15,.04-.23,.04-.15-.01-.21,.03-.19,.19,.01,.14,0,.27,0,.41,0,.29,.19,.49,.44,.49,.25,0,.42-.2,.42-.49,0-.53,0-1.05,0-1.58,0-.15,.03-.24,.18-.32,.32-.17,.37-.62,.06-.79-.23-.13-.25-.28-.23-.48,0-.06,0-.13,0-.19,0-.28-.17-.45-.46-.46-.24,0-.47,0-.71,0-.22,0-.45,.01-.67,0-.18-.01-.24,.07-.28,.22-.05,.22-.11,.43-.18,.64-.13,.43-.11,.49,.32,.62,.19,.06,.29,.14,.26,.35-.02,.15,0,.3,0,.45,.02,.31,.23,.52,.54,.53Zm2.27,6.05c0-.18-.04-.25-.22-.22-.08,.01-.17,0-.26,0-.31-.01-.55-.15-.71-.42-.19-.32-.14-.76,.09-1.03,.26-.3,.62-.36,1.09-.16,0-.44,0-.86,0-1.29,0-.1-.03-.13-.13-.13-.92,0-1.84,0-2.76,0-.11,0-.13,.04-.13,.14,0,.42,0,.85,0,1.29,.05-.02,.09-.03,.13-.05,.48-.19,.98,.03,1.13,.5,.16,.52-.12,1.03-.63,1.13-.14,.03-.29,.03-.43,.01-.18-.02-.21,.06-.21,.22,0,.14,0,.23,.2,.23,.87-.01,1.74-.01,2.61,0,.18,0,.23-.04,.22-.22Zm2.15-1.95c0-1.49-1.21-2.69-2.6-2.77-.15,0-.23,0-.31,.16-.3,.57-1.11,.63-1.43,.08-.18-.31-.4-.23-.64-.22-.06,0-.13,.03-.19,.04-1.22,.28-2.15,1.43-2.16,2.69,0,.65,.41,1.18,1.04,1.28,.54,.09,1.09,.03,1.64,.03,.18,0,.3-.14,.33-.32,.03-.2,0-.38-.2-.48-.17-.09-.33-.06-.47,.08-.08,.07-.16,.15-.23,.23-.09,.11-.17,.11-.29,.04-.2-.12-.42-.21-.63-.32-.07-.04-.12-.05-.2-.01-.28,.12-.28,.12-.4-.17-.03-.07-.04-.11,.04-.13,.24-.06,.25-.23,.23-.43-.01-.14,0-.29,0-.43-.01-.15,.02-.21,.19-.21,.18,0,.28,.03,.25,.24-.02,.11,0,.22,0,.32q0,.41,.38,.57s.01,0,.05,0c0-.61,0-1.21,0-1.82,0-.15,.04-.18,.18-.18,1.18,0,2.36,0,3.54,0,.15,0,.18,.04,.17,.18,0,.55,0,1.11,0,1.66,0,.05-.04,.12,.04,.15,.09,.03,.39-.19,.39-.29,0-.24,0-.48,0-.71,0-.2,.15-.11,.23-.11,.08,0,.21-.07,.21,.12,0,.2,0,.4,0,.6-.01,.16,.02,.27,.18,.31,.18,.05,.1,.15,.05,.24-.05,.09-.06,.28-.24,.15-.14-.1-.28-.08-.41,0-.07,.05-.15,.08-.23,.12-.15,.07-.3,.2-.44,.2-.15,0-.24-.2-.36-.31-.12-.11-.25-.17-.41-.11-.2,.07-.31,.25-.28,.48,.03,.22,.18,.36,.41,.36,.44,0,.88,0,1.32,0,.74,0,1.29-.56,1.29-1.3Zm3.24-5.39c0,1.08-.87,1.94-1.94,1.94-1.07,0-1.95-.88-1.95-1.94,0-1.07,.88-1.94,1.95-1.94,1.08,0,1.94,.87,1.94,1.94Zm-.43,0c0-.83-.67-1.51-1.5-1.51-.82,0-1.51,.68-1.52,1.5,0,.83,.69,1.52,1.52,1.52,.83,0,1.5-.68,1.5-1.51Zm-7.41,4.53c-.19,0-.15,.11-.15,.2,0,.09-.08,.24,.14,.23,.63,0,1.25-.01,1.88,0,.23,0,.13-.15,.14-.25,.02-.11,.01-.2-.16-.19-.3,.02-.6,0-.91,0-.32,0-.63,.01-.95,0Zm5.16-4.51c-.09,.09-.19,.16-.25,.27-.03,.06,.09,.12,.14,.17,.1,.1,.21,.2,.3,.31,.08,.1,.14,.1,.23,0,.4-.42,.81-.83,1.23-1.23,.13-.12,.04-.18-.04-.25-.08-.07-.13-.23-.28-.07-.27,.29-.57,.56-.85,.86-.13,.14-.23,.19-.36,0-.02-.03-.06-.06-.09-.08-.02,0-.04,0-.05,.01Zm-7.68,.84c0,.6-.48,1.08-1.08,1.08-.59,0-1.08-.49-1.08-1.08,0-.59,.49-1.08,1.09-1.08,.6,0,1.07,.48,1.07,1.08Zm-.43,0c0-.36-.28-.65-.64-.65-.35,0-.65,.29-.66,.63,0,.35,.3,.66,.65,.66,.35,0,.64-.29,.64-.65Z"/>
</svg>