<?xml version="1.0" encoding="UTF-8"?>
<svg id="Layer_1" data-name="Layer 1" xmlns="http://www.w3.org/2000/svg" viewBox="0 0 14 14">
  <defs>
    <style>
      .cls-1 {
        fill: #393939;
      }

      .cls-2 {
        fill: none;
      }
    </style>
  </defs>
  <rect class="cls-2" width="14" height="14"/>
  <path class="cls-1" d="M13.41,6.57c-.1-.27-.2-.54-.3-.82-.36-.97-.72-1.94-1.08-2.91-.13-.34-.44-.51-.76-.4-.34,.12-.68,.24-1.01,.38-.27,.11-.42,.35-.36,.63,.04,.21-.06,.21-.2,.2-.28-.02-.53-.15-.79-.26-.71-.3-1.41-.34-2.09,.07-.09,.05-.15,.02-.22-.02-.51-.29-1.04-.35-1.61-.24-.3,.06-.6,.13-.9,.14-.11,0-.19,0-.22-.14-.05-.19-.19-.32-.39-.38-.3-.1-.6-.2-.91-.29-.4-.13-.72,.03-.85,.43-.21,.65-.41,1.3-.63,1.95-.2,.61-.4,1.22-.61,1.83-.03,.16-.04,.33,0,.49,.15,.29,.43,.38,.71,.44,.41,.1,.8,.43,1.28,.07-.07,.24-.19,.4-.26,.57-.25,.54,.09,1.14,.67,1.18,.14,0,.17,.05,.17,.19-.02,.66,.55,1.06,1.15,.81,.12-.05,.15-.03,.21,.08,.19,.33,.57,.5,.92,.38,.14-.05,.18,0,.23,.11,.27,.57,1.05,.78,1.43,.11,.05-.09,.1-.09,.19-.05,.56,.25,1.06-.08,1.05-.68,0-.08,0-.11,.1-.13,.52-.09,.72-.31,.78-.85,0-.08,.03-.1,.11-.08,.61,.11,1.02-.21,1.07-.82,0-.09,.02-.11,.12-.1,.48,.05,.7-.09,.86-.57,.03-.11,0-.23,.01-.34,0-.04,0-.09,.06-.07,.24,.36,.48,.44,.88,.29,.25-.1,.51-.19,.76-.28,.44-.17,.57-.47,.41-.9Zm-11.07,.6c-.02,.06-.04,.13-.06,.19-.06,.16-.18,.22-.34,.16-.29-.09-.58-.18-.87-.28-.24-.08-.29-.18-.21-.43,.27-.86,.55-1.71,.83-2.57,.13-.39,.25-.78,.38-1.18,.04-.13,.11-.23,.3-.24,.13,.04,.28,.09,.44,.14,.17,.06,.35,.11,.52,.17,.22,.08,.27,.18,.2,.41-.39,1.21-.78,2.42-1.17,3.63Zm.62,1.96c-.33,0-.56-.31-.44-.62,.12-.31,.29-.61,.47-.89,.13-.2,.4-.25,.59-.13,.22,.13,.32,.38,.21,.61-.13,.27-.28,.54-.43,.8-.09,.15-.23,.23-.4,.23Zm1.32,.83c-.11,.2-.32,.28-.52,.23-.22-.06-.36-.23-.36-.46,0-.09,.02-.17,.06-.25,.17-.32,.34-.64,.52-.96,.15-.27,.42-.37,.66-.24,.24,.13,.32,.4,.17,.68-.17,.33-.35,.67-.54,1Zm1.27,.4c-.14,.25-.39,.33-.64,.2-.22-.11-.32-.38-.2-.62,.12-.24,.25-.48,.38-.71,.11-.19,.33-.26,.53-.2,.2,.06,.33,.25,.33,.51,0,.03-.02,.11-.06,.18-.11,.21-.22,.43-.35,.64Zm.97,.81c-.15,.13-.31,.06-.45-.04-.18-.13-.28-.36-.22-.54,.06-.18,.14-.35,.27-.49,.22-.24,.58-.22,.78,.03,.04,.05,.06,.12,.07,.22-.09,.28-.2,.6-.46,.82Zm1.29-.47c-.11,.15-.27,.19-.45,.11-.11-.04-.14-.1-.09-.21,.1-.25,.08-.49-.09-.72,.22,.08,.43,.16,.6,.32,.14,.13,.14,.34,.03,.5Zm3.12-2.92c-.06,.32-.28,.43-.57,.28-.49-.26-.98-.52-1.47-.79-.19-.1-.38-.2-.57-.31-.12-.06-.25-.14-.34,.02-.09,.16,.04,.23,.16,.29,.49,.27,.99,.54,1.48,.8,.14,.08,.26,.17,.3,.34,.05,.21,0,.39-.17,.53-.18,.14-.37,.14-.57,.04-.51-.27-1.01-.54-1.52-.82-.05-.03-.1-.05-.14-.08-.11-.06-.21-.06-.28,.06-.08,.13,.01,.2,.11,.26,.37,.2,.74,.4,1.11,.6,.16,.08,.27,.2,.3,.39,.03,.19-.03,.35-.18,.47-.16,.12-.34,.15-.52,.06-.42-.22-.84-.44-1.26-.66-.07-.04-.14-.09-.23-.05-.15,.06-.15,.19,0,.36-.17,.05-.26,.06-.28-.18-.04-.44-.42-.73-.87-.7-.12,0-.17,0-.2-.14-.1-.43-.44-.67-.89-.64-.06,0-.12,.03-.15-.07-.23-.72-.72-.9-1.41-.51-.02-.28,.07-.53,.15-.79,.28-.88,.57-1.76,.85-2.64,.04-.14,.1-.17,.24-.17,.38,.02,.74-.09,1.1-.15,.49-.08,.94,0,1.19,.16-.29,.32-.58,.64-.88,.97-.17,.19-.36,.37-.51,.58-.1,.14-.1,.26,.02,.4,.45,.54,1.02,.67,1.81,.41,.33-.11,.66-.26,1-.33,.24-.05,.45,0,.66,.12,.54,.3,1.09,.57,1.64,.86,.24,.13,.47,.27,.67,.45,.19,.17,.27,.37,.22,.62Zm.21-.7c-.66-.65-1.54-.93-2.29-1.4-.62-.39-1.2-.36-1.83-.1-.29,.12-.58,.23-.89,.26-.33,.03-.6-.08-.83-.31-.06-.07-.07-.12,0-.19,.49-.51,.96-1.05,1.54-1.47,.56-.4,1.17-.45,1.81-.19,.3,.12,.59,.27,.92,.32,.11,.02,.23,.03,.34,0,.11-.03,.16,0,.19,.1,.35,.95,.7,1.9,1.05,2.85,.01,.03,.03,.06-.02,.11Zm1.8,.04c-.31,.12-.62,.24-.93,.34-.19,.06-.29,0-.38-.23-.3-.81-.6-1.62-.9-2.43-.15-.41-.3-.81-.45-1.22-.1-.27-.05-.36,.21-.46,.24-.09,.48-.18,.72-.27,.31-.11,.39-.08,.5,.23,.39,1.06,.78,2.12,1.18,3.17,.07,.2,.17,.4,.2,.57,.01,.17-.04,.26-.16,.3Z"/>
</svg>