<?xml version="1.0" encoding="UTF-8"?>
<svg id="Layer_1" data-name="Layer 1" xmlns="http://www.w3.org/2000/svg" viewBox="0 0 14 14">
  <defs>
    <style>
      .cls-1 {
        fill: #393939;
      }

      .cls-2 {
        fill: none;
      }
    </style>
  </defs>
  <rect class="cls-2" width="14" height="14"/>
  <path class="cls-1" d="M7.01,.82c1.69,0,3.38,0,5.06,0,.68,0,1.11,.43,1.11,1.1,0,2.7,0,5.4,0,8.1,0,.67-.43,1.11-1.1,1.12-.02,0-.04,0-.06,0-.4,0-.39,0-.39-.39,0-.11,.03-.15,.14-.14,.12,0,.24,0,.37,0,.32,0,.47-.14,.52-.45,.01-.07,0-.14,0-.21,0-2.65,0-5.3,0-7.94,0-.04,0-.08,0-.12-.02-.36-.2-.54-.55-.55-.15,0-.31,0-.46,0-3.21,0-6.43,0-9.64,0-.1,0-.19,0-.29,.02-.21,.05-.33,.17-.38,.38-.02,.09-.02,.18-.02,.27,0,2.65,0,5.3,0,7.94,0,.03,0,.06,0,.1,.01,.39,.19,.56,.57,.56,1.04,0,2.09,0,3.13,0,.1,0,.19,0,.29,0,.09,0,.13,.01,.14,.12,.01,.41,.02,.41-.39,.41-1.04,0-2.09,0-3.13,0-.51,0-.89-.25-1.06-.68-.05-.12-.07-.25-.07-.38,0-2.73,0-5.46,0-8.19,0-.62,.45-1.06,1.07-1.06,1.71,0,3.41,0,5.12,0ZM2.72,4.42c-.37,0-.36,0-.37,.38,0,.13,.04,.16,.16,.16,.69,0,1.38,0,2.07,0,.36,0,.36,0,.36-.37,0-.14-.05-.17-.18-.17-.37,0-.75,0-1.12,0-.31,0-.62,0-.93,0Zm1.32,2.08c.39,0,.38,0,.38-.38,0-.12-.03-.15-.15-.15-.51,0-1.02,0-1.52,0-.39,0-.39,0-.39,.39,0,.11,.03,.14,.14,.14,.3,0,.59,0,.89,0,.22,0,.44,0,.66,0Zm.74-3.62c-.37,0-.37,0-.37,.38,0,.12,.03,.16,.15,.15,.34,0,.68,0,1.02,0,.4,0,.39,0,.38-.4,0-.12-.05-.14-.15-.13-.21,0-.41,0-.62,0-.14,0-.28,0-.42,0Zm-1.75,.53c.4,0,.4,0,.37-.41,0-.09-.03-.12-.12-.12-.18,0-.36,0-.54,0-.39,0-.39,0-.38,.4,0,.1,.02,.14,.13,.13,.13,0,.26,0,.39,0,.05,0,.1,0,.15,0Zm7.7,5.29c-.09,.09-.13,.18-.12,.3,0,1.32,0,2.64,0,3.96v.23c-.52-.26-1.03-.47-1.5-.76-.4-.25-.73-.24-1.12,0-.43,.26-.9,.46-1.35,.69-.04,.02-.08,.05-.14,.04v-.2c0-1.32,0-2.64,0-3.96,0-.12-.03-.2-.11-.29-1.61-1.66-1.04-4.3,1.11-5.12,1.7-.65,3.69,.42,4.07,2.2,.24,1.11-.06,2.08-.83,2.91Zm-.65,.49c-1.03,.54-2.05,.53-3.07,0v3.17c.06-.03,.11-.04,.15-.07,.42-.21,.84-.41,1.25-.63,.1-.05,.17-.05,.27,0,.42,.22,.84,.43,1.27,.64,.04,.02,.08,.07,.13,.04v-3.15Zm1.04-2.7c0-1.51-1.18-2.57-2.56-2.57-1.44,0-2.6,1.13-2.59,2.57,0,1.57,1.24,2.6,2.57,2.58,1.31,.03,2.58-.99,2.58-2.57Zm-1.03,.01c0,.83-.61,1.53-1.55,1.54-.87,0-1.54-.68-1.54-1.56,0-.88,.67-1.54,1.55-1.53,.89,0,1.54,.66,1.54,1.55Zm-.51,0c.01-.55-.47-1.03-1.02-1.04-.56,0-1.03,.46-1.04,1.02-.01,.56,.46,1.03,1.03,1.03,.57,0,1.03-.44,1.04-1.01Z"/>
</svg>