<?xml version="1.0" encoding="UTF-8"?>
<svg id="Layer_1" data-name="Layer 1" xmlns="http://www.w3.org/2000/svg" viewBox="0 0 14 14">
  <defs>
    <style>
      .cls-1 {
        fill: #393939;
      }

      .cls-2 {
        fill: none;
      }
    </style>
  </defs>
  <rect class="cls-2" width="14" height="14"/>
  <path class="cls-1" d="M7,4.14c.55,0,1.11,0,1.66,0,.4,0,.66-.26,.67-.67,0-.44,0-.88,0-1.33,0-.4-.24-.65-.65-.67-.17,0-.34,0-.51,0-.2,0-.31-.11-.3-.27,.02-.18,.14-.24,.3-.23,.27,.01,.54-.03,.81,.04,.48,.13,.82,.53,.83,1.03,0,.49,0,.98,0,1.46,.02,.53-.39,1.13-1.12,1.14-1.13,.01-2.27,.01-3.4,0-.62,0-1.07-.4-1.12-1.03-.05-.57-.06-1.15,.01-1.72,.07-.51,.53-.9,1.04-.92,.22,0,.45,0,.67,0,.16,0,.27,.07,.28,.24,.01,.16-.09,.26-.28,.26-.19,0-.38,0-.57,0-.43,.01-.66,.25-.66,.68,0,.44,0,.88,0,1.33,0,.4,.26,.65,.66,.65,.56,0,1.12,0,1.68,0ZM2.79,7.42c-.08,.06-.17,.11-.23,.17-.11,.11-.12,.24,0,.35,.11,.11,.24,.11,.35,0,.23-.22,.45-.44,.67-.67,.11-.11,.11-.24,0-.36-.22-.23-.44-.45-.67-.67-.11-.11-.24-.12-.35,0-.12,.12-.1,.25,.01,.37,.06,.07,.15,.12,.19,.22-.7,.06-1.34-.38-1.52-1.04-.11-.41-.05-.84-.05-1.26,0-.75,.55-1.35,1.29-1.42,.29-.03,.59-.01,.89-.02,.19,0,.29-.1,.28-.26-.01-.17-.12-.24-.28-.23-.25,0-.5,0-.75,0-.84,.03-1.44,.43-1.78,1.2-.26,.59-.16,1.22-.14,1.83,0,.27,.11,.53,.26,.76,.41,.66,1.02,.97,1.79,.97,.02,.02,.04,.04,.05,.07Zm8.59,4.16c.99-.02,1.78-.7,1.93-1.67,.06-.39,.02-.79,.02-1.18,0-.79-.52-1.49-1.25-1.78-.47-.18-.95-.1-1.43-.12-.19,0-.3,.09-.29,.25,.01,.17,.12,.24,.28,.24,.24,0,.47,0,.71,0,.7,0,1.25,.43,1.43,1.11,.11,.41,.05,.84,.05,1.26,0,.32-.12,.62-.34,.87-.32,.37-.73,.56-1.25,.48,.05-.08,.13-.13,.2-.19,.11-.11,.13-.25,0-.37-.11-.11-.24-.09-.35,.01-.23,.22-.45,.44-.67,.67-.1,.11-.11,.23,0,.34,.23,.24,.46,.47,.7,.7,.1,.1,.23,.1,.34-.01,.1-.1,.1-.23,0-.34-.07-.08-.14-.15-.24-.26,.08,0,.12,0,.15,0Zm-9.34-.57c.07-.06,.15-.11,.22-.17,.11-.11,.13-.25,0-.37-.12-.12-.25-.09-.37,.02-.22,.21-.43,.43-.64,.64-.12,.13-.12,.26,0,.38,.21,.22,.43,.43,.64,.64,.11,.11,.25,.14,.37,.02,.12-.12,.1-.25-.01-.37-.06-.07-.13-.14-.22-.23,.47,0,.9,0,1.33,0,.12,0,.22-.04,.27-.16,.04-.1,.03-.2-.05-.27-.08-.07-.18-.08-.28-.08-.41,0-.81,0-1.22,0-.01-.02-.03-.04-.04-.07ZM11.22,2.36c.07-.05,.15-.1,.22-.17,.11-.11,.13-.25,.01-.37-.12-.11-.25-.09-.37,.02-.22,.21-.43,.43-.64,.64-.12,.13-.12,.26,0,.38,.21,.22,.43,.43,.64,.64,.12,.11,.25,.14,.37,.02,.12-.12,.1-.25-.01-.37-.06-.07-.13-.13-.23-.24,.13,0,.2,0,.27,0,.37,0,.74,0,1.11,0,.16,0,.25-.09,.25-.24,0-.13-.07-.22-.21-.24-.06,0-.12,0-.18,0-.39,0-.79,0-1.18,0-.02-.02-.04-.05-.05-.07Zm-5.5,.2c-.21,0-.34,.09-.34,.25,0,.15,.12,.25,.34,.26,.86,0,1.71,0,2.57,0,.22,0,.33-.09,.33-.25,0-.17-.1-.25-.33-.25-.43,0-.86,0-1.29,0-.43,0-.86,0-1.29,0Zm1.3-1.58c-.14,.02-.22,.1-.23,.25,0,.14,.11,.25,.25,.25,.14,0,.24-.12,.24-.26,0-.14-.12-.25-.26-.24Zm2.79,11.1c-.01,.62-.5,1.09-1.12,1.09-.57,0-1.15,0-1.72,0-.54,0-1.08,0-1.62,0-.63,0-1.1-.37-1.17-1-.07-.57-.07-1.15,0-1.71,.07-.57,.52-.96,1.1-.96,1.14-.01,2.28-.01,3.42,0,.64,0,1.1,.48,1.11,1.12,0,.49,0,.98,0,1.46Zm-.48-1.46c0-.36-.27-.62-.63-.62-1.13,0-2.27,0-3.4,0-.38,0-.63,.26-.63,.63,0,.45,0,.9,0,1.34,0,.43,.24,.68,.67,.68,.55,0,1.11,0,1.66,0,.57,0,1.13,0,1.7,0,.37,0,.63-.26,.64-.63,0-.47,0-.94,0-1.4Zm.48-2.77c-.01,.58-.47,1.04-1.05,1.05-1.17,.01-2.35,0-3.52,0-.57,0-1.01-.41-1.07-1.02-.05-.58-.06-1.16,.02-1.74,.07-.5,.53-.89,1.03-.89,.59,0,1.19,0,1.78,0h0c.57,0,1.13,0,1.7,0,.62,0,1.09,.45,1.11,1.07,.01,.51,0,1.02,0,1.52Zm-.48-1.46c0-.38-.26-.65-.65-.65-1.13,0-2.25,0-3.38,0-.38,0-.64,.27-.64,.66,0,.44,.02,.88,0,1.33-.02,.43,.34,.71,.71,.7,.54-.01,1.08,0,1.62,0,.56,0,1.12,0,1.68,0,.39,0,.66-.27,.66-.66,0-.45,0-.91,0-1.37Zm-1.02,5.2c.21,0,.31-.08,.31-.25,0-.19-.13-.25-.29-.25-.88,0-1.77,0-2.65,0-.16,0-.29,.06-.3,.25,0,.15,.12,.25,.31,.25,.44,0,.87,0,1.31,0,.44,0,.87,0,1.31,0Zm-2.64-4.76c-.17,0-.27,.07-.29,.23-.02,.14,.11,.25,.29,.25,.53,0,1.07,0,1.6,0,.17,0,.27-.09,.27-.24,0-.16-.1-.25-.27-.24-.27,0-.54,0-.81,0-.26,0-.53,0-.79,0Zm2.47,.24c0,.16,.09,.24,.25,.24,.15,0,.23-.09,.23-.23,0-.16-.08-.24-.25-.25-.14,.01-.24,.08-.23,.24Z"/>
</svg>