<?xml version="1.0" encoding="UTF-8"?>
<svg id="Layer_1" data-name="Layer 1" xmlns="http://www.w3.org/2000/svg" viewBox="0 0 12.81 12.72">
  <defs>
    <style>
      .cls-1 {
        fill: #393939;
      }

      .cls-2 {
        fill: none;
      }
    </style>
  </defs>
  <rect class="cls-2" x=".5" y=".28" width="11.82" height="11.82"/>
  <path class="cls-1" d="M12.81,1.65c0-.59-.3-.89-.89-.89-1.84,0-3.67,0-5.51,0-1.83,0-3.66,.01-5.49,0C.31,.75,0,1.17,0,1.66,.01,4.68,.01,7.71,0,10.73c0,.52,.35,.91,.91,.91,3.67-.01,7.34-.01,11,0,.53,0,.9-.36,.9-.9-.01-3.03,0-6.06,0-9.09ZM.4,2.73c.01-.36,0-.73,0-1.09,0-.35,.13-.49,.48-.49,3.69,0,7.38,0,11.07,0,.33,0,.47,.14,.47,.48,0,.37,0,.74,0,1.12,0,.16-.04,.21-.21,.21-1.94,0-3.87,0-5.81,0s-3.86,0-5.79,0c-.18,0-.23-.05-.22-.22ZM12.42,10.76c0,.34-.14,.48-.49,.48-3.68,0-7.36,0-11.04,0-.34,0-.48-.15-.48-.49,0-2.41,0-4.81,0-7.22,0-.18,.07-.2,.22-.2,1.94,0,3.87,0,5.81,0s3.86,0,5.79,0c.16,0,.21,.03,.21,.2,0,2.41,0,4.81,0,7.22Zm-.96-2.81c-.16-.13-.31-.26-.46-.4-.05-.04-.1-.08-.11-.17q-.02-.63,.47-1.05s.07-.06,.11-.1c.11-.09,.13-.19,.05-.32-.16-.27-.31-.55-.47-.82-.07-.12-.16-.16-.3-.1-.19,.08-.4,.14-.59,.21-.07,.02-.13,.03-.2,0-.36-.19-.7-.4-.66-.89,0-.05-.03-.11-.03-.16-.02-.16-.11-.22-.26-.22-.2,0-.41,0-.61,0-.53,0-.54,0-.62,.52-.04,.28-.09,.54-.42,.61-.05,.01-.1,.05-.14,.09-.1,.1-.2,.09-.32,.04-.21-.09-.43-.15-.62-.22-.12,0-.18,.05-.22,.12-.17,.28-.33,.57-.49,.85-.06,.1-.03,.19,.05,.26,.07,.06,.13,.13,.21,.18,.29,.19,.46,.43,.37,.8-.01,.05,0,.1,0,.15,.03,.1-.02,.16-.09,.21-.16,.13-.32,.27-.48,.41-.1,.08-.13,.18-.06,.29,.16,.28,.32,.56,.48,.84,.07,.12,.16,.16,.3,.11,.19-.08,.39-.14,.59-.21,.06-.02,.12-.04,.2,0,.37,.19,.69,.41,.66,.89,0,.05,.03,.11,.03,.16,.02,.16,.11,.21,.26,.21,.31,0,.62,0,.93,0,.15,0,.23-.07,.25-.22,.03-.21,.08-.41,.12-.62,.01-.06,.03-.11,.09-.15,.37-.27,.75-.37,1.16-.11,.03,.02,.07,.02,.1,.03,.14,.07,.24,.02,.31-.11,.15-.27,.3-.54,.46-.8,.08-.13,.06-.23-.06-.33Zm-.62,.74c-.06,.08-.11,.1-.19,.06-.43-.24-.79-.19-1.22,.09-.29,.19-.43,.37-.46,.69,0,.07-.03,.14-.04,.21,0,.1-.06,.15-.16,.14-.08,0-.17,0-.25,0q-.33,0-.38-.33s-.01-.08-.01-.13c-.02-.27-.12-.48-.42-.54-.08-.02-.16-.06-.22-.12-.24-.25-.49-.22-.78-.09-.36,.16-.37,.14-.56-.2-.16-.28-.17-.29,.09-.49,.28-.21,.47-.43,.35-.8-.02-.06-.02-.13,0-.19,.11-.34-.06-.53-.31-.72-.31-.23-.3-.25-.1-.58q.15-.25,.19-.26c.19,.06,.37,.12,.55,.19,.16,.07,.29,.05,.42-.07,.15-.14,.33-.23,.53-.3,.12-.04,.18-.11,.2-.24,.03-.17,.07-.34,.1-.51,0-.02,0-.05,0-.06,.14-.23,.37-.06,.55-.1,.09-.02,.18-.02,.2,.12,.03,.19,.07,.37,.1,.56,.02,.12,.07,.2,.2,.24,.21,.07,.41,.18,.58,.33,.1,.09,.2,.1,.33,.05,.17-.07,.36-.12,.53-.19,.08-.03,.13-.03,.16,.06,0,0,0,.01,.01,.02,.3,.47,.31,.48-.13,.84-.18,.15-.26,.29-.2,.52,.04,.15,.03,.32,0,.48-.04,.18,0,.31,.16,.41,.02,.01,.04,.04,.06,.05,.44,.37,.43,.37,.11,.85Zm-6.39,.4c-.25-.08-.5-.18-.76-.25-.16-.04-.19-.12-.19-.27,0-.3,0-.6,0-.9,0-.34-.24-.58-.58-.58-.22,0-.45,0-.67,0-.23,0-.46,0-.69,0-.32,0-.57,.26-.58,.58,0,.46,0,.91,0,1.37,0,.33,.26,.58,.59,.58,.27,0,.55,.01,.82,0,.15,0,.21,.05,.25,.18,.08,.28,.19,.56,.28,.84,.03,.1,.08,.18,.2,.19,.13,0,.18-.09,.21-.19,.08-.22,.15-.45,.22-.68,.03-.12,.09-.19,.21-.22,.23-.06,.45-.15,.68-.22,.1-.03,.2-.08,.2-.21,0-.13-.09-.18-.19-.21Zm-1.88-.63c-.1-.04-.18-.04-.25,.04-.07,.07-.07,.15-.03,.23,0,0,0,.01,0,.02,.05,.15,.17,.37,.12,.44-.09,.11-.31,.04-.47,.04-.56,0-.56,0-.56-.57,0-.3,0-.6,0-.9,0-.23,.06-.29,.29-.29,.2,0,.41,0,.61,0,.2,0,.39,0,.59,0,.18,0,.28,.07,.27,.26,0,.26,0,.52,0,.78,0,.11-.03,.13-.13,.1-.14-.05-.29-.09-.44-.15Zm.6,1.41s-.05,.03-.08,0c-.1-.3-.2-.59-.32-.93,.37,.12,.7,.23,1.02,.34-.33,.09-.58,.23-.62,.59Zm.35-4.65c0-.22,0-.45,0-.67,0-.36-.22-.6-.58-.61-.45-.01-.9-.01-1.34,0-.34,0-.6,.25-.61,.58,0,.46,0,.92,0,1.39,0,.3,.22,.55,.52,.56,.5,.03,1.01,.03,1.51,0,.29-.02,.49-.25,.5-.55,0-.23,0-.46,0-.69h0Zm-.38,.62c0,.16-.08,.24-.25,.24-.21,0-.42,0-.63,0-.2,0-.41,0-.61,0-.18,0-.27-.07-.27-.25,0-.42,0-.84,0-1.26,0-.16,.08-.24,.25-.24,.42,0,.84,0,1.26,0,.17,0,.25,.08,.24,.24,0,.42,0,.84,0,1.26ZM1.58,1.47c-.32-.01-.6,.25-.61,.57,0,.32,.26,.59,.58,.6,.32,0,.59-.26,.6-.58,0-.31-.26-.58-.57-.59Zm-.02,.77c-.12,0-.19-.09-.18-.21,0-.11,.08-.17,.2-.17,.12,0,.17,.08,.17,.18-.02,.12-.07,.19-.19,.19Zm1.51-.77c-.33,0-.59,.26-.58,.59,0,.33,.27,.58,.59,.58,.32,0,.56-.26,.56-.59,0-.32-.25-.57-.57-.58Zm0,.77c-.12,0-.2-.07-.2-.19,0-.11,.08-.18,.19-.18,.12,0,.18,.07,.19,.18,0,.11-.06,.19-.18,.19Zm1.49-.77c-.33,0-.58,.27-.57,.6,0,.32,.27,.57,.59,.56,.33,0,.58-.27,.57-.6,0-.32-.27-.57-.59-.56Zm.02,.78c-.12-.02-.19-.08-.19-.19,0-.13,.08-.19,.2-.18,.12,0,.18,.08,.17,.19,0,.12-.08,.17-.18,.18Zm3.97,3.51c-.73,0-1.34,.61-1.34,1.34,0,.75,.6,1.35,1.34,1.35,.75,0,1.35-.6,1.35-1.34,0-.74-.61-1.36-1.35-1.35Zm0,2.3c-.51,0-.95-.44-.95-.96,0-.52,.44-.95,.98-.94,.53,0,.95,.43,.95,.95,0,.53-.44,.96-.97,.95Z"/>
</svg>