<?xml version="1.0" encoding="UTF-8"?>
<svg id="Layer_1" data-name="Layer 1" xmlns="http://www.w3.org/2000/svg" viewBox="0 0 14 14">
  <defs>
    <style>
      .cls-1 {
        fill: #393939;
      }

      .cls-2 {
        fill: none;
      }
    </style>
  </defs>
  <rect class="cls-2" width="14" height="14"/>
  <path class="cls-1" d="M13.56,2.89c0-.86-.62-1.59-1.57-1.57-1.64,.03-3.27,0-4.91,0-1.65,0-3.3,.02-4.95,0-.88-.02-1.58,.65-1.57,1.58,.02,2.77,.02,5.54,0,8.32,0,.92,.68,1.58,1.57,1.58,3.29-.02,6.59,0,9.88,0,.96,0,1.55-.59,1.55-1.56,0-2.78-.02-5.56,0-8.34ZM.99,4.12c.01-.44,0-.88,0-1.32,0-.6,.41-1.02,1.01-1.04,.31-.01,.62,0,.93,0,3.02,0,6.03,0,9.05,0,.56,0,.93,.25,1.08,.74,.04,.13,.04,.25,.04,.38,0,.41-.01,.83,0,1.24,0,.19-.06,.22-.23,.22-1.95,0-3.9,0-5.84,0s-3.9,0-5.84,0c-.17,0-.22-.04-.21-.21ZM11.96,12.36c-3.27-.01-6.55,0-9.82,0-.58,0-.94-.25-1.1-.74-.03-.11-.03-.21-.03-.32,0-2.12,0-4.23,0-6.35,0-.16,.06-.19,.2-.18,1.95,0,3.91,0,5.86,0,1.94,0,3.88,0,5.82,0,.18,0,.24,.03,.24,.23,0,2.07-.02,4.14,0,6.21,0,.79-.53,1.17-1.17,1.17ZM7.62,6.34c-.09,.43-.19,.92-.29,1.41-.17,.82-.35,1.63-.52,2.45-.06,.27-.13,.37-.28,.34-.16-.03-.2-.14-.14-.43,.26-1.24,.52-2.48,.78-3.72,.01-.06,.03-.12,.04-.18,.03-.14,.11-.22,.26-.19,.14,.03,.18,.13,.15,.32Zm-1.73,.71c0,.15-.07,.2-.14,.26-.33,.28-.66,.56-.99,.84-.1,.09-.11,.13,0,.22,.34,.28,.68,.58,1.02,.86,.1,.08,.14,.18,.09,.3-.05,.13-.2,.16-.32,.06-.46-.38-.92-.77-1.37-1.17-.12-.1-.12-.23,0-.34,.45-.39,.91-.78,1.37-1.17,.07-.06,.16-.07,.25-.03,.08,.04,.11,.12,.11,.15Zm2.33,2.4c-.01-.11,.06-.17,.14-.23,.33-.28,.65-.57,.99-.84,.12-.1,.11-.15,0-.24-.31-.26-.62-.52-.93-.79-.04-.03-.07-.06-.11-.09-.1-.1-.13-.21-.03-.32,.09-.1,.21-.09,.31,0,.45,.38,.91,.77,1.36,1.16,.12,.11,.12,.25,0,.35-.45,.39-.9,.77-1.36,1.16-.07,.06-.16,.08-.24,.04-.07-.04-.11-.1-.11-.18ZM4.22,2.38c-.38,0-.67,.31-.67,.7,0,.38,.3,.66,.68,.66,.37,0,.67-.3,.67-.67,0-.38-.31-.69-.68-.68Zm-.01,.92c-.15-.01-.24-.11-.23-.26,.01-.14,.11-.23,.26-.22,.15,0,.22,.11,.22,.27-.02,.14-.1,.22-.25,.21Zm-2.07-.93c-.36,0-.67,.31-.67,.67,0,.37,.3,.68,.68,.68,.38,0,.69-.3,.69-.68,0-.37-.32-.68-.69-.68Zm.01,.92c-.15,0-.24-.09-.25-.24,0-.15,.1-.23,.23-.25,.16,.01,.25,.09,.26,.24,0,.15-.09,.24-.24,.24Zm4.18-.91c-.37,0-.69,.3-.69,.67,0,.37,.31,.68,.69,.68,.37,0,.66-.29,.67-.67,0-.38-.28-.67-.66-.68Zm-.02,.92c-.14-.02-.24-.09-.23-.24,0-.15,.09-.24,.24-.24,.15,0,.24,.09,.24,.24,0,.15-.09,.23-.24,.24Z"/>
</svg>