<?xml version="1.0" encoding="UTF-8"?>
<svg id="Layer_1" data-name="Layer 1" xmlns="http://www.w3.org/2000/svg" viewBox="0 0 14 14">
  <defs>
    <style>
      .cls-1 {
        fill: #393939;
      }

      .cls-2 {
        fill: none;
      }
    </style>
  </defs>
  <rect class="cls-2" width="14" height="14"/>
  <path class="cls-1" d="M12.34,5.56c-.1-.08-.12-.15-.09-.26,.08-.37,.07-.74-.03-1.1-.32-1.13-1.27-1.83-2.45-1.8-.13,0-.19-.03-.25-.15-.52-1.01-1.35-1.57-2.49-1.59-1.11-.02-1.95,.5-2.5,1.47-.11,.19-.19,.35-.43,.25-.16,.02-.31,.02-.46,.05-1.34,.29-2.14,1.49-1.9,2.85,.02,.13,0,.21-.11,.29-1.12,.85-1.03,2.55,.17,3.3,.38,.24,.81,.32,1.25,.29,.14,0,.19,.03,.18,.17-.01,.2,0,.41,0,.61,0,.26,.14,.49,.36,.51,.26,.02,.32,.16,.38,.36,.02,.06,.04,.13,.08,.18,.06,.1,.06,.18-.02,.28-.17,.2-.17,.47,.01,.67,.19,.21,.39,.41,.6,.6,.16,.15,.44,.19,.59,.06,.17-.16,.31-.11,.47-.02,.07,.04,.16,.07,.24,.09,.1,.03,.15,.07,.15,.19,.02,.28,.21,.47,.49,.48,.28,.01,.57,.01,.85,0,.22,0,.42-.13,.44-.34,.02-.29,.21-.34,.41-.41,.06-.02,.11-.04,.16-.07,.09-.06,.15-.05,.24,.02,.21,.18,.49,.18,.69,0,.2-.19,.4-.39,.59-.59,.15-.17,.21-.4,.08-.56-.17-.22-.1-.39,0-.58,.03-.05,.04-.11,.06-.17,.03-.1,.08-.14,.19-.15,.3-.02,.47-.23,.48-.53,0-.14,0-.28,0-.42q0-.37,.37-.38c.88,0,1.63-.54,1.91-1.35,.28-.84,.01-1.72-.7-2.26Zm-2.08,4.16c0,.28,0,.28-.28,.29-.17,0-.26,.09-.29,.24-.06,.27-.16,.52-.3,.75-.12,.19-.1,.34,.07,.46,.15,.11,.13,.2,0,.31-.12,.1-.23,.22-.34,.33-.07,.07-.11,.08-.19,0-.27-.26-.28-.25-.61-.08-.19,.1-.39,.19-.61,.24-.24,.06-.3,.12-.28,.37,0,.17-.04,.25-.22,.22-.07-.01-.15,0-.22,0-.12,0-.25,.03-.35-.01-.13-.06-.04-.22-.06-.33-.03-.15-.13-.21-.25-.24-.25-.06-.48-.15-.7-.28-.26-.15-.31-.15-.51,.07-.1,.11-.17,.12-.26,0-.11-.13-.24-.25-.36-.37-.08-.07-.07-.11,0-.19,.26-.27,.25-.27,.07-.61-.1-.19-.19-.39-.24-.61-.06-.25-.11-.3-.37-.29-.17,0-.24-.04-.22-.22,.03-.2-.08-.46,.04-.59,.12-.12,.38-.03,.57-.03,.16,0,.37-.05,.48,.03,.07,.05,.01,.29,.02,.45,.01,1.06,.87,1.99,1.92,2.09,1.12,.1,2.11-.61,2.34-1.68,.05-.24,.06-.49,.03-.73-.01-.14,.04-.17,.16-.16,.14,0,.28,0,.45,0,.15,.01,.37-.08,.49,.03,.12,.11,.03,.34,.04,.52Zm2.37-2.42c-.06,.64-.42,1.07-1.02,1.29-.17,.06-.35,.09-.53,.08-.48,0-.95,0-1.43,0-.48,0-.95,0-1.43,0-.06,0-.12,0-.18,0-.12,.02-.18,.1-.19,.22,0,.13,.05,.22,.18,.25,.06,.02,.12,.01,.18,.01,.43,0,.44,.02,.44,.45-.02,.87-.7,1.57-1.58,1.63-.83,.06-1.58-.58-1.72-1.42-.03-.18-.02-.35,0-.53,.01-.1,.06-.14,.16-.13,.05,0,.11,0,.16,0,.35,0,.45-.06,.44-.25,0-.19-.09-.24-.45-.24-.63,0-1.27,0-1.9,0-.3,0-.6,0-.89,0-.73,0-1.3-.46-1.49-1.19-.16-.62,.15-1.3,.75-1.64,.17-.1,.24-.21,.17-.4-.46-1.43,.67-2.75,2.15-2.52,.22,.03,.29-.01,.38-.25,.36-.94,1.21-1.53,2.2-1.52,.94,.01,1.78,.59,2.11,1.47,.12,.31,.15,.33,.48,.28,1.08-.17,2.14,.72,2.17,1.8,0,.24-.02,.47-.09,.7-.08,.25-.06,.3,.17,.43,.55,.33,.82,.82,.76,1.46Zm-3.27-1.66c0-.38,0-.77,0-1.15,0-.2,.09-.31,.25-.31,.19,0,.25,.13,.25,.29,0,.78,0,1.56,0,2.34,0,.16-.06,.29-.24,.3-.16,0-.25-.1-.26-.31,0-.39,0-.78,0-1.17Zm-2.13,3.28c0,.16-.08,.25-.24,.25-.16,0-.24-.09-.24-.25,0-.15,.09-.23,.23-.24,.16,0,.24,.08,.25,.24Zm-1.39-2.29c-.28-.73-.55-1.47-.83-2.2-.05-.14-.13-.24-.3-.24-.15,0-.25,.07-.3,.21-.31,.81-.62,1.63-.93,2.44-.06,.15,.01,.25,.13,.31,.13,.07,.25,.01,.31-.11,.05-.1,.09-.21,.12-.31,.04-.11,.1-.17,.23-.16,.17,.01,.35,.02,.51,0,.35-.05,.58,.04,.64,.42,0,.03,.02,.06,.04,.09,.07,.09,.16,.14,.28,.09,.11-.04,.17-.12,.16-.24,0-.11-.05-.19-.08-.29Zm-1.43-.57c-.07,0-.09-.03-.06-.1,.11-.29,.22-.58,.35-.92,.14,.36,.25,.67,.39,1.02-.24,0-.46,0-.68,0Zm3.32-1.86c-.24-.02-.49-.01-.73,0-.22,0-.3,.08-.3,.3,0,.4,0,.79,0,1.19,0,.4,0,.81,0,1.21,0,.18,.11,.3,.26,.29,.16-.02,.24-.12,.24-.28,0-.22,0-.44,0-.65,0-.11,.04-.15,.15-.15,.16,0,.32,0,.47-.02,.47-.07,.82-.5,.8-.96-.02-.49-.4-.88-.88-.91Zm.37,.98c-.01,.2-.17,.36-.37,.41-.02,0-.04,0-.06,0q-.47,.05-.47-.47s0-.04,0-.06q0-.4,.42-.38c.31,.01,.51,.22,.49,.5Z"/>
</svg>