<?xml version="1.0" encoding="UTF-8"?>
<svg id="Layer_1" data-name="Layer 1" xmlns="http://www.w3.org/2000/svg" viewBox="0 0 12.97 12.72">
  <defs>
    <style>
      .cls-1 {
        fill: #393939;
      }

      .cls-2 {
        fill: none;
      }
    </style>
  </defs>
  <rect class="cls-2" x=".58" y=".28" width="11.82" height="11.82"/>
  <path class="cls-1" d="M12.94,11.13c-.12-.92-1-1.78-1.93-1.9-.04-.02-.09,0-.13-.02-.05-.02,0-.03,0-.05,.75-.12,1.28-.81,1.24-1.61-.04-.72-.66-1.35-1.39-1.4-.81-.06-1.49,.48-1.63,1.28-.13,.78,.36,1.48,1.23,1.74-.03,.04-.08,.04-.13,.05-.34,.05-.66,.18-.95,.37-.12,.08-.25,.24-.35,.23-.11-.01-.2-.19-.31-.3-.48-.47-1.06-.73-1.72-.83-.02-.01-.04-.02-.06-.02,.03-.01,.06-.03,.1-.05,1.11-.23,1.83-1.39,1.54-2.46-.32-1.16-1.47-1.81-2.58-1.45-.87,.28-1.45,1.1-1.42,1.99,.04,.94,.67,1.7,1.59,1.92,.02,.02,.05,.03,.08,.03,.06,0,.13,0,.14,.01,0,0-.04,0-.08,0-.05,0-.1,0-.14,.03-.77,.13-1.42,.48-1.92,1.09-.08,.1-.12,.03-.18-.02-.26-.23-.55-.38-.88-.48-.15-.04-.3-.07-.47-.11,.97-.3,1.43-1.03,1.22-1.9-.17-.72-.89-1.21-1.64-1.12-.74,.08-1.33,.71-1.35,1.44-.02,.78,.5,1.44,1.24,1.57,.01,.02,.06,.03,0,.05-.04,.02-.09,0-.13,.02-.44,.06-.82,.25-1.15,.54C.19,10.31-.03,11,0,11.8c.02,.37,.07,.44,.44,.44,4.03,0,8.07,0,12.1,0,.04,0,.08,0,.12,0,.21-.01,.3-.1,.31-.31,0-.26,0-.53-.03-.79ZM1.35,7.68c0-.55,.47-1.02,1.02-1.02,.56,0,1,.46,.99,1.01,0,.56-.44,1-1,1-.55,0-1.01-.45-1.01-1Zm2.38,2.78c-.16,.35-.26,.71-.27,1.09,0,.13-.04,.17-.18,.17-.43,0-.86,0-1.3,0-.44,0-.88,0-1.32,0-.1,0-.15-.02-.16-.14-.03-.74,.41-1.43,1.11-1.73,.68-.29,1.58-.13,2.07,.38,.08,.08,.08,.14,.03,.23Zm5.88-2.79c0-.56,.44-1.01,.99-1.01,.55,0,1.03,.47,1.02,1.02,0,.55-.46,1-1.01,1-.56,0-1-.44-1-1Zm-4.64-1.03c0-.83,.68-1.5,1.52-1.5,.84,0,1.52,.68,1.51,1.52,0,.83-.7,1.52-1.53,1.51-.83,0-1.51-.7-1.5-1.54Zm3.86,5.08c-.79,0-1.58,0-2.37,0-.77,0-1.54,0-2.31,0-.16,0-.21-.03-.2-.2,.08-1.38,1.45-2.51,2.82-2.31,1.19,.17,2.02,.98,2.21,2.17,0,.05,0,.11,.02,.16,.03,.15-.04,.18-.18,.18Zm3.45,0c-.43,0-.86,0-1.3,0s-.86,0-1.3,0c-.14,0-.18-.04-.18-.17-.01-.38-.1-.75-.27-1.09-.05-.1-.03-.17,.05-.25,.52-.5,1.37-.65,2.05-.36,.69,.3,1.11,.94,1.11,1.69,0,.14-.04,.19-.18,.18ZM8.28,1.38c-.29-.04-.57-.09-.86-.12-.14-.02-.24-.06-.31-.21-.11-.27-.25-.52-.38-.78-.05-.1-.12-.18-.24-.18-.13,0-.21,.08-.26,.19-.13,.26-.26,.52-.38,.78-.06,.14-.15,.19-.29,.2-.27,.03-.55,.08-.82,.12-.12,.02-.22,.05-.27,.18-.05,.14,.03,.23,.12,.32,.2,.2,.4,.4,.61,.59,.09,.08,.12,.17,.09,.28-.05,.28-.1,.57-.15,.86-.02,.12-.01,.23,.09,.31,.11,.08,.21,.06,.32,0,.26-.14,.52-.26,.77-.41,.11-.07,.2-.06,.32,0,.24,.14,.49,.26,.73,.39,.11,.06,.22,.11,.34,.03,.12-.08,.12-.2,.1-.33-.05-.29-.09-.59-.15-.88-.02-.11,0-.17,.08-.25,.21-.2,.42-.4,.62-.61,.07-.07,.13-.14,.13-.24-.01-.14-.08-.22-.22-.24Zm-.93,.76c-.22,.17-.28,.38-.2,.64,.03,.08,.03,.17,.05,.26,0,.06,.07,.14-.05,.17-.43-.33-.86-.4-1.3-.03-.02,.02-.06,.03-.12,.05,.03-.19,.04-.36,.09-.53,.06-.21,0-.36-.16-.5-.13-.11-.25-.24-.4-.39,.24-.04,.44-.07,.65-.1,.13-.02,.22-.08,.28-.2,.09-.19,.18-.37,.29-.59,.09,.19,.18,.34,.24,.5,.08,.21,.22,.31,.44,.32,.16,.01,.32,.04,.5,.07-.07,.16-.19,.25-.31,.34Zm4.7,1.14c-.17-.03-.33-.06-.5-.08-.16-.01-.26-.07-.32-.23-.06-.16-.15-.32-.23-.47-.12-.21-.34-.2-.46,0-.07,.12-.13,.24-.18,.36-.08,.23-.22,.35-.47,.34-.13,0-.25,.04-.38,.06-.11,.01-.19,.06-.23,.16-.04,.12,0,.21,.08,.29,.13,.13,.26,.26,.39,.38,.08,.07,.12,.15,.09,.26-.05,.2-.07,.4-.1,.58,0,.25,.17,.37,.38,.27,.18-.08,.35-.18,.52-.27,.09-.05,.17-.05,.26,0,.16,.09,.33,.18,.5,.27,.23,.11,.41-.02,.39-.27-.02-.2-.05-.4-.1-.6-.02-.09,0-.15,.07-.21,.15-.14,.3-.28,.43-.42,.16-.18,.09-.39-.15-.43Zm-.85,1.23c-.29-.17-.56-.24-.84,.02,.08-.34,.04-.62-.28-.82,.35-.01,.6-.14,.66-.52q.33,.45,.73,.52c-.28,.2-.4,.45-.27,.79ZM3.3,3.25c-.46,.02-.71-.21-.84-.63-.04-.14-.12-.27-.29-.27-.17,0-.25,.13-.29,.27-.13,.42-.38,.66-.84,.63-.03,0-.06,.02-.1,.02-.13,0-.24,.05-.28,.19-.04,.13,.03,.23,.12,.3,.44,.29,.54,.67,.36,1.16-.04,.12,0,.23,.1,.3,.1,.07,.2,.05,.3,0,.15-.08,.31-.16,.46-.25,.1-.06,.19-.07,.3,0,.16,.09,.32,.17,.48,.26,.1,.05,.21,.07,.3-.01,.09-.07,.12-.17,.1-.29-.03-.17-.06-.35-.1-.52-.03-.12,0-.2,.09-.29,.14-.12,.26-.25,.39-.38,.06-.06,.1-.12,.11-.22-.02-.23-.22-.27-.38-.26Zm-.69,1.22c-.07,.04-.1,.03-.13,0-.21-.15-.42-.17-.63,0-.04,.03-.15,.08-.11-.04,.11-.32-.03-.53-.3-.73q.43-.06,.74-.5c.1,.33,.29,.53,.67,.49-.24,.23-.44,.45-.24,.77Zm5.73,6.5c0,.1-.06,.19-.18,.23-.11,.04-.21,0-.27-.08-.16-.28-.37-.51-.62-.71-.09-.07-.1-.19-.04-.29,.06-.1,.15-.13,.26-.12,.25,.04,.83,.7,.84,.97Zm-1.61-1.03c0,.15-.12,.28-.26,.26-.14-.02-.23-.1-.24-.25,0-.14,.12-.26,.26-.25,.14,.02,.23,.1,.24,.24Z"/>
</svg>