<?xml version="1.0" encoding="UTF-8"?>
<svg id="Layer_1" data-name="Layer 1" xmlns="http://www.w3.org/2000/svg" viewBox="0 0 12.72 13.05">
  <defs>
    <style>
      .cls-1 {
        fill: #393939;
      }

      .cls-2 {
        fill: none;
      }
    </style>
  </defs>
  <rect class="cls-2" x=".45" y=".61" width="11.82" height="11.82"/>
  <path class="cls-1" d="M11.62,10.63c-.21-.94-1.09-1.6-2.05-1.51-.26,.02-.46-.03-.66-.2-.34-.29-.74-.5-1.16-.65-.13-.05-.27-.09-.41-.15,1.17-.73,1.42-1.95,1.1-2.87-.33-.98-1.26-1.64-2.29-1.63-1.02,0-1.96,.7-2.26,1.66-.31,.99,0,2.14,1.13,2.85-.15,.05-.27,.08-.38,.13-1.63,.65-2.63,1.82-2.94,3.56-.07,.4-.03,.45,.38,.45,1.95,0,3.89,0,5.84,0,.15,0,.25,.04,.36,.15,.6,.65,1.56,.8,2.34,.39,.78-.41,1.19-1.31,1-2.17ZM4.2,6.02c0-1.08,.88-1.97,1.97-1.98,1.08,0,1.97,.88,1.98,1.97,0,1.08-.88,1.97-1.97,1.98-1.08,0-1.97-.88-1.98-1.97Zm3.63,5.62c.06,.19,.01,.2-.16,.2-.89,0-1.78,0-2.68,0-.89,0-1.78,0-2.68,0-.17,0-.2-.04-.16-.2,.64-2.89,4.04-4.19,6.43-2.45,.14,.1,.18,.15,0,.26-.72,.48-1.03,1.37-.76,2.19Zm1.88,.97c-.84,0-1.55-.7-1.55-1.54,0-.85,.69-1.54,1.55-1.54,.85,0,1.55,.7,1.54,1.54,0,.84-.7,1.53-1.54,1.53Zm1.46-9.22c.13-.15,.16-.31,.05-.48-.1-.16-.25-.2-.44-.16-.2,.04-.41,.08-.61,.13-.11,.03-.16,0-.21-.1-.1-.19-.21-.38-.32-.56-.1-.16-.24-.24-.42-.19-.19,.05-.29,.18-.3,.38-.02,.19-.05,.39-.06,.58,0,.15-.07,.2-.21,.22-.19,.03-.37,.08-.55,.12-.19,.04-.32,.15-.34,.34-.03,.21,.1,.34,.28,.42,.18,.08,.37,.17,.56,.24,.1,.04,.13,.1,.12,.21-.03,.21-.05,.41-.08,.62-.01,.19,.05,.35,.24,.42,.18,.07,.34,.02,.47-.13,.12-.14,.26-.27,.37-.42,.09-.11,.17-.14,.3-.07,.16,.08,.33,.15,.49,.23,.19,.09,.37,.1,.51-.07,.14-.17,.11-.35,0-.52-.1-.17-.19-.34-.29-.51-.05-.09-.04-.14,.03-.22,.15-.16,.29-.32,.43-.48Zm-.8,.96c.07,.12,.14,.24,.19,.4-.15-.07-.3-.14-.45-.2-.33-.15-.43-.12-.67,.14-.11,.12-.22,.24-.33,.37-.01,0-.03-.02-.04-.02,.02-.21,.04-.41,.06-.62,.02-.2-.08-.33-.25-.41-.18-.08-.37-.16-.61-.27,.25-.06,.44-.1,.63-.14,.25-.06,.33-.16,.36-.42,.02-.19,.04-.37,.07-.59,.14,.16,.21,.33,.3,.48,.17,.28,.28,.32,.59,.25,.17-.04,.34-.07,.53-.11-.08,.16-.2,.26-.29,.37-.3,.34-.3,.39-.08,.79Zm-6.06-1.01c-.2-.05-.41-.11-.61-.13-.15-.02-.2-.08-.21-.22-.01-.2-.04-.4-.06-.6-.02-.19-.12-.31-.3-.35-.18-.04-.33,.04-.42,.2-.11,.19-.22,.37-.32,.56-.05,.09-.09,.12-.2,.09-.2-.05-.41-.08-.61-.13-.19-.05-.35,0-.45,.17-.11,.18-.06,.35,.07,.49,.14,.15,.27,.3,.41,.45,.08,.08,.08,.15,.03,.24-.1,.16-.19,.32-.28,.49-.13,.23-.13,.39,0,.54,.15,.16,.33,.15,.52,.06,.18-.08,.36-.15,.53-.24,.09-.05,.15-.03,.21,.04,.14,.17,.29,.33,.45,.5,.12,.13,.28,.16,.44,.09,.17-.07,.24-.21,.23-.39-.01-.21-.02-.42-.06-.62-.03-.15,.02-.21,.15-.26,.19-.07,.37-.16,.55-.25,.14-.07,.23-.18,.23-.37,0-.17-.09-.31-.29-.36Zm-.81,.65c-.24,.11-.31,.24-.28,.5,.01,.1,.02,.19,.03,.29,0,.09,.01,.18,.02,.32-.15-.17-.28-.3-.41-.44-.19-.21-.31-.23-.57-.12-.17,.07-.34,.15-.57,.25,.12-.21,.21-.37,.3-.53,.15-.26,.14-.38-.06-.6-.12-.14-.25-.28-.41-.46,.25,.05,.43,.09,.62,.13,.24,.05,.37,0,.5-.2,.1-.17,.2-.35,.33-.57,.03,.25,.06,.45,.08,.65,.02,.21,.13,.35,.34,.39,.2,.04,.39,.09,.66,.14-.23,.1-.41,.18-.58,.26ZM7.95,1.3c-.06-.21-.22-.27-.42-.27-.2,0-.4,0-.61,0-.11,0-.16-.04-.19-.14-.06-.21-.13-.41-.2-.61C6.48,.11,6.36,0,6.18,0c-.19,0-.32,.09-.38,.27-.04,.11-.08,.22-.11,.34q-.14,.43-.59,.43c-.11,0-.22,0-.33,0-.19,0-.33,.09-.38,.26-.06,.18,0,.33,.15,.44,.17,.12,.33,.25,.51,.37,.1,.07,.12,.14,.08,.25-.07,.2-.14,.39-.2,.59-.05,.18-.02,.35,.15,.46,.16,.11,.32,.08,.47-.03,.17-.12,.34-.24,.51-.37,.09-.07,.15-.07,.24,0,.18,.14,.36,.27,.54,.39,.15,.1,.3,.1,.45,0,.14-.11,.19-.25,.13-.43-.07-.21-.13-.42-.21-.63-.03-.09-.02-.15,.07-.21,.17-.11,.33-.24,.49-.35,.16-.12,.25-.26,.19-.46Zm-1,.53c-.22,.17-.26,.29-.18,.54,.06,.18,.11,.35,.19,.6-.2-.14-.35-.25-.49-.35-.24-.17-.36-.17-.6,0-.15,.11-.3,.21-.5,.35,.08-.25,.14-.45,.2-.65,.07-.19,0-.34-.15-.46-.16-.12-.33-.24-.52-.38,.2-.05,.38-.02,.55-.03,.32,0,.42-.07,.51-.38,.06-.17,.11-.34,.18-.53,.1,.18,.14,.36,.2,.54,.1,.29,.2,.37,.5,.37,.16,0,.32,0,.48,0,.01,0,.03,0,.09,.02-.18,.13-.33,.24-.48,.35Zm2.38,9.97s-.09-.02-.13-.06c-.16-.16-.32-.31-.47-.47-.09-.09-.09-.2,0-.3,.09-.09,.2-.08,.3,0,.01,0,.02,.02,.03,.03,.11,.09,.18,.28,.32,.26,.12-.02,.21-.17,.32-.26,.22-.2,.43-.39,.65-.59,.11-.1,.22-.13,.33-.01,.1,.11,.07,.23-.04,.33-.37,.33-.73,.66-1.1,1-.05,.05-.11,.08-.21,.08Z"/>
</svg>