<?xml version="1.0" encoding="UTF-8"?>
<svg id="Layer_1" data-name="Layer 1" xmlns="http://www.w3.org/2000/svg" viewBox="0 0 13.01 12.72">
  <defs>
    <style>
      .cls-1 {
        fill: #393939;
      }

      .cls-2 {
        fill: none;
      }
    </style>
  </defs>
  <rect class="cls-2" x=".51" y=".28" width="11.82" height="11.82"/>
  <path class="cls-1" d="M13.01,6.94c0-.45-.29-.74-.74-.74-.15,0-.19-.04-.19-.19,0-.56,.05-1.13-.05-1.69-.32-1.82-1.34-3.1-3.05-3.82-.79-.33-1.63-.37-2.45-.33-.81-.03-1.58-.02-2.32,.26C2.35,1.14,1.26,2.48,.97,4.46c-.08,.52-.03,1.04-.03,1.55,0,.15-.04,.19-.19,.19-.47,0-.74,.28-.74,.76,0,.56,0,1.13,0,1.69,0,.52,.24,.78,.77,.79,.12,0,.16,.03,.16,.15-.01,.2,0,.4,0,.6,.02,.75,.57,1.39,1.3,1.53,.35,.07,.71,.03,1.06,.03,.14,0,.23,.03,.31,.17,.21,.34,.56,.33,.89,.29,.27-.03,.47-.19,.57-.45,.11-.31-.01-.65-.29-.83-.31-.19-.91-.16-1.09,.12-.16,.27-.37,.24-.6,.24-.19,0-.37,0-.56,0-.62-.02-1.11-.5-1.13-1.13,0-.19,0-.39,0-.58,0-.13,.04-.15,.16-.15,.52-.01,.77-.28,.77-.8,0-.55,0-1.1,0-1.65,0-.52-.26-.79-.78-.8-.12,0-.16-.03-.16-.15,0-.36,0-.73,0-1.09,.02-1.81,1.17-3.45,2.88-4.05,1.29-.45,2.63-.42,3.94-.14,1.65,.35,2.71,1.43,3.22,3.04,.23,.71,.17,1.45,.19,2.18,0,.18-.05,.22-.22,.21-.43,0-.71,.28-.72,.71,0,.61,0,1.22,0,1.83,0,.41,.29,.7,.7,.7,.29,0,.59,0,.88,0,.45,0,.73-.29,.74-.75,0-.59,0-1.18,0-1.76ZM4.3,11.31c.17,0,.33,.03,.34,.23,0,.21-.17,.25-.34,.24-.18,0-.34-.02-.34-.23,0-.23,.17-.24,.34-.24ZM1.57,6.66c.2,0,.29,.11,.29,.3,0,.57,0,1.15,0,1.72,0,.2-.09,.3-.29,.3-.27,0-.54,0-.81,0-.21,0-.29-.1-.29-.3,0-.29,0-.57,0-.86s0-.57,0-.86c0-.2,.08-.3,.29-.3,.27,0,.54,0,.81,0Zm10.98,2.03c0,.2-.1,.3-.3,.3-.27,0-.54,0-.81,0-.19,0-.28-.09-.28-.28,0-.58,0-1.16,0-1.74,0-.2,.09-.3,.29-.3,.27,0,.54,0,.81,0,.19,0,.29,.1,.29,.28,0,.29,0,.59,0,.88,0,.29,0,.57,0,.86Zm-2.32-4.49c0-.73-.53-1.25-1.26-1.25-.82,0-1.64,0-2.46,0-.83,0-1.66,0-2.48,0-.69,0-1.22,.52-1.22,1.21,0,.67,0,1.35,0,2.02,0,.6,.39,1.06,.97,1.19,.37,.08,.74,.02,1.11,.03,.18,0,.27,.07,.29,.25,.04,.35,.1,.69,.13,1.03,.01,.15,.05,.27,.2,.3,.16,.03,.23-.08,.29-.21,.19-.39,.39-.77,.58-1.16,.07-.15,.17-.21,.34-.21,.75,0,1.5,0,2.25,0,.73,0,1.26-.53,1.27-1.25,0-.65,0-1.3,0-1.95Zm-.47,1.94c0,.48-.33,.79-.81,.8-.76,0-1.52,0-2.27,0-.33,0-.56,.14-.7,.43-.09,.17-.17,.34-.27,.53-.07-.12-.07-.23-.08-.33-.04-.35-.31-.61-.67-.61-.3,0-.6,0-.91,0-.47,0-.79-.31-.79-.78,0-.66,0-1.32,0-1.97,0-.46,.32-.77,.78-.77,1.64,0,3.28,0,4.92,0,.47,0,.79,.3,.8,.78,0,.65,0,1.3,0,1.95Zm-5.11-1.8c-.38,0-.69,.3-.69,.69,0,.4,.3,.71,.7,.71,.38,0,.69-.31,.7-.69,0-.38-.32-.71-.7-.71Zm0,.92c-.13,0-.21-.08-.22-.21,0-.15,.08-.22,.22-.25,.14,.01,.24,.09,.24,.23,0,.14-.09,.23-.23,.23Zm1.86-.92c-.38,0-.69,.3-.69,.69,0,.4,.3,.71,.69,.71,.38,0,.69-.31,.7-.69,0-.38-.31-.71-.7-.71Zm-.02,.92c-.13-.01-.21-.1-.2-.23,0-.15,.09-.22,.23-.23,.14,.03,.23,.11,.22,.25-.01,.14-.1,.22-.25,.21Zm1.86-.92c-.38,0-.68,.31-.68,.7,0,.39,.3,.69,.69,.69,.39,0,.71-.32,.71-.7,0-.38-.33-.7-.72-.69Zm.02,.92c-.13,0-.22-.08-.22-.21,0-.14,.07-.24,.21-.25,.14,0,.22,.09,.25,.22-.02,.14-.09,.23-.23,.23Z"/>
</svg>