<?xml version="1.0" encoding="UTF-8"?>
<svg id="Layer_1" data-name="Layer 1" xmlns="http://www.w3.org/2000/svg" viewBox="0 0 14 14">
  <defs>
    <style>
      .cls-1 {
        fill: #393939;
      }

      .cls-2 {
        fill: none;
      }
    </style>
  </defs>
  <rect class="cls-2" width="14" height="14"/>
  <path class="cls-1" d="M13.12,12.41c-.2-.2-.41-.39-.64-.62,.19-.08,.33-.14,.47-.2,.1-.04,.21-.08,.21-.22,0-.16-.14-.17-.25-.2-.39-.1-.78-.2-1.18-.27-.19-.03-.21-.11-.21-.27,0-1.45,0-2.9,0-4.35,0-.39-.21-.66-.58-.72-.12-.02-.25-.02-.37,0-.15,.01-.19-.03-.19-.19,0-1.44,0-2.87,0-4.31,0-.28-.04-.32-.31-.32-3.02,0-6.05,0-9.07,0-.26,0-.3,.04-.3,.31,0,2.85,0,5.71,0,8.56,0,.28,.03,.31,.32,.31,.87,0,1.74,0,2.6,0,.15,0,.2,.03,.19,.18-.01,.22,.01,.45,0,.67-.04,.42,.25,.81,.79,.8,2.01-.02,4.02,0,6.03-.01,.15,0,.21,.04,.24,.2,.08,.4,.18,.8,.27,1.2,.03,.11,.05,.23,.19,.24,.14,.01,.19-.1,.23-.2,.06-.14,.12-.28,.18-.43,.03,0,.04,0,.05,.02,.2,.2,.4,.39,.6,.59,.13,.13,.24,.13,.37,0,.12-.13,.25-.25,.37-.37,.16-.16,.16-.23,0-.39ZM1.07,1.73c.01-.17,0-.34,0-.51,0-.09,.03-.13,.12-.12,.03,0,.07,0,.1,0,2.83,0,5.67,0,8.5,0,.17,0,.24,.03,.22,.21-.02,.15-.02,.31,0,.47,.01,.15-.04,.18-.19,.18-1.38,0-2.75,0-4.13,0h-.16c-1.42,0-2.83,0-4.25,0-.19,0-.23-.06-.22-.23ZM3.81,6.28c0,.62,0,1.24,0,1.86,0,.13-.03,.18-.16,.16-.14-.01-.26,.03-.25,.19,0,.16,.13,.19,.25,.18,.13-.01,.17,.03,.17,.16-.01,.2,0,.39,0,.59,0,.1-.03,.13-.13,.13-.82,0-1.64,0-2.47,0-.14,0-.14-.06-.14-.16,0-.47,0-.94,0-1.41,0-1.82,0-3.63,0-5.45,0-.16,.03-.21,.2-.21,1.42,0,2.85,0,4.27,0s2.85,0,4.27,0c.16,0,.21,.04,.2,.2,0,.95,0,1.89,0,2.84,0,.15-.03,.19-.18,.18-.27-.01-.54,0-.8,0-.09,0-.12-.03-.12-.12,0-.23,0-.46,0-.69,0-.13-.01-.26-.19-.26-.17,0-.18,.13-.18,.27,0,.2,0,.41,0,.61,0,.15-.03,.2-.19,.19-.87,0-1.74,0-2.6,0-.4,0-.81,0-1.21,0-.44,0-.72,.28-.73,.72Zm7.15,4.45c-.22-.06-.34,.05-.27,.27,.06,.19-.01,.21-.18,.21-1.96,0-3.92,0-5.87,0-.36,0-.45-.09-.45-.44,0-1.47,0-2.94,0-4.41,0-.34,.08-.42,.41-.42,1.02,0,2.04,0,3.05,0,1.02,0,2.04,0,3.05,0,.36,0,.45,.09,.45,.45,0,1.39,0,2.78,0,4.17,0,.17-.03,.23-.21,.18Zm1.73,1.98c-.07,.07-.12,.14-.22,.03-.18-.2-.37-.38-.56-.57-.22-.22-.31-.2-.44,.08-.02,.03-.03,.07-.07,.15-.1-.41-.18-.77-.27-1.13-.02-.08,0-.13,.09-.11,.37,.09,.74,.17,1.11,.26-.01,.03-.01,.03-.02,.04-.42,.22-.42,.24-.09,.57,.16,.16,.32,.33,.49,.48,.1,.09,.05,.13-.02,.2ZM2.17,6.79c0-.14,0-.27,0-.41,0-.11,.06-.18,.18-.19,.12,0,.19,.07,.19,.18,0,.29,0,.57,0,.86,0,.11-.08,.18-.2,.17-.11,0-.17-.08-.17-.2,0-.14,0-.27,0-.41Zm0-1.69c0-.14,0-.27,0-.41,0-.11,.06-.18,.18-.19,.12,0,.19,.07,.19,.17,0,.29,0,.57,0,.86,0,.11-.09,.18-.2,.17-.1,0-.18-.08-.17-.2,0-.14,0-.27,0-.41Zm0,3.17c0-.06,0-.12,0-.18,0-.13,.06-.2,.19-.21,.11,0,.19,.08,.18,.18-.02,.19,.04,.27,.24,.24,.1-.01,.18,.06,.18,.18,0,.12-.08,.17-.19,.18-.06,0-.13,0-.2,0-.41,0-.41,0-.41-.41ZM8.9,3.61c0,.07,0,.14,0,.21,0,.11-.06,.17-.17,.17-.12,0-.2-.06-.19-.17,.02-.21-.06-.27-.26-.26-.1,0-.17-.06-.17-.17,0-.12,.07-.18,.18-.19,.14-.01,.29-.01,.43,0,.12,0,.19,.08,.19,.21,0,.06,0,.13,0,.2,0,0,0,0,0,0Zm-6.73,0c0-.06,0-.13,0-.19,0-.13,.08-.19,.19-.2,.14,0,.27,0,.41,0,.11,0,.19,.06,.19,.18,0,.13-.08,.2-.2,.19-.17-.01-.24,.04-.23,.22,.01,.12-.06,.2-.19,.2-.13,0-.19-.08-.19-.2,0-.06,0-.13,0-.19Zm4.94-.02c-.12,0-.25,0-.37,0-.12,0-.2-.06-.2-.19,0-.12,.08-.18,.19-.18,.25,0,.51,0,.76,0,.12,0,.2,.07,.2,.19,0,.12-.08,.17-.19,.18-.13,0-.26,0-.39,0Zm-3.13-.37c.12,0,.25,0,.37,0,.11,0,.19,.06,.19,.18,0,.12-.07,.18-.18,.19-.26,0-.52,0-.78,0-.11,0-.18-.07-.18-.19,0-.11,.08-.18,.19-.18,.13,0,.26,0,.39,0Zm1.57,0c.12,0,.25,0,.37,0,.11,0,.18,.07,.19,.18,0,.12-.07,.18-.18,.19-.26,0-.52,0-.78,0-.11,0-.18-.07-.18-.19,0-.12,.08-.17,.19-.18,.13,0,.26,0,.39,0Zm2.57-1.85c.05,0,.1,0,.16,0,.07,0,.11,.06,.14,.12,.03,.07,0,.13-.05,.18-.08,.08-.42,.08-.5,0-.05-.05-.08-.11-.05-.18,.02-.06,.06-.12,.13-.13,.06,0,.12,0,.18,0,0,0,0,0,0,0Zm.99,0c.05,0,.11,0,.16,0,.1,.02,.15,.1,.13,.19-.04,.21-.21,.16-.36,.17-.12,0-.23-.03-.25-.16-.02-.1,.04-.18,.14-.2,.06,0,.12,0,.18,0,0,0,0,0,0,0Zm1.36,8.85c-.53-.76-1.06-1.52-1.6-2.28-.16-.23-.27-.23-.43,0-.26,.37-.52,.73-.77,1.11-.07,.11-.11,.11-.2,.01-.19-.23-.38-.44-.58-.66-.16-.18-.24-.18-.4,0-.53,.61-1.07,1.22-1.6,1.83-.07,.07-.14,.15-.08,.26,.05,.11,.15,.1,.25,.1,.87,0,1.74,0,2.61,0,.87,0,1.74,0,2.61,0,.1,0,.2,.02,.25-.09,.05-.11,0-.19-.07-.27Zm-5.07,0c.42-.48,.82-.94,1.22-1.4,.07-.08,.11-.05,.16,.01,.16,.19,.32,.38,.49,.56,.07,.08,.08,.14,0,.21-.04,.04-.06,.08-.09,.13-.05,.09-.04,.19,.05,.24,.08,.05,.18,.05,.25-.03,.09-.11,.17-.23,.25-.35,.27-.38,.54-.77,.81-1.16,.08-.11,.11-.15,.21,0,.41,.6,.82,1.19,1.25,1.8H5.39Zm.08-3.67c-.36,0-.68,.3-.68,.67,0,.37,.29,.67,.66,.68,.37,0,.68-.29,.69-.65,.01-.37-.3-.69-.67-.7Zm0,.98c-.17,0-.3-.11-.31-.28,0-.18,.12-.32,.29-.32,.17,0,.3,.12,.3,.29,0,.17-.12,.3-.29,.31Z"/>
</svg>