<?xml version="1.0" encoding="UTF-8"?>
<svg id="Layer_1" data-name="Layer 1" xmlns="http://www.w3.org/2000/svg" viewBox="0 0 800 800">
  <defs>
    <style>
      .cls-1 {
        fill: none;
      }

      .cls-2 {
        fill: #010101;
      }
    </style>
  </defs>
  <rect class="cls-1" width="800" height="800"/>
  <path class="cls-2" d="M654.55,470.14c7.95,20.66,29.72,31.32,50.36,24.63,21.13-6.85,32.96-28.96,26.98-50.45-5.58-20.09-27.49-32.48-48.89-27.33-6.33,1.52-12.11,3.25-16.71-3.49-12.3-18.02-29.77-23.43-50.65-20.41-3.12,.45-6.37,.27-9.54,.03-10.96-.85-25.93,5.03-31.79-2.44-5.48-6.98-1.27-21.31-2.03-32.36-.49-7.1,2.33-8.63,8.85-8.51,19.49,.37,38.99,.49,58.47-.03,8.94-.24,14.57,1.26,19.87,10.19,12.37,20.84,40.49,24.16,59.2,8.69,17.86-14.76,19.39-42.76,3.25-59.42-16.27-16.8-46.68-18.05-58.74,1.43-10.07,16.28-22.22,15.61-36.67,15.24-6.76-.17-13.52-.03-20.29-.03-35.81,0-35.61,0-33.99-36.06,.29-6.48,2.5-8.15,8.46-7.96,10.73,.34,21.6-.95,32.19,.31,22.2,2.65,40.71-2.46,54.1-21.42,3.33-4.71,7.04-5.7,13.2-3.62,17.79,6,36.04-.7,46.14-15.63,9.86-14.57,8.82-35.59-2.4-48.85-11.47-13.55-30.54-18.36-46.58-11.76-17.4,7.16-28.22,23.73-24.18,43.02,2.55,12.16-1.2,18.66-9.36,26.08-6.04,5.49-11.69,8.37-19.94,7.98-13.5-.63-27.05,.06-40.57-.31-3.98-.11-11.48,2.95-10.53-5,.91-7.6-6.29-17.91,5.87-22.59,11.47-4.41,22.85-9.12,34.55-12.86,8.23-2.63,13.3-7.63,17.26-15.09,7.99-15.09,16.89-29.69,24.97-44.73,2.55-4.75,4.96-6.62,10.89-6.46,20.11,.53,37.13-12.68,41.59-31,4.24-17.42-3.78-35.62-19.72-44.76-15.63-8.96-35.83-6.5-48.48,5.92-13.98,13.72-16.14,33.11-5.69,51.36,1.71,2.98,4.85,5.46,2.43,9.56-15.51,26.24-24.29,59.01-61.91,63.81-.37,.05-.68,.4-1.05,.55-5.15,2.18-9.09,2.08-13.23-3.08-7.8-9.7-18.71-14.85-31.1-15.32-6.64-.25-7.92-2.95-7.77-8.68,.28-11.13-.06-22.28,.1-33.42,1.11-74.5-60.61-131.67-133.84-125.84-54.61,4.35-103.93,51.08-109.56,105.51-1.85,17.91-1.08,35.75-1.48,53.62-.1,4.57,.26,8.55-6.47,8.69-13.38,.28-24.66,5.86-33.28,16.06-3.67,4.34-7.13,3.16-11.62,2.03-22.56-5.71-40.35-16.74-48.56-40.02-2.21-6.28-6.12-12.04-9.79-17.7-4-6.17-4.6-10.99-.07-17.96,9.74-14.98,6.99-34.34-4.93-47.38-11.69-12.79-31.35-16.77-47.07-9.54-16.46,7.57-25.14,23.88-22.95,43.1,1.87,16.37,15.21,32.93,32.38,33.06,16.85,.13,22.09,9.82,27.92,21.46,1.78,3.54,4.48,6.7,5.8,10.38,8.92,24.89,26.9,38.34,52.09,44.99,17.39,4.59,16.78,5.95,16.01,23.97-.24,5.59-1.79,7.72-7.54,7.62-16.31-.28-32.63,.25-48.93-.21-11.76-.33-24.88-18.06-22.52-29.45,3.91-18.79-4.28-36.68-20.76-45.36-16.62-8.75-36.48-5.38-49.07,8.33-12.17,13.26-14.04,32.89-4.62,48.63,9.49,15.87,28.27,23.38,46.41,17.48,6.33-2.06,10.47-1.4,14.23,3.76,12.91,17.73,30.26,24.44,51.79,20.92,2.32-.38,4.78-.23,7.15-.02,10.96,.94,25.92-5.08,31.83,2.54,5.46,7.05,1.2,21.35,2.01,32.39,.58,7.88-2.87,9.23-9.75,9.09-18.69-.38-37.4-.46-56.09,.02-8.57,.22-14.1-1.26-18.68-10.03-8.21-15.72-27.43-22.25-45.48-17.81-15.65,3.85-28.13,19.42-29.4,36.67-1.24,16.87,8.8,33.04,24.75,39.84,16.52,7.05,36.88,4.05,45.94-11.09,8.19-13.68,18.37-14.61,31.31-13.78,7.92,.51,15.91-.01,23.86,.12,10.68,.18,25.37-3.61,31.03,1.87,7.26,7.01,1.4,21.78,2.42,33.15,.55,6.07-1.42,8.58-7.92,8.3-10.72-.47-21.59,.88-32.19-.34-21.7-2.49-39.84,2.4-52.93,21.03-3.29,4.68-7.34,5.98-13.33,3.61-10.94-4.34-21.92-2.64-32.12,2.99-18.24,10.07-25.75,32.41-17.52,51.4,8.63,19.9,30.01,29.46,50.32,22.49,20.6-7.07,32.3-28.23,26.02-49.6-2-6.79,.11-9.83,3.96-14.36,8.55-10.05,18.21-15.54,31.98-13.5,7.79,1.15,15.88,.21,23.84,.21,20.41,0,20.08,0,20.03,19.93-.02,6.36-2.23,9.21-8,10.87-10.66,3.06-21.13,6.77-31.78,9.88-7.28,2.13-12.33,6.12-15.92,13.07-6.93,13.4-15.37,26.04-21.94,39.59-4.82,9.94-10.48,15.88-22.4,14.16-3.59-.52-7.84,1.25-11.37,2.88-20.93,9.67-29.48,35.01-18.96,55.5,10.35,20.17,35.1,27.96,55.14,17.36,20.23-10.7,28.19-36.83,15.86-56.27-4.51-7.11-3.51-11.79,.23-17.98,6.17-10.19,12.7-20.32,17.44-31.18,9.39-21.53,31.06-18.89,47.92-25.7,2.47-1,4.31,1.37,5.95,3.14,10.51,11.38,23.83,14.7,38.86,14.46,24.66-.39,49.33-.09,73.99-.12,4.48,0,8.78-.57,8.67,6.32-.28,16.49-.09,32.98-.09,52.1-4.2-4.66-6.59-7.13-8.76-9.76-9.33-11.33-16.87-24.29-28.69-33.36-13-9.96-27.62-12.61-42.48-5.03-14.35,7.32-19.01,20.29-18.27,35.96,.41,8.64,3.48,16.19,6.87,23.82,16.96,38.2,38.06,74.15,60.05,109.56,18.25,29.37,30.08,60.11,27.14,95.59-1.22,14.71,3.4,18.35,17.89,18.36,58.88,.03,117.75,.03,176.63,0,15.68,0,18.17-2.94,18.86-18.9,.4-9.34-2.21-18.84,2.74-28.02,29.66-54.89,29.53-114.62,26.56-174.38-1.07-21.53-24.28-36.68-45.16-31.35-7.82,2-10.05-.55-13.53-6.28-8.67-14.3-22.29-20.76-38.49-17.95-8.03,1.39-12.52,1.18-15.36-6.88-1-2.84-3.52-5.14-6.94-9.9,17.39,0,32.4-.11,47.41,.03,13.1,.12,24.32-4.48,32.94-14.07,3.94-4.38,7.22-4,12.3-3.03,25.27,4.83,44.97,16.21,53.48,42.2,1.09,3.34,3.05,6.51,5.12,9.39,6.16,8.58,8.2,15.96,1.68,26.59-9.21,15.01-4.13,34.65,8.92,46.63,13.16,12.08,32.08,14.21,47.55,5.37,15.48-8.84,23.81-27.76,19.79-44.94-3.72-15.89-18.76-30.5-34.44-29.98-12.15,.4-18.03-4.61-22.05-14.64-1.17-2.92-3.5-5.39-4.59-8.32-11.41-30.57-31.97-49.93-65.26-54.13-7.57-.95-10.66-5.43-9.28-13.16,.55-3.08,.41-6.39,.03-9.52-.79-6.36,1.82-8.2,8.04-8.05,16.3,.38,32.62-.07,48.93,.19,12.65,.2,25.95,17.13,23.82,29.37-1.36,7.87-1.56,15.8,1.4,23.5Zm21.93-15.27c.51-8.85,7.83-15.78,16.43-15.58,9.05,.22,16.29,8.06,16.02,17.32-.28,9.36-7.79,16.31-17.17,15.87-9.37-.43-15.84-7.89-15.28-17.62Zm15.68-133.56c9.98-.19,16.72,6.22,16.74,15.93,.02,9.06-7.64,16.96-16.4,16.93-8.39-.03-15.62-7.26-16-15.98-.43-10.05,5.73-16.7,15.65-16.88Zm1.41-118.87c9.87,.75,15.13,6.32,15.26,16.25,.12,9.4-7.36,16.75-16.53,16.6-9.18-.15-16.07-7.66-15.83-17.26,.25-9.69,7.33-16.34,17.1-15.6Zm-25.4-108.42c9.53,.08,16.37,6.98,16.29,16.41-.08,9.05-7.55,16.54-16.48,16.52-8.84-.02-16.5-7.79-16.5-16.73,0-9.18,7.31-16.28,16.69-16.2ZM131.84,126.98c-9.03,.04-16.38-7.55-16.15-16.94,.24-10.05,5.88-15.29,15.57-15.93,9.54-.63,16.89,6.55,16.99,15.92,.1,9.1-7.46,16.91-16.4,16.95Zm-24.34,108.32c-8.92,.16-16.55-7.33-16.71-16.42-.17-9.29,6.91-16.47,16.28-16.53,9.61-.06,16.41,6.58,16.49,16.1,.07,9.18-7.09,16.69-16.06,16.85Zm-.58,118.75c-9.57-.81-15.29-6.47-16.05-16.14-.74-9.41,6.52-16.56,16.21-16.62,10.04-.06,16.56,6.35,16.48,16.22-.07,9.07-7.9,17.27-16.65,16.53Zm.37,118.47c-9.1,.04-16.52-7.36-16.54-16.49-.02-9,7.65-16.76,16.53-16.72,8.98,.04,16.3,7.56,16.28,16.72-.02,9.4-6.98,16.45-16.27,16.49Zm24.76,108.68c-8.82,.18-16.39-7.58-16.41-16.82-.02-9.46,5.99-15.72,15.39-16.04,10.02-.34,16.99,5.99,17.2,15.6,.2,9.05-7.33,17.08-16.18,17.26ZM304.08,117.04c13.37-49.38,58.22-78.78,109.83-72.37,45.48,5.65,81.82,47.47,83.39,96.06,.19,5.96,.03,11.93,.03,17.89h.04c0,3.58,0,7.16,0,10.74,0,18.93-3.73,21.62-23.13,18.43-6.48-1.07-4.67-5.26-4.86-8.81-.89-16.23,1.58-32.56-1.74-48.74-7.48-36.43-38.11-60.96-73.03-58.26-37.07,2.86-64.09,31.28-65.46,69.21-.44,12.31-.44,24.66,0,36.97,.26,7.02-1.57,9.86-9.21,9.63-23.43-.71-18.9,2.25-19.2-18.6-.25-17.46-1.28-35.08,3.35-52.15Zm141.31,63.66c.16,6.3-3.11,7.07-8.17,7-12.71-.18-25.42-.06-38.12-.06-12.31,0-24.63-.27-36.93,.11-6.38,.2-9.47-1.29-9.18-8.47,.49-12.29-.19-24.63,.23-36.93,.91-26.51,19.63-45.75,44.66-46.39,24.45-.62,45.23,18.38,47.16,44.24,1,13.43,.02,27,.36,40.5Zm99.06,571.51c-.37,6.18-5.87,4.08-9.35,4.09-48.9,.13-97.81,.12-146.72,0-3.48,0-8.83,1.96-8.9-4.56-.08-6.46,5.18-4.77,8.76-4.79,24.65-.12,49.3-.06,73.95-.06,24.25,0,48.51-.07,72.76,.07,3.89,.02,9.93-1.96,9.5,5.23Zm-64.92-161.71c10.46,.08,12.23-8.06,12.06-16.87-.2-9.94-.29-19.9,.05-29.83,.33-9.39,4.48-16.23,14.75-16.83,8.89-.52,14.94,6.63,15.16,17.56,.22,10.73,.19,21.48,.02,32.22-.13,8.1,3.73,13.64,11.52,13.8,8.44,.17,12.67-5.57,12.59-14.13-.03-2.78,.09-5.57,0-8.35-.33-9.95,4.34-16.09,14.22-17.12,8.74-.91,15.23,6.32,15.31,17.29,.2,25.84,.46,51.68-2.5,77.45-2.73,23.81-7.94,46.83-17.97,68.72-2.83,6.16-6.43,8.72-13.55,8.68-51.3-.32-102.61-.19-153.91-.15-4.87,0-9.29,.49-10.71-6.25-5.49-26.09-19.03-48.58-32.6-71.02-19.72-32.61-39.07-65.43-54.31-100.47-3.85-8.85-8.91-19.43,.92-25.9,10.51-6.92,18.48,1.97,24.83,9.94,14.12,17.71,27.93,35.68,42.01,53.43,4.59,5.78,8.59,13.47,18.07,10.34,9.44-3.11,8.32-11.4,8.31-18.96,0-32.22,0-64.43,0-96.65,0-32.61,.04-65.23-.03-97.84-.02-7.47,.91-14.43,8.29-18.42,10.63-5.74,21.74,2.12,21.88,16.04,.29,27.04,.09,54.09,.09,81.14,0,35.4,.12,70.8-.08,106.2-.05,8.48,1.72,16.11,11.24,16.45,10.04,.35,13.04-7.15,12.96-16.26-.14-14.72,.16-29.44-.1-44.15-.18-10.18,3.28-17.28,14.28-18.05,9.45-.66,14.98,6.23,15.09,18.47,.15,17.5,.05,35,.04,52.5,0,8.62,1.71,16.98,12.1,17.05Zm-109.95-276.74c.12-12.17,8.36-23.73,19.41-27.25,13.11-4.17,27.25,.63,34.6,11.74,7.28,11.01,6.64,23.83-1.71,34.15-4.05,5-41.03,5.89-45.18,1-4.78-5.64-7.36-12.15-7.12-19.64Zm178.72,122.9c-.02,17.31-8.21,25.85-25.22,25.99-25.46,.21-50.92-.16-76.38,.22-6.8,.1-8.85-1.92-8.76-8.71,.36-24.66,1.6-49.45-.37-73.96-1.32-16.44,.53-29.58,9.5-44.33,13.4-22.04,3.45-51.42-18.18-65.95-21.75-14.62-52.03-10.98-69.62,8.36-17.54,19.3-18.92,48.56-2.14,68.8,5.16,6.22,7.04,11.6,4.07,18.79-1.89,4.58-1.48,9.38-1.48,14.13-.04,24.67-.11,49.33,.05,74,.03,5.39-.31,8.95-7.41,8.85-27.05-.37-54.11,.1-81.15-.37-13.68-.24-21.14-8.84-21.21-23.47-.17-34.21-.05-68.43-.06-102.65,0-33.02-.07-66.04,.03-99.07,.05-17.26,8.28-25.56,25.5-25.57,82.35-.07,164.7-.07,247.04,0,16.97,.02,25.76,8.79,25.77,25.6,.07,66.44,.07,132.88,0,199.33Zm119.85,111.69c9.86,.07,16.35,6.54,16.29,16.22-.06,8.9-7.71,16.64-16.45,16.64-8.76,0-16.5-7.88-16.51-16.81-.01-9.31,7.07-16.13,16.68-16.06Z"/>
</svg>