<?xml version="1.0" encoding="UTF-8"?>
<svg id="Layer_1" data-name="Layer 1" xmlns="http://www.w3.org/2000/svg" viewBox="0 0 800 800">
  <defs>
    <style>
      .cls-1 {
        fill: none;
      }

      .cls-2 {
        fill: #010101;
      }
    </style>
  </defs>
  <rect class="cls-1" width="800" height="800"/>
  <path class="cls-2" d="M784.8,677.76c.16-8.71-3.82-13.78-11.84-16.65-10.86-3.88-21.28-9.25-32.37-12.14-14.32-3.73-22.44-11.34-25-26.32-1.5-8.79-6.42-16.95-9.19-25.59-4.87-15.2-19.91-27.93-17.83-43.57,2.03-15.31,11.48-29.88,18.89-44.14,5.86-11.27,3.62-19.28-5.53-27.17-4.36-3.76-9.28-7.03-9.24-14.89,.51-86.79,.5-173.58,.62-260.37,.03-26.91,0-27.11,26.22-27.4,9.1-.1,16.46-2.77,20.4-11.16,3.93-8.38,1.47-15.89-4.45-22.82-28.44-33.3-56.64-66.81-85.12-100.07-11.96-13.97-22.99-13.86-35.05,.16-19.39,22.55-38.56,45.29-57.81,67.97-9.36,11.02-18.67,22.08-28.03,33.11-5.58,6.57-7.47,13.85-3.51,21.8,3.89,7.8,10.55,11.2,19.25,10.93,5.37-.17,10.8,.48,16.1-.14,8.73-1.02,11.12,2.3,11.02,10.96-.45,39.26-.2,78.53-.2,117.79,0,39.68-.16,79.36,.12,119.03,.07,9.51-1.37,13.54-11.53,7.64-22.2-12.9-45.94-22.36-70.69-29.11-4.59-1.25-6.91-3.52-8.66-7.66-13.39-31.69-25.49-63.59-20.61-99.1,.5-3.65-.14-7.44,.11-11.15,.62-9.34-3.94-20.98,2.07-27.38,5.11-5.44,16.49-1.07,25.07-1.68,.41-.03,.83-.02,1.24-.03,8.67-.16,14.96-3.98,18.61-11.98,3.57-7.84,1.11-14.55-4.01-20.6-29.38-34.67-58.64-69.44-88.35-103.83-9.11-10.55-21.05-10.65-30.07-.22-29.99,34.69-59.56,69.74-89.16,104.76-5.14,6.08-6.92,13.03-3.05,20.71,3.73,7.42,9.81,10.62,17.89,11.21,9.32,.68,22.33-4.38,27.01,2.32,4.7,6.74,2.07,19.03,1.64,28.85-1.11,25.28,4.56,51.17-7.78,75.48-5.21,10.25-8.56,21.46-12.58,32.3-1.54,4.16-3.72,6.7-8.4,7.96-25.2,6.74-49.21,16.58-71.86,29.53-8.36,4.78-10.79,2.56-10.68-6.5,.29-22.73,.09-45.46,.09-68.2q0-22.2,21.58-22.32c2.89-.02,5.82,.17,8.66-.24,16.28-2.31,23.77-18.61,13.31-31.27-29.47-35.67-59.5-70.88-89.75-105.88-8.36-9.67-20.94-9.42-29.31,.29-29.94,34.73-59.45,69.84-89.16,104.77-5.37,6.32-6.48,13.39-3.25,20.79,3.29,7.54,9.79,10.94,17.78,11.42,4.53,.27,9.17,.65,13.61,.01,11.81-1.7,16.17,1.6,15.73,14.85-1.15,34.68-1.04,69.44-.02,104.13,.35,11.74-1.6,20.7-11.1,27.78-8.42,6.28-8.4,14-4.02,23.03,6.67,13.73,12.39,27.92,18.9,41.73,2.36,5.01,2.18,8.96-.61,13.84-12.14,21.22-21.83,43.57-28.17,67.22-2.13,7.95-6.25,12.55-14.12,15.19-13.65,4.58-26.9,10.36-40.49,15.18-8.58,3.04-12.53,8.41-12.28,17.62,.36,13.22,0,26.45,.12,39.68,.14,15.49,3.64,19.03,18.97,19.05,40.49,.06,80.98,.02,121.47,.02,30.99,0,61.97-.03,92.96,0,8.83,0,14.84-4.08,14.74-13-.09-8.3-5.86-12.27-14.22-12-.83,.03-1.67-.11-2.48,0-7.87,1.07-10.3-2.12-8.76-9.89,2.48-12.58,5.45-24.94,9.72-37.08,2.95-8.37,6.23-12.36,14.44-5.67,.32,.26,.7,.43,1.06,.64,7.13,4.14,14.06,3.82,18.26-3.54,4.02-7.04,2.22-14.6-5.47-17.78-12.41-5.12-8.53-10.65-2.27-17.82,7.37-8.43,15.35-16.12,23.71-23.55,6.92-6.15,11.74-7.74,16.26,2.55,3.09,7.02,9.18,11.29,17.12,6.93,8.08-4.43,8.51-11.47,4.49-19.14-.57-1.1-1.16-2.21-1.91-3.19-4.17-5.42-2.51-8.37,3.61-10.7,11.59-4.4,23.4-7.79,35.53-10.3,9.99-2.06,16.43-1.49,14.97,11.75-.81,7.32,3.95,12.81,11.94,12.94,7.98,.13,11.74-5.04,12.58-12.55,.23-2.05,.32-4.14,.15-6.19-.53-6.2,1.92-7.47,8.03-6.72,13.62,1.67,26.54,5.54,39.43,9.95,7.66,2.62,11.74,5.88,5.24,13.61-.26,.31-.45,.69-.65,1.06-4.14,7.55-4.07,14.58,3.93,19.28,7.82,4.59,14.1,.73,17.25-6.36,4.86-10.95,9.94-8.97,17.12-2.42,8.25,7.53,16.16,15.31,23.62,23.64,6.43,7.18,8.85,12.21-2.44,16.96-7.6,3.2-9.89,10.37-6.04,17.64,3.99,7.54,10.79,8.14,18.06,4.18,1.09-.59,2.2-1.17,3.19-1.91,5.85-4.38,8.96-2.97,11.59,3.98,4.71,12.43,7.94,25.14,10.55,38.13,1.65,8.21,.53,12.68-9.28,11.65-9.07-.95-16.2,2.72-15.83,12.68,.36,9.83,7.76,12.3,16.7,12.29,71.48-.12,142.95-.15,214.43,.02,11.36,.03,16.97-4.87,16.97-16.23,0-14.47-.18-28.94,.08-43.4ZM555.78,154.4c25.85-30.44,49.6-58.35,73.28-86.33,2.27-2.68,4.46-3.8,7.03-.77,23.92,28.16,47.79,56.35,73.86,87.11-10.97,0-18.62,.14-26.27-.03-10.42-.23-15.04,5.25-15.4,15.12-.12,3.3-.04,6.61-.04,9.91,0,84.24,.03,168.49-.08,252.73,0,4.35,1.43,9.01-3.64,16.54-7.8-9.05-15.25-17.19-22.11-25.81-7.77-9.75-16.42-10.85-27.21-5.17-5.28,2.78-10.57,6.43-17.97,6.29,0-8.4,0-16.61,0-24.82,0-73.92,0-147.84,0-221.76,0-21.82-1.21-23-23.31-23.01-4.87,0-9.74,0-18.14,0Zm-232.49,79.26c25.53-30.17,48.95-57.81,72.32-85.5,2.82-3.34,5.3-4.92,8.84-.72,23.58,27.97,47.25,55.86,72.97,86.23-9.65,0-16.42-.06-23.19,.01-14.79,.15-18.39,3.57-18.46,18.14-.12,25.59-.4,51.18,.17,76.75,.2,9.04-2.01,12.43-11.6,11.95-16.05-.8-32.18-.64-48.25-.05-8.46,.32-11.54-1.99-11.33-10.93,.57-24.75,.21-49.52,.19-74.28-.02-18.94-2.6-21.55-21.25-21.59-5.67-.01-11.34,0-20.4,0Zm-212.08,79.48c-5.72-.01-11.44,0-16.8,0-2.26-3.68,.46-5.17,1.9-6.88,21.58-25.55,43.2-51.08,64.91-76.53,2.96-3.48,5.45-9.25,11.23-2.36,23.33,27.79,46.91,55.38,72.72,85.78-10.75,0-18.05,.25-25.32-.06-11.48-.49-16.6,4.61-16.49,16.22,.28,28.09-.25,56.19,.27,84.27,.18,9.71-1.21,12.39-11.15,7.69-22.23-10.52-22.52-10.17-39.89,7.55-5.72,5.84-10.84,12.27-16.14,18.32-5.61-4.7-3.9-8.68-3.92-12.08-.15-33.46-.07-66.93-.1-100.39-.02-19.19-2.32-21.49-21.22-21.52Zm647.98,393.32c.83,9.68-8.32,5.55-13.05,5.64-24.37,.43-48.74,.2-73.11,.2-24.37,0-48.76-.39-73.11,.21-8.77,.22-11.82-2.1-13.17-11.2-10.58-70.98-48.6-122.08-114.64-150.16-110.4-46.95-236.46,22.9-256.87,141.23q-3.44,19.92-24.01,19.92c-45.85,0-91.71-.21-137.56,.18-9.08,.08-12.8-1.44-13.06-11.9-.32-12.88,2.34-20.95,16.15-23.85,30.54-6.41,50.86-22.17,56.01-55.84,2.83-18.51,13.51-35.4,23.65-51.51,5-7.94,5.12-14.96,1.13-23.19-6.29-12.99-11.6-26.47-17.87-39.47-2.39-4.97-1.78-8.1,2.06-11.86,16.23-15.9,32.38-31.89,48.17-48.23,4.68-4.84,8.76-4.66,14.25-2.08,12.68,5.96,25.68,11.26,38.32,17.29,7.76,3.7,14.55,3.7,22.14-.93,24.79-15.13,51.5-26.04,79.65-33.02,8.8-2.18,13.24-7.03,16.11-15.08,4.7-13.22,10.35-26.11,15.01-39.34,2.06-5.84,4.71-8.44,11.35-8.31,22.71,.44,45.44,.31,68.16,.07,5.32-.06,8.01,1.51,9.86,6.78,4.92,14.02,10.77,27.7,15.89,41.65,2.78,7.57,7.2,12.1,15.49,14.13,28.18,6.92,54.87,17.83,79.68,32.93,7.54,4.59,14.33,5.01,22.13,1.33,12.67-5.98,25.66-11.28,38.3-17.33,6.03-2.89,10.29-2.63,15.23,2.52,15.15,15.8,30.63,31.3,46.43,46.46,5.15,4.94,5.26,8.86,2.23,14.98-6.41,12.93-11.63,26.44-17.78,39.52-3.31,7.06-2.85,13.14,1.19,19.81,15.3,25.23,26.59,52.2,33.53,80.91,1.92,7.96,6.37,12.77,14.21,15.5,13.61,4.74,26.88,10.44,40.41,15.42,14.75,5.42,6.73,17.66,7.5,26.65Zm-260.92-37.93c-5.86-10.35-14.49-6.52-22.42-1.98-10.35,5.93-20.79,11.74-30.96,17.98-9.86,6.05-19.12,12.92-30.8,3.02-2.78-2.35-7.79-2.05-9.41-2.43-25.28-.91-43.42,15.69-44.06,37.97-.64,22.29,16.5,40.96,38.39,41.81,21.61,.84,40.68-16.74,40.72-39.13,.02-8.19,3.33-11.66,9.59-15.07,13.36-7.29,26.42-15.14,39.62-22.72,7.63-4.38,14.83-9.72,9.32-19.45Zm-97.84,71.1c-8.69,.03-14.48-5.52-14.57-14.82-.1-9.36,5.21-14.57,14.4-14.65,9.25-.09,14.11,5.26,14.78,14.37-.65,9.27-5.87,15.07-14.61,15.1Z"/>
</svg>