<?xml version="1.0" encoding="UTF-8"?>
<svg id="Layer_1" data-name="Layer 1" xmlns="http://www.w3.org/2000/svg" viewBox="0 0 800 800">
  <defs>
    <style>
      .cls-1 {
        fill: none;
      }

      .cls-2 {
        fill: #010101;
      }
    </style>
  </defs>
  <rect class="cls-1" width="800" height="800"/>
  <path class="cls-2" d="M758.85,198.85c-32.82-17.63-67.94-30.35-102.22-44.84-6.66-2.81-12.7-.06-15.99,6.25-3.61,6.93-1.67,13.21,4.76,17.67,2.55,1.77,5.56,2.92,8.44,4.16,28.04,12.02,56.09,24.01,84.17,35.96,9.05,3.85,15.2,10.33,15.25,20.29,.05,9.81-5.42,16.7-14.66,20.63-28.91,12.29-57.81,24.63-86.57,37.27-4.28,1.88-6.81,1.96-7.85-2.79-4-18.31-17.82-25.38-33.73-31.17-60.45-22.02-122.86-33.49-187.04-35.77-45.57-1.62-90.76,2.51-135.66,10.01-9.14,1.53-18.94,4.23-17.21,16.34,1.7,11.88,10.87,12.24,20.75,10.75,15.54-2.34,31.17-4.18,46.78-6.03,90.9-10.8,179.24,.08,265.34,30.91,10.96,3.93,15.52,9.8,15.37,21.7-.55,43.2-.22,86.41-.22,129.62,0,17.3,.02,17.23-16.66,11.91-38.38-12.26-78.09-15.92-117.99-19.34-65.27-5.59-130.34-3.9-195.36,2.69-34.35,3.48-68.34,9.21-101.93,22.12,0-52.18,0-102.99,0-153.8,0-7.54,4.46-11.17,11.03-13.41,11.88-4.05,23.68-8.36,35.51-12.57,8.04-2.86,11.92-8.73,9.42-16.79-2.46-7.92-8.73-10.76-17.11-8.68-13.98,3.48-27.36,8.58-40.69,13.94-11.59,4.66-20.09,12.29-23.15,24.42-2.15,8.53-5.83,7.41-12.14,4.62-26.27-11.59-52.69-22.84-79.18-33.91-10.19-4.26-18.47-9.79-18.58-22.1-.11-12.3,7.85-17.77,18.2-22.19,100.75-42.97,201.41-86.15,302.01-129.46,20.64-8.88,40.85-8.68,61.32,.21,26.34,11.43,52.79,22.63,79.2,33.93,27.22,11.65,54.49,23.2,81.64,35.03,7.54,3.29,13.92,3.12,19.17-3.75,4.13-5.41,3.7-10.7-.49-16-3.3-4.17-8.22-5.47-12.66-7.39-52.32-22.57-104.68-45.04-157.09-67.38-26.48-11.29-53.32-11.89-79.85-.56-102.77,43.88-205.53,87.81-308.1,132.18-36.41,15.75-41.71,59.88-10.6,84.25,4.63,3.62,7.13,6.84,7.1,13.09-.26,59.41-.24,118.82-.03,178.23,.02,6.07-1.8,9.56-7,12.97-24.9,16.32-27.42,43.8-6.07,65.06,3.52,3.51,5.6,6.37,4.52,11.52-4.81,22.82-9.15,45.73-14.04,68.53-3.84,17.89,1.57,32.47,16.25,36.13,22,5.47,47.51,4.62,54.97-14.59,2.19-5.63,3.15-11.01,1.86-17.03-5.07-23.69-9.75-47.46-14.86-71.14-1.27-5.87,.06-9.66,4.51-14.11,20.76-20.75,18-47.93-6.28-64.13-4.5-3-7.01-5.63-6.99-11.49,.24-55.81,.26-111.62,.01-167.43-.04-8.79,2.65-8.27,9.31-5.28,19.66,8.8,39.48,17.3,59.57,25.08,9.18,3.56,12.59,8.27,12.43,18.62-.71,47.25-.21,94.51-.43,141.77-.06,13.34,4.9,23.58,16.31,30.43,7.1,4.27,14.74,5.95,20.74-1.33,5.89-7.14,4.5-14.51-2.95-19.84-6.3-4.5-3.71-6.97,1.34-9.2,4.5-1.99,9.11-3.81,13.8-5.3,42.34-13.47,86.24-17.53,130.18-20.27,67.97-4.23,135.86-2.37,203.27,8.01,25.12,3.87,50.43,7.96,76.02,22.07-3.09,2.02-4.2,2.72-5.28,3.46-8.02,5.46-10.55,12.7-4.62,20.69,6.21,8.36,14.3,5.76,21.63,1.19,11.79-7.34,16.16-18.39,16.09-32.04-.23-46.36,.33-92.72-.43-139.07-.18-10.84,3.26-15.73,12.99-19.64,30.41-12.21,60.49-25.23,90.55-38.28,18.88-8.2,30.31-22.7,31.48-43.42,1-17.76-5.63-33.63-21.57-42.19ZM62.94,638.3c-3.8,.89-9.6,1.84-7.68-6.29,3.07-12.99,5.53-26.13,8.24-39.21,.87-.05,1.73-.1,2.6-.15,2.69,13.35,5.88,26.64,7.93,40.09,1.59,10.46-7.17,4.65-11.08,5.57Zm1.61-108.32c-8.21-.11-13.28-5.51-12.85-14.13,.39-7.99,5.37-11.91,13.05-12.28,8.15,.57,13.17,5.09,13.32,12.66,.16,8.27-5.31,13.85-13.52,13.75Zm444.63,3.23c-13.57-2.58-18.82-12.17-23.38-23.37-2.61-6.42-8.08-9.89-15.18-8.36-6.89,1.48-10.51,6.56-11.2,13.47-.36,3.56-.11,7.19-.11,10.78,0,31.89,0,63.78,0,97.8-15.16-7.72-29.01-7.96-42.92-6.2-36.19,4.58-57.28,37.6-43.56,67.79,10.42,22.93,40.84,37.15,67.11,31.37,29.75-6.55,46.48-25.85,46.55-54.04,.09-35.46,.02-70.92,.02-106.8,7.21,1.24,13.24,3.76,19.59,2.19,5.61-1.38,9.9-4.31,10.65-10.61,.76-6.44-.98-12.76-7.56-14.01Zm-67.37,154.16c-4.67,1.89-9.39,2.71-14.41,2.67-17.36-.12-30.97-10.22-31.14-23.3-.17-13.45,12.51-22.92,32.39-23.06,2.08,.2,5.75,.14,9.2,.97,10.69,2.59,19.69,7.85,20.96,19.81,1.29,12.21-6.6,18.69-17.01,22.9Zm-108.77-107.1c-13.31-2.55-18.16-11.81-22.46-22.48-2.76-6.83-8.09-9.18-15.16-8.39-7.66,.86-10.58,6.1-11.5,12.81-.49,3.54-.17,7.19-.17,10.78,0,31.91,0,63.82,0,96.64-5.07-1.47-9.26-2.74-13.49-3.9-23.12-6.38-43.75-.78-61.63,14.28-18.05,15.21-21.01,38.46-8.21,58.35,11.13,17.31,28.12,24.94,47.83,26.07,36.27,2.1,65.17-23.97,63.13-56.08-1.93-30.47-.18-61.16-.56-91.75-.12-9.37,.05-15.3,12.48-11.33,6.94,2.22,14.76-.15,17.43-8.68,2.33-7.45-.3-14.92-7.68-16.33Zm-69.27,155.29c-3.85,1.11-7.95,1.33-11.81,1.94-6.75-1.24-13.57-1.34-19.55-5.05-7.4-4.59-12.07-10.81-11.57-19.79,.46-8.42,5.37-14.02,12.69-17.67,10.58-5.26,21.46-6.13,32.59-1.87,9.89,3.78,17.72,9.79,17.24,21.41-.5,12.08-8.94,17.97-19.58,21.03Z"/>
</svg>