<?xml version="1.0" encoding="UTF-8"?>
<svg id="Layer_1" data-name="Layer 1" xmlns="http://www.w3.org/2000/svg" viewBox="0 0 800 800">
  <defs>
    <style>
      .cls-1 {
        fill: none;
      }

      .cls-2 {
        fill: #010101;
      }
    </style>
  </defs>
  <rect class="cls-1" width="800" height="800"/>
  <path class="cls-2" d="M774.93,218.31c-12.65-19.76-35.48-29.44-58.04-24.61-32.48,6.95-50.62,34.86-43.48,68.63,1.55,7.31,0,10.27-5.83,13.99-26.76,17.08-53.16,34.73-79.81,51.98-2.67,1.73-5.75,6.2-9.51,.85-2.84-4.04,.15-6.17,2.41-8.6,4.9-5.28,9.91-10.47,14.76-15.8,10.95-12.04,10.94-16.34-.23-27.65-11.32-11.47-22.77-22.8-34.16-34.2-21.12-21.13-21.58-21.59-42.96-.18-9.05,9.06-15.72,8.94-28,5.04-21.14-6.72-28.4-17.87-26.23-39.19,1.48-14.57-3.21-18.03-17.65-18.2-15.69-.18-31.39-.04-47.08-.04-33.23,0-33.65,0-33.89,33.98-.07,9.88-3.68,13.25-12.28,18.2-21.02,12.08-36.48,9.65-50.94-9.68-6.46-8.63-15.31-7.74-22.91,.31-3.2,3.39-7.08,6.21-9.86,9.89-4.74,6.27-7.99,4.65-12.84-.29-24.64-25.08-49.51-49.94-74.68-74.49-4.96-4.83-5.02-8.27-1.7-13.89,7.45-12.58,8.87-26.38,5-40.37-8.74-31.61-40.47-49.64-69.9-40.08-31.66,10.29-48.31,42.42-37.61,72.55,10.95,30.81,44.72,45.54,75.67,32.49,6.47-2.73,10.21-2.12,15.2,3.01,23.35,24,46.82,47.91,71.13,70.92,8.63,8.17,8.22,12.67-.19,20.42-17.15,15.82-17.64,19.61,.05,35.42,12.54,11.21,15.73,21.27,6.05,35.15-1.87,2.68-3.02,6.14-3.58,9.4-1.57,9.09-6.4,11.66-15.69,11.83-29.76,.56-39.33-2.2-35.99,33.34,.52,5.58-1.68,7.31-7.17,7.19-13.99-.31-28.02-.61-41.98,.08-8.74,.43-12.61-1.97-15.76-10.91-9.4-26.65-38.56-41.12-65.87-34.32-25.72,6.41-45.64,33.97-42.58,58.91,3.4,27.71,23.58,48.67,49.73,51.64,26.69,3.04,50.25-11.82,59.95-38.68,2.09-5.79,4.45-7.85,10.53-7.65,13.56,.44,27.18,.79,40.7-.08,10.02-.65,12.92,2.42,12.69,12.53-.59,25.85,.24,26.19,25.8,27.17,1.7,.07,3.41,.34,5.08,.18,11.51-1.12,16.24,3.92,22.03,14.69,10.95,20.35,8.15,34.03-9.32,48.06-10.42,8.36-9.43,15.02,.03,24.63,14.57,14.8,29.29,29.45,44.1,44.02,10.14,9.98,14.94,9.91,25.79,.1,7.33-6.64,14.58-13.37,21.86-20.06,1,.98,2.01,1.96,3.01,2.94-10.77,13.35-22,26.37-32.11,40.2-5.66,7.74-9.78,9.32-19,4.35-20.48-11.03-41.15-8.61-59.47,5.7-18.34,14.32-25.12,33.82-20.16,56.43,7.01,31.93,39.69,51.05,69.99,41.79,32-9.78,49.15-42.42,37.09-73.25-3.38-8.65-1.9-13.52,3.46-19.76,11.05-12.84,21.81-25.96,32.03-39.47,4.75-6.28,8.9-7.87,16.79-5.35,8.03,2.57,7.41,7.57,7.58,13.49,.22,7.62,.78,15.23,1.36,22.84,.74,9.67,5.82,14.19,15.78,14.07,22.05-.28,44.11-.2,66.17-.04,10.44,.08,17.1-4.75,15.66-15.12-3.28-23.68,5.61-37.08,29.08-43.52,9.57-2.63,15.07-3.54,22.55,3.97,22.78,22.89,23.26,22.65,46.37,.83,4.25-4.01,6.68-4.38,10.81-.02,10.79,11.37,21.78,22.59,33.23,33.29,6.46,6.04,9.07,10.7,4.93,20.34-14.74,34.34,12.21,76.47,54.66,75.24,24.51-.71,43.97-16.63,51.03-39.08,7.07-22.47,.29-45.58-17.78-60.65-18.05-15.05-41.75-17.06-63.97-4.67-4.85,2.71-7.6,3.26-11.71-1.05-11.98-12.57-24.3-24.83-36.8-36.88-4.36-4.21-3.84-6.8,.15-11.05,21.48-22.89,21.36-23-.23-45.64-.29-.31-.52-.69-.85-.94-7.96-5.87-7.07-11.83-4.37-21.34,6.7-23.62,19.71-33.6,44.25-29.87,9.5,1.44,14.78-4.51,14.72-14.63-.14-22.47-.24-44.94,.05-67.4,.13-10.08-4.73-14.98-14.22-15.72-8.45-.66-16.95-1.28-25.4-1.08-6.12,.14-8.73-2.15-10.64-7.9-2.14-6.46,1.78-8.04,5.77-10.64,25.54-16.59,51.15-33.1,76.4-50.14,8.93-6.03,16.48-11.24,25.8-.36,2.95,3.45,8.88,4.62,13.66,6.18,21.93,7.15,45.99-.41,60.29-18.68,15.12-19.33,16.36-44.5,3.21-65.05ZM130.26,164.73c-20.34-.26-37.41-17.75-36.76-37.69,.64-19.55,17.69-36.39,37.03-36.57,19.5-.18,37.61,17.9,37.56,37.49-.06,19.97-17.6,37.02-37.83,36.77Zm-57.17,287.21c-20.68-.06-36.9-16.61-36.62-37.38,.27-20.39,17.74-37.54,37.58-36.88,20.06,.66,36.46,18.17,36.08,38.49-.38,19.78-16.99,35.83-37.04,35.77Zm180.01,258.44c-19.99,.33-37.45-16.83-37.52-36.88-.08-20.37,16.58-37,37.08-37.01,20.53,0,36.64,16.43,36.53,37.26-.11,19.98-16.19,36.3-36.08,36.63Zm410.99-88.58c19.93,.43,36.15,16.79,36.33,36.65,.19,20.43-16.41,36.87-37.19,36.85-21-.03-36.48-15.83-36.33-37.08,.14-20.82,16.53-36.86,37.19-36.42Zm-68.17-236.86c25.45,.36,25.44,.84,25.44,26.36,0,8.48-.37,16.97,.11,25.42,.39,6.83-2.51,9.71-8.85,8.61-25.96-4.5-40.93,5.85-44.6,32.16-.28,2.01-1.59,3.9-2.52,5.79-13.87,27.97-16.51,21.23,8.02,46.71,7.61,7.91,6.9,12.1-.74,18.73-9.58,8.31-18.32,17.63-27.05,26.86-4.13,4.37-7.59,6.65-11.95,.69-15.53-21.2-31.65-20.77-55.9-10.15-22.96,10.06-36.81,19.07-32.25,45.43,1.21,6.99-2.16,9.67-9.43,9.42-13.98-.49-27.99-.36-41.98-.04-6.09,.14-10.26-.96-8.97-8.17,4.79-26.88-9.02-36.46-32.8-46.67-24.36-10.45-40.36-11.05-55.86,10.32-3.5,4.83-6.83,4.53-11.1,0-10.16-10.79-20.76-21.2-31.44-31.48-4.2-4.04-5.43-7.53-.15-11.24,22.5-15.85,20.19-32.79,9.91-56.98-9.97-23.45-20.12-36.09-46.09-31.38-6.91,1.25-8.48-2.49-8.32-8.81,.38-14.4,.49-28.83-.04-43.22-.26-7.12,2.67-9.14,8.9-8.18,24.25,3.72,39.94-4.39,43.76-30.4,.77-5.23,4.01-10.17,6.49-15.05q9.01-17.74-4.75-32.49-15.09-16.14,1-32.24c6.89-6.89,13.74-13.83,20.66-20.69,1.73-1.71,3.66-3.21,5.75-5.01,2.17,1.87,3.77,3.19,5.29,4.59,5.92,5.46,11.9,10.84,17.68,16.45,5.65,5.49,11.49,6.25,18.36,2.17,11.68-6.94,24.05-12.58,37.27-15.69,11.8-2.78,15.14-10.26,15.38-21.29,.56-25.97,.8-26.02,26.71-25.93,10.57,.04,23.93-3.44,30.97,1.66,7.67,5.55,2.39,19.77,3.25,30.18,.59,7.15,3.56,11.84,10.64,13.89,14.64,4.24,28.82,9.69,41.94,17.54,7.72,4.62,13.33,1.23,19.33-3.77,7.56-6.29,13.17-19.39,22.62-17.64,7.95,1.47,14.17,12.48,21.06,19.35,19.92,19.87,20.25,20.22,1.27,40.02-8.2,8.56-9.05,16.11-2.81,25.84,5.93,9.26,10.35,19.55,12.7,30.22,2.87,13.04,10.02,17.95,23.09,18.13Zm132.15-99.45c-20.55,.26-37.33-16.29-37.32-36.82,0-20.65,16.32-36.82,37.08-36.77,20.76,.06,36.75,16.3,36.58,37.17-.16,20.03-16.26,36.17-36.35,36.42Zm-312.57-2.29c-73.77-.05-132.21,58.33-132.19,132.04,.02,73.43,58.96,132.3,132.29,132.13,72.48-.16,131.73-59.28,132.03-131.71,.3-73.11-58.86-132.41-132.13-132.46Zm-.62,244.5c-62.3-.11-113.73-51.5-113.06-112.97,.67-61.93,52.52-113.43,113.75-112.98,62.17,.46,112.44,51.3,112.38,113.67-.06,62.74-50.06,112.39-113.06,112.28Zm85.56-112.01c-.01,11.01,.02,22.01-.02,33.02-.02,5.79-2.13,9.96-8.7,10.05-7,.09-9.78-3.94-9.78-10.46,0-22.01,.03-44.03-.02-66.04-.01-6.52,2.7-10.84,9.53-10.8,7.12,.04,9.05,4.97,9.02,11.22-.06,11.01-.02,22.01-.03,33.02Zm-109.65-13.11c-.69-19.08-13.04-31.63-30.68-31.41-17.57,.22-30.12,13.1-30.61,32-.35,13.52-.08,27.06-.08,40.59,0,6.96-.22,14.52,9.37,14.89,9.69,.38,9.81-7.13,10.33-14.13,.25-3.29-2.11-8.47,4.2-8.6,5.84-.12,12.23-.9,17.38,1.13,3.89,1.53,1.36,7.67,1.61,11.72,.38,5.93,2.78,9.71,9.03,9.99,7.3,.33,9.46-4.19,9.47-10.52,.01-8.46,0-16.91,0-25.37,0-6.76,.2-13.54-.04-20.29Zm-30.33,13.03c-6.47,.4-12.8,1.55-11.68-8.93,.86-8.07,1.31-16.22,11.41-16.22,10.42,0,11.75,8.01,12.44,16.8,.87,11.11-6.53,8.01-12.17,8.36Zm110.83-18.4c-.42-13.11-10.18-24.16-23.64-25.56-8.81-.91-17.77-.49-26.66-.6-8.41-.11-12.48,4.41-12.61,12.51-.16,10.59-.04,21.18-.05,31.77-.01,10.17-.15,20.34,.04,30.5,.12,6.84,1.76,13.14,10.43,12.85,7.71-.26,9.47-5.8,9.5-12.38,.03-6.35-1.97-13.95,.81-18.74,3.59-6.18,12.31-1.94,18.71-3.18,14.04-2.71,23.92-13.65,23.48-27.18Zm-32.74,8.34c-5.29,.03-10.71,1.72-10.63-7.47,.07-8.57,4.54-8.26,10.34-8.02,5.83,.24,12.92-1.06,13.07,7.64,.15,8.8-7,7.7-12.78,7.85Z"/>
</svg>