<?xml version="1.0" encoding="UTF-8"?>
<svg id="Layer_1" data-name="Layer 1" xmlns="http://www.w3.org/2000/svg" viewBox="0 0 800 800">
  <defs>
    <style>
      .cls-1 {
        fill: none;
      }

      .cls-2 {
        fill: #010101;
      }
    </style>
  </defs>
  <rect class="cls-1" width="800" height="800"/>
  <path class="cls-2" d="M746.76,445.24c-2.85-9.82-8.62-18.04-16.48-24.16-10.99-8.54-13.66-19-13.48-32.62,.75-58.31,.34-116.63,.25-174.94,0-5.66,.08-11.25-1.63-16.93-10.56-35-36.43-54.39-73.57-54.7-6.62-.05-12.22,.72-16.71-7.5-35.47-64.82-90.42-100.16-164.5-100.26-74.02-.1-129.1,34.8-164.89,99.6-3.37,6.11-6.95,8.41-14.04,8.36-48.4-.35-96.81-.44-145.21-.1-43.03,.3-73.71,31.6-73.75,74.62-.06,59.08-.01,118.15-.01,177.23,0,58.32,.85,116.65-.28,174.94-.83,42.75,32.27,77.94,76.34,76.97,51.43-1.13,102.9-.26,154.35-.26,27.27,0,27.08,0,25.94,27.19-.22,5.34-1.88,6.84-6.98,7.69-34.49,5.77-55.54,25.7-62.7,60.21-3.65,17.6,2.16,25.26,20.21,25.27,80.42,.04,160.83,.04,241.25,0,17.14,0,23.53-7.63,20.18-24.59-5.88-29.7-22.56-49.93-52.24-58.61-17.65-5.16-16.9-5.36-17.84-24.34-.54-10.82,3.04-13.13,13.3-13.05,56.78,.49,113.58-.2,170.36,.37,40.78,.41,74.38-34.56,72.67-73.07-.86-19.4,.09-38.87-.29-58.31-.12-6.03,1.55-9.28,7.06-12.44,21.03-12.06,29.37-33.64,22.72-56.55Zm-122.72-138.28c22.78-42.77,27.42-87.77,16.24-134.65,25.86-4.34,48.57,14.54,48.92,42.43,.68,54.03,.2,108.08,.2,165.87-22.95-23.2-43.45-44.03-64.12-64.7-2.95-2.95-3.12-5.43-1.24-8.95ZM460.76,62.2c86.55,.59,156.61,70.96,156.51,157.22-.1,86.72-71.43,157.94-157.61,157.36-86.11-.57-156.58-71.31-156.67-157.28-.1-86.44,71.57-157.89,157.78-157.31ZM91.52,218.63c.06-31.15,17.04-47.54,48.36-47.59,43.07-.07,86.15,.11,129.22-.13,8.07-.05,11.74-.16,9.32,10.65-6.66,29.67-5.06,59.59,3.24,90.1h-86.51c-12.58,0-25.16-.02-37.74,0-14.67,.02-21.56,4.72-21.35,14.51,.21,9.73,6.95,14.22,21.88,14.24,41.17,.05,82.34,.25,123.5-.18,8.24-.09,12.72,2.2,16.83,9.71,47.47,86.73,157.34,120.51,245.59,75.4,7.35-3.76,10.91-2.96,16.3,2.52,33.43,33.93,67.23,67.5,100.88,101.21,6.22,6.23,12.43,12.72,20.98,15.39,5.78,1.8,8.24,4.56,7.4,10.54-1.1,7.79-7.16,4.23-10.76,4.23-134.18,.21-268.36,.18-402.54,.18-57.94,0-115.88-.16-173.82,.18-8.17,.05-11.1-1.51-11.06-10.48,.34-96.83,.09-193.66,.28-290.48Zm369.81,490.24c17.86,.17,30.5,9.54,38.78,26.96h-219.71c7.61-17.43,20.34-26.73,38.15-26.93,47.59-.52,95.19-.48,142.78-.03Zm-89.5-63.41c17.08,0,34.18,.35,51.24-.16,7.49-.22,10.58,1.12,10.47,9.68-.33,24.58,.1,24.59-24.9,24.59-6.07,0-12.15,0-18.22,0-12.15,0-24.3-.2-36.44,.09-5.46,.13-6.97-1.9-7.28-7.25-1.57-26.94-1.74-26.94,25.14-26.94Zm296.85-35.27c-8.57,5.59-18.35,6.86-28.4,6.85-166.85-.03-333.71,.02-500.56-.05-30.68-.01-47.75-17.22-48.27-48.06q-.34-20.42,19.77-20.42c93.33,0,186.66,0,279.99,0s191.23,.17,286.85-.25c9.78-.04,11.65,2.69,11.65,11.93,0,19.94-2.81,38.12-21.04,50Zm51.41-150.26c-.43,8.21-3.89,14.44-11.75,17.85-8.9,3.86-16.33,1.25-22.79-5.19-22.92-22.85-45.79-45.76-68.68-68.65-10.77-10.77-21.1-22.04-32.48-32.13-7.19-6.37-6.21-10.49,.81-15.3,1.87-1.28,3.47-2.98,5.11-4.56q15.39-14.92,31.08,.7c29.89,29.88,59.69,59.83,89.63,89.66,4.98,4.96,9.49,9.95,9.07,17.62Zm-510.34-51.01c18.24,0,36.48,.12,54.72-.05,9.58-.09,16.55,3.17,17.7,13.48,.99,8.91-5.66,15.12-17.15,15.21-37.24,.29-74.48,.29-111.72,.01-11.39-.08-18.1-6.36-17.12-15.25,1.14-10.36,8.14-13.54,17.71-13.45,18.62,.17,37.24,.05,55.86,.05Zm-4.76-68.63c16.74,0,33.49,.2,50.23-.08,9.89-.16,16.32,3.96,17.67,13.78,1.11,8.11-5.97,14.76-16.5,14.87-34.62,.35-69.25,.37-103.88,.04-10.7-.1-17.1-6.36-16.33-14.91,.93-10.4,7.82-13.81,17.45-13.74,17.12,.14,34.25,.04,51.37,.04Zm121.92,97c-7.67-.11-15.13-7.26-14.12-14.58,1.06-7.74,5.43-13.25,13.97-13.69,7.63-.39,14.76,6.57,14.81,14.07,.05,7.52-6.96,14.3-14.66,14.19ZM460.49,93.27c-68.94-.15-125.55,56.33-125.63,125.34-.09,70.6,55.19,125.86,125.24,126.56,62.81,.63,125.29-49.22,126.2-126.17,.81-68.37-57.36-125.59-125.81-125.74Zm-.16,223.8c-52.49,.09-98.56-45.15-97.49-97.71,1.28-62.92,53.37-98.81,97.78-96.48,54.34,.07,96.43,42.61,96.27,97.31-.15,52.97-43.83,96.79-96.56,96.88Zm.05-162.13c35.93,2.14,62.71,28.89,64.26,61.33,.4,8.37-2.61,15.24-11.7,16.88-9.78,1.77-15.94-3.85-16.79-12.74-2.2-22.99-14.5-34.48-37.03-36.93-9.33-1.01-14.12-7.41-12.38-16.95,1.67-9.14,8.63-11.58,13.65-11.59Z"/>
</svg>