<?xml version="1.0" encoding="UTF-8"?>
<svg id="Layer_1" data-name="Layer 1" xmlns="http://www.w3.org/2000/svg" viewBox="0 0 800 800">
  <defs>
    <style>
      .cls-1 {
        fill: #010201;
      }

      .cls-2 {
        fill: none;
      }
    </style>
  </defs>
  <rect class="cls-2" width="800" height="800"/>
  <path class="cls-1" d="M686.15,494.73c.21-10.04-6.76-12.55-15.61-12.5-27.44,.15-54.9-.59-82.3,.32-12.83,.43-17.29-2.58-17.04-16.45,.94-51.03,.38-102.08,.52-153.12,.03-9.46-.49-19.03-9.14-24.5-7.51-4.76-7.76-11.05-7.73-18.51,.17-38.04,.2-76.08,.02-114.12-.07-16.18-3.6-19.55-19.4-19.66-14.92-.1-29.87-.53-44.76,.16-9.25,.43-12.91-2.05-12.39-11.91,.79-14.89,.23-29.84,.2-44.77-.05-20.11-1.49-21.61-21.25-21.61-137.67-.02-275.34-.02-413.01,0-20.53,0-22.47,1.91-22.48,22.04-.02,93.42,0,186.83,0,280.25s0,186.83,0,280.25c0,20.9,1.98,22.82,23.3,22.88,13.48,.04,26.99,.55,40.42-.17,9.78-.52,13.8,2.11,13.22,12.69-.87,15.84,.23,31.79-.36,47.65-.5,13.5,5.11,19.26,18.63,19.26,171.85-.09,343.69,.06,515.54,.03,18.07,0,30.16-9.09,34.8-26.57,5.16-19.46,10.4-38.99,13.86-58.8,9.45-53.98,3.83-108.54,4.95-162.84Zm-149.85-176.94c.02-4.66-2.55-11.97,6.24-11.5,8.78,.47,4.97,7.88,5.03,12.2,.36,24.97,.17,49.96,.17,74.93h-.1c0,25.46,.19,50.92-.19,76.37-.06,4.32,3.66,11.79-5,12.28-8.73,.5-6.27-6.84-6.28-11.54-.1-50.92-.06-101.84,.12-152.75Zm111.62,188.03c10.86-.08,15.01,2.02,14.61,13.98-.87,26.31-.16,26.27-26.98,26.21-31.3-.07-62.6-.02-93.91-.02v-.07c-35.64,0-71.28-.28-106.91,.19-9.33,.12-12.36-2.39-12.33-12.11,.1-28.01-.37-28.02,27.58-28.01,65.98,.02,131.95,.27,197.92-.18ZM98.51,163.85c0,153.15-.19,306.3,.33,459.45,.05,13.57-3.77,16.8-16.79,16.49-35.85-.85-35.86-.27-35.86-36.09,0-80.91,0-161.82,0-242.73,0-88.13,.18-176.27-.23-264.4-.05-10.95,2.28-14.84,14.17-14.8,127.1,.44,254.2,.41,381.3,.03,10.65-.03,14.92,2.37,13.55,13.47-1.63,13.2,5.71,30.92-3.04,38.58-7.48,6.55-24.68,2.26-37.59,2.27-96.29,.08-192.58,.05-288.87,.05q-26.97,0-26.98,27.67Zm247.8,554.32c-70.28-.34-140.56-.49-210.83,.1-11.7,.1-13.05-4.27-13.01-14.23,.34-88.6,.2-177.2,.2-265.8,0-88.12,.18-176.24-.24-264.36-.05-10.45,2.07-13.99,13.33-13.95,127.56,.42,255.12,.35,382.68,.08,9.21-.02,12.46,2.05,12.28,11.93-.64,33.69-.23,67.41-.26,101.12,0,4.7,.95,9.65-4.59,12.56-11.36,5.98-13.45,16.17-13.39,28.07,.26,51.04-.49,102.09,.35,153.12,.22,13.34-4,16.01-16.25,15.54-24.99-.95-50.05-.3-75.08-.28-21.97,.02-23.06,1.15-23.18,22.58-.14,24.55,.26,49.12-.68,73.64-1.76,45.83-14.82,88.76-34.8,129.85-3.67,7.54-8.16,10.06-16.51,10.02Zm298.4-10.14c-2.79,9.28-25.8,16.26-32.44,9.64-3.93-3.91-1.12-9.08-.27-13.61,3.53-18.9,7.3-37.75,7.99-57.04,.26-7.43-.94-13.87-10.07-14.35-9.07-.47-12.94,5-13.56,13.33-1.53,20.66-5.47,40.95-9.06,61.3-1.41,7.97-4.11,12.01-13.81,11.98-36.12-.11-36.04,.38-29.62-35.44,2.03-11.34,3.29-22.82,5.19-34.18,1.37-8.15-.23-14.87-9.16-16.6-9.3-1.8-12.85,4.61-14.26,12.47-3.65,20.33-7.28,40.66-10.65,61.03-1.36,8.25-4.63,12.49-14.06,11.62-12.85-1.19-30.15,3.88-37.5-2.72-6.84-6.13,5.43-21.95,7.33-34.03,1.71-10.88,4.64-21.57,6.84-32.38,1.52-7.45-.25-14.01-8.27-15.96-8.56-2.09-13.36,2.15-15.07,11-4.18,21.68-9.16,43.14-16.79,63.99-2.82,7.7-6.58,10.46-14.59,10.05-11.87-.61-23.79-.16-37.58-.16,13.08-29.43,23.86-57.54,29.8-87.29,3.39-17,6.16-34.07,7.1-51.34,.4-7.39,2.65-9.78,10.17-9.75,73.65,.28,147.3,.34,220.95,.1,8.2-.03,9.14,3.49,9.34,10.36,1.29,43.71-5.44,86.24-17.97,127.97Zm126.35-38.55c-11.89-5.28-19.93-13.8-25.85-25.62-6.02-11.99-17.97-11.67-24.05,.77-5.6,11.48-13.73,18.82-24.67,24.77-13.24,7.2-12.98,17.37,.81,24.43,10.79,5.52,18.12,12.98,23.7,23.72,7.45,14.35,17.38,14.13,25.14-.37,5.42-10.13,11.86-18.28,22.76-22.68,5.46-2.21,10.22-5.64,9.99-13.03,.74-5.87-2.55-9.65-7.83-11.99Zm-38.65,19.22c-2.01-2.45-6.01-5.34-5.59-7.28,.63-2.93,3.18-7.64,7.2-6.84,2.57,.51,6.28,4.37,6.26,6.7-.03,3.36-3.75,5.84-7.87,7.42ZM325.39,314.77c-43.77,0-87.54,.02-131.31-.03-4.31,0-8.82,.29-12.88-.85-5.97-1.67-10.09-5.71-9.51-12.65,.51-6.16,4.54-9.49,10.12-10.63,3.71-.76,7.65-.55,11.49-.55,88.98-.03,177.97-.02,266.95-.02,2.4,0,4.82-.09,7.21,.07,7.49,.48,13.37,3.2,13.43,11.82,.07,9.21-5.9,12.59-14.1,12.76-10.58,.22-21.16,.08-31.74,.08-36.56,0-73.11,0-109.67,0Zm1.26-60.53c-44.22,0-88.44,.04-132.66-.06-4.74-.01-9.67-.18-14.17-1.48-5.57-1.6-8.7-5.94-8.1-12.07,.53-5.44,3.85-8.81,9.09-9.75,4.22-.76,8.58-1.04,12.87-1.04,88.92-.06,177.83-.05,266.75,0,3.82,0,7.68,.26,11.45,.88,6.1,.99,9.11,4.87,9.11,11.05,0,6.09-2.99,10.23-8.84,11.5-4.16,.9-8.56,.93-12.85,.94-44.22,.06-88.44,.04-132.66,.04Zm-44.35,96c29.82,0,59.64-.03,89.46,.03,4.75,0,9.57-.64,14.13,1.75,4.26,2.23,6.75,5.53,6.73,10.24-.01,5.21-2.23,9.59-7.55,10.98-4.12,1.08-8.51,1.53-12.79,1.54-60.12,.09-120.24,.11-180.36,.01-9.22-.02-20.4,.22-19.91-12.77,.48-12.76,11.7-11.73,20.83-11.75,29.82-.08,59.64-.03,89.46-.03Zm31.56,183.78c-12.41-5.36-20.53-14.33-26.72-26.45-5.86-11.48-17.03-11.17-23.08,.73-5.94,11.69-14.08,19.56-25.53,25.69-12.86,6.89-12.79,16.79,.22,23.53,11.62,6.02,19.49,14.14,25.53,25.73,6.55,12.58,16.59,12.19,23.45-.68,5.87-11.01,13.14-19.63,24.83-24.44,5.63-2.32,9.56-6.38,9.34-13.15-.28-5.4-3.39-8.97-8.03-10.97Zm-38.09,18.34c-3.54-.12-6.78-3.99-6.27-6.71,.55-2.92,2.53-8.16,7.5-6.63,2.78,.86,4.86,3.95,7.01,5.81-2.81,4.15-4.75,7.64-8.25,7.52Zm72.41,89.12c-12.41-5.38-20.84-14.16-26.97-26.48-5.76-11.57-17.22-11.48-23.26,.05-6.05,11.54-13.82,19.95-25.53,26-12.74,6.58-12.74,17.27,.05,23.68,11.34,5.69,19.02,13.4,24.88,24.57,7.24,13.81,17.11,13.89,24.29,.21,5.87-11.18,13.27-19.63,25.02-24.42,5.17-2.11,8.51-6.21,8.94-12.76-.44-4.52-2.48-8.7-7.42-10.84Zm-38.91,18.36c-3.54-.12-6.78-3.99-6.27-6.71,.55-2.92,2.53-8.16,7.5-6.63,2.78,.86,4.86,3.95,7.01,5.81-2.81,4.15-4.75,7.64-8.25,7.52Z"/>
</svg>