<?xml version="1.0" encoding="UTF-8"?>
<svg id="Layer_1" data-name="Layer 1" xmlns="http://www.w3.org/2000/svg" viewBox="0 0 800 800">
  <defs>
    <style>
      .cls-1 {
        fill: none;
      }

      .cls-2 {
        fill: #010101;
      }
    </style>
  </defs>
  <rect class="cls-1" width="800" height="800"/>
  <path class="cls-2" d="M762.82,573.98c-8.91-4.14-10.18-9.2-10.16-17.67,.23-122.69,.16-245.38,.15-368.06,0-33.12-14.12-47.2-47.28-47.2-201.96,0-403.92,0-605.88,0-34.46,0-47.85,13.28-47.85,47.48,0,122.69-.05,245.38,.11,368.07,.01,7.84-.4,13.62-9.63,16.65-8.85,2.91-14.75,10.53-18.34,19.17-13.04,31.45,10.81,67.34,44.8,67.36,111.14,.07,222.29,.03,333.43,.03,90.38,0,180.77,0,271.15,0,22.06,0,44.12,.3,66.17-.1,22.5-.41,35.52-12.77,41.69-38.47,5.18-21.6-.68-39.02-18.36-47.23ZM77.92,186.48c0-16.59,2.85-19.36,19.78-19.37,101.18-.03,202.36-.01,303.54-.01,101.18,0,202.36,0,303.54,0,18.86,0,21.93,3.01,21.94,21.5,.02,122.24-.21,244.47,.34,366.71,.05,12.17-3.79,13.89-14.57,13.81-67.45-.47-134.91,.04-202.36-.44-15.84-.11-28.92,4.12-39.04,16.25-6.34,7.6-14.02,10.22-23.9,10.06-30.69-.48-61.4-.39-92.09-.03-8.45,.1-15.15-2.07-20.54-8.59-11.36-13.73-26.02-17.91-43.7-17.74-67.01,.65-134.04,.04-201.06,.5-9.7,.07-12.16-2.3-12.13-12.06,.36-123.53,.22-247.06,.25-370.6Zm679.53,422.05c-.43,17.3-8.35,25.18-25.48,25.19-109.86,.02-219.72,0-329.58,0-109.86,0-219.72,0-329.58,0-17.72,0-26.55-8.59-25.71-25.88,.47-9.6,6.86-12.98,15.98-12.93,24.65,.15,49.31,.05,73.96,.05,51.47,0,102.94,.19,154.41-.17,9.74-.07,17.58,1.83,24.02,9.61,10.37,12.53,24.04,16.97,40.27,16.66,31.13-.6,62.29-.53,93.42-.03,15.73,.25,29.01-4.16,39.12-16.28,6.37-7.65,14-10.03,23.87-9.98,73.96,.34,147.92,.18,221.88,.19,16.8,0,23.67,3.99,23.43,13.57Zm-56.56-382.57c0-24.19-8.74-33.04-32.62-33.05-88.68-.03-177.36-.01-266.04-.01-89.11,0-178.22-.02-267.34,.01-22.55,0-31.15,8.73-31.16,31.53-.03,95.5-.03,191,0,286.5,0,23.11,9.04,32.14,32.23,32.15,177.36,.03,354.72,.03,532.08,0,23.58,0,32.83-9.39,32.84-33.22,.03-94.63,.03-189.27,0-283.9Zm-38.64,291.32c-86.49-.44-172.98-.25-259.48-.25-86.49,0-172.99-.19-259.48,.24-10.34,.05-13.83-1.81-13.76-13.07,.5-91.15,.43-182.3,.03-273.45-.04-9.59,2.14-12.04,11.93-12.03,173.85,.34,347.7,.34,521.55,0,9.88-.02,12.03,2.63,11.99,12.19-.39,91.15-.4,182.3,0,273.45,.04,10.12-2.42,12.96-12.79,12.91Zm-49.85-73.87c-2.95-125.89-124.05-221.81-249.63-197.72-97.73,18.75-171.59,106.02-170.75,201.73,.12,13.56,4.06,17.75,17.7,17.84,23.78,.16,47.57,.13,71.35,.01,14.72-.07,18.65-4.1,19.57-19.36,3.52-58.43,53.11-100.4,111.89-95.12,8.21,.74,9.03,2.86,6.14,10.24-5.32,13.62-9.68,27.64-13.82,41.67-2.01,6.83-4.94,10.31-12.64,11.97-17.84,3.86-28.89,18.55-29.48,36.27-.59,17.94,9.77,32.94,26.64,38.59,16.77,5.61,34.34-.21,44.61-14.79,10.23-14.51,10.01-32.64-1.83-46.72-4.48-5.33-5.66-9.42-3.17-15.93,5.22-13.67,10.22-27.5,13.98-41.62,2.53-9.5,6.01-9.46,13.15-4.69,29.2,19.53,45.74,46.26,47.6,81.61,.7,13.39,4.91,17.67,18.24,17.86,12.11,.17,24.22,.04,36.33,.04,10.81,0,21.62,.03,32.43,0,18.47-.05,22.11-3.75,21.69-21.89Zm-328.49-41.17c-.84,4.17-2.65,8.17-4.23,12.16-3.13,7.88-.75,19.9-7.57,23.44-7.11,3.7-17.64,.83-26.68,.83q-28.8,.58-22.55-28.14c5.84-26.5,17.64-50.13,34.08-71.7,4.76-6.25,8.17-6.58,12.66-.51,.25,.34,.61,.61,.91,.91,9.47,9.44,22.14,17.37,27.56,28.74,6.24,13.1-11.62,21.61-14.18,34.28Zm105.4-126.79c-.19,7.32-.05,14.65-.05,21.98q0,24.99-24.11,32.18c-12.91,3.84-25.12,9.33-35.8,17.44-6,4.56-9.76,4.84-15.04-1.03-8.63-9.61-18-18.57-27.38-27.46-4.13-3.91-4.34-6.43,.28-10.11,28.03-22.37,60.13-34.72,95.44-39.51,5.41-.73,6.79,1.71,6.67,6.52Zm12.24,189.39c-7.24-.22-12.03-5.01-12-12.68,.03-8.33,4.81-12.86,13.1-12.64,7.68,.21,11.34,5.23,12.56,12.31-1.26,7.95-5.69,13.25-13.66,13Zm85.6-116.29c-3.63,3.74-6.33,2.38-10.06,.13q-22.44-13.52-13.66-38.88c2.54-7.3,5.46-14.54,1.2-22.19-14.61-6.9-19.92-4.77-25.02,10.26-2.34,6.9-4.31,13.93-6.61,20.84-1.7,5.09-3.47,8.6-10.83,7.13-6.74-1.34-6.92-4.53-6.87-9.57,.14-13.33,.12-26.67,0-40-.04-4.75,.08-8.71,6.78-7.27,14.87,3.2,30.31,4.24,44.06,11.56,.53,.2,1.05,.49,1.55,.83,19.11,5.09,34.84,16.21,50.2,28.01,3.52,2.7,3.67,4.88,.32,8.12-10.53,10.16-20.88,20.52-31.07,31.03Zm91.09,90.73c-6.9-.19-13.81-.05-20.71-.05,0-.19,0-.37,0-.56-8.6,0-18.89,2.91-25.34-.81-6.64-3.83-4.83-15.49-7.52-23.5-4.27-12.72-9.65-24.94-17.87-35.57-4.29-5.55-4.27-9.26,1.02-14.12,9.52-8.75,18.61-17.98,27.48-27.39,4.36-4.63,7.05-4.56,11.05,.52,21.89,27.76,34.57,59.19,39.04,94.15,.81,6.3-1.91,7.47-7.15,7.32Z"/>
</svg>