<?xml version="1.0" encoding="UTF-8"?>
<svg id="Layer_1" data-name="Layer 1" xmlns="http://www.w3.org/2000/svg" viewBox="0 0 800 800">
  <defs>
    <style>
      .cls-1 {
        fill: none;
      }

      .cls-2 {
        fill: #010101;
      }
    </style>
  </defs>
  <rect class="cls-1" width="800" height="800"/>
  <path class="cls-2" d="M725.5,723.48c-7.46-55.64-31.43-101.79-73.25-139.02-25.55-22.75-56.1-36.67-88.59-43.62-32.11-6.87-50.21-24.75-60.5-54.27-2.24-6.43-2.09-9.93,2.3-14.72,18.28-19.97,29.14-43.81,35.37-69.93,1.74-7.3-.37-16.8,4.84-21.59,5.72-5.26,15.15-1.62,22.94-1.87,24.84-.81,43.8-16.14,44.47-40.87,1.11-40.83,3.74-81.95-2.43-122.55-18.52-121.89-133.3-201.92-253.77-177.7-85.71,17.23-152.52,86.5-166.87,173.55-6.94,42.13-3.37,84.67-3.34,127.03,0,13.24,6.22,26.02,18.35,32.08,10.51,5.25,10.82,12.42,10.75,21.83-.17,23.7,15.68,42.16,39.2,42.68,12.74,.28,19.2,4.92,23.28,15.72,4.57,12.08,21.56,18.65,19.28,32.19-2.09,12.46-11.39,23.59-16.69,35.67-3.04,6.93-7.94,10.24-14.69,12.47-25.07,8.29-51.11,14.35-74.74,26.15-76.04,37.99-112.57,102.01-118.64,185.04-.97,13.28,5.18,18.5,19.69,18.5,102.34,.04,204.67,.02,307.01,.02,97.41,0,194.82-.12,292.22,.07,28.01,.06,39.35,4.58,33.8-36.86Zm-141.29-392.49c-.08,14.27-3.83,18.05-17.99,18.35-17.59,.36-18.21,.28-15.82-16.52,2.82-19.88,4.27-39.82,4.39-59.84,.06-9.83,3.14-13.82,13.82-13.1,15.55,1.05,15.61,.26,15.61,15.53,0,8.7,0,17.39,0,26.09,0,9.83,.05,19.66-.01,29.49Zm-346.78,18.42c-2.56-.5-5.29-.01-7.93-.2-8.95-.64-13.76-5.32-13.78-14.48-.02-11.34,0-22.69-.01-34.03,0-11.34,.15-22.69-.09-34.03-.1-4.7,1.11-6.84,6.3-6.59,24.27,1.19,22.07-5.89,23.28,21.63,.8,18.13,1.92,36.21,4.7,54.13,1.61,10.35-.77,15.84-12.48,13.56Zm19.12,56.09c-5.55,1.62-9.34-3.06-11.67-8.31-1.42-3.2-1.91-6.4-1.73-10.32,.97-2.78-2.65-8.13,4.62-8.65,6.37-.46,8.89,2.22,9.04,8.25,.06,2.59,1.11,5.18,1.02,7.74-.14,3.88,4.82,9.51-1.27,11.29Zm.02-231c-7.21,14.74-11.16,30.49-12.13,46.78-.52,8.67-3.83,11.19-12.43,10.83-16.49-.7-16.51-.16-14.09-16.27,11.48-76.35,74.97-138.88,151.48-151.58,94.35-15.66,184.04,42.73,209.22,134.91,1.39,5.07,2.37,10.28,3.23,15.47,2.9,17.39,2.84,16.96-15,17.46-7.64,.21-10.46-1.89-11.12-9.62-3.15-36.85-18.07-68.3-45.06-93.73-31.25-29.44-68.94-40.92-104.5-39.36-71.77-.78-120.52,25.7-149.6,85.11Zm71.49-39.5c17.01-10.52,35.63-15.94,55.8-16.46,31.63-.82,62.92-.88,90.62,18.06,38.27,26.17,55.51,62.31,52.66,108.67-55.08-5.13-102.82-25.38-142.4-63.43-10.3-9.9-21.92-6.97-33.12-5.18-30.47,4.87-56.09,19.35-78.95,44.9,6.41-39.42,24.3-67.34,55.39-86.56Zm-43.27,248.82c-5.78-35.82-9.18-71.94-11.77-108.13-.19-2.59-.61-5.89,.68-7.76,20.93-30.35,43.55-58.49,83.99-63.18,5.8-.67,9.82,.11,14.23,4.09,41.8,37.73,91.46,57.93,146.93,64.56,6.15,.74,8.58,1.99,7.96,8.71-3.68,39.86-5.78,80.06-15.73,118.92-11.42,44.59-39.09,76.52-84.54,87.51-47.99,11.6-87.81-4.74-117.79-44.16-1.74-2.28-4.07-4.45-4.01-9.19,3.59,0,6.62,.29,9.58-.05,10.3-1.18,17.85,.54,23.76,11.25,6.01,10.89,17.54,16.42,30.6,16.62,11.36,.17,22.75,.46,34.09-.09,22.16-1.07,39.86-19.59,40.25-41.46,.38-21.49-17.18-41.23-39.05-42.81-12.06-.87-24.27-.77-36.35-.06-14.64,.85-25.93,8.41-32.88,21.13-2.89,5.29-6.03,6.98-11.5,6.52-3.76-.32-7.57-.06-11.36-.06-23.02,0-23.47,.07-27.09-22.35Zm88.44,137.2c16.34-1.06,31.26,.15,47.7-2.14-5.78,10.16-14.01,16.14-20.42,23.64-2.1,2.45-3.95,1.07-5.67-.58-7.21-6.96-14.41-13.94-21.62-20.91Zm.82,49.75c-12.12,12.5-24.15,25.09-35.95,37.9-3.9,4.23-5.62,3.12-7.83-1.39-9.95-20.3-19.06-40.94-26.67-62.24-1.06-2.98-1.74-5.62-.17-8.66,5-9.67,9.82-19.43,15.36-30.43,19.03,19.15,37.05,37.44,55.3,55.5,3.59,3.55,3.25,5.93-.04,9.32Zm49.91-11.46c18.12-18.75,35.86-37.85,54.87-58.03,6.05,12.11,11.41,23.3,17.23,34.24,2.09,3.93,1.04,7.1-.24,10.74-7.3,20.58-16.23,40.43-25.66,60.11-2.74,5.72-4.68,6.45-9.29,1.65-12.04-12.54-24.34-24.86-36.92-36.86-4.71-4.5-4.36-7.32,.01-11.84Zm-66.44-137.9c-.16-7.3,3.96-13.04,11.99-14.21,10.53-1.54,21.19-1.53,31.68-.12,8.08,1.09,12.81,6.12,12.36,14.85-.43,8.42-6.08,11.85-13.35,12.87-4.83,.67-9.83,.13-14.75,.13,0-.09,0-.18,0-.27-5.3,0-10.68,.6-15.87-.14-7.21-1.03-11.91-6.2-12.06-13.1Zm14.48,310.58c-87.4,0-174.16-.1-260.92,.17-8.19,.03-9.43-2.67-8.12-9.95,14.23-78.79,58.41-130.73,136.2-152.96,10.51-3,20.84-6.67,31.14-10.35,4.71-1.68,7.52-1.57,9.47,3.97,20.06,56.82,52.56,106.79,86.33,156.06,2.13,3.11,3.99,6.4,5.86,9.67,.31,.54,.04,1.42,.04,3.38Zm-21.15-87.82c-2.42-3.62-1.43-6.05,1.25-8.86,14.09-14.77,28.16-29.56,42.01-44.55,3.25-3.52,5.32-4.11,8.97-.36,14.77,15.17,29.8,30.09,44.86,44.97,2.91,2.87,3.45,5.29,1.1,8.8-16.24,24.37-32.35,48.82-49.06,74.08-16.74-25.28-32.87-49.72-49.14-74.07Zm339.44,87.92c-86.76-.18-173.52-.15-260.28-.22-.61,0-1.23-.55-2.64-1.23,5.47-11.51,12.45-22.1,19.84-32.36,29.7-41.27,54.25-85.32,71.93-133.04,2.56-6.92,5.09-8.39,12.32-5.67,21.16,7.97,43.57,13.09,63.93,22.64,59.99,28.14,91.1,77.96,101.92,141.91,1.02,6.03-.85,7.96-7.01,7.95Zm-48.02-37.65c-6.01,.55-10.19-2.86-13.1-8.25-7.83-14.48-18.24-26.79-30.79-37.4-7.18-6.07-8.66-13.66-2.6-20.9,6.22-7.43,13.87-6.39,21.07-.67,15.62,12.41,27.94,27.6,37.18,45.19,5.9,11.23,.24,21.83-11.76,22.04Zm-86.03-70.55c-8.05-.78-13.15-4.91-13.71-13.44-.53-8.13,5.71-14.6,13.73-14.66,7.87-.06,14.71,6.63,14.1,14.43-.65,8.31-5.56,12.83-14.12,13.67Z"/>
</svg>