<?xml version="1.0" encoding="UTF-8"?>
<svg id="Layer_1" data-name="Layer 1" xmlns="http://www.w3.org/2000/svg" viewBox="0 0 800 800">
  <defs>
    <style>
      .cls-1 {
        fill: none;
      }
    </style>
  </defs>
  <rect class="cls-1" width="800" height="800"/>
  <path d="M730,435.3c.08-11.64-4.83-15.68-15.81-15.5-20.4,.33-40.82,.44-61.21-.06-11.24-.28-20.03,1.4-19.82,15.84-4.87,0-8.83-.23-12.77,.03-46.28,3.07-91.63-4.95-136.83-12.7-27.67-4.75-51.7-.53-71.96,19.19-8.27,8.05-14.82,7.95-23.02-.07-17.69-17.32-39.08-24.19-63.72-20.32-17.34,2.72-34.79,4.88-52,8.24-34.76,6.77-69.74,6.06-104.58,5.26-3.63-14.66-4.23-15.24-18.69-15.3-21.2-.09-42.41,.15-63.61-.08-10.52-.12-15.05,4.12-14.99,15.06,.31,55.61,.29,111.23,.02,166.84-.05,11.03,4.64,14.83,15.23,14.61,20.8-.43,41.62-.51,62.41,.03,10.86,.28,19.26-1.24,19-16.47,11.18,1.75,21.1,3.31,33.94,5.32-5.49,5.91-7.9,8.52-10.32,11.1-11.4,12.18-13.51,27.09-3.3,40.18,5.89,7.56,15.04,12.55,22.55,18.91,3,2.54,6.93,5.19,8.04,8.57,7.73,23.41,23.4,34.59,48.99,33.76,6.73,12.89,15.31,25.19,30.67,27.67,11.38,1.84,18.23,6.52,25.08,15.84,15.39,20.91,36.68,21.42,54.8,2.87,5.55-5.69,10.11-12.34,15.28-18.75,13.61,9.69,24.22,17.44,35.04,24.89,13.17,9.07,25.44,9.3,37.17-1.45,6.82-6.24,11.1-15.25,16.63-22.92,1.88-2.6,3.89-6.86,6.21-7.11,18.92-2.1,28.38-14.32,35.04-30.42,1.08-2.6,4.49-5.43,7.25-5.96,20.79-4,34.93-17.92,36.52-38.39,.51-6.61,3.09-9.5,8.37-12.64,12.33-7.34,20.33-18.77,21.68-32.91,1.16-12.12,8.66-15.31,18.01-16.87,5.74-.96,11.76-.18,17.35-.18,3.64,14.48,3.89,14.74,18.03,14.78,21.2,.07,42.42-.36,63.61,.16,11.31,.28,15.75-3.98,15.69-15.42-.32-55.21-.34-110.43,.02-165.64ZM147.75,598.14c-17.74,0-35.13,.19-52.5-.29-1.8-.05-4.99-4.08-5-6.28-.29-50.62-.22-101.24-.22-153.1h57.72v159.67Zm82.48,55.57c-2.49,2.31-5.64,3.9-10.83,7.39-5.99-6.13-12.22-11.3-16.88-17.63-4.93-6.7,.18-11.8,4.94-16.42,4.87-4.72,9.54-9.65,14.42-14.36,8.38-8.08,14.29-7.68,23.28,1.41,8.64,8.73,9.04,15.38,1.19,23.57-5.24,5.47-10.56,10.89-16.12,16.04Zm38.96,38.33c-4.51,4.5-9.14,10.67-16.15,5.65-6.36-4.56-11.54-10.77-17.6-16.6,3.61-5.84,5.11-9.57,7.7-12.23,13.64-14,27.46-27.83,41.41-41.52,7.49-7.35,14.5-6.76,22.57,1.3,8.68,8.67,9.39,15.86,1.81,23.59-13.13,13.38-26.48,26.55-39.75,39.8Zm47.62,29.8c-4.69,4.8-9.89,9.72-16.4,4.82-6.23-4.69-11.11-11.17-16.94-17.23,3.91-5.68,5.69-9.2,8.31-11.91,10.25-10.59,20.66-21.03,31.21-31.33,7.72-7.55,15.18-6.87,23.37,1.7,8.64,9.04,8.93,15.08,.76,23.43-10.03,10.25-20.3,20.25-30.32,30.51Zm61.57,15.53c-5.46,5.79-11.07,11.44-16.87,16.88-2.47,2.32-5.6,3.93-10.53,7.29-6.02-6.38-12.17-11.72-16.82-18.13-4.97-6.85,.51-11.68,5.2-16.22,4.85-4.71,9.83-9.33,14.28-14.4,8.11-9.24,15.41-5.48,22.43,1.1,8.79,8.24,9.5,15.84,2.3,23.48Zm195.11-108.66c-5.87,7.54-12.34,12.66-22.2,5.33-21.82-16.23-43.86-32.16-65.83-48.19-3.23-2.36-6.27-5.95-9.83-6.62-4.4-.83-9.27,.8-13.93,1.37,1.09,4.51,.78,10.4,3.58,13.25,5.8,5.92,13.24,10.23,20.03,15.19,18.73,13.68,37.55,27.25,56.19,41.06,9.65,7.15,10.26,14.27,2.68,24.55-7.35,9.97-14.29,11.32-24.13,4.18-26.55-19.25-52.99-38.65-79.48-57.99-5.65-4.13-11.98-9-17.59-1.21-5.5,7.64,.73,12.22,6.51,16.43,22.97,16.7,45.88,33.47,68.77,50.28,9.87,7.25,10.64,14.92,2.75,25.34-7.54,9.96-13.7,10.95-23.96,3.52-21.7-15.72-43.33-31.54-64.99-47.31-1.94-1.41-3.81-3.86-5.85-4-4.61-.33-9.3,.48-13.95,.83,1.12,4.76,.61,11.58,3.62,13.94,19.16,15.07,39.1,29.16,58.78,43.58,13.3,9.74,13.73,20.1,1.37,31.03-5.88,5.2-11.79,5.97-18.35,1.08-9.62-7.16-19.6-13.86-29.07-21.22-2.55-1.98-4.78-5.45-5.45-8.59-3.14-14.76-11.89-24.8-24.46-32.51-2.97-1.82-5.71-6.37-5.97-9.86-1.5-19.5-12.79-30.87-29.34-39.09-4.61-2.29-7.9-7.38-11.59-11.38-7.68-8.34-13.93-18.81-23.13-24.74-13.07-8.42-26.93-5.68-38.32,7.25-5.23-5.99-8.57-12.15-13.75-15.2-8.33-4.91-19.24-12.59-26.59-10.48-14,4.01-24.77,.22-36.92-4.14-7.31-2.62-15.62-2.41-24.54-3.61-.33-2.42-1.08-5.43-1.09-8.43-.15-36-.04-72.01-.4-108.01-.08-7.64,2.14-11,10.18-10.51,53.51,3.26,105.74-7.01,158.24-14.87,19.81-2.97,33.38,10.36,48.68,23.38-10.6,8.15-20.57,15.83-30.56,23.48-16.36,12.53-20.67,23.98-15.49,41.3,5.66,18.93,24.11,35.93,40.92,35.49,7.45-.19,15.69-3.24,21.99-7.39,13.33-8.77,25.65-19.1,38.33-28.84,9.52-7.31,18.94-7.3,28.52-.07,34.8,26.25,69.67,52.41,104.43,78.71,8.38,6.34,8.75,14.03,1.22,23.72Zm59.73-67.54c-.02,6.32-.54,12.64-.72,16.53-15.29,4.94-27.81,9.49-40.66,12.78-3.35,.86-8.37-1.36-11.5-3.68-31.79-23.54-63.43-47.29-94.94-71.2-24.87-18.87-38.48-19.04-63.32-.11-10.49,7.99-20.86,16.16-31.5,23.94-10.13,7.4-19.03,4.98-28.26-7.2-9.03-11.92-9.12-21.95,.4-29.3,24.04-18.56,48.11-37.09,72.53-55.15,10.23-7.57,21.62-9.89,34.97-7.93,49.66,7.28,99.08,18.11,149.78,14.35,10.69-.79,13.71,3,13.51,13.46-.61,31.17-.18,62.35-.27,93.53Zm75.43,26.08c0,7.04-3.39,8.88-9.67,8.75-11.6-.23-23.21-.34-34.8,.03-7.31,.23-9.83-2.68-9.74-9.88,.29-23.2,.11-46.4,.11-69.6-.13,0-.26,0-.38,0,0-22,.32-44.01-.16-66.01-.19-8.57,1.88-12.48,11.3-11.84,11.15,.76,22.4,.45,33.59,.08,6.83-.22,10.36,1.56,10.3,9.25-.37,46.4-.52,92.8-.54,139.21Zm21.16-539.01c-.06-18.65-7.64-26.69-26-26.75-58.01-.21-116.01-.22-174.02,.01-17.83,.07-25.19,7.93-25.35,26.07-.21,23.2,.27,46.41-.38,69.6-.11,4.11-3.26,9.91-6.74,11.88-40.69,23.09-58.02,59.56-62.77,104.4-1.34,12.69-6.42,25.09-10.71,37.3-1.94,5.52-6.23,10.2-9.29,15.36-9.58,16.16-3.3,29.41,15.14,32.03,5.92,.84,11.86,1.59,19.28,2.58-.8,10.62-1.63,20.12-2.19,29.63-1.02,17.21,1.73,21.44,18.12,27.65,4.83,1.83,9.91,4.2,14.88,4.2,10.77,0,13.97,4.87,12.81,14.88-1.24,10.77,4.02,14.81,14.86,14.7,38.8-.41,77.61-.12,116.41-.18,14.14-.02,15.49-1.46,15.46-16.14-.04-18.4-.61-36.81-.09-55.2,.16-5.58,2.48-11.43,5.03-16.55,9.94-19.97,21.79-39.11,30.22-59.67,9.56-23.33,9.15-48.13,1.54-73.51,10.05,0,18.4,.05,26.76-.01,18.91-.15,26.95-8.05,27.01-27.06,.12-38.4,.12-76.81,0-115.21Zm-74.38,213.38c-7.04,17.26-16.06,33.94-26.1,49.67-6.37,9.98-9.64,19.43-9.08,31.18,.78,16.23,.2,32.52,.2,49.53h-106.01c-.88-1.08-1.71-1.63-1.8-2.28q-2.85-21.5-24.27-24.67c-3.15-.47-6.22-1.54-9.37-2-10.12-1.49-14.27-6.62-12.52-17.24,1.49-9.03,1.07-18.36,2.12-27.48,1.31-11.33-4.13-16.42-14.7-17.17-7.43-.53-14.89-.73-24.56-1.19,3.12-5.65,5.06-9.81,7.57-13.59,11.32-17.04,17.33-35.36,18.04-56.16,.95-27.39,12.22-51.04,31.87-70.34,4.11-4.04,9.19-7.1,15.63-11.99,.48,8.69,.54,14.95,1.22,21.14,1.58,14.24,9.41,21.51,23.71,21.83,12.79,.28,25.61,.53,38.37-.1,7.43-.37,11.63,2.46,15.31,8.59,7.8,13.02,16.17,25.7,24.49,38.41,7.82,11.96,14.9,12.08,22.67,.32,9-13.62,17.75-27.4,28.3-43.74,8.65,24.86,7.33,46.62-1.1,67.28Zm56.04-100.14c.08,8.35-2.7,11.39-11.02,11.12-13.98-.45-28.06-1-41.93,.32-5.73,.54-12.63,4.55-16.18,9.15-8.94,11.6-16.27,24.44-25.25,38.34-8.78-13.49-16.98-25.17-24.14-37.45-4.63-7.94-10.6-10.87-19.57-10.61-16.31,.48-32.64,.14-49.76,.14-.4-5.06-.91-8.55-.91-12.04-.06-36.38,.24-72.76-.23-109.13-.12-9.53,2.96-12.16,12.34-12.1,54.76,.38,109.53,.35,164.29-.05,9.22-.07,12.57,2.19,12.43,11.98-.53,36.77-.41,73.55-.06,110.33Zm-330.72,118.33c-9.98-15.39-15.85-31.37-17.17-50.18-3.03-43.28-22.17-77.73-60.73-100.2-3.35-1.95-5.83-8.15-5.94-12.45-.58-23.58-.07-47.19-.37-70.78-.21-16.18-7.57-24.49-23.08-24.58-59.59-.35-119.18-.33-178.76-.03-14.93,.07-23.3,8.46-23.42,23.11-.33,40.79-.33,81.58,0,122.37,.12,15.02,9.1,23.07,24.51,23.4,8.73,.19,17.48,.03,26.57,.03-1.5,10.51-3.6,19.86-4.05,29.3-1.84,38.81,15.41,71.05,35.52,102.42,3.61,5.63,5.81,13.07,6.06,19.77,.68,18.77,.04,37.58-.16,56.38-.08,7.87,2.32,13.26,11.46,13.25,41.59-.07,83.19,.15,124.77-.38,3.49-.04,10.2-5.42,9.87-7.39-3.23-19.3,8.85-22.34,23.31-23.82,3.06-.32,6-2.08,8.94-3.3,11.37-4.69,16.82-12.43,14.71-25.38-1.59-9.74-1.6-19.74-2.38-30.59,5.43-.76,8.98-1.28,12.53-1.75,28.32-3.72,33.58-14.89,17.81-39.2ZM99.5,172.41c-7.21,.15-9.81-2.56-9.76-9.82,.24-37.97,.25-75.95,0-113.92-.05-7.6,3.16-9.35,10.09-9.33,56.36,.18,112.72,.18,169.08-.08,7.44-.03,9.69,2.74,9.65,9.82-.21,37.97-.24,75.95,.02,113.92,.05,7.57-3.16,9.71-10.06,9.57-13.19-.26-26.4,.39-39.56-.2-9.84-.45-16.48,2.56-21.51,11.5-6.79,12.06-14.94,23.36-23.5,36.51-8.49-13.08-16.61-24.4-23.43-36.46-5.02-8.87-11.58-12-21.45-11.56-13.16,.58-26.38-.22-39.56,.06Zm246.34,129.09c-12.77,1.13-15.63,5.12-14.49,17.96,.92,10.35,1.52,20.73,2.66,31.06,.69,6.31-1.51,9.92-7.83,11.04-7.42,1.31-14.85,4.05-22.22,3.87-11.43-.28-16.87,4.06-15.57,15.35,1.19,10.29-3.15,12.84-12.87,12.63-28.37-.63-56.76-.63-85.13-.27-8.62,.11-12.71-2.02-11.64-11.36,3.96-34.68-2.13-65.97-23.56-95.47-16.4-22.57-22.07-50.36-16.4-78.98,.83-4.2,2.43-8.25,4.47-15.02,10.65,16.31,19.94,30.58,29.28,44.81,8.43,12.84,14.53,12.81,23.01-.19,8.51-13.05,16.51-26.46,25.59-39.1,2.49-3.47,7.91-6.4,12.21-6.72,11.92-.91,23.96-.27,35.95-.33,20.04-.1,27.45-7.43,27.81-27.46,.08-4.25,.01-8.5,.01-12.76,1.09-.57,2.18-1.14,3.27-1.7,7.06,6.6,14.96,12.52,21.03,19.94,14.28,17.45,23.4,37.96,23.68,60.35,.29,23.21,7.98,42.83,20.51,61.4,1.69,2.51,2.83,5.38,5.64,10.83-9.83,0-17.67-.56-25.39,.13ZM626.38,97.34c0,9.95,.9,20.03-.44,29.8-.56,4.1-5.88,7.54-9.04,11.29-3.07-3.84-8.63-7.56-8.8-11.52-.9-20.26-.91-40.61-.02-60.87,.18-4.16,5.53-8.09,8.5-12.12,3.27,4.13,8.73,7.95,9.36,12.44,1.42,10.15,.45,20.64,.44,30.99Zm3.97,59.19c-6.29,4.49-9.98,9.16-13.15,8.83-3.34-.35-8.49-5.4-8.58-8.52-.08-2.99,5.04-8.2,8.37-8.63,3.17-.41,6.98,4.09,13.36,8.32ZM193.35,96.88c0,9.55,0,19.11,0,28.66,0,6.44-1.09,12.54-9.1,12.77-7.98,.23-9.65-5.45-9.64-12.14,.04-19.91-.54-39.84,.45-59.7,.22-4.33,5.96-8.39,9.16-12.58,3.04,4.37,8.05,8.47,8.71,13.17,1.36,9.76,.41,19.85,.41,29.8Zm3.82,59.78c-6.23,4.4-9.96,9.06-13.12,8.7-3.34-.38-8.41-5.47-8.5-8.63-.09-2.96,5.11-8.14,8.43-8.53,3.17-.37,6.92,4.18,13.18,8.46Z"/>
</svg>