<?xml version="1.0" encoding="UTF-8"?>
<svg id="Layer_1" data-name="Layer 1" xmlns="http://www.w3.org/2000/svg" viewBox="0 0 800 800">
  <defs>
    <style>
      .cls-1 {
        fill: none;
      }

      .cls-2 {
        fill: #010101;
      }
    </style>
  </defs>
  <rect class="cls-1" width="800" height="800"/>
  <path class="cls-2" d="M616.82,686.63c-29.91-30.37-60.11-60.47-90.43-90.43-11.11-10.97-21.03-11.63-34.26-3.56-2.4,1.47-4.21,5.72-7.84,2.05-10.83-10.94-24.12-20.54-31.34-33.5-3.93-7.06,9.4-16.02,13.38-25,.55-1.24,1.3-2.38,1.95-3.57,32.49-59.82,38.85-122.29,18.93-187.4-1.22-3.99-5.11-8.1,1.25-11.53,12.76-6.89,24.11-18.37,40.89-9.88,4.66,2.35,10.82,1.53,15.89,3.3,10.76,3.76,17.26-.85,22.29-9.73,6.02-10.62,12.1-21.22,18.35-31.71,16.17-27.18,17.86-25.19-5.59-50.55-4.8-5.19-12.56-9.49-12.28-17.25,.7-19.22-3.36-40.32,17.16-53.45,2.95-1.88,4.93-5.28,7.34-7.99,6.16-6.92,7.05-14.12,2-22.25-5.96-9.6-11.45-19.49-17.04-29.32-19.61-34.44-14.68-29.96-52.86-22.36-6.14,1.22-11.67,3.18-18.25,.12-19.71-9.15-34.33-22.07-37.55-44.84-.31-2.21-1.25-4.33-1.88-6.5-2.51-8.56-8.24-12.47-17.13-12.41-18.6,.12-37.2,.21-55.8-.04-9.59-.13-15.35,4.2-18.02,13.19-1.8,6.05-3.09,12.35-5.76,18-2.82,5.98-1.62,14.32-8.3,17.92-16.6,8.94-32.11,23.1-53.5,12.43-3.5-1.74-8.11-1.08-11.93-2.38-9.59-3.26-15.79,1.01-20.34,8.71-9.2,15.57-17.88,31.46-27.3,46.9-5.7,9.35-4.03,16.84,3.19,24.34,6.76,7.02,12.99,14.54,21.26,23.87-23.18,.17-43.21,1.51-63.12,5.75C76.96,215.89-4.98,359,37.88,489.15c50.12,152.17,227.07,212.29,359.21,121.84,6.34-4.34,10.22-5.43,15.71,.87,7.43,8.52,15.64,16.4,23.89,24.15,3.97,3.73,4.66,6.12,1.31,11.2-8.84,13.44-7.48,23.51,4.02,35.11,29.68,29.93,59.45,59.78,89.41,89.43,12.54,12.41,25.51,12.44,38.2,.14,15.96-15.47,31.69-31.18,47.11-47.19,12.64-13.13,12.78-25.17,.07-38.07ZM276.48,132.38c6.64-9.61,10.21-23.43,19.11-28.79,8.62-5.2,21.45,2.96,32.51,4.87,7.1,1.23,13.28,.76,18.89-4.52,3.25-3.06,7.15-6.19,11.3-7.38,22.43-6.42,31.96-23.13,35.62-44.19,1.53-8.84,6.04-11.3,14-10.15,.44,.06,.91,0,1.36,0,11.77,.17,25.46-3.34,34.78,1.52,9.65,5.03,7.78,20.99,13.03,31.38,.8,1.58,.75,3.59,1.58,5.14,4.25,7.94,49.99,29.31,58.83,27.61,31.36-6.05,30.86-5.75,47.89,21.79,6.27,10.14,7.64,17.73-2.69,25.04-27.28,19.28-17.41,48.11-17.32,73.51,.03,9.81,12.45,17.09,19.96,24.79,5.94,6.09,7.43,10.98,2.13,18.52-6.73,9.57-9.85,23.26-18.59,29.4-9.45,6.65-22.45-1.85-33.69-4.29-12.38-2.69-18.98,6.37-28.04,10.69-4.85,2.31-11.38,12.38-15.47,.17-2.56-7.63-19.19-14.36-.69-25.08,37.07-21.47,52.87-65.65,40.96-107.11-11.18-38.91-49.19-66.91-90.74-66.82-43.53,.09-81.65,30.13-91.02,72.96-1.84,8.4-4.33,8.84-11.52,7.07-9.38-2.31-17.89-2.82-22.11-14.81-2.93-8.31-11.41-15.06-18.37-21.45-7.22-6.62-6.88-12.33-1.68-19.85Zm176.88,133.73c-5.06,2.71-8.15,2.57-12.33-2.44-22.41-26.83-49.9-47.3-81.9-61.23-8-3.48-8.51-7.97-7.05-14.78,7.19-33.52,41-59.25,73.58-55.92,38.81,3.96,67.16,33.76,67.29,73.38-2.04,25.5-14.11,47.36-39.59,60.99Zm-191.45,363.85c-118.67-.69-212.96-96.37-212.3-215.43,.63-115.17,98.12-210.7,214.13-209.82,117.08,.89,213.13,97.85,211.66,213.67-1.5,118.04-96.57,212.26-213.49,211.58Zm191.36-10.1c-8.08-8.54-16.64-16.64-24.91-25-2.18-2.2-4.81-4.4-1.76-8.01,2.33-2.76,4.27-5.83,6.57-9.03,3.53,2.96,5.32,4.28,6.89,5.83,8.37,8.27,16.46,16.85,25.11,24.83,5.42,5,2.84,7.98-1.02,12.12-4.43,4.74-7.12,3.23-10.87-.73Zm145.2,90.38c-14.6,14.25-28.89,28.82-43.34,43.24-1.23,1.22-2.72,2.18-4.55,3.63-1.92-1.63-3.7-2.95-5.26-4.51-28.24-28.17-56.33-56.49-84.78-84.44-4.99-4.9-3.84-7.66,.44-11.83,13.64-13.29,27.14-26.72,40.34-40.44,4.38-4.56,7.13-5.12,11.91-.27,28,28.44,56.28,56.6,84.6,84.72,3.45,3.43,4.8,5.85,.65,9.9Zm175.88-257.89c13.54-15.03,13.66-16.17,3.31-34.12-2.26-3.92-4.53-7.83-6.77-11.76q-11.64-20.32-34.08-15.21c-12.34,2.81-26.15-4.36-30.39-15.77q-9.03-24.3-35.44-24.3c-3.17,0-6.39,.35-9.51-.06-15.45-2-24.37,3.24-27.96,19.73-3.64,16.69-18.06,23.71-34.98,19.1-13.19-3.59-23.03-1.3-28.75,12.31-2.26,5.37-5.7,10.25-8.62,15.34-10.87,18.97-11.03,19.1,3.35,34.9,5.12,5.63,9.3,11.14,7.32,18.09-.12,6.47,.98,11.84-3.59,16.37-22.72,22.49-16.62,20.97-3.11,45.96,1.29,2.39,2.93,4.61,4.01,7.08,6.04,13.86,15.08,18.3,30.35,13.27,15.39-5.07,28.66,3.11,33.81,18q7.47,21.6,30.72,21.6c3.63,0,7.25,0,10.88,0q22.98,0,30.5-21.91c4.59-13.36,16.41-20.7,29.9-18.55q24.55,3.9,36.76-17.33c1.57-2.74,3.03-5.55,4.61-8.29q11.34-19.71-3.01-36.21c-10.92-12.55-10.67-25.59,.72-38.23Zm-21.55,49.21c7.46,7.69,4.11,12.71,.59,19.79-3.87,7.79-8.18,9.65-16.99,7.63-20.85-4.78-44.83,9.86-51.5,29.96q-3.4,10.26-17.81,10.16c-7.88,1.96-11.45-2.37-13.84-10.74-5.49-19.25-30.62-34.42-50.53-29.39-10.75,2.72-14.02-1.89-18.75-9.47-4.87-7.81-3.23-12.45,2.64-18.61,13.71-14.37,14.07-43.27,.56-57.35-6.78-7.07-7.68-12.26-2.46-21.04,4.92-8.28,9.53-9.72,18.33-7.56,18.97,4.64,44.88-10.71,50.14-30.1,2.57-9.49,7.86-10.44,15.79-10.09,7.27,.31,13.34-.74,16.16,9.45,5.81,21.06,30.79,35.18,52.27,30.13,9.39-2.21,12.6,2.23,16.64,8.93,4.25,7.05,5.1,11.94-1.38,18.65-14.05,14.56-14.23,44.84,.14,59.66ZM264.31,234.19c-101.1-.64-184.35,80.99-185,181.39-.66,101.46,81.53,185.05,182.56,185.68,100.06,.62,182.8-82.01,183.44-183.2,.63-100.25-81.05-183.23-180.99-183.86ZM107.34,378.74c19.53-76.22,88.21-125.32,168.46-120.42,72.64,4.43,136.22,65.01,145.6,138.47,.79,6.16-.03,9.83-7.24,9.02-.9-.1-1.81,0-2.72-.01-15.85-.2-34.6,4.76-46.72-2.06-12.15-6.83-13.59-27.25-19.91-41.63-6.35-14.44-12.03-29.17-18.23-43.68-2.79-6.51-4.66-14.47-14.03-14.44-9.27,.04-11.1,7.41-13.71,14.35-16.33,43.43-32.83,86.79-49.42,130.12-1.22,3.2-1.02,7.47-5.87,9.2-14.71-31.79-29.42-63.68-44.22-95.52-3.16-6.81-4.91-15.58-14.67-15.7-9.64-.11-11.78,8.74-15.49,15.18-5.63,9.79-11.71,19.47-15.98,29.86-4.88,11.87-12.58,15.02-24.96,14.6-27.81-.96-27.83-.3-20.9-27.36Zm313.99,59.87c-11.02,77.92-77.64,137.52-155.27,138.53-80.51,1.05-148.46-55.42-161.72-134.14-1.7-10.09,.32-15.75,11.92-13.52,31.63,6.08,52.98-5.23,62.66-36.73,.87-2.82,3.23-5.18,5.17-8.17,16,34.63,31.67,68.62,47.41,102.58,3.17,6.84,5.1,15.43,15.11,14.94,9.21-.45,10.45-8.34,13.03-15.15,17.29-45.7,34.78-91.32,53.34-139.95,9.88,23.62,19.23,44.42,27.26,65.73,4.64,12.32,11.36,18.06,25.14,17.03,15.77-1.19,31.7-.03,47.55-.38,7.01-.15,9.49,1.53,8.4,9.24Zm247.44-11.52c-24.89,.16-45.13,20.57-44.72,45.12,.41,24.59,21.09,44.86,45.54,44.62,25.06-.25,44.15-19.94,44.05-45.46-.09-25.39-19.4-44.44-44.87-44.28Zm22.3,45.3c-.44,11.8-10.25,20.85-22.41,20.66-12.72-.19-21.37-9.93-20.57-23.16,.69-11.39,10.15-19.94,21.69-19.58,11.81,.36,21.71,10.63,21.28,22.08Z"/>
</svg>