<?xml version="1.0" encoding="UTF-8"?>
<svg id="Layer_1" data-name="Layer 1" xmlns="http://www.w3.org/2000/svg" viewBox="0 0 800 800">
  <defs>
    <style>
      .cls-1 {
        fill: #131313;
      }

      .cls-2 {
        fill: none;
      }
    </style>
  </defs>
  <rect class="cls-2" width="800" height="800"/>
  <path class="cls-1" d="M187.61,189.64c7.89,.2,14.37,6.81,13.46,14.49-.94,7.93-5.47,12.89-13.87,13.12-7.74,.21-14.28-6.43-14.17-14.05,.1-7.7,6.63-13.76,14.59-13.55ZM497.58,737.99c-68.31,23.31-136.68,21.63-204.85-.6-6.09-1.99-10.92-1.97-16.79,.69-97.17,43.94-203.59-29.88-196.61-136.41,1.02-15.62,4.71-30.96,11.69-45.03,3.17-6.39,2.7-11.52,.6-17.86-34.51-104.2-21.51-202.02,39.87-293.24,3.93-5.83,8.49-10.66,16.31-9.32,5.61,.96,9.1,4.77,11.1,9.96,2.36,6.14-1.08,10.82-4.25,15.38-20.81,29.87-35.86,62.32-44.62,97.71-12.69,51.26-11.65,102.22,2.42,153.07,1.81,6.53,3.87,6.22,7.72,2,.5-.55,.97-1.2,1.6-1.55,14.06-7.9,14.61-18.69,11.89-34.07-25.4-143.34,64.23-277.11,206.28-309.53,138.18-31.54,282.25,57.7,315.67,195.55,35.95,148.29-50.44,290.64-199.1,327.15-35.04,8.61-70.8,9.59-106.3,2.35-12.26-2.5-22.16-2.81-28.74,9.87-1.78,3.42-5.12,6.03-8.52,9.91,37.53,11.52,74.89,16.22,112.21,11.05,125.05-17.3,210.45-86.7,251.89-205.11,45.49-130-12.3-276.8-133-344.58-96.34-54.1-194.32-53.34-292.01-2-1.97,1.04-3.87,2.22-5.79,3.36-8.03,4.75-15.1,3.6-20.46-4.04-4.8-6.85-2.08-15.17,6.72-20.5,19.8-11.97,40.78-21.48,62.83-28.47,11.32-3.59,22.79-7.06,34.46-9.12,8.5-1.5,10.66-5.17,10.29-13.29-1.16-25.02,9.2-44.3,31.75-55.52,37.7-18.76,79.73,7.35,81.03,51.02,.38,12.73,4.62,16.21,16.08,19.19,128.3,33.32,210.73,113.92,242.34,242.85,42.28,172.47-68.73,329.63-213.68,379.1ZM400.49,68.34c-16.77-2.16-30.63,9.86-32.58,27.45-1.12,10.13,1.77,14.42,12.53,12.39,5.01-.94,10.35-.16,15.54-.16,0,.11,0,.22,0,.33,7.41,0,14.83-.06,22.24,.03,3.48,.04,6.15,.26,6.91-4.7,2.6-16.87-8.56-33.27-24.65-35.34ZM190.36,432.21c.27,8.8-5.26,13.44-13.73,14.66-6.14,.88-14.36-2.86-18.05,1.98-3.92,5.15,1.55,12.68,1.46,19.36-.04,3.28,1.33,6.55,1.64,9.87,.54,5.75,2.99,6.49,8.18,4.53,15.44-5.84,31.51-8.64,48.03-8.71,91.32,.09,157.68,87.88,133.13,176.11-4.28,15.36-4.29,15.44,11.91,17.9,5.87,.89,12.79,3.53,17.45,1.43,5.94-2.67,1.87-10.6,2.73-16.16,1.26-8.11,5.65-13.08,13.81-13.46,8.43-.39,12.92,4.78,14.3,12.69,.51,2.9,.67,5.99,.27,8.89-1.13,8.2,2.85,9.04,9.77,8.2,43.36-5.29,82.9-20.15,118.01-46.33,5.02-3.74,11.74-7.4,13.6-12.56,1.76-4.88-6.58-7.84-9.61-12.36-.41-.62-.98-1.13-1.37-1.75-3.84-6.17-3.49-12.09,1.64-17.28,5.03-5.09,11.03-6.32,17.17-2.23,3.36,2.24,6.4,5.14,9.03,8.21,4.01,4.69,6.83,3.91,10.5-.58,28.13-34.42,46.39-73.23,52.71-117.41,.84-5.87,3.69-12.78,1.61-17.41-2.98-6.59-11.18-1.65-16.98-2.9-7.83-1.68-13.38-5.96-13.46-14.01-.09-8.62,5.51-13.4,14.06-14.36,2.21-.25,4.52-.43,6.68-.07,9.25,1.56,11.33-2.49,10.28-11.11-5.14-42.5-19.17-81.52-44.43-116.26-4.12-5.67-7.25-14.02-13.71-15.45-5.73-1.27-8.97,7.5-13.98,11.03-1.21,.85-2.42,1.75-3.73,2.43-6.28,3.25-11.65,1.27-16.1-3.42-4.26-4.48-5.34-9.98-2.07-15.38,2.08-3.43,4.91-6.65,8.05-9.15,6.99-5.56,6.71-9.47-.49-15.22-36.04-28.8-76.5-46.81-122.41-52.43-14.54-1.78-14.5-2.02-14.7,12.09-.04,2.6,.04,5.25-.45,7.77-1.44,7.44-5.75,12.18-13.66,12.11-8.3-.07-13.09-4.81-14.15-12.9-.53-4.03-.56-8.22-.11-12.25,.77-6.95-1.49-8.82-8.67-8.04-45.84,4.98-87.23,20.91-123.87,48.99q-13.42,10.28-1.81,22.82c1.26,1.36,2.6,2.7,3.6,4.24,4.18,6.49,3.71,12.85-1.78,18.19-5.59,5.43-12,5.6-18.13,.71-3.18-2.54-6.34-5.3-8.81-8.5-4.82-6.25-8.13-4.89-12.59,.71-27.91,35.07-45.93,74.34-51.6,119.02-2.32,18.3-2.39,18.33,16.23,19.95,8.59,.75,14.33,4.98,14.6,13.77Zm137.33,180.4c-.03-61.29-48.25-109.77-109.49-110.08-61.5-.32-110.68,48.58-110.73,110.07-.05,60.82,48.84,109.98,109.61,110.22,61.52,.25,110.64-48.7,110.61-110.21Zm-152.14,13.8c-8.45-5.9-17.07-5.02-21.42,2.34-4.7,7.96-2.63,14.9,4.78,20.36,14.35,10.58,28.58,21.31,43.01,31.79,8.79,6.38,19.28,8.77,28.3,2.93,17.73-11.48,34.67-24.25,51.31-37.28,6.28-4.92,6.42-12.52,1.08-18.91-4.93-5.9-11.27-6.96-17.94-2.81-3.77,2.35-7.12,5.38-10.9,7.74-7.24,4.51-12.81,11.81-22.46,14.23,0-3.56,0-6.11,0-8.67,0-29.35-.04-58.71,0-88.06,.02-9-4.32-14.29-13.25-14.45-8.78-.15-13.76,4.73-14.06,13.76-.14,4.08-.09,8.17-.09,12.26,0,27.71,0,55.42,0,85.67-10.71-7.92-19.38-14.63-28.37-20.9Zm304.91-114.56c-6.98,6.84-14.96,4.6-27.3-7.61-10.04-9.94-20.32-19.67-30.08-29.88-4.17-4.37-7.92-5.16-13.74-3.44-21.01,6.22-42.31-3.9-50.72-23.44-8.2-19.07-1.31-41,17.48-52.26,5.79-3.47,7.19-7.2,7.15-13.3-.22-31.99-.1-63.98-.1-95.98,0-2.6-.05-5.21,.02-7.81,.25-9.19,4.87-15.25,14.06-15.5,9.54-.26,14.04,6.45,14.24,15.23,.4,18.22,.12,36.45,.12,54.68h.05c0,10.79,.28,21.58-.07,32.36-.46,14.38-1.28,27.09,14.59,36.69,13.1,7.93,15.52,24.14,11.81,39.19-1.43,5.78-.29,8.85,3.54,12.5,10.49,10.01,20.74,20.29,31.07,30.47,12.81,12.63,15.14,20.97,7.87,28.09Zm-83.31-94.31c-8.26,.35-12.89,5.13-13.64,13.09-.7,7.45,6.18,13.93,13.97,13.9,8.44-.35,12.81-5.22,13.48-13.16,.66-7.81-5.89-14.17-13.81-13.84Z"/>
</svg>