<?xml version="1.0" encoding="UTF-8"?>
<svg id="Layer_1" data-name="Layer 1" xmlns="http://www.w3.org/2000/svg" viewBox="0 0 800 800">
  <defs>
    <style>
      .cls-1 {
        fill: #080808;
      }

      .cls-2 {
        fill: none;
      }
    </style>
  </defs>
  <rect class="cls-2" width="800" height="800"/>
  <path class="cls-1" d="M153.72,150.67c2.04,.03,5.19,1.35,7.83,4.01,6.93,6.99,13.94,13.89,20.85,20.9,6.1,6.18,5.94,12.54-.01,18.66-6.86,7.06-13.79,14.05-20.89,20.86-5.2,4.99-11.32,6.25-16.77,.89-5.48-5.4-4.24-11.34,.82-16.67,.54-.57,1.07-1.15,1.61-1.73q11.96-12.76,.02-25.39c-4-4.19-7.31-8.44-5.13-14.61,1.63-4.61,5.24-6.69,11.68-6.93ZM705.8,506.25c-.46,15.29-7.52,22.34-22.96,22.68-16.21,.36-32.45-.16-48.66,.26-4.13,.11-12.41-3.43-10.85,5.63,1.22,7.13-7.02,17.4,7.26,21.21,28.64,7.64,48.76,25.41,57.97,54.14,13.73,42.79-10.75,89.23-53.52,102.01-43.32,12.94-89.85-12.78-101.18-56.68-2.02-7.82-4.95-9.81-12.57-9.76-49.45,.33-98.9,.3-148.36,.02-7.27-.04-10.97,1.4-13.41,9.22-8.03,25.72-32.52,42.82-59.32,42.82-26.77,0-51.33-17.12-59.36-42.79-2.43-7.77-6.06-9.38-13.38-9.26-24.92,.4-49.85,.23-74.77,.13-65.39-.24-121.61-47.59-129.91-109.31-9.22-68.55,29.96-128.72,95.86-146.59,22.86-6.2,46.42-3.13,66.55-3.8,19.35,0,35.57,.09,51.79-.04,7.99-.06,15.08,1.97,14.87,11.16-.2,8.76-6.83,11.27-15.04,11.22-28.48-.2-56.97-.15-85.45-.05-55.42,.19-101.12,41.17-107.25,96.06-6.02,53.89,30.85,105.34,84.71,116.6,21.36,4.46,43.38,2.14,65.12,2.34,4.75,.04,9.54-.43,14.23,.08,17.7,1.95,30.06,.04,38.66-20.74,10-24.17,33.9-33.6,60.22-30.74,25.8,2.79,43.89,17.19,52.47,41.85,2.55,7.33,5.65,9.75,13.25,9.71,49.45-.31,98.91-.31,148.36,0,7.64,.05,12.21-1.63,12.39-9.9,0-.39,.11-.79,.26-1.16,3.08-7.9,4.52-19.08,16.42-16,12.22,3.16,8.19,12.97,5.65,21.52-8.6,28.98,6.71,60.06,34.68,70.77,29.37,11.25,61.13-1.84,74.28-30.61,12.46-27.25,1.47-60.44-25.11-74.61-4.79-2.55-10.15-7.9-15.97-3.38-4.05,3.14,.41,20.62,5.37,24.01,14.4,9.81,19.95,22.24,16.71,37.4-3.31,15.48-16.18,26.98-31.28,27.95-15.98,1.03-30.76-8.63-36.02-23.53-5.13-14.55-.66-32.29,13.13-39.62,11.77-6.26,8.79-15.31,8.77-24.18-.02-6.35-5.17-3.88-7.8-2.71-8.22,3.65-15.55,3.08-18.42-5.94-3.32-10.42,4.77-14.38,13-15.68,11.13-1.76,14.2-7.2,13.71-18.28-.99-22.51-.35-45.1-.28-67.66,.04-14.2,6.24-21.8,20.24-22.26,21.34-.7,42.73-.66,64.07,0,14.16,.43,20.43,7.6,20.87,22.07,.35,11.47,.35,22.96,0,34.42Zm-365.15,127.95c-.15-22.22-17.74-39.96-39.91-40.24-22.68-.29-40.9,17.63-41,40.33-.1,22.75,17.85,40.83,40.5,40.79,22.67-.04,40.57-18.14,40.42-40.88Zm270.65-12c-7.47,.15-11.71,4.78-11.92,11.89-.23,7.8,4.43,12.79,12.21,12.85,7.7,.06,12-4.79,12.88-12.82-1.3-7.18-5.14-12.09-13.17-11.92Zm72.47-142.51c-.25-6.71-2.84-7.72-8.52-7.61-14.21,.29-28.44,.53-42.63-.08-7.88-.34-9.89,2.28-9.86,9.97,.11,24.31-.22,24.31,23.95,24.31,1.97,0,3.95,0,5.92,0s3.95,0,5.92,0c26.5,0,26.22,.01,25.21-26.6Zm22.22-79.16c-13.34,5.08-27.15,8.07-41.63,7.98-31.65-.21-63.3-.15-94.94,.01-8.32,.04-15.82-1.28-15.85-11.38-.03-10.53,8.13-10.85,16.08-10.99,35.18-.64,70.45,2.02,105.55-1.36,43.01-4.14,77.58-39.32,82.88-83.24,5.06-41.97-20.51-84.07-60.13-99.05-10.45-3.95-21.25-5.74-32.4-6.28-6.14-.3-9.16,1.52-8.15,7.89,2.82,17.83-6.39,27.63-21.37,35.22-17.25,8.74-33.57,19.29-50.42,28.82-12.58,7.11-34.48,1.67-42.11-10.16-4.87-7.54-.26-16.78,9.27-16.25,7.93,.44,8.57-2.82,8.12-8.74-.18-2.36,.07-4.75-.05-7.12-.69-14.12,5.96-32.37-2.29-41.42-12.11-13.3-31.32-20.12-49.55-30.91,0,20.11,.09,37.74-.07,55.37-.04,4.34,2.94,6.04,5.61,8.37,4.9,4.29,5.64,9.67,1.96,14.84-3.99,5.61-9.16,6.23-15.58,2.92-11.33-5.84-16.08-14.95-14.67-27.18,1.07-9.23-2.02-11.9-11.52-11.85-74.77,.41-149.54,.39-224.31,.01-8.86-.04-11.79,2.7-14.02,11.18-11.53,43.96-58.81,68.54-102.97,54.29-42.57-13.74-66.18-62.72-50.29-104.56,2.23-5.87,4.43-12.21,12.4-12.6,9.72-.48,13.26,7.42,9,20.05-10.03,29.72,2.34,60.36,29.55,73.18,23.41,11.03,50.84,5.5,68.2-13.75,17.31-19.2,19.98-47.42,6.56-69.39-13.43-22-40.61-32.67-65.95-25.56-3.86,1.08-7.56,2.68-11.51,1.67-5.14-1.31-8.27-5.17-8.42-10.26-.2-7.09,4.93-10.04,10.96-12.13,42.08-14.6,90.99,10.55,102.21,53.86,2.66,10.27,6.94,11.76,16.04,11.72,73.98-.32,147.96-.39,221.93,.06,10.13,.06,13.74-3.06,11.99-12.6-4.66-25.43,6.38-40.91,29.55-50.8,14.07-6,27.02-14.78,40.07-22.97,10.91-6.84,20.94-7.05,32.06-.27,18.21,11.11,36.8,21.61,55.44,31.98,9.58,5.33,14.66,12.55,14.26,23.84-.33,9.44-2.98,21.16,1.47,27.77,4.64,6.87,17.42,3.07,26.54,4.69,50.53,8.97,90.01,52.46,94.98,104.83,4.93,51.92-25.8,101.74-74.49,120.27Zm-130.21-238.56c15.51-9.14,31.13-18.08,48.03-27.85-16.79-9.69-32.1-18.57-47.46-27.36-1.94-1.11-3.81-2.94-6.48-1.38-16.08,9.35-32.19,18.65-49.66,28.77,16.87,9.76,31.88,18.41,46.84,27.14,2.87,1.68,5.42,2.65,8.74,.7Zm59.56,46.78c-.12-17.62-.05-35.25-.05-55.14-17.37,9.99-32.31,18.63-47.3,27.17-3.44,1.96-4.83,4.55-4.78,8.59,.19,15.36,.25,30.73,0,46.09-.12,7.28,2.55,6.8,7.57,3.82,12.84-7.65,25.84-15.03,38.8-22.47,3.18-1.83,5.79-3.76,5.76-8.06Zm-143.2,226.84c-1.96,4.1-.38,6.37,2.17,9.32,15,17.37,14.66,23.21-1.74,39.66-3.07,3.08-6.03,6.28-9.22,9.22-10.7,9.87-20.34,9.7-31.34-.21-3.54-3.19-5.82-8.26-12.78-5.36-6.67,2.78-5.56,7.59-5.83,12.6-.94,17.8-8.26,22.96-32.3,22.96-26.45,0-28.97-2.03-32.17-27.76-.53-4.26-2.43-6.07-6-7.68-3.86-1.74-6.29-.87-9.44,1.8-17.83,15.1-23.4,14.79-39.67-1.39-2.8-2.79-5.66-5.53-8.37-8.4-11.1-11.74-11.07-21.04-.1-33.03,2.98-3.26,7.47-5.35,4.86-11.81-2.64-6.53-7.13-5.99-12.3-6.16-16.24-.52-22.67-7.12-23.21-23.53-.14-4.35-.05-8.7-.03-13.05,.09-21.47,4.5-26.43,26.01-27.51,5.4-.27,7.4-2.72,9.53-6.91,2.18-4.29-.1-6.41-2.52-9.2-14.55-16.76-14.29-23.21,1.3-38.87,3.07-3.08,6.08-6.22,9.26-9.19,11.06-10.35,20.99-10.31,32.24-.18,3.51,3.17,5.81,8.15,12.73,5.17,6.69-2.88,5.37-7.75,5.62-12.69,.77-15.51,8.28-22.71,23.99-23,4.74-.09,9.49-.04,14.23-.01,18.75,.1,25.52,6.49,26.31,25.37,.19,4.62,.46,8.12,5.7,10.26,5.21,2.12,7.73-.22,11.08-3.37,13.84-13.02,22.6-12.68,36.42,.95,3.38,3.33,6.79,6.63,10.07,10.06,11.2,11.68,11.27,21.12,.45,33.02-3.25,3.57-7.97,6-4.67,12.85,3.08,6.39,7.74,5.44,12.75,5.59,14.74,.45,21.59,7.09,22.36,21.76,.23,4.34-.24,8.72,.12,13.04,1.48,18.18-5.55,31.5-26.87,29.47-4.96-.47-6.75,2.28-8.62,6.2Zm4.63-28.19c8.2,.92,8.7-3.78,8.74-10.1,.04-6.39-.47-10.8-8.74-9.98-17.67,1.76-21.84-11.66-27.29-24.3-4.69-10.87-2.22-19.47,6.23-26.44,6.42-5.3,3.81-8.47-.76-12.96-4.43-4.36-7.68-7.8-13.1-1.19-10.22,12.47-21.9,8.26-34.31,3.21-11.38-4.64-17.61-11.79-16.55-24.16,.64-7.47-3.23-8.43-9.29-8.24-5.79,.19-11.34-.59-10.47,8.22,1.6,16.11-9.55,21.48-22.02,26.44-11.21,4.46-20.91,4.19-28.83-5.48-5.42-6.61-8.68-3.15-13.11,1.19-4.61,4.51-7.11,7.67-.74,12.97,8.4,6.99,10.89,15.59,6.2,26.47-5.45,12.65-9.65,26.03-27.31,24.27-8.32-.83-8.72,3.67-8.71,10.01,.01,6.36,.6,10.82,8.78,10.13,7.71-.65,14.87,.9,19.97,7.8,11.88,16.06,12.08,28.62-.81,44.28-5.15,6.26,.18,8.18,3.09,11.18,2.99,3.08,5.93,8.86,11.02,2.51,10.65-13.29,22.62-10.4,36.1-4.56,11.86,5.14,17.58,12.77,16.44,25.52-.67,7.47,4.35,7.03,9.25,6.83,4.85-.2,10.04,1.65,10.58-6.88,1.13-18.04,16.5-31.34,36.4-30.91,4.67,.19,10.2,3.32,14.2,8.43,5.13,6.57,8.55,3.87,12.97-.83,4.14-4.39,7.74-7.46,1.12-13.03-8.27-6.96-11.1-15.51-6.45-26.47,5.4-12.72,9.63-25.95,27.41-23.95Zm-280.14,108.44c-.04,35.19-28.83,63.63-64.37,63.57-35.61-.05-63.88-28.61-63.52-64.17,.36-34.88,28.72-63.16,63.55-63.36,34.99-.2,64.37,29.01,64.33,63.96Zm-22.95,.13c.08-23.28-17.75-41.13-41.09-41.15-23-.02-41.65,18.39-41.6,41.05,.05,22.28,19.38,41.78,41.47,41.85,22.25,.07,41.15-19.07,41.22-41.75Zm254.49-119.25c.21,26.48-20.7,47.5-47.22,47.47-26.42-.04-47.27-21.26-46.91-47.76,.35-25.81,21.59-46.78,47.22-46.61,25.82,.17,46.72,21.06,46.92,46.9Zm-46.58-24.04c-13.99-.22-25.21,10.56-25.28,24.27-.06,13.43,11.61,25.25,24.87,25.2,12.8-.05,24.18-11.2,24.69-24.19,.53-13.62-10.45-25.06-24.28-25.28Z"/>
</svg>