<?xml version="1.0" encoding="UTF-8"?>
<svg id="Layer_1" data-name="Layer 1" xmlns="http://www.w3.org/2000/svg" viewBox="0 0 800 800">
  <defs>
    <style>
      .cls-1 {
        fill: none;
      }

      .cls-2 {
        fill: #010101;
      }
    </style>
  </defs>
  <rect class="cls-1" width="800" height="800"/>
  <path class="cls-2" d="M774.74,331.29c-1.47-7.9-6.36-12.46-14.96-12.37-11.51,.13-23.04-.44-34.51,.18-6.92,.37-9.61-2.17-11.43-8.62-6.78-24.12-16.21-47.24-28.67-69.02-2.88-5.03-2.41-8.33,1.77-12.26,8.38-7.87,16.28-16.25,24.44-24.36,6.72-6.67,6.95-13.75,1.68-21.36-26.03-37.56-57.82-69.35-95.26-95.57-8.71-6.1-15.88-5.36-23.07,2.32-7.05,7.52-14.72,14.46-21.76,21.99-3.77,4.02-6.88,5.28-12.23,2.24-22.51-12.77-46.81-21.28-71.64-28.17-5.87-1.63-7.63-4.07-7.45-9.73,.33-10.7-.24-21.44,.18-32.13,.46-11.57-4.5-17.25-16.06-19.26-44.64-7.76-89.12-7.52-133.64,.75-9.27,1.72-13.91,6.76-13.86,16.2,.05,11.11-.43,22.24,.16,33.32,.37,6.91-2.19,9.45-8.69,11.33-24.02,6.94-47.13,16.34-68.79,28.93-5.14,2.99-8.39,2.15-12.24-1.91-7.91-8.34-16.3-16.23-24.36-24.44-6.59-6.71-13.37-7.41-21.21-1.99-37.93,26.25-69.95,58.37-96.24,96.23-5.27,7.59-4.88,14.69,1.89,21.33,8.21,8.05,16.1,16.45,24.51,24.29,4.23,3.94,4.6,7.25,1.74,12.24-12.47,21.77-21.9,44.88-28.69,69.01-1.8,6.39-4.47,9.07-11.44,8.65-10.67-.65-21.43,.14-32.13-.25-10.66-.39-16.05,4.51-17.83,14.81-3.8,21.95-5.69,44.05-5.93,66.3,.09,23.06,2.07,45.95,6.14,68.66,1.53,8.58,6.28,13.4,15.35,13.36,10.71-.04,21.47,.59,32.13-.16,8.18-.57,11.98,2.07,14.17,10.12,6.34,23.43,15.7,45.76,27.86,66.76,3.56,6.15,2.45,9.7-2.35,14.12-7.87,7.24-15.07,15.22-22.8,22.63-7.61,7.3-7.92,14.73-1.94,23.23,26.07,37.02,57.55,68.57,94.63,94.58,8.56,6,16.03,5.13,23.23-2.37,7.69-8.01,15.88-15.54,23.49-23.62,3.97-4.22,7.31-4.49,12.35-1.6,21.72,12.44,44.8,21.89,68.85,28.69,6.96,1.97,8.47,5.4,8.24,11.79-.39,10.7,.09,21.43-.16,32.13-.22,9.4,3.85,15.03,13.16,16.79,45.71,8.6,91.42,8.37,137.13,.03,9.28-1.69,13.49-7.25,13.28-16.69-.24-10.71,.4-21.45-.2-32.13-.41-7.34,2.32-10.2,9.29-12.27,13.24-3.92,26.07-9.22,39.04-14,12.53-4.62,24.63-18.04,36.05-15.09,11.34,2.92,19.86,17.17,29.38,26.68,7.1,7.09,14.39,7.3,22.34,1.73,37.42-26.21,69.24-57.99,95.29-95.54,5.68-8.18,4.66-15.39-2.41-22.25-8.25-8.01-16.21-16.33-24.44-24.37-3.13-3.06-4.65-5.64-2.02-10.17,13.17-22.75,23.09-46.94,30.42-72.15,1.52-5.24,4.11-6.86,9.26-6.77,11.9,.2,23.8-.13,35.71-.09,8.46,.03,13.64-4.2,15.09-12.23,8.31-46.13,8.7-92.32,.14-138.46Zm-24.87,115.72c-.84,5.73-3.14,8.16-9.23,7.9-10.7-.45-21.43,.07-32.14-.18-9.38-.22-14.88,3.96-17.03,13.06-7.54,31.89-19.61,61.97-37.04,89.76-5.86,9.34-4.72,16.8,3.39,24.16,7.63,6.92,14.38,14.81,21.97,21.78,4.32,3.97,5.06,6.89,1.21,11.85-19.31,24.93-41.38,46.98-66.34,66.25-5.03,3.88-7.97,2.94-11.89-1.27-7.29-7.84-15.23-15.07-22.6-22.85-6.72-7.09-13.66-8.48-22.18-3.1-28.05,17.7-58.38,30.07-90.61,37.74-9.22,2.19-13.33,7.77-13.31,16.94,.02,10.32-.36,20.65,.12,30.95,.33,7.03-1.12,10.44-9.19,11.3-30.52,3.28-60.9,3.58-91.38-.37-6.14-.8-7.97-2.9-7.74-8.85,.41-10.7-.05-21.43,.12-32.14,.16-9.68-3.87-15.7-13.61-17.97-32.28-7.55-62.49-20.18-90.59-37.77-7.96-4.98-14.8-4.05-21.29,2.66-7.72,7.99-15.91,15.53-23.44,23.69-4.14,4.49-7.22,4.43-11.95,.78-24.95-19.28-47.03-41.34-66.29-66.3-3.35-4.33-3.31-7.15,.82-10.96,8.15-7.54,15.67-15.75,23.69-23.43,7.17-6.86,7.85-14.03,2.64-22.36-17.6-28.16-29.9-58.54-37.5-90.85-2-8.49-7.22-12.79-16.12-12.67-10.32,.14-20.66-.4-30.94,.17-7.32,.41-10.61-1.81-11.61-9.43-4-30.48-4.09-60.9-.33-91.4,.71-5.8,2.81-8.34,8.96-8.13,11.1,.39,22.22,0,33.33,.14,9.22,.12,14.8-3.79,16.98-13.08,7.47-31.91,19.66-61.94,37.09-89.73,5.56-8.86,4.51-16.18-3.05-23.28-7.8-7.33-14.94-15.38-22.83-22.61-4.54-4.16-4.35-7.14-.7-11.87,19.02-24.65,40.78-46.45,65.31-65.62,5.35-4.18,8.54-3.46,12.86,1.22,7.52,8.16,15.69,15.72,23.52,23.6,6.2,6.23,13.04,7.11,20.46,2.49,28.81-17.95,59.65-30.91,92.77-38.53,7.85-1.81,11.83-7.47,11.79-15.75-.06-10.71,.31-21.44-.12-32.14-.26-6.34,1.85-9.48,8.27-10.36,30.85-4.22,61.67-4.21,92.53-.07,5.22,.7,7.76,2.97,7.49,8.48-.29,5.94-.07,11.9-.06,17.85,0,1.98,0,3.97,0,5.95,0,22.24-.08,22.52,21.43,28.34,28.48,7.7,55.58,18.61,80.51,34.4,10.25,6.49,18.24,5.45,26.06-3.59,4.92-5.68,11.14-10.27,15.82-16.12,6.42-8.03,11.54-8.55,19.85-1.62,22.04,18.38,42.26,38.35,60.19,60.76,4.84,6.05,5.73,10.09-.67,15.58-7.5,6.44-14.05,13.99-21.13,20.93-6.3,6.19-7.15,12.91-2.54,20.39,17.86,28.93,30.73,59.88,38.33,93.05,1.71,7.46,6.98,11.23,14.76,11.24,11.11,0,22.24,.36,33.33-.08,6.53-.26,9.17,2.2,10.05,8.53,4.3,30.87,4.34,61.67-.2,92.52ZM399.92,155.49c-135.25,.07-244.79,109.99-244.63,245.49,.16,135.01,109.38,244.31,244.26,244.45,135.62,.13,245.25-109.24,245.24-244.67-.01-135.53-109.63-245.33-244.87-245.26Zm.48,462.28c-120.24,.5-217.15-95.67-217.86-216.2-.71-120.63,96.07-217.96,217.01-218.23,120.53-.27,216.95,95.43,217.82,216.18,.87,120.61-95.69,217.74-216.96,218.25Zm130.97-313.95c-4.23-5.74-6.96-9.6-.06-15.5,6.71-5.74,7.05-13.31,.49-19.81-6.66-6.61-14.06-5.54-19.79,.97-5.46,6.19-9.23,4.46-14.74,.16-18.72-14.59-40-24.28-63.17-28.94-122.57-24.68-225.22,86.98-190.51,207.12,7.4,25.6,20.9,47.85,39.55,66.89,6.15,6.28,13.5,7.5,20.07,1.4,6.63-6.15,5.54-13.44-.08-20.11-1.27-1.52-2.78-2.84-4.05-4.35-37.15-44.19-46.32-93.73-22.91-146.41,23.45-52.76,67.04-78.09,120.31-81.03,32.36,.94,58.39,8.91,81.96,25.09,6.07,4.17,7.09,6.77,1.29,12.37-18.55,17.9-36.7,36.22-54.68,54.7-5,5.15-9.28,6.48-16.61,4.31-16.53-4.89-35.61,4.54-44.2,20.28-8.84,16.21-6.18,35.15,6.78,48.24,13.04,13.17,32.92,15.9,49.2,6.76,15.6-8.76,24.4-27.69,19.28-44.55-2.14-7.03-.31-10.86,4.38-15.45,18.15-17.75,36.36-35.46,53.77-53.93,6.96-7.38,10.12-5.48,14.77,1.77,22.65,35.3,29.63,73.02,18.35,113.7-6.17,22.23-17.54,41.48-33.53,58.09-5.66,5.88-6.79,12.65-1.74,19.33,4.12,5.44,10.28,6.18,16.11,3.48,3.43-1.59,6.27-4.77,8.92-7.65,52.82-57.44,57.42-143.69,10.83-206.94Zm-130.45,110.58c-8.45-1.18-14.05-5.03-14.28-13.43-.23-8.35,4.9-13.56,12.91-13.83,8.05-.27,13.34,4.72,13.71,13.02,.38,8.53-5.26,12.39-12.34,14.24Z"/>
</svg>