<?xml version="1.0" encoding="UTF-8"?>
<svg id="Layer_1" data-name="Layer 1" xmlns="http://www.w3.org/2000/svg" viewBox="0 0 800 800">
  <defs>
    <style>
      .cls-1 {
        fill: #010201;
      }

      .cls-2 {
        fill: none;
      }
    </style>
  </defs>
  <rect class="cls-2" width="800" height="800"/>
  <path class="cls-1" d="M433.75,580.39c17.93,0,35.86,.07,53.78-.02,17.05-.09,28.09-9.16,28.47-23.18,.4-14.49-10.75-23.89-28.82-23.97-27.52-.11-55.04-.27-82.55,.07-14.45,.18-28.13-1.9-41.03-8.79-6.96-3.71-14.7-6.04-21.51-9.98-43.57-25.21-90.32-35.45-140.31-29.78-11.7,1.33-11.04-4.99-11.35-13.13-.34-8.8,1.44-13.72,11.37-11.76,.4,.08,.84,.06,1.25,0,63-9.31,117.56,15.41,171.43,42.65,9.59,4.85,19.39,6.74,30.08,6.6,27.51-.36,55.03-.26,82.55-.08,30.86,.2,47.4,13.54,52.83,43.57,1.43,7.89,3.23,8.05,9.97,5.15,42.07-18.08,84.2-36.01,126.6-53.3,42.88-17.48,88.79,3.31,105.1,46.49,2.72,7.21,1.78,10.62-5.5,14.45-103.53,54.48-206.82,109.41-310.25,164.06-30.62,16.18-62.71,18.86-95.69,8.37-44.03-14.01-88.04-28.12-131.89-42.69-13.13-4.36-26.38-3.58-39.6-3.19-12.41,.36-7.27-8.33-7.92-13.75-.68-5.73-1.19-10.2,8.18-11.02,33.35-2.89,62.84,10.5,93.3,19.89,29.04,8.95,57.88,18.54,86.88,27.65,25.46,8,50.47,6.19,73.99-6.2,97.23-51.24,194.21-102.96,291.44-154.19,8.79-4.63,8.26-8.04,2.13-14.42-16.32-16.98-39.91-22.08-63.28-12.27-50.28,21.1-100.67,41.98-150.52,64.05-21.43,9.49-42.82,14.62-66.39,13.71-30.39-1.18-60.87-.83-91.29,0-11.23,.3-9.56-6.05-9.45-12.61,.11-6.29-2.25-13.24,9.23-12.66,19.54,.99,39.18,.27,58.77,.27ZM232.38,216.26c5.68,19.06,15.08,29.7,37.25,29.14,10.79-.27,11.26-3.34,12.82-11.39,1.75-9.03,.08-13.87-9.64-13.42-10.6,.5-14.8-5.72-18.3-14.54-7.96-20.02-16.86-39.67-25.16-59.56-2.13-5.1-4.55-8.31-10.93-7.58-5.57,.63-9.62,.93-12.38,7.49-8.84,21.01-19.09,41.43-28.17,62.34-3.12,7.18-7.51,9.42-15.07,9.86-22.45,1.33-44.82,3.88-67.27,5.31-6.4,.41-9.48,2.55-11.29,8.65-1.85,6.26-1.35,10.27,4.13,15.02,16.98,14.72,32.95,30.6,49.81,45.47,5.59,4.93,6.5,9.89,4.89,16.51-5.36,22.12-10.22,44.36-15.92,66.38-1.49,5.76-.87,9.04,3.96,12.66,5.17,3.87,9,5.29,15.35,1.51,19.31-11.48,39.27-21.84,58.74-33.07,6.37-3.67,11.33-4.1,17.92,.11,18.92,12.09,38.46,23.23,57.59,35,4.9,3.02,8.67,4.93,14.29,.59,5.4-4.18,7.1-8.26,5.66-14.79-2.86-12.94-5.91-25.92-7.43-39.06-1.95-16.88-16.61-35.79,6.9-49.54,4.19-2.45,.14-6.16-2.11-8.11-4.11-3.58-5.62-11.69-12-10.72-12.77,1.95-26.53,25.34-23.91,38.4,3.09,15.47,5.95,30.98,9.37,48.88-16.76-10.06-31.22-18.24-45.12-27.27-7.89-5.12-14.34-5.75-22.74-.52-14.27,8.89-29.42,16.37-46.13,25.49,3.3-15.52,4.49-29.41,9.34-41.88,6.57-16.9,1.86-27.92-11.73-38.29-10.55-8.05-19.61-18.07-31.31-29.07,20.66-1.77,37.64-3.6,54.67-4.53,8.21-.45,12.73-3.94,15.97-11.29,7.17-16.3,15.01-32.3,23.08-49.49,5.32,12.39,11.34,23.46,14.87,35.28Zm325.28,86.61c1.29-5.66,2.84-11.44-2.42-16.25-7.68-7.03-15.21-14.21-22.92-21.19-1.62-1.47-3.51-4.69-5.97-2.4-4.85,4.51-10.66,8.98-13.14,14.74-2.11,4.89,4.77,8.09,8.42,10.8,9.61,7.13,11.47,14.88,7.98,26.65-5.87,19.8-8.68,40.49-14.23,60.41-2.12,7.62,1.33,10.14,5.62,14.29,4.75,4.59,8.33,3.11,13.11,.38,19.88-11.33,40.06-22.14,59.9-33.53,5.99-3.44,10.68-3.76,16.82,.14,18.97,12.03,38.42,23.3,57.64,34.94,4.57,2.77,8.25,5.88,14.24,1.34,5.94-4.5,7.33-9.08,5.92-15.92-4.51-21.91-8.21-44-13.22-65.79-1.59-6.9-.04-10.63,5.01-14.89,17.18-14.5,33.92-29.52,50.99-44.15,5.59-4.79,6.06-10.51,4.39-16.94-1.6-6.15-6.8-6.5-11.79-7.11-21.91-2.68-43.79-5.62-65.75-7.89-7.64-.79-11.46-4.19-14.25-11.24-8.08-20.42-16.95-40.52-25.5-60.75-2.37-5.59-5.12-9.65-12.62-9.6-7.09,.04-9.42,4.21-11.74,9.11-9.23,19.49-18.63,38.91-27.37,58.63-3.31,7.47-6.71,13.12-16.14,11.9-4.37-.57-7.56,1.36-6.51,6.44,1.28,6.15-1.72,14.54,4.92,17.93,9.65,4.92,29.66-4.25,34.44-14.45,7.16-15.29,14.27-30.6,22.37-48,7.92,19.18,16.22,36.37,21.84,54.39,2.19,7.03,4.45,7.69,10.43,8.21,18.68,1.64,37.29,4.07,59.01,6.55-14.69,12.77-26.15,23.66-38.61,33.24-9.34,7.18-11.08,14.88-8.25,25.95,3.88,15.22,5.96,30.89,9.24,48.76-17.32-10.27-32.2-18.56-46.48-27.78-7.35-4.74-13.16-4.46-20.52-.05-14.59,8.76-29.77,16.55-47.22,26.13,4.5-19.3,8.48-36.13,12.33-52.99ZM163.88,460.59c-.02-24.36-7.54-31.75-32.36-31.78-33.74-.04-67.48,.33-101.21-.23-9.51-.16-13.02,1.91-12.67,12.15,.31,9.17,1.7,12.94,12.18,12.7,32.89-.76,65.8-.07,98.7-.43,8.05-.09,11.78,1.18,11.74,10.64-.37,78.67-.36,157.34,0,236.01,.04,9.13-3.12,11.02-11.49,10.91-32.9-.42-65.81,.23-98.7-.42-9.85-.19-12.83,2.45-12.35,12.3,.42,8.55,.68,13.33,11.8,13.06,34.97-.85,69.96-.25,104.95-.34,20.4-.05,29.36-9.13,29.4-29.83,.08-41.21,.02-82.42,.02-123.63,0-40.38,.02-80.75,0-121.13Zm-90.24,212.95c.43,8.93,8.22,16.18,17.35,16.13,9.14-.05,16.75-7.41,17.01-16.45,.27-9.39-7.83-17.55-17.32-17.45-9.4,.1-17.48,8.53-17.04,17.77ZM561.15,185.43c-21.23,18.11-42.04,36.72-63.5,54.54-6.11,5.08-7.31,10.29-5.86,17.36,5.5,26.79,10.76,53.63,16.26,80.42,1.36,6.64,.72,11.45-5.7,15.97-6.21,4.38-9.87,1.29-14.46-1.47-23.54-14.17-47.32-27.96-70.54-42.64-7.11-4.5-12.21-4.13-19.21-.09-24.51,14.14-49.37,27.68-74.22,41.23-8.1,4.41-18.16-1.77-18.02-11.77,5.09-22.39,8.82-46.34,16.23-69.1,6.24-19.17,3.36-31.93-13.02-44.46-17.79-13.59-33.22-30.26-49.73-45.54-4.1-3.8-7.22-7.03-4.69-13.83,2.45-6.59,5.94-8.95,12.55-9.42,26.6-1.87,53.16-4.48,79.78-6.03,9.79-.57,15.41-3.68,19.47-13.29,10.16-24.06,21.74-47.53,32.86-71.18,2.55-5.42,4.07-11.06,12.85-10.8,8.3,.24,10.36,4.77,12.84,10.72,10.39,24.87,21.25,49.55,31.33,74.54,2.99,7.41,6.64,10.75,15.1,11.59,27.77,2.76,55.39,6.96,83.12,10.16,6.26,.72,9.59,3.18,11.44,9.1,1.92,6.17-.3,10.07-4.88,13.97Zm-35.43-2.01c-25.63-3.16-48.28-6.36-71.02-8.53-8.29-.79-12.29-4.34-15.26-11.73-8.54-21.23-17.77-42.19-27.71-65.56-10.54,22.51-20.4,42.52-29.25,62.97-3.72,8.6-8.16,12.56-18.16,12.96-21.98,.88-43.88,3.57-69.5,5.85,16.35,15.23,29.44,29.27,44.43,40.85,13.56,10.47,16.37,21.21,11.16,37.27-5.85,18.03-8.78,37.01-13.55,58.11,20.92-11.54,39.52-20.84,57.06-31.82,10.51-6.58,18.37-6.98,28.92,.25,17.49,11.97,36.29,22.03,56.69,34.18-4.59-22.75-8.21-42.69-12.75-62.42-2.79-12.11-2.03-21.22,9.34-29.68,16.79-12.49,31.89-27.25,49.6-42.69Z"/>
</svg>