<?xml version="1.0" encoding="UTF-8"?>
<svg id="Layer_1" data-name="Layer 1" xmlns="http://www.w3.org/2000/svg" viewBox="0 0 800 800">
  <defs>
    <style>
      .cls-1 {
        fill: none;
      }
    </style>
  </defs>
  <rect class="cls-1" width="800" height="800"/>
  <path d="M759.96,82.26c0-29.31-12.95-42.09-42.62-42.09-210.85-.03-421.7-.02-632.54,.02-31.4,0-43.79,12.51-43.79,44.08-.02,160.24-.01,320.49,0,480.73,0,34.71,11.72,46.54,46.28,46.55,67.47,.03,134.94,.01,202.41,.01h19.67c-6.59,12.36-12.76,21.54-16.6,31.61-8.71,22.85-21.69,37.03-48.87,31.64-11.34-2.25-15.85,5.19-15.6,16.24,.34,14.75,.07,29.52,.08,44.28,0,24.38,.85,25.25,24.55,25.26,67.47,0,134.94,0,202.41,0,32.68,0,65.37-.39,98.04,.18,14.39,.25,20.16-5.41,19.37-19.71-.73-13.14-.15-26.35-.16-39.53-.02-26.99-.03-26.72-27.21-27.19-7.45-.13-18.77,.09-21.61-4.24-11.66-17.77-20.73-37.23-32.06-58.54,8.7,0,14.35,0,20,0,68.53,0,137.05,.08,205.58-.03,29.37-.05,42.67-13.23,42.68-42.21,.05-162.35,.05-324.71,0-487.06Zm-210.27,614.9v40.36H250.83v-40.36h298.86Zm-50.08-23.64h-198.26c11.18-20.75,21.33-39.93,32.01-58.81,1.11-1.96,5.42-2.95,8.26-2.97,38.99-.19,77.98-.22,116.97,.02,3.24,.02,8.12,1.33,9.44,3.63,10.55,18.48,20.43,37.35,31.59,58.12Zm237.77-97.51c-.18,4.48-6.62,9.62-11.34,12.66-3.04,1.96-8.19,.76-12.4,.76-208.17,.02-416.35,.02-624.52,0-24.47,0-26.25-1.77-26.28-25.83-.03-22.04,0-44.09,0-67.14H737.91c0,27.09,.54,53.35-.52,79.54Zm.69-121.59c0,5.7,0,11.4,0,18.12H62.84v-16.57c0-122.86-.01-245.71,.01-368.57,0-23.29,2.08-25.36,25.22-25.36,208.28-.01,416.55-.02,624.83,0,23.11,0,25.18,2.13,25.18,25.4,0,122.33,0,244.66,0,366.99ZM340.19,198.3c.23-9.6-4.52-14.22-13.82-15.85-23.66-4.14-30.11-19.76-16.94-39.9,1.96-3,3.31-6.38,6.44-12.52-8.2-8.51-15.78-18.66-25.67-25.47-3.67-2.52-13.71,1.32-19.16,4.85-14.45,9.37-35.41,2.31-36.38-14.01-.86-14.56-6.66-20.47-21.52-20.25-26.51,.4-26.83-.02-29.88,19.13-2.73,17.13-23,26.35-35.81,15.15-13.46-11.77-21.82-5.66-31.78,4.52-9.99,10.2-18.09,18.44-5.05,32.75,11.17,12.26,1.53,33.91-14.95,35.27-12.36,1.03-19.31,5.04-19.32,19.1-.03,28.22-.12,29.06,18.14,32.31,19.08,3.39,27.02,22.49,14.83,37.71-8.41,10.5-7.75,18.61,2.41,26.81,3.26,2.63,6.29,5.67,8.96,8.9,7.63,9.22,14.91,9.02,24.22,1.56,16.7-13.38,36.1-5.27,38.36,16.16,1.3,12.28,7,16.61,18.52,15.76,5.24-.38,10.56-.4,15.8-.01,10.65,.79,15.07-4.56,16.53-14.55,3.42-23.35,20.55-30.51,39.85-16.25,8.67,6.41,15.07,5.49,21.85-1.94,3.9-4.27,8.03-8.37,12.28-12.3,7.66-7.09,7.08-13.9,1.17-22.16-13.49-18.83-6.38-36.79,16.09-39.79,10.5-1.4,15.14-5.75,14.9-16.02-.15-6.32-.2-12.65-.05-18.96Zm-53.04,87.86c-37.46-16.97-63.9-7.78-78.2,32.75-14.78-36.91-38.59-52.08-78.52-31.63,17.41-38.09,8.32-65.06-32.69-80.99,21.69-.74,28.04-13.94,36.56-30.62,9.32-18.27,3.78-31.09-3.78-48.02,16.45,14.86,30.12,11.13,48.01,4.8,19.03-6.73,25.94-17.53,28.5-36.14,15.53,39.64,40.96,51.21,79.8,32.84-17.48,37.65-7.77,63.89,32.19,78.66-38.39,14.67-50.95,39.65-31.87,78.36Zm401.19,142.17c-.6-46.3-.22-92.62-.23-138.93s-.31-92.63,.17-138.93c.15-14.03-4.48-20.58-19.26-19.3-10.45,.9-21.04,.15-31.56,.18-20.22,.06-21.29,1.02-21.31,21.44-.07,71.57-.04,143.14-.04,214.71,0,21.58,.32,43.16-.05,64.73-.2,11.32,4.11,16.48,15.82,15.92,12.08-.57,24.28-1,36.29,.08,15.45,1.39,20.37-4.97,20.17-19.9Zm-23.05-3.15h-26.58V154.19h26.58V425.18Zm-79.88-18.55c.13-67.93-.2-135.87,.24-203.8,.09-13.61-4.66-19.35-18.4-18.57-12.07,.69-24.25,.73-36.32,0-13.83-.83-18.48,4.97-18.25,18.58,.64,37.91,.22,75.83,.22,113.75,0,33.18,0,66.35,0,99.53,0,31.89,0,32.03,31.47,31.86,46.11-.25,40.95,5.76,41.04-41.35Zm-23.34,19.09h-25.96V207.23h25.96v218.5Zm-77.6-79.11c0-28.44-.16-56.88,.08-85.32,.09-10.44-4.12-15.8-14.84-15.72-14.22,.11-28.44,.15-42.66,0-10.77-.12-15.12,5.45-15.11,15.69,.05,57.41,.04,114.82,0,172.22,0,10.77,5.48,14.89,15.89,14.62,13.68-.37,27.4-.42,41.07,.05,11.7,.4,15.83-4.93,15.68-16.21-.38-28.44-.13-56.88-.13-85.32Zm-23.34,78.78h-26.2v-157.44h26.2v157.44Zm-77.55-41.34c.02-16.87-.2-33.74,.09-50.61,.18-10.55-4.11-15.59-15-15.31-14.22,.36-28.47,.31-42.7,0-10.17-.22-14.56,5.02-14.6,14.41-.13,33.74-.12,67.48,0,101.21,.03,9.39,4.28,14.6,14.55,14.32,14.75-.4,29.52-.3,44.28-.06,9.39,.16,13.46-4.19,13.39-13.37-.13-16.87-.04-33.74-.02-50.61Zm-23.01,41.08h-26.51v-84.22h26.51v84.22Zm-77.36-38.04c0-27.37-.09-27.61-27.02-27.44-50.95,.33-44.48-6.28-44.96,44.13,0,10.01,.11,20.02-.03,30.03-.13,9.75,4.05,14.54,14.26,14.27,14.21-.37,28.46-.52,42.66,.02,11.14,.42,15.15-4.92,15.08-15.18-.1-15.28,0-30.55,0-45.83Zm-22.93,37.81h-26.17v-42.09h26.17v42.09Zm140.59,80.14c-19.66-.22-36.44,16.26-36.55,35.91-.11,20.02,15.94,36.39,35.82,36.53,20.01,.14,36.39-15.9,36.54-35.8,.15-19.87-16.02-36.41-35.82-36.64Zm12.84,36.07c-.46,5.11-8.38,13.21-13.1,13.25-4.7,.04-12.77-7.95-13.3-13.04-.03-.3-.03-.61,0-.92,0-.1,.03-.21,.05-.32,.03-.21,.05-.41,.1-.62,.03-.13,.08-.26,.11-.39,.06-.19,.11-.38,.18-.58,.05-.14,.12-.28,.18-.43,.08-.19,.16-.38,.25-.57,.02-.04,.03-.07,.05-.11,.07-.14,.15-.28,.23-.42,.08-.14,.15-.29,.24-.43,.03-.05,.06-.09,.08-.14,.55-.93,1.23-1.9,2.01-2.93,4.82-6.33,14.35-6.41,19.29-.17,.8,1.01,1.5,1.97,2.07,2.89,.03,.05,.06,.09,.09,.14,.09,.15,.17,.29,.25,.44,.08,.13,.16,.26,.23,.4,.02,.04,.03,.08,.06,.12,.1,.19,.18,.38,.27,.57,.06,.14,.13,.28,.19,.42,.08,.2,.13,.39,.19,.58,.04,.13,.09,.26,.12,.39,.05,.21,.08,.42,.11,.63,.02,.1,.04,.21,.05,.32,.03,.31,.03,.62,0,.92ZM207.99,139.56c-37.65,.25-68.19,31.02-68.18,68.68,.02,37.16,31.33,68.45,68.59,68.54,38.1,.09,69.5-31.77,68.76-69.76-.74-38.11-31.1-67.72-69.17-67.46Zm1.42,115.2c-25.58,.41-47.65-21.23-47.63-46.7,.02-24.81,21.1-46.3,46.03-46.91,25.11-.62,47.53,21.4,47.7,46.86,.16,24.51-21.38,46.36-46.1,46.76Z"/>
</svg>