<?xml version="1.0" encoding="UTF-8"?>
<svg id="Layer_1" data-name="Layer 1" xmlns="http://www.w3.org/2000/svg" viewBox="0 0 800 800">
  <defs>
    <style>
      .cls-1 {
        fill: none;
      }

      .cls-2 {
        fill: #010101;
      }
    </style>
  </defs>
  <rect class="cls-1" width="800" height="800"/>
  <path class="cls-2" d="M760.77,86.5c-.06-21.97-13.97-39.7-33.61-44.03-6.52-1.44-13.47-1.31-20.22-1.31-167.49-.06-334.99-.06-502.48-.04-10.74,0-21.51-1.11-32.16,1.41-47.95,11.36-68.87,66.76-41.15,108.34,1.7,2.55,11.43,7.57-.14,10.41-32.12,7.86-52.05,29.98-66.12,57.9-23.2,46.06-26.59,95.61-21.98,145.9,1.6,17.49,13.55,28.06,30.01,33.69,12.1,4.14,23.33,.6,35.7-3.93,0,4.98,0,8.9,0,12.81,0,43.49-.06,86.98,.04,130.46,.05,19.59,8.02,35.13,25.9,43.79,17.33,8.4,34.2,5.99,49-6.57,3.83-3.25,5.99-3.43,9.87-.13,15.19,12.95,32.33,15.24,49.98,6.14,17.67-9.11,24.89-24.58,24.67-44.36-.38-34.31,.39-68.63-.39-102.93-.25-11.18,2.06-14.53,13.99-14.49,143.56,.48,287.13,.34,430.7,.29,29.1,0,48.27-17.67,48.38-46.11,.35-95.75,.29-191.51,.02-287.26ZM189.06,63.12c26.89,.12,47.4,20.9,47.18,47.81-.21,26.44-21.61,47.94-47.68,47.91-26.37-.03-48.61-22.68-48.15-49.02,.46-26.37,21.76-46.81,48.65-46.69Zm63.52,186.4c-8.64,4.15-6.34,12.1-6.35,18.92-.13,86.97-.08,173.94-.08,260.91,0,3.19,.09,6.39-.03,9.57-.55,15.3-10.81,26.2-24.13,25.7-13.07-.49-22.35-10.96-22.39-25.99-.12-51.06,.04-102.13-.13-153.19-.03-8.64,3.15-20.79-10.87-20.87-14-.08-11.08,12.05-11.11,20.72-.18,48.67-.09,97.34-.09,146.01,0,3.19,.14,6.39-.06,9.57-.92,14.05-10.8,24-23.47,23.76-12.75-.25-22.41-10.29-22.54-24.47-.27-28.32-.09-56.65-.09-84.97,0-17.95,0-35.9,0-53.86,0-43.48,0-86.97,0-130.45,0-2.39-.11-4.79,.02-7.18,.45-8.18-2.29-15.21-11.06-15.42-8.81-.21-11.84,6.64-11.59,14.89,.12,3.99,.02,7.98,.02,11.97,0,26.73,.11,53.46-.05,80.19-.07,12.45-11.61,23.55-23.74,23.38-11.5-.16-20.19-9.01-20.73-21.81-1.56-37.24-.46-74.21,12.44-109.83,5.34-14.74,12.74-28.32,22.71-40.46,14.31-17.44,32.75-26.05,55.27-26.03,16.75,.01,33.62,1.32,50.22-.26,43.25-4.1,76.12,15.21,99.2,48.37,15.14,21.75,31.59,29.87,56.36,26.18,7.02-1.04,14.35-.44,21.5,0,9.47,.59,14.65,6.62,15.09,15.52,.48,9.49-4.56,17.07-14.3,17.44-20.69,.79-41.45,.29-62.17-.12-5.24-.1-9.62-3.55-13.85-6.6-11.95-8.64-23.83-17.39-35.94-25.8-5.32-3.7-10.17-9.58-18.06-5.79Zm485.85,118.68c0,22.58-7.5,30.01-30.05,30.02-142.32,0-284.64-.14-426.95,.27-11.1,.03-13.95-2.93-13.72-13.82,.71-33.76,.26-67.54,.26-102.38,2.92,.92,3.91,.92,4.38,1.42,31.92,33.71,73.27,27.52,113.14,26.15,14.09-.48,24.75-9.27,29.82-22.53,3.09-8.07,8.32-12.89,15.19-17.27,32.58-20.77,65.01-41.8,97.46-62.79,4.62-2.99,10.01-5.45,10.57-12.04,.37-4.39-1.5-7.56-5.13-10.06-5.35-3.68-9.84-1.27-14.32,1.61-28.13,18.13-56.24,36.28-84.35,54.43-1.34,.86-2.79,1.61-3.99,2.63-9.12,7.81-16.75,10.93-25.68-1.72-6.2-8.79-17.87-10.92-28.37-9.43-27.4,3.9-47.15-3.9-64.26-27.8-16.72-23.35-42.11-38.46-72.48-45.52,23.93-31.35,25.27-62.9,2.13-94.73,4.73-2.51,9.11-1.36,13.27-1.36,151.09-.08,302.18-.07,453.26-.06,23.15,0,29.82,6.63,29.82,29.79,.02,91.73,.02,183.46,0,275.19Zm12.28,370.25c-2.69-.54-5.58-.44-8.34-.19-5.33,.48-7.38-1.45-8.47-7.06-8.3-42.58-34.15-71.16-73.21-87.87-9.56-4.09-10.93-5.68-4.34-14.56,20.61-27.82,12.1-67.86-17.11-85.57-30.12-18.27-69.08-7.54-84.82,23.86-11.23,22.4-8.62,43.87,6.03,64.15,1.78,2.47,9.26,6.05,.61,9.28-30.2,11.28-53.5,30.69-70.27,60.73-16.07-28.85-37.7-48.16-66.36-58.9-8.16-3.06-8.23-5.1-3.16-11.77,19.64-25.82,16.26-59.82-7.29-80.92-22.56-20.21-57.04-20.39-79.64-.41-23.54,20.81-27.41,55.7-8.04,80.96,5.71,7.45,4.55,9.04-3.55,12.39-38.44,15.85-64.65,43.18-74.09,84.41-1.95,8.52-4.24,12.54-13.45,11.36-7.79-1-13.96,2.7-13.99,10.94-.03,8.32,6.13,11.37,14,11.05,1.99-.08,3.99,0,5.98,0,166.6,0,333.19,0,499.79,0,3.19,0,6.4,.13,9.55-.22,5.95-.67,9.6-4.39,9.98-10.13,.44-6.51-3.65-10.29-9.8-11.52Zm-377.03-182.01c21.19-.12,38,16.52,38.06,37.68,.06,20.88-17.05,38.51-37.57,38.7-20.02,.19-38.14-17.87-38.35-38.23-.21-20.76,16.93-38.03,37.86-38.16Zm96.22,181.91c-32.25-.35-64.5-.15-96.75-.15-31.45,0-62.91-.26-94.36,.18-8.34,.12-10.45-1.9-8.05-10.08,10.99-37.57,36.81-59.77,73.37-69.78,46-12.6,94.52,4.57,119.81,40.98,6.22,8.95,10.12,18.87,13.47,29.14,2.4,7.33,.46,9.81-7.49,9.72Zm138.07-181.91c20.94,.14,37.98,17.35,37.8,38.18-.18,20.38-18.26,38.41-38.31,38.21-20.49-.21-37.64-17.89-37.56-38.72,.08-21.14,16.92-37.8,38.08-37.66Zm89.86,181.77c-30.27,0-60.53,0-90.8,0-31.46,0-62.92-.28-94.38,.17-9.4,.14-10.4-2.73-8.03-11.11,15.04-53.17,71.48-79.16,119.17-71.63,38.68,6.1,68.1,25.49,83.83,62.73,.62,1.47,1.26,2.93,1.75,4.44q5.01,15.39-11.54,15.4Zm-138.93-420.27c34.65,0,69.29-.02,103.94,.03,3.97,0,8,.03,11.88,.71,5.45,.97,8.13,4.73,8.05,10.23-.08,5.46-2.79,9.18-8.22,10.16-3.49,.63-7.13,.61-10.7,.61-69.69,.03-139.39,.03-209.08,0-3.57,0-7.21,.05-10.71-.55-6-1.02-9.01-5.18-8.74-11,.25-5.3,3.44-8.9,8.91-9.64,3.53-.47,7.14-.53,10.71-.53,34.65-.04,69.29-.02,103.94-.02Zm18.27-166.03c-30.64,0-61.27-.09-91.91,.06-8.06,.04-14.88-1.49-14.73-11.16,.14-8.88,6.63-10.58,14.2-10.57,61.27,.07,122.55,.06,183.82,0,7.58,0,14.01,1.76,14.14,10.65,.14,9.77-6.84,11.1-14.8,11.06-30.24-.13-60.48-.05-90.72-.05Zm-212.65,0c-11.91,0-23.82-.14-35.73,.05-7.48,.12-12.84-2.77-13.07-10.51-.23-7.78,5.02-11.14,12.47-11.15,24.61-.02,49.23-.02,73.84,0,7.46,0,12.68,3.36,12.47,11.15-.22,7.77-5.6,10.62-13.06,10.51-12.3-.18-24.61-.05-36.92-.05Zm238.66,70.69c10.32,0,20.63-.01,30.95,0,6.79,.02,11.91,2.62,12.21,10.04,.33,8.03-5.03,11.48-12.16,11.58-20.63,.28-41.26,.21-61.89,.08-7.18-.05-12.83-3.29-12.88-11.02-.05-7.82,5.43-10.76,12.83-10.71,10.32,.08,20.63,.02,30.95,.02Z"/>
</svg>