<?xml version="1.0" encoding="UTF-8"?>
<svg id="Layer_1" data-name="Layer 1" xmlns="http://www.w3.org/2000/svg" viewBox="0 0 800 800">
  <defs>
    <style>
      .cls-1 {
        fill: none;
      }

      .cls-2 {
        fill: #010101;
      }
    </style>
  </defs>
  <rect class="cls-1" width="800" height="800"/>
  <path class="cls-2" d="M767.86,700.44c10.89-15.96,10.92-32.68-.28-48.44-3.75-5.28-3.13-8.02,.32-12.9,10.76-15.23,10.62-32.93-.29-48.48-3.2-4.57-3.77-7.25-.26-12,10.28-13.93,11.42-29.3,3.3-44.49-8.14-15.24-21.52-21.98-38.95-21.82-34.28,.32-68.56,.13-102.85,.04-15.93-.04-21.09-5.27-21.14-21.3-.09-24.04,.04-48.07-.06-72.11-.07-17.38-6.08-32.45-18.83-44.39-21.77-20.4-47.94-12.95-56.3,15.71-13.56,46.48-27.01,93-40.96,139.36-9.17,30.48-25.21,41.1-56.88,39.58-5.31-.25-7.28-1.51-8.07-7.17-2.15-15.55-9.41-21.72-25.39-21.93-22.85-.31-45.71-.33-68.56,0-17.82,.26-25.5,8.39-25.67,26.51-.17,18.12-.6,36.28,.18,54.37,.43,10.04-1.9,13.55-12.8,13.35-40.57-.72-81.17-.28-121.76-.29-17.73,0-35.48,.37-53.19-.12-24.17-.68-37.47-17.76-32.19-41.28,9.41-41.89,31.35-76.14,64.63-103.06,40.36-32.65,87.25-42.72,138.17-41.15,60.87,1.89,112.53,23.44,154.69,67.49,1.91,1.99,3.7,4.12,5.78,5.9,4.83,4.13,10.09,4.58,14.87,.23,4.66-4.25,5.65-9.5,1.49-14.73-3.18-4-6.66-7.78-10.25-11.42-29.92-30.31-65.77-50.54-107.89-62.38,4.03-3.02,7.09-5.34,10.19-7.62,66.83-49.22,65.14-148.2-3.32-194.36-41.18-27.77-99.33-26.22-137.25,3.58-6.07,4.77-10.94,10.14-5.19,17.8,5.58,7.43,12.2,5.29,18.47,.34,1.24-.98,2.51-1.9,3.82-2.79,39.96-27.03,93.5-20.5,125.57,15.3,31.93,35.64,32.89,89.1,2.25,125.63-31.21,37.22-83.81,45.6-124.78,19.89-39.98-25.1-54.89-72.66-37.26-119.13,2.69-7.08,4.79-14.47-3.87-18.26-8.87-3.88-13.79,1.69-16.97,9.6-8.72,21.7-11.9,43.88-7.56,67.11,6.19,33.09,23.93,58.59,52.48,79.36-5.12,1.68-7.99,2.71-10.9,3.56-76.03,22.2-125.21,71.4-147.47,147.28-12.7,43.29,11.91,75.56,57.16,75.6,57.53,.05,115.06,.18,172.59-.17,8.34-.05,10.61,2.35,10.45,10.55-.5,26-.27,52.01-.16,78.02,.08,19.77,8.42,28.24,27.78,28.32,21.67,.09,43.35-.24,65.02,.12,13.05,.21,22.16-4.93,26.15-17.45,1.43-4.49,3.19-6.31,8.06-6.4,34.44-.68,68.37,.71,100.54,15.58,14.61,6.75,30.41,11.07,46.54,12.34,51.13,4.04,102.39,1.83,153.59,2.11,16.64,.09,29.5-8.45,36.75-23.58,6.99-14.57,6.1-29.32-3.67-42.44-3.83-5.14-3.29-8.02,.12-13.01Zm-374.29,50.7c-18.08-.76-36.21-.52-54.31-.07-7.46,.19-10.32-1.69-10.28-9.76,.32-56.68,.29-113.36,.01-170.05-.04-7.11,1.63-9.63,9.1-9.44,19.28,.5,38.58,.45,57.86,.02,6.96-.15,8.56,2.37,8.49,8.87-.3,28.34-.13,56.68-.13,85.02,0,27.95-.29,55.9,.18,83.84,.14,8.41-1.56,11.96-10.93,11.57Zm306.89-155.42c10.24-.14,20.5-.19,30.74,.02,13.46,.27,22.27,8.08,22.26,19.35-.02,11.02-9.16,19.57-22.08,20-10.63,.36-21.28,.22-31.92,.05-7.39-.12-12.68,2.53-12.68,10.48,0,7.7,4.99,11.11,12.39,11.15,10.64,.06,21.28-.16,31.92,.09,13.39,.32,22.29,8.19,22.37,19.36,.08,11.31-8.41,19.07-22.06,19.53-10.63,.36-21.28-.02-31.92,.21-7.01,.16-12.77,2.85-12.7,10.87,.08,8.27,5.42,11.58,13.3,11.54,10.64-.06,21.28-.16,31.92,.04,12.65,.24,21.21,7.91,21.44,18.83,.23,10.78-8.1,19.69-20.58,19.98-24.02,.55-48.07,.16-67.7,.16-32.69-1.84-61.13,1.46-89.32-3.54-13.25-2.35-25.88-6.5-38.17-11.78-31.12-13.39-63.89-16.11-97.16-14.6-10.48,.48-14.18-2.01-13.94-13.35,.78-37.03,.53-74.08,.11-111.12-.1-8.42,1.56-11.59,10.89-11.61,43.1-.12,64.83-17.54,76.61-58.92,12.94-45.43,26.45-90.7,39.81-136.01,3.63-12.3,10.21-14.1,19.56-5.37,7.91,7.39,11.4,16.65,11.33,27.53-.16,24.43-.12,48.86-.02,73.3,.11,26.9,14.82,41.89,41.45,42.03,34.68,.18,69.36,.08,104.04,.16,9.28,.02,17.01,3.07,21.31,12,3.48,7.22,1.83,13.88-2.77,19.91-4.46,5.84-10.91,7.38-17.87,7.4-10.25,.02-20.49,.04-30.74,.01-7.66-.03-13.65,2.6-13.48,11.18,.17,8.33,5.87,11.24,13.67,11.13ZM363.37,70.86c-25.8-3.03-42.38-14.99-53.35-38.54-6.37-13.67-25.22-13.8-31.52-.32-10.93,23.4-27.1,35.93-53.09,38.81-14.61,1.62-20.65,18.94-10.15,28.81,19.21,18.06,26.04,37.87,20.81,63.92-2.8,13.96,11.36,22.81,25.35,18.21,3.71-1.22,7.53-2.56,10.8-4.63,14.62-9.23,29.08-9.89,43.68-.12,.97,.65,2.13,1.02,3.21,1.48,23.41,10.01,34.74,2.16,32.92-26.83-8.3-17.87,2.42-33.05,17.38-46.83,1.44-1.32,2.7-2.88,3.84-4.47,8.61-11.97,4.5-27.79-9.89-29.48Zm-15.37,24.52c-6.69,9.07-18.2,15.26-19.83,27.19-1.53,11.14-.33,22.66-.33,35.7-21.9-14.16-44.67-17.54-65.98,.66-4.73-5.06-2.93-9.16-2.14-12.56,4.22-18.09-.1-32.77-14.15-45.62-10.3-9.42-9.57-11.43,3.75-12.88,18.24-1.98,30.73-10.3,37.73-27.25,1.46-3.53,4.08-6.58,7.11-11.34,1.98,2.95,3.38,4.43,4.11,6.19,8.37,20.33,22.91,32.04,45.35,33.34,3.2,.18,9.38-.21,4.38,6.56Zm-200.86-10.11c-15.61-2.61-24.77-9.62-31.98-23.33-10.55-20.07-25.45-19.78-36.44,.56-7.08,13.11-15.9,20.2-31.19,22.74-23.55,3.91-27.31,17.42-11.55,35.33,8.1,9.19,17.83,17.57,12.86,28.54-6.56,29.09,8.49,42.58,33.81,27.76,9.69-5.67,18.84-6.27,28.57-.14,3.92,2.47,8.53,4.02,13.02,5.34,12.17,3.56,22.3-3.73,22.82-16.28,.15-3.52,.29-7.23-.62-10.57-3.83-14.06,1.36-24.22,11.23-34.39,16.5-17.01,12.32-31.74-10.55-35.56Zm-23.75,43.97c-1.42,8.66-.31,17.73-.31,26.75q-26.4-6.17-51.58,.1-1.61-26.94-16.84-50.14c20.26-.87,34.58-9.93,41.87-33.35,8.71,22.07,21.95,33.2,43.06,33.19-4.68,9.99-14.71,14.35-16.2,23.44Zm417.59-41.67c-4.36-1.66-9.04-2.92-13.68-3.35-11.58-1.07-19.79-6.21-24.33-17.21-1.63-3.96-4.21-7.55-6.6-11.16-3.51-5.3-8.47-8.06-14.61-7.76-7.88-.11-13.38,3.56-16.2,10.21-6.97,16.47-18.58,25.04-36.72,28.12-19.76,3.36-24,17.76-9.68,32.05,12,11.98,17.71,24.28,12.62,40.79-.34,1.1-.27,2.34-.31,3.52-.52,15.57,11.94,25.48,25.6,18.2,17.2-9.18,32.87-10.14,49.21,.42,.63,.41,1.5,.45,2.26,.67,12.75,3.61,25.12-4.36,22.77-17.14-3.76-20.49-.02-36.99,16.48-50.11,.87-.69,1.31-1.94,1.87-2.98,5.15-9.53,1.42-20.43-8.67-24.27Zm-32.37,69.7c-17.96-10.83-34.94-11.5-55.08,2.75,5.35-22.54,3.11-39.63-14.5-52.86,21.33-1.47,34.47-12.3,42.97-34.88,7.49,23.24,21.32,33.11,45.74,33.61-19.22,14.67-25.56,30.51-19.13,51.38Z"/>
</svg>