<?xml version="1.0" encoding="UTF-8"?>
<svg id="Layer_1" data-name="Layer 1" xmlns="http://www.w3.org/2000/svg" viewBox="0 0 800 800">
  <defs>
    <style>
      .cls-1 {
        fill: none;
      }
    </style>
  </defs>
  <rect class="cls-1" width="800" height="800"/>
  <path d="M25,200.43c7.63-3.32,15.12-2.02,22.92-2.5,21.54-1.32,43.22-.46,65.98-.46v29.38H54.98c0,6.5,0,11.78,0,17.06,0,102.93-.02,205.86,.01,308.8,.01,29.57,19.34,51.29,45.26,51.11,25.99-.18,44.95-21.79,44.95-51.47,.03-159.68,0-319.37,.02-479.05,0-22.88,3.14-26.06,25.68-26.07,172.98-.01,345.96-.01,518.94,0,22.35,0,26.01,3.64,26.01,25.93,.02,102.93,.01,205.86,0,308.8,0,4.44,1.47,10.18-.71,13.05-3.88,5.11-9.82,11.26-15.32,11.7-4.2,.33-10.05-6.85-13.24-11.91-2.03-3.22-.62-8.66-.62-13.11-.02-94.59-.01-189.17-.01-283.76v-19.51H175.14c0,6.2,0,12.64,0,19.09,0,139.1,.1,278.19-.08,417.29-.04,29.62,4.66,60.04-15.54,89.23,9.33,0,15.21,0,21.09,0,69.53,0,139.05,0,208.58,.02,5,0,11.11-1.44,14.72,.89,4.83,3.12,10.22,9.04,10.64,14.15,.32,3.89-6,9.91-10.71,12.16-4.59,2.19-10.9,.93-16.45,.93-89.55,.03-179.1,.02-268.65,.02-56.13,0-72.77-10.8-93.73-60.83,0-121.31,0-249.63,0-370.94Zm241.09-31.93v27.97h328.79v-27.97H266.09Zm.37,59.87v27.97h328.48v-27.97H266.46Zm-.1,120.71v27.53h148.43v-27.53h-148.43Zm328.57,27.44v-27.93h-148.57v27.93h148.57Zm-180.2,60.13v-27.95h-148.57v27.95h148.57Zm-148.59,32.41v27.95h148.57v-27.95h-148.57Zm16.86,58.98h-16.54v29.93c25.37,0,49.68,0,74,0s49.47,0,74.24,0v-29.93h-131.69Zm234.35-119.03h-70.96v27.01c30.41,9.19,47.93-12.17,70.96-27.01Zm258.65,159.03v36.73c-2.24,9.08-4.21,18.23-6.76,27.22-21.01,74.11-91.6,123.68-170.15,119.61-73.88-3.83-138.98-63.92-150.72-139.11-13.84-88.66,46.69-174.74,132.21-188,95.2-14.75,177.18,43.86,192.71,137.71,.34,2.04,1.79,3.9,2.72,5.84Zm-273.57,98.56c63.29-63.33,125.82-125.91,188.17-188.3-50.36-40.88-128.66-35.7-176.35,13.33-47.91,49.27-52.31,126.97-11.83,174.96Zm215.14-161.22c-62.61,62.59-125.26,125.22-188.6,188.55,53.82,42.92,132.95,36.47,181.34-15.37,45.12-48.32,48.03-129.78,7.26-173.18Z"/>
</svg>