<?xml version="1.0" encoding="UTF-8"?>
<svg id="Layer_1" data-name="Layer 1" xmlns="http://www.w3.org/2000/svg" viewBox="0 0 800 800">
  <defs>
    <style>
      .cls-1 {
        fill: #020202;
      }

      .cls-2 {
        fill: none;
      }
    </style>
  </defs>
  <rect class="cls-2" width="800" height="800"/>
  <path class="cls-1" d="M153.92,460.3c1.72-3.86,2.84-6.32,3.91-8.8,15.25-35.31,58.26-45.86,86.55-19.97,22.41,20.5,43.79,42.26,64.26,64.71,21.26,23.32,31.49,51.86,31.7,83.42,.38,57.23-.15,114.46,.41,171.68,.12,12.25-7.61,8.04-13.5,8.79-7.47,.95-11.37-.42-11.29-9.8,.48-53.62-.24-107.26,.4-160.88,.42-35.28-11.16-64.81-36.81-89.13-15.68-14.86-30.61-30.51-45.94-45.73-15.58-15.47-33.34-16.99-46.45-4.08-13.44,13.24-11.92,31.28,4.07,47.31,22.32,22.38,44.39,45.03,67.22,66.88,7.12,6.81,4.03,10.29-1.37,14.88-4.77,4.06-7.66,11.39-15.91,2.95-34.67-35.49-70.06-70.28-105.01-105.51-17.62-17.77-24.3-39.68-24.23-64.42,.24-80.04,.09-160.08,.09-240.11,0-3.2,.07-6.41-.02-9.6-.46-16.23-10.44-27.42-24.18-27.19-13.49,.23-23.43,10.94-23.45,26.61-.12,107.65-.23,215.31,.13,322.96,.1,28.45,11.15,52.94,31.25,73.16,22.57,22.7,45.08,45.47,67.93,67.88,13.93,13.67,20.92,29.82,20.75,49.35-.21,25.21-.63,50.44,.22,75.63,.37,11.08-6.25,8.86-12.27,8.79-5.83-.07-12.87,2.75-12.54-8.47,.73-24.79-.04-49.62,.33-74.43,.21-13.69-4.4-24.65-14.23-34.23-22.07-21.5-43.61-43.54-65.47-65.26-26.9-26.73-40.48-58.99-40.49-96.91-.02-105.65-.09-211.3,.04-316.96,.03-27.52,14.66-46.11,39.42-51.24,21.52-4.46,43.41,7.22,52.84,28.17,3.9,8.65,4.07,17.84,4.07,27.07-.01,81.64,.07,163.28-.07,244.92-.03,17.44,3.74,33.23,17.64,47.6Zm490.58-4.86c-17.71-42.16-61.36-50.89-93.84-18.7-16.2,16.05-32.13,32.39-48.43,48.34-28.41,27.79-42.2,61.4-41.99,101.15,.29,54.02,.27,108.05-.13,162.08-.07,9.07,1.78,12.52,11.65,12.15,8.86-.33,13.31-.76,13.17-11.91-.67-54.82-.25-109.65-.32-164.47-.04-31.18,10.73-57.79,32.91-79.8,17.05-16.91,33.86-34.05,50.93-50.93,14.68-14.52,32.86-15.37,45.58-2.4,12.67,12.92,11.53,30.82-3.18,45.62-22.28,22.43-44.37,45.06-67.24,66.87-7.29,6.95-6.02,10.67,.44,16.71,5.89,5.5,9.31,9.04,16.94,1.16,31.17-32.2,62.58-64.21,95.05-95.08,23.37-22.23,33.4-48.14,33.04-80.26-.91-80.43-.34-160.87-.27-241.31,.02-17.57,9.31-28.76,23.54-28.97,14.12-.21,24.1,11.23,24.11,28.44,.08,106.05,.13,212.1-.02,318.15-.04,30.26-11.12,56.09-32.64,77.48-22.71,22.57-45.18,45.37-67.91,67.9-12.9,12.79-19.48,28.05-19.46,46.21,.03,25.61,.5,51.24-.27,76.83-.3,10.04,4.77,9.95,11.68,9.45,6.23-.45,13.56,2.68,13.15-9.19-.86-24.78-.03-49.62-.35-74.43-.17-13.25,4.32-23.9,13.83-33.17,20.92-20.39,41.04-41.59,62.13-61.8,30.35-29.08,44.59-64.19,44.38-106.24-.49-102.45-.14-204.9-.21-307.35,0-5.98-.19-12.06-1.27-17.91-4.77-25.87-30.85-42.88-56.57-37.21-24.8,5.47-38.45,24.15-38.47,53.18-.06,82.84-.04,165.68-.01,248.52,0,16.99-4.12,32.33-17.46,45.3-1.37-2.38-2.06-3.34-2.51-4.41ZM183.17,87.19c-9.16-.26-11.39,2.44-11.3,11.33,.44,44.81,.52,89.64-.05,134.45-.12,9.55,3.07,11.59,11.6,10.87,7.11-.6,13.67,1.76,13.33-10.42-.99-35.19-.44-70.42-.31-105.63,.06-18.73-2.2-16.12,15.57-16.17,37.61-.11,75.24,.52,112.84-.35,12.44-.28,17.66,2.91,15.39,15.55-1.98,11,6.02,8.79,12.03,8.72,5.86-.07,13,2.7,12.49-8.53-.83-18.37-.05-36.81-.32-55.21-.09-6.01,1.5-8.43,8.04-8.39,46.82,.25,93.64,.22,140.46,.02,5.91-.02,7.59,2.14,7.5,7.7-.25,14.4,.32,28.83-.24,43.21-.29,7.4,1.93,9.6,9.38,9.42,21.2-.49,42.43,.28,63.61-.39,8.9-.28,11.62,1.99,11.46,11.2-.57,33.6,.15,67.23-.45,100.83-.18,10.26,5.92,8.62,11.58,8.15,5.33-.44,13.25,3.98,13.14-7.75-.42-42.41-.34-84.84,0-127.25,.06-7.54-2.39-9.43-9.64-9.28-22,.45-44.02-.08-66.02,.31-6.7,.12-8.98-1.67-8.72-8.6,.52-14.39-.02-28.81,.24-43.21,.11-5.81-1.13-8.55-7.89-8.53-62.82,.24-125.65,.22-188.48,.02-6.25-.02-8.56,1.83-8.29,8.12,.39,9.19-.81,18.52,.33,27.58,1.42,11.28-3.27,12.99-13.22,12.69-23.59-.72-47.21-.23-70.82-.23-24.41,0-48.83,.46-73.22-.24Zm241.87,13.63c-.32-10.77-2.76-15.14-13.83-13.56-5.45,.78-11.11,.1-16.67,.16-2.31,.02-4.57-.25-5.99,2.58-5.37,10.69,1.13,21.62,13.02,21.63,1.59,0,3.18,0,5.72,0,5.85-2.39,18.26,6.66,17.74-10.8Zm41.11-13.44c-3.11-.07-4.97,.75-5.89,4.24-3.81,14.38,.29,20.01,15.02,20.01,3.18,0,6.4-.34,9.53,.07,8.8,1.15,12.75-1.27,12.2-11.32-.47-8.59-.53-15.14-11.8-13.02-1.92,.36-3.96,.05-5.95,.05-4.37,0-8.74,.08-13.11-.02Zm162.51,262.45c-.55,23.81-14.86,37.76-38.59,37.95-13.61,.11-27.21,.02-40.82,.02-14.81,0-29.62,.26-44.42-.12-6.2-.16-8.04,1.71-8.38,8.05-1.55,28.6-13.96,40.09-42.36,40.1-36.42,.02-72.84,.05-109.26,0-25.78-.04-39.79-12.91-40.39-38.37-.19-8.15-2.73-9.93-10.34-9.82-27.61,.42-55.23,.25-82.84,.14-24.44-.1-38.69-14.12-39.13-38.62-.25-14-.1-28.02,0-42.02,.11-14.8,6.37-26.11,19.3-33.65,8.63-5.04,16.77-11.07,25.77-15.28,10.14-4.74,13.64-10.4,8.31-21.12-7.05-14.17-6.15-29.67-4.97-44.82,2-25.68,22.72-44.73,47.72-44.75,25-.02,45.6,18.98,47.84,44.68,1.43,16.46,1.13,32.95-5.94,48.3-3.71,8.06-1.53,12.65,6.23,15.65,1.47,.57,2.79,1.55,4.17,2.37,12.41,7.46,29.27,4.48,38.77-6.54,2.86-3.31,.95-5.98-.2-8.79-6.35-15.53-7.83-31.71-6.81-48.29,1.66-27.1,21.88-47.19,47.8-47.38,25.88-.19,46.51,19.78,48.33,46.81,1.11,16.55,.09,32.9-6.75,48.24-2.77,6.21-1.3,9.69,4.5,12.26,1.82,.8,3.48,1.97,5.19,3,13.83,8.28,29.25,5.93,39.85-5.7,2.96-3.25,1.24-5.85,.09-8.71-6.27-15.53-7.92-31.68-6.93-48.27,1.62-27.15,21.63-47.27,47.58-47.62,26.28-.36,47.23,20.08,48.6,47.75,.73,14.84,.93,29.79-5.75,43.58-4.51,9.32-1.39,14.19,7.31,18.44,9.31,4.54,17.84,10.64,26.83,15.85,13.35,7.75,19.72,19.37,19.75,34.65,.02,14.01,.27,28.02-.05,42.02Zm-324-49.98c-.13-7.2,9.82-13.01,4.1-19.51-4.78-5.43-12.65-8.14-19.16-12.05-1.37-.82-2.69-1.78-4.14-2.4-6.31-2.71-7.35-6.47-5.02-13.26,5.93-17.26,13.44-34.15,11.91-53.34-1.31-16.32-10.17-27.5-23.92-27.6-13.83-.1-22.87,11.01-24.17,27.3-1.46,18.31,4.83,34.74,11.13,51.04,3.58,9.27,1.13,13.35-6.95,17.71-14.4,7.77-28.09,16.82-42.25,25.04-6.02,3.49-9.85,7.86-9.8,15.15,.1,13.99-.04,27.99,.07,41.98,.07,9.31,4.84,13.85,14.25,13.76,13.99-.13,27.99-.03,41.98-.03,14.39,0,28.8-.38,43.17,.17,7.08,.27,8.57-2.24,8.48-8.84-.24-18.37,.65-36.76,.33-55.13Zm167.76,10.78c.09-8.61-3.2-14.15-10.63-18.38-14.92-8.49-29.37-17.8-44.29-26.27-5.94-3.37-7.27-6.58-4.95-13.35,5.93-17.26,13.44-34.14,11.9-53.32-1.31-16.32-10.16-27.49-23.91-27.6-13.82-.11-22.84,11.01-24.18,27.28-1.55,18.76,5.27,35.45,11.48,52.18,3.13,8.45,.77,12.02-6.24,15.94-14.63,8.18-28.74,17.29-43.27,25.65-6.54,3.76-9.92,8.64-9.87,16.34,.16,29.18,.12,58.36,.03,87.54-.03,10.46,4.78,15.3,15.39,15.15,18.78-.27,37.57-.08,56.36-.07,18.39,0,36.77,.08,55.16-.03,13.71-.08,16.82-3.15,16.89-17.11,.13-27.98-.15-55.96,.15-83.94Zm121.28-18.49c-13.21-7.46-25.66-16.36-39.23-23.05-11.01-5.43-12.63-11.71-7.98-22.42,7.04-16.2,11.79-33.07,9.83-51.19-1.48-13.7-11.41-23.84-23.94-23.77-12.61,.06-22.86,10.09-23.57,23.96-.57,11.14-.83,22.29,3.27,33.16,3.79,10.05,10.57,21.16,8.86,30.5-1.82,10-16.4,12.14-25.13,18.12-4.5,3.09-7.7,5.22-3.77,11.09,4.15,6.19,4.54,13.53,4.55,20.79,.03,14.39,.5,28.81-.17,43.17-.4,8.49,1.21,12.14,10.84,11.41,13.12-.99,26.37-.25,39.56-.25,13.59,0,27.19,.09,40.78-.03,13.27-.11,16.53-3.16,16.75-16.04,.21-12.39-.26-24.8,.15-37.18,.29-8.69-3.43-14.1-10.81-18.27Z"/>
</svg>