<?xml version="1.0" encoding="UTF-8"?>
<svg id="Layer_1" data-name="Layer 1" xmlns="http://www.w3.org/2000/svg" viewBox="0 0 800 800">
  <defs>
    <style>
      .cls-1 {
        fill: none;
      }

      .cls-2 {
        fill: #010101;
      }
    </style>
  </defs>
  <rect class="cls-1" width="800" height="800"/>
  <path class="cls-2" d="M667.28,268.26c0-40.23,0-78.33,0-116.43,0-28.81,.05-57.61-.02-86.42-.04-14.03-2.44-16.7-16.05-16.7-176.01-.06-352.01-.06-528.02,0-13.44,0-16.55,3.84-16.56,19.28-.02,147.53,.03,295.06-.11,442.59,0,8.27,3.48,20.28-10.43,20.31-13.44,.02-10.97-11.55-10.97-20.15-.07-147.92-.05-295.84-.05-443.76,0-28.12,12.18-40.23,40.47-40.23,174.84,0,349.68-.01,524.51,0,27.17,0,40.09,12.84,40.1,39.79,.02,67.73,.15,135.46-.17,203.19-.04,8.26,1.47,13.65,9.66,17.37,11.74,5.33,16.6,15.22,16.35,28.32-.6,32.15,2.44,64.61-9.5,95.61-1.81,4.69-2.84,9.96-5.68,13.92-10.67,14.83-10.9,31.44-10.82,48.74,.38,86.8,.18,173.61,.17,260.42,0,27.65-12.25,40.13-39.43,40.13-175.62,.01-351.23,.01-526.85,0-26.89,0-38.8-12.09-38.8-39.32-.01-52.55,0-105.1,0-157.65,0-4.24-.6-8.58,2.33-12.33,3.03-3.86,6.98-4.73,11.46-3.68,4.71,1.1,7.42,4.14,7.55,9.05,.16,6.22,.18,12.45,.18,18.68,.01,47.88,0,95.76,.01,143.64,0,16.98,2.93,20.03,19.29,20.03,174.45,.01,348.9,.01,523.35,0,15.12,0,17.96-2.15,17.97-14.68,.08-85.64,.05-171.28,.03-256.91,0-1.77-.25-3.54-.53-7.24-20.91,19.81-45.24,31.15-67.94,45.05-11.45,7.01-22.36,6.89-33.88-.12-26.82-16.31-55.83-29.48-76.5-54.41-3.22-3.89-6.53-7.75-9.29-11.96-3.75-5.71-2.95-11.3,2.63-15.32,5.2-3.74,10.88-2.92,14.46,2.19,19.78,28.19,49.66,42.92,78.3,59.31,3.12,1.79,6.11,5.04,10.52,2.42,25-14.83,51.9-26.81,71.88-49.04,24.43-27.18,36.13-59.3,37.3-95.47,.41-12.83-.18-25.7,.21-38.53,.19-6.25-2.1-9.89-7.54-12.98-32.4-18.42-64.68-37.05-96.83-55.93-5.72-3.36-10.19-3.53-16-.1-31.76,18.73-63.66,37.24-95.76,55.39-5.83,3.29-8.49,6.72-8.23,13.55,.98,25.93-2.19,52.08,5.2,77.64,1.86,6.43,.74,12.92-7.3,14.66-7.97,1.72-12.16-2.44-14.15-10.08-7.96-30.57-6.67-61.64-5.18-92.69,.4-8.29,5.31-14.42,12.48-18.56,35.98-20.78,71.99-41.51,107.96-62.3,10.41-6.02,20.05-3.6,29.7,2.04,22.06,12.91,44.23,25.64,68.49,39.68Zm-193-73.78c36.98,0,73.96,.13,110.94-.06,17.05-.09,23.31-6.55,23.36-23.15,.05-16.73,.05-33.47,0-50.2-.05-16.96-6.05-23.13-23.04-23.24-24.13-.15-48.27,0-72.4-.06-8.3-.02-16.96,.74-16.58,11.39,.38,10.4,9.13,10.84,17.34,10.8,20.63-.1,41.27,.36,61.89-.22,8.39-.24,12.07,1.48,11.28,10.74-.86,10.04-.86,20.28,0,30.32,.81,9.46-2.63,11.58-11.66,11.51-54.88-.41-109.77-.2-164.66-.2-70.85,0-141.69-.13-212.54,.18-8.09,.04-10.93-2-10.33-10.28,.72-10.07,.88-20.29-.03-30.32-.9-10,2.81-12.02,12.27-11.97,83.69,.38,167.38,.18,251.08,.27,8.24,0,15.68-1.71,15.82-11.21,.14-8.79-6.63-11.03-14.61-11.03-88.36,.09-176.73-.02-265.09,.14-14.94,.03-20.79,6.42-20.95,21.7-.18,16.34-.07,32.69-.03,49.03,.05,20.64,5.35,25.85,26.51,25.86,64.62,.03,129.24,.01,193.85,.01,29.19,0,58.39,0,87.58,0Zm55.68,445.02c5.54,18.64,11.28,37.23,16.53,55.95,2.02,7.2,5.98,12.25,13.41,12.34,7.93,.1,12.05-4.82,14.13-12.74,5.1-19.35,11.05-38.48,17.15-59.39,4.15,21.05,8.08,40.38,11.74,59.75,1.43,7.55,4.86,12.4,13.25,11.1,9.01-1.39,9.63-8.31,8.36-15.12-5.97-31.95-12.32-63.84-18.51-95.75-1.36-7.02-5.43-11.21-12.63-11.45-7.11-.23-11.72,3.3-13.38,10.44-.52,2.24-1.48,4.38-2.12,6.6-5.69,19.85-11.36,39.7-17.76,62.09-7.13-24.2-13.51-46.02-20-67.82-2.07-6.96-6.23-11.65-14.17-11.35-8.15,.31-11.67,5.99-12.95,12.78-5.8,30.82-11.37,61.69-16.65,92.61-1.16,6.79-2.25,14.89,7.48,16.83,9.67,1.93,12.81-4.17,14.22-12.6,3.03-18.08,6.57-36.07,9.9-54.09,.66-.06,1.33-.12,1.99-.19ZM182.09,414.31c-8.22-.03-15.4,1.44-15.42,11.36-.02,10.14,7.68,11.28,15.59,11.28,71.15,.01,142.31,0,213.46,.03,8.11,0,15.77-1.76,15.54-11.43-.22-9.19-7.21-11.35-15.7-11.29-35.77,.25-71.54,.11-107.31,.11-35.38,0-70.77,.07-106.15-.05Zm.06,70.11c-8.21-.03-15.41,1.46-15.47,11.34-.07,10.07,7.55,11.39,15.51,11.39,71.16,.01,142.32,0,213.49,.03,8.12,0,15.75-1.82,15.58-11.42-.16-9.18-7.1-11.45-15.61-11.39-35.38,.25-70.77,.11-106.16,.11-35.78,0-71.55,.07-107.33-.05Zm0-140.21c-8.19-.03-15.42,1.3-15.49,11.25-.06,10.19,7.64,11.24,15.55,11.24,71.15,0,142.3-.01,213.44,.02,8.07,0,15.81-1.54,15.6-11.28-.2-9.21-7.18-11.35-15.67-11.29-35.77,.26-71.54,.11-107.3,.11-35.38,0-70.76,.08-106.14-.06Zm.11-70.07c-8.14-.03-15.46,1.04-15.61,11.07-.15,10.19,7.55,11.41,15.44,11.41,71.15,.03,142.29,.02,213.44,.02,7.97,0,15.85-1.43,15.72-11.21-.12-9.25-7.03-11.41-15.56-11.34-35.38,.27-70.76,.11-106.14,.12-35.77,0-71.54,.08-107.3-.06Zm-25.2,401.06c18.64,35.01,68.05,44.12,92.92,17.21,5.14-5.56,7.2-11.32,1.55-17.4-5.37-5.76-10.68-4.16-16.24,.66-14.06,12.19-29.93,13.45-44.8,4.11-15.15-9.53-22.03-27.31-17.17-44.45,7.09-25.06,33.45-36.41,57.59-24.39,7.38,3.67,14.54,6.01,18.94-2.63,4.41-8.66-1.98-13.45-8.96-17.27-9.11-4.98-18.88-6.91-29.14-6.99-47.06,.13-76.77,49.66-54.68,91.15Zm112.45,19.13c-.13,7.37,2.66,12.78,9.94,13.2,12.75,.72,25.59,.56,38.34-.07,6.2-.31,9.91-5.27,9.36-11.24-.52-5.73-4.3-9.98-10.78-10.25-5.04-.21-10.15-.59-15.13-.02-8.11,.92-10.55-1.99-10.39-10.22,.52-26,.12-52.02,.22-78.02,.03-7.55-2.09-13.53-10.7-13.42-8.31,.1-10.96,5.64-10.85,13.4,.22,15.91,.07,31.83,.07,47.75,0,16.3,.2,32.61-.09,48.91Zm189.32-1.12c-.14,8.15,2.54,14.44,11.18,14.48,9.03,.05,10.68-6.76,10.63-14.65-.2-31.43-.15-62.86-.04-94.29,.03-7.75-1.3-14.61-10.81-14.45-9.21,.15-10.99,6.8-10.92,14.62,.14,15.91,.04,31.82,.04,47.73,0,15.52,.19,31.04-.08,46.56Zm212.77-342.61c2.27,65.74-36.99,100.73-81.58,122.38-5.72,2.78-11.13,2.53-16.7-.22-63-31.17-85.79-72.9-81.57-141.32,.44-7.12,4.25-12.1,10.47-15.68,23.19-13.32,46.27-26.85,69.41-40.27,6.98-4.05,13.91-3.9,20.92,.17,22.79,13.25,45.61,26.46,68.49,39.57,7.46,4.28,11.25,10.23,10.63,19.04-.38,5.41-.07,10.88-.07,16.32Zm-20.98-8.95c-.25-5.43-2.02-8.3-6.56-10.85-18.58-10.46-37.06-21.1-55.36-32.03-4.95-2.96-8.69-2.86-13.63,.16-14.21,8.71-28.29,17.88-43.36,24.85-14.81,6.85-21.93,16.14-17.68,30.01,.46,47.71,24.89,76.61,63.47,96.09,3.73,1.89,6.05,1.29,9.46-.37,45.09-21.93,66-57.9,63.66-107.86Zm-213.11,365.06c-7.84,3.43-13.75-.81-15.06-7.89-2.75-14.92-11.71-17.92-24.75-15.85-3.03,.48-6.29,.53-9.3,0-13.37-2.39-22.13,1.63-24.9,16.01-1.27,6.61-6.28,9.69-13.01,8.45-5.66-1.05-8.55-4.9-8.57-11.64,.77-2.53,1.57-5.91,2.81-9.13,11.45-29.93,23.09-59.79,34.39-89.77,2.66-7.05,5.86-12.77,14.4-12.7,7.99,.07,11.25,5.47,13.71,12.08,11.71,31.47,23.34,62.97,35.52,94.27,2.95,7.59,2.16,12.96-5.25,16.2Zm-30.95-49.71c-.09-.37-.31-.7-.44-1.06-4.05-10.57-8.09-21.14-12.98-33.94-4.73,12.42-8.46,22.31-12.3,32.16-.83,2.13-2.44,5.69-.05,5.93,8,.82,16.12,.52,24.19,.4,2.03-.03,1.96-1.91,1.59-3.49Zm132.38-294.04c-2.06,4.86-1.82,9.82,2.19,14.03,8.83,9.26,17.61,18.57,26.4,27.87,6.71,7.1,13.27,7.05,19.76-.31,12.58-14.25,25.12-28.54,37.82-42.67,5.35-5.95,6.01-11.97-.13-17.2-5.88-5.01-11.52-2.71-16.25,2.61-6.95,7.83-13.88,15.69-20.9,23.46-10.76,11.91-10.67,11.77-22.26,.05-5.05-5.1-8.69-12.21-16.62-13.2-4.51,.15-8.36,1.49-10.01,5.37Z"/>
</svg>