<?xml version="1.0" encoding="UTF-8"?>
<svg id="Layer_1" data-name="Layer 1" xmlns="http://www.w3.org/2000/svg" viewBox="0 0 800 800">
  <defs>
    <style>
      .cls-1 {
        fill: #020202;
      }

      .cls-2 {
        fill: none;
      }
    </style>
  </defs>
  <rect class="cls-2" width="800" height="800"/>
  <path class="cls-1" d="M101.38,63.4c24.38,25.31,27.38,53.59,27.27,83.65-.52,146.24-.25,292.48-.23,438.72,0,46.82,25.89,72.68,72.79,72.75,28.49,.04,56.97,0,85.46,.01,3.02,0,6.05-.05,9.06,.07,8.68,.36,14.04,4.62,13.79,13.57-.23,8.3-5.56,12.47-13.58,12.45-37.54-.1-75.21,1.46-112.6-1.11-46.46-3.18-80.75-42.93-80.79-90.12-.13-152.28-.04-304.56-.06-456.84,0-43.84-20.08-67.14-63.3-73-8.4-1.14-14.38-4.39-14.18-13.4,.24-10.77,7.85-13.03,17.04-13.02,52.66,.07,105.32,.03,157.98,.03,86.76,0,173.51-.14,260.27,.06,44.88,.1,77.29,22.81,90.97,62.95,3.08,9.02,4.56,18.3,4.56,27.84-.02,86.28-.07,172.56,.08,258.84,.02,9.55-1.39,18.4-12.77,18.5-12.33,.11-13.31-9.37-13.3-19.26,.13-83.69,.1-167.38,.07-251.07-.02-45.21-26.17-71.58-71.29-71.61-114.38-.08-228.76-.03-343.15-.03h-14.1Zm222.47,64.76c24.99-.01,49.97,.01,74.96-.07,8.58-.03,14.32-4.03,14.36-12.99,.04-8.92-5.58-12.97-14.2-13.17-2.15-.05-4.31-.05-6.46-.05-63.76,0-127.51-.01-191.27,.03-3.86,0-7.82-.03-11.56,.76-6.39,1.34-9.27,6.13-9.3,12.27-.03,6.13,2.79,10.97,9.15,12.39,3.73,.83,7.69,.79,11.55,.8,31.45,.06,62.89,.03,94.34,.03,9.48,0,18.95,0,28.43,0Zm283.54,238.68c19.77-19.84,39.62-39.62,59.43-59.42,29.87-29.86,59.79-59.67,89.56-89.62,8.74-8.79,8.93-17.57,.8-22.84-8.5-5.51-14.38-.61-20.22,5.24-49.02,49.11-98.12,98.14-147.17,147.22-2.12,2.12-4.42,4.22-5.96,6.74-5.22,8.55,.52,19.32,10.38,19.82,5.76,.14,9.46-3.41,13.18-7.14Zm-288.75-83.3c9.26,.05,16.8-2.53,16.79-13.19-.02-10.65-7.57-13.18-16.82-13.16-40.46,.08-80.91,.08-121.37,0-9.25-.02-16.8,2.52-16.79,13.19,.02,10.66,7.57,13.21,16.82,13.16,20.23-.11,40.46-.04,60.68-.04,20.23,0,40.46-.08,60.68,.03Zm143.55-.02c8.87,.03,15.6-3.12,15.73-12.93,.12-9.72-6.26-13.36-15.28-13.36-28.38,0-56.76,.02-85.14-.02-8.87-.01-15.6,3.11-15.73,12.93-.12,9.73,6.27,13.36,15.28,13.36,14.19,0,28.38,0,42.57,0,14.19,0,28.38-.03,42.57,.02Zm-77.5,64.72c8.95,.02,15.52-3.37,15.52-13.13,0-9.74-6.54-13.17-15.5-13.16-28.38,.03-56.76,.02-85.14,0-8.94,0-15.52,3.36-15.52,13.13,0,9.75,6.54,13.18,15.5,13.16,13.76-.03,27.52,0,41.28,0,14.62,0,29.24-.02,43.86,0Zm-188.73,103.16c-8.94-.02-15.52,3.35-15.53,13.13,0,9.75,6.53,13.17,15.49,13.17,28.38-.02,56.76-.02,85.14,0,8.95,0,15.52-3.37,15.53-13.13,0-9.74-6.53-13.19-15.49-13.17-13.76,.03-27.52,0-41.28,0-14.62,0-29.24,.02-43.86,0Zm72.41-271.45c8.99,0,15.35-3.59,15.29-13.34-.06-8.97-5.91-12.85-14.43-12.88-24.93-.06-49.87-.09-74.8,.03-8.61,.04-14.13,4.36-14.01,13.26,.12,8.96,5.91,12.83,14.43,12.88,12.04,.08,24.07,.02,36.11,.03,12.47,.01,24.93,.01,37.4,.01Zm-8.98,206.8c-8.6,.07-14.21,4.21-14.2,13.1,0,8.92,5.68,13.02,14.25,13.05,24.93,.08,49.86,.09,74.79,0,8.58-.03,14.21-4.17,14.2-13.1-.01-8.93-5.68-12.98-14.25-13.05-12.03-.11-24.07-.03-36.11-.03-12.9,0-25.79-.08-38.69,.03Zm202.65,26.24c8.83,.05,15.65-2.94,15.88-12.77,.23-9.69-6.03-13.52-15.09-13.52-24.5,0-49-.02-73.5,.03-8.48,.02-14.44,3.72-14.6,12.7-.17,9.71,6.04,13.51,15.1,13.52,12.04,.02,24.07,0,36.11,.01,12.04,0,24.07-.04,36.11,.02Zm-193.61,129.42c9.02,0,15.33-3.68,15.22-13.41-.1-8.95-5.97-12.8-14.49-12.82-24.93-.05-49.86-.09-74.79,.04-8.63,.04-14.1,4.43-13.94,13.32,.16,8.97,5.99,12.77,14.5,12.82,12.04,.07,24.07,.02,36.11,.03,12.47,.01,24.93,.01,37.4,0Zm68.63-90.93c-8.58,.09-14.2,4.21-14.17,13.12,.03,8.92,5.69,13,14.26,13.04,20.62,.09,41.25,.09,61.87,0,8.59-.04,14.2-4.22,14.17-13.12-.03-8.9-5.68-12.96-14.26-13.04-9.88-.1-19.76-.02-29.65-.02-10.74,0-21.48-.09-32.22,.03Zm-91.64-103.48c8.2-.38,12.6-5.38,12.34-13.46-.23-7.45-4.65-12.17-12.2-12.31-17.6-.32-35.21-.36-52.8,0-8.19,.17-12.6,5.35-12.34,13.44,.23,7.45,4.65,11.99,12.2,12.32,8.57,.37,17.17,.08,25.75,.09,9.02,0,18.05,.33,27.04-.09Zm206.27,.21c4.29,0,8.58,.14,12.86-.03,8-.33,13.17-4.35,13.39-12.54,.24-8.82-4.96-13.38-13.61-13.58-8.57-.2-17.16-.24-25.71,.16-7.55,.36-11.92,4.91-12.13,12.35-.22,8.06,4.17,12.84,12.34,13.47,4.26,.33,8.57,.06,12.85,.06,0,.04,0,.07,0,.11Zm-232.86,51.94c.26-12.39-9.07-13.6-18.85-13.56-9.53,.04-19.25,.45-19.48,12.94-.23,12.38,9.05,13.85,19.3,13.45,9.15,.39,18.78-.41,19.04-12.83Zm220.71,64.09c-.25,12.4,9.07,13.61,18.85,13.57,9.53-.04,19.25-.45,19.49-12.93,.24-12.37-9.03-13.87-18.81-13.48-9.58-.31-19.27,.37-19.52,12.84Zm284.92,200.98c.21,19.23-8.19,31.99-24.08,40.81-25.7,14.27-53.88,17.5-82.6,17.3-25.21-.18-49.81-4.03-73.87-15.67-2.43,29.07-23.52,39.88-46.73,46.51-41.17,11.75-82.68,11.71-123.41-2.73-29.96-10.63-38.11-22.96-38.11-54.87,0-35.35,.96-70.74-.34-106.05-.86-23.37,10.03-37.29,29.56-46.62,25.13-12,51.99-15.06,79.4-14.57,24.66,.45,48.69,4.46,72.7,15.98,0-22.08,.58-42.23-.18-62.33-.64-17.02,6.91-28.82,20.47-37.63,12.47-8.09,26.38-12.74,40.86-15.48,37.11-7.03,73.86-6.29,109.56,7.23,28.5,10.79,36.52,23.08,36.52,53.49,0,58.2-.41,116.41,.23,174.61Zm-362.19-83.62c.34,5.91,6.35,8.77,11.31,11.42,20.73,11.11,43.34,13.21,66.27,13.77,22.5-.66,44.7-2.78,64.99-13.73,5.23-2.82,11.85-5.7,11.45-12.55-.34-5.91-6.21-9.14-11.34-11.37-43.7-19.01-87.53-19.01-131.22-.04-5.41,2.35-11.86,5.66-11.47,12.5Zm26.42,82.71c30.81,9.01,62.06,9.96,93.25,1.92,34.08-8.78,36.51-12.36,34.5-48.36-51.91,20.34-103.08,20.07-154.21,.15-2.32,33.22,.54,38.71,26.47,46.29Zm127.2,18.58c-50.77,19.65-101.54,20.01-153.44-.22-3.21,33.67,.92,39.73,32.22,47.84,29.82,7.73,59.91,8.45,89.44-.26,37.72-11.12,34.35-14.92,31.78-47.36Zm27.69-205.1c.28,6.47,6.89,9.41,12.23,12.18,20.43,10.59,42.61,12.75,65.12,13.25,22.08-.52,43.84-2.72,63.91-12.95,5.67-2.89,12.93-5.85,12.79-13.08-.13-6.44-6.73-9.79-12.23-12.11-43.37-18.25-86.83-18.41-130.11,.32-5.45,2.36-11.99,5.71-11.7,12.39Zm10.74,76.05c44.7,20.28,89.43,18.59,133.94-.58,5.56-2.39,10.2-6.49,10.08-13.71-.14-8.1-.03-16.21-.03-25.49-52.09,20.61-103.3,20.28-155.41,.15,0,7.38,.54,13.81-.13,20.11-1.02,9.65,3.38,15.8,11.54,19.51Zm16.48,71.66c30.78,9.03,61.9,9.77,93.01,1.74,33.13-8.55,36.32-13.19,33.86-48.23-52.09,20.29-103.1,20.3-154.06-.09-2.5,33.38,.45,38.74,27.19,46.58Zm127.17,20.38c-.03-.39-.27-.76-.72-1.95-51.85,20.13-102.82,19.87-153.77-.23-2,35.86,.22,39.26,33.85,48.38,28.9,7.83,57.91,6.78,86.82-.37,32.47-8.03,35.97-12.76,33.83-45.84Zm-12.62-439.58c-.31,28.4-23.73,51.4-52.13,51.19-28.45-.21-51.47-23.41-51.46-51.86,.01-28.96,23.93-52.45,52.77-51.82,28.51,.62,51.12,23.98,50.81,52.49Zm-25.94-1.18c-.33-13.79-12.19-25.21-26.07-25.08-14,.12-25.59,11.65-25.64,25.51-.06,13.76,11.53,25.48,25.42,25.72,14.38,.25,26.63-11.93,26.29-26.15Zm116.61,143.26c-.16,28.43-23.38,51.51-51.82,51.5-28.42-.01-51.64-23.13-51.77-51.54-.13-29,23.58-52.56,52.46-52.13,28.51,.42,51.28,23.67,51.12,52.17Zm-25.94-.66c-.2-13.78-11.98-25.3-25.87-25.29-13.97,0-25.66,11.45-25.84,25.3-.18,13.75,11.31,25.57,25.21,25.93,14.35,.37,26.71-11.72,26.5-25.94Z"/>
</svg>