<?xml version="1.0" encoding="UTF-8"?>
<svg id="Layer_1" data-name="Layer 1" xmlns="http://www.w3.org/2000/svg" viewBox="0 0 800 800">
  <defs>
    <style>
      .cls-1 {
        fill: none;
      }

      .cls-2 {
        fill: #010101;
      }
    </style>
  </defs>
  <rect class="cls-1" width="800" height="800"/>
  <path class="cls-2" d="M757.28,693.57c-3.22-.88-6.8-.64-10.21-.64-39.65-.04-79.31-.38-118.96,.2-11.03,.16-13.25-1.73-9.48-12.83,7.02-20.7-4.43-35.48-26.17-35.86-7.24-.13-14.5-.26-21.73,.02-17.89,.7-29.83-8.78-42.09-24.39,34.67,0,66.21,.02,97.74,0,36.26-.03,55.38-19.31,55.42-55.89,.04-34.68,.32-69.37-.2-104.04-.14-9.48,2.42-16.25,9.32-22.96,23.22-22.58,45.78-45.82,68.48-68.93,7.28-7.41,9.69-16.11,5.64-26.12-4.06-10.02-12.03-14.31-22.25-15.13-4.17-.33-8.47-.63-12.56,.02-9.7,1.54-11.78-2.32-11.73-11.72,.4-83.08,.25-166.17,.22-249.25,0-22.58-9.17-31.62-31.95-31.66-19.83-.04-39.65-.05-59.48,0-23.29,.06-31.41,8.28-31.44,31.93-.04,35.06-.22,70.13,.15,105.19,.08,7.45-1.9,9.81-9.52,9.63-22.1-.5-44.23-.18-66.34-.18-91.51,0-183.02-.06-274.53,.03-32.19,.03-52.55,20.62-52.77,52.95-.05,7.24-.66,14.56,.16,21.71,1.02,8.98-2.57,10.97-10.87,10.53-12.93-.68-25.93-.45-38.88-.1-61.48,1.66-108.44,49.73-108.59,111.02-.07,27.06,.06,54.12-.03,81.18-.08,22.87,9.59,39.52,31,48.45,5.37,2.24,7.06,5.73,8.06,11.09,6.31,33.78,22.25,61.14,53.3,78.2,5.73,3.15,8.27,34.02,3.22,37.58-1.16,.81-2.88,.84-4.34,1.2-51.35,12.49-81.34,44.92-90.39,96.83-4.21,24.13,5.11,35.04,29.81,35.04,77.02,.02,154.04,.01,231.06,0,25.51,0,34.92-10.37,30.21-35.58-2.01-10.76-.13-13.31,10.98-13.27,135.74,.37,271.48,.25,407.22,.22,4.18,0,8.49,.22,12.51-.67,5.7-1.27,9.35-5.2,9.58-11.28,.25-6.61-3.47-10.83-9.57-12.5Zm-99.97-124.19c-.72,15.56-10.02,26.19-25.62,26.21-129.58,.14-259.16,.02-388.73-.04-.32,0-.64-.25-3.42-1.41,13.85-9.32,24.76-19.64,32.94-32.59,2.58-4.09,6.94-2.32,10.5-2.32,121.58-.09,243.15,.02,364.73-.28,8.58-.02,9.95,2.98,9.61,10.43Zm-142.83,74.64h-153.83c3.94-7.24,7.7-13.68,10.97-20.36,1.99-4.06,5.28-3.62,8.68-3.62,38.08,0,76.17,.08,114.25-.08,4.78-.02,7.57,1.24,9.61,5.9,2.55,5.82,6.25,11.15,10.32,18.17Zm-284.54-20.71c-.2-3.71,2.38-3.83,5.4-3.8,35.37,.3,70.74,.46,106.11,.71,.62,0,1.24,.67,3.04,1.72-8.62,11.85-18.89,20.78-33.7,22.33-13.56,1.42-27.46,1.4-40.89,1-12.66-.38-24.61-8.91-37.68-11.74-4.37-.95-2.1-6.65-2.29-10.22Zm417.74-88.38c-78.48-.24-156.97-.15-235.45-.15-39.24,0-78.49-.19-117.73,.16-7.75,.07-8.87-1.55-7.75-9.39,1.81-12.65,7.23-15.84,19.92-15.75,98.29,.63,196.59,.36,294.89,.34,23.38,0,30.61-7.24,30.68-30.6,.03-9.86,0-19.73,0-32.27,7.79,6.95,13.17,13.06,21.65,14.11,4.68,.58,3.19,4.55,3.21,7.25,.13,19.04-.34,38.1,.26,57.12,.25,7.86-2.57,9.21-9.69,9.19Zm-27.19-201.67c.02-87.27,.18-174.54-.23-261.81-.05-9.9,2.02-13.16,12.38-12.59,17.48,.97,35.07,.5,52.6,.14,6.27-.13,8.55,1.46,8.53,8.2-.22,83.84-.21,167.68,0,251.52,.02,6.51-1.83,8.67-8.34,8.3-8.74-.51-17.54-.29-26.3-.06-7.73,.21-13.41,3.33-13.66,12.04-.27,9.38,5.63,12.89,13.88,12.95,26.22,.18,52.43,.07,78.65,.07,.89,1.11,1.78,2.22,2.66,3.33-21.33,20.55-42.6,41.16-64.04,61.6-6.54,6.24-12.07,17.6-19.78,17.32-6.5-.24-12.62-10.86-18.89-16.91-21.32-20.56-42.64-41.13-63.95-61.69,.68-1.21,1.36-2.43,2.05-3.64,8.55,0,17.09,.04,25.64,0,15.31-.09,18.81-3.56,18.82-18.76Zm-24.49-69.05c-.54,17.5-.54,35.05,0,52.55,.24,7.64-1.33,11.47-9.81,10.24-4.1-.6-8.37-.14-12.56-.09-11.23,.15-19.98,4.41-24.53,15.24-4.41,10.5-1.12,19.3,6.42,26.96,15.5,15.74,30.89,31.59,46.69,47.03,4.75,4.65,6.76,9.39,6.56,16.02-.44,14.84-.42,29.71-.01,44.56,.18,6.67-1.4,9.35-8.77,9.33-89.93-.23-179.86-.17-269.78-.11-5.34,0-9.37,.02-5.89-7.33,3.13-6.62,3.27-13.95,3.24-21.25-.12-24-.04-47.99-.05-71.99,0-42.22-16.96-62.92-59.55-71.46,6.64-9.74,13.7-18.05,9.62-30.01-1.81-5.31-4.65-9.4-8.79-12.94-4.54-3.89-3.24-9.42-2.32-13.91,1.04-5.07,6.35-2.89,9.76-2.89,103.27-.11,206.53,0,309.8-.28,8.27-.02,10.21,2.58,9.97,10.34Zm-377.99-36.83c1.14-14.06,11.77-22.02,28.26-22.05,56.39-.08,112.78-.03,169.17-.03,56.77,0,113.55,.35,170.31-.31,10.97-.13,10.25,5.2,10.18,12.44-.06,7.08,1.1,12.61-10.06,12.56-103.25-.5-206.51-.3-309.76-.3-25.99,0-30.76,4.16-33.5,30.17-.45,4.29-1.92,7.1-6.02,5.93-6.28-1.8-16.64,6.12-18.49-5.37-1.73-10.76-.97-22.08-.08-33.06ZM59.38,393.01c.23-17.86-.86-35.79,7.58-52.46,14.94-29.52,38.42-47.62,71.74-48.93,36.55-1.44,73.2-.41,109.8-.41,.98,0,1.96,.58,3.4,1.04-7.62,14.76-16.16,26.94-35.45,22.68-2.54-.56-5.33,.03-7.99-.09-8.61-.42-14.83,3.68-15.11,12-.31,9.32,6.58,12.83,15.42,12.79,16.78-.08,33.56-.04,50.33-.01,33.91,.05,53.11,25.95,43.81,58.69-1.18,4.15-3.36,2.89-5.89,2.81-27.25-.88-41.43,11.95-42.85,38.56-.82,15.4-8.36,27.15-21.88,33.79-35.65,17.49-70.92,14.73-104.79-5-12.05-7.02-18.99-17.92-19.71-32.76-1.05-21.7-18.22-36.81-39.71-34.72-7.63,.74-8.79-1.1-8.7-7.97Zm37.83,118.27c-2.05-13.34-7.36-22.26-20.87-26.72-13.82-4.56-16.8-11.86-16.58-33.37,0-5.33-.49-10.72,.13-15.98,.71-5.98,4.85-9.42,10.79-9.9,6.1-.5,11.21,2.57,11.73,8.5,4.52,51.96,42.02,66.51,84.73,74.15,20.83,3.73,41.75,1.48,61.95-5.91,29.51-10.8,47.75-30.43,49.98-62.72,.54-7.8,2.92-13.96,11.58-13.9,9.02,.06,12.27,6.27,12.24,14.61-.03,6.48-.15,12.96,.03,19.44,.34,12.66-5.55,21.42-17.31,25.23-12.9,4.18-18.42,12.58-20.37,25.73-9.24,62.42-75.68,93.79-130.48,61.81-23.2-13.54-33.65-35.58-37.55-60.95Zm84.07,120.75c-4.93,0-9.91-.43-14.79,.1-7.84,.85-10.57-1.84-10.33-10.01,.46-15.52-.04-15.25,15.34-14.51,8.68,.42,17.47,.22,26.1-.71,5.81-.63,8.01,.13,8.2,6.65,.55,18.5,.87,18.49-24.53,18.49Zm112.01,110.01c-37.37-.33-74.75-.15-112.13-.15-37.38,0-74.76-.29-112.13,.21-8.85,.12-10.19-3.24-9.12-10.65,5.32-37.01,39.79-70.83,77.19-73.52,29.27-2.11,58.76-2.13,88.03,0,37.89,2.76,72.39,37.17,77.34,74.66,1.05,7.95-1.83,9.51-9.18,9.45Zm298.65-59.91c-4.75,7.15-11.54,10.76-20.26,10.76-83.47-.02-166.95-.02-250.42,.1-4.73,0-7.63-1.44-10.03-5.66-3.28-5.78-7.42-11.08-12.28-18.18,4.77,0,7.65,0,10.54,0,91.86,0,183.72-.03,275.58,.12,3.36,0,8.14-2.56,10.03,2.28,1.49,3.81-1.09,7.46-3.15,10.57Zm-142.8-337.37c0,17.88-.12,35.76,.06,53.64,.09,8.63-3.36,14.52-12.33,14.18-8.18-.32-11.39-6.01-11.36-14.12,.15-35.38,.14-70.76,.02-106.14-.03-8.28,3.58-13.46,11.84-13.52,8.36-.06,11.89,5.22,11.82,13.47-.16,17.5-.05,35-.04,52.5Zm-23.62,104.64c.06-9.84,4.46-14.36,12.56-14.01,8.38,.37,11.36,5.88,11.09,13.9-.27,7.93-4.58,12.17-11.92,12-7.97-.19-12.18-5.1-11.73-11.9Z"/>
</svg>