<?xml version="1.0" encoding="UTF-8"?>
<svg id="Layer_1" data-name="Layer 1" xmlns="http://www.w3.org/2000/svg" viewBox="0 0 14 14">
  <defs>
    <style>
      .cls-1 {
        fill: #393939;
      }

      .cls-2 {
        fill: none;
      }
    </style>
  </defs>
  <rect class="cls-2" width="14" height="14"/>
  <path class="cls-1" d="M12.6,6.27c-.02-.77-.52-1.18-1.11-1.28-.11-.02-.12-.09-.12-.17,0-.48-.11-.94-.27-1.39C10.32,1.22,7.8,.02,5.58,.77c-1.68,.56-2.95,2.16-3.01,4,0,.13-.04,.19-.18,.22-.59,.12-.95,.52-1.03,1.11-.07,.48,0,.97-.03,1.3,0,.56-.01,.98,0,1.4,.02,.73,.41,1.18,1.12,1.34,.3,.07,.6,.03,.9,.04,.34,0,.4-.06,.4-.39,0-1.42,0-2.84,0-4.25,0-.58,0-.58-.57-.59-.12,0-.14-.04-.14-.15,.02-.49,.12-.97,.33-1.42C4.59,.7,8.08,.2,9.99,2.44c.57,.67,.86,1.46,.91,2.34,0,.14-.03,.18-.16,.16-.04,0-.08,0-.12,0-.37,0-.42,.05-.43,.44,0,1.4,0,2.81,0,4.21,0,.57,0,.57,.58,.59,.1,0,.15,.02,.13,.13-.02,.13-.03,.25-.05,.38-.12,.74-.5,1.25-1.24,1.47-.33,.09-.67,.11-1.01,.16-.13,.02-.19,0-.19-.16,0-.3-.21-.48-.5-.48-.5,0-1.01,0-1.51,0-.29,0-.49,.2-.5,.49,0,.26,0,.52,0,.79,0,.3,.2,.49,.49,.5,.51,0,1.02,0,1.53,0,.21,0,.43-.09,.45-.3,.03-.35,.22-.37,.49-.36,.09,0,.17-.02,.26-.03,.59-.08,1.15-.22,1.59-.65,.48-.47,.63-1.08,.68-1.72,.01-.15,.02-.24,.21-.28,.58-.12,.96-.54,1-1.13,.07-.9,.04-1.81,.02-2.72Zm-9.38-.81c.12,.1,.04,.35,.04,.54,0,.52,0,1.05,0,1.57,0,.64,0,1.29,0,1.93,0,.17-.05,.21-.2,.2-.16-.01-.32-.01-.48-.03-.44-.06-.75-.35-.76-.8-.02-.87-.02-1.75,0-2.62,0-.48,.37-.8,.85-.82,.19,0,.43-.07,.55,.03Zm4.69,6.83c0,.18,0,.36,0,.54,0,.11-.03,.14-.14,.14-.42,0-.84,0-1.27,0-.1,0-.14-.02-.14-.13,0-.19,0-.38,0-.56,0-.09,.03-.11,.12-.11,.22,0,.44,0,.66,0,.21,0,.42,0,.62,0,.1,0,.15,.01,.14,.13Zm4.21-5.41c0,.67,0,1.34-.03,2.02-.01,.37-.22,.62-.58,.74-.25,.08-.5,.07-.76,.07-.13,0-.08-.1-.08-.16,0-.66,0-1.32,0-1.98,0-.65,0-1.29,0-1.93,0-.18,.05-.22,.21-.2,.18,.01,.36,0,.54,.04,.37,.08,.61,.33,.68,.7,.04,.23,.02,.47,.02,.7Z"/>
</svg>