<?xml version="1.0" encoding="UTF-8"?>
<svg id="Layer_1" data-name="Layer 1" xmlns="http://www.w3.org/2000/svg" viewBox="0 0 14 14">
  <defs>
    <style>
      .cls-1 {
        fill: #393939;
      }

      .cls-2 {
        fill: none;
      }
    </style>
  </defs>
  <rect class="cls-2" width="14" height="14"/>
  <path class="cls-1" d="M6.59,4.47c0-.52,0-1.05,0-1.57-.02-1.14-.92-2.02-2.06-2.03-.53,0-1.06,0-1.6,0-1.17,0-2.07,.9-2.08,2.07,0,.52,0,1.03,0,1.55,0,1.2,.89,2.1,2.1,2.11,1.04,0,2.08,0,3.13,0,.36,0,.51-.16,.51-.51,0-.54,0-1.08,0-1.62h0Zm-.82,1.51c-.96,0-1.92,0-2.89,0-.85,0-1.4-.56-1.41-1.41,0-.55,0-1.1,0-1.66,0-.87,.56-1.41,1.43-1.41,.56,0,1.12,0,1.68,0,.79,0,1.35,.55,1.37,1.35,.01,.49,0,.98,0,1.47h0c0,.49,0,.98,0,1.47,0,.15-.03,.21-.19,.21Zm1.63-1.51c0,.54,0,1.08,0,1.62,0,.36,.16,.51,.51,.51,1.04,0,2.08,0,3.13,0,1.21,0,2.09-.9,2.1-2.11,0-.52,0-1.04,0-1.55,0-1.18-.91-2.07-2.08-2.07-.53,0-1.06,0-1.6,0-1.14,0-2.04,.89-2.06,2.03,0,.52,0,1.05,0,1.57h0Zm.62,1.3c0-.49,0-.98,0-1.47h0c0-.49-.01-.98,0-1.47,.02-.8,.58-1.34,1.37-1.35,.56,0,1.12,0,1.68,0,.87,0,1.42,.55,1.43,1.41,0,.55,0,1.1,0,1.66,0,.85-.55,1.41-1.41,1.41-.96,0-1.92,0-2.89,0-.16,0-.2-.06-.19-.21Zm-.62,3.77c0,.52,0,1.05,0,1.57,.02,1.14,.92,2.02,2.06,2.03,.53,0,1.06,0,1.6,0,1.17,0,2.07-.9,2.08-2.07,0-.52,0-1.03,0-1.55,0-1.2-.89-2.1-2.1-2.11-1.04,0-2.08,0-3.13,0-.36,0-.51,.16-.51,.51,0,.54,0,1.08,0,1.62h0Zm.82-1.51c.96,0,1.92,0,2.89,0,.85,0,1.4,.56,1.41,1.41,0,.55,0,1.1,0,1.66,0,.87-.56,1.41-1.43,1.41-.56,0-1.12,0-1.68,0-.79,0-1.35-.55-1.37-1.35-.01-.49,0-.98,0-1.47h0c0-.49,0-.98,0-1.47,0-.15,.03-.21,.19-.21Zm-1.63,1.51c0-.54,0-1.08,0-1.62,0-.36-.16-.51-.51-.51-1.04,0-2.08,0-3.13,0-1.21,0-2.09,.9-2.1,2.11,0,.52,0,1.04,0,1.55,0,1.18,.91,2.07,2.08,2.07,.53,0,1.06,0,1.6,0,1.14,0,2.04-.89,2.06-2.03,0-.52,0-1.05,0-1.57h0Zm-.62-1.3c0,.49,0,.98,0,1.47h0c0,.49,.01,.98,0,1.47-.02,.8-.58,1.34-1.37,1.35-.56,0-1.12,0-1.68,0-.87,0-1.42-.55-1.43-1.41,0-.55,0-1.1,0-1.66,0-.85,.55-1.41,1.41-1.41,.96,0,1.92,0,2.89,0,.16,0,.2,.06,.19,.21Z"/>
</svg>