<?xml version="1.0" encoding="UTF-8"?>
<svg id="Layer_1" data-name="Layer 1" xmlns="http://www.w3.org/2000/svg" viewBox="0 0 14 14">
  <defs>
    <style>
      .cls-1 {
        fill: #393939;
      }

      .cls-2 {
        fill: none;
      }
    </style>
  </defs>
  <rect class="cls-2" width="14" height="14"/>
  <path class="cls-1" d="M9.42,3.7c-.9-.81-1.8-1.64-2.69-2.46-.32-.29-.69-.44-1.12-.44-.96,0-1.92,.03-2.88,0-.91-.03-1.64,.65-1.62,1.61,.03,1.48,0,2.95,0,4.43,0,1.5,.02,3,0,4.49-.02,.88,.67,1.61,1.58,1.58,.83-.03,1.65,0,2.48,0,.38,0,.37,0,.39-.38,0-.19-.06-.21-.22-.21-.88,0-1.77,0-2.65,0-.6,0-.97-.37-.97-.96,0-3,0-6.01,0-9.01,0-.57,.36-.95,.93-.95,1-.01,1.99,0,2.99,0,.17,0,.21,.06,.21,.22-.01,.48,0,.96,0,1.44,0,.98,.63,1.6,1.61,1.6,.57,0,1.14,0,1.7,0,.18,0,.23,.05,.23,.22,0,.37,.02,.37,.39,.37,.03,0,.06,0,.09,0,.1,.01,.12-.03,.13-.12,.02-.55-.13-1.02-.56-1.4Zm-2.24,.32c-.36-.01-.7-.36-.72-.72-.03-.49,0-.98,0-1.52,.83,.76,1.62,1.49,2.45,2.25-.61,0-1.17,.02-1.72,0Zm2.21,2.09c-1.95,0-3.53,1.57-3.55,3.53-.02,1.95,1.59,3.55,3.55,3.55,1.96,0,3.53-1.58,3.53-3.54,0-1.96-1.58-3.54-3.53-3.54Zm0,6.49c-1.77,0-2.96-1.45-2.94-2.95-.02-1.5,1.17-2.95,2.94-2.95,1.75,0,2.95,1.41,2.95,2.95,0,1.53-1.2,2.95-2.95,2.95Zm-.89-2.64c-.05,0-.1,0-.15,0-.46,0-.45,0-.44-.46,0-.11,.03-.15,.15-.15,.29,0,.57,0,.86,0,.15,0,.18-.05,.18-.19,0-.28,0-.56,0-.84,0-.1,.02-.14,.13-.15,.46-.02,.45-.03,.46,.43,0,.24-.11,.56,.05,.7,.13,.12,.45,.03,.68,.04,.01,0,.03,0,.04,0,.45,0,.48,.05,.42,.5-.02,.11-.08,.1-.15,.1-.29,0-.57,0-.86,0-.15,0-.19,.05-.18,.19,.01,.28,0,.56,0,.84,0,.12-.04,.14-.15,.15-.44,0-.44,.01-.44-.43,0-.04,0-.09,0-.13-.01-.2,.09-.46-.04-.57-.11-.09-.36-.02-.55-.02,0,0,0-.01,0-.02Z"/>
</svg>