<?xml version="1.0" encoding="UTF-8"?>
<svg id="Layer_1" data-name="Layer 1" xmlns="http://www.w3.org/2000/svg" viewBox="0 0 14 14">
  <defs>
    <style>
      .cls-1 {
        fill: #393939;
      }

      .cls-2 {
        fill: none;
      }
    </style>
  </defs>
  <rect class="cls-2" width="14" height="14"/>
  <path class="cls-1" d="M7.07,3.73c-.69,0-1.39,0-2.08,0-.06,0-.13,.02-.17,0,0,0,0,0,0,0-.14-.09-.14-.29,0-.38,0,0,0,0,0,0,.03-.02,.1,0,.14,0,1.4,0,2.8,0,4.2,0,.02,0,.04,0,.06,0,.15,0,.3,.02,.3,.2,0,.18-.16,.2-.3,.2-.72,0-1.44,0-2.16,0Zm2.19,.89c.14,0,.28-.02,.28-.2,0-.17-.14-.19-.28-.2-.02,0-.04,0-.06,0-1.38,0-2.76,0-4.14,0-.07,0-.15,0-.2,.02-.06,.04-.13,.12-.13,.18,0,.06,.07,.14,.13,.18,.05,.03,.13,.02,.2,.02,.69,0,1.38,0,2.07,0,.71,0,1.42,0,2.13,0ZM5.07,2.45c-.15,0-.36-.03-.36,.19,0,.23,.21,.19,.36,.19,1.37,0,2.74,0,4.1,0,.07,0,.15,.01,.2-.02,.07-.04,.15-.12,.15-.18,0-.06-.09-.14-.15-.18-.04-.03-.11,0-.16,0-.7,0-1.4,0-2.09,0-.68,0-1.37,0-2.05,0Zm.45,2.67c-.19,0-.38,0-.57,0-.13,0-.24,.05-.24,.19,0,.15,.11,.19,.24,.19,.04,0,.08,0,.12,0,1.37,0,2.73,0,4.1,0,.07,0,.15,.02,.2-.01,.07-.04,.15-.12,.15-.18,0-.06-.09-.14-.15-.18-.04-.03-.12,0-.18,0-.69,0-1.38,0-2.07,0-.53,0-1.07,0-1.6,0Zm1.26,6c-.09-.09-.21-.12-.28,0-.04,.07-.01,.2,.02,.29,.03,.07,.11,.12,.16,.18,.16,.16,.24,.16,.4,.01,.2-.19,.4-.39,.6-.59,.11-.1,.2-.22,.06-.35-.12-.12-.24-.04-.34,.07-.16,.17-.31,.35-.47,.53-.1-.08-.13-.11-.16-.14Zm6.83-1.39v2.92c-.12,.04-.25,.13-.37,.13-1.01,.01-2.01,0-3.02,0-.31,0-.44-.13-.44-.44,0-.77,0-1.53,0-2.3,0-.3,.14-.43,.44-.44,.38,0,.77,0,1.15,0,.12,0,.17-.04,.17-.17,0-.34,0-.68,0-1.03,0-.1-.02-.17-.14-.17-1.33,0-2.66,0-3.98,0-.02,0-.04,.01-.07,.02v1.33c.35,0,.7,0,1.05,0,.64,0,.7,.06,.7,.7s0,1.31,0,1.97c0,.38-.12,.5-.51,.5-.31,0-.63,0-.94,0-.14,0-.26-.04-.25-.2,0-.14,.12-.19,.25-.19,.29,0,.58,0,.86,0,.14,0,.21-.03,.21-.19,0-.67,0-1.34,0-2.01,0-.15-.05-.19-.19-.19-.92,0-1.85,0-2.77,0-.14,0-.19,.05-.19,.19,0,.67,0,1.34,0,2.01,0,.14,.05,.19,.19,.19,.29,0,.58,0,.86,0,.14,0,.26,.04,.26,.19,0,.16-.12,.2-.26,.2-.34,0-.68,0-1.03,0-.27,0-.41-.14-.42-.4,0-.79,0-1.57,0-2.36,0-.28,.16-.41,.46-.41,.42,0,.85,0,1.29,0v-1.34c-.06,0-.13-.01-.19-.01-1.26,0-2.52,0-3.78,0-.19,0-.23,.06-.23,.23,.01,.3,.01,.6,0,.9,0,.19,.06,.23,.24,.23,.35-.01,.7,0,1.05,0,.35,0,.48,.13,.48,.48,0,.74,0,1.48,0,2.22,0,.36-.13,.47-.49,.47-.98,0-1.96,0-2.94,0-.22,0-.39-.06-.49-.26v-2.67c.12-.19,.3-.26,.52-.25,.35,0,.7,0,1.05,0,.16,0,.2-.05,.2-.2,0-.34,0-.67,0-1.01,0-.44,.12-.55,.54-.55,1.27,0,2.53,0,3.8,0h.25v-1.11c-.09,0-.17,0-.25,0-.77,0-1.55,0-2.32,0-.49,0-.67-.18-.67-.67,0-1.39,0-2.78,0-4.17,0-.49,.19-.68,.67-.68,1.86,0,3.71,0,5.57,0,.48,0,.67,.19,.67,.67,0,.53,0,1.07,0,1.6,0,.13-.06,.22-.19,.22-.13,0-.19-.08-.19-.21,0-.05,0-.11,0-.16,0-.47,0-.93,0-1.4,0-.31-.02-.33-.32-.33-1.83,0-3.66,0-5.48,0-.3,0-.32,.02-.32,.31,0,1.37,0,2.74,0,4.11,0,.29,.04,.32,.32,.32,1.83,0,3.67,0,5.5,0,.27,0,.31-.04,.31-.31,0-.47,0-.94,0-1.42,0-.06,0-.12,0-.18,0-.12,.07-.22,.18-.19,.08,.02,.19,.12,.19,.19,.01,.61,.02,1.22,0,1.83,0,.3-.24,.47-.59,.47-.75,0-1.51,0-2.26,0-.12,0-.24,0-.38,0v1.11h.25c1.27,0,2.55,0,3.82,0,.4,0,.53,.12,.53,.53,0,.33,0,.66,0,.99,0,.18,.04,.26,.24,.25,.34-.02,.69-.02,1.03,0,.14,0,.28,.08,.42,.12Zm-12.66,.29c0,.07-.01,.13-.01,.19,0,.66,0,1.31,0,1.97,0,.18,.06,.22,.22,.22,.9,0,1.81,0,2.71,0,.07,0,.13,0,.21-.01v-2.36H.95Zm12.36,2.19c0-.53,0-1.05,0-1.58,0-.2,0-.39,0-.6h-3.14v2.34s.06,.02,.08,.02c.97,0,1.94,0,2.92,0,.15,0,.14-.09,.14-.19Zm-1.91-1.08c-.09-.08-.19-.12-.29-.02-.1,.1-.07,.21,.02,.31,.06,.06,.11,.12,.17,.18,.13,.14,.25,.14,.38,0,.2-.2,.41-.4,.62-.6,.1-.1,.19-.21,.06-.33-.12-.12-.24-.05-.34,.05-.17,.17-.34,.33-.52,.5-.05-.04-.08-.06-.11-.09Zm-9.24-.01c-.1-.08-.22-.11-.28,0-.04,.07-.02,.19,.02,.27,.05,.09,.14,.16,.22,.24,.09,.09,.2,.1,.29,.01,.24-.23,.48-.46,.72-.7,.09-.09,.1-.2,0-.29-.11-.09-.22-.04-.31,.05-.18,.17-.35,.34-.53,.52-.05-.04-.09-.07-.12-.1Z"/>
</svg>