<?xml version="1.0" encoding="UTF-8"?>
<svg id="Layer_1" data-name="Layer 1" xmlns="http://www.w3.org/2000/svg" viewBox="0 0 14 14">
  <defs>
    <style>
      .cls-1 {
        fill: #393939;
      }

      .cls-2 {
        fill: none;
      }
    </style>
  </defs>
  <rect class="cls-2" width="14" height="14"/>
  <path class="cls-1" d="M13.4,6.52c0-.48-.31-.78-.79-.78-.45,0-.89,0-1.34,0-.15,0-.19-.03-.19-.19,0-1.09,0-2.18,0-3.28,0-.6-.28-.88-.88-.88-2.13,0-4.26,0-6.39,0-.59,0-.88,.29-.89,.88,0,.64,0,1.28,0,1.92,0,.17-.05,.21-.21,.2-.43-.01-.85,0-1.28,0-.53,0-.83,.3-.83,.83,0,1.48,0,2.96,0,4.43,0,.52,.31,.83,.84,.83,.65,0,1.3,0,1.96,0,.12,0,.21,.03,.3,.12,.25,.26,.5,.51,.76,.76,.17,.16,.28,.16,.45,0,.1-.1,.2-.21,.31-.34,.22,.71,.35,.8,1.07,.8,.58,0,1.16,0,1.74,0,.14,0,.24,.03,.33,.14,.24,.26,.49,.5,.75,.75,.16,.16,.29,.15,.45,0,.22-.22,.46-.43,.66-.67,.15-.17,.32-.23,.54-.22,.62,.01,1.24,.01,1.86,0,.49,0,.78-.31,.78-.79,0-1.5,0-3.01,0-4.51ZM3.44,2.25c0-.29,.07-.36,.37-.36,2.13,0,4.26,0,6.39,0,.3,0,.37,.07,.37,.36,0,.73,0,1.46,0,2.2,0,.72,0,1.44,0,2.16,0,.32-.07,.38-.39,.38-.69,0-1.37,0-2.06,0-.16,0-.28,.05-.39,.16-.21,.22-.42,.42-.63,.64-.07,.08-.12,.07-.19,0-.21-.22-.43-.42-.63-.64-.11-.12-.23-.16-.39-.16-.69,0-1.37,0-2.06,0-.32,0-.39-.07-.39-.38,0-1.45,0-2.9,0-4.35Zm1.96,7.9c-.19,.21-.4,.39-.59,.6-.09,.1-.15,.11-.25,0-.19-.21-.4-.39-.59-.6-.12-.14-.26-.18-.44-.18-.67,0-1.34,0-2.02,0-.33,0-.4-.07-.4-.4,0-.72,0-1.44,0-2.16,0-.73,0-1.45,0-2.18,0-.3,.07-.37,.36-.37,.43,0,.85,0,1.28,0,.15,0,.17,.05,.17,.18,0,.52,0,1.04,0,1.56,0,.56,.31,.86,.87,.86,.65,0,1.29,0,1.94,0,.12,0,.21,.04,.3,.12,.23,.24,.46,.46,.69,.69,.25,.25,.33,.25,.58,0,.25-.24,.49-.49,.73-.73,.05-.05,.1-.11,.17-.08,.09,.03,.05,.11,.05,.17,0,.66,0,1.32,0,1.98,0,.27-.07,.34-.34,.34-.69,0-1.38,0-2.08,0-.17,0-.3,.04-.42,.17Zm7.5-1.36c0,.71,0,1.41,0,2.12,0,.37-.06,.42-.43,.42-.68,0-1.36,0-2.04,0-.14,0-.25,.04-.35,.15-.21,.22-.43,.42-.63,.64-.09,.1-.15,.09-.23,0-.19-.2-.4-.39-.59-.6-.12-.13-.26-.19-.44-.18-.69,0-1.37,0-2.06,0-.29,0-.36-.07-.36-.37q0-.48,.47-.48c.56,0,1.12,0,1.68,0,.55,0,.85-.31,.85-.86,0-.65,0-1.3,0-1.96,0-.15,.04-.19,.19-.19,.43,.01,.87,0,1.3,0,.53,0,.83-.3,.83-.83q0-.42,.42-.42c.35,0,.69,0,1.04,0,.28,0,.36,.08,.36,.36,0,.73,0,1.46,0,2.2ZM7.02,3.29c-.73,0-1.46,0-2.19,0-.06,0-.12,0-.18,0-.13-.03-.21-.11-.2-.26,0-.13,.08-.21,.21-.23,.05,0,.09,0,.14,0,1.48,0,2.95,0,4.43,0,.04,0,.08,0,.12,0,.15,.01,.23,.1,.23,.25,0,.15-.09,.24-.24,.24-.24,0-.48,0-.72,0-.53,0-1.06,0-1.6,0Zm.6,2.8c-.56,0-1.12,0-1.68,0-.17,0-.28-.09-.28-.25,0-.16,.11-.25,.28-.25,.05,0,.11,0,.16,0,.61,0,1.21,0,1.82,0,.45,0,.91,0,1.36,0,.23,0,.35,.14,.29,.32-.05,.14-.16,.17-.3,.17-.55,0-1.09,0-1.64,0Zm-1.24-1.4c-.55,0-1.09,0-1.64,0-.17,0-.29-.06-.3-.24-.01-.15,.09-.25,.29-.25,.42,0,.84,0,1.26,0,.67,0,1.34,0,2.02,0,.15,0,.29,.02,.32,.2,.03,.18-.07,.29-.28,.29-.55,0-1.11,0-1.66,0Zm-1.72,1.4c-.13-.02-.23-.09-.23-.25,0-.16,.1-.24,.26-.24,.14,0,.26,.11,.26,.25,0,.13-.12,.25-.29,.24Zm4.68-1.89c.14,.01,.22,.09,.23,.24,0,.14-.11,.26-.25,.25-.15-.01-.23-.1-.24-.24,0-.14,.11-.25,.26-.25Z"/>
</svg>