<?xml version="1.0" encoding="UTF-8"?>
<svg id="Layer_1" data-name="Layer 1" xmlns="http://www.w3.org/2000/svg" viewBox="0 0 800 800">
  <defs>
    <style>
      .cls-1 {
        fill: none;
      }

      .cls-2 {
        fill: #010101;
      }
    </style>
  </defs>
  <rect class="cls-1" width="800" height="800"/>
  <path class="cls-2" d="M751.8,563.56c-9.14-1.89-18.19-4.48-27.41-5.58-6.86-.81-9.17-4.55-12.37-10.01-6.15-10.48-4.02-18.6,3.03-27.22,4.41-5.39,7.72-11.67,11.66-17.45,4.43-6.5,3.69-12.4-1.72-17.86-7.39-7.46-14.87-14.85-22.25-22.32-5.8-5.87-11.96-6.51-18.84-1.83-7.39,5.03-15.22,9.48-22.3,14.9-5.72,4.38-10.4,3.58-17,1.49-11.06-3.5-15.38-10.14-16.23-21.02-.54-6.92-2.63-13.73-4.11-20.57-1.61-7.45-5.99-11.52-13.91-11.31-4.28,.11-8.56,0-12.84,0-23.38,0-21.35-.22-23.93-23.88-2.82-25.88,4.71-42.33,29.49-52.05,12.6-4.94,13.17-11.31,6.28-23.34-11.01-19.24-22.32-38.31-33.17-57.63-3.57-6.36-8.26-10.91-14.58-14.52-32.43-18.49-64.59-37.46-97.12-55.79-6.67-3.76-9.12-7.97-8.9-15.61,.57-19.44-.04-38.91,.29-58.36,.15-8.66-2.66-14.58-10.48-19.02-36.52-20.74-72.85-41.81-109.14-62.95-6.74-3.93-12.71-4.21-19.62-.18-36.59,21.38-73.28,42.61-110.12,63.57-7.38,4.2-10.18,9.67-10.01,17.99,.39,19.06-.38,38.15,.34,57.19,.34,8.92-2.37,13.92-10.31,18.34-32.27,17.98-64.09,36.75-96.11,55.18-4.75,2.74-9.14,5.58-12.01,10.63-12.09,21.31-24.44,42.47-36.7,63.68-5.14,8.89-2.82,15.42,6.03,20.26,7.84,4.29,15.31,9.31,23.3,13.29,6.1,3.04,7.99,7.18,7.9,13.86-.35,26.46-.15,52.92-.15,79.38,0,26.07,.35,52.15-.18,78.21-.2,9.77,3.16,15.62,11.72,20.52,74.59,42.68,149.04,85.61,223.29,128.88,9.37,5.46,16.75,5.11,25.83-.31,30.39-18.12,61.18-35.58,91.83-53.27,15.96-9.21,39.47-1.27,47.2,15.07,3.12,6.6,2.71,11.33-1.55,16.95-5.16,6.8-9.36,14.32-14.27,21.32-5.01,7.16-4.85,13.58,1.53,19.8,7.24,7.06,14.42,14.19,21.46,21.46,6.22,6.42,12.6,6.59,19.77,1.6,7.66-5.33,15.66-10.17,23.3-15.54,4.18-2.94,7.6-3.17,12.75-1.4,10.74,3.68,16.47,8.83,18.91,21.25,6.77,34.47-.78,33.01,40.59,32.77,20.31-.12,20.52-.17,24.71-19.51,1.32-6.08,2.85-12.14,3.63-18.29,.88-6.98,4.7-10.22,10.88-13.39,9.91-5.07,17.81-4.64,26.2,2.73,5.21,4.58,11.63,7.75,17.39,11.73,6.8,4.7,12.9,4.33,18.76-1.7,7.32-7.54,14.74-14.98,22.26-22.3,6.11-5.95,5.98-12.06,1.39-18.79-5.48-8.03-10.73-16.22-16.08-24.34-1.91-2.91-3.75-5.44-2.18-9.56,4.42-11.63,8.97-22.15,24.54-21.55,6.02,.23,12.13-2.5,18.24-3.63,8.09-1.5,12.3-6.09,12.28-14.41-.02-10.51,0-21.01,0-31.52,0-7.67-3.52-12.48-11.2-14.07Zm-190.36-273.94c6.75,12.25,13.66,24.44,20.98,36.36,3.18,5.18,1.33,7.3-3.17,9.89-67.39,38.79-134.7,77.7-202.04,116.58-1.67,.96-3.4,1.81-4.83,2.57-3.94,0-4.51-3.12-5.79-5.32-6.87-11.74-13.32-23.75-20.6-35.23-3.61-5.69-1.51-7.86,3.33-10.64,67.4-38.77,134.74-77.63,202-116.64,4.76-2.76,7.4-2.52,10.13,2.44Zm-129.39-90.51c-.3,15.83,5.77,34.49-2.36,46.69-7.76,11.64-25.37,16.78-38.76,24.6-17,9.93-34.11,19.68-53.17,30.66,0-13.79,0-25.69,0-37.58,0-20.98,0-41.96,0-62.95,0-3.83-.57-7.69,3.75-10.17,29.53-16.94,58.99-34,90.61-52.26,0,21.87,.29,41.45-.09,61.02Zm-110.23-133.28c3.62-2.11,6.32-1.47,9.61,.44,28.84,16.73,57.75,33.34,87.37,50.41-3.91,5.11-9.06,6.88-13.52,9.48-23.83,13.87-47.69,27.67-71.58,41.41-3.52,2.02-6.6,4.94-11.58,2.02-29.08-17.08-58.35-33.84-89.86-52.03,31.17-17.97,60.41-34.76,89.55-51.74Zm-93.86,76.47c26.82,15.67,53.76,31.15,80.7,46.63,3.22,1.85,5.51,3.9,5.5,8.06-.08,33.75-.05,67.49-.05,103.72-31.1-17.95-59.92-34.67-88.85-51.18-3.99-2.28-5.06-5.23-5.05-9.49,.11-31.09,.2-62.18-.05-93.27-.06-7.3,1.94-7.89,7.8-4.46ZM79.36,339.36c-14.91-8.64-13.53-5.59-5.13-20.36,5.57-9.8,11.57-19.37,16.83-29.33,2.74-5.19,5.35-5.28,10.04-2.56,67.59,39.19,135.27,78.24,202.91,117.36,2.18,1.26,5.35,1.99,4.57,6.03-4.11,7.17-8.38,14.58-12.63,21.99q-13.73,24-37.81,10.05c-59.59-34.4-119.25-68.68-178.78-103.17Zm234.2,315.49c-12.56-7.21-23.88-13.67-35.18-20.19-55.57-32.05-111.07-64.24-166.79-96.01-7.02-4-9.43-8.51-9.35-16.52,.4-43.18,.17-86.37,.2-129.56,0-12.51,.08-12.54,10.7-6.41,53.55,30.89,107.08,61.8,160.63,92.69,14.49,8.36,18.44,7.29,26.89-7.25,3.62-6.23,7.19-12.5,10.78-18.75,.71,.3,1.41,.59,2.12,.89v201.1Zm6.61-268.15c-66.81-38.96-133.83-77.55-200.77-116.29-1.26-.73-2.28-1.88-4.3-3.59,26.88-15.53,52.99-30.61,81.55-47.11,0,11.07,.33,20.09-.1,29.08-.38,7.96,2.83,13.1,9.66,17,36.78,21.02,73.5,42.14,110.07,63.53,7.36,4.3,13.62,3.74,20.68-.37,35.58-20.76,71.18-41.51,107.06-61.75,8.56-4.83,12.47-10.82,11.86-20.55-.51-8.09-.1-16.24-.1-26.97,27.96,16.11,54.34,31.3,80.58,46.42-.57,4.43-4.14,4.92-6.6,6.34-64.91,37.58-129.88,75.07-194.83,112.59-4.7,2.71-8.62,5.24-14.75,1.66Zm105.77,206.88c.04,8.55-2.69,13.19-10.11,17.29-25.48,14.08-50.55,28.91-77.08,44.21v-206.02c5.59,9.59,9.77,16.86,14.05,24.08,7.41,12.54,11.95,13.81,24.49,6.58,53.55-30.87,107.07-61.8,160.61-92.69q12.55-7.24,12.59,6.78c.01,24.12,.09,48.24-.03,72.36-.06,11.05-11.37,17.3-20.83,11.47-8.6-5.3-16.96-11.01-25.38-16.6-6.45-4.28-12.35-3.81-17.85,1.74-7.67,7.74-15.4,15.4-23.07,23.13-5.13,5.17-5.56,10.88-1.64,16.91,5.29,8.16,10.72,16.22,15.95,24.41,6.63,10.38-1.05,28.12-13.06,30.51-4.19,.83-8.3,2.12-12.52,2.78-32.36,5.12-26.19,8.5-26.09,33.06Zm307.29,9.5c-27.99-.5-42.26,14.66-49.47,40.3-2.22,7.89-3.37,13.77,1.63,20.45,4.42,5.91,8,12.44,12.36,18.39,3.63,4.95,4.92,8.67-.43,13.86-4.97,4.82-9.26,5.88-13.65,.88-21.49-24.48-44.24-12.45-66.92-2.61-4.7,2.04-6.52,6.33-7.41,11.18-1.47,8.03-3.33,15.99-4.65,24.05-.91,5.55-2.41,9.17-9.36,9.14-6.49-.02-10.08-1.47-11.12-8.46-1.25-8.44-3.19-16.81-5.3-25.09-3.28-12.85-42.63-28.42-53.83-21.38-6.92,4.34-13.81,8.76-20.39,13.59-4.87,3.57-8.38,3.89-12.85-.99-3.91-4.27-6.73-8.08-1.73-12.67,22.57-20.67,15.35-42.93,4.23-65.76-2.67-5.49-6.35-8.49-12.17-9.54-8.42-1.52-16.76-3.48-25.2-4.82-5.64-.89-7.86-3.49-7.78-9.32,.08-5.61,.44-10.59,7.41-10.56,27.55,.1,41.11-15.58,48.25-40.36,2.1-7.3,3.76-12.97-.99-19.48-5.04-6.91-9.62-14.16-14.2-21.39-3.35-5.29,2.08-15.97,9.11-16.51,.98,.56,2.94,1.2,4.23,2.5,19.03,19.28,39.47,20.03,62.41,6.64,6.76-3.94,12.78-6.41,14.02-15.02,1.11-7.68,3.39-15.18,4.64-22.85,1.03-6.35,3.56-9.15,10.65-9.1,7.42,.05,9.51,3.56,10.02,9.74,1.74,20.96,8.08,36.03,32.08,42.99,14.41,4.18,24.43,6.17,35.7-3.73,3.76-3.31,8.59-5.37,12.55-8.49,4.95-3.89,8.16-1.86,11.82,2,3.45,3.63,6.42,6.46,2.22,11.72-4.11,5.14-7.36,10.97-10.99,16.5-1.28,1.95-2.65,3.85-3.84,5.85-6.42,10.73,9.21,50.02,21.34,53.13,9.03,2.32,18.16,4.39,27.36,5.89,6.57,1.08,6.49,5.26,6.5,10.18,.01,4.68-.45,9.23-6.25,9.12Zm-138.48-84.64c-41.31-.19-75.24,33.32-75.4,74.47-.17,41.45,33.04,75.02,74.48,75.29,41.5,.27,75.06-32.87,75.3-74.37,.25-41.43-33.06-75.19-74.37-75.38Zm-.44,126.15c-28.7,.03-51.72-23.32-51.34-52.08,.37-28.05,23.63-50.69,51.85-50.46,28.14,.23,50.84,23.33,50.69,51.56-.16,28.38-22.82,50.94-51.2,50.97Z"/>
</svg>