<?xml version="1.0" encoding="UTF-8"?>
<svg id="Layer_1" data-name="Layer 1" xmlns="http://www.w3.org/2000/svg" viewBox="0 0 800 800">
  <defs>
    <style>
      .cls-1 {
        fill: #020202;
      }

      .cls-2 {
        fill: none;
      }
    </style>
  </defs>
  <rect class="cls-2" width="800" height="800"/>
  <path class="cls-1" d="M108.61,325.4c7.29-4.37,13.07-7.84,18.85-11.31,11.07-6.65,18.87-2.91,21.93,10.19,.83,3.53-1,4.66-3.36,6.08-19.33,11.59-38.71,23.11-57.89,34.94-4.43,2.73-6.31,1.43-8.64-2.53-11.24-19.08-22.56-38.12-34.22-56.95-3.01-4.86-1.62-6.99,2.6-9.77,13.61-8.97,13.51-9.12,21.99,4.95,4.25,7.04,8.51,14.07,13.67,22.6,3.6-11.73,6.18-22.18,9.97-32.18,43.94-115.91,126.62-187.5,247.82-213.18,48.86-10.35,98.03-7.44,146.36,5.91,5.15,1.42,12.41,1.06,8.13,10.26-3.02,6.5-.57,16.49-14.67,12.72-86.78-23.19-168.69-10.61-244.19,37.86-64.55,41.44-106.56,100.21-127.49,173.99-.39,1.39-.4,2.88-.87,6.4Zm595.68,65.65c1.02,70.05-18.83,133.96-61.6,189.83-8.93,11.67,1.42,13.11,6.11,18.43,6.69,7.58,9.29,.79,12.37-3.39,54.66-74.22,75.78-156.86,62.38-248.22-2.5-17.05-7.44-33.57-12.07-51.92,10.25,6.09,19.02,10.54,26.93,16.19,8.2,5.86,9.58-1.12,11.86-5.61,2.4-4.7,10.45-9.25,.11-15.04-18.66-10.47-36.91-21.71-55.06-33.05-5.63-3.52-8.05-2-11.04,3.19-9.36,16.26-19.19,32.24-28.84,48.33-8.29,13.82-8.12,13.52,6.06,21.67,5.4,3.1,7.58,1.81,10.27-3.11,4.66-8.53,9.99-16.69,16.11-26.75,10.87,29.85,15.97,59.47,16.41,89.46Zm-87.27,275.88c-74.85-.03-149.71-.02-224.56-.02-3.71,0-7.41,0-12.19,0,2.6,8.61,14.76,10.95,12.09,18.57-2.21,6.29-10.22,10.58-15.75,15.67-13.28,12.22-26.53,24.46-39.93,36.55-33.09,29.85-80.4,30.19-112.21-.93-53.75-52.58-106.96-105.73-159.55-159.45-31.58-32.26-30.78-80.81,.46-113.64,15.28-16.06,31.43-31.3,46.8-47.28,4.61-4.79,7.35-3.96,11.56,.3,24.83,25.14,49.72,50.21,74.99,74.91,5.38,5.26,3.88,7.98-.67,12.34-12.49,11.96-24.61,24.31-36.75,36.63-8.23,8.36-8.23,13.72-.29,22.05,11.62,12.17,23.29,24.3,35.99,37.54,1.67-3.99,2.48-5.51,2.95-7.13,11.19-38.78,38-58.57,77-64.33,20.06-2.97,39.95-7.12,59.9-10.84,2.35-.44,5.64,.37,6.38-3.25,.69-3.35-1.99-4.49-4.16-5.91-25.98-16.95-42.94-40.43-50.81-70.4-1.07-4.07-3.24-5.88-7.21-7.4-19.97-7.64-30.75-22.54-30.96-43.84-.31-31.57-.93-63.22,.78-94.71,4.34-79.97,79.98-144.53,160.09-137.82,70.68,5.92,124.42,52.87,139.16,122.22,2.24,10.56,2.94,21.61,3.02,32.45,.33,43.24,.18,86.48,.12,129.72-.04,27.72-13.72,41.66-41.63,41.01-11.28-.26-20.13,1.59-27.08,11.38-4.98,7.02-12.46,11.89-19.7,16.67-2.5,1.65-5.47,3.16-4.44,6.93,.93,3.4,4.23,2.64,6.61,3.1,24.36,4.68,48.83,8.84,73.1,13.97,28.19,5.95,48.16,22.83,58.39,49.55,9.75,25.46,17.53,51.66,26.48,77.43,3.14,9.03-2.52,7.99-7.98,7.99Zm-88.2-238.05c-10.97,3.47-19.95,16.02-19.17,24.94,.16,1.84,.87,2.33,2.43,2.89,7.37,2.64,15.86-2.28,16.64-10.27,.53-5.54,.1-11.18,.1-17.56Zm-10.82-59.88v36.61c15.37-10.18,15.16-28.08,0-36.61Zm-233.71,.06c-14.55,9.92-14.86,24.02,0,37.04v-37.04Zm110.93-85.74c4.45-4.91,7.27-5.65,12.11-.29,27.68,30.69,62.11,46.52,103.73,45.84,3.66-.06,7.15,.01,6.33,5.08-1.37,8.47,4.04,10.1,11.42,11,0-15.56,.37-30.21-.06-44.83-2.62-89.06-96.95-148.78-178.04-111.79-67.24,30.67-84.05,88.8-75.93,156.9,5.6-1.3,11.36-2.27,10.02-10.35-.87-5.21,1.99-6.15,6.56-6.06,41.61,.84,76.09-14.87,103.87-45.51Zm-26.93,213.73c32.47,12.42,63.35,7.07,90.73-16.9-15.68,0-31.39-.68-47.01,.25-9.83,.58-11.07-3.62-10.78-11.72,.26-7.33-.31-12.77,10.34-12.19,18.75,1.01,37.66-.71,56.37,.63,12.23,.88,18.13-3.61,20.68-14.67,.42-1.8,1.21-3.51,1.73-5.29,7.88-26.55,2.85-53.77,4.2-80.67,.3-6.07-4.67-4.72-7.99-5.23-30.06-4.61-57.05-16-79.94-36.26-3.67-3.25-5.91-4.11-10.09-.37-23.07,20.66-50.41,32.32-80.93,36.52-5.35,.74-8.04,2.07-7.78,8.14,.94,21.75-1.62,43.6,1.88,65.27,5.7,35.3,25.72,59.91,58.59,72.49Zm1.36,25.9c9.61,10.36,18.44,19.91,27.3,29.42,1.98,2.12,3.78,5.15,7.18,1.71,9.32-9.41,18.69-18.78,28.04-28.17-21.73,1.97-42.13,1.78-62.52-2.96Zm-258.56-60.46c13.9,14.1,28.16,27.86,41.85,42.16,4.53,4.73,7.46,4.44,11.43-.18,3.38-3.93,7.88-6.51,1.61-12.41-14.7-13.81-28.67-28.4-42.97-42.64-1.53-1.52-3.21-2.89-6.43-5.76-3.15,3.81-6.12,7.11-8.76,10.67-3.11,4.21,1.17,6.03,3.26,8.15Zm212.28,245.33c-14.6-14.1-28.88-28.53-43.15-42.97-3.16-3.2-5-4.72-9.92-1.41-16.58,11.14-32.36,9.17-46.8-5.13-26.7-26.45-53.27-53.04-79.76-79.71-14.38-14.48-16.33-29.31-5.83-46.7,2.66-4.4,2.67-6.84-.99-10.41-14.54-14.16-28.99-28.43-43.06-43.06-4.38-4.56-6.79-3.72-10.68,.37-11.34,11.95-18.16,25.56-17.54,40.77-.33,17.48,5.49,30.96,16.55,42.05,52.56,52.68,105,105.48,157.97,157.75,23.78,23.47,59.03,22.34,83.11-.95,4.36-4.22,4.35-6.47,.09-10.59Zm31.74-30.55c-14.2-13.89-28.14-28.04-42.19-42.08-1.52-1.52-3.14-2.95-5.17-4.86-4.5,4.08-9.23,7.36-12.6,11.7-3.47,4.48,2.12,6.45,4.35,8.74,13.33,13.69,27.51,26.59,40.28,40.77,8.09,8.98,10.84,.44,15.63-2.83,5.99-4.09,3.82-7.4-.31-11.44Zm239.81-34.16c-6.7-19.6-11.99-37.53-18.96-54.78-7.37-18.24-21.6-29.59-41.02-33.46-25.06-5.01-50.26-9.32-75.33-14.31-5.97-1.19-9.76,.65-13.77,4.81-12.52,12.99-25.72,25.34-38.03,38.53-5.25,5.62-8.18,4.87-13.05-.27-12.4-13.1-25.43-25.62-38.13-38.44-3.24-3.27-6.17-5.98-11.6-4.91-26.93,5.27-54.18,9.13-80.83,15.5-29.28,6.99-40.25,31.17-45.75,57.26-2.91,13.83,13.57,17.88,20.32,27.1,6.3,8.6,14.18,8.31,22.14,.9,13.19-12.3,26.99-23.97,39.97-36.49,5.64-5.44,9.1-6.55,14.93-.02,9.99,11.21,21.29,21.24,31.6,32.18,4.49,4.76,9.15,6.6,15.71,6.57,53.79-.25,107.58-.14,161.37-.14h70.44Zm167.66-479.23c-.45,23.54-15.18,38.19-38.87,36.79-19.84-1.17-36.08,4.31-52.32,15.32-27.6,18.69-56.43,35.55-87.73,55.03,3.41-20.44,6.15-38.12,9.35-55.71,2.6-14.3,2.84-14.25-11.08-14.26-4.89,0-9.78,.05-14.66-.01-22.63-.26-37.65-14.27-38.1-37.09-.59-29.68-.56-59.39-.02-89.07,.42-23.03,14.91-37.08,37.88-37.18,52.64-.24,105.29-.24,157.93,0,23.26,.1,37.24,13.73,37.65,37.12,.52,29.68,.55,59.39-.02,89.08Zm-23.83-87.51c-.04-12.35-2.73-15-15.56-15.02-51.51-.08-103.02-.09-154.53,0-12.55,.02-15.29,2.82-15.34,15.3-.1,28.19-.09,56.37,0,84.56,.04,13.2,3.24,16.26,16.89,16.35,14.66,.1,29.33,.24,43.99-.08,6.51-.14,9.65,.53,7.72,8.58-2.74,11.44-3.92,23.24-6.13,37.12,14.65-9.14,27.82-16.34,39.87-25.09,20.33-14.76,41.55-24.28,67.67-20.84,11.64,1.54,15.39-3.43,15.42-15.21,.09-28.56,.09-57.13,0-85.69Zm-30.74,31.47c9.35,.33,8.63-4.95,7.93-10.55-.65-5.23,4.19-13.29-7.65-13.17-41.35,.42-82.72,.46-124.07-.05-10.38-.13-8.18,6.18-8.06,11.77,.12,5.35-2.84,12.29,7.78,11.95,20.28-.64,40.6-.19,60.9-.19,21.06,0,42.13-.51,63.16,.23Zm-47.32,46.71c10.36,.76,8.62-5.76,8.23-11.4-.36-5.33,3.8-13.14-7.86-12.81-23.25,.67-46.53,.2-69.8,.2-15.71,0-15.38,0-15.33,15.62,.02,6.31,1.72,8.54,8.22,8.3,12.74-.46,25.52-.14,38.28-.13,12.76,0,25.57-.71,38.26,.22Zm43.49,.18c8.49-.61,13.02-1.15,12.16-11.41-.67-8.04,.37-14.41-11.47-13.15-8.06,.86-14.61,.34-11.53,11.18-1.43,8.57-.76,14.22,10.84,13.38Z"/>
</svg>