<?xml version="1.0" encoding="UTF-8"?>
<svg id="Layer_1" data-name="Layer 1" xmlns="http://www.w3.org/2000/svg" viewBox="0 0 12.72 12.82">
  <defs>
    <style>
      .cls-1 {
        fill: #393939;
      }

      .cls-2 {
        fill: none;
      }
    </style>
  </defs>
  <rect class="cls-2" x=".45" y=".38" width="11.82" height="11.82"/>
  <path class="cls-1" d="M12.26,8.09c-.25-1.88-1.71-3.34-3.61-3.56-.15-.02-.22-.06-.22-.24,.01-1.32,0-2.64,0-3.96,0-.25-.09-.33-.33-.34-.58,0-1.15,0-1.73,0-.23,0-.31,.09-.31,.31,0,.32,0,.64,0,.95,0,.15-.04,.17-.18,.17-.46,0-.92,0-1.37,0-.23,0-.33,.09-.33,.32,0,.31,0,.62,0,.93,0,.13-.04,.17-.17,.17-.47,0-.94,0-1.41,0-.22,0-.3,.08-.3,.3,0,.3,0,.6,0,.9,0,.13-.03,.17-.16,.17-.46,0-.92,0-1.37,0-.26,0-.34,.09-.34,.35,0,.75,0,1.5,0,2.25,0,.74,0,1.47,0,2.21,0,.33,.04,.37,.38,.37,1.01,0,2.02,0,3.02,0,.23,0,.31,.06,.37,.28,.53,2.08,2.62,3.38,4.73,2.99,2.16-.4,3.61-2.47,3.33-4.57ZM2.31,6.82c0,.64,0,1.29,0,1.93,0,.12-.02,.17-.16,.17-.36,0-.73,0-1.09,0-.11,0-.15-.02-.15-.14,0-1.3,0-2.61,0-3.91,0-.13,.04-.16,.16-.15,.35,0,.7,0,1.05,0,.15,0,.19,.03,.19,.19,0,.64,0,1.28,0,1.93Zm1.86,.84c0,.39-.13,.77-.11,1.16,0,.09-.05,.09-.11,.09-.34,0-.68,0-1.01,0-.15,0-.11-.09-.11-.17,0-.87,0-1.75,0-2.62,0-.87,0-1.74,0-2.6,0-.14,.03-.18,.17-.18,.35,.01,.7,0,1.05,0,.11,0,.15,.03,.15,.14,0,1.39,.01,2.78-.01,4.17ZM6.74,.49c.34,.01,.68,0,1.01,0,.12,0,.18,.02,.18,.16,0,1.23,0,2.47,0,3.7,0,.17-.1,.16-.2,.17-.4,.03-.78,.14-1.18,.29,0-.12,0-.21,0-.3,0-1.28,0-2.56,0-3.84,0-.15,.04-.19,.19-.19Zm-2.09,5.76c0-1.37,.02-2.73,.02-4.1,0-.17,.04-.21,.21-.2,.34,.01,.69,0,1.03,0,.12,0,.14,.04,.14,.15,0,.95,0,1.91,0,2.86,0,.08-.01,.13-.09,.18-.52,.32-.94,.75-1.31,1.26,0-.05,0-.1,0-.15Zm3.52,5.98c-1.99,0-3.61-1.6-3.63-3.6-.02-1.99,1.61-3.63,3.61-3.64,1.99-.01,3.63,1.61,3.64,3.61,0,1.99-1.62,3.62-3.62,3.63Zm.95-2.71c0-.16-.08-.29-.21-.39-.21-.18-.47-.27-.73-.33-.26-.06-.51-.13-.74-.27-.5-.33-.69-.98-.4-1.46,.18-.29,.45-.44,.76-.53,.12-.03,.15-.07,.15-.18,0-.15,0-.3,0-.46,0-.16,.09-.28,.25-.27,.16,0,.25,.11,.25,.28,0,.19-.06,.41,.02,.57,.07,.16,.33,.14,.49,.25,.16,.11,.32,.22,.45,.36,.15,.16,.16,.29,.05,.4-.11,.1-.26,.09-.4-.05-.21-.22-.45-.38-.76-.43-.31-.05-.56,.06-.77,.27-.21,.21-.14,.6,.13,.81,.2,.16,.44,.2,.68,.26,.29,.07,.55,.18,.79,.34,.41,.27,.59,.68,.49,1.11-.11,.49-.47,.87-.94,.94-.19,.03-.24,.1-.22,.28,.01,.12,0,.25,0,.38,0,.16-.08,.27-.25,.27-.16,0-.24-.1-.25-.25,0-.19,.05-.42-.03-.57-.08-.14-.33-.11-.49-.2-.24-.13-.44-.3-.59-.52-.09-.13-.1-.26,.03-.37,.11-.1,.27-.07,.38,.07,.35,.51,1.05,.58,1.46,.39,.27-.13,.41-.34,.42-.66Z"/>
</svg>