<?xml version="1.0" encoding="UTF-8"?>
<svg id="Layer_1" data-name="Layer 1" xmlns="http://www.w3.org/2000/svg" viewBox="0 0 14 14">
  <defs>
    <style>
      .cls-1 {
        fill: #393939;
      }

      .cls-2 {
        fill: none;
      }
    </style>
  </defs>
  <rect class="cls-2" width="14" height="14"/>
  <path class="cls-1" d="M11.76,3.17c0-.16-.09-.24-.25-.24-.15,0-.29,0-.44,0-.12,0-.15-.03-.15-.15,0-.34,0-.68,0-1.02,0-.68-.44-1.12-1.12-1.12-.65,0-1.3,0-1.95,0-1.24,0-2.49,0-3.73,0-.64,0-1.08,.44-1.09,1.08,0,.23,0,.46,0,.68,0,.16,.05,.38-.03,.48-.09,.11-.31,.03-.47,.04-.27,0-.32,.06-.32,.33,0,1.29,0,2.57,0,3.86,0,.77,0,1.55,0,2.32,0,.3,.03,.34,.33,.34,.1,0,.21,.01,.31,0,.16-.02,.2,.04,.19,.19,0,.81,0,1.62,0,2.43,0,.69,.42,1.11,1.11,1.11,.95,0,1.9,0,2.84,0,.94,0,1.88,0,2.82,0,.68,0,1.11-.43,1.12-1.11,0-.71,0-1.42,0-2.14q0-.48,.47-.49c.31,0,.36-.04,.36-.36,0-2.04,0-4.08,0-6.12,0-.04,0-.08,0-.12Zm-8.3-.43c.01-.34,0-.68,0-1.02,0-.39,.26-.66,.65-.66,1.92,0,3.83,0,5.75,0,.39,0,.65,.27,.66,.65,0,.34-.01,.68,0,1.02,0,.18-.06,.2-.21,.2-1.11,0-2.21,0-3.32,0s-2.23,0-3.34,0c-.16,0-.19-.04-.19-.19Zm7.06,8.87c0,.28,0,.55,0,.83,0,.4-.26,.66-.66,.66-.95,0-1.91,0-2.86,0-.94,0-1.88,0-2.82,0-.48,0-.71-.23-.71-.71,0-.26,0-.53,0-.79,0-.11,.01-.16,.14-.16,2.25,0,4.51,0,6.76,0,.14,0,.16,.05,.16,.17Zm0-1.62c-.01,.3,0,.59,0,.89,0,.12-.03,.15-.15,.15-2.25,0-4.51,0-6.76,0-.12,0-.15-.04-.15-.15,0-.3,.01-.61,0-.91,0-.17,.06-.19,.2-.19,1.11,0,2.21,0,3.32,0s2.23,0,3.34,0c.17,0,.21,.05,.2,.21Zm.65-.62c-1.39,0-2.78,0-4.17,0s-2.77,0-4.15,0c-.19,0-.22-.06-.22-.23,0-1.31,0-2.63,0-3.94,0-.15,.03-.2,.19-.2,2.78,0,5.56,0,8.34,0,.16,0,.19,.05,.19,.2,0,1.33,0,2.65,0,3.98,0,.15-.04,.18-.18,.18Zm.18-4.95c0,.15-.04,.18-.18,.18-1.39,0-2.78,0-4.17,0-1.39,0-2.78,0-4.17,0-.17,0-.2-.05-.2-.21,.01-.3,0-.61,0-.91,0-.1,.03-.14,.13-.13,.05,0,.1,0,.15,0,2.74,0,5.48,0,8.21,0,.2,0,.24,.06,.23,.24-.02,.28-.01,.55,0,.83Zm-5.19,4.09s.03-.09,.05-.14c.39-.91,.78-1.82,1.17-2.73,.04-.1,.09-.21,.23-.21,.17,0,.25,.17,.17,.37-.24,.56-.48,1.11-.72,1.67-.16,.37-.32,.75-.48,1.12-.05,.11-.13,.18-.26,.16-.11-.02-.16-.1-.16-.23Zm3.1-1.4c0-.06-.05-.09-.09-.12-.24-.24-.48-.48-.72-.72-.11-.11-.19-.22-.06-.36,.13-.13,.25-.05,.35,.06,.3,.3,.61,.6,.91,.91,.17,.17,.17,.25,0,.42-.31,.31-.61,.62-.92,.92-.11,.11-.23,.18-.36,.05-.12-.13-.05-.24,.06-.34,.24-.24,.48-.48,.72-.72,.03-.03,.07-.07,.1-.1Zm-3.63-1.03c0,.07-.06,.12-.12,.18-.24,.24-.47,.48-.72,.71-.09,.09-.1,.14,0,.23,.24,.23,.47,.47,.7,.7,.11,.11,.21,.23,.07,.37-.13,.13-.25,.04-.36-.06-.3-.3-.6-.6-.91-.91-.16-.17-.17-.25,0-.42,.32-.32,.63-.63,.95-.95,.07-.06,.14-.11,.24-.07,.08,.04,.13,.09,.14,.21ZM6.99,1.89c-.26,0-.52,0-.79,0-.14,0-.25-.05-.25-.21,0-.16,.11-.21,.25-.21,.52,0,1.04,0,1.55,0,.15,0,.27,.06,.26,.22,0,.15-.12,.2-.27,.19-.26,0-.51,0-.77,0Zm1.65,0c-.13-.01-.2-.08-.2-.22,0-.12,.08-.2,.2-.2,.13,0,.21,.08,.21,.21,0,.13-.08,.2-.21,.21Zm-3.74,10.58c-.13,0-.26,0-.39,0-.13,0-.21-.07-.21-.2,0-.12,.07-.2,.19-.21,.29,0,.58,0,.87,0,.12,0,.19,.09,.18,.21,0,.12-.08,.19-.2,.2-.14,0-.29,0-.43,0h0Zm4.16,0c-.14,0-.28,0-.41,0-.12,0-.2-.06-.21-.19,0-.13,.07-.22,.19-.22,.28-.01,.57,0,.85,0,.13,0,.21,.09,.2,.22,0,.12-.08,.19-.21,.19-.14,0-.28,0-.41,0Zm-2.08-.83c-.34,0-.61,.28-.62,.62,0,.35,.26,.62,.61,.62,.35,0,.63-.27,.63-.61,0-.34-.28-.64-.63-.64Zm.02,.83c-.13,0-.21-.06-.22-.19,0-.12,.07-.2,.18-.21,.13-.01,.2,.08,.23,.2-.01,.12-.07,.2-.19,.21Z"/>
</svg>