<?xml version="1.0" encoding="UTF-8"?>
<svg id="Layer_1" data-name="Layer 1" xmlns="http://www.w3.org/2000/svg" viewBox="0 0 14 14">
  <defs>
    <style>
      .cls-1 {
        fill: #393939;
      }

      .cls-2 {
        fill: none;
      }
    </style>
  </defs>
  <rect class="cls-2" width="14" height="14"/>
  <path class="cls-1" d="M9.91,5.31c0-.71-.48-1.18-1.19-1.18-1.13,0-2.26,0-3.39,0-.7,0-1.18,.46-1.19,1.16-.02,1.11-.02,2.21,0,3.32,.01,.71,.5,1.16,1.21,1.16,.56,0,1.12,0,1.68,0,.56,0,1.12,0,1.68,0,.71,0,1.19-.48,1.19-1.18,0-1.09,0-2.18,0-3.28Zm-.44,3.24c0,.51-.27,.78-.77,.78-1.11,0-2.23,0-3.34,0-.5,0-.78-.29-.78-.78,0-1.07,0-2.14,0-3.21,0-.49,.28-.78,.78-.78,.56,0,1.12,0,1.68,0,.55,0,1.11,0,1.66,0,.51,0,.77,.27,.77,.78,0,1.07,0,2.14,0,3.21Zm2.98-1.23c-.38-.09-.8,.1-.97,.47-.06,.14-.14,.19-.28,.17-.07,0-.15,0-.22,0h0c-.12,0-.24,0-.36,0-.14,0-.23,.08-.23,.22,0,.14,.09,.22,.23,.22,.18,0,.36,0,.54,0,.16,0,.26,.02,.34,.19,.17,.37,.61,.55,.98,.45,.42-.11,.69-.46,.68-.89,0-.41-.29-.74-.7-.84Zm-.18,1.31c-.25,0-.45-.21-.44-.46,0-.24,.21-.44,.45-.43,.24,0,.44,.2,.45,.44,0,.25-.2,.46-.45,.45Zm-3.57,2.81c-.16-.07-.21-.16-.19-.32,0-.07,0-.13,0-.2h0c0-.11,0-.22,0-.34,0-.14-.06-.26-.23-.25-.16,0-.22,.11-.21,.26,0,.17,0,.34,0,.51,.01,.17-.03,.26-.2,.34-.37,.17-.55,.59-.45,.98,.1,.4,.46,.69,.86,.69,.38,0,.76-.28,.85-.64,.11-.42-.06-.85-.44-1.02Zm-.41,1.23c-.25,0-.45-.2-.45-.46,0-.25,.2-.44,.44-.44,.25,0,.46,.21,.45,.46,0,.24-.21,.44-.45,.44ZM3.38,5.49c-.19,0-.37,0-.56,0-.15,0-.23-.03-.3-.18-.17-.37-.6-.56-.97-.47-.41,.1-.7,.47-.7,.88,0,.4,.28,.75,.7,.85,.38,.1,.8-.09,.97-.46,.07-.15,.15-.2,.3-.18,.07,0,.15,0,.22,0,.11,0,.22,0,.34,0,.15,0,.25-.08,.24-.23,0-.14-.1-.21-.24-.21Zm-1.62,.67c-.25,0-.46-.19-.47-.44,0-.26,.19-.46,.45-.45,.24,0,.44,.2,.45,.44,0,.24-.19,.45-.43,.46Zm1.64,1.87c-.19,0-.37,0-.56,0-.16,0-.25-.03-.32-.19-.17-.38-.6-.56-1-.46-.39,.1-.68,.47-.67,.87,0,.39,.29,.75,.66,.84,.42,.1,.84-.07,1.02-.45,.07-.15,.15-.2,.3-.18,.07,0,.15,0,.22,0h0c.12,0,.24,0,.36,0,.14,0,.23-.09,.22-.23,0-.13-.09-.2-.23-.2Zm-1.65,.67c-.25,0-.46-.2-.46-.45,0-.24,.19-.44,.44-.44,.25,0,.46,.2,.46,.45,0,.24-.2,.44-.44,.45ZM9.11,1.48c-.09-.39-.44-.68-.84-.69-.39-.01-.76,.25-.87,.64-.12,.39,.03,.82,.39,1,.22,.11,.26,.24,.24,.45,0,.04,0,.07,0,.11,0,.1,0,.21,0,.31,0,.15,.05,.26,.21,.26,.18,0,.23-.11,.23-.27,0-.17,0-.34,0-.52-.01-.16,.02-.25,.19-.32,.36-.16,.55-.59,.46-.98Zm-.86,.64c-.26,0-.45-.2-.45-.46,0-.24,.21-.44,.45-.44,.25,0,.46,.21,.45,.46,0,.24-.2,.44-.45,.43Zm4.27,2.68c-.41-.1-.84,.05-1.01,.42-.08,.18-.18,.23-.35,.21-.06,0-.12,0-.18,0,0,0,0,0,0,0-.13,0-.25,0-.38,0-.13,.01-.21,.09-.2,.22,0,.13,.09,.2,.22,.21,.18,0,.36,0,.54,0,.17,0,.27,.02,.36,.2,.16,.37,.6,.54,.98,.45,.4-.1,.68-.46,.67-.87,0-.39-.27-.75-.64-.84Zm-.24,1.3c-.25,0-.44-.19-.44-.44,0-.25,.21-.46,.45-.46,.24,0,.45,.22,.45,.47,0,.24-.21,.43-.45,.43Zm-6.11,5.33c-.15-.07-.2-.15-.18-.3,0-.07,0-.15,0-.22,0-.1,0-.19,0-.29,0-.15-.03-.28-.21-.28-.17,0-.22,.12-.22,.27,0,.17-.01,.34,0,.51,.01,.16-.04,.25-.19,.32-.37,.17-.55,.6-.46,.98,.1,.39,.46,.69,.86,.69,.41,0,.77-.29,.87-.7,.09-.38-.1-.81-.47-.97Zm-.41,1.23c-.24,0-.44-.21-.44-.45,0-.25,.21-.45,.46-.45,.24,0,.44,.2,.44,.45,0,.25-.21,.46-.46,.45ZM6.58,1.48c-.1-.4-.45-.69-.85-.7-.4,0-.78,.29-.87,.67-.1,.41,.08,.82,.46,1,.15,.07,.2,.15,.18,.3,0,.07,0,.15,0,.22,0,0,0,0,0,0,0,.13,0,.25,0,.38,.01,.13,.09,.21,.23,.2,.13,0,.2-.09,.2-.22,0-.19,.01-.37,0-.56-.01-.16,.03-.25,.19-.32,.37-.17,.56-.6,.46-.97Zm-.87,.64c-.25,0-.47-.22-.46-.46,0-.23,.22-.44,.46-.44,.25,0,.44,.2,.44,.46,0,.25-.19,.44-.44,.44Zm2.45,4.76c0-.34,0-.67,0-1.01,0-.17,.06-.3,.25-.3,.18,0,.23,.14,.23,.3,0,.68,0,1.36,0,2.04,0,.15-.04,.29-.23,.29-.19,0-.24-.14-.24-.31,0-.34,0-.67,0-1.01Zm-.46,.96c-.31-.69-.61-1.39-.93-2.08-.13-.27-.48-.27-.63,0-.08,.13-.13,.27-.19,.41-.25,.57-.5,1.13-.75,1.7-.06,.14-.04,.26,.1,.32,.14,.06,.25,.01,.31-.13,.03-.07,.07-.13,.09-.21,.05-.16,.14-.22,.31-.21,.22,.02,.45,.02,.67,0,.32-.04,.54,.04,.6,.38,0,.03,.03,.07,.05,.1,.07,.09,.16,.11,.26,.08,.1-.03,.14-.11,.14-.23,0-.03,0-.07-.02-.11Zm-.94-.61c-.1,0-.21,0-.31,0q-.49,0-.29-.45c.07-.15,.13-.3,.2-.45,.02-.05,.03-.11,.09-.12,.07,0,.08,.06,.1,.1,.11,.25,.22,.5,.33,.75,.06,.12,0,.16-.11,.16Z"/>
</svg>