<?xml version="1.0" encoding="UTF-8"?>
<svg id="Layer_1" data-name="Layer 1" xmlns="http://www.w3.org/2000/svg" viewBox="0 0 14 14">
  <defs>
    <style>
      .cls-1 {
        fill: #393939;
      }

      .cls-2 {
        fill: none;
      }
    </style>
  </defs>
  <rect class="cls-2" width="14" height="14"/>
  <path class="cls-1" d="M10.84,9.02c-.15-.03-.21-.07-.21-.24,.01-1.05,0-2.11,0-3.16,0-1.03,0-2.05,0-3.08,0-.53-.28-.81-.82-.81-.43,0-.87,0-1.3,0q-.37,0-.38-.38c0-.24-.07-.31-.31-.31-.25,0-.51,0-.76,0-.08,0-.13-.02-.18-.1-.47-.76-1.43-.76-1.89,0-.05,.08-.1,.11-.19,.11-.25,0-.51,0-.76,0-.22,0-.3,.08-.31,.3,0,.07,0,.14,0,.21,.02,.14-.03,.19-.18,.18-.53,0-1.06,0-1.59,0-.43,0-.72,.31-.72,.73,0,3.16,0,6.32,0,9.48,0,.09,0,.17,.04,.26,.13,.32,.38,.48,.77,.48,2.09,0,4.19,0,6.28,0,.17,0,.28,.04,.41,.17,.67,.7,1.49,.93,2.41,.64,.91-.29,1.46-.95,1.6-1.89,.18-1.24-.67-2.37-1.89-2.59ZM4.14,2.18c.01-.19,0-.39,0-.58,0-.11,.03-.14,.14-.14,.25,0,.5,0,.74,0,.15,0,.22-.05,.27-.19,.1-.3,.34-.47,.63-.48,.28,0,.54,.17,.64,.47,.05,.15,.13,.21,.29,.2,.24,0,.48,0,.72,0,.11,0,.15,.03,.14,.14,0,.22,0,.44,0,.66,0,.13-.05,.15-.16,.14-.54,0-1.09,0-1.63,0-.52,0-1.05-.01-1.57,0-.19,0-.23-.06-.22-.23Zm4.15,10.02s0,.04,.01,.08h-.21c-1.99,0-3.98,0-5.97,0-.4,0-.47-.07-.47-.46,0-3.07,0-6.14,0-9.21,0-.37,.08-.45,.44-.45,.49,0,.98,0,1.47,0,.14,0,.18,.04,.17,.17,0,.06,0,.12,0,.19,0,.24,.08,.32,.32,.32,1.25,0,2.51,0,3.76,0,.26,0,.32-.06,.32-.33q0-.34,.35-.34c.45,0,.91,0,1.36,0,.27,0,.37,.1,.37,.38,0,2.09,0,4.19,0,6.28,0,.12-.02,.19-.15,.2-1.37,.18-2.39,1.7-1.77,3.19Zm4.04-.9c0,1.05-.84,1.9-1.9,1.9-1.05,0-1.91-.85-1.91-1.9,0-1.05,.86-1.91,1.92-1.91,1.1,0,1.92,.94,1.89,1.91ZM7.24,6.73c.47,0,.95,0,1.42,0,.15,0,.29,.02,.3,.2,0,.18-.14,.22-.29,.22-.98,0-1.95,0-2.93,0-.14,0-.28-.04-.28-.21,0-.18,.14-.22,.29-.21,.04,0,.08,0,.12,0,.45,0,.91,0,1.36,0Zm-.02-2.76c.48,0,.96,0,1.45,0,.15,0,.29,.02,.3,.2,0,.18-.14,.22-.29,.22-.97,0-1.94,0-2.91,0-.15,0-.29-.03-.3-.21,0-.18,.14-.21,.29-.21,.49,0,.98,0,1.47,0Zm-.02,1.63c-.48,0-.96,0-1.45,0-.16,0-.29-.04-.28-.21,0-.16,.12-.21,.28-.21,.98,0,1.96,0,2.94,0,.16,0,.29,.04,.28,.22,0,.16-.13,.2-.28,.2-.5,0-.99,0-1.49,0Zm.02,2.35c.49,0,.98,0,1.47,0,.15,0,.27,.05,.28,.21,0,.16-.11,.21-.27,.21-.98,0-1.97,0-2.95,0-.15,0-.27-.04-.28-.21,0-.17,.13-.22,.29-.22,.49,0,.98,0,1.47,0Zm-.63,1.55c.27,0,.54,0,.8,0,.15,0,.27,.04,.27,.21,0,.16-.11,.21-.25,.21-.56,0-1.13,0-1.69,0-.14,0-.26-.05-.26-.2,0-.17,.11-.22,.26-.22,.29,0,.58,0,.87,0Zm-.02,1.63c-.28,0-.56,0-.85,0-.15,0-.27-.05-.27-.21,0-.16,.13-.2,.28-.2,.55,0,1.1,0,1.65,0,.15,0,.27,.03,.27,.2,0,.19-.13,.22-.28,.22-.27,0-.54,0-.8,0Zm3.54,1.08c-.07,0-.12-.03-.16-.08-.24-.24-.49-.49-.73-.73-.1-.1-.13-.22-.02-.33,.1-.1,.21-.07,.31,.03,.16,.17,.34,.33,.49,.5,.09,.1,.14,.09,.23,0,.35-.37,.72-.72,1.07-1.09,.11-.11,.22-.2,.35-.07,.14,.14,.05,.26-.06,.37-.42,.42-.84,.85-1.27,1.28-.06,.06-.12,.14-.22,.12ZM4.54,6.98c0-.16-.08-.25-.26-.25-.38,0-.76,0-1.14,0-.17,0-.25,.09-.25,.26,0,.37,0,.74,0,1.12,0,.17,.08,.25,.25,.25,.19,0,.37,0,.56,0,.19,0,.37,0,.56,0,.18,0,.27-.09,.27-.26,0-.37,0-.74,0-1.12Zm-.83,.96q-.39,0-.39-.39t.39-.4,.42,.42-.42,.38Zm.83,1.81c0-.16-.08-.26-.25-.26-.38,0-.76,0-1.14,0-.17,0-.25,.09-.25,.26,0,.19,0,.37,0,.56,0,.18,0,.36,0,.54,0,.19,.09,.28,.27,.28,.37,0,.73,0,1.1,0,.18,0,.27-.08,.27-.26,0-.37,0-.74,0-1.12Zm-.83,.96q-.39,0-.39-.4,0-.4,.39-.4,.42,0,.42,.42,0,.38-.42,.38Zm.83-6.49c0-.16-.08-.25-.26-.25-.38,0-.76,0-1.14,0-.16,0-.25,.08-.25,.24,0,.39,0,.77,0,1.16,0,.14,.08,.23,.23,.23,.19,0,.39,0,.58,0,.19,0,.37,0,.56,0,.19,0,.27-.09,.27-.26,0-.37,0-.74,0-1.12Zm-.83,.96q-.4,0-.4-.39,0-.4,.39-.4,.42,0,.42,.42,0,.38-.42,.38Z"/>
</svg>