<?xml version="1.0" encoding="UTF-8"?>
<svg id="Layer_1" data-name="Layer 1" xmlns="http://www.w3.org/2000/svg" viewBox="0 0 14 14">
  <defs>
    <style>
      .cls-1 {
        fill: #393939;
      }

      .cls-2 {
        fill: none;
      }
    </style>
  </defs>
  <rect class="cls-2" width="14" height="14"/>
  <path class="cls-1" d="M7,1.68c-1.24,0-2.48,0-3.72,0-.5,0-.74,.25-.74,.75,0,.98,0,1.96,0,2.94,0,.14-.02,.26-.18,.3-.14,.03-.25-.08-.25-.26,0-.4,0-.81,0-1.21,0-.6,0-1.19,0-1.79,0-.7,.44-1.14,1.14-1.14,2.51,0,5.02,0,7.53,0,.68,0,1.12,.44,1.12,1.11,0,.99,0,1.99,0,2.98,0,.16-.02,.31-.2,.31-.19,0-.23-.14-.23-.31,0-.98,0-1.96,0-2.94,0-.49-.24-.73-.73-.73-1.25,0-2.5,0-3.74,0Zm2.36,3.75c-.04,.1,0,.19,.08,.24,.16,.09,.32,.17,.49,.25,.1,.04,.18,0,.23-.09,.06-.09,.05-.19-.02-.25-.17-.13-.37-.21-.53-.28-.13,0-.21,.04-.25,.14Zm.04-1.77c-.07,.06-.08,.15-.03,.23,.05,.08,.12,.14,.21,.11,.2-.06,.38-.15,.55-.27,.08-.05,.09-.15,.05-.23-.03-.09-.1-.13-.23-.13-.17,.07-.38,.15-.55,.29Zm.38,.78c-.07,0-.14,0-.21,0-.13,0-.22,.07-.22,.2,0,.13,.08,.21,.21,.22,.15,0,.3,.01,.45,0,.12-.01,.19-.09,.19-.22,0-.13-.07-.2-.2-.2-.07,0-.14,0-.21,0,0,0,0,0,0,0Zm3.6,7.13c0,.74-.43,1.17-1.18,1.17-1.74,0-3.48,0-5.21,0-1.72,0-3.45,0-5.17,0-.78,0-1.21-.43-1.21-1.21,0-1.91,.01-3.82,0-5.72,0-.59,.33-.94,.75-1.25,.09-.07,.19-.05,.27,.04,.08,.09,.07,.2,0,.29-.1,.1-.21,.19-.32,.28-.12,.09-.11,.15,0,.24,1.04,.88,2.07,1.77,3.1,2.66,.75,.65,1.51,1.29,2.26,1.94,.27,.24,.4,.24,.68,0,1.79-1.53,3.57-3.07,5.36-4.59,.11-.1,.12-.15,0-.24-.11-.08-.21-.17-.31-.26-.09-.09-.12-.19-.03-.3,.09-.1,.2-.1,.3-.02,.45,.32,.72,.7,.72,1.31-.03,1.89-.01,3.79-.01,5.68Zm-12.15,.32c1.13-.96,2.25-1.93,3.38-2.89,.13-.11,.04-.16-.04-.22-1.14-.97-2.27-1.95-3.41-2.92-.03-.03-.06-.08-.13-.05,0,1.95,0,3.9,0,5.85,0,.11,.02,.21,.09,.31,.04-.03,.07-.04,.11-.07Zm11.3,.39c-.05-.06-.07-.08-.09-.1-1.12-.96-2.25-1.93-3.37-2.89-.1-.08-.15-.08-.25,0-.42,.36-.84,.72-1.26,1.08-.38,.32-.76,.32-1.14,0-.42-.35-.83-.71-1.24-1.07-.1-.09-.16-.09-.26,0-.56,.49-1.13,.97-1.69,1.45-.57,.49-1.15,.99-1.72,1.48,0,.02,0,.03,0,.05H12.54Zm.42-.75c0-1.84,0-3.68,0-5.53,0-.07,.02-.14-.03-.22-.03,.02-.06,.04-.08,.06-1.14,.98-2.28,1.96-3.42,2.93-.14,.12-.1,.16,.01,.26,1.05,.89,2.09,1.79,3.13,2.68,.1,.08,.2,.26,.31,.21,.12-.06,.08-.26,.08-.4Zm-4.09-6.63c-.12,.27-.34,.4-.63,.38-.15,0-.18,.04-.17,.18,0,.34,0,.68,0,1.02,0,.12-.01,.23-.14,.28-.12,.04-.2-.03-.27-.11-.43-.45-.99-.64-1.59-.71-.13-.01-.12,.06-.12,.14,0,.29,0,.58,0,.87,0,.39-.27,.68-.64,.68-.36,0-.63-.29-.64-.68,0-.31,0-.62,0-.94,0-.11-.02-.17-.13-.22-.56-.28-.83-.87-.68-1.48,.14-.55,.65-.93,1.27-.94,.54,0,1.09,.02,1.62-.16,.35-.12,.67-.3,.92-.58,.08-.09,.17-.13,.28-.09,.11,.04,.13,.14,.13,.25,0,.18,0,.35,0,.53,0,.16,.01,.33,0,.49-.02,.17,.05,.21,.21,.21,.48,0,.78,.46,.59,.89Zm-3.45,.6c.1,0,.09-.06,.09-.13,0-.24,0-.48,0-.72,0-.13,0-.27,0-.4q0-.49-.49-.45c-.41,.03-.73,.34-.78,.76-.05,.36,.21,.76,.57,.88,.2,.07,.41,.05,.61,.05Zm.09,.71c0-.31,0-.31-.32-.28-.08,0-.11,.04-.11,.12,0,.31,0,.62,0,.94,0,.13,.08,.22,.21,.22,.13,0,.2-.09,.2-.22,0-.16,0-.31,0-.47h0c0-.1,0-.2,0-.3Zm2.12-2.97c-.49,.32-1.01,.51-1.58,.54-.09,0-.11,.05-.11,.14,0,.49,0,.98,0,1.46,0,.09,.03,.12,.12,.13,.13,0,.27,.03,.4,.05,.42,.08,.8,.25,1.17,.49V3.25Zm.86,1.41c0-.18-.12-.21-.27-.22-.18-.01-.15,.09-.15,.22,.02,.07-.07,.23,.14,.21,.15,0,.28-.04,.28-.21Z"/>
</svg>