<?xml version="1.0" encoding="UTF-8"?>
<svg id="Layer_1" data-name="Layer 1" xmlns="http://www.w3.org/2000/svg" viewBox="0 0 14 14">
  <defs>
    <style>
      .cls-1 {
        fill: #393939;
      }

      .cls-2 {
        fill: none;
      }
    </style>
  </defs>
  <rect class="cls-2" width="14" height="14"/>
  <path class="cls-1" d="M13.5,9.63c-.05-.49-.44-.84-.93-.84-.28,0-.56,0-.83,0-.16,0-.21-.03-.21-.2,.01-.41,0-.83,0-1.24,0-.2-.14-.3-.28-.22-.09,.05-.1,.14-.1,.23,0,.43,0,.85,0,1.28,0,.06,.04,.15-.08,.14-.17-.01-.32-.17-.32-.35,0-.95,0-1.9,0-2.84,0-.2,.09-.27,.24-.34,.13-.05,.17-.03,.17,.11,0,.32,0,.64,0,.96,0,.14,.01,.28,.19,.28,.17,0,.2-.13,.19-.27,0-.31,0-.62,0-.93,0-.13,.03-.18,.17-.17,.27,.01,.54,0,.81,0,.59,0,.99-.39,.99-.98,0-.92,0-1.84,0-2.76,0-.59-.4-.98-.99-.98-1.31,0-2.61,0-3.92,0-.59,0-.99,.4-1,1,0,.27,0,.54,0,.81,0,.12-.03,.17-.16,.16-.29,0-.58,0-.87,0-.13,0-.16-.04-.16-.16,0-.28,0-.57,0-.85-.02-.56-.42-.95-.97-.96-.24,0-.49,0-.73,0-.48,0-.96,0-1.44,0-.1,0-.18,.02-.21,.12-.03,.07-.01,.15,.05,.21,.06,.06,.14,.05,.21,.05,.69,0,1.38,0,2.07,0,.42,0,.64,.23,.65,.64,0,.89,0,1.79,0,2.68,0,.41-.23,.64-.64,.65-.23,0-.46,0-.69,0-.45,0-.59,.12-.66,.6-.19-.13-.37-.23-.52-.35-.24-.19-.51-.26-.81-.25-.39,.02-.79,0-1.18,0-.4,0-.63-.24-.63-.64,0-.9,0-1.8,0-2.7,0-.4,.24-.62,.64-.63,.26,0,.51,0,.77,0,.14,0,.23-.06,.22-.2,0-.14-.1-.18-.22-.18-.26,0-.53,0-.79,0-.6,0-.99,.39-1,.99,0,.32,0,.64,0,.96,0,.59,0,1.18,0,1.77,0,.61,.4,1,1.01,1.01,.26,0,.53,0,.79,0,.12,0,.18,.02,.18,.16,0,1.08,0,2.17,0,3.25,0,.12-.03,.17-.16,.16-.27,0-.54,0-.81,0-.6,0-1,.38-1,.98,0,.91,0,1.83,0,2.74,0,.59,.41,.99,1,.99,1.3,0,2.6,0,3.9,0,.59,0,.99-.4,1-.99,0-.28,0-.56,0-.83,0-.11,.02-.16,.15-.16,.3,0,.6,0,.89,0,.11,0,.16,.03,.15,.15,0,.26,0,.51,0,.77,0,.67,.39,1.06,1.06,1.06,1.26,0,2.52,0,3.78,0,.69,0,1.07-.38,1.07-1.07,0-.72,0-1.45,0-2.17,0-.21,0-.42-.01-.63ZM7.99,1.5c0-.4,.23-.63,.63-.63,1.29,0,2.59,0,3.88,0,.39,0,.63,.24,.63,.64,0,.89,0,1.79,0,2.68,0,.41-.23,.64-.64,.65-.4,0-.8,.01-1.2,0-.28-.01-.53,.06-.76,.23-.17,.13-.36,.24-.56,.37-.05-.46-.21-.6-.62-.6-.24,0-.49,0-.73,0-.4,0-.63-.24-.63-.63,0-.9,0-1.8,0-2.7Zm-1.43,1.34c.15,.01,.3,0,.45,0,.12,0,.24,0,.37,0,.21,0,.3,.14,.23,.35-.03,.07-.08,.06-.13,.06-.3,0-.61,0-.91,0-.21,0-.12-.15-.14-.24-.02-.11,0-.18,.15-.17Zm-3.64,2.37c.1-.03,.33,.14,.34,.24,0,.07,0,.15,0,.22,0,.91,0,1.83,0,2.74,0,.19-.12,.32-.31,.35-.13,.02-.09-.08-.1-.14,0-.49,0-.97,0-1.46v-.18c0-.51,0-1.03,0-1.54,0-.07-.07-.19,.06-.22Zm3.1,7.26c0,.41-.22,.64-.64,.64-.51,0-1.03,0-1.54,0-.75,0-1.5,0-2.25,0-.48,0-.7-.22-.7-.69,0-.87,0-1.73,0-2.6,0-.45,.22-.67,.67-.67,.4,0,.8,0,1.2,0,.26,0,.48-.06,.68-.21,.18-.13,.38-.25,.59-.39,.08,.48,.22,.6,.68,.6,.23,0,.46,0,.69,0,.39,0,.62,.23,.62,.62,0,.9,0,1.8,0,2.7Zm1.58-1.52c0,.09,.04,.2-.12,.19-.16,0-.31,0-.47,0-.12,0-.23,0-.35,0-.25,0-.31-.08-.25-.33,.02-.08,.06-.08,.12-.08,.32,0,.64,0,.95,0,.19,0,.11,.13,.12,.22Zm0-1.25c0,.16,0,.33,0,.49,0,.13-.04,.16-.16,.16-.28,0-.57,0-.85,0-.13,0-.19-.03-.18-.17,.01-.15,0-.3,0-.45-.02-.56-.41-.95-.97-.95-.26,0-.53,0-.79,0-.15,0-.21-.06-.21-.21,0-.13,0-.26,0-.39-.02-.19-.15-.26-.31-.16-.12,.07-.24,.16-.36,.23-.06,.04-.11,.07-.11-.04,0-.84,0-1.69,0-2.57,.17,.11,.3,.2,.43,.28,.2,.13,.34,.06,.36-.18,0,0,0-.01,0-.02q.02-.52,.53-.52c.16,0,.31,0,.47,0,.54,0,.94-.39,.97-.92,0-.17,0-.34,0-.51,0-.1,.02-.15,.13-.15,.31,0,.62,0,.93,0,.1,0,.13,.04,.12,.13,0,.16,0,.33,0,.49,.02,.56,.42,.95,.98,.96,.26,0,.53,0,.79,0,.15,0,.21,.06,.2,.21,0,.12,0,.24,0,.37,.01,.2,.15,.27,.32,.17,.14-.09,.28-.18,.45-.29v2.64c-.15-.04-.26-.16-.39-.23-.09-.05-.17-.12-.28-.05-.1,.06-.1,.17-.1,.27,0,.1,0,.2,0,.3,0,.13-.06,.2-.2,.2-.27,0-.54,0-.81,0-.54,0-.93,.38-.96,.92Zm5.52,2.76c0,.43-.23,.65-.65,.65-1.27,0-2.55,0-3.82,0-.44,0-.66-.22-.66-.66,0-.89,0-1.77,0-2.66,0-.41,.23-.64,.64-.64,.23,0,.46,0,.69,0,.44,0,.6-.14,.65-.61,.23,.15,.43,.28,.63,.42,.19,.13,.39,.19,.63,.19,.41,0,.83,0,1.24,0,.43,0,.66,.23,.66,.65,0,.89,0,1.77,0,2.66ZM1.88,2.28c-.33,0-.58,.24-.59,.56,0,.32,.26,.59,.59,.6,.33,0,.59-.26,.58-.59,0-.33-.25-.57-.58-.57Zm-.01,.77c-.12,0-.18-.08-.18-.2,0-.13,.08-.2,.21-.19,.12,0,.18,.09,.19,.2-.02,.12-.09,.2-.22,.19Zm1.59-.77c-.33,0-.58,.24-.59,.56,0,.32,.26,.6,.58,.6,.33,0,.6-.27,.59-.59,0-.32-.26-.57-.59-.57Zm-.01,.77c-.12,0-.19-.08-.19-.2,0-.13,.08-.2,.21-.2,.11,0,.18,.08,.19,.2-.01,.13-.08,.2-.21,.2Zm1.59-.77c-.34,0-.58,.23-.58,.56,0,.33,.25,.6,.58,.6,.33,0,.59-.26,.59-.59,0-.33-.25-.57-.58-.57Zm0,.77c-.13,0-.2-.09-.19-.21,0-.11,.08-.18,.2-.19,.12,.02,.19,.08,.19,.2,0,.13-.07,.21-.2,.2Zm3.08,3.58c-.52-.32-1.04-.63-1.57-.94-.32-.19-.64,0-.64,.38,0,.3,0,.61,0,.91,0,.31,0,.62,0,.93,0,.37,.32,.56,.64,.38,.53-.31,1.05-.62,1.57-.94,.31-.19,.31-.54,0-.73Zm-1.77,1.34c-.07-.05-.04-.11-.04-.16,0-.54,0-1.08,0-1.62,0-.15,.01-.2,.17-.11,.49,.3,.98,.59,1.51,.91-.57,.34-1.1,.66-1.63,.98Zm-1.11,3.06c0-.24-.11-.43-.31-.56-.15-.1-.33-.12-.5-.12-.06,0-.13,.02-.13-.09-.02-.53-.21-.71-.73-.7-.16,0-.25,.06-.29,.22-.08,.27-.18,.53-.26,.79-.04,.13-.12,.19-.25,.18-.2,0-.39,0-.59,0-.45,0-.48,.03-.45,.49,0,.13,.05,.22,.18,.23,.13,.01,.19-.08,.21-.2,.02-.23,.19-.09,.29-.12,.13-.03,.11,.08,.11,.16,0,.28,0,.55,0,.83,0,.09,.04,.21-.12,.19-.11-.02-.29,.1-.28-.16,0-.11-.07-.19-.19-.19-.13,0-.19,.09-.19,.22,0,.09,0,.19,0,.28,0,.16,.09,.23,.24,.23,.23,0,.46,0,.69,0,.14,0,.23-.06,.24-.22,0-.04-.03-.11,.04-.12,.05-.01,.09,.03,.12,.07,.14,.15,.3,.25,.51,.26,.18,0,.35,0,.53,0,0,0,0,0,0,0,.18,0,.37,.01,.55,0,.37-.04,.62-.31,.63-.68,0-.33,0-.66,0-.99Zm-.38,.97c0,.21-.13,.32-.34,.32-.16,0-.31,0-.47,0-.1,0-.2,0-.3,0-.19,.02-.35-.02-.47-.17-.03-.04-.08-.09-.13-.09-.28-.05-.3-.25-.28-.48,0-.07,0-.15,0-.22-.01-.14,0-.24,.17-.28,.16-.04,.25-.18,.3-.33,.07-.22,.15-.43,.22-.65,.03-.11,.09-.16,.21-.13,.12,.03,.17,.11,.14,.23-.02,.09-.05,.17-.08,.25-.06,.19,.02,.3,.22,.3,.16,0,.31,0,.47,0,.21,0,.33,.11,.34,.32,0,.31,0,.62,0,.93Zm7.49-2.19c0-.17-.08-.25-.25-.25-.18,0-.35,0-.53,0q-.35,0-.42,.35c-.09-.03-.14-.09-.19-.14-.14-.14-.32-.21-.51-.21-.31,0-.62,0-.93,0-.42,.01-.7,.3-.7,.71,0,.32,0,.64,0,.95,0,.4,.3,.68,.7,.69,.05,0,.11,0,.16,0,.06,0,.09,0,.09,.09,0,.54,.21,.73,.74,.71,.15,0,.24-.07,.28-.21,.08-.26,.18-.51,.25-.77,.05-.16,.14-.22,.3-.21,.25,0,.5,0,.75,0,.18,0,.26-.07,.26-.25,0-.49,0-.97,0-1.46Zm-1.17,1.08c.02,.16-.01,.27-.2,.33-.15,.04-.23,.18-.28,.33-.07,.22-.15,.43-.22,.65-.04,.12-.11,.15-.21,.12-.1-.03-.16-.11-.13-.22,.02-.09,.06-.18,.09-.27,.05-.18-.01-.27-.2-.28-.15,0-.3,0-.45,0-.25,0-.38-.12-.38-.37,0-.28,0-.57,0-.85,0-.25,.12-.36,.36-.37,.15,0,.3,0,.45,0,.12,0,.24,0,.37,0,.15,0,.28,.04,.38,.15,.05,.06,.12,.13,.19,.14,.23,.05,.27,.2,.24,.4-.01,.08,0,.16,0,.24Zm.55,.26c-.1,.02-.19,.01-.18-.14,.01-.15,0-.31,0-.47,0-.11,0-.23,0-.34,0-.24,.1-.31,.33-.25,.07,.02,.07,.06,.07,.12,0,.32,0,.63,0,.95,0,.2-.14,.11-.23,.12Zm.12-9.72c-.38-.21-.77-.2-1.14,.02-.1,.06-.16,.07-.27,0-.5-.31-1.14-.2-1.49,.26-.35,.46-.3,1.11,.13,1.51,.41,.38,.83,.73,1.26,1.09,.16,.14,.31,.14,.47,0,.42-.36,.83-.72,1.24-1.08,.24-.22,.37-.5,.37-.83,0-.44-.19-.77-.57-.98Zm-.08,1.55c-.36,.32-.73,.63-1.08,.95-.08,.07-.13,.09-.22,0-.37-.33-.75-.65-1.11-.98-.25-.22-.31-.53-.19-.83,.11-.27,.38-.45,.7-.45,.21-.01,.39,.07,.53,.23,.13,.14,.24,.13,.38,0,.32-.31,.8-.31,1.08,0,.28,.31,.26,.77-.07,1.07Z"/>
</svg>